<svg xmlns="http://www.w3.org/2000/svg" xmlns:xlink="http://www.w3.org/1999/xlink" width="200" zoomAndPan="magnify" viewBox="0 0 150 30.000001" height="40" preserveAspectRatio="xMidYMid meet" version="1.0"><defs><clipPath id="70e61d9ca3"><path d="M 17.226562 2 L 125.371094 2 L 125.371094 25 L 17.226562 25 Z M 17.226562 2 " clip-rule="nonzero"/></clipPath></defs><g clip-path="url(#70e61d9ca3)"><path fill="#0833a2" d="M 125.265625 18.113281 C 123.796875 17.121094 121.378906 17.121094 119.910156 18.242188 C 120.125 17.53125 120.019531 16.644531 119.457031 16.148438 C 119.390625 16.082031 119.21875 16.191406 119.199219 16.191406 C 118.527344 16.601562 118.421875 17.832031 118.9375 18.4375 C 115.722656 16.210938 110.257812 14.074219 110.214844 14.054688 C 111.683594 13.6875 113.109375 13.210938 114.640625 13.015625 C 115.894531 12.867188 117.167969 12.910156 118.421875 12.867188 C 119.757812 14.378906 122.628906 14.59375 124.097656 13.167969 C 124.164062 13.125 124.140625 12.953125 124.011719 12.867188 C 120.925781 10.578125 118.722656 12.5625 118.722656 12.5625 C 116.003906 12.046875 112.289062 12.5625 109.804688 13.902344 C 108.46875 13.425781 107.109375 12.972656 105.8125 12.605469 C 101.34375 11.289062 96.722656 10.535156 92.082031 10.339844 C 93.269531 9.867188 94.414062 9.261719 95.644531 8.871094 C 97.261719 8.355469 98.902344 8.136719 100.566406 7.8125 C 102.378906 8.957031 106.242188 8.957031 108.941406 6.714844 C 109.027344 6.648438 109.136719 6.390625 109.007812 6.238281 C 107.796875 4.835938 105.703125 4.46875 103.957031 4.878906 C 101.796875 5.394531 100.4375 7.230469 100.457031 7.296875 C 98.535156 7.597656 96.9375 7.921875 95.363281 8.441406 C 93.960938 8.914062 92.320312 9.367188 90.957031 10.296875 C 87.007812 10.167969 83.359375 10.46875 79.300781 11.160156 C 80.660156 10.597656 81.957031 9.867188 83.054688 8.980469 C 84.265625 8.007812 85.691406 7.273438 87.246094 7.058594 C 87.546875 7.015625 87.871094 6.972656 88.195312 6.949219 C 88.929688 6.886719 89.707031 6.757812 90.289062 6.28125 C 90.632812 6 90.894531 5.613281 91 5.222656 C 91.132812 5.179688 91.132812 5.179688 91.261719 5.136719 C 91.648438 5.375 91.84375 4.898438 91.605469 4.75 C 91.605469 4.726562 91.605469 4.726562 91.585938 4.707031 C 91.605469 4.683594 91.628906 4.683594 91.671875 4.664062 C 91.820312 4.574219 91.757812 4.339844 91.605469 4.296875 C 91.605469 4.296875 91.605469 4.296875 91.585938 4.296875 C 91.585938 4.253906 91.585938 4.230469 91.5625 4.207031 C 91.714844 4.121094 91.628906 3.886719 91.453125 3.886719 C 91.410156 3.886719 91.367188 3.886719 91.347656 3.886719 C 91.347656 3.796875 91.28125 3.753906 91.21875 3.734375 C 91.21875 3.710938 91.21875 3.691406 91.21875 3.691406 C 91.304688 3.539062 91.132812 3.367188 90.980469 3.476562 C 90.914062 3.519531 90.851562 3.582031 90.808594 3.648438 C 90.765625 3.667969 90.742188 3.691406 90.722656 3.734375 C 90.722656 3.734375 90.722656 3.734375 90.699219 3.734375 C 90.699219 3.734375 90.675781 3.753906 90.675781 3.753906 C 89.167969 1.898438 86.941406 3.863281 85.496094 5.71875 C 84.675781 6.757812 83.769531 7.835938 82.710938 8.65625 C 82.085938 9.152344 81.394531 9.5625 80.898438 9.929688 C 80.054688 10.511719 77.617188 11.441406 76.082031 11.980469 C 75.285156 12.261719 74.441406 12.414062 73.601562 12.414062 C 73.558594 12.414062 73.535156 12.414062 73.492188 12.414062 C 72.671875 12.371094 71.828125 12.347656 71.007812 12.304688 C 70.015625 12.261719 69.023438 11.980469 68.160156 11.484375 C 67.492188 11.097656 66.800781 10.730469 66.109375 10.363281 C 65.375 9.972656 64.53125 9.304688 63.667969 9.261719 C 63.453125 9.238281 63.238281 9.28125 63.042969 9.347656 C 62.957031 9.304688 62.890625 9.261719 62.804688 9.21875 C 62.699219 8.957031 62.417969 9 62.332031 9.175781 C 62.242188 9.132812 62.136719 9.109375 62.050781 9.066406 C 61.832031 8.980469 61.683594 9.195312 61.769531 9.367188 C 61.746094 9.390625 61.726562 9.410156 61.703125 9.457031 C 61.640625 9.542969 61.640625 9.648438 61.726562 9.734375 C 61.726562 9.734375 61.726562 9.734375 61.746094 9.757812 C 61.746094 9.757812 61.746094 9.757812 61.726562 9.757812 C 61.703125 9.757812 61.683594 9.757812 61.660156 9.777344 C 61.488281 9.820312 61.445312 10.039062 61.617188 10.125 C 61.640625 10.125 61.660156 10.144531 61.660156 10.144531 C 61.660156 10.167969 61.660156 10.1875 61.660156 10.210938 C 61.660156 10.230469 61.660156 10.253906 61.660156 10.253906 C 61.574219 10.363281 61.617188 10.535156 61.789062 10.535156 C 61.921875 10.535156 62.050781 10.511719 62.199219 10.511719 C 62.199219 10.621094 62.222656 10.730469 62.265625 10.835938 C 62.785156 12.5 65.847656 12.328125 67.125 12.433594 C 68.65625 12.585938 72.5 12.714844 74.074219 12.78125 C 71.484375 13.535156 66.84375 15.261719 65.914062 15.457031 C 64.855469 15.671875 63.777344 15.847656 62.242188 15.132812 C 61.035156 14.570312 58.097656 13.472656 56.457031 11.808594 C 55.722656 11.074219 55.292969 10.296875 54.710938 9.390625 C 54.664062 9.324219 54.730469 6.261719 52.074219 5.871094 C 51.835938 6.304688 52.03125 7.597656 52.464844 8.269531 C 52.9375 8.980469 54.449219 9.476562 54.449219 9.476562 C 54.839844 10.75 56.542969 12.542969 57.257812 12.972656 C 55.292969 12.328125 52.980469 11.722656 50.824219 11.765625 C 51.082031 11.527344 51.363281 11.054688 51.167969 10.730469 C 51.148438 10.707031 50.5625 10.425781 50.238281 10.46875 C 50.152344 10.46875 50.089844 10.492188 50.003906 10.511719 C 49.828125 9.542969 49.050781 8.613281 47.996094 8.742188 C 47.910156 8.742188 47.84375 8.914062 47.820312 8.957031 C 47.605469 9.304688 47.605469 9.714844 47.714844 10.125 C 46.65625 10.082031 45.359375 10.46875 45.382812 10.578125 C 45.707031 12.066406 46.722656 12.328125 47.453125 12.390625 C 46.894531 12.84375 46.527344 13.492188 46.613281 14.203125 C 46.613281 14.25 46.675781 14.507812 46.808594 14.550781 C 47.476562 14.765625 48.296875 14.335938 48.816406 13.925781 C 49.355469 13.492188 49.679688 12.953125 49.765625 12.304688 C 49.871094 12.929688 50.328125 13.558594 50.972656 13.6875 C 51.039062 13.707031 51.167969 13.664062 51.191406 13.644531 C 51.601562 13.40625 51.277344 12.605469 50.996094 12.21875 C 52.917969 12.175781 55.121094 12.800781 57.019531 13.382812 C 59.136719 14.03125 62.460938 15.738281 62.890625 15.996094 C 59.003906 16.6875 55.054688 16.96875 51.125 16.839844 C 48.664062 16.753906 46.222656 16.492188 43.785156 16.105469 C 42.921875 15.953125 42.101562 15.671875 41.367188 15.242188 C 39.984375 14.421875 38.496094 13.75 36.8125 11.828125 C 35.214844 10.082031 34.585938 8.699219 34.046875 7.382812 C 33.765625 6.714844 33.59375 5.9375 33.121094 5.375 C 32.753906 4.941406 32.210938 4.683594 31.695312 4.726562 C 31.714844 4.597656 31.714844 4.488281 31.671875 4.382812 C 31.652344 4.316406 31.585938 4.316406 31.542969 4.359375 C 31.523438 4.382812 31.5 4.425781 31.476562 4.445312 C 31.433594 4.425781 31.371094 4.425781 31.328125 4.445312 C 31.285156 4.339844 31.21875 4.253906 31.175781 4.144531 C 31.066406 3.972656 30.808594 4.101562 30.851562 4.296875 C 30.875 4.339844 30.875 4.382812 30.894531 4.425781 C 30.808594 4.339844 30.746094 4.273438 30.65625 4.1875 C 30.550781 4.078125 30.355469 4.253906 30.421875 4.382812 C 30.441406 4.402344 30.441406 4.425781 30.464844 4.445312 C 30.421875 4.425781 30.398438 4.402344 30.355469 4.382812 C 30.203125 4.316406 30.054688 4.53125 30.183594 4.640625 C 30.226562 4.75 30.289062 4.835938 30.355469 4.898438 C 30.355469 4.898438 30.335938 4.898438 30.335938 4.898438 C 30.140625 4.964844 30.203125 5.246094 30.398438 5.246094 C 30.507812 5.246094 30.789062 5.265625 30.765625 5.289062 C 30.160156 6.214844 30.789062 7.316406 31.566406 7.945312 C 32.34375 8.570312 33.3125 8.957031 34.113281 9.585938 L 34.15625 9.628906 C 34.4375 9.867188 34.695312 10.125 34.910156 10.425781 C 35.34375 11.007812 35.816406 11.570312 36.25 12.046875 C 37.503906 13.40625 39.273438 14.894531 41.128906 15.628906 C 39.617188 15.304688 38.0625 14.960938 36.574219 14.507812 C 34.371094 13.839844 32.167969 13.105469 30.074219 12.195312 C 28.175781 11.375 26.363281 10.296875 24.527344 9.390625 C 25.648438 9.195312 26.039062 8.3125 25.996094 8.289062 C 25.5625 7.964844 24.828125 7.878906 24.222656 8.074219 C 25.863281 5.460938 23.75 2.566406 23.316406 2.976562 C 22.777344 3.496094 22.519531 4.253906 22.367188 5.007812 C 21.546875 4.015625 19.796875 3.496094 18.695312 3.777344 C 18.632812 3.796875 17.617188 6.863281 19.863281 7.621094 C 18.804688 7.835938 17.832031 8.460938 17.402344 9.410156 C 17.359375 9.476562 17.402344 9.714844 17.464844 9.757812 C 18.933594 10.75 21.351562 10.75 22.820312 9.628906 C 22.605469 10.339844 22.714844 11.226562 23.273438 11.722656 C 23.339844 11.785156 23.511719 11.679688 23.535156 11.679688 C 24.203125 11.269531 24.3125 10.039062 23.792969 9.433594 C 27.007812 11.65625 32.472656 13.792969 32.515625 13.816406 C 31.023438 14.183594 29.601562 14.660156 28.066406 14.832031 C 26.816406 14.980469 25.542969 14.9375 24.289062 14.980469 C 22.949219 13.472656 20.078125 13.253906 18.609375 14.679688 C 18.546875 14.722656 18.566406 14.894531 18.695312 14.980469 C 21.785156 17.269531 23.988281 15.285156 23.988281 15.285156 C 26.707031 15.800781 30.421875 15.285156 32.902344 13.945312 C 34.242188 14.421875 35.601562 14.875 36.898438 15.242188 C 41.367188 16.558594 45.988281 17.3125 50.628906 17.507812 C 49.441406 17.984375 48.296875 18.585938 47.066406 18.976562 C 45.445312 19.496094 43.804688 19.710938 42.144531 20.035156 C 40.332031 18.890625 36.464844 18.890625 33.765625 21.136719 C 33.679688 21.199219 33.574219 21.460938 33.703125 21.609375 C 34.910156 23.011719 37.003906 23.378906 38.753906 22.96875 C 40.914062 22.453125 42.273438 20.617188 42.25 20.550781 C 44.171875 20.25 45.769531 19.925781 47.347656 19.40625 C 48.75 18.933594 50.390625 18.480469 51.75 17.550781 C 55.703125 17.679688 59.351562 17.378906 63.410156 16.6875 C 62.070312 17.226562 60.777344 17.960938 59.675781 18.847656 C 58.359375 19.90625 56.824219 20.617188 55.164062 20.832031 C 54.945312 20.855469 54.730469 20.875 54.515625 20.898438 C 53.78125 20.960938 53.003906 21.09375 52.421875 21.566406 C 52.074219 21.847656 51.816406 22.238281 51.707031 22.625 C 51.578125 22.667969 51.578125 22.667969 51.449219 22.710938 C 51.058594 22.472656 50.867188 22.949219 51.105469 23.101562 C 51.105469 23.121094 51.105469 23.121094 51.125 23.144531 C 51.105469 23.164062 51.082031 23.164062 51.039062 23.1875 C 50.886719 23.273438 50.953125 23.511719 51.105469 23.554688 C 51.105469 23.554688 51.105469 23.554688 51.125 23.554688 C 51.125 23.597656 51.125 23.617188 51.148438 23.640625 C 50.996094 23.726562 51.082031 23.964844 51.253906 23.964844 C 51.296875 23.964844 51.339844 23.964844 51.363281 23.964844 C 51.363281 24.050781 51.425781 24.09375 51.492188 24.113281 C 51.492188 24.136719 51.492188 24.15625 51.492188 24.15625 C 51.40625 24.308594 51.578125 24.480469 51.730469 24.375 C 51.792969 24.332031 51.859375 24.265625 51.902344 24.199219 C 51.945312 24.179688 51.96875 24.15625 51.988281 24.113281 C 51.988281 24.113281 51.988281 24.113281 52.011719 24.113281 C 52.011719 24.113281 52.03125 24.09375 52.03125 24.09375 C 53.695312 26.121094 56.199219 23.574219 57.601562 21.609375 C 58.316406 20.617188 59.179688 19.730469 60.191406 19.0625 C 62.761719 17.335938 65.394531 16.277344 66.90625 15.757812 C 67.640625 15.5 68.417969 15.414062 69.195312 15.457031 C 70.015625 15.5 70.859375 15.523438 71.679688 15.566406 C 72.671875 15.609375 73.664062 15.890625 74.527344 16.386719 C 75.199219 16.773438 75.890625 17.140625 76.578125 17.507812 C 77.3125 17.898438 78.15625 18.566406 79.019531 18.609375 C 79.234375 18.628906 79.449219 18.585938 79.644531 18.523438 C 79.730469 18.566406 79.796875 18.609375 79.882812 18.652344 C 79.992188 18.910156 80.269531 18.867188 80.359375 18.695312 C 80.445312 18.738281 80.550781 18.761719 80.636719 18.804688 C 80.855469 18.890625 81.003906 18.675781 80.917969 18.5 C 80.941406 18.480469 80.960938 18.457031 80.984375 18.414062 C 81.046875 18.328125 81.046875 18.21875 80.960938 18.132812 C 80.960938 18.132812 80.960938 18.132812 80.941406 18.113281 C 80.941406 18.113281 80.941406 18.113281 80.960938 18.113281 C 80.984375 18.113281 81.003906 18.113281 81.027344 18.089844 C 81.199219 18.046875 81.242188 17.832031 81.070312 17.746094 C 81.046875 17.746094 81.027344 17.722656 81.027344 17.722656 C 81.027344 17.703125 81.027344 17.679688 81.027344 17.660156 C 81.027344 17.636719 81.027344 17.617188 81.027344 17.617188 C 81.113281 17.507812 81.070312 17.335938 80.898438 17.335938 C 80.769531 17.335938 80.636719 17.355469 80.488281 17.355469 C 80.488281 17.25 80.464844 17.140625 80.421875 17.03125 C 79.90625 15.371094 76.839844 15.542969 75.566406 15.433594 C 74.03125 15.285156 70.878906 15.003906 69.304688 14.9375 C 71.570312 14.117188 77.3125 12.261719 77.335938 12.261719 C 78.394531 12.023438 79.496094 12.195312 80.464844 12.695312 C 81.652344 13.296875 84.609375 14.355469 86.25 16.019531 C 86.984375 16.753906 87.417969 17.53125 88 18.4375 C 88.042969 18.5 87.980469 21.566406 90.632812 21.957031 C 90.871094 21.523438 90.679688 20.226562 90.246094 19.558594 C 89.769531 18.847656 88.257812 18.351562 88.257812 18.351562 C 87.871094 17.078125 86.164062 15.285156 85.453125 14.851562 C 87.417969 15.5 89.726562 16.105469 91.886719 16.0625 C 91.628906 16.300781 91.347656 16.773438 91.542969 17.097656 C 91.5625 17.121094 92.144531 17.398438 92.46875 17.355469 C 92.554688 17.355469 92.621094 17.335938 92.707031 17.3125 C 92.878906 18.285156 93.65625 19.214844 94.714844 19.085938 C 94.800781 19.085938 94.867188 18.910156 94.886719 18.867188 C 95.105469 18.523438 95.105469 18.113281 94.996094 17.703125 C 96.054688 17.746094 97.347656 17.355469 97.328125 17.25 C 97.003906 15.757812 95.988281 15.5 95.253906 15.433594 C 95.816406 14.980469 96.183594 14.335938 96.097656 13.621094 C 96.097656 13.578125 96.03125 13.320312 95.902344 13.277344 C 95.234375 13.0625 94.414062 13.492188 93.894531 13.902344 C 93.355469 14.335938 93.03125 14.875 92.945312 15.523438 C 92.835938 14.894531 92.382812 14.269531 91.734375 14.140625 C 91.671875 14.117188 91.542969 14.160156 91.519531 14.183594 C 91.109375 14.421875 91.433594 15.21875 91.714844 15.609375 C 89.792969 15.652344 87.589844 15.023438 85.691406 14.441406 C 83.574219 13.792969 80.25 12.089844 79.816406 11.828125 C 83.703125 11.140625 87.65625 10.859375 91.585938 10.988281 C 94.046875 11.074219 96.484375 11.332031 98.925781 11.722656 C 99.789062 11.875 100.609375 12.152344 101.34375 12.585938 C 102.726562 13.40625 104.214844 14.074219 105.898438 15.996094 C 107.453125 17.765625 108.078125 19.148438 108.617188 20.488281 C 108.898438 21.15625 109.074219 21.933594 109.546875 22.496094 C 109.914062 22.925781 110.453125 23.1875 110.972656 23.144531 C 110.949219 23.273438 110.949219 23.378906 110.992188 23.488281 C 111.015625 23.554688 111.082031 23.554688 111.125 23.511719 C 111.144531 23.488281 111.167969 23.445312 111.1875 23.421875 C 111.230469 23.445312 111.296875 23.445312 111.339844 23.421875 C 111.402344 23.511719 111.445312 23.617188 111.511719 23.703125 C 111.621094 23.878906 111.878906 23.746094 111.835938 23.554688 C 111.8125 23.511719 111.8125 23.46875 111.792969 23.421875 C 111.878906 23.511719 111.945312 23.574219 112.03125 23.660156 C 112.136719 23.769531 112.332031 23.597656 112.265625 23.46875 C 112.246094 23.445312 112.246094 23.421875 112.222656 23.402344 C 112.265625 23.421875 112.289062 23.445312 112.332031 23.46875 C 112.484375 23.53125 112.632812 23.316406 112.503906 23.207031 C 112.441406 23.121094 112.375 23.035156 112.3125 22.96875 C 112.3125 22.96875 112.332031 22.96875 112.332031 22.96875 C 112.527344 22.90625 112.460938 22.625 112.265625 22.625 C 112.160156 22.625 111.878906 22.601562 111.902344 22.582031 C 112.503906 21.652344 111.878906 20.550781 111.101562 19.925781 C 110.324219 19.300781 109.351562 18.910156 108.554688 18.285156 L 108.511719 18.242188 C 108.230469 18.003906 107.972656 17.746094 107.753906 17.445312 C 107.324219 16.859375 106.847656 16.300781 106.417969 15.824219 C 105.164062 14.464844 103.394531 12.972656 101.539062 12.242188 C 103.046875 12.5625 104.601562 12.910156 106.09375 13.363281 C 108.296875 14.03125 110.496094 14.765625 112.589844 15.671875 C 114.492188 16.492188 116.304688 17.574219 118.140625 18.480469 C 117.015625 18.675781 116.628906 19.558594 116.671875 19.582031 C 117.105469 19.90625 117.835938 19.992188 118.441406 19.796875 C 116.800781 22.410156 118.917969 25.300781 119.347656 24.890625 C 119.867188 24.394531 120.125 23.640625 120.277344 22.882812 C 121.097656 23.878906 122.847656 24.394531 123.949219 24.113281 C 124.011719 24.09375 125.027344 21.027344 122.78125 20.273438 C 123.839844 20.054688 124.8125 19.429688 125.242188 18.480469 C 125.371094 18.394531 125.351562 18.15625 125.265625 18.113281 Z M 120.515625 13.515625 C 120.019531 13.40625 119.566406 13.191406 119.132812 12.953125 C 120.578125 13.320312 123.816406 13.082031 123.816406 13.082031 C 122.71875 13.449219 121.703125 13.773438 120.515625 13.515625 Z M 118.851562 12.671875 C 119.523438 12.414062 120.210938 12.21875 120.925781 12.195312 C 121.941406 12.175781 122.695312 12.5625 123.558594 12.972656 C 122.738281 12.910156 121.898438 12.972656 121.078125 12.929688 C 120.320312 12.867188 119.585938 12.78125 118.851562 12.671875 C 118.851562 12.695312 118.851562 12.695312 118.851562 12.671875 Z M 103.867188 7.964844 C 103.4375 7.707031 103.199219 7.46875 102.855469 7.273438 C 103.222656 7.230469 103.589844 7.1875 103.957031 7.144531 C 103.957031 7.167969 104.710938 7.640625 105.121094 7.835938 C 104.820312 7.878906 104 7.964844 103.867188 7.964844 Z M 105.617188 7.726562 C 105.1875 7.449219 104.367188 7.082031 104.472656 7.082031 C 104.882812 7.035156 105.554688 6.949219 105.574219 6.972656 C 105.855469 7.125 106.222656 7.359375 106.480469 7.492188 C 106.199219 7.578125 105.921875 7.640625 105.617188 7.726562 Z M 106.957031 7.296875 C 106.847656 7.253906 106.742188 7.210938 106.632812 7.144531 C 106.394531 7.035156 106.136719 6.929688 106.007812 6.886719 C 106.890625 6.777344 107.667969 6.691406 108.554688 6.539062 C 108.015625 6.84375 107.496094 7.101562 106.957031 7.296875 Z M 101.667969 6.777344 C 102.378906 6.152344 103.242188 5.699219 104.148438 5.503906 C 105.703125 5.160156 107 5.589844 108.316406 6.261719 C 107.109375 6.324219 105.878906 6.476562 104.667969 6.625 C 103.609375 6.734375 102.507812 6.800781 101.449219 6.992188 C 101.515625 6.929688 101.582031 6.863281 101.667969 6.777344 Z M 102.507812 7.316406 C 102.507812 7.339844 103.113281 7.769531 103.371094 7.945312 C 102.660156 7.878906 101.128906 7.449219 101.0625 7.402344 C 101.539062 7.402344 102.011719 7.359375 102.507812 7.316406 Z M 90.179688 5.761719 C 89.445312 6.238281 88.257812 6.410156 87.675781 6.453125 C 87.527344 6.476562 87.394531 6.476562 87.265625 6.496094 C 88.085938 6.238281 89.855469 5.308594 90.589844 4.898438 C 90.613281 4.878906 90.632812 5.375 90.179688 5.761719 Z M 90.570312 4.664062 C 89.273438 5.222656 86.984375 6.085938 85.691406 6.648438 C 86.164062 6.214844 86.640625 5.785156 87.203125 5.460938 C 87.957031 5.007812 89.640625 4.445312 90.441406 4.230469 C 90.699219 4.207031 90.675781 4.617188 90.570312 4.664062 Z M 88 3.949219 C 88.667969 3.5625 89.382812 3.453125 90.246094 3.949219 C 88.886719 4.1875 86.617188 5.222656 85.667969 6.238281 C 86.121094 5.675781 87.136719 4.511719 88 3.949219 Z M 63.453125 9.605469 C 64.683594 9.585938 66.066406 10.730469 66.476562 10.945312 C 66.648438 11.054688 66.929688 11.226562 67.101562 11.332031 C 66.171875 10.921875 63.949219 10.167969 62.957031 9.996094 C 62.976562 9.867188 63.257812 9.628906 63.453125 9.605469 Z M 65.179688 11.808594 C 64.835938 11.765625 64.511719 11.699219 64.164062 11.636719 C 63.5625 11.570312 62.785156 10.964844 62.804688 10.253906 C 63.453125 10.773438 65.203125 11.679688 66.042969 11.894531 C 65.761719 11.875 65.480469 11.851562 65.179688 11.808594 Z M 62.890625 10.167969 C 63.453125 10.296875 65.007812 10.878906 65.570312 11.054688 C 66.433594 11.3125 67.230469 11.679688 68.074219 12.003906 C 65.804688 11.808594 62.890625 10.167969 62.890625 10.167969 Z M 54.34375 8.980469 C 54.234375 8.785156 54.082031 8.589844 53.953125 8.398438 C 53.953125 8.074219 53.976562 7.835938 53.933594 7.554688 C 54.167969 7.988281 54.253906 8.460938 54.34375 8.980469 Z M 53.15625 6.714844 C 53.285156 6.800781 53.585938 7.015625 53.714844 7.167969 C 53.738281 7.640625 53.738281 7.835938 53.714844 8.050781 C 53.609375 7.902344 53.476562 7.707031 53.347656 7.554688 C 53.261719 7.425781 53.175781 7.316406 53.089844 7.1875 C 53.132812 7.058594 53.15625 6.886719 53.15625 6.714844 Z M 53.023438 6.625 C 53.023438 6.625 53.023438 6.90625 52.980469 7.015625 L 52.421875 6.304688 C 52.398438 6.304688 52.746094 6.390625 53.023438 6.625 Z M 52.789062 8.074219 C 52.484375 7.597656 52.421875 7.144531 52.335938 6.648438 C 52.59375 7.058594 52.917969 7.425781 53.199219 7.8125 C 53.566406 8.332031 53.910156 8.851562 54.363281 9.304688 C 53.757812 9.023438 53.15625 8.632812 52.789062 8.074219 Z M 48.707031 10.449219 C 48.988281 10.902344 49.507812 11.765625 49.441406 11.742188 C 48.964844 11.464844 48.511719 11.097656 48.273438 10.578125 C 48.058594 10.144531 48.082031 9.757812 48.082031 9.304688 C 48.210938 9.734375 48.46875 10.082031 48.707031 10.449219 Z M 47.84375 10.554688 C 48.082031 11.054688 48.707031 11.527344 48.964844 11.875 C 48.683594 11.65625 47.28125 10.730469 46.546875 10.511719 C 46.957031 10.425781 47.367188 10.40625 47.84375 10.554688 Z M 47.175781 11.03125 C 47.628906 11.183594 48.210938 11.550781 48.640625 11.808594 C 48.363281 11.828125 47.886719 11.828125 47.195312 11.679688 C 46.675781 11.570312 46.117188 11.226562 45.683594 10.878906 C 45.707031 10.859375 46.722656 10.902344 47.175781 11.03125 Z M 46.398438 11.875 C 45.902344 11.613281 45.683594 11.117188 45.621094 10.921875 C 46.007812 11.441406 46.417969 11.765625 47.066406 11.980469 C 47.28125 12.046875 47.542969 12.109375 47.800781 12.152344 C 47.800781 12.152344 47.777344 12.152344 47.777344 12.152344 C 47.714844 12.195312 47.648438 12.242188 47.585938 12.285156 C 47.152344 12.261719 46.765625 12.066406 46.398438 11.875 Z M 46.871094 14.097656 C 47.109375 13.558594 47.324219 13.039062 47.820312 12.652344 C 48.167969 12.390625 48.535156 12.304688 48.902344 12.261719 C 48.621094 12.457031 48.382812 12.714844 48.125 12.929688 C 47.714844 13.253906 47.238281 13.6875 46.871094 14.097656 Z M 48.320312 13.75 C 47.929688 13.988281 47.519531 14.054688 47.109375 14.160156 C 47.542969 13.882812 47.953125 13.492188 48.363281 13.167969 C 48.730469 12.867188 49.183594 12.585938 49.441406 12.195312 C 49.507812 12.175781 49.59375 12.175781 49.65625 12.152344 C 49.65625 12.152344 49.65625 12.152344 49.65625 12.175781 C 49.375 12.78125 48.902344 13.382812 48.320312 13.75 Z M 49.097656 10.339844 C 48.878906 9.972656 48.683594 9.585938 48.40625 9.238281 C 48.730469 9.410156 49.03125 9.585938 49.269531 9.886719 C 49.65625 10.40625 49.742188 11.3125 49.765625 11.507812 C 49.550781 11.097656 49.3125 10.707031 49.097656 10.339844 Z M 50.023438 10.878906 C 50.132812 10.835938 50.21875 10.816406 50.347656 10.792969 C 50.5 10.792969 50.800781 10.835938 50.972656 10.878906 C 50.886719 11.054688 50.738281 11.246094 50.605469 11.398438 C 50.433594 11.636719 50.152344 11.742188 49.871094 11.722656 C 49.980469 11.464844 50.046875 11.183594 50.023438 10.878906 Z M 50.996094 12.824219 C 51.105469 13.039062 51.105469 13.277344 51.058594 13.515625 C 51.058594 13.515625 51.058594 13.515625 51.058594 13.492188 C 50.78125 13.277344 50.5 13.082031 50.28125 12.78125 C 50.175781 12.628906 50.089844 12.433594 50.003906 12.242188 C 50.328125 12.285156 50.886719 12.585938 50.996094 12.824219 Z M 33.054688 5.9375 C 33.3125 6.367188 33.441406 6.777344 33.550781 7.015625 C 33.378906 6.800781 31.933594 5.289062 31.738281 5.09375 C 31.800781 5.074219 32.472656 5.007812 33.054688 5.9375 Z M 31.757812 7.726562 C 31.21875 7.144531 30.746094 6.347656 30.894531 5.699219 C 31.738281 7.210938 34.113281 9.261719 34.15625 9.324219 C 33.679688 9.023438 32.386719 8.398438 31.757812 7.726562 Z M 32.515625 7.449219 C 32.234375 7.144531 31.304688 5.980469 31.132812 5.65625 C 31.003906 5.484375 31.261719 5.117188 31.585938 5.289062 C 31.84375 5.527344 32.902344 6.714844 33.121094 7.015625 C 33.59375 7.640625 33.894531 8.355469 34.261719 9.023438 C 33.679688 8.503906 33.054688 8.03125 32.515625 7.449219 Z M 23.597656 6.128906 C 23.664062 5.417969 23.792969 4.683594 23.8125 3.972656 C 24.203125 4.664062 24.503906 5.332031 24.441406 6.214844 C 24.375 7.144531 23.945312 7.859375 23.382812 8.503906 C 23.382812 8.503906 23.535156 6.90625 23.597656 6.128906 Z M 20.941406 4.488281 C 21.480469 4.769531 21.847656 5.179688 22.28125 5.546875 C 22.214844 6.238281 22.28125 6.949219 22.476562 7.578125 C 22.042969 6.734375 21.375 6 20.707031 5.351562 C 20.230469 4.898438 19.667969 4.339844 19.042969 4.015625 C 19.710938 4.101562 20.339844 4.1875 20.941406 4.488281 Z M 22.390625 7.945312 C 22.128906 7.75 21.804688 7.621094 21.527344 7.449219 C 21.050781 7.167969 20.617188 6.820312 20.25 6.410156 C 19.734375 5.828125 19.496094 5.160156 19.128906 4.511719 C 19.691406 4.984375 20.339844 5.417969 20.855469 5.957031 C 21.4375 6.5625 21.871094 7.273438 22.390625 7.945312 Z M 18.785156 4.53125 C 18.933594 5.332031 19.5625 6.128906 20.078125 6.671875 C 20.339844 6.949219 20.683594 7.253906 21.050781 7.535156 C 20.683594 7.492188 20.316406 7.511719 19.949219 7.578125 C 19.929688 7.578125 19.929688 7.554688 19.90625 7.535156 C 18.828125 6.757812 18.609375 5.71875 18.785156 4.53125 Z M 20.445312 7.945312 C 21.308594 7.921875 21.9375 8.222656 22.605469 8.613281 C 21.828125 8.765625 21.050781 8.980469 20.25 9.109375 C 19.410156 9.238281 18.546875 9.304688 17.703125 9.457031 C 18.480469 8.613281 19.257812 7.988281 20.445312 7.945312 Z M 21.222656 9.886719 C 19.429688 10.363281 17.746094 9.605469 17.746094 9.605469 C 17.746094 9.605469 20.941406 9.585938 22.949219 8.828125 C 22.972656 8.828125 22.28125 9.605469 21.222656 9.886719 Z M 22.691406 6.367188 C 22.691406 6.171875 22.734375 4.878906 23.511719 3.410156 C 23.535156 3.429688 23.382812 4.984375 23.316406 5.699219 C 23.230469 6.5625 23.125 7.449219 23.125 8.3125 C 22.886719 7.683594 22.691406 7.058594 22.691406 6.367188 Z M 23.769531 10.40625 C 23.792969 10.792969 23.621094 11.140625 23.445312 11.464844 C 23.316406 11.160156 23.167969 10.878906 23.125 10.578125 C 23.058594 10.1875 23.253906 9.175781 23.339844 9.304688 C 23.511719 9.671875 23.75 9.972656 23.769531 10.40625 Z M 23.511719 8.871094 C 23.578125 8.808594 23.664062 8.742188 23.726562 8.679688 C 24.074219 8.527344 24.375 8.332031 24.785156 8.3125 C 25.132812 8.289062 25.367188 8.375 25.714844 8.460938 C 25.390625 8.632812 25.132812 8.894531 24.765625 8.980469 C 24.332031 9.066406 23.535156 8.871094 23.511719 8.871094 Z M 22.238281 14.355469 C 22.734375 14.464844 23.1875 14.679688 23.621094 14.917969 C 22.171875 14.550781 18.933594 14.789062 18.933594 14.789062 C 20.035156 14.421875 21.050781 14.097656 22.238281 14.355469 Z M 23.898438 15.175781 C 23.230469 15.433594 22.539062 15.628906 21.828125 15.652344 C 20.8125 15.671875 20.058594 15.285156 19.195312 14.875 C 20.015625 14.9375 20.855469 14.875 21.675781 14.917969 C 22.433594 15.003906 23.167969 15.089844 23.898438 15.175781 Z M 38.882812 19.90625 C 39.316406 20.164062 39.554688 20.402344 39.898438 20.59375 C 39.53125 20.640625 39.164062 20.683594 38.796875 20.726562 C 38.796875 20.703125 38.042969 20.226562 37.632812 20.035156 C 37.933594 19.992188 38.753906 19.90625 38.882812 19.90625 Z M 37.136719 20.140625 C 37.566406 20.421875 38.386719 20.789062 38.277344 20.789062 C 37.867188 20.832031 37.199219 20.917969 37.179688 20.898438 C 36.898438 20.746094 36.53125 20.507812 36.269531 20.378906 C 36.550781 20.292969 36.832031 20.207031 37.136719 20.140625 Z M 35.796875 20.550781 C 35.90625 20.59375 36.011719 20.640625 36.121094 20.703125 C 36.359375 20.8125 36.617188 20.917969 36.746094 20.960938 C 35.859375 21.070312 35.082031 21.15625 34.199219 21.308594 C 34.738281 21.027344 35.257812 20.769531 35.796875 20.550781 Z M 41.085938 21.09375 C 40.375 21.71875 39.511719 22.171875 38.601562 22.367188 C 37.046875 22.710938 35.753906 22.257812 34.4375 21.609375 C 35.644531 21.546875 36.875 21.394531 38.085938 21.242188 C 39.144531 21.136719 40.242188 21.070312 41.300781 20.875 C 41.238281 20.941406 41.171875 21.003906 41.085938 21.09375 Z M 40.242188 20.550781 C 40.242188 20.53125 39.640625 20.097656 39.378906 19.925781 C 40.09375 19.992188 41.625 20.421875 41.691406 20.464844 C 41.214844 20.464844 40.742188 20.507812 40.242188 20.550781 Z M 52.570312 22.105469 C 53.304688 21.632812 54.492188 21.460938 55.074219 21.414062 C 55.226562 21.394531 55.355469 21.394531 55.484375 21.371094 C 54.664062 21.632812 52.894531 22.558594 52.160156 22.96875 C 52.140625 22.992188 52.117188 22.496094 52.570312 22.105469 Z M 52.183594 23.207031 C 53.476562 22.648438 55.765625 21.78125 57.0625 21.222656 C 56.585938 21.652344 56.113281 22.085938 55.550781 22.410156 C 54.796875 22.863281 53.113281 23.421875 52.3125 23.640625 C 52.054688 23.660156 52.074219 23.25 52.183594 23.207031 Z M 54.753906 23.921875 C 54.082031 24.308594 53.371094 24.417969 52.507812 23.921875 C 53.867188 23.683594 56.132812 22.648438 57.082031 21.632812 C 56.628906 22.171875 55.617188 23.359375 54.753906 23.921875 Z M 79.300781 18.265625 C 78.070312 18.285156 76.6875 17.140625 76.277344 16.925781 C 76.105469 16.816406 75.824219 16.644531 75.652344 16.535156 C 76.578125 16.945312 78.804688 17.703125 79.796875 17.875 C 79.773438 17.984375 79.496094 18.242188 79.300781 18.265625 Z M 77.574219 16.0625 C 77.917969 16.105469 78.242188 16.167969 78.585938 16.234375 C 79.191406 16.300781 79.96875 16.902344 79.949219 17.617188 C 79.300781 17.097656 77.550781 16.191406 76.710938 15.976562 C 76.988281 15.976562 77.269531 16.019531 77.574219 16.0625 Z M 79.859375 17.703125 C 79.300781 17.574219 77.746094 16.988281 77.183594 16.816406 C 76.320312 16.558594 75.523438 16.191406 74.679688 15.867188 C 76.945312 16.039062 79.859375 17.703125 79.859375 17.703125 Z M 88.410156 18.890625 C 88.519531 19.085938 88.667969 19.277344 88.800781 19.472656 C 88.800781 19.796875 88.777344 20.035156 88.820312 20.316406 C 88.582031 19.882812 88.496094 19.40625 88.410156 18.890625 Z M 89.597656 21.15625 C 89.46875 21.070312 89.167969 20.855469 89.035156 20.703125 C 89.015625 20.226562 89.015625 20.035156 89.035156 19.816406 C 89.144531 19.96875 89.273438 20.164062 89.402344 20.316406 C 89.492188 20.445312 89.578125 20.550781 89.664062 20.683594 C 89.621094 20.8125 89.597656 20.984375 89.597656 21.15625 Z M 89.726562 21.242188 C 89.726562 21.242188 89.726562 20.960938 89.769531 20.855469 L 90.332031 21.566406 C 90.355469 21.546875 90.007812 21.480469 89.726562 21.242188 Z M 89.964844 19.796875 C 90.265625 20.273438 90.332031 20.726562 90.417969 21.222656 C 90.160156 20.8125 89.835938 20.445312 89.554688 20.054688 C 89.1875 19.539062 88.84375 19.019531 88.390625 18.566406 C 88.992188 18.847656 89.597656 19.234375 89.964844 19.796875 Z M 94.046875 17.421875 C 93.765625 16.96875 93.246094 16.105469 93.3125 16.125 C 93.785156 16.40625 94.238281 16.773438 94.476562 17.292969 C 94.695312 17.722656 94.671875 18.113281 94.671875 18.566406 C 94.542969 18.132812 94.285156 17.765625 94.046875 17.421875 Z M 94.910156 17.3125 C 94.671875 16.816406 94.046875 16.34375 93.785156 15.996094 C 94.066406 16.210938 95.46875 17.140625 96.203125 17.355469 C 95.792969 17.445312 95.382812 17.464844 94.910156 17.3125 Z M 95.578125 16.839844 C 95.125 16.6875 94.542969 16.320312 94.109375 16.0625 C 94.390625 16.039062 94.867188 16.039062 95.558594 16.191406 C 96.074219 16.300781 96.636719 16.644531 97.066406 16.988281 C 97.046875 17.011719 96.03125 16.96875 95.578125 16.839844 Z M 96.355469 15.996094 C 96.851562 16.257812 97.066406 16.753906 97.132812 16.945312 C 96.746094 16.429688 96.335938 16.105469 95.6875 15.890625 C 95.46875 15.824219 95.210938 15.757812 94.953125 15.714844 C 94.953125 15.714844 94.972656 15.714844 94.972656 15.714844 C 95.039062 15.671875 95.105469 15.628906 95.167969 15.585938 C 95.601562 15.609375 95.988281 15.800781 96.355469 15.996094 Z M 95.882812 13.773438 C 95.644531 14.3125 95.425781 14.832031 94.929688 15.21875 C 94.585938 15.480469 94.21875 15.566406 93.851562 15.609375 C 94.132812 15.414062 94.371094 15.15625 94.628906 14.9375 C 95.039062 14.59375 95.515625 14.183594 95.882812 13.773438 Z M 94.433594 14.117188 C 94.824219 13.882812 95.234375 13.816406 95.644531 13.707031 C 95.210938 13.988281 94.800781 14.378906 94.390625 14.703125 C 94.023438 15.003906 93.570312 15.285156 93.3125 15.671875 C 93.246094 15.695312 93.160156 15.695312 93.097656 15.714844 C 93.097656 15.714844 93.097656 15.714844 93.097656 15.695312 C 93.375 15.089844 93.851562 14.484375 94.433594 14.117188 Z M 93.65625 17.53125 C 93.871094 17.898438 94.066406 18.285156 94.347656 18.628906 C 94.023438 18.457031 93.722656 18.285156 93.484375 17.984375 C 93.097656 17.464844 93.007812 16.558594 92.988281 16.363281 C 93.203125 16.773438 93.441406 17.140625 93.65625 17.53125 Z M 92.730469 16.988281 C 92.621094 17.03125 92.535156 17.054688 92.40625 17.078125 C 92.253906 17.078125 91.953125 17.03125 91.777344 16.988281 C 91.863281 16.816406 92.015625 16.621094 92.144531 16.472656 C 92.320312 16.234375 92.597656 16.125 92.878906 16.148438 C 92.773438 16.40625 92.707031 16.6875 92.730469 16.988281 Z M 91.757812 15.046875 C 91.648438 14.832031 91.648438 14.59375 91.691406 14.355469 C 91.691406 14.355469 91.691406 14.355469 91.691406 14.378906 C 91.972656 14.59375 92.253906 14.789062 92.46875 15.089844 C 92.578125 15.242188 92.664062 15.433594 92.75 15.628906 C 92.425781 15.585938 91.863281 15.285156 91.757812 15.046875 Z M 109.699219 21.933594 C 109.4375 21.503906 109.308594 21.09375 109.203125 20.855469 C 109.375 21.070312 110.820312 22.582031 111.015625 22.777344 C 110.949219 22.777344 110.28125 22.863281 109.699219 21.933594 Z M 110.992188 20.140625 C 111.535156 20.726562 112.007812 21.523438 111.855469 22.171875 C 111.015625 20.660156 108.640625 18.609375 108.597656 18.542969 C 109.074219 18.847656 110.367188 19.472656 110.992188 20.140625 Z M 110.238281 20.421875 C 110.519531 20.726562 111.445312 21.890625 111.621094 22.214844 C 111.75 22.386719 111.492188 22.753906 111.167969 22.582031 C 110.90625 22.34375 109.847656 21.15625 109.632812 20.855469 C 109.160156 20.226562 108.855469 19.515625 108.488281 18.847656 C 109.074219 19.363281 109.699219 19.839844 110.238281 20.421875 Z M 121.53125 17.984375 C 123.320312 17.507812 125.003906 18.265625 125.003906 18.265625 C 125.003906 18.265625 121.808594 18.285156 119.800781 19.042969 C 119.78125 19.042969 120.472656 18.265625 121.53125 17.984375 Z M 117.96875 19.582031 C 117.621094 19.601562 117.382812 19.515625 117.039062 19.429688 C 117.363281 19.257812 117.621094 18.996094 117.988281 18.910156 C 118.421875 18.804688 119.21875 19.019531 119.242188 19.019531 C 119.175781 19.085938 119.089844 19.148438 119.023438 19.214844 C 118.679688 19.363281 118.378906 19.539062 117.96875 19.582031 Z M 119.15625 21.738281 C 119.089844 22.453125 118.960938 23.1875 118.9375 23.898438 C 118.550781 23.207031 118.246094 22.539062 118.3125 21.652344 C 118.378906 20.726562 118.808594 20.011719 119.371094 19.363281 C 119.371094 19.363281 119.21875 20.941406 119.15625 21.738281 Z M 119.457031 18.566406 C 119.242188 18.199219 119.023438 17.898438 119.003906 17.464844 C 118.980469 17.078125 119.15625 16.730469 119.328125 16.40625 C 119.457031 16.710938 119.609375 16.988281 119.652344 17.292969 C 119.714844 17.679688 119.523438 18.695312 119.457031 18.566406 Z M 119.242188 24.460938 C 119.21875 24.4375 119.371094 22.882812 119.433594 22.171875 C 119.523438 21.308594 119.628906 20.421875 119.628906 19.558594 C 119.84375 20.183594 120.039062 20.8125 120.0625 21.503906 C 120.0625 21.695312 120.019531 22.992188 119.242188 24.460938 Z M 121.808594 23.378906 C 121.269531 23.101562 120.902344 22.691406 120.472656 22.324219 C 120.535156 21.632812 120.472656 20.917969 120.277344 20.292969 C 120.710938 21.136719 121.378906 21.871094 122.046875 22.515625 C 122.523438 22.992188 123.105469 23.554688 123.710938 23.855469 C 123.039062 23.769531 122.414062 23.683594 121.808594 23.378906 Z M 120.363281 19.925781 C 120.621094 20.121094 120.945312 20.25 121.226562 20.421875 C 121.703125 20.703125 122.132812 21.050781 122.5 21.460938 C 123.019531 22.042969 123.257812 22.710938 123.625 23.359375 C 123.0625 22.882812 122.414062 22.453125 121.898438 21.914062 C 121.3125 21.285156 120.882812 20.59375 120.363281 19.925781 Z M 123.96875 23.316406 C 123.816406 22.515625 123.191406 21.71875 122.675781 21.179688 C 122.414062 20.898438 122.070312 20.59375 121.703125 20.316406 C 122.070312 20.359375 122.4375 20.335938 122.804688 20.273438 C 122.824219 20.273438 122.824219 20.292969 122.847656 20.316406 C 123.925781 21.113281 124.140625 22.148438 123.96875 23.316406 Z M 122.308594 19.90625 C 121.441406 19.925781 120.816406 19.625 120.148438 19.234375 C 120.925781 19.085938 121.703125 18.867188 122.5 18.738281 C 123.34375 18.609375 124.207031 18.542969 125.046875 18.394531 C 124.273438 19.257812 123.496094 19.882812 122.308594 19.90625 Z M 122.308594 19.90625 " fill-opacity="1" fill-rule="nonzero"/></g></svg>