<svg xmlns="http://www.w3.org/2000/svg" xmlns:xlink="http://www.w3.org/1999/xlink" width="70" zoomAndPan="magnify" viewBox="0 0 52.5 52.499999" height="70" preserveAspectRatio="xMidYMid meet" version="1.0"><defs><clipPath id="f8489c7e8e"><path d="M 5.199219 9 L 18 9 L 18 46.546875 L 5.199219 46.546875 Z M 5.199219 9 " clip-rule="nonzero"/></clipPath><clipPath id="a4bf3603e3"><path d="M 5.199219 6 L 18 6 L 18 9 L 5.199219 9 Z M 5.199219 6 " clip-rule="nonzero"/></clipPath><clipPath id="9d3e276775"><path d="M 17 13 L 34 13 L 34 46.546875 L 17 46.546875 Z M 17 13 " clip-rule="nonzero"/></clipPath><clipPath id="79d9b18dcd"><path d="M 5.199219 9 L 7 9 L 7 46.546875 L 5.199219 46.546875 Z M 5.199219 9 " clip-rule="nonzero"/></clipPath><clipPath id="b817692362"><path d="M 15 9 L 18 9 L 18 46.546875 L 15 46.546875 Z M 15 9 " clip-rule="nonzero"/></clipPath><clipPath id="7943df8de9"><path d="M 19.742188 24.78125 L 31.292969 24.78125 L 31.292969 46.546875 L 19.742188 46.546875 Z M 19.742188 24.78125 " clip-rule="nonzero"/></clipPath><clipPath id="076c38077b"><path d="M 22 40 L 29 40 L 29 46.546875 L 22 46.546875 Z M 22 40 " clip-rule="nonzero"/></clipPath><clipPath id="2ba3a9706c"><path d="M 8 40 L 14 40 L 14 46.546875 L 8 46.546875 Z M 8 40 " clip-rule="nonzero"/></clipPath><clipPath id="7a7c9b1532"><path d="M 5.199219 25 L 18 25 L 18 28 L 5.199219 28 Z M 5.199219 25 " clip-rule="nonzero"/></clipPath><clipPath id="afe6060f8a"><path d="M 5.199219 6 L 7 6 L 7 9 L 5.199219 9 Z M 5.199219 6 " clip-rule="nonzero"/></clipPath><clipPath id="311c53cdff"><path d="M 6 4.199219 L 8 4.199219 L 8 7 L 6 7 Z M 6 4.199219 " clip-rule="nonzero"/></clipPath><clipPath id="0922283670"><path d="M 6 4.199219 L 17 4.199219 L 17 5 L 6 5 Z M 6 4.199219 " clip-rule="nonzero"/></clipPath><clipPath id="ff471a021d"><path d="M 14 4.199219 L 17 4.199219 L 17 7 L 14 7 Z M 14 4.199219 " clip-rule="nonzero"/></clipPath><clipPath id="389af27104"><path d="M 7 4.199219 L 9 4.199219 L 9 7 L 7 7 Z M 7 4.199219 " clip-rule="nonzero"/></clipPath><clipPath id="2156137204"><path d="M 8 4.199219 L 9 4.199219 L 9 7 L 8 7 Z M 8 4.199219 " clip-rule="nonzero"/></clipPath><clipPath id="61f3f325be"><path d="M 8 4.199219 L 10 4.199219 L 10 7 L 8 7 Z M 8 4.199219 " clip-rule="nonzero"/></clipPath><clipPath id="e8f03ac3c8"><path d="M 9 4.199219 L 10 4.199219 L 10 7 L 9 7 Z M 9 4.199219 " clip-rule="nonzero"/></clipPath><clipPath id="a8c5d2ee79"><path d="M 9 4.199219 L 11 4.199219 L 11 7 L 9 7 Z M 9 4.199219 " clip-rule="nonzero"/></clipPath><clipPath id="12657cb6b1"><path d="M 10 4.199219 L 11 4.199219 L 11 7 L 10 7 Z M 10 4.199219 " clip-rule="nonzero"/></clipPath><clipPath id="9af216e3e1"><path d="M 10 4.199219 L 12 4.199219 L 12 7 L 10 7 Z M 10 4.199219 " clip-rule="nonzero"/></clipPath><clipPath id="705aaa0b86"><path d="M 11 4.199219 L 12 4.199219 L 12 7 L 11 7 Z M 11 4.199219 " clip-rule="nonzero"/></clipPath><clipPath id="b21b765ff3"><path d="M 11 4.199219 L 13 4.199219 L 13 7 L 11 7 Z M 11 4.199219 " clip-rule="nonzero"/></clipPath><clipPath id="fd55bc5258"><path d="M 12 4.199219 L 13 4.199219 L 13 7 L 12 7 Z M 12 4.199219 " clip-rule="nonzero"/></clipPath><clipPath id="16bbab665b"><path d="M 13 4.199219 L 14 4.199219 L 14 7 L 13 7 Z M 13 4.199219 " clip-rule="nonzero"/></clipPath><clipPath id="50bd4e9ec2"><path d="M 14 4.199219 L 15 4.199219 L 15 7 L 14 7 Z M 14 4.199219 " clip-rule="nonzero"/></clipPath><clipPath id="0ef359f948"><path d="M 33.746094 9.574219 L 45.839844 9.574219 L 45.839844 46.546875 L 33.746094 46.546875 Z M 33.746094 9.574219 " clip-rule="nonzero"/></clipPath><clipPath id="7d5ea78b11"><path d="M 33.746094 6.125 L 45.839844 6.125 L 45.839844 8.535156 L 33.746094 8.535156 Z M 33.746094 6.125 " clip-rule="nonzero"/></clipPath><clipPath id="1a3e33f1f4"><path d="M 33 9 L 36 9 L 36 46.546875 L 33 46.546875 Z M 33 9 " clip-rule="nonzero"/></clipPath><clipPath id="b63575bce4"><path d="M 44.175781 9.574219 L 45.839844 9.574219 L 45.839844 46.546875 L 44.175781 46.546875 Z M 44.175781 9.574219 " clip-rule="nonzero"/></clipPath><clipPath id="40e417158d"><path d="M 37 40 L 43 40 L 43 46.546875 L 37 46.546875 Z M 37 40 " clip-rule="nonzero"/></clipPath><clipPath id="55c63d0e15"><path d="M 33.746094 25.570312 L 45.839844 25.570312 L 45.839844 27.148438 L 33.746094 27.148438 Z M 33.746094 25.570312 " clip-rule="nonzero"/></clipPath><clipPath id="7abb17df50"><path d="M 34 4.199219 L 37 4.199219 L 37 7 L 34 7 Z M 34 4.199219 " clip-rule="nonzero"/></clipPath><clipPath id="ed5fd1396e"><path d="M 34 4.199219 L 45 4.199219 L 45 5 L 34 5 Z M 34 4.199219 " clip-rule="nonzero"/></clipPath><clipPath id="58d6422500"><path d="M 43 4.199219 L 45 4.199219 L 45 7 L 43 7 Z M 43 4.199219 " clip-rule="nonzero"/></clipPath><clipPath id="5aa059c047"><path d="M 36 4.199219 L 37 4.199219 L 37 7 L 36 7 Z M 36 4.199219 " clip-rule="nonzero"/></clipPath><clipPath id="21265cfe7e"><path d="M 36 4.199219 L 38 4.199219 L 38 7 L 36 7 Z M 36 4.199219 " clip-rule="nonzero"/></clipPath><clipPath id="ed87c628b6"><path d="M 37 4.199219 L 38 4.199219 L 38 7 L 37 7 Z M 37 4.199219 " clip-rule="nonzero"/></clipPath><clipPath id="b1efc490bf"><path d="M 37 4.199219 L 39 4.199219 L 39 7 L 37 7 Z M 37 4.199219 " clip-rule="nonzero"/></clipPath><clipPath id="916ce91484"><path d="M 38 4.199219 L 39 4.199219 L 39 7 L 38 7 Z M 38 4.199219 " clip-rule="nonzero"/></clipPath><clipPath id="dad2993d05"><path d="M 39 4.199219 L 40 4.199219 L 40 7 L 39 7 Z M 39 4.199219 " clip-rule="nonzero"/></clipPath><clipPath id="8f6a628695"><path d="M 40 4.199219 L 41 4.199219 L 41 7 L 40 7 Z M 40 4.199219 " clip-rule="nonzero"/></clipPath><clipPath id="7a2c4acd9a"><path d="M 41 4.199219 L 42 4.199219 L 42 7 L 41 7 Z M 41 4.199219 " clip-rule="nonzero"/></clipPath><clipPath id="0d02e08fc8"><path d="M 42 4.199219 L 43 4.199219 L 43 7 L 42 7 Z M 42 4.199219 " clip-rule="nonzero"/></clipPath><clipPath id="5e85943692"><path d="M 43 4.199219 L 44 4.199219 L 44 7 L 43 7 Z M 43 4.199219 " clip-rule="nonzero"/></clipPath></defs><g clip-path="url(#f8489c7e8e)"><path fill="#af4961" d="M 17.265625 46.753906 L 5.199219 46.753906 L 5.199219 9.589844 L 17.265625 9.589844 L 17.265625 46.753906 " fill-opacity="1" fill-rule="nonzero"/></g><g clip-path="url(#a4bf3603e3)"><path fill="#af4961" d="M 17.265625 8.53125 L 5.199219 8.53125 L 5.199219 6.140625 L 17.265625 6.140625 L 17.265625 8.53125 " fill-opacity="1" fill-rule="nonzero"/></g><g clip-path="url(#9d3e276775)"><path fill="#af4961" d="M 25.519531 13.59375 L 17.257812 23.59375 L 17.257812 46.714844 L 33.78125 46.714844 L 33.78125 23.59375 L 25.519531 13.59375 " fill-opacity="1" fill-rule="nonzero"/></g><path fill="#f4f6f5" d="M 25.519531 15.484375 L 20.042969 22.113281 L 30.996094 22.113281 Z M 25.519531 15.484375 " fill-opacity="1" fill-rule="nonzero"/><g clip-path="url(#79d9b18dcd)"><path fill="#f4f6f5" d="M 6.851562 46.753906 L 5.199219 46.753906 L 5.199219 9.589844 L 6.851562 9.589844 L 6.851562 46.753906 " fill-opacity="1" fill-rule="nonzero"/></g><g clip-path="url(#b817692362)"><path fill="#f4f6f5" d="M 17.265625 46.753906 L 15.613281 46.753906 L 15.613281 9.589844 L 17.265625 9.589844 L 17.265625 46.753906 " fill-opacity="1" fill-rule="nonzero"/></g><path fill="#f4f6f5" d="M 28.617188 29.6875 C 28.617188 31.402344 27.230469 32.789062 25.519531 32.789062 C 23.808594 32.789062 22.421875 31.402344 22.421875 29.6875 C 22.421875 27.976562 23.808594 26.589844 25.519531 26.589844 C 27.230469 26.589844 28.617188 27.976562 28.617188 29.6875 " fill-opacity="1" fill-rule="nonzero"/><path fill="#c6edfa" d="M 27.859375 29.6875 C 27.859375 30.980469 26.8125 32.027344 25.519531 32.027344 C 24.230469 32.027344 23.179688 30.980469 23.179688 29.6875 C 23.179688 28.398438 24.230469 27.351562 25.519531 27.351562 C 26.8125 27.351562 27.859375 28.398438 27.859375 29.6875 " fill-opacity="1" fill-rule="nonzero"/><path fill="#f4f6f5" d="M 25.292969 29.984375 L 25.339844 30.011719 C 25.386719 30.035156 25.433594 30.050781 25.488281 30.054688 L 25.550781 30.0625 L 25.519531 30.117188 C 25.425781 30.300781 25.359375 30.765625 25.359375 31.28125 C 25.359375 32.085938 25.503906 32.507812 25.578125 32.507812 C 25.65625 32.507812 25.796875 32.085938 25.796875 31.28125 C 25.796875 30.746094 25.726562 30.257812 25.625 30.097656 L 25.597656 30.054688 L 25.644531 30.035156 C 25.679688 30.023438 25.710938 30.003906 25.742188 29.984375 L 25.78125 29.953125 L 25.804688 29.996094 C 25.914062 30.214844 26.164062 30.527344 26.472656 30.835938 C 26.710938 31.070312 26.953125 31.277344 27.152344 31.410156 C 27.390625 31.566406 27.480469 31.5625 27.492188 31.546875 C 27.507812 31.535156 27.511719 31.445312 27.355469 31.207031 C 27.222656 31.007812 27.019531 30.765625 26.78125 30.527344 C 26.449219 30.195312 26.109375 29.929688 25.898438 29.839844 L 25.863281 29.824219 L 25.875 29.789062 C 25.882812 29.761719 25.886719 29.730469 25.886719 29.703125 L 25.890625 29.632812 L 25.949219 29.667969 C 26.125 29.765625 26.597656 29.832031 27.125 29.832031 C 27.929688 29.832031 28.351562 29.691406 28.351562 29.617188 C 28.351562 29.539062 27.929688 29.398438 27.125 29.398438 C 26.503906 29.398438 26.050781 29.488281 25.929688 29.578125 L 25.882812 29.613281 L 25.863281 29.5625 C 25.855469 29.539062 25.847656 29.515625 25.832031 29.496094 L 25.808594 29.457031 L 25.851562 29.4375 C 26.0625 29.332031 26.386719 29.074219 26.699219 28.761719 C 27.269531 28.191406 27.464844 27.796875 27.410156 27.742188 C 27.398438 27.726562 27.308594 27.722656 27.070312 27.878906 C 26.871094 28.011719 26.628906 28.21875 26.390625 28.453125 C 26.066406 28.777344 25.804688 29.113281 25.707031 29.324219 L 25.691406 29.359375 L 25.652344 29.347656 C 25.644531 29.339844 25.632812 29.335938 25.621094 29.335938 L 25.574219 29.320312 L 25.59375 29.277344 C 25.679688 29.074219 25.738281 28.628906 25.738281 28.144531 C 25.738281 27.339844 25.597656 26.917969 25.519531 26.917969 C 25.445312 26.917969 25.300781 27.339844 25.300781 28.144531 C 25.300781 28.628906 25.359375 29.074219 25.449219 29.277344 L 25.464844 29.320312 L 25.421875 29.335938 C 25.402344 29.339844 25.382812 29.347656 25.367188 29.355469 L 25.328125 29.371094 L 25.3125 29.332031 C 25.21875 29.121094 24.953125 28.785156 24.625 28.453125 C 24.054688 27.886719 23.65625 27.6875 23.605469 27.742188 C 23.550781 27.796875 23.746094 28.191406 24.316406 28.761719 C 24.640625 29.085938 24.972656 29.347656 25.183594 29.445312 L 25.226562 29.464844 L 25.203125 29.503906 C 25.183594 29.535156 25.167969 29.570312 25.160156 29.605469 L 25.148438 29.660156 L 25.097656 29.628906 C 24.9375 29.527344 24.449219 29.457031 23.914062 29.457031 C 23.109375 29.457031 22.6875 29.597656 22.6875 29.675781 C 22.6875 29.75 23.109375 29.890625 23.914062 29.890625 C 24.441406 29.890625 24.929688 29.824219 25.09375 29.722656 L 25.148438 29.691406 L 25.15625 29.75 C 25.164062 29.804688 25.183594 29.851562 25.214844 29.898438 L 25.246094 29.941406 L 25.195312 29.960938 C 24.996094 30.023438 24.621094 30.308594 24.257812 30.667969 C 24.023438 30.90625 23.816406 31.148438 23.683594 31.351562 C 23.527344 31.585938 23.53125 31.675781 23.546875 31.691406 C 23.558594 31.703125 23.648438 31.707031 23.886719 31.550781 C 24.089844 31.417969 24.328125 31.214844 24.566406 30.976562 C 24.933594 30.609375 25.222656 30.230469 25.277344 30.035156 Z M 25.578125 32.589844 C 25.359375 32.589844 25.277344 31.808594 25.277344 31.28125 C 25.277344 30.789062 25.335938 30.351562 25.421875 30.128906 C 25.394531 30.125 25.367188 30.117188 25.34375 30.105469 C 25.253906 30.324219 24.980469 30.679688 24.625 31.035156 C 24.386719 31.277344 24.136719 31.484375 23.933594 31.621094 C 23.699219 31.773438 23.554688 31.816406 23.488281 31.75 C 23.421875 31.679688 23.460938 31.535156 23.613281 31.304688 C 23.75 31.097656 23.960938 30.851562 24.199219 30.609375 C 24.546875 30.261719 24.902344 29.988281 25.121094 29.898438 C 25.105469 29.875 25.09375 29.847656 25.085938 29.820312 C 24.875 29.914062 24.421875 29.976562 23.914062 29.976562 C 23.386719 29.976562 22.605469 29.894531 22.605469 29.675781 C 22.605469 29.453125 23.386719 29.375 23.914062 29.375 C 24.429688 29.375 24.890625 29.4375 25.097656 29.535156 C 25.101562 29.523438 25.105469 29.511719 25.109375 29.5 C 24.890625 29.386719 24.566406 29.132812 24.257812 28.820312 C 23.886719 28.449219 23.390625 27.839844 23.546875 27.683594 C 23.699219 27.527344 24.3125 28.023438 24.683594 28.394531 C 24.964844 28.675781 25.199219 28.964844 25.328125 29.179688 C 25.257812 28.941406 25.21875 28.5625 25.21875 28.144531 C 25.21875 27.621094 25.300781 26.835938 25.519531 26.835938 C 25.742188 26.835938 25.820312 27.621094 25.820312 28.144531 C 25.820312 28.527344 25.789062 28.871094 25.730469 29.113281 C 25.863281 28.90625 26.078125 28.648438 26.332031 28.394531 C 26.574219 28.15625 26.820312 27.945312 27.027344 27.808594 C 27.257812 27.65625 27.402344 27.613281 27.472656 27.683594 C 27.625 27.839844 27.128906 28.449219 26.757812 28.820312 C 26.476562 29.101562 26.195312 29.332031 25.976562 29.460938 C 26.199219 29.371094 26.632812 29.316406 27.125 29.316406 C 27.652344 29.316406 28.4375 29.394531 28.4375 29.617188 C 28.4375 29.835938 27.652344 29.917969 27.125 29.917969 C 26.621094 29.917969 26.179688 29.859375 25.964844 29.765625 C 25.964844 29.769531 25.964844 29.773438 25.964844 29.777344 C 26.183594 29.882812 26.515625 30.144531 26.839844 30.46875 C 27.082031 30.710938 27.289062 30.957031 27.425781 31.164062 C 27.578125 31.394531 27.621094 31.539062 27.550781 31.605469 C 27.484375 31.675781 27.339844 31.632812 27.109375 31.480469 C 26.902344 31.34375 26.65625 31.136719 26.414062 30.894531 C 26.117188 30.597656 25.875 30.296875 25.753906 30.078125 C 25.742188 30.082031 25.730469 30.089844 25.71875 30.09375 C 25.816406 30.300781 25.878906 30.761719 25.878906 31.28125 C 25.878906 31.808594 25.800781 32.589844 25.578125 32.589844 " fill-opacity="1" fill-rule="nonzero"/><g clip-path="url(#7943df8de9)"><path fill="#f4f6f5" d="M 20.335938 46.207031 L 30.707031 46.207031 L 30.707031 29.65625 C 30.707031 27.308594 28.796875 25.402344 26.453125 25.402344 L 24.585938 25.402344 C 22.242188 25.402344 20.335938 27.308594 20.335938 29.65625 Z M 31.285156 46.789062 L 19.753906 46.789062 L 19.753906 29.65625 C 19.753906 26.988281 21.921875 24.820312 24.585938 24.820312 L 26.453125 24.820312 C 29.117188 24.820312 31.285156 26.988281 31.285156 29.65625 L 31.285156 46.789062 " fill-opacity="1" fill-rule="nonzero"/></g><path fill="#f4f6f5" d="M 23.46875 39.351562 L 21.296875 39.351562 L 21.296875 36.183594 C 21.296875 35.6875 21.699219 35.285156 22.195312 35.285156 L 22.566406 35.285156 C 23.066406 35.285156 23.46875 35.6875 23.46875 36.183594 L 23.46875 39.351562 " fill-opacity="1" fill-rule="nonzero"/><path fill="#f4f6f5" d="M 26.605469 39.351562 L 24.433594 39.351562 L 24.433594 36.183594 C 24.433594 35.6875 24.835938 35.285156 25.335938 35.285156 L 25.703125 35.285156 C 26.203125 35.285156 26.605469 35.6875 26.605469 36.183594 L 26.605469 39.351562 " fill-opacity="1" fill-rule="nonzero"/><path fill="#f4f6f5" d="M 29.742188 39.351562 L 27.574219 39.351562 L 27.574219 36.183594 C 27.574219 35.6875 27.976562 35.285156 28.472656 35.285156 L 28.84375 35.285156 C 29.339844 35.285156 29.742188 35.6875 29.742188 36.183594 L 29.742188 39.351562 " fill-opacity="1" fill-rule="nonzero"/><g clip-path="url(#076c38077b)"><path fill="#f595a1" d="M 25.976562 40.371094 L 25.0625 40.371094 C 23.839844 40.371094 22.84375 41.363281 22.84375 42.589844 L 22.84375 46.753906 L 28.195312 46.753906 L 28.195312 42.589844 C 28.195312 41.363281 27.203125 40.371094 25.976562 40.371094 " fill-opacity="1" fill-rule="nonzero"/></g><g clip-path="url(#2ba3a9706c)"><path fill="#f595a1" d="M 11.6875 40.371094 L 10.777344 40.371094 C 9.550781 40.371094 8.558594 41.363281 8.558594 42.589844 L 8.558594 46.753906 L 13.90625 46.753906 L 13.90625 42.589844 C 13.90625 41.363281 12.914062 40.371094 11.6875 40.371094 " fill-opacity="1" fill-rule="nonzero"/></g><g clip-path="url(#7a7c9b1532)"><path fill="#f4f6f5" d="M 5.199219 27.117188 L 17.265625 27.117188 L 17.265625 25.582031 L 5.199219 25.582031 L 5.199219 27.117188 " fill-opacity="1" fill-rule="nonzero"/></g><path fill="#f4f6f5" d="M 10.75 39.351562 L 8.578125 39.351562 L 8.578125 36.183594 C 8.578125 35.6875 8.980469 35.285156 9.480469 35.285156 L 9.847656 35.285156 C 10.347656 35.285156 10.75 35.6875 10.75 36.183594 L 10.75 39.351562 " fill-opacity="1" fill-rule="nonzero"/><path fill="#f4f6f5" d="M 13.886719 39.351562 L 11.714844 39.351562 L 11.714844 36.183594 C 11.714844 35.6875 12.121094 35.285156 12.617188 35.285156 L 12.988281 35.285156 C 13.484375 35.285156 13.886719 35.6875 13.886719 36.183594 L 13.886719 39.351562 " fill-opacity="1" fill-rule="nonzero"/><path fill="#f4f6f5" d="M 11.6875 28.171875 L 10.777344 28.171875 C 9.550781 28.171875 8.558594 29.164062 8.558594 30.390625 L 8.558594 34.554688 L 13.90625 34.554688 L 13.90625 30.390625 C 13.90625 29.164062 12.914062 28.171875 11.6875 28.171875 " fill-opacity="1" fill-rule="nonzero"/><path fill="#f595a1" d="M 10.097656 30.613281 L 9.828125 30.613281 C 9.46875 30.613281 9.175781 30.90625 9.175781 31.265625 L 9.175781 34.554688 L 10.75 34.554688 L 10.75 31.265625 C 10.75 30.90625 10.457031 30.613281 10.097656 30.613281 " fill-opacity="1" fill-rule="nonzero"/><path fill="#f595a1" d="M 12.636719 30.613281 L 12.367188 30.613281 C 12.007812 30.613281 11.714844 30.90625 11.714844 31.265625 L 11.714844 34.554688 L 13.289062 34.554688 L 13.289062 31.265625 C 13.289062 30.90625 12.996094 30.613281 12.636719 30.613281 " fill-opacity="1" fill-rule="nonzero"/><path fill="#f4f6f5" d="M 11.78125 11.863281 L 10.683594 11.863281 C 9.210938 11.863281 8.019531 13.058594 8.019531 14.53125 L 8.019531 24.53125 L 14.449219 24.53125 L 14.449219 14.53125 C 14.449219 13.058594 13.253906 11.863281 11.78125 11.863281 " fill-opacity="1" fill-rule="nonzero"/><path fill="#f595a1" d="M 9.308594 16.707031 L 9.042969 16.707031 C 8.683594 16.707031 8.390625 17 8.390625 17.359375 L 8.390625 24.53125 L 9.960938 24.53125 L 9.960938 17.359375 C 9.960938 17 9.671875 16.707031 9.308594 16.707031 " fill-opacity="1" fill-rule="nonzero"/><path fill="#f595a1" d="M 11.367188 16.707031 L 11.097656 16.707031 C 10.738281 16.707031 10.445312 17 10.445312 17.359375 L 10.445312 24.53125 L 12.019531 24.53125 L 12.019531 17.359375 C 12.019531 17 11.726562 16.707031 11.367188 16.707031 " fill-opacity="1" fill-rule="nonzero"/><path fill="#f595a1" d="M 13.421875 16.707031 L 13.15625 16.707031 C 12.792969 16.707031 12.503906 17 12.503906 17.359375 L 12.503906 24.53125 L 14.074219 24.53125 L 14.074219 17.359375 C 14.074219 17 13.78125 16.707031 13.421875 16.707031 " fill-opacity="1" fill-rule="nonzero"/><path fill="#f595a1" d="M 11.234375 14.796875 C 11.234375 15.3125 10.8125 15.734375 10.292969 15.734375 C 9.777344 15.734375 9.355469 15.3125 9.355469 14.796875 C 9.355469 14.277344 9.777344 13.855469 10.292969 13.855469 C 10.8125 13.855469 11.234375 14.277344 11.234375 14.796875 " fill-opacity="1" fill-rule="nonzero"/><path fill="#f595a1" d="M 13.109375 14.796875 C 13.109375 15.3125 12.6875 15.734375 12.171875 15.734375 C 11.652344 15.734375 11.234375 15.3125 11.234375 14.796875 C 11.234375 14.277344 11.652344 13.855469 12.171875 13.855469 C 12.6875 13.855469 13.109375 14.277344 13.109375 14.796875 " fill-opacity="1" fill-rule="nonzero"/><path fill="#f595a1" d="M 10.292969 16.328125 C 10.292969 15.8125 9.875 15.390625 9.355469 15.390625 C 8.835938 15.390625 8.417969 15.8125 8.417969 16.328125 L 10.292969 16.328125 " fill-opacity="1" fill-rule="nonzero"/><path fill="#f595a1" d="M 12.171875 16.328125 C 12.171875 15.8125 11.75 15.390625 11.234375 15.390625 C 10.714844 15.390625 10.292969 15.8125 10.292969 16.328125 L 12.171875 16.328125 " fill-opacity="1" fill-rule="nonzero"/><path fill="#f595a1" d="M 14.046875 16.328125 C 14.046875 15.8125 13.628906 15.390625 13.109375 15.390625 C 12.589844 15.390625 12.171875 15.8125 12.171875 16.328125 L 14.046875 16.328125 " fill-opacity="1" fill-rule="nonzero"/><g clip-path="url(#afe6060f8a)"><path fill="#f595a1" d="M 6.125 8.53125 L 5.929688 8.53125 L 5.929688 6.140625 L 6.125 6.140625 L 6.125 8.53125 " fill-opacity="1" fill-rule="nonzero"/></g><path fill="#f595a1" d="M 6.949219 8.53125 L 6.753906 8.53125 L 6.753906 6.140625 L 6.949219 6.140625 L 6.949219 8.53125 " fill-opacity="1" fill-rule="nonzero"/><path fill="#f595a1" d="M 7.773438 8.53125 L 7.582031 8.53125 L 7.582031 6.140625 L 7.773438 6.140625 L 7.773438 8.53125 " fill-opacity="1" fill-rule="nonzero"/><path fill="#f595a1" d="M 8.601562 8.53125 L 8.40625 8.53125 L 8.40625 6.140625 L 8.601562 6.140625 L 8.601562 8.53125 " fill-opacity="1" fill-rule="nonzero"/><path fill="#f595a1" d="M 9.425781 8.53125 L 9.234375 8.53125 L 9.234375 6.140625 L 9.425781 6.140625 L 9.425781 8.53125 " fill-opacity="1" fill-rule="nonzero"/><path fill="#f595a1" d="M 10.253906 8.53125 L 10.058594 8.53125 L 10.058594 6.140625 L 10.253906 6.140625 L 10.253906 8.53125 " fill-opacity="1" fill-rule="nonzero"/><path fill="#f595a1" d="M 11.078125 8.53125 L 10.886719 8.53125 L 10.886719 6.140625 L 11.078125 6.140625 L 11.078125 8.53125 " fill-opacity="1" fill-rule="nonzero"/><path fill="#f595a1" d="M 11.90625 8.53125 L 11.710938 8.53125 L 11.710938 6.140625 L 11.90625 6.140625 L 11.90625 8.53125 " fill-opacity="1" fill-rule="nonzero"/><path fill="#f595a1" d="M 12.730469 8.53125 L 12.535156 8.53125 L 12.535156 6.140625 L 12.730469 6.140625 L 12.730469 8.53125 " fill-opacity="1" fill-rule="nonzero"/><path fill="#f595a1" d="M 13.554688 8.53125 L 13.363281 8.53125 L 13.363281 6.140625 L 13.554688 6.140625 L 13.554688 8.53125 " fill-opacity="1" fill-rule="nonzero"/><path fill="#f595a1" d="M 14.382812 8.53125 L 14.1875 8.53125 L 14.1875 6.140625 L 14.382812 6.140625 L 14.382812 8.53125 " fill-opacity="1" fill-rule="nonzero"/><path fill="#f595a1" d="M 15.207031 8.53125 L 15.015625 8.53125 L 15.015625 6.140625 L 15.207031 6.140625 L 15.207031 8.53125 " fill-opacity="1" fill-rule="nonzero"/><path fill="#f595a1" d="M 16.035156 8.53125 L 15.839844 8.53125 L 15.839844 6.140625 L 16.035156 6.140625 L 16.035156 8.53125 " fill-opacity="1" fill-rule="nonzero"/><path fill="#f595a1" d="M 16.859375 8.53125 L 16.667969 8.53125 L 16.667969 6.140625 L 16.859375 6.140625 L 16.859375 8.53125 " fill-opacity="1" fill-rule="nonzero"/><g clip-path="url(#311c53cdff)"><path fill="#af4961" d="M 7.582031 4.683594 L 6.125 4.683594 L 6.125 6.140625 L 7.582031 6.140625 L 7.582031 4.683594 " fill-opacity="1" fill-rule="nonzero"/></g><g clip-path="url(#0922283670)"><path fill="#af4961" d="M 16.34375 4.214844 L 6.125 4.214844 L 6.125 4.683594 L 16.34375 4.683594 L 16.34375 4.214844 " fill-opacity="1" fill-rule="nonzero"/></g><g clip-path="url(#ff471a021d)"><path fill="#af4961" d="M 16.34375 4.683594 L 14.882812 4.683594 L 14.882812 6.140625 L 16.34375 6.140625 L 16.34375 4.683594 " fill-opacity="1" fill-rule="nonzero"/></g><g clip-path="url(#389af27104)"><path fill="#f595a1" d="M 8.105469 6.140625 L 7.871094 6.140625 L 7.871094 4.683594 L 8.105469 4.683594 L 8.105469 6.140625 " fill-opacity="1" fill-rule="nonzero"/></g><g clip-path="url(#2156137204)"><path fill="#f595a1" d="M 8.621094 6.140625 L 8.386719 6.140625 L 8.386719 4.683594 L 8.621094 4.683594 L 8.621094 6.140625 " fill-opacity="1" fill-rule="nonzero"/></g><g clip-path="url(#61f3f325be)"><path fill="#f595a1" d="M 9.136719 6.140625 L 8.902344 6.140625 L 8.902344 4.683594 L 9.136719 4.683594 L 9.136719 6.140625 " fill-opacity="1" fill-rule="nonzero"/></g><g clip-path="url(#e8f03ac3c8)"><path fill="#f595a1" d="M 9.652344 6.140625 L 9.417969 6.140625 L 9.417969 4.683594 L 9.652344 4.683594 L 9.652344 6.140625 " fill-opacity="1" fill-rule="nonzero"/></g><g clip-path="url(#a8c5d2ee79)"><path fill="#f595a1" d="M 10.167969 6.140625 L 9.933594 6.140625 L 9.933594 4.683594 L 10.167969 4.683594 L 10.167969 6.140625 " fill-opacity="1" fill-rule="nonzero"/></g><g clip-path="url(#12657cb6b1)"><path fill="#f595a1" d="M 10.683594 6.140625 L 10.449219 6.140625 L 10.449219 4.683594 L 10.683594 4.683594 L 10.683594 6.140625 " fill-opacity="1" fill-rule="nonzero"/></g><g clip-path="url(#9af216e3e1)"><path fill="#f595a1" d="M 11.199219 6.140625 L 10.964844 6.140625 L 10.964844 4.683594 L 11.199219 4.683594 L 11.199219 6.140625 " fill-opacity="1" fill-rule="nonzero"/></g><g clip-path="url(#705aaa0b86)"><path fill="#f595a1" d="M 11.714844 6.140625 L 11.480469 6.140625 L 11.480469 4.683594 L 11.714844 4.683594 L 11.714844 6.140625 " fill-opacity="1" fill-rule="nonzero"/></g><g clip-path="url(#b21b765ff3)"><path fill="#f595a1" d="M 12.230469 6.140625 L 11.996094 6.140625 L 11.996094 4.683594 L 12.230469 4.683594 L 12.230469 6.140625 " fill-opacity="1" fill-rule="nonzero"/></g><g clip-path="url(#fd55bc5258)"><path fill="#f595a1" d="M 12.746094 6.140625 L 12.511719 6.140625 L 12.511719 4.683594 L 12.746094 4.683594 L 12.746094 6.140625 " fill-opacity="1" fill-rule="nonzero"/></g><g clip-path="url(#16bbab665b)"><path fill="#f595a1" d="M 13.257812 6.140625 L 13.027344 6.140625 L 13.027344 4.683594 L 13.257812 4.683594 L 13.257812 6.140625 " fill-opacity="1" fill-rule="nonzero"/><path fill="#f595a1" d="M 13.773438 6.140625 L 13.542969 6.140625 L 13.542969 4.683594 L 13.773438 4.683594 L 13.773438 6.140625 " fill-opacity="1" fill-rule="nonzero"/></g><g clip-path="url(#50bd4e9ec2)"><path fill="#f595a1" d="M 14.289062 6.140625 L 14.058594 6.140625 L 14.058594 4.683594 L 14.289062 4.683594 L 14.289062 6.140625 " fill-opacity="1" fill-rule="nonzero"/><path fill="#f595a1" d="M 14.804688 6.140625 L 14.574219 6.140625 L 14.574219 4.683594 L 14.804688 4.683594 L 14.804688 6.140625 " fill-opacity="1" fill-rule="nonzero"/></g><g clip-path="url(#0ef359f948)"><path fill="#af4961" d="M 45.839844 46.753906 L 33.773438 46.753906 L 33.773438 9.589844 L 45.839844 9.589844 L 45.839844 46.753906 " fill-opacity="1" fill-rule="nonzero"/></g><g clip-path="url(#7d5ea78b11)"><path fill="#af4961" d="M 45.839844 8.53125 L 33.773438 8.53125 L 33.773438 6.140625 L 45.839844 6.140625 L 45.839844 8.53125 " fill-opacity="1" fill-rule="nonzero"/></g><g clip-path="url(#1a3e33f1f4)"><path fill="#f4f6f5" d="M 35.425781 46.753906 L 33.773438 46.753906 L 33.773438 9.589844 L 35.425781 9.589844 L 35.425781 46.753906 " fill-opacity="1" fill-rule="nonzero"/></g><g clip-path="url(#b63575bce4)"><path fill="#f4f6f5" d="M 45.839844 46.753906 L 44.1875 46.753906 L 44.1875 9.589844 L 45.839844 9.589844 L 45.839844 46.753906 " fill-opacity="1" fill-rule="nonzero"/></g><g clip-path="url(#40e417158d)"><path fill="#f595a1" d="M 40.261719 40.371094 L 39.351562 40.371094 C 38.125 40.371094 37.132812 41.363281 37.132812 42.589844 L 37.132812 46.753906 L 42.480469 46.753906 L 42.480469 42.589844 C 42.480469 41.363281 41.488281 40.371094 40.261719 40.371094 " fill-opacity="1" fill-rule="nonzero"/></g><g clip-path="url(#55c63d0e15)"><path fill="#f4f6f5" d="M 33.773438 27.117188 L 45.839844 27.117188 L 45.839844 25.582031 L 33.773438 25.582031 L 33.773438 27.117188 " fill-opacity="1" fill-rule="nonzero"/></g><path fill="#f4f6f5" d="M 39.324219 39.351562 L 37.152344 39.351562 L 37.152344 36.183594 C 37.152344 35.6875 37.554688 35.285156 38.054688 35.285156 L 38.421875 35.285156 C 38.921875 35.285156 39.324219 35.6875 39.324219 36.183594 L 39.324219 39.351562 " fill-opacity="1" fill-rule="nonzero"/><path fill="#f4f6f5" d="M 42.460938 39.351562 L 40.289062 39.351562 L 40.289062 36.183594 C 40.289062 35.6875 40.695312 35.285156 41.191406 35.285156 L 41.5625 35.285156 C 42.058594 35.285156 42.460938 35.6875 42.460938 36.183594 L 42.460938 39.351562 " fill-opacity="1" fill-rule="nonzero"/><path fill="#f4f6f5" d="M 40.261719 28.171875 L 39.351562 28.171875 C 38.125 28.171875 37.132812 29.164062 37.132812 30.390625 L 37.132812 34.554688 L 42.480469 34.554688 L 42.480469 30.390625 C 42.480469 29.164062 41.488281 28.171875 40.261719 28.171875 " fill-opacity="1" fill-rule="nonzero"/><path fill="#f595a1" d="M 38.671875 30.613281 L 38.402344 30.613281 C 38.042969 30.613281 37.75 30.90625 37.75 31.265625 L 37.75 34.554688 L 39.324219 34.554688 L 39.324219 31.265625 C 39.324219 30.90625 39.03125 30.613281 38.671875 30.613281 " fill-opacity="1" fill-rule="nonzero"/><path fill="#f595a1" d="M 41.210938 30.613281 L 40.941406 30.613281 C 40.582031 30.613281 40.289062 30.90625 40.289062 31.265625 L 40.289062 34.554688 L 41.863281 34.554688 L 41.863281 31.265625 C 41.863281 30.90625 41.570312 30.613281 41.210938 30.613281 " fill-opacity="1" fill-rule="nonzero"/><path fill="#f4f6f5" d="M 40.355469 11.863281 L 39.257812 11.863281 C 37.785156 11.863281 36.59375 13.058594 36.59375 14.53125 L 36.59375 24.53125 L 43.023438 24.53125 L 43.023438 14.53125 C 43.023438 13.058594 41.828125 11.863281 40.355469 11.863281 " fill-opacity="1" fill-rule="nonzero"/><path fill="#f595a1" d="M 37.886719 16.707031 L 37.617188 16.707031 C 37.257812 16.707031 36.964844 17 36.964844 17.359375 L 36.964844 24.53125 L 38.539062 24.53125 L 38.539062 17.359375 C 38.539062 17 38.246094 16.707031 37.886719 16.707031 " fill-opacity="1" fill-rule="nonzero"/><path fill="#f595a1" d="M 39.941406 16.707031 L 39.671875 16.707031 C 39.3125 16.707031 39.019531 17 39.019531 17.359375 L 39.019531 24.53125 L 40.59375 24.53125 L 40.59375 17.359375 C 40.59375 17 40.300781 16.707031 39.941406 16.707031 " fill-opacity="1" fill-rule="nonzero"/><path fill="#f595a1" d="M 41.996094 16.707031 L 41.730469 16.707031 C 41.371094 16.707031 41.078125 17 41.078125 17.359375 L 41.078125 24.53125 L 42.648438 24.53125 L 42.648438 17.359375 C 42.648438 17 42.359375 16.707031 41.996094 16.707031 " fill-opacity="1" fill-rule="nonzero"/><path fill="#f595a1" d="M 39.808594 14.796875 C 39.808594 15.3125 39.386719 15.734375 38.867188 15.734375 C 38.351562 15.734375 37.929688 15.3125 37.929688 14.796875 C 37.929688 14.277344 38.351562 13.855469 38.867188 13.855469 C 39.386719 13.855469 39.808594 14.277344 39.808594 14.796875 " fill-opacity="1" fill-rule="nonzero"/><path fill="#f595a1" d="M 41.683594 14.796875 C 41.683594 15.3125 41.265625 15.734375 40.746094 15.734375 C 40.226562 15.734375 39.808594 15.3125 39.808594 14.796875 C 39.808594 14.277344 40.226562 13.855469 40.746094 13.855469 C 41.265625 13.855469 41.683594 14.277344 41.683594 14.796875 " fill-opacity="1" fill-rule="nonzero"/><path fill="#f595a1" d="M 38.867188 16.328125 C 38.867188 15.8125 38.449219 15.390625 37.929688 15.390625 C 37.410156 15.390625 36.992188 15.8125 36.992188 16.328125 L 38.867188 16.328125 " fill-opacity="1" fill-rule="nonzero"/><path fill="#f595a1" d="M 40.746094 16.328125 C 40.746094 15.8125 40.324219 15.390625 39.808594 15.390625 C 39.289062 15.390625 38.867188 15.8125 38.867188 16.328125 L 40.746094 16.328125 " fill-opacity="1" fill-rule="nonzero"/><path fill="#f595a1" d="M 42.621094 16.328125 C 42.621094 15.8125 42.203125 15.390625 41.683594 15.390625 C 41.164062 15.390625 40.746094 15.8125 40.746094 16.328125 L 42.621094 16.328125 " fill-opacity="1" fill-rule="nonzero"/><path fill="#f595a1" d="M 34.699219 8.53125 L 34.503906 8.53125 L 34.503906 6.140625 L 34.699219 6.140625 L 34.699219 8.53125 " fill-opacity="1" fill-rule="nonzero"/><path fill="#f595a1" d="M 35.523438 8.53125 L 35.328125 8.53125 L 35.328125 6.140625 L 35.523438 6.140625 L 35.523438 8.53125 " fill-opacity="1" fill-rule="nonzero"/><path fill="#f595a1" d="M 36.347656 8.53125 L 36.15625 8.53125 L 36.15625 6.140625 L 36.347656 6.140625 L 36.347656 8.53125 " fill-opacity="1" fill-rule="nonzero"/><path fill="#f595a1" d="M 37.175781 8.53125 L 36.980469 8.53125 L 36.980469 6.140625 L 37.175781 6.140625 L 37.175781 8.53125 " fill-opacity="1" fill-rule="nonzero"/><path fill="#f595a1" d="M 38 8.53125 L 37.808594 8.53125 L 37.808594 6.140625 L 38 6.140625 L 38 8.53125 " fill-opacity="1" fill-rule="nonzero"/><path fill="#f595a1" d="M 38.828125 8.53125 L 38.632812 8.53125 L 38.632812 6.140625 L 38.828125 6.140625 L 38.828125 8.53125 " fill-opacity="1" fill-rule="nonzero"/><path fill="#f595a1" d="M 39.652344 8.53125 L 39.460938 8.53125 L 39.460938 6.140625 L 39.652344 6.140625 L 39.652344 8.53125 " fill-opacity="1" fill-rule="nonzero"/><path fill="#f595a1" d="M 40.480469 8.53125 L 40.285156 8.53125 L 40.285156 6.140625 L 40.480469 6.140625 L 40.480469 8.53125 " fill-opacity="1" fill-rule="nonzero"/><path fill="#f595a1" d="M 41.304688 8.53125 L 41.109375 8.53125 L 41.109375 6.140625 L 41.304688 6.140625 L 41.304688 8.53125 " fill-opacity="1" fill-rule="nonzero"/><path fill="#f595a1" d="M 42.128906 8.53125 L 41.9375 8.53125 L 41.9375 6.140625 L 42.128906 6.140625 L 42.128906 8.53125 " fill-opacity="1" fill-rule="nonzero"/><path fill="#f595a1" d="M 42.957031 8.53125 L 42.761719 8.53125 L 42.761719 6.140625 L 42.957031 6.140625 L 42.957031 8.53125 " fill-opacity="1" fill-rule="nonzero"/><path fill="#f595a1" d="M 43.78125 8.53125 L 43.589844 8.53125 L 43.589844 6.140625 L 43.78125 6.140625 L 43.78125 8.53125 " fill-opacity="1" fill-rule="nonzero"/><path fill="#f595a1" d="M 44.609375 8.53125 L 44.414062 8.53125 L 44.414062 6.140625 L 44.609375 6.140625 L 44.609375 8.53125 " fill-opacity="1" fill-rule="nonzero"/><g clip-path="url(#7abb17df50)"><path fill="#af4961" d="M 36.15625 4.683594 L 34.699219 4.683594 L 34.699219 6.140625 L 36.15625 6.140625 L 36.15625 4.683594 " fill-opacity="1" fill-rule="nonzero"/></g><g clip-path="url(#ed5fd1396e)"><path fill="#af4961" d="M 44.917969 4.214844 L 34.699219 4.214844 L 34.699219 4.683594 L 44.917969 4.683594 L 44.917969 4.214844 " fill-opacity="1" fill-rule="nonzero"/></g><g clip-path="url(#58d6422500)"><path fill="#af4961" d="M 44.917969 4.683594 L 43.457031 4.683594 L 43.457031 6.140625 L 44.917969 6.140625 L 44.917969 4.683594 " fill-opacity="1" fill-rule="nonzero"/></g><g clip-path="url(#5aa059c047)"><path fill="#f595a1" d="M 36.679688 6.140625 L 36.445312 6.140625 L 36.445312 4.683594 L 36.679688 4.683594 L 36.679688 6.140625 " fill-opacity="1" fill-rule="nonzero"/></g><g clip-path="url(#21265cfe7e)"><path fill="#f595a1" d="M 37.195312 6.140625 L 36.960938 6.140625 L 36.960938 4.683594 L 37.195312 4.683594 L 37.195312 6.140625 " fill-opacity="1" fill-rule="nonzero"/></g><g clip-path="url(#ed87c628b6)"><path fill="#f595a1" d="M 37.710938 6.140625 L 37.476562 6.140625 L 37.476562 4.683594 L 37.710938 4.683594 L 37.710938 6.140625 " fill-opacity="1" fill-rule="nonzero"/></g><g clip-path="url(#b1efc490bf)"><path fill="#f595a1" d="M 38.226562 6.140625 L 37.992188 6.140625 L 37.992188 4.683594 L 38.226562 4.683594 L 38.226562 6.140625 " fill-opacity="1" fill-rule="nonzero"/></g><g clip-path="url(#916ce91484)"><path fill="#f595a1" d="M 38.742188 6.140625 L 38.507812 6.140625 L 38.507812 4.683594 L 38.742188 4.683594 L 38.742188 6.140625 " fill-opacity="1" fill-rule="nonzero"/></g><g clip-path="url(#dad2993d05)"><path fill="#f595a1" d="M 39.257812 6.140625 L 39.023438 6.140625 L 39.023438 4.683594 L 39.257812 4.683594 L 39.257812 6.140625 " fill-opacity="1" fill-rule="nonzero"/><path fill="#f595a1" d="M 39.773438 6.140625 L 39.539062 6.140625 L 39.539062 4.683594 L 39.773438 4.683594 L 39.773438 6.140625 " fill-opacity="1" fill-rule="nonzero"/></g><g clip-path="url(#8f6a628695)"><path fill="#f595a1" d="M 40.289062 6.140625 L 40.054688 6.140625 L 40.054688 4.683594 L 40.289062 4.683594 L 40.289062 6.140625 " fill-opacity="1" fill-rule="nonzero"/><path fill="#f595a1" d="M 40.804688 6.140625 L 40.570312 6.140625 L 40.570312 4.683594 L 40.804688 4.683594 L 40.804688 6.140625 " fill-opacity="1" fill-rule="nonzero"/></g><g clip-path="url(#7a2c4acd9a)"><path fill="#f595a1" d="M 41.320312 6.140625 L 41.085938 6.140625 L 41.085938 4.683594 L 41.320312 4.683594 L 41.320312 6.140625 " fill-opacity="1" fill-rule="nonzero"/><path fill="#f595a1" d="M 41.835938 6.140625 L 41.601562 6.140625 L 41.601562 4.683594 L 41.835938 4.683594 L 41.835938 6.140625 " fill-opacity="1" fill-rule="nonzero"/></g><g clip-path="url(#0d02e08fc8)"><path fill="#f595a1" d="M 42.351562 6.140625 L 42.117188 6.140625 L 42.117188 4.683594 L 42.351562 4.683594 L 42.351562 6.140625 " fill-opacity="1" fill-rule="nonzero"/><path fill="#f595a1" d="M 42.867188 6.140625 L 42.632812 6.140625 L 42.632812 4.683594 L 42.867188 4.683594 L 42.867188 6.140625 " fill-opacity="1" fill-rule="nonzero"/></g><g clip-path="url(#5e85943692)"><path fill="#f595a1" d="M 43.378906 6.140625 L 43.148438 6.140625 L 43.148438 4.683594 L 43.378906 4.683594 L 43.378906 6.140625 " fill-opacity="1" fill-rule="nonzero"/></g><path fill="#f4f6f5" d="M 25.699219 10.570312 L 25.34375 10.570312 L 25.34375 13.855469 L 25.699219 13.855469 L 25.699219 10.570312 " fill-opacity="1" fill-rule="nonzero"/><path fill="#f4f6f5" d="M 27.164062 12.390625 L 27.164062 12.035156 L 23.875 12.035156 L 23.875 12.390625 L 27.164062 12.390625 " fill-opacity="1" fill-rule="nonzero"/></svg>