<svg xmlns="http://www.w3.org/2000/svg" xmlns:xlink="http://www.w3.org/1999/xlink" width="70" zoomAndPan="magnify" viewBox="0 0 52.5 52.499999" height="70" preserveAspectRatio="xMidYMid meet" version="1.0"><defs><clipPath id="84cd4eae4d"><path d="M 8.984375 2.601562 L 43 2.601562 L 43 49.40625 L 8.984375 49.40625 Z M 8.984375 2.601562 " clip-rule="nonzero"/></clipPath><clipPath id="b3c05f37e0"><path d="M 8.984375 13 L 42 13 L 42 44 L 8.984375 44 Z M 8.984375 13 " clip-rule="nonzero"/></clipPath></defs><g clip-path="url(#84cd4eae4d)"><path fill="#f4eadc" d="M 38.554688 21.921875 L 41.910156 19.933594 L 41.96875 19.960938 C 41.980469 19.964844 41.992188 19.96875 42.007812 19.96875 C 42.042969 19.96875 42.074219 19.949219 42.089844 19.914062 C 42.113281 19.867188 42.09375 19.8125 42.046875 19.792969 L 41.960938 19.75 L 40.96875 16.96875 L 41.003906 16.945312 C 41.046875 16.914062 41.058594 16.855469 41.027344 16.816406 C 40.996094 16.773438 40.9375 16.761719 40.898438 16.792969 L 40.851562 16.824219 L 38.6875 15.808594 L 38.683594 15.753906 C 38.679688 15.714844 38.65625 15.683594 38.621094 15.671875 C 38.589844 15.652344 38.546875 15.652344 38.515625 15.675781 L 38.472656 15.707031 L 36.308594 14.691406 L 36.304688 14.636719 C 36.296875 14.585938 36.253906 14.550781 36.203125 14.554688 C 36.152344 14.558594 36.113281 14.601562 36.117188 14.652344 L 36.117188 14.679688 L 33.324219 15.703125 L 33.242188 15.664062 C 33.195312 15.640625 33.140625 15.660156 33.117188 15.707031 C 33.09375 15.753906 33.113281 15.8125 33.160156 15.832031 L 33.21875 15.859375 L 33.835938 19.707031 C 33.53125 20.355469 33.519531 21.066406 33.742188 21.691406 C 32.601562 21.375 31.441406 21.257812 30.300781 21.316406 C 28.914062 16.882812 24.777344 13.667969 19.886719 13.667969 C 13.867188 13.667969 8.984375 18.550781 8.984375 24.574219 C 8.984375 30.597656 13.867188 35.476562 19.886719 35.476562 C 20.078125 35.476562 20.265625 35.472656 20.449219 35.464844 C 21.332031 38.277344 23.347656 40.730469 26.226562 42.078125 C 31.679688 44.636719 38.175781 42.289062 40.730469 36.835938 C 43.019531 31.953125 41.375 26.238281 37.09375 23.261719 C 37.714844 23.03125 38.253906 22.570312 38.554688 21.921875 M 20.019531 33.417969 C 19.976562 33.417969 19.929688 33.421875 19.886719 33.421875 C 15.011719 33.421875 11.039062 29.453125 11.039062 24.574219 C 11.039062 19.695312 15.011719 15.726562 19.886719 15.726562 C 23.734375 15.726562 27.011719 18.191406 28.230469 21.625 C 25.152344 22.386719 22.433594 24.480469 20.980469 27.578125 C 20.09375 29.46875 19.800781 31.484375 20.019531 33.417969 Z M 22.847656 28.449219 C 24.015625 25.957031 26.203125 24.261719 28.6875 23.632812 C 28.71875 23.941406 28.734375 24.253906 28.734375 24.574219 C 28.734375 28.703125 25.894531 32.179688 22.0625 33.148438 C 21.890625 31.589844 22.132812 29.96875 22.847656 28.449219 Z M 38.867188 35.960938 C 36.796875 40.378906 31.519531 42.285156 27.101562 40.214844 C 24.875 39.171875 23.285156 37.3125 22.519531 35.15625 C 27.273438 33.980469 30.792969 29.6875 30.792969 24.574219 C 30.792969 24.164062 30.769531 23.757812 30.726562 23.359375 C 32.027344 23.339844 33.355469 23.605469 34.613281 24.195312 C 39.027344 26.265625 40.9375 31.542969 38.867188 35.960938 Z M 30.359375 11.949219 L 32.617188 12.371094 L 30.359375 12.792969 L 29.9375 15.054688 L 29.515625 12.792969 L 27.253906 12.371094 L 29.515625 11.949219 L 29.9375 9.691406 Z M 33.980469 7.527344 L 30.449219 6.867188 L 33.980469 6.207031 L 34.640625 2.675781 L 35.300781 6.207031 L 38.832031 6.867188 L 35.300781 7.527344 L 34.640625 11.058594 Z M 14.347656 40.433594 L 12.085938 40.855469 L 11.664062 43.113281 L 11.242188 40.855469 L 8.984375 40.433594 L 11.242188 40.007812 L 11.664062 37.75 L 12.085938 40.007812 Z M 17.832031 44.472656 L 21.359375 45.132812 L 17.832031 45.796875 L 17.167969 49.324219 L 16.507812 45.796875 L 12.980469 45.132812 L 16.507812 44.472656 L 17.167969 40.941406 Z M 17.832031 44.472656 " fill-opacity="1" fill-rule="nonzero"/></g><g clip-path="url(#b3c05f37e0)"><path fill="#f595a1" d="M 37.09375 23.261719 C 37.714844 23.03125 38.253906 22.570312 38.554688 21.921875 L 37.082031 21.230469 L 37.074219 21.242188 C 37.058594 21.269531 37.027344 21.285156 36.996094 21.285156 C 36.980469 21.285156 36.960938 21.277344 36.945312 21.269531 C 36.90625 21.242188 36.894531 21.191406 36.914062 21.152344 L 35.480469 20.480469 C 35.464844 20.511719 35.429688 20.53125 35.394531 20.53125 C 35.386719 20.53125 35.375 20.53125 35.367188 20.527344 C 35.316406 20.511719 35.289062 20.460938 35.304688 20.410156 L 35.308594 20.398438 L 34.945312 20.230469 L 33.835938 19.707031 C 33.53125 20.355469 33.519531 21.066406 33.742188 21.691406 C 32.601562 21.375 31.441406 21.257812 30.300781 21.316406 C 28.914062 16.882812 24.777344 13.667969 19.886719 13.667969 C 13.867188 13.667969 8.984375 18.550781 8.984375 24.574219 C 8.984375 30.597656 13.867188 35.476562 19.886719 35.476562 C 20.078125 35.476562 20.265625 35.472656 20.449219 35.464844 C 21.332031 38.277344 23.347656 40.730469 26.226562 42.078125 C 31.679688 44.636719 38.175781 42.289062 40.730469 36.835938 C 43.019531 31.953125 41.375 26.238281 37.09375 23.261719 Z M 20.019531 33.417969 C 19.976562 33.417969 19.929688 33.421875 19.886719 33.421875 C 15.011719 33.421875 11.039062 29.453125 11.039062 24.574219 C 11.039062 19.695312 15.011719 15.726562 19.886719 15.726562 C 23.734375 15.726562 27.011719 18.191406 28.230469 21.625 C 25.152344 22.386719 22.433594 24.480469 20.980469 27.578125 C 20.09375 29.46875 19.800781 31.484375 20.019531 33.417969 Z M 22.847656 28.449219 C 24.015625 25.957031 26.203125 24.261719 28.6875 23.632812 C 28.71875 23.941406 28.734375 24.253906 28.734375 24.574219 C 28.734375 28.703125 25.894531 32.179688 22.0625 33.148438 C 21.890625 31.589844 22.132812 29.96875 22.847656 28.449219 Z M 38.867188 35.960938 C 36.796875 40.378906 31.519531 42.285156 27.101562 40.214844 C 24.875 39.171875 23.285156 37.3125 22.519531 35.15625 C 27.273438 33.980469 30.792969 29.6875 30.792969 24.574219 C 30.792969 24.164062 30.769531 23.757812 30.726562 23.359375 C 32.027344 23.339844 33.355469 23.605469 34.613281 24.195312 C 39.027344 26.265625 40.9375 31.542969 38.867188 35.960938 Z M 38.867188 35.960938 " fill-opacity="1" fill-rule="nonzero"/></g><path fill="#dd855f" d="M 42.046875 19.792969 L 41.960938 19.75 L 38.992188 18.359375 L 40.96875 16.96875 L 41.003906 16.945312 C 41.046875 16.914062 41.058594 16.855469 41.027344 16.816406 C 40.996094 16.773438 40.9375 16.761719 40.898438 16.792969 L 40.851562 16.824219 L 38.886719 18.203125 L 38.6875 15.808594 L 38.683594 15.753906 C 38.679688 15.714844 38.65625 15.683594 38.621094 15.671875 C 38.589844 15.652344 38.546875 15.652344 38.515625 15.675781 L 38.472656 15.707031 L 36.503906 17.089844 L 36.308594 14.691406 L 36.304688 14.636719 C 36.296875 14.585938 36.253906 14.550781 36.203125 14.554688 C 36.152344 14.558594 36.113281 14.601562 36.117188 14.652344 L 36.117188 14.679688 L 36.316406 17.105469 L 33.324219 15.703125 L 33.242188 15.664062 C 33.195312 15.640625 33.140625 15.660156 33.117188 15.707031 C 33.09375 15.753906 33.113281 15.8125 33.160156 15.832031 L 33.21875 15.859375 L 36.289062 17.296875 L 35.308594 20.398438 L 35.304688 20.410156 C 35.289062 20.460938 35.316406 20.511719 35.367188 20.527344 C 35.375 20.53125 35.386719 20.53125 35.394531 20.53125 C 35.429688 20.53125 35.464844 20.511719 35.480469 20.480469 C 35.480469 20.476562 35.484375 20.472656 35.484375 20.46875 L 36.460938 17.378906 L 38.667969 18.414062 L 36.917969 21.140625 C 36.917969 21.144531 36.914062 21.148438 36.914062 21.152344 C 36.894531 21.191406 36.90625 21.242188 36.945312 21.269531 C 36.960938 21.277344 36.980469 21.285156 36.996094 21.285156 C 37.027344 21.285156 37.058594 21.269531 37.074219 21.242188 L 37.082031 21.230469 L 38.839844 18.496094 L 41.910156 19.933594 L 41.96875 19.960938 C 41.980469 19.964844 41.992188 19.96875 42.007812 19.96875 C 42.042969 19.96875 42.074219 19.949219 42.089844 19.914062 C 42.113281 19.867188 42.09375 19.8125 42.046875 19.792969 Z M 36.609375 17.242188 L 38.507812 15.910156 L 38.699219 18.222656 Z M 36.609375 17.242188 " fill-opacity="1" fill-rule="nonzero"/></svg>