<svg xmlns="http://www.w3.org/2000/svg" xmlns:xlink="http://www.w3.org/1999/xlink" width="70" zoomAndPan="magnify" viewBox="0 0 52.5 52.499999" height="70" preserveAspectRatio="xMidYMid meet" version="1.0"><defs><clipPath id="2132a32dc5"><path d="M 2.46875 9 L 46.300781 9 L 46.300781 48.5 L 2.46875 48.5 Z M 2.46875 9 " clip-rule="nonzero"/></clipPath></defs><path fill="#f56f53" d="M 25.417969 12.410156 C 25.417969 12.429688 25.390625 12.429688 25.375 12.410156 C 24.941406 11.121094 25.179688 9.476562 25.300781 8.140625 C 25.355469 7.453125 25.445312 6.773438 25.550781 6.074219 C 25.648438 5.417969 25.699219 4.675781 26.035156 4.09375 C 26.132812 3.925781 26.355469 4.015625 26.371094 4.191406 C 26.425781 4.816406 26.222656 5.480469 26.125 6.101562 C 25.984375 6.859375 25.886719 7.636719 25.804688 8.398438 C 25.734375 9.105469 25.683594 9.8125 25.628906 10.527344 C 25.585938 11.164062 25.601562 11.820312 25.417969 12.410156 Z M 28.742188 15.628906 C 29.808594 13.726562 30.808594 11.792969 31.921875 9.917969 C 32.488281 8.992188 33.070312 8.0625 33.699219 7.160156 C 34.308594 6.277344 35 5.382812 35.441406 4.402344 C 35.484375 4.304688 35.371094 4.207031 35.289062 4.277344 C 34.460938 4.996094 33.832031 5.96875 33.222656 6.886719 C 32.628906 7.796875 32.046875 8.726562 31.488281 9.671875 C 30.386719 11.570312 29.367188 13.507812 28.625 15.585938 C 28.617188 15.644531 28.714844 15.683594 28.742188 15.628906 Z M 33.46875 14.59375 C 34.796875 13.347656 36.273438 12.339844 37.695312 11.21875 C 37.773438 11.148438 37.667969 11.042969 37.582031 11.078125 C 35.9375 11.828125 34.546875 13.152344 33.40625 14.542969 C 33.382812 14.578125 33.425781 14.628906 33.46875 14.59375 Z M 23.3125 26.960938 C 22.855469 28.523438 22.332031 30.089844 21.792969 31.628906 C 21.546875 32.363281 21.261719 33.085938 21.007812 33.820312 C 20.742188 34.535156 20.316406 35.289062 20.246094 36.066406 C 20.230469 36.234375 20.46875 36.3125 20.566406 36.207031 C 21.03125 35.667969 21.246094 34.90625 21.492188 34.234375 C 21.785156 33.476562 22.050781 32.699219 22.296875 31.917969 C 22.808594 30.300781 23.171875 28.691406 23.472656 27.015625 C 23.480469 26.90625 23.339844 26.863281 23.3125 26.960938 Z M 24.738281 29.570312 C 24.691406 30.355469 24.90625 31.175781 25.074219 31.9375 C 25.242188 32.714844 25.390625 33.527344 25.761719 34.234375 C 25.859375 34.414062 26.175781 34.332031 26.152344 34.121094 C 26.070312 33.371094 25.804688 32.652344 25.613281 31.917969 C 25.417969 31.132812 25.3125 30.285156 25.019531 29.523438 C 24.976562 29.375 24.753906 29.402344 24.738281 29.570312 Z M 19.210938 29.257812 C 18.328125 29.726562 17.304688 30.335938 16.859375 31.285156 C 16.789062 31.433594 16.941406 31.628906 17.109375 31.53125 C 17.964844 31.019531 18.621094 30.214844 19.425781 29.621094 C 19.628906 29.472656 19.460938 29.136719 19.210938 29.257812 Z M 18.71875 7.664062 C 18.992188 8.273438 19.328125 8.953125 19.785156 9.441406 C 19.855469 9.511719 19.980469 9.414062 19.929688 9.328125 C 19.566406 8.742188 19.140625 8.222656 18.804688 7.613281 C 18.769531 7.550781 18.691406 7.613281 18.71875 7.664062 Z M 18.71875 7.664062 " fill-opacity="1" fill-rule="nonzero"/><g clip-path="url(#2132a32dc5)"><path fill="#fdddc8" d="M 26.25 14.84375 C 25.390625 17.625 24.472656 20.285156 23.464844 22.859375 C 22.492188 25.308594 20.46875 27.359375 17.964844 28.179688 C 16.320312 28.71875 14.640625 28.648438 13.035156 28.164062 C 10.851562 34.09375 11.152344 33.800781 9.117188 39.644531 C 9.171875 39.691406 9.214844 39.726562 9.269531 39.769531 C 10.117188 40.503906 10.636719 41.652344 10.691406 42.773438 C 7.863281 41.960938 5.121094 40.875 2.480469 39.59375 C 3.355469 38.691406 4.609375 38.167969 5.875 38.273438 C 6.042969 38.292969 6.191406 38.300781 6.359375 38.328125 C 8.5625 32.46875 8.242188 32.875 10.433594 27.015625 C 9.53125 26.484375 8.71875 25.839844 8.117188 24.988281 C 6.722656 23.019531 6.75 20.394531 7.144531 18.007812 C 7.660156 14.878906 8.703125 11.84375 10.203125 9.0625 C 14.304688 10.238281 23.730469 13.667969 26.25 14.84375 Z M 24.851562 19.855469 C 25.488281 22.710938 26.175781 25.421875 26.980469 28.066406 C 27.742188 30.585938 29.597656 32.785156 32.019531 33.8125 C 33.613281 34.472656 35.289062 34.5625 36.933594 34.199219 C 38.625 40.300781 38.101562 39.230469 39.648438 45.214844 C 39.597656 45.257812 39.535156 45.285156 39.5 45.328125 C 38.597656 45.992188 37.988281 47.089844 37.835938 48.210938 C 40.71875 47.617188 43.546875 46.789062 46.269531 45.699219 C 45.464844 44.726562 44.261719 44.109375 43 44.109375 C 42.832031 44.109375 42.679688 44.125 42.511719 44.136719 C 40.796875 38.125 41.335938 39.273438 39.613281 33.261719 C 40.542969 32.804688 41.417969 32.21875 42.078125 31.433594 C 43.636719 29.59375 43.8125 26.960938 43.617188 24.546875 C 43.351562 21.390625 42.691406 17.925781 41.417969 15.019531 C 37.234375 15.894531 27.460938 18.882812 24.851562 19.855469 Z M 24.851562 19.855469 " fill-opacity="1" fill-rule="nonzero"/></g><path fill="#f595a1" d="M 42.433594 27.183594 C 42.378906 28.96875 41.328125 30.65625 39.859375 31.671875 C 38.394531 32.699219 36.539062 33.085938 34.75 32.972656 C 33.9375 32.917969 33.117188 32.777344 32.382812 32.441406 C 30.253906 31.488281 29.058594 29.214844 28.078125 27.085938 C 29.367188 26.421875 30.792969 26.695312 32.179688 27.066406 C 33.566406 27.4375 35.007812 27.949219 36.429688 27.730469 C 37.484375 27.5625 38.4375 27.015625 39.453125 26.652344 C 40.460938 26.296875 41.53125 26.617188 42.433594 27.183594 Z M 18.65625 22.027344 C 15.472656 23.152344 11.671875 21.339844 8.445312 22.300781 C 8.816406 23.601562 9.734375 24.714844 10.886719 25.449219 C 12.027344 26.183594 13.378906 26.554688 14.722656 26.652344 C 16.550781 26.773438 18.488281 26.386719 19.917969 25.226562 C 21.148438 24.230469 21.925781 22.710938 22.023438 21.125 C 20.582031 21.222656 20 21.558594 18.65625 22.027344 Z M 18.65625 22.027344 " fill-opacity="1" fill-rule="nonzero"/></svg>