<svg xmlns="http://www.w3.org/2000/svg" xmlns:xlink="http://www.w3.org/1999/xlink" width="70" zoomAndPan="magnify" viewBox="0 0 52.5 52.499999" height="70" preserveAspectRatio="xMidYMid meet" version="1.0"><defs><clipPath id="9e99fb4d77"><path d="M 9.390625 3.09375 L 42.613281 3.09375 L 42.613281 48.90625 L 9.390625 48.90625 Z M 9.390625 3.09375 " clip-rule="nonzero"/></clipPath></defs><g clip-path="url(#9e99fb4d77)"><path fill="#f56f53" d="M 12.535156 47.945312 L 39.46875 47.945312 C 40.671875 47.945312 41.648438 46.96875 41.648438 45.761719 L 41.648438 6.238281 C 41.648438 5.035156 40.671875 4.058594 39.46875 4.058594 L 12.535156 4.058594 C 11.332031 4.058594 10.355469 5.035156 10.355469 6.238281 L 10.355469 45.761719 C 10.355469 46.96875 11.332031 47.945312 12.535156 47.945312 Z M 40.433594 48.90625 L 11.570312 48.90625 C 10.367188 48.90625 9.390625 47.933594 9.390625 46.726562 L 9.390625 5.273438 C 9.390625 4.070312 10.367188 3.09375 11.570312 3.09375 L 40.433594 3.09375 C 41.636719 3.09375 42.613281 4.070312 42.613281 5.273438 L 42.613281 46.726562 C 42.613281 47.933594 41.636719 48.90625 40.433594 48.90625 " fill-opacity="1" fill-rule="nonzero"/></g><path fill="#f56f53" d="M 13.917969 21.09375 L 12.816406 19.679688 C 12.710938 19.542969 12.71875 19.351562 12.839844 19.226562 C 12.980469 19.082031 13.175781 18.898438 13.308594 19.046875 L 13.910156 19.726562 C 14.050781 19.886719 14.304688 19.882812 14.4375 19.710938 L 15.648438 18.171875 C 15.742188 18.054688 15.914062 18.042969 16.019531 18.148438 L 16.367188 18.496094 C 16.496094 18.625 16.503906 18.835938 16.378906 18.972656 L 14.445312 21.113281 C 14.300781 21.269531 14.046875 21.261719 13.917969 21.09375 " fill-opacity="1" fill-rule="nonzero"/><path fill="#f56f53" d="M 13.917969 27.941406 L 12.816406 26.53125 C 12.710938 26.394531 12.71875 26.199219 12.839844 26.078125 C 12.980469 25.933594 13.175781 25.746094 13.308594 25.898438 L 13.910156 26.578125 C 14.050781 26.738281 14.304688 26.730469 14.4375 26.5625 L 15.488281 25.222656 C 15.664062 24.996094 16 24.976562 16.203125 25.179688 L 16.367188 25.34375 C 16.496094 25.476562 16.503906 25.683594 16.378906 25.820312 L 14.445312 27.960938 C 14.300781 28.121094 14.046875 28.109375 13.917969 27.941406 " fill-opacity="1" fill-rule="nonzero"/><path fill="#f56f53" d="M 13.917969 35.480469 L 12.816406 34.066406 C 12.710938 33.933594 12.71875 33.738281 12.839844 33.617188 C 12.980469 33.472656 13.175781 33.285156 13.308594 33.4375 L 13.910156 34.117188 C 14.050781 34.277344 14.304688 34.269531 14.4375 34.101562 L 15.488281 32.761719 C 15.664062 32.535156 16 32.515625 16.203125 32.71875 L 16.367188 32.882812 C 16.496094 33.015625 16.503906 33.222656 16.378906 33.359375 L 14.445312 35.5 C 14.300781 35.660156 14.046875 35.648438 13.917969 35.480469 " fill-opacity="1" fill-rule="nonzero"/><path fill="#f56f53" d="M 25.414062 12.320312 C 24.894531 12.832031 24.074219 13.449219 23.601562 13.410156 C 22.84375 13.351562 21.859375 12.324219 21.859375 12.324219 C 21.859375 12.324219 19.515625 10.644531 20.925781 9.007812 C 21.933594 7.835938 23.605469 9.714844 23.605469 9.714844 C 23.605469 9.714844 25.164062 7.722656 26.386719 8.40625 C 27.855469 9.230469 26.320312 11.421875 25.414062 12.320312 Z M 27.089844 7.503906 C 25.320312 6.511719 23.609375 8.378906 23.609375 8.378906 C 22.964844 7.871094 22.089844 7.460938 21.261719 7.464844 C 19.90625 7.464844 18.894531 8.878906 19.09375 10.179688 C 19.324219 11.679688 20.867188 12.917969 21.984375 13.78125 C 22.328125 14.046875 22.6875 14.3125 23.097656 14.460938 C 24.328125 14.898438 25.433594 13.753906 26.230469 12.964844 C 27.542969 11.667969 29.222656 8.691406 27.089844 7.503906 " fill-opacity="1" fill-rule="nonzero"/><path fill="#f56f53" d="M 30.277344 13.816406 C 29.757812 14.328125 28.9375 14.945312 28.46875 14.90625 C 27.707031 14.847656 26.722656 13.820312 26.722656 13.820312 C 26.722656 13.820312 24.078125 12.140625 25.488281 10.503906 C 26.496094 9.332031 28.46875 11.210938 28.46875 11.210938 C 28.46875 11.210938 29.648438 9.363281 30.867188 10.046875 C 32.339844 10.867188 31.183594 12.921875 30.277344 13.816406 Z M 31.953125 9 C 30.183594 8.007812 28.480469 10.128906 28.480469 10.128906 C 27.835938 9.621094 26.953125 8.957031 26.125 8.960938 C 24.769531 8.960938 23.757812 10.375 23.957031 11.675781 C 24.1875 13.175781 25.730469 14.414062 26.847656 15.277344 C 27.191406 15.542969 27.550781 15.808594 27.960938 15.957031 C 29.195312 16.394531 30.300781 15.25 31.09375 14.464844 C 32.40625 13.164062 34.085938 10.1875 31.953125 9 " fill-opacity="1" fill-rule="nonzero"/><path fill="#f56f53" d="M 37.890625 19.628906 L 18.6875 19.628906 C 18.34375 19.628906 18.066406 19.351562 18.066406 19.011719 C 18.066406 18.667969 18.34375 18.390625 18.6875 18.390625 L 37.890625 18.390625 C 38.234375 18.390625 38.511719 18.667969 38.511719 19.011719 C 38.511719 19.351562 38.234375 19.628906 37.890625 19.628906 " fill-opacity="1" fill-rule="nonzero"/><path fill="#f56f53" d="M 37.890625 23.550781 L 18.6875 23.550781 C 18.34375 23.550781 18.066406 23.273438 18.066406 22.929688 C 18.066406 22.585938 18.34375 22.308594 18.6875 22.308594 L 37.890625 22.308594 C 38.234375 22.308594 38.511719 22.585938 38.511719 22.929688 C 38.511719 23.273438 38.234375 23.550781 37.890625 23.550781 " fill-opacity="1" fill-rule="nonzero"/><path fill="#f56f53" d="M 37.890625 27.46875 L 18.6875 27.46875 C 18.34375 27.46875 18.066406 27.191406 18.066406 26.847656 C 18.066406 26.507812 18.34375 26.230469 18.6875 26.230469 L 37.890625 26.230469 C 38.234375 26.230469 38.511719 26.507812 38.511719 26.847656 C 38.511719 27.191406 38.234375 27.46875 37.890625 27.46875 " fill-opacity="1" fill-rule="nonzero"/><path fill="#f56f53" d="M 37.890625 31.390625 L 18.6875 31.390625 C 18.34375 31.390625 18.066406 31.113281 18.066406 30.769531 C 18.066406 30.425781 18.34375 30.148438 18.6875 30.148438 L 37.890625 30.148438 C 38.234375 30.148438 38.511719 30.425781 38.511719 30.769531 C 38.511719 31.113281 38.234375 31.390625 37.890625 31.390625 " fill-opacity="1" fill-rule="nonzero"/><path fill="#f56f53" d="M 37.890625 35.308594 L 18.6875 35.308594 C 18.34375 35.308594 18.066406 35.03125 18.066406 34.6875 C 18.066406 34.347656 18.34375 34.070312 18.6875 34.070312 L 37.890625 34.070312 C 38.234375 34.070312 38.511719 34.347656 38.511719 34.6875 C 38.511719 35.03125 38.234375 35.308594 37.890625 35.308594 " fill-opacity="1" fill-rule="nonzero"/><path fill="#f56f53" d="M 24.433594 43.449219 L 18.921875 43.449219 C 18.59375 43.449219 18.328125 43.183594 18.328125 42.859375 C 18.328125 42.53125 18.59375 42.265625 18.921875 42.265625 L 24.433594 42.265625 C 24.761719 42.265625 25.027344 42.53125 25.027344 42.859375 C 25.027344 43.183594 24.761719 43.449219 24.433594 43.449219 " fill-opacity="1" fill-rule="nonzero"/><path fill="#f56f53" d="M 34.792969 37.980469 C 32.492188 37.738281 30.5625 39.667969 30.804688 41.96875 C 30.984375 43.644531 32.332031 44.992188 34.007812 45.171875 C 36.308594 45.414062 38.242188 43.484375 37.996094 41.183594 C 37.820312 39.507812 36.472656 38.160156 34.792969 37.980469 Z M 34.820312 46.128906 C 31.96875 46.382812 29.59375 44.007812 29.847656 41.160156 C 30.042969 38.976562 31.800781 37.214844 33.984375 37.023438 C 36.832031 36.769531 39.210938 39.144531 38.957031 41.992188 C 38.761719 44.175781 37.003906 45.933594 34.820312 46.128906 " fill-opacity="1" fill-rule="nonzero"/><path fill="#f56f53" d="M 36.726562 42.027344 C 36.53125 41.960938 36.414062 41.769531 36.410156 41.5625 C 36.402344 40.464844 35.511719 39.574219 34.417969 39.566406 C 34.210938 39.566406 34.015625 39.445312 33.949219 39.25 C 33.839844 38.917969 34.085938 38.609375 34.402344 38.609375 C 36.035156 38.609375 37.367188 39.941406 37.367188 41.574219 C 37.367188 41.894531 37.058594 42.136719 36.726562 42.027344 " fill-opacity="1" fill-rule="nonzero"/><path fill="#f56f53" d="M 34.402344 44.542969 C 32.769531 44.542969 31.445312 43.21875 31.4375 41.589844 C 31.433594 41.359375 31.59375 41.148438 31.824219 41.105469 C 32.125 41.050781 32.394531 41.28125 32.394531 41.574219 C 32.394531 42.679688 33.289062 43.582031 34.394531 43.585938 C 34.636719 43.585938 34.851562 43.769531 34.878906 44.011719 C 34.910156 44.296875 34.683594 44.542969 34.402344 44.542969 " fill-opacity="1" fill-rule="nonzero"/></svg>