<svg xmlns="http://www.w3.org/2000/svg" xmlns:xlink="http://www.w3.org/1999/xlink" width="70" zoomAndPan="magnify" viewBox="0 0 52.5 52.499999" height="70" preserveAspectRatio="xMidYMid meet" version="1.0"><defs><clipPath id="3c23923d2a"><path d="M 2.335938 6.390625 L 49.886719 6.390625 L 49.886719 41.304688 L 2.335938 41.304688 Z M 2.335938 6.390625 " clip-rule="nonzero"/></clipPath></defs><path fill="#c41e29" d="M 9.046875 23.382812 L 8.117188 21.785156 L 7.1875 23.382812 L 8.117188 24.933594 Z M 9.046875 23.382812 " fill-opacity="1" fill-rule="nonzero"/><path fill="#c41e29" d="M 19.574219 19.566406 L 18.699219 17.964844 L 17.769531 19.566406 L 18.699219 21.113281 Z M 19.574219 19.566406 " fill-opacity="1" fill-rule="nonzero"/><path fill="#c41e29" d="M 44.8125 23.382812 L 43.882812 21.785156 L 42.953125 23.382812 L 43.882812 24.933594 Z M 44.8125 23.382812 " fill-opacity="1" fill-rule="nonzero"/><path fill="#c41e29" d="M 34.234375 19.566406 L 33.304688 17.964844 L 32.425781 19.566406 L 33.304688 21.113281 Z M 34.234375 19.566406 " fill-opacity="1" fill-rule="nonzero"/><g clip-path="url(#3c23923d2a)"><path fill="#c41e29" d="M 42.542969 29.988281 L 39.1875 18.894531 L 32.839844 27.203125 L 26.851562 15.332031 L 28.660156 11.71875 L 26.027344 6.457031 L 23.34375 11.71875 L 25.148438 15.332031 L 19.164062 27.152344 L 12.917969 18.894531 L 9.5625 30.042969 L 2.335938 21.734375 L 7.292969 37.421875 L 7.34375 37.523438 L 7.34375 41.34375 L 44.65625 41.34375 L 44.65625 37.523438 L 44.761719 37.265625 L 49.664062 21.734375 Z M 42.902344 36.648438 L 38.824219 36.648438 L 41.871094 33.136719 Z M 38.566406 22.25 L 41.355469 31.382812 L 37.328125 36.027344 L 33.664062 28.75 Z M 35.882812 36.648438 L 27.625 36.648438 L 32.582031 30.144531 Z M 25.046875 11.71875 L 25.976562 9.914062 L 26.902344 11.71875 L 25.976562 13.578125 Z M 26.027344 17.035156 L 31.808594 28.546875 L 26.027344 36.183594 L 20.246094 28.492188 Z M 10.183594 33.191406 L 13.175781 36.648438 L 9.148438 36.648438 Z M 24.425781 36.648438 L 16.117188 36.648438 L 19.421875 30.042969 Z M 13.535156 22.25 L 18.386719 28.648438 L 14.722656 36.027344 L 10.75 31.433594 Z M 6.054688 28.441406 L 8.996094 31.796875 L 8.066406 34.789062 Z M 43.109375 39.796875 L 8.890625 39.796875 L 8.890625 38.195312 L 43.109375 38.195312 Z M 43.933594 34.6875 L 43.058594 31.746094 L 45.949219 28.441406 Z M 43.933594 34.6875 " fill-opacity="1" fill-rule="nonzero"/></g></svg>