<svg xmlns="http://www.w3.org/2000/svg" xmlns:xlink="http://www.w3.org/1999/xlink" width="70" zoomAndPan="magnify" viewBox="0 0 52.5 52.499999" height="70" preserveAspectRatio="xMidYMid meet" version="1.0"><path fill="#c41e29" d="M 21.671875 49.554688 C 21.277344 49.25 20.808594 49.222656 20.390625 49.070312 C 19.824219 48.863281 19.261719 48.65625 18.753906 48.328125 C 18.703125 48.292969 18.648438 48.25 18.59375 48.246094 C 17.535156 48.109375 16.46875 47.984375 15.429688 48.277344 C 15.007812 48.398438 14.605469 48.453125 14.191406 48.390625 C 13.699219 48.320312 13.433594 47.949219 13.421875 47.382812 C 13.394531 46.355469 13.554688 45.347656 13.726562 44.339844 C 13.75 44.191406 13.808594 44.050781 13.738281 43.878906 C 13.53125 43.839844 13.421875 44 13.300781 44.117188 C 12.765625 44.640625 12.234375 45.175781 11.695312 45.699219 C 11.566406 45.824219 11.496094 45.949219 11.492188 46.128906 C 11.484375 46.757812 11.566406 47.363281 11.921875 47.898438 C 12.097656 48.164062 12.160156 48.449219 12.121094 48.753906 C 12.066406 49.210938 11.59375 49.453125 11.226562 49.1875 C 10.273438 48.503906 9.429688 47.726562 9.191406 46.492188 C 9.117188 46.105469 8.949219 45.765625 8.703125 45.445312 C 8.183594 44.765625 8.308594 44.285156 8.839844 43.617188 C 10.125 42.007812 11.535156 40.503906 12.839844 38.910156 C 13.363281 38.269531 13.875 37.609375 14.484375 37.054688 C 15.210938 36.398438 15.140625 35.671875 14.882812 34.886719 C 14.5625 33.898438 14.207031 32.925781 13.871094 31.945312 C 13.496094 30.863281 13.222656 29.757812 13.054688 28.625 C 13.003906 28.28125 12.929688 27.925781 12.695312 27.664062 C 12.054688 26.953125 12.078125 26.160156 12.292969 25.296875 C 12.625 23.96875 13.105469 22.6875 13.628906 21.425781 C 13.925781 20.714844 14.015625 19.980469 14.050781 19.226562 C 14.113281 17.785156 13.945312 16.34375 13.957031 14.898438 C 13.960938 14.144531 14.003906 13.398438 14.125 12.65625 C 14.179688 12.304688 14.195312 11.953125 13.964844 11.617188 C 13.730469 11.28125 13.765625 10.925781 14 10.566406 C 14.21875 10.230469 14.480469 9.910156 14.585938 9.503906 C 14.644531 9.28125 14.828125 9.199219 15.03125 9.1875 C 15.527344 9.164062 16.027344 9.128906 16.496094 9.351562 C 17 9.585938 17.53125 9.605469 18.035156 9.433594 C 18.675781 9.214844 18.945312 8.636719 19.003906 8.027344 C 19.101562 7.027344 19.464844 6.175781 20.136719 5.4375 C 20.644531 4.878906 21.277344 4.5625 22.003906 4.417969 C 22.597656 4.300781 23.132812 4.46875 23.617188 4.816406 C 24.332031 5.324219 25 5.886719 25.613281 6.507812 C 26.109375 7.015625 26.015625 7.480469 25.367188 7.78125 C 24.738281 8.078125 24.472656 8.613281 24.496094 9.265625 C 24.511719 9.683594 24.410156 9.972656 24.058594 10.214844 C 23.695312 10.460938 23.429688 10.796875 23.246094 11.214844 C 23.03125 11.707031 22.691406 11.785156 22.214844 11.523438 C 22.160156 11.492188 22.117188 11.453125 22.0625 11.429688 C 21.875 11.34375 21.660156 11.078125 21.488281 11.390625 C 21.339844 11.664062 21.25 12.019531 21.582031 12.238281 C 21.957031 12.488281 22.371094 12.675781 22.761719 12.902344 C 23.34375 13.246094 23.820312 13.671875 23.757812 14.429688 C 23.742188 14.636719 23.640625 14.832031 23.597656 15.035156 C 23.503906 15.507812 23.628906 15.617188 24.082031 15.492188 C 24.472656 15.386719 24.773438 15.230469 24.898438 14.773438 C 25.070312 14.140625 25.40625 13.597656 25.976562 13.210938 C 26.332031 12.972656 26.292969 12.539062 26.316406 12.175781 C 26.351562 11.628906 26.433594 11.175781 26.882812 10.738281 C 27.175781 10.453125 27.417969 9.925781 27.265625 9.371094 C 27.078125 8.675781 27.25 8.019531 27.667969 7.828125 C 28.25 7.5625 28.742188 7.824219 29.1875 8.203125 C 29.367188 8.351562 29.511719 8.558594 29.78125 8.636719 C 29.980469 8.417969 30.203125 8.230469 30.507812 8.144531 C 31.070312 7.992188 31.625 7.839844 32.109375 8.332031 C 32.632812 8.863281 32.964844 9.449219 32.707031 10.234375 C 32.554688 10.691406 32.464844 11.164062 32.429688 11.644531 C 32.390625 12.246094 32.082031 12.667969 31.601562 13.019531 C 31.167969 13.339844 30.628906 13.492188 30.242188 13.886719 C 29.652344 14.488281 29.625 14.746094 30.097656 15.449219 C 30.132812 15.5 30.171875 15.542969 30.207031 15.59375 C 30.488281 16.015625 30.792969 16.347656 31.375 16.058594 C 31.539062 15.976562 31.757812 15.992188 31.949219 15.980469 C 32.457031 15.953125 32.851562 16.269531 32.875 16.761719 C 32.90625 17.378906 32.898438 18 32.59375 18.5625 C 32.441406 18.847656 32.457031 19.09375 32.632812 19.363281 C 32.988281 19.917969 33.335938 20.492188 33.796875 20.964844 C 34.59375 21.789062 35.132812 22.777344 35.671875 23.769531 C 36.109375 24.574219 36.53125 25.390625 37.003906 26.175781 C 37.464844 26.953125 37.65625 27.816406 37.894531 28.667969 C 37.925781 28.785156 37.984375 28.949219 37.878906 29.003906 C 37.394531 29.265625 37.671875 29.59375 37.796875 29.882812 C 38.113281 30.628906 38.429688 31.375 38.691406 32.144531 C 38.964844 32.949219 39.578125 33.511719 40.25 33.96875 C 42.089844 35.214844 44.105469 35.972656 46.347656 36.085938 C 47.269531 36.132812 47.8125 36.792969 47.894531 37.699219 C 47.984375 38.710938 47.546875 39.519531 47.035156 40.296875 C 45.714844 42.3125 43.960938 43.859375 41.847656 45.011719 C 40.601562 45.6875 39.332031 46.300781 37.992188 46.757812 C 37.246094 47.011719 36.617188 47.488281 35.898438 47.800781 C 35.242188 48.082031 34.554688 48.210938 33.890625 48.433594 C 32.953125 48.746094 31.972656 48.925781 31.058594 49.316406 C 28.660156 50.339844 26.160156 50.824219 23.550781 50.753906 C 23.296875 50.746094 23.039062 50.71875 22.792969 50.660156 C 22.398438 50.566406 22.050781 50.394531 21.945312 49.949219 C 21.90625 49.796875 21.808594 49.683594 21.671875 49.554688 M 31.074219 24.855469 C 31.351562 25.132812 31.613281 25.417969 31.828125 25.746094 C 31.984375 25.988281 32.183594 26.195312 32.453125 26.320312 C 32.90625 26.535156 33.273438 26.894531 33.433594 27.335938 C 33.761719 28.234375 34.574219 28.433594 35.296875 28.753906 C 35.65625 28.914062 35.855469 28.734375 35.910156 28.34375 C 35.945312 28.058594 35.9375 27.765625 36.023438 27.496094 C 36.144531 27.113281 36.027344 26.824219 35.78125 26.550781 C 35.429688 26.160156 35.105469 25.738281 34.71875 25.386719 C 33.382812 24.179688 32.195312 22.867188 31.355469 21.253906 C 30.980469 20.539062 30.773438 20.542969 30.074219 21.007812 C 30.066406 21.164062 30.183594 21.296875 30.144531 21.476562 C 30.011719 22.09375 29.90625 22.71875 29.625 23.285156 C 29.457031 23.621094 29.550781 23.769531 29.835938 23.925781 C 30.277344 24.160156 30.667969 24.464844 31.074219 24.855469 M 17.464844 42.597656 C 17.261719 43.625 17.070312 44.65625 16.855469 45.683594 C 16.789062 46.003906 16.910156 46.210938 17.15625 46.371094 C 17.402344 46.53125 17.6875 46.5625 17.980469 46.558594 C 18.238281 46.550781 18.347656 46.433594 18.386719 46.179688 C 18.800781 43.453125 19.222656 40.730469 19.636719 38.003906 C 19.65625 37.859375 19.734375 37.679688 19.519531 37.519531 C 19.058594 38.113281 18.523438 38.640625 18.292969 39.382812 C 17.96875 40.417969 17.730469 41.472656 17.464844 42.597656 M 20.519531 27.117188 C 20.5625 27.414062 20.582031 27.71875 20.652344 28.007812 C 20.714844 28.257812 20.660156 28.429688 20.496094 28.617188 C 20.066406 29.097656 20.125 29.800781 20.613281 30.285156 C 20.855469 29.976562 20.800781 29.601562 20.859375 29.253906 C 21.015625 28.320312 21.347656 27.417969 21.390625 26.472656 C 21.4375 25.476562 21.722656 24.589844 22.347656 23.8125 C 22.5 23.625 22.421875 23.476562 22.253906 23.355469 C 21.925781 23.121094 21.582031 22.902344 21.269531 22.644531 C 20.902344 22.34375 20.8125 22.371094 20.6875 22.828125 C 20.300781 24.21875 20.394531 25.628906 20.519531 27.117188 M 24.3125 18.078125 C 24.257812 17.746094 24.0625 17.671875 23.757812 17.765625 C 23.449219 17.863281 23.28125 18.007812 23.316406 18.378906 C 23.421875 19.410156 24.136719 20.070312 24.753906 20.789062 C 24.808594 20.855469 24.90625 20.886719 25.019531 20.808594 C 25.160156 20.398438 25.023438 20.003906 24.867188 19.613281 C 24.675781 19.132812 24.390625 18.679688 24.3125 18.078125 Z M 24.3125 18.078125 " fill-opacity="1" fill-rule="nonzero"/></svg>