<svg xmlns="http://www.w3.org/2000/svg" xmlns:xlink="http://www.w3.org/1999/xlink" width="70" zoomAndPan="magnify" viewBox="0 0 52.5 52.499999" height="70" preserveAspectRatio="xMidYMid meet" version="1.0"><defs><clipPath id="02adfb1b68"><path d="M 25 8 L 40.71875 8 L 40.71875 46 L 25 46 Z M 25 8 " clip-rule="nonzero"/></clipPath><clipPath id="3b0e20d11b"><path d="M 11.003906 12 L 27 12 L 27 48.679688 L 11.003906 48.679688 Z M 11.003906 12 " clip-rule="nonzero"/></clipPath><clipPath id="cf8cab3a92"><path d="M 22 3.363281 L 29 3.363281 L 29 11 L 22 11 Z M 22 3.363281 " clip-rule="nonzero"/></clipPath></defs><g clip-path="url(#02adfb1b68)"><path fill="#f4eadc" d="M 37.683594 42.085938 C 37.222656 42.042969 36.652344 41.710938 36.5 40.839844 L 34.542969 30.46875 C 35.1875 29.875 36.152344 28.882812 36.730469 27.808594 C 37.039062 27.300781 37.210938 26.746094 37.21875 26.191406 C 37.21875 26.097656 37.214844 26 37.207031 25.902344 C 37.199219 25.84375 37.191406 25.785156 37.183594 25.722656 C 36.894531 24.003906 32.472656 10.214844 32.042969 8.878906 C 32.0625 8.851562 32.078125 8.835938 32.082031 8.828125 C 32.113281 8.789062 32.105469 8.734375 32.066406 8.703125 C 32.027344 8.671875 31.972656 8.675781 31.941406 8.714844 C 31.9375 8.71875 31.910156 8.75 31.863281 8.808594 L 28.964844 9.464844 L 28.882812 9.484375 L 25.992188 10.140625 C 25.921875 10.113281 25.882812 10.09375 25.882812 10.09375 C 25.835938 10.070312 25.78125 10.089844 25.761719 10.136719 C 25.738281 10.179688 25.757812 10.234375 25.804688 10.257812 C 25.808594 10.257812 25.828125 10.265625 25.855469 10.28125 C 26.042969 11.652344 28.011719 26.023438 28.496094 27.699219 C 28.511719 27.753906 28.53125 27.8125 28.554688 27.871094 C 28.585938 27.960938 28.625 28.046875 28.667969 28.136719 C 28.910156 28.632812 29.308594 29.058594 29.804688 29.382812 C 30.796875 30.105469 32.105469 30.585938 32.945312 30.84375 L 35.65625 41.03125 C 35.847656 41.710938 35.648438 42.191406 35.363281 42.480469 C 34.214844 43.109375 32.316406 44.285156 32.382812 45.101562 L 41.054688 43.132812 C 40.796875 42.449219 38.996094 42.183594 37.683594 42.085938 Z M 37.683594 42.085938 " fill-opacity="1" fill-rule="nonzero"/></g><g clip-path="url(#3b0e20d11b)"><path fill="#f4eadc" d="M 26.296875 13.753906 C 26.277344 13.710938 26.222656 13.691406 26.175781 13.710938 C 26.175781 13.714844 26.136719 13.730469 26.070312 13.761719 L 23.175781 13.105469 L 23.09375 13.085938 L 20.195312 12.425781 C 20.167969 12.394531 20.121094 12.335938 20.117188 12.335938 C 20.085938 12.296875 20.03125 12.289062 19.992188 12.320312 C 19.953125 12.351562 19.945312 12.410156 19.976562 12.449219 C 19.980469 12.457031 19.996094 12.472656 20.015625 12.496094 C 20.015625 12.496094 20.015625 12.496094 20.015625 12.5 C 20.015625 12.496094 20.015625 12.496094 20.015625 12.496094 C 20.007812 12.527344 19.996094 12.5625 19.980469 12.605469 C 19.398438 14.425781 15.15625 27.664062 14.875 29.34375 C 14.867188 29.402344 14.859375 29.464844 14.851562 29.523438 C 14.84375 29.621094 14.839844 29.714844 14.839844 29.8125 C 14.847656 30.367188 15.019531 30.921875 15.328125 31.429688 C 15.90625 32.503906 16.871094 33.492188 17.519531 34.089844 L 15.558594 44.457031 C 15.40625 45.332031 14.835938 45.664062 14.375 45.703125 C 13.0625 45.804688 11.261719 46.066406 11.003906 46.75 L 19.675781 48.722656 C 19.746094 47.90625 17.84375 46.730469 16.695312 46.101562 C 16.410156 45.8125 16.214844 45.328125 16.402344 44.648438 L 19.113281 34.460938 C 19.953125 34.203125 21.261719 33.726562 22.253906 33.003906 C 22.75 32.675781 23.148438 32.253906 23.390625 31.753906 C 23.4375 31.667969 23.472656 31.578125 23.507812 31.488281 C 23.527344 31.433594 23.546875 31.375 23.5625 31.316406 C 24.027344 29.710938 25.859375 16.433594 26.171875 14.136719 L 26.171875 14.132812 C 26.1875 14.035156 26.199219 13.957031 26.207031 13.898438 C 26.203125 13.898438 26.203125 13.898438 26.203125 13.898438 C 26.234375 13.886719 26.25 13.878906 26.257812 13.875 C 26.300781 13.855469 26.320312 13.800781 26.296875 13.753906 Z M 26.296875 13.753906 " fill-opacity="1" fill-rule="nonzero"/></g><path fill="#b4af92" d="M 23.007812 19.246094 C 21.328125 19.289062 19.011719 17.90625 18.816406 17.789062 C 16.707031 24.464844 15.46875 28.589844 15.332031 29.421875 C 15.324219 29.46875 15.316406 29.519531 15.3125 29.578125 C 15.304688 29.652344 15.300781 29.730469 15.300781 29.8125 C 15.308594 30.277344 15.453125 30.761719 15.726562 31.210938 L 15.734375 31.222656 L 15.738281 31.230469 C 16.277344 32.234375 17.179688 33.167969 17.84375 33.78125 C 17.992188 33.921875 18.191406 34.027344 18.40625 34.074219 C 18.613281 34.121094 18.824219 34.117188 19.015625 34.054688 C 19.878906 33.789062 21.101562 33.332031 22.027344 32.660156 L 22.035156 32.652344 L 22.042969 32.648438 C 22.484375 32.359375 22.828125 31.984375 23.035156 31.566406 C 23.070312 31.492188 23.101562 31.421875 23.128906 31.347656 C 23.144531 31.296875 23.160156 31.25 23.175781 31.203125 C 23.40625 30.398438 24.28125 24.746094 25.261719 17.832031 C 25.132812 18.074219 24.457031 19.210938 23.007812 19.246094 Z M 17.382812 27.902344 C 17.121094 27.902344 17.121094 27.492188 17.382812 27.492188 C 17.648438 27.492188 17.648438 27.902344 17.382812 27.902344 Z M 17.628906 26.980469 C 17.363281 26.980469 17.363281 26.570312 17.628906 26.570312 C 17.890625 26.570312 17.890625 26.980469 17.628906 26.980469 Z M 18.101562 24.976562 C 17.839844 24.976562 17.839844 24.566406 18.101562 24.566406 C 18.367188 24.566406 18.367188 24.976562 18.101562 24.976562 Z M 18.71875 30.761719 C 18.457031 30.761719 18.457031 30.351562 18.71875 30.351562 C 18.984375 30.351562 18.984375 30.761719 18.71875 30.761719 Z M 18.933594 30.015625 C 18.667969 30.015625 18.667969 29.605469 18.933594 29.605469 C 19.195312 29.605469 19.195312 30.015625 18.933594 30.015625 Z M 23.25 22.980469 L 21.3125 31.613281 C 21.304688 31.65625 21.265625 31.683594 21.226562 31.683594 C 21.21875 31.683594 21.210938 31.683594 21.207031 31.683594 C 21.15625 31.671875 21.125 31.621094 21.136719 31.574219 L 23.070312 22.941406 C 23.082031 22.890625 23.128906 22.863281 23.179688 22.871094 C 23.226562 22.882812 23.257812 22.933594 23.25 22.980469 Z M 25.269531 17.78125 C 25.269531 17.78125 25.269531 17.78125 25.269531 17.785156 L 22.039062 17.78125 Z M 36.320312 27.609375 L 36.324219 27.601562 L 36.332031 27.59375 C 36.605469 27.140625 36.753906 26.65625 36.757812 26.195312 C 36.757812 26.109375 36.753906 26.03125 36.746094 25.957031 C 36.742188 25.898438 36.734375 25.847656 36.726562 25.800781 C 36.589844 24.972656 35.351562 20.847656 33.242188 14.167969 C 33.046875 14.285156 30.730469 15.671875 29.050781 15.628906 C 27.601562 15.589844 26.925781 14.453125 26.796875 14.210938 C 27.777344 21.125 28.652344 26.777344 28.882812 27.582031 C 28.898438 27.628906 28.914062 27.675781 28.929688 27.726562 C 28.957031 27.800781 28.988281 27.875 29.023438 27.945312 C 29.230469 28.367188 29.574219 28.738281 30.015625 29.027344 L 30.023438 29.03125 L 30.03125 29.039062 C 30.957031 29.714844 32.179688 30.171875 33.042969 30.433594 C 33.234375 30.496094 33.445312 30.503906 33.652344 30.457031 C 33.867188 30.40625 34.066406 30.304688 34.214844 30.164062 C 34.878906 29.550781 35.78125 28.613281 36.320312 27.609375 Z M 29.199219 21.21875 C 28.933594 21.21875 28.933594 20.808594 29.199219 20.808594 C 29.460938 20.808594 29.460938 21.21875 29.199219 21.21875 Z M 29.652344 22.878906 C 29.917969 22.878906 29.917969 23.289062 29.652344 23.289062 C 29.390625 23.289062 29.390625 22.878906 29.652344 22.878906 Z M 29.839844 24.253906 C 29.574219 24.253906 29.574219 23.84375 29.839844 23.84375 C 30.101562 23.84375 30.101562 24.253906 29.839844 24.253906 Z M 32.210938 25.117188 C 32.472656 25.117188 32.472656 25.527344 32.210938 25.527344 C 31.945312 25.527344 31.945312 25.117188 32.210938 25.117188 Z M 32.347656 26.316406 C 32.085938 26.316406 32.085938 25.90625 32.347656 25.90625 C 32.613281 25.90625 32.613281 26.316406 32.347656 26.316406 Z M 32.972656 17.109375 C 32.960938 17.058594 32.992188 17.011719 33.039062 17 C 33.089844 16.988281 33.140625 17.019531 33.148438 17.066406 L 35.214844 25.941406 C 35.226562 25.992188 35.195312 26.039062 35.144531 26.050781 C 35.140625 26.054688 35.132812 26.054688 35.125 26.054688 C 35.082031 26.054688 35.046875 26.023438 35.035156 25.984375 Z M 30.023438 14.160156 L 26.792969 14.164062 C 26.792969 14.164062 26.789062 14.160156 26.789062 14.160156 Z M 30.023438 14.160156 " fill-opacity="1" fill-rule="nonzero"/><path fill="#475b42" d="M 22.039062 17.78125 L 25.269531 17.785156 L 25.285156 17.785156 C 25.285156 17.785156 25.277344 17.800781 25.261719 17.832031 C 25.132812 18.074219 24.457031 19.210938 23.007812 19.246094 C 21.328125 19.289062 19.011719 17.90625 18.816406 17.789062 C 18.808594 17.78125 18.800781 17.777344 18.800781 17.777344 Z M 26.175781 13.710938 C 26.175781 13.714844 26.136719 13.730469 26.070312 13.761719 C 25.660156 13.9375 24.167969 14.515625 22.875 14.222656 C 21.585938 13.929688 20.488281 12.761719 20.195312 12.425781 C 20.148438 12.371094 20.121094 12.339844 20.117188 12.335938 C 20.085938 12.296875 20.03125 12.289062 19.992188 12.320312 C 19.953125 12.351562 19.945312 12.410156 19.976562 12.449219 C 19.980469 12.457031 19.996094 12.472656 20.015625 12.496094 C 20.242188 12.769531 21.402344 14.074219 22.835938 14.398438 C 23.109375 14.460938 23.386719 14.488281 23.660156 14.488281 C 24.839844 14.488281 25.953125 14.015625 26.203125 13.898438 C 26.234375 13.886719 26.25 13.878906 26.257812 13.875 C 26.300781 13.855469 26.320312 13.800781 26.296875 13.753906 C 26.277344 13.710938 26.222656 13.691406 26.175781 13.710938 Z M 29.050781 15.628906 C 30.730469 15.671875 33.046875 14.285156 33.242188 14.167969 C 33.25 14.164062 33.257812 14.160156 33.257812 14.160156 L 30.023438 14.160156 L 26.792969 14.164062 L 26.773438 14.164062 C 26.773438 14.164062 26.78125 14.179688 26.796875 14.210938 C 26.925781 14.453125 27.605469 15.589844 29.050781 15.628906 Z M 29.222656 10.78125 C 30.65625 10.453125 31.816406 9.148438 32.042969 8.878906 C 32.0625 8.851562 32.078125 8.835938 32.082031 8.828125 C 32.113281 8.789062 32.105469 8.734375 32.066406 8.703125 C 32.027344 8.671875 31.972656 8.675781 31.941406 8.714844 C 31.9375 8.71875 31.910156 8.75 31.863281 8.808594 C 31.570312 9.140625 30.476562 10.308594 29.183594 10.601562 C 27.890625 10.894531 26.398438 10.316406 25.992188 10.140625 C 25.921875 10.113281 25.882812 10.09375 25.882812 10.09375 C 25.835938 10.070312 25.78125 10.089844 25.761719 10.136719 C 25.738281 10.179688 25.757812 10.234375 25.804688 10.257812 C 25.808594 10.257812 25.828125 10.265625 25.855469 10.28125 C 26.105469 10.394531 27.21875 10.867188 28.398438 10.867188 C 28.671875 10.867188 28.953125 10.839844 29.222656 10.78125 Z M 29.222656 10.78125 " fill-opacity="1" fill-rule="nonzero"/><g clip-path="url(#cf8cab3a92)"><path fill="#e2b96a" d="M 23.554688 9.007812 L 22.296875 8.773438 L 23.554688 8.539062 L 23.789062 7.277344 L 24.027344 8.539062 L 25.285156 8.773438 L 24.027344 9.007812 L 23.789062 10.265625 Z M 26.410156 8.039062 L 26.777344 6.074219 L 28.746094 5.707031 L 26.777344 5.335938 L 26.410156 3.371094 L 26.042969 5.335938 L 24.074219 5.707031 L 26.042969 6.074219 Z M 26.410156 8.039062 " fill-opacity="1" fill-rule="nonzero"/></g></svg>