<svg xmlns="http://www.w3.org/2000/svg" xmlns:xlink="http://www.w3.org/1999/xlink" width="70" zoomAndPan="magnify" viewBox="0 0 52.5 52.499999" height="70" preserveAspectRatio="xMidYMid meet" version="1.0"><defs><clipPath id="d0637cda1a"><path d="M 3.15625 18.039062 L 45.460938 18.039062 L 45.460938 37.269531 L 3.15625 37.269531 Z M 3.15625 18.039062 " clip-rule="nonzero"/></clipPath></defs><g clip-path="url(#d0637cda1a)"><path fill="#475b42" d="M 45.019531 33.558594 C 45.019531 34.460938 43.492188 35.09375 42.910156 35.257812 C 39.789062 36.097656 36.242188 36.386719 31.183594 36.597656 L 6.214844 36.597656 C 4.910156 36.597656 3.851562 35.539062 3.851562 34.234375 L 3.851562 32.882812 L 31.199219 32.882812 C 36.070312 32.671875 41.523438 32.378906 44.722656 31.546875 C 44.796875 31.550781 44.871094 31.585938 44.921875 31.640625 C 44.988281 31.703125 45.019531 31.785156 45.019531 31.871094 Z M 5.824219 22.082031 C 5.996094 22.074219 6.160156 22.144531 6.273438 22.28125 L 7.273438 23.945312 C 7.28125 23.957031 7.289062 23.96875 7.296875 23.980469 C 8.003906 24.890625 8.90625 25.402344 9.925781 25.460938 L 12.625 25.460938 C 15.878906 25.460938 16.695312 24.464844 17.484375 23.5 C 17.722656 23.210938 17.949219 22.9375 18.242188 22.679688 C 18.90625 22.121094 19.4375 21.808594 19.917969 21.632812 C 19.300781 22.171875 18.800781 22.808594 18.3125 23.429688 C 17.222656 24.820312 16.199219 26.132812 13.980469 26.132812 L 10.265625 26.132812 C 9.527344 26.132812 8.570312 26.0625 7.757812 25.515625 C 7.453125 25.3125 6.367188 24.042969 5.535156 22.210938 C 5.605469 22.132812 5.707031 22.085938 5.824219 22.082031 Z M 17.925781 18.949219 C 18.324219 18.550781 18.851562 18.664062 19.488281 19.285156 L 20.949219 20.753906 C 19.96875 20.816406 19.089844 21.085938 17.804688 22.167969 C 17.542969 22.394531 17.332031 22.628906 17.140625 22.863281 C 16.820312 21.4375 17.128906 19.839844 17.925781 18.949219 Z M 23.738281 22.125 L 22.839844 23.203125 C 22.757812 23.292969 22.691406 23.382812 22.632812 23.46875 C 21.835938 23.042969 21.070312 22.621094 20.316406 22.183594 C 20.660156 21.878906 21.039062 21.613281 21.476562 21.410156 C 21.53125 21.410156 21.585938 21.410156 21.640625 21.410156 C 22.109375 21.421875 22.59375 21.53125 23.023438 21.757812 C 23.242188 21.875 23.484375 22 23.738281 22.125 Z M 34.390625 26.429688 L 32.957031 28.285156 C 32.695312 28.539062 32.421875 28.542969 32.285156 28.414062 C 32.132812 28.265625 32.199219 27.992188 32.464844 27.703125 L 33.636719 26.191406 L 33.882812 26.269531 C 34.054688 26.324219 34.222656 26.378906 34.390625 26.429688 Z M 36.089844 26.992188 C 35.707031 27.492188 35.414062 27.972656 35.203125 28.671875 C 34.753906 28.542969 34.296875 28.40625 33.828125 28.261719 L 35.078125 26.652344 C 35.429688 26.769531 35.765625 26.882812 36.089844 26.992188 Z M 32.96875 25.953125 L 31.949219 27.265625 C 31.863281 27.359375 31.792969 27.457031 31.734375 27.554688 C 31.367188 27.421875 30.996094 27.285156 30.625 27.140625 L 31.941406 25.5625 C 32.359375 25.722656 32.710938 25.855469 32.96875 25.953125 Z M 31.273438 25.308594 L 29.933594 26.917969 C 29.664062 27.191406 29.382812 27.199219 29.246094 27.066406 C 29.09375 26.917969 29.160156 26.640625 29.421875 26.363281 L 30.535156 25.019531 C 30.792969 25.121094 31.042969 25.21875 31.273438 25.308594 Z M 29.875 24.761719 L 28.914062 25.917969 C 28.78125 26.058594 28.691406 26.199219 28.621094 26.339844 C 28.261719 26.183594 27.898438 26.027344 27.527344 25.863281 L 28.804688 24.332031 C 29.167969 24.480469 29.527344 24.625 29.875 24.761719 Z M 28.148438 24.066406 L 26.898438 25.566406 C 26.625 25.839844 26.34375 25.847656 26.207031 25.71875 C 26.148438 25.660156 26.121094 25.574219 26.132812 25.464844 C 26.136719 25.441406 26.140625 25.417969 26.148438 25.390625 C 26.152344 25.378906 26.15625 25.367188 26.160156 25.355469 C 26.164062 25.339844 26.171875 25.324219 26.179688 25.304688 C 26.1875 25.285156 26.199219 25.265625 26.210938 25.242188 C 26.210938 25.238281 26.214844 25.234375 26.214844 25.234375 C 26.257812 25.164062 26.3125 25.089844 26.382812 25.011719 L 27.421875 23.765625 C 27.664062 23.867188 27.90625 23.96875 28.148438 24.066406 Z M 26.769531 23.492188 L 25.878906 24.566406 C 25.8125 24.636719 25.753906 24.710938 25.703125 24.785156 C 25.679688 24.820312 25.660156 24.855469 25.636719 24.894531 C 25.621094 24.917969 25.601562 24.945312 25.589844 24.972656 C 25.257812 24.8125 24.902344 24.636719 24.535156 24.453125 L 25.710938 23.035156 C 26.058594 23.1875 26.414062 23.339844 26.769531 23.492188 Z M 25.074219 22.75 L 23.859375 24.207031 C 23.828125 24.238281 23.800781 24.261719 23.769531 24.289062 C 23.765625 24.292969 23.757812 24.296875 23.753906 24.300781 C 23.511719 24.484375 23.285156 24.480469 23.167969 24.371094 C 23.039062 24.246094 23.039062 23.976562 23.347656 23.648438 L 24.367188 22.425781 C 24.59375 22.53125 24.832031 22.640625 25.074219 22.75 Z M 11.246094 32.210938 C 10.101562 28.066406 6.496094 26.546875 4.605469 26.03125 C 4.671875 25.898438 4.738281 25.769531 4.816406 25.644531 C 5.203125 25.003906 5.203125 24.648438 5.203125 24.195312 L 5.203125 24.121094 C 5.203125 23.9375 5.203125 23.546875 5.246094 23.160156 C 6.019531 24.640625 6.945312 25.785156 7.378906 26.078125 C 8.347656 26.726562 9.429688 26.808594 10.265625 26.808594 L 13.980469 26.808594 C 16.527344 26.808594 17.703125 25.304688 18.84375 23.847656 C 19.164062 23.4375 19.480469 23.039062 19.816406 22.675781 C 20.664062 23.164062 21.515625 23.640625 22.414062 24.117188 C 22.402344 24.417969 22.515625 24.679688 22.699219 24.855469 C 22.871094 25.019531 23.113281 25.121094 23.378906 25.121094 C 23.574219 25.121094 23.785156 25.0625 23.996094 24.9375 C 24.523438 25.203125 25.007812 25.441406 25.464844 25.660156 C 25.5 25.878906 25.597656 26.066406 25.734375 26.203125 C 25.910156 26.371094 26.15625 26.476562 26.425781 26.476562 C 26.59375 26.476562 26.769531 26.429688 26.949219 26.347656 C 27.476562 26.582031 27.996094 26.808594 28.503906 27.019531 C 28.542969 27.234375 28.636719 27.417969 28.777344 27.550781 C 28.949219 27.714844 29.195312 27.820312 29.464844 27.820312 C 29.65625 27.820312 29.859375 27.761719 30.0625 27.648438 C 30.554688 27.839844 31.042969 28.023438 31.53125 28.199219 C 31.527344 28.484375 31.644531 28.730469 31.820312 28.902344 C 31.992188 29.066406 32.242188 29.171875 32.519531 29.171875 C 32.789062 29.171875 33.085938 29.0625 33.363281 28.820312 C 33.933594 29.003906 34.496094 29.171875 35.042969 29.328125 C 34.910156 30 34.824219 30.863281 34.785156 32.035156 C 33.578125 32.101562 32.363281 32.160156 31.183594 32.210938 Z M 3.851562 32.210938 L 3.851562 29.832031 C 3.769531 28.714844 3.933594 27.632812 4.320312 26.652344 C 6.019531 27.097656 9.410156 28.449219 10.546875 32.210938 Z M 44.332031 30.945312 C 42.109375 31.488281 38.84375 31.792969 35.460938 31.996094 C 35.574219 28.894531 36.003906 28.175781 36.761719 27.226562 C 37.753906 27.5625 39.285156 27.960938 40.230469 28.152344 C 42.378906 28.59375 44.175781 29.117188 44.332031 30.945312 Z M 45.398438 31.160156 C 45.285156 31.046875 45.148438 30.972656 45.003906 30.925781 C 44.816406 28.410156 42.152344 27.859375 40.363281 27.492188 C 39.382812 27.292969 37.667969 26.839844 36.738281 26.507812 C 36.726562 26.503906 36.710938 26.496094 36.699219 26.492188 C 35.929688 26.210938 35.035156 25.929688 34.085938 25.625 L 33.664062 25.492188 C 33.59375 25.464844 26.546875 22.871094 23.339844 21.160156 C 22.890625 20.925781 22.398438 20.789062 21.898438 20.753906 L 19.960938 18.804688 C 19.046875 17.914062 18.132812 17.789062 17.4375 18.484375 C 16.378906 19.660156 16.046875 21.730469 16.613281 23.488281 C 15.953125 24.21875 15.105469 24.785156 12.625 24.785156 L 9.945312 24.785156 C 8.945312 24.726562 8.25 24.101562 7.84375 23.582031 L 6.839844 21.914062 C 6.832031 21.898438 6.824219 21.886719 6.816406 21.875 C 6.5625 21.5625 6.179688 21.386719 5.789062 21.40625 C 5.421875 21.425781 5.105469 21.609375 4.917969 21.90625 C 4.570312 22.449219 4.527344 23.375 4.527344 24.121094 L 4.527344 24.199219 C 4.527344 24.609375 4.527344 24.816406 4.238281 25.296875 C 3.425781 26.636719 3.058594 28.222656 3.175781 29.859375 L 3.175781 34.234375 C 3.175781 35.910156 4.539062 37.269531 6.214844 37.269531 L 31.199219 37.269531 C 36.320312 37.058594 39.90625 36.765625 43.089844 35.910156 C 43.195312 35.878906 45.695312 35.15625 45.695312 33.558594 L 45.695312 31.871094 C 45.695312 31.601562 45.589844 31.347656 45.398438 31.160156 " fill-opacity="1" fill-rule="nonzero"/></g></svg>