<svg xmlns="http://www.w3.org/2000/svg" xmlns:xlink="http://www.w3.org/1999/xlink" width="70" zoomAndPan="magnify" viewBox="0 0 52.5 52.499999" height="70" preserveAspectRatio="xMidYMid meet" version="1.0"><defs><clipPath id="922eb88e51"><path d="M 5.515625 13.902344 L 48.289062 13.902344 L 48.289062 38.417969 L 5.515625 38.417969 Z M 5.515625 13.902344 " clip-rule="nonzero"/></clipPath></defs><g clip-path="url(#922eb88e51)"><path fill="#475b42" d="M 5.941406 31.152344 C 5.746094 31.089844 5.621094 31.167969 5.589844 31.378906 C 5.574219 31.480469 5.5625 31.582031 5.554688 31.683594 C 5.53125 32.003906 5.515625 32.320312 5.496094 32.636719 C 5.453125 33.199219 5.410156 33.761719 5.363281 34.324219 C 5.339844 34.539062 5.296875 34.75 5.261719 34.960938 C 5.203125 35.335938 5.230469 35.691406 5.425781 36.027344 C 5.5625 36.257812 5.734375 36.46875 5.945312 36.632812 C 6.460938 37.035156 7.050781 37.28125 7.695312 37.386719 C 8.203125 37.464844 8.714844 37.496094 9.230469 37.441406 C 9.613281 37.398438 10 37.371094 10.382812 37.332031 C 10.75 37.296875 11.113281 37.300781 11.480469 37.324219 C 11.886719 37.347656 12.292969 37.371094 12.699219 37.390625 C 13.0625 37.414062 13.425781 37.445312 13.78125 37.464844 C 14.621094 37.515625 15.460938 37.566406 16.300781 37.5625 C 16.875 37.554688 17.445312 37.554688 18.019531 37.566406 C 18.328125 37.574219 18.636719 37.605469 18.953125 37.628906 C 19.425781 37.667969 19.898438 37.707031 20.375 37.738281 C 20.757812 37.765625 21.136719 37.789062 21.519531 37.8125 C 22.175781 37.84375 22.835938 37.871094 23.488281 37.890625 C 23.882812 37.902344 24.269531 37.902344 24.664062 37.914062 C 24.910156 37.917969 25.148438 37.9375 25.386719 37.953125 C 25.753906 37.976562 26.125 37.996094 26.492188 38.019531 C 27.371094 38.070312 28.25 38.105469 29.128906 38.078125 C 29.457031 38.066406 29.789062 38.035156 30.121094 38.019531 C 30.660156 37.992188 31.191406 37.972656 31.726562 37.953125 C 32.222656 37.9375 32.710938 37.949219 33.207031 37.933594 C 33.800781 37.917969 34.394531 37.890625 34.984375 37.859375 C 35.46875 37.832031 35.953125 37.78125 36.4375 37.746094 C 36.945312 37.710938 37.453125 37.683594 37.960938 37.65625 C 38.523438 37.628906 39.089844 37.609375 39.65625 37.59375 C 40.019531 37.582031 40.378906 37.566406 40.742188 37.574219 C 41.464844 37.578125 42.1875 37.597656 42.910156 37.605469 C 43.648438 37.609375 44.375 37.535156 45.09375 37.355469 C 45.507812 37.25 45.929688 37.152344 46.34375 37.035156 C 47.097656 36.824219 47.683594 36.367188 48.128906 35.726562 C 48.507812 35.1875 48.601562 34.589844 48.433594 33.953125 C 48.292969 33.4375 48.148438 32.921875 48.007812 32.40625 C 47.984375 32.328125 47.933594 32.257812 47.898438 32.179688 C 47.890625 32.152344 47.878906 32.125 47.878906 32.097656 C 47.863281 32.003906 47.867188 31.902344 47.835938 31.8125 C 47.691406 31.417969 47.527344 31.03125 47.304688 30.667969 C 47.042969 30.25 46.726562 29.882812 46.386719 29.53125 C 46.285156 29.429688 46.144531 29.371094 46.007812 29.328125 C 45.664062 29.21875 45.3125 29.148438 44.957031 29.078125 C 44.582031 29.003906 44.21875 28.921875 43.851562 28.835938 C 43.246094 28.695312 42.640625 28.5625 42.039062 28.414062 C 41.492188 28.28125 40.9375 28.148438 40.394531 27.996094 C 39.773438 27.820312 39.15625 27.625 38.535156 27.449219 C 38.332031 27.390625 38.117188 27.390625 37.910156 27.359375 C 37.855469 27.351562 37.792969 27.347656 37.753906 27.320312 C 37.320312 26.996094 36.824219 26.800781 36.3125 26.628906 C 36.191406 26.585938 36.070312 26.539062 35.941406 26.492188 C 35.9375 26.453125 35.9375 26.421875 35.933594 26.394531 C 35.921875 26.359375 35.910156 26.304688 35.882812 26.292969 C 35.773438 26.246094 35.71875 26.125 35.613281 26.070312 C 35.507812 26.019531 35.394531 25.980469 35.285156 25.945312 C 35.160156 25.902344 35.050781 25.9375 34.953125 26.023438 C 34.859375 26.109375 34.859375 26.109375 34.746094 26.054688 C 34.304688 25.851562 33.863281 25.652344 33.429688 25.449219 C 33.339844 25.40625 33.246094 25.359375 33.152344 25.328125 C 33.089844 25.304688 33.019531 25.316406 32.933594 25.3125 C 32.832031 25.179688 32.667969 25.125 32.5 25.089844 C 32.398438 25.066406 32.296875 25.0625 32.199219 25.113281 C 32.175781 25.125 32.125 25.128906 32.109375 25.113281 C 31.867188 24.917969 31.566406 24.816406 31.28125 24.695312 C 31.0625 24.605469 30.839844 24.519531 30.621094 24.421875 C 30.515625 24.375 30.421875 24.308594 30.320312 24.242188 C 30.234375 24.191406 30.148438 24.132812 30.058594 24.089844 C 29.941406 24.035156 29.820312 24.023438 29.703125 24.089844 C 29.664062 24.109375 29.632812 24.109375 29.601562 24.078125 C 29.300781 23.796875 28.921875 23.636719 28.558594 23.453125 C 28.464844 23.402344 28.367188 23.355469 28.273438 23.3125 C 28.1875 23.277344 28.097656 23.261719 28.007812 23.226562 C 27.976562 23.21875 27.933594 23.207031 27.910156 23.179688 C 27.730469 22.957031 27.421875 22.820312 27.140625 22.835938 C 27.125 22.835938 27.109375 22.835938 27.082031 22.835938 C 27.054688 22.679688 26.945312 22.589844 26.828125 22.515625 C 26.550781 22.328125 26.265625 22.148438 25.984375 21.964844 C 25.871094 21.890625 25.753906 21.847656 25.621094 21.898438 C 25.601562 21.878906 25.582031 21.855469 25.566406 21.839844 C 25.519531 21.792969 25.460938 21.765625 25.398438 21.792969 C 25.328125 21.824219 25.292969 21.792969 25.238281 21.761719 C 25.117188 21.679688 24.988281 21.597656 24.855469 21.539062 C 24.710938 21.472656 24.570312 21.515625 24.476562 21.640625 C 24.304688 21.878906 24.152344 22.132812 24.058594 22.421875 C 24.015625 22.558594 24.039062 22.679688 24.128906 22.792969 C 24.207031 22.886719 24.289062 22.988281 24.386719 23.074219 C 24.5625 23.222656 24.71875 23.195312 24.851562 23.003906 C 24.972656 22.824219 25.085938 22.636719 25.207031 22.460938 C 25.296875 22.328125 25.398438 22.203125 25.53125 22.089844 C 25.632812 22.277344 25.808594 22.351562 25.964844 22.457031 C 26.15625 22.585938 26.347656 22.707031 26.546875 22.828125 C 26.652344 22.894531 26.757812 22.945312 26.875 23.011719 C 26.859375 23.035156 26.847656 23.070312 26.832031 23.101562 C 26.746094 23.300781 26.65625 23.503906 26.574219 23.707031 C 26.554688 23.742188 26.550781 23.785156 26.539062 23.828125 C 26.503906 24.046875 26.5625 24.222656 26.769531 24.332031 C 26.84375 24.371094 26.90625 24.429688 26.980469 24.476562 C 27.15625 24.59375 27.269531 24.566406 27.386719 24.390625 C 27.539062 24.164062 27.699219 23.941406 27.859375 23.71875 C 27.886719 23.683594 27.910156 23.652344 27.945312 23.617188 C 28.460938 23.875 28.976562 24.121094 29.457031 24.441406 C 29.414062 24.546875 29.375 24.652344 29.339844 24.753906 C 29.316406 24.84375 29.289062 24.933594 29.273438 25.023438 C 29.25 25.152344 29.28125 25.269531 29.378906 25.347656 C 29.492188 25.449219 29.613281 25.550781 29.738281 25.628906 C 29.882812 25.71875 30.003906 25.679688 30.089844 25.523438 C 30.175781 25.363281 30.246094 25.207031 30.324219 25.046875 C 30.367188 24.960938 30.414062 24.882812 30.457031 24.796875 C 30.96875 25.007812 31.46875 25.222656 31.976562 25.433594 C 31.96875 25.476562 31.960938 25.507812 31.945312 25.539062 C 31.902344 25.644531 31.851562 25.746094 31.8125 25.859375 C 31.785156 25.9375 31.769531 26.023438 31.765625 26.109375 C 31.757812 26.230469 31.824219 26.316406 31.941406 26.363281 C 31.957031 26.367188 31.972656 26.375 31.988281 26.378906 C 32.316406 26.480469 32.40625 26.449219 32.632812 26.1875 C 32.75 26.050781 32.871094 25.921875 32.992188 25.796875 C 33.066406 25.714844 33.066406 25.726562 33.164062 25.769531 C 33.480469 25.917969 33.804688 26.054688 34.125 26.203125 C 34.257812 26.261719 34.390625 26.320312 34.519531 26.378906 C 34.535156 26.390625 34.554688 26.402344 34.582031 26.417969 C 34.558594 26.449219 34.539062 26.476562 34.519531 26.5 C 34.453125 26.570312 34.386719 26.644531 34.316406 26.714844 C 34.285156 26.746094 34.257812 26.773438 34.230469 26.808594 C 34.035156 27.050781 34.097656 27.246094 34.394531 27.335938 C 34.464844 27.359375 34.535156 27.375 34.601562 27.394531 C 34.777344 27.449219 34.941406 27.410156 35.074219 27.289062 C 35.21875 27.160156 35.359375 27.035156 35.492188 26.894531 C 35.566406 26.816406 35.632812 26.804688 35.734375 26.84375 C 36.097656 26.984375 36.46875 27.113281 36.835938 27.25 C 36.945312 27.292969 37.054688 27.351562 37.160156 27.398438 C 37.179688 27.410156 37.195312 27.425781 37.238281 27.453125 C 37.1875 27.46875 37.152344 27.484375 37.117188 27.496094 C 36.78125 27.582031 36.445312 27.660156 36.117188 27.746094 C 35.714844 27.847656 35.308594 27.941406 34.890625 27.980469 C 34.367188 28.023438 33.863281 27.953125 33.371094 27.789062 C 33.089844 27.691406 32.804688 27.605469 32.519531 27.515625 C 32.226562 27.433594 31.929688 27.382812 31.625 27.398438 C 31.265625 27.414062 30.902344 27.449219 30.546875 27.480469 C 30.082031 27.523438 29.628906 27.453125 29.222656 27.207031 C 29.007812 27.074219 28.800781 26.933594 28.585938 26.785156 C 28.1875 26.5 27.773438 26.234375 27.300781 26.097656 C 27.082031 26.035156 26.855469 25.992188 26.632812 25.945312 C 26.28125 25.871094 25.925781 25.800781 25.574219 25.714844 C 25.121094 25.605469 24.738281 25.371094 24.410156 25.035156 C 24.128906 24.742188 23.882812 24.421875 23.632812 24.105469 C 23.515625 23.957031 23.398438 23.8125 23.277344 23.675781 C 22.972656 23.34375 22.589844 23.148438 22.167969 23.035156 C 21.953125 22.984375 21.730469 22.957031 21.511719 22.941406 C 21.179688 22.914062 20.84375 22.914062 20.507812 22.894531 C 20.03125 22.859375 19.566406 22.761719 19.140625 22.515625 C 18.765625 22.296875 18.503906 21.980469 18.3125 21.589844 C 18.308594 21.574219 18.308594 21.558594 18.304688 21.53125 C 18.355469 21.507812 18.410156 21.480469 18.460938 21.453125 C 18.898438 21.25 19.332031 21.050781 19.765625 20.839844 C 19.839844 20.804688 19.902344 20.804688 19.980469 20.839844 C 20.125 20.910156 20.273438 20.878906 20.417969 20.835938 C 20.738281 20.742188 21.046875 20.628906 21.363281 20.539062 C 21.785156 20.421875 22.203125 20.328125 22.625 20.21875 C 22.671875 20.210938 22.71875 20.203125 22.789062 20.191406 C 22.746094 20.382812 22.851562 20.492188 22.980469 20.585938 C 23.320312 20.847656 23.660156 21.109375 24 21.367188 C 24.070312 21.421875 24.136719 21.46875 24.207031 21.515625 C 24.246094 21.542969 24.289062 21.566406 24.335938 21.574219 C 24.410156 21.597656 24.46875 21.570312 24.515625 21.511719 C 24.558594 21.457031 24.570312 21.390625 24.53125 21.332031 C 24.496094 21.273438 24.445312 21.214844 24.394531 21.164062 C 24.015625 20.832031 23.617188 20.515625 23.203125 20.230469 C 23.175781 20.214844 23.15625 20.191406 23.105469 20.152344 C 23.175781 20.140625 23.21875 20.136719 23.257812 20.128906 C 23.507812 20.109375 23.753906 20.09375 24.003906 20.070312 C 24.277344 20.050781 24.382812 19.910156 24.328125 19.640625 C 24.234375 19.125 24.101562 18.621094 23.929688 18.125 C 23.765625 17.636719 23.554688 17.167969 23.332031 16.707031 C 23.304688 16.660156 23.28125 16.605469 23.265625 16.554688 C 23.214844 16.394531 23.125 16.324219 22.953125 16.339844 C 22.824219 16.351562 22.699219 16.371094 22.574219 16.386719 C 22.539062 16.394531 22.492188 16.410156 22.46875 16.355469 C 22.476562 16.34375 22.480469 16.335938 22.484375 16.328125 C 22.632812 16.292969 22.660156 16.179688 22.660156 16.046875 C 22.660156 15.644531 22.65625 15.238281 22.609375 14.839844 C 22.589844 14.703125 22.566406 14.566406 22.523438 14.433594 C 22.410156 14.097656 22.167969 13.976562 21.808594 14.070312 C 21.578125 14.132812 21.386719 14.261719 21.214844 14.433594 C 21.15625 14.492188 21.105469 14.550781 21.046875 14.609375 C 20.976562 14.683594 20.976562 14.683594 20.886719 14.632812 C 20.671875 14.53125 20.464844 14.421875 20.253906 14.335938 C 19.714844 14.117188 19.152344 13.992188 18.574219 13.949219 C 17.898438 13.902344 17.246094 14.007812 16.601562 14.191406 C 15.582031 14.492188 14.59375 14.882812 13.640625 15.355469 C 13.167969 15.597656 12.710938 15.867188 12.265625 16.152344 C 11.28125 16.792969 10.257812 17.34375 9.167969 17.785156 C 8.785156 17.941406 8.402344 18.09375 8.023438 18.257812 C 7.78125 18.363281 7.550781 18.507812 7.34375 18.683594 C 7.109375 18.878906 6.992188 19.144531 6.90625 19.433594 C 6.832031 19.703125 6.796875 19.980469 6.769531 20.261719 C 6.726562 20.683594 6.691406 21.097656 6.652344 21.515625 C 6.632812 21.765625 6.609375 22.015625 6.59375 22.265625 C 6.574219 22.570312 6.546875 22.867188 6.527344 23.167969 C 6.503906 23.515625 6.488281 23.867188 6.46875 24.210938 C 6.460938 24.308594 6.449219 24.40625 6.425781 24.5 C 6.222656 25.125 6.101562 25.773438 6 26.425781 C 5.859375 27.359375 5.828125 28.289062 5.894531 29.222656 C 5.914062 29.515625 5.925781 29.808594 5.953125 30.101562 C 5.972656 30.339844 6.003906 30.574219 6.03125 30.808594 C 6.035156 30.863281 6.042969 30.917969 6.003906 30.976562 C 5.960938 31.023438 5.957031 31.089844 5.941406 31.152344 Z M 47.585938 32.292969 C 47.597656 32.304688 47.601562 32.3125 47.601562 32.320312 C 47.6875 32.6875 47.765625 33.058594 47.867188 33.421875 C 47.90625 33.566406 47.898438 33.671875 47.816406 33.800781 C 47.660156 34.027344 47.496094 34.238281 47.273438 34.398438 C 46.71875 34.792969 46.125 35.113281 45.488281 35.34375 C 44.976562 35.53125 44.449219 35.648438 43.917969 35.738281 C 43.238281 35.855469 42.546875 35.941406 41.859375 35.988281 C 41.199219 36.03125 40.542969 36.078125 39.886719 36.117188 C 39.289062 36.148438 38.695312 36.167969 38.105469 36.195312 C 37.761719 36.210938 37.417969 36.238281 37.074219 36.253906 C 36.628906 36.28125 36.1875 36.316406 35.742188 36.324219 C 34.027344 36.339844 32.316406 36.296875 30.605469 36.367188 C 29.65625 36.402344 28.703125 36.398438 27.753906 36.414062 C 27.378906 36.417969 27.011719 36.425781 26.640625 36.433594 C 25.890625 36.457031 25.148438 36.484375 24.398438 36.492188 C 23.925781 36.5 23.449219 36.472656 22.972656 36.460938 C 22.199219 36.445312 21.417969 36.429688 20.640625 36.410156 C 20.382812 36.402344 20.113281 36.375 19.855469 36.351562 C 19.265625 36.292969 18.679688 36.226562 18.09375 36.164062 C 17.5625 36.109375 17.03125 36.058594 16.496094 36.011719 C 15.984375 35.96875 15.46875 35.925781 14.960938 35.902344 C 14.300781 35.878906 13.640625 35.859375 12.984375 35.851562 C 12.726562 35.84375 12.472656 35.84375 12.21875 35.855469 C 11.570312 35.894531 10.921875 35.914062 10.265625 35.855469 C 9.730469 35.808594 9.195312 35.734375 8.667969 35.605469 C 8.1875 35.488281 7.710938 35.363281 7.242188 35.222656 C 6.785156 35.089844 6.335938 34.9375 5.882812 34.789062 C 5.761719 34.75 5.765625 34.746094 5.785156 34.621094 C 5.808594 34.488281 5.835938 34.355469 5.84375 34.21875 C 5.882812 33.757812 5.910156 33.292969 5.941406 32.832031 C 5.945312 32.773438 5.953125 32.714844 5.953125 32.65625 C 5.976562 32.1875 6.019531 31.722656 6.015625 31.257812 C 6.101562 31.273438 6.191406 31.304688 6.28125 31.304688 C 6.738281 31.324219 7.199219 31.34375 7.65625 31.339844 C 8.476562 31.332031 9.285156 31.421875 10.097656 31.488281 C 10.730469 31.539062 11.355469 31.628906 11.988281 31.664062 C 12.707031 31.699219 13.417969 31.761719 14.136719 31.804688 C 14.816406 31.847656 15.503906 31.878906 16.183594 31.917969 C 16.449219 31.933594 16.71875 31.949219 16.984375 31.964844 C 17.421875 31.992188 17.855469 32.035156 18.296875 32.035156 C 19.003906 32.039062 19.707031 32.121094 20.402344 32.230469 C 20.816406 32.292969 21.238281 32.351562 21.65625 32.378906 C 22.1875 32.417969 22.71875 32.433594 23.238281 32.511719 C 23.71875 32.585938 24.195312 32.65625 24.667969 32.75 C 25.574219 32.9375 26.472656 33.152344 27.386719 33.265625 C 28.0625 33.351562 28.734375 33.425781 29.414062 33.433594 C 29.554688 33.433594 29.6875 33.4375 29.824219 33.441406 C 30.339844 33.464844 30.863281 33.484375 31.378906 33.511719 C 31.652344 33.523438 31.929688 33.550781 32.207031 33.554688 C 33.003906 33.570312 33.800781 33.589844 34.601562 33.597656 C 35.480469 33.601562 36.363281 33.609375 37.238281 33.597656 C 37.835938 33.585938 38.429688 33.550781 39.019531 33.523438 C 39.472656 33.5 39.929688 33.480469 40.378906 33.449219 C 40.773438 33.421875 41.167969 33.367188 41.558594 33.351562 C 42.367188 33.316406 43.179688 33.292969 43.992188 33.261719 C 44.445312 33.246094 44.890625 33.21875 45.339844 33.140625 C 45.800781 33.058594 46.246094 32.917969 46.683594 32.746094 C 46.984375 32.628906 47.277344 32.503906 47.539062 32.300781 C 47.558594 32.300781 47.574219 32.300781 47.585938 32.292969 Z M 29.453125 27.820312 C 29.441406 27.855469 29.4375 27.882812 29.425781 27.910156 C 29.300781 28.179688 29.132812 28.425781 28.90625 28.628906 C 28.703125 28.804688 28.480469 28.957031 28.246094 29.085938 C 27.546875 29.484375 26.964844 30.019531 26.472656 30.652344 C 26.074219 31.164062 25.757812 31.714844 25.488281 32.300781 C 25.433594 32.417969 25.433594 32.417969 25.308594 32.390625 C 24.828125 32.277344 24.34375 32.183594 23.855469 32.105469 C 23.230469 32.003906 22.601562 31.9375 21.96875 31.90625 C 21.390625 31.878906 20.820312 31.800781 20.246094 31.710938 C 19.714844 31.621094 19.179688 31.5625 18.636719 31.550781 C 18.1875 31.546875 17.738281 31.523438 17.289062 31.503906 C 17 31.488281 16.714844 31.464844 16.421875 31.445312 C 16.347656 31.4375 16.308594 31.414062 16.285156 31.339844 C 16.21875 31.15625 16.148438 30.980469 16.082031 30.800781 C 15.757812 29.96875 15.242188 29.269531 14.539062 28.710938 C 13.996094 28.28125 13.417969 27.914062 12.824219 27.566406 C 12.46875 27.359375 12.105469 27.160156 11.75 26.953125 C 11.621094 26.875 11.5 26.777344 11.386719 26.671875 C 11.214844 26.511719 11.179688 26.308594 11.253906 26.085938 C 11.394531 25.671875 11.605469 25.300781 11.910156 24.992188 C 12.355469 24.539062 12.851562 24.148438 13.375 23.792969 C 14.054688 23.335938 14.785156 22.972656 15.542969 22.664062 C 16.167969 22.402344 16.792969 22.148438 17.414062 21.890625 C 17.554688 21.832031 17.695312 21.773438 17.847656 21.707031 C 17.871094 21.753906 17.886719 21.792969 17.910156 21.824219 C 18.011719 21.988281 18.101562 22.171875 18.21875 22.324219 C 18.550781 22.769531 19.015625 23.027344 19.542969 23.183594 C 19.960938 23.3125 20.398438 23.355469 20.839844 23.371094 C 21.195312 23.386719 21.554688 23.398438 21.90625 23.453125 C 22.363281 23.519531 22.761719 23.726562 23.050781 24.105469 C 23.148438 24.238281 23.261719 24.371094 23.367188 24.503906 C 23.640625 24.84375 23.910156 25.183594 24.230469 25.476562 C 24.542969 25.761719 24.902344 25.980469 25.316406 26.09375 C 25.695312 26.195312 26.078125 26.269531 26.460938 26.351562 C 26.695312 26.40625 26.929688 26.4375 27.15625 26.507812 C 27.59375 26.632812 27.976562 26.875 28.335938 27.144531 C 28.566406 27.316406 28.800781 27.480469 29.050781 27.613281 C 29.183594 27.691406 29.308594 27.757812 29.453125 27.820312 Z M 32.957031 28.121094 C 32.933594 28.164062 32.929688 28.191406 32.917969 28.214844 C 32.753906 28.511719 32.679688 28.828125 32.691406 29.167969 C 32.707031 29.707031 32.929688 30.136719 33.355469 30.460938 C 33.679688 30.707031 34.050781 30.832031 34.449219 30.886719 C 34.777344 30.929688 35.109375 30.964844 35.4375 30.988281 C 35.882812 31.019531 36.324219 31.050781 36.769531 31.0625 C 37.84375 31.089844 38.917969 31.046875 39.992188 30.945312 C 40.757812 30.871094 41.515625 30.765625 42.277344 30.640625 C 42.765625 30.5625 43.25 30.484375 43.734375 30.398438 C 44.070312 30.339844 44.402344 30.28125 44.734375 30.207031 C 45.136719 30.117188 45.523438 29.984375 45.90625 29.828125 C 45.976562 29.800781 46.023438 29.808594 46.070312 29.867188 C 46.273438 30.105469 46.488281 30.339844 46.683594 30.582031 C 46.976562 30.949219 47.195312 31.363281 47.351562 31.804688 C 47.390625 31.90625 47.390625 31.929688 47.304688 31.992188 C 47.226562 32.050781 47.144531 32.109375 47.0625 32.144531 C 46.84375 32.242188 46.625 32.332031 46.402344 32.417969 C 45.84375 32.625 45.269531 32.777344 44.667969 32.808594 C 44.175781 32.835938 43.675781 32.859375 43.179688 32.875 C 42.746094 32.890625 42.304688 32.890625 41.867188 32.917969 C 41.277344 32.949219 40.6875 33.007812 40.105469 33.042969 C 39.535156 33.074219 38.964844 33.097656 38.398438 33.125 C 38.324219 33.128906 38.253906 33.128906 38.179688 33.132812 C 37.527344 33.152344 36.871094 33.1875 36.21875 33.1875 C 35.058594 33.175781 33.902344 33.144531 32.738281 33.125 C 32.597656 33.117188 32.457031 33.117188 32.316406 33.109375 C 31.945312 33.085938 31.574219 33.058594 31.195312 33.042969 C 30.574219 33.019531 29.949219 32.992188 29.324219 32.96875 C 28.730469 32.949219 28.140625 32.902344 27.550781 32.816406 C 27.039062 32.742188 26.53125 32.644531 26.019531 32.554688 C 25.988281 32.550781 25.960938 32.535156 25.925781 32.519531 C 25.933594 32.484375 25.941406 32.460938 25.949219 32.4375 C 26.238281 31.832031 26.578125 31.257812 27.007812 30.75 C 27.421875 30.257812 27.890625 29.828125 28.441406 29.5 C 28.582031 29.417969 28.714844 29.324219 28.847656 29.234375 C 29.199219 28.984375 29.496094 28.6875 29.679688 28.289062 C 29.71875 28.203125 29.757812 28.117188 29.789062 28.027344 C 29.832031 27.910156 29.832031 27.910156 29.957031 27.921875 C 30.042969 27.929688 30.128906 27.941406 30.214844 27.9375 C 30.503906 27.921875 30.796875 27.910156 31.089844 27.878906 C 31.550781 27.832031 32.015625 27.832031 32.464844 27.972656 C 32.625 28.023438 32.78125 28.070312 32.957031 28.121094 Z M 22.101562 16.445312 C 22.078125 16.457031 22.058594 16.46875 22.042969 16.472656 C 21.777344 16.515625 21.519531 16.5625 21.253906 16.605469 C 20.84375 16.667969 20.433594 16.722656 20.03125 16.785156 C 19.796875 16.824219 19.5625 16.882812 19.351562 16.988281 C 19.058594 17.136719 18.960938 17.339844 19.035156 17.660156 C 19.042969 17.679688 19.046875 17.699219 19.050781 17.722656 C 19.101562 17.90625 19.152344 18.089844 19.199219 18.273438 C 19.34375 18.878906 19.484375 19.480469 19.621094 20.085938 C 19.648438 20.199219 19.667969 20.308594 19.691406 20.417969 C 19.648438 20.4375 19.621094 20.449219 19.59375 20.464844 C 19.371094 20.554688 19.140625 20.640625 18.925781 20.746094 C 17.984375 21.191406 17.023438 21.585938 16.058594 21.980469 C 15.949219 22.027344 15.832031 22.085938 15.714844 22.101562 C 15.554688 22.128906 15.410156 22.1875 15.269531 22.246094 C 15.035156 22.335938 14.804688 22.4375 14.554688 22.472656 C 14.152344 22.535156 13.75 22.589844 13.34375 22.648438 C 13.03125 22.695312 12.726562 22.679688 12.417969 22.601562 C 12.035156 22.5 11.695312 22.324219 11.4375 22.027344 C 11.105469 21.65625 10.9375 21.203125 10.851562 20.71875 C 10.824219 20.566406 10.863281 20.417969 10.949219 20.277344 C 11.058594 20.097656 11.195312 19.945312 11.367188 19.820312 C 11.414062 19.785156 11.480469 19.761719 11.542969 19.753906 C 11.671875 19.730469 11.804688 19.726562 11.9375 19.703125 C 12.53125 19.613281 13.117188 19.492188 13.691406 19.320312 C 14.398438 19.109375 15.09375 18.847656 15.785156 18.589844 C 16.363281 18.371094 16.9375 18.136719 17.496094 17.867188 C 17.921875 17.660156 18.34375 17.460938 18.808594 17.351562 C 18.851562 17.339844 18.898438 17.316406 18.933594 17.292969 C 19 17.242188 19.027344 17.179688 19.007812 17.101562 C 18.992188 17.019531 18.929688 16.96875 18.851562 16.960938 C 18.800781 16.957031 18.75 16.960938 18.695312 16.972656 C 18.355469 17.03125 18.027344 17.125 17.714844 17.277344 C 16.910156 17.660156 16.085938 17.980469 15.253906 18.289062 C 14.347656 18.621094 13.445312 18.933594 12.5 19.121094 C 11.996094 19.214844 11.488281 19.3125 10.972656 19.304688 C 10.75 19.304688 10.523438 19.328125 10.300781 19.332031 C 10 19.335938 9.746094 19.453125 9.523438 19.644531 C 9.277344 19.847656 9.070312 20.082031 8.875 20.332031 C 8.222656 21.160156 7.613281 22.03125 7.105469 22.960938 C 7.089844 22.996094 7.0625 23.019531 7.046875 23.046875 C 7.023438 22.996094 7.023438 22.957031 7.03125 22.914062 C 7.0625 22.558594 7.09375 22.203125 7.121094 21.847656 C 7.152344 21.441406 7.183594 21.03125 7.222656 20.628906 C 7.238281 20.449219 7.269531 20.269531 7.285156 20.085938 C 7.289062 20.003906 7.332031 19.960938 7.414062 19.9375 C 7.574219 19.890625 7.730469 19.84375 7.886719 19.789062 C 8.769531 19.503906 9.632812 19.167969 10.4375 18.707031 C 11.304688 18.207031 12.148438 17.679688 13.007812 17.167969 C 13.503906 16.871094 14.003906 16.574219 14.507812 16.304688 C 14.945312 16.070312 15.402344 15.867188 15.847656 15.648438 C 16.339844 15.40625 16.832031 15.148438 17.332031 14.914062 C 17.632812 14.773438 17.941406 14.644531 18.253906 14.523438 C 18.453125 14.441406 18.660156 14.410156 18.882812 14.4375 C 19.523438 14.515625 20.121094 14.722656 20.6875 15.015625 C 21.273438 15.320312 21.726562 15.753906 22.042969 16.324219 C 22.066406 16.351562 22.082031 16.398438 22.101562 16.445312 Z M 14.996094 31.355469 C 14.953125 31.359375 14.933594 31.363281 14.90625 31.363281 C 14.496094 31.34375 14.09375 31.328125 13.683594 31.304688 C 13.449219 31.296875 13.214844 31.273438 12.984375 31.257812 C 12.675781 31.238281 12.367188 31.222656 12.054688 31.199219 C 11.796875 31.183594 11.542969 31.164062 11.292969 31.136719 C 10.996094 31.109375 10.691406 31.074219 10.394531 31.039062 C 10 31.003906 9.609375 30.976562 9.214844 30.941406 C 8.726562 30.898438 8.230469 30.859375 7.738281 30.859375 C 7.449219 30.859375 7.15625 30.855469 6.871094 30.855469 C 6.753906 30.855469 6.640625 30.84375 6.527344 30.84375 C 6.460938 30.84375 6.433594 30.816406 6.429688 30.753906 C 6.425781 30.636719 6.414062 30.515625 6.402344 30.398438 C 6.367188 29.972656 6.3125 29.542969 6.296875 29.117188 C 6.277344 28.464844 6.257812 27.808594 6.367188 27.160156 C 6.445312 26.671875 6.515625 26.175781 6.601562 25.6875 C 6.757812 24.800781 7.082031 23.964844 7.519531 23.175781 C 7.949219 22.386719 8.453125 21.644531 8.992188 20.925781 C 9.203125 20.644531 9.425781 20.367188 9.675781 20.117188 C 9.703125 20.09375 9.726562 20.054688 9.773438 20.054688 C 9.773438 20.066406 9.777344 20.070312 9.777344 20.078125 C 9.761719 20.113281 9.746094 20.144531 9.730469 20.183594 C 9.613281 20.425781 9.542969 20.6875 9.585938 20.957031 C 9.617188 21.148438 9.65625 21.347656 9.734375 21.523438 C 10.132812 22.425781 10.777344 23.046875 11.761719 23.28125 C 11.8125 23.292969 11.871094 23.3125 11.945312 23.335938 C 11.910156 23.367188 11.894531 23.382812 11.871094 23.398438 C 11.355469 23.726562 10.910156 24.136719 10.507812 24.597656 C 10.199219 24.949219 9.949219 25.339844 9.773438 25.769531 C 9.574219 26.261719 9.558594 26.769531 9.714844 27.277344 C 9.835938 27.664062 10.082031 27.972656 10.398438 28.222656 C 10.839844 28.574219 11.335938 28.835938 11.835938 29.09375 C 12.28125 29.328125 12.738281 29.546875 13.183594 29.785156 C 13.863281 30.152344 14.472656 30.617188 14.929688 31.246094 C 14.949219 31.28125 14.964844 31.3125 14.996094 31.355469 Z M 48.007812 34.082031 C 48.015625 34.082031 48.027344 34.082031 48.039062 34.085938 C 48.085938 34.25 48.117188 34.421875 48.109375 34.597656 C 48.085938 34.925781 47.980469 35.230469 47.789062 35.5 C 47.410156 36.035156 46.917969 36.410156 46.289062 36.609375 C 45.773438 36.773438 45.25 36.890625 44.71875 36.992188 C 44.28125 37.078125 43.84375 37.140625 43.402344 37.152344 C 42.789062 37.164062 42.171875 37.148438 41.554688 37.140625 C 40.992188 37.136719 40.433594 37.125 39.871094 37.136719 C 39.398438 37.140625 38.929688 37.195312 38.457031 37.199219 C 37.570312 37.210938 36.679688 37.289062 35.796875 37.34375 C 35.160156 37.382812 34.519531 37.433594 33.878906 37.460938 C 33.230469 37.488281 32.578125 37.507812 31.929688 37.503906 C 31.042969 37.496094 30.15625 37.5625 29.265625 37.613281 C 28.851562 37.636719 28.441406 37.648438 28.035156 37.628906 C 27.492188 37.609375 26.949219 37.578125 26.402344 37.550781 C 26.121094 37.535156 25.832031 37.515625 25.550781 37.496094 C 25.0625 37.472656 24.578125 37.433594 24.089844 37.421875 C 23.316406 37.402344 22.539062 37.390625 21.761719 37.339844 C 21.332031 37.304688 20.894531 37.285156 20.464844 37.257812 C 20.03125 37.226562 19.59375 37.191406 19.160156 37.15625 C 18.792969 37.132812 18.429688 37.09375 18.0625 37.082031 C 17.179688 37.066406 16.292969 37.066406 15.410156 37.058594 C 15.109375 37.050781 14.8125 37.039062 14.507812 37.023438 C 14.171875 37.007812 13.839844 36.976562 13.503906 36.957031 C 12.871094 36.917969 12.238281 36.902344 11.605469 36.855469 C 10.957031 36.800781 10.316406 36.847656 9.675781 36.925781 C 9.25 36.976562 8.832031 37.003906 8.40625 36.992188 C 7.796875 36.976562 7.214844 36.84375 6.679688 36.5625 C 6.367188 36.402344 6.089844 36.195312 5.886719 35.894531 C 5.769531 35.722656 5.710938 35.535156 5.703125 35.328125 C 5.703125 35.269531 5.710938 35.207031 5.722656 35.136719 C 5.765625 35.152344 5.785156 35.164062 5.808594 35.171875 C 5.984375 35.246094 6.152344 35.335938 6.335938 35.386719 C 6.945312 35.574219 7.5625 35.761719 8.183594 35.917969 C 9.195312 36.179688 10.214844 36.335938 11.261719 36.308594 C 11.671875 36.296875 12.085938 36.265625 12.492188 36.265625 C 13.589844 36.257812 14.6875 36.253906 15.777344 36.339844 C 16.203125 36.371094 16.632812 36.410156 17.058594 36.449219 C 17.464844 36.488281 17.863281 36.53125 18.265625 36.566406 C 18.617188 36.605469 18.96875 36.640625 19.316406 36.675781 C 19.785156 36.714844 20.246094 36.757812 20.714844 36.785156 C 21.171875 36.808594 21.636719 36.808594 22.09375 36.816406 C 22.511719 36.828125 22.933594 36.84375 23.351562 36.855469 C 23.835938 36.867188 24.320312 36.875 24.800781 36.867188 C 25.621094 36.847656 26.441406 36.816406 27.261719 36.792969 C 28.117188 36.769531 28.980469 36.753906 29.835938 36.734375 C 30.363281 36.714844 30.886719 36.675781 31.414062 36.664062 C 32.324219 36.648438 33.230469 36.640625 34.140625 36.640625 C 34.992188 36.640625 35.839844 36.675781 36.6875 36.609375 C 37.027344 36.582031 37.359375 36.550781 37.703125 36.535156 C 38.375 36.503906 39.050781 36.484375 39.726562 36.445312 C 40.304688 36.417969 40.890625 36.375 41.46875 36.339844 C 41.660156 36.328125 41.851562 36.316406 42.042969 36.296875 C 42.5 36.25 42.957031 36.195312 43.410156 36.136719 C 43.96875 36.0625 44.527344 35.957031 45.066406 35.800781 C 45.890625 35.574219 46.644531 35.203125 47.347656 34.71875 C 47.585938 34.554688 47.804688 34.363281 47.964844 34.117188 C 47.992188 34.105469 48 34.089844 48.007812 34.082031 Z M 45.257812 29.550781 C 45.257812 29.5625 45.257812 29.570312 45.265625 29.578125 C 45.230469 29.59375 45.199219 29.609375 45.164062 29.621094 C 44.722656 29.753906 44.277344 29.855469 43.824219 29.925781 C 43.253906 30.015625 42.6875 30.109375 42.113281 30.199219 C 41.6875 30.265625 41.261719 30.332031 40.835938 30.382812 C 40.296875 30.445312 39.746094 30.492188 39.199219 30.535156 C 38.800781 30.566406 38.402344 30.589844 38.003906 30.597656 C 36.984375 30.625 35.964844 30.578125 34.949219 30.464844 C 34.710938 30.441406 34.464844 30.40625 34.230469 30.355469 C 33.964844 30.296875 33.722656 30.183594 33.523438 29.992188 C 33.066406 29.5625 33.039062 28.894531 33.359375 28.367188 C 33.417969 28.273438 33.417969 28.273438 33.535156 28.304688 C 33.992188 28.414062 34.453125 28.464844 34.925781 28.414062 C 35.375 28.371094 35.808594 28.289062 36.238281 28.160156 C 36.777344 27.996094 37.324219 27.867188 37.875 27.777344 C 38.003906 27.757812 38.125 27.75 38.25 27.824219 C 38.296875 27.851562 38.351562 27.863281 38.402344 27.878906 C 38.664062 27.957031 38.921875 28.039062 39.183594 28.117188 C 40.003906 28.367188 40.832031 28.597656 41.667969 28.792969 C 42.308594 28.941406 42.953125 29.078125 43.59375 29.222656 C 43.894531 29.285156 44.191406 29.359375 44.492188 29.417969 C 44.71875 29.460938 44.941406 29.492188 45.15625 29.527344 C 45.191406 29.535156 45.226562 29.546875 45.257812 29.550781 Z M 23.898438 19.65625 C 23.808594 19.660156 23.734375 19.667969 23.664062 19.671875 C 23.347656 19.699219 23.023438 19.710938 22.703125 19.753906 C 22.097656 19.832031 21.507812 20.007812 20.921875 20.1875 C 20.695312 20.257812 20.472656 20.335938 20.246094 20.410156 C 20.136719 20.449219 20.121094 20.4375 20.082031 20.328125 C 20.078125 20.316406 20.078125 20.300781 20.074219 20.289062 C 20.015625 20.035156 19.957031 19.777344 19.890625 19.519531 C 19.769531 19.007812 19.648438 18.492188 19.523438 17.980469 C 19.492188 17.855469 19.460938 17.726562 19.441406 17.601562 C 19.414062 17.449219 19.433594 17.414062 19.574219 17.355469 C 19.625 17.335938 19.683594 17.308594 19.742188 17.296875 C 20.039062 17.238281 20.34375 17.179688 20.648438 17.132812 C 20.945312 17.085938 21.242188 17.050781 21.542969 17.011719 C 21.960938 16.953125 22.375 16.882812 22.792969 16.820312 C 22.910156 16.800781 22.910156 16.800781 22.957031 16.910156 C 23.324219 17.648438 23.621094 18.417969 23.808594 19.222656 C 23.832031 19.363281 23.863281 19.496094 23.898438 19.65625 Z M 15.832031 31.421875 C 15.636719 31.40625 15.453125 31.457031 15.378906 31.238281 C 15.378906 31.230469 15.375 31.230469 15.375 31.226562 C 14.933594 30.609375 14.398438 30.101562 13.753906 29.695312 C 13.210938 29.359375 12.632812 29.089844 12.0625 28.804688 C 11.5625 28.546875 11.074219 28.277344 10.628906 27.929688 C 10.054688 27.484375 9.867188 26.902344 10.011719 26.199219 C 10.085938 25.832031 10.25 25.496094 10.46875 25.199219 C 10.914062 24.578125 11.457031 24.046875 12.085938 23.605469 C 12.160156 23.550781 12.238281 23.5 12.308594 23.433594 C 12.351562 23.394531 12.398438 23.375 12.457031 23.375 C 12.71875 23.375 12.972656 23.335938 13.222656 23.265625 C 13.242188 23.261719 13.265625 23.261719 13.285156 23.261719 C 13.257812 23.300781 13.226562 23.328125 13.195312 23.351562 C 12.652344 23.699219 12.148438 24.105469 11.675781 24.550781 C 11.246094 24.960938 10.929688 25.445312 10.773438 26.019531 C 10.675781 26.363281 10.734375 26.683594 10.972656 26.957031 C 11.097656 27.097656 11.230469 27.21875 11.386719 27.316406 C 11.585938 27.433594 11.78125 27.550781 11.984375 27.660156 C 12.667969 28.046875 13.347656 28.453125 13.992188 28.921875 C 14.347656 29.179688 14.683594 29.457031 14.964844 29.796875 C 15.277344 30.175781 15.507812 30.605469 15.691406 31.0625 C 15.734375 31.171875 15.773438 31.285156 15.832031 31.421875 Z M 17.128906 14.527344 C 17.132812 14.539062 17.132812 14.550781 17.140625 14.554688 C 17.121094 14.566406 17.113281 14.570312 17.097656 14.582031 C 16.640625 14.800781 16.183594 15.011719 15.726562 15.230469 C 14.890625 15.621094 14.054688 16.003906 13.265625 16.488281 C 12.460938 16.976562 11.652344 17.457031 10.855469 17.945312 C 9.816406 18.582031 8.699219 19.054688 7.535156 19.417969 C 7.503906 19.429688 7.464844 19.429688 7.417969 19.433594 C 7.476562 19.226562 7.582031 19.082031 7.742188 18.980469 C 7.933594 18.863281 8.125 18.746094 8.328125 18.652344 C 8.527344 18.554688 8.742188 18.476562 8.953125 18.398438 C 10.1875 17.917969 11.355469 17.324219 12.457031 16.589844 C 13.859375 15.660156 15.386719 14.996094 17.007812 14.550781 C 17.046875 14.542969 17.089844 14.53125 17.128906 14.527344 Z M 10.71875 19.785156 C 10.71875 19.804688 10.722656 19.816406 10.71875 19.820312 C 10.703125 19.847656 10.679688 19.878906 10.660156 19.90625 C 10.453125 20.183594 10.355469 20.492188 10.433594 20.839844 C 10.472656 21.027344 10.515625 21.214844 10.582031 21.394531 C 10.820312 22.078125 11.25 22.601562 11.929688 22.886719 C 11.957031 22.898438 11.976562 22.914062 12.015625 22.929688 C 11.984375 22.9375 11.972656 22.945312 11.960938 22.941406 C 11.9375 22.941406 11.910156 22.9375 11.886719 22.929688 C 11.382812 22.8125 10.957031 22.570312 10.617188 22.175781 C 10.390625 21.910156 10.1875 21.628906 10.082031 21.289062 C 9.996094 21.027344 9.96875 20.765625 10.058594 20.5 C 10.160156 20.203125 10.367188 19.992188 10.628906 19.816406 C 10.65625 19.800781 10.6875 19.792969 10.71875 19.785156 Z M 22.308594 15.996094 C 22.144531 15.78125 22.011719 15.574219 21.847656 15.394531 C 21.683594 15.207031 21.492188 15.046875 21.300781 14.875 C 21.4375 14.734375 21.566406 14.585938 21.742188 14.496094 C 21.808594 14.457031 21.890625 14.433594 21.96875 14.417969 C 22.070312 14.390625 22.132812 14.425781 22.175781 14.515625 C 22.203125 14.582031 22.230469 14.65625 22.234375 14.722656 C 22.269531 15.105469 22.289062 15.484375 22.316406 15.867188 C 22.316406 15.90625 22.308594 15.941406 22.308594 15.996094 Z M 27.671875 23.386719 C 27.5625 23.53125 27.464844 23.648438 27.375 23.777344 C 27.285156 23.902344 27.203125 24.035156 27.109375 24.175781 C 27.046875 24.132812 26.992188 24.101562 26.945312 24.0625 C 26.84375 23.992188 26.832031 23.960938 26.863281 23.851562 C 26.921875 23.640625 27.011719 23.441406 27.125 23.261719 C 27.171875 23.179688 27.199219 23.167969 27.285156 23.203125 C 27.414062 23.253906 27.535156 23.320312 27.671875 23.386719 Z M 24.5625 22.8125 C 24.511719 22.746094 24.46875 22.691406 24.421875 22.636719 C 24.371094 22.578125 24.363281 22.515625 24.398438 22.453125 C 24.488281 22.28125 24.578125 22.117188 24.667969 21.953125 C 24.675781 21.9375 24.695312 21.929688 24.703125 21.925781 C 24.769531 21.941406 24.828125 21.957031 24.894531 21.972656 C 24.957031 21.988281 25.011719 22.023438 25.042969 22.074219 C 24.882812 22.3125 24.726562 22.554688 24.5625 22.8125 Z M 29.8125 25.320312 C 29.734375 25.257812 29.675781 25.214844 29.625 25.167969 C 29.582031 25.128906 29.566406 25.078125 29.582031 25.03125 C 29.65625 24.839844 29.730469 24.648438 29.808594 24.457031 C 29.832031 24.40625 29.867188 24.398438 29.914062 24.417969 C 30.003906 24.460938 30.097656 24.507812 30.160156 24.59375 C 30.054688 24.832031 29.941406 25.066406 29.8125 25.320312 Z M 34.578125 26.957031 C 34.761719 26.75 34.941406 26.542969 35.125 26.347656 C 35.144531 26.328125 35.191406 26.316406 35.226562 26.320312 C 35.273438 26.332031 35.320312 26.359375 35.375 26.386719 C 35.324219 26.460938 35.300781 26.535156 35.25 26.582031 C 35.125 26.714844 34.992188 26.847656 34.851562 26.976562 C 34.769531 27.050781 34.691406 27.042969 34.578125 26.957031 Z M 32.699219 25.546875 C 32.566406 25.714844 32.441406 25.878906 32.3125 26.039062 C 32.300781 26.054688 32.285156 26.070312 32.265625 26.082031 C 32.210938 26.113281 32.164062 26.097656 32.121094 26.066406 C 32.105469 26.050781 32.101562 26.003906 32.109375 25.976562 C 32.175781 25.816406 32.242188 25.65625 32.316406 25.496094 C 32.328125 25.472656 32.375 25.433594 32.402344 25.4375 C 32.503906 25.453125 32.605469 25.480469 32.699219 25.546875 Z M 13.390625 23.222656 C 13.460938 23.03125 13.503906 23.011719 13.667969 23.058594 C 13.574219 23.117188 13.492188 23.164062 13.390625 23.222656 Z M 13.390625 23.222656 " fill-opacity="1" fill-rule="nonzero"/></g><path fill="#475b42" d="M 16.996094 32.292969 C 16.835938 32.3125 16.683594 32.277344 16.523438 32.238281 C 16.335938 32.183594 16.148438 32.195312 15.96875 32.230469 C 15.921875 32.242188 15.878906 32.261719 15.875 32.316406 C 15.867188 32.375 15.917969 32.390625 15.964844 32.40625 C 16.167969 32.46875 16.367188 32.542969 16.570312 32.597656 C 16.707031 32.628906 16.855469 32.636719 17 32.640625 C 17.074219 32.644531 17.15625 32.628906 17.230469 32.617188 C 17.347656 32.601562 17.421875 32.539062 17.421875 32.449219 C 17.421875 32.359375 17.339844 32.300781 17.222656 32.289062 C 17.144531 32.289062 17.074219 32.292969 16.996094 32.292969 Z M 16.996094 32.292969 " fill-opacity="1" fill-rule="nonzero"/><path fill="#475b42" d="M 21.867188 33.011719 C 21.890625 33.011719 21.921875 33.011719 21.949219 33.007812 C 22 32.996094 22.042969 32.964844 22.042969 32.90625 C 22.050781 32.847656 22.011719 32.808594 21.960938 32.792969 C 21.945312 32.789062 21.925781 32.785156 21.910156 32.785156 C 21.726562 32.757812 21.542969 32.726562 21.359375 32.703125 C 21.167969 32.675781 20.972656 32.65625 20.78125 32.636719 C 20.625 32.613281 20.476562 32.636719 20.328125 32.671875 C 20.304688 32.675781 20.285156 32.683594 20.269531 32.695312 C 20.226562 32.714844 20.226562 32.761719 20.269531 32.785156 C 20.296875 32.792969 20.328125 32.804688 20.355469 32.808594 C 20.589844 32.851562 20.820312 32.894531 21.054688 32.933594 C 21.296875 32.96875 21.535156 32.992188 21.773438 33.023438 C 21.804688 33.007812 21.832031 33.007812 21.867188 33.011719 Z M 21.867188 33.011719 " fill-opacity="1" fill-rule="nonzero"/><path fill="#475b42" d="M 18.121094 32.535156 C 18.195312 32.617188 18.277344 32.660156 18.367188 32.6875 C 18.429688 32.703125 18.5 32.71875 18.5625 32.730469 C 18.75 32.761719 18.941406 32.789062 19.125 32.816406 C 19.195312 32.828125 19.269531 32.816406 19.339844 32.804688 C 19.371094 32.800781 19.410156 32.769531 19.417969 32.734375 C 19.433594 32.695312 19.402344 32.65625 19.359375 32.636719 C 19.300781 32.609375 19.238281 32.578125 19.175781 32.554688 C 18.902344 32.480469 18.628906 32.453125 18.34375 32.460938 C 18.277344 32.46875 18.203125 32.480469 18.121094 32.535156 Z M 18.121094 32.535156 " fill-opacity="1" fill-rule="nonzero"/><path fill="#475b42" d="M 42.410156 34.101562 C 42.480469 34.097656 42.558594 34.101562 42.621094 34.082031 C 42.691406 34.058594 42.761719 34.015625 42.8125 33.96875 C 42.867188 33.921875 42.851562 33.867188 42.789062 33.839844 C 42.734375 33.820312 42.679688 33.816406 42.628906 33.808594 C 42.421875 33.792969 42.214844 33.777344 42.007812 33.773438 C 41.914062 33.765625 41.832031 33.777344 41.742188 33.78125 C 41.699219 33.789062 41.65625 33.804688 41.644531 33.851562 C 41.632812 33.90625 41.683594 33.925781 41.71875 33.941406 C 41.941406 34.039062 42.171875 34.097656 42.410156 34.101562 Z M 42.410156 34.101562 " fill-opacity="1" fill-rule="nonzero"/><path fill="#475b42" d="M 47.171875 33.152344 C 46.929688 33.1875 46.679688 33.21875 46.433594 33.261719 C 46.390625 33.265625 46.34375 33.289062 46.300781 33.308594 C 46.253906 33.335938 46.246094 33.378906 46.296875 33.410156 C 46.328125 33.433594 46.359375 33.453125 46.394531 33.457031 C 46.507812 33.476562 46.625 33.492188 46.738281 33.480469 C 46.929688 33.464844 47.113281 33.433594 47.300781 33.398438 C 47.359375 33.390625 47.421875 33.363281 47.476562 33.335938 C 47.527344 33.304688 47.527344 33.261719 47.476562 33.226562 C 47.40625 33.171875 47.328125 33.167969 47.246094 33.167969 C 47.21875 33.167969 47.195312 33.167969 47.171875 33.167969 C 47.171875 33.15625 47.171875 33.152344 47.171875 33.152344 Z M 47.171875 33.152344 " fill-opacity="1" fill-rule="nonzero"/><path fill="#475b42" d="M 29.589844 34.011719 C 29.554688 33.992188 29.53125 33.96875 29.511719 33.957031 C 29.449219 33.9375 29.382812 33.921875 29.316406 33.90625 C 29.140625 33.867188 28.964844 33.839844 28.792969 33.792969 C 28.628906 33.75 28.464844 33.777344 28.304688 33.816406 C 28.273438 33.820312 28.246094 33.855469 28.230469 33.890625 C 28.226562 33.898438 28.269531 33.949219 28.289062 33.953125 C 28.644531 34.027344 28.996094 34.160156 29.378906 34.097656 C 29.492188 34.074219 29.5 34.082031 29.589844 34.011719 Z M 29.589844 34.011719 " fill-opacity="1" fill-rule="nonzero"/><path fill="#475b42" d="M 8.644531 31.863281 C 8.703125 31.890625 8.738281 31.917969 8.773438 31.929688 C 9.007812 31.976562 9.242188 32.019531 9.476562 32.054688 C 9.59375 32.070312 9.703125 32.054688 9.804688 31.992188 C 9.835938 31.96875 9.878906 31.933594 9.878906 31.902344 C 9.878906 31.875 9.832031 31.84375 9.792969 31.820312 C 9.765625 31.804688 9.730469 31.796875 9.699219 31.789062 C 9.421875 31.773438 9.144531 31.6875 8.863281 31.773438 C 8.800781 31.796875 8.730469 31.8125 8.644531 31.863281 Z M 8.644531 31.863281 " fill-opacity="1" fill-rule="nonzero"/><path fill="#475b42" d="M 37.105469 34.082031 C 37.144531 34.113281 37.164062 34.140625 37.1875 34.144531 C 37.269531 34.171875 37.355469 34.207031 37.441406 34.207031 C 37.675781 34.214844 37.910156 34.207031 38.136719 34.199219 C 38.199219 34.191406 38.269531 34.171875 38.328125 34.140625 C 38.386719 34.113281 38.386719 34.054688 38.328125 34.023438 C 38.277344 33.996094 38.21875 33.980469 38.160156 33.96875 C 37.898438 33.9375 37.636719 33.925781 37.371094 33.957031 C 37.285156 33.980469 37.203125 34.011719 37.105469 34.082031 Z M 37.105469 34.082031 " fill-opacity="1" fill-rule="nonzero"/><path fill="#475b42" d="M 23.320312 33.09375 C 23.390625 33.140625 23.449219 33.183594 23.507812 33.214844 C 23.746094 33.34375 23.996094 33.441406 24.253906 33.523438 C 24.328125 33.542969 24.398438 33.570312 24.472656 33.589844 C 24.546875 33.613281 24.601562 33.597656 24.613281 33.550781 C 24.628906 33.484375 24.578125 33.453125 24.535156 33.433594 C 24.328125 33.335938 24.121094 33.234375 23.914062 33.144531 C 23.792969 33.097656 23.671875 33.058594 23.542969 33.027344 C 23.472656 33.019531 23.398438 33.011719 23.320312 33.09375 Z M 23.320312 33.09375 " fill-opacity="1" fill-rule="nonzero"/><path fill="#475b42" d="M 31.707031 34.164062 C 31.527344 33.980469 30.738281 33.941406 30.457031 34.089844 C 30.46875 34.101562 30.472656 34.125 30.484375 34.128906 C 30.660156 34.199219 30.835938 34.28125 31.03125 34.265625 C 31.207031 34.25 31.386719 34.234375 31.5625 34.214844 C 31.609375 34.207031 31.652344 34.179688 31.707031 34.164062 Z M 31.707031 34.164062 " fill-opacity="1" fill-rule="nonzero"/><path fill="#475b42" d="M 36.140625 34.265625 C 36.085938 34.171875 35.996094 34.144531 35.910156 34.140625 C 35.660156 34.113281 35.40625 34.089844 35.160156 34.203125 C 35.15625 34.207031 35.144531 34.207031 35.140625 34.214844 C 35.117188 34.234375 35.082031 34.261719 35.082031 34.28125 C 35.082031 34.304688 35.117188 34.339844 35.144531 34.347656 C 35.230469 34.367188 35.320312 34.394531 35.40625 34.394531 C 35.554688 34.398438 35.703125 34.398438 35.851562 34.394531 C 35.957031 34.390625 36.066406 34.363281 36.140625 34.265625 Z M 36.140625 34.265625 " fill-opacity="1" fill-rule="nonzero"/><path fill="#475b42" d="M 26.839844 33.765625 C 26.804688 33.691406 26.738281 33.675781 26.671875 33.660156 C 26.613281 33.644531 26.546875 33.644531 26.488281 33.640625 C 26.25 33.628906 26.015625 33.617188 25.773438 33.613281 C 25.753906 33.613281 25.726562 33.632812 25.699219 33.644531 C 25.71875 33.667969 25.722656 33.703125 25.742188 33.714844 C 25.832031 33.761719 25.925781 33.816406 26.019531 33.847656 C 26.230469 33.910156 26.457031 33.910156 26.671875 33.875 C 26.742188 33.863281 26.804688 33.839844 26.839844 33.765625 Z M 26.839844 33.765625 " fill-opacity="1" fill-rule="nonzero"/><path fill="#475b42" d="M 44.101562 33.691406 C 44.132812 33.707031 44.164062 33.730469 44.195312 33.734375 C 44.300781 33.742188 44.414062 33.757812 44.519531 33.742188 C 44.648438 33.722656 44.773438 33.683594 44.902344 33.648438 C 44.984375 33.628906 45.046875 33.582031 45.082031 33.5 C 45.117188 33.433594 45.089844 33.390625 45.007812 33.378906 C 44.992188 33.378906 44.976562 33.378906 44.957031 33.378906 C 44.710938 33.425781 44.460938 33.464844 44.238281 33.574219 C 44.191406 33.597656 44.148438 33.628906 44.101562 33.65625 C 44.101562 33.667969 44.101562 33.675781 44.101562 33.691406 Z M 44.101562 33.691406 " fill-opacity="1" fill-rule="nonzero"/><path fill="#475b42" d="M 7.152344 31.78125 C 7.035156 31.78125 6.914062 31.773438 6.796875 31.78125 C 6.75 31.78125 6.679688 31.78125 6.679688 31.84375 C 6.679688 31.871094 6.738281 31.914062 6.773438 31.929688 C 6.988281 32.023438 7.214844 32.046875 7.445312 32.027344 C 7.523438 32.023438 7.59375 31.992188 7.648438 31.933594 C 7.707031 31.871094 7.6875 31.816406 7.609375 31.789062 C 7.554688 31.773438 7.503906 31.769531 7.445312 31.769531 C 7.347656 31.761719 7.25 31.769531 7.152344 31.769531 C 7.15625 31.773438 7.152344 31.78125 7.152344 31.78125 Z M 7.152344 31.78125 " fill-opacity="1" fill-rule="nonzero"/><path fill="#475b42" d="M 32.695312 34.191406 C 32.773438 34.265625 32.863281 34.273438 32.945312 34.292969 C 33.066406 34.320312 33.195312 34.339844 33.320312 34.355469 C 33.449219 34.371094 33.578125 34.367188 33.695312 34.320312 C 33.726562 34.308594 33.753906 34.273438 33.757812 34.238281 C 33.761719 34.222656 33.722656 34.179688 33.695312 34.175781 C 33.375 34.089844 33.054688 34.027344 32.738281 34.164062 C 32.726562 34.164062 32.714844 34.175781 32.695312 34.191406 Z M 32.695312 34.191406 " fill-opacity="1" fill-rule="nonzero"/><path fill="#475b42" d="M 11.304688 32.003906 C 11.277344 32.003906 11.234375 31.996094 11.191406 32.003906 C 11.144531 32.007812 11.132812 32.054688 11.164062 32.085938 C 11.203125 32.121094 11.246094 32.144531 11.292969 32.171875 C 11.457031 32.269531 11.632812 32.328125 11.824219 32.316406 C 11.898438 32.3125 11.972656 32.277344 12.042969 32.253906 C 12.070312 32.242188 12.101562 32.203125 12.09375 32.179688 C 12.09375 32.152344 12.058594 32.121094 12.03125 32.109375 C 11.984375 32.085938 11.925781 32.070312 11.871094 32.066406 C 11.691406 32.046875 11.503906 32.023438 11.304688 32.003906 Z M 11.304688 32.003906 " fill-opacity="1" fill-rule="nonzero"/><path fill="#475b42" d="M 13.488281 32.347656 C 13.566406 32.4375 13.640625 32.480469 13.738281 32.492188 C 13.886719 32.503906 14.035156 32.519531 14.183594 32.523438 C 14.210938 32.523438 14.238281 32.523438 14.257812 32.519531 C 14.3125 32.503906 14.355469 32.476562 14.363281 32.421875 C 14.375 32.359375 14.34375 32.316406 14.289062 32.289062 C 14.242188 32.269531 14.195312 32.253906 14.148438 32.246094 C 13.980469 32.214844 13.816406 32.242188 13.652344 32.273438 C 13.597656 32.277344 13.550781 32.316406 13.488281 32.347656 Z M 13.488281 32.347656 " fill-opacity="1" fill-rule="nonzero"/><path fill="#475b42" d="M 39.828125 34.207031 C 40.050781 34.335938 40.476562 34.230469 40.597656 34.023438 C 40.4375 33.863281 40.011719 33.957031 39.828125 34.207031 Z M 39.828125 34.207031 " fill-opacity="1" fill-rule="nonzero"/><path fill="#475b42" d="M 21.496094 29.515625 C 21.714844 29.511719 21.9375 29.511719 22.15625 29.445312 C 22.554688 29.335938 22.777344 29.070312 22.863281 28.671875 C 22.925781 28.378906 22.894531 28.085938 22.851562 27.792969 C 22.746094 27.066406 22.449219 26.410156 22.007812 25.820312 C 21.832031 25.585938 21.625 25.375 21.429688 25.164062 C 21.332031 25.054688 21.269531 25.054688 21.136719 25.125 C 21.105469 25.140625 21.070312 25.152344 21.039062 25.15625 C 20.9375 25.1875 20.890625 25.246094 20.894531 25.355469 C 20.894531 25.402344 20.90625 25.449219 20.917969 25.492188 C 20.992188 25.8125 20.933594 26.113281 20.800781 26.410156 C 20.699219 26.640625 20.523438 26.75 20.269531 26.757812 C 20.03125 26.761719 19.796875 26.703125 19.566406 26.640625 C 18.871094 26.449219 18.210938 26.171875 17.5625 25.859375 C 16.789062 25.480469 16 25.128906 15.195312 24.824219 C 14.894531 24.707031 14.59375 24.613281 14.289062 24.515625 C 14.15625 24.464844 14.039062 24.503906 13.929688 24.582031 C 13.839844 24.648438 13.8125 24.738281 13.871094 24.828125 C 13.929688 24.917969 14.007812 24.996094 14.089844 25.070312 C 14.476562 25.394531 14.871094 25.714844 15.253906 26.042969 C 15.6875 26.417969 16.113281 26.804688 16.539062 27.1875 C 17.132812 27.722656 17.777344 28.191406 18.472656 28.589844 C 18.988281 28.882812 19.542969 29.09375 20.105469 29.277344 C 20.5625 29.417969 21.019531 29.515625 21.496094 29.515625 Z M 21.300781 25.644531 C 21.335938 25.65625 21.347656 25.65625 21.351562 25.65625 C 21.371094 25.667969 21.386719 25.683594 21.402344 25.699219 C 21.886719 26.226562 22.226562 26.832031 22.402344 27.523438 C 22.476562 27.824219 22.527344 28.132812 22.496094 28.441406 C 22.457031 28.824219 22.277344 29.003906 21.964844 29.0625 C 21.6875 29.117188 21.410156 29.105469 21.140625 29.070312 C 20.414062 28.957031 19.722656 28.71875 19.0625 28.398438 C 18.25 28 17.515625 27.472656 16.847656 26.867188 C 16.261719 26.34375 15.6875 25.804688 15.070312 25.316406 C 15.050781 25.300781 15.035156 25.273438 15.011719 25.253906 C 15.027344 25.246094 15.035156 25.238281 15.039062 25.238281 C 15.09375 25.253906 15.144531 25.269531 15.195312 25.289062 C 15.894531 25.597656 16.597656 25.890625 17.292969 26.214844 C 17.980469 26.535156 18.667969 26.84375 19.402344 27.035156 C 19.707031 27.113281 20.007812 27.171875 20.324219 27.148438 C 20.648438 27.128906 20.902344 26.996094 21.070312 26.714844 C 21.203125 26.5 21.273438 26.269531 21.296875 26.019531 C 21.304688 25.90625 21.300781 25.785156 21.300781 25.644531 Z M 21.300781 25.644531 " fill-opacity="1" fill-rule="nonzero"/><path fill="#475b42" d="M 14.621094 19.917969 C 14.285156 19.890625 13.941406 19.863281 13.597656 19.835938 C 13.402344 19.820312 13.199219 19.8125 13.003906 19.792969 C 12.957031 19.789062 12.914062 19.769531 12.867188 19.761719 C 12.816406 19.757812 12.765625 19.746094 12.71875 19.761719 C 12.617188 19.789062 12.578125 19.890625 12.636719 19.96875 C 12.679688 20.027344 12.734375 20.078125 12.796875 20.113281 C 13.339844 20.421875 13.898438 20.683594 14.503906 20.835938 C 14.964844 20.953125 15.433594 21.03125 15.917969 20.984375 C 16.070312 20.96875 16.21875 20.9375 16.351562 20.859375 C 16.574219 20.726562 16.664062 20.507812 16.585938 20.257812 C 16.558594 20.167969 16.515625 20.070312 16.472656 19.984375 C 16.332031 19.703125 16.144531 19.449219 15.925781 19.226562 C 15.882812 19.183594 15.835938 19.144531 15.785156 19.128906 C 15.675781 19.097656 15.464844 19.246094 15.460938 19.359375 C 15.460938 19.40625 15.480469 19.453125 15.503906 19.503906 C 15.523438 19.550781 15.558594 19.585938 15.582031 19.628906 C 15.617188 19.703125 15.613281 19.742188 15.542969 19.777344 C 15.46875 19.816406 15.390625 19.851562 15.304688 19.863281 C 15.082031 19.886719 14.855469 19.894531 14.621094 19.917969 Z M 14.125 20.328125 C 14.125 20.316406 14.128906 20.304688 14.128906 20.300781 C 14.164062 20.292969 14.1875 20.289062 14.222656 20.289062 C 14.375 20.292969 14.523438 20.304688 14.679688 20.300781 C 14.953125 20.292969 15.230469 20.285156 15.496094 20.210938 C 15.683594 20.15625 15.835938 20.058594 15.925781 19.886719 C 15.9375 19.863281 15.941406 19.847656 15.960938 19.816406 C 16.085938 19.996094 16.199219 20.152344 16.261719 20.328125 C 16.308594 20.460938 16.277344 20.539062 16.144531 20.585938 C 16.058594 20.617188 15.964844 20.632812 15.875 20.640625 C 15.351562 20.667969 14.855469 20.566406 14.359375 20.410156 C 14.28125 20.378906 14.207031 20.351562 14.125 20.328125 Z M 14.125 20.328125 " fill-opacity="1" fill-rule="nonzero"/><path fill="#475b42" d="M 21.386719 19.503906 C 21.371094 19.394531 21.359375 19.277344 21.335938 19.164062 C 21.253906 18.609375 21.152344 18.058594 20.988281 17.519531 C 20.972656 17.460938 20.949219 17.398438 20.917969 17.339844 C 20.863281 17.238281 20.785156 17.199219 20.699219 17.234375 C 20.613281 17.265625 20.578125 17.351562 20.605469 17.457031 C 20.648438 17.605469 20.699219 17.753906 20.738281 17.90625 C 20.863281 18.402344 20.960938 18.902344 21.023438 19.40625 C 21.035156 19.46875 21.046875 19.535156 21.066406 19.59375 C 21.097656 19.699219 21.171875 19.746094 21.253906 19.730469 C 21.328125 19.714844 21.375 19.652344 21.378906 19.550781 C 21.386719 19.546875 21.386719 19.535156 21.386719 19.503906 Z M 21.386719 19.503906 " fill-opacity="1" fill-rule="nonzero"/></svg>