<svg xmlns="http://www.w3.org/2000/svg" xmlns:xlink="http://www.w3.org/1999/xlink" width="70" zoomAndPan="magnify" viewBox="0 0 52.5 52.499999" height="70" preserveAspectRatio="xMidYMid meet" version="1.0"><defs><clipPath id="d0a81f27cf"><path d="M 6.066406 4.1875 L 46.929688 4.1875 L 46.929688 48.761719 L 6.066406 48.761719 Z M 6.066406 4.1875 " clip-rule="nonzero"/></clipPath></defs><g clip-path="url(#d0a81f27cf)"><path fill="#475b42" d="M 28.65625 23.941406 C 29.1875 23.507812 29.78125 23.167969 30.226562 22.742188 C 30.199219 22.671875 30.171875 22.601562 30.144531 22.535156 C 30.035156 22.257812 29.957031 22.003906 29.898438 21.769531 C 29.859375 21.722656 29.824219 21.675781 29.78125 21.632812 C 29.667969 21.519531 29.558594 21.472656 29.46875 21.328125 C 29.417969 21.246094 29.386719 21.148438 29.355469 21.050781 C 29.1875 21.078125 29.007812 21.085938 28.839844 21.074219 C 28.679688 21.0625 28.542969 20.988281 28.375 20.996094 C 28.085938 21.015625 27.765625 21.109375 27.476562 21.074219 C 27.046875 21.027344 26.664062 20.78125 26.238281 20.730469 C 26.101562 20.714844 25.867188 20.75 25.757812 20.640625 C 25.660156 20.542969 25.667969 20.390625 25.691406 20.269531 C 25.753906 19.890625 25.726562 19.523438 25.742188 19.140625 C 25.75 19.003906 25.757812 18.855469 25.839844 18.738281 C 25.992188 18.519531 26.171875 18.285156 26.273438 18.039062 C 26.320312 17.921875 26.289062 17.773438 26.320312 17.648438 C 26.457031 17.132812 26.566406 16.625 26.648438 16.097656 C 26.691406 15.820312 26.894531 15.558594 26.976562 15.292969 C 27.023438 15.148438 27.03125 15.003906 27.019531 14.867188 C 26.898438 14.753906 26.785156 14.628906 26.71875 14.492188 C 26.609375 14.277344 26.503906 14.058594 26.402344 13.839844 C 26.347656 13.730469 26.308594 13.621094 26.28125 13.507812 C 26.230469 13.496094 26.1875 13.480469 26.144531 13.460938 C 26.117188 13.671875 26.074219 13.886719 25.980469 14.082031 C 25.835938 14.371094 25.402344 14.480469 25.125 14.570312 C 24.789062 14.679688 24.503906 14.71875 24.152344 14.636719 C 23.855469 14.570312 23.726562 14.292969 23.550781 14.085938 C 23.425781 13.941406 23.285156 13.816406 23.167969 13.664062 C 22.839844 13.230469 22.964844 12.597656 23.257812 12.203125 C 23.449219 11.945312 23.734375 11.835938 24.015625 11.707031 C 24.007812 11.6875 24 11.671875 23.996094 11.660156 C 23.851562 11.347656 23.800781 10.929688 23.796875 10.585938 C 23.796875 10.582031 23.796875 10.582031 23.796875 10.578125 C 23.792969 10.488281 23.789062 10.394531 23.792969 10.300781 C 23.808594 9.820312 24.046875 9.484375 24.359375 9.148438 C 24.601562 8.886719 24.890625 8.679688 25.203125 8.515625 C 25.210938 8.511719 25.21875 8.507812 25.226562 8.503906 C 25.574219 8.316406 25.957031 8.214844 26.296875 8.007812 C 26.488281 7.898438 26.78125 7.898438 26.992188 7.925781 C 27.09375 7.941406 27.199219 7.945312 27.304688 7.964844 C 27.566406 8.007812 27.84375 8.316406 27.988281 8.589844 C 28.152344 8.816406 28.363281 9.011719 28.496094 9.253906 C 28.558594 9.367188 28.503906 9.492188 28.558594 9.59375 C 28.585938 9.589844 28.609375 9.585938 28.636719 9.578125 C 28.660156 9.570312 28.6875 9.558594 28.710938 9.546875 C 28.722656 9.542969 28.753906 9.511719 28.75 9.527344 C 28.738281 9.582031 28.703125 9.636719 28.65625 9.6875 C 28.871094 9.832031 29.136719 9.855469 29.359375 9.988281 C 29.433594 10.027344 29.546875 10.074219 29.574219 10.160156 C 29.640625 10.355469 29.351562 10.394531 29.328125 10.542969 C 29.308594 10.691406 29.460938 10.75 29.507812 10.859375 C 29.527344 10.910156 29.46875 10.957031 29.480469 11.011719 C 29.492188 11.078125 29.554688 11.085938 29.578125 11.136719 C 29.617188 11.21875 29.601562 11.324219 29.640625 11.410156 C 29.6875 11.519531 29.820312 11.628906 29.804688 11.761719 C 29.78125 12.003906 29.453125 12.117188 29.261719 12.148438 C 29.214844 12.15625 29.167969 12.164062 29.117188 12.171875 C 29.089844 12.191406 29.058594 12.214844 29.03125 12.242188 C 28.960938 12.308594 28.820312 12.414062 28.777344 12.503906 C 28.679688 12.695312 28.648438 12.917969 28.660156 13.128906 C 28.675781 13.46875 28.742188 13.761719 28.839844 14.050781 C 29.082031 14.371094 29.417969 14.609375 29.789062 14.804688 C 29.859375 14.679688 29.945312 14.546875 29.976562 14.425781 C 30.015625 14.28125 29.957031 14.121094 29.972656 13.972656 C 29.984375 13.84375 30.039062 13.734375 30.0625 13.609375 C 30.125 13.265625 30.144531 12.957031 30.371094 12.679688 C 30.652344 12.332031 31.160156 12.171875 31.523438 11.9375 C 32.054688 11.59375 32.441406 11.058594 32.542969 10.449219 C 32.339844 10.582031 32.117188 10.699219 31.941406 10.851562 C 31.753906 11.015625 31.621094 11.285156 31.359375 11.335938 C 31.324219 11.339844 31.257812 11.324219 31.226562 11.3125 C 31.101562 11.269531 31.011719 11.199219 30.941406 11.085938 C 30.871094 10.964844 30.902344 10.800781 30.804688 10.6875 C 30.742188 10.613281 30.5625 10.640625 30.53125 10.554688 C 30.523438 10.535156 30.523438 10.507812 30.523438 10.476562 C 30.480469 10.472656 30.4375 10.460938 30.40625 10.441406 C 30.347656 10.40625 30.308594 10.292969 30.25 10.246094 C 30.164062 10.171875 30.085938 10.105469 30.027344 10.023438 C 29.871094 10.09375 29.703125 10.144531 29.578125 10.058594 C 29.449219 9.964844 29.5 9.71875 29.496094 9.582031 C 29.488281 9.375 29.449219 9.160156 29.394531 8.953125 C 29.273438 8.933594 29.148438 8.867188 29.082031 8.789062 C 28.839844 8.511719 28.890625 8.027344 28.828125 7.679688 C 28.824219 7.664062 28.820312 7.648438 28.816406 7.636719 C 28.40625 7.457031 27.894531 7.375 27.886719 6.867188 C 27.886719 6.640625 27.953125 6.460938 28.0625 6.289062 C 28.097656 6.148438 28.164062 6.011719 28.265625 5.902344 C 28.304688 5.863281 28.34375 5.824219 28.386719 5.785156 C 28.390625 5.78125 28.40625 5.765625 28.414062 5.765625 C 28.417969 5.765625 28.433594 5.828125 28.445312 5.871094 C 28.457031 5.847656 28.46875 5.828125 28.488281 5.808594 C 28.527344 5.765625 28.558594 5.730469 28.601562 5.691406 C 28.617188 5.675781 28.632812 5.621094 28.640625 5.640625 C 28.664062 5.679688 28.679688 5.726562 28.695312 5.769531 C 28.695312 5.664062 28.71875 5.558594 28.761719 5.472656 C 28.785156 5.433594 28.804688 5.375 28.84375 5.347656 C 28.847656 5.34375 28.847656 5.359375 28.847656 5.367188 C 28.851562 5.394531 28.851562 5.390625 28.855469 5.417969 C 28.859375 5.4375 28.863281 5.457031 28.867188 5.476562 C 28.894531 5.421875 28.925781 5.371094 28.960938 5.335938 C 29.066406 5.226562 29.238281 5.210938 29.34375 5.105469 C 29.472656 4.976562 29.558594 4.785156 29.710938 4.675781 C 29.835938 4.582031 29.980469 4.5625 30.113281 4.480469 C 30.203125 4.425781 30.347656 4.289062 30.453125 4.269531 C 30.792969 4.199219 31.152344 4.304688 31.492188 4.320312 C 31.605469 4.324219 31.710938 4.292969 31.824219 4.3125 C 32.132812 4.359375 32.445312 4.542969 32.703125 4.710938 C 32.757812 4.746094 32.871094 4.78125 32.917969 4.832031 C 33.503906 5.480469 33.414062 6.417969 33.726562 7.199219 C 33.972656 7.808594 34.433594 8.191406 34.824219 8.648438 C 34.871094 8.351562 35.167969 8.75 35.222656 8.730469 C 35.359375 8.683594 35.449219 8.59375 35.601562 8.675781 L 35.597656 8.648438 C 36.421875 9.160156 37.289062 9.496094 38.257812 9.597656 C 38.570312 9.628906 38.847656 9.535156 39.152344 9.480469 C 39.273438 9.457031 39.46875 9.394531 39.59375 9.449219 C 39.984375 9.625 40.199219 10.222656 40.402344 10.554688 C 40.757812 11.148438 41.25 11.65625 41.597656 12.253906 C 42.351562 13.117188 43.171875 13.941406 43.496094 15.058594 C 43.53125 15.183594 43.5 15.289062 43.441406 15.386719 C 43.449219 15.722656 43.328125 16.027344 43.011719 16.273438 C 42.898438 16.367188 42.792969 16.472656 42.640625 16.5 C 42.535156 16.515625 42.414062 16.523438 42.28125 16.523438 C 41.84375 16.59375 41.289062 16.53125 40.988281 16.421875 C 40.597656 16.277344 40.230469 16.082031 39.863281 15.886719 C 39.785156 16.375 39.84375 16.925781 39.882812 17.367188 C 40.019531 18.984375 40.882812 21.074219 41.417969 22.625 C 41.628906 23.246094 41.882812 23.867188 42.195312 24.445312 C 42.273438 24.589844 42.53125 24.847656 42.394531 25 C 42.183594 25.234375 41.460938 25.457031 40.921875 25.609375 C 41.148438 26.679688 41.300781 27.765625 41.503906 28.839844 C 41.792969 30.398438 42.242188 31.972656 42.722656 33.484375 C 42.804688 33.738281 42.882812 34 42.941406 34.265625 C 43.570312 35.070312 43.671875 35.644531 44.050781 36.84375 C 44.390625 37.902344 44.738281 38.949219 45.015625 40.03125 C 45.335938 41.285156 45.953125 43.097656 46.015625 44.375 C 46.023438 44.476562 45.984375 44.578125 45.917969 44.675781 C 46.042969 45.15625 46.160156 45.640625 46.339844 46.113281 C 46.484375 46.492188 46.800781 46.949219 46.6875 47.371094 C 46.59375 47.71875 44.855469 47.679688 44.597656 47.625 C 44.414062 47.585938 44.144531 47.570312 43.992188 47.445312 C 43.777344 47.269531 43.933594 47.105469 43.925781 46.886719 C 43.917969 46.480469 43.882812 45.953125 43.933594 45.496094 C 43.855469 45.492188 43.792969 45.476562 43.746094 45.453125 C 43.535156 45.332031 43.414062 44.9375 43.289062 44.726562 C 42.914062 44.117188 42.539062 43.515625 42.183594 42.890625 C 41.667969 41.988281 41.339844 41.074219 40.96875 40.109375 C 40.589844 39.117188 40.152344 38.140625 39.777344 37.144531 C 39.644531 36.792969 39.550781 36.421875 39.445312 36.058594 C 39.300781 36.121094 39.140625 36.175781 38.972656 36.21875 C 39.371094 37.261719 39.804688 38.292969 39.335938 39.417969 C 39.042969 40.121094 38.371094 40.265625 37.953125 40.796875 C 37.800781 40.992188 37.867188 41.257812 37.734375 41.46875 C 37.476562 41.878906 36.992188 42.117188 36.996094 42.667969 C 37 43.511719 37.1875 44.144531 37.566406 44.917969 C 37.667969 45.128906 38.078125 45.714844 37.855469 45.949219 C 37.035156 46.8125 35.902344 46.085938 34.941406 46.464844 C 34.363281 46.695312 34.957031 47.445312 34.257812 47.6875 C 33.601562 47.914062 32.429688 47.949219 31.148438 47.851562 C 30.828125 47.929688 30.527344 47.984375 30.257812 48.015625 C 28.402344 48.226562 26.429688 48.746094 24.550781 48.347656 C 23.789062 48.183594 23.089844 47.753906 22.316406 47.664062 C 21.300781 47.542969 20.625 47.714844 19.664062 47.238281 C 19.460938 47.136719 19.285156 47.023438 19.125 46.894531 C 18.214844 46.496094 16.894531 45.511719 16.890625 44.644531 C 16.886719 44.113281 17.195312 43.808594 17.023438 43.339844 C 16.28125 42.851562 16.105469 44.039062 15.527344 43.980469 C 15.222656 43.953125 14.917969 43.457031 14.691406 43.300781 C 14.339844 43.054688 13.914062 43.078125 13.566406 42.871094 C 12.941406 42.496094 13.929688 41.800781 13.34375 41.289062 C 12.941406 40.933594 12.390625 40.773438 11.933594 40.492188 C 11.589844 40.285156 9.117188 38.421875 8.914062 38.164062 C 8.347656 37.433594 9.789062 37.355469 9.253906 36.585938 C 8.777344 35.902344 7.984375 37.078125 7.722656 36.078125 C 7.644531 35.796875 7.609375 35.496094 7.589844 35.203125 C 7.503906 33.765625 8.496094 32.464844 8.179688 30.992188 C 7.859375 29.5 7.0625 30.042969 6.457031 28.921875 C 6.296875 28.621094 6.34375 28.152344 6.304688 27.820312 C 6.066406 25.949219 6.070312 21.8125 7.988281 20.808594 C 8.957031 20.296875 10.160156 21.125 11.046875 21.425781 C 13.800781 22.351562 16.441406 23.570312 19.15625 24.59375 C 22.015625 25.667969 25.164062 24.519531 28.019531 24.097656 C 28.246094 24.0625 28.457031 24.003906 28.65625 23.941406 Z M 38.257812 32.261719 C 38.25 32.214844 38.242188 32.171875 38.234375 32.125 C 38.144531 31.988281 38.066406 31.847656 38.035156 31.792969 C 37.875 31.515625 37.703125 31.242188 37.519531 30.976562 C 37.585938 31.132812 37.660156 31.285156 37.734375 31.4375 C 37.832031 31.640625 38.023438 31.929688 38.257812 32.261719 Z M 36.425781 15.167969 C 36.457031 15.132812 36.488281 15.097656 36.519531 15.066406 C 36.46875 15.070312 36.421875 15.074219 36.371094 15.0625 C 36.371094 15.070312 36.367188 15.078125 36.363281 15.085938 C 36.382812 15.113281 36.402344 15.140625 36.425781 15.167969 Z M 34.703125 10.859375 Z M 34.703125 10.859375 " fill-opacity="1" fill-rule="evenodd"/></g></svg>