<svg xmlns="http://www.w3.org/2000/svg" xmlns:xlink="http://www.w3.org/1999/xlink" width="70" zoomAndPan="magnify" viewBox="0 0 52.5 52.499999" height="70" preserveAspectRatio="xMidYMid meet" version="1.0"><defs><clipPath id="d300cb7846"><path d="M 14 17 L 38 17 L 38 51.734375 L 14 51.734375 Z M 14 17 " clip-rule="nonzero"/></clipPath><clipPath id="78f08a8214"><path d="M 12.773438 2 L 39.519531 2 L 39.519531 38 L 12.773438 38 Z M 12.773438 2 " clip-rule="nonzero"/></clipPath><clipPath id="797d1d15b4"><path d="M 25 0.472656 L 27 0.472656 L 27 4 L 25 4 Z M 25 0.472656 " clip-rule="nonzero"/></clipPath></defs><g clip-path="url(#d300cb7846)"><path fill="#f7f3f0" d="M 30.039062 29.871094 L 30.039062 19.558594 L 30.355469 19.558594 L 30.355469 17.410156 L 21.648438 17.410156 L 21.648438 19.558594 L 21.964844 19.558594 L 21.964844 29.871094 L 14.027344 37.105469 L 14.027344 50.859375 L 21.953125 50.859375 L 21.953125 50.847656 L 21.964844 50.847656 L 21.964844 50.859375 L 21.953125 50.859375 L 21.953125 51.527344 L 30.046875 51.527344 L 30.046875 50.859375 L 30.039062 50.859375 L 30.039062 50.847656 L 30.046875 50.847656 L 30.046875 50.859375 L 37.972656 50.859375 L 37.972656 37.105469 Z M 25.71875 46.484375 L 25.457031 46.484375 L 25.457031 45.699219 L 25.71875 45.699219 Z M 26.703125 46.484375 L 26.4375 46.484375 L 26.4375 45.699219 L 26.703125 45.699219 Z M 26.703125 46.484375 " fill-opacity="1" fill-rule="evenodd"/></g><path fill="#afd1fa" d="M 24.816406 20.628906 L 25.996094 20.171875 L 27.144531 20.574219 L 27.496094 21.515625 L 27.496094 26.449219 L 24.507812 26.449219 L 24.507812 21.5 Z M 24.507812 33.007812 L 24.507812 37.960938 L 27.496094 37.960938 L 27.496094 33.023438 L 27.144531 32.085938 L 25.996094 31.679688 L 24.816406 32.140625 Z M 15.96875 38.882812 L 15.96875 45.996094 L 20.265625 45.996094 L 20.265625 38.902344 L 19.761719 37.554688 L 18.105469 36.972656 L 16.417969 37.632812 Z M 31.738281 38.882812 L 31.738281 45.996094 L 36.03125 45.996094 L 36.03125 38.902344 L 35.527344 37.554688 L 33.875 36.972656 L 32.183594 37.632812 Z M 31.738281 38.882812 " fill-opacity="1" fill-rule="evenodd"/><path fill="#f7ece1" d="M 24.308594 26.5625 L 27.695312 26.5625 L 27.695312 27.242188 L 24.308594 27.242188 Z M 24.308594 38.753906 L 27.695312 38.753906 L 27.695312 38.074219 L 24.308594 38.074219 Z M 15.683594 47.136719 L 20.550781 47.136719 L 20.550781 46.160156 L 15.683594 46.160156 Z M 31.449219 47.136719 L 36.320312 47.136719 L 36.320312 46.160156 L 31.449219 46.160156 Z M 31.449219 47.136719 " fill-opacity="1" fill-rule="evenodd"/><path fill="#eed375" d="M 23.6875 50.308594 L 23.6875 44.238281 C 23.6875 40.691406 28.316406 40.691406 28.316406 44.238281 L 28.316406 50.308594 Z M 27.375 21.609375 L 27.375 21.675781 L 27.378906 21.675781 L 27.378906 21.664062 C 27.378906 21.644531 27.375 21.628906 27.375 21.609375 Z M 26.003906 20.019531 C 25.125 20.023438 24.414062 20.734375 24.414062 21.609375 L 24.414062 26.570312 L 27.589844 26.570312 L 27.589844 21.609375 C 27.589844 20.734375 26.878906 20.023438 26.003906 20.019531 Z M 25.898438 26.328125 L 24.632812 26.328125 L 24.632812 24.90625 L 25.898438 24.90625 Z M 25.898438 24.796875 L 24.632812 24.796875 L 24.632812 23.410156 L 25.898438 23.410156 Z M 25.898438 23.207031 L 24.632812 23.207031 L 24.632812 21.789062 L 25.898438 21.789062 Z M 25.898438 21.675781 L 24.632812 21.675781 L 24.632812 21.613281 L 24.628906 21.613281 C 24.65625 20.914062 25.203125 20.34375 25.898438 20.292969 Z M 27.375 26.328125 L 26.105469 26.328125 L 26.105469 24.90625 L 27.375 24.90625 Z M 27.375 24.796875 L 26.105469 24.796875 L 26.105469 23.410156 L 27.375 23.410156 Z M 27.375 23.207031 L 26.105469 23.207031 L 26.105469 21.789062 L 27.375 21.789062 Z M 27.378906 21.675781 L 26.105469 21.675781 L 26.105469 20.292969 C 26.800781 20.347656 27.347656 20.914062 27.375 21.609375 C 27.378906 21.628906 27.378906 21.644531 27.378906 21.664062 Z M 27.378906 33.175781 L 27.378906 33.183594 L 27.375 33.183594 L 27.375 33.121094 C 27.375 33.136719 27.375 33.15625 27.375 33.175781 Z M 24.632812 33.121094 L 24.632812 33.183594 L 24.628906 33.183594 L 24.628906 33.175781 C 24.628906 33.15625 24.628906 33.140625 24.628906 33.121094 Z M 26.003906 31.53125 C 25.125 31.535156 24.414062 32.242188 24.414062 33.121094 L 24.414062 38.082031 L 27.589844 38.082031 L 27.589844 33.121094 C 27.585938 32.242188 26.878906 31.535156 26.003906 31.53125 Z M 25.898438 37.839844 L 24.632812 37.839844 L 24.632812 36.417969 L 25.898438 36.417969 Z M 25.898438 36.304688 L 24.632812 36.304688 L 24.632812 34.921875 L 25.898438 34.921875 Z M 25.898438 34.714844 L 24.632812 34.714844 L 24.632812 33.296875 L 25.898438 33.296875 Z M 25.898438 33.183594 L 24.628906 33.183594 L 24.628906 33.175781 C 24.628906 33.15625 24.628906 33.140625 24.628906 33.121094 C 24.65625 32.421875 25.203125 31.855469 25.898438 31.800781 Z M 27.375 37.835938 L 26.105469 37.839844 L 26.105469 36.417969 L 27.375 36.417969 Z M 27.375 36.304688 L 26.105469 36.304688 L 26.105469 34.921875 L 27.375 34.921875 Z M 27.375 34.714844 L 26.105469 34.714844 L 26.105469 33.296875 L 27.375 33.296875 Z M 27.378906 33.183594 L 26.105469 33.183594 L 26.105469 31.800781 C 26.800781 31.855469 27.347656 32.421875 27.375 33.121094 C 27.378906 33.136719 27.378906 33.15625 27.378906 33.171875 Z M 26.105469 31.652344 L 26.105469 31.800781 C 26.070312 31.800781 26.035156 31.800781 26.003906 31.800781 C 25.96875 31.800781 25.933594 31.800781 25.898438 31.800781 L 25.898438 31.652344 Z M 26.105469 31.652344 L 26.105469 31.800781 C 26.070312 31.800781 26.035156 31.800781 26.003906 31.800781 C 25.96875 31.800781 25.933594 31.800781 25.898438 31.800781 L 25.898438 31.652344 Z M 16.152344 39.042969 L 16.152344 39.132812 L 16.140625 39.132812 L 16.140625 39.117188 C 16.140625 39.09375 16.140625 39.070312 16.144531 39.042969 Z M 18.117188 36.753906 C 16.859375 36.757812 15.835938 37.78125 15.835938 39.039062 L 15.835938 46.167969 L 20.402344 46.167969 L 20.402344 39.039062 C 20.398438 37.78125 19.378906 36.761719 18.117188 36.753906 Z M 17.96875 41.632812 L 17.96875 43.617188 L 16.152344 43.617188 L 16.152344 41.632812 Z M 16.152344 41.335938 L 16.152344 39.292969 L 17.96875 39.292969 L 17.96875 41.335938 Z M 16.140625 39.117188 C 16.140625 39.09375 16.140625 39.070312 16.144531 39.042969 C 16.183594 38.039062 16.96875 37.226562 17.96875 37.148438 L 17.96875 39.132812 L 16.140625 39.132812 Z M 16.152344 43.777344 L 17.96875 43.777344 L 17.96875 45.824219 L 16.152344 45.824219 Z M 20.09375 45.820312 L 18.265625 45.824219 L 18.265625 43.777344 L 20.09375 43.777344 Z M 20.09375 43.617188 L 18.265625 43.617188 L 18.265625 41.632812 L 20.09375 41.632812 Z M 20.09375 41.335938 L 18.265625 41.335938 L 18.265625 39.292969 L 20.09375 39.292969 Z M 20.09375 39.132812 L 18.265625 39.132812 L 18.265625 37.148438 C 19.292969 37.226562 20.089844 38.085938 20.09375 39.117188 Z M 33.886719 36.753906 C 32.625 36.761719 31.605469 37.78125 31.601562 39.039062 L 31.601562 46.167969 L 36.167969 46.167969 L 36.167969 39.039062 C 36.164062 37.78125 35.144531 36.761719 33.886719 36.753906 Z M 33.738281 45.824219 L 31.917969 45.824219 L 31.917969 43.777344 L 33.738281 43.777344 Z M 33.738281 43.617188 L 31.917969 43.617188 L 31.917969 41.632812 L 33.738281 41.632812 Z M 33.738281 41.335938 L 31.917969 41.335938 L 31.917969 39.292969 L 33.738281 39.292969 Z M 33.738281 39.132812 L 31.917969 39.132812 L 31.917969 39.042969 L 31.910156 39.042969 C 31.949219 38.039062 32.734375 37.226562 33.738281 37.148438 Z M 35.859375 45.820312 L 34.03125 45.824219 L 34.03125 43.777344 L 35.859375 43.777344 Z M 35.859375 43.617188 L 34.03125 43.617188 L 34.03125 41.632812 L 35.859375 41.632812 Z M 35.859375 41.335938 L 34.03125 41.335938 L 34.03125 39.292969 L 35.859375 39.292969 Z M 35.859375 39.132812 L 34.03125 39.132812 L 34.03125 37.148438 C 35.0625 37.226562 35.855469 38.085938 35.859375 39.117188 Z M 35.859375 39.132812 " fill-opacity="1" fill-rule="nonzero"/><g clip-path="url(#78f08a8214)"><path fill="#e9aa7d" d="M 39.226562 37.105469 L 37.972656 37.105469 L 29.855469 29.703125 L 22.148438 29.703125 L 14.027344 37.105469 L 12.777344 37.105469 L 21.445312 29.265625 L 21.433594 29.265625 L 21.964844 28.070312 L 30.039062 28.070312 L 30.566406 29.265625 L 30.554688 29.265625 Z M 29 17.539062 L 26 2.964844 L 23 17.539062 Z M 29 17.539062 " fill-opacity="1" fill-rule="evenodd"/></g><path fill="#f7ece1" d="M 25.71875 46.484375 L 25.457031 46.484375 L 25.457031 45.699219 L 25.71875 45.699219 Z M 26.703125 45.699219 L 26.441406 45.699219 L 26.441406 46.484375 L 26.703125 46.484375 Z M 26.703125 45.699219 " fill-opacity="1" fill-rule="evenodd"/><path fill="#f7ece1" d="M 21.964844 17.632812 L 23.3125 17.632812 L 23.3125 50.855469 L 21.964844 50.855469 Z M 28.691406 17.632812 L 30.039062 17.632812 L 30.039062 50.855469 L 28.691406 50.855469 Z M 28.691406 17.632812 " fill-opacity="1" fill-rule="evenodd"/><path fill="#f7ece1" d="M 21.648438 17.410156 L 30.355469 17.410156 L 30.355469 19.558594 L 21.648438 19.558594 Z M 21.648438 17.410156 " fill-opacity="1" fill-rule="nonzero"/><g clip-path="url(#797d1d15b4)"><path fill="#f7ece1" d="M 25.824219 0.472656 L 26.179688 0.472656 L 26.179688 3.851562 L 25.824219 3.851562 Z M 25.824219 0.472656 " fill-opacity="1" fill-rule="nonzero"/></g><path fill="#f7ece1" d="M 24.609375 1.261719 L 27.398438 1.261719 L 27.398438 1.617188 L 24.609375 1.617188 Z M 24.609375 1.261719 " fill-opacity="1" fill-rule="nonzero"/></svg>