<svg xmlns="http://www.w3.org/2000/svg" xmlns:xlink="http://www.w3.org/1999/xlink" width="70" zoomAndPan="magnify" viewBox="0 0 52.5 52.499999" height="70" preserveAspectRatio="xMidYMid meet" version="1.0"><defs><clipPath id="302590d295"><path d="M 2.148438 8.351562 L 49.695312 8.351562 L 49.695312 44 L 2.148438 44 Z M 2.148438 8.351562 " clip-rule="nonzero"/></clipPath></defs><path fill="#ffffff" d="M 8.910156 25.480469 L 7.976562 23.867188 L 7.039062 25.480469 L 7.976562 27.042969 Z M 8.910156 25.480469 " fill-opacity="1" fill-rule="nonzero"/><path fill="#ffffff" d="M 19.523438 21.632812 L 18.636719 20.019531 L 17.703125 21.632812 L 18.636719 23.191406 Z M 19.523438 21.632812 " fill-opacity="1" fill-rule="nonzero"/><path fill="#ffffff" d="M 44.957031 25.480469 L 44.023438 23.867188 L 43.085938 25.480469 L 44.023438 27.042969 Z M 44.957031 25.480469 " fill-opacity="1" fill-rule="nonzero"/><path fill="#ffffff" d="M 34.296875 21.632812 L 33.359375 20.019531 L 32.472656 21.632812 L 33.359375 23.191406 Z M 34.296875 21.632812 " fill-opacity="1" fill-rule="nonzero"/><g clip-path="url(#302590d295)"><path fill="#ffffff" d="M 42.667969 32.140625 L 39.289062 20.957031 L 32.890625 29.332031 L 26.855469 17.367188 L 28.675781 13.726562 L 26.023438 8.421875 L 23.320312 13.726562 L 25.140625 17.367188 L 19.105469 29.277344 L 12.8125 20.957031 L 9.429688 32.191406 L 2.148438 23.816406 L 7.144531 39.628906 L 7.195312 39.734375 L 7.195312 43.582031 L 44.800781 43.582031 L 44.800781 39.734375 L 44.90625 39.472656 L 49.847656 23.816406 Z M 43.035156 38.847656 L 38.925781 38.847656 L 41.992188 35.3125 Z M 38.664062 24.335938 L 41.472656 33.542969 L 37.414062 38.226562 L 33.722656 30.890625 Z M 35.960938 38.847656 L 27.636719 38.847656 L 32.628906 32.296875 Z M 25.035156 13.726562 L 25.972656 11.90625 L 26.910156 13.726562 L 25.972656 15.597656 Z M 26.023438 19.082031 L 31.851562 30.683594 L 26.023438 38.382812 L 20.199219 30.628906 Z M 10.054688 35.363281 L 13.074219 38.847656 L 9.015625 38.847656 Z M 24.410156 38.847656 L 16.039062 38.847656 L 19.367188 32.191406 Z M 13.4375 24.335938 L 18.328125 30.785156 L 14.632812 38.226562 L 10.628906 33.597656 Z M 5.894531 30.578125 L 8.859375 33.960938 L 7.921875 36.976562 Z M 43.242188 42.023438 L 8.753906 42.023438 L 8.753906 40.410156 L 43.242188 40.410156 Z M 44.074219 36.871094 L 43.191406 33.90625 L 46.101562 30.578125 Z M 44.074219 36.871094 " fill-opacity="1" fill-rule="nonzero"/></g></svg>