<svg xmlns="http://www.w3.org/2000/svg" xmlns:xlink="http://www.w3.org/1999/xlink" width="100" zoomAndPan="magnify" viewBox="0 0 75 74.999997" height="100" preserveAspectRatio="xMidYMid meet" version="1.0"><defs><clipPath id="d87574ef90"><path d="M 21.644531 14 L 53.144531 14 L 53.144531 73.464844 L 21.644531 73.464844 Z M 21.644531 14 " clip-rule="nonzero"/></clipPath><clipPath id="e1cedba01d"><path d="M 31 1.464844 L 44 1.464844 L 44 14 L 31 14 Z M 31 1.464844 " clip-rule="nonzero"/></clipPath></defs><g clip-path="url(#d87574ef90)"><path fill="#dfad87" d="M 53.238281 40.601562 C 53.050781 41.375 52.574219 41.921875 51.867188 42.183594 C 50.699219 42.617188 49.75 42.09375 49.164062 41.074219 C 49.066406 40.902344 48.988281 40.714844 48.929688 40.523438 L 44.585938 26.746094 C 44.507812 26.503906 44.152344 26.554688 44.144531 26.808594 L 43.894531 35.191406 L 48.679688 71.121094 C 48.851562 72.394531 47.863281 73.523438 46.578125 73.523438 L 43.644531 73.523438 C 42.574219 73.523438 41.675781 72.726562 41.542969 71.667969 L 37.496094 39.511719 L 33.453125 71.667969 C 33.320312 72.726562 32.417969 73.523438 31.351562 73.523438 L 28.414062 73.523438 C 27.132812 73.523438 26.144531 72.394531 26.3125 71.121094 L 31.101562 35.191406 L 30.851562 26.808594 C 30.84375 26.554688 30.484375 26.503906 30.410156 26.746094 L 26.066406 40.523438 C 26.007812 40.714844 25.929688 40.902344 25.828125 41.074219 C 25.242188 42.09375 24.296875 42.617188 23.128906 42.183594 C 22.417969 41.921875 21.945312 41.375 21.757812 40.601562 C 21.644531 40.125 21.667969 39.621094 21.804688 39.152344 L 28.039062 17.5625 C 28.621094 15.535156 30.480469 14.136719 32.589844 14.136719 L 42.402344 14.136719 C 44.515625 14.136719 46.371094 15.535156 46.957031 17.5625 L 53.191406 39.152344 C 53.328125 39.621094 53.351562 40.125 53.238281 40.601562 Z M 53.238281 40.601562 " fill-opacity="1" fill-rule="nonzero"/></g><g clip-path="url(#e1cedba01d)"><path fill="#dfad87" d="M 43.3125 7.285156 C 43.3125 7.667969 43.273438 8.046875 43.199219 8.417969 C 43.125 8.792969 43.015625 9.15625 42.867188 9.511719 C 42.722656 9.863281 42.542969 10.199219 42.332031 10.515625 C 42.121094 10.832031 41.878906 11.125 41.609375 11.394531 C 41.339844 11.667969 41.042969 11.90625 40.726562 12.121094 C 40.410156 12.332031 40.074219 12.511719 39.722656 12.65625 C 39.371094 12.804688 39.007812 12.914062 38.632812 12.988281 C 38.257812 13.0625 37.878906 13.097656 37.496094 13.097656 C 37.117188 13.097656 36.738281 13.0625 36.363281 12.988281 C 35.988281 12.914062 35.625 12.804688 35.273438 12.65625 C 34.917969 12.511719 34.585938 12.332031 34.265625 12.121094 C 33.949219 11.90625 33.65625 11.667969 33.386719 11.394531 C 33.117188 11.125 32.875 10.832031 32.664062 10.515625 C 32.449219 10.199219 32.273438 9.863281 32.125 9.511719 C 31.980469 9.15625 31.871094 8.792969 31.796875 8.417969 C 31.71875 8.046875 31.683594 7.667969 31.683594 7.285156 C 31.683594 6.902344 31.71875 6.527344 31.796875 6.152344 C 31.871094 5.777344 31.980469 5.414062 32.125 5.058594 C 32.273438 4.707031 32.449219 4.371094 32.664062 4.054688 C 32.875 3.738281 33.117188 3.445312 33.386719 3.175781 C 33.65625 2.90625 33.949219 2.664062 34.265625 2.453125 C 34.585938 2.238281 34.917969 2.058594 35.273438 1.914062 C 35.625 1.769531 35.988281 1.65625 36.363281 1.582031 C 36.738281 1.507812 37.117188 1.472656 37.496094 1.472656 C 37.878906 1.472656 38.257812 1.507812 38.632812 1.582031 C 39.007812 1.65625 39.371094 1.769531 39.722656 1.914062 C 40.074219 2.058594 40.410156 2.238281 40.726562 2.453125 C 41.042969 2.664062 41.339844 2.90625 41.609375 3.175781 C 41.878906 3.445312 42.121094 3.738281 42.332031 4.054688 C 42.542969 4.371094 42.722656 4.707031 42.867188 5.058594 C 43.015625 5.414062 43.125 5.777344 43.199219 6.152344 C 43.273438 6.527344 43.3125 6.902344 43.3125 7.285156 Z M 43.3125 7.285156 " fill-opacity="1" fill-rule="nonzero"/></g></svg>