<svg xmlns="http://www.w3.org/2000/svg" xmlns:xlink="http://www.w3.org/1999/xlink" width="70" zoomAndPan="magnify" viewBox="0 0 52.5 52.499999" height="70" preserveAspectRatio="xMidYMid meet" version="1.0"><defs><clipPath id="b9bf9c1a10"><path d="M 25 5.199219 L 27 5.199219 L 27 15 L 25 15 Z M 25 5.199219 " clip-rule="nonzero"/></clipPath><clipPath id="3e71aef7f2"><path d="M 3.398438 19 L 6 19 L 6 23 L 3.398438 23 Z M 3.398438 19 " clip-rule="nonzero"/></clipPath><clipPath id="3548f11511"><path d="M 3.398438 22 L 6 22 L 6 25 L 3.398438 25 Z M 3.398438 22 " clip-rule="nonzero"/></clipPath><clipPath id="b907bc5d65"><path d="M 46 36 L 48.71875 36 L 48.71875 38 L 46 38 Z M 46 36 " clip-rule="nonzero"/></clipPath></defs><path fill="#0833a2" d="M 8.085938 10.835938 C 7.890625 10.835938 7.730469 10.679688 7.730469 10.484375 C 7.730469 10.289062 7.886719 10.132812 8.078125 10.132812 L 8.085938 10.132812 C 8.28125 10.132812 8.4375 10.289062 8.4375 10.484375 C 8.4375 10.679688 8.28125 10.835938 8.085938 10.835938 Z M 8.085938 10.835938 " fill-opacity="1" fill-rule="nonzero"/><path fill="#0833a2" d="M 41.191406 41.121094 C 40.996094 41.121094 40.835938 40.964844 40.835938 40.769531 C 40.835938 40.574219 40.988281 40.417969 41.183594 40.417969 L 41.191406 40.417969 C 41.386719 40.417969 41.542969 40.574219 41.542969 40.769531 C 41.542969 40.964844 41.386719 41.121094 41.191406 41.121094 Z M 41.191406 41.121094 " fill-opacity="1" fill-rule="nonzero"/><path fill="#0833a2" d="M 15.835938 48.871094 C 15.640625 48.871094 15.480469 48.714844 15.480469 48.519531 C 15.480469 48.324219 15.632812 48.167969 15.828125 48.167969 L 15.835938 48.167969 C 16.027344 48.167969 16.1875 48.324219 16.1875 48.519531 C 16.1875 48.714844 16.027344 48.871094 15.835938 48.871094 Z M 15.835938 48.871094 " fill-opacity="1" fill-rule="nonzero"/><path fill="#0833a2" d="M 8.085938 38.304688 C 7.890625 38.304688 7.730469 38.148438 7.730469 37.953125 C 7.730469 37.757812 7.886719 37.601562 8.078125 37.601562 L 8.085938 37.601562 C 8.28125 37.601562 8.4375 37.757812 8.4375 37.953125 C 8.4375 38.148438 8.28125 38.304688 8.085938 38.304688 Z M 8.085938 38.304688 " fill-opacity="1" fill-rule="nonzero"/><path fill="#0833a2" d="M 46.828125 15.796875 C 46.632812 15.796875 46.472656 15.640625 46.472656 15.445312 C 46.472656 15.253906 46.625 15.09375 46.820312 15.09375 L 46.828125 15.09375 C 47.019531 15.09375 47.179688 15.253906 47.179688 15.445312 C 47.179688 15.640625 47.019531 15.796875 46.828125 15.796875 Z M 46.828125 15.796875 " fill-opacity="1" fill-rule="nonzero"/><path fill="#0833a2" d="M 26.027344 46.054688 C 17.484375 46.054688 10.53125 39.101562 10.53125 30.558594 C 10.53125 22.011719 17.484375 15.0625 26.027344 15.0625 C 30.277344 15.0625 34.246094 16.75 37.195312 19.816406 C 37.328125 19.953125 37.324219 20.175781 37.183594 20.3125 C 37.046875 20.449219 36.824219 20.441406 36.6875 20.304688 C 33.871094 17.375 30.085938 15.765625 26.027344 15.765625 C 17.871094 15.765625 11.234375 22.402344 11.234375 30.558594 C 11.234375 38.714844 17.871094 45.347656 26.027344 45.347656 C 34.183594 45.347656 40.816406 38.714844 40.816406 30.558594 C 40.816406 28.523438 40.414062 26.558594 39.617188 24.707031 C 39.539062 24.527344 39.621094 24.320312 39.800781 24.246094 C 39.976562 24.164062 40.1875 24.25 40.261719 24.429688 C 41.097656 26.367188 41.523438 28.429688 41.523438 30.558594 C 41.523438 39.101562 34.570312 46.054688 26.027344 46.054688 Z M 26.027344 46.054688 " fill-opacity="1" fill-rule="nonzero"/><path fill="#0833a2" d="M 29.617188 44.351562 C 29.59375 44.351562 29.570312 44.347656 29.546875 44.34375 C 29.355469 44.304688 29.230469 44.121094 29.269531 43.929688 C 29.28125 43.859375 30.671875 36.859375 30.671875 30.558594 C 30.671875 24.253906 29.28125 17.253906 29.269531 17.183594 C 29.230469 16.996094 29.355469 16.808594 29.546875 16.769531 C 29.734375 16.730469 29.921875 16.855469 29.960938 17.046875 C 29.972656 17.117188 31.375 24.183594 31.375 30.558594 C 31.375 36.929688 29.972656 43.996094 29.960938 44.066406 C 29.925781 44.234375 29.78125 44.351562 29.617188 44.351562 Z M 29.617188 44.351562 " fill-opacity="1" fill-rule="nonzero"/><path fill="#0833a2" d="M 33.136719 42.941406 C 33.097656 42.941406 33.058594 42.9375 33.019531 42.921875 C 32.835938 42.855469 32.738281 42.65625 32.804688 42.472656 C 32.824219 42.414062 34.898438 36.480469 34.898438 30.558594 C 34.898438 24.632812 32.824219 18.703125 32.804688 18.640625 C 32.738281 18.457031 32.835938 18.257812 33.019531 18.191406 C 33.203125 18.128906 33.402344 18.222656 33.46875 18.40625 C 33.488281 18.46875 35.601562 24.507812 35.601562 30.558594 C 35.601562 36.605469 33.488281 42.648438 33.46875 42.707031 C 33.417969 42.851562 33.28125 42.941406 33.136719 42.941406 Z M 33.136719 42.941406 " fill-opacity="1" fill-rule="nonzero"/><path fill="#0833a2" d="M 36.65625 40.140625 C 36.609375 40.140625 36.558594 40.128906 36.511719 40.105469 C 36.335938 40.023438 36.257812 39.816406 36.339844 39.640625 C 36.359375 39.59375 38.417969 35.070312 38.417969 30.558594 C 38.417969 29.179688 38.226562 27.664062 37.851562 26.0625 C 37.808594 25.871094 37.925781 25.683594 38.117188 25.636719 C 38.3125 25.59375 38.496094 25.710938 38.539062 25.898438 C 38.925781 27.558594 39.125 29.125 39.125 30.558594 C 39.125 35.226562 37.066406 39.742188 36.976562 39.933594 C 36.917969 40.0625 36.789062 40.140625 36.65625 40.140625 Z M 36.65625 40.140625 " fill-opacity="1" fill-rule="nonzero"/><path fill="#0833a2" d="M 21.261719 27.738281 C 21.257812 27.738281 21.25 27.738281 21.242188 27.738281 C 21.046875 27.726562 20.898438 27.558594 20.910156 27.367188 C 21.234375 22.046875 22.214844 17.097656 22.226562 17.046875 C 22.265625 16.855469 22.453125 16.734375 22.640625 16.769531 C 22.832031 16.808594 22.953125 16.996094 22.917969 17.1875 C 22.90625 17.234375 21.933594 22.136719 21.613281 27.410156 C 21.605469 27.597656 21.449219 27.738281 21.261719 27.738281 Z M 21.261719 27.738281 " fill-opacity="1" fill-rule="nonzero"/><path fill="#0833a2" d="M 22.570312 44.351562 C 22.40625 44.351562 22.257812 44.234375 22.226562 44.066406 C 22.214844 44.019531 21.234375 39.070312 20.910156 33.75 C 20.898438 33.554688 21.046875 33.386719 21.242188 33.375 C 21.457031 33.355469 21.605469 33.511719 21.613281 33.707031 C 21.933594 38.980469 22.90625 43.878906 22.917969 43.929688 C 22.953125 44.121094 22.832031 44.304688 22.640625 44.34375 C 22.617188 44.347656 22.59375 44.351562 22.570312 44.351562 Z M 22.570312 44.351562 " fill-opacity="1" fill-rule="nonzero"/><path fill="#0833a2" d="M 19.050781 42.941406 C 18.902344 42.941406 18.769531 42.851562 18.71875 42.707031 C 18.695312 42.648438 16.585938 36.605469 16.585938 30.558594 C 16.585938 24.507812 18.695312 18.46875 18.71875 18.40625 C 18.78125 18.222656 18.984375 18.128906 19.167969 18.191406 C 19.351562 18.257812 19.445312 18.457031 19.382812 18.640625 C 19.359375 18.703125 17.289062 24.632812 17.289062 30.558594 C 17.289062 36.480469 19.359375 42.414062 19.382812 42.472656 C 19.445312 42.65625 19.351562 42.855469 19.167969 42.921875 C 19.128906 42.9375 19.089844 42.941406 19.050781 42.941406 Z M 19.050781 42.941406 " fill-opacity="1" fill-rule="nonzero"/><path fill="#0833a2" d="M 15.527344 40.140625 C 15.394531 40.140625 15.265625 40.0625 15.207031 39.933594 C 15.121094 39.742188 13.0625 35.226562 13.0625 30.558594 C 13.0625 25.886719 15.121094 21.371094 15.207031 21.179688 C 15.289062 21.003906 15.5 20.925781 15.675781 21.007812 C 15.851562 21.089844 15.929688 21.296875 15.847656 21.476562 C 15.828125 21.519531 13.765625 26.046875 13.765625 30.558594 C 13.765625 35.070312 15.828125 39.59375 15.847656 39.640625 C 15.929688 39.816406 15.851562 40.023438 15.675781 40.105469 C 15.628906 40.128906 15.578125 40.140625 15.527344 40.140625 Z M 15.527344 40.140625 " fill-opacity="1" fill-rule="nonzero"/><path fill="#0833a2" d="M 18.632812 30.910156 L 11.949219 30.910156 C 11.753906 30.910156 11.59375 30.75 11.59375 30.558594 C 11.59375 30.363281 11.753906 30.207031 11.949219 30.207031 L 18.632812 30.207031 C 18.824219 30.207031 18.984375 30.363281 18.984375 30.558594 C 18.984375 30.75 18.824219 30.910156 18.632812 30.910156 Z M 18.632812 30.910156 " fill-opacity="1" fill-rule="nonzero"/><path fill="#0833a2" d="M 40.238281 30.910156 L 23.5625 30.910156 C 23.367188 30.910156 23.210938 30.75 23.210938 30.558594 C 23.210938 30.363281 23.367188 30.207031 23.5625 30.207031 L 40.238281 30.207031 C 40.433594 30.207031 40.589844 30.363281 40.589844 30.558594 C 40.589844 30.75 40.433594 30.910156 40.238281 30.910156 Z M 40.238281 30.910156 " fill-opacity="1" fill-rule="nonzero"/><path fill="#0833a2" d="M 26.035156 35.78125 C 19.660156 35.78125 12.59375 34.378906 12.523438 34.367188 C 12.332031 34.328125 12.210938 34.140625 12.246094 33.949219 C 12.285156 33.761719 12.476562 33.636719 12.664062 33.675781 C 12.730469 33.6875 19.730469 35.078125 26.035156 35.078125 C 32.339844 35.078125 39.335938 33.6875 39.40625 33.675781 C 39.59375 33.636719 39.78125 33.761719 39.820312 33.949219 C 39.859375 34.140625 39.734375 34.328125 39.546875 34.367188 C 39.472656 34.378906 32.410156 35.78125 26.035156 35.78125 Z M 26.035156 35.78125 " fill-opacity="1" fill-rule="nonzero"/><path fill="#0833a2" d="M 26.035156 40.007812 C 19.984375 40.007812 13.945312 37.894531 13.882812 37.875 C 13.703125 37.808594 13.605469 37.609375 13.667969 37.425781 C 13.734375 37.242188 13.9375 37.148438 14.121094 37.210938 C 14.179688 37.230469 20.109375 39.304688 26.035156 39.304688 C 31.957031 39.304688 37.890625 37.230469 37.949219 37.210938 C 38.132812 37.144531 38.332031 37.242188 38.398438 37.425781 C 38.464844 37.609375 38.367188 37.808594 38.183594 37.875 C 38.125 37.894531 32.082031 40.007812 26.035156 40.007812 Z M 26.035156 40.007812 " fill-opacity="1" fill-rule="nonzero"/><path fill="#0833a2" d="M 26.035156 43.527344 C 21.363281 43.527344 16.847656 41.472656 16.65625 41.382812 C 16.480469 41.300781 16.402344 41.09375 16.484375 40.917969 C 16.566406 40.738281 16.777344 40.664062 16.953125 40.746094 C 16.996094 40.765625 21.523438 42.824219 26.035156 42.824219 C 30.546875 42.824219 35.070312 40.765625 35.117188 40.746094 C 35.292969 40.664062 35.503906 40.738281 35.582031 40.917969 C 35.664062 41.09375 35.585938 41.300781 35.410156 41.382812 C 35.222656 41.472656 30.703125 43.527344 26.035156 43.527344 Z M 26.035156 43.527344 " fill-opacity="1" fill-rule="nonzero"/><path fill="#0833a2" d="M 12.59375 27.328125 C 12.429688 27.328125 12.28125 27.214844 12.246094 27.046875 C 12.210938 26.855469 12.332031 26.671875 12.523438 26.632812 C 12.59375 26.617188 19.660156 25.214844 26.035156 25.214844 C 32.410156 25.214844 39.472656 26.617188 39.546875 26.632812 C 39.734375 26.671875 39.859375 26.855469 39.820312 27.046875 C 39.78125 27.238281 39.59375 27.359375 39.40625 27.324219 C 39.335938 27.308594 32.335938 25.921875 26.035156 25.921875 C 19.730469 25.921875 12.730469 27.308594 12.664062 27.324219 C 12.640625 27.328125 12.617188 27.328125 12.59375 27.328125 Z M 12.59375 27.328125 " fill-opacity="1" fill-rule="nonzero"/><path fill="#0833a2" d="M 14 23.808594 C 13.855469 23.808594 13.722656 23.71875 13.667969 23.574219 C 13.605469 23.390625 13.703125 23.1875 13.882812 23.125 C 13.945312 23.101562 19.984375 20.988281 26.035156 20.988281 C 29.691406 20.988281 33.304688 21.746094 35.695312 22.378906 C 35.882812 22.429688 35.996094 22.621094 35.945312 22.808594 C 35.894531 22.996094 35.707031 23.113281 35.515625 23.058594 C 33.164062 22.4375 29.613281 21.695312 26.035156 21.695312 C 20.109375 21.695312 14.179688 23.765625 14.121094 23.789062 C 14.082031 23.800781 14.042969 23.808594 14 23.808594 Z M 14 23.808594 " fill-opacity="1" fill-rule="nonzero"/><path fill="#0833a2" d="M 16.804688 20.285156 C 16.671875 20.285156 16.542969 20.210938 16.484375 20.082031 C 16.402344 19.902344 16.480469 19.695312 16.65625 19.613281 C 16.847656 19.527344 21.363281 17.46875 26.035156 17.46875 C 30.703125 17.46875 35.222656 19.527344 35.410156 19.613281 C 35.585938 19.695312 35.664062 19.90625 35.582031 20.082031 C 35.503906 20.257812 35.292969 20.335938 35.117188 20.253906 C 35.070312 20.234375 30.546875 18.171875 26.035156 18.171875 C 21.523438 18.171875 16.996094 20.234375 16.953125 20.253906 C 16.90625 20.273438 16.855469 20.285156 16.804688 20.285156 Z M 16.804688 20.285156 " fill-opacity="1" fill-rule="nonzero"/><path fill="#0833a2" d="M 26.035156 44.996094 C 25.839844 44.996094 25.683594 44.839844 25.683594 44.644531 L 25.683594 16.351562 C 25.683594 16.160156 25.839844 16 26.035156 16 C 26.230469 16 26.386719 16.160156 26.386719 16.351562 L 26.386719 44.644531 C 26.386719 44.839844 26.230469 44.996094 26.035156 44.996094 Z M 26.035156 44.996094 " fill-opacity="1" fill-rule="nonzero"/><g clip-path="url(#b9bf9c1a10)"><path fill="#0833a2" d="M 26.027344 14.355469 C 25.832031 14.355469 25.675781 14.199219 25.675781 14.003906 L 25.675781 5.554688 C 25.675781 5.359375 25.832031 5.199219 26.027344 5.199219 C 26.222656 5.199219 26.378906 5.359375 26.378906 5.554688 L 26.378906 14.003906 C 26.378906 14.199219 26.222656 14.355469 26.027344 14.355469 Z M 26.027344 14.355469 " fill-opacity="1" fill-rule="nonzero"/></g><path fill="#0833a2" d="M 5.25 24.921875 C 5.054688 24.921875 4.894531 24.765625 4.894531 24.570312 C 4.894531 22.933594 6.4375 22.171875 6.503906 22.140625 C 6.679688 22.054688 6.890625 22.128906 6.972656 22.304688 C 7.058594 22.476562 6.984375 22.6875 6.8125 22.773438 C 6.761719 22.796875 5.601562 23.382812 5.601562 24.570312 C 5.601562 24.765625 5.441406 24.921875 5.25 24.921875 Z M 5.25 24.921875 " fill-opacity="1" fill-rule="nonzero"/><path fill="#0833a2" d="M 6.65625 22.808594 C 6.605469 22.808594 6.554688 22.796875 6.503906 22.773438 C 6.4375 22.742188 4.894531 21.980469 4.894531 20.34375 C 4.894531 20.148438 5.054688 19.992188 5.25 19.992188 C 5.441406 19.992188 5.601562 20.148438 5.601562 20.34375 C 5.601562 21.542969 6.796875 22.132812 6.808594 22.140625 C 6.984375 22.226562 7.058594 22.433594 6.972656 22.609375 C 6.914062 22.734375 6.789062 22.808594 6.65625 22.808594 Z M 6.65625 22.808594 " fill-opacity="1" fill-rule="nonzero"/><g clip-path="url(#3e71aef7f2)"><path fill="#0833a2" d="M 3.839844 22.808594 C 3.710938 22.808594 3.585938 22.738281 3.523438 22.609375 C 3.4375 22.4375 3.511719 22.226562 3.6875 22.140625 C 3.734375 22.117188 4.894531 21.53125 4.894531 20.34375 C 4.894531 20.148438 5.054688 19.992188 5.25 19.992188 C 5.441406 19.992188 5.601562 20.148438 5.601562 20.34375 C 5.601562 21.980469 4.058594 22.742188 3.992188 22.773438 C 3.945312 22.796875 3.890625 22.808594 3.839844 22.808594 Z M 3.839844 22.808594 " fill-opacity="1" fill-rule="nonzero"/></g><g clip-path="url(#3548f11511)"><path fill="#0833a2" d="M 5.25 24.921875 C 5.054688 24.921875 4.894531 24.765625 4.894531 24.570312 C 4.894531 23.371094 3.699219 22.78125 3.6875 22.773438 C 3.511719 22.691406 3.4375 22.480469 3.523438 22.304688 C 3.605469 22.128906 3.820312 22.054688 3.992188 22.140625 C 4.058594 22.171875 5.601562 22.933594 5.601562 24.570312 C 5.601562 24.765625 5.441406 24.921875 5.25 24.921875 Z M 5.25 24.921875 " fill-opacity="1" fill-rule="nonzero"/></g><path fill="#0833a2" d="M 38.351562 24.921875 C 38.160156 24.921875 38 24.765625 38 24.570312 C 38 22.933594 39.542969 22.171875 39.609375 22.140625 C 39.785156 22.054688 39.992188 22.128906 40.078125 22.304688 C 40.164062 22.476562 40.089844 22.6875 39.914062 22.773438 C 39.867188 22.796875 38.707031 23.382812 38.707031 24.570312 C 38.707031 24.765625 38.546875 24.921875 38.351562 24.921875 Z M 38.351562 24.921875 " fill-opacity="1" fill-rule="nonzero"/><path fill="#0833a2" d="M 39.761719 22.808594 C 39.710938 22.808594 39.65625 22.796875 39.609375 22.773438 C 39.542969 22.742188 38 21.980469 38 20.34375 C 38 20.148438 38.160156 19.992188 38.351562 19.992188 C 38.546875 19.992188 38.707031 20.148438 38.707031 20.34375 C 38.707031 21.542969 39.902344 22.132812 39.914062 22.140625 C 40.089844 22.226562 40.164062 22.433594 40.078125 22.609375 C 40.019531 22.734375 39.890625 22.808594 39.761719 22.808594 Z M 39.761719 22.808594 " fill-opacity="1" fill-rule="nonzero"/><path fill="#0833a2" d="M 36.945312 22.808594 C 36.8125 22.808594 36.6875 22.738281 36.628906 22.609375 C 36.542969 22.4375 36.617188 22.226562 36.789062 22.140625 C 36.839844 22.117188 38 21.53125 38 20.34375 C 38 20.148438 38.160156 19.992188 38.351562 19.992188 C 38.546875 19.992188 38.707031 20.148438 38.707031 20.34375 C 38.707031 21.980469 37.164062 22.742188 37.097656 22.773438 C 37.046875 22.796875 36.996094 22.808594 36.945312 22.808594 Z M 36.945312 22.808594 " fill-opacity="1" fill-rule="nonzero"/><path fill="#0833a2" d="M 38.351562 24.921875 C 38.160156 24.921875 38 24.765625 38 24.570312 C 38 23.371094 36.804688 22.78125 36.792969 22.773438 C 36.617188 22.691406 36.542969 22.480469 36.628906 22.304688 C 36.710938 22.128906 36.925781 22.054688 37.097656 22.140625 C 37.164062 22.171875 38.707031 22.933594 38.707031 24.570312 C 38.707031 24.765625 38.546875 24.921875 38.351562 24.921875 Z M 38.351562 24.921875 " fill-opacity="1" fill-rule="nonzero"/><path fill="#0833a2" d="M 21.097656 32.964844 C 20.902344 32.964844 20.742188 32.804688 20.742188 32.609375 C 20.742188 30.976562 22.285156 30.210938 22.351562 30.179688 C 22.527344 30.09375 22.734375 30.171875 22.820312 30.34375 C 22.90625 30.519531 22.832031 30.730469 22.660156 30.816406 C 22.609375 30.839844 21.449219 31.421875 21.449219 32.609375 C 21.449219 32.804688 21.289062 32.964844 21.097656 32.964844 Z M 21.097656 32.964844 " fill-opacity="1" fill-rule="nonzero"/><path fill="#0833a2" d="M 22.503906 30.851562 C 22.453125 30.851562 22.402344 30.839844 22.351562 30.816406 C 22.285156 30.785156 20.742188 30.019531 20.742188 28.386719 C 20.742188 28.191406 20.902344 28.03125 21.097656 28.03125 C 21.289062 28.03125 21.449219 28.191406 21.449219 28.386719 C 21.449219 29.582031 22.644531 30.175781 22.65625 30.179688 C 22.832031 30.265625 22.90625 30.476562 22.820312 30.652344 C 22.761719 30.777344 22.636719 30.851562 22.503906 30.851562 Z M 22.503906 30.851562 " fill-opacity="1" fill-rule="nonzero"/><path fill="#0833a2" d="M 19.6875 30.851562 C 19.558594 30.851562 19.433594 30.777344 19.371094 30.652344 C 19.285156 30.476562 19.359375 30.265625 19.535156 30.183594 C 19.582031 30.15625 20.742188 29.574219 20.742188 28.386719 C 20.742188 28.191406 20.902344 28.03125 21.097656 28.03125 C 21.289062 28.03125 21.449219 28.191406 21.449219 28.386719 C 21.449219 30.019531 19.90625 30.785156 19.839844 30.816406 C 19.792969 30.839844 19.738281 30.851562 19.6875 30.851562 Z M 19.6875 30.851562 " fill-opacity="1" fill-rule="nonzero"/><path fill="#0833a2" d="M 21.097656 32.964844 C 20.902344 32.964844 20.742188 32.804688 20.742188 32.609375 C 20.742188 31.414062 19.546875 30.820312 19.535156 30.816406 C 19.359375 30.730469 19.285156 30.519531 19.371094 30.34375 C 19.453125 30.171875 19.667969 30.097656 19.839844 30.179688 C 19.90625 30.210938 21.449219 30.976562 21.449219 32.609375 C 21.449219 32.804688 21.289062 32.964844 21.097656 32.964844 Z M 21.097656 32.964844 " fill-opacity="1" fill-rule="nonzero"/><path fill="#0833a2" d="M 20.207031 12.175781 C 20.148438 12.175781 20.09375 12.164062 20.042969 12.132812 L 19.335938 11.761719 L 18.628906 12.132812 C 18.511719 12.199219 18.367188 12.1875 18.257812 12.109375 C 18.148438 12.03125 18.09375 11.894531 18.117188 11.761719 L 18.253906 10.976562 L 17.679688 10.417969 C 17.585938 10.324219 17.550781 10.183594 17.589844 10.058594 C 17.632812 9.929688 17.742188 9.835938 17.875 9.816406 L 18.667969 9.703125 L 19.019531 8.988281 C 19.136719 8.746094 19.53125 8.746094 19.652344 8.988281 L 20.003906 9.703125 L 20.796875 9.816406 C 20.929688 9.835938 21.039062 9.929688 21.078125 10.058594 C 21.121094 10.183594 21.085938 10.324219 20.988281 10.417969 L 20.417969 10.976562 L 20.554688 11.761719 C 20.578125 11.894531 20.523438 12.03125 20.414062 12.109375 C 20.351562 12.152344 20.277344 12.175781 20.207031 12.175781 Z M 19.335938 11.011719 C 19.390625 11.011719 19.449219 11.027344 19.5 11.054688 L 19.738281 11.179688 L 19.691406 10.914062 C 19.671875 10.796875 19.710938 10.683594 19.792969 10.601562 L 19.988281 10.414062 L 19.71875 10.375 C 19.605469 10.355469 19.507812 10.285156 19.453125 10.179688 L 19.335938 9.9375 L 19.214844 10.179688 C 19.164062 10.285156 19.066406 10.355469 18.949219 10.375 L 18.683594 10.414062 L 18.875 10.601562 C 18.960938 10.683594 18.996094 10.796875 18.976562 10.914062 L 18.933594 11.179688 L 19.171875 11.054688 C 19.222656 11.027344 19.277344 11.011719 19.335938 11.011719 Z M 19.335938 11.011719 " fill-opacity="1" fill-rule="nonzero"/><path fill="#0833a2" d="M 39.929688 48.800781 C 39.871094 48.800781 39.816406 48.789062 39.765625 48.761719 L 39.058594 48.390625 L 38.351562 48.761719 C 38.234375 48.824219 38.089844 48.8125 37.980469 48.734375 C 37.871094 48.65625 37.816406 48.523438 37.839844 48.390625 L 37.972656 47.601562 L 37.402344 47.046875 C 37.308594 46.953125 37.273438 46.8125 37.3125 46.683594 C 37.355469 46.554688 37.464844 46.464844 37.597656 46.445312 L 38.390625 46.332031 L 38.742188 45.613281 C 38.800781 45.492188 38.921875 45.417969 39.058594 45.417969 C 39.191406 45.417969 39.3125 45.492188 39.371094 45.613281 L 39.726562 46.332031 L 40.515625 46.445312 C 40.648438 46.464844 40.757812 46.554688 40.800781 46.683594 C 40.84375 46.8125 40.808594 46.953125 40.710938 47.046875 L 40.140625 47.601562 L 40.273438 48.390625 C 40.296875 48.523438 40.242188 48.65625 40.136719 48.734375 C 40.074219 48.777344 40 48.800781 39.929688 48.800781 Z M 39.058594 47.640625 C 39.113281 47.640625 39.171875 47.652344 39.222656 47.679688 L 39.460938 47.804688 L 39.414062 47.539062 C 39.394531 47.425781 39.433594 47.308594 39.515625 47.226562 L 39.707031 47.039062 L 39.441406 47 C 39.328125 46.984375 39.230469 46.914062 39.175781 46.808594 L 39.058594 46.566406 L 38.9375 46.808594 C 38.886719 46.914062 38.789062 46.984375 38.671875 47 L 38.40625 47.039062 L 38.597656 47.226562 C 38.683594 47.308594 38.71875 47.425781 38.699219 47.539062 L 38.652344 47.804688 L 38.894531 47.679688 C 38.945312 47.652344 39 47.640625 39.058594 47.640625 Z M 39.058594 47.640625 " fill-opacity="1" fill-rule="nonzero"/><path fill="#0833a2" d="M 47.507812 39.007812 C 47.316406 39.007812 47.15625 38.851562 47.15625 38.65625 L 47.15625 35.839844 C 47.15625 35.644531 47.316406 35.488281 47.507812 35.488281 C 47.703125 35.488281 47.863281 35.644531 47.863281 35.839844 L 47.863281 38.65625 C 47.863281 38.851562 47.703125 39.007812 47.507812 39.007812 Z M 47.507812 39.007812 " fill-opacity="1" fill-rule="nonzero"/><g clip-path="url(#b907bc5d65)"><path fill="#0833a2" d="M 48.214844 37.601562 L 46.804688 37.601562 C 46.609375 37.601562 46.453125 37.441406 46.453125 37.25 C 46.453125 37.054688 46.609375 36.894531 46.804688 36.894531 L 48.214844 36.894531 C 48.410156 36.894531 48.566406 37.054688 48.566406 37.25 C 48.566406 37.441406 48.410156 37.601562 48.214844 37.601562 Z M 48.214844 37.601562 " fill-opacity="1" fill-rule="nonzero"/></g><path fill="#0833a2" d="M 6.65625 47.460938 C 6.460938 47.460938 6.304688 47.304688 6.304688 47.109375 L 6.304688 44.292969 C 6.304688 44.097656 6.460938 43.941406 6.65625 43.941406 C 6.851562 43.941406 7.007812 44.097656 7.007812 44.292969 L 7.007812 47.109375 C 7.007812 47.304688 6.851562 47.460938 6.65625 47.460938 Z M 6.65625 47.460938 " fill-opacity="1" fill-rule="nonzero"/><path fill="#0833a2" d="M 7.363281 46.054688 L 5.953125 46.054688 C 5.757812 46.054688 5.601562 45.894531 5.601562 45.699219 C 5.601562 45.507812 5.757812 45.347656 5.953125 45.347656 L 7.363281 45.347656 C 7.554688 45.347656 7.714844 45.507812 7.714844 45.699219 C 7.714844 45.894531 7.554688 46.054688 7.363281 46.054688 Z M 7.363281 46.054688 " fill-opacity="1" fill-rule="nonzero"/><path fill="#0833a2" d="M 37.648438 15.0625 C 37.453125 15.0625 37.296875 14.902344 37.296875 14.710938 L 37.296875 11.890625 C 37.296875 11.699219 37.453125 11.539062 37.648438 11.539062 C 37.84375 11.539062 38 11.699219 38 11.890625 L 38 14.710938 C 38 14.902344 37.84375 15.0625 37.648438 15.0625 Z M 37.648438 15.0625 " fill-opacity="1" fill-rule="nonzero"/><path fill="#0833a2" d="M 38.351562 13.652344 L 36.945312 13.652344 C 36.75 13.652344 36.59375 13.496094 36.59375 13.300781 C 36.59375 13.105469 36.75 12.949219 36.945312 12.949219 L 38.351562 12.949219 C 38.546875 12.949219 38.707031 13.105469 38.707031 13.300781 C 38.707031 13.496094 38.546875 13.652344 38.351562 13.652344 Z M 38.351562 13.652344 " fill-opacity="1" fill-rule="nonzero"/></svg>