<svg xmlns="http://www.w3.org/2000/svg" xmlns:xlink="http://www.w3.org/1999/xlink" width="150" zoomAndPan="magnify" viewBox="0 0 112.5 112.499997" height="150" preserveAspectRatio="xMidYMid meet" version="1.0"><defs><filter x="0%" y="0%" width="100%" height="100%" id="9c2a6ad72f"><feColorMatrix values="0 0 0 0 1 0 0 0 0 1 0 0 0 0 1 0 0 0 1 0" color-interpolation-filters="sRGB"/></filter><clipPath id="e0092713d0"><path d="M 6 13 L 112.003906 13 L 112.003906 15 L 6 15 Z M 6 13 " clip-rule="nonzero"/></clipPath><mask id="7a7a02ad03"><g filter="url(#9c2a6ad72f)"><rect x="-11.25" width="135" fill="#000000" y="-11.25" height="134.999996" fill-opacity="0.35"/></g></mask><clipPath id="d7dc26aa21"><path d="M 11 0.222656 L 96 0.222656 L 96 0.96875 L 11 0.96875 Z M 11 0.222656 " clip-rule="nonzero"/></clipPath><clipPath id="bb5c8f10ca"><rect x="0" width="107" y="0" height="2"/></clipPath><mask id="db8e198324"><g filter="url(#9c2a6ad72f)"><rect x="-11.25" width="135" fill="#000000" y="-11.25" height="134.999996" fill-opacity="0.35"/></g></mask><clipPath id="36a3cde77a"><path d="M 1.023438 10 L 1.773438 10 L 1.773438 95 L 1.023438 95 Z M 1.023438 10 " clip-rule="nonzero"/></clipPath><clipPath id="45649bc7b7"><rect x="0" width="2" y="0" height="106"/></clipPath></defs><g clip-path="url(#e0092713d0)"><g mask="url(#7a7a02ad03)"><g transform="matrix(1, 0, 0, 1, 6, 13)"><g clip-path="url(#bb5c8f10ca)"><g clip-path="url(#d7dc26aa21)"><path fill="#1e1e1e" d="M 95.371094 0.96875 L 11.644531 0.96875 C 11.5 0.96875 11.382812 0.800781 11.382812 0.59375 C 11.382812 0.386719 11.5 0.21875 11.644531 0.21875 L 95.371094 0.21875 C 95.519531 0.21875 95.636719 0.386719 95.636719 0.59375 C 95.636719 0.800781 95.519531 0.96875 95.371094 0.96875 " fill-opacity="1" fill-rule="nonzero"/></g></g></g></g></g><g mask="url(#db8e198324)"><g transform="matrix(1, 0, 0, 1, 92, -0.000000000000000624)"><g clip-path="url(#45649bc7b7)"><g clip-path="url(#36a3cde77a)"><path fill="#1e1e1e" d="M 1.773438 10.625 L 1.773438 94.351562 C 1.773438 94.496094 1.605469 94.617188 1.398438 94.617188 C 1.191406 94.617188 1.023438 94.496094 1.023438 94.351562 L 1.023438 10.625 C 1.023438 10.480469 1.191406 10.359375 1.398438 10.359375 C 1.605469 10.359375 1.773438 10.480469 1.773438 10.625 " fill-opacity="1" fill-rule="nonzero"/></g></g></g></g></svg>