<svg xmlns="http://www.w3.org/2000/svg" xmlns:xlink="http://www.w3.org/1999/xlink" width="40" zoomAndPan="magnify" viewBox="0 0 30 30.000001" height="40" preserveAspectRatio="xMidYMid meet" version="1.0"><defs><clipPath id="04bcad895e"><path d="M 0.496094 1.46875 L 29.503906 1.46875 L 29.503906 27.597656 L 0.496094 27.597656 Z M 0.496094 1.46875 " clip-rule="nonzero"/></clipPath><clipPath id="59d87cf1f8"><path d="M 14 25 L 16 25 L 16 27.597656 L 14 27.597656 Z M 14 25 " clip-rule="nonzero"/></clipPath></defs><g clip-path="url(#04bcad895e)"><path fill="#d7ae54" d="M 29.140625 17.71875 C 29.078125 17.84375 28.992188 17.933594 28.851562 17.953125 C 28.699219 17.972656 28.546875 17.992188 28.394531 17.992188 C 27.132812 17.984375 25.871094 17.96875 24.609375 17.960938 C 23.890625 17.957031 23.167969 17.957031 22.449219 17.957031 C 22.394531 17.957031 22.335938 17.957031 22.257812 17.957031 C 22.398438 17.378906 22.378906 16.800781 22.414062 16.21875 C 22.484375 16.21875 22.546875 16.21875 22.609375 16.21875 C 24.253906 16.226562 25.898438 16.230469 27.542969 16.234375 C 27.820312 16.238281 28.101562 16.226562 28.378906 16.253906 C 28.550781 16.269531 28.714844 16.339844 28.878906 16.402344 C 29.015625 16.457031 29.09375 16.585938 29.148438 16.714844 C 29.289062 17.046875 29.308594 17.382812 29.140625 17.71875 Z M 28.28125 18.421875 C 28.25 18.71875 28.226562 19.019531 28.1875 19.316406 C 28.132812 19.769531 28.074219 20.21875 28.007812 20.667969 C 27.953125 21.046875 27.742188 21.300781 27.386719 21.4375 C 27.042969 21.566406 26.6875 21.621094 26.324219 21.628906 C 26.304688 21.628906 26.285156 21.625 26.257812 21.621094 C 26.257812 21.464844 26.265625 21.308594 26.15625 21.15625 C 26.027344 21.296875 26.046875 21.46875 26.015625 21.628906 C 25.871094 21.628906 25.726562 21.640625 25.582031 21.628906 C 25.222656 21.59375 24.863281 21.554688 24.507812 21.511719 C 24.152344 21.464844 23.96875 21.238281 23.914062 20.90625 C 23.851562 20.523438 23.792969 20.136719 23.761719 19.75 C 23.722656 19.308594 23.714844 18.863281 23.699219 18.417969 C 23.695312 18.367188 23.695312 18.316406 23.695312 18.257812 C 24.03125 18.257812 24.347656 18.257812 24.6875 18.257812 C 24.679688 18.320312 24.675781 18.359375 24.667969 18.398438 C 24.632812 18.589844 24.640625 18.78125 24.660156 18.972656 C 24.664062 19.003906 24.671875 19.03125 24.683594 19.0625 C 24.703125 19.113281 24.738281 19.148438 24.800781 19.144531 C 24.859375 19.144531 24.890625 19.101562 24.902344 19.046875 C 24.941406 18.84375 24.949219 18.636719 24.921875 18.429688 C 24.914062 18.378906 24.910156 18.328125 24.902344 18.265625 C 25.3125 18.265625 25.710938 18.265625 26.105469 18.265625 C 26.105469 18.394531 26.105469 18.511719 26.105469 18.628906 C 26.109375 18.804688 26.113281 18.980469 26.117188 19.15625 C 26.117188 19.175781 26.117188 19.203125 26.128906 19.214844 C 26.152344 19.246094 26.183594 19.292969 26.210938 19.292969 C 26.25 19.292969 26.304688 19.261719 26.320312 19.230469 C 26.347656 19.171875 26.359375 19.101562 26.363281 19.035156 C 26.367188 18.785156 26.363281 18.539062 26.363281 18.269531 C 26.6875 18.25 27.027344 18.261719 27.390625 18.257812 C 27.386719 18.351562 27.378906 18.429688 27.375 18.511719 C 27.371094 18.652344 27.367188 18.789062 27.363281 18.929688 C 27.363281 18.949219 27.367188 18.972656 27.371094 18.992188 C 27.382812 19.050781 27.40625 19.105469 27.476562 19.105469 C 27.550781 19.109375 27.574219 19.058594 27.585938 18.996094 C 27.617188 18.8125 27.648438 18.628906 27.621094 18.441406 C 27.613281 18.390625 27.609375 18.339844 27.605469 18.265625 C 27.835938 18.28125 28.054688 18.292969 28.28125 18.304688 C 28.28125 18.351562 28.285156 18.386719 28.28125 18.421875 Z M 21.917969 15.789062 C 21.867188 15.855469 21.8125 15.863281 21.742188 15.863281 C 20.894531 15.855469 20.046875 15.847656 19.199219 15.84375 C 17.296875 15.828125 15.390625 15.8125 13.488281 15.796875 C 11.730469 15.78125 9.96875 15.765625 8.210938 15.75 C 8.191406 15.75 8.171875 15.75 8.144531 15.75 C 7.957031 15.460938 7.796875 15.460938 7.585938 15.734375 C 7.386719 15.734375 7.1875 15.738281 6.984375 15.734375 C 6.949219 15.734375 6.90625 15.710938 6.875 15.6875 C 6.820312 15.644531 6.761719 15.597656 6.714844 15.542969 C 6.371094 15.140625 6.027344 14.738281 5.683594 14.339844 C 5.621094 14.265625 5.605469 14.195312 5.621094 14.101562 C 5.726562 13.402344 5.328125 12.710938 4.671875 12.460938 C 4.578125 12.425781 4.53125 12.371094 4.492188 12.285156 C 4.105469 11.402344 3.960938 10.480469 4.042969 9.523438 C 4.128906 8.558594 4.5625 7.765625 5.261719 7.113281 C 5.3125 7.066406 5.382812 7.03125 5.449219 7.011719 C 5.96875 6.851562 6.484375 6.679688 7.007812 6.546875 C 8.09375 6.265625 9.195312 6.101562 10.304688 5.976562 C 12.101562 5.773438 13.90625 5.695312 15.710938 5.742188 C 16.570312 5.765625 17.429688 5.816406 18.285156 5.886719 C 19.046875 5.949219 19.808594 6.035156 20.5625 6.144531 C 21.929688 6.347656 23.273438 6.660156 24.582031 7.113281 C 24.863281 7.207031 25.066406 7.363281 25.242188 7.589844 C 25.796875 8.300781 26.039062 9.109375 26.039062 10.003906 C 26.035156 10.789062 25.882812 11.539062 25.578125 12.257812 C 25.539062 12.355469 25.484375 12.414062 25.378906 12.453125 C 24.71875 12.6875 24.308594 13.402344 24.429688 14.101562 C 24.445312 14.195312 24.433594 14.269531 24.375 14.34375 C 24.03125 14.773438 23.675781 15.191406 23.273438 15.566406 C 23.191406 15.644531 23.113281 15.726562 23.035156 15.8125 C 22.996094 15.859375 22.949219 15.878906 22.886719 15.875 C 22.753906 15.871094 22.617188 15.871094 22.484375 15.871094 C 22.417969 15.875 22.375 15.851562 22.328125 15.796875 C 22.203125 15.648438 22.03125 15.644531 21.917969 15.789062 Z M 21.792969 17.949219 C 21.746094 17.953125 21.703125 17.957031 21.65625 17.957031 C 20.695312 17.953125 19.734375 17.949219 18.773438 17.949219 C 18.6875 17.949219 18.632812 17.921875 18.582031 17.851562 C 18.1875 17.285156 17.6875 16.832031 17.109375 16.464844 C 16.945312 16.359375 16.769531 16.277344 16.597656 16.183594 C 16.597656 16.179688 16.597656 16.171875 16.597656 16.164062 C 18.34375 16.183594 20.089844 16.203125 21.851562 16.21875 C 21.859375 16.796875 21.871094 17.371094 21.792969 17.949219 Z M 17.210938 17.933594 C 17.132812 17.257812 16.808594 16.730469 16.269531 16.332031 C 16.277344 16.320312 16.285156 16.3125 16.292969 16.304688 C 16.363281 16.328125 16.433594 16.351562 16.503906 16.382812 C 16.757812 16.5 16.988281 16.652344 17.207031 16.828125 C 17.5625 17.113281 17.890625 17.429688 18.171875 17.792969 C 18.203125 17.832031 18.230469 17.875 18.273438 17.933594 C 17.902344 17.933594 17.5625 17.933594 17.210938 17.933594 Z M 16.089844 17.929688 C 16.117188 17.363281 16.128906 16.808594 15.847656 16.292969 C 16.371094 16.449219 16.964844 17.304688 16.984375 17.929688 C 16.683594 17.929688 16.394531 17.929688 16.089844 17.929688 Z M 15.832031 17.921875 C 15.464844 17.921875 15.105469 17.921875 14.722656 17.921875 C 14.75 17.863281 14.773438 17.816406 14.796875 17.769531 C 14.96875 17.453125 15.109375 17.125 15.167969 16.769531 C 15.195312 16.59375 15.214844 16.414062 15.238281 16.21875 C 15.265625 16.21875 15.304688 16.222656 15.34375 16.214844 C 15.535156 16.175781 15.628906 16.285156 15.695312 16.4375 C 15.785156 16.632812 15.832031 16.839844 15.851562 17.050781 C 15.875 17.339844 15.882812 17.628906 15.832031 17.921875 Z M 14.398438 17.917969 C 14.109375 17.917969 13.828125 17.917969 13.539062 17.917969 C 13.832031 17.421875 14.738281 16.210938 15.007812 16.160156 C 15.078125 16.445312 14.734375 17.4375 14.398438 17.917969 Z M 13.226562 17.820312 C 13.171875 17.902344 13.105469 17.929688 13.007812 17.925781 C 11.855469 17.921875 10.703125 17.917969 9.550781 17.914062 C 9.136719 17.914062 8.722656 17.914062 8.308594 17.910156 C 8.257812 17.910156 8.207031 17.90625 8.15625 17.902344 C 8.15625 17.292969 8.15625 16.703125 8.15625 16.117188 C 8.300781 16.082031 14.238281 16.125 14.613281 16.160156 C 14.605469 16.179688 14.597656 16.199219 14.585938 16.210938 C 14.261719 16.488281 13.992188 16.8125 13.730469 17.148438 C 13.5625 17.371094 13.390625 17.59375 13.226562 17.820312 Z M 7.371094 17.90625 C 5.453125 17.902344 3.535156 17.902344 1.613281 17.898438 C 1.523438 17.898438 1.425781 17.902344 1.339844 17.878906 C 1.039062 17.792969 0.914062 17.558594 0.878906 17.277344 C 0.839844 16.960938 0.90625 16.65625 1.042969 16.371094 C 1.078125 16.289062 1.132812 16.238281 1.210938 16.199219 C 1.484375 16.070312 1.769531 16.015625 2.070312 16.019531 C 3.058594 16.035156 4.046875 16.046875 5.035156 16.058594 C 5.800781 16.066406 6.566406 16.074219 7.332031 16.085938 C 7.386719 16.085938 7.441406 16.085938 7.507812 16.085938 C 7.445312 16.707031 7.507812 17.292969 7.539062 17.898438 C 7.480469 17.902344 7.425781 17.90625 7.371094 17.90625 Z M 6.242188 20.796875 C 6.214844 20.929688 6.167969 21.058594 6.117188 21.179688 C 6.0625 21.308594 5.960938 21.402344 5.824219 21.4375 C 5.648438 21.484375 5.472656 21.527344 5.292969 21.546875 C 4.945312 21.582031 4.59375 21.601562 4.242188 21.625 C 4.203125 21.628906 4.164062 21.621094 4.109375 21.617188 C 4.097656 21.449219 4.105469 21.289062 3.992188 21.148438 C 3.855469 21.28125 3.890625 21.449219 3.875 21.613281 C 3.75 21.609375 3.632812 21.609375 3.515625 21.597656 C 3.242188 21.570312 2.976562 21.515625 2.71875 21.410156 C 2.40625 21.28125 2.199219 21.050781 2.140625 20.714844 C 2.070312 20.304688 2.015625 19.894531 1.964844 19.484375 C 1.917969 19.085938 1.878906 18.683594 1.839844 18.28125 C 1.835938 18.261719 1.839844 18.242188 1.839844 18.214844 C 2.070312 18.214844 2.292969 18.214844 2.511719 18.214844 C 2.511719 18.347656 2.507812 18.472656 2.511719 18.59375 C 2.519531 18.71875 2.535156 18.839844 2.546875 18.964844 C 2.554688 19.03125 2.578125 19.089844 2.65625 19.089844 C 2.722656 19.09375 2.765625 19.042969 2.765625 18.945312 C 2.765625 18.75 2.757812 18.554688 2.75 18.355469 C 2.75 18.316406 2.742188 18.277344 2.734375 18.210938 C 3.089844 18.207031 3.4375 18.207031 3.792969 18.210938 C 3.78125 18.40625 3.765625 18.585938 3.765625 18.765625 C 3.761719 18.890625 3.777344 19.011719 3.789062 19.136719 C 3.792969 19.164062 3.800781 19.203125 3.820312 19.222656 C 3.847656 19.25 3.890625 19.289062 3.917969 19.28125 C 3.953125 19.273438 4.003906 19.226562 4.007812 19.195312 C 4.023438 19.03125 4.039062 18.863281 4.039062 18.699219 C 4.039062 18.542969 4.019531 18.390625 4.007812 18.234375 C 4.113281 18.203125 5 18.195312 5.234375 18.226562 C 5.230469 18.292969 5.226562 18.363281 5.214844 18.433594 C 5.175781 18.609375 5.203125 18.785156 5.21875 18.960938 C 5.234375 19.078125 5.273438 19.132812 5.339844 19.132812 C 5.40625 19.136719 5.460938 19.082031 5.46875 18.96875 C 5.480469 18.796875 5.476562 18.621094 5.472656 18.445312 C 5.472656 18.375 5.457031 18.300781 5.445312 18.21875 C 5.773438 18.21875 6.089844 18.21875 6.417969 18.21875 C 6.421875 18.25 6.433594 18.28125 6.433594 18.308594 C 6.4375 19.144531 6.394531 19.976562 6.242188 20.796875 Z M 4.164062 12.546875 C 4.875 12.566406 5.425781 13.136719 5.410156 13.84375 C 5.414062 14.507812 4.855469 15.160156 4.066406 15.128906 C 3.367188 15.105469 2.8125 14.515625 2.828125 13.796875 C 2.84375 13.09375 3.445312 12.53125 4.164062 12.546875 Z M 1.316406 13.101562 C 1.398438 12.699219 1.496094 12.300781 1.644531 11.917969 C 1.867188 11.363281 2.191406 10.886719 2.699219 10.554688 C 2.945312 10.390625 3.210938 10.277344 3.511719 10.277344 C 3.546875 10.277344 3.582031 10.277344 3.636719 10.277344 C 3.671875 10.988281 3.808594 11.675781 4.082031 12.34375 C 3.160156 12.441406 2.726562 13.082031 2.652344 13.695312 C 2.578125 14.289062 2.882812 14.914062 3.488281 15.210938 C 3.992188 15.460938 4.804688 15.476562 5.417969 14.683594 C 5.714844 15.019531 6.007812 15.355469 6.300781 15.691406 C 6.296875 15.703125 6.296875 15.707031 6.292969 15.714844 C 6.289062 15.714844 6.285156 15.722656 6.28125 15.722656 C 4.621094 15.71875 2.960938 15.714844 1.300781 15.707031 C 1.277344 15.707031 1.25 15.699219 1.210938 15.691406 C 1.191406 15.507812 1.164062 15.324219 1.152344 15.136719 C 1.09375 14.449219 1.179688 13.773438 1.316406 13.101562 Z M 7.011719 6.140625 C 7.757812 5.898438 8.523438 5.71875 9.300781 5.605469 C 10.152344 5.488281 11.003906 5.378906 11.855469 5.277344 C 12.261719 5.230469 12.671875 5.203125 13.078125 5.179688 C 13.667969 5.144531 14.253906 5.109375 14.84375 5.101562 C 15.601562 5.085938 16.355469 5.121094 17.109375 5.191406 C 17.539062 5.234375 17.976562 5.25 18.40625 5.300781 C 19.160156 5.386719 19.914062 5.484375 20.667969 5.589844 C 21.335938 5.683594 21.988281 5.832031 22.636719 6.015625 C 23.210938 6.175781 23.769531 6.378906 24.273438 6.707031 C 24.316406 6.734375 24.359375 6.761719 24.390625 6.816406 C 24.296875 6.785156 24.207031 6.753906 24.117188 6.726562 C 23.042969 6.367188 21.941406 6.125 20.828125 5.957031 C 20.035156 5.835938 19.242188 5.726562 18.441406 5.648438 C 16.867188 5.492188 15.285156 5.4375 13.699219 5.484375 C 12.949219 5.503906 12.199219 5.53125 11.453125 5.585938 C 10.140625 5.683594 8.839844 5.855469 7.554688 6.140625 C 7.164062 6.226562 6.78125 6.328125 6.394531 6.425781 C 6.363281 6.433594 6.332031 6.4375 6.296875 6.445312 C 6.296875 6.4375 6.292969 6.425781 6.289062 6.414062 C 6.527344 6.324219 6.765625 6.222656 7.011719 6.140625 Z M 22.417969 5.546875 C 22.21875 5.503906 22.027344 5.457031 21.839844 5.414062 C 21.15625 5.261719 20.46875 5.15625 19.773438 5.074219 C 19.308594 5.023438 18.839844 4.960938 18.371094 4.921875 C 17.769531 4.871094 17.164062 4.839844 16.5625 4.800781 C 16.207031 4.777344 15.847656 4.757812 15.492188 4.730469 C 15.007812 4.691406 14.523438 4.710938 14.035156 4.746094 C 13.335938 4.796875 12.632812 4.839844 11.933594 4.898438 C 11.433594 4.9375 10.933594 4.992188 10.4375 5.054688 C 9.835938 5.136719 9.238281 5.21875 8.644531 5.332031 C 8.140625 5.425781 7.648438 5.566406 7.152344 5.6875 C 7.09375 5.703125 7.035156 5.71875 6.953125 5.742188 C 7.082031 4.859375 7.257812 4.003906 7.480469 3.160156 C 7.847656 3.105469 8.203125 3.046875 8.5625 3 C 9.082031 2.925781 9.605469 2.851562 10.128906 2.796875 C 10.699219 2.738281 11.273438 2.691406 11.84375 2.65625 C 12.707031 2.609375 13.570312 2.570312 14.433594 2.539062 C 15.324219 2.503906 16.210938 2.507812 17.101562 2.554688 C 18.085938 2.605469 19.054688 2.738281 20.019531 2.945312 C 20.695312 3.089844 21.371094 3.234375 22.050781 3.378906 C 22.09375 3.386719 22.140625 3.402344 22.203125 3.417969 C 22.28125 4.125 22.410156 4.824219 22.417969 5.546875 Z M 7.0625 2.730469 C 7.5625 2.589844 8.070312 2.441406 8.582031 2.316406 C 9.308594 2.136719 10.050781 2.019531 10.792969 1.933594 C 11.667969 1.828125 12.542969 1.765625 13.421875 1.738281 C 14.328125 1.707031 15.234375 1.714844 16.136719 1.757812 C 17.375 1.8125 18.601562 1.9375 19.824219 2.128906 C 20.78125 2.277344 21.726562 2.472656 22.664062 2.71875 C 22.703125 2.730469 22.742188 2.742188 22.792969 2.757812 C 22.867188 3.246094 22.953125 3.738281 22.980469 4.230469 C 23.007812 4.722656 23.015625 5.210938 23.035156 5.722656 C 22.878906 5.679688 22.75 5.640625 22.640625 5.609375 C 22.613281 5.246094 22.59375 4.90625 22.558594 4.566406 C 22.53125 4.277344 22.496094 3.992188 22.449219 3.703125 C 22.429688 3.578125 22.382812 3.457031 22.351562 3.332031 C 22.332031 3.246094 22.277344 3.199219 22.191406 3.179688 C 21.953125 3.121094 21.714844 3.050781 21.46875 3.003906 C 20.695312 2.84375 19.921875 2.6875 19.144531 2.542969 C 18.488281 2.425781 17.820312 2.363281 17.15625 2.328125 C 16.296875 2.28125 15.4375 2.261719 14.578125 2.300781 C 13.769531 2.339844 12.957031 2.363281 12.144531 2.410156 C 11.148438 2.46875 10.15625 2.546875 9.167969 2.707031 C 8.597656 2.800781 8.027344 2.898438 7.457031 2.988281 C 7.390625 3 7.367188 3.039062 7.347656 3.085938 C 7.269531 3.308594 7.175781 3.53125 7.117188 3.761719 C 6.945312 4.433594 6.800781 5.109375 6.738281 5.820312 C 6.597656 5.875 6.464844 5.929688 6.316406 5.984375 C 6.507812 4.886719 6.800781 3.820312 7.0625 2.730469 Z M 24.59375 13.800781 C 24.609375 13.09375 25.207031 12.53125 25.925781 12.546875 C 26.636719 12.5625 27.191406 13.136719 27.175781 13.839844 C 27.183594 14.507812 26.621094 15.160156 25.832031 15.128906 C 25.136719 15.105469 24.578125 14.515625 24.59375 13.800781 Z M 26.417969 10.28125 C 26.640625 10.269531 26.847656 10.292969 27.042969 10.382812 C 27.542969 10.609375 27.914062 10.972656 28.183594 11.441406 C 28.421875 11.855469 28.5625 12.304688 28.667969 12.765625 C 28.8125 13.390625 28.925781 14.023438 28.921875 14.671875 C 28.917969 14.992188 28.878906 15.308594 28.851562 15.628906 C 28.839844 15.804688 28.730469 15.898438 28.578125 15.949219 C 28.515625 15.96875 28.445312 15.980469 28.378906 15.976562 C 26.910156 15.949219 25.441406 15.914062 23.976562 15.882812 C 23.867188 15.882812 23.757812 15.882812 23.648438 15.882812 C 23.640625 15.871094 23.632812 15.859375 23.625 15.84375 C 23.960938 15.460938 24.296875 15.078125 24.640625 14.679688 C 24.675781 14.726562 24.710938 14.765625 24.746094 14.808594 C 25.390625 15.59375 26.59375 15.53125 27.160156 14.691406 C 27.6875 13.898438 27.320312 12.78125 26.421875 12.453125 C 26.285156 12.40625 26.144531 12.378906 25.984375 12.335938 C 26.246094 11.683594 26.390625 11 26.417969 10.28125 Z M 24.539062 23.964844 C 24.679688 23.9375 24.824219 23.910156 24.964844 23.882812 C 25.007812 23.875 25.054688 23.871094 25.101562 23.867188 C 24.945312 24.023438 24.824219 24.179688 24.75 24.371094 C 24.71875 24.449219 24.65625 24.449219 24.597656 24.457031 C 24.296875 24.5 23.996094 24.539062 23.695312 24.582031 C 23.519531 24.609375 23.339844 24.640625 23.152344 24.671875 C 23.164062 24.488281 23.242188 24.339844 23.351562 24.210938 C 23.386719 24.175781 23.449219 24.15625 23.503906 24.148438 C 23.847656 24.082031 24.195312 24.023438 24.539062 23.964844 Z M 26.113281 24.144531 C 26.25 24.34375 26.296875 24.492188 26.304688 24.8125 C 26.332031 25.066406 26.214844 25.300781 25.992188 25.480469 C 25.757812 25.671875 25.519531 25.699219 25.277344 25.496094 C 24.933594 25.207031 24.722656 24.640625 25.121094 24.121094 C 25.402344 23.753906 25.847656 23.769531 26.113281 24.144531 Z M 25.125 25.726562 C 24.628906 25.753906 24.132812 25.777344 23.640625 25.804688 C 23.632812 25.804688 23.628906 25.804688 23.625 25.804688 C 23.382812 25.804688 23.34375 25.773438 23.257812 25.523438 C 23.78125 25.421875 24.3125 25.410156 24.828125 25.339844 C 24.945312 25.464844 25.058594 25.582031 25.179688 25.707031 C 25.160156 25.714844 25.140625 25.726562 25.125 25.726562 Z M 23.183594 25.378906 C 23.089844 25.207031 23.078125 25.027344 23.113281 24.847656 C 23.636719 24.765625 24.15625 24.683594 24.664062 24.601562 C 24.695312 24.800781 24.726562 25 24.761719 25.214844 C 24.242188 25.238281 23.710938 25.253906 23.183594 25.378906 Z M 19.523438 24.660156 C 19.5625 24.699219 19.597656 24.742188 19.640625 24.757812 C 19.679688 24.773438 19.738281 24.769531 19.769531 24.75 C 19.8125 24.722656 19.808594 24.667969 19.777344 24.625 C 19.738281 24.570312 19.695312 24.519531 19.652344 24.464844 C 19.582031 24.378906 19.511719 24.289062 19.429688 24.191406 C 19.507812 24.152344 19.570312 24.121094 19.636719 24.085938 C 19.742188 24.246094 19.839844 24.398438 19.945312 24.546875 C 20.054688 24.691406 20.171875 24.828125 20.289062 24.976562 C 20.070312 25.054688 19.898438 25.175781 19.777344 25.367188 C 19.527344 25.082031 19.285156 24.8125 19.039062 24.53125 C 19.09375 24.46875 19.152344 24.410156 19.21875 24.335938 C 19.328125 24.453125 19.425781 24.558594 19.523438 24.660156 Z M 20.011719 24.109375 C 20.210938 24.339844 20.414062 24.570312 20.613281 24.796875 C 20.644531 24.835938 20.675781 24.875 20.726562 24.941406 C 20.621094 24.941406 20.546875 24.941406 20.464844 24.941406 C 20.226562 24.65625 19.984375 24.363281 19.738281 24.066406 C 19.910156 23.992188 19.910156 23.992188 20.011719 24.109375 Z M 21.09375 25.960938 C 21 26.109375 20.871094 26.214844 20.714844 26.292969 C 20.289062 26.496094 19.804688 26.105469 19.835938 25.71875 C 19.824219 25.589844 19.875 25.480469 19.949219 25.375 C 20.109375 25.140625 20.351562 25.054688 20.617188 25.054688 C 21.023438 25.0625 21.34375 25.578125 21.09375 25.960938 Z M 19.664062 25.894531 C 19.371094 25.53125 19.097656 25.195312 18.820312 24.851562 C 18.871094 24.769531 18.921875 24.691406 18.976562 24.601562 C 19.226562 24.90625 19.464844 25.199219 19.707031 25.492188 C 19.695312 25.609375 19.679688 25.734375 19.664062 25.894531 Z M 16.515625 25.398438 C 16.664062 25.382812 16.777344 25.417969 16.875 25.53125 C 16.949219 25.617188 17.015625 25.703125 17.058594 25.808594 C 16.734375 25.847656 16.425781 25.886719 16.113281 25.921875 C 15.933594 25.945312 15.753906 25.96875 15.574219 25.984375 C 15.535156 25.988281 15.472656 25.980469 15.449219 25.953125 C 15.316406 25.785156 15.15625 25.652344 14.960938 25.542969 C 15.015625 25.539062 15.070312 25.527344 15.125 25.523438 C 15.589844 25.480469 16.054688 25.445312 16.515625 25.398438 Z M 17.140625 25.976562 C 17.222656 26.132812 17.25 26.308594 17.21875 26.503906 C 16.683594 26.527344 16.160156 26.636719 15.625 26.765625 C 15.625 26.65625 15.632812 26.554688 15.621094 26.457031 C 15.609375 26.355469 15.582031 26.253906 15.5625 26.144531 C 16.082031 26.089844 16.601562 26.035156 17.140625 25.976562 Z M 17.105469 26.933594 C 17.082031 26.96875 17.023438 26.996094 16.976562 27.007812 C 16.773438 27.0625 16.566406 27.113281 16.359375 27.15625 C 16.0625 27.222656 15.761719 27.277344 15.464844 27.339844 C 15.433594 27.34375 15.398438 27.347656 15.359375 27.351562 C 15.445312 27.199219 15.523438 27.054688 15.609375 26.894531 C 16.113281 26.816406 16.636719 26.734375 17.175781 26.652344 C 17.183594 26.769531 17.148438 26.855469 17.105469 26.933594 Z M 15.203125 27.179688 C 15.039062 27.394531 14.839844 27.460938 14.585938 27.363281 C 14.320312 27.261719 14.132812 27.085938 14.054688 26.800781 C 13.984375 26.542969 13.96875 26.292969 14.074219 26.039062 C 14.140625 25.882812 14.242188 25.757812 14.402344 25.6875 C 14.59375 25.605469 14.777344 25.644531 14.9375 25.746094 C 15.230469 25.933594 15.398438 26.199219 15.40625 26.550781 C 15.398438 26.785156 15.34375 26.996094 15.203125 27.179688 Z M 10.71875 24.808594 C 10.714844 24.816406 10.710938 24.824219 10.707031 24.832031 C 10.617188 24.796875 10.527344 24.765625 10.429688 24.726562 C 10.453125 24.679688 10.46875 24.640625 10.492188 24.597656 C 10.503906 24.570312 10.519531 24.546875 10.542969 24.496094 C 10.609375 24.613281 10.664062 24.710938 10.71875 24.808594 Z M 10.902344 25.628906 C 10.902344 26.066406 10.515625 26.488281 10.117188 26.476562 C 9.621094 26.460938 9.269531 26.046875 9.277344 25.664062 C 9.285156 25.289062 9.59375 24.863281 10.101562 24.863281 C 10.539062 24.867188 10.902344 25.210938 10.902344 25.628906 Z M 8.75 24.011719 C 8.820312 23.960938 8.898438 23.90625 8.980469 23.851562 C 9.105469 24.246094 9.226562 24.628906 9.355469 25.035156 C 9.292969 25.121094 9.21875 25.222656 9.140625 25.332031 C 9.007812 24.886719 8.882812 24.457031 8.75 24.011719 Z M 9.566406 23.625 C 9.667969 23.984375 9.773438 24.34375 9.878906 24.710938 C 9.75 24.773438 9.617188 24.835938 9.484375 24.902344 C 9.359375 24.53125 9.234375 24.160156 9.109375 23.785156 C 9.246094 23.695312 9.390625 23.652344 9.566406 23.625 Z M 10.148438 23.714844 C 10.164062 23.71875 10.179688 23.738281 10.191406 23.753906 C 10.203125 23.769531 10.207031 23.789062 10.214844 23.808594 C 10.265625 23.925781 10.351562 24.042969 10.359375 24.164062 C 10.363281 24.285156 10.289062 24.40625 10.25 24.53125 C 10.234375 24.582031 10.21875 24.636719 10.199219 24.699219 C 10.152344 24.699219 10.101562 24.699219 10.070312 24.699219 C 9.941406 24.339844 9.8125 23.988281 9.683594 23.628906 C 9.855469 23.609375 10 23.671875 10.148438 23.714844 Z M 7.429688 24.375 C 7.574219 24.359375 7.6875 24.386719 7.789062 24.5 C 7.863281 24.585938 7.929688 24.671875 7.980469 24.78125 C 7.519531 24.835938 7.082031 24.890625 6.640625 24.941406 C 6.578125 24.949219 6.515625 24.960938 6.453125 24.960938 C 6.421875 24.957031 6.382812 24.945312 6.363281 24.921875 C 6.230469 24.75 6.066406 24.625 5.839844 24.523438 C 5.933594 24.511719 5.996094 24.5 6.054688 24.496094 C 6.511719 24.453125 6.972656 24.417969 7.429688 24.375 Z M 8.058594 24.949219 C 8.144531 25.105469 8.160156 25.28125 8.132812 25.476562 C 7.59375 25.5 7.070312 25.613281 6.558594 25.734375 C 6.539062 25.523438 6.519531 25.324219 6.496094 25.117188 C 7.003906 25.0625 7.527344 25.007812 8.058594 24.949219 Z M 8.097656 25.675781 C 8.082031 25.875 7.980469 25.980469 7.773438 26.019531 C 7.292969 26.109375 6.816406 26.21875 6.335938 26.320312 C 6.320312 26.324219 6.304688 26.324219 6.28125 26.324219 C 6.363281 26.171875 6.441406 26.027344 6.527344 25.871094 C 7.039062 25.804688 7.554688 25.679688 8.09375 25.640625 C 8.097656 25.664062 8.097656 25.667969 8.097656 25.675781 Z M 6.035156 26.253906 C 5.949219 26.339844 5.84375 26.378906 5.722656 26.375 C 5.433594 26.359375 5.199219 26.230469 5.0625 25.980469 C 4.890625 25.675781 4.855469 25.34375 4.996094 25.007812 C 5.058594 24.859375 5.152344 24.746094 5.300781 24.671875 C 5.5 24.574219 5.691406 24.613281 5.859375 24.722656 C 6.460938 25.109375 6.4375 25.835938 6.035156 26.253906 Z M 29.484375 17.066406 C 29.425781 16.757812 29.335938 16.460938 29.148438 16.203125 C 29.117188 16.160156 29.101562 16.121094 29.121094 16.0625 C 29.277344 15.574219 29.3125 15.066406 29.296875 14.558594 C 29.28125 13.964844 29.1875 13.382812 29.058594 12.804688 C 28.949219 12.3125 28.804688 11.832031 28.5625 11.386719 C 28.28125 10.871094 27.898438 10.453125 27.378906 10.167969 C 27.097656 10.011719 26.800781 9.9375 26.484375 10.019531 C 26.46875 10.023438 26.453125 10.019531 26.417969 10.015625 C 26.417969 9.933594 26.421875 9.851562 26.417969 9.769531 C 26.414062 9.6875 26.40625 9.601562 26.402344 9.519531 C 26.3125 8.453125 25.851562 7.566406 25.074219 6.84375 C 24.589844 6.390625 24.023438 6.078125 23.402344 5.855469 C 23.351562 5.835938 23.300781 5.8125 23.253906 5.796875 C 23.265625 5.597656 23.28125 5.410156 23.28125 5.226562 C 23.289062 4.734375 23.25 4.242188 23.1875 3.753906 C 23.140625 3.375 23.082031 2.996094 22.96875 2.628906 C 22.953125 2.585938 22.914062 2.542969 22.875 2.515625 C 22.839844 2.492188 22.789062 2.484375 22.742188 2.472656 C 21.875 2.253906 21 2.078125 20.117188 1.929688 C 19.125 1.765625 18.132812 1.648438 17.128906 1.570312 C 15.96875 1.484375 14.804688 1.441406 13.640625 1.488281 C 13.066406 1.515625 12.492188 1.546875 11.921875 1.59375 C 11.449219 1.632812 10.976562 1.695312 10.503906 1.753906 C 9.773438 1.839844 9.046875 1.941406 8.335938 2.121094 C 7.9375 2.222656 7.546875 2.332031 7.164062 2.476562 C 6.996094 2.542969 6.902344 2.648438 6.859375 2.8125 C 6.714844 3.324219 6.550781 3.835938 6.425781 4.351562 C 6.292969 4.90625 6.191406 5.464844 6.082031 6.023438 C 6.070312 6.09375 6.035156 6.117188 5.984375 6.148438 C 5.800781 6.257812 5.613281 6.355469 5.441406 6.480469 C 4.402344 7.21875 3.785156 8.214844 3.660156 9.496094 C 3.644531 9.667969 3.636719 9.84375 3.625 10.023438 C 3.554688 10.011719 3.496094 10.003906 3.433594 9.996094 C 3.140625 9.953125 2.882812 10.050781 2.636719 10.191406 C 2.09375 10.503906 1.707031 10.960938 1.429688 11.515625 C 1.207031 11.964844 1.078125 12.445312 0.976562 12.929688 C 0.777344 13.878906 0.664062 14.832031 0.863281 15.796875 C 0.878906 15.871094 0.859375 15.925781 0.804688 15.976562 C 0.652344 16.136719 0.539062 16.324219 0.511719 16.546875 C 0.472656 16.917969 0.492188 17.289062 0.640625 17.632812 C 0.78125 17.96875 1.03125 18.191406 1.421875 18.191406 C 1.484375 18.191406 1.546875 18.203125 1.617188 18.207031 C 1.617188 18.285156 1.613281 18.359375 1.617188 18.429688 C 1.648438 18.925781 1.671875 19.421875 1.71875 19.914062 C 1.75 20.214844 1.804688 20.511719 1.867188 20.804688 C 1.953125 21.199219 2.179688 21.503906 2.558594 21.664062 C 2.765625 21.753906 2.984375 21.820312 3.203125 21.875 C 3.539062 21.960938 3.882812 21.960938 4.222656 21.964844 C 4.746094 21.96875 5.265625 21.921875 5.773438 21.792969 C 6.15625 21.691406 6.390625 21.453125 6.496094 21.074219 C 6.65625 20.519531 6.707031 19.945312 6.730469 19.371094 C 6.746094 19.035156 6.734375 18.699219 6.734375 18.359375 C 6.734375 18.316406 6.738281 18.273438 6.742188 18.234375 C 8.792969 18.234375 10.832031 18.234375 12.894531 18.234375 C 12.855469 18.289062 12.839844 18.320312 12.816406 18.347656 C 12.460938 18.800781 12.109375 19.253906 11.753906 19.703125 C 11.433594 20.105469 11.078125 20.476562 10.707031 20.832031 C 10.136719 21.382812 9.503906 21.859375 8.867188 22.328125 C 8.230469 22.800781 7.636719 23.308594 7.152344 23.941406 C 7.085938 24.035156 7.023438 24.144531 6.929688 24.195312 C 6.839844 24.246094 6.710938 24.226562 6.597656 24.246094 C 6.199219 24.316406 5.800781 24.375 5.410156 24.460938 C 5.097656 24.53125 4.902344 24.734375 4.808594 25.046875 C 4.71875 25.347656 4.757812 25.628906 4.84375 25.917969 C 4.941406 26.261719 5.402344 26.601562 5.789062 26.570312 C 5.929688 26.558594 6.066406 26.550781 6.203125 26.527344 C 6.617188 26.453125 7.027344 26.371094 7.4375 26.289062 C 7.625 26.253906 7.8125 26.210938 7.996094 26.160156 C 8.070312 26.136719 8.160156 26.089844 8.195312 26.027344 C 8.335938 25.769531 8.421875 25.488281 8.394531 25.191406 C 8.363281 24.808594 8.160156 24.515625 7.863281 24.28125 C 7.753906 24.195312 7.625 24.160156 7.484375 24.175781 C 7.425781 24.179688 7.363281 24.195312 7.300781 24.15625 C 7.414062 24.035156 7.519531 23.921875 7.628906 23.8125 C 7.886719 23.558594 8.132812 23.289062 8.410156 23.058594 C 8.851562 22.695312 9.316406 22.367188 9.765625 22.019531 C 10.574219 21.402344 11.320312 20.710938 11.964844 19.921875 C 12.386719 19.402344 12.792969 18.871094 13.199219 18.34375 C 13.261719 18.257812 13.328125 18.226562 13.429688 18.230469 C 13.652344 18.234375 13.875 18.230469 14.097656 18.234375 C 14.132812 18.234375 14.164062 18.242188 14.207031 18.25 C 14.171875 18.308594 14.148438 18.355469 14.121094 18.398438 C 13.925781 18.683594 13.738281 18.976562 13.53125 19.253906 C 12.945312 20.042969 12.34375 20.824219 11.761719 21.617188 C 11.246094 22.316406 10.820312 23.066406 10.488281 23.871094 C 10.480469 23.890625 10.464844 23.90625 10.4375 23.945312 C 10.398438 23.851562 10.375 23.78125 10.335938 23.714844 C 10.308594 23.660156 10.269531 23.597656 10.222656 23.574219 C 9.769531 23.347656 9.136719 23.410156 8.742188 23.847656 C 8.644531 23.957031 8.609375 24.070312 8.652344 24.21875 C 8.742188 24.53125 8.816406 24.847656 8.902344 25.164062 C 8.972656 25.425781 9.046875 25.691406 9.121094 25.953125 C 9.285156 26.511719 9.859375 26.761719 10.261719 26.6875 C 10.789062 26.59375 11.1875 26.070312 11.109375 25.539062 C 11.0625 25.234375 11.003906 24.925781 10.84375 24.652344 C 10.789062 24.554688 10.746094 24.457031 10.691406 24.363281 C 10.652344 24.296875 10.652344 24.242188 10.683594 24.175781 C 10.792969 23.953125 10.894531 23.726562 11.003906 23.5 C 11.449219 22.554688 12.03125 21.695312 12.65625 20.855469 C 13.277344 20.019531 13.9375 19.203125 14.484375 18.308594 C 14.523438 18.246094 14.570312 18.234375 14.640625 18.234375 C 14.980469 18.234375 15.320312 18.234375 15.664062 18.234375 C 15.699219 18.234375 15.734375 18.242188 15.773438 18.246094 C 15.769531 18.289062 15.765625 18.324219 15.757812 18.359375 C 15.675781 18.691406 15.601562 19.023438 15.507812 19.351562 C 15.246094 20.257812 14.996094 21.164062 14.894531 22.105469 C 14.820312 22.75 14.839844 23.386719 14.984375 24.019531 C 15.074219 24.417969 15.253906 24.78125 15.414062 25.152344 C 15.433594 25.195312 15.449219 25.242188 15.472656 25.296875 C 15.382812 25.308594 15.3125 25.316406 15.242188 25.332031 C 14.988281 25.382812 14.730469 25.425781 14.480469 25.488281 C 14.175781 25.570312 13.976562 25.769531 13.886719 26.082031 C 13.800781 26.378906 13.839844 26.664062 13.925781 26.953125 C 14.027344 27.285156 14.476562 27.625 14.863281 27.597656 C 15.007812 27.585938 15.152344 27.578125 15.296875 27.550781 C 15.703125 27.476562 16.109375 27.398438 16.511719 27.316406 C 16.707031 27.28125 16.894531 27.234375 17.085938 27.183594 C 17.203125 27.15625 17.289062 27.085938 17.324219 26.964844 C 17.359375 26.859375 17.398438 26.757812 17.425781 26.65625 C 17.566406 26.136719 17.382812 25.625 16.949219 25.308594 C 16.84375 25.230469 16.722656 25.191406 16.589844 25.199219 C 16.40625 25.210938 16.226562 25.21875 16.046875 25.234375 C 15.929688 25.242188 15.8125 25.253906 15.691406 25.265625 C 15.597656 24.996094 15.503906 24.734375 15.421875 24.46875 C 15.230469 23.855469 15.117188 23.230469 15.148438 22.585938 C 15.179688 21.921875 15.296875 21.269531 15.457031 20.625 C 15.601562 20.027344 15.765625 19.433594 15.917969 18.835938 C 15.96875 18.640625 16.003906 18.441406 16.042969 18.25 C 16.246094 18.222656 16.929688 18.230469 17.054688 18.269531 C 17.082031 18.722656 17.113281 19.183594 17.144531 19.640625 C 17.171875 20.148438 17.214844 20.65625 17.328125 21.152344 C 17.488281 21.859375 17.742188 22.535156 18.179688 23.121094 C 18.441406 23.472656 18.746094 23.792969 19.03125 24.128906 C 19.066406 24.167969 19.101562 24.210938 19.136719 24.246094 C 18.996094 24.410156 18.851562 24.546875 18.78125 24.734375 C 18.746094 24.824219 18.75 24.898438 18.804688 24.980469 C 19.113281 25.433594 19.445312 25.859375 19.828125 26.25 C 20.230469 26.660156 20.707031 26.601562 21.070312 26.304688 C 21.449219 25.996094 21.433594 25.542969 21.1875 25.238281 C 20.96875 24.972656 20.738281 24.726562 20.503906 24.472656 C 20.347656 24.300781 20.179688 24.140625 20.023438 23.96875 C 19.960938 23.902344 19.890625 23.886719 19.8125 23.910156 C 19.65625 23.957031 19.503906 24.011719 19.335938 24.070312 C 19.203125 23.910156 19.058594 23.742188 18.917969 23.570312 C 18.699219 23.292969 18.464844 23.027344 18.269531 22.734375 C 17.75 21.957031 17.503906 21.078125 17.417969 20.152344 C 17.382812 19.777344 17.363281 19.398438 17.335938 19.019531 C 17.316406 18.769531 17.292969 18.515625 17.269531 18.238281 C 17.332031 18.238281 17.382812 18.238281 17.433594 18.238281 C 17.726562 18.238281 18.023438 18.242188 18.316406 18.230469 C 18.4375 18.226562 18.507812 18.265625 18.558594 18.375 C 18.777344 18.839844 19.007812 19.296875 19.226562 19.761719 C 19.425781 20.183594 19.640625 20.59375 19.910156 20.976562 C 20.371094 21.628906 20.949219 22.15625 21.589844 22.621094 C 22.230469 23.082031 22.914062 23.46875 23.625 23.808594 C 23.65625 23.824219 23.6875 23.847656 23.742188 23.882812 C 23.625 23.910156 23.53125 23.921875 23.445312 23.957031 C 23.351562 23.992188 23.242188 24.03125 23.179688 24.101562 C 22.910156 24.394531 22.792969 24.75 22.84375 25.144531 C 22.875 25.382812 23.007812 25.578125 23.128906 25.777344 C 23.238281 25.953125 23.386719 26.019531 23.585938 26.007812 C 23.609375 26.007812 23.636719 26.007812 23.664062 26.003906 C 23.976562 25.988281 24.292969 25.980469 24.609375 25.953125 C 24.96875 25.921875 25.328125 25.886719 25.683594 25.828125 C 26.085938 25.757812 26.34375 25.488281 26.4375 25.105469 C 26.535156 24.714844 26.460938 24.332031 26.210938 24 C 26.089844 23.847656 25.9375 23.726562 25.734375 23.710938 C 25.558594 23.699219 25.382812 23.6875 25.210938 23.699219 C 24.945312 23.714844 24.683594 23.742188 24.421875 23.78125 C 24.28125 23.804688 24.15625 23.78125 24.039062 23.710938 C 24 23.691406 23.964844 23.675781 23.929688 23.652344 C 23.429688 23.359375 22.925781 23.074219 22.433594 22.769531 C 22.125 22.578125 21.828125 22.367188 21.539062 22.148438 C 20.722656 21.527344 20.085938 20.757812 19.636719 19.828125 C 19.398438 19.328125 19.144531 18.835938 18.894531 18.339844 C 18.882812 18.3125 18.871094 18.28125 18.855469 18.25 C 20.375 18.25 21.886719 18.25 23.398438 18.25 C 23.402344 18.296875 23.40625 18.324219 23.40625 18.355469 C 23.402344 18.558594 23.382812 18.761719 23.394531 18.960938 C 23.417969 19.421875 23.441406 19.882812 23.488281 20.339844 C 23.519531 20.648438 23.582031 20.957031 23.695312 21.246094 C 23.796875 21.5 23.976562 21.679688 24.238281 21.765625 C 24.378906 21.8125 24.527344 21.847656 24.671875 21.878906 C 25.203125 21.988281 25.742188 21.984375 26.28125 21.96875 C 26.691406 21.957031 27.089844 21.886719 27.476562 21.730469 C 27.929688 21.546875 28.195312 21.214844 28.289062 20.734375 C 28.410156 20.132812 28.464844 19.523438 28.5 18.914062 C 28.511719 18.71875 28.519531 18.523438 28.527344 18.316406 C 28.597656 18.3125 28.660156 18.300781 28.71875 18.304688 C 29.007812 18.316406 29.207031 18.179688 29.335938 17.9375 C 29.480469 17.667969 29.542969 17.371094 29.484375 17.066406 " fill-opacity="1" fill-rule="nonzero"/></g><path fill="#d7ae54" d="M 19.417969 14.1875 C 19.320312 14.203125 19.214844 14.234375 19.097656 14.179688 C 19.097656 14.03125 19.089844 13.875 19.097656 13.722656 C 19.101562 13.5625 19.117188 13.402344 19.132812 13.242188 C 19.160156 12.9375 19.167969 12.632812 19.109375 12.328125 C 19.542969 12.121094 19.957031 11.898438 20.410156 11.769531 C 20.5625 11.730469 20.707031 11.679688 20.855469 11.632812 C 20.984375 11.59375 21.015625 11.546875 20.984375 11.414062 C 20.960938 11.304688 20.925781 11.195312 20.894531 11.085938 C 20.890625 11.0625 20.886719 11.039062 20.882812 11.007812 C 21.335938 11.066406 21.765625 10.976562 22.195312 10.882812 C 22.632812 10.789062 23.066406 10.675781 23.503906 10.566406 C 23.59375 10.542969 23.679688 10.515625 23.78125 10.511719 C 23.734375 10.566406 23.691406 10.621094 23.644531 10.671875 C 23.378906 10.96875 23.105469 11.257812 22.847656 11.5625 C 22.714844 11.71875 22.609375 11.898438 22.496094 12.070312 C 22.46875 12.113281 22.449219 12.164062 22.433594 12.214844 C 22.390625 12.371094 22.433594 12.492188 22.574219 12.574219 C 22.648438 12.621094 22.726562 12.65625 22.808594 12.695312 C 23.078125 12.824219 23.347656 12.949219 23.621094 13.078125 C 23.660156 13.09375 23.699219 13.117188 23.742188 13.140625 C 23.742188 13.152344 23.738281 13.164062 23.738281 13.175781 C 23.378906 13.285156 23.019531 13.402344 22.660156 13.507812 C 21.96875 13.71875 21.257812 13.867188 20.546875 13.992188 C 20.171875 14.058594 19.792969 14.125 19.417969 14.1875 Z M 18.238281 11.777344 C 17.65625 11.890625 17.066406 11.894531 16.476562 11.8125 C 15.855469 11.722656 15.234375 11.609375 14.613281 11.5 C 13.871094 11.375 13.128906 11.269531 12.378906 11.28125 C 11.644531 11.292969 10.910156 11.34375 10.191406 11.519531 C 9.914062 11.585938 9.640625 11.6875 9.351562 11.773438 C 9.375 11.347656 9.417969 10.929688 9.511719 10.519531 C 9.65625 9.894531 9.882812 9.292969 10.074219 8.679688 C 10.136719 8.476562 10.242188 8.382812 10.433594 8.3125 C 11.195312 8.039062 11.980469 7.894531 12.773438 7.785156 C 13.441406 7.695312 14.109375 7.628906 14.785156 7.660156 C 15.339844 7.683594 15.882812 7.78125 16.417969 7.933594 C 17.296875 8.183594 18.191406 8.269531 19.101562 8.183594 C 19.425781 8.15625 19.746094 8.09375 20.070312 8.050781 C 20.105469 8.042969 20.136719 8.042969 20.179688 8.039062 C 20.269531 9.160156 20.429688 10.265625 20.742188 11.355469 C 20.695312 11.359375 20.65625 11.367188 20.617188 11.367188 C 20.300781 11.359375 19.992188 11.40625 19.679688 11.476562 C 19.203125 11.585938 18.722656 11.6875 18.238281 11.777344 Z M 10.070312 13.800781 C 9.21875 14.039062 7.34375 14.089844 6.878906 13.875 C 6.921875 13.832031 6.960938 13.792969 6.996094 13.753906 C 7.1875 13.558594 7.382812 13.367188 7.5625 13.160156 C 7.640625 13.074219 7.695312 12.960938 7.734375 12.851562 C 7.792969 12.695312 7.75 12.5625 7.613281 12.46875 C 7.503906 12.398438 7.386719 12.34375 7.265625 12.296875 C 6.929688 12.164062 6.574219 12.09375 6.214844 12.035156 C 7.238281 11.746094 8.222656 11.375 9.191406 10.890625 C 9.175781 11.035156 9.152344 11.160156 9.144531 11.285156 C 9.132812 11.496094 9.117188 11.707031 9.128906 11.917969 C 9.132812 12.0625 9.15625 12.054688 9.300781 12.066406 C 9.585938 12.089844 9.878906 12.046875 10.179688 12.128906 C 10.019531 12.679688 10.039062 13.242188 10.070312 13.800781 Z M 23.816406 13.394531 C 23.90625 13.363281 23.996094 13.320312 24.082031 13.269531 C 24.175781 13.21875 24.1875 13.121094 24.113281 13.050781 C 24.066406 13.011719 24.011719 12.980469 23.957031 12.953125 C 23.585938 12.785156 23.210938 12.617188 22.839844 12.453125 C 22.609375 12.347656 22.601562 12.324219 22.714844 12.09375 C 22.832031 11.867188 23.003906 11.679688 23.171875 11.488281 C 23.394531 11.238281 23.613281 10.980469 23.828125 10.722656 C 23.886719 10.65625 23.929688 10.578125 23.972656 10.5 C 24.042969 10.371094 24 10.292969 23.851562 10.277344 C 23.777344 10.269531 23.695312 10.273438 23.621094 10.292969 C 23.34375 10.355469 23.074219 10.4375 22.796875 10.5 C 22.296875 10.613281 21.796875 10.726562 21.296875 10.824219 C 21.152344 10.851562 21 10.828125 20.839844 10.828125 C 20.828125 10.78125 20.8125 10.738281 20.800781 10.691406 C 20.679688 10.0625 20.5625 9.433594 20.519531 8.789062 C 20.5 8.527344 20.453125 8.265625 20.402344 8.007812 C 20.371094 7.84375 20.320312 7.808594 20.152344 7.816406 C 19.90625 7.824219 19.65625 7.832031 19.410156 7.859375 C 18.390625 7.972656 17.390625 7.90625 16.398438 7.625 C 15.828125 7.460938 15.238281 7.363281 14.640625 7.351562 C 14.214844 7.339844 13.792969 7.363281 13.371094 7.410156 C 12.742188 7.480469 12.121094 7.574219 11.511719 7.742188 C 11.070312 7.867188 10.628906 8.003906 10.1875 8.132812 C 10.070312 8.167969 9.996094 8.246094 9.953125 8.363281 C 9.695312 9.089844 9.421875 9.808594 9.261719 10.566406 C 9.246094 10.640625 9.210938 10.671875 9.148438 10.695312 C 9.019531 10.738281 8.894531 10.785156 8.769531 10.835938 C 8.054688 11.121094 7.339844 11.40625 6.605469 11.640625 C 6.378906 11.714844 6.160156 11.804688 5.9375 11.890625 C 5.882812 11.914062 5.824219 11.945312 5.777344 11.984375 C 5.703125 12.050781 5.726562 12.148438 5.816406 12.179688 C 5.859375 12.195312 5.90625 12.195312 5.953125 12.203125 C 6.046875 12.21875 6.140625 12.226562 6.226562 12.253906 C 6.484375 12.328125 6.742188 12.40625 6.996094 12.492188 C 7.144531 12.539062 7.289062 12.597656 7.429688 12.65625 C 7.535156 12.703125 7.550781 12.738281 7.5 12.839844 C 7.449219 12.9375 7.386719 13.039062 7.3125 13.121094 C 7.125 13.324219 6.929688 13.511719 6.734375 13.710938 C 6.691406 13.753906 6.648438 13.800781 6.617188 13.851562 C 6.566406 13.933594 6.582031 14 6.664062 14.050781 C 6.726562 14.085938 6.796875 14.109375 6.867188 14.128906 C 7.15625 14.207031 7.453125 14.246094 7.753906 14.265625 C 8.589844 14.316406 9.414062 14.230469 10.238281 14.082031 C 10.382812 14.054688 10.382812 14.050781 10.378906 13.898438 C 10.371094 13.695312 10.355469 13.496094 10.367188 13.292969 C 10.398438 12.753906 10.507812 12.226562 10.714844 11.710938 C 11.226562 11.617188 11.742188 11.585938 12.261719 11.589844 C 13.042969 11.59375 13.816406 11.703125 14.585938 11.84375 C 15.257812 11.972656 15.921875 12.121094 16.601562 12.1875 C 17.136719 12.238281 17.667969 12.238281 18.195312 12.152344 C 18.410156 12.121094 18.621094 12.074219 18.847656 12.035156 C 18.859375 12.109375 18.871094 12.179688 18.878906 12.25 C 18.929688 12.773438 18.859375 13.292969 18.835938 13.816406 C 18.828125 13.953125 18.839844 14.097656 18.871094 14.230469 C 18.910156 14.382812 19 14.441406 19.15625 14.441406 C 19.25 14.445312 19.34375 14.4375 19.433594 14.421875 C 19.753906 14.371094 20.074219 14.308594 20.398438 14.257812 C 21.136719 14.148438 21.875 14.019531 22.59375 13.792969 C 23 13.660156 23.410156 13.53125 23.816406 13.394531 " fill-opacity="1" fill-rule="nonzero"/><path fill="#d7ae54" d="M 4.0625 19.808594 C 4.046875 19.773438 4 19.734375 3.960938 19.730469 C 3.9375 19.726562 3.886719 19.769531 3.878906 19.800781 C 3.785156 20.070312 3.8125 20.332031 3.933594 20.585938 C 3.949219 20.617188 4.003906 20.648438 4.042969 20.648438 C 4.101562 20.652344 4.128906 20.597656 4.128906 20.542969 C 4.132812 20.457031 4.128906 20.375 4.128906 20.292969 C 4.144531 20.125 4.128906 19.960938 4.0625 19.808594 " fill-opacity="1" fill-rule="nonzero"/><path fill="#d7ae54" d="M 5.316406 19.664062 C 5.277344 19.675781 5.230469 19.710938 5.21875 19.746094 C 5.183594 19.851562 5.164062 19.964844 5.140625 20.0625 C 5.160156 20.164062 5.167969 20.253906 5.1875 20.339844 C 5.199219 20.398438 5.246094 20.4375 5.308594 20.441406 C 5.371094 20.445312 5.417969 20.410156 5.4375 20.351562 C 5.5 20.148438 5.503906 19.945312 5.429688 19.746094 C 5.410156 19.691406 5.375 19.648438 5.316406 19.664062 " fill-opacity="1" fill-rule="nonzero"/><path fill="#d7ae54" d="M 2.648438 19.613281 C 2.621094 19.613281 2.574219 19.65625 2.566406 19.6875 C 2.503906 19.925781 2.503906 20.167969 2.574219 20.40625 C 2.59375 20.464844 2.628906 20.511719 2.695312 20.5 C 2.761719 20.492188 2.785156 20.4375 2.789062 20.375 C 2.796875 20.308594 2.796875 20.242188 2.800781 20.175781 C 2.808594 20.175781 2.8125 20.171875 2.820312 20.171875 C 2.792969 20.011719 2.765625 19.847656 2.730469 19.6875 C 2.722656 19.65625 2.675781 19.617188 2.648438 19.613281 " fill-opacity="1" fill-rule="nonzero"/><path fill="#d7ae54" d="M 26.238281 19.773438 C 26.203125 19.722656 26.144531 19.722656 26.105469 19.769531 C 26.082031 19.800781 26.058594 19.839844 26.050781 19.878906 C 26.023438 20.027344 26.003906 20.171875 25.976562 20.320312 C 25.984375 20.320312 25.988281 20.324219 25.992188 20.324219 C 26 20.410156 26.003906 20.5 26.015625 20.585938 C 26.023438 20.613281 26.054688 20.65625 26.078125 20.660156 C 26.113281 20.664062 26.15625 20.644531 26.1875 20.625 C 26.210938 20.605469 26.222656 20.574219 26.234375 20.542969 C 26.316406 20.335938 26.328125 20.121094 26.289062 19.902344 C 26.28125 19.859375 26.261719 19.8125 26.238281 19.773438 " fill-opacity="1" fill-rule="nonzero"/><path fill="#d7ae54" d="M 24.8125 19.675781 C 24.769531 19.6875 24.71875 19.730469 24.707031 19.769531 C 24.675781 19.867188 24.660156 19.96875 24.640625 20.066406 C 24.660156 20.167969 24.671875 20.257812 24.691406 20.347656 C 24.707031 20.414062 24.753906 20.457031 24.828125 20.457031 C 24.890625 20.453125 24.933594 20.414062 24.949219 20.355469 C 25 20.15625 25 19.957031 24.925781 19.761719 C 24.90625 19.710938 24.871094 19.65625 24.8125 19.675781 " fill-opacity="1" fill-rule="nonzero"/><path fill="#d7ae54" d="M 27.488281 19.625 C 27.457031 19.65625 27.425781 19.683594 27.398438 19.71875 C 27.386719 19.730469 27.386719 19.757812 27.382812 19.777344 C 27.332031 19.980469 27.320312 20.183594 27.351562 20.390625 C 27.359375 20.449219 27.367188 20.503906 27.4375 20.511719 C 27.515625 20.523438 27.554688 20.472656 27.566406 20.40625 C 27.589844 20.292969 27.601562 20.175781 27.621094 20.0625 C 27.605469 19.941406 27.597656 19.828125 27.570312 19.71875 C 27.5625 19.683594 27.519531 19.65625 27.488281 19.625 " fill-opacity="1" fill-rule="nonzero"/><path fill="#d7ae54" d="M 4.097656 12.898438 C 4.617188 12.898438 5.03125 13.324219 5.03125 13.855469 C 5.027344 14.378906 4.613281 14.792969 4.089844 14.789062 C 3.574219 14.789062 3.144531 14.355469 3.152344 13.832031 C 3.15625 13.320312 3.582031 12.898438 4.097656 12.898438 Z M 4.113281 14.953125 C 4.714844 14.957031 5.210938 14.464844 5.21875 13.863281 C 5.222656 13.265625 4.71875 12.765625 4.117188 12.765625 C 3.511719 12.761719 3.019531 13.253906 3.019531 13.859375 C 3.015625 14.46875 3.5 14.953125 4.113281 14.953125 " fill-opacity="1" fill-rule="nonzero"/><path fill="#d7ae54" d="M 25.867188 12.898438 C 26.390625 12.902344 26.796875 13.328125 26.796875 13.859375 C 26.792969 14.382812 26.375 14.792969 25.851562 14.789062 C 25.339844 14.785156 24.917969 14.363281 24.917969 13.84375 C 24.914062 13.328125 25.347656 12.894531 25.867188 12.898438 Z M 25.878906 14.953125 C 26.480469 14.957031 26.976562 14.464844 26.980469 13.859375 C 26.988281 13.265625 26.484375 12.765625 25.882812 12.765625 C 25.277344 12.761719 24.785156 13.253906 24.785156 13.859375 C 24.78125 14.46875 25.265625 14.953125 25.878906 14.953125 " fill-opacity="1" fill-rule="nonzero"/><g clip-path="url(#59d87cf1f8)"><path fill="#d7ae54" d="M 14.890625 26.84375 C 14.78125 26.953125 14.625 26.949219 14.519531 26.835938 C 14.34375 26.640625 14.351562 26.300781 14.542969 26.121094 C 14.695312 25.976562 14.871094 26.011719 14.953125 26.203125 C 14.96875 26.246094 14.984375 26.289062 14.992188 26.335938 C 15.003906 26.386719 15.007812 26.4375 15.011719 26.46875 C 15.015625 26.621094 14.988281 26.746094 14.890625 26.84375 Z M 15.082031 26.046875 C 14.914062 25.824219 14.609375 25.824219 14.433594 26.03125 C 14.214844 26.285156 14.199219 26.566406 14.320312 26.859375 C 14.441406 27.164062 14.792969 27.230469 15.03125 27.003906 C 15.167969 26.871094 15.226562 26.703125 15.226562 26.511719 C 15.226562 26.34375 15.183594 26.183594 15.082031 26.046875 " fill-opacity="1" fill-rule="nonzero"/></g><path fill="#d7ae54" d="M 5.816406 25.808594 C 5.707031 25.929688 5.542969 25.925781 5.4375 25.804688 C 5.257812 25.605469 5.273438 25.273438 5.464844 25.089844 C 5.617188 24.949219 5.792969 24.988281 5.871094 25.179688 C 5.890625 25.234375 5.90625 25.289062 5.917969 25.34375 C 5.929688 25.390625 5.929688 25.4375 5.929688 25.457031 C 5.933594 25.605469 5.902344 25.71875 5.816406 25.808594 Z M 5.992188 25.011719 C 5.824219 24.800781 5.523438 24.800781 5.351562 25.003906 C 5.144531 25.253906 5.113281 25.523438 5.230469 25.816406 C 5.355469 26.144531 5.730469 26.210938 5.972656 25.957031 C 6.09375 25.824219 6.140625 25.664062 6.148438 25.472656 C 6.140625 25.3125 6.101562 25.148438 5.992188 25.011719 " fill-opacity="1" fill-rule="nonzero"/><path fill="#d7ae54" d="M 25.285156 24.484375 C 25.316406 24.292969 25.46875 24.21875 25.644531 24.304688 C 25.824219 24.398438 25.902344 24.535156 25.910156 24.757812 C 25.902344 24.824219 25.898438 24.894531 25.878906 24.957031 C 25.820312 25.140625 25.636719 25.199219 25.484375 25.082031 C 25.429688 25.042969 25.378906 24.984375 25.347656 24.921875 C 25.277344 24.785156 25.261719 24.632812 25.285156 24.484375 Z M 25.121094 24.941406 C 25.183594 25.101562 25.28125 25.230469 25.441406 25.304688 C 25.707031 25.433594 25.984375 25.304688 26.054688 25.015625 C 26.070312 24.960938 26.074219 24.90625 26.082031 24.847656 C 26.089844 24.539062 25.941406 24.324219 25.691406 24.167969 C 25.632812 24.132812 25.554688 24.109375 25.488281 24.113281 C 25.289062 24.125 25.136719 24.269531 25.09375 24.46875 C 25.058594 24.628906 25.0625 24.789062 25.121094 24.941406 " fill-opacity="1" fill-rule="nonzero"/><path fill="#d7ae54" d="M 10.171875 26.121094 C 9.890625 26.171875 9.660156 25.972656 9.664062 25.660156 C 9.691406 25.5 9.699219 25.304688 9.878906 25.179688 C 10.132812 25 10.472656 25.109375 10.566406 25.40625 C 10.671875 25.734375 10.484375 26.066406 10.171875 26.121094 Z M 10.078125 24.960938 C 10.003906 24.96875 9.925781 25 9.867188 25.039062 C 9.675781 25.164062 9.59375 25.355469 9.554688 25.570312 C 9.507812 25.808594 9.59375 26.070312 9.785156 26.1875 C 9.988281 26.3125 10.207031 26.300781 10.414062 26.183594 C 10.648438 26.050781 10.714844 25.828125 10.722656 25.523438 C 10.746094 25.160156 10.414062 24.929688 10.078125 24.960938 " fill-opacity="1" fill-rule="nonzero"/><path fill="#d7ae54" d="M 20.742188 25.296875 C 20.859375 25.355469 20.902344 25.464844 20.902344 25.59375 C 20.898438 25.777344 20.664062 26.035156 20.476562 26.046875 C 20.425781 26.050781 20.363281 26.03125 20.324219 26 C 20.085938 25.792969 20.113281 25.476562 20.359375 25.300781 C 20.46875 25.222656 20.617188 25.230469 20.742188 25.296875 Z M 20.035156 25.6875 C 20.066406 25.789062 20.085938 25.894531 20.132812 25.988281 C 20.203125 26.128906 20.324219 26.207031 20.488281 26.195312 C 20.707031 26.171875 20.953125 25.957031 21.007812 25.742188 C 21.074219 25.488281 20.941406 25.226562 20.714844 25.179688 C 20.636719 25.164062 20.550781 25.179688 20.46875 25.191406 C 20.199219 25.234375 20.054688 25.410156 20.035156 25.6875 " fill-opacity="1" fill-rule="nonzero"/><path fill="#d7ae54" d="M 12.65625 9.414062 C 12.574219 9.378906 12.5 9.40625 12.441406 9.464844 C 12.34375 9.5625 12.246094 9.664062 12.152344 9.765625 C 12.109375 9.8125 12.074219 9.867188 12.019531 9.9375 C 11.992188 9.84375 11.976562 9.78125 11.953125 9.714844 C 11.925781 9.628906 11.902344 9.535156 11.859375 9.453125 C 11.792969 9.320312 11.644531 9.324219 11.566406 9.453125 C 11.546875 9.488281 11.535156 9.53125 11.519531 9.570312 C 11.386719 9.941406 11.25 10.316406 11.117188 10.691406 C 11.101562 10.722656 11.085938 10.757812 11.085938 10.792969 C 11.085938 10.882812 11.164062 10.921875 11.238281 10.875 C 11.257812 10.859375 11.273438 10.839844 11.292969 10.820312 C 11.441406 10.660156 11.539062 10.464844 11.621094 10.261719 C 11.648438 10.191406 11.679688 10.125 11.714844 10.035156 C 11.75 10.136719 11.769531 10.210938 11.804688 10.28125 C 11.871094 10.414062 12 10.425781 12.09375 10.3125 C 12.125 10.273438 12.148438 10.226562 12.179688 10.183594 C 12.253906 10.082031 12.332031 9.980469 12.410156 9.878906 C 12.417969 9.886719 12.425781 9.894531 12.433594 9.898438 C 12.410156 10.09375 12.378906 10.289062 12.367188 10.484375 C 12.363281 10.578125 12.386719 10.679688 12.410156 10.773438 C 12.425781 10.828125 12.472656 10.867188 12.539062 10.867188 C 12.605469 10.863281 12.644531 10.820312 12.660156 10.761719 C 12.679688 10.695312 12.695312 10.621094 12.699219 10.550781 C 12.714844 10.328125 12.726562 10.105469 12.738281 9.886719 C 12.742188 9.796875 12.753906 9.710938 12.757812 9.621094 C 12.761719 9.535156 12.742188 9.453125 12.65625 9.414062 " fill-opacity="1" fill-rule="nonzero"/><path fill="#d7ae54" d="M 19.34375 10.363281 C 19.300781 10.683594 19.125 10.839844 18.773438 10.851562 C 18.78125 10.542969 18.792969 10.238281 18.800781 9.9375 C 19.128906 9.84375 19.382812 10.050781 19.34375 10.363281 Z M 18.886719 9.65625 C 18.820312 9.664062 18.753906 9.664062 18.660156 9.667969 C 18.648438 9.699219 18.613281 9.753906 18.605469 9.8125 C 18.574219 10.191406 18.542969 10.574219 18.511719 10.953125 C 18.511719 10.984375 18.511719 11.015625 18.515625 11.046875 C 18.539062 11.136719 18.625 11.179688 18.691406 11.113281 C 18.746094 11.058594 18.796875 11.074219 18.855469 11.082031 C 18.914062 11.085938 18.972656 11.089844 19.027344 11.078125 C 19.300781 11.027344 19.496094 10.875 19.574219 10.597656 C 19.664062 10.304688 19.601562 10.046875 19.378906 9.832031 C 19.246094 9.699219 19.082031 9.636719 18.886719 9.65625 " fill-opacity="1" fill-rule="nonzero"/><path fill="#d7ae54" d="M 15.824219 9.972656 C 15.75 10.023438 15.664062 10.0625 15.566406 10.050781 C 15.566406 9.921875 15.566406 9.792969 15.566406 9.640625 C 15.664062 9.671875 15.742188 9.683594 15.808594 9.714844 C 15.925781 9.777344 15.933594 9.898438 15.824219 9.972656 Z M 16.007812 9.589844 C 15.871094 9.476562 15.71875 9.441406 15.542969 9.484375 C 15.386719 9.523438 15.386719 9.515625 15.363281 9.671875 C 15.320312 10 15.273438 10.328125 15.234375 10.65625 C 15.226562 10.75 15.238281 10.851562 15.257812 10.945312 C 15.265625 10.980469 15.316406 11.015625 15.355469 11.023438 C 15.375 11.027344 15.425781 10.980469 15.433594 10.949219 C 15.460938 10.847656 15.476562 10.746094 15.496094 10.644531 C 15.503906 10.605469 15.511719 10.5625 15.523438 10.492188 C 15.632812 10.652344 15.71875 10.78125 15.804688 10.90625 C 15.839844 10.953125 15.871094 11 15.914062 11.039062 C 15.957031 11.082031 16.011719 11.09375 16.066406 11.058594 C 16.125 11.019531 16.140625 10.964844 16.117188 10.90625 C 16.097656 10.851562 16.066406 10.796875 16.027344 10.746094 C 15.910156 10.59375 15.785156 10.441406 15.65625 10.28125 C 15.757812 10.246094 15.851562 10.222656 15.941406 10.179688 C 16.1875 10.050781 16.21875 9.765625 16.007812 9.589844 " fill-opacity="1" fill-rule="nonzero"/><path fill="#d7ae54" d="M 14.714844 9.902344 C 14.640625 9.945312 14.550781 9.96875 14.4375 10.011719 C 14.453125 9.875 14.460938 9.773438 14.476562 9.636719 C 14.566406 9.65625 14.640625 9.65625 14.703125 9.6875 C 14.808594 9.734375 14.8125 9.839844 14.714844 9.902344 Z M 14.941406 9.960938 C 15.097656 9.75 14.992188 9.46875 14.730469 9.429688 C 14.644531 9.417969 14.554688 9.453125 14.46875 9.445312 C 14.34375 9.433594 14.304688 9.503906 14.28125 9.601562 C 14.210938 9.910156 14.136719 10.214844 14.070312 10.523438 C 14.054688 10.613281 14.0625 10.710938 14.0625 10.804688 C 14.0625 10.863281 14.085938 10.917969 14.15625 10.925781 C 14.222656 10.9375 14.257812 10.886719 14.277344 10.832031 C 14.289062 10.800781 14.296875 10.773438 14.304688 10.742188 C 14.332031 10.625 14.359375 10.503906 14.390625 10.363281 C 14.425781 10.410156 14.449219 10.441406 14.46875 10.476562 C 14.574219 10.628906 14.679688 10.78125 14.789062 10.929688 C 14.8125 10.964844 14.84375 11 14.882812 11.011719 C 14.914062 11.023438 14.964844 11.019531 14.992188 11.003906 C 15.011719 10.992188 15.015625 10.9375 15.003906 10.90625 C 14.992188 10.859375 14.964844 10.8125 14.9375 10.769531 C 14.8125 10.585938 14.691406 10.402344 14.558594 10.207031 C 14.707031 10.144531 14.847656 10.085938 14.941406 9.960938 " fill-opacity="1" fill-rule="nonzero"/><path fill="#d7ae54" d="M 13.535156 10.019531 C 13.484375 10.019531 13.4375 10.019531 13.382812 10.019531 C 13.398438 9.910156 13.449219 9.832031 13.535156 9.757812 C 13.535156 9.859375 13.535156 9.9375 13.535156 10.019531 Z M 13.777344 9.703125 C 13.773438 9.632812 13.742188 9.5625 13.710938 9.496094 C 13.640625 9.367188 13.523438 9.351562 13.417969 9.453125 C 13.375 9.496094 13.332031 9.542969 13.300781 9.597656 C 13.105469 9.941406 12.957031 10.300781 12.871094 10.6875 C 12.863281 10.730469 12.863281 10.78125 12.875 10.824219 C 12.882812 10.855469 12.917969 10.894531 12.941406 10.894531 C 12.976562 10.898438 13.027344 10.875 13.042969 10.847656 C 13.074219 10.796875 13.085938 10.734375 13.105469 10.675781 C 13.160156 10.519531 13.210938 10.363281 13.265625 10.207031 C 13.367188 10.21875 13.449219 10.230469 13.542969 10.242188 C 13.542969 10.386719 13.539062 10.515625 13.542969 10.644531 C 13.542969 10.691406 13.546875 10.738281 13.558594 10.78125 C 13.574219 10.84375 13.617188 10.882812 13.679688 10.886719 C 13.75 10.886719 13.800781 10.847656 13.816406 10.78125 C 13.832031 10.734375 13.84375 10.679688 13.839844 10.628906 C 13.824219 10.320312 13.804688 10.011719 13.777344 9.703125 " fill-opacity="1" fill-rule="nonzero"/><path fill="#d7ae54" d="M 18.117188 9.65625 C 17.953125 9.644531 17.789062 9.628906 17.625 9.625 C 17.550781 9.625 17.488281 9.667969 17.472656 9.75 C 17.457031 9.835938 17.429688 9.921875 17.417969 10.007812 C 17.398438 10.1875 17.382812 10.367188 17.363281 10.546875 C 17.347656 10.699219 17.328125 10.855469 17.320312 11.007812 C 17.3125 11.148438 17.375 11.203125 17.515625 11.210938 C 17.585938 11.214844 17.660156 11.230469 17.730469 11.226562 C 17.820312 11.21875 17.914062 11.207031 18.003906 11.183594 C 18.066406 11.167969 18.105469 11.113281 18.097656 11.042969 C 18.085938 10.964844 18.027344 10.941406 17.960938 10.941406 C 17.933594 10.941406 17.910156 10.945312 17.882812 10.945312 C 17.792969 10.945312 17.703125 10.941406 17.605469 10.9375 C 17.621094 10.769531 17.632812 10.621094 17.644531 10.464844 C 17.765625 10.464844 17.875 10.464844 17.988281 10.464844 C 18.058594 10.464844 18.125 10.449219 18.140625 10.363281 C 18.152344 10.296875 18.105469 10.242188 18.011719 10.21875 C 17.980469 10.210938 17.949219 10.210938 17.921875 10.207031 C 17.832031 10.191406 17.742188 10.175781 17.648438 10.160156 C 17.65625 10.050781 17.664062 9.953125 17.671875 9.851562 C 17.707031 9.847656 17.734375 9.84375 17.765625 9.84375 C 17.878906 9.84375 17.992188 9.84375 18.105469 9.839844 C 18.164062 9.835938 18.207031 9.808594 18.207031 9.746094 C 18.207031 9.691406 18.171875 9.660156 18.117188 9.65625 " fill-opacity="1" fill-rule="nonzero"/><path fill="#d7ae54" d="M 14.28125 8.007812 C 14.28125 8.007812 14.28125 8.003906 14.285156 8.003906 C 14.28125 8.003906 14.28125 8.003906 14.277344 8.003906 C 14.277344 8.003906 14.277344 8.007812 14.28125 8.007812 " fill-opacity="1" fill-rule="nonzero"/><path fill="#d7ae54" d="M 14.25 8.667969 C 14.25 8.730469 14.265625 8.800781 14.289062 8.863281 C 14.351562 9.042969 14.511719 9.09375 14.652344 8.96875 C 14.730469 8.902344 14.800781 8.816406 14.835938 8.726562 C 14.894531 8.566406 14.925781 8.398438 14.964844 8.234375 C 14.980469 8.171875 14.992188 8.109375 14.984375 8.046875 C 14.980469 8.011719 14.949219 7.960938 14.917969 7.941406 C 14.871094 7.917969 14.828125 7.957031 14.808594 8.003906 C 14.785156 8.070312 14.765625 8.140625 14.746094 8.207031 C 14.707031 8.339844 14.671875 8.476562 14.628906 8.609375 C 14.609375 8.65625 14.601562 8.734375 14.523438 8.722656 C 14.441406 8.710938 14.453125 8.628906 14.449219 8.570312 C 14.445312 8.484375 14.449219 8.394531 14.457031 8.308594 C 14.460938 8.230469 14.472656 8.152344 14.472656 8.074219 C 14.472656 8.011719 14.503906 7.929688 14.414062 7.902344 C 14.332031 7.878906 14.324219 7.964844 14.285156 8.003906 C 14.28125 8.027344 14.28125 8.054688 14.28125 8.078125 C 14.269531 8.273438 14.257812 8.46875 14.25 8.667969 " fill-opacity="1" fill-rule="nonzero"/><path fill="#d7ae54" d="M 14.9375 8.789062 C 14.929688 8.832031 14.9375 8.886719 14.960938 8.917969 C 15.035156 9.019531 15.132812 9.082031 15.265625 9.074219 C 15.421875 9.0625 15.554688 9.003906 15.664062 8.890625 C 15.792969 8.761719 15.792969 8.574219 15.660156 8.449219 C 15.601562 8.394531 15.527344 8.359375 15.457031 8.316406 C 15.410156 8.289062 15.363281 8.265625 15.289062 8.226562 C 15.355469 8.175781 15.398438 8.144531 15.449219 8.105469 C 15.496094 8.164062 15.53125 8.214844 15.578125 8.253906 C 15.605469 8.273438 15.664062 8.289062 15.6875 8.273438 C 15.714844 8.261719 15.738281 8.203125 15.734375 8.171875 C 15.722656 8.121094 15.695312 8.0625 15.65625 8.027344 C 15.511719 7.886719 15.34375 7.898438 15.210938 8.050781 C 15.070312 8.210938 15.097656 8.355469 15.28125 8.457031 C 15.335938 8.484375 15.398438 8.503906 15.445312 8.539062 C 15.546875 8.609375 15.546875 8.71875 15.445312 8.78125 C 15.378906 8.820312 15.304688 8.859375 15.230469 8.859375 C 15.183594 8.859375 15.136719 8.792969 15.089844 8.757812 C 15.082031 8.753906 15.074219 8.746094 15.066406 8.738281 C 15.011719 8.703125 14.945312 8.722656 14.9375 8.789062 " fill-opacity="1" fill-rule="nonzero"/><path fill="#d7ae54" d="M 16.90625 10.742188 C 16.847656 10.78125 16.789062 10.824219 16.707031 10.878906 C 16.691406 10.773438 16.667969 10.695312 16.671875 10.617188 C 16.683594 10.441406 16.707031 10.269531 16.726562 10.09375 C 16.730469 10.015625 16.742188 9.9375 16.734375 9.863281 C 16.730469 9.832031 16.695312 9.792969 16.660156 9.777344 C 16.613281 9.757812 16.570312 9.78125 16.546875 9.832031 C 16.527344 9.890625 16.5 9.949219 16.492188 10.007812 C 16.457031 10.242188 16.429688 10.480469 16.402344 10.714844 C 16.394531 10.773438 16.398438 10.839844 16.410156 10.898438 C 16.449219 11.121094 16.613281 11.199219 16.8125 11.09375 C 16.894531 11.046875 16.972656 10.984375 17.046875 10.917969 C 17.121094 10.851562 17.136719 10.785156 17.097656 10.730469 C 17.054688 10.675781 16.992188 10.679688 16.90625 10.742188 " fill-opacity="1" fill-rule="nonzero"/><path fill="#d7ae54" d="M 14.160156 7.875 C 13.929688 7.890625 13.699219 7.917969 13.46875 7.945312 C 13.445312 7.945312 13.417969 7.960938 13.398438 7.976562 C 13.355469 8.007812 13.363281 8.070312 13.414062 8.085938 C 13.445312 8.097656 13.484375 8.097656 13.519531 8.097656 C 13.605469 8.101562 13.691406 8.097656 13.792969 8.097656 C 13.75 8.273438 13.726562 8.425781 13.675781 8.570312 C 13.617188 8.75 13.546875 8.769531 13.375 8.695312 C 13.367188 8.691406 13.355469 8.683594 13.347656 8.683594 C 13.316406 8.6875 13.277344 8.683594 13.261719 8.699219 C 13.246094 8.722656 13.230469 8.769531 13.242188 8.792969 C 13.277344 8.875 13.332031 8.945312 13.421875 8.972656 C 13.574219 9.019531 13.75 8.957031 13.832031 8.800781 C 13.886719 8.699219 13.917969 8.582031 13.941406 8.46875 C 13.964844 8.34375 13.96875 8.214844 13.980469 8.097656 C 14.089844 8.066406 14.183594 8.035156 14.277344 8.003906 C 14.265625 7.886719 14.253906 7.867188 14.160156 7.875 " fill-opacity="1" fill-rule="nonzero"/><path fill="#d7ae54" d="M 16.425781 8.796875 C 16.4375 8.617188 16.445312 8.4375 16.457031 8.253906 C 16.558594 8.242188 16.644531 8.230469 16.730469 8.222656 C 16.785156 8.21875 16.828125 8.195312 16.824219 8.144531 C 16.820312 8.113281 16.777344 8.082031 16.75 8.054688 C 16.746094 8.046875 16.734375 8.046875 16.722656 8.042969 C 16.492188 7.988281 16.261719 7.996094 16.03125 8.027344 C 15.972656 8.035156 15.929688 8.078125 15.945312 8.132812 C 15.953125 8.167969 15.996094 8.207031 16.035156 8.222656 C 16.089844 8.242188 16.15625 8.242188 16.234375 8.253906 C 16.230469 8.296875 16.226562 8.324219 16.222656 8.355469 C 16.210938 8.558594 16.191406 8.765625 16.183594 8.972656 C 16.179688 9.058594 16.226562 9.117188 16.289062 9.113281 C 16.363281 9.113281 16.398438 9.0625 16.410156 8.996094 C 16.417969 8.929688 16.421875 8.863281 16.425781 8.796875 " fill-opacity="1" fill-rule="nonzero"/><path fill="#d7ae54" d="M 16.5 9.558594 C 16.5 9.636719 16.570312 9.707031 16.648438 9.707031 C 16.722656 9.707031 16.796875 9.636719 16.796875 9.558594 C 16.800781 9.480469 16.734375 9.410156 16.652344 9.410156 C 16.574219 9.410156 16.503906 9.480469 16.5 9.558594 " fill-opacity="1" fill-rule="nonzero"/><path fill="#d7ae54" d="M 9.664062 11.125 C 9.589844 11.128906 9.53125 11.195312 9.535156 11.269531 C 9.539062 11.347656 9.605469 11.402344 9.683594 11.394531 C 9.75 11.386719 9.808594 11.324219 9.804688 11.257812 C 9.804688 11.1875 9.734375 11.121094 9.664062 11.125 " fill-opacity="1" fill-rule="nonzero"/><path fill="#d7ae54" d="M 20.277344 11.136719 C 20.347656 11.136719 20.417969 11.074219 20.417969 11.003906 C 20.421875 10.929688 20.359375 10.863281 20.28125 10.867188 C 20.210938 10.867188 20.15625 10.917969 20.148438 10.988281 C 20.144531 11.066406 20.203125 11.132812 20.277344 11.136719 " fill-opacity="1" fill-rule="nonzero"/><path fill="#d7ae54" d="M 19.867188 8.523438 C 19.941406 8.527344 20.003906 8.464844 20.003906 8.386719 C 20 8.316406 19.945312 8.261719 19.878906 8.257812 C 19.804688 8.257812 19.742188 8.320312 19.742188 8.394531 C 19.742188 8.464844 19.800781 8.523438 19.867188 8.523438 " fill-opacity="1" fill-rule="nonzero"/><path fill="#d7ae54" d="M 10.34375 8.542969 C 10.289062 8.53125 10.238281 8.59375 10.246094 8.652344 C 10.25 8.710938 10.28125 8.746094 10.34375 8.746094 C 10.398438 8.75 10.445312 8.695312 10.441406 8.609375 C 10.417969 8.59375 10.382812 8.554688 10.34375 8.542969 " fill-opacity="1" fill-rule="nonzero"/></svg>