<svg xmlns="http://www.w3.org/2000/svg" xmlns:xlink="http://www.w3.org/1999/xlink" width="200" zoomAndPan="magnify" viewBox="0 0 150 30.000001" height="40" preserveAspectRatio="xMidYMid meet" version="1.0"><defs><clipPath id="0a0ddc4015"><path d="M 70 10.921875 L 78 10.921875 L 78 18.179688 L 70 18.179688 Z M 70 10.921875 " clip-rule="nonzero"/></clipPath><clipPath id="5f8fcb874e"><path d="M 78 12 L 137.832031 12 L 137.832031 17 L 78 17 Z M 78 12 " clip-rule="nonzero"/></clipPath><clipPath id="12c96deba4"><path d="M 10.089844 12 L 70 12 L 70 17 L 10.089844 17 Z M 10.089844 12 " clip-rule="nonzero"/></clipPath></defs><g clip-path="url(#0a0ddc4015)"><path fill="#e6b4ab" d="M 70.367188 14.550781 L 73.957031 10.917969 L 77.550781 14.550781 L 73.957031 18.179688 Z M 70.367188 14.550781 " fill-opacity="1" fill-rule="nonzero"/></g><g clip-path="url(#5f8fcb874e)"><path fill="#e6b4ab" d="M 78.804688 12.832031 L 80.503906 14.550781 L 78.804688 16.265625 C 94.589844 14.972656 127.183594 15.269531 137.828125 14.550781 C 127.183594 13.828125 94.578125 14.34375 78.804688 12.832031 Z M 78.804688 12.832031 " fill-opacity="1" fill-rule="nonzero"/></g><g clip-path="url(#12c96deba4)"><path fill="#e6b4ab" d="M 69.117188 12.832031 C 53.347656 14.34375 20.738281 13.828125 10.09375 14.550781 C 20.738281 15.269531 53.324219 14.972656 69.117188 16.265625 L 67.417969 14.550781 Z M 69.117188 12.832031 " fill-opacity="1" fill-rule="nonzero"/></g></svg>