<svg xmlns="http://www.w3.org/2000/svg" xmlns:xlink="http://www.w3.org/1999/xlink" width="200" zoomAndPan="magnify" viewBox="0 0 150 30.000001" height="40" preserveAspectRatio="xMidYMid meet" version="1.0"><defs><clipPath id="fa7e622714"><path d="M 8 4.015625 L 141 4.015625 L 141 25.0625 L 8 25.0625 Z M 8 4.015625 " clip-rule="nonzero"/></clipPath></defs><g clip-path="url(#fa7e622714)"><path fill="#f6dfc4" d="M 139.417969 13.257812 C 138.746094 13.257812 138.191406 13.75 138.09375 14.394531 C 137.148438 14.394531 136.199219 14.394531 135.253906 14.394531 C 131.953125 14.394531 128.652344 14.394531 125.347656 14.394531 C 121.488281 14.394531 117.625 14.394531 113.761719 14.394531 C 110.679688 14.394531 107.601562 14.394531 104.519531 14.394531 C 103.519531 14.394531 102.515625 14.394531 101.515625 14.394531 C 99.308594 14.3125 97.101562 14.230469 94.890625 14.148438 C 91.226562 14.015625 87.566406 13.878906 83.902344 13.746094 C 82.855469 13.707031 81.8125 13.667969 80.765625 13.628906 C 78.398438 12.914062 76.535156 11.210938 75.628906 8.90625 C 75.15625 7.375 74.835938 5.804688 74.679688 4.210938 C 74.695312 4.070312 74.582031 4.003906 74.472656 4.015625 C 74.363281 4.007812 74.253906 4.070312 74.269531 4.210938 C 74.125 5.804688 73.808594 7.375 73.335938 8.90625 C 72.425781 11.210938 70.5625 12.914062 68.195312 13.628906 C 65.996094 13.710938 63.800781 13.792969 61.601562 13.871094 C 57.9375 14.007812 54.273438 14.144531 50.605469 14.277344 C 49.550781 14.316406 48.492188 14.355469 47.433594 14.394531 C 46.035156 14.394531 44.636719 14.394531 43.238281 14.394531 C 39.9375 14.394531 36.636719 14.394531 33.335938 14.394531 C 29.472656 14.394531 25.613281 14.394531 21.75 14.394531 C 18.671875 14.394531 15.589844 14.394531 12.511719 14.394531 C 11.949219 14.394531 11.386719 14.394531 10.824219 14.394531 C 10.722656 13.753906 10.171875 13.265625 9.503906 13.265625 C 8.761719 13.265625 8.164062 13.867188 8.164062 14.605469 C 8.164062 15.347656 8.761719 15.945312 9.503906 15.945312 C 10.175781 15.945312 10.730469 15.449219 10.828125 14.804688 C 11.785156 14.804688 12.746094 14.804688 13.703125 14.804688 C 17.003906 14.804688 20.308594 14.804688 23.609375 14.804688 C 27.46875 14.804688 31.332031 14.804688 35.191406 14.804688 C 38.273438 14.804688 41.351562 14.804688 44.429688 14.804688 C 45.433594 14.804688 46.433594 14.804688 47.433594 14.804688 C 49.597656 14.902344 51.761719 15 53.925781 15.09375 C 57.628906 15.261719 61.332031 15.425781 65.035156 15.589844 C 66.289062 15.644531 67.546875 15.699219 68.800781 15.757812 C 70.890625 16.566406 72.523438 18.195312 73.335938 20.285156 C 73.8125 21.816406 74.125 23.390625 74.269531 24.992188 C 74.257812 25.128906 74.363281 25.195312 74.472656 25.1875 C 74.582031 25.195312 74.695312 25.132812 74.679688 24.992188 C 74.835938 23.394531 75.152344 21.820312 75.625 20.285156 C 76.507812 18.066406 78.273438 16.398438 80.523438 15.640625 C 80.601562 15.613281 80.683594 15.585938 80.765625 15.5625 C 82.960938 15.480469 85.160156 15.402344 87.355469 15.320312 C 91.019531 15.1875 94.679688 15.054688 98.34375 14.921875 C 99.402344 14.882812 100.457031 14.84375 101.515625 14.808594 C 102.914062 14.808594 104.3125 14.808594 105.714844 14.808594 C 109.015625 14.808594 112.316406 14.808594 115.621094 14.808594 C 119.480469 14.808594 123.34375 14.808594 127.207031 14.808594 C 130.285156 14.808594 133.367188 14.808594 136.449219 14.808594 C 136.996094 14.808594 137.546875 14.808594 138.09375 14.808594 C 138.195312 15.445312 138.75 15.9375 139.417969 15.9375 C 140.15625 15.9375 140.753906 15.335938 140.753906 14.597656 C 140.753906 13.855469 140.15625 13.257812 139.417969 13.257812 Z M 139.417969 13.257812 " fill-opacity="1" fill-rule="nonzero"/></g></svg>