<svg xmlns="http://www.w3.org/2000/svg" xmlns:xlink="http://www.w3.org/1999/xlink" width="70" zoomAndPan="magnify" viewBox="0 0 52.5 52.499999" height="70" preserveAspectRatio="xMidYMid meet" version="1.0"><defs><clipPath id="0fea6bc7d6"><path d="M 9.636719 3.441406 L 42.324219 3.441406 L 42.324219 48.566406 L 9.636719 48.566406 Z M 9.636719 3.441406 " clip-rule="nonzero"/></clipPath></defs><g clip-path="url(#0fea6bc7d6)"><path fill="#475b42" d="M 12.734375 47.613281 L 39.261719 47.613281 C 40.449219 47.613281 41.410156 46.652344 41.410156 45.46875 L 41.410156 6.539062 C 41.410156 5.351562 40.449219 4.390625 39.261719 4.390625 L 12.734375 4.390625 C 11.546875 4.390625 10.585938 5.351562 10.585938 6.539062 L 10.585938 45.46875 C 10.585938 46.652344 11.546875 47.613281 12.734375 47.613281 Z M 40.210938 48.566406 L 11.78125 48.566406 C 10.597656 48.566406 9.636719 47.601562 9.636719 46.417969 L 9.636719 5.585938 C 9.636719 4.402344 10.597656 3.441406 11.78125 3.441406 L 40.210938 3.441406 C 41.398438 3.441406 42.359375 4.402344 42.359375 5.585938 L 42.359375 46.417969 C 42.359375 47.601562 41.398438 48.566406 40.210938 48.566406 " fill-opacity="1" fill-rule="nonzero"/></g><path fill="#475b42" d="M 14.09375 21.167969 L 13.007812 19.777344 C 12.90625 19.640625 12.914062 19.453125 13.035156 19.332031 C 13.171875 19.1875 13.363281 19.003906 13.492188 19.152344 L 14.085938 19.824219 C 14.226562 19.980469 14.476562 19.972656 14.609375 19.808594 L 15.800781 18.289062 C 15.890625 18.171875 16.0625 18.164062 16.164062 18.265625 L 16.507812 18.609375 C 16.636719 18.738281 16.640625 18.945312 16.519531 19.078125 L 14.613281 21.1875 C 14.472656 21.34375 14.222656 21.332031 14.09375 21.167969 " fill-opacity="1" fill-rule="nonzero"/><path fill="#475b42" d="M 14.09375 27.914062 L 13.007812 26.523438 C 12.90625 26.390625 12.914062 26.199219 13.035156 26.078125 C 13.171875 25.933594 13.363281 25.753906 13.492188 25.902344 L 14.085938 26.570312 C 14.226562 26.726562 14.476562 26.722656 14.609375 26.554688 L 15.644531 25.234375 C 15.816406 25.015625 16.144531 24.996094 16.34375 25.195312 L 16.507812 25.355469 C 16.636719 25.484375 16.640625 25.691406 16.519531 25.824219 L 14.613281 27.933594 C 14.472656 28.089844 14.222656 28.082031 14.09375 27.914062 " fill-opacity="1" fill-rule="nonzero"/><path fill="#475b42" d="M 14.09375 35.339844 L 13.007812 33.949219 C 12.90625 33.8125 12.914062 33.625 13.035156 33.503906 C 13.171875 33.359375 13.363281 33.175781 13.492188 33.324219 L 14.085938 33.996094 C 14.226562 34.152344 14.476562 34.144531 14.609375 33.980469 L 15.644531 32.660156 C 15.816406 32.4375 16.144531 32.417969 16.34375 32.617188 L 16.507812 32.78125 C 16.636719 32.910156 16.640625 33.117188 16.519531 33.25 L 14.613281 35.359375 C 14.472656 35.515625 14.222656 35.503906 14.09375 35.339844 " fill-opacity="1" fill-rule="nonzero"/><path fill="#475b42" d="M 25.417969 12.527344 C 24.90625 13.03125 24.097656 13.636719 23.632812 13.601562 C 22.886719 13.542969 21.914062 12.53125 21.914062 12.53125 C 21.914062 12.53125 19.605469 10.878906 20.996094 9.265625 C 21.988281 8.109375 23.636719 9.960938 23.636719 9.960938 C 23.636719 9.960938 25.171875 8 26.375 8.671875 C 27.824219 9.480469 26.308594 11.644531 25.417969 12.527344 Z M 27.070312 7.78125 C 25.324219 6.804688 23.640625 8.644531 23.640625 8.644531 C 23.007812 8.144531 22.140625 7.742188 21.328125 7.742188 C 19.992188 7.746094 18.996094 9.136719 19.191406 10.417969 C 19.417969 11.898438 20.9375 13.117188 22.039062 13.964844 C 22.378906 14.230469 22.730469 14.492188 23.136719 14.632812 C 24.351562 15.066406 25.4375 13.9375 26.222656 13.164062 C 27.515625 11.882812 29.167969 8.953125 27.070312 7.78125 " fill-opacity="1" fill-rule="nonzero"/><path fill="#475b42" d="M 30.207031 14 C 29.695312 14.507812 28.886719 15.113281 28.425781 15.074219 C 27.675781 15.015625 26.707031 14.007812 26.707031 14.007812 C 26.707031 14.007812 24.101562 12.351562 25.492188 10.734375 C 26.484375 9.582031 28.425781 11.433594 28.425781 11.433594 C 28.425781 11.433594 29.585938 9.613281 30.792969 10.285156 C 32.238281 11.097656 31.101562 13.117188 30.207031 14 Z M 31.859375 9.253906 C 30.117188 8.28125 28.4375 10.367188 28.4375 10.367188 C 27.804688 9.867188 26.933594 9.214844 26.117188 9.21875 C 24.78125 9.21875 23.789062 10.613281 23.984375 11.890625 C 24.210938 13.371094 25.730469 14.589844 26.828125 15.441406 C 27.171875 15.703125 27.523438 15.964844 27.925781 16.109375 C 29.140625 16.539062 30.230469 15.414062 31.015625 14.636719 C 32.304688 13.359375 33.957031 10.429688 31.859375 9.253906 " fill-opacity="1" fill-rule="nonzero"/><path fill="#475b42" d="M 37.707031 19.726562 L 18.792969 19.726562 C 18.453125 19.726562 18.179688 19.453125 18.179688 19.117188 C 18.179688 18.777344 18.453125 18.503906 18.792969 18.503906 L 37.707031 18.503906 C 38.046875 18.503906 38.320312 18.777344 38.320312 19.117188 C 38.320312 19.453125 38.046875 19.726562 37.707031 19.726562 " fill-opacity="1" fill-rule="nonzero"/><path fill="#475b42" d="M 37.707031 23.589844 L 18.792969 23.589844 C 18.453125 23.589844 18.179688 23.316406 18.179688 22.976562 C 18.179688 22.640625 18.453125 22.367188 18.792969 22.367188 L 37.707031 22.367188 C 38.046875 22.367188 38.320312 22.640625 38.320312 22.976562 C 38.320312 23.316406 38.046875 23.589844 37.707031 23.589844 " fill-opacity="1" fill-rule="nonzero"/><path fill="#475b42" d="M 37.707031 27.449219 L 18.792969 27.449219 C 18.453125 27.449219 18.179688 27.175781 18.179688 26.839844 C 18.179688 26.5 18.453125 26.226562 18.792969 26.226562 L 37.707031 26.226562 C 38.046875 26.226562 38.320312 26.5 38.320312 26.839844 C 38.320312 27.175781 38.046875 27.449219 37.707031 27.449219 " fill-opacity="1" fill-rule="nonzero"/><path fill="#475b42" d="M 37.707031 31.308594 L 18.792969 31.308594 C 18.453125 31.308594 18.179688 31.035156 18.179688 30.699219 C 18.179688 30.363281 18.453125 30.085938 18.792969 30.085938 L 37.707031 30.085938 C 38.046875 30.085938 38.320312 30.363281 38.320312 30.699219 C 38.320312 31.035156 38.046875 31.308594 37.707031 31.308594 " fill-opacity="1" fill-rule="nonzero"/><path fill="#475b42" d="M 37.707031 35.171875 L 18.792969 35.171875 C 18.453125 35.171875 18.179688 34.898438 18.179688 34.558594 C 18.179688 34.222656 18.453125 33.949219 18.792969 33.949219 L 37.707031 33.949219 C 38.046875 33.949219 38.320312 34.222656 38.320312 34.558594 C 38.320312 34.898438 38.046875 35.171875 37.707031 35.171875 " fill-opacity="1" fill-rule="nonzero"/><path fill="#475b42" d="M 24.453125 43.191406 L 19.023438 43.191406 C 18.703125 43.191406 18.441406 42.929688 18.441406 42.605469 C 18.441406 42.28125 18.703125 42.023438 19.023438 42.023438 L 24.453125 42.023438 C 24.773438 42.023438 25.035156 42.28125 25.035156 42.605469 C 25.035156 42.929688 24.773438 43.191406 24.453125 43.191406 " fill-opacity="1" fill-rule="nonzero"/><path fill="#475b42" d="M 34.65625 37.800781 C 32.390625 37.5625 30.488281 39.464844 30.730469 41.730469 C 30.90625 43.382812 32.230469 44.710938 33.882812 44.882812 C 36.152344 45.125 38.050781 43.222656 37.8125 40.957031 C 37.636719 39.304688 36.308594 37.976562 34.65625 37.800781 Z M 34.683594 45.828125 C 31.875 46.078125 29.535156 43.738281 29.785156 40.933594 C 29.976562 38.78125 31.710938 37.050781 33.859375 36.855469 C 36.664062 36.605469 39.007812 38.949219 38.757812 41.753906 C 38.566406 43.90625 36.832031 45.636719 34.683594 45.828125 " fill-opacity="1" fill-rule="nonzero"/><path fill="#475b42" d="M 36.5625 41.789062 C 36.367188 41.722656 36.25 41.53125 36.25 41.328125 C 36.242188 40.25 35.363281 39.371094 34.285156 39.363281 C 34.082031 39.363281 33.890625 39.246094 33.824219 39.050781 C 33.71875 38.726562 33.960938 38.421875 34.269531 38.421875 C 35.882812 38.421875 37.191406 39.730469 37.191406 41.34375 C 37.191406 41.65625 36.890625 41.894531 36.5625 41.789062 " fill-opacity="1" fill-rule="nonzero"/><path fill="#475b42" d="M 34.269531 44.265625 C 32.664062 44.265625 31.355469 42.960938 31.351562 41.355469 C 31.347656 41.128906 31.507812 40.921875 31.730469 40.878906 C 32.03125 40.824219 32.292969 41.054688 32.292969 41.34375 C 32.292969 42.433594 33.175781 43.316406 34.265625 43.320312 C 34.503906 43.324219 34.714844 43.503906 34.738281 43.742188 C 34.769531 44.023438 34.546875 44.265625 34.269531 44.265625 " fill-opacity="1" fill-rule="nonzero"/></svg>