<svg xmlns="http://www.w3.org/2000/svg" xmlns:xlink="http://www.w3.org/1999/xlink" width="70" zoomAndPan="magnify" viewBox="0 0 52.5 52.499999" height="70" preserveAspectRatio="xMidYMid meet" version="1.0"><defs><clipPath id="a979e89b42"><path d="M 4.257812 36.640625 L 47.742188 36.640625 L 47.742188 40.699219 L 4.257812 40.699219 Z M 4.257812 36.640625 " clip-rule="nonzero"/></clipPath><clipPath id="ebc2909497"><path d="M 23 10.984375 L 29 10.984375 L 29 17 L 23 17 Z M 23 10.984375 " clip-rule="nonzero"/></clipPath></defs><g clip-path="url(#a979e89b42)"><path fill="#475b42" d="M 46.011719 40.164062 L 5.988281 40.164062 C 5.503906 40.164062 5.113281 39.769531 5.113281 39.285156 L 5.113281 38.414062 C 5.113281 37.929688 5.503906 37.539062 5.988281 37.539062 C 6.003906 37.539062 6.023438 37.539062 6.039062 37.535156 C 6.082031 37.539062 6.148438 37.535156 6.191406 37.535156 C 6.207031 37.535156 6.222656 37.535156 6.238281 37.535156 L 45.964844 37.535156 C 45.980469 37.539062 45.996094 37.539062 46.011719 37.539062 C 46.496094 37.539062 46.886719 37.929688 46.886719 38.414062 L 46.886719 39.285156 C 46.886719 39.296875 46.890625 39.3125 46.890625 39.324219 C 46.871094 39.789062 46.484375 40.164062 46.011719 40.164062 Z M 47.742188 39.242188 L 47.742188 38.414062 C 47.742188 37.480469 46.992188 36.714844 46.066406 36.6875 C 46.046875 36.683594 46.03125 36.683594 46.011719 36.683594 L 6.238281 36.683594 C 6.222656 36.683594 6.210938 36.683594 6.199219 36.6875 L 6.199219 36.683594 C 6.121094 36.679688 6.050781 36.683594 5.988281 36.6875 C 5.035156 36.6875 4.257812 37.460938 4.257812 38.414062 L 4.257812 39.285156 C 4.257812 40.238281 5.035156 41.015625 5.988281 41.015625 L 46.011719 41.015625 C 46.964844 41.015625 47.742188 40.238281 47.742188 39.285156 C 47.742188 39.269531 47.742188 39.253906 47.742188 39.242188 " fill-opacity="1" fill-rule="nonzero"/></g><path fill="#475b42" d="M 30.027344 26.960938 L 26 31.261719 L 21.972656 26.960938 C 21.628906 26.59375 21.4375 26.09375 21.4375 25.5625 C 21.4375 24.488281 22.226562 23.617188 23.191406 23.617188 C 23.953125 23.617188 24.414062 24.132812 24.949219 24.726562 L 25.199219 24.996094 C 25.378906 25.234375 25.652344 25.375 25.953125 25.390625 C 26.257812 25.402344 26.535156 25.289062 26.738281 25.074219 L 27.410156 24.351562 C 27.597656 24.148438 27.617188 24.128906 27.675781 24.074219 C 27.988281 23.78125 28.390625 23.617188 28.804688 23.617188 C 29.496094 23.617188 30.082031 24.027344 30.382812 24.710938 C 30.71875 25.488281 30.578125 26.371094 30.027344 26.960938 Z M 28.804688 22.765625 C 28.171875 22.765625 27.5625 23.011719 27.09375 23.449219 C 27.027344 23.511719 27.003906 23.53125 26.785156 23.769531 L 26.117188 24.488281 C 26.070312 24.535156 26.015625 24.539062 25.992188 24.539062 C 25.964844 24.539062 25.914062 24.527344 25.847656 24.445312 L 25.582031 24.15625 C 24.996094 23.503906 24.332031 22.765625 23.191406 22.765625 C 21.753906 22.765625 20.585938 24.019531 20.585938 25.5625 C 20.585938 26.3125 20.859375 27.015625 21.351562 27.542969 L 25.691406 32.175781 C 25.769531 32.261719 25.882812 32.308594 26 32.308594 C 26.117188 32.308594 26.230469 32.261719 26.3125 32.175781 L 30.648438 27.542969 C 31.433594 26.703125 31.636719 25.460938 31.164062 24.371094 C 30.734375 23.382812 29.832031 22.765625 28.804688 22.765625 " fill-opacity="1" fill-rule="nonzero"/><g clip-path="url(#ebc2909497)"><path fill="#475b42" d="M 26 11.835938 C 27.09375 11.835938 27.984375 12.726562 27.984375 13.820312 C 27.984375 14.917969 27.09375 15.808594 26 15.808594 C 24.902344 15.808594 24.011719 14.917969 24.011719 13.820312 C 24.011719 12.726562 24.902344 11.835938 26 11.835938 Z M 26 16.660156 C 27.5625 16.660156 28.835938 15.386719 28.835938 13.820312 C 28.835938 12.257812 27.5625 10.984375 26 10.984375 C 24.433594 10.984375 23.160156 12.257812 23.160156 13.820312 C 23.160156 15.386719 24.433594 16.660156 26 16.660156 " fill-opacity="1" fill-rule="nonzero"/></g><path fill="#475b42" d="M 12.777344 23.304688 C 20.066406 16.011719 31.933594 16.015625 39.222656 23.304688 C 42.503906 26.585938 44.429688 30.90625 44.671875 35.519531 L 7.324219 35.519531 C 7.570312 30.90625 9.496094 26.585938 12.777344 23.304688 Z M 6.882812 36.371094 L 45.117188 36.371094 C 45.230469 36.371094 45.34375 36.324219 45.421875 36.242188 C 45.503906 36.160156 45.546875 36.046875 45.542969 35.933594 C 45.394531 30.9375 43.363281 26.238281 39.824219 22.703125 C 32.203125 15.078125 19.796875 15.078125 12.171875 22.703125 C 8.632812 26.238281 6.605469 30.9375 6.457031 35.933594 C 6.453125 36.046875 6.496094 36.160156 6.574219 36.242188 C 6.65625 36.324219 6.765625 36.371094 6.882812 36.371094 " fill-opacity="1" fill-rule="nonzero"/><path fill="#475b42" d="M 30.875 27.753906 C 30.382812 28.277344 29.867188 28.851562 29.339844 29.4375 C 28.257812 30.636719 27.140625 31.878906 26.109375 32.847656 C 26.042969 32.90625 25.945312 32.90625 25.882812 32.839844 L 21.125 27.753906 C 20.574219 27.164062 20.269531 26.386719 20.269531 25.558594 C 20.269531 23.84375 21.582031 22.449219 23.191406 22.449219 C 23.902344 22.449219 24.585938 22.726562 25.117188 23.222656 C 25.207031 23.304688 25.257812 23.363281 25.398438 23.511719 L 25.6875 23.824219 C 25.769531 23.910156 25.882812 23.957031 26 23.957031 C 26.117188 23.957031 26.230469 23.910156 26.308594 23.824219 L 26.601562 23.511719 C 26.742188 23.359375 26.792969 23.304688 26.878906 23.222656 C 27.414062 22.726562 28.097656 22.449219 28.804688 22.449219 C 30.417969 22.449219 31.730469 23.84375 31.730469 25.558594 C 31.730469 26.386719 31.425781 27.164062 30.875 27.753906 Z M 28.804688 21.597656 C 27.882812 21.597656 26.992188 21.953125 26.296875 22.601562 C 26.203125 22.691406 26.144531 22.75 26 22.90625 C 25.855469 22.753906 25.796875 22.691406 25.703125 22.601562 C 25.007812 21.953125 24.117188 21.597656 23.191406 21.597656 C 21.109375 21.597656 19.417969 23.375 19.417969 25.558594 C 19.417969 26.601562 19.800781 27.589844 20.503906 28.335938 L 25.261719 33.421875 C 25.460938 33.636719 25.730469 33.742188 26 33.742188 C 26.246094 33.742188 26.496094 33.652344 26.691406 33.472656 C 27.75 32.476562 28.878906 31.222656 29.972656 30.007812 C 30.496094 29.425781 31.007812 28.855469 31.496094 28.335938 C 32.195312 27.589844 32.582031 26.601562 32.582031 25.558594 C 32.582031 23.375 30.886719 21.597656 28.804688 21.597656 " fill-opacity="1" fill-rule="nonzero"/></svg>