<svg xmlns="http://www.w3.org/2000/svg" xmlns:xlink="http://www.w3.org/1999/xlink" width="70" zoomAndPan="magnify" viewBox="0 0 52.5 52.499999" height="70" preserveAspectRatio="xMidYMid meet" version="1.0"><defs><clipPath id="97cd912a2a"><path d="M 3.429688 11.183594 L 48.746094 11.183594 L 48.746094 40.902344 L 3.429688 40.902344 Z M 3.429688 11.183594 " clip-rule="nonzero"/></clipPath></defs><g clip-path="url(#97cd912a2a)"><path fill="#e6b4ab" d="M 45.984375 11.257812 L 5.976562 11.257812 C 5.636719 11.257812 5.308594 11.324219 4.996094 11.453125 C 4.679688 11.585938 4.402344 11.769531 4.164062 12.011719 C 3.921875 12.25 3.738281 12.527344 3.609375 12.84375 C 3.476562 13.15625 3.414062 13.484375 3.410156 13.824219 L 3.410156 38.210938 C 3.414062 38.550781 3.476562 38.875 3.609375 39.191406 C 3.738281 39.503906 3.921875 39.78125 4.164062 40.023438 C 4.402344 40.261719 4.679688 40.449219 4.996094 40.578125 C 5.308594 40.707031 5.636719 40.773438 5.976562 40.773438 L 45.984375 40.773438 C 46.324219 40.773438 46.652344 40.707031 46.96875 40.578125 C 47.28125 40.449219 47.558594 40.261719 47.796875 40.023438 C 48.039062 39.78125 48.222656 39.503906 48.355469 39.191406 C 48.484375 38.875 48.550781 38.550781 48.550781 38.210938 L 48.550781 13.824219 C 48.550781 13.484375 48.484375 13.15625 48.355469 12.84375 C 48.222656 12.527344 48.039062 12.25 47.796875 12.011719 C 47.558594 11.769531 47.28125 11.585938 46.96875 11.453125 C 46.652344 11.324219 46.324219 11.257812 45.984375 11.257812 Z M 33.074219 26.015625 L 47.160156 13.460938 C 47.199219 13.578125 47.21875 13.699219 47.222656 13.824219 L 47.222656 38.210938 C 47.21875 38.332031 47.199219 38.453125 47.160156 38.574219 Z M 45.984375 12.589844 C 46.03125 12.589844 46.078125 12.59375 46.125 12.601562 L 26.800781 29.828125 C 26.566406 30.035156 26.292969 30.140625 25.976562 30.140625 C 25.664062 30.140625 25.390625 30.035156 25.15625 29.828125 L 5.835938 12.601562 C 5.882812 12.59375 5.929688 12.589844 5.976562 12.589844 Z M 4.800781 38.574219 C 4.761719 38.453125 4.742188 38.332031 4.742188 38.210938 L 4.742188 13.824219 C 4.742188 13.699219 4.761719 13.578125 4.800781 13.460938 L 18.886719 26.015625 Z M 5.976562 39.445312 C 5.929688 39.445312 5.882812 39.441406 5.835938 39.433594 L 19.882812 26.90625 L 24.277344 30.820312 C 24.511719 31.03125 24.773438 31.191406 25.070312 31.300781 C 25.363281 31.414062 25.667969 31.46875 25.980469 31.46875 C 26.296875 31.46875 26.601562 31.414062 26.894531 31.300781 C 27.1875 31.191406 27.453125 31.03125 27.6875 30.820312 L 32.078125 26.90625 L 46.125 39.429688 C 46.078125 39.4375 46.03125 39.441406 45.984375 39.445312 Z M 5.976562 39.445312 " fill-opacity="1" fill-rule="nonzero"/></g></svg>