<svg xmlns="http://www.w3.org/2000/svg" xmlns:xlink="http://www.w3.org/1999/xlink" width="70" zoomAndPan="magnify" viewBox="0 0 52.5 52.499999" height="70" preserveAspectRatio="xMidYMid meet" version="1.2"><defs><clipPath id="396604ae8a"><path d="M 10.382812 4.46875 L 41.585938 4.46875 L 41.585938 47.496094 L 10.382812 47.496094 Z M 10.382812 4.46875 "/></clipPath></defs><g id="e803b6ecf4"><g clip-rule="nonzero" clip-path="url(#396604ae8a)"><path style=" stroke:none;fill-rule:nonzero;fill:#ff9a00;fill-opacity:1;" d="M 13.335938 46.589844 L 38.632812 46.589844 C 39.761719 46.589844 40.679688 45.671875 40.679688 44.542969 L 40.679688 7.421875 C 40.679688 6.289062 39.761719 5.371094 38.632812 5.371094 L 13.335938 5.371094 C 12.203125 5.371094 11.289062 6.289062 11.289062 7.421875 L 11.289062 44.542969 C 11.289062 45.671875 12.203125 46.589844 13.335938 46.589844 Z M 39.539062 47.496094 L 12.429688 47.496094 C 11.300781 47.496094 10.382812 46.578125 10.382812 45.445312 L 10.382812 6.515625 C 10.382812 5.382812 11.300781 4.46875 12.429688 4.46875 L 39.539062 4.46875 C 40.667969 4.46875 41.585938 5.382812 41.585938 6.515625 L 41.585938 45.445312 C 41.585938 46.578125 40.667969 47.496094 39.539062 47.496094 "/></g><path style=" stroke:none;fill-rule:nonzero;fill:#ff9a00;fill-opacity:1;" d="M 14.632812 21.371094 L 13.597656 20.042969 C 13.5 19.914062 13.507812 19.734375 13.621094 19.617188 C 13.753906 19.484375 13.9375 19.308594 14.0625 19.449219 L 14.625 20.089844 C 14.761719 20.238281 15 20.234375 15.125 20.074219 L 16.257812 18.625 C 16.347656 18.515625 16.507812 18.503906 16.609375 18.605469 L 16.933594 18.929688 C 17.054688 19.054688 17.0625 19.25 16.945312 19.378906 L 15.128906 21.386719 C 14.992188 21.539062 14.757812 21.527344 14.632812 21.371094 "/><path style=" stroke:none;fill-rule:nonzero;fill:#ff9a00;fill-opacity:1;" d="M 14.632812 27.804688 L 13.597656 26.476562 C 13.5 26.347656 13.507812 26.167969 13.621094 26.050781 C 13.753906 25.917969 13.9375 25.742188 14.0625 25.882812 L 14.625 26.519531 C 14.761719 26.671875 15 26.664062 15.125 26.507812 L 16.109375 25.25 C 16.277344 25.039062 16.589844 25.019531 16.78125 25.210938 L 16.933594 25.363281 C 17.054688 25.488281 17.0625 25.683594 16.945312 25.8125 L 15.128906 27.820312 C 14.992188 27.972656 14.757812 27.960938 14.632812 27.804688 "/><path style=" stroke:none;fill-rule:nonzero;fill:#ff9a00;fill-opacity:1;" d="M 14.632812 34.882812 L 13.597656 33.558594 C 13.5 33.429688 13.507812 33.25 13.621094 33.132812 C 13.753906 32.996094 13.9375 32.820312 14.0625 32.964844 L 14.625 33.601562 C 14.761719 33.753906 15 33.746094 15.125 33.585938 L 16.109375 32.328125 C 16.277344 32.117188 16.589844 32.097656 16.78125 32.289062 L 16.933594 32.445312 C 17.054688 32.566406 17.0625 32.761719 16.945312 32.890625 L 15.128906 34.902344 C 14.992188 35.050781 14.757812 35.042969 14.632812 34.882812 "/><path style=" stroke:none;fill-rule:nonzero;fill:#ff9a00;fill-opacity:1;" d="M 25.429688 13.132812 C 24.941406 13.613281 24.171875 14.191406 23.730469 14.15625 C 23.015625 14.097656 22.09375 13.136719 22.09375 13.136719 C 22.09375 13.136719 19.890625 11.558594 21.214844 10.019531 C 22.160156 8.917969 23.730469 10.683594 23.730469 10.683594 C 23.730469 10.683594 25.195312 8.816406 26.34375 9.457031 C 27.726562 10.226562 26.28125 12.289062 25.429688 13.132812 Z M 27.003906 8.605469 C 25.34375 7.675781 23.734375 9.429688 23.734375 9.429688 C 23.132812 8.953125 22.308594 8.566406 21.53125 8.570312 C 20.257812 8.570312 19.308594 9.898438 19.496094 11.121094 C 19.710938 12.53125 21.160156 13.695312 22.207031 14.503906 C 22.535156 14.753906 22.867188 15.003906 23.253906 15.140625 C 24.414062 15.550781 25.449219 14.476562 26.199219 13.738281 C 27.429688 12.519531 29.007812 9.722656 27.003906 8.605469 "/><path style=" stroke:none;fill-rule:nonzero;fill:#ff9a00;fill-opacity:1;" d="M 29.996094 14.535156 C 29.511719 15.019531 28.738281 15.597656 28.296875 15.5625 C 27.585938 15.503906 26.660156 14.542969 26.660156 14.542969 C 26.660156 14.542969 24.175781 12.960938 25.5 11.421875 C 26.449219 10.324219 28.300781 12.089844 28.300781 12.089844 C 28.300781 12.089844 29.40625 10.355469 30.554688 10.996094 C 31.9375 11.765625 30.847656 13.695312 29.996094 14.535156 Z M 31.574219 10.011719 C 29.910156 9.082031 28.3125 11.070312 28.3125 11.070312 C 27.707031 10.59375 26.875 9.972656 26.097656 9.976562 C 24.824219 9.976562 23.875 11.304688 24.0625 12.527344 C 24.28125 13.9375 25.726562 15.097656 26.777344 15.910156 C 27.101562 16.160156 27.4375 16.410156 27.824219 16.546875 C 28.980469 16.957031 30.019531 15.882812 30.765625 15.144531 C 32 13.921875 33.574219 11.128906 31.574219 10.011719 "/><path style=" stroke:none;fill-rule:nonzero;fill:#ff9a00;fill-opacity:1;" d="M 37.148438 19.996094 L 19.113281 19.996094 C 18.789062 19.996094 18.53125 19.734375 18.53125 19.414062 C 18.53125 19.09375 18.789062 18.832031 19.113281 18.832031 L 37.148438 18.832031 C 37.472656 18.832031 37.734375 19.09375 37.734375 19.414062 C 37.734375 19.734375 37.472656 19.996094 37.148438 19.996094 "/><path style=" stroke:none;fill-rule:nonzero;fill:#ff9a00;fill-opacity:1;" d="M 37.148438 23.679688 L 19.113281 23.679688 C 18.789062 23.679688 18.53125 23.417969 18.53125 23.09375 C 18.53125 22.773438 18.789062 22.511719 19.113281 22.511719 L 37.148438 22.511719 C 37.472656 22.511719 37.734375 22.773438 37.734375 23.09375 C 37.734375 23.417969 37.472656 23.679688 37.148438 23.679688 "/><path style=" stroke:none;fill-rule:nonzero;fill:#ff9a00;fill-opacity:1;" d="M 37.148438 27.359375 L 19.113281 27.359375 C 18.789062 27.359375 18.53125 27.097656 18.53125 26.777344 C 18.53125 26.457031 18.789062 26.195312 19.113281 26.195312 L 37.148438 26.195312 C 37.472656 26.195312 37.734375 26.457031 37.734375 26.777344 C 37.734375 27.097656 37.472656 27.359375 37.148438 27.359375 "/><path style=" stroke:none;fill-rule:nonzero;fill:#ff9a00;fill-opacity:1;" d="M 37.148438 31.042969 L 19.113281 31.042969 C 18.789062 31.042969 18.53125 30.78125 18.53125 30.457031 C 18.53125 30.136719 18.789062 29.875 19.113281 29.875 L 37.148438 29.875 C 37.472656 29.875 37.734375 30.136719 37.734375 30.457031 C 37.734375 30.78125 37.472656 31.042969 37.148438 31.042969 "/><path style=" stroke:none;fill-rule:nonzero;fill:#ff9a00;fill-opacity:1;" d="M 37.148438 34.722656 L 19.113281 34.722656 C 18.789062 34.722656 18.53125 34.460938 18.53125 34.140625 C 18.53125 33.816406 18.789062 33.558594 19.113281 33.558594 L 37.148438 33.558594 C 37.472656 33.558594 37.734375 33.816406 37.734375 34.140625 C 37.734375 34.460938 37.472656 34.722656 37.148438 34.722656 "/><path style=" stroke:none;fill-rule:nonzero;fill:#ff9a00;fill-opacity:1;" d="M 24.511719 42.371094 L 19.335938 42.371094 C 19.027344 42.371094 18.777344 42.121094 18.777344 41.8125 C 18.777344 41.503906 19.027344 41.253906 19.335938 41.253906 L 24.511719 41.253906 C 24.816406 41.253906 25.066406 41.503906 25.066406 41.8125 C 25.066406 42.121094 24.816406 42.371094 24.511719 42.371094 "/><path style=" stroke:none;fill-rule:nonzero;fill:#ff9a00;fill-opacity:1;" d="M 34.242188 37.230469 C 32.078125 37.003906 30.265625 38.816406 30.496094 40.976562 C 30.664062 42.550781 31.929688 43.816406 33.503906 43.984375 C 35.664062 44.214844 37.480469 42.402344 37.25 40.238281 C 37.082031 38.664062 35.816406 37.398438 34.242188 37.230469 Z M 34.265625 44.886719 C 31.589844 45.125 29.355469 42.890625 29.59375 40.214844 C 29.777344 38.164062 31.429688 36.515625 33.480469 36.332031 C 36.15625 36.09375 38.386719 38.324219 38.148438 41 C 37.96875 43.050781 36.316406 44.703125 34.265625 44.886719 "/><path style=" stroke:none;fill-rule:nonzero;fill:#ff9a00;fill-opacity:1;" d="M 36.058594 41.03125 C 35.871094 40.972656 35.761719 40.789062 35.757812 40.59375 C 35.75 39.566406 34.917969 38.730469 33.886719 38.722656 C 33.691406 38.71875 33.507812 38.609375 33.449219 38.425781 C 33.34375 38.113281 33.574219 37.824219 33.871094 37.824219 C 35.410156 37.824219 36.65625 39.074219 36.65625 40.609375 C 36.65625 40.90625 36.371094 41.136719 36.058594 41.03125 "/><path style=" stroke:none;fill-rule:nonzero;fill:#ff9a00;fill-opacity:1;" d="M 33.871094 43.394531 C 32.339844 43.394531 31.09375 42.152344 31.085938 40.621094 C 31.085938 40.40625 31.238281 40.207031 31.449219 40.167969 C 31.734375 40.113281 31.984375 40.332031 31.984375 40.609375 C 31.984375 41.648438 32.828125 42.492188 33.867188 42.496094 C 34.09375 42.496094 34.292969 42.667969 34.320312 42.894531 C 34.347656 43.164062 34.136719 43.394531 33.871094 43.394531 "/></g></svg>