<svg xmlns="http://www.w3.org/2000/svg" xmlns:xlink="http://www.w3.org/1999/xlink" width="70" zoomAndPan="magnify" viewBox="0 0 52.5 52.499999" height="70" preserveAspectRatio="xMidYMid meet" version="1.0"><defs><clipPath id="1102847c2e"><path d="M 4.257812 36.371094 L 48.046875 36.371094 L 48.046875 40.699219 L 4.257812 40.699219 Z M 4.257812 36.371094 " clip-rule="nonzero"/></clipPath><clipPath id="9395c86c78"><path d="M 23 10.984375 L 30 10.984375 L 30 17 L 23 17 Z M 23 10.984375 " clip-rule="nonzero"/></clipPath></defs><g clip-path="url(#1102847c2e)"><path fill="#000000" d="M 46.300781 39.859375 L 6 39.859375 C 5.511719 39.859375 5.117188 39.46875 5.117188 38.992188 L 5.117188 38.128906 C 5.117188 37.648438 5.511719 37.261719 6 37.261719 C 6.019531 37.261719 6.035156 37.261719 6.054688 37.257812 C 6.09375 37.261719 6.160156 37.257812 6.203125 37.257812 C 6.21875 37.257812 6.234375 37.257812 6.25 37.257812 L 46.253906 37.257812 C 46.269531 37.261719 46.285156 37.261719 46.300781 37.261719 C 46.789062 37.261719 47.183594 37.648438 47.183594 38.128906 L 47.183594 38.992188 C 47.183594 39.003906 47.183594 39.015625 47.1875 39.027344 C 47.164062 39.488281 46.777344 39.859375 46.300781 39.859375 Z M 48.042969 38.945312 L 48.042969 38.128906 C 48.042969 37.203125 47.289062 36.445312 46.355469 36.417969 C 46.339844 36.417969 46.320312 36.414062 46.300781 36.414062 L 6.25 36.414062 C 6.238281 36.414062 6.226562 36.417969 6.210938 36.417969 L 6.210938 36.414062 C 6.132812 36.414062 6.0625 36.414062 6 36.417969 C 5.039062 36.417969 4.257812 37.183594 4.257812 38.128906 L 4.257812 38.992188 C 4.257812 39.933594 5.039062 40.703125 6 40.703125 L 46.300781 40.703125 C 47.261719 40.703125 48.046875 39.933594 48.046875 38.992188 C 48.046875 38.976562 48.042969 38.960938 48.042969 38.945312 " fill-opacity="1" fill-rule="nonzero"/></g><path fill="#000000" d="M 30.203125 26.792969 L 26.152344 31.046875 L 22.097656 26.792969 C 21.75 26.429688 21.558594 25.9375 21.558594 25.410156 C 21.558594 24.347656 22.351562 23.488281 23.324219 23.488281 C 24.089844 23.488281 24.554688 23.996094 25.09375 24.582031 L 25.34375 24.851562 C 25.527344 25.085938 25.800781 25.226562 26.101562 25.242188 C 26.410156 25.25 26.6875 25.140625 26.894531 24.925781 L 27.570312 24.210938 C 27.761719 24.011719 27.777344 23.992188 27.835938 23.9375 C 28.152344 23.648438 28.558594 23.488281 28.976562 23.488281 C 29.671875 23.488281 30.261719 23.890625 30.5625 24.570312 C 30.902344 25.335938 30.761719 26.210938 30.203125 26.792969 Z M 28.976562 22.644531 C 28.339844 22.644531 27.726562 22.886719 27.25 23.320312 C 27.183594 23.382812 27.164062 23.402344 26.941406 23.636719 L 26.265625 24.347656 C 26.222656 24.394531 26.167969 24.398438 26.144531 24.398438 C 26.117188 24.398438 26.0625 24.386719 25.996094 24.304688 L 25.730469 24.019531 C 25.140625 23.375 24.472656 22.644531 23.324219 22.644531 C 21.875 22.644531 20.699219 23.882812 20.699219 25.410156 C 20.699219 26.152344 20.972656 26.851562 21.472656 27.371094 L 25.839844 31.953125 C 25.917969 32.039062 26.03125 32.085938 26.152344 32.085938 C 26.269531 32.085938 26.382812 32.039062 26.464844 31.953125 L 30.832031 27.371094 C 31.621094 26.539062 31.824219 25.308594 31.351562 24.234375 C 30.917969 23.253906 30.007812 22.644531 28.976562 22.644531 " fill-opacity="1" fill-rule="nonzero"/><g clip-path="url(#9395c86c78)"><path fill="#000000" d="M 26.148438 11.828125 C 27.253906 11.828125 28.148438 12.707031 28.148438 13.792969 C 28.148438 14.875 27.253906 15.757812 26.148438 15.757812 C 25.046875 15.757812 24.148438 14.875 24.148438 13.792969 C 24.148438 12.707031 25.046875 11.828125 26.148438 11.828125 Z M 26.152344 16.601562 C 27.726562 16.601562 29.007812 15.339844 29.007812 13.792969 C 29.007812 12.242188 27.726562 10.984375 26.148438 10.984375 C 24.574219 10.984375 23.292969 12.242188 23.292969 13.792969 C 23.292969 15.339844 24.574219 16.601562 26.152344 16.601562 " fill-opacity="1" fill-rule="nonzero"/></g><path fill="#000000" d="M 12.835938 23.175781 C 20.175781 15.960938 32.125 15.960938 39.464844 23.175781 C 42.769531 26.421875 44.707031 30.699219 44.953125 35.261719 L 7.347656 35.261719 C 7.59375 30.699219 9.53125 26.421875 12.835938 23.175781 Z M 6.898438 36.105469 L 45.402344 36.105469 C 45.515625 36.105469 45.628906 36.0625 45.707031 35.980469 C 45.789062 35.898438 45.832031 35.785156 45.828125 35.671875 C 45.679688 30.730469 43.636719 26.082031 40.074219 22.578125 C 32.394531 15.035156 19.90625 15.035156 12.226562 22.578125 C 8.664062 26.082031 6.621094 30.730469 6.46875 35.671875 C 6.46875 35.785156 6.511719 35.898438 6.589844 35.980469 C 6.671875 36.0625 6.785156 36.105469 6.898438 36.105469 " fill-opacity="1" fill-rule="nonzero"/><path fill="#000000" d="M 31.058594 27.578125 C 30.566406 28.097656 30.042969 28.664062 29.511719 29.246094 C 28.425781 30.433594 27.300781 31.660156 26.257812 32.621094 C 26.195312 32.679688 26.09375 32.675781 26.035156 32.613281 L 21.242188 27.578125 C 20.6875 26.996094 20.382812 26.222656 20.382812 25.40625 C 20.382812 23.710938 21.699219 22.328125 23.324219 22.328125 C 24.035156 22.328125 24.726562 22.601562 25.261719 23.09375 C 25.351562 23.175781 25.402344 23.230469 25.546875 23.382812 L 25.835938 23.6875 C 25.917969 23.773438 26.03125 23.824219 26.148438 23.824219 C 26.269531 23.824219 26.382812 23.773438 26.460938 23.6875 L 26.753906 23.382812 C 26.898438 23.230469 26.949219 23.175781 27.039062 23.097656 C 27.574219 22.601562 28.265625 22.328125 28.976562 22.328125 C 30.597656 22.328125 31.917969 23.710938 31.917969 25.40625 C 31.917969 26.222656 31.613281 26.996094 31.058594 27.578125 Z M 28.976562 21.484375 C 28.046875 21.484375 27.148438 21.839844 26.449219 22.480469 C 26.355469 22.566406 26.296875 22.628906 26.148438 22.78125 C 26.003906 22.628906 25.945312 22.570312 25.851562 22.480469 C 25.152344 21.839844 24.257812 21.484375 23.324219 21.484375 C 21.226562 21.484375 19.523438 23.246094 19.523438 25.40625 C 19.523438 26.4375 19.910156 27.414062 20.613281 28.152344 L 25.40625 33.1875 C 25.605469 33.398438 25.878906 33.503906 26.152344 33.503906 C 26.398438 33.503906 26.648438 33.414062 26.84375 33.234375 C 27.914062 32.253906 29.050781 31.011719 30.152344 29.808594 C 30.679688 29.234375 31.195312 28.667969 31.6875 28.152344 C 32.390625 27.414062 32.777344 26.4375 32.777344 25.40625 C 32.777344 23.246094 31.074219 21.484375 28.976562 21.484375 " fill-opacity="1" fill-rule="nonzero"/></svg>