<svg xmlns="http://www.w3.org/2000/svg" xmlns:xlink="http://www.w3.org/1999/xlink" width="70" zoomAndPan="magnify" viewBox="0 0 52.5 52.499999" height="70" preserveAspectRatio="xMidYMid meet" version="1.0"><defs><clipPath id="104f495c4c"><path d="M 15 46 L 16 46 L 16 47.609375 L 15 47.609375 Z M 15 46 " clip-rule="nonzero"/></clipPath><clipPath id="2ce8404cd9"><path d="M 25 3.773438 L 27 3.773438 L 27 13 L 25 13 Z M 25 3.773438 " clip-rule="nonzero"/></clipPath><clipPath id="ca95b563bc"><path d="M 36 44 L 41 44 L 41 47.609375 L 36 47.609375 Z M 36 44 " clip-rule="nonzero"/></clipPath><clipPath id="2005843524"><path d="M 46 35 L 48.316406 35 L 48.316406 37 L 46 37 Z M 46 35 " clip-rule="nonzero"/></clipPath></defs><path fill="#000000" d="M 7.699219 9.429688 C 7.503906 9.429688 7.339844 9.273438 7.339844 9.078125 C 7.339844 8.882812 7.496094 8.722656 7.691406 8.722656 L 7.699219 8.722656 C 7.890625 8.722656 8.050781 8.882812 8.050781 9.078125 C 8.050781 9.273438 7.890625 9.429688 7.699219 9.429688 Z M 7.699219 9.429688 " fill-opacity="1" fill-rule="nonzero"/><path fill="#000000" d="M 40.890625 39.832031 C 40.695312 39.832031 40.53125 39.671875 40.53125 39.476562 C 40.53125 39.28125 40.6875 39.125 40.882812 39.125 L 40.890625 39.125 C 41.082031 39.125 41.242188 39.28125 41.242188 39.476562 C 41.242188 39.671875 41.082031 39.832031 40.890625 39.832031 Z M 40.890625 39.832031 " fill-opacity="1" fill-rule="nonzero"/><g clip-path="url(#104f495c4c)"><path fill="#000000" d="M 15.464844 47.609375 C 15.269531 47.609375 15.109375 47.449219 15.109375 47.253906 C 15.109375 47.058594 15.261719 46.902344 15.457031 46.902344 L 15.464844 46.902344 C 15.660156 46.902344 15.820312 47.058594 15.820312 47.253906 C 15.820312 47.449219 15.660156 47.609375 15.464844 47.609375 Z M 15.464844 47.609375 " fill-opacity="1" fill-rule="nonzero"/></g><path fill="#000000" d="M 7.699219 37.003906 C 7.503906 37.003906 7.339844 36.84375 7.339844 36.648438 C 7.339844 36.453125 7.496094 36.296875 7.691406 36.296875 L 7.699219 36.296875 C 7.890625 36.296875 8.050781 36.453125 8.050781 36.648438 C 8.050781 36.84375 7.890625 37.003906 7.699219 37.003906 Z M 7.699219 37.003906 " fill-opacity="1" fill-rule="nonzero"/><path fill="#000000" d="M 46.539062 14.414062 C 46.34375 14.414062 46.183594 14.253906 46.183594 14.058594 C 46.183594 13.863281 46.335938 13.707031 46.53125 13.707031 L 46.539062 13.707031 C 46.734375 13.707031 46.890625 13.863281 46.890625 14.058594 C 46.890625 14.253906 46.734375 14.414062 46.539062 14.414062 Z M 46.539062 14.414062 " fill-opacity="1" fill-rule="nonzero"/><path fill="#000000" d="M 25.683594 44.78125 C 17.117188 44.78125 10.148438 37.800781 10.148438 29.226562 C 10.148438 20.648438 17.117188 13.671875 25.683594 13.671875 C 29.949219 13.671875 33.925781 15.367188 36.882812 18.445312 C 37.015625 18.585938 37.011719 18.808594 36.871094 18.941406 C 36.730469 19.078125 36.507812 19.074219 36.371094 18.933594 C 33.550781 15.996094 29.753906 14.378906 25.683594 14.378906 C 17.507812 14.378906 10.855469 21.039062 10.855469 29.226562 C 10.855469 37.414062 17.507812 44.074219 25.683594 44.074219 C 33.863281 44.074219 40.515625 37.414062 40.515625 29.226562 C 40.515625 27.1875 40.109375 25.210938 39.308594 23.355469 C 39.230469 23.175781 39.316406 22.96875 39.492188 22.890625 C 39.671875 22.8125 39.882812 22.894531 39.957031 23.074219 C 40.796875 25.019531 41.222656 27.089844 41.222656 29.226562 C 41.222656 37.800781 34.25 44.78125 25.683594 44.78125 Z M 25.683594 44.78125 " fill-opacity="1" fill-rule="nonzero"/><path fill="#000000" d="M 29.28125 43.070312 C 29.257812 43.070312 29.234375 43.070312 29.210938 43.0625 C 29.019531 43.023438 28.898438 42.839844 28.933594 42.648438 C 28.949219 42.578125 30.339844 35.550781 30.339844 29.226562 C 30.339844 22.898438 28.949219 15.875 28.933594 15.804688 C 28.898438 15.613281 29.019531 15.425781 29.210938 15.386719 C 29.398438 15.351562 29.589844 15.472656 29.628906 15.664062 C 29.640625 15.738281 31.046875 22.828125 31.046875 29.226562 C 31.046875 35.625 29.640625 42.714844 29.628906 42.785156 C 29.59375 42.953125 29.445312 43.070312 29.28125 43.070312 Z M 29.28125 43.070312 " fill-opacity="1" fill-rule="nonzero"/><path fill="#000000" d="M 32.8125 41.65625 C 32.773438 41.65625 32.734375 41.652344 32.695312 41.636719 C 32.511719 41.570312 32.414062 41.371094 32.480469 41.183594 C 32.5 41.125 34.578125 35.171875 34.578125 29.226562 C 34.578125 23.277344 32.5 17.328125 32.480469 17.265625 C 32.414062 17.082031 32.511719 16.882812 32.695312 16.816406 C 32.878906 16.75 33.078125 16.847656 33.144531 17.03125 C 33.167969 17.089844 35.285156 23.15625 35.285156 29.226562 C 35.285156 35.296875 33.167969 41.359375 33.144531 41.421875 C 33.09375 41.566406 32.957031 41.65625 32.8125 41.65625 Z M 32.8125 41.65625 " fill-opacity="1" fill-rule="nonzero"/><path fill="#000000" d="M 36.34375 38.84375 C 36.292969 38.84375 36.242188 38.832031 36.195312 38.8125 C 36.019531 38.730469 35.941406 38.519531 36.023438 38.34375 C 36.042969 38.296875 38.109375 33.753906 38.109375 29.226562 C 38.109375 27.84375 37.917969 26.324219 37.542969 24.714844 C 37.496094 24.523438 37.617188 24.332031 37.804688 24.289062 C 38.003906 24.242188 38.183594 24.363281 38.230469 24.550781 C 38.617188 26.214844 38.816406 27.789062 38.816406 29.226562 C 38.816406 33.914062 36.75 38.445312 36.664062 38.636719 C 36.605469 38.765625 36.476562 38.84375 36.34375 38.84375 Z M 36.34375 38.84375 " fill-opacity="1" fill-rule="nonzero"/><path fill="#000000" d="M 20.910156 26.398438 C 20.902344 26.398438 20.894531 26.398438 20.886719 26.398438 C 20.691406 26.386719 20.542969 26.21875 20.554688 26.023438 C 20.878906 20.683594 21.863281 15.714844 21.875 15.664062 C 21.910156 15.472656 22.101562 15.351562 22.289062 15.386719 C 22.480469 15.425781 22.605469 15.613281 22.566406 15.804688 C 22.554688 15.855469 21.578125 20.777344 21.261719 26.066406 C 21.25 26.253906 21.09375 26.398438 20.910156 26.398438 Z M 20.910156 26.398438 " fill-opacity="1" fill-rule="nonzero"/><path fill="#000000" d="M 22.21875 43.070312 C 22.054688 43.070312 21.90625 42.953125 21.875 42.785156 C 21.863281 42.738281 20.878906 37.769531 20.554688 32.429688 C 20.542969 32.234375 20.691406 32.066406 20.886719 32.054688 C 21.101562 32.035156 21.25 32.191406 21.261719 32.386719 C 21.582031 37.679688 22.554688 42.597656 22.566406 42.648438 C 22.605469 42.839844 22.480469 43.023438 22.289062 43.0625 C 22.265625 43.070312 22.242188 43.070312 22.21875 43.070312 Z M 22.21875 43.070312 " fill-opacity="1" fill-rule="nonzero"/><path fill="#000000" d="M 18.6875 41.65625 C 18.542969 41.65625 18.40625 41.566406 18.355469 41.421875 C 18.335938 41.359375 16.214844 35.296875 16.214844 29.226562 C 16.214844 23.15625 18.332031 17.089844 18.355469 17.03125 C 18.421875 16.847656 18.621094 16.75 18.804688 16.816406 C 18.988281 16.882812 19.085938 17.082031 19.023438 17.265625 C 19 17.328125 16.921875 23.28125 16.921875 29.226562 C 16.921875 35.171875 19 41.125 19.023438 41.183594 C 19.085938 41.371094 18.988281 41.570312 18.804688 41.636719 C 18.765625 41.652344 18.726562 41.65625 18.6875 41.65625 Z M 18.6875 41.65625 " fill-opacity="1" fill-rule="nonzero"/><path fill="#000000" d="M 15.15625 38.84375 C 15.023438 38.84375 14.894531 38.765625 14.835938 38.636719 C 14.75 38.445312 12.6875 33.914062 12.6875 29.226562 C 12.6875 24.539062 14.75 20.003906 14.835938 19.816406 C 14.917969 19.636719 15.128906 19.558594 15.304688 19.640625 C 15.480469 19.722656 15.558594 19.933594 15.476562 20.109375 C 15.457031 20.15625 13.390625 24.695312 13.390625 29.226562 C 13.390625 33.753906 15.457031 38.296875 15.476562 38.34375 C 15.558594 38.519531 15.480469 38.730469 15.304688 38.8125 C 15.257812 38.832031 15.207031 38.84375 15.15625 38.84375 Z M 15.15625 38.84375 " fill-opacity="1" fill-rule="nonzero"/><path fill="#000000" d="M 18.269531 29.578125 L 11.566406 29.578125 C 11.371094 29.578125 11.214844 29.421875 11.214844 29.226562 C 11.214844 29.03125 11.371094 28.871094 11.566406 28.871094 L 18.269531 28.871094 C 18.464844 28.871094 18.621094 29.03125 18.621094 29.226562 C 18.621094 29.421875 18.464844 29.578125 18.269531 29.578125 Z M 18.269531 29.578125 " fill-opacity="1" fill-rule="nonzero"/><path fill="#000000" d="M 39.933594 29.578125 L 23.210938 29.578125 C 23.015625 29.578125 22.859375 29.421875 22.859375 29.226562 C 22.859375 29.03125 23.015625 28.871094 23.210938 28.871094 L 39.933594 28.871094 C 40.128906 28.871094 40.285156 29.03125 40.285156 29.226562 C 40.285156 29.421875 40.128906 29.578125 39.933594 29.578125 Z M 39.933594 29.578125 " fill-opacity="1" fill-rule="nonzero"/><path fill="#000000" d="M 25.691406 34.46875 C 19.300781 34.46875 12.21875 33.0625 12.144531 33.050781 C 11.953125 33.011719 11.832031 32.824219 11.871094 32.632812 C 11.90625 32.441406 12.097656 32.316406 12.285156 32.355469 C 12.355469 32.371094 19.371094 33.761719 25.691406 33.761719 C 32.011719 33.761719 39.027344 32.371094 39.097656 32.355469 C 39.289062 32.316406 39.476562 32.441406 39.515625 32.632812 C 39.554688 32.824219 39.429688 33.011719 39.238281 33.050781 C 39.167969 33.0625 32.082031 34.46875 25.691406 34.46875 Z M 25.691406 34.46875 " fill-opacity="1" fill-rule="nonzero"/><path fill="#000000" d="M 25.691406 38.710938 C 19.628906 38.710938 13.570312 36.59375 13.511719 36.570312 C 13.328125 36.503906 13.230469 36.304688 13.292969 36.117188 C 13.359375 35.933594 13.5625 35.839844 13.746094 35.902344 C 13.804688 35.925781 19.75 38.003906 25.691406 38.003906 C 31.632812 38.003906 37.578125 35.925781 37.636719 35.902344 C 37.820312 35.839844 38.023438 35.933594 38.089844 36.117188 C 38.152344 36.304688 38.058594 36.503906 37.875 36.570312 C 37.8125 36.59375 31.757812 38.710938 25.691406 38.710938 Z M 25.691406 38.710938 " fill-opacity="1" fill-rule="nonzero"/><path fill="#000000" d="M 25.691406 42.246094 C 21.007812 42.246094 16.480469 40.179688 16.289062 40.09375 C 16.113281 40.011719 16.035156 39.800781 16.117188 39.625 C 16.199219 39.445312 16.410156 39.371094 16.585938 39.449219 C 16.632812 39.472656 21.167969 41.539062 25.691406 41.539062 C 30.214844 41.539062 34.753906 39.472656 34.796875 39.449219 C 34.972656 39.371094 35.183594 39.445312 35.265625 39.625 C 35.347656 39.800781 35.269531 40.011719 35.09375 40.09375 C 34.902344 40.179688 30.375 42.246094 25.691406 42.246094 Z M 25.691406 42.246094 " fill-opacity="1" fill-rule="nonzero"/><path fill="#000000" d="M 12.214844 25.984375 C 12.050781 25.984375 11.902344 25.871094 11.871094 25.703125 C 11.832031 25.511719 11.953125 25.324219 12.144531 25.285156 C 12.21875 25.273438 19.300781 23.863281 25.691406 23.863281 C 32.082031 23.863281 39.167969 25.273438 39.238281 25.285156 C 39.429688 25.324219 39.554688 25.511719 39.515625 25.703125 C 39.476562 25.894531 39.289062 26.015625 39.097656 25.980469 C 39.027344 25.964844 32.011719 24.570312 25.691406 24.570312 C 19.371094 24.570312 12.355469 25.964844 12.285156 25.980469 C 12.261719 25.984375 12.238281 25.984375 12.214844 25.984375 Z M 12.214844 25.984375 " fill-opacity="1" fill-rule="nonzero"/><path fill="#000000" d="M 13.628906 22.453125 C 13.480469 22.453125 13.347656 22.359375 13.292969 22.214844 C 13.230469 22.03125 13.328125 21.828125 13.511719 21.765625 C 13.570312 21.742188 19.628906 19.625 25.691406 19.625 C 29.355469 19.625 32.984375 20.382812 35.378906 21.015625 C 35.566406 21.066406 35.679688 21.261719 35.628906 21.449219 C 35.578125 21.636719 35.390625 21.753906 35.199219 21.699219 C 32.84375 21.074219 29.28125 20.332031 25.691406 20.332031 C 19.75 20.332031 13.804688 22.410156 13.746094 22.429688 C 13.707031 22.445312 13.667969 22.453125 13.628906 22.453125 Z M 13.628906 22.453125 " fill-opacity="1" fill-rule="nonzero"/><path fill="#000000" d="M 16.4375 18.917969 C 16.304688 18.917969 16.175781 18.839844 16.117188 18.710938 C 16.035156 18.53125 16.113281 18.324219 16.289062 18.242188 C 16.480469 18.152344 21.007812 16.089844 25.691406 16.089844 C 30.375 16.089844 34.902344 18.152344 35.09375 18.242188 C 35.269531 18.324219 35.347656 18.535156 35.265625 18.710938 C 35.183594 18.890625 34.972656 18.964844 34.796875 18.882812 C 34.753906 18.863281 30.214844 16.796875 25.691406 16.796875 C 21.167969 16.796875 16.632812 18.863281 16.585938 18.882812 C 16.539062 18.90625 16.488281 18.917969 16.4375 18.917969 Z M 16.4375 18.917969 " fill-opacity="1" fill-rule="nonzero"/><path fill="#000000" d="M 25.691406 43.71875 C 25.496094 43.71875 25.339844 43.5625 25.339844 43.367188 L 25.339844 14.96875 C 25.339844 14.773438 25.496094 14.617188 25.691406 14.617188 C 25.886719 14.617188 26.046875 14.773438 26.046875 14.96875 L 26.046875 43.367188 C 26.046875 43.5625 25.886719 43.71875 25.691406 43.71875 Z M 25.691406 43.71875 " fill-opacity="1" fill-rule="nonzero"/><g clip-path="url(#2ce8404cd9)"><path fill="#000000" d="M 25.683594 12.964844 C 25.488281 12.964844 25.332031 12.808594 25.332031 12.613281 L 25.332031 4.128906 C 25.332031 3.933594 25.488281 3.773438 25.683594 3.773438 C 25.878906 3.773438 26.039062 3.933594 26.039062 4.128906 L 26.039062 12.613281 C 26.039062 12.808594 25.878906 12.964844 25.683594 12.964844 Z M 25.683594 12.964844 " fill-opacity="1" fill-rule="nonzero"/></g><path fill="#000000" d="M 4.851562 23.570312 C 4.65625 23.570312 4.5 23.414062 4.5 23.21875 C 4.5 21.574219 6.042969 20.808594 6.109375 20.777344 C 6.285156 20.691406 6.496094 20.765625 6.582031 20.941406 C 6.664062 21.117188 6.59375 21.328125 6.417969 21.414062 C 6.367188 21.4375 5.203125 22.023438 5.203125 23.21875 C 5.203125 23.414062 5.046875 23.570312 4.851562 23.570312 Z M 4.851562 23.570312 " fill-opacity="1" fill-rule="nonzero"/><path fill="#000000" d="M 6.261719 21.449219 C 6.210938 21.449219 6.160156 21.4375 6.109375 21.414062 C 6.042969 21.382812 4.5 20.617188 4.5 18.976562 C 4.5 18.78125 4.65625 18.621094 4.851562 18.621094 C 5.046875 18.621094 5.203125 18.78125 5.203125 18.976562 C 5.203125 20.179688 6.40625 20.773438 6.417969 20.777344 C 6.59375 20.863281 6.667969 21.074219 6.582031 21.25 C 6.519531 21.375 6.394531 21.449219 6.261719 21.449219 Z M 6.261719 21.449219 " fill-opacity="1" fill-rule="nonzero"/><path fill="#000000" d="M 3.441406 21.449219 C 3.308594 21.449219 3.183594 21.375 3.121094 21.25 C 3.035156 21.074219 3.109375 20.863281 3.285156 20.777344 C 3.332031 20.753906 4.5 20.167969 4.5 18.976562 C 4.5 18.78125 4.65625 18.621094 4.851562 18.621094 C 5.046875 18.621094 5.203125 18.78125 5.203125 18.976562 C 5.203125 20.617188 3.65625 21.382812 3.59375 21.414062 C 3.542969 21.4375 3.492188 21.449219 3.441406 21.449219 Z M 3.441406 21.449219 " fill-opacity="1" fill-rule="nonzero"/><path fill="#000000" d="M 4.851562 23.570312 C 4.65625 23.570312 4.5 23.414062 4.5 23.21875 C 4.5 22.015625 3.296875 21.421875 3.285156 21.414062 C 3.109375 21.328125 3.035156 21.117188 3.121094 20.941406 C 3.207031 20.765625 3.417969 20.691406 3.59375 20.777344 C 3.65625 20.808594 5.203125 21.574219 5.203125 23.21875 C 5.203125 23.414062 5.046875 23.570312 4.851562 23.570312 Z M 4.851562 23.570312 " fill-opacity="1" fill-rule="nonzero"/><path fill="#000000" d="M 38.042969 23.570312 C 37.847656 23.570312 37.691406 23.414062 37.691406 23.21875 C 37.691406 21.574219 39.234375 20.808594 39.300781 20.777344 C 39.476562 20.691406 39.6875 20.765625 39.773438 20.941406 C 39.859375 21.117188 39.785156 21.328125 39.609375 21.414062 C 39.558594 21.4375 38.394531 22.023438 38.394531 23.21875 C 38.394531 23.414062 38.238281 23.570312 38.042969 23.570312 Z M 38.042969 23.570312 " fill-opacity="1" fill-rule="nonzero"/><path fill="#000000" d="M 39.457031 21.449219 C 39.402344 21.449219 39.351562 21.4375 39.300781 21.414062 C 39.234375 21.382812 37.691406 20.617188 37.691406 18.976562 C 37.691406 18.78125 37.847656 18.621094 38.042969 18.621094 C 38.238281 18.621094 38.394531 18.78125 38.394531 18.976562 C 38.394531 20.179688 39.597656 20.773438 39.609375 20.777344 C 39.785156 20.863281 39.859375 21.074219 39.773438 21.25 C 39.710938 21.375 39.585938 21.449219 39.457031 21.449219 Z M 39.457031 21.449219 " fill-opacity="1" fill-rule="nonzero"/><path fill="#000000" d="M 36.632812 21.449219 C 36.5 21.449219 36.375 21.375 36.3125 21.25 C 36.230469 21.074219 36.300781 20.863281 36.476562 20.777344 C 36.527344 20.753906 37.691406 20.167969 37.691406 18.976562 C 37.691406 18.78125 37.847656 18.621094 38.042969 18.621094 C 38.238281 18.621094 38.394531 18.78125 38.394531 18.976562 C 38.394531 20.617188 36.851562 21.382812 36.785156 21.414062 C 36.734375 21.4375 36.683594 21.449219 36.632812 21.449219 Z M 36.632812 21.449219 " fill-opacity="1" fill-rule="nonzero"/><path fill="#000000" d="M 38.042969 23.570312 C 37.847656 23.570312 37.691406 23.414062 37.691406 23.21875 C 37.691406 22.015625 36.488281 21.421875 36.476562 21.414062 C 36.300781 21.328125 36.226562 21.117188 36.3125 20.941406 C 36.398438 20.765625 36.613281 20.691406 36.785156 20.777344 C 36.851562 20.808594 38.394531 21.574219 38.394531 23.21875 C 38.394531 23.414062 38.238281 23.570312 38.042969 23.570312 Z M 38.042969 23.570312 " fill-opacity="1" fill-rule="nonzero"/><path fill="#000000" d="M 20.742188 31.640625 C 20.546875 31.640625 20.386719 31.484375 20.386719 31.289062 C 20.386719 29.644531 21.933594 28.878906 22 28.847656 C 22.175781 28.761719 22.386719 28.839844 22.46875 29.011719 C 22.554688 29.1875 22.480469 29.398438 22.308594 29.484375 C 22.257812 29.507812 21.09375 30.09375 21.09375 31.289062 C 21.09375 31.484375 20.9375 31.640625 20.742188 31.640625 Z M 20.742188 31.640625 " fill-opacity="1" fill-rule="nonzero"/><path fill="#000000" d="M 22.152344 29.519531 C 22.101562 29.519531 22.050781 29.507812 22 29.484375 C 21.933594 29.453125 20.386719 28.6875 20.386719 27.046875 C 20.386719 26.851562 20.546875 26.691406 20.742188 26.691406 C 20.9375 26.691406 21.09375 26.851562 21.09375 27.046875 C 21.09375 28.25 22.292969 28.84375 22.304688 28.847656 C 22.480469 28.933594 22.554688 29.144531 22.472656 29.320312 C 22.410156 29.445312 22.285156 29.519531 22.152344 29.519531 Z M 22.152344 29.519531 " fill-opacity="1" fill-rule="nonzero"/><path fill="#000000" d="M 19.328125 29.519531 C 19.199219 29.519531 19.074219 29.445312 19.011719 29.320312 C 18.925781 29.144531 19 28.933594 19.175781 28.847656 C 19.222656 28.824219 20.386719 28.238281 20.386719 27.046875 C 20.386719 26.851562 20.546875 26.691406 20.742188 26.691406 C 20.9375 26.691406 21.09375 26.851562 21.09375 27.046875 C 21.09375 28.6875 19.546875 29.453125 19.480469 29.484375 C 19.433594 29.507812 19.378906 29.519531 19.328125 29.519531 Z M 19.328125 29.519531 " fill-opacity="1" fill-rule="nonzero"/><path fill="#000000" d="M 20.742188 31.640625 C 20.546875 31.640625 20.386719 31.484375 20.386719 31.289062 C 20.386719 30.085938 19.1875 29.492188 19.175781 29.484375 C 19 29.398438 18.925781 29.1875 19.011719 29.011719 C 19.09375 28.835938 19.308594 28.761719 19.480469 28.847656 C 19.546875 28.878906 21.09375 29.644531 21.09375 31.289062 C 21.09375 31.484375 20.9375 31.640625 20.742188 31.640625 Z M 20.742188 31.640625 " fill-opacity="1" fill-rule="nonzero"/><path fill="#000000" d="M 19.847656 10.777344 C 19.792969 10.777344 19.734375 10.761719 19.683594 10.734375 L 18.976562 10.363281 L 18.265625 10.734375 C 18.148438 10.796875 18.003906 10.789062 17.894531 10.707031 C 17.785156 10.628906 17.730469 10.496094 17.753906 10.363281 L 17.890625 9.574219 L 17.316406 9.011719 C 17.21875 8.917969 17.1875 8.777344 17.226562 8.652344 C 17.269531 8.523438 17.378906 8.429688 17.511719 8.410156 L 18.304688 8.292969 L 18.660156 7.574219 C 18.777344 7.335938 19.171875 7.335938 19.292969 7.574219 L 19.644531 8.292969 L 20.4375 8.410156 C 20.570312 8.429688 20.683594 8.523438 20.722656 8.652344 C 20.765625 8.777344 20.730469 8.917969 20.632812 9.011719 L 20.0625 9.574219 L 20.195312 10.363281 C 20.21875 10.496094 20.164062 10.628906 20.054688 10.707031 C 19.996094 10.753906 19.921875 10.777344 19.847656 10.777344 Z M 18.976562 9.609375 C 19.03125 9.609375 19.089844 9.621094 19.140625 9.648438 L 19.378906 9.777344 L 19.332031 9.507812 C 19.3125 9.394531 19.351562 9.277344 19.433594 9.195312 L 19.628906 9.007812 L 19.359375 8.96875 C 19.246094 8.949219 19.144531 8.878906 19.09375 8.773438 L 18.976562 8.53125 L 18.855469 8.773438 C 18.804688 8.878906 18.703125 8.949219 18.589844 8.96875 L 18.320312 9.007812 L 18.515625 9.195312 C 18.597656 9.277344 18.636719 9.394531 18.617188 9.507812 L 18.570312 9.777344 L 18.8125 9.648438 C 18.863281 9.621094 18.917969 9.609375 18.976562 9.609375 Z M 18.976562 9.609375 " fill-opacity="1" fill-rule="nonzero"/><g clip-path="url(#ca95b563bc)"><path fill="#000000" d="M 39.621094 47.539062 C 39.566406 47.539062 39.511719 47.527344 39.457031 47.496094 L 38.75 47.125 L 38.042969 47.496094 C 37.921875 47.5625 37.777344 47.550781 37.667969 47.472656 C 37.5625 47.390625 37.503906 47.257812 37.527344 47.125 L 37.664062 46.335938 L 37.089844 45.777344 C 36.992188 45.683594 36.960938 45.542969 37 45.414062 C 37.042969 45.285156 37.152344 45.191406 37.285156 45.171875 L 38.078125 45.058594 L 38.433594 44.339844 C 38.492188 44.21875 38.613281 44.140625 38.75 44.140625 C 38.882812 44.140625 39.007812 44.21875 39.066406 44.339844 L 39.421875 45.058594 L 40.210938 45.171875 C 40.34375 45.191406 40.457031 45.285156 40.496094 45.414062 C 40.539062 45.542969 40.503906 45.683594 40.40625 45.777344 L 39.835938 46.335938 L 39.96875 47.125 C 39.992188 47.257812 39.9375 47.390625 39.828125 47.472656 C 39.769531 47.515625 39.695312 47.539062 39.621094 47.539062 Z M 38.75 46.371094 C 38.804688 46.371094 38.863281 46.386719 38.914062 46.414062 L 39.152344 46.539062 L 39.105469 46.273438 C 39.085938 46.15625 39.125 46.039062 39.210938 45.957031 L 39.402344 45.769531 L 39.136719 45.730469 C 39.019531 45.714844 38.921875 45.640625 38.871094 45.539062 L 38.75 45.292969 L 38.628906 45.535156 C 38.578125 45.640625 38.480469 45.714844 38.363281 45.730469 L 38.097656 45.769531 L 38.289062 45.957031 C 38.371094 46.039062 38.410156 46.15625 38.390625 46.269531 L 38.34375 46.539062 L 38.585938 46.414062 C 38.636719 46.386719 38.691406 46.371094 38.75 46.371094 Z M 38.75 46.371094 " fill-opacity="1" fill-rule="nonzero"/></g><path fill="#000000" d="M 47.222656 37.710938 C 47.027344 37.710938 46.871094 37.550781 46.871094 37.355469 L 46.871094 34.527344 C 46.871094 34.332031 47.027344 34.175781 47.222656 34.175781 C 47.417969 34.175781 47.578125 34.332031 47.578125 34.527344 L 47.578125 37.355469 C 47.578125 37.550781 47.417969 37.710938 47.222656 37.710938 Z M 47.222656 37.710938 " fill-opacity="1" fill-rule="nonzero"/><g clip-path="url(#2005843524)"><path fill="#000000" d="M 47.929688 36.296875 L 46.515625 36.296875 C 46.324219 36.296875 46.164062 36.136719 46.164062 35.941406 C 46.164062 35.746094 46.324219 35.589844 46.515625 35.589844 L 47.929688 35.589844 C 48.125 35.589844 48.28125 35.746094 48.28125 35.941406 C 48.28125 36.136719 48.125 36.296875 47.929688 36.296875 Z M 47.929688 36.296875 " fill-opacity="1" fill-rule="nonzero"/></g><path fill="#000000" d="M 6.261719 46.195312 C 6.070312 46.195312 5.910156 46.035156 5.910156 45.839844 L 5.910156 43.011719 C 5.910156 42.816406 6.070312 42.660156 6.261719 42.660156 C 6.457031 42.660156 6.617188 42.816406 6.617188 43.011719 L 6.617188 45.839844 C 6.617188 46.035156 6.457031 46.195312 6.261719 46.195312 Z M 6.261719 46.195312 " fill-opacity="1" fill-rule="nonzero"/><path fill="#000000" d="M 6.96875 44.78125 L 5.558594 44.78125 C 5.363281 44.78125 5.203125 44.621094 5.203125 44.425781 C 5.203125 44.230469 5.363281 44.074219 5.558594 44.074219 L 6.96875 44.074219 C 7.164062 44.074219 7.324219 44.230469 7.324219 44.425781 C 7.324219 44.621094 7.164062 44.78125 6.96875 44.78125 Z M 6.96875 44.78125 " fill-opacity="1" fill-rule="nonzero"/><path fill="#000000" d="M 37.335938 13.671875 C 37.140625 13.671875 36.984375 13.515625 36.984375 13.320312 L 36.984375 10.492188 C 36.984375 10.296875 37.140625 10.136719 37.335938 10.136719 C 37.53125 10.136719 37.691406 10.296875 37.691406 10.492188 L 37.691406 13.320312 C 37.691406 13.515625 37.53125 13.671875 37.335938 13.671875 Z M 37.335938 13.671875 " fill-opacity="1" fill-rule="nonzero"/><path fill="#000000" d="M 38.042969 12.257812 L 36.628906 12.257812 C 36.433594 12.257812 36.277344 12.101562 36.277344 11.90625 C 36.277344 11.710938 36.433594 11.550781 36.628906 11.550781 L 38.042969 11.550781 C 38.238281 11.550781 38.394531 11.710938 38.394531 11.90625 C 38.394531 12.101562 38.238281 12.257812 38.042969 12.257812 Z M 38.042969 12.257812 " fill-opacity="1" fill-rule="nonzero"/></svg>