<svg xmlns="http://www.w3.org/2000/svg" xmlns:xlink="http://www.w3.org/1999/xlink" width="70" zoomAndPan="magnify" viewBox="0 0 52.5 52.499999" height="70" preserveAspectRatio="xMidYMid meet" version="1.0"><defs><clipPath id="411469be5d"><path d="M 2.957031 32.492188 L 48.976562 32.492188 L 48.976562 37.144531 L 2.957031 37.144531 Z M 2.957031 32.492188 " clip-rule="nonzero"/></clipPath><clipPath id="3ddabe313c"><path d="M 22 5.199219 L 29 5.199219 L 29 12 L 22 12 Z M 22 5.199219 " clip-rule="nonzero"/></clipPath></defs><g clip-path="url(#411469be5d)"><path fill="#000000" d="M 47.144531 36.242188 L 4.785156 36.242188 C 4.273438 36.242188 3.859375 35.820312 3.859375 35.308594 L 3.859375 34.382812 C 3.859375 33.867188 4.273438 33.449219 4.785156 33.449219 C 4.804688 33.449219 4.824219 33.449219 4.839844 33.445312 C 4.882812 33.449219 4.957031 33.445312 5 33.445312 C 5.015625 33.445312 5.03125 33.445312 5.050781 33.445312 L 47.09375 33.445312 C 47.113281 33.449219 47.128906 33.449219 47.144531 33.449219 C 47.65625 33.449219 48.070312 33.867188 48.070312 34.382812 L 48.070312 35.308594 C 48.070312 35.320312 48.070312 35.335938 48.074219 35.347656 C 48.050781 35.84375 47.644531 36.242188 47.144531 36.242188 Z M 48.972656 35.257812 L 48.972656 34.382812 C 48.972656 33.386719 48.183594 32.574219 47.199219 32.542969 C 47.183594 32.542969 47.164062 32.539062 47.144531 32.539062 L 5.050781 32.539062 C 5.035156 32.539062 5.023438 32.542969 5.007812 32.542969 L 5.007812 32.539062 C 4.925781 32.539062 4.851562 32.539062 4.785156 32.542969 C 3.777344 32.542969 2.957031 33.367188 2.957031 34.382812 L 2.957031 35.308594 C 2.957031 36.324219 3.777344 37.148438 4.785156 37.148438 L 47.144531 37.148438 C 48.152344 37.148438 48.976562 36.324219 48.976562 35.308594 C 48.976562 35.292969 48.976562 35.273438 48.972656 35.257812 " fill-opacity="1" fill-rule="nonzero"/></g><path fill="#000000" d="M 30.226562 22.195312 L 25.964844 26.769531 L 21.703125 22.195312 C 21.339844 21.804688 21.136719 21.277344 21.136719 20.707031 C 21.136719 19.566406 21.96875 18.640625 22.992188 18.640625 C 23.800781 18.640625 24.289062 19.1875 24.851562 19.820312 L 25.117188 20.105469 C 25.308594 20.359375 25.597656 20.511719 25.914062 20.527344 C 26.234375 20.539062 26.53125 20.417969 26.746094 20.1875 L 27.457031 19.421875 C 27.65625 19.203125 27.675781 19.183594 27.734375 19.125 C 28.070312 18.8125 28.496094 18.640625 28.933594 18.640625 C 29.664062 18.640625 30.285156 19.078125 30.601562 19.804688 C 30.957031 20.628906 30.808594 21.570312 30.226562 22.195312 Z M 28.933594 17.734375 C 28.265625 17.734375 27.621094 17.996094 27.121094 18.460938 C 27.050781 18.527344 27.027344 18.550781 26.796875 18.804688 L 26.085938 19.566406 C 26.039062 19.617188 25.980469 19.621094 25.957031 19.621094 C 25.929688 19.621094 25.871094 19.609375 25.800781 19.519531 L 25.523438 19.214844 C 24.902344 18.519531 24.203125 17.734375 22.992188 17.734375 C 21.472656 17.734375 20.234375 19.066406 20.234375 20.707031 C 20.234375 21.507812 20.523438 22.257812 21.046875 22.816406 L 25.636719 27.742188 C 25.722656 27.835938 25.839844 27.886719 25.964844 27.886719 C 26.089844 27.886719 26.210938 27.835938 26.292969 27.742188 L 30.882812 22.816406 C 31.714844 21.925781 31.929688 20.601562 31.429688 19.441406 C 30.972656 18.390625 30.019531 17.734375 28.933594 17.734375 " fill-opacity="1" fill-rule="nonzero"/><g clip-path="url(#3ddabe313c)"><path fill="#000000" d="M 25.964844 6.109375 C 27.121094 6.109375 28.066406 7.054688 28.066406 8.21875 C 28.066406 9.382812 27.121094 10.332031 25.964844 10.332031 C 24.804688 10.332031 23.863281 9.382812 23.863281 8.21875 C 23.863281 7.054688 24.804688 6.109375 25.964844 6.109375 Z M 25.964844 11.238281 C 27.621094 11.238281 28.96875 9.882812 28.96875 8.21875 C 28.96875 6.554688 27.621094 5.199219 25.964844 5.199219 C 24.308594 5.199219 22.960938 6.554688 22.960938 8.21875 C 22.960938 9.882812 24.308594 11.238281 25.964844 11.238281 " fill-opacity="1" fill-rule="nonzero"/></g><path fill="#000000" d="M 11.96875 18.308594 C 19.6875 10.550781 32.242188 10.550781 39.957031 18.308594 C 43.429688 21.796875 45.46875 26.394531 45.726562 31.300781 L 6.203125 31.300781 C 6.460938 26.394531 8.5 21.796875 11.96875 18.308594 Z M 5.730469 32.207031 L 46.195312 32.207031 C 46.320312 32.207031 46.4375 32.160156 46.519531 32.070312 C 46.605469 31.980469 46.652344 31.863281 46.648438 31.742188 C 46.492188 26.429688 44.339844 21.429688 40.597656 17.664062 C 32.527344 9.558594 19.398438 9.554688 11.332031 17.664062 C 7.585938 21.429688 5.4375 26.429688 5.28125 31.742188 C 5.277344 31.863281 5.324219 31.980469 5.40625 32.070312 C 5.492188 32.160156 5.609375 32.207031 5.730469 32.207031 " fill-opacity="1" fill-rule="nonzero"/><path fill="#000000" d="M 31.121094 23.039062 C 30.605469 23.597656 30.054688 24.207031 29.496094 24.832031 C 28.355469 26.109375 27.171875 27.429688 26.078125 28.460938 C 26.011719 28.523438 25.90625 28.519531 25.84375 28.453125 L 20.804688 23.039062 C 20.222656 22.414062 19.898438 21.585938 19.898438 20.707031 C 19.898438 18.882812 21.289062 17.398438 22.992188 17.398438 C 23.742188 17.398438 24.46875 17.691406 25.03125 18.222656 C 25.125 18.308594 25.179688 18.367188 25.328125 18.527344 L 25.636719 18.859375 C 25.722656 18.949219 25.839844 19.003906 25.964844 19.003906 C 26.085938 19.003906 26.207031 18.949219 26.292969 18.859375 L 26.601562 18.527344 C 26.75 18.367188 26.804688 18.308594 26.894531 18.222656 C 27.460938 17.691406 28.1875 17.398438 28.933594 17.398438 C 30.640625 17.398438 32.027344 18.882812 32.027344 20.707031 C 32.027344 21.585938 31.707031 22.414062 31.121094 23.039062 Z M 28.933594 16.492188 C 27.957031 16.492188 27.011719 16.871094 26.28125 17.558594 C 26.179688 17.652344 26.117188 17.71875 25.964844 17.882812 C 25.8125 17.71875 25.75 17.65625 25.648438 17.558594 C 24.917969 16.871094 23.972656 16.492188 22.992188 16.492188 C 20.789062 16.492188 18.996094 18.382812 18.996094 20.707031 C 18.996094 21.816406 19.40625 22.863281 20.144531 23.660156 L 25.183594 29.070312 C 25.394531 29.296875 25.679688 29.410156 25.964844 29.410156 C 26.226562 29.410156 26.488281 29.316406 26.695312 29.121094 C 27.816406 28.066406 29.011719 26.730469 30.167969 25.4375 C 30.722656 24.820312 31.265625 24.210938 31.78125 23.660156 C 32.523438 22.863281 32.929688 21.816406 32.929688 20.707031 C 32.929688 18.382812 31.136719 16.492188 28.933594 16.492188 " fill-opacity="1" fill-rule="nonzero"/></svg>