<svg xmlns="http://www.w3.org/2000/svg" xmlns:xlink="http://www.w3.org/1999/xlink" width="70" zoomAndPan="magnify" viewBox="0 0 52.5 52.499999" height="70" preserveAspectRatio="xMidYMid meet" version="1.0"><defs><clipPath id="9f2467a20a"><path d="M 1.898438 3.453125 L 50.105469 3.453125 L 50.105469 46.542969 L 1.898438 46.542969 Z M 1.898438 3.453125 " clip-rule="nonzero"/></clipPath><clipPath id="d4ee5d34c8"><path d="M 24 43 L 27 43 L 27 46.542969 L 24 46.542969 Z M 24 43 " clip-rule="nonzero"/></clipPath></defs><g clip-path="url(#9f2467a20a)"><path fill="#9c9d93" d="M 49.5 30.410156 C 49.398438 30.617188 49.25 30.765625 49.023438 30.796875 C 48.769531 30.832031 48.511719 30.863281 48.257812 30.859375 C 46.160156 30.847656 44.0625 30.824219 41.964844 30.808594 C 40.773438 30.800781 39.578125 30.804688 38.382812 30.804688 C 38.289062 30.804688 38.195312 30.804688 38.0625 30.804688 C 38.296875 29.84375 38.265625 28.886719 38.320312 27.921875 C 38.441406 27.921875 38.542969 27.921875 38.644531 27.921875 C 41.378906 27.929688 44.109375 27.9375 46.84375 27.949219 C 47.304688 27.949219 47.773438 27.929688 48.234375 27.976562 C 48.515625 28.003906 48.792969 28.121094 49.0625 28.226562 C 49.292969 28.3125 49.417969 28.527344 49.507812 28.742188 C 49.746094 29.292969 49.777344 29.851562 49.5 30.410156 Z M 48.070312 31.570312 C 48.023438 32.066406 47.980469 32.5625 47.917969 33.058594 C 47.828125 33.808594 47.730469 34.554688 47.617188 35.304688 C 47.527344 35.925781 47.175781 36.351562 46.585938 36.578125 C 46.015625 36.792969 45.425781 36.882812 44.820312 36.894531 C 44.785156 36.894531 44.753906 36.886719 44.710938 36.882812 C 44.707031 36.621094 44.722656 36.363281 44.535156 36.113281 C 44.328125 36.34375 44.359375 36.625 44.304688 36.898438 C 44.066406 36.898438 43.824219 36.917969 43.589844 36.894531 C 42.992188 36.839844 42.394531 36.773438 41.796875 36.699219 C 41.210938 36.625 40.90625 36.246094 40.8125 35.695312 C 40.710938 35.058594 40.613281 34.421875 40.558594 33.78125 C 40.496094 33.042969 40.484375 32.304688 40.453125 31.566406 C 40.449219 31.484375 40.453125 31.398438 40.453125 31.300781 C 41.007812 31.300781 41.535156 31.300781 42.097656 31.300781 C 42.082031 31.402344 42.078125 31.46875 42.066406 31.535156 C 42.011719 31.851562 42.019531 32.167969 42.054688 32.488281 C 42.058594 32.539062 42.074219 32.585938 42.089844 32.636719 C 42.125 32.722656 42.1875 32.78125 42.285156 32.773438 C 42.386719 32.769531 42.4375 32.703125 42.457031 32.613281 C 42.523438 32.273438 42.535156 31.929688 42.488281 31.585938 C 42.476562 31.503906 42.46875 31.417969 42.453125 31.316406 C 43.136719 31.316406 43.800781 31.316406 44.457031 31.316406 C 44.457031 31.53125 44.453125 31.726562 44.457031 31.921875 C 44.460938 32.210938 44.464844 32.503906 44.472656 32.792969 C 44.476562 32.828125 44.472656 32.871094 44.492188 32.894531 C 44.53125 32.941406 44.585938 33.019531 44.628906 33.019531 C 44.691406 33.015625 44.785156 32.96875 44.808594 32.914062 C 44.855469 32.816406 44.878906 32.699219 44.882812 32.589844 C 44.890625 32.179688 44.886719 31.769531 44.886719 31.320312 C 45.421875 31.285156 45.992188 31.3125 46.589844 31.300781 C 46.582031 31.457031 46.570312 31.589844 46.566406 31.722656 C 46.558594 31.957031 46.550781 32.1875 46.546875 32.417969 C 46.546875 32.453125 46.554688 32.484375 46.5625 32.519531 C 46.582031 32.617188 46.617188 32.707031 46.734375 32.710938 C 46.855469 32.714844 46.894531 32.628906 46.914062 32.527344 C 46.964844 32.222656 47.019531 31.917969 46.976562 31.609375 C 46.964844 31.523438 46.957031 31.441406 46.945312 31.316406 C 47.332031 31.339844 47.695312 31.359375 48.070312 31.378906 C 48.070312 31.457031 48.074219 31.515625 48.070312 31.570312 Z M 37.496094 27.210938 C 37.410156 27.316406 37.324219 27.328125 37.207031 27.328125 C 35.796875 27.316406 34.386719 27.308594 32.980469 27.296875 C 29.816406 27.269531 26.652344 27.242188 23.488281 27.21875 C 20.566406 27.191406 17.644531 27.167969 14.71875 27.140625 C 14.6875 27.140625 14.652344 27.140625 14.609375 27.140625 C 14.296875 26.664062 14.027344 26.664062 13.679688 27.117188 C 13.351562 27.117188 13.015625 27.121094 12.683594 27.113281 C 12.621094 27.113281 12.550781 27.074219 12.5 27.035156 C 12.40625 26.964844 12.308594 26.886719 12.234375 26.796875 C 11.660156 26.132812 11.089844 25.464844 10.519531 24.804688 C 10.414062 24.683594 10.390625 24.566406 10.414062 24.40625 C 10.59375 23.246094 9.929688 22.101562 8.835938 21.683594 C 8.679688 21.625 8.601562 21.539062 8.539062 21.394531 C 7.898438 19.929688 7.652344 18.402344 7.792969 16.8125 C 7.9375 15.214844 8.652344 13.898438 9.820312 12.8125 C 9.902344 12.734375 10.019531 12.679688 10.132812 12.644531 C 10.992188 12.382812 11.851562 12.097656 12.722656 11.875 C 14.523438 11.410156 16.355469 11.136719 18.203125 10.929688 C 21.1875 10.59375 24.183594 10.464844 27.183594 10.539062 C 28.609375 10.578125 30.035156 10.664062 31.457031 10.777344 C 32.722656 10.882812 33.988281 11.023438 35.246094 11.210938 C 37.519531 11.546875 39.75 12.0625 41.925781 12.8125 C 42.390625 12.972656 42.730469 13.230469 43.023438 13.605469 C 43.945312 14.785156 44.347656 16.125 44.34375 17.613281 C 44.339844 18.910156 44.085938 20.15625 43.582031 21.351562 C 43.511719 21.511719 43.421875 21.609375 43.25 21.671875 C 42.148438 22.066406 41.46875 23.246094 41.671875 24.40625 C 41.699219 24.5625 41.679688 24.683594 41.578125 24.8125 C 41.011719 25.523438 40.414062 26.214844 39.75 26.839844 C 39.613281 26.96875 39.480469 27.105469 39.355469 27.246094 C 39.285156 27.324219 39.210938 27.355469 39.109375 27.351562 C 38.882812 27.34375 38.660156 27.339844 38.4375 27.34375 C 38.324219 27.347656 38.253906 27.308594 38.175781 27.21875 C 37.972656 26.976562 37.6875 26.96875 37.496094 27.210938 Z M 37.289062 30.792969 C 37.214844 30.796875 37.136719 30.804688 37.0625 30.804688 C 35.464844 30.800781 33.867188 30.792969 32.269531 30.789062 C 32.125 30.789062 32.035156 30.746094 31.949219 30.625 C 31.296875 29.691406 30.464844 28.9375 29.507812 28.324219 C 29.238281 28.152344 28.9375 28.015625 28.652344 27.863281 C 28.652344 27.851562 28.652344 27.84375 28.652344 27.832031 C 31.554688 27.863281 34.457031 27.890625 37.386719 27.921875 C 37.398438 28.878906 37.417969 29.828125 37.289062 30.792969 Z M 29.675781 30.765625 C 29.546875 29.644531 29.003906 28.769531 28.109375 28.105469 C 28.125 28.089844 28.132812 28.074219 28.144531 28.058594 C 28.261719 28.105469 28.382812 28.140625 28.496094 28.195312 C 28.921875 28.382812 29.308594 28.640625 29.671875 28.929688 C 30.261719 29.40625 30.804688 29.929688 31.269531 30.527344 C 31.320312 30.59375 31.367188 30.664062 31.441406 30.765625 C 30.824219 30.765625 30.261719 30.765625 29.675781 30.765625 Z M 27.8125 30.753906 C 27.855469 29.820312 27.875 28.894531 27.410156 28.042969 C 28.277344 28.300781 29.269531 29.71875 29.296875 30.753906 C 28.796875 30.753906 28.316406 30.753906 27.8125 30.753906 Z M 27.382812 30.746094 C 26.777344 30.746094 26.179688 30.746094 25.535156 30.746094 C 25.585938 30.648438 25.621094 30.570312 25.664062 30.492188 C 25.949219 29.96875 26.179688 29.425781 26.277344 28.835938 C 26.324219 28.539062 26.355469 28.242188 26.398438 27.921875 C 26.441406 27.921875 26.507812 27.925781 26.570312 27.914062 C 26.886719 27.847656 27.042969 28.027344 27.15625 28.28125 C 27.304688 28.609375 27.382812 28.945312 27.414062 29.300781 C 27.453125 29.78125 27.46875 30.257812 27.382812 30.746094 Z M 25.003906 30.742188 C 24.519531 30.742188 24.050781 30.742188 23.574219 30.742188 C 24.058594 29.914062 25.570312 27.90625 26.011719 27.820312 C 26.128906 28.296875 25.5625 29.9375 25.003906 30.742188 Z M 23.058594 30.574219 C 22.960938 30.710938 22.855469 30.753906 22.691406 30.753906 C 20.777344 30.742188 18.859375 30.738281 16.941406 30.734375 C 16.253906 30.730469 15.566406 30.730469 14.878906 30.726562 C 14.796875 30.726562 14.710938 30.71875 14.632812 30.714844 C 14.632812 29.699219 14.632812 28.722656 14.632812 27.75 C 14.867188 27.695312 24.734375 27.761719 25.359375 27.820312 C 25.34375 27.851562 25.335938 27.886719 25.316406 27.902344 C 24.777344 28.363281 24.324219 28.90625 23.894531 29.464844 C 23.609375 29.832031 23.328125 30.199219 23.058594 30.574219 Z M 13.324219 30.71875 C 10.136719 30.714844 6.945312 30.710938 3.757812 30.703125 C 3.601562 30.703125 3.441406 30.714844 3.296875 30.671875 C 2.804688 30.53125 2.59375 30.144531 2.535156 29.671875 C 2.472656 29.148438 2.578125 28.648438 2.804688 28.171875 C 2.867188 28.035156 2.960938 27.949219 3.089844 27.886719 C 3.539062 27.671875 4.015625 27.582031 4.511719 27.589844 C 6.15625 27.613281 7.796875 27.632812 9.4375 27.652344 C 10.710938 27.667969 11.984375 27.683594 13.253906 27.695312 C 13.347656 27.699219 13.441406 27.695312 13.550781 27.695312 C 13.445312 28.726562 13.550781 29.703125 13.605469 30.707031 C 13.507812 30.710938 13.417969 30.71875 13.324219 30.71875 Z M 11.445312 35.515625 C 11.402344 35.734375 11.324219 35.945312 11.238281 36.148438 C 11.148438 36.363281 10.980469 36.519531 10.75 36.578125 C 10.460938 36.652344 10.167969 36.726562 9.871094 36.757812 C 9.292969 36.820312 8.707031 36.847656 8.125 36.886719 C 8.058594 36.894531 7.992188 36.882812 7.902344 36.878906 C 7.886719 36.59375 7.894531 36.332031 7.707031 36.101562 C 7.480469 36.316406 7.539062 36.59375 7.515625 36.871094 C 7.308594 36.859375 7.113281 36.859375 6.917969 36.839844 C 6.464844 36.796875 6.019531 36.703125 5.59375 36.53125 C 5.070312 36.316406 4.730469 35.9375 4.632812 35.375 C 4.519531 34.699219 4.425781 34.019531 4.339844 33.339844 C 4.257812 32.675781 4.199219 32.007812 4.128906 31.339844 C 4.128906 31.308594 4.128906 31.273438 4.128906 31.234375 C 4.515625 31.234375 4.886719 31.234375 5.25 31.234375 C 5.25 31.453125 5.242188 31.65625 5.25 31.859375 C 5.261719 32.066406 5.285156 32.269531 5.308594 32.472656 C 5.320312 32.582031 5.359375 32.679688 5.492188 32.683594 C 5.597656 32.6875 5.667969 32.605469 5.671875 32.445312 C 5.671875 32.117188 5.65625 31.792969 5.644531 31.46875 C 5.640625 31.398438 5.628906 31.332031 5.617188 31.226562 C 6.210938 31.214844 6.785156 31.21875 7.375 31.222656 C 7.359375 31.546875 7.332031 31.847656 7.328125 32.144531 C 7.328125 32.347656 7.355469 32.554688 7.375 32.757812 C 7.378906 32.808594 7.390625 32.867188 7.425781 32.902344 C 7.46875 32.949219 7.542969 33.011719 7.585938 33 C 7.644531 32.984375 7.726562 32.910156 7.730469 32.855469 C 7.761719 32.582031 7.785156 32.308594 7.785156 32.035156 C 7.785156 31.777344 7.753906 31.519531 7.738281 31.265625 C 7.910156 31.210938 9.382812 31.195312 9.773438 31.246094 C 9.761719 31.363281 9.761719 31.480469 9.738281 31.59375 C 9.675781 31.886719 9.71875 32.175781 9.75 32.464844 C 9.769531 32.660156 9.839844 32.753906 9.949219 32.757812 C 10.058594 32.761719 10.152344 32.667969 10.164062 32.484375 C 10.179688 32.195312 10.175781 31.902344 10.171875 31.613281 C 10.167969 31.492188 10.144531 31.375 10.125 31.238281 C 10.664062 31.238281 11.195312 31.238281 11.738281 31.238281 C 11.75 31.292969 11.765625 31.339844 11.765625 31.386719 C 11.773438 32.773438 11.703125 34.152344 11.445312 35.515625 Z M 7.992188 21.828125 C 9.175781 21.859375 10.089844 22.808594 10.0625 23.980469 C 10.074219 25.078125 9.140625 26.164062 7.832031 26.113281 C 6.671875 26.070312 5.746094 25.09375 5.773438 23.90625 C 5.800781 22.734375 6.800781 21.800781 7.992188 21.828125 Z M 3.261719 22.746094 C 3.394531 22.082031 3.558594 21.421875 3.808594 20.789062 C 4.175781 19.863281 4.71875 19.074219 5.5625 18.523438 C 5.972656 18.253906 6.40625 18.0625 6.910156 18.0625 C 6.96875 18.0625 7.027344 18.0625 7.117188 18.0625 C 7.175781 19.246094 7.402344 20.382812 7.855469 21.492188 C 6.324219 21.652344 5.601562 22.71875 5.480469 23.730469 C 5.359375 24.71875 5.863281 25.753906 6.871094 26.25 C 7.707031 26.664062 9.058594 26.691406 10.078125 25.371094 C 10.570312 25.929688 11.058594 26.488281 11.546875 27.042969 C 11.539062 27.066406 11.535156 27.074219 11.53125 27.082031 C 11.527344 27.085938 11.519531 27.09375 11.511719 27.09375 C 8.753906 27.085938 5.996094 27.082031 3.234375 27.074219 C 3.195312 27.074219 3.152344 27.058594 3.085938 27.046875 C 3.050781 26.742188 3.011719 26.433594 2.984375 26.128906 C 2.894531 24.984375 3.035156 23.863281 3.261719 22.746094 Z M 12.722656 11.203125 C 13.96875 10.800781 15.238281 10.5 16.535156 10.316406 C 17.945312 10.117188 19.359375 9.9375 20.777344 9.769531 C 21.449219 9.6875 22.128906 9.644531 22.804688 9.605469 C 23.785156 9.550781 24.761719 9.492188 25.742188 9.476562 C 27 9.453125 28.253906 9.507812 29.503906 9.628906 C 30.222656 9.695312 30.945312 9.722656 31.660156 9.804688 C 32.914062 9.953125 34.167969 10.113281 35.417969 10.289062 C 36.527344 10.441406 37.617188 10.691406 38.691406 10.992188 C 39.644531 11.261719 40.574219 11.59375 41.410156 12.140625 C 41.484375 12.1875 41.550781 12.234375 41.601562 12.320312 C 41.453125 12.269531 41.300781 12.222656 41.148438 12.171875 C 39.367188 11.578125 37.539062 11.175781 35.683594 10.894531 C 34.367188 10.695312 33.046875 10.511719 31.722656 10.382812 C 29.101562 10.125 26.472656 10.035156 23.839844 10.109375 C 22.59375 10.144531 21.347656 10.1875 20.105469 10.28125 C 17.925781 10.441406 15.761719 10.726562 13.628906 11.199219 C 12.980469 11.339844 12.34375 11.515625 11.703125 11.675781 C 11.648438 11.6875 11.59375 11.695312 11.539062 11.707031 C 11.535156 11.691406 11.53125 11.675781 11.523438 11.65625 C 11.921875 11.503906 12.316406 11.335938 12.722656 11.203125 Z M 38.324219 10.21875 C 37.996094 10.144531 37.683594 10.070312 37.367188 10 C 36.234375 9.746094 35.089844 9.566406 33.9375 9.433594 C 33.160156 9.347656 32.382812 9.242188 31.605469 9.175781 C 30.601562 9.09375 29.597656 9.042969 28.59375 8.980469 C 28.003906 8.941406 27.410156 8.90625 26.820312 8.859375 C 26.011719 8.792969 25.207031 8.832031 24.398438 8.886719 C 23.234375 8.96875 22.066406 9.042969 20.902344 9.136719 C 20.074219 9.207031 19.242188 9.292969 18.417969 9.402344 C 17.421875 9.535156 16.425781 9.671875 15.4375 9.859375 C 14.605469 10.015625 13.785156 10.25 12.960938 10.453125 C 12.859375 10.476562 12.765625 10.503906 12.632812 10.542969 C 12.84375 9.074219 13.132812 7.660156 13.503906 6.253906 C 14.113281 6.164062 14.707031 6.070312 15.300781 5.988281 C 16.167969 5.871094 17.035156 5.746094 17.90625 5.65625 C 18.855469 5.558594 19.808594 5.476562 20.757812 5.421875 C 22.191406 5.339844 23.625 5.277344 25.058594 5.222656 C 26.539062 5.171875 28.015625 5.175781 29.492188 5.25 C 31.128906 5.335938 32.742188 5.558594 34.339844 5.898438 C 35.464844 6.140625 36.589844 6.378906 37.714844 6.617188 C 37.792969 6.636719 37.867188 6.65625 37.96875 6.683594 C 38.097656 7.859375 38.316406 9.015625 38.324219 10.21875 Z M 12.808594 5.542969 C 13.644531 5.3125 14.484375 5.066406 15.332031 4.859375 C 16.542969 4.558594 17.773438 4.367188 19.011719 4.21875 C 20.464844 4.046875 21.917969 3.945312 23.378906 3.894531 C 24.886719 3.84375 26.390625 3.859375 27.890625 3.929688 C 29.945312 4.023438 31.988281 4.226562 34.019531 4.542969 C 35.605469 4.792969 37.179688 5.117188 38.734375 5.523438 C 38.800781 5.542969 38.863281 5.5625 38.949219 5.589844 C 39.070312 6.402344 39.21875 7.214844 39.265625 8.035156 C 39.308594 8.847656 39.324219 9.660156 39.351562 10.507812 C 39.097656 10.433594 38.878906 10.371094 38.699219 10.316406 C 38.652344 9.71875 38.621094 9.152344 38.566406 8.589844 C 38.519531 8.113281 38.457031 7.636719 38.382812 7.160156 C 38.351562 6.949219 38.269531 6.746094 38.21875 6.539062 C 38.183594 6.398438 38.089844 6.324219 37.953125 6.292969 C 37.554688 6.195312 37.15625 6.078125 36.753906 5.996094 C 35.464844 5.734375 34.179688 5.46875 32.886719 5.234375 C 31.792969 5.039062 30.691406 4.9375 29.582031 4.878906 C 28.15625 4.800781 26.730469 4.769531 25.304688 4.832031 C 23.953125 4.894531 22.605469 4.933594 21.257812 5.011719 C 19.601562 5.109375 17.949219 5.238281 16.308594 5.507812 C 15.359375 5.660156 14.414062 5.824219 13.464844 5.972656 C 13.355469 5.992188 13.3125 6.054688 13.285156 6.136719 C 13.152344 6.507812 12.996094 6.871094 12.898438 7.253906 C 12.617188 8.367188 12.375 9.492188 12.273438 10.671875 C 12.039062 10.761719 11.816406 10.847656 11.570312 10.945312 C 11.886719 9.117188 12.375 7.355469 12.808594 5.542969 Z M 41.945312 23.910156 C 41.96875 22.738281 42.964844 21.800781 44.15625 21.828125 C 45.339844 21.855469 46.257812 22.804688 46.234375 23.976562 C 46.246094 25.078125 45.308594 26.160156 44.003906 26.113281 C 42.84375 26.070312 41.917969 25.097656 41.945312 23.910156 Z M 44.976562 18.070312 C 45.347656 18.046875 45.6875 18.089844 46.015625 18.238281 C 46.84375 18.613281 47.460938 19.21875 47.910156 19.996094 C 48.304688 20.679688 48.539062 21.425781 48.714844 22.191406 C 48.957031 23.230469 49.144531 24.28125 49.136719 25.351562 C 49.132812 25.882812 49.0625 26.414062 49.023438 26.941406 C 49 27.230469 48.820312 27.390625 48.566406 27.472656 C 48.460938 27.503906 48.34375 27.523438 48.234375 27.519531 C 45.796875 27.46875 43.355469 27.417969 40.914062 27.363281 C 40.734375 27.359375 40.554688 27.363281 40.375 27.363281 C 40.359375 27.34375 40.347656 27.320312 40.335938 27.300781 C 40.890625 26.664062 41.449219 26.027344 42.019531 25.367188 C 42.082031 25.441406 42.140625 25.511719 42.199219 25.578125 C 43.269531 26.878906 45.269531 26.78125 46.207031 25.382812 C 47.085938 24.074219 46.476562 22.21875 44.980469 21.675781 C 44.757812 21.59375 44.519531 21.546875 44.253906 21.476562 C 44.6875 20.398438 44.929688 19.265625 44.976562 18.070312 Z M 41.851562 40.765625 C 42.089844 40.722656 42.324219 40.679688 42.558594 40.636719 C 42.632812 40.621094 42.707031 40.617188 42.785156 40.605469 C 42.527344 40.867188 42.324219 41.128906 42.203125 41.445312 C 42.152344 41.570312 42.050781 41.570312 41.953125 41.585938 C 41.453125 41.65625 40.949219 41.722656 40.449219 41.796875 C 40.15625 41.839844 39.863281 41.890625 39.546875 41.941406 C 39.566406 41.636719 39.695312 41.390625 39.882812 41.179688 C 39.9375 41.117188 40.042969 41.089844 40.132812 41.074219 C 40.707031 40.96875 41.277344 40.867188 41.851562 40.765625 Z M 44.464844 41.070312 C 44.695312 41.398438 44.773438 41.644531 44.789062 42.179688 C 44.832031 42.597656 44.640625 42.988281 44.269531 43.285156 C 43.878906 43.605469 43.484375 43.644531 43.082031 43.308594 C 42.511719 42.832031 42.160156 41.890625 42.820312 41.027344 C 43.285156 40.421875 44.027344 40.445312 44.464844 41.070312 Z M 42.828125 43.695312 C 42.003906 43.738281 41.179688 43.777344 40.355469 43.820312 C 40.347656 43.820312 40.339844 43.820312 40.332031 43.820312 C 39.933594 43.820312 39.863281 43.769531 39.722656 43.355469 C 40.59375 43.1875 41.480469 43.167969 42.332031 43.046875 C 42.53125 43.257812 42.71875 43.453125 42.914062 43.660156 C 42.882812 43.671875 42.855469 43.691406 42.828125 43.695312 Z M 39.597656 43.117188 C 39.441406 42.832031 39.421875 42.535156 39.480469 42.234375 C 40.355469 42.097656 41.214844 41.960938 42.058594 41.828125 C 42.113281 42.15625 42.167969 42.488281 42.222656 42.84375 C 41.355469 42.882812 40.472656 42.90625 39.597656 43.117188 Z M 33.519531 41.925781 C 33.578125 41.984375 33.640625 42.058594 33.714844 42.089844 C 33.773438 42.113281 33.871094 42.105469 33.925781 42.074219 C 33.996094 42.027344 33.988281 41.933594 33.941406 41.863281 C 33.875 41.773438 33.800781 41.6875 33.730469 41.601562 C 33.613281 41.453125 33.496094 41.308594 33.363281 41.144531 C 33.492188 41.078125 33.59375 41.027344 33.703125 40.96875 C 33.882812 41.238281 34.042969 41.492188 34.222656 41.734375 C 34.398438 41.972656 34.59375 42.199219 34.789062 42.445312 C 34.425781 42.574219 34.144531 42.777344 33.941406 43.097656 C 33.523438 42.625 33.125 42.175781 32.710938 41.707031 C 32.804688 41.609375 32.902344 41.503906 33.015625 41.386719 C 33.191406 41.578125 33.355469 41.753906 33.519531 41.925781 Z M 34.328125 41.011719 C 34.65625 41.394531 34.996094 41.769531 35.328125 42.152344 C 35.382812 42.214844 35.433594 42.28125 35.519531 42.386719 C 35.339844 42.386719 35.222656 42.386719 35.078125 42.386719 C 34.6875 41.917969 34.285156 41.429688 33.875 40.941406 C 34.15625 40.8125 34.160156 40.816406 34.328125 41.011719 Z M 36.128906 44.082031 C 35.96875 44.328125 35.757812 44.503906 35.496094 44.628906 C 34.792969 44.964844 33.984375 44.324219 34.039062 43.679688 C 34.015625 43.46875 34.105469 43.28125 34.222656 43.109375 C 34.492188 42.71875 34.894531 42.574219 35.335938 42.582031 C 36.007812 42.589844 36.539062 43.441406 36.128906 44.082031 Z M 33.753906 43.972656 C 33.265625 43.367188 32.8125 42.8125 32.351562 42.242188 C 32.4375 42.105469 32.515625 41.976562 32.605469 41.828125 C 33.023438 42.332031 33.421875 42.816406 33.820312 43.300781 C 33.800781 43.5 33.78125 43.707031 33.753906 43.972656 Z M 28.519531 43.148438 C 28.761719 43.125 28.953125 43.179688 29.113281 43.367188 C 29.238281 43.507812 29.351562 43.652344 29.421875 43.832031 C 28.886719 43.894531 28.367188 43.957031 27.851562 44.015625 C 27.554688 44.050781 27.253906 44.089844 26.957031 44.117188 C 26.886719 44.125 26.785156 44.109375 26.75 44.066406 C 26.527344 43.789062 26.261719 43.566406 25.9375 43.390625 C 26.03125 43.378906 26.121094 43.363281 26.210938 43.355469 C 26.980469 43.285156 27.75 43.226562 28.519531 43.148438 Z M 29.5625 44.105469 C 29.695312 44.367188 29.738281 44.65625 29.6875 44.980469 C 28.796875 45.019531 27.929688 45.203125 27.035156 45.417969 C 27.035156 45.234375 27.050781 45.066406 27.03125 44.902344 C 27.015625 44.734375 26.96875 44.566406 26.933594 44.386719 C 27.796875 44.292969 28.664062 44.203125 29.5625 44.105469 Z M 29.5 45.691406 C 29.460938 45.753906 29.363281 45.796875 29.285156 45.816406 C 28.945312 45.90625 28.605469 45.992188 28.261719 46.066406 C 27.765625 46.171875 27.269531 46.265625 26.773438 46.367188 C 26.71875 46.378906 26.660156 46.378906 26.601562 46.386719 C 26.738281 46.136719 26.871094 45.898438 27.015625 45.632812 C 27.851562 45.5 28.722656 45.363281 29.617188 45.226562 C 29.628906 45.421875 29.570312 45.566406 29.5 45.691406 Z M 26.335938 46.101562 C 26.0625 46.457031 25.734375 46.570312 25.3125 46.410156 C 24.875 46.242188 24.558594 45.949219 24.429688 45.476562 C 24.3125 45.050781 24.285156 44.628906 24.460938 44.214844 C 24.570312 43.949219 24.742188 43.746094 25.011719 43.628906 C 25.324219 43.492188 25.628906 43.558594 25.894531 43.726562 C 26.382812 44.03125 26.664062 44.476562 26.675781 45.058594 C 26.664062 45.449219 26.570312 45.796875 26.335938 46.101562 Z M 18.890625 42.167969 C 18.882812 42.183594 18.871094 42.195312 18.863281 42.207031 C 18.714844 42.152344 18.566406 42.097656 18.40625 42.035156 C 18.441406 41.957031 18.472656 41.890625 18.507812 41.820312 C 18.527344 41.777344 18.554688 41.734375 18.597656 41.652344 C 18.703125 41.84375 18.796875 42.003906 18.890625 42.167969 Z M 19.1875 43.527344 C 19.1875 44.253906 18.550781 44.953125 17.886719 44.933594 C 17.0625 44.90625 16.480469 44.222656 16.492188 43.585938 C 16.503906 42.96875 17.019531 42.257812 17.859375 42.261719 C 18.589844 42.265625 19.1875 42.835938 19.1875 43.527344 Z M 15.613281 40.847656 C 15.730469 40.765625 15.863281 40.675781 15.996094 40.578125 C 16.207031 41.238281 16.40625 41.871094 16.621094 42.542969 C 16.515625 42.6875 16.398438 42.851562 16.265625 43.039062 C 16.042969 42.300781 15.832031 41.589844 15.613281 40.847656 Z M 16.972656 40.207031 C 17.140625 40.804688 17.3125 41.398438 17.488281 42.007812 C 17.273438 42.113281 17.054688 42.21875 16.832031 42.324219 C 16.628906 41.707031 16.421875 41.09375 16.214844 40.472656 C 16.4375 40.320312 16.679688 40.25 16.972656 40.207031 Z M 17.9375 40.351562 C 17.964844 40.359375 17.988281 40.390625 18.007812 40.417969 C 18.027344 40.445312 18.035156 40.480469 18.050781 40.511719 C 18.132812 40.707031 18.277344 40.898438 18.285156 41.101562 C 18.296875 41.296875 18.171875 41.503906 18.109375 41.707031 C 18.082031 41.796875 18.054688 41.886719 18.023438 41.988281 C 17.941406 41.988281 17.863281 41.988281 17.804688 41.988281 C 17.589844 41.390625 17.382812 40.808594 17.167969 40.210938 C 17.453125 40.183594 17.691406 40.285156 17.9375 40.351562 Z M 13.417969 41.449219 C 13.660156 41.425781 13.851562 41.46875 14.015625 41.65625 C 14.144531 41.796875 14.253906 41.945312 14.335938 42.125 C 13.570312 42.21875 12.839844 42.304688 12.109375 42.390625 C 12.003906 42.402344 11.902344 42.421875 11.800781 42.417969 C 11.75 42.417969 11.679688 42.394531 11.648438 42.355469 C 11.429688 42.074219 11.15625 41.863281 10.777344 41.695312 C 10.9375 41.675781 11.035156 41.660156 11.136719 41.648438 C 11.898438 41.582031 12.660156 41.523438 13.417969 41.449219 Z M 14.46875 42.402344 C 14.613281 42.660156 14.632812 42.953125 14.589844 43.277344 C 13.695312 43.316406 12.824219 43.507812 11.972656 43.707031 C 11.9375 43.355469 11.90625 43.027344 11.871094 42.679688 C 12.710938 42.589844 13.582031 42.496094 14.46875 42.402344 Z M 14.53125 43.605469 C 14.507812 43.941406 14.335938 44.113281 13.996094 44.179688 C 13.195312 44.332031 12.398438 44.511719 11.601562 44.679688 C 11.578125 44.683594 11.554688 44.679688 11.511719 44.679688 C 11.648438 44.429688 11.78125 44.1875 11.921875 43.929688 C 12.769531 43.820312 13.628906 43.613281 14.527344 43.546875 C 14.53125 43.589844 14.53125 43.597656 14.53125 43.605469 Z M 11.101562 44.566406 C 10.960938 44.710938 10.789062 44.773438 10.585938 44.765625 C 10.105469 44.746094 9.714844 44.527344 9.488281 44.113281 C 9.203125 43.605469 9.140625 43.058594 9.375 42.5 C 9.476562 42.253906 9.636719 42.0625 9.882812 41.945312 C 10.214844 41.78125 10.53125 41.847656 10.8125 42.027344 C 11.808594 42.667969 11.773438 43.875 11.101562 44.566406 Z M 50.070312 29.324219 C 49.972656 28.816406 49.820312 28.324219 49.511719 27.894531 C 49.460938 27.824219 49.433594 27.757812 49.46875 27.660156 C 49.726562 26.847656 49.78125 26.007812 49.757812 25.164062 C 49.730469 24.179688 49.574219 23.214844 49.359375 22.257812 C 49.179688 21.441406 48.945312 20.640625 48.539062 19.90625 C 48.066406 19.050781 47.433594 18.355469 46.570312 17.878906 C 46.101562 17.621094 45.613281 17.503906 45.082031 17.636719 C 45.058594 17.640625 45.035156 17.632812 44.976562 17.628906 C 44.976562 17.492188 44.980469 17.355469 44.976562 17.21875 C 44.972656 17.082031 44.957031 16.945312 44.945312 16.808594 C 44.800781 15.035156 44.03125 13.566406 42.742188 12.367188 C 41.941406 11.617188 40.992188 11.101562 39.964844 10.726562 C 39.875 10.695312 39.792969 10.660156 39.71875 10.628906 C 39.734375 10.300781 39.761719 9.992188 39.765625 9.683594 C 39.773438 8.867188 39.707031 8.054688 39.605469 7.242188 C 39.527344 6.613281 39.429688 5.984375 39.242188 5.375 C 39.21875 5.304688 39.152344 5.234375 39.085938 5.191406 C 39.027344 5.148438 38.941406 5.136719 38.867188 5.117188 C 37.425781 4.753906 35.972656 4.460938 34.503906 4.214844 C 32.859375 3.945312 31.203125 3.746094 29.539062 3.621094 C 27.609375 3.476562 25.675781 3.40625 23.742188 3.488281 C 22.789062 3.527344 21.835938 3.578125 20.886719 3.65625 C 20.097656 3.722656 19.3125 3.828125 18.53125 3.921875 C 17.316406 4.066406 16.109375 4.234375 14.921875 4.535156 C 14.265625 4.699219 13.613281 4.882812 12.976562 5.125 C 12.699219 5.230469 12.546875 5.40625 12.46875 5.679688 C 12.230469 6.53125 11.960938 7.375 11.75 8.234375 C 11.53125 9.152344 11.363281 10.082031 11.183594 11.007812 C 11.164062 11.121094 11.101562 11.164062 11.019531 11.210938 C 10.714844 11.394531 10.402344 11.558594 10.117188 11.765625 C 8.390625 12.992188 7.367188 14.640625 7.15625 16.765625 C 7.128906 17.054688 7.117188 17.34375 7.097656 17.644531 C 6.984375 17.625 6.882812 17.609375 6.78125 17.59375 C 6.292969 17.527344 5.863281 17.683594 5.453125 17.921875 C 4.554688 18.441406 3.910156 19.195312 3.449219 20.117188 C 3.078125 20.863281 2.863281 21.65625 2.695312 22.464844 C 2.363281 24.042969 2.175781 25.621094 2.511719 27.222656 C 2.535156 27.34375 2.5 27.429688 2.414062 27.519531 C 2.15625 27.785156 1.96875 28.09375 1.929688 28.464844 C 1.859375 29.082031 1.894531 29.695312 2.136719 30.265625 C 2.375 30.820312 2.785156 31.195312 3.441406 31.191406 C 3.542969 31.191406 3.640625 31.207031 3.761719 31.21875 C 3.761719 31.347656 3.753906 31.46875 3.761719 31.585938 C 3.816406 32.40625 3.855469 33.230469 3.933594 34.050781 C 3.980469 34.546875 4.070312 35.039062 4.175781 35.523438 C 4.320312 36.183594 4.699219 36.6875 5.328125 36.953125 C 5.671875 37.101562 6.035156 37.214844 6.402344 37.304688 C 6.953125 37.445312 7.523438 37.445312 8.09375 37.449219 C 8.960938 37.460938 9.824219 37.382812 10.671875 37.164062 C 11.304688 37 11.691406 36.601562 11.871094 35.976562 C 12.132812 35.050781 12.222656 34.105469 12.261719 33.152344 C 12.285156 32.59375 12.265625 32.03125 12.265625 31.472656 C 12.265625 31.398438 12.273438 31.324219 12.277344 31.265625 C 15.6875 31.265625 19.074219 31.265625 22.503906 31.265625 C 22.441406 31.355469 22.410156 31.402344 22.371094 31.449219 C 21.785156 32.199219 21.199219 32.953125 20.605469 33.699219 C 20.074219 34.367188 19.484375 34.980469 18.867188 35.570312 C 17.917969 36.484375 16.867188 37.277344 15.808594 38.058594 C 14.75 38.835938 13.761719 39.683594 12.960938 40.734375 C 12.847656 40.882812 12.746094 41.070312 12.59375 41.152344 C 12.4375 41.234375 12.222656 41.203125 12.039062 41.238281 C 11.378906 41.351562 10.714844 41.449219 10.0625 41.597656 C 9.546875 41.710938 9.21875 42.046875 9.0625 42.566406 C 8.914062 43.0625 8.984375 43.53125 9.121094 44.007812 C 9.285156 44.578125 10.046875 45.140625 10.695312 45.09375 C 10.925781 45.074219 11.15625 45.0625 11.386719 45.019531 C 12.070312 44.894531 12.753906 44.761719 13.433594 44.628906 C 13.746094 44.566406 14.058594 44.5 14.359375 44.410156 C 14.484375 44.371094 14.636719 44.292969 14.691406 44.191406 C 14.921875 43.761719 15.070312 43.296875 15.027344 42.804688 C 14.96875 42.171875 14.632812 41.679688 14.140625 41.292969 C 13.957031 41.152344 13.746094 41.09375 13.511719 41.117188 C 13.414062 41.125 13.3125 41.148438 13.203125 41.085938 C 13.394531 40.886719 13.570312 40.699219 13.753906 40.515625 C 14.183594 40.09375 14.589844 39.644531 15.050781 39.265625 C 15.78125 38.667969 16.554688 38.117188 17.304688 37.542969 C 18.648438 36.515625 19.886719 35.375 20.957031 34.0625 C 21.65625 33.203125 22.332031 32.320312 23.007812 31.441406 C 23.113281 31.300781 23.226562 31.253906 23.394531 31.257812 C 23.761719 31.265625 24.132812 31.261719 24.503906 31.261719 C 24.554688 31.261719 24.609375 31.277344 24.683594 31.289062 C 24.625 31.386719 24.585938 31.464844 24.539062 31.53125 C 24.214844 32.007812 23.902344 32.492188 23.558594 32.953125 C 22.585938 34.265625 21.582031 35.558594 20.617188 36.875 C 19.765625 38.035156 19.058594 39.28125 18.503906 40.613281 C 18.488281 40.644531 18.460938 40.671875 18.421875 40.734375 C 18.355469 40.582031 18.3125 40.460938 18.25 40.351562 C 18.203125 40.265625 18.140625 40.164062 18.058594 40.121094 C 17.308594 39.746094 16.257812 39.847656 15.601562 40.578125 C 15.441406 40.753906 15.382812 40.945312 15.453125 41.1875 C 15.601562 41.707031 15.726562 42.234375 15.867188 42.757812 C 15.984375 43.195312 16.105469 43.632812 16.234375 44.070312 C 16.507812 44.996094 17.460938 45.40625 18.128906 45.285156 C 19.003906 45.128906 19.664062 44.261719 19.53125 43.378906 C 19.457031 42.875 19.359375 42.363281 19.097656 41.90625 C 19.007812 41.75 18.933594 41.585938 18.839844 41.429688 C 18.773438 41.324219 18.773438 41.230469 18.828125 41.121094 C 19.011719 40.75 19.179688 40.375 19.359375 40 C 20.101562 38.429688 21.066406 37.003906 22.101562 35.613281 C 23.140625 34.222656 24.234375 32.871094 25.144531 31.386719 C 25.210938 31.28125 25.289062 31.261719 25.402344 31.261719 C 25.96875 31.265625 26.535156 31.265625 27.101562 31.265625 C 27.160156 31.265625 27.21875 31.277344 27.289062 31.28125 C 27.277344 31.351562 27.273438 31.410156 27.261719 31.46875 C 27.125 32.019531 27 32.574219 26.84375 33.117188 C 26.410156 34.621094 25.992188 36.125 25.824219 37.6875 C 25.707031 38.757812 25.734375 39.8125 25.976562 40.863281 C 26.125 41.519531 26.425781 42.121094 26.6875 42.738281 C 26.71875 42.8125 26.75 42.886719 26.785156 42.976562 C 26.636719 43 26.519531 43.011719 26.402344 43.035156 C 25.980469 43.121094 25.554688 43.191406 25.140625 43.300781 C 24.628906 43.433594 24.300781 43.765625 24.148438 44.28125 C 24.007812 44.773438 24.074219 45.246094 24.21875 45.726562 C 24.382812 46.277344 25.132812 46.839844 25.773438 46.796875 C 26.015625 46.777344 26.253906 46.761719 26.492188 46.71875 C 27.167969 46.597656 27.839844 46.46875 28.515625 46.332031 C 28.835938 46.269531 29.152344 46.191406 29.46875 46.113281 C 29.664062 46.0625 29.804688 45.945312 29.867188 45.746094 C 29.917969 45.574219 29.988281 45.40625 30.035156 45.230469 C 30.265625 44.371094 29.960938 43.523438 29.242188 43.003906 C 29.0625 42.871094 28.863281 42.804688 28.640625 42.816406 C 28.339844 42.835938 28.039062 42.851562 27.738281 42.875 C 27.542969 42.886719 27.347656 42.910156 27.148438 42.929688 C 26.996094 42.480469 26.835938 42.042969 26.699219 41.601562 C 26.382812 40.585938 26.195312 39.550781 26.246094 38.480469 C 26.300781 37.378906 26.496094 36.296875 26.757812 35.226562 C 27.003906 34.234375 27.273438 33.25 27.527344 32.261719 C 27.609375 31.9375 27.667969 31.609375 27.734375 31.289062 C 28.070312 31.242188 29.210938 31.257812 29.414062 31.320312 C 29.464844 32.074219 29.515625 32.835938 29.5625 33.597656 C 29.613281 34.4375 29.683594 35.277344 29.871094 36.101562 C 30.136719 37.28125 30.558594 38.394531 31.28125 39.367188 C 31.71875 39.953125 32.222656 40.484375 32.695312 41.039062 C 32.757812 41.109375 32.816406 41.175781 32.875 41.238281 C 32.640625 41.507812 32.402344 41.734375 32.285156 42.046875 C 32.226562 42.195312 32.230469 42.316406 32.324219 42.457031 C 32.835938 43.203125 33.390625 43.914062 34.023438 44.558594 C 34.691406 45.238281 35.484375 45.144531 36.085938 44.652344 C 36.71875 44.136719 36.691406 43.382812 36.28125 42.882812 C 35.921875 42.445312 35.535156 42.03125 35.148438 41.613281 C 34.886719 41.328125 34.609375 41.0625 34.347656 40.777344 C 34.246094 40.667969 34.125 40.640625 33.996094 40.679688 C 33.738281 40.757812 33.484375 40.847656 33.210938 40.941406 C 32.988281 40.679688 32.746094 40.402344 32.515625 40.113281 C 32.148438 39.65625 31.761719 39.214844 31.4375 38.730469 C 30.570312 37.4375 30.164062 35.980469 30.019531 34.445312 C 29.960938 33.820312 29.929688 33.195312 29.878906 32.566406 C 29.847656 32.148438 29.808594 31.730469 29.769531 31.269531 C 29.875 31.269531 29.957031 31.269531 30.042969 31.269531 C 30.53125 31.265625 31.023438 31.277344 31.511719 31.261719 C 31.714844 31.253906 31.828125 31.320312 31.914062 31.5 C 32.277344 32.265625 32.660156 33.027344 33.023438 33.796875 C 33.351562 34.496094 33.710938 35.179688 34.160156 35.8125 C 34.925781 36.894531 35.886719 37.773438 36.953125 38.539062 C 38.019531 39.300781 39.152344 39.945312 40.332031 40.511719 C 40.386719 40.539062 40.4375 40.578125 40.527344 40.632812 C 40.332031 40.679688 40.175781 40.699219 40.035156 40.753906 C 39.878906 40.816406 39.699219 40.878906 39.59375 40.996094 C 39.148438 41.484375 38.953125 42.070312 39.035156 42.730469 C 39.085938 43.121094 39.308594 43.445312 39.511719 43.777344 C 39.691406 44.066406 39.941406 44.179688 40.265625 44.160156 C 40.3125 44.15625 40.355469 44.15625 40.394531 44.15625 C 40.921875 44.128906 41.445312 44.117188 41.96875 44.070312 C 42.566406 44.015625 43.164062 43.957031 43.757812 43.859375 C 44.425781 43.742188 44.851562 43.296875 45.007812 42.664062 C 45.171875 42.015625 45.046875 41.378906 44.628906 40.832031 C 44.433594 40.574219 44.179688 40.375 43.835938 40.351562 C 43.546875 40.332031 43.253906 40.308594 42.96875 40.328125 C 42.53125 40.355469 42.09375 40.398438 41.660156 40.464844 C 41.425781 40.5 41.21875 40.464844 41.019531 40.347656 C 40.960938 40.316406 40.894531 40.289062 40.835938 40.253906 C 40.007812 39.765625 39.171875 39.289062 38.351562 38.785156 C 37.839844 38.46875 37.347656 38.121094 36.867188 37.757812 C 35.507812 36.726562 34.453125 35.449219 33.710938 33.90625 C 33.308594 33.078125 32.886719 32.261719 32.476562 31.441406 C 32.449219 31.390625 32.429688 31.339844 32.410156 31.292969 C 34.933594 31.292969 37.441406 31.292969 39.960938 31.292969 C 39.964844 31.363281 39.972656 31.414062 39.972656 31.464844 C 39.964844 31.800781 39.933594 32.136719 39.949219 32.46875 C 39.988281 33.234375 40.027344 33.996094 40.105469 34.757812 C 40.15625 35.269531 40.257812 35.777344 40.449219 36.261719 C 40.617188 36.683594 40.917969 36.980469 41.351562 37.121094 C 41.585938 37.199219 41.832031 37.257812 42.074219 37.308594 C 42.957031 37.488281 43.851562 37.484375 44.746094 37.460938 C 45.429688 37.441406 46.09375 37.324219 46.730469 37.066406 C 47.488281 36.757812 47.929688 36.203125 48.085938 35.410156 C 48.285156 34.414062 48.375 33.402344 48.433594 32.390625 C 48.453125 32.066406 48.464844 31.742188 48.480469 31.398438 C 48.597656 31.390625 48.699219 31.371094 48.800781 31.378906 C 49.277344 31.402344 49.613281 31.171875 49.824219 30.773438 C 50.066406 30.324219 50.164062 29.832031 50.070312 29.324219 " fill-opacity="1" fill-rule="nonzero"/></g><path fill="#9c9d93" d="M 33.34375 24.550781 C 33.175781 24.578125 33.003906 24.628906 32.808594 24.535156 C 32.808594 24.289062 32.800781 24.035156 32.808594 23.777344 C 32.820312 23.511719 32.84375 23.246094 32.867188 22.984375 C 32.914062 22.476562 32.925781 21.972656 32.832031 21.464844 C 33.550781 21.121094 34.238281 20.753906 34.992188 20.542969 C 35.242188 20.472656 35.484375 20.390625 35.730469 20.3125 C 35.941406 20.25 35.996094 20.171875 35.945312 19.953125 C 35.90625 19.769531 35.847656 19.589844 35.796875 19.40625 C 35.789062 19.367188 35.785156 19.328125 35.773438 19.277344 C 36.527344 19.375 37.242188 19.226562 37.953125 19.070312 C 38.683594 18.910156 39.40625 18.722656 40.132812 18.542969 C 40.277344 18.507812 40.421875 18.457031 40.59375 18.449219 C 40.519531 18.539062 40.445312 18.632812 40.367188 18.722656 C 39.925781 19.210938 39.46875 19.691406 39.039062 20.195312 C 38.820312 20.457031 38.644531 20.753906 38.457031 21.039062 C 38.410156 21.109375 38.378906 21.195312 38.355469 21.277344 C 38.28125 21.535156 38.355469 21.738281 38.585938 21.875 C 38.707031 21.949219 38.84375 22.011719 38.972656 22.074219 C 39.425781 22.285156 39.875 22.496094 40.324219 22.707031 C 40.394531 22.738281 40.460938 22.777344 40.527344 22.8125 C 40.527344 22.832031 40.523438 22.851562 40.523438 22.871094 C 39.925781 23.054688 39.332031 23.246094 38.730469 23.425781 C 37.578125 23.769531 36.402344 24.015625 35.21875 24.226562 C 34.59375 24.335938 33.96875 24.449219 33.34375 24.550781 Z M 31.382812 20.554688 C 30.414062 20.738281 29.433594 20.746094 28.457031 20.609375 C 27.421875 20.460938 26.390625 20.269531 25.359375 20.09375 C 24.128906 19.882812 22.894531 19.707031 21.644531 19.726562 C 20.421875 19.746094 19.203125 19.832031 18.011719 20.125 C 17.546875 20.238281 17.09375 20.402344 16.613281 20.546875 C 16.65625 19.835938 16.726562 19.148438 16.882812 18.464844 C 17.121094 17.425781 17.5 16.429688 17.816406 15.414062 C 17.917969 15.078125 18.09375 14.921875 18.414062 14.804688 C 19.675781 14.347656 20.980469 14.109375 22.300781 13.929688 C 23.410156 13.78125 24.519531 13.671875 25.640625 13.722656 C 26.566406 13.761719 27.46875 13.921875 28.355469 14.175781 C 29.816406 14.59375 31.304688 14.734375 32.816406 14.59375 C 33.355469 14.542969 33.890625 14.445312 34.425781 14.367188 C 34.480469 14.359375 34.539062 14.355469 34.605469 14.351562 C 34.757812 16.214844 35.023438 18.042969 35.539062 19.851562 C 35.464844 19.859375 35.398438 19.871094 35.335938 19.871094 C 34.808594 19.855469 34.292969 19.9375 33.78125 20.054688 C 32.984375 20.230469 32.1875 20.402344 31.382812 20.554688 Z M 17.808594 23.90625 C 16.394531 24.304688 13.277344 24.390625 12.507812 24.03125 C 12.578125 23.960938 12.640625 23.898438 12.703125 23.832031 C 13.015625 23.503906 13.34375 23.1875 13.644531 22.84375 C 13.769531 22.699219 13.859375 22.515625 13.929688 22.332031 C 14.027344 22.074219 13.953125 21.851562 13.722656 21.703125 C 13.546875 21.585938 13.347656 21.496094 13.148438 21.417969 C 12.589844 21.195312 12 21.074219 11.402344 20.976562 C 13.097656 20.503906 14.738281 19.886719 16.347656 19.082031 C 16.320312 19.316406 16.285156 19.523438 16.273438 19.734375 C 16.253906 20.082031 16.226562 20.433594 16.242188 20.785156 C 16.25 21.027344 16.289062 21.011719 16.53125 21.03125 C 17.007812 21.070312 17.492188 21 17.992188 21.136719 C 17.722656 22.050781 17.757812 22.980469 17.808594 23.90625 Z M 40.648438 23.234375 C 40.804688 23.183594 40.953125 23.109375 41.09375 23.03125 C 41.25 22.941406 41.269531 22.78125 41.144531 22.664062 C 41.070312 22.597656 40.976562 22.546875 40.882812 22.503906 C 40.265625 22.222656 39.648438 21.945312 39.027344 21.671875 C 38.644531 21.5 38.628906 21.457031 38.824219 21.078125 C 39.015625 20.699219 39.300781 20.390625 39.582031 20.074219 C 39.953125 19.65625 40.316406 19.230469 40.671875 18.804688 C 40.765625 18.691406 40.839844 18.5625 40.910156 18.433594 C 41.027344 18.21875 40.960938 18.09375 40.710938 18.066406 C 40.585938 18.054688 40.449219 18.058594 40.328125 18.085938 C 39.867188 18.195312 39.414062 18.328125 38.957031 18.433594 C 38.125 18.621094 37.296875 18.808594 36.464844 18.96875 C 36.226562 19.015625 35.96875 18.976562 35.703125 18.976562 C 35.683594 18.898438 35.65625 18.824219 35.644531 18.753906 C 35.4375 17.707031 35.246094 16.660156 35.171875 15.597656 C 35.140625 15.160156 35.058594 14.726562 34.980469 14.296875 C 34.925781 14.027344 34.839844 13.96875 34.566406 13.980469 C 34.152344 13.996094 33.738281 14.007812 33.332031 14.050781 C 31.636719 14.242188 29.972656 14.132812 28.324219 13.664062 C 27.375 13.390625 26.398438 13.226562 25.40625 13.207031 C 24.699219 13.195312 23.996094 13.230469 23.292969 13.308594 C 22.25 13.421875 21.214844 13.578125 20.203125 13.859375 C 19.46875 14.066406 18.738281 14.292969 18.003906 14.507812 C 17.808594 14.566406 17.6875 14.691406 17.617188 14.886719 C 17.1875 16.09375 16.726562 17.289062 16.464844 18.546875 C 16.4375 18.664062 16.382812 18.71875 16.273438 18.757812 C 16.0625 18.828125 15.851562 18.90625 15.644531 18.988281 C 14.457031 19.460938 13.269531 19.933594 12.050781 20.324219 C 11.675781 20.445312 11.308594 20.597656 10.941406 20.742188 C 10.847656 20.78125 10.753906 20.832031 10.675781 20.898438 C 10.550781 21.003906 10.589844 21.171875 10.742188 21.222656 C 10.8125 21.246094 10.890625 21.246094 10.96875 21.257812 C 11.121094 21.285156 11.277344 21.296875 11.421875 21.339844 C 11.851562 21.464844 12.277344 21.59375 12.703125 21.734375 C 12.945312 21.816406 13.1875 21.910156 13.421875 22.011719 C 13.59375 22.085938 13.621094 22.148438 13.539062 22.3125 C 13.453125 22.480469 13.351562 22.644531 13.226562 22.78125 C 12.914062 23.117188 12.585938 23.433594 12.269531 23.757812 C 12.195312 23.832031 12.125 23.90625 12.070312 23.992188 C 11.988281 24.128906 12.011719 24.242188 12.152344 24.320312 C 12.253906 24.378906 12.371094 24.421875 12.484375 24.453125 C 12.96875 24.578125 13.457031 24.648438 13.957031 24.679688 C 15.351562 24.765625 16.722656 24.621094 18.085938 24.371094 C 18.332031 24.328125 18.328125 24.324219 18.320312 24.070312 C 18.3125 23.738281 18.28125 23.402344 18.300781 23.066406 C 18.355469 22.171875 18.535156 21.300781 18.878906 20.441406 C 19.730469 20.289062 20.589844 20.230469 21.449219 20.238281 C 22.75 20.25 24.035156 20.425781 25.3125 20.664062 C 26.425781 20.875 27.535156 21.121094 28.664062 21.230469 C 29.550781 21.320312 30.433594 21.316406 31.3125 21.175781 C 31.667969 21.121094 32.019531 21.046875 32.394531 20.976562 C 32.414062 21.101562 32.433594 21.21875 32.445312 21.335938 C 32.53125 22.203125 32.417969 23.070312 32.375 23.933594 C 32.363281 24.164062 32.382812 24.398438 32.4375 24.621094 C 32.496094 24.875 32.648438 24.972656 32.90625 24.972656 C 33.0625 24.976562 33.214844 24.960938 33.367188 24.9375 C 33.902344 24.851562 34.433594 24.75 34.96875 24.667969 C 36.203125 24.488281 37.425781 24.273438 38.617188 23.894531 C 39.296875 23.679688 39.972656 23.457031 40.648438 23.234375 " fill-opacity="1" fill-rule="nonzero"/><path fill="#9c9d93" d="M 7.824219 33.871094 C 7.800781 33.8125 7.71875 33.753906 7.65625 33.746094 C 7.617188 33.738281 7.535156 33.8125 7.519531 33.863281 C 7.363281 34.308594 7.40625 34.742188 7.609375 35.160156 C 7.636719 35.21875 7.730469 35.269531 7.792969 35.269531 C 7.890625 35.273438 7.933594 35.183594 7.9375 35.089844 C 7.9375 34.953125 7.9375 34.816406 7.9375 34.679688 C 7.960938 34.402344 7.9375 34.128906 7.824219 33.871094 " fill-opacity="1" fill-rule="nonzero"/><path fill="#9c9d93" d="M 9.90625 33.632812 C 9.84375 33.652344 9.765625 33.710938 9.746094 33.769531 C 9.6875 33.949219 9.65625 34.132812 9.617188 34.292969 C 9.644531 34.464844 9.664062 34.609375 9.695312 34.753906 C 9.714844 34.855469 9.789062 34.917969 9.894531 34.925781 C 10 34.933594 10.078125 34.875 10.109375 34.777344 C 10.214844 34.441406 10.21875 34.101562 10.097656 33.769531 C 10.066406 33.683594 10.003906 33.605469 9.90625 33.632812 " fill-opacity="1" fill-rule="nonzero"/><path fill="#9c9d93" d="M 5.472656 33.554688 C 5.429688 33.550781 5.355469 33.625 5.339844 33.675781 C 5.238281 34.070312 5.234375 34.46875 5.351562 34.867188 C 5.382812 34.964844 5.441406 35.039062 5.554688 35.023438 C 5.664062 35.007812 5.703125 34.917969 5.710938 34.816406 C 5.71875 34.707031 5.722656 34.59375 5.726562 34.484375 C 5.738281 34.480469 5.75 34.480469 5.761719 34.476562 C 5.714844 34.210938 5.671875 33.941406 5.613281 33.675781 C 5.601562 33.625 5.523438 33.554688 5.472656 33.554688 " fill-opacity="1" fill-rule="nonzero"/><path fill="#9c9d93" d="M 44.671875 33.820312 C 44.617188 33.734375 44.519531 33.730469 44.457031 33.808594 C 44.414062 33.859375 44.378906 33.925781 44.367188 33.992188 C 44.320312 34.234375 44.285156 34.480469 44.242188 34.722656 C 44.25 34.726562 44.261719 34.726562 44.269531 34.730469 C 44.28125 34.875 44.285156 35.019531 44.308594 35.164062 C 44.316406 35.210938 44.371094 35.28125 44.414062 35.289062 C 44.46875 35.296875 44.542969 35.261719 44.59375 35.226562 C 44.628906 35.199219 44.652344 35.144531 44.667969 35.09375 C 44.804688 34.75 44.824219 34.394531 44.757812 34.03125 C 44.746094 33.957031 44.714844 33.882812 44.671875 33.820312 " fill-opacity="1" fill-rule="nonzero"/><path fill="#9c9d93" d="M 42.304688 33.65625 C 42.238281 33.675781 42.152344 33.746094 42.132812 33.8125 C 42.078125 33.972656 42.054688 34.144531 42.023438 34.300781 C 42.054688 34.46875 42.070312 34.621094 42.105469 34.773438 C 42.132812 34.882812 42.210938 34.953125 42.332031 34.949219 C 42.4375 34.945312 42.511719 34.878906 42.535156 34.78125 C 42.621094 34.449219 42.617188 34.121094 42.492188 33.796875 C 42.460938 33.714844 42.402344 33.625 42.304688 33.65625 " fill-opacity="1" fill-rule="nonzero"/><path fill="#9c9d93" d="M 46.753906 33.570312 C 46.703125 33.621094 46.648438 33.667969 46.601562 33.726562 C 46.582031 33.75 46.585938 33.789062 46.578125 33.824219 C 46.496094 34.160156 46.472656 34.496094 46.523438 34.839844 C 46.539062 34.9375 46.550781 35.03125 46.671875 35.042969 C 46.800781 35.058594 46.863281 34.976562 46.882812 34.867188 C 46.921875 34.675781 46.945312 34.480469 46.972656 34.292969 C 46.949219 34.097656 46.933594 33.910156 46.894531 33.726562 C 46.878906 33.667969 46.800781 33.625 46.753906 33.570312 " fill-opacity="1" fill-rule="nonzero"/><path fill="#9c9d93" d="M 7.882812 22.410156 C 8.746094 22.410156 9.433594 23.117188 9.433594 24 C 9.429688 24.867188 8.742188 25.550781 7.875 25.550781 C 7.011719 25.546875 6.300781 24.828125 6.3125 23.964844 C 6.324219 23.109375 7.027344 22.410156 7.882812 22.410156 Z M 7.90625 25.820312 C 8.90625 25.824219 9.734375 25.007812 9.742188 24.007812 C 9.753906 23.023438 8.917969 22.191406 7.917969 22.1875 C 6.910156 22.1875 6.089844 23 6.089844 24.003906 C 6.089844 25.015625 6.890625 25.816406 7.90625 25.820312 " fill-opacity="1" fill-rule="nonzero"/><path fill="#9c9d93" d="M 44.058594 22.410156 C 44.925781 22.417969 45.605469 23.121094 45.601562 24.007812 C 45.597656 24.871094 44.902344 25.554688 44.035156 25.550781 C 43.183594 25.542969 42.484375 24.839844 42.480469 23.980469 C 42.476562 23.121094 43.199219 22.402344 44.058594 22.410156 Z M 44.078125 25.820312 C 45.078125 25.824219 45.902344 25.007812 45.914062 24.007812 C 45.921875 23.023438 45.085938 22.191406 44.085938 22.1875 C 43.078125 22.1875 42.261719 23.003906 42.257812 24.003906 C 42.257812 25.015625 43.058594 25.816406 44.078125 25.820312 " fill-opacity="1" fill-rule="nonzero"/><g clip-path="url(#d4ee5d34c8)"><path fill="#9c9d93" d="M 25.816406 45.546875 C 25.636719 45.730469 25.378906 45.722656 25.207031 45.53125 C 24.90625 45.207031 24.925781 44.644531 25.242188 44.34375 C 25.496094 44.105469 25.789062 44.164062 25.921875 44.484375 C 25.949219 44.554688 25.972656 44.628906 25.988281 44.703125 C 26.007812 44.785156 26.011719 44.871094 26.019531 44.921875 C 26.023438 45.179688 25.980469 45.382812 25.816406 45.546875 Z M 26.136719 44.226562 C 25.859375 43.855469 25.355469 43.851562 25.058594 44.199219 C 24.699219 44.621094 24.667969 45.085938 24.867188 45.570312 C 25.074219 46.074219 25.660156 46.1875 26.050781 45.808594 C 26.28125 45.589844 26.378906 45.3125 26.375 44.996094 C 26.375 44.714844 26.304688 44.453125 26.136719 44.226562 " fill-opacity="1" fill-rule="nonzero"/></g><path fill="#9c9d93" d="M 10.738281 43.828125 C 10.554688 44.027344 10.285156 44.023438 10.109375 43.824219 C 9.8125 43.488281 9.835938 42.9375 10.160156 42.636719 C 10.410156 42.402344 10.703125 42.464844 10.832031 42.789062 C 10.863281 42.875 10.890625 42.964844 10.910156 43.058594 C 10.929688 43.132812 10.925781 43.210938 10.929688 43.246094 C 10.933594 43.492188 10.878906 43.675781 10.738281 43.828125 Z M 11.027344 42.503906 C 10.753906 42.152344 10.25 42.15625 9.964844 42.496094 C 9.621094 42.90625 9.570312 43.355469 9.761719 43.84375 C 9.976562 44.382812 10.59375 44.496094 10.996094 44.070312 C 11.203125 43.855469 11.28125 43.589844 11.292969 43.269531 C 11.277344 43.007812 11.210938 42.734375 11.027344 42.503906 " fill-opacity="1" fill-rule="nonzero"/><path fill="#9c9d93" d="M 43.09375 41.628906 C 43.144531 41.3125 43.398438 41.191406 43.6875 41.335938 C 43.988281 41.488281 44.121094 41.714844 44.132812 42.085938 C 44.113281 42.199219 44.113281 42.3125 44.078125 42.414062 C 43.980469 42.71875 43.679688 42.816406 43.425781 42.625 C 43.332031 42.554688 43.25 42.457031 43.195312 42.355469 C 43.078125 42.128906 43.054688 41.878906 43.09375 41.628906 Z M 42.820312 42.390625 C 42.921875 42.65625 43.089844 42.867188 43.347656 42.992188 C 43.792969 43.207031 44.257812 42.988281 44.371094 42.511719 C 44.394531 42.421875 44.402344 42.328125 44.414062 42.234375 C 44.429688 41.726562 44.183594 41.363281 43.765625 41.109375 C 43.671875 41.050781 43.542969 41.007812 43.433594 41.015625 C 43.097656 41.035156 42.84375 41.277344 42.769531 41.605469 C 42.714844 41.871094 42.722656 42.132812 42.820312 42.390625 " fill-opacity="1" fill-rule="nonzero"/><path fill="#9c9d93" d="M 17.976562 44.347656 C 17.511719 44.429688 17.125 44.101562 17.132812 43.578125 C 17.179688 43.3125 17.191406 42.996094 17.492188 42.785156 C 17.914062 42.488281 18.476562 42.667969 18.632812 43.164062 C 18.804688 43.703125 18.5 44.257812 17.976562 44.347656 Z M 17.820312 42.421875 C 17.699219 42.433594 17.570312 42.484375 17.46875 42.550781 C 17.152344 42.757812 17.015625 43.074219 16.949219 43.433594 C 16.878906 43.824219 17.019531 44.261719 17.332031 44.457031 C 17.675781 44.667969 18.039062 44.644531 18.382812 44.449219 C 18.769531 44.230469 18.882812 43.863281 18.894531 43.355469 C 18.933594 42.753906 18.378906 42.367188 17.820312 42.421875 " fill-opacity="1" fill-rule="nonzero"/><path fill="#9c9d93" d="M 35.546875 42.976562 C 35.738281 43.078125 35.808594 43.257812 35.804688 43.472656 C 35.804688 43.777344 35.414062 44.203125 35.105469 44.222656 C 35.019531 44.226562 34.910156 44.199219 34.847656 44.144531 C 34.449219 43.804688 34.496094 43.277344 34.910156 42.984375 C 35.089844 42.855469 35.335938 42.867188 35.546875 42.976562 Z M 34.367188 43.625 C 34.421875 43.792969 34.453125 43.972656 34.535156 44.128906 C 34.652344 44.359375 34.851562 44.492188 35.117188 44.46875 C 35.488281 44.433594 35.890625 44.078125 35.984375 43.71875 C 36.097656 43.296875 35.878906 42.859375 35.496094 42.785156 C 35.367188 42.757812 35.222656 42.78125 35.089844 42.804688 C 34.644531 42.878906 34.402344 43.167969 34.367188 43.625 " fill-opacity="1" fill-rule="nonzero"/><path fill="#9c9d93" d="M 22.105469 16.632812 C 21.972656 16.574219 21.847656 16.621094 21.75 16.71875 C 21.585938 16.878906 21.425781 17.046875 21.269531 17.21875 C 21.199219 17.296875 21.136719 17.382812 21.046875 17.5 C 21 17.34375 20.972656 17.238281 20.941406 17.132812 C 20.890625 16.988281 20.851562 16.835938 20.785156 16.699219 C 20.667969 16.476562 20.421875 16.480469 20.296875 16.699219 C 20.265625 16.757812 20.242188 16.824219 20.21875 16.886719 C 19.996094 17.507812 19.769531 18.128906 19.546875 18.75 C 19.523438 18.804688 19.5 18.863281 19.496094 18.917969 C 19.496094 19.066406 19.628906 19.132812 19.746094 19.054688 C 19.78125 19.03125 19.808594 18.996094 19.835938 18.964844 C 20.089844 18.699219 20.253906 18.378906 20.386719 18.039062 C 20.429688 17.925781 20.480469 17.8125 20.542969 17.664062 C 20.601562 17.828125 20.636719 17.953125 20.691406 18.070312 C 20.800781 18.289062 21.011719 18.308594 21.167969 18.121094 C 21.222656 18.054688 21.261719 17.976562 21.316406 17.910156 C 21.441406 17.738281 21.566406 17.570312 21.695312 17.402344 C 21.707031 17.414062 21.722656 17.425781 21.734375 17.4375 C 21.699219 17.761719 21.648438 18.082031 21.628906 18.40625 C 21.621094 18.5625 21.65625 18.726562 21.695312 18.882812 C 21.722656 18.976562 21.800781 19.042969 21.910156 19.039062 C 22.019531 19.035156 22.085938 18.964844 22.113281 18.871094 C 22.144531 18.753906 22.167969 18.636719 22.175781 18.515625 C 22.203125 18.148438 22.222656 17.78125 22.242188 17.414062 C 22.253906 17.265625 22.269531 17.121094 22.277344 16.976562 C 22.28125 16.832031 22.25 16.695312 22.105469 16.632812 " fill-opacity="1" fill-rule="nonzero"/><path fill="#9c9d93" d="M 33.214844 18.207031 C 33.148438 18.734375 32.855469 18.996094 32.273438 19.019531 C 32.285156 18.507812 32.300781 18 32.316406 17.503906 C 32.863281 17.34375 33.28125 17.6875 33.214844 18.207031 Z M 32.460938 17.03125 C 32.351562 17.042969 32.238281 17.042969 32.082031 17.050781 C 32.0625 17.109375 32.003906 17.199219 31.996094 17.292969 C 31.9375 17.921875 31.890625 18.554688 31.839844 19.1875 C 31.835938 19.238281 31.832031 19.289062 31.84375 19.339844 C 31.878906 19.488281 32.027344 19.558594 32.132812 19.453125 C 32.226562 19.359375 32.3125 19.386719 32.410156 19.394531 C 32.503906 19.40625 32.601562 19.410156 32.691406 19.394531 C 33.152344 19.308594 33.46875 19.054688 33.605469 18.597656 C 33.75 18.109375 33.644531 17.679688 33.28125 17.328125 C 33.054688 17.105469 32.785156 17 32.460938 17.03125 " fill-opacity="1" fill-rule="nonzero"/><path fill="#9c9d93" d="M 27.367188 17.558594 C 27.242188 17.644531 27.105469 17.710938 26.941406 17.691406 C 26.941406 17.472656 26.941406 17.261719 26.941406 17.007812 C 27.101562 17.054688 27.230469 17.078125 27.34375 17.132812 C 27.539062 17.230469 27.550781 17.4375 27.367188 17.558594 Z M 27.671875 16.921875 C 27.449219 16.734375 27.195312 16.675781 26.90625 16.746094 C 26.644531 16.8125 26.640625 16.800781 26.609375 17.058594 C 26.535156 17.601562 26.453125 18.144531 26.394531 18.691406 C 26.375 18.847656 26.398438 19.015625 26.429688 19.171875 C 26.441406 19.226562 26.53125 19.289062 26.59375 19.300781 C 26.625 19.308594 26.707031 19.230469 26.722656 19.175781 C 26.765625 19.011719 26.789062 18.839844 26.824219 18.671875 C 26.835938 18.605469 26.847656 18.539062 26.871094 18.421875 C 27.050781 18.683594 27.195312 18.898438 27.339844 19.109375 C 27.394531 19.183594 27.449219 19.261719 27.519531 19.328125 C 27.589844 19.398438 27.679688 19.417969 27.777344 19.359375 C 27.871094 19.296875 27.894531 19.203125 27.859375 19.109375 C 27.824219 19.015625 27.773438 18.921875 27.710938 18.84375 C 27.511719 18.585938 27.304688 18.335938 27.089844 18.070312 C 27.257812 18.011719 27.417969 17.972656 27.5625 17.898438 C 27.972656 17.691406 28.023438 17.21875 27.671875 16.921875 " fill-opacity="1" fill-rule="nonzero"/><path fill="#9c9d93" d="M 25.527344 17.441406 C 25.402344 17.515625 25.253906 17.554688 25.066406 17.625 C 25.089844 17.398438 25.109375 17.226562 25.128906 17.003906 C 25.277344 17.035156 25.402344 17.035156 25.503906 17.082031 C 25.679688 17.164062 25.691406 17.339844 25.527344 17.441406 Z M 25.902344 17.539062 C 26.164062 17.191406 25.984375 16.722656 25.550781 16.660156 C 25.410156 16.640625 25.261719 16.695312 25.121094 16.679688 C 24.914062 16.664062 24.84375 16.78125 24.804688 16.945312 C 24.6875 17.453125 24.566406 17.960938 24.457031 18.472656 C 24.429688 18.621094 24.441406 18.78125 24.441406 18.9375 C 24.441406 19.039062 24.480469 19.125 24.597656 19.140625 C 24.710938 19.15625 24.765625 19.078125 24.800781 18.980469 C 24.816406 18.933594 24.835938 18.886719 24.847656 18.835938 C 24.890625 18.636719 24.9375 18.441406 24.988281 18.207031 C 25.046875 18.285156 25.082031 18.339844 25.121094 18.390625 C 25.296875 18.644531 25.46875 18.898438 25.652344 19.148438 C 25.691406 19.203125 25.742188 19.261719 25.804688 19.28125 C 25.855469 19.304688 25.941406 19.296875 25.988281 19.269531 C 26.019531 19.25 26.023438 19.160156 26.007812 19.109375 C 25.984375 19.03125 25.941406 18.953125 25.894531 18.882812 C 25.691406 18.574219 25.484375 18.273438 25.265625 17.949219 C 25.515625 17.84375 25.746094 17.75 25.902344 17.539062 " fill-opacity="1" fill-rule="nonzero"/><path fill="#9c9d93" d="M 23.570312 17.636719 C 23.480469 17.636719 23.40625 17.636719 23.316406 17.636719 C 23.34375 17.457031 23.421875 17.328125 23.570312 17.203125 C 23.570312 17.367188 23.570312 17.5 23.570312 17.636719 Z M 23.96875 17.109375 C 23.960938 16.992188 23.910156 16.875 23.855469 16.769531 C 23.742188 16.554688 23.542969 16.523438 23.371094 16.695312 C 23.300781 16.765625 23.226562 16.847656 23.179688 16.933594 C 22.855469 17.503906 22.601562 18.101562 22.464844 18.746094 C 22.449219 18.816406 22.449219 18.902344 22.46875 18.972656 C 22.480469 19.019531 22.539062 19.085938 22.582031 19.085938 C 22.636719 19.089844 22.722656 19.054688 22.75 19.011719 C 22.800781 18.925781 22.820312 18.820312 22.855469 18.722656 C 22.941406 18.464844 23.03125 18.210938 23.121094 17.945312 C 23.289062 17.96875 23.421875 17.988281 23.578125 18.007812 C 23.578125 18.246094 23.574219 18.460938 23.578125 18.675781 C 23.578125 18.75 23.585938 18.828125 23.605469 18.902344 C 23.632812 19.003906 23.707031 19.070312 23.808594 19.074219 C 23.921875 19.078125 24.003906 19.011719 24.035156 18.902344 C 24.058594 18.820312 24.078125 18.730469 24.074219 18.648438 C 24.042969 18.132812 24.015625 17.621094 23.96875 17.109375 " fill-opacity="1" fill-rule="nonzero"/><path fill="#9c9d93" d="M 31.183594 17.03125 C 30.910156 17.011719 30.636719 16.988281 30.363281 16.980469 C 30.238281 16.980469 30.136719 17.050781 30.109375 17.191406 C 30.082031 17.332031 30.039062 17.472656 30.023438 17.617188 C 29.984375 17.914062 29.960938 18.210938 29.929688 18.511719 C 29.902344 18.765625 29.867188 19.019531 29.855469 19.277344 C 29.84375 19.507812 29.949219 19.601562 30.179688 19.613281 C 30.300781 19.621094 30.417969 19.644531 30.539062 19.636719 C 30.691406 19.625 30.84375 19.605469 30.992188 19.566406 C 31.097656 19.539062 31.164062 19.449219 31.148438 19.332031 C 31.128906 19.207031 31.035156 19.167969 30.921875 19.164062 C 30.878906 19.164062 30.835938 19.171875 30.792969 19.171875 C 30.644531 19.167969 30.492188 19.164062 30.332031 19.160156 C 30.355469 18.878906 30.375 18.632812 30.394531 18.375 C 30.59375 18.375 30.78125 18.375 30.96875 18.375 C 31.085938 18.375 31.195312 18.347656 31.21875 18.207031 C 31.242188 18.09375 31.160156 18.003906 31.007812 17.964844 C 30.957031 17.953125 30.902344 17.953125 30.851562 17.945312 C 30.703125 17.921875 30.554688 17.894531 30.402344 17.871094 C 30.414062 17.6875 30.425781 17.527344 30.4375 17.359375 C 30.496094 17.351562 30.546875 17.347656 30.597656 17.34375 C 30.785156 17.339844 30.972656 17.339844 31.164062 17.335938 C 31.261719 17.335938 31.328125 17.289062 31.328125 17.183594 C 31.328125 17.09375 31.273438 17.039062 31.183594 17.03125 " fill-opacity="1" fill-rule="nonzero"/><path fill="#9c9d93" d="M 24.804688 14.300781 C 24.804688 14.296875 24.808594 14.292969 24.8125 14.292969 C 24.8125 14.292969 24.8125 14.289062 24.8125 14.289062 C 24.808594 14.289062 24.804688 14.292969 24.800781 14.292969 C 24.804688 14.296875 24.804688 14.296875 24.804688 14.300781 " fill-opacity="1" fill-rule="nonzero"/><path fill="#9c9d93" d="M 24.757812 15.390625 C 24.753906 15.5 24.78125 15.613281 24.816406 15.71875 C 24.921875 16.015625 25.191406 16.097656 25.425781 15.894531 C 25.550781 15.785156 25.667969 15.640625 25.726562 15.488281 C 25.828125 15.226562 25.878906 14.945312 25.945312 14.671875 C 25.96875 14.574219 25.988281 14.464844 25.976562 14.367188 C 25.96875 14.300781 25.917969 14.21875 25.863281 14.191406 C 25.785156 14.148438 25.714844 14.210938 25.683594 14.289062 C 25.640625 14.402344 25.613281 14.515625 25.578125 14.632812 C 25.511719 14.851562 25.453125 15.074219 25.382812 15.292969 C 25.351562 15.375 25.335938 15.503906 25.210938 15.484375 C 25.074219 15.460938 25.09375 15.328125 25.085938 15.234375 C 25.078125 15.085938 25.089844 14.941406 25.09375 14.796875 C 25.101562 14.667969 25.121094 14.539062 25.125 14.410156 C 25.125 14.308594 25.175781 14.171875 25.023438 14.125 C 24.890625 14.085938 24.878906 14.226562 24.8125 14.292969 C 24.808594 14.335938 24.808594 14.375 24.808594 14.417969 C 24.789062 14.742188 24.765625 15.066406 24.757812 15.390625 " fill-opacity="1" fill-rule="nonzero"/><path fill="#9c9d93" d="M 25.898438 15.597656 C 25.886719 15.664062 25.898438 15.757812 25.9375 15.8125 C 26.058594 15.980469 26.222656 16.082031 26.441406 16.066406 C 26.699219 16.046875 26.921875 15.949219 27.105469 15.765625 C 27.316406 15.550781 27.320312 15.238281 27.097656 15.035156 C 27 14.941406 26.875 14.878906 26.757812 14.808594 C 26.683594 14.761719 26.601562 14.726562 26.484375 14.664062 C 26.59375 14.578125 26.664062 14.527344 26.746094 14.464844 C 26.828125 14.558594 26.886719 14.644531 26.964844 14.707031 C 27.007812 14.742188 27.101562 14.765625 27.144531 14.742188 C 27.1875 14.71875 27.230469 14.625 27.21875 14.574219 C 27.199219 14.488281 27.15625 14.390625 27.089844 14.332031 C 26.847656 14.097656 26.574219 14.121094 26.351562 14.371094 C 26.121094 14.636719 26.164062 14.875 26.46875 15.042969 C 26.558594 15.089844 26.660156 15.121094 26.742188 15.183594 C 26.90625 15.296875 26.90625 15.476562 26.738281 15.582031 C 26.632812 15.648438 26.503906 15.710938 26.386719 15.710938 C 26.308594 15.714844 26.230469 15.605469 26.152344 15.542969 C 26.136719 15.535156 26.125 15.519531 26.113281 15.511719 C 26.019531 15.449219 25.914062 15.484375 25.898438 15.597656 " fill-opacity="1" fill-rule="nonzero"/><path fill="#9c9d93" d="M 29.167969 18.832031 C 29.070312 18.898438 28.972656 18.96875 28.835938 19.066406 C 28.8125 18.890625 28.773438 18.757812 28.78125 18.628906 C 28.796875 18.335938 28.839844 18.050781 28.867188 17.757812 C 28.878906 17.632812 28.894531 17.503906 28.882812 17.375 C 28.878906 17.324219 28.816406 17.257812 28.761719 17.234375 C 28.683594 17.203125 28.605469 17.242188 28.574219 17.324219 C 28.535156 17.421875 28.496094 17.519531 28.480469 17.617188 C 28.425781 18.007812 28.375 18.398438 28.332031 18.789062 C 28.320312 18.890625 28.324219 18.996094 28.34375 19.09375 C 28.410156 19.460938 28.683594 19.597656 29.007812 19.417969 C 29.152344 19.34375 29.277344 19.234375 29.398438 19.128906 C 29.527344 19.015625 29.550781 18.902344 29.484375 18.816406 C 29.414062 18.726562 29.3125 18.730469 29.167969 18.832031 " fill-opacity="1" fill-rule="nonzero"/><path fill="#9c9d93" d="M 24.605469 14.078125 C 24.222656 14.105469 23.839844 14.152344 23.457031 14.195312 C 23.417969 14.199219 23.375 14.21875 23.339844 14.242188 C 23.269531 14.296875 23.285156 14.398438 23.367188 14.429688 C 23.421875 14.449219 23.484375 14.449219 23.542969 14.449219 C 23.683594 14.453125 23.824219 14.449219 23.996094 14.449219 C 23.925781 14.738281 23.882812 14.992188 23.800781 15.234375 C 23.703125 15.527344 23.585938 15.566406 23.300781 15.4375 C 23.285156 15.429688 23.269531 15.417969 23.253906 15.417969 C 23.207031 15.421875 23.136719 15.417969 23.113281 15.445312 C 23.082031 15.484375 23.058594 15.5625 23.078125 15.605469 C 23.136719 15.738281 23.226562 15.851562 23.378906 15.898438 C 23.632812 15.976562 23.925781 15.875 24.0625 15.617188 C 24.152344 15.445312 24.203125 15.25 24.242188 15.0625 C 24.285156 14.855469 24.289062 14.640625 24.308594 14.449219 C 24.488281 14.394531 24.644531 14.34375 24.800781 14.292969 C 24.78125 14.101562 24.761719 14.066406 24.605469 14.078125 " fill-opacity="1" fill-rule="nonzero"/><path fill="#9c9d93" d="M 28.371094 15.605469 C 28.390625 15.308594 28.40625 15.011719 28.421875 14.707031 C 28.589844 14.6875 28.734375 14.667969 28.875 14.65625 C 28.964844 14.648438 29.039062 14.609375 29.027344 14.523438 C 29.023438 14.46875 28.953125 14.425781 28.910156 14.378906 C 28.902344 14.367188 28.882812 14.359375 28.863281 14.355469 C 28.484375 14.269531 28.101562 14.28125 27.714844 14.332031 C 27.617188 14.347656 27.546875 14.417969 27.570312 14.507812 C 27.582031 14.566406 27.65625 14.632812 27.71875 14.65625 C 27.8125 14.6875 27.917969 14.6875 28.054688 14.707031 C 28.046875 14.777344 28.039062 14.824219 28.035156 14.875 C 28.011719 15.214844 27.980469 15.558594 27.964844 15.898438 C 27.957031 16.042969 28.039062 16.136719 28.144531 16.136719 C 28.269531 16.132812 28.328125 16.050781 28.34375 15.9375 C 28.359375 15.828125 28.367188 15.714844 28.371094 15.605469 " fill-opacity="1" fill-rule="nonzero"/><path fill="#9c9d93" d="M 28.496094 16.871094 C 28.492188 17 28.605469 17.121094 28.738281 17.117188 C 28.867188 17.117188 28.984375 17 28.988281 16.875 C 28.992188 16.742188 28.878906 16.628906 28.746094 16.625 C 28.617188 16.625 28.496094 16.742188 28.496094 16.871094 " fill-opacity="1" fill-rule="nonzero"/><path fill="#9c9d93" d="M 17.132812 19.46875 C 17.007812 19.476562 16.910156 19.589844 16.917969 19.710938 C 16.929688 19.839844 17.039062 19.933594 17.164062 19.917969 C 17.277344 19.90625 17.371094 19.804688 17.371094 19.691406 C 17.367188 19.570312 17.25 19.460938 17.132812 19.46875 " fill-opacity="1" fill-rule="nonzero"/><path fill="#9c9d93" d="M 34.769531 19.488281 C 34.890625 19.492188 35.003906 19.386719 35.007812 19.265625 C 35.007812 19.144531 34.902344 19.039062 34.777344 19.039062 C 34.660156 19.042969 34.566406 19.128906 34.558594 19.246094 C 34.550781 19.371094 34.644531 19.480469 34.769531 19.488281 " fill-opacity="1" fill-rule="nonzero"/><path fill="#9c9d93" d="M 34.089844 15.15625 C 34.210938 15.160156 34.3125 15.054688 34.3125 14.929688 C 34.3125 14.8125 34.222656 14.71875 34.105469 14.714844 C 33.984375 14.714844 33.878906 14.820312 33.882812 14.941406 C 33.882812 15.058594 33.976562 15.15625 34.089844 15.15625 " fill-opacity="1" fill-rule="nonzero"/><path fill="#9c9d93" d="M 18.261719 15.1875 C 18.171875 15.164062 18.089844 15.269531 18.097656 15.367188 C 18.105469 15.46875 18.160156 15.523438 18.261719 15.527344 C 18.355469 15.53125 18.429688 15.441406 18.421875 15.292969 C 18.386719 15.269531 18.328125 15.203125 18.261719 15.1875 " fill-opacity="1" fill-rule="nonzero"/></svg>