<svg xmlns="http://www.w3.org/2000/svg" xmlns:xlink="http://www.w3.org/1999/xlink" width="70" zoomAndPan="magnify" viewBox="0 0 52.5 52.499999" height="70" preserveAspectRatio="xMidYMid meet" version="1.0"><defs><clipPath id="250993c07f"><path d="M 3.640625 3.640625 L 48.214844 3.640625 L 48.214844 48.214844 L 3.640625 48.214844 Z M 3.640625 3.640625 " clip-rule="nonzero"/></clipPath></defs><g clip-path="url(#250993c07f)"><path fill="#9c9d93" d="M 16.722656 3.640625 C 9.542969 3.640625 3.640625 9.535156 3.640625 16.722656 L 3.640625 35.050781 C 3.640625 42.234375 9.535156 48.132812 16.722656 48.132812 L 35.050781 48.132812 C 42.234375 48.132812 48.132812 42.242188 48.132812 35.050781 L 48.132812 16.722656 C 48.132812 9.542969 42.242188 3.640625 35.050781 3.640625 Z M 16.722656 7.683594 L 35.050781 7.683594 C 40.050781 7.683594 44.089844 11.722656 44.089844 16.722656 L 44.089844 35.050781 C 44.089844 40.050781 40.050781 44.089844 35.050781 44.089844 L 16.722656 44.089844 C 11.722656 44.089844 7.683594 40.050781 7.683594 35.050781 L 7.683594 16.722656 C 7.683594 11.722656 11.722656 7.683594 16.722656 7.683594 Z M 37.832031 12.109375 C 36.8125 12.109375 36 12.921875 36 13.941406 C 36 14.960938 36.8125 15.773438 37.832031 15.773438 C 38.851562 15.773438 39.664062 14.960938 39.664062 13.941406 C 39.664062 12.921875 38.851562 12.109375 37.832031 12.109375 Z M 25.886719 13.753906 C 19.210938 13.753906 13.753906 19.210938 13.753906 25.886719 C 13.753906 32.5625 19.210938 38.023438 25.886719 38.023438 C 32.5625 38.023438 38.023438 32.5625 38.023438 25.886719 C 38.023438 19.210938 32.5625 13.753906 25.886719 13.753906 Z M 25.886719 17.796875 C 30.382812 17.796875 33.976562 21.390625 33.976562 25.886719 C 33.976562 30.382812 30.382812 33.976562 25.886719 33.976562 C 21.390625 33.976562 17.796875 30.382812 17.796875 25.886719 C 17.796875 21.390625 21.390625 17.796875 25.886719 17.796875 Z M 25.886719 17.796875 " fill-opacity="1" fill-rule="nonzero"/></g></svg>