<svg xmlns="http://www.w3.org/2000/svg" xmlns:xlink="http://www.w3.org/1999/xlink" width="100" zoomAndPan="magnify" viewBox="0 0 75 30.000001" height="40" preserveAspectRatio="xMidYMid meet" version="1.0"><defs><clipPath id="cc06d73b22"><path d="M 31 8.042969 L 69.433594 8.042969 L 69.433594 22.558594 L 31 22.558594 Z M 31 8.042969 " clip-rule="nonzero"/></clipPath><clipPath id="c9458e58b9"><path d="M 1.210938 8.042969 L 40 8.042969 L 40 22.558594 L 1.210938 22.558594 Z M 1.210938 8.042969 " clip-rule="nonzero"/></clipPath></defs><g clip-path="url(#cc06d73b22)"><path fill="#ecb71c" d="M 54.769531 8.050781 C 54.6875 8.050781 54.621094 8.070312 54.535156 8.121094 C 54.296875 8.257812 53.816406 8.726562 52.972656 9.648438 C 51.933594 10.78125 51.351562 11.519531 50.621094 12.632812 C 50.050781 13.496094 49.6875 14.128906 49.734375 14.175781 C 49.742188 14.183594 49.699219 14.222656 49.644531 14.265625 C 49.550781 14.339844 49.507812 14.351562 49.089844 14.421875 C 47.589844 14.683594 46.167969 14.996094 44.640625 15.402344 C 44.605469 15.410156 44.714844 15.328125 44.878906 15.222656 C 45.351562 14.914062 45.628906 14.699219 45.972656 14.363281 C 46.890625 13.472656 47.460938 12.605469 47.929688 11.398438 C 48.171875 10.777344 48.417969 9.984375 48.496094 9.578125 C 48.554688 9.265625 48.46875 9.089844 48.238281 9.046875 C 48.140625 9.027344 47.996094 9.085938 47.851562 9.203125 C 47.082031 9.828125 45.671875 11.398438 45.078125 12.296875 C 44.828125 12.671875 44.542969 13.167969 44.265625 13.714844 C 43.980469 14.277344 43.914062 14.433594 43.632812 15.222656 C 43.4375 15.777344 43.46875 15.738281 43.171875 15.828125 C 42.5 16.03125 41.449219 16.390625 40.675781 16.683594 C 36.867188 18.121094 32.472656 20.601562 31.304688 21.96875 C 31.105469 22.203125 31 22.417969 31.039062 22.515625 C 31.046875 22.535156 31.070312 22.554688 31.089844 22.554688 C 31.113281 22.554688 31.28125 22.429688 31.46875 22.28125 C 32.480469 21.464844 33.761719 20.664062 35.566406 19.714844 C 37.691406 18.59375 39.890625 17.648438 42.039062 16.921875 L 42.695312 16.699219 L 43.039062 16.9375 C 43.230469 17.070312 43.503906 17.265625 43.648438 17.371094 C 44.242188 17.816406 44.71875 18.101562 45.359375 18.390625 C 46.367188 18.847656 47.101562 19.0625 48.402344 19.28125 C 49.035156 19.386719 49.484375 19.476562 50.035156 19.609375 C 50.269531 19.664062 50.4375 19.691406 50.492188 19.683594 C 50.691406 19.65625 50.804688 19.496094 50.753906 19.3125 C 50.722656 19.191406 50.519531 18.953125 50.117188 18.558594 C 49.226562 17.691406 48.332031 17.128906 47.261719 16.769531 C 46.4375 16.496094 45.671875 16.378906 44.554688 16.355469 L 43.886719 16.339844 L 44.257812 16.234375 C 45.269531 15.945312 46.773438 15.589844 47.984375 15.351562 C 48.5625 15.234375 49.753906 15.027344 49.824219 15.027344 C 49.851562 15.027344 49.867188 15.054688 49.878906 15.121094 C 49.894531 15.226562 49.957031 15.300781 50.675781 16.054688 C 51.335938 16.746094 51.71875 17.039062 52.433594 17.40625 C 52.84375 17.617188 53.242188 17.769531 54.097656 18.058594 C 54.894531 18.320312 55.265625 18.46875 55.832031 18.742188 C 56.265625 18.949219 56.394531 18.980469 56.519531 18.910156 C 56.609375 18.863281 56.671875 18.746094 56.671875 18.636719 C 56.671875 18.371094 55.886719 17.414062 55.289062 16.949219 C 54.601562 16.421875 53.519531 15.789062 52.6875 15.4375 C 52.328125 15.285156 51.6875 15.0625 51.28125 14.953125 C 51.121094 14.90625 51 14.863281 51.007812 14.855469 C 51.03125 14.835938 52.40625 14.664062 53.210938 14.582031 C 53.859375 14.515625 54.960938 14.417969 54.96875 14.429688 C 54.96875 14.433594 54.996094 14.515625 55.023438 14.609375 C 55.246094 15.355469 56.089844 16.300781 57.1875 17.03125 C 57.855469 17.480469 58.363281 17.753906 59.753906 18.429688 C 60.933594 19 61.152344 19.085938 61.367188 19.035156 C 61.535156 19 61.640625 18.855469 61.640625 18.671875 C 61.640625 18.539062 61.523438 18.199219 61.398438 17.960938 C 60.941406 17.097656 60.074219 16.203125 58.992188 15.46875 C 58.234375 14.960938 57.570312 14.652344 56.710938 14.414062 L 56.425781 14.335938 L 56.757812 14.320312 C 57.871094 14.265625 59.746094 14.238281 60.238281 14.273438 C 60.441406 14.285156 60.46875 14.292969 60.46875 14.332031 C 60.46875 14.460938 60.742188 14.984375 61.039062 15.429688 C 61.5625 16.207031 62.355469 17.027344 63.175781 17.628906 C 63.71875 18.03125 64.484375 18.476562 64.816406 18.582031 C 65.109375 18.679688 65.367188 18.632812 65.488281 18.457031 C 65.535156 18.390625 65.542969 18.351562 65.542969 18.175781 C 65.542969 18 65.53125 17.9375 65.457031 17.753906 C 65.25 17.210938 64.898438 16.691406 64.363281 16.152344 C 63.621094 15.402344 63.09375 15.054688 61.617188 14.34375 C 61.535156 14.304688 61.539062 14.304688 61.84375 14.316406 C 62.015625 14.324219 62.453125 14.34375 62.816406 14.363281 L 63.480469 14.398438 L 63.773438 14.578125 C 64.445312 14.988281 65.398438 15.394531 66.019531 15.542969 C 66.652344 15.6875 67.328125 15.734375 68.324219 15.703125 C 69.09375 15.675781 69.222656 15.65625 69.332031 15.539062 C 69.421875 15.4375 69.449219 15.378906 69.449219 15.253906 C 69.449219 15.058594 69.28125 14.808594 68.929688 14.46875 C 68.667969 14.21875 68.4375 14.058594 68.097656 13.894531 C 67.3125 13.515625 66.667969 13.390625 65.640625 13.421875 C 64.746094 13.449219 63.722656 13.613281 63.382812 13.785156 L 63.269531 13.84375 L 63.191406 13.757812 C 63.101562 13.660156 63.027344 13.660156 62.980469 13.757812 C 62.953125 13.820312 62.941406 13.824219 62.863281 13.8125 C 62.8125 13.804688 62.457031 13.777344 62.070312 13.75 C 61.683594 13.722656 61.359375 13.699219 61.347656 13.695312 C 61.339844 13.691406 61.464844 13.601562 61.628906 13.488281 C 62.300781 13.042969 62.851562 12.472656 63.257812 11.816406 C 63.679688 11.128906 64.074219 10.003906 64.074219 9.488281 C 64.074219 9.105469 63.855469 8.910156 63.515625 9 C 63.34375 9.046875 63.246094 9.097656 63.007812 9.269531 C 62.136719 9.898438 61.328125 10.984375 60.777344 12.269531 C 60.632812 12.617188 60.429688 13.179688 60.347656 13.457031 L 60.292969 13.660156 L 60.03125 13.640625 C 59.648438 13.617188 57.300781 13.625 56.652344 13.652344 C 56.34375 13.664062 56.085938 13.671875 56.085938 13.667969 C 56.078125 13.664062 56.171875 13.625 56.285156 13.582031 C 56.402344 13.539062 56.628906 13.433594 56.792969 13.351562 C 57.855469 12.800781 58.757812 11.742188 59.476562 10.203125 C 59.742188 9.640625 59.96875 8.957031 59.96875 8.726562 C 59.96875 8.355469 59.695312 8.15625 59.320312 8.253906 C 59.015625 8.332031 58.453125 8.660156 58.011719 9.019531 C 57.359375 9.550781 56.578125 10.339844 56.203125 10.859375 C 55.753906 11.464844 55.355469 12.308594 55.25 12.851562 C 55.222656 12.996094 55.144531 13.574219 55.144531 13.632812 C 55.144531 13.640625 55.101562 13.660156 55.050781 13.675781 C 54.996094 13.691406 54.953125 13.710938 54.953125 13.722656 C 54.953125 13.734375 54.828125 13.75 54.675781 13.761719 C 53.847656 13.808594 52.15625 13.980469 51.078125 14.125 C 50.742188 14.171875 50.457031 14.207031 50.445312 14.207031 C 50.4375 14.207031 50.527344 14.164062 50.644531 14.113281 C 50.957031 13.980469 51.464844 13.71875 51.707031 13.566406 C 51.984375 13.394531 52.511719 12.996094 52.839844 12.710938 C 54.121094 11.597656 55.015625 10.089844 55.148438 8.820312 C 55.203125 8.289062 55.085938 8.050781 54.769531 8.050781 Z M 54.671875 8.644531 L 54.65625 8.773438 C 54.601562 9.246094 54.472656 9.648438 54.203125 10.203125 C 53.875 10.875 53.492188 11.417969 52.9375 11.988281 C 52.453125 12.496094 51.742188 13.082031 51.265625 13.371094 C 50.867188 13.613281 50.671875 13.710938 50.699219 13.664062 C 50.734375 13.601562 51.632812 12.714844 52.179688 12.203125 C 52.609375 11.800781 52.691406 11.703125 52.652344 11.636719 C 52.582031 11.519531 52.183594 11.753906 51.582031 12.265625 C 51.390625 12.425781 51.285156 12.503906 51.3125 12.460938 C 51.484375 12.191406 52.113281 11.390625 52.539062 10.890625 C 53.109375 10.222656 54.289062 8.96875 54.554688 8.742188 Z M 59.4375 8.742188 C 59.484375 8.738281 59.46875 8.796875 59.40625 9.03125 C 59.234375 9.667969 58.675781 10.8125 58.214844 11.476562 C 57.765625 12.125 57.121094 12.734375 56.570312 13.03125 C 56.320312 13.164062 56.148438 13.246094 56.148438 13.230469 C 56.148438 13.210938 56.4375 12.851562 56.976562 12.207031 C 57.5 11.574219 57.835938 11.132812 57.898438 10.992188 C 57.949219 10.871094 57.925781 10.792969 57.835938 10.792969 C 57.746094 10.792969 56.75 11.835938 55.976562 12.746094 C 55.816406 12.9375 55.695312 13.058594 55.695312 13.035156 C 55.695312 12.972656 55.800781 12.605469 55.859375 12.457031 C 56.070312 11.929688 56.492188 11.246094 56.882812 10.800781 C 57.242188 10.394531 57.960938 9.703125 58.382812 9.371094 C 58.703125 9.113281 59.144531 8.839844 59.367188 8.761719 C 59.398438 8.75 59.421875 8.742188 59.4375 8.742188 Z M 63.605469 9.488281 L 63.585938 9.59375 C 63.527344 9.996094 63.367188 10.515625 63.175781 10.960938 C 62.777344 11.878906 62.214844 12.582031 61.363281 13.234375 C 61.21875 13.347656 61.09375 13.4375 61.085938 13.4375 C 61.074219 13.4375 61.140625 13.335938 61.226562 13.214844 C 61.4375 12.925781 61.980469 12.09375 62.148438 11.800781 C 62.324219 11.503906 62.417969 11.257812 62.382812 11.183594 C 62.351562 11.117188 62.285156 11.113281 62.21875 11.171875 C 62.191406 11.195312 61.957031 11.5 61.699219 11.851562 C 61.441406 12.199219 61.21875 12.5 61.207031 12.511719 C 61.167969 12.550781 61.433594 11.996094 61.582031 11.726562 C 62.085938 10.808594 62.90625 9.867188 63.488281 9.550781 Z M 47.898438 9.859375 C 47.910156 9.871094 47.71875 10.523438 47.613281 10.839844 C 47.390625 11.484375 47.046875 12.234375 46.773438 12.667969 C 46.351562 13.34375 45.644531 14.152344 45.089844 14.582031 C 44.953125 14.6875 44.765625 14.828125 44.675781 14.894531 L 44.507812 15.011719 L 44.714844 14.761719 C 44.824219 14.621094 45.066406 14.3125 45.246094 14.070312 C 46.007812 13.054688 46.382812 12.355469 46.167969 12.355469 C 46.074219 12.355469 45.996094 12.4375 45.671875 12.871094 C 45.363281 13.285156 44.660156 14.167969 44.5625 14.265625 C 44.507812 14.320312 44.820312 13.707031 45.035156 13.328125 C 45.515625 12.492188 45.949219 11.914062 46.863281 10.898438 C 47.179688 10.546875 47.882812 9.839844 47.898438 9.859375 Z M 65.617188 13.882812 C 66.320312 13.882812 66.433594 13.890625 66.699219 13.9375 C 67.253906 14.039062 67.960938 14.324219 68.300781 14.585938 C 68.511719 14.75 68.890625 15.140625 68.863281 15.167969 C 68.832031 15.195312 67.226562 15.21875 66.941406 15.195312 C 66.417969 15.148438 65.9375 15.050781 65.484375 14.890625 C 65.128906 14.765625 64.597656 14.558594 64.492188 14.496094 L 64.398438 14.449219 L 64.507812 14.460938 C 64.566406 14.464844 64.894531 14.488281 65.238281 14.511719 C 65.769531 14.542969 65.871094 14.542969 65.929688 14.515625 C 66.011719 14.476562 66.03125 14.390625 65.972656 14.328125 C 65.875 14.21875 65.445312 14.105469 64.746094 14.015625 C 64.527344 13.984375 64.328125 13.953125 64.304688 13.941406 C 64.214844 13.910156 64.808594 13.882812 65.617188 13.882812 Z M 55.496094 14.632812 L 55.632812 14.722656 C 55.710938 14.773438 56.046875 15.015625 56.382812 15.261719 C 57.140625 15.8125 57.972656 16.378906 58.089844 16.417969 C 58.21875 16.460938 58.285156 16.445312 58.292969 16.371094 C 58.296875 16.320312 58.273438 16.28125 58.160156 16.179688 C 58.015625 16.042969 57.496094 15.625 56.75 15.039062 C 56.5 14.839844 56.296875 14.675781 56.300781 14.671875 C 56.316406 14.65625 57.09375 14.9375 57.402344 15.074219 C 58.710938 15.644531 60.0625 16.757812 60.769531 17.851562 C 60.886719 18.03125 61.042969 18.324219 61.09375 18.457031 C 61.105469 18.488281 61.105469 18.511719 61.097656 18.511719 C 61.066406 18.507812 60.566406 18.273438 59.847656 17.925781 C 57.898438 16.980469 57.148438 16.515625 56.363281 15.753906 C 56.003906 15.410156 55.777344 15.121094 55.5625 14.75 Z M 61.191406 14.773438 C 61.203125 14.757812 61.652344 15.128906 61.972656 15.417969 C 62.324219 15.734375 62.761719 16.125 62.933594 16.269531 C 63.050781 16.375 63.136719 16.398438 63.1875 16.34375 C 63.234375 16.296875 63.222656 16.269531 63.09375 16.070312 C 63.019531 15.953125 62.820312 15.726562 62.5625 15.460938 C 62.324219 15.214844 62.1875 15.0625 62.238281 15.089844 C 62.550781 15.277344 62.730469 15.386719 62.90625 15.507812 C 63.582031 15.972656 64.304688 16.6875 64.671875 17.261719 C 64.796875 17.457031 64.992188 17.859375 65.039062 18.027344 C 65.058594 18.09375 65.074219 18.152344 65.070312 18.152344 C 64.953125 18.128906 64.5625 17.9375 64.230469 17.734375 C 63.144531 17.078125 62.269531 16.296875 61.582031 15.375 C 61.375 15.097656 61.175781 14.789062 61.191406 14.773438 Z M 51.375 15.410156 C 51.40625 15.410156 51.878906 15.578125 52.105469 15.667969 C 53.007812 16.03125 54.199219 16.714844 54.953125 17.304688 C 55.167969 17.472656 55.605469 17.902344 55.738281 18.074219 C 55.78125 18.128906 55.816406 18.175781 55.8125 18.175781 C 55.804688 18.171875 55.734375 18.140625 55.648438 18.101562 C 55.335938 17.953125 54.996094 17.828125 54.238281 17.574219 C 53.117188 17.199219 52.714844 17.03125 52.171875 16.703125 C 51.804688 16.476562 51.605469 16.320312 51.253906 15.96875 C 51.019531 15.734375 50.953125 15.660156 51.015625 15.6875 C 51.199219 15.777344 51.796875 16.105469 52.28125 16.386719 C 52.855469 16.714844 52.945312 16.757812 53.058594 16.757812 C 53.148438 16.757812 53.171875 16.730469 53.152344 16.648438 C 53.128906 16.546875 52.285156 15.945312 51.636719 15.570312 C 51.484375 15.480469 51.367188 15.410156 51.375 15.410156 Z M 44.125 16.707031 C 44.3125 16.703125 45.167969 16.777344 45.617188 16.84375 C 46.921875 17.03125 48.003906 17.472656 48.960938 18.203125 C 49.207031 18.390625 49.757812 18.878906 49.878906 19.015625 C 49.925781 19.070312 49.917969 19.074219 49.808594 19.039062 C 49.671875 19 49.03125 18.875 48.457031 18.777344 C 47.734375 18.65625 47.40625 18.585938 46.988281 18.464844 C 46.113281 18.214844 45.070312 17.757812 44.484375 17.367188 C 44.351562 17.28125 44.265625 17.214844 44.289062 17.222656 C 44.410156 17.261719 45.261719 17.480469 45.5 17.535156 C 46.308594 17.714844 46.835938 17.71875 46.835938 17.542969 C 46.835938 17.472656 46.789062 17.453125 46.464844 17.394531 C 46.347656 17.375 46.046875 17.300781 45.796875 17.234375 C 45.339844 17.113281 44.113281 16.742188 44.089844 16.714844 C 44.085938 16.710938 44.097656 16.710938 44.125 16.707031 Z M 44.125 16.707031 " fill-opacity="1" fill-rule="nonzero"/></g><g clip-path="url(#c9458e58b9)"><path fill="#ecb71c" d="M 15.894531 8.050781 C 15.976562 8.050781 16.042969 8.070312 16.128906 8.121094 C 16.371094 8.257812 16.847656 8.726562 17.695312 9.648438 C 18.734375 10.78125 19.316406 11.519531 20.046875 12.632812 C 20.613281 13.496094 20.980469 14.128906 20.933594 14.175781 C 20.925781 14.183594 20.964844 14.222656 21.023438 14.265625 C 21.113281 14.339844 21.160156 14.351562 21.574219 14.421875 C 23.074219 14.683594 24.5 14.996094 26.027344 15.402344 C 26.058594 15.410156 25.953125 15.328125 25.789062 15.222656 C 25.3125 14.914062 25.039062 14.699219 24.695312 14.363281 C 23.777344 13.472656 23.207031 12.605469 22.734375 11.398438 C 22.496094 10.777344 22.246094 9.984375 22.171875 9.578125 C 22.109375 9.265625 22.195312 9.089844 22.429688 9.046875 C 22.527344 9.027344 22.671875 9.085938 22.816406 9.203125 C 23.585938 9.828125 24.996094 11.398438 25.589844 12.296875 C 25.839844 12.671875 26.121094 13.167969 26.398438 13.714844 C 26.683594 14.277344 26.75 14.433594 27.03125 15.222656 C 27.230469 15.777344 27.199219 15.738281 27.496094 15.828125 C 28.167969 16.03125 29.214844 16.390625 29.988281 16.683594 C 33.800781 18.121094 38.191406 20.601562 39.359375 21.96875 C 39.558594 22.203125 39.664062 22.417969 39.628906 22.515625 C 39.621094 22.535156 39.597656 22.554688 39.574219 22.554688 C 39.554688 22.554688 39.382812 22.429688 39.199219 22.28125 C 38.183594 21.464844 36.902344 20.664062 35.101562 19.714844 C 32.976562 18.59375 30.777344 17.648438 28.628906 16.921875 L 27.96875 16.699219 L 27.625 16.9375 C 27.433594 17.070312 27.164062 17.265625 27.019531 17.371094 C 26.425781 17.816406 25.945312 18.101562 25.304688 18.390625 C 24.300781 18.847656 23.566406 19.0625 22.261719 19.28125 C 21.628906 19.386719 21.183594 19.476562 20.628906 19.609375 C 20.398438 19.664062 20.226562 19.691406 20.171875 19.683594 C 19.976562 19.65625 19.863281 19.496094 19.914062 19.3125 C 19.945312 19.191406 20.148438 18.953125 20.550781 18.558594 C 21.4375 17.691406 22.332031 17.128906 23.40625 16.769531 C 24.226562 16.496094 24.996094 16.378906 26.109375 16.355469 L 26.777344 16.339844 L 26.410156 16.234375 C 25.394531 15.945312 23.890625 15.589844 22.683594 15.351562 C 22.105469 15.234375 20.910156 15.027344 20.84375 15.027344 C 20.816406 15.027344 20.796875 15.054688 20.789062 15.121094 C 20.769531 15.226562 20.710938 15.300781 19.992188 16.054688 C 19.332031 16.746094 18.949219 17.039062 18.230469 17.40625 C 17.820312 17.617188 17.425781 17.769531 16.566406 18.058594 C 15.773438 18.320312 15.402344 18.46875 14.832031 18.742188 C 14.398438 18.949219 14.273438 18.980469 14.144531 18.910156 C 14.058594 18.863281 13.992188 18.746094 13.992188 18.636719 C 13.992188 18.371094 14.777344 17.414062 15.378906 16.949219 C 16.0625 16.421875 17.144531 15.789062 17.980469 15.4375 C 18.335938 15.285156 18.980469 15.0625 19.382812 14.953125 C 19.542969 14.90625 19.667969 14.863281 19.65625 14.855469 C 19.636719 14.835938 18.257812 14.664062 17.457031 14.582031 C 16.804688 14.515625 15.707031 14.417969 15.699219 14.429688 C 15.695312 14.433594 15.671875 14.515625 15.640625 14.609375 C 15.421875 15.355469 14.578125 16.300781 13.480469 17.03125 C 12.8125 17.480469 12.304688 17.753906 10.914062 18.429688 C 9.734375 19 9.511719 19.085938 9.300781 19.035156 C 9.132812 19 9.027344 18.855469 9.027344 18.671875 C 9.027344 18.539062 9.140625 18.199219 9.269531 17.960938 C 9.722656 17.097656 10.589844 16.203125 11.675781 15.46875 C 12.429688 14.960938 13.097656 14.652344 13.957031 14.414062 L 14.242188 14.335938 L 13.90625 14.320312 C 12.792969 14.265625 10.917969 14.238281 10.429688 14.273438 C 10.226562 14.285156 10.195312 14.292969 10.195312 14.332031 C 10.195312 14.460938 9.925781 14.984375 9.625 15.429688 C 9.105469 16.207031 8.3125 17.027344 7.492188 17.628906 C 6.945312 18.03125 6.183594 18.476562 5.851562 18.582031 C 5.554688 18.679688 5.300781 18.632812 5.175781 18.457031 C 5.128906 18.390625 5.121094 18.351562 5.121094 18.175781 C 5.125 18 5.136719 17.9375 5.207031 17.753906 C 5.414062 17.210938 5.769531 16.691406 6.304688 16.152344 C 7.046875 15.402344 7.574219 15.054688 9.050781 14.34375 C 9.132812 14.304688 9.125 14.304688 8.824219 14.316406 C 8.652344 14.324219 8.214844 14.34375 7.847656 14.363281 L 7.183594 14.398438 L 6.890625 14.578125 C 6.21875 14.988281 5.265625 15.394531 4.644531 15.542969 C 4.011719 15.6875 3.335938 15.734375 2.339844 15.703125 C 1.570312 15.675781 1.441406 15.65625 1.332031 15.539062 C 1.242188 15.4375 1.21875 15.378906 1.21875 15.253906 C 1.21875 15.058594 1.386719 14.808594 1.738281 14.46875 C 2 14.21875 2.230469 14.058594 2.566406 13.894531 C 3.351562 13.515625 3.996094 13.390625 5.027344 13.421875 C 5.921875 13.449219 6.941406 13.613281 7.285156 13.785156 L 7.398438 13.84375 L 7.472656 13.757812 C 7.5625 13.660156 7.636719 13.660156 7.683594 13.757812 C 7.714844 13.820312 7.726562 13.824219 7.804688 13.8125 C 7.851562 13.804688 8.207031 13.777344 8.597656 13.75 C 8.984375 13.722656 9.308594 13.699219 9.316406 13.695312 C 9.328125 13.691406 9.199219 13.601562 9.035156 13.488281 C 8.367188 13.042969 7.8125 12.472656 7.410156 11.816406 C 6.984375 11.128906 6.589844 10.003906 6.589844 9.488281 C 6.589844 9.105469 6.8125 8.910156 7.148438 9 C 7.324219 9.046875 7.417969 9.097656 7.65625 9.269531 C 8.53125 9.898438 9.335938 10.984375 9.886719 12.269531 C 10.035156 12.617188 10.238281 13.179688 10.316406 13.457031 L 10.375 13.660156 L 10.632812 13.640625 C 11.015625 13.617188 13.367188 13.625 14.015625 13.652344 C 14.324219 13.664062 14.578125 13.671875 14.582031 13.667969 C 14.585938 13.664062 14.496094 13.625 14.378906 13.582031 C 14.265625 13.539062 14.039062 13.433594 13.871094 13.351562 C 12.808594 12.800781 11.90625 11.742188 11.1875 10.203125 C 10.925781 9.640625 10.699219 8.957031 10.699219 8.726562 C 10.699219 8.355469 10.972656 8.15625 11.347656 8.253906 C 11.648438 8.332031 12.210938 8.660156 12.65625 9.019531 C 13.308594 9.550781 14.085938 10.339844 14.464844 10.859375 C 14.910156 11.464844 15.3125 12.308594 15.414062 12.851562 C 15.441406 12.996094 15.519531 13.574219 15.519531 13.632812 C 15.519531 13.640625 15.5625 13.660156 15.617188 13.675781 C 15.667969 13.691406 15.710938 13.710938 15.710938 13.722656 C 15.710938 13.734375 15.835938 13.75 15.992188 13.761719 C 16.820312 13.808594 18.507812 13.980469 19.585938 14.125 C 19.925781 14.171875 20.210938 14.207031 20.21875 14.207031 C 20.226562 14.207031 20.140625 14.164062 20.019531 14.113281 C 19.710938 13.980469 19.203125 13.71875 18.957031 13.566406 C 18.683594 13.394531 18.152344 12.996094 17.824219 12.710938 C 16.546875 11.597656 15.652344 10.089844 15.519531 8.820312 C 15.464844 8.289062 15.582031 8.050781 15.894531 8.050781 Z M 15.996094 8.644531 L 16.011719 8.773438 C 16.066406 9.246094 16.191406 9.648438 16.464844 10.203125 C 16.789062 10.875 17.171875 11.417969 17.726562 11.988281 C 18.214844 12.496094 18.921875 13.082031 19.402344 13.371094 C 19.800781 13.613281 19.992188 13.710938 19.964844 13.664062 C 19.933594 13.601562 19.035156 12.714844 18.488281 12.203125 C 18.058594 11.800781 17.972656 11.703125 18.015625 11.636719 C 18.085938 11.519531 18.484375 11.753906 19.085938 12.265625 C 19.273438 12.425781 19.382812 12.503906 19.355469 12.460938 C 19.179688 12.191406 18.554688 11.390625 18.125 10.890625 C 17.554688 10.222656 16.378906 8.96875 16.109375 8.742188 Z M 11.230469 8.742188 C 11.179688 8.738281 11.195312 8.796875 11.257812 9.03125 C 11.433594 9.667969 11.992188 10.8125 12.449219 11.476562 C 12.902344 12.125 13.542969 12.734375 14.097656 13.03125 C 14.34375 13.164062 14.519531 13.246094 14.519531 13.230469 C 14.519531 13.210938 14.230469 12.851562 13.691406 12.207031 C 13.167969 11.574219 12.832031 11.132812 12.769531 10.992188 C 12.71875 10.871094 12.742188 10.792969 12.828125 10.792969 C 12.921875 10.792969 13.914062 11.835938 14.691406 12.746094 C 14.851562 12.9375 14.972656 13.058594 14.972656 13.035156 C 14.972656 12.972656 14.867188 12.605469 14.808594 12.457031 C 14.597656 11.929688 14.175781 11.246094 13.78125 10.800781 C 13.425781 10.394531 12.703125 9.703125 12.285156 9.371094 C 11.960938 9.113281 11.523438 8.839844 11.300781 8.761719 C 11.269531 8.75 11.246094 8.742188 11.230469 8.742188 Z M 7.0625 9.488281 L 7.078125 9.59375 C 7.140625 9.996094 7.296875 10.515625 7.492188 10.960938 C 7.890625 11.878906 8.449219 12.582031 9.300781 13.234375 C 9.449219 13.347656 9.574219 13.4375 9.582031 13.4375 C 9.589844 13.4375 9.527344 13.335938 9.4375 13.214844 C 9.230469 12.925781 8.6875 12.09375 8.515625 11.800781 C 8.339844 11.503906 8.25 11.257812 8.285156 11.183594 C 8.3125 11.117188 8.382812 11.113281 8.449219 11.171875 C 8.476562 11.195312 8.710938 11.5 8.96875 11.851562 C 9.226562 12.199219 9.445312 12.5 9.460938 12.511719 C 9.496094 12.550781 9.230469 11.996094 9.085938 11.726562 C 8.582031 10.808594 7.757812 9.867188 7.179688 9.550781 Z M 22.765625 9.859375 C 22.753906 9.871094 22.945312 10.523438 23.054688 10.839844 C 23.277344 11.484375 23.621094 12.234375 23.890625 12.667969 C 24.316406 13.34375 25.023438 14.152344 25.574219 14.582031 C 25.710938 14.6875 25.898438 14.828125 25.992188 14.894531 L 26.15625 15.011719 L 25.953125 14.761719 C 25.839844 14.621094 25.601562 14.3125 25.421875 14.070312 C 24.660156 13.054688 24.285156 12.355469 24.5 12.355469 C 24.589844 12.355469 24.667969 12.4375 24.992188 12.871094 C 25.304688 13.285156 26.003906 14.167969 26.105469 14.265625 C 26.15625 14.320312 25.847656 13.707031 25.632812 13.328125 C 25.152344 12.492188 24.71875 11.914062 23.804688 10.898438 C 23.488281 10.546875 22.785156 9.839844 22.765625 9.859375 Z M 5.050781 13.882812 C 4.34375 13.882812 4.230469 13.890625 3.964844 13.9375 C 3.410156 14.039062 2.707031 14.324219 2.363281 14.585938 C 2.15625 14.75 1.777344 15.140625 1.804688 15.167969 C 1.835938 15.195312 3.4375 15.21875 3.726562 15.195312 C 4.246094 15.148438 4.730469 15.050781 5.183594 14.890625 C 5.539062 14.765625 6.066406 14.558594 6.175781 14.496094 L 6.269531 14.449219 L 6.160156 14.460938 C 6.101562 14.464844 5.773438 14.488281 5.429688 14.511719 C 4.898438 14.542969 4.796875 14.542969 4.738281 14.515625 C 4.65625 14.476562 4.636719 14.390625 4.691406 14.328125 C 4.792969 14.21875 5.21875 14.105469 5.921875 14.015625 C 6.140625 13.984375 6.335938 13.953125 6.363281 13.941406 C 6.449219 13.910156 5.859375 13.882812 5.050781 13.882812 Z M 15.171875 14.632812 L 15.03125 14.722656 C 14.957031 14.773438 14.617188 15.015625 14.28125 15.261719 C 13.523438 15.8125 12.691406 16.378906 12.578125 16.417969 C 12.449219 16.460938 12.382812 16.445312 12.375 16.371094 C 12.367188 16.320312 12.394531 16.28125 12.503906 16.179688 C 12.652344 16.042969 13.167969 15.625 13.914062 15.039062 C 14.164062 14.839844 14.367188 14.675781 14.363281 14.671875 C 14.347656 14.65625 13.570312 14.9375 13.265625 15.074219 C 11.953125 15.644531 10.605469 16.757812 9.898438 17.851562 C 9.78125 18.03125 9.625 18.324219 9.574219 18.457031 C 9.5625 18.488281 9.5625 18.511719 9.570312 18.511719 C 9.597656 18.507812 10.097656 18.273438 10.816406 17.925781 C 12.765625 16.980469 13.515625 16.515625 14.304688 15.753906 C 14.660156 15.410156 14.890625 15.121094 15.105469 14.75 Z M 9.476562 14.773438 C 9.460938 14.757812 9.015625 15.128906 8.691406 15.417969 C 8.34375 15.734375 7.902344 16.125 7.734375 16.269531 C 7.613281 16.375 7.53125 16.398438 7.476562 16.34375 C 7.433594 16.296875 7.441406 16.269531 7.570312 16.070312 C 7.648438 15.953125 7.847656 15.726562 8.101562 15.460938 C 8.34375 15.214844 8.476562 15.0625 8.429688 15.089844 C 8.113281 15.277344 7.9375 15.386719 7.761719 15.507812 C 7.082031 15.972656 6.363281 16.6875 5.996094 17.261719 C 5.867188 17.457031 5.675781 17.859375 5.625 18.027344 C 5.605469 18.09375 5.59375 18.152344 5.59375 18.152344 C 5.714844 18.128906 6.105469 17.9375 6.4375 17.734375 C 7.523438 17.078125 8.394531 16.296875 9.085938 15.375 C 9.292969 15.097656 9.492188 14.789062 9.476562 14.773438 Z M 19.292969 15.410156 C 19.261719 15.410156 18.785156 15.578125 18.5625 15.667969 C 17.65625 16.03125 16.46875 16.714844 15.710938 17.304688 C 15.496094 17.472656 15.058594 17.902344 14.925781 18.074219 C 14.882812 18.128906 14.851562 18.175781 14.855469 18.175781 C 14.859375 18.171875 14.933594 18.140625 15.019531 18.101562 C 15.332031 17.953125 15.667969 17.828125 16.429688 17.574219 C 17.550781 17.199219 17.949219 17.03125 18.492188 16.703125 C 18.863281 16.476562 19.0625 16.320312 19.414062 15.96875 C 19.644531 15.734375 19.710938 15.660156 19.652344 15.6875 C 19.464844 15.777344 18.871094 16.105469 18.386719 16.386719 C 17.808594 16.714844 17.722656 16.757812 17.609375 16.757812 C 17.515625 16.757812 17.492188 16.730469 17.511719 16.648438 C 17.539062 16.546875 18.382812 15.945312 19.03125 15.570312 C 19.179688 15.480469 19.296875 15.410156 19.292969 15.410156 Z M 26.539062 16.707031 C 26.355469 16.703125 25.5 16.777344 25.046875 16.84375 C 23.746094 17.03125 22.664062 17.472656 21.707031 18.203125 C 21.460938 18.390625 20.90625 18.878906 20.789062 19.015625 C 20.738281 19.070312 20.746094 19.074219 20.855469 19.039062 C 20.996094 19 21.636719 18.875 22.210938 18.777344 C 22.929688 18.65625 23.261719 18.585938 23.679688 18.464844 C 24.554688 18.214844 25.597656 17.757812 26.183594 17.367188 C 26.3125 17.28125 26.402344 17.214844 26.378906 17.222656 C 26.253906 17.261719 25.40625 17.480469 25.167969 17.535156 C 24.359375 17.714844 23.832031 17.71875 23.832031 17.542969 C 23.832031 17.472656 23.878906 17.453125 24.199219 17.394531 C 24.320312 17.375 24.621094 17.300781 24.871094 17.234375 C 25.328125 17.113281 26.554688 16.742188 26.574219 16.714844 C 26.578125 16.710938 26.566406 16.710938 26.539062 16.707031 Z M 26.539062 16.707031 " fill-opacity="1" fill-rule="nonzero"/></g></svg>