<svg xmlns="http://www.w3.org/2000/svg" xmlns:xlink="http://www.w3.org/1999/xlink" width="40" zoomAndPan="magnify" viewBox="0 0 30 30.000001" height="40" preserveAspectRatio="xMidYMid meet" version="1.0"><defs><clipPath id="bbe6948ba1"><path d="M 27 29 L 29 29 L 29 29.03125 L 27 29.03125 Z M 27 29 " clip-rule="nonzero"/></clipPath><clipPath id="0baf52d90a"><path d="M 14 3 L 24.265625 3 L 24.265625 27 L 14 27 Z M 14 3 " clip-rule="nonzero"/></clipPath><clipPath id="c0a163b953"><path d="M 5.394531 5 L 16 5 L 16 29.03125 L 5.394531 29.03125 Z M 5.394531 5 " clip-rule="nonzero"/></clipPath></defs><g clip-path="url(#bbe6948ba1)"><path fill="#000000" d="M 28.648438 29.320312 C 28.621094 29.179688 28.445312 29.203125 28.359375 29.328125 C 28.105469 29.695312 27.980469 28.976562 27.738281 29.203125 C 27.613281 29.324219 27.859375 29.914062 28.027344 30.078125 C 28.058594 30.109375 28.105469 30.113281 28.140625 30.085938 C 28.410156 29.882812 28.667969 29.433594 28.648438 29.320312 Z M 28.851562 29.355469 C 28.898438 29.652344 28.496094 30.3125 28.175781 30.371094 C 27.976562 30.40625 27.726562 29.820312 27.648438 29.605469 C 27.582031 29.421875 27.542969 29.125 27.761719 29.074219 C 27.960938 29.027344 28.09375 29.199219 28.214844 29.332031 C 28.46875 29.117188 28.777344 28.855469 28.851562 29.355469 " fill-opacity="1" fill-rule="nonzero"/></g><g clip-path="url(#0baf52d90a)"><path fill="#dcf0f4" d="M 22.148438 24.769531 C 21.855469 24.746094 21.5 24.53125 21.402344 23.972656 L 20.171875 17.34375 C 20.578125 16.964844 21.183594 16.332031 21.546875 15.644531 C 21.742188 15.320312 21.851562 14.964844 21.851562 14.609375 C 21.855469 14.550781 21.851562 14.488281 21.847656 14.425781 C 21.84375 14.386719 21.835938 14.347656 21.832031 14.3125 C 21.652344 13.210938 18.875 4.394531 18.605469 3.542969 C 18.605469 3.542969 18.605469 3.539062 18.605469 3.539062 C 18.617188 3.523438 18.625 3.515625 18.628906 3.511719 C 18.648438 3.484375 18.644531 3.449219 18.621094 3.429688 C 18.59375 3.410156 18.558594 3.414062 18.539062 3.4375 C 18.539062 3.4375 18.519531 3.460938 18.492188 3.496094 L 16.671875 3.917969 L 16.621094 3.929688 L 14.804688 4.347656 C 14.761719 4.328125 14.738281 4.316406 14.734375 4.316406 C 14.707031 4.304688 14.671875 4.316406 14.660156 4.34375 C 14.644531 4.375 14.65625 4.410156 14.6875 4.421875 C 14.691406 4.425781 14.699219 4.429688 14.71875 4.4375 C 14.835938 5.3125 16.074219 14.5 16.375 15.574219 C 16.386719 15.609375 16.398438 15.648438 16.414062 15.683594 C 16.433594 15.742188 16.457031 15.796875 16.484375 15.851562 C 16.636719 16.171875 16.886719 16.441406 17.199219 16.648438 C 17.820312 17.113281 18.644531 17.417969 19.171875 17.582031 L 20.875 24.097656 C 20.992188 24.53125 20.867188 24.839844 20.6875 25.023438 C 19.96875 25.425781 18.773438 26.179688 18.820312 26.699219 L 24.261719 25.441406 C 24.101562 25.003906 22.96875 24.835938 22.148438 24.769531 Z M 22.148438 24.769531 " fill-opacity="1" fill-rule="nonzero"/></g><g clip-path="url(#c0a163b953)"><path fill="#dcf0f4" d="M 14.996094 6.660156 C 14.984375 6.628906 14.949219 6.617188 14.921875 6.632812 C 14.917969 6.632812 14.894531 6.644531 14.851562 6.664062 L 13.035156 6.242188 L 12.984375 6.230469 L 11.164062 5.808594 C 11.148438 5.789062 11.117188 5.753906 11.117188 5.75 C 11.097656 5.726562 11.0625 5.722656 11.035156 5.742188 C 11.011719 5.761719 11.007812 5.800781 11.027344 5.824219 C 11.03125 5.828125 11.039062 5.839844 11.050781 5.855469 C 11.046875 5.875 11.039062 5.898438 11.03125 5.921875 C 10.664062 7.089844 8 15.550781 7.824219 16.625 C 7.820312 16.664062 7.8125 16.703125 7.808594 16.742188 C 7.804688 16.800781 7.800781 16.863281 7.800781 16.925781 C 7.804688 17.28125 7.914062 17.632812 8.109375 17.960938 C 8.472656 18.644531 9.078125 19.277344 9.484375 19.660156 L 8.253906 26.289062 C 8.15625 26.847656 7.800781 27.058594 7.507812 27.085938 C 6.6875 27.148438 5.554688 27.316406 5.394531 27.753906 L 10.835938 29.015625 C 10.882812 28.492188 9.6875 27.742188 8.96875 27.339844 C 8.785156 27.152344 8.664062 26.84375 8.78125 26.410156 L 10.484375 19.898438 C 11.011719 19.734375 11.835938 19.425781 12.457031 18.964844 C 12.769531 18.757812 13.019531 18.484375 13.171875 18.167969 C 13.199219 18.113281 13.222656 18.054688 13.242188 17.996094 C 13.257812 17.960938 13.269531 17.925781 13.277344 17.886719 C 13.570312 16.859375 14.71875 8.371094 14.917969 6.902344 C 14.925781 6.839844 14.933594 6.789062 14.9375 6.75 C 14.957031 6.742188 14.964844 6.738281 14.96875 6.738281 C 15 6.722656 15.011719 6.6875 14.996094 6.660156 Z M 14.996094 6.660156 " fill-opacity="1" fill-rule="nonzero"/></g><path fill="#e2b96a" d="M 12.929688 10.171875 C 11.875 10.199219 10.421875 9.3125 10.296875 9.238281 C 8.972656 13.507812 8.199219 16.144531 8.109375 16.675781 C 8.105469 16.707031 8.101562 16.738281 8.097656 16.773438 C 8.09375 16.820312 8.089844 16.871094 8.09375 16.925781 C 8.09375 17.222656 8.1875 17.53125 8.359375 17.820312 L 8.363281 17.824219 L 8.367188 17.832031 C 8.707031 18.472656 9.269531 19.070312 9.6875 19.464844 C 9.78125 19.554688 9.90625 19.621094 10.039062 19.648438 C 10.171875 19.679688 10.304688 19.675781 10.421875 19.636719 C 10.964844 19.46875 11.734375 19.175781 12.3125 18.746094 L 12.320312 18.742188 L 12.324219 18.738281 C 12.601562 18.550781 12.816406 18.3125 12.945312 18.046875 C 12.96875 18 12.988281 17.953125 13.003906 17.90625 C 13.015625 17.875 13.027344 17.84375 13.035156 17.8125 C 13.183594 17.300781 13.730469 13.6875 14.34375 9.265625 C 14.265625 9.417969 13.839844 10.144531 12.929688 10.171875 Z M 9.398438 15.703125 C 9.234375 15.703125 9.234375 15.441406 9.398438 15.441406 C 9.566406 15.441406 9.566406 15.703125 9.398438 15.703125 Z M 9.554688 15.113281 C 9.386719 15.113281 9.386719 14.851562 9.554688 14.851562 C 9.71875 14.851562 9.71875 15.113281 9.554688 15.113281 Z M 9.851562 13.832031 C 9.683594 13.832031 9.683594 13.570312 9.851562 13.570312 C 10.015625 13.570312 10.015625 13.832031 9.851562 13.832031 Z M 10.238281 17.53125 C 10.074219 17.53125 10.074219 17.269531 10.238281 17.269531 C 10.40625 17.269531 10.402344 17.53125 10.238281 17.53125 Z M 10.371094 17.054688 C 10.207031 17.054688 10.207031 16.792969 10.371094 16.792969 C 10.539062 16.792969 10.535156 17.054688 10.371094 17.054688 Z M 13.082031 12.558594 L 11.867188 18.078125 C 11.863281 18.105469 11.835938 18.121094 11.8125 18.121094 C 11.808594 18.121094 11.804688 18.121094 11.800781 18.121094 C 11.769531 18.113281 11.75 18.082031 11.753906 18.050781 L 12.96875 12.53125 C 12.976562 12.5 13.007812 12.480469 13.039062 12.488281 C 13.070312 12.496094 13.089844 12.527344 13.082031 12.558594 Z M 14.351562 9.234375 L 12.320312 9.234375 Z M 21.289062 15.519531 L 21.296875 15.503906 C 21.46875 15.214844 21.5625 14.90625 21.5625 14.613281 C 21.566406 14.558594 21.5625 14.507812 21.558594 14.460938 C 21.554688 14.421875 21.550781 14.390625 21.546875 14.359375 C 21.457031 13.832031 20.683594 11.191406 19.355469 6.921875 C 19.234375 7 17.777344 7.882812 16.726562 7.855469 C 15.816406 7.832031 15.390625 7.105469 15.308594 6.949219 C 15.925781 11.371094 16.472656 14.984375 16.621094 15.5 C 16.628906 15.527344 16.636719 15.558594 16.648438 15.59375 C 16.667969 15.640625 16.6875 15.683594 16.710938 15.730469 C 16.839844 16 17.054688 16.238281 17.332031 16.421875 L 17.339844 16.429688 C 17.921875 16.863281 18.691406 17.152344 19.234375 17.324219 C 19.351562 17.363281 19.484375 17.367188 19.617188 17.335938 C 19.75 17.304688 19.875 17.238281 19.96875 17.148438 C 20.386719 16.757812 20.949219 16.15625 21.289062 15.519531 Z M 16.816406 11.429688 C 16.652344 11.429688 16.652344 11.167969 16.816406 11.167969 C 16.984375 11.167969 16.984375 11.429688 16.816406 11.429688 Z M 17.105469 12.492188 C 17.269531 12.492188 17.269531 12.753906 17.105469 12.753906 C 16.9375 12.753906 16.9375 12.492188 17.105469 12.492188 Z M 17.21875 13.371094 C 17.054688 13.371094 17.054688 13.109375 17.21875 13.109375 C 17.386719 13.109375 17.386719 13.371094 17.21875 13.371094 Z M 18.710938 13.921875 C 18.875 13.921875 18.875 14.183594 18.710938 14.183594 C 18.542969 14.183594 18.542969 13.921875 18.710938 13.921875 Z M 18.796875 14.691406 C 18.628906 14.691406 18.628906 14.425781 18.796875 14.425781 C 18.960938 14.425781 18.960938 14.691406 18.796875 14.691406 Z M 19.1875 8.804688 C 19.179688 8.769531 19.199219 8.738281 19.230469 8.734375 C 19.261719 8.726562 19.292969 8.746094 19.300781 8.777344 L 20.59375 14.449219 C 20.601562 14.480469 20.582031 14.511719 20.550781 14.519531 C 20.546875 14.519531 20.542969 14.523438 20.539062 14.523438 C 20.511719 14.523438 20.488281 14.503906 20.484375 14.476562 Z M 17.335938 6.917969 L 15.304688 6.921875 C 15.304688 6.921875 15.304688 6.917969 15.304688 6.917969 Z M 17.335938 6.917969 " fill-opacity="1" fill-rule="nonzero"/><path fill="#edddb3" d="M 12.320312 9.234375 L 14.359375 9.234375 C 14.359375 9.234375 14.355469 9.246094 14.34375 9.265625 C 14.265625 9.417969 13.839844 10.144531 12.929688 10.171875 C 11.875 10.199219 10.421875 9.3125 10.296875 9.238281 C 10.292969 9.234375 10.289062 9.230469 10.289062 9.230469 Z M 14.921875 6.632812 C 14.917969 6.632812 14.894531 6.644531 14.851562 6.664062 C 14.597656 6.773438 13.660156 7.144531 12.847656 6.957031 C 12.035156 6.769531 11.347656 6.023438 11.164062 5.808594 C 11.136719 5.773438 11.117188 5.753906 11.117188 5.75 C 11.097656 5.726562 11.0625 5.722656 11.035156 5.742188 C 11.011719 5.761719 11.007812 5.800781 11.027344 5.824219 C 11.03125 5.828125 11.039062 5.839844 11.050781 5.855469 C 11.195312 6.027344 11.921875 6.863281 12.824219 7.070312 C 12.992188 7.109375 13.167969 7.128906 13.339844 7.128906 C 14.082031 7.128906 14.78125 6.824219 14.9375 6.75 C 14.957031 6.742188 14.964844 6.738281 14.96875 6.738281 C 15 6.722656 15.011719 6.6875 14.996094 6.660156 C 14.984375 6.628906 14.949219 6.617188 14.921875 6.632812 Z M 16.726562 7.855469 C 17.78125 7.882812 19.234375 7 19.359375 6.921875 C 19.363281 6.917969 19.367188 6.917969 19.367188 6.917969 L 17.335938 6.917969 L 15.304688 6.921875 L 15.296875 6.921875 C 15.296875 6.921875 15.300781 6.933594 15.308594 6.949219 C 15.390625 7.105469 15.816406 7.832031 16.726562 7.855469 Z M 16.832031 4.757812 C 17.734375 4.546875 18.460938 3.714844 18.605469 3.539062 C 18.617188 3.523438 18.625 3.515625 18.628906 3.511719 C 18.648438 3.484375 18.644531 3.449219 18.621094 3.429688 C 18.59375 3.410156 18.558594 3.414062 18.539062 3.4375 C 18.539062 3.4375 18.519531 3.460938 18.492188 3.496094 C 18.308594 3.710938 17.621094 4.457031 16.808594 4.644531 C 15.996094 4.832031 15.058594 4.460938 14.804688 4.347656 C 14.761719 4.328125 14.738281 4.316406 14.734375 4.316406 C 14.707031 4.304688 14.671875 4.316406 14.660156 4.34375 C 14.644531 4.375 14.65625 4.410156 14.6875 4.421875 C 14.691406 4.425781 14.699219 4.429688 14.71875 4.4375 C 14.875 4.511719 15.574219 4.8125 16.316406 4.8125 C 16.488281 4.8125 16.664062 4.796875 16.832031 4.757812 Z M 16.832031 4.757812 " fill-opacity="1" fill-rule="nonzero"/><path fill="#e2b96a" d="M 13.273438 3.625 L 12.484375 3.472656 L 13.273438 3.324219 L 13.421875 2.519531 L 13.570312 3.324219 L 14.359375 3.472656 L 13.570312 3.625 L 13.421875 4.429688 Z M 15.066406 3.007812 L 15.296875 1.75 L 16.535156 1.511719 L 15.296875 1.277344 L 15.066406 0.0195312 L 14.835938 1.277344 L 13.601562 1.511719 L 14.835938 1.75 Z M 15.066406 3.007812 " fill-opacity="1" fill-rule="nonzero"/></svg>