<svg xmlns="http://www.w3.org/2000/svg" xmlns:xlink="http://www.w3.org/1999/xlink" width="40" zoomAndPan="magnify" viewBox="0 0 30 30.000001" height="40" preserveAspectRatio="xMidYMid meet" version="1.0"><defs><clipPath id="8d138448d5"><path d="M 27 29 L 29 29 L 29 29.03125 L 27 29.03125 Z M 27 29 " clip-rule="nonzero"/></clipPath><clipPath id="dab013679c"><path d="M 20 17 L 26 17 L 26 27.207031 L 20 27.207031 Z M 20 17 " clip-rule="nonzero"/></clipPath><clipPath id="ac1b118320"><path d="M 20 16 L 27.425781 16 L 27.425781 22 L 20 22 Z M 20 16 " clip-rule="nonzero"/></clipPath><clipPath id="11370b8d05"><path d="M 19 16 L 27.425781 16 L 27.425781 22 L 19 22 Z M 19 16 " clip-rule="nonzero"/></clipPath><clipPath id="83d734af35"><path d="M 4 17 L 11 17 L 11 27.207031 L 4 27.207031 Z M 4 17 " clip-rule="nonzero"/></clipPath><clipPath id="69bcbf8c9a"><path d="M 2.746094 16 L 11 16 L 11 22 L 2.746094 22 Z M 2.746094 16 " clip-rule="nonzero"/></clipPath><clipPath id="362efec6ed"><path d="M 11 6 L 19 6 L 19 27.207031 L 11 27.207031 Z M 11 6 " clip-rule="nonzero"/></clipPath><clipPath id="57be06fda8"><path d="M 12 9 L 18 9 L 18 27.207031 L 12 27.207031 Z M 12 9 " clip-rule="nonzero"/></clipPath><clipPath id="6c46d88acd"><path d="M 18 10 L 21 10 L 21 27.207031 L 18 27.207031 Z M 18 10 " clip-rule="nonzero"/></clipPath><clipPath id="ef7edb4b0a"><path d="M 9 10 L 12 10 L 12 27.207031 L 9 27.207031 Z M 9 10 " clip-rule="nonzero"/></clipPath><clipPath id="765219c3f4"><path d="M 12 24 L 18 24 L 18 27.207031 L 12 27.207031 Z M 12 24 " clip-rule="nonzero"/></clipPath><clipPath id="5bc8656b41"><path d="M 12 24 L 18 24 L 18 27.207031 L 12 27.207031 Z M 12 24 " clip-rule="nonzero"/></clipPath><clipPath id="f039e199eb"><path d="M 14 1.800781 L 16 1.800781 L 16 5 L 14 5 Z M 14 1.800781 " clip-rule="nonzero"/></clipPath><clipPath id="dab78cecdb"><path d="M 3 26 L 5 26 L 5 27.207031 L 3 27.207031 Z M 3 26 " clip-rule="nonzero"/></clipPath><clipPath id="8837f25da2"><path d="M 25 26 L 27 26 L 27 27.207031 L 25 27.207031 Z M 25 26 " clip-rule="nonzero"/></clipPath></defs><g clip-path="url(#8d138448d5)"><path fill="#000000" d="M 28.648438 29.320312 C 28.621094 29.179688 28.445312 29.203125 28.359375 29.328125 C 28.105469 29.695312 27.980469 28.976562 27.738281 29.203125 C 27.613281 29.324219 27.859375 29.914062 28.027344 30.078125 C 28.058594 30.109375 28.105469 30.113281 28.140625 30.085938 C 28.410156 29.882812 28.667969 29.433594 28.648438 29.320312 Z M 28.851562 29.355469 C 28.898438 29.652344 28.496094 30.3125 28.175781 30.371094 C 27.976562 30.40625 27.726562 29.820312 27.648438 29.605469 C 27.582031 29.421875 27.542969 29.125 27.761719 29.074219 C 27.960938 29.027344 28.09375 29.199219 28.214844 29.332031 C 28.46875 29.117188 28.777344 28.855469 28.851562 29.355469 " fill-opacity="1" fill-rule="nonzero"/></g><path fill="#f4dfc3" d="M 20.40625 17.789062 L 25.691406 20.773438 L 25.691406 26.902344 L 20.40625 26.902344 Z M 20.40625 17.789062 " fill-opacity="1" fill-rule="nonzero"/><g clip-path="url(#dab013679c)"><path fill="#000000" d="M 25.691406 27.195312 L 20.40625 27.195312 C 20.324219 27.195312 20.257812 27.167969 20.199219 27.109375 C 20.140625 27.054688 20.113281 26.984375 20.113281 26.902344 L 20.113281 17.789062 C 20.109375 17.671875 20.160156 17.589844 20.257812 17.53125 C 20.359375 17.476562 20.457031 17.472656 20.554688 17.527344 L 25.839844 20.515625 C 25.933594 20.574219 25.984375 20.660156 25.988281 20.773438 L 25.988281 26.902344 C 25.988281 26.984375 25.957031 27.054688 25.898438 27.109375 C 25.84375 27.167969 25.773438 27.195312 25.691406 27.195312 Z M 20.703125 26.609375 L 25.394531 26.609375 L 25.394531 20.945312 L 20.703125 18.292969 Z M 20.703125 26.609375 " fill-opacity="1" fill-rule="nonzero"/></g><path fill="#78d9ef" d="M 23.8125 24.921875 L 23.8125 22.46875 C 23.769531 22.222656 23.664062 22.007812 23.5 21.820312 C 23.316406 21.628906 23.101562 21.488281 22.847656 21.398438 C 22.597656 21.488281 22.378906 21.628906 22.195312 21.820312 C 22.035156 22.007812 21.929688 22.222656 21.886719 22.46875 L 21.886719 24.921875 Z M 23.8125 24.921875 " fill-opacity="1" fill-rule="nonzero"/><path fill="#000000" d="M 23.8125 25.21875 L 21.886719 25.21875 C 21.804688 25.21875 21.734375 25.1875 21.675781 25.132812 C 21.617188 25.074219 21.589844 25.003906 21.589844 24.921875 L 21.589844 22.429688 C 21.640625 22.125 21.769531 21.855469 21.972656 21.625 C 22.285156 21.277344 22.710938 21.136719 22.761719 21.117188 C 22.820312 21.101562 22.878906 21.101562 22.9375 21.117188 C 22.988281 21.136719 23.414062 21.277344 23.722656 21.625 C 23.929688 21.855469 24.058594 22.125 24.109375 22.429688 L 24.109375 24.921875 C 24.109375 25.003906 24.082031 25.074219 24.023438 25.132812 C 23.964844 25.1875 23.894531 25.21875 23.8125 25.21875 Z M 22.183594 24.628906 L 23.515625 24.628906 L 23.515625 22.492188 C 23.476562 22.3125 23.398438 22.152344 23.277344 22.011719 C 23.15625 21.882812 23.011719 21.785156 22.847656 21.714844 C 22.6875 21.785156 22.542969 21.882812 22.417969 22.011719 C 22.300781 22.152344 22.21875 22.3125 22.183594 22.492188 Z M 22.183594 24.628906 " fill-opacity="1" fill-rule="nonzero"/><g clip-path="url(#ac1b118320)"><path fill="#a6a6a6" d="M 26.773438 21.144531 L 20.246094 17.730469 L 20.566406 16.800781 L 27.097656 20.21875 Z M 26.773438 21.144531 " fill-opacity="1" fill-rule="nonzero"/></g><g clip-path="url(#11370b8d05)"><path fill="#000000" d="M 26.773438 21.4375 C 26.722656 21.4375 26.675781 21.425781 26.632812 21.40625 L 20.105469 17.988281 C 19.957031 17.910156 19.910156 17.792969 19.964844 17.636719 L 20.289062 16.710938 C 20.316406 16.621094 20.371094 16.5625 20.457031 16.527344 C 20.542969 16.496094 20.625 16.5 20.703125 16.542969 L 27.238281 19.957031 C 27.386719 20.039062 27.433594 20.15625 27.375 20.316406 L 27.054688 21.242188 C 27.023438 21.328125 26.964844 21.386719 26.882812 21.417969 C 26.847656 21.433594 26.808594 21.441406 26.773438 21.4375 Z M 20.609375 17.585938 L 26.605469 20.722656 L 26.734375 20.359375 L 20.734375 17.222656 Z M 20.609375 17.585938 " fill-opacity="1" fill-rule="nonzero"/></g><path fill="#f4dfc3" d="M 9.765625 17.789062 L 4.480469 20.773438 L 4.480469 26.902344 L 9.765625 26.902344 Z M 9.765625 17.789062 " fill-opacity="1" fill-rule="nonzero"/><g clip-path="url(#83d734af35)"><path fill="#000000" d="M 9.765625 27.195312 L 4.480469 27.195312 C 4.398438 27.195312 4.328125 27.167969 4.273438 27.109375 C 4.214844 27.054688 4.183594 26.984375 4.183594 26.902344 L 4.183594 20.773438 C 4.183594 20.660156 4.234375 20.574219 4.332031 20.515625 L 9.617188 17.527344 C 9.714844 17.472656 9.816406 17.476562 9.914062 17.53125 C 10.011719 17.589844 10.0625 17.671875 10.0625 17.789062 L 10.0625 26.902344 C 10.0625 26.984375 10.03125 27.054688 9.972656 27.109375 C 9.914062 27.167969 9.847656 27.195312 9.765625 27.195312 Z M 4.777344 26.609375 L 9.46875 26.609375 L 9.46875 18.292969 L 4.777344 20.945312 Z M 4.777344 26.609375 " fill-opacity="1" fill-rule="nonzero"/></g><path fill="#78d9ef" d="M 6.355469 24.921875 L 6.355469 22.46875 C 6.398438 22.222656 6.503906 22.007812 6.671875 21.820312 C 6.933594 21.523438 7.324219 21.398438 7.324219 21.398438 C 7.574219 21.488281 7.789062 21.628906 7.96875 21.820312 C 8.136719 22.007812 8.242188 22.222656 8.285156 22.46875 L 8.285156 24.921875 Z M 6.355469 24.921875 " fill-opacity="1" fill-rule="nonzero"/><path fill="#000000" d="M 8.285156 25.21875 L 6.355469 25.21875 C 6.273438 25.21875 6.203125 25.1875 6.144531 25.132812 C 6.085938 25.074219 6.058594 25.003906 6.058594 24.921875 L 6.058594 22.46875 C 6.058594 22.453125 6.058594 22.441406 6.0625 22.429688 C 6.113281 22.125 6.242188 21.855469 6.449219 21.625 C 6.753906 21.277344 7.183594 21.136719 7.230469 21.117188 C 7.289062 21.101562 7.351562 21.101562 7.410156 21.117188 C 7.460938 21.136719 7.886719 21.277344 8.199219 21.625 C 8.398438 21.859375 8.527344 22.125 8.582031 22.429688 L 8.582031 24.921875 C 8.582031 25.003906 8.554688 25.074219 8.496094 25.132812 C 8.4375 25.1875 8.367188 25.21875 8.285156 25.21875 Z M 6.652344 24.628906 L 7.988281 24.628906 L 7.988281 22.492188 C 7.953125 22.3125 7.871094 22.152344 7.746094 22.011719 C 7.628906 21.882812 7.484375 21.785156 7.324219 21.714844 C 7.160156 21.785156 7.015625 21.882812 6.894531 22.011719 C 6.773438 22.152344 6.691406 22.3125 6.652344 22.492188 Z M 6.652344 24.628906 " fill-opacity="1" fill-rule="nonzero"/><path fill="#a6a6a6" d="M 3.394531 21.144531 L 9.925781 17.730469 L 9.601562 16.800781 L 3.074219 20.21875 Z M 3.394531 21.144531 " fill-opacity="1" fill-rule="nonzero"/><g clip-path="url(#69bcbf8c9a)"><path fill="#000000" d="M 3.394531 21.4375 C 3.355469 21.4375 3.320312 21.433594 3.285156 21.417969 C 3.203125 21.386719 3.148438 21.328125 3.117188 21.242188 L 2.792969 20.316406 C 2.742188 20.160156 2.789062 20.039062 2.933594 19.957031 L 9.460938 16.542969 C 9.542969 16.5 9.625 16.496094 9.710938 16.527344 C 9.796875 16.5625 9.851562 16.621094 9.882812 16.710938 L 10.203125 17.636719 C 10.265625 17.792969 10.21875 17.910156 10.066406 17.988281 L 3.53125 21.40625 C 3.488281 21.429688 3.445312 21.441406 3.394531 21.4375 Z M 3.4375 20.359375 L 3.5625 20.722656 L 9.5625 17.585938 L 9.433594 17.222656 Z M 3.4375 20.359375 " fill-opacity="1" fill-rule="nonzero"/></g><path fill="#a6a6a6" d="M 18.671875 13.34375 L 15.050781 6.875 L 11.433594 13.34375 L 10.566406 10.402344 L 15.050781 4.519531 L 19.539062 10.402344 Z M 18.671875 13.34375 " fill-opacity="1" fill-rule="nonzero"/><path fill="#000000" d="M 18.671875 13.636719 C 18.554688 13.636719 18.46875 13.585938 18.410156 13.484375 L 15.050781 7.480469 L 11.691406 13.484375 C 11.628906 13.597656 11.53125 13.648438 11.398438 13.632812 C 11.269531 13.621094 11.183594 13.550781 11.148438 13.425781 L 10.28125 10.484375 C 10.253906 10.390625 10.269531 10.304688 10.332031 10.226562 L 14.820312 4.34375 C 14.878906 4.265625 14.957031 4.226562 15.054688 4.226562 C 15.152344 4.226562 15.230469 4.265625 15.289062 4.34375 L 19.777344 10.226562 C 19.835938 10.304688 19.851562 10.390625 19.824219 10.484375 L 18.957031 13.425781 C 18.921875 13.550781 18.839844 13.621094 18.707031 13.632812 Z M 10.890625 10.460938 L 11.519531 12.582031 L 14.792969 6.730469 C 14.851562 6.628906 14.9375 6.578125 15.054688 6.578125 C 15.171875 6.578125 15.257812 6.628906 15.3125 6.730469 L 18.589844 12.582031 L 19.210938 10.460938 L 15.050781 5.007812 Z M 10.890625 10.460938 " fill-opacity="1" fill-rule="nonzero"/><path fill="#f4dfc3" d="M 18.671875 26.902344 L 11.433594 26.902344 L 11.433594 13.34375 L 15.050781 6.875 L 18.671875 13.34375 Z M 18.671875 26.902344 " fill-opacity="1" fill-rule="nonzero"/><g clip-path="url(#362efec6ed)"><path fill="#000000" d="M 18.671875 27.195312 L 11.433594 27.195312 C 11.351562 27.195312 11.28125 27.167969 11.226562 27.109375 C 11.167969 27.054688 11.136719 26.984375 11.136719 26.902344 L 11.136719 13.34375 C 11.136719 13.292969 11.148438 13.246094 11.171875 13.199219 L 14.792969 6.730469 C 14.851562 6.628906 14.9375 6.578125 15.054688 6.578125 C 15.171875 6.578125 15.257812 6.628906 15.3125 6.730469 L 18.929688 13.199219 C 18.957031 13.246094 18.96875 13.292969 18.96875 13.34375 L 18.96875 26.902344 C 18.96875 26.984375 18.941406 27.054688 18.882812 27.109375 C 18.824219 27.167969 18.753906 27.195312 18.671875 27.195312 Z M 11.730469 26.609375 L 18.378906 26.609375 L 18.378906 13.417969 L 15.050781 7.480469 L 11.730469 13.417969 Z M 11.730469 26.609375 " fill-opacity="1" fill-rule="nonzero"/></g><path fill="#a6a6a6" d="M 17.304688 26.902344 L 12.804688 26.902344 L 12.804688 13.769531 L 15.050781 9.394531 L 17.304688 13.769531 Z M 17.304688 26.902344 " fill-opacity="1" fill-rule="nonzero"/><g clip-path="url(#57be06fda8)"><path fill="#000000" d="M 17.304688 27.195312 L 12.804688 27.195312 C 12.722656 27.195312 12.652344 27.167969 12.59375 27.109375 C 12.535156 27.054688 12.507812 26.984375 12.507812 26.902344 L 12.507812 13.769531 C 12.507812 13.722656 12.515625 13.679688 12.535156 13.636719 L 14.789062 9.261719 C 14.84375 9.152344 14.933594 9.097656 15.054688 9.097656 C 15.175781 9.097656 15.261719 9.152344 15.316406 9.261719 L 17.570312 13.636719 C 17.589844 13.679688 17.601562 13.722656 17.601562 13.769531 L 17.601562 26.902344 C 17.601562 26.984375 17.574219 27.054688 17.515625 27.109375 C 17.457031 27.167969 17.386719 27.195312 17.304688 27.195312 Z M 13.097656 26.609375 L 17.007812 26.609375 L 17.007812 13.84375 L 15.050781 10.039062 L 13.097656 13.84375 Z M 13.097656 26.609375 " fill-opacity="1" fill-rule="nonzero"/></g><path fill="#f4dfc3" d="M 18.671875 26.902344 L 20.40625 26.902344 L 20.40625 13.34375 L 19.539062 10.402344 L 18.671875 13.34375 Z M 18.671875 26.902344 " fill-opacity="1" fill-rule="nonzero"/><g clip-path="url(#6c46d88acd)"><path fill="#000000" d="M 20.40625 27.195312 L 18.671875 27.195312 C 18.589844 27.195312 18.523438 27.167969 18.464844 27.109375 C 18.40625 27.054688 18.378906 26.984375 18.378906 26.902344 L 18.378906 13.34375 C 18.378906 13.316406 18.382812 13.285156 18.386719 13.257812 L 19.257812 10.320312 C 19.296875 10.179688 19.390625 10.109375 19.539062 10.109375 C 19.6875 10.105469 19.78125 10.175781 19.824219 10.320312 L 20.691406 13.257812 C 20.699219 13.285156 20.703125 13.3125 20.703125 13.34375 L 20.703125 26.902344 C 20.703125 26.984375 20.675781 27.054688 20.617188 27.109375 C 20.558594 27.167969 20.488281 27.195312 20.40625 27.195312 Z M 18.96875 26.609375 L 20.113281 26.609375 L 20.113281 13.382812 L 19.539062 11.449219 L 18.96875 13.382812 Z M 18.96875 26.609375 " fill-opacity="1" fill-rule="nonzero"/></g><path fill="#f4dfc3" d="M 9.699219 26.902344 L 11.433594 26.902344 L 11.433594 13.34375 L 10.566406 10.402344 L 9.699219 13.34375 Z M 9.699219 26.902344 " fill-opacity="1" fill-rule="nonzero"/><g clip-path="url(#ef7edb4b0a)"><path fill="#000000" d="M 11.433594 27.195312 L 9.699219 27.195312 C 9.617188 27.195312 9.546875 27.167969 9.492188 27.109375 C 9.433594 27.054688 9.402344 26.984375 9.402344 26.902344 L 9.402344 13.34375 C 9.402344 13.316406 9.40625 13.285156 9.414062 13.257812 L 10.28125 10.320312 C 10.324219 10.179688 10.417969 10.109375 10.566406 10.109375 C 10.714844 10.109375 10.808594 10.179688 10.851562 10.320312 L 11.714844 13.257812 C 11.726562 13.285156 11.730469 13.3125 11.730469 13.34375 L 11.730469 26.902344 C 11.730469 26.984375 11.703125 27.054688 11.644531 27.109375 C 11.585938 27.167969 11.515625 27.195312 11.433594 27.195312 Z M 9.996094 26.609375 L 11.136719 26.609375 L 11.136719 13.382812 L 10.566406 11.449219 L 9.996094 13.382812 Z M 9.996094 26.609375 " fill-opacity="1" fill-rule="nonzero"/></g><path fill="#545454" d="M 16.621094 18.980469 C 16.316406 19.15625 16.042969 19.375 15.800781 19.636719 C 15.421875 20.066406 15.179688 20.566406 15.074219 21.128906 C 14.972656 20.566406 14.730469 20.066406 14.351562 19.636719 C 14.109375 19.375 13.832031 19.15625 13.523438 18.980469 L 13.570312 18.925781 C 14.183594 18.164062 15.074219 17.851562 15.074219 17.851562 C 15.074219 17.851562 15.96875 18.164062 16.578125 18.925781 Z M 16.621094 18.980469 " fill-opacity="1" fill-rule="nonzero"/><path fill="#000000" d="M 15.074219 21.425781 L 15.070312 21.425781 C 14.898438 21.425781 14.800781 21.339844 14.78125 21.167969 C 14.703125 20.757812 14.542969 20.382812 14.296875 20.042969 C 14.050781 19.703125 13.746094 19.433594 13.375 19.234375 C 13.300781 19.1875 13.253906 19.125 13.238281 19.039062 C 13.21875 18.953125 13.234375 18.875 13.289062 18.800781 C 13.304688 18.78125 13.320312 18.761719 13.335938 18.738281 C 13.992188 17.925781 14.9375 17.585938 14.976562 17.578125 C 15.042969 17.550781 15.109375 17.550781 15.175781 17.578125 C 15.214844 17.585938 16.152344 17.925781 16.8125 18.738281 L 16.859375 18.808594 C 16.910156 18.875 16.929688 18.953125 16.914062 19.039062 C 16.894531 19.125 16.847656 19.1875 16.769531 19.234375 C 16.488281 19.390625 16.238281 19.589844 16.023438 19.832031 C 15.683594 20.21875 15.464844 20.664062 15.367188 21.167969 C 15.347656 21.339844 15.25 21.425781 15.074219 21.425781 Z M 13.972656 18.914062 C 14.195312 19.070312 14.394531 19.246094 14.570312 19.445312 C 14.773438 19.671875 14.941406 19.921875 15.074219 20.195312 C 15.207031 19.921875 15.375 19.671875 15.574219 19.445312 C 15.753906 19.246094 15.957031 19.066406 16.179688 18.914062 C 15.859375 18.597656 15.492188 18.347656 15.074219 18.171875 C 14.660156 18.347656 14.292969 18.59375 13.972656 18.914062 Z M 13.972656 18.914062 " fill-opacity="1" fill-rule="nonzero"/><path fill="#78d9ef" d="M 12.84375 24.539062 L 17.304688 24.539062 L 17.304688 26.8125 L 12.84375 26.8125 Z M 12.84375 24.539062 " fill-opacity="1" fill-rule="nonzero"/><g clip-path="url(#765219c3f4)"><path fill="#000000" d="M 17.304688 27.109375 L 12.84375 27.109375 C 12.761719 27.109375 12.691406 27.082031 12.632812 27.023438 C 12.574219 26.964844 12.546875 26.894531 12.546875 26.816406 L 12.546875 24.539062 C 12.546875 24.460938 12.574219 24.390625 12.632812 24.332031 C 12.691406 24.277344 12.761719 24.246094 12.84375 24.246094 L 17.304688 24.246094 C 17.386719 24.246094 17.457031 24.277344 17.515625 24.332031 C 17.574219 24.390625 17.601562 24.460938 17.601562 24.539062 L 17.601562 26.816406 C 17.601562 26.894531 17.574219 26.964844 17.515625 27.023438 C 17.457031 27.082031 17.386719 27.109375 17.304688 27.109375 Z M 13.140625 26.519531 L 17.007812 26.519531 L 17.007812 24.835938 L 13.140625 24.835938 Z M 13.140625 26.519531 " fill-opacity="1" fill-rule="nonzero"/></g><path fill="#545454" d="M 17.304688 20.566406 L 17.304688 24.539062 L 15.074219 24.539062 L 15.074219 21.128906 C 15.179688 20.566406 15.421875 20.066406 15.800781 19.636719 C 16.042969 19.375 16.316406 19.15625 16.621094 18.980469 C 16.980469 19.453125 17.207031 19.980469 17.304688 20.566406 Z M 17.304688 20.566406 " fill-opacity="1" fill-rule="nonzero"/><path fill="#000000" d="M 17.304688 24.835938 L 15.074219 24.835938 C 14.996094 24.835938 14.925781 24.804688 14.867188 24.75 C 14.808594 24.691406 14.78125 24.621094 14.78125 24.539062 L 14.78125 21.089844 C 14.890625 20.46875 15.15625 19.921875 15.574219 19.445312 C 15.835938 19.15625 16.136719 18.914062 16.472656 18.722656 C 16.625 18.640625 16.753906 18.667969 16.859375 18.800781 C 17.25 19.316406 17.496094 19.894531 17.601562 20.53125 L 17.601562 24.539062 C 17.601562 24.621094 17.574219 24.691406 17.515625 24.75 C 17.457031 24.804688 17.386719 24.835938 17.304688 24.835938 Z M 15.371094 24.246094 L 17.007812 24.246094 L 17.007812 20.585938 C 16.933594 20.152344 16.777344 19.75 16.542969 19.378906 C 15.902344 19.808594 15.511719 20.402344 15.371094 21.15625 Z M 15.371094 24.246094 " fill-opacity="1" fill-rule="nonzero"/><path fill="#545454" d="M 15.074219 21.128906 L 15.074219 24.539062 L 12.84375 24.539062 L 12.84375 20.566406 C 12.9375 19.980469 13.164062 19.453125 13.523438 18.980469 C 13.832031 19.15625 14.109375 19.375 14.351562 19.636719 C 14.730469 20.066406 14.972656 20.566406 15.074219 21.128906 Z M 15.074219 21.128906 " fill-opacity="1" fill-rule="nonzero"/><path fill="#000000" d="M 15.074219 24.835938 L 12.84375 24.835938 C 12.761719 24.835938 12.691406 24.804688 12.632812 24.75 C 12.574219 24.691406 12.546875 24.621094 12.546875 24.539062 L 12.546875 20.566406 C 12.546875 20.554688 12.546875 20.542969 12.550781 20.53125 C 12.550781 20.492188 12.664062 19.617188 13.292969 18.800781 C 13.398438 18.664062 13.527344 18.636719 13.679688 18.722656 C 14.015625 18.914062 14.3125 19.15625 14.570312 19.445312 C 14.992188 19.921875 15.257812 20.46875 15.367188 21.089844 C 15.367188 21.105469 15.371094 21.121094 15.371094 21.128906 L 15.371094 24.539062 C 15.371094 24.621094 15.34375 24.691406 15.285156 24.75 C 15.226562 24.804688 15.15625 24.835938 15.074219 24.835938 Z M 13.140625 24.246094 L 14.78125 24.246094 L 14.78125 21.15625 C 14.679688 20.65625 14.464844 20.214844 14.128906 19.832031 C 13.972656 19.660156 13.800781 19.511719 13.609375 19.378906 C 13.375 19.753906 13.214844 20.152344 13.140625 20.585938 Z M 13.140625 24.246094 " fill-opacity="1" fill-rule="nonzero"/><g clip-path="url(#5bc8656b41)"><path fill="#000000" d="M 17.304688 27.195312 L 12.84375 27.195312 C 12.761719 27.195312 12.691406 27.167969 12.632812 27.109375 C 12.574219 27.054688 12.546875 26.984375 12.546875 26.902344 L 12.546875 24.539062 C 12.546875 24.460938 12.574219 24.390625 12.632812 24.332031 C 12.691406 24.277344 12.761719 24.246094 12.84375 24.246094 L 17.304688 24.246094 C 17.386719 24.246094 17.457031 24.277344 17.515625 24.332031 C 17.574219 24.390625 17.601562 24.460938 17.601562 24.539062 L 17.601562 26.902344 C 17.601562 26.984375 17.574219 27.054688 17.515625 27.109375 C 17.457031 27.167969 17.386719 27.195312 17.304688 27.195312 Z M 13.140625 26.609375 L 17.007812 26.609375 L 17.007812 24.835938 L 13.140625 24.835938 Z M 13.140625 26.609375 " fill-opacity="1" fill-rule="nonzero"/></g><g clip-path="url(#f039e199eb)"><path fill="#000000" d="M 14.753906 1.8125 L 15.347656 1.8125 L 15.347656 4.519531 L 14.753906 4.519531 Z M 14.753906 1.8125 " fill-opacity="1" fill-rule="nonzero"/></g><path fill="#000000" d="M 13.816406 3.15625 L 13.820312 2.570312 L 16.296875 2.589844 L 16.292969 3.179688 Z M 13.816406 3.15625 " fill-opacity="1" fill-rule="nonzero"/><path fill="#000000" d="M 18.734375 22.621094 L 20.40625 22.621094 L 20.40625 23.207031 L 18.734375 23.207031 Z M 18.734375 22.621094 " fill-opacity="1" fill-rule="nonzero"/><path fill="#000000" d="M 18.734375 15.867188 L 20.40625 15.867188 L 20.40625 16.453125 L 18.734375 16.453125 Z M 18.734375 15.867188 " fill-opacity="1" fill-rule="nonzero"/><path fill="#000000" d="M 9.730469 22.621094 L 11.40625 22.621094 L 11.40625 23.207031 L 9.730469 23.207031 Z M 9.730469 22.621094 " fill-opacity="1" fill-rule="nonzero"/><path fill="#000000" d="M 9.730469 15.867188 L 11.40625 15.867188 L 11.40625 16.453125 L 9.730469 16.453125 Z M 9.730469 15.867188 " fill-opacity="1" fill-rule="nonzero"/><path fill="#78d9ef" d="M 16.148438 14.046875 C 16.148438 14.191406 16.121094 14.332031 16.066406 14.464844 C 16.007812 14.597656 15.929688 14.714844 15.828125 14.816406 C 15.722656 14.917969 15.605469 15 15.472656 15.054688 C 15.335938 15.109375 15.195312 15.136719 15.050781 15.136719 C 14.90625 15.136719 14.765625 15.109375 14.632812 15.054688 C 14.496094 15 14.378906 14.917969 14.277344 14.816406 C 14.171875 14.714844 14.09375 14.597656 14.039062 14.464844 C 13.980469 14.332031 13.953125 14.191406 13.953125 14.046875 C 13.953125 13.902344 13.980469 13.765625 14.039062 13.632812 C 14.09375 13.5 14.171875 13.382812 14.277344 13.277344 C 14.378906 13.175781 14.496094 13.097656 14.632812 13.042969 C 14.765625 12.988281 14.90625 12.960938 15.050781 12.960938 C 15.195312 12.960938 15.335938 12.988281 15.472656 13.042969 C 15.605469 13.097656 15.722656 13.175781 15.828125 13.277344 C 15.929688 13.382812 16.007812 13.5 16.066406 13.632812 C 16.121094 13.765625 16.148438 13.902344 16.148438 14.046875 Z M 16.148438 14.046875 " fill-opacity="1" fill-rule="nonzero"/><path fill="#000000" d="M 15.050781 15.429688 C 14.867188 15.429688 14.6875 15.394531 14.519531 15.324219 C 14.347656 15.253906 14.195312 15.15625 14.066406 15.027344 C 13.933594 14.894531 13.835938 14.746094 13.765625 14.578125 C 13.691406 14.40625 13.65625 14.230469 13.65625 14.046875 C 13.65625 13.863281 13.691406 13.6875 13.765625 13.519531 C 13.835938 13.351562 13.933594 13.199219 14.066406 13.070312 C 14.195312 12.941406 14.347656 12.839844 14.519531 12.773438 C 14.6875 12.703125 14.867188 12.667969 15.050781 12.667969 C 15.234375 12.667969 15.414062 12.703125 15.585938 12.773438 C 15.753906 12.839844 15.90625 12.941406 16.035156 13.070312 C 16.167969 13.199219 16.269531 13.351562 16.339844 13.519531 C 16.410156 13.6875 16.445312 13.863281 16.445312 14.046875 C 16.445312 14.230469 16.410156 14.40625 16.339844 14.578125 C 16.269531 14.746094 16.167969 14.894531 16.035156 15.027344 C 15.90625 15.15625 15.753906 15.253906 15.585938 15.324219 C 15.414062 15.394531 15.234375 15.429688 15.050781 15.429688 Z M 15.050781 13.253906 C 14.832031 13.253906 14.640625 13.332031 14.484375 13.488281 C 14.328125 13.640625 14.25 13.828125 14.25 14.046875 C 14.25 14.269531 14.328125 14.453125 14.484375 14.609375 C 14.640625 14.765625 14.832031 14.84375 15.050781 14.84375 C 15.273438 14.84375 15.460938 14.765625 15.617188 14.609375 C 15.773438 14.453125 15.851562 14.269531 15.851562 14.046875 C 15.851562 13.828125 15.773438 13.644531 15.617188 13.488281 C 15.460938 13.332031 15.273438 13.257812 15.050781 13.253906 Z M 15.050781 13.253906 " fill-opacity="1" fill-rule="nonzero"/><g clip-path="url(#dab78cecdb)"><path fill="#000000" d="M 3.214844 26.609375 L 4.480469 26.609375 L 4.480469 27.195312 L 3.214844 27.195312 Z M 3.214844 26.609375 " fill-opacity="1" fill-rule="nonzero"/></g><g clip-path="url(#8837f25da2)"><path fill="#000000" d="M 25.691406 26.609375 L 26.957031 26.609375 L 26.957031 27.195312 L 25.691406 27.195312 Z M 25.691406 26.609375 " fill-opacity="1" fill-rule="nonzero"/></g></svg>