<svg xmlns="http://www.w3.org/2000/svg" xmlns:xlink="http://www.w3.org/1999/xlink" width="40" zoomAndPan="magnify" viewBox="0 0 30 30.000001" height="40" preserveAspectRatio="xMidYMid meet" version="1.0"><defs><clipPath id="bd833cad67"><path d="M 0.484375 0 L 28.789062 0 L 28.789062 29.03125 L 0.484375 29.03125 Z M 0.484375 0 " clip-rule="nonzero"/></clipPath></defs><g clip-path="url(#bd833cad67)"><path fill="#f3cd44" d="M 20.328125 28.296875 C 20.398438 28.3125 20.445312 28.179688 20.292969 28.167969 C 19.960938 28.148438 19.625 28.140625 19.308594 28.261719 C 19.160156 28.132812 19.199219 27.960938 19.230469 27.804688 C 19.324219 27.269531 19.164062 27.015625 19.164062 26.703125 C 19.164062 25.75 19.0625 24.800781 19.0625 23.84375 C 19.046875 17.769531 19.085938 18.015625 19.015625 18.011719 C 18.921875 18.003906 18.949219 18.09375 18.949219 18.144531 C 18.929688 18.644531 18.914062 19.136719 18.933594 19.636719 C 18.996094 21.355469 18.84375 23.777344 19.066406 26.851562 C 19.09375 27.230469 19.207031 27.605469 19.101562 27.984375 C 19.089844 28.046875 19.097656 28.105469 19.121094 28.160156 C 19.152344 28.246094 19.199219 28.320312 19.3125 28.269531 C 19.648438 28.378906 19.992188 28.21875 20.328125 28.296875 Z M 22.554688 18.144531 C 22.1875 18.128906 21.898438 18.289062 21.773438 18.609375 C 21.503906 19.304688 21.480469 20.195312 22.203125 20.402344 C 22.410156 20.460938 22.621094 20.488281 22.765625 20.515625 C 23.265625 20.53125 23.6875 20.214844 23.78125 19.800781 C 23.832031 19.605469 23.835938 19.410156 23.796875 19.214844 C 23.757812 19.019531 23.679688 18.839844 23.5625 18.679688 C 23.441406 18.519531 23.292969 18.390625 23.117188 18.296875 C 22.941406 18.207031 22.753906 18.15625 22.554688 18.144531 Z M 23.664062 19.75 C 23.625 19.957031 23.523438 20.117188 23.355469 20.242188 C 23.191406 20.363281 23.003906 20.414062 22.796875 20.390625 C 22.714844 20.378906 22.628906 20.363281 22.546875 20.351562 C 21.945312 20.292969 21.71875 20.035156 21.726562 19.410156 C 21.71875 19.167969 21.800781 18.921875 21.871094 18.671875 C 21.914062 18.492188 22.023438 18.382812 22.203125 18.339844 C 23.21875 18.121094 23.804688 18.835938 23.664062 19.753906 Z M 22.769531 18.78125 C 22.746094 18.75 22.71875 18.71875 22.6875 18.691406 C 22.589844 18.71875 22.625 18.773438 22.652344 18.8125 C 22.804688 19.050781 22.960938 19.285156 23.121094 19.519531 C 23.144531 19.554688 23.175781 19.613281 23.214844 19.585938 C 23.273438 19.550781 23.226562 19.492188 23.199219 19.453125 C 23.058594 19.230469 22.914062 19.003906 22.769531 18.78125 Z M 25.066406 28.84375 C 25.085938 29.03125 25.136719 29.195312 25.324219 29.195312 C 25.613281 29.195312 25.898438 29.285156 26.207031 29.25 C 26.542969 29.25 26.804688 29.296875 26.84375 29.0625 C 26.914062 28.628906 27.03125 28.191406 26.640625 28.167969 C 26.324219 28.148438 26.007812 28.113281 25.695312 28.117188 C 25.066406 28.125 25 28.214844 25.066406 28.84375 Z M 26.605469 28.308594 C 26.859375 28.34375 26.78125 28.496094 26.765625 28.625 C 26.703125 29.226562 26.753906 29.183594 25.382812 29.085938 C 25.289062 29.078125 25.210938 29.046875 25.195312 28.945312 C 25.164062 28.769531 25.160156 28.589844 25.1875 28.410156 C 25.203125 28.3125 25.257812 28.269531 25.355469 28.277344 C 25.773438 28.273438 26.191406 28.246094 26.605469 28.308594 Z M 24.207031 18.980469 C 24.03125 18.285156 23.59375 17.894531 22.9375 17.707031 C 22.820312 17.660156 22.703125 17.644531 22.582031 17.65625 C 21.644531 17.847656 21.144531 18.398438 21.097656 19.410156 C 21.128906 19.679688 21.140625 20.007812 21.316406 20.296875 C 21.632812 20.820312 22.144531 20.96875 22.703125 20.980469 C 23.164062 20.988281 23.601562 20.894531 23.910156 20.484375 C 24.265625 20.035156 24.367188 19.535156 24.207031 18.980469 Z M 22.757812 20.871094 C 22.472656 20.875 22.199219 20.824219 21.929688 20.71875 C 21.414062 20.507812 21.273438 20.050781 21.222656 19.554688 C 21.179688 19.101562 21.292969 18.6875 21.5625 18.316406 C 21.84375 17.914062 22.597656 17.65625 23.179688 17.914062 C 23.871094 18.214844 24.128906 18.761719 24.136719 19.472656 C 24.148438 20.3125 23.59375 20.867188 22.761719 20.867188 Z M 22.40625 18.902344 C 22.386719 18.871094 22.359375 18.84375 22.324219 18.867188 C 22.289062 18.890625 22.304688 18.929688 22.324219 18.960938 C 22.496094 19.226562 22.667969 19.492188 22.839844 19.757812 C 22.851562 19.777344 22.878906 19.785156 22.902344 19.796875 L 22.925781 19.753906 C 22.921875 19.730469 22.914062 19.707031 22.902344 19.683594 C 22.738281 19.417969 22.574219 19.160156 22.40625 18.898438 Z M 26.042969 26.890625 C 26.042969 26.949219 26.03125 27.046875 26.09375 27.042969 C 26.1875 27.042969 26.152344 26.9375 26.148438 26.878906 C 26.125 26.425781 26.082031 25.972656 26.09375 25.515625 C 26.105469 25.027344 26.078125 24.539062 26.011719 24.050781 C 25.917969 23.273438 25.882812 22.492188 25.839844 21.714844 C 25.789062 20.824219 26.027344 19.953125 25.953125 19.070312 C 25.929688 18.789062 25.953125 18.503906 25.941406 18.222656 C 25.941406 18.148438 25.96875 18.015625 25.894531 18.019531 C 25.789062 18.027344 25.835938 18.15625 25.835938 18.230469 C 25.820312 19.597656 25.910156 19.523438 25.855469 19.855469 C 25.484375 21.992188 26.058594 24.203125 25.988281 25.507812 C 25.960938 25.96875 26.023438 26.425781 26.042969 26.890625 Z M 24.136719 27.558594 C 24.199219 27.148438 24.042969 27.214844 23.035156 27.285156 C 22.996094 27.285156 22.933594 27.285156 22.941406 27.34375 C 22.941406 27.414062 22.964844 27.382812 23.8125 27.386719 C 23.886719 27.386719 23.972656 27.382812 24.011719 27.472656 C 24.085938 27.640625 23.9375 27.890625 23.753906 27.894531 C 23.453125 27.894531 23.425781 27.824219 22.90625 27.855469 C 22.851562 27.855469 22.769531 27.863281 22.777344 27.945312 C 22.785156 28.027344 22.824219 28.003906 23.417969 28.003906 L 23.417969 28.011719 C 24.070312 28.015625 24.058594 28.054688 24.136719 27.558594 Z M 28.695312 28.886719 C 28.769531 28.355469 28.675781 28.21875 28.152344 28.160156 C 28.011719 28.144531 27.929688 28.09375 27.921875 27.941406 C 27.914062 27.8125 27.902344 27.683594 27.894531 27.554688 C 27.886719 27.351562 27.785156 27.25 27.578125 27.222656 C 26.136719 27.046875 26.539062 27.84375 26.445312 25.597656 C 26.292969 21.980469 26.3125 25.429688 26.304688 18.273438 C 26.304688 17.972656 26.511719 17.714844 26.796875 17.78125 C 27.085938 17.84375 27.078125 17.671875 27.132812 17.5 C 27.167969 17.382812 27.203125 17.265625 27.234375 17.148438 C 27.253906 17.082031 27.265625 17.007812 27.195312 16.96875 C 26.414062 16.527344 26.476562 16.589844 26.070312 16.328125 C 26.152344 15.625 25.980469 15.605469 26.414062 15.605469 C 26.460938 15.605469 26.53125 15.621094 26.550781 15.570312 C 26.589844 15.480469 26.589844 15.554688 25.394531 14.761719 C 25.308594 14.683594 25.226562 14.683594 25.144531 14.769531 C 24.882812 14.988281 24.5625 15.128906 24.308594 15.367188 C 24.210938 15.46875 24.101562 15.476562 23.984375 15.394531 C 23.644531 15.226562 23.339844 15.003906 23.007812 14.824219 C 22.25 14.40625 21.476562 14.019531 20.746094 13.550781 C 20.640625 13.480469 20.542969 13.371094 20.398438 13.386719 C 20.507812 13.65625 22.789062 14.785156 24.164062 15.617188 C 24.632812 15.902344 24.644531 15.886719 24.59375 16.441406 C 24.582031 16.589844 24.539062 16.601562 24.421875 16.53125 C 23.234375 15.773438 22.011719 15.082031 20.757812 14.453125 C 20.683594 14.417969 20.566406 14.324219 20.515625 14.417969 C 20.484375 14.480469 20.632812 14.515625 20.703125 14.550781 C 21.980469 15.1875 23.203125 15.910156 24.417969 16.652344 C 24.574219 16.746094 24.617188 16.851562 24.554688 17.011719 C 24.464844 17.277344 24.328125 17.511719 24.148438 17.722656 C 24.042969 17.835938 24.054688 17.925781 24.203125 17.929688 C 24.425781 17.933594 24.445312 18.0625 24.449219 18.234375 C 24.457031 18.65625 24.585938 24.386719 24.613281 25.097656 C 24.625 25.429688 24.605469 25.773438 24.695312 26.097656 C 24.78125 26.40625 24.734375 26.714844 24.742188 27.023438 C 24.753906 27.304688 24.445312 27.03125 24.382812 27.710938 C 24.355469 28.003906 24.398438 28.0625 24.695312 28.066406 C 25.011719 28.074219 25.328125 28.066406 25.644531 28.066406 C 25.917969 28.066406 25.929688 28.042969 25.941406 27.769531 C 25.960938 27.339844 25.828125 26.929688 25.8125 26.503906 C 25.785156 25.921875 25.652344 25.34375 25.6875 24.75 C 25.695312 24.589844 25.691406 24.429688 25.671875 24.269531 C 25.578125 23.34375 25.570312 22.414062 25.539062 21.484375 C 25.507812 20.722656 25.617188 19.957031 25.539062 19.191406 C 25.492188 18.765625 25.660156 18.617188 25.546875 18.085938 C 25.542969 18.054688 25.554688 18.003906 25.515625 17.996094 C 25.476562 17.992188 25.472656 18.039062 25.472656 18.070312 C 25.488281 18.628906 25.355469 19.1875 25.449219 19.746094 C 25.484375 19.976562 25.488281 20.207031 25.457031 20.441406 C 25.328125 21.496094 25.542969 23.238281 25.578125 25.207031 C 25.578125 25.398438 25.589844 25.585938 25.617188 25.773438 C 25.683594 26.21875 25.710938 26.664062 25.734375 27.113281 C 25.742188 27.292969 25.652344 27.289062 25.527344 27.253906 C 25.402344 27.21875 25.386719 27.105469 25.378906 26.988281 C 25.222656 25.164062 25.117188 24.65625 25.210938 24.007812 C 25.253906 23.683594 25.269531 23.359375 25.25 23.03125 C 25.109375 19.902344 25.199219 20.808594 25.15625 20.363281 C 25.085938 19.609375 25.144531 18.855469 25.125 18.105469 C 25.121094 17.949219 25.191406 17.886719 25.34375 17.890625 C 26.175781 17.90625 26.1875 17.78125 26.1875 18.28125 C 26.195312 19.003906 26.164062 19.726562 26.15625 20.453125 C 26.144531 21.257812 26.191406 22.066406 26.191406 22.871094 C 26.191406 22.96875 26.199219 23.132812 26.210938 23.230469 C 26.316406 24.078125 26.269531 24.9375 26.332031 25.789062 C 26.363281 26.199219 26.273438 26.609375 26.339844 27.023438 C 26.355469 27.132812 26.332031 27.238281 26.191406 27.242188 C 26.070312 27.242188 26.128906 27.277344 26.082031 27.746094 C 26.0625 27.941406 26.15625 28.023438 26.339844 28.0625 C 26.695312 28.140625 27.054688 28.117188 27.414062 28.128906 C 27.449219 28.128906 27.492188 28.105469 27.519531 28.152344 C 27.484375 28.15625 27.453125 28.164062 27.417969 28.167969 C 27.308594 28.179688 27.144531 28.128906 27.128906 28.296875 C 27.117188 28.53125 27.117188 28.761719 27.128906 28.996094 C 27.128906 29.027344 27.140625 29.070312 27.183594 29.066406 C 27.261719 29.0625 27.214844 28.96875 27.238281 28.941406 C 27.289062 28.863281 27.300781 28.78125 27.269531 28.695312 C 27.183594 28.410156 27.238281 28.25 27.4375 28.289062 C 28.175781 28.421875 28.609375 28.132812 28.605469 28.65625 C 28.605469 28.742188 28.574219 28.828125 28.574219 28.914062 C 28.574219 29.117188 28.4375 29.171875 28.269531 29.183594 C 28.101562 29.195312 27.96875 29.136719 27.816406 29.117188 C 27.714844 29.105469 27.558594 29.035156 27.527344 29.152344 C 27.507812 29.222656 27.695312 29.214844 27.789062 29.25 C 27.839844 29.265625 27.882812 29.238281 27.882812 29.289062 C 27.859375 29.296875 27.835938 29.304688 27.8125 29.308594 C 27.574219 29.375 27.335938 29.265625 27.097656 29.316406 C 26.808594 29.378906 26.945312 29.316406 25.410156 29.378906 C 24.964844 29.398438 24.53125 29.53125 24.082031 29.457031 C 22.53125 29.191406 22.261719 29.414062 21.789062 29.332031 C 21.355469 29.257812 20.433594 29.46875 19.898438 29.363281 C 19.84375 29.351562 19.746094 29.378906 19.746094 29.308594 C 19.746094 29.203125 19.828125 29.125 19.886719 29.042969 C 19.949219 28.960938 19.988281 29.027344 20.03125 29.066406 C 20.125 29.15625 20.1875 29.109375 20.21875 29.011719 C 20.25 28.914062 20.28125 28.824219 20.359375 28.988281 C 20.386719 29.050781 20.410156 29.132812 20.496094 29.117188 C 20.582031 29.105469 20.589844 29.007812 20.605469 28.933594 C 20.617188 28.878906 20.582031 28.773438 20.628906 28.769531 C 20.707031 28.761719 20.691406 28.871094 20.722656 28.921875 C 20.742188 28.953125 20.785156 29.140625 20.894531 29.121094 C 21.007812 29.101562 20.945312 29.035156 20.953125 28.746094 C 20.953125 28.722656 20.957031 28.683594 20.972656 28.675781 C 21.066406 28.625 21.136719 28.992188 21.269531 28.992188 C 21.398438 28.988281 21.4375 29.027344 21.464844 29.132812 C 21.472656 29.160156 21.511719 29.203125 21.53125 29.199219 C 21.589844 29.199219 21.578125 29.144531 21.582031 29.105469 C 21.585938 28.679688 21.410156 28.300781 21.253906 27.921875 C 21.238281 27.875 21.207031 27.816406 21.144531 27.835938 C 21.085938 27.855469 21.101562 27.921875 21.097656 27.96875 C 21.097656 28.167969 21.121094 28.367188 21.171875 28.558594 C 21.175781 28.589844 21.199219 28.621094 21.171875 28.652344 C 21.148438 28.628906 21.125 28.605469 21.105469 28.578125 C 20.988281 28.390625 20.992188 28.148438 20.875 27.984375 C 20.714844 27.761719 20.796875 27.539062 20.769531 27.316406 C 20.761719 27.238281 20.804688 27.253906 20.84375 27.292969 C 20.882812 27.335938 20.882812 27.375 20.9375 27.359375 C 21.046875 27.332031 21.046875 27.332031 21.074219 27.359375 C 21.566406 27.890625 21.53125 28.503906 21.679688 28.492188 C 21.894531 28.484375 21.640625 27.558594 21.554688 27.320312 C 21.53125 27.257812 21.453125 27.199219 21.511719 27.117188 C 21.554688 27.167969 21.59375 27.222656 21.628906 27.28125 C 22.019531 28.007812 21.800781 28.859375 21.960938 29.003906 C 22.007812 29.042969 22.054688 29.128906 22.125 29.101562 C 22.195312 29.074219 22.160156 28.980469 22.152344 28.914062 C 22.101562 28.289062 22.1875 27.691406 22.519531 27.152344 C 22.566406 27.074219 22.601562 26.910156 22.714844 26.96875 C 22.917969 27.070312 22.339844 27.703125 22.371094 28.992188 C 22.371094 29.15625 22.398438 29.210938 22.578125 29.214844 C 23.125 29.226562 23.667969 29.132812 24.214844 29.144531 C 24.871094 29.15625 24.800781 29.261719 24.800781 28.503906 C 24.800781 28.308594 24.714844 28.210938 24.519531 28.167969 C 24.046875 28.074219 23.570312 28.144531 23.09375 28.167969 C 22.792969 28.183594 22.910156 28.582031 22.941406 28.878906 C 22.953125 28.984375 23.007812 29.117188 22.816406 29.121094 C 22.628906 29.125 22.492188 29.027344 22.503906 28.867188 C 22.546875 28.335938 22.597656 27.808594 22.8125 27.304688 C 22.9375 27.003906 23.050781 26.699219 23.1875 26.402344 C 23.210938 26.351562 23.261719 26.285156 23.191406 26.242188 C 23.140625 26.214844 23.097656 26.277344 23.066406 26.3125 C 22.804688 26.5625 22.582031 26.84375 22.394531 27.15625 C 22.378906 27.183594 22.359375 27.230469 22.324219 27.214844 C 22.285156 27.199219 22.304688 27.152344 22.308594 27.121094 C 22.359375 26.902344 22.40625 26.683594 22.464844 26.46875 C 22.574219 26.050781 22.574219 26.054688 23.015625 26.054688 C 23.152344 26.054688 23.292969 26.066406 23.429688 26.078125 C 23.640625 26.101562 23.6875 26.074219 23.699219 25.835938 C 23.730469 25.15625 23.777344 24.472656 23.640625 23.800781 C 23.578125 23.429688 23.402344 23.121094 23.113281 22.878906 C 22.792969 22.621094 22.324219 22.671875 22.125 23.003906 C 21.683594 23.746094 21.769531 24.222656 21.75 25.417969 C 21.75 25.464844 21.777344 25.527344 21.707031 25.546875 C 21.699219 25.546875 21.664062 25.484375 21.648438 25.445312 C 21.589844 25.265625 21.515625 25.089844 21.417969 24.925781 C 21.375 24.859375 21.359375 24.703125 21.28125 24.738281 C 21.179688 24.789062 21.28125 24.902344 21.316406 24.976562 C 21.445312 25.230469 21.554688 25.492188 21.640625 25.765625 C 21.652344 25.808594 21.691406 25.875 21.632812 25.898438 C 21.597656 25.914062 21.578125 25.84375 21.558594 25.804688 C 21.144531 25.039062 21.167969 25.027344 21.101562 25.050781 C 21.035156 25.070312 21.03125 25.007812 21.582031 26.429688 C 21.652344 26.578125 21.699219 26.738281 21.714844 26.902344 C 21.714844 26.964844 21.753906 27.066406 21.6875 27.089844 C 21.617188 27.117188 21.585938 27.011719 21.554688 26.960938 C 21.332031 26.613281 21.117188 26.261719 20.894531 25.910156 C 20.871094 25.871094 20.847656 25.800781 20.785156 25.835938 C 20.726562 25.875 20.777344 25.933594 20.792969 25.976562 C 20.867188 26.171875 20.738281 25.800781 21.324219 27.007812 C 21.445312 27.265625 21.539062 27.535156 21.605469 27.8125 C 21.628906 27.890625 21.585938 27.960938 21.546875 27.875 C 21.378906 27.496094 21.085938 27.214844 20.796875 26.929688 C 20.738281 26.882812 20.710938 26.824219 20.710938 26.75 C 20.714844 26.183594 20.691406 25.617188 20.652344 25.050781 C 20.585938 24.125 20.632812 23.195312 20.601562 22.265625 C 20.558594 20.898438 20.648438 19.53125 20.550781 18.164062 C 20.53125 17.847656 20.550781 17.835938 20.882812 17.835938 C 20.953125 17.835938 21.117188 17.859375 21.152344 17.8125 C 21.183594 17.765625 21.144531 17.730469 21.109375 17.703125 C 20.933594 17.574219 20.824219 17.386719 20.660156 17.246094 C 19.929688 16.632812 20.601562 16.199219 20.289062 13.15625 C 20.253906 12.816406 20.476562 12.847656 20.6875 12.820312 C 20.742188 12.808594 20.820312 12.84375 20.847656 12.773438 C 20.871094 12.707031 20.792969 12.671875 20.753906 12.636719 C 20.460938 12.402344 20.167969 12.160156 19.867188 11.929688 C 19.472656 11.628906 19.433594 11.210938 19.785156 10.863281 C 20.136719 10.511719 20.179688 10.527344 19.890625 10.363281 C 19.601562 10.195312 19.316406 10.019531 19.027344 9.851562 C 18.914062 9.804688 18.855469 9.71875 18.847656 9.59375 C 18.820312 9.070312 18.726562 7.714844 19.101562 7.308594 C 19.214844 7.1875 19.195312 7.097656 19.050781 7 C 18.65625 6.742188 18.261719 6.488281 17.84375 6.265625 C 17.695312 6.199219 17.636719 6.089844 17.671875 5.929688 C 17.683594 5.800781 17.714844 5.675781 17.765625 5.558594 C 17.832031 5.421875 18.027344 5.324219 17.972656 5.164062 C 17.917969 5.003906 17.714844 5.019531 17.582031 4.941406 C 16.941406 4.5625 16.296875 4.191406 15.648438 3.820312 C 15.511719 3.761719 15.449219 3.660156 15.460938 3.515625 C 15.460938 3.355469 15.46875 2.53125 15.46875 2.277344 C 15.46875 2.023438 15.503906 1.773438 15.457031 1.53125 C 15.433594 1.421875 15.425781 1.324219 15.539062 1.269531 C 15.667969 1.210938 15.832031 1.21875 15.980469 1.203125 C 16.078125 1.191406 16.25 1.257812 16.242188 1.074219 C 16.230469 0.875 15.996094 0.945312 15.699219 0.972656 C 15.535156 0.988281 15.441406 0.929688 15.445312 0.742188 C 15.457031 0.0351562 15.480469 0.0820312 15.457031 0.0507812 C 15.429688 0.0195312 15.351562 0.00390625 15.308594 0 C 15.226562 -0.0078125 15.183594 0.0273438 15.179688 0.113281 C 15.175781 0.34375 15.148438 0.777344 15.097656 0.886719 C 15.007812 1.074219 14.449219 0.773438 14.4375 1.074219 C 14.433594 1.121094 14.445312 1.160156 14.472656 1.195312 C 14.503906 1.230469 14.542969 1.246094 14.589844 1.242188 C 14.691406 1.246094 14.796875 1.246094 14.898438 1.242188 C 15.007812 1.21875 15.082031 1.261719 15.125 1.363281 C 15.230469 1.492188 15.136719 1.972656 15.164062 2.273438 C 15.191406 2.628906 15.164062 2.78125 15.15625 3.292969 C 15.1875 3.507812 15.25 3.699219 15.007812 3.886719 C 14.476562 4.296875 13.910156 4.652344 13.351562 5.019531 C 12.863281 5.34375 12.960938 5.304688 13.257812 5.671875 C 13.332031 5.761719 13.363281 5.863281 13.351562 5.976562 C 13.335938 6.09375 13.285156 6.1875 13.195312 6.257812 C 12.867188 6.503906 12.519531 6.726562 12.164062 6.929688 C 11.835938 7.121094 11.800781 7.222656 12.046875 7.496094 C 12.355469 7.839844 12.164062 8.242188 12.128906 9.273438 C 12.109375 9.8125 11.925781 10.21875 11.460938 10.507812 C 11.175781 10.699219 11.148438 10.746094 11.480469 11.113281 C 11.578125 11.210938 11.625 11.332031 11.617188 11.46875 C 11.609375 11.609375 11.554688 11.722656 11.445312 11.808594 C 11.171875 12.058594 10.886719 12.289062 10.585938 12.507812 C 10.378906 12.660156 10.386719 12.726562 10.617188 12.804688 C 10.734375 12.835938 10.789062 12.910156 10.785156 13.027344 C 10.855469 13.640625 10.207031 13.617188 8.847656 14.570312 C 8 15.164062 7.707031 15.34375 6.699219 15.949219 C 6.554688 15.84375 6.488281 15.734375 5.964844 14.964844 C 5.78125 14.695312 5.792969 14.710938 5.558594 14.914062 C 5.207031 15.222656 4.996094 15.652344 4.652344 15.960938 C 4.566406 16.039062 4.644531 16.058594 4.707031 16.066406 C 4.785156 16.078125 4.894531 16.023438 4.910156 16.15625 C 4.925781 16.316406 4.9375 16.472656 4.78125 16.601562 C 3.292969 17.847656 2.910156 17.425781 3.527344 18.214844 C 3.613281 18.328125 3.65625 18.394531 3.792969 18.320312 C 3.984375 18.214844 4.191406 18.121094 4.390625 18.019531 C 4.703125 17.855469 4.808594 17.917969 4.8125 18.265625 C 4.820312 19.132812 4.890625 22.535156 4.910156 23.359375 C 4.933594 24.375 4.871094 25.390625 4.960938 26.40625 C 4.976562 26.601562 4.96875 26.800781 4.96875 27 C 4.96875 27.03125 4.976562 27.078125 4.933594 27.078125 C 4.890625 27.082031 4.886719 27.035156 4.882812 27.003906 C 4.828125 26.636719 4.839844 26.535156 4.761719 26.566406 C 4.703125 26.585938 4.714844 26.679688 4.710938 26.777344 C 4.710938 26.824219 4.695312 26.875 4.691406 26.925781 C 4.617188 26.890625 4.644531 26.824219 4.644531 26.769531 C 4.644531 26.742188 4.652344 26.71875 4.652344 26.691406 C 4.667969 26.304688 4.796875 25.929688 4.78125 25.539062 C 4.78125 25.480469 4.839844 25.378906 4.742188 25.367188 C 4.667969 25.359375 4.664062 25.460938 4.648438 25.527344 C 4.597656 25.75 4.554688 26 4.53125 26 C 4.476562 26 4.476562 25.945312 4.472656 25.90625 C 4.351562 24.761719 4.421875 24.640625 4.515625 23.566406 C 4.515625 23.527344 4.519531 23.472656 4.46875 23.460938 C 4.414062 23.449219 4.40625 23.484375 4.398438 23.519531 C 4.316406 23.851562 4.136719 24.160156 4.148438 24.515625 C 4.148438 24.65625 4.15625 25.066406 4.132812 25.261719 C 4.078125 25.234375 4.089844 25.175781 4.085938 25.128906 C 4.042969 24.730469 3.886719 24.363281 3.726562 24 C 3.679688 23.886719 3.699219 23.660156 3.539062 23.695312 C 3.445312 23.714844 3.570312 23.917969 3.59375 24.039062 C 3.699219 24.574219 3.726562 25.117188 3.808594 25.652344 C 3.855469 25.960938 3.832031 26.269531 3.835938 26.578125 C 3.835938 26.609375 3.824219 26.664062 3.808594 26.667969 C 3.765625 26.679688 3.761719 26.628906 3.753906 26.601562 C 3.507812 25.90625 3.386719 25.1875 3.382812 24.449219 C 3.382812 24.382812 3.429688 24.261719 3.324219 24.261719 C 3.253906 24.261719 3.257812 24.355469 3.246094 24.433594 C 3.246094 24.464844 3.246094 24.496094 3.246094 24.527344 C 3.328125 26.34375 3.609375 26.144531 3.664062 26.96875 C 3.664062 27.027344 3.671875 27.128906 3.597656 27.140625 C 3.484375 27.160156 3.355469 26.28125 2.90625 25.441406 C 2.84375 25.328125 2.832031 25.097656 2.699219 25.140625 C 2.511719 25.203125 2.722656 25.710938 2.78125 25.882812 C 2.804688 25.9375 2.847656 25.996094 2.835938 26.050781 C 2.78125 26.402344 2.847656 26.757812 2.789062 27.105469 C 2.703125 27.589844 2.953125 27.722656 2.914062 28.222656 C 2.90625 28.28125 2.9375 28.375 2.878906 28.386719 C 2.796875 28.398438 2.816406 28.300781 2.804688 28.25 C 2.714844 27.988281 2.613281 27.730469 2.5 27.480469 C 2.484375 27.441406 2.460938 27.386719 2.417969 27.394531 C 2.347656 27.402344 2.347656 27.46875 2.359375 27.515625 C 2.402344 27.800781 2.410156 28.101562 2.496094 28.382812 C 2.558594 28.5625 2.59375 28.75 2.597656 28.9375 C 2.597656 29.019531 2.644531 29.140625 2.558594 29.171875 C 2.46875 29.199219 2.425781 29.054688 2.367188 28.980469 C 2.292969 28.878906 2.269531 28.640625 2.203125 28.664062 C 2.058594 28.714844 2.160156 28.902344 2.140625 29.03125 C 2.121094 29.15625 2.074219 29.191406 1.976562 29.101562 C 1.898438 29.035156 1.828125 28.960938 1.769531 28.878906 C 1.621094 28.671875 1.570312 28.851562 1.496094 29.003906 C 1.328125 29.335938 1.171875 29.40625 0.804688 29.308594 C 0.6875 29.277344 0.523438 29.203125 0.511719 29.367188 C 0.5 29.476562 0.574219 29.484375 0.664062 29.480469 C 1.71875 29.425781 2.28125 29.707031 2.523438 29.652344 C 2.914062 29.570312 3.996094 29.652344 4.714844 29.578125 C 5.558594 29.484375 6.054688 29.753906 7.066406 29.660156 C 7.9375 29.582031 8.8125 29.628906 9.683594 29.574219 C 10.539062 29.519531 11.394531 29.613281 12.25 29.609375 C 13.28125 29.605469 14.3125 29.535156 15.351562 29.5625 C 15.675781 29.570312 15.730469 29.472656 16.375 29.542969 C 17.296875 29.640625 17.6875 29.597656 18.871094 29.511719 C 19.527344 29.460938 20.1875 29.5 20.84375 29.453125 C 21.285156 29.421875 21.730469 29.453125 22.171875 29.441406 C 22.75 29.429688 23.328125 29.460938 23.90625 29.535156 C 24.214844 29.570312 24.519531 29.570312 24.828125 29.535156 C 26.15625 29.410156 25.804688 29.410156 28.769531 29.40625 L 28.769531 29.300781 C 28.558594 29.199219 28.675781 29.027344 28.695312 28.890625 Z M 26.742188 16.839844 C 27.242188 17.113281 27.160156 16.953125 27.011719 17.535156 C 26.976562 17.667969 26.917969 17.691406 26.792969 17.640625 C 26.550781 17.539062 26.363281 17.378906 26.226562 17.15625 C 26.089844 16.929688 26.03125 16.6875 26.054688 16.429688 C 26.066406 16.4375 26.699219 16.816406 26.742188 16.839844 Z M 25.148438 14.910156 C 25.382812 14.746094 25.710938 15.136719 26.121094 15.367188 C 26.191406 15.40625 26.15625 15.449219 26.085938 15.445312 C 25.691406 15.441406 25.304688 15.507812 24.910156 15.523438 C 24.175781 15.488281 24.1875 15.582031 25.144531 14.910156 Z M 25.90625 15.621094 C 26 15.613281 25.96875 15.710938 25.96875 15.761719 C 25.960938 16.105469 25.949219 16.449219 25.933594 16.792969 C 25.933594 16.820312 25.933594 16.867188 25.886719 16.859375 C 25.839844 16.851562 25.851562 16.6875 25.851562 16.570312 C 25.921875 15.863281 25.761719 15.632812 25.90625 15.621094 Z M 25.738281 16.847656 C 25.753906 16.933594 25.714844 16.972656 25.628906 16.964844 C 25.441406 16.972656 25.535156 16.269531 25.496094 15.8125 C 25.472656 15.710938 25.511719 15.65625 25.613281 15.640625 C 25.722656 15.628906 25.726562 15.726562 25.738281 15.796875 C 25.761719 15.898438 25.714844 16.597656 25.738281 16.847656 Z M 25.191406 15.761719 C 25.175781 15.683594 25.210938 15.625 25.300781 15.625 C 25.390625 15.625 25.394531 15.683594 25.386719 15.753906 C 25.375 16.101562 25.386719 16.453125 25.410156 16.800781 C 25.417969 16.867188 25.472656 16.972656 25.34375 16.980469 C 25.238281 16.988281 25.230469 16.894531 25.226562 16.816406 C 25.214844 16.464844 25.257812 16.113281 25.191406 15.761719 Z M 24.933594 15.839844 C 24.933594 15.78125 24.910156 15.703125 24.996094 15.699219 C 25.078125 15.691406 25.09375 15.765625 25.097656 15.824219 C 25.101562 16.011719 25.109375 16.390625 25.113281 16.390625 L 25.113281 16.855469 C 25.113281 16.902344 25.132812 16.96875 25.058594 16.972656 C 24.984375 16.976562 24.976562 16.917969 24.984375 16.863281 C 25.039062 16.519531 24.960938 16.183594 24.933594 15.84375 Z M 24.71875 15.910156 C 24.722656 15.847656 24.679688 15.75 24.769531 15.738281 C 24.820312 15.730469 24.832031 15.832031 24.835938 15.886719 C 24.855469 16.171875 24.871094 16.453125 24.878906 16.738281 C 24.878906 16.796875 24.871094 16.902344 24.785156 16.902344 C 24.699219 16.902344 24.714844 16.796875 24.714844 16.738281 C 24.710938 16.628906 24.710938 15.988281 24.71875 15.914062 Z M 25.691406 27.402344 C 25.902344 27.449219 25.8125 27.632812 25.824219 27.765625 C 25.835938 27.898438 25.761719 27.953125 25.636719 27.953125 L 24.742188 27.953125 C 24.585938 27.953125 24.507812 27.890625 24.503906 27.726562 C 24.503906 27.484375 24.566406 27.335938 24.726562 27.332031 C 25.054688 27.316406 25.375 27.339844 25.691406 27.402344 Z M 25.171875 26.332031 C 25.175781 26.308594 25.179688 26.28125 25.1875 26.257812 C 25.199219 26.28125 25.207031 26.304688 25.210938 26.328125 C 25.277344 27.132812 25.304688 27.210938 25.140625 27.203125 C 25.019531 27.195312 24.871094 27.195312 24.871094 27.003906 C 24.882812 26.042969 24.582031 24.222656 24.671875 22.835938 C 24.558594 18.550781 24.636719 19.175781 24.578125 18.070312 C 24.578125 18.015625 24.589844 17.960938 24.652344 17.953125 C 24.714844 17.949219 24.707031 18.011719 24.71875 18.050781 C 24.738281 18.125 24.746094 18.199219 24.734375 18.277344 C 24.660156 18.890625 24.722656 19.496094 24.773438 20.105469 C 24.832031 20.808594 24.832031 21.515625 24.773438 22.21875 C 24.644531 23.597656 25.09375 25.640625 25.058594 26.714844 C 25.058594 26.746094 25.058594 26.78125 25.058594 26.816406 C 25.066406 26.867188 25.058594 26.941406 25.117188 26.941406 C 25.175781 26.945312 25.164062 26.925781 25.171875 26.332031 Z M 25.101562 23.980469 C 25.054688 24.375 25.054688 24.765625 25.101562 25.160156 C 25.109375 25.230469 25.109375 25.296875 25.101562 25.363281 C 25.050781 25.316406 25.058594 25.242188 25.054688 25.183594 C 24.808594 22.84375 24.875 23.050781 24.941406 21.507812 C 24.976562 20.914062 24.949219 20.324219 24.855469 19.734375 C 24.757812 19.167969 24.894531 18.320312 24.835938 18.066406 C 24.824219 18.007812 24.820312 17.929688 24.894531 17.917969 C 25.027344 17.894531 25.015625 18.054688 25.015625 18.230469 L 25.015625 19.441406 C 24.992188 21.78125 25.21875 22.78125 25.101562 23.980469 Z M 24.511719 17.789062 C 24.445312 17.789062 24.363281 17.808594 24.324219 17.742188 C 24.289062 17.679688 24.371094 17.644531 24.390625 17.589844 C 24.53125 17.210938 24.742188 17.011719 25.191406 17.136719 C 25.507812 17.222656 25.925781 16.917969 26.074219 17.128906 C 26.1875 17.320312 26.320312 17.5 26.464844 17.671875 C 26.570312 17.78125 26.386719 17.789062 26.257812 17.808594 C 25.675781 17.765625 25.09375 17.761719 24.511719 17.789062 Z M 27.414062 28.003906 C 27.105469 27.992188 26.800781 27.976562 26.496094 27.945312 C 26.214844 27.917969 26.113281 27.699219 26.246094 27.449219 C 26.28125 27.378906 26.335938 27.351562 26.414062 27.363281 C 26.992188 27.347656 26.828125 27.34375 27.539062 27.347656 C 27.707031 27.347656 27.777344 27.425781 27.789062 27.597656 C 27.808594 28.015625 27.816406 28.019531 27.410156 28.003906 Z M 23.707031 28.269531 C 23.988281 28.273438 24.226562 28.234375 24.457031 28.285156 C 24.742188 28.347656 24.660156 28.46875 24.660156 28.570312 C 24.660156 29.046875 24.660156 29.058594 24.171875 29.035156 C 23.875 29.023438 23.578125 28.976562 23.277344 28.984375 C 23.148438 28.984375 23.082031 28.9375 23.058594 28.796875 C 22.957031 28.226562 22.980469 28.269531 23.707031 28.269531 Z M 22.410156 26.183594 C 21.957031 27.554688 22.179688 27.03125 21.890625 26.167969 C 21.878906 26.09375 21.871094 26.027344 21.917969 26.027344 C 22.078125 26.03125 22.238281 26.046875 22.398438 26.074219 C 22.453125 26.082031 22.421875 26.144531 22.410156 26.183594 Z M 21.875 25.648438 C 21.886719 25.460938 21.875 25.269531 21.875 25.082031 C 21.890625 24.523438 21.875 23.960938 22.070312 23.425781 C 22.175781 23.140625 22.300781 22.871094 22.652344 22.851562 C 22.9375 22.835938 23.21875 23.070312 23.367188 23.394531 C 23.597656 23.886719 23.613281 24.410156 23.589844 24.9375 C 23.578125 25.210938 23.582031 25.488281 23.570312 25.761719 C 23.570312 25.847656 23.578125 25.949219 23.449219 25.945312 C 22.988281 25.917969 22.527344 25.976562 22.066406 25.90625 C 21.894531 25.878906 21.867188 25.800781 21.875 25.648438 Z M 20.585938 26.476562 C 20.578125 26.757812 20.671875 27.023438 20.660156 27.304688 C 20.652344 27.429688 20.625 27.441406 20.515625 27.441406 C 20.140625 27.433594 20.140625 27.441406 20.140625 27.070312 C 20.140625 25.65625 20.121094 25.484375 20.179688 25.136719 C 20.210938 24.9375 20.140625 24.742188 20.136719 24.546875 C 20.027344 17.664062 20.167969 20.015625 20.007812 18.308594 C 19.980469 17.988281 19.957031 17.875 20.074219 17.867188 C 20.191406 17.855469 20.179688 17.960938 20.179688 18.035156 C 20.171875 18.261719 20.230469 18.484375 20.226562 18.703125 C 20.199219 19.675781 20.285156 20.648438 20.277344 21.621094 C 20.277344 21.9375 20.21875 22.253906 20.230469 22.574219 C 20.261719 23.371094 20.324219 24.171875 20.304688 24.96875 C 20.289062 25.582031 20.371094 26.1875 20.332031 26.796875 C 20.320312 26.9375 20.332031 27.074219 20.375 27.207031 C 20.382812 27.238281 20.390625 27.28125 20.433594 27.277344 C 20.472656 27.273438 20.472656 27.230469 20.46875 27.195312 C 20.398438 26.675781 20.460938 26.148438 20.410156 25.625 C 20.375 25.152344 20.371094 24.679688 20.394531 24.207031 C 20.414062 23.640625 20.332031 23.074219 20.34375 22.507812 C 20.363281 21.050781 20.476562 21.289062 20.324219 20.21875 C 20.292969 19.917969 20.292969 19.621094 20.324219 19.320312 C 20.347656 18.886719 20.277344 18.464844 20.292969 18.035156 C 20.296875 18.003906 20.304688 17.972656 20.3125 17.941406 C 20.351562 17.957031 20.347656 17.996094 20.351562 18.027344 C 20.378906 18.144531 20.398438 18.265625 20.40625 18.386719 C 20.429688 19.125 20.527344 19.859375 20.457031 20.597656 C 20.429688 20.988281 20.433594 21.375 20.46875 21.757812 C 20.5 22.257812 20.507812 22.757812 20.488281 23.257812 C 20.449219 24.332031 20.613281 25.402344 20.585938 26.476562 Z M 19.984375 27.410156 C 19.726562 27.453125 19.867188 27.152344 19.851562 24.488281 C 19.851562 23.761719 19.886719 23.03125 19.796875 22.300781 C 19.664062 21.203125 19.90625 21.074219 19.695312 18.339844 C 19.6875 18.234375 19.675781 18.132812 19.675781 18.03125 C 19.675781 17.960938 19.675781 17.875 19.765625 17.867188 C 19.851562 17.859375 19.859375 17.945312 19.867188 18.011719 C 19.988281 19.144531 19.976562 18.878906 19.976562 20.070312 C 19.992188 20.070312 20.054688 24.902344 20.054688 24.914062 C 20.054688 25.710938 20.023438 26.511719 20.03125 27.3125 C 20.035156 27.347656 20.042969 27.398438 19.984375 27.410156 Z M 19.601562 27.367188 C 19.371094 27.375 19.503906 27.195312 19.46875 25.925781 C 19.40625 23.636719 19.421875 26.042969 19.414062 20.695312 C 19.414062 19.65625 19.542969 19.75 19.449219 19.175781 C 19.386719 18.796875 19.382812 18.421875 19.339844 18.042969 C 19.332031 17.953125 19.347656 17.882812 19.445312 17.871094 C 19.570312 17.855469 19.550781 17.957031 19.554688 18.027344 C 19.808594 20.601562 19.535156 21.378906 19.753906 23.152344 C 19.761719 23.324219 19.753906 23.496094 19.738281 23.664062 C 19.726562 24.746094 19.71875 25.828125 19.710938 26.910156 C 19.710938 27.21875 19.753906 27.359375 19.601562 27.371094 Z M 20.308594 17 C 20.441406 17.214844 20.640625 17.371094 20.804688 17.554688 C 20.835938 17.59375 20.898438 17.625 20.875 17.679688 C 20.855469 17.734375 20.789062 17.722656 20.738281 17.722656 C 20.550781 17.722656 20.175781 17.742188 20.175781 17.75 C 18.417969 17.75 18.46875 17.757812 18.449219 17.730469 C 18.414062 17.691406 18.449219 17.652344 18.476562 17.621094 C 18.621094 17.464844 18.753906 17.296875 18.875 17.117188 C 19.097656 16.820312 19.441406 17.03125 20.152344 16.9375 C 20.21875 16.921875 20.269531 16.945312 20.308594 17 Z M 19.152344 14.238281 C 19.121094 14.839844 19.203125 15.566406 19.195312 16.296875 C 19.195312 16.460938 19.21875 16.632812 19.09375 16.769531 C 19.019531 16.621094 19.066406 16.46875 19.0625 16.316406 C 19.039062 15.277344 19.023438 14.234375 19.003906 13.195312 C 19.003906 13.101562 18.949219 12.9375 19.074219 12.9375 C 19.199219 12.941406 19.148438 13.109375 19.148438 13.203125 C 19.15625 13.507812 19.152344 13.808594 19.152344 14.238281 Z M 19.9375 16.125 C 19.910156 16.347656 20.042969 16.773438 19.910156 16.792969 C 19.820312 16.804688 19.828125 16.71875 19.828125 16.667969 C 19.820312 16.261719 19.777344 15.867188 19.816406 15.457031 C 19.863281 14.8125 19.824219 14.167969 19.707031 13.53125 C 19.640625 13.101562 19.746094 12.976562 19.648438 12.964844 C 19.378906 12.945312 19.835938 14.371094 19.671875 15.726562 C 19.609375 16.257812 19.726562 16.488281 19.699219 16.730469 C 19.691406 16.816406 19.621094 16.835938 19.546875 16.828125 C 19.46875 16.824219 19.445312 16.78125 19.464844 16.707031 C 19.574219 16.328125 19.488281 15.9375 19.519531 15.550781 C 19.582031 14.886719 19.441406 14.230469 19.390625 13.570312 C 19.378906 13.402344 19.429688 13.246094 19.40625 13.082031 C 19.402344 13.023438 19.40625 12.894531 19.292969 13.023438 C 19.292969 13.027344 19.289062 13.027344 19.285156 13.03125 C 19.273438 13.140625 19.289062 13.265625 19.289062 13.375 C 19.289062 13.480469 19.289062 13.589844 19.289062 13.699219 C 19.300781 13.867188 19.351562 14.058594 19.335938 14.230469 C 19.402344 14.6875 19.421875 15.148438 19.402344 15.613281 C 19.378906 15.953125 19.445312 16.300781 19.351562 16.636719 C 19.339844 16.679688 19.335938 16.75 19.296875 16.742188 C 19.230469 16.726562 19.273438 16.660156 19.277344 16.617188 C 19.328125 16.128906 19.328125 15.640625 19.277344 15.152344 C 19.25 14.871094 19.261719 13.96875 19.261719 13.960938 C 19.234375 13.734375 19.226562 13.507812 19.238281 13.28125 C 19.238281 13.1875 19.222656 13.089844 19.238281 12.996094 C 19.222656 12.953125 19.234375 12.917969 19.277344 12.898438 C 19.332031 12.863281 19.808594 12.863281 19.859375 12.90625 C 19.9375 12.96875 19.925781 13.058594 19.917969 13.144531 C 19.808594 14.074219 20.085938 15 19.941406 16.128906 Z M 20.195312 16.652344 C 20.195312 16.699219 20.21875 16.769531 20.148438 16.773438 C 20.078125 16.78125 20.097656 16.707031 20.085938 16.660156 C 20.011719 16.34375 20.078125 16.027344 20.085938 15.710938 C 20.109375 14.996094 20.035156 14.285156 20.003906 13.570312 C 20.007812 13.375 20.019531 13.179688 20.042969 12.980469 C 20.050781 12.894531 20.15625 12.886719 20.164062 12.988281 C 20.167969 13.054688 20.171875 13.125 20.171875 13.195312 C 20.175781 13.347656 20.15625 16.214844 20.195312 16.652344 Z M 20.570312 12.667969 C 20.550781 12.714844 20.496094 12.707031 20.457031 12.707031 C 20.097656 12.699219 19.742188 12.800781 19.453125 12.761719 C 18.871094 12.761719 18.765625 12.773438 18.726562 12.726562 C 18.683594 12.683594 18.738281 12.648438 18.765625 12.621094 C 19.46875 11.8125 19.378906 11.65625 19.53125 11.777344 C 20.589844 12.648438 20.597656 12.601562 20.566406 12.671875 Z M 13.171875 5.425781 C 13.089844 5.324219 13.15625 5.28125 13.234375 5.226562 C 13.890625 4.777344 14.570312 4.359375 15.199219 3.867188 C 15.324219 3.769531 15.433594 3.8125 15.550781 3.882812 C 17.917969 5.253906 17.824219 5.144531 17.828125 5.238281 C 17.835938 5.335938 17.707031 5.417969 17.585938 5.355469 C 17.398438 5.261719 15.898438 4.429688 15.566406 4.238281 C 15.425781 4.140625 15.292969 4.152344 15.167969 4.269531 C 14.613281 4.71875 13.996094 5.074219 13.417969 5.484375 C 13.289062 5.574219 13.242188 5.511719 13.171875 5.425781 Z M 13.453125 5.804688 C 13.425781 5.621094 13.515625 5.519531 13.660156 5.425781 C 14.179688 5.082031 14.71875 4.765625 15.199219 4.359375 C 15.300781 4.257812 15.40625 4.25 15.519531 4.339844 C 16.125 4.679688 16.730469 5.011719 17.335938 5.347656 C 17.597656 5.492188 17.675781 5.734375 17.542969 5.988281 C 17.488281 6.097656 17.425781 6.019531 17.375 5.988281 C 16.953125 5.734375 15.734375 5.003906 15.558594 4.878906 C 15.421875 4.769531 15.289062 4.773438 15.164062 4.894531 C 14.78125 5.171875 13.703125 5.925781 13.695312 5.929688 C 13.628906 5.964844 13.570312 6.058594 13.496094 6.019531 C 13.417969 5.980469 13.476562 5.875 13.457031 5.804688 Z M 12.109375 7.410156 C 11.960938 7.191406 11.972656 7.175781 12.203125 7.03125 C 13.171875 6.445312 14.660156 5.382812 15.234375 4.953125 C 15.328125 4.886719 15.394531 4.910156 15.484375 4.964844 C 18.941406 7.078125 19.023438 7.035156 19.035156 7.175781 C 19.023438 7.246094 18.984375 7.304688 18.921875 7.34375 C 18.859375 7.378906 18.789062 7.386719 18.71875 7.363281 C 18.601562 7.308594 18.492188 7.246094 18.386719 7.171875 C 17.492188 6.578125 16.527344 6.113281 15.613281 5.558594 C 15.488281 5.480469 15.394531 5.515625 15.28125 5.578125 C 14.308594 6.125 13.421875 6.800781 12.5 7.421875 C 12.261719 7.589844 12.238281 7.59375 12.109375 7.40625 Z M 12.320312 7.894531 C 12.3125 7.742188 12.375 7.628906 12.507812 7.550781 C 13.429688 6.957031 14.292969 6.273438 15.238281 5.71875 C 15.378906 5.617188 15.515625 5.617188 15.652344 5.71875 C 16.414062 6.164062 17.183594 6.59375 17.953125 7.03125 C 18.179688 7.164062 18.402344 7.3125 18.632812 7.441406 C 18.761719 7.5 18.8125 7.597656 18.785156 7.738281 C 18.6875 8.308594 18.667969 8.882812 18.730469 9.460938 C 18.75 9.636719 18.699219 9.652344 18.511719 9.542969 C 18.5 9.535156 15.898438 7.988281 15.898438 7.980469 C 15.902344 7.898438 16.003906 7.945312 16.058594 7.910156 C 16.117188 7.882812 16.148438 7.832031 16.152344 7.765625 C 16.140625 7.3125 16.234375 6.859375 16.113281 6.40625 C 15.996094 5.976562 15.566406 5.804688 15.207031 6.050781 C 14.871094 6.28125 14.824219 7.089844 14.84375 7.503906 C 14.855469 7.597656 14.804688 7.769531 14.863281 7.941406 C 14.910156 8.085938 14.769531 8.105469 14.691406 8.15625 C 14.097656 8.53125 13.519531 8.929688 12.945312 9.335938 C 12.484375 9.664062 12.230469 9.925781 12.164062 9.902344 C 12.101562 9.878906 12.328125 9.574219 12.324219 7.890625 Z M 15.160156 7.792969 C 15.203125 7.824219 15.101562 7.84375 15.058594 7.851562 C 14.953125 7.875 14.957031 7.796875 14.957031 7.726562 C 15.0625 7.238281 14.886719 6.832031 15.113281 6.355469 C 15.171875 6.21875 15.269531 6.128906 15.410156 6.085938 C 15.550781 6.039062 15.683594 6.058594 15.808594 6.132812 C 15.84375 6.160156 15.894531 6.183594 15.871094 6.230469 C 15.84375 6.273438 15.8125 6.230469 15.78125 6.21875 C 15.523438 6.113281 15.382812 6.183594 15.300781 6.472656 C 15.222656 6.78125 15.175781 7.097656 15.15625 7.414062 C 15.144531 7.53125 14.996094 7.660156 15.164062 7.789062 Z M 15.910156 6.503906 C 15.917969 6.527344 15.914062 6.542969 15.894531 6.550781 C 15.875 6.5625 15.859375 6.558594 15.847656 6.542969 C 15.804688 6.464844 15.753906 6.390625 15.699219 6.320312 C 15.667969 6.28125 15.71875 6.230469 15.75 6.265625 C 15.8125 6.339844 15.867188 6.421875 15.917969 6.503906 Z M 15.28125 7.484375 C 15.335938 7.429688 15.347656 7.523438 15.375 7.554688 C 15.398438 7.585938 15.414062 7.621094 15.453125 7.597656 C 15.492188 7.570312 15.464844 7.535156 15.453125 7.5 C 15.425781 7.398438 15.308594 7.332031 15.332031 7.207031 C 15.449219 7.265625 15.464844 7.398438 15.527344 7.492188 C 15.554688 7.527344 15.550781 7.613281 15.617188 7.585938 C 15.683594 7.558594 15.648438 7.492188 15.628906 7.449219 C 15.578125 7.328125 15.507812 7.222656 15.417969 7.132812 C 15.328125 7.066406 15.300781 6.980469 15.332031 6.875 C 15.34375 6.878906 15.359375 6.886719 15.367188 6.894531 C 15.382812 6.917969 15.402344 6.9375 15.421875 6.957031 C 15.539062 7.101562 15.628906 7.257812 15.691406 7.429688 C 15.757812 7.652344 15.738281 7.683594 15.503906 7.6875 C 15.433594 7.695312 15.367188 7.6875 15.304688 7.65625 C 15.234375 7.609375 15.226562 7.550781 15.28125 7.484375 Z M 15.367188 6.710938 C 15.382812 6.699219 15.394531 6.695312 15.414062 6.695312 C 15.492188 6.695312 15.515625 6.800781 15.558594 6.863281 C 15.597656 6.925781 15.519531 6.910156 15.472656 6.914062 L 15.421875 6.867188 C 15.414062 6.855469 15.40625 6.839844 15.402344 6.828125 C 15.386719 6.789062 15.378906 6.75 15.367188 6.710938 Z M 15.714844 7.386719 C 15.65625 7.253906 15.601562 7.117188 15.527344 6.992188 C 15.519531 6.972656 15.523438 6.957031 15.542969 6.945312 C 15.5625 6.933594 15.578125 6.9375 15.589844 6.953125 C 15.664062 7.082031 15.714844 7.21875 15.78125 7.347656 C 15.796875 7.390625 15.734375 7.429688 15.714844 7.386719 Z M 15.433594 6.570312 C 15.371094 6.519531 15.414062 6.453125 15.484375 6.476562 C 15.554688 6.5 15.847656 6.972656 15.839844 7.054688 C 15.835938 7.070312 15.832031 7.085938 15.824219 7.097656 C 15.707031 6.953125 15.636719 6.734375 15.433594 6.570312 Z M 15.761719 6.65625 C 15.738281 6.617188 15.71875 6.578125 15.703125 6.539062 L 15.730469 6.527344 C 15.75 6.550781 15.78125 6.574219 15.792969 6.601562 C 15.839844 6.714844 15.960938 6.789062 15.941406 6.9375 C 15.832031 6.878906 15.832031 6.746094 15.761719 6.65625 Z M 11.449219 10.925781 C 11.328125 10.757812 11.394531 10.671875 11.527344 10.5625 C 12.652344 9.648438 13.828125 8.804688 15.054688 8.027344 C 15.136719 7.957031 15.234375 7.929688 15.34375 7.949219 C 15.527344 7.953125 15.695312 8 15.855469 8.089844 C 17.519531 9.03125 18.921875 9.933594 19.773438 10.398438 C 19.917969 10.476562 19.972656 10.554688 19.816406 10.679688 C 19.632812 10.824219 19.605469 10.988281 19.433594 10.847656 C 19.0625 10.550781 18.648438 10.328125 18.246094 10.082031 C 17.488281 9.609375 16.726562 9.148438 15.945312 8.722656 C 15.792969 8.640625 15.675781 8.441406 15.511719 8.480469 C 15.371094 8.511719 15.257812 8.667969 15.128906 8.769531 C 14.101562 9.523438 13.019531 10.207031 11.96875 10.929688 C 11.917969 10.964844 11.863281 10.988281 11.8125 11.027344 C 11.648438 11.148438 11.554688 11.074219 11.449219 10.925781 Z M 10.742188 12.664062 C 10.707031 12.664062 10.648438 12.695312 10.636719 12.636719 C 10.628906 12.601562 11.046875 12.375 11.460938 11.957031 C 11.546875 11.871094 11.621094 11.84375 11.71875 11.941406 C 12.421875 12.621094 12.480469 12.609375 12.445312 12.675781 C 12.4375 12.691406 12.386719 12.6875 12.351562 12.691406 C 12.351562 12.679688 12.351562 12.671875 12.351562 12.664062 C 11.816406 12.664062 11.28125 12.664062 10.742188 12.664062 Z M 11.753906 25.65625 C 11.765625 26.136719 11.8125 26.613281 11.792969 27.09375 C 11.792969 27.175781 11.828125 27.296875 11.710938 27.304688 C 11.589844 27.316406 11.566406 27.1875 11.570312 27.101562 C 11.636719 26.148438 11.519531 25.199219 11.585938 24.246094 C 11.664062 23.0625 11.65625 21.878906 11.5625 20.695312 C 11.519531 20.070312 11.601562 20.035156 11.601562 18.144531 C 11.601562 18.097656 11.578125 18.027344 11.648438 18.019531 C 11.71875 18.007812 11.742188 18.078125 11.75 18.140625 C 11.777344 18.316406 11.792969 18.496094 11.800781 18.675781 C 11.769531 21.492188 11.890625 22.105469 11.839844 23.1875 C 11.800781 24.007812 11.734375 24.828125 11.753906 25.65625 Z M 11.355469 17.859375 L 11.355469 17.875 C 10.210938 17.875 10.246094 17.890625 10.222656 17.828125 C 10.191406 17.75 10.265625 17.730469 10.609375 17.40625 C 10.796875 17.234375 10.917969 17.515625 11.839844 17.335938 C 12.027344 17.296875 12.175781 17.335938 12.265625 17.523438 C 12.28125 17.546875 12.296875 17.566406 12.3125 17.585938 C 12.363281 17.679688 12.554688 17.734375 12.503906 17.824219 C 12.441406 17.941406 12.273438 17.859375 12.148438 17.859375 Z M 10.734375 22.773438 C 10.691406 23.101562 10.699219 23.429688 10.757812 23.753906 C 10.820312 24.117188 10.84375 24.488281 10.828125 24.859375 C 10.789062 26.046875 10.953125 27.164062 10.828125 27.40625 C 10.820312 27.46875 10.785156 27.496094 10.722656 27.488281 C 10.660156 27.480469 10.632812 27.445312 10.640625 27.382812 C 10.628906 27.324219 10.625 27.261719 10.632812 27.203125 C 10.714844 26.699219 10.648438 26.191406 10.675781 25.6875 C 10.699219 25.183594 10.640625 24.65625 10.648438 24.140625 C 10.683594 20.050781 10.71875 22.980469 10.730469 18.679688 C 10.730469 18.128906 10.707031 18.042969 10.796875 18.039062 C 10.886719 18.035156 10.871094 18.132812 10.871094 18.195312 C 10.882812 20.132812 10.875 21.621094 10.734375 22.773438 Z M 11.511719 15.585938 C 11.441406 16.09375 11.570312 16.777344 11.519531 17.046875 C 11.5 17.136719 11.488281 17.253906 11.359375 17.242188 C 11.230469 17.226562 11.265625 17.105469 11.246094 17.027344 C 11.28125 16.71875 11.320312 16.421875 11.339844 16.121094 C 11.410156 15.175781 11.167969 14.910156 11.253906 13.0625 C 11.257812 12.929688 11.304688 12.816406 11.433594 12.835938 C 11.523438 12.851562 11.542969 12.917969 11.527344 12.992188 C 11.398438 13.855469 11.632812 14.722656 11.511719 15.585938 Z M 11.804688 14.503906 C 11.875 15.328125 11.828125 16.15625 11.851562 16.980469 C 11.859375 17.039062 11.855469 17.097656 11.847656 17.15625 C 11.828125 17.222656 11.761719 17.238281 11.699219 17.230469 C 11.636719 17.226562 11.625 17.171875 11.628906 17.117188 C 11.691406 16.503906 11.59375 15.890625 11.652344 15.269531 C 11.734375 14.421875 11.523438 13.75 11.65625 12.957031 C 11.667969 12.890625 11.65625 12.804688 11.75 12.796875 C 11.84375 12.792969 11.851562 12.878906 11.867188 12.941406 C 11.882812 12.992188 11.894531 13.046875 11.898438 13.097656 C 11.855469 13.582031 11.769531 14.039062 11.804688 14.503906 Z M 11.972656 12.910156 C 11.972656 12.875 11.972656 12.835938 12.011719 12.824219 C 12.105469 12.800781 12.105469 12.949219 12.105469 13.054688 C 12.105469 14.136719 12.230469 15.21875 12.113281 16.300781 C 12.085938 16.527344 12.113281 16.765625 12.101562 16.996094 C 12.101562 17.054688 12.132812 17.15625 12.03125 17.152344 C 11.957031 17.152344 11.972656 17.058594 11.972656 17.003906 C 11.972656 16.574219 11.988281 15.21875 11.925781 14.683594 C 11.851562 14.023438 12.019531 13.476562 11.972656 12.910156 Z M 10.894531 13.039062 C 10.894531 12.914062 10.914062 12.804688 11.035156 12.816406 C 11.117188 12.824219 11.160156 12.863281 11.148438 12.953125 C 11.03125 13.914062 11.207031 14.867188 11.230469 15.824219 C 11.242188 16.261719 11.117188 16.691406 11.136719 17.132812 C 11.144531 17.246094 11.070312 17.25 10.984375 17.25 C 10.867188 17.25 10.78125 17.214844 10.78125 17.078125 C 10.78125 16.839844 10.78125 16.597656 10.78125 16.355469 C 10.847656 15.25 10.910156 14.148438 10.894531 13.039062 Z M 6.726562 16.019531 L 6.871094 15.925781 C 7.402344 15.75 7.695312 15.332031 10.558594 13.65625 C 10.746094 13.542969 10.761719 13.558594 10.769531 13.78125 C 10.769531 13.894531 10.769531 14.003906 10.761719 14.117188 C 10.757812 14.230469 10.707031 14.3125 10.605469 14.367188 C 9.433594 15.023438 8.335938 15.800781 7.207031 16.527344 C 7.015625 16.660156 6.808594 16.761719 6.589844 16.835938 C 6.484375 16.867188 6.449219 16.855469 6.457031 16.742188 C 6.464844 16.628906 6.464844 16.484375 6.464844 16.355469 C 6.46875 15.960938 6.773438 16.28125 6.726562 16.019531 Z M 4.964844 15.800781 C 5.167969 15.5 5.394531 15.222656 5.648438 14.964844 C 5.726562 14.890625 5.777344 14.871094 5.847656 14.972656 C 6.046875 15.273438 6.25 15.570312 6.453125 15.867188 C 6.535156 15.984375 6.480469 16.015625 6.367188 16.015625 C 5.542969 16.007812 5.457031 15.945312 5.0625 15.960938 C 4.953125 15.964844 4.863281 15.9375 4.964844 15.800781 Z M 6.082031 16.398438 C 6.0625 16.292969 6.019531 16.15625 6.1875 16.140625 C 6.375 16.121094 6.351562 16.273438 6.351562 16.527344 C 6.335938 16.609375 6.316406 16.753906 6.292969 16.894531 C 6.28125 16.984375 6.230469 17.019531 6.140625 17.003906 C 6.046875 16.988281 6.09375 16.910156 6.097656 16.855469 C 6.109375 16.703125 6.105469 16.550781 6.082031 16.398438 Z M 5.996094 16.816406 C 5.988281 16.910156 5.992188 17.023438 5.863281 17.027344 C 5.734375 17.03125 5.773438 16.90625 5.757812 16.832031 C 5.746094 16.773438 5.742188 16.714844 5.746094 16.652344 C 5.746094 16.515625 5.761719 16.378906 5.792969 16.242188 C 5.800781 16.195312 5.800781 16.128906 5.867188 16.128906 C 5.917969 16.128906 5.933594 16.183594 5.9375 16.226562 C 5.964844 16.421875 6.019531 16.609375 5.996094 16.816406 Z M 5.484375 16.996094 C 5.390625 16.996094 5.375 16.929688 5.382812 16.851562 C 5.425781 16.445312 5.203125 16.097656 5.5 16.082031 C 5.6875 16.074219 5.648438 16.203125 5.625 16.515625 C 5.625 16.839844 5.667969 16.996094 5.484375 16.996094 Z M 5.023438 16.558594 C 5.023438 16.558594 5.035156 16.320312 5.039062 16.203125 C 5.039062 16.140625 5.0625 16.078125 5.132812 16.070312 C 5.226562 16.0625 5.214844 16.140625 5.21875 16.195312 C 5.273438 16.847656 5.3125 16.980469 5.136719 16.992188 C 5.003906 16.996094 5.019531 16.90625 5.019531 16.816406 C 5.023438 16.730469 5.023438 16.644531 5.023438 16.558594 Z M 4.273438 17.914062 C 4.167969 18.085938 3.925781 18.117188 3.738281 18.191406 C 3.644531 18.230469 3.601562 18.113281 3.550781 18.042969 C 3.3125 17.703125 3.316406 17.714844 3.675781 17.5 C 4.8125 16.816406 4.761719 16.65625 4.847656 16.691406 C 4.902344 16.714844 4.875 16.785156 4.890625 16.835938 C 4.871094 16.953125 4.828125 17.0625 4.761719 17.164062 C 4.621094 17.425781 4.429688 17.660156 4.277344 17.914062 Z M 4.574219 17.699219 C 4.648438 17.578125 4.726562 17.453125 4.792969 17.324219 C 4.871094 17.140625 5.003906 17.074219 5.195312 17.117188 C 5.53125 17.164062 5.871094 17.175781 6.214844 17.144531 C 6.300781 17.140625 6.363281 17.175781 6.402344 17.253906 C 6.753906 17.78125 6.789062 17.777344 6.746094 17.835938 C 6.707031 17.898438 6.617188 17.859375 6.070312 17.816406 C 4.941406 17.734375 4.421875 17.957031 4.574219 17.699219 Z M 4.324219 24.128906 C 4.363281 24.214844 4.3125 24.296875 4.304688 24.378906 C 4.308594 24.386719 4.308594 24.394531 4.304688 24.402344 C 4.292969 24.449219 4.320312 24.503906 4.273438 24.542969 C 4.265625 24.492188 4.261719 24.441406 4.253906 24.40625 C 4.265625 24.300781 4.246094 24.203125 4.324219 24.128906 Z M 4.171875 28.734375 C 4.40625 28.757812 4.292969 28.980469 4.328125 29.105469 C 4.363281 29.234375 4.234375 29.203125 4.152344 29.207031 C 3.210938 29.289062 2.929688 29.441406 2.972656 28.929688 C 2.960938 28.796875 3.023438 28.730469 3.15625 28.726562 C 3.308594 28.699219 3.464844 28.683594 3.625 28.691406 C 3.800781 28.664062 3.984375 28.714844 4.171875 28.734375 Z M 3.234375 28.054688 C 3.152344 28.0625 3.164062 27.902344 3.132812 27.820312 C 2.984375 27.382812 2.988281 26.925781 2.945312 26.472656 C 2.945312 26.449219 2.941406 26.410156 2.949219 26.402344 C 2.980469 26.390625 2.992188 26.421875 2.996094 26.445312 C 3.089844 26.898438 3.265625 27.332031 3.277344 27.804688 C 3.25 27.890625 3.316406 28.042969 3.238281 28.054688 Z M 2.746094 25.410156 C 2.796875 25.390625 2.792969 25.441406 2.804688 25.464844 C 3.128906 26.160156 3.355469 26.890625 3.597656 27.613281 C 3.652344 27.816406 3.671875 28.019531 3.660156 28.226562 C 3.660156 28.507812 3.308594 28.699219 3.050781 28.558594 C 2.949219 28.5 2.980469 28.453125 3.046875 28.007812 C 3.152344 28.109375 3.195312 28.441406 3.3125 28.417969 C 3.390625 28.40625 3.375 28.355469 3.375 27.988281 C 3.375 27.289062 3.160156 26.636719 2.933594 25.988281 C 2.816406 25.636719 2.71875 25.421875 2.753906 25.410156 Z M 2.53125 27.902344 C 2.582031 27.886719 2.589844 27.953125 2.601562 27.996094 C 2.675781 28.308594 2.855469 28.597656 2.816406 28.925781 C 2.789062 29.035156 2.84375 29.210938 2.765625 29.210938 C 2.671875 29.210938 2.707031 29.039062 2.695312 28.949219 C 2.652344 28.382812 2.441406 27.925781 2.535156 27.898438 Z M 1.5 29.402344 C 1.453125 29.402344 1.386719 29.429688 1.367188 29.367188 C 1.359375 29.34375 1.410156 29.304688 1.4375 29.273438 C 1.511719 29.179688 1.570312 29.039062 1.667969 29.007812 C 1.789062 28.972656 1.832031 29.152344 1.933594 29.214844 C 2.035156 29.273438 2.144531 29.34375 2.242188 29.203125 C 2.292969 29.128906 2.335938 29.144531 2.378906 29.203125 C 2.734375 29.644531 3.457031 29.347656 4.269531 29.359375 C 4.441406 29.355469 4.605469 29.390625 4.765625 29.460938 C 3.828125 29.5625 3.085938 29.5 1.5 29.402344 Z M 11.65625 29.496094 C 11.015625 29.464844 10.371094 29.433594 9.734375 29.460938 C 8.914062 29.496094 8.09375 29.492188 7.273438 29.546875 C 6.691406 29.582031 6.113281 29.558594 5.535156 29.472656 C 5.28125 29.433594 5.023438 29.464844 4.769531 29.457031 C 4.980469 29.390625 5.199219 29.359375 5.425781 29.371094 C 5.847656 29.378906 6.269531 29.324219 6.699219 29.386719 C 7.0625 29.441406 7.449219 29.359375 7.820312 29.324219 C 8.394531 29.277344 8.171875 29.460938 8.597656 29.402344 C 9.25 29.3125 10.066406 29.402344 10.699219 29.304688 C 11.097656 29.257812 11.5 29.273438 11.894531 29.355469 C 12.609375 29.472656 13.824219 29.355469 13.910156 29.433594 C 13.160156 29.492188 12.40625 29.515625 11.65625 29.496094 Z M 4.769531 28.929688 C 4.769531 28.597656 4.785156 28.589844 5.113281 28.585938 C 5.351562 28.585938 5.582031 28.667969 5.828125 28.625 C 6.015625 28.589844 6.089844 29.179688 5.667969 29.242188 C 5.5 29.265625 5.332031 29.28125 5.160156 29.296875 C 4.800781 29.328125 4.769531 29.296875 4.769531 28.925781 Z M 7.175781 28.582031 C 7.796875 28.582031 7.78125 28.539062 7.75 28.988281 C 7.738281 29.160156 7.664062 29.238281 7.5 29.246094 C 7.226562 29.257812 6.953125 29.246094 6.679688 29.214844 C 6.574219 29.203125 6.527344 29.160156 6.527344 29.058594 C 6.511719 28.527344 6.457031 28.582031 7.175781 28.582031 Z M 8.542969 28.636719 C 8.722656 28.636719 8.898438 28.636719 9.078125 28.636719 C 9.242188 28.636719 9.402344 28.644531 9.566406 28.636719 C 9.792969 28.625 9.808594 28.765625 9.804688 28.9375 C 9.800781 29.105469 9.816406 29.253906 9.582031 29.253906 C 9.265625 29.242188 8.949219 29.253906 8.636719 29.285156 C 8.5625 29.304688 8.496094 29.292969 8.441406 29.242188 C 8.382812 29.191406 8.359375 29.128906 8.367188 29.054688 C 8.363281 28.992188 8.355469 28.933594 8.339844 28.875 C 8.300781 28.699219 8.375 28.632812 8.539062 28.636719 Z M 10.3125 28.695312 C 10.335938 28.632812 10.414062 28.636719 10.472656 28.636719 C 10.632812 28.636719 10.796875 28.636719 10.960938 28.636719 C 11.449219 28.636719 11.554688 28.613281 11.582031 28.738281 C 11.628906 28.875 11.621094 29.007812 11.5625 29.140625 C 11.535156 29.183594 11.496094 29.199219 11.449219 29.183594 C 10.980469 29.066406 10.386719 29.324219 10.34375 29.097656 C 10.3125 28.964844 10.253906 28.828125 10.308594 28.691406 Z M 18.015625 29.460938 C 17.8125 29.429688 17.601562 29.5 17.390625 29.503906 C 17.039062 29.527344 16.6875 29.5 16.34375 29.429688 C 16.042969 29.359375 15.746094 29.445312 15.449219 29.453125 C 15.402344 29.453125 15.351562 29.476562 15.3125 29.425781 C 16.273438 29.261719 16.96875 29.476562 17.847656 29.410156 C 18.027344 29.40625 18.207031 29.390625 18.382812 29.367188 C 18.421875 29.359375 18.492188 29.34375 18.5 29.382812 C 18.511719 29.480469 18.355469 29.460938 18.011719 29.460938 Z M 16.453125 28.691406 C 16.65625 28.675781 16.855469 28.609375 17.015625 28.632812 C 17.402344 28.632812 17.632812 28.726562 17.523438 29.183594 C 17.507812 29.234375 17.480469 29.257812 17.433594 29.25 C 17.105469 29.207031 16.777344 29.34375 16.441406 29.25 C 16.339844 29.222656 16.226562 29.21875 16.265625 29.066406 C 16.308594 28.917969 16.191406 28.710938 16.453125 28.691406 Z M 19.71875 28.703125 C 19.632812 28.695312 19.660156 28.84375 19.648438 28.921875 C 19.636719 29.011719 19.601562 29.085938 19.535156 29.148438 C 19.46875 29.210938 19.386719 29.242188 19.296875 29.242188 C 18.835938 29.265625 18.375 29.277344 17.914062 29.296875 C 17.707031 29.308594 17.609375 29.210938 17.621094 29.007812 C 17.644531 28.535156 17.628906 28.523438 17.113281 28.515625 C 16.882812 28.515625 16.65625 28.5625 16.425781 28.578125 C 15.9375 28.605469 16.378906 29.285156 15.925781 29.296875 C 15.429688 29.308594 14.9375 29.214844 14.4375 29.238281 C 14.355469 29.242188 14.332031 29.1875 14.316406 29.109375 C 14.207031 28.476562 14.316406 28.59375 15.53125 28.582031 C 15.929688 28.578125 15.554688 28.96875 15.773438 29.175781 C 15.867188 29.054688 15.8125 28.914062 15.824219 28.78125 C 15.847656 28.527344 15.808594 28.476562 15.550781 28.472656 C 15.199219 28.464844 14.847656 28.460938 14.5 28.476562 C 14.210938 28.488281 14.140625 28.585938 14.179688 28.875 C 14.1875 28.933594 14.207031 28.992188 14.207031 29.050781 C 14.21875 29.289062 14.183594 29.3125 13.941406 29.304688 C 12.128906 29.257812 12.230469 29.398438 12.222656 29.011719 C 12.214844 28.601562 12.21875 28.585938 12.617188 28.550781 C 12.890625 28.53125 13.164062 28.53125 13.4375 28.550781 C 13.625 28.554688 13.644531 28.671875 13.636719 28.832031 C 13.632812 28.925781 13.613281 29.105469 13.699219 29.097656 C 13.804688 29.089844 13.746094 28.925781 13.757812 28.828125 C 13.765625 28.761719 13.757812 28.691406 13.757812 28.621094 C 13.765625 28.496094 13.710938 28.421875 13.582031 28.421875 C 13.207031 28.421875 12.832031 28.386719 12.457031 28.4375 C 12.164062 28.476562 12.089844 28.515625 12.109375 28.996094 C 12.113281 29.144531 12.070312 29.246094 11.890625 29.238281 C 11.699219 29.230469 11.703125 29.101562 11.714844 28.964844 C 11.753906 28.460938 12.089844 28.472656 10.351562 28.515625 C 10.03125 28.523438 10.222656 28.796875 10.199219 29.082031 C 10.207031 29.128906 10.191406 29.167969 10.15625 29.199219 C 10.121094 29.230469 10.078125 29.238281 10.035156 29.230469 C 9.929688 29.21875 9.921875 29.148438 9.925781 29.0625 C 9.933594 28.933594 9.902344 28.796875 9.9375 28.675781 C 9.992188 28.503906 9.890625 28.496094 9.785156 28.496094 C 9.332031 28.496094 8.882812 28.511719 8.429688 28.519531 C 8.25 28.519531 8.1875 28.621094 8.214844 28.792969 C 8.226562 28.851562 8.238281 28.910156 8.246094 28.96875 C 8.246094 29.0625 8.296875 29.195312 8.121094 29.1875 C 7.992188 29.1875 7.851562 29.1875 7.855469 29 C 7.859375 28.898438 7.867188 28.792969 7.882812 28.691406 C 7.90625 28.539062 7.855469 28.476562 7.695312 28.457031 C 7.328125 28.414062 6.960938 28.464844 6.597656 28.46875 C 6.457031 28.46875 6.398438 28.546875 6.398438 28.683594 C 6.40625 28.769531 6.40625 28.855469 6.398438 28.941406 C 6.390625 29.050781 6.449219 29.210938 6.265625 29.222656 C 6.082031 29.234375 6.105469 29.082031 6.097656 28.960938 C 6.082031 28.859375 6.074219 28.757812 6.074219 28.652344 C 6.085938 28.519531 6.011719 28.484375 5.90625 28.484375 C 5.558594 28.476562 5.207031 28.472656 4.855469 28.472656 C 4.714844 28.472656 4.660156 28.566406 4.65625 28.695312 C 4.644531 29.164062 4.6875 29.257812 4.5625 29.257812 C 4.464844 29.257812 4.46875 29.152344 4.460938 29.078125 C 4.457031 29 4.457031 28.921875 4.460938 28.847656 C 4.472656 28.546875 4.277344 28.582031 4.078125 28.578125 C 3.75 28.570312 3.796875 28.570312 3.78125 28.257812 C 3.757812 27.691406 3.804688 27.132812 3.929688 26.582031 C 4.101562 25.730469 3.722656 24.765625 3.824219 24.597656 C 3.890625 24.671875 3.921875 24.757812 3.917969 24.855469 C 3.984375 25.382812 4.191406 25.894531 4.0625 26.4375 C 4.054688 26.480469 4.050781 26.539062 4.097656 26.550781 C 4.164062 26.574219 4.179688 26.503906 4.191406 26.457031 C 4.226562 26.289062 4.289062 26.121094 4.25 25.949219 C 4.1875 25.679688 4.230469 25.417969 4.261719 25.152344 C 4.261719 25.125 4.246094 25.089844 4.292969 25.074219 C 4.296875 25.101562 4.300781 25.125 4.304688 25.152344 C 4.269531 25.746094 4.46875 26.460938 4.453125 26.507812 C 4.34375 26.816406 4.398438 27.109375 4.53125 27.398438 C 4.5625 27.46875 4.515625 27.515625 4.445312 27.523438 C 4.386719 27.53125 4.324219 27.535156 4.265625 27.535156 C 3.917969 27.542969 3.859375 27.613281 3.910156 27.953125 C 3.917969 28.027344 3.9375 28.105469 3.941406 28.183594 C 3.941406 28.242188 3.964844 28.292969 4.011719 28.328125 C 4.054688 28.367188 4.109375 28.382812 4.167969 28.371094 C 4.542969 28.375 4.917969 28.359375 5.292969 28.324219 C 5.339844 28.316406 5.429688 28.328125 5.429688 28.285156 C 5.429688 28.21875 5.324219 28.261719 5.285156 28.210938 C 4.953125 28.226562 4.621094 28.246094 4.289062 28.253906 C 4.082031 28.253906 4.019531 28.144531 4.007812 27.859375 C 3.996094 27.570312 4.15625 27.683594 5.144531 27.582031 C 5.394531 27.554688 5.332031 27.710938 5.285156 28.210938 C 5.496094 28.078125 5.453125 27.855469 5.429688 27.675781 C 5.375 27.230469 5.628906 25.625 5.402344 23.632812 C 5.394531 23.546875 5.390625 23.460938 5.394531 23.375 C 5.410156 22.050781 5.269531 20.734375 5.269531 19.402344 C 5.269531 19 5.234375 18.597656 5.234375 18.191406 C 5.234375 18.144531 5.257812 18.070312 5.195312 18.0625 C 5.136719 18.050781 5.132812 18.125 5.121094 18.171875 C 4.996094 18.597656 5.171875 18.910156 5.285156 23.632812 C 5.296875 24.070312 5.378906 24.507812 5.371094 24.945312 C 5.355469 25.65625 5.441406 26.371094 5.332031 27.082031 C 5.3125 27.210938 5.34375 27.429688 5.203125 27.429688 C 5.066406 27.429688 5.085938 27.214844 5.082031 27.082031 C 5.015625 25.34375 5.042969 23.605469 5.023438 21.863281 C 5.011719 20.671875 4.964844 19.476562 4.9375 18.277344 C 4.9375 18.167969 4.878906 18.003906 5.019531 17.953125 C 5.214844 17.894531 5.40625 17.894531 5.601562 17.953125 C 5.667969 17.972656 5.65625 18.050781 5.667969 18.109375 C 5.710938 18.300781 5.640625 18.488281 5.644531 18.675781 C 5.65625 19.105469 5.621094 19.535156 5.679688 19.964844 C 5.726562 20.300781 5.628906 20.636719 5.644531 20.96875 C 5.703125 22.269531 5.671875 23.570312 5.703125 24.867188 C 5.714844 25.433594 5.808594 26 5.796875 26.566406 C 5.777344 27.199219 5.695312 27.359375 5.800781 27.355469 C 5.863281 27.355469 5.847656 27.277344 5.855469 27.230469 C 5.964844 26.480469 5.867188 25.738281 5.828125 24.992188 C 5.761719 23.691406 5.867188 22.4375 5.757812 21.222656 C 5.722656 20.808594 5.851562 20.398438 5.800781 19.988281 C 5.722656 19.34375 5.851562 18.699219 5.785156 18.054688 C 5.777344 17.992188 5.757812 17.921875 5.851562 17.925781 C 6.054688 17.925781 6.105469 17.9375 6.105469 18.207031 C 6.105469 19.085938 6.085938 19.964844 6.113281 20.84375 C 6.144531 21.902344 6.089844 22.957031 6.113281 24.015625 C 6.136719 25.054688 6.164062 26.089844 6.160156 27.136719 C 6.160156 27.199219 6.160156 27.324219 6.21875 27.3125 C 6.277344 27.296875 6.265625 27.214844 6.269531 27 C 6.304688 25.785156 6.207031 24.574219 6.222656 23.359375 C 6.226562 22.949219 6.285156 22.535156 6.257812 22.125 C 6.195312 21.15625 6.210938 18.492188 6.222656 18.148438 C 6.222656 18.078125 6.199219 17.972656 6.316406 17.972656 C 6.433594 17.972656 6.460938 18.054688 6.460938 18.148438 C 6.472656 18.492188 6.488281 18.835938 6.503906 19.179688 C 6.675781 23.019531 6.453125 22.480469 6.476562 23.535156 C 6.488281 23.96875 6.632812 26.933594 6.675781 27.269531 C 6.703125 27.457031 6.617188 27.488281 6.457031 27.480469 C 5.875 27.453125 5.667969 27.480469 5.691406 27.960938 C 5.707031 28.355469 5.71875 28.257812 7.175781 28.269531 C 7.386719 28.269531 7.351562 28.152344 7.351562 27.980469 C 7.351562 27.574219 7.351562 27.570312 6.941406 27.484375 C 6.84375 27.476562 6.785156 27.421875 6.769531 27.324219 C 6.75 27.25 6.738281 27.171875 6.734375 27.09375 C 6.734375 26.527344 6.734375 25.960938 6.6875 25.394531 C 6.660156 25.027344 6.671875 24.65625 6.632812 24.289062 C 6.527344 23.246094 6.765625 22.753906 6.660156 20.113281 C 6.636719 19.484375 6.574219 18.859375 6.578125 18.230469 C 6.578125 18.074219 6.605469 17.988281 6.796875 18.015625 C 6.988281 18.042969 7.015625 17.980469 6.910156 17.816406 C 6.589844 17.304688 6.273438 17.042969 6.609375 16.933594 C 7.0625 16.785156 7.457031 16.523438 7.84375 16.253906 C 8.40625 15.863281 9.015625 15.535156 9.566406 15.128906 C 9.898438 14.882812 10.296875 14.757812 10.628906 14.507812 C 10.761719 14.410156 10.746094 14.570312 10.746094 14.621094 C 10.75 14.855469 10.742188 15.085938 10.722656 15.320312 C 10.558594 16.714844 10.867188 17.035156 10.457031 17.414062 C 10.292969 17.5625 10.144531 17.730469 9.988281 17.894531 C 9.957031 17.921875 9.925781 17.964844 9.945312 18.007812 C 9.964844 18.046875 10.015625 18.015625 10.054688 18.007812 C 10.511719 17.921875 10.582031 17.960938 10.609375 18.429688 C 10.648438 19.066406 10.640625 19.703125 10.59375 20.339844 C 10.589844 20.398438 10.582031 20.457031 10.582031 20.515625 C 10.589844 21.824219 10.464844 23.132812 10.535156 24.4375 C 10.574219 25.238281 10.46875 26.902344 10.554688 27.21875 C 10.636719 27.539062 10.378906 27.453125 10.273438 27.476562 C 10.164062 27.5 10.035156 27.363281 9.988281 27.507812 C 9.976562 27.550781 10.171875 27.53125 10.273438 27.542969 C 10.457031 27.574219 10.648438 27.578125 10.835938 27.550781 C 10.929688 27.53125 11.046875 27.535156 11.058594 27.6875 C 11.082031 27.9375 11.019531 28.089844 10.867188 28.097656 C 10.574219 28.105469 10.289062 28.179688 9.996094 28.152344 C 9.882812 28.144531 9.730469 28.191406 9.683594 28.042969 C 9.621094 27.898438 9.628906 27.757812 9.710938 27.621094 C 9.734375 27.589844 9.824219 27.570312 9.738281 27.519531 C 9.667969 27.46875 9.617188 27.480469 9.582031 27.558594 C 9.519531 27.742188 9.515625 27.929688 9.570312 28.117188 C 9.605469 28.261719 9.757812 28.242188 9.875 28.257812 C 10.234375 28.308594 10.589844 28.230469 10.949219 28.203125 C 11.570312 28.15625 11.09375 25.175781 11.292969 22.230469 C 11.332031 21.714844 11.25 21.199219 11.230469 20.683594 C 11.21875 20.433594 11.210938 20.183594 11.207031 19.9375 C 11.199219 19.59375 11.222656 19.246094 11.160156 18.90625 C 11.117188 18.664062 11.199219 18.425781 11.207031 18.1875 C 11.207031 18.148438 11.222656 18.085938 11.171875 18.078125 C 11.117188 18.070312 11.101562 18.128906 11.101562 18.171875 C 11.097656 18.429688 11.015625 18.6875 11.054688 18.941406 C 11.085938 19.175781 11.097656 19.40625 11.09375 19.636719 C 11.078125 20.328125 11.140625 21.015625 11.179688 21.699219 C 11.21875 22.429688 11.085938 22.316406 11.144531 25.933594 C 11.152344 26.363281 11.199219 26.792969 11.1875 27.222656 C 11.1875 27.382812 11.1875 27.476562 11.046875 27.46875 C 10.980469 27.46875 10.972656 27.417969 10.976562 27.359375 C 11.070312 26.683594 10.902344 26.007812 10.976562 25.324219 C 11.03125 24.816406 10.96875 24.296875 10.894531 23.785156 C 10.75 22.804688 11.0625 22.574219 10.992188 18.214844 C 10.992188 18.011719 11.109375 17.984375 11.273438 17.984375 C 11.441406 17.984375 11.527344 18.078125 11.515625 18.238281 C 11.480469 18.734375 11.515625 19.234375 11.476562 19.734375 C 11.453125 20.066406 11.453125 20.402344 11.476562 20.734375 C 11.625 23.390625 11.425781 24.390625 11.457031 25.890625 C 11.464844 26.339844 11.503906 26.785156 11.488281 27.230469 C 11.480469 27.417969 11.355469 27.585938 11.394531 27.78125 C 11.40625 27.835938 11.375 27.929688 11.445312 27.933594 C 11.535156 27.941406 11.5 27.847656 11.503906 27.792969 C 11.53125 27.492188 11.558594 27.453125 11.855469 27.449219 C 12.164062 27.441406 12.472656 27.449219 12.777344 27.460938 C 12.863281 27.460938 13.003906 27.460938 13 27.585938 C 13 27.742188 13.042969 27.917969 12.9375 28.058594 C 12.894531 28.117188 12.8125 28.074219 12.746094 28.074219 C 11.472656 28.046875 11.492188 28.039062 11.488281 28.105469 C 11.484375 28.175781 11.5625 28.160156 11.605469 28.160156 C 12.042969 28.183594 12.480469 28.132812 12.914062 28.203125 C 13.027344 28.222656 13.089844 28.15625 13.101562 28.039062 C 13.113281 27.886719 13.125 27.730469 13.136719 27.578125 C 13.152344 27.441406 13.066406 27.402344 12.957031 27.375 C 12.363281 27.234375 11.90625 27.496094 11.921875 27.109375 C 11.957031 26.300781 11.828125 25.492188 11.882812 24.683594 C 11.933594 23.839844 12.011719 23 11.964844 22.15625 C 11.902344 20.996094 11.941406 19.835938 11.917969 18.671875 C 11.917969 18.5 11.882812 18.332031 11.871094 18.160156 C 11.871094 18.105469 11.835938 18.019531 11.917969 18.007812 C 12.003906 17.996094 12.011719 18.074219 12.011719 18.136719 C 12.011719 18.332031 12.050781 18.527344 12.054688 18.726562 C 12.070312 19.242188 11.96875 19.75 11.972656 20.265625 C 11.972656 20.6875 12.019531 21.105469 12.054688 21.527344 C 12.082031 21.886719 12.050781 22.246094 12.054688 22.609375 C 12.066406 23.242188 12.03125 23.878906 12.058594 24.515625 C 12.132812 26.203125 11.980469 27.199219 12.152344 27.183594 C 12.296875 27.171875 12.222656 26.988281 12.226562 26.882812 C 12.230469 26.246094 12.257812 25.609375 12.226562 24.972656 C 12.160156 23.746094 12.214844 22.511719 12.171875 21.28125 C 12.15625 20.757812 12.097656 20.234375 12.140625 19.710938 C 12.273438 18.074219 11.996094 18.039062 12.574219 17.980469 C 12.644531 17.976562 12.722656 17.980469 12.75 17.902344 C 12.773438 17.824219 12.714844 17.773438 12.664062 17.726562 C 12.546875 17.617188 12.222656 17.449219 12.230469 16.984375 C 12.246094 16.328125 12.28125 15.675781 12.324219 15.023438 C 12.355469 14.566406 12.265625 14.597656 12.230469 13.117188 C 12.226562 12.839844 12.246094 12.820312 12.527344 12.773438 C 12.566406 12.765625 12.621094 12.789062 12.644531 12.746094 C 12.675781 12.691406 12.617188 12.652344 12.582031 12.617188 C 12.34375 12.386719 12.105469 12.152344 11.859375 11.921875 C 11.640625 11.71875 11.652344 11.269531 11.890625 11.113281 C 13.050781 10.339844 14.234375 9.59375 15.34375 8.742188 C 15.496094 8.625 15.601562 8.628906 15.769531 8.726562 C 16.726562 9.285156 17.675781 9.851562 18.621094 10.425781 C 19.265625 10.8125 19.734375 11.085938 19.316406 11.691406 C 18.574219 12.769531 18.578125 12.519531 18.445312 12.769531 C 18.398438 12.851562 18.417969 12.898438 18.523438 12.886719 C 18.574219 12.882812 18.628906 12.878906 18.679688 12.875 C 18.828125 12.867188 18.902344 12.929688 18.898438 13.085938 C 18.898438 13.265625 18.898438 13.449219 18.898438 13.628906 C 18.910156 14.558594 18.921875 15.488281 18.945312 16.417969 C 18.964844 16.703125 18.882812 16.957031 18.695312 17.171875 C 18.527344 17.359375 18.378906 17.558594 18.222656 17.75 C 18.199219 17.785156 18.15625 17.816406 18.171875 17.859375 C 18.199219 17.929688 18.257812 17.890625 18.304688 17.886719 C 19.257812 17.839844 19.238281 17.78125 19.242188 18.128906 C 19.261719 18.824219 19.371094 19.507812 19.320312 20.210938 C 19.25 21.285156 19.335938 22.828125 19.308594 24.476562 C 19.296875 25.101562 19.394531 25.730469 19.355469 26.359375 C 19.335938 26.683594 19.296875 27.007812 19.339844 27.335938 C 19.359375 27.476562 19.402344 27.496094 19.523438 27.503906 C 19.804688 27.535156 20.085938 27.550781 20.367188 27.542969 C 20.539062 27.53125 20.617188 27.59375 20.675781 27.769531 C 20.765625 28.054688 20.8125 28.347656 20.820312 28.648438 C 20.820312 28.679688 20.847656 28.714844 20.8125 28.746094 C 20.730469 28.640625 20.796875 28.789062 20.617188 28.277344 C 20.601562 28.234375 20.609375 28.160156 20.53125 28.175781 C 20.484375 28.1875 20.492188 28.246094 20.492188 28.289062 C 20.492188 28.898438 20.503906 28.878906 20.453125 28.882812 C 20.4375 28.882812 20.398438 28.785156 20.390625 28.777344 C 20.324219 28.691406 20.332031 28.503906 20.222656 28.519531 C 20.109375 28.535156 20.167969 28.710938 20.132812 28.816406 C 20.117188 28.867188 20.128906 28.972656 20.039062 28.882812 C 19.839844 28.679688 19.84375 29.050781 19.75 28.992188 C 19.738281 28.984375 19.746094 28.945312 19.746094 28.921875 C 19.738281 28.847656 19.828125 28.722656 19.71875 28.707031 Z M 7.226562 27.902344 C 7.226562 28.027344 7.226562 28.15625 7.054688 28.15625 C 6.792969 28.160156 6.242188 28.15625 6.003906 28.15625 C 5.847656 28.15625 5.792969 28.074219 5.796875 27.933594 C 5.800781 27.789062 5.773438 27.632812 5.984375 27.59375 C 6.351562 27.523438 6.714844 27.59375 7.078125 27.601562 C 7.269531 27.613281 7.222656 27.785156 7.226562 27.90625 Z M 22.339844 25.683594 C 22.632812 25.703125 22.914062 25.617188 23.207031 25.632812 C 23.34375 25.640625 23.378906 25.539062 23.382812 25.425781 C 23.382812 25.253906 23.382812 25.082031 23.382812 24.910156 C 23.382812 24.136719 23.296875 23.878906 22.945312 23.390625 C 22.851562 23.253906 22.757812 23.257812 22.644531 23.328125 C 22.386719 23.496094 22.226562 23.730469 22.164062 24.035156 C 22.050781 24.476562 22.003906 24.929688 22.03125 25.386719 C 22.042969 25.597656 22.140625 25.675781 22.335938 25.6875 Z M 22.238281 25.496094 C 22.128906 25.457031 22.164062 25.355469 22.148438 25.277344 C 22.160156 25.234375 22.160156 25.15625 22.171875 25.164062 C 22.265625 25.226562 22.265625 25.335938 22.289062 25.433594 C 22.296875 25.46875 22.273438 25.511719 22.234375 25.496094 Z M 23.074219 23.8125 C 23.074219 23.828125 23.070312 23.84375 23.066406 23.855469 C 23.042969 23.84375 23.027344 23.828125 23.007812 23.808594 C 22.902344 23.679688 22.847656 23.503906 22.65625 23.464844 C 22.824219 23.449219 23.066406 23.652344 23.070312 23.8125 Z M 22.652344 23.464844 C 22.835938 23.753906 23.054688 24.015625 23.171875 24.347656 C 23.238281 24.535156 23.269531 24.730469 23.265625 24.929688 C 23.265625 24.953125 23.257812 25 23.253906 25 C 23.207031 25.003906 23.210938 24.957031 23.203125 24.929688 C 23.097656 24.480469 22.859375 24.089844 22.609375 23.710938 C 22.527344 23.59375 22.535156 23.527344 22.648438 23.464844 Z M 22.316406 24.054688 C 22.394531 24.019531 22.417969 24.125 22.453125 24.179688 C 22.679688 24.496094 22.816406 24.859375 22.964844 25.214844 C 22.992188 25.28125 23 25.421875 23.070312 25.394531 C 23.164062 25.355469 23.082031 25.242188 23.054688 25.167969 C 22.917969 24.777344 22.730469 24.410156 22.492188 24.070312 C 22.460938 24.027344 22.429688 23.984375 22.398438 23.941406 C 22.351562 23.871094 22.335938 23.785156 22.414062 23.738281 C 22.488281 23.6875 22.527344 23.78125 22.5625 23.832031 C 22.78125 24.152344 22.949219 24.5 23.070312 24.871094 C 23.109375 25 23.164062 25.128906 23.207031 25.257812 C 23.273438 25.453125 23.234375 25.511719 23.011719 25.515625 C 22.957031 25.527344 22.90625 25.515625 22.863281 25.484375 C 22.816406 25.449219 22.792969 25.40625 22.785156 25.347656 C 22.6875 25.015625 22.546875 24.703125 22.355469 24.414062 C 22.324219 24.371094 22.296875 24.328125 22.277344 24.28125 C 22.246094 24.199219 22.222656 24.097656 22.316406 24.054688 Z M 22.222656 24.472656 C 22.339844 24.5 22.367188 24.605469 22.410156 24.691406 C 22.503906 24.902344 22.59375 25.117188 22.675781 25.328125 C 22.703125 25.394531 22.710938 25.46875 22.625 25.503906 C 22.550781 25.546875 22.488281 25.53125 22.445312 25.457031 C 22.339844 25.234375 22.25 25.003906 22.15625 24.785156 Z M 8.554688 27.492188 C 8.289062 27.496094 7.691406 27.445312 7.65625 27.6875 C 7.636719 27.847656 7.613281 28.015625 7.695312 28.164062 C 7.722656 28.210938 7.722656 28.214844 9.011719 28.316406 C 9.054688 28.316406 9.128906 28.328125 9.125 28.253906 C 9.125 28.203125 9.144531 28.222656 7.945312 28.117188 C 7.878906 28.109375 7.808594 28.136719 7.769531 28.050781 C 7.675781 27.84375 7.785156 27.625 8.007812 27.613281 C 8.3125 27.597656 8.621094 27.601562 8.929688 27.601562 C 9.304688 27.597656 9.023438 28.054688 9.210938 28.0625 C 9.285156 28.0625 9.246094 27.886719 9.246094 27.789062 C 9.25 27.476562 9.257812 27.476562 8.546875 27.492188 Z M 9.191406 24.898438 C 9.191406 24.726562 9.207031 24.550781 9.191406 24.382812 C 9.15625 24.046875 9.097656 23.722656 8.894531 23.4375 C 8.667969 23.117188 8.460938 23.097656 8.246094 23.433594 C 7.847656 24.046875 7.722656 24.714844 7.863281 25.433594 C 7.886719 25.574219 7.96875 25.640625 8.113281 25.628906 C 8.402344 25.636719 8.695312 25.636719 8.984375 25.640625 C 9.042969 25.652344 9.097656 25.636719 9.140625 25.59375 C 9.183594 25.550781 9.199219 25.5 9.191406 25.4375 C 9.191406 25.257812 9.191406 25.078125 9.191406 24.898438 Z M 8.113281 25.507812 C 8.007812 25.496094 7.964844 25.441406 7.976562 25.335938 C 7.976562 25.222656 7.90625 25.117188 7.953125 25 C 8.023438 25.085938 8.074219 25.179688 8.109375 25.285156 C 8.136719 25.355469 8.234375 25.441406 8.109375 25.507812 Z M 8.617188 25.488281 C 8.53125 25.546875 8.398438 25.550781 8.351562 25.488281 C 8.175781 25.242188 8.042969 24.96875 7.953125 24.679688 C 7.953125 24.644531 7.953125 24.609375 7.960938 24.574219 C 7.972656 24.542969 7.960938 24.496094 7.996094 24.488281 C 8.027344 24.480469 8.046875 24.527344 8.058594 24.558594 C 8.171875 24.808594 8.269531 25.0625 8.355469 25.324219 C 8.367188 25.363281 8.371094 25.425781 8.425781 25.417969 C 8.492188 25.40625 8.472656 25.335938 8.460938 25.292969 C 8.371094 25.011719 8.257812 24.742188 8.128906 24.484375 C 8.097656 24.433594 8.070312 24.378906 8.046875 24.324219 C 8.011719 24.230469 8.019531 24.105469 8.097656 24.070312 C 8.175781 24.03125 8.203125 24.164062 8.238281 24.222656 C 8.398438 24.574219 8.53125 24.9375 8.636719 25.308594 C 8.652344 25.367188 8.675781 25.441406 8.609375 25.488281 Z M 8.855469 25.488281 C 8.796875 25.496094 8.785156 25.421875 8.773438 25.375 C 8.640625 24.875 8.445312 24.398438 8.195312 23.945312 C 8.15625 23.875 8.121094 23.804688 8.195312 23.738281 C 8.246094 23.738281 8.265625 23.785156 8.289062 23.820312 C 8.578125 24.292969 8.78125 24.800781 8.902344 25.339844 C 8.914062 25.398438 8.933594 25.476562 8.847656 25.484375 Z M 9.066406 25.429688 C 9.023438 25.40625 9.023438 25.355469 9.015625 25.316406 C 8.890625 24.757812 8.675781 24.238281 8.367188 23.753906 C 8.285156 23.628906 8.234375 23.5 8.421875 23.414062 C 8.46875 23.3125 8.527344 23.34375 8.574219 23.414062 C 8.78125 23.691406 8.925781 24 9.007812 24.339844 C 9.007812 24.363281 9.007812 24.386719 9.007812 24.410156 C 8.960938 24.410156 8.960938 24.371094 8.949219 24.34375 C 8.832031 24.101562 8.722656 23.859375 8.605469 23.625 C 8.5625 23.542969 8.535156 23.441406 8.425781 23.421875 C 8.488281 23.636719 8.582031 23.839844 8.707031 24.027344 C 8.929688 24.425781 8.988281 24.875 9.082031 25.308594 C 9.078125 25.347656 9.074219 25.386719 9.0625 25.425781 Z M 9.835938 18.671875 C 9.585938 18.117188 8.851562 17.703125 8.246094 17.796875 C 7.976562 17.835938 7.691406 17.890625 7.507812 18.117188 C 7.226562 18.453125 7.019531 18.828125 7.082031 19.351562 C 7.082031 19.371094 7.082031 19.445312 7.082031 19.523438 C 7.121094 20.089844 7.386719 20.515625 7.910156 20.722656 C 9.160156 21.214844 10.484375 20.101562 9.832031 18.667969 Z M 7.191406 19.078125 C 7.242188 18.429688 7.664062 17.886719 8.46875 17.941406 C 9.160156 17.882812 9.925781 18.558594 9.859375 19.453125 C 9.800781 20.316406 9.289062 20.734375 8.316406 20.714844 C 7.726562 20.703125 7.089844 20.199219 7.183594 19.074219 Z M 9.453125 19.363281 C 9.457031 19.230469 9.429688 19.097656 9.378906 18.972656 C 9.328125 18.851562 9.257812 18.738281 9.164062 18.644531 C 9.070312 18.546875 8.960938 18.472656 8.835938 18.421875 C 8.714844 18.367188 8.585938 18.34375 8.453125 18.339844 C 7.972656 18.339844 7.546875 18.832031 7.542969 19.390625 C 7.542969 19.972656 7.894531 20.300781 8.539062 20.308594 C 8.792969 20.304688 9.011719 20.210938 9.191406 20.027344 C 9.367188 19.839844 9.453125 19.621094 9.449219 19.363281 Z M 7.65625 19.378906 C 7.714844 18.894531 7.910156 18.457031 8.488281 18.460938 C 9.425781 18.472656 9.800781 20.066406 8.417969 20.179688 C 7.949219 20.21875 7.648438 19.871094 7.648438 19.378906 Z M 19.386719 28.519531 C 19.117188 28.46875 18.84375 28.464844 18.570312 28.507812 C 18.121094 28.488281 18.070312 28.539062 18.078125 28.921875 C 18.078125 29.0625 18.078125 29.125 18.136719 29.121094 C 18.191406 29.117188 18.179688 29.0625 18.183594 29.019531 C 18.203125 28.804688 18.117188 28.636719 18.464844 28.625 C 18.773438 28.613281 19.078125 28.613281 19.382812 28.632812 C 19.429688 28.632812 19.503906 28.648438 19.507812 28.582031 C 19.511719 28.515625 19.429688 28.527344 19.382812 28.519531 Z M 8.28125 19.023438 C 8.269531 19.011719 8.25 19.011719 8.226562 19 C 8.183594 19.03125 8.195312 19.070312 8.226562 19.105469 C 8.40625 19.300781 8.566406 19.511719 8.707031 19.738281 C 8.753906 19.816406 8.816406 19.785156 8.785156 19.699219 C 8.675781 19.429688 8.46875 19.230469 8.28125 19.023438 Z M 8.511719 18.851562 C 8.503906 18.871094 8.488281 18.902344 8.496094 18.914062 C 8.605469 19.125 8.738281 19.324219 8.886719 19.511719 C 8.894531 19.523438 8.929688 19.519531 8.953125 19.519531 C 8.960938 19.519531 8.960938 19.492188 8.972656 19.457031 C 8.839844 19.269531 8.699219 19.0625 8.558594 18.863281 C 8.550781 18.851562 8.515625 18.847656 8.511719 18.851562 Z M 8.878906 22.816406 C 8.753906 22.644531 8.59375 22.59375 8.394531 22.667969 C 7.96875 22.792969 7.679688 23.0625 7.578125 23.507812 C 7.503906 23.8125 7.472656 24.121094 7.484375 24.433594 C 7.476562 24.875 7.550781 25.292969 7.539062 25.714844 C 7.53125 25.953125 7.617188 26.015625 7.855469 25.996094 C 8.289062 25.957031 8.722656 25.941406 9.15625 25.953125 C 9.425781 25.960938 9.425781 25.941406 9.457031 25.671875 C 9.519531 25.179688 9.480469 24.691406 9.445312 24.203125 C 9.40625 23.679688 9.21875 23.214844 8.878906 22.816406 Z M 9.332031 24.90625 C 9.332031 25.128906 9.328125 25.351562 9.332031 25.578125 C 9.339844 25.757812 9.273438 25.839844 9.082031 25.839844 C 8.664062 25.839844 8.242188 25.808594 7.828125 25.875 C 7.722656 25.886719 7.652344 25.839844 7.660156 25.734375 C 7.683594 25.046875 7.515625 24.363281 7.660156 23.675781 C 7.734375 23.296875 7.890625 22.996094 8.265625 22.84375 C 8.535156 22.730469 8.703125 22.785156 8.886719 23.019531 C 9.390625 23.65625 9.332031 24.371094 9.332031 24.90625 Z M 16.808594 28.113281 C 16.640625 28.113281 16.46875 28.113281 16.296875 28.113281 L 16.296875 28.105469 C 16.121094 28.105469 15.941406 28.105469 15.761719 28.105469 C 15.644531 28.105469 15.695312 28.195312 15.742188 28.203125 C 16.101562 28.226562 16.457031 28.230469 16.816406 28.210938 C 16.84375 28.210938 16.863281 28.195312 16.875 28.171875 C 16.886719 28.125 16.84375 28.121094 16.808594 28.117188 Z M 17.71875 27.507812 C 18.019531 27.480469 18.316406 27.546875 18.613281 27.511719 C 18.910156 27.480469 18.699219 27.800781 18.757812 28.03125 C 18.769531 28.078125 18.792969 28.144531 18.859375 28.082031 C 18.941406 28.007812 18.890625 27.488281 18.785156 27.441406 C 18.527344 27.332031 18.628906 27.144531 18.640625 26.667969 C 18.683594 25.160156 18.601562 23.660156 18.398438 22.164062 C 18.183594 20.609375 17.320312 19.589844 15.902344 18.992188 C 15.40625 18.785156 14.984375 18.929688 14.632812 19.269531 C 12.730469 21.109375 13.023438 23.265625 13.039062 26.328125 C 13.039062 26.550781 13.0625 26.773438 13.082031 26.996094 C 13.082031 27.054688 13.082031 27.148438 13.140625 27.148438 C 13.230469 27.140625 13.191406 27.039062 13.195312 26.980469 C 13.203125 26.917969 13.175781 26.265625 13.175781 25.792969 C 13.175781 25.175781 13.21875 24.554688 13.175781 23.9375 C 13.136719 23.414062 13.164062 22.890625 13.257812 22.371094 C 13.425781 21.484375 13.589844 20.589844 14.230469 19.886719 C 14.523438 19.566406 14.925781 18.855469 15.6875 19.035156 C 16.769531 19.296875 18.027344 20.414062 18.253906 21.945312 C 18.417969 23.140625 18.511719 24.339844 18.535156 25.542969 C 18.550781 26.035156 18.476562 26.523438 18.488281 27.015625 C 18.492188 27.390625 18.492188 27.390625 18.109375 27.378906 C 17.839844 27.371094 17.839844 27.359375 17.828125 27.074219 C 17.800781 26.519531 18.042969 25.695312 17.699219 22.90625 C 17.550781 21.679688 16.824219 20.90625 15.902344 20.242188 C 15.496094 19.945312 15.234375 20.414062 14.914062 20.765625 C 14.320312 21.414062 14.007812 22.179688 13.976562 23.0625 C 13.804688 27.339844 14.019531 27.351562 13.757812 27.335938 C 13.617188 27.328125 13.445312 27.34375 13.425781 27.507812 C 13.40625 27.707031 13.300781 27.933594 13.507812 28.105469 C 13.523438 27.257812 13.464844 27.484375 14.210938 27.445312 C 14.390625 27.433594 14.574219 27.484375 14.746094 27.464844 C 14.9375 27.441406 14.953125 27.519531 14.949219 27.675781 C 14.933594 28.089844 14.941406 28.074219 14.53125 28.066406 C 14.1875 28.058594 13.847656 28.09375 13.507812 28.109375 C 13.609375 28.351562 14.28125 28.09375 14.847656 28.207031 C 15.007812 28.242188 15.078125 28.132812 15.074219 27.972656 C 15.066406 27.84375 15.058594 27.714844 15.054688 27.585938 C 15.054688 27.417969 14.988281 27.332031 14.800781 27.363281 C 14.613281 27.390625 14.5 27.300781 14.492188 27.089844 C 14.480469 26.804688 14.445312 26.523438 14.441406 26.238281 C 14.417969 25.09375 14.472656 23.949219 14.386719 22.808594 C 14.335938 22.148438 14.378906 21.515625 14.878906 21.007812 C 14.917969 20.96875 14.933594 20.878906 15.003906 20.902344 C 15.074219 20.929688 15.042969 21.007812 15.046875 21.066406 C 15.0625 21.390625 15.050781 21.71875 15.070312 22.042969 C 15.105469 22.644531 15.238281 23.242188 15.1875 23.84375 C 15.117188 24.664062 15.15625 25.480469 15.148438 26.300781 C 15.148438 26.617188 15.179688 26.933594 15.199219 27.253906 C 15.199219 27.289062 15.191406 27.351562 15.246094 27.351562 C 15.300781 27.351562 15.300781 27.292969 15.300781 27.253906 C 15.347656 26.703125 15.253906 26.378906 15.257812 25.964844 C 15.269531 25.242188 15.269531 24.519531 15.296875 23.792969 C 15.324219 22.890625 15.15625 21.992188 15.195312 21.089844 C 15.195312 20.964844 14.996094 20.699219 15.476562 20.328125 C 15.5625 20.25 15.65625 20.234375 15.765625 20.285156 C 15.871094 20.335938 15.917969 20.417969 15.914062 20.535156 C 15.917969 21.34375 16.027344 22.148438 16.058594 22.953125 C 16.109375 24.335938 16.070312 25.726562 16.074219 27.113281 C 16.074219 27.285156 16.023438 27.371094 15.835938 27.402344 C 15.460938 27.457031 15.398438 27.546875 15.410156 27.925781 C 15.410156 27.996094 15.394531 28.113281 15.480469 28.113281 C 15.546875 28.113281 15.515625 27.996094 15.519531 27.933594 C 15.542969 27.5625 15.601562 27.5 15.96875 27.492188 C 16.230469 27.488281 16.496094 27.492188 16.761719 27.492188 C 16.921875 27.492188 16.996094 27.566406 16.996094 27.726562 C 16.996094 27.839844 16.996094 27.949219 17 28.0625 C 17 28.144531 17.085938 28.15625 17.09375 28.0625 C 17.171875 27.285156 16.984375 27.859375 16.964844 26.554688 C 16.949219 25.21875 16.953125 23.886719 16.957031 22.554688 C 16.957031 22.207031 16.902344 21.867188 16.90625 21.523438 C 16.90625 21.46875 16.871094 21.386719 16.945312 21.367188 C 16.996094 21.351562 17.015625 21.425781 17.050781 21.464844 C 17.425781 21.902344 17.511719 22.394531 17.652344 23.433594 C 17.824219 24.6875 17.746094 25.941406 17.714844 27.195312 C 17.714844 27.296875 17.671875 27.367188 17.574219 27.386719 C 17.304688 27.425781 17.257812 27.617188 17.257812 27.839844 C 17.257812 27.933594 17.21875 28.109375 17.3125 28.109375 C 17.40625 28.109375 17.363281 27.941406 17.367188 27.847656 C 17.378906 27.570312 17.4375 27.535156 17.71875 27.511719 Z M 14.339844 27.308594 C 14.25 27.347656 14.15625 27.351562 14.066406 27.316406 C 13.960938 27.28125 14.003906 27.195312 14.003906 27.121094 C 14.003906 26.769531 14.003906 26.417969 14.003906 26.066406 C 14.015625 24.914062 14.117188 23.769531 14.175781 22.621094 C 14.171875 22.519531 14.195312 22.421875 14.242188 22.328125 C 14.292969 22.421875 14.261719 22.523438 14.265625 22.621094 C 14.359375 24.554688 14.265625 26.222656 14.359375 27.097656 C 14.371094 27.175781 14.433594 27.261719 14.34375 27.3125 Z M 16.570312 27.375 C 16.429688 27.359375 16.160156 27.515625 16.175781 27.230469 C 16.21875 26.445312 16.179688 25.664062 16.1875 24.882812 C 16.191406 23.984375 16.238281 23.078125 16.09375 22.179688 C 16.011719 21.691406 16.039062 21.183594 16.019531 20.6875 C 16.019531 20.636719 16.003906 20.574219 16.050781 20.542969 C 16.101562 20.515625 16.144531 20.574219 16.179688 20.601562 C 16.582031 20.910156 16.769531 21.074219 16.800781 21.664062 C 16.855469 22.675781 16.8125 23.679688 16.839844 24.6875 C 16.859375 25.527344 16.808594 26.371094 16.855469 27.214844 C 16.875 27.464844 16.679688 27.394531 16.570312 27.378906 Z M 18.632812 28.269531 C 18.664062 28.269531 18.707031 28.269531 18.710938 28.222656 C 18.714844 28.179688 18.671875 28.167969 18.640625 28.167969 C 18.460938 28.167969 18.28125 28.167969 18.101562 28.167969 L 18.101562 28.164062 C 17.949219 28.164062 17.792969 28.164062 17.640625 28.164062 C 17.59375 28.164062 17.523438 28.164062 17.511719 28.21875 C 17.5 28.304688 17.585938 28.304688 17.636719 28.308594 C 17.976562 28.34375 18.304688 28.253906 18.636719 28.273438 Z M 16.25 16.714844 C 16.332031 16.714844 16.414062 16.714844 16.421875 16.609375 C 16.425781 16.503906 16.363281 16.460938 16.265625 16.4375 C 16.125 16.402344 15.949219 16.523438 15.855469 16.398438 C 15.757812 16.273438 15.839844 16.117188 15.820312 15.96875 C 15.8125 15.894531 15.792969 15.832031 15.703125 15.832031 C 15.613281 15.828125 15.570312 15.871094 15.566406 15.960938 C 15.554688 16.0625 15.546875 16.164062 15.550781 16.269531 C 15.550781 16.421875 15.484375 16.492188 15.332031 16.484375 C 15.230469 16.476562 15.128906 16.46875 15.027344 16.464844 C 14.921875 16.464844 14.882812 16.546875 14.890625 16.640625 C 14.902344 16.738281 14.957031 16.769531 15.054688 16.734375 C 15.121094 16.71875 15.1875 16.707031 15.253906 16.703125 C 15.425781 16.679688 15.507812 16.710938 15.515625 16.929688 C 15.535156 17.453125 15.546875 17.976562 15.558594 18.5 C 15.558594 18.578125 15.535156 18.695312 15.664062 18.6875 C 15.902344 18.683594 15.867188 18.488281 15.871094 18.320312 C 15.878906 17.953125 15.863281 17.589844 15.824219 17.226562 C 15.816406 16.714844 15.816406 16.714844 16.25 16.714844 Z M 15.863281 14.378906 C 16.597656 14.238281 17.242188 13.441406 17.21875 12.742188 C 17.203125 12.167969 17.09375 11.691406 16.679688 11.328125 C 16.039062 10.761719 15.109375 10.703125 14.523438 11.210938 C 14.074219 11.597656 13.890625 12.117188 13.878906 12.679688 C 13.859375 13.09375 13.976562 13.464844 14.226562 13.792969 C 14.648438 14.324219 15.191406 14.507812 15.863281 14.378906 Z M 13.988281 12.597656 C 14.003906 12.109375 14.179688 11.691406 14.523438 11.34375 C 14.789062 11.074219 15.113281 10.964844 15.488281 11.011719 C 16.078125 11.023438 16.535156 11.222656 16.851562 11.679688 C 17.007812 11.933594 17.089844 12.207031 17.089844 12.507812 C 17.089844 12.574219 17.089844 12.640625 17.097656 12.710938 C 17.113281 12.886719 17.089844 13.058594 17.027344 13.226562 C 17.015625 13.253906 17.003906 13.277344 16.992188 13.300781 C 16.953125 13.382812 16.90625 13.464844 16.851562 13.539062 C 16.777344 13.640625 16.703125 13.734375 16.621094 13.832031 C 16.546875 13.925781 16.457031 14.011719 16.359375 14.078125 C 16.230469 14.15625 16.09375 14.210938 15.953125 14.242188 C 15.828125 14.277344 15.699219 14.300781 15.570312 14.308594 C 15.316406 14.328125 15.074219 14.28125 14.839844 14.171875 C 14.65625 14.078125 14.496094 13.953125 14.359375 13.792969 C 14.066406 13.445312 13.945312 13.046875 13.988281 12.597656 Z M 14.832031 12.945312 C 14.902344 12.945312 14.972656 12.9375 15.042969 12.921875 C 14.929688 13.007812 14.824219 13.101562 14.730469 13.207031 C 14.625 13.328125 14.539062 13.5625 14.738281 13.640625 C 14.960938 13.730469 15.207031 13.527344 15.335938 13.359375 C 15.308594 13.421875 15.296875 13.492188 15.296875 13.5625 C 15.316406 13.746094 15.5625 13.804688 15.710938 13.765625 C 15.925781 13.714844 15.976562 13.484375 15.953125 13.285156 C 15.953125 13.269531 15.949219 13.253906 15.945312 13.242188 C 15.960938 13.253906 15.976562 13.269531 15.992188 13.285156 C 16.121094 13.398438 16.351562 13.488281 16.5 13.347656 C 16.648438 13.203125 16.484375 13.003906 16.375 12.902344 C 16.304688 12.84375 16.230469 12.796875 16.152344 12.757812 C 16.265625 12.773438 16.375 12.75 16.480469 12.695312 C 16.570312 12.648438 16.632812 12.574219 16.664062 12.476562 C 16.695312 12.378906 16.691406 12.28125 16.644531 12.1875 C 16.539062 11.992188 16.316406 11.859375 16.113281 11.984375 C 16.070312 12.011719 16.03125 12.042969 15.996094 12.078125 C 16.046875 11.960938 16.070312 11.835938 16.066406 11.710938 C 16.066406 11.578125 16.015625 11.410156 15.851562 11.433594 C 15.703125 11.457031 15.609375 11.640625 15.554688 11.761719 C 15.503906 11.878906 15.472656 12.003906 15.460938 12.132812 C 15.40625 12.007812 15.324219 11.894531 15.222656 11.804688 C 15.121094 11.6875 14.996094 11.644531 14.84375 11.675781 C 14.714844 11.699219 14.652344 11.777344 14.65625 11.914062 C 14.667969 12.054688 14.808594 12.148438 14.910156 12.226562 C 14.980469 12.28125 15.058594 12.351562 15.136719 12.414062 C 14.972656 12.351562 14.804688 12.335938 14.628906 12.363281 C 14.472656 12.398438 14.171875 12.503906 14.21875 12.722656 C 14.265625 12.941406 14.660156 12.945312 14.832031 12.945312 Z M 15.621094 13.71875 C 15.582031 13.71875 15.542969 13.714844 15.503906 13.699219 C 15.394531 13.664062 15.375 13.519531 15.394531 13.421875 C 15.414062 13.324219 15.449219 13.25 15.472656 13.167969 C 15.523438 13.011719 15.5625 12.855469 15.59375 12.695312 C 15.816406 12.867188 16.074219 13.644531 15.621094 13.71875 Z M 16.34375 12.96875 C 16.386719 13 16.421875 13.042969 16.445312 13.089844 C 16.472656 13.125 16.480469 13.386719 16.3125 13.355469 C 16.140625 13.367188 16.003906 13.222656 15.898438 13.09375 C 15.824219 12.941406 15.730469 12.800781 15.617188 12.667969 C 15.796875 12.699219 15.972656 12.75 16.140625 12.828125 C 16.214844 12.863281 16.285156 12.910156 16.347656 12.96875 Z M 16.496094 12.113281 C 16.75 12.347656 16.5625 12.679688 16.25 12.699219 C 16.0625 12.710938 15.898438 12.605469 15.722656 12.566406 C 15.777344 12.5 15.824219 12.429688 15.863281 12.351562 C 16.042969 12.109375 16.238281 11.871094 16.5 12.113281 Z M 15.652344 11.71875 C 15.675781 11.671875 15.722656 11.566406 15.769531 11.550781 C 15.863281 11.523438 16.023438 11.527344 16.007812 11.769531 C 15.992188 11.910156 15.953125 12.046875 15.886719 12.175781 C 15.855469 12.246094 15.820312 12.3125 15.777344 12.378906 C 15.746094 12.425781 15.710938 12.472656 15.671875 12.515625 C 15.59375 12.554688 15.546875 12.535156 15.527344 12.453125 C 15.472656 12.191406 15.515625 11.945312 15.652344 11.71875 Z M 15.351562 13.226562 C 15.296875 13.316406 15.25 13.417969 15.15625 13.460938 C 14.632812 13.695312 14.703125 13.382812 14.714844 13.34375 C 14.746094 13.289062 14.785156 13.242188 14.832031 13.199219 C 14.890625 13.140625 14.953125 13.089844 15.019531 13.042969 C 15.097656 12.980469 15.175781 12.921875 15.253906 12.863281 C 15.34375 12.828125 15.421875 12.777344 15.496094 12.714844 C 15.464844 12.890625 15.414062 13.0625 15.351562 13.226562 Z M 14.804688 12.046875 C 14.742188 11.988281 14.726562 11.917969 14.761719 11.839844 C 14.796875 11.757812 14.859375 11.722656 14.945312 11.730469 C 15.027344 11.742188 15.101562 11.777344 15.164062 11.835938 C 15.277344 11.933594 15.363281 12.050781 15.421875 12.191406 C 15.445312 12.261719 15.4375 12.429688 15.472656 12.535156 L 15.410156 12.511719 C 15.316406 12.457031 15.230469 12.394531 15.148438 12.324219 C 15.027344 12.242188 14.910156 12.148438 14.804688 12.046875 Z M 14.3125 12.613281 C 14.398438 12.425781 14.792969 12.402344 14.953125 12.4375 C 15.09375 12.476562 15.234375 12.519531 15.367188 12.570312 C 15.40625 12.589844 15.441406 12.605469 15.484375 12.613281 L 15.488281 12.625 C 15.394531 12.6875 15.289062 12.753906 15.191406 12.824219 C 15.128906 12.84375 15.070312 12.859375 15.007812 12.871094 C 14.910156 12.882812 14.8125 12.886719 14.714844 12.882812 C 14.605469 12.871094 14.203125 12.863281 14.3125 12.609375 Z M 14.148438 14.460938 C 14.6875 14.953125 15.316406 15.058594 16.035156 14.929688 C 17.179688 14.742188 17.886719 13.894531 17.875 12.605469 C 17.867188 12.207031 17.773438 11.835938 17.585938 11.488281 C 17.402344 11.140625 17.148438 10.851562 16.824219 10.628906 C 16.25 10.207031 15.605469 10.007812 14.878906 10.320312 C 14.363281 10.523438 13.949219 10.851562 13.632812 11.308594 C 13.285156 11.839844 13.242188 12.425781 13.359375 13.042969 C 13.460938 13.605469 13.726562 14.074219 14.148438 14.453125 Z M 13.804688 11.246094 C 14.316406 10.613281 14.964844 10.1875 15.800781 10.320312 C 16.179688 10.371094 16.519531 10.511719 16.824219 10.742188 C 17.128906 10.972656 17.355469 11.265625 17.507812 11.617188 C 17.851562 12.375 17.816406 13.128906 17.484375 13.859375 C 17.296875 14.242188 17.003906 14.507812 16.609375 14.660156 C 16.242188 14.8125 15.851562 14.855469 15.457031 14.890625 C 14.78125 14.867188 14.289062 14.523438 13.882812 14.007812 C 13.371094 13.359375 13.210938 11.96875 13.800781 11.242188 Z M 13.804688 11.246094 " fill-opacity="1" fill-rule="nonzero"/></g></svg>