<svg xmlns="http://www.w3.org/2000/svg" xmlns:xlink="http://www.w3.org/1999/xlink" width="40" zoomAndPan="magnify" viewBox="0 0 30 30.000001" height="40" preserveAspectRatio="xMidYMid meet" version="1.0"><defs><clipPath id="5a4f5f9005"><path d="M 27 29 L 29 29 L 29 29.03125 L 27 29.03125 Z M 27 29 " clip-rule="nonzero"/></clipPath><clipPath id="8c2c5404fb"><path d="M 1 4.511719 L 12 4.511719 L 12 10 L 1 10 Z M 1 4.511719 " clip-rule="nonzero"/></clipPath><clipPath id="70e6099ea9"><path d="M 19 4.511719 L 29 4.511719 L 29 10 L 19 10 Z M 19 4.511719 " clip-rule="nonzero"/></clipPath><clipPath id="078976f41e"><path d="M 9 14 L 21 14 L 21 24.835938 L 9 24.835938 Z M 9 14 " clip-rule="nonzero"/></clipPath><clipPath id="957bc8ea56"><path d="M 12 16 L 18 16 L 18 24.835938 L 12 24.835938 Z M 12 16 " clip-rule="nonzero"/></clipPath><clipPath id="dcc1b884f0"><path d="M 20 16 L 29.515625 16 L 29.515625 21 L 20 21 Z M 20 16 " clip-rule="nonzero"/></clipPath><clipPath id="22e6d7adc2"><path d="M 20 18 L 28 18 L 28 24.835938 L 20 24.835938 Z M 20 18 " clip-rule="nonzero"/></clipPath><clipPath id="c08391b48b"><path d="M 21 19 L 26 19 L 26 24.835938 L 21 24.835938 Z M 21 19 " clip-rule="nonzero"/></clipPath><clipPath id="d3786aff8d"><path d="M 0.484375 16 L 10 16 L 10 21 L 0.484375 21 Z M 0.484375 16 " clip-rule="nonzero"/></clipPath><clipPath id="9aa1c9b9bf"><path d="M 2 18 L 10 18 L 10 24.835938 L 2 24.835938 Z M 2 18 " clip-rule="nonzero"/></clipPath><clipPath id="16c91abcb5"><path d="M 4 19 L 9 19 L 9 24.835938 L 4 24.835938 Z M 4 19 " clip-rule="nonzero"/></clipPath></defs><g clip-path="url(#5a4f5f9005)"><path fill="#000000" d="M 28.648438 29.320312 C 28.621094 29.179688 28.445312 29.203125 28.359375 29.328125 C 28.105469 29.695312 27.980469 28.976562 27.738281 29.203125 C 27.613281 29.324219 27.859375 29.914062 28.027344 30.078125 C 28.058594 30.109375 28.105469 30.113281 28.140625 30.085938 C 28.410156 29.882812 28.667969 29.433594 28.648438 29.320312 Z M 28.851562 29.355469 C 28.898438 29.652344 28.496094 30.3125 28.175781 30.371094 C 27.976562 30.40625 27.726562 29.820312 27.648438 29.605469 C 27.582031 29.421875 27.542969 29.125 27.761719 29.074219 C 27.960938 29.027344 28.09375 29.199219 28.214844 29.332031 C 28.46875 29.117188 28.777344 28.855469 28.851562 29.355469 " fill-opacity="1" fill-rule="nonzero"/></g><g clip-path="url(#8c2c5404fb)"><path stroke-linecap="round" transform="matrix(0.0102082, 0, 0, -0.0103703, -6.702736, 36.737273)" fill="none" stroke-linejoin="round" d="M 827.647361 2661.880977 L 1272.293907 3075.849289 L 1717.32311 2661.880977 " stroke="#231f1f" stroke-width="56.759998" stroke-opacity="1" stroke-miterlimit="10"/></g><path stroke-linecap="round" transform="matrix(0.0102082, 0, 0, -0.0103703, -6.702736, 36.737273)" fill="none" stroke-linejoin="round" d="M 1546.275772 2813.305236 L 1546.275772 1935.647213 L 998.312042 1732.241491 L 998.312042 2813.305236 " stroke="#231f1f" stroke-width="56.759998" stroke-opacity="1" stroke-miterlimit="10"/><path stroke-linecap="round" transform="matrix(0.0102082, 0, 0, -0.0103703, -6.702736, 36.737273)" fill="none" stroke-linejoin="round" d="M 1382.881559 2462.242027 L 1382.881559 2657.360849 C 1382.881559 2718.382566 1333.518905 2767.727288 1272.293907 2767.727288 C 1211.451566 2767.727288 1162.088911 2718.382566 1162.088911 2657.360849 L 1162.088911 2462.242027 Z M 1382.881559 2462.242027 " stroke="#231f1f" stroke-width="56.759998" stroke-opacity="1" stroke-miterlimit="10"/><path stroke-linecap="round" transform="matrix(0.0102082, 0, 0, -0.0103703, -6.702736, 36.737273)" fill="none" stroke-linejoin="round" d="M 1115.022194 2462.242027 L 1429.948276 2462.242027 " stroke="#231f1f" stroke-width="56.759998" stroke-opacity="1" stroke-miterlimit="10"/><g clip-path="url(#70e6099ea9)"><path stroke-linecap="round" transform="matrix(0.0102082, 0, 0, -0.0103703, -6.702736, 36.737273)" fill="none" stroke-linejoin="round" d="M 3437.362891 2661.880977 L 2992.333688 3075.849289 L 2547.687142 2661.880977 " stroke="#231f1f" stroke-width="56.759998" stroke-opacity="1" stroke-miterlimit="10"/></g><path stroke-linecap="round" transform="matrix(0.0102082, 0, 0, -0.0103703, -6.702736, 36.737273)" fill="none" stroke-linejoin="round" d="M 2718.351823 2813.305236 L 2718.351823 1935.647213 L 3266.315553 1732.241491 L 3266.315553 2813.305236 " stroke="#231f1f" stroke-width="56.759998" stroke-opacity="1" stroke-miterlimit="10"/><path stroke-linecap="round" transform="matrix(0.0102082, 0, 0, -0.0103703, -6.702736, 36.737273)" fill="none" stroke-linejoin="round" d="M 2882.128692 2462.242027 L 2882.128692 2657.360849 C 2882.128692 2718.382566 2931.491347 2767.727288 2992.333688 2767.727288 C 3053.558686 2767.727288 3102.538684 2718.382566 3102.538684 2657.360849 L 3102.538684 2462.242027 Z M 2882.128692 2462.242027 " stroke="#231f1f" stroke-width="56.759998" stroke-opacity="1" stroke-miterlimit="10"/><path stroke-linecap="round" transform="matrix(0.0102082, 0, 0, -0.0103703, -6.702736, 36.737273)" fill="none" stroke-linejoin="round" d="M 3149.988057 2462.242027 L 2835.061975 2462.242027 " stroke="#231f1f" stroke-width="56.759998" stroke-opacity="1" stroke-miterlimit="10"/><g clip-path="url(#078976f41e)"><path stroke-linecap="round" transform="matrix(0.0102082, 0, 0, -0.0103703, -6.702736, 36.737273)" fill="none" stroke-linejoin="round" d="M 2646.412451 2093.474986 L 2646.412451 1176.26585 L 1605.587489 1176.26585 L 1605.587489 2093.474986 " stroke="#231f1f" stroke-width="56.759998" stroke-opacity="1" stroke-miterlimit="10"/></g><g clip-path="url(#957bc8ea56)"><path stroke-linecap="round" transform="matrix(0.0102082, 0, 0, -0.0103703, -6.702736, 36.737273)" fill="none" stroke-linejoin="round" d="M 2347.175274 1176.26585 L 2347.175274 1736.761618 C 2347.175274 1858.805051 2248.067309 1957.494494 2125.99997 1957.494494 C 2003.93263 1957.494494 1904.824665 1858.805051 1904.824665 1736.761618 L 1904.824665 1176.26585 Z M 2347.175274 1176.26585 " stroke="#231f1f" stroke-width="56.759998" stroke-opacity="1" stroke-miterlimit="10"/></g><g clip-path="url(#dcc1b884f0)"><path stroke-linecap="round" transform="matrix(0.0102082, 0, 0, -0.0103703, -6.702736, 36.737273)" fill="none" stroke-linejoin="round" d="M 2646.029795 1957.494494 L 3515.807419 1635.058757 " stroke="#231f1f" stroke-width="56.759998" stroke-opacity="1" stroke-miterlimit="10"/></g><g clip-path="url(#22e6d7adc2)"><path stroke-linecap="round" transform="matrix(0.0102082, 0, 0, -0.0103703, -6.702736, 36.737273)" fill="none" stroke-linejoin="round" d="M 3312.999614 1710.017532 L 3312.999614 1176.26585 L 2646.029795 1176.26585 " stroke="#231f1f" stroke-width="56.759998" stroke-opacity="1" stroke-miterlimit="10"/></g><g clip-path="url(#c08391b48b)"><path stroke-linecap="round" transform="matrix(0.0102082, 0, 0, -0.0103703, -6.702736, 36.737273)" fill="none" stroke-linejoin="round" d="M 3081.109935 1176.26585 L 3081.109935 1505.105101 C 3081.109935 1577.050458 3022.946187 1635.058757 2951.389471 1635.058757 C 2879.450099 1635.058757 2821.286351 1577.050458 2821.286351 1505.105101 L 2821.286351 1176.26585 Z M 3081.109935 1176.26585 " stroke="#231f1f" stroke-width="56.759998" stroke-opacity="1" stroke-miterlimit="10"/></g><g clip-path="url(#d3786aff8d)"><path stroke-linecap="round" transform="matrix(0.0102082, 0, 0, -0.0103703, -6.702736, 36.737273)" fill="none" stroke-linejoin="round" d="M 1605.970145 1957.494494 L 736.192521 1635.058757 " stroke="#231f1f" stroke-width="56.759998" stroke-opacity="1" stroke-miterlimit="10"/></g><g clip-path="url(#9aa1c9b9bf)"><path stroke-linecap="round" transform="matrix(0.0102082, 0, 0, -0.0103703, -6.702736, 36.737273)" fill="none" stroke-linejoin="round" d="M 939.000326 1710.017532 L 939.000326 1176.26585 L 1605.970145 1176.26585 " stroke="#231f1f" stroke-width="56.759998" stroke-opacity="1" stroke-miterlimit="10"/></g><g clip-path="url(#16c91abcb5)"><path stroke-linecap="round" transform="matrix(0.0102082, 0, 0, -0.0103703, -6.702736, 36.737273)" fill="none" stroke-linejoin="round" d="M 1170.890005 1176.26585 L 1170.890005 1505.105101 C 1170.890005 1577.050458 1229.053753 1635.058757 1300.610469 1635.058757 C 1372.549841 1635.058757 1430.330933 1577.050458 1430.330933 1505.105101 L 1430.330933 1176.26585 Z M 1170.890005 1176.26585 " stroke="#231f1f" stroke-width="56.759998" stroke-opacity="1" stroke-miterlimit="10"/></g><path stroke-linecap="round" transform="matrix(0.0102082, 0, 0, -0.0103703, -6.702736, 36.737273)" fill="none" stroke-linejoin="round" d="M 2718.351823 2074.264446 L 2125.99997 2310.817767 L 1546.275772 2079.537927 " stroke="#231f1f" stroke-width="56.759998" stroke-opacity="1" stroke-miterlimit="10"/><path stroke-linecap="round" transform="matrix(0.0102082, 0, 0, -0.0103703, -6.702736, 36.737273)" fill="none" stroke-linejoin="round" d="M 2125.99997 2310.817767 L 2125.99997 2745.503329 " stroke="#231f1f" stroke-width="56.759998" stroke-opacity="1" stroke-miterlimit="10"/><path stroke-linecap="round" transform="matrix(0.0102082, 0, 0, -0.0103703, -6.702736, 36.737273)" fill="none" stroke-linejoin="round" d="M 1953.039351 2601.612614 L 2298.960588 2601.612614 " stroke="#231f1f" stroke-width="56.759998" stroke-opacity="1" stroke-miterlimit="10"/></svg>