<svg xmlns="http://www.w3.org/2000/svg" xmlns:xlink="http://www.w3.org/1999/xlink" width="70" zoomAndPan="magnify" viewBox="0 0 52.5 52.499999" height="70" preserveAspectRatio="xMidYMid meet" version="1.0"><defs><clipPath id="3d1b2c5ccc"><path d="M 3.324219 2.535156 L 47.902344 2.535156 L 47.902344 49.335938 L 3.324219 49.335938 Z M 3.324219 2.535156 " clip-rule="nonzero"/></clipPath></defs><path fill="#cbcccd" d="M 37.773438 43.265625 L 37.773438 45.558594 C 37.773438 45.753906 37.933594 45.910156 38.128906 45.910156 L 41.652344 45.910156 C 41.847656 45.910156 42.003906 45.753906 42.003906 45.558594 L 42.003906 43.265625 C 42.003906 42.183594 41.121094 41.300781 40.039062 41.300781 L 39.738281 41.300781 C 38.65625 41.300781 37.773438 42.183594 37.773438 43.265625 Z M 38.480469 43.265625 C 38.480469 42.570312 39.046875 42.007812 39.738281 42.007812 L 40.039062 42.007812 C 40.734375 42.007812 41.296875 42.570312 41.296875 43.265625 L 41.296875 45.203125 L 38.480469 45.203125 Z M 38.480469 43.265625 " fill-opacity="1" fill-rule="nonzero"/><path fill="#cbcccd" d="M 11.722656 41.300781 L 11.421875 41.300781 C 10.339844 41.300781 9.457031 42.183594 9.457031 43.265625 L 9.457031 45.558594 C 9.457031 45.753906 9.617188 45.910156 9.8125 45.910156 L 13.332031 45.910156 C 13.527344 45.910156 13.6875 45.753906 13.6875 45.558594 L 13.6875 43.265625 C 13.6875 42.183594 12.804688 41.300781 11.722656 41.300781 Z M 12.980469 45.203125 L 10.164062 45.203125 L 10.164062 43.265625 C 10.164062 42.570312 10.730469 42.007812 11.421875 42.007812 L 11.722656 42.007812 C 12.414062 42.007812 12.980469 42.570312 12.980469 43.265625 Z M 12.980469 45.203125 " fill-opacity="1" fill-rule="nonzero"/><g clip-path="url(#3d1b2c5ccc)"><path fill="#cbcccd" d="M 3.917969 32.914062 L 6.679688 31.261719 L 6.679688 48.660156 C 6.679688 48.855469 6.839844 49.011719 7.035156 49.011719 L 44.375 49.011719 C 44.570312 49.011719 44.730469 48.855469 44.730469 48.660156 L 44.730469 31.1875 L 47.640625 32.914062 C 47.695312 32.949219 47.757812 32.964844 47.820312 32.964844 C 47.941406 32.964844 48.058594 32.902344 48.125 32.792969 C 48.222656 32.625 48.167969 32.40625 48 32.308594 L 33.675781 23.800781 L 33.675781 15.515625 L 36.632812 17.367188 C 36.691406 17.402344 36.757812 17.421875 36.820312 17.421875 C 36.9375 17.421875 37.054688 17.359375 37.121094 17.253906 C 37.222656 17.089844 37.171875 16.871094 37.007812 16.765625 L 33.511719 14.578125 L 32.015625 13.640625 L 26.078125 9.925781 L 26.078125 5.613281 L 28.265625 5.613281 C 28.460938 5.613281 28.617188 5.453125 28.617188 5.257812 C 28.617188 5.0625 28.460938 4.90625 28.265625 4.90625 L 26.078125 4.90625 L 26.078125 2.886719 C 26.078125 2.691406 25.921875 2.535156 25.726562 2.535156 C 25.53125 2.535156 25.371094 2.691406 25.371094 2.886719 L 25.371094 4.90625 L 23.1875 4.90625 C 22.992188 4.90625 22.832031 5.0625 22.832031 5.257812 C 22.832031 5.453125 22.992188 5.613281 23.1875 5.613281 L 25.371094 5.613281 L 25.371094 9.972656 L 14.46875 16.691406 C 14.304688 16.792969 14.25 17.011719 14.355469 17.175781 C 14.457031 17.34375 14.675781 17.394531 14.839844 17.292969 L 17.734375 15.511719 L 17.734375 23.832031 L 3.554688 32.308594 C 3.390625 32.40625 3.335938 32.625 3.433594 32.792969 C 3.535156 32.960938 3.75 33.015625 3.917969 32.914062 Z M 25.410156 48.304688 L 22.246094 48.304688 L 22.246094 45 C 22.246094 43.25 23.664062 41.824219 25.410156 41.8125 Z M 29.285156 48.304688 L 26.117188 48.304688 L 26.117188 41.8125 C 27.867188 41.824219 29.285156 43.25 29.285156 45 Z M 33.675781 24.65625 L 44.023438 30.84375 L 44.023438 48.304688 L 35.746094 48.304688 L 35.746094 32.488281 L 38.207031 33.960938 C 38.265625 33.996094 38.328125 34.011719 38.390625 34.011719 C 38.511719 34.011719 38.628906 33.949219 38.695312 33.839844 C 38.792969 33.671875 38.738281 33.453125 38.570312 33.355469 L 35.574219 31.5625 L 33.675781 30.425781 Z M 18.441406 15.074219 L 25.589844 10.667969 L 25.761719 10.5625 L 31.964844 14.441406 L 32.96875 15.074219 L 32.96875 30.003906 L 25.886719 25.765625 C 25.773438 25.699219 25.636719 25.699219 25.523438 25.765625 L 18.441406 30.003906 Z M 21.410156 29.050781 L 25.707031 26.480469 L 30 29.050781 L 35.042969 32.066406 L 35.042969 48.304688 L 29.992188 48.304688 L 29.992188 45 C 29.992188 42.851562 28.242188 41.105469 26.09375 41.105469 L 25.433594 41.105469 C 23.285156 41.105469 21.539062 42.851562 21.539062 45 L 21.539062 48.304688 L 16.371094 48.304688 L 16.371094 32.066406 Z M 7.386719 30.84375 L 17.734375 24.65625 L 17.734375 30.425781 L 15.835938 31.5625 L 12.839844 33.355469 C 12.671875 33.453125 12.617188 33.671875 12.714844 33.839844 C 12.816406 34.007812 13.035156 34.0625 13.203125 33.960938 L 15.664062 32.488281 L 15.664062 48.304688 L 7.386719 48.304688 Z M 7.386719 30.84375 " fill-opacity="1" fill-rule="nonzero"/></g><path fill="#cbcccd" d="M 23.890625 32.910156 L 25.371094 32.910156 L 25.371094 36.089844 C 25.371094 36.285156 25.53125 36.441406 25.726562 36.441406 C 25.921875 36.441406 26.078125 36.285156 26.078125 36.089844 L 26.078125 32.910156 L 27.558594 32.910156 C 27.753906 32.910156 27.914062 32.753906 27.914062 32.558594 C 27.914062 32.363281 27.753906 32.203125 27.558594 32.203125 L 26.078125 32.203125 L 26.078125 30.84375 C 26.078125 30.648438 25.921875 30.488281 25.726562 30.488281 C 25.53125 30.488281 25.371094 30.648438 25.371094 30.84375 L 25.371094 32.203125 L 23.890625 32.203125 C 23.695312 32.203125 23.539062 32.363281 23.539062 32.558594 C 23.539062 32.753906 23.695312 32.910156 23.890625 32.910156 Z M 23.890625 32.910156 " fill-opacity="1" fill-rule="nonzero"/><path fill="#cbcccd" d="M 25.714844 23.261719 C 25.820312 23.257812 25.925781 23.238281 26.023438 23.195312 C 26.191406 23.125 26.355469 23.042969 26.550781 22.933594 C 26.78125 22.808594 27.007812 22.664062 27.222656 22.507812 C 28.558594 21.523438 29.203125 20.40625 29.089844 19.273438 C 29 18.363281 28.261719 17.648438 27.378906 17.609375 C 26.976562 17.589844 26.566406 17.730469 26.1875 18.011719 C 26.007812 18.148438 25.84375 18.300781 25.707031 18.464844 C 25.566406 18.300781 25.402344 18.148438 25.222656 18.011719 C 24.84375 17.730469 24.433594 17.589844 24.03125 17.609375 C 23.148438 17.648438 22.410156 18.363281 22.320312 19.273438 C 22.207031 20.40625 22.851562 21.523438 24.1875 22.507812 C 24.402344 22.664062 24.628906 22.808594 24.859375 22.933594 C 25.054688 23.042969 25.21875 23.125 25.390625 23.195312 C 25.488281 23.238281 25.597656 23.261719 25.703125 23.261719 C 25.707031 23.261719 25.710938 23.261719 25.714844 23.261719 Z M 25.199219 22.316406 C 24.996094 22.203125 24.796875 22.074219 24.605469 21.9375 C 23.824219 21.359375 22.914062 20.445312 23.023438 19.34375 C 23.078125 18.789062 23.535156 18.339844 24.066406 18.3125 C 24.078125 18.3125 24.089844 18.3125 24.101562 18.3125 C 24.382812 18.3125 24.632812 18.457031 24.796875 18.578125 C 24.988281 18.722656 25.152344 18.886719 25.277344 19.066406 C 25.375 19.203125 25.535156 19.285156 25.707031 19.285156 C 25.875 19.285156 26.035156 19.203125 26.132812 19.0625 C 26.257812 18.886719 26.421875 18.722656 26.613281 18.578125 C 26.785156 18.449219 27.050781 18.300781 27.34375 18.3125 C 27.875 18.339844 28.332031 18.789062 28.386719 19.34375 C 28.496094 20.445312 27.585938 21.359375 26.804688 21.9375 C 26.617188 22.074219 26.414062 22.203125 26.207031 22.316406 C 26.035156 22.414062 25.890625 22.484375 25.75 22.542969 C 25.734375 22.550781 25.722656 22.554688 25.707031 22.554688 C 25.691406 22.554688 25.675781 22.550781 25.664062 22.542969 C 25.519531 22.484375 25.375 22.414062 25.199219 22.316406 Z M 25.199219 22.316406 " fill-opacity="1" fill-rule="nonzero"/></svg>