<svg xmlns="http://www.w3.org/2000/svg" xmlns:xlink="http://www.w3.org/1999/xlink" width="50" zoomAndPan="magnify" viewBox="0 0 37.5 37.499999" height="50" preserveAspectRatio="xMidYMid meet" version="1.0"><defs><clipPath id="ad84e5d0df"><path d="M 7.074219 1.050781 L 32.859375 1.050781 L 32.859375 36.613281 L 7.074219 36.613281 Z M 7.074219 1.050781 " clip-rule="nonzero"/></clipPath></defs><path fill="#000000" d="M 18.792969 16.464844 L 20.550781 16.464844 L 20.550781 15.277344 L 19.46875 15.277344 L 19.960938 11.800781 L 18.804688 11.636719 L 18.214844 15.785156 C 18.191406 15.957031 18.246094 16.128906 18.351562 16.257812 C 18.464844 16.386719 18.628906 16.464844 18.792969 16.464844 " fill-opacity="1" fill-rule="nonzero"/><path fill="#000000" d="M 22.570312 18.175781 L 22.042969 17.117188 C 21.363281 17.464844 20.59375 17.644531 19.828125 17.644531 L 18.210938 17.644531 L 18.210938 18.832031 L 19.828125 18.832031 C 20.777344 18.832031 21.722656 18.605469 22.570312 18.175781 " fill-opacity="1" fill-rule="nonzero"/><path fill="#000000" d="M 17.621094 12.3125 C 17.621094 11.660156 17.101562 11.128906 16.453125 11.128906 C 15.804688 11.128906 15.28125 11.660156 15.28125 12.3125 C 15.28125 12.964844 15.804688 13.496094 16.453125 13.496094 C 17.101562 13.496094 17.621094 12.964844 17.621094 12.3125 " fill-opacity="1" fill-rule="nonzero"/><path fill="#000000" d="M 23.480469 13.496094 C 24.125 13.496094 24.652344 12.964844 24.652344 12.3125 C 24.652344 11.660156 24.125 11.128906 23.480469 11.128906 C 22.832031 11.128906 22.308594 11.660156 22.308594 12.3125 C 22.308594 12.964844 22.832031 13.496094 23.480469 13.496094 " fill-opacity="1" fill-rule="nonzero"/><g clip-path="url(#ad84e5d0df)"><path fill="#000000" d="M 31.675781 35.429688 L 8.253906 35.429688 L 8.253906 28.722656 C 8.253906 28.382812 8.308594 28.050781 8.414062 27.746094 C 8.730469 26.824219 9.484375 26.101562 10.433594 25.855469 L 13.464844 25.3125 L 16.058594 24.84375 L 19.410156 35.023438 C 19.492188 35.269531 19.714844 35.429688 19.96875 35.429688 C 20.21875 35.429688 20.441406 35.269531 20.523438 35.023438 L 23.875 24.84375 L 29.46875 25.851562 C 29.5625 25.875 29.648438 25.910156 29.734375 25.941406 C 29.800781 25.964844 29.871094 25.984375 29.9375 26.015625 C 30.019531 26.050781 30.101562 26.101562 30.183594 26.148438 C 30.242188 26.183594 30.308594 26.210938 30.363281 26.25 C 30.441406 26.300781 30.507812 26.359375 30.582031 26.417969 C 30.632812 26.460938 30.691406 26.496094 30.738281 26.546875 C 30.804688 26.609375 30.863281 26.679688 30.925781 26.75 C 30.96875 26.804688 31.019531 26.847656 31.058594 26.898438 C 31.117188 26.976562 31.164062 27.058594 31.21875 27.140625 C 31.25 27.195312 31.292969 27.25 31.320312 27.304688 C 31.371094 27.390625 31.402344 27.484375 31.441406 27.578125 C 31.464844 27.636719 31.496094 27.6875 31.519531 27.746094 C 31.550781 27.851562 31.574219 27.964844 31.601562 28.070312 C 31.609375 28.125 31.628906 28.171875 31.636719 28.21875 C 31.667969 28.386719 31.675781 28.550781 31.675781 28.722656 Z M 14.109375 11.128906 L 14.109375 9.347656 C 14.109375 9.117188 14.128906 8.894531 14.152344 8.664062 C 14.164062 8.597656 14.175781 8.523438 14.1875 8.457031 C 14.210938 8.300781 14.238281 8.144531 14.273438 7.988281 C 14.292969 7.910156 14.3125 7.835938 14.335938 7.757812 C 14.375 7.605469 14.421875 7.457031 14.476562 7.308594 C 14.503906 7.242188 14.527344 7.171875 14.550781 7.101562 C 14.566406 7.078125 14.578125 7.050781 14.59375 7.023438 C 14.613281 7.03125 14.640625 7.042969 14.664062 7.050781 C 14.738281 7.085938 14.808594 7.109375 14.878906 7.140625 C 15.039062 7.203125 15.195312 7.261719 15.355469 7.308594 C 15.433594 7.332031 15.515625 7.355469 15.597656 7.375 C 15.761719 7.417969 15.929688 7.453125 16.097656 7.480469 C 16.167969 7.496094 16.238281 7.511719 16.316406 7.519531 C 16.554688 7.554688 16.792969 7.570312 17.039062 7.570312 L 23.84375 7.570312 C 23.890625 7.75 23.945312 7.9375 24 8.121094 C 24.015625 8.179688 24.039062 8.238281 24.058594 8.300781 C 24.097656 8.429688 24.136719 8.554688 24.183594 8.675781 C 24.207031 8.753906 24.234375 8.824219 24.265625 8.898438 C 24.308594 9.011719 24.34375 9.121094 24.394531 9.238281 C 24.425781 9.3125 24.460938 9.390625 24.492188 9.46875 C 24.542969 9.574219 24.589844 9.671875 24.636719 9.777344 C 24.675781 9.855469 24.714844 9.929688 24.753906 10.003906 C 24.804688 10.105469 24.859375 10.199219 24.914062 10.289062 C 24.957031 10.367188 25.003906 10.433594 25.050781 10.503906 C 25.105469 10.589844 25.167969 10.679688 25.226562 10.765625 C 25.273438 10.824219 25.328125 10.886719 25.375 10.957031 C 25.441406 11.03125 25.507812 11.109375 25.578125 11.179688 C 25.632812 11.234375 25.683594 11.289062 25.742188 11.339844 C 25.765625 11.367188 25.796875 11.394531 25.824219 11.417969 L 25.824219 14.308594 C 25.824219 16.816406 24.84375 19.179688 23.066406 20.960938 L 22.949219 21.082031 C 22.851562 21.179688 22.761719 21.277344 22.660156 21.363281 C 21.914062 22.023438 20.957031 22.386719 19.96875 22.386719 C 18.976562 22.386719 18.019531 22.023438 17.273438 21.363281 C 17.171875 21.277344 17.082031 21.179688 16.984375 21.082031 L 16.867188 20.960938 C 15.089844 19.179688 14.109375 16.816406 14.109375 14.308594 Z M 12.355469 12.902344 C 12.355469 12.636719 12.445312 12.386719 12.609375 12.175781 C 12.613281 12.175781 12.617188 12.175781 12.621094 12.171875 C 12.621094 12.164062 12.660156 12.117188 12.660156 12.113281 C 12.675781 12.097656 12.683594 12.078125 12.703125 12.066406 C 12.765625 12 12.835938 11.945312 12.917969 11.894531 C 12.921875 11.886719 12.933594 11.886719 12.9375 11.882812 L 12.9375 13.933594 C 12.589844 13.726562 12.355469 13.34375 12.355469 12.902344 Z M 12.859375 5.796875 C 12.878906 5.8125 12.894531 5.832031 12.914062 5.847656 C 13.09375 6.03125 13.296875 6.203125 13.507812 6.363281 C 13.53125 6.375 13.546875 6.394531 13.566406 6.410156 C 13.539062 6.472656 13.519531 6.539062 13.496094 6.597656 C 13.453125 6.695312 13.417969 6.792969 13.382812 6.894531 C 13.320312 7.058594 13.269531 7.222656 13.21875 7.398438 C 13.191406 7.496094 13.164062 7.589844 13.136719 7.695312 C 13.09375 7.878906 13.0625 8.066406 13.035156 8.257812 C 13.019531 8.34375 13 8.429688 12.992188 8.515625 C 12.960938 8.792969 12.9375 9.070312 12.9375 9.347656 L 12.9375 10.605469 C 12.902344 10.621094 12.871094 10.640625 12.832031 10.648438 C 12.722656 10.683594 12.617188 10.726562 12.511719 10.777344 C 12.484375 10.792969 12.453125 10.796875 12.425781 10.8125 C 11.84375 9.148438 12.003906 7.324219 12.859375 5.796875 Z M 19.96875 2.238281 C 20.972656 2.238281 21.941406 2.441406 22.855469 2.84375 C 25.578125 4.058594 27.300781 6.894531 27.148438 9.898438 L 27.109375 10.644531 C 27.078125 10.628906 27.039062 10.628906 27 10.621094 C 26.910156 10.597656 26.820312 10.578125 26.722656 10.5625 C 26.691406 10.558594 26.660156 10.546875 26.628906 10.542969 C 26.59375 10.519531 26.566406 10.496094 26.53125 10.46875 C 26.488281 10.429688 26.449219 10.390625 26.414062 10.347656 C 26.363281 10.300781 26.316406 10.242188 26.269531 10.183594 C 26.230469 10.140625 26.191406 10.09375 26.152344 10.035156 C 26.105469 9.972656 26.058594 9.90625 26.015625 9.835938 C 25.976562 9.777344 25.945312 9.722656 25.90625 9.664062 C 25.859375 9.582031 25.816406 9.496094 25.769531 9.410156 C 25.738281 9.347656 25.699219 9.285156 25.671875 9.214844 C 25.625 9.117188 25.578125 9.015625 25.535156 8.917969 C 25.507812 8.851562 25.476562 8.777344 25.445312 8.707031 C 25.398438 8.589844 25.359375 8.472656 25.316406 8.355469 C 25.289062 8.285156 25.257812 8.214844 25.234375 8.140625 C 25.1875 8.003906 25.144531 7.855469 25.101562 7.707031 C 25.082031 7.644531 25.0625 7.582031 25.042969 7.515625 C 24.980469 7.300781 24.925781 7.074219 24.867188 6.839844 C 24.804688 6.578125 24.570312 6.386719 24.296875 6.386719 L 17.039062 6.386719 C 16.828125 6.386719 16.617188 6.367188 16.40625 6.34375 C 15.78125 6.25 15.171875 6.035156 14.625 5.703125 C 14.625 5.703125 14.621094 5.703125 14.621094 5.703125 C 14.285156 5.496094 13.992188 5.261719 13.738281 5.003906 C 13.574219 4.84375 13.433594 4.664062 13.296875 4.484375 C 13.292969 4.476562 13.28125 4.464844 13.273438 4.453125 C 13.273438 4.449219 13.269531 4.449219 13.269531 4.449219 C 12.789062 3.796875 12.488281 3.039062 12.390625 2.238281 Z M 26.992188 13.933594 L 26.992188 11.882812 C 27 11.886719 27.011719 11.886719 27.015625 11.894531 C 27.09375 11.945312 27.167969 12 27.230469 12.066406 C 27.457031 12.289062 27.582031 12.585938 27.582031 12.902344 C 27.582031 13.34375 27.347656 13.726562 26.992188 13.933594 Z M 19.96875 26.636719 L 21.703125 27.6875 L 19.96875 32.960938 L 18.230469 27.6875 Z M 22.308594 25.421875 L 22.308594 25.851562 L 22.082031 26.535156 L 21.183594 25.996094 Z M 17.621094 25.851562 L 17.621094 25.421875 L 18.75 25.996094 L 17.851562 26.535156 Z M 19.96875 23.574219 C 20.992188 23.574219 21.980469 23.265625 22.828125 22.710938 C 22.851562 22.699219 22.875 22.6875 22.894531 22.675781 L 22.894531 23.578125 C 22.789062 23.578125 22.683594 23.601562 22.59375 23.660156 L 19.96875 25.253906 L 17.339844 23.660156 C 17.25 23.601562 17.144531 23.578125 17.039062 23.578125 L 17.039062 22.675781 C 17.058594 22.6875 17.082031 22.699219 17.101562 22.707031 C 17.949219 23.265625 18.941406 23.574219 19.96875 23.574219 Z M 29.746094 24.699219 C 29.734375 24.695312 29.71875 24.6875 29.703125 24.6875 L 24.066406 23.667969 L 24.066406 21.613281 C 25.742188 19.847656 26.746094 17.613281 26.949219 15.203125 C 27.976562 14.957031 28.753906 14.023438 28.753906 12.902344 C 28.753906 12.367188 28.566406 11.863281 28.242188 11.449219 L 28.316406 9.960938 C 28.5 6.46875 26.492188 3.167969 23.328125 1.761719 C 22.265625 1.289062 21.132812 1.050781 19.96875 1.050781 L 11.769531 1.050781 C 11.445312 1.050781 11.179688 1.316406 11.179688 1.644531 C 11.179688 2.785156 11.507812 3.878906 12.101562 4.816406 C 10.847656 6.753906 10.558594 9.15625 11.367188 11.332031 L 11.507812 11.714844 C 11.300781 12.074219 11.179688 12.476562 11.179688 12.902344 C 11.179688 14.023438 11.953125 14.957031 12.984375 15.203125 C 13.1875 17.613281 14.191406 19.847656 15.867188 21.613281 L 15.867188 23.667969 L 10.1875 24.699219 C 9.546875 24.859375 8.972656 25.175781 8.492188 25.597656 C 7.621094 26.367188 7.085938 27.488281 7.085938 28.722656 L 7.085938 36.019531 C 7.085938 36.351562 7.347656 36.613281 7.667969 36.613281 L 32.265625 36.613281 C 32.585938 36.613281 32.847656 36.351562 32.847656 36.019531 L 32.847656 28.722656 C 32.847656 26.816406 31.570312 25.15625 29.746094 24.699219 " fill-opacity="1" fill-rule="nonzero"/></g></svg>