<svg xmlns="http://www.w3.org/2000/svg" xmlns:xlink="http://www.w3.org/1999/xlink" width="70" zoomAndPan="magnify" viewBox="0 0 52.5 52.499999" height="70" preserveAspectRatio="xMidYMid meet" version="1.0"><defs><clipPath id="60a84fa15e"><path d="M 3.796875 3.632812 L 48.371094 3.632812 L 48.371094 48.949219 L 3.796875 48.949219 Z M 3.796875 3.632812 " clip-rule="nonzero"/></clipPath></defs><path fill="#cbcccd" d="M 29.53125 42.816406 C 29.53125 42.988281 30.089844 43.128906 30.785156 43.128906 C 31.476562 43.128906 32.035156 42.988281 32.035156 42.816406 C 32.035156 42.644531 31.476562 42.503906 30.785156 42.503906 C 30.089844 42.503906 29.53125 42.644531 29.53125 42.816406 Z M 29.53125 42.816406 " fill-opacity="1" fill-rule="nonzero"/><path fill="#cbcccd" d="M 16.683594 45.011719 C 17.375 45.011719 17.9375 44.871094 17.9375 44.695312 C 17.9375 44.523438 17.375 44.382812 16.683594 44.382812 C 15.992188 44.382812 15.433594 44.523438 15.433594 44.695312 C 15.433594 44.871094 15.992188 45.011719 16.683594 45.011719 Z M 16.683594 45.011719 " fill-opacity="1" fill-rule="nonzero"/><g clip-path="url(#60a84fa15e)"><path fill="#cbcccd" d="M 42.410156 4.113281 C 38.929688 4.113281 36.101562 6.941406 36.101562 10.421875 C 36.101562 11.089844 36.207031 11.742188 36.410156 12.371094 L 27.96875 12.371094 L 29.324219 10.378906 C 29.488281 10.238281 29.550781 10.09375 29.566406 9.972656 C 29.566406 9.972656 29.566406 9.96875 29.566406 9.964844 C 29.570312 9.945312 29.574219 9.921875 29.574219 9.902344 C 29.574219 9.886719 29.566406 9.875 29.566406 9.859375 C 29.566406 9.847656 29.5625 9.835938 29.5625 9.820312 C 29.3125 8.496094 23.039062 8.117188 19.121094 8.015625 C 18.917969 7.660156 18.65625 7.351562 18.335938 7.101562 C 19.046875 5.820312 20.460938 4.453125 23.242188 4.617188 C 23.433594 4.628906 23.605469 4.480469 23.617188 4.28125 C 23.628906 4.085938 23.480469 3.917969 23.285156 3.90625 C 20.152344 3.71875 18.546875 5.261719 17.730469 6.722656 C 17.308594 6.519531 16.847656 6.410156 16.371094 6.410156 C 15.234375 6.410156 14.183594 7.035156 13.621094 8.015625 C 9.929688 8.113281 4.027344 8.488281 3.804688 9.824219 C 3.804688 9.835938 3.804688 9.847656 3.800781 9.855469 C 3.800781 9.871094 3.796875 9.886719 3.796875 9.902344 C 3.796875 10.015625 3.835938 10.230469 4.070312 10.417969 L 7.140625 14.929688 C 7.144531 14.933594 7.148438 14.9375 7.152344 14.941406 L 13.824219 24.746094 C 13.84375 25.25 14.011719 27.210938 15.417969 27.472656 C 15.589844 29.273438 16.402344 39.019531 14.191406 43.226562 C 11.683594 43.507812 9.792969 44.203125 9.121094 45.101562 C 8.914062 45.367188 8.808594 45.652344 8.808594 45.953125 C 8.808594 47.8125 12.867188 48.8125 16.683594 48.8125 C 20.503906 48.8125 24.558594 47.8125 24.558594 45.953125 C 24.558594 45.921875 24.554688 45.894531 24.550781 45.867188 C 26.003906 46.53125 28.300781 46.933594 30.785156 46.933594 C 34.601562 46.933594 38.660156 45.929688 38.660156 44.070312 C 38.660156 43.773438 38.554688 43.488281 38.347656 43.222656 C 37.660156 42.328125 35.769531 41.632812 33.277344 41.34375 C 31.0625 37.121094 31.878906 27.359375 32.050781 25.582031 C 32.441406 25.507812 32.875 25.265625 33.199219 24.667969 C 38.527344 24.554688 40.921875 20.367188 41.992188 16.722656 C 42.132812 16.730469 42.273438 16.738281 42.40625 16.738281 C 45.886719 16.738281 48.71875 13.902344 48.71875 10.421875 C 48.71875 6.941406 45.886719 4.113281 42.410156 4.113281 Z M 36.914062 13.082031 C 36.914062 13.082031 36.917969 13.082031 36.917969 13.082031 L 41.988281 13.082031 C 41.953125 13.40625 41.890625 13.925781 41.773438 14.5625 L 26.476562 14.5625 L 27.484375 13.082031 Z M 38.378906 10.421875 C 38.378906 8.199219 40.1875 6.394531 42.410156 6.394531 C 44.632812 6.394531 46.441406 8.199219 46.441406 10.421875 C 46.441406 12.609375 44.691406 14.390625 42.519531 14.449219 C 42.691406 13.441406 42.730469 12.777344 42.734375 12.746094 C 42.738281 12.648438 42.703125 12.550781 42.636719 12.480469 C 42.566406 12.410156 42.476562 12.367188 42.375 12.367188 L 42.125 12.367188 L 42.375 11.117188 C 42.402344 10.972656 42.335938 10.824219 42.210938 10.746094 C 42.144531 10.707031 42.070312 10.6875 41.996094 10.695312 C 42.046875 10.660156 42.085938 10.609375 42.113281 10.554688 C 42.171875 10.417969 42.140625 10.257812 42.03125 10.15625 L 40.101562 8.296875 C 40.003906 8.199219 39.855469 8.171875 39.726562 8.222656 C 39.269531 8.402344 38.953125 8.691406 38.785156 9.078125 C 38.507812 9.714844 38.769531 10.382812 38.78125 10.410156 C 38.832031 10.542969 38.953125 10.628906 39.09375 10.636719 L 41.765625 10.769531 C 41.773438 10.769531 41.777344 10.769531 41.785156 10.769531 C 41.796875 10.769531 41.804688 10.765625 41.8125 10.765625 C 41.808594 10.765625 41.804688 10.765625 41.804688 10.769531 L 39.777344 12.367188 L 38.890625 12.367188 C 38.5625 11.773438 38.378906 11.105469 38.378906 10.421875 Z M 28.367188 24.667969 C 28.691406 25.265625 29.125 25.507812 29.519531 25.585938 C 29.6875 27.359375 30.503906 37.117188 28.289062 41.34375 C 25.792969 41.625 23.902344 42.320312 23.214844 43.21875 C 23.011719 43.484375 22.90625 43.777344 22.90625 44.070312 C 22.90625 44.09375 22.910156 44.121094 22.910156 44.148438 C 21.976562 43.722656 20.691406 43.398438 19.175781 43.226562 C 16.964844 39.019531 17.777344 29.273438 17.949219 27.472656 C 19.355469 27.207031 19.523438 25.25 19.542969 24.746094 L 21.84375 21.367188 C 23.5 23.503906 25.691406 24.609375 28.367188 24.667969 Z M 27.367188 43.03125 C 27.410156 43.089844 28.4375 44.425781 30.785156 44.425781 C 33.128906 44.425781 34.15625 43.089844 34.199219 43.03125 C 34.3125 42.882812 34.292969 42.679688 34.15625 42.554688 C 34.019531 42.429688 33.890625 42.289062 33.769531 42.128906 C 35.515625 42.390625 36.917969 42.871094 37.570312 43.441406 C 36.664062 44.230469 34.1875 44.96875 30.785156 44.96875 C 27.371094 44.96875 24.890625 44.226562 23.988281 43.433594 C 24.636719 42.855469 26.027344 42.378906 27.800781 42.125 C 27.679688 42.285156 27.546875 42.429688 27.410156 42.554688 C 27.273438 42.679688 27.257812 42.882812 27.367188 43.03125 Z M 13.265625 44.910156 C 13.308594 44.96875 14.339844 46.308594 16.683594 46.308594 C 19.027344 46.308594 20.0625 44.96875 20.101562 44.910156 C 20.214844 44.765625 20.195312 44.558594 20.058594 44.433594 C 19.925781 44.3125 19.800781 44.167969 19.675781 44.011719 C 21.410156 44.269531 22.8125 44.75 23.472656 45.324219 C 22.5625 46.109375 20.085938 46.847656 16.683594 46.847656 C 13.28125 46.847656 10.796875 46.109375 9.890625 45.320312 C 10.535156 44.738281 11.929688 44.257812 13.699219 44.003906 C 13.574219 44.164062 13.441406 44.308594 13.308594 44.433594 C 13.175781 44.558594 13.15625 44.765625 13.265625 44.910156 Z M 19.03125 24.234375 C 18.597656 24.140625 17.648438 23.96875 16.683594 23.96875 C 15.722656 23.96875 14.769531 24.140625 14.335938 24.234375 L 10.460938 18.542969 L 14.855469 23.3125 C 14.886719 23.34375 14.921875 23.367188 14.957031 23.386719 C 14.988281 23.402344 15.667969 23.738281 16.683594 23.738281 C 17.699219 23.738281 18.378906 23.402344 18.410156 23.386719 C 18.449219 23.367188 18.480469 23.34375 18.511719 23.3125 L 22.90625 18.542969 Z M 27.714844 11.476562 C 27.222656 11.640625 24.652344 12.371094 17.765625 12.441406 C 18.210938 12.222656 18.601562 11.902344 18.90625 11.496094 C 22.226562 11.449219 26.148438 11.289062 28.148438 10.835938 Z M 16.371094 12.054688 C 15.800781 12.054688 15.257812 11.855469 14.828125 11.507812 C 15.332031 11.511719 15.84375 11.511719 16.371094 11.511719 C 16.894531 11.511719 17.40625 11.511719 17.914062 11.507812 C 17.480469 11.855469 16.941406 12.054688 16.371094 12.054688 Z M 13.429688 10.777344 C 6.714844 10.65625 5.015625 10.15625 4.589844 9.910156 L 4.570312 9.882812 C 5.074219 9.496094 7.722656 8.910156 13.3125 8.738281 C 13.238281 9.015625 13.195312 9.300781 13.195312 9.59375 C 13.195312 10.003906 13.277344 10.402344 13.429688 10.777344 Z M 13.835938 11.496094 C 14.136719 11.898438 14.519531 12.214844 14.957031 12.433594 C 8.554688 12.324219 6.128906 11.636719 5.65625 11.476562 L 5.242188 10.871094 C 6.789062 11.222656 9.667969 11.433594 13.835938 11.496094 Z M 16.371094 13.160156 L 16.683594 13.160156 C 22.640625 13.160156 25.703125 12.695312 27.097656 12.382812 L 25.65625 14.503906 L 18.035156 22.773438 C 17.878906 22.839844 17.371094 23.027344 16.683594 23.027344 C 15.996094 23.027344 15.488281 22.839844 15.332031 22.773438 L 7.714844 14.507812 L 6.269531 12.382812 C 7.636719 12.691406 10.621094 13.144531 16.371094 13.160156 Z M 19.3125 10.777344 C 19.460938 10.402344 19.546875 10.003906 19.546875 9.59375 C 19.546875 9.300781 19.503906 9.015625 19.425781 8.738281 C 25.070312 8.90625 28.175781 9.480469 28.789062 9.890625 C 28.390625 10.109375 26.664062 10.652344 19.3125 10.777344 Z M 16.371094 7.125 C 16.734375 7.125 17.089844 7.207031 17.414062 7.359375 C 17.234375 7.777344 17.121094 8.148438 17.054688 8.425781 C 16.800781 8.222656 16.722656 7.953125 16.714844 7.933594 C 16.667969 7.742188 16.472656 7.628906 16.28125 7.675781 C 16.089844 7.726562 15.976562 7.917969 16.023438 8.109375 C 16.035156 8.148438 16.265625 8.996094 17.160156 9.273438 C 17.171875 9.277344 17.179688 9.28125 17.191406 9.285156 C 17.195312 9.285156 17.203125 9.289062 17.207031 9.292969 C 17.382812 9.34375 17.574219 9.371094 17.777344 9.371094 C 17.949219 9.371094 18.132812 9.351562 18.320312 9.3125 C 18.511719 9.273438 18.636719 9.085938 18.597656 8.890625 C 18.558594 8.699219 18.371094 8.574219 18.175781 8.613281 C 18.015625 8.648438 17.871094 8.660156 17.730469 8.65625 C 17.785156 8.433594 17.875 8.121094 18.019531 7.765625 C 18.257812 7.976562 18.453125 8.230469 18.589844 8.519531 C 18.75 8.855469 18.832031 9.214844 18.832031 9.589844 C 18.832031 10.015625 18.722656 10.425781 18.519531 10.789062 C 17.113281 10.804688 15.605469 10.804688 14.222656 10.789062 C 14.019531 10.425781 13.90625 10.015625 13.90625 9.589844 C 13.90625 9.214844 13.988281 8.855469 14.148438 8.519531 C 14.566406 7.660156 15.417969 7.125 16.371094 7.125 Z M 16.097656 27.105469 C 16.078125 26.925781 15.925781 26.789062 15.742188 26.789062 C 15.023438 26.789062 14.730469 26.007812 14.613281 25.382812 C 15.089844 25.652344 15.792969 25.929688 16.683594 25.929688 C 17.574219 25.929688 18.277344 25.652344 18.753906 25.382812 C 18.636719 26.007812 18.347656 26.789062 17.625 26.789062 C 17.441406 26.789062 17.289062 26.925781 17.269531 27.105469 C 17.21875 27.585938 15.992188 38.945312 18.613281 43.691406 C 18.613281 43.691406 18.617188 43.691406 18.617188 43.691406 C 18.621094 43.703125 18.628906 43.71875 18.636719 43.734375 C 18.84375 44.105469 19.074219 44.429688 19.320312 44.699219 C 18.960938 45.027344 18.121094 45.59375 16.683594 45.59375 C 15.246094 45.59375 14.40625 45.023438 14.046875 44.699219 C 14.292969 44.425781 14.523438 44.105469 14.730469 43.734375 C 14.734375 43.726562 14.738281 43.714844 14.746094 43.707031 C 14.746094 43.703125 14.75 43.699219 14.75 43.695312 C 17.378906 38.949219 16.152344 27.585938 16.097656 27.105469 Z M 32.984375 23.960938 C 32.984375 23.960938 32.980469 23.960938 32.980469 23.960938 C 32.976562 23.960938 32.96875 23.964844 32.964844 23.964844 C 32.925781 23.964844 32.882812 23.972656 32.847656 23.988281 C 32.828125 23.996094 32.8125 24.007812 32.796875 24.019531 C 32.773438 24.035156 32.75 24.042969 32.734375 24.0625 C 32.707031 24.085938 32.691406 24.117188 32.675781 24.148438 C 32.667969 24.15625 32.660156 24.164062 32.65625 24.175781 C 32.339844 24.90625 31.875 24.90625 31.722656 24.90625 C 31.707031 24.90625 31.691406 24.914062 31.675781 24.914062 C 31.652344 24.917969 31.625 24.921875 31.601562 24.929688 C 31.582031 24.9375 31.566406 24.949219 31.546875 24.957031 C 31.527344 24.972656 31.503906 24.984375 31.488281 25 C 31.46875 25.011719 31.457031 25.03125 31.445312 25.046875 C 31.429688 25.066406 31.417969 25.085938 31.40625 25.105469 C 31.394531 25.128906 31.390625 25.148438 31.382812 25.171875 C 31.378906 25.191406 31.371094 25.203125 31.367188 25.222656 C 31.316406 25.707031 30.085938 37.125 32.734375 41.847656 C 32.9375 42.222656 33.167969 42.546875 33.417969 42.824219 C 33.054688 43.144531 32.21875 43.710938 30.785156 43.710938 C 29.347656 43.710938 28.511719 43.148438 28.148438 42.824219 C 28.398438 42.546875 28.628906 42.222656 28.832031 41.851562 C 31.480469 37.125 30.25 25.707031 30.199219 25.222656 C 30.195312 25.203125 30.1875 25.191406 30.183594 25.171875 C 30.175781 25.148438 30.171875 25.128906 30.160156 25.105469 C 30.152344 25.085938 30.136719 25.070312 30.125 25.050781 C 30.109375 25.03125 30.097656 25.011719 30.078125 24.996094 C 30.0625 24.984375 30.042969 24.972656 30.023438 24.960938 C 30.003906 24.949219 29.984375 24.9375 29.960938 24.929688 C 29.941406 24.921875 29.917969 24.917969 29.894531 24.914062 C 29.875 24.914062 29.863281 24.90625 29.84375 24.90625 C 29.691406 24.90625 29.230469 24.90625 28.910156 24.175781 C 28.90625 24.160156 28.894531 24.152344 28.886719 24.140625 C 28.871094 24.113281 28.855469 24.085938 28.832031 24.0625 C 28.816406 24.046875 28.796875 24.039062 28.78125 24.027344 C 28.761719 24.011719 28.742188 23.996094 28.71875 23.988281 C 28.691406 23.976562 28.664062 23.972656 28.632812 23.96875 C 28.617188 23.96875 28.601562 23.960938 28.585938 23.960938 C 25.964844 23.960938 23.84375 22.875 22.269531 20.746094 L 25.992188 15.273438 L 41.625 15.273438 C 41.554688 15.597656 41.476562 15.925781 41.386719 16.246094 C 40.410156 19.765625 38.160156 23.957031 32.984375 23.960938 Z M 42.410156 16.023438 C 42.335938 16.023438 42.257812 16.011719 42.183594 16.011719 C 42.253906 15.722656 42.320312 15.441406 42.378906 15.167969 C 42.386719 15.167969 42.398438 15.167969 42.410156 15.167969 C 45.027344 15.167969 47.15625 13.039062 47.15625 10.421875 C 47.15625 7.808594 45.027344 5.679688 42.410156 5.679688 C 39.792969 5.679688 37.667969 7.808594 37.667969 10.421875 C 37.667969 11.097656 37.8125 11.757812 38.085938 12.367188 L 37.167969 12.367188 C 36.9375 11.746094 36.816406 11.09375 36.816406 10.421875 C 36.816406 7.335938 39.324219 4.824219 42.410156 4.824219 C 45.496094 4.824219 48.007812 7.335938 48.007812 10.421875 C 48.007812 13.511719 45.496094 16.023438 42.410156 16.023438 Z M 42.410156 16.023438 " fill-opacity="1" fill-rule="nonzero"/></g><path fill="#cbcccd" d="M 42.074219 9.839844 C 42.125 9.976562 42.257812 10.070312 42.40625 10.070312 C 42.558594 10.070312 42.691406 9.976562 42.742188 9.839844 L 43.683594 7.332031 C 43.730469 7.199219 43.699219 7.054688 43.601562 6.953125 C 43.253906 6.605469 42.863281 6.429688 42.445312 6.429688 C 42.445312 6.429688 42.441406 6.429688 42.441406 6.429688 C 41.746094 6.433594 41.238281 6.933594 41.21875 6.953125 C 41.121094 7.054688 41.085938 7.199219 41.136719 7.332031 Z M 42.074219 9.839844 " fill-opacity="1" fill-rule="nonzero"/><path fill="#cbcccd" d="M 42.667969 10.554688 C 42.695312 10.613281 42.734375 10.660156 42.785156 10.695312 C 42.714844 10.699219 42.648438 10.71875 42.589844 10.761719 C 42.46875 10.851562 42.417969 11.003906 42.457031 11.144531 L 43.175781 13.726562 C 43.214844 13.863281 43.328125 13.960938 43.464844 13.984375 C 43.574219 14 43.679688 14.007812 43.78125 14.007812 C 44.3125 14.007812 44.761719 13.785156 45.0625 13.359375 C 45.316406 12.996094 45.382812 12.617188 45.386719 12.574219 C 45.410156 12.4375 45.347656 12.296875 45.230469 12.222656 L 43.019531 10.769531 L 45.6875 10.636719 C 45.828125 10.628906 45.949219 10.542969 46.003906 10.410156 C 46.214844 9.867188 46.292969 8.714844 45.058594 8.222656 C 44.925781 8.171875 44.777344 8.199219 44.679688 8.296875 L 42.75 10.15625 C 42.640625 10.257812 42.609375 10.417969 42.667969 10.554688 Z M 42.667969 10.554688 " fill-opacity="1" fill-rule="nonzero"/></svg>