<svg xmlns="http://www.w3.org/2000/svg" xmlns:xlink="http://www.w3.org/1999/xlink" width="70" zoomAndPan="magnify" viewBox="0 0 52.5 52.499999" height="70" preserveAspectRatio="xMidYMid meet" version="1.0"><defs><clipPath id="7e00b86029"><path d="M 2.351562 9.644531 L 49.898438 9.644531 L 49.898438 40 L 2.351562 40 Z M 2.351562 9.644531 " clip-rule="nonzero"/></clipPath></defs><g clip-path="url(#7e00b86029)"><path fill="#cbcccd" d="M 47.703125 35.386719 L 46.910156 36.621094 C 46.386719 37.441406 45.480469 37.9375 44.503906 37.933594 L 7.59375 37.933594 C 6.617188 37.9375 5.710938 37.441406 5.1875 36.621094 L 4.394531 35.386719 C 4.203125 35.078125 4.183594 34.691406 4.359375 34.375 C 4.535156 34.054688 4.867188 33.855469 5.230469 33.855469 L 46.867188 33.855469 C 47.234375 33.855469 47.566406 34.054688 47.738281 34.375 C 47.910156 34.691406 47.902344 35.078125 47.703125 35.386719 Z M 9.277344 31.296875 C 9.277344 26.847656 11.042969 22.582031 14.191406 19.4375 C 17.335938 16.292969 21.601562 14.527344 26.050781 14.527344 C 30.496094 14.527344 34.765625 16.292969 37.910156 19.4375 C 41.054688 22.582031 42.820312 26.847656 42.820312 31.296875 L 42.820312 32.113281 L 9.277344 32.113281 Z M 49.269531 33.542969 C 49.035156 33.109375 48.691406 32.746094 48.265625 32.496094 C 47.84375 32.246094 47.363281 32.117188 46.867188 32.121094 L 44.5625 32.121094 L 44.5625 31.296875 C 44.554688 26.542969 42.71875 21.976562 39.4375 18.539062 C 36.152344 15.101562 31.667969 13.058594 26.921875 12.832031 L 26.921875 11.390625 L 28.457031 11.390625 C 28.9375 11.390625 29.328125 11 29.328125 10.515625 C 29.328125 10.035156 28.9375 9.644531 28.457031 9.644531 L 23.640625 9.644531 C 23.160156 9.644531 22.773438 10.035156 22.773438 10.515625 C 22.773438 11 23.160156 11.390625 23.640625 11.390625 L 25.175781 11.390625 L 25.175781 12.832031 C 20.429688 13.058594 15.949219 15.101562 12.664062 18.539062 C 9.378906 21.976562 7.542969 26.542969 7.535156 31.300781 L 7.535156 32.113281 L 5.230469 32.113281 C 4.574219 32.113281 3.9375 32.351562 3.441406 32.78125 C 2.941406 33.210938 2.617188 33.804688 2.523438 34.457031 C 2.429688 35.109375 2.570312 35.769531 2.925781 36.324219 L 3.71875 37.5625 C 4.5625 38.882812 6.023438 39.6875 7.59375 39.683594 L 44.503906 39.683594 C 46.078125 39.6875 47.539062 38.886719 48.378906 37.5625 L 49.171875 36.324219 C 49.441406 35.914062 49.585938 35.4375 49.605469 34.945312 C 49.625 34.457031 49.507812 33.972656 49.269531 33.542969 " fill-opacity="1" fill-rule="nonzero"/></g></svg>