<svg xmlns="http://www.w3.org/2000/svg" xmlns:xlink="http://www.w3.org/1999/xlink" width="70" zoomAndPan="magnify" viewBox="0 0 52.5 52.499999" height="70" preserveAspectRatio="xMidYMid meet" version="1.0"><defs><clipPath id="23a68fe17c"><path d="M 15 2.511719 L 35 2.511719 L 35 25 L 15 25 Z M 15 2.511719 " clip-rule="nonzero"/></clipPath><clipPath id="f20553bdc9"><path d="M 6 28 L 21 28 L 21 47.085938 L 6 47.085938 Z M 6 28 " clip-rule="nonzero"/></clipPath><clipPath id="c4d29e1e6b"><path d="M 29 28 L 43 28 L 43 47.085938 L 29 47.085938 Z M 29 28 " clip-rule="nonzero"/></clipPath><clipPath id="af939ed562"><path d="M 43 33 L 46.902344 33 L 46.902344 38 L 43 38 Z M 43 33 " clip-rule="nonzero"/></clipPath><clipPath id="cdac04a49a"><path d="M 3.070312 35 L 6 35 L 6 40 L 3.070312 40 Z M 3.070312 35 " clip-rule="nonzero"/></clipPath></defs><g clip-path="url(#23a68fe17c)"><path fill="#cbcccd" d="M 15.722656 15.304688 C 15.722656 16.949219 16.15625 18.488281 16.910156 19.824219 C 16.917969 19.835938 16.925781 19.847656 16.933594 19.859375 C 18.207031 22.089844 20.386719 23.742188 22.964844 24.304688 C 22.976562 24.308594 22.984375 24.308594 22.996094 24.3125 C 23.621094 24.449219 24.269531 24.519531 24.9375 24.519531 C 28.359375 24.519531 31.351562 22.640625 32.941406 19.863281 C 32.949219 19.851562 32.957031 19.839844 32.964844 19.824219 C 33.71875 18.488281 34.152344 16.945312 34.152344 15.304688 C 34.152344 13.664062 33.71875 12.125 32.964844 10.789062 C 32.957031 10.773438 32.949219 10.761719 32.941406 10.75 C 31.402344 8.058594 28.546875 6.214844 25.257812 6.101562 L 25.253906 2.867188 C 25.25 2.671875 25.09375 2.511719 24.894531 2.511719 C 24.699219 2.511719 24.539062 2.671875 24.539062 2.867188 L 24.546875 6.101562 C 24.015625 6.125 23.496094 6.191406 22.992188 6.300781 C 22.988281 6.300781 22.980469 6.304688 22.976562 6.304688 C 20.390625 6.867188 18.207031 8.519531 16.933594 10.753906 C 16.925781 10.765625 16.917969 10.773438 16.910156 10.789062 C 16.15625 12.125 15.722656 13.664062 15.722656 15.304688 Z M 33.429688 14.949219 L 29.6875 14.949219 C 29.660156 13.722656 29.484375 12.496094 29.148438 11.273438 L 32.421875 11.273438 C 33.015625 12.378906 33.375 13.625 33.429688 14.949219 Z M 32.421875 19.339844 L 29.121094 19.339844 C 29.460938 18.109375 29.648438 16.882812 29.683594 15.660156 L 33.429688 15.660156 C 33.375 16.988281 33.015625 18.234375 32.421875 19.339844 Z M 25.292969 23.800781 L 25.285156 20.050781 L 28.148438 20.050781 C 27.742188 21.253906 27.1875 22.460938 26.472656 23.667969 C 26.085938 23.738281 25.691406 23.785156 25.292969 23.800781 Z M 23.296875 23.648438 C 22.585938 22.449219 22.035156 21.246094 21.632812 20.050781 L 24.574219 20.050781 L 24.582031 23.800781 C 24.144531 23.78125 23.714844 23.730469 23.296875 23.648438 Z M 16.445312 15.660156 L 20.097656 15.660156 C 20.128906 16.882812 20.316406 18.109375 20.65625 19.339844 L 17.453125 19.339844 C 16.855469 18.234375 16.5 16.988281 16.445312 15.660156 Z M 20.824219 15.660156 L 24.566406 15.660156 L 24.574219 19.339844 L 21.402344 19.339844 C 21.050781 18.109375 20.859375 16.882812 20.824219 15.660156 Z M 25.285156 19.339844 L 25.277344 15.660156 L 28.957031 15.660156 C 28.921875 16.882812 28.730469 18.109375 28.375 19.339844 Z M 28.960938 14.949219 L 25.273438 14.949219 L 25.269531 11.273438 L 28.398438 11.273438 C 28.75 12.496094 28.933594 13.722656 28.960938 14.949219 Z M 24.5625 14.949219 L 20.820312 14.949219 C 20.84375 13.722656 21.03125 12.496094 21.378906 11.273438 L 24.558594 11.273438 Z M 20.09375 14.949219 L 16.445312 14.949219 C 16.5 13.625 16.855469 12.378906 17.453125 11.273438 L 20.628906 11.273438 C 20.296875 12.496094 20.117188 13.722656 20.09375 14.949219 Z M 17.882812 20.050781 L 20.871094 20.050781 C 21.230469 21.164062 21.71875 22.28125 22.332031 23.398438 C 20.503906 22.808594 18.9375 21.613281 17.882812 20.050781 Z M 27.425781 23.4375 C 28.046875 22.308594 28.542969 21.175781 28.90625 20.050781 L 31.992188 20.050781 C 30.914062 21.648438 29.308594 22.859375 27.425781 23.4375 Z M 31.992188 10.5625 L 28.9375 10.5625 C 28.570312 9.429688 28.070312 8.300781 27.4375 7.179688 C 29.3125 7.757812 30.914062 8.96875 31.992188 10.5625 Z M 26.476562 6.945312 C 27.203125 8.144531 27.765625 9.351562 28.175781 10.5625 L 25.265625 10.5625 L 25.257812 6.8125 C 25.671875 6.828125 26.078125 6.875 26.476562 6.945312 Z M 24.554688 10.5625 L 21.601562 10.5625 C 22.011719 9.359375 22.570312 8.15625 23.292969 6.964844 C 23.703125 6.882812 24.121094 6.832031 24.546875 6.8125 Z M 22.320312 7.21875 C 21.699219 8.328125 21.203125 9.445312 20.84375 10.5625 L 17.882812 10.5625 C 18.9375 9.003906 20.496094 7.808594 22.320312 7.21875 Z M 22.320312 7.21875 " fill-opacity="1" fill-rule="nonzero"/></g><g clip-path="url(#f20553bdc9)"><path fill="#cbcccd" d="M 18.078125 28.703125 L 9.445312 28.703125 C 8.039062 28.703125 6.894531 29.851562 6.894531 31.257812 L 6.894531 44.757812 C 6.894531 46.164062 8.039062 47.308594 9.445312 47.308594 L 18.078125 47.308594 C 19.484375 47.308594 20.628906 46.164062 20.628906 44.757812 L 20.628906 31.257812 C 20.628906 29.851562 19.484375 28.703125 18.078125 28.703125 Z M 19.917969 44.757812 C 19.917969 45.769531 19.09375 46.597656 18.078125 46.597656 L 9.445312 46.597656 C 8.433594 46.597656 7.605469 45.769531 7.605469 44.757812 L 7.605469 31.257812 C 7.605469 30.242188 8.433594 29.417969 9.445312 29.417969 L 18.078125 29.417969 C 19.09375 29.417969 19.917969 30.242188 19.917969 31.257812 Z M 19.917969 44.757812 " fill-opacity="1" fill-rule="nonzero"/></g><path fill="#cbcccd" d="M 11 33.539062 L 16.523438 33.539062 C 17.304688 33.539062 17.941406 32.90625 17.941406 32.125 C 17.941406 31.34375 17.304688 30.710938 16.523438 30.710938 L 11 30.710938 C 10.21875 30.710938 9.585938 31.34375 9.585938 32.125 C 9.585938 32.90625 10.21875 33.539062 11 33.539062 Z M 11 31.421875 L 16.523438 31.421875 C 16.914062 31.421875 17.230469 31.738281 17.230469 32.125 C 17.230469 32.511719 16.914062 32.828125 16.523438 32.828125 L 11 32.828125 C 10.613281 32.828125 10.296875 32.511719 10.296875 32.125 C 10.296875 31.738281 10.613281 31.421875 11 31.421875 Z M 11 31.421875 " fill-opacity="1" fill-rule="nonzero"/><path fill="#cbcccd" d="M 13.761719 36.804688 C 11.792969 36.804688 10.191406 38.40625 10.191406 40.375 C 10.191406 42.34375 11.792969 43.945312 13.761719 43.945312 C 15.734375 43.945312 17.335938 42.34375 17.335938 40.375 C 17.335938 38.40625 15.734375 36.804688 13.761719 36.804688 Z M 13.761719 43.234375 C 12.183594 43.234375 10.902344 41.953125 10.902344 40.375 C 10.902344 38.796875 12.183594 37.515625 13.761719 37.515625 C 15.339844 37.515625 16.625 38.796875 16.625 40.375 C 16.625 41.953125 15.339844 43.234375 13.761719 43.234375 Z M 13.761719 43.234375 " fill-opacity="1" fill-rule="nonzero"/><path fill="#cbcccd" d="M 13.761719 35.480469 C 11.0625 35.480469 8.867188 37.675781 8.867188 40.375 C 8.867188 43.074219 11.0625 45.269531 13.761719 45.269531 C 16.460938 45.269531 18.660156 43.074219 18.660156 40.375 C 18.660156 37.675781 16.460938 35.480469 13.761719 35.480469 Z M 13.761719 44.558594 C 11.457031 44.558594 9.578125 42.683594 9.578125 40.375 C 9.578125 38.066406 11.457031 36.191406 13.761719 36.191406 C 16.070312 36.191406 17.949219 38.066406 17.949219 40.375 C 17.949219 42.683594 16.070312 44.558594 13.761719 44.558594 Z M 13.761719 44.558594 " fill-opacity="1" fill-rule="nonzero"/><g clip-path="url(#c4d29e1e6b)"><path fill="#cbcccd" d="M 40.347656 28.703125 L 31.714844 28.703125 C 30.308594 28.703125 29.164062 29.851562 29.164062 31.257812 L 29.164062 44.757812 C 29.164062 46.164062 30.308594 47.308594 31.714844 47.308594 L 40.347656 47.308594 C 41.753906 47.308594 42.898438 46.164062 42.898438 44.757812 L 42.898438 31.257812 C 42.898438 29.851562 41.753906 28.703125 40.347656 28.703125 Z M 42.1875 44.757812 C 42.1875 45.769531 41.359375 46.597656 40.347656 46.597656 L 31.714844 46.597656 C 30.699219 46.597656 29.875 45.769531 29.875 44.757812 L 29.875 31.257812 C 29.875 30.242188 30.699219 29.417969 31.714844 29.417969 L 40.347656 29.417969 C 41.359375 29.417969 42.1875 30.242188 42.1875 31.257812 Z M 42.1875 44.757812 " fill-opacity="1" fill-rule="nonzero"/></g><path fill="#cbcccd" d="M 33.269531 33.539062 L 38.792969 33.539062 C 39.574219 33.539062 40.207031 32.90625 40.207031 32.125 C 40.207031 31.34375 39.574219 30.710938 38.792969 30.710938 L 33.269531 30.710938 C 32.488281 30.710938 31.851562 31.34375 31.851562 32.125 C 31.851562 32.90625 32.488281 33.539062 33.269531 33.539062 Z M 33.269531 31.421875 L 38.792969 31.421875 C 39.179688 31.421875 39.496094 31.738281 39.496094 32.125 C 39.496094 32.511719 39.179688 32.828125 38.792969 32.828125 L 33.269531 32.828125 C 32.878906 32.828125 32.5625 32.511719 32.5625 32.125 C 32.5625 31.738281 32.878906 31.421875 33.269531 31.421875 Z M 33.269531 31.421875 " fill-opacity="1" fill-rule="nonzero"/><path fill="#cbcccd" d="M 36.03125 36.804688 C 34.0625 36.804688 32.457031 38.40625 32.457031 40.375 C 32.457031 42.34375 34.0625 43.945312 36.03125 43.945312 C 38 43.945312 39.601562 42.34375 39.601562 40.375 C 39.601562 38.40625 38 36.804688 36.03125 36.804688 Z M 36.03125 43.234375 C 34.453125 43.234375 33.167969 41.953125 33.167969 40.375 C 33.167969 38.796875 34.453125 37.515625 36.03125 37.515625 C 37.609375 37.515625 38.890625 38.796875 38.890625 40.375 C 38.890625 41.953125 37.609375 43.234375 36.03125 43.234375 Z M 36.03125 43.234375 " fill-opacity="1" fill-rule="nonzero"/><path fill="#cbcccd" d="M 36.03125 35.480469 C 33.332031 35.480469 31.132812 37.675781 31.132812 40.375 C 31.132812 43.074219 33.332031 45.269531 36.03125 45.269531 C 38.730469 45.269531 40.925781 43.074219 40.925781 40.375 C 40.925781 37.675781 38.730469 35.480469 36.03125 35.480469 Z M 36.03125 44.558594 C 33.722656 44.558594 31.84375 42.683594 31.84375 40.375 C 31.84375 38.066406 33.722656 36.191406 36.03125 36.191406 C 38.339844 36.191406 40.214844 38.066406 40.214844 40.375 C 40.214844 42.683594 38.339844 44.558594 36.03125 44.558594 Z M 36.03125 44.558594 " fill-opacity="1" fill-rule="nonzero"/><path fill="#cbcccd" d="M 8.34375 26.703125 C 8.558594 26.84375 8.820312 26.917969 9.089844 26.917969 C 9.140625 26.917969 9.195312 26.914062 9.246094 26.910156 C 9.949219 26.839844 10.472656 26.292969 10.410156 25.691406 C 10.410156 25.683594 10.40625 25.675781 10.40625 25.667969 C 10.40625 25.664062 10.40625 25.660156 10.40625 25.65625 L 10.050781 23.90625 C 10.429688 23.480469 10.960938 23.132812 11.632812 22.878906 C 11.757812 22.828125 11.847656 22.710938 11.859375 22.574219 C 11.871094 22.4375 11.800781 22.304688 11.679688 22.238281 C 10.875 21.773438 10.054688 21.6875 9.242188 21.976562 C 9.074219 22.039062 8.976562 22.210938 9.011719 22.382812 L 9.316406 23.875 C 9.316406 23.878906 9.320312 23.882812 9.320312 23.890625 L 9.496094 24.761719 C 9.347656 24.726562 9.1875 24.714844 9.023438 24.730469 C 8.320312 24.800781 7.796875 25.347656 7.859375 25.949219 C 7.890625 26.25 8.066406 26.527344 8.34375 26.703125 Z M 10.613281 22.566406 C 10.34375 22.71875 10.097656 22.890625 9.878906 23.078125 L 9.773438 22.5625 C 10.054688 22.503906 10.335938 22.503906 10.613281 22.566406 Z M 9.097656 25.4375 C 9.121094 25.433594 9.148438 25.433594 9.175781 25.433594 C 9.425781 25.433594 9.648438 25.558594 9.695312 25.722656 L 9.703125 25.769531 C 9.71875 25.96875 9.472656 26.171875 9.171875 26.199219 C 9.011719 26.21875 8.847656 26.183594 8.726562 26.105469 C 8.671875 26.070312 8.578125 25.992188 8.566406 25.875 C 8.546875 25.671875 8.792969 25.46875 9.097656 25.4375 Z M 9.097656 25.4375 " fill-opacity="1" fill-rule="nonzero"/><path fill="#cbcccd" d="M 35.433594 23.589844 C 35.441406 23.453125 35.375 23.320312 35.253906 23.253906 C 34.449219 22.789062 33.628906 22.703125 32.816406 22.996094 C 32.648438 23.054688 32.550781 23.226562 32.585938 23.402344 L 32.890625 24.894531 C 32.890625 24.894531 32.890625 24.898438 32.890625 24.902344 L 33.070312 25.773438 C 32.917969 25.738281 32.757812 25.730469 32.597656 25.746094 C 32.273438 25.78125 31.972656 25.914062 31.753906 26.128906 C 31.519531 26.355469 31.402344 26.664062 31.433594 26.964844 C 31.464844 27.265625 31.640625 27.542969 31.914062 27.71875 C 32.132812 27.859375 32.390625 27.933594 32.664062 27.933594 C 32.714844 27.933594 32.765625 27.929688 32.816406 27.925781 C 33.144531 27.890625 33.445312 27.757812 33.660156 27.542969 C 33.898438 27.316406 34.015625 27.007812 33.984375 26.707031 C 33.984375 26.699219 33.980469 26.691406 33.980469 26.683594 C 33.976562 26.679688 33.980469 26.675781 33.980469 26.671875 L 33.621094 24.921875 C 34.003906 24.496094 34.535156 24.148438 35.203125 23.894531 C 35.332031 23.84375 35.421875 23.726562 35.433594 23.589844 Z M 32.746094 27.21875 C 32.582031 27.234375 32.421875 27.199219 32.300781 27.125 C 32.246094 27.085938 32.152344 27.011719 32.140625 26.894531 C 32.128906 26.777344 32.207031 26.683594 32.253906 26.636719 C 32.355469 26.535156 32.507812 26.46875 32.671875 26.453125 C 32.699219 26.449219 32.722656 26.449219 32.75 26.449219 C 32.886719 26.449219 33.015625 26.484375 33.117188 26.546875 C 33.167969 26.582031 33.25 26.652344 33.269531 26.753906 L 33.277344 26.785156 C 33.285156 26.898438 33.210938 26.992188 33.164062 27.035156 C 33.0625 27.136719 32.910156 27.203125 32.746094 27.21875 Z M 33.453125 24.09375 L 33.347656 23.582031 C 33.628906 23.523438 33.90625 23.523438 34.1875 23.585938 C 33.917969 23.738281 33.671875 23.90625 33.453125 24.09375 Z M 33.453125 24.09375 " fill-opacity="1" fill-rule="nonzero"/><path fill="#cbcccd" d="M 43.03125 23.203125 C 42.84375 23.152344 42.648438 23.261719 42.59375 23.453125 L 41.949219 25.785156 C 41.828125 25.6875 41.691406 25.605469 41.539062 25.546875 C 40.878906 25.289062 40.167969 25.539062 39.949219 26.101562 C 39.730469 26.664062 40.085938 27.332031 40.746094 27.589844 C 40.921875 27.65625 41.101562 27.6875 41.277344 27.6875 C 41.75 27.6875 42.179688 27.445312 42.339844 27.03125 C 42.339844 27.023438 42.339844 27.015625 42.34375 27.011719 C 42.347656 27.007812 42.347656 27.003906 42.351562 27 L 43.28125 23.640625 C 43.332031 23.453125 43.222656 23.257812 43.03125 23.203125 Z M 41.003906 26.925781 C 40.71875 26.816406 40.535156 26.550781 40.609375 26.359375 C 40.660156 26.230469 40.820312 26.15625 41.007812 26.15625 C 41.097656 26.15625 41.191406 26.175781 41.28125 26.210938 C 41.4375 26.269531 41.566406 26.375 41.636719 26.496094 C 41.667969 26.550781 41.707031 26.648438 41.679688 26.75 L 41.671875 26.78125 C 41.59375 26.964844 41.285156 27.035156 41.003906 26.925781 Z M 41.003906 26.925781 " fill-opacity="1" fill-rule="nonzero"/><g clip-path="url(#af939ed562)"><path fill="#cbcccd" d="M 46.433594 33.222656 C 46.246094 33.171875 46.050781 33.28125 45.996094 33.46875 L 45.347656 35.808594 C 45.230469 35.710938 45.09375 35.625 44.941406 35.566406 C 44.636719 35.445312 44.308594 35.429688 44.015625 35.523438 C 43.703125 35.621094 43.460938 35.839844 43.347656 36.121094 C 43.128906 36.683594 43.488281 37.351562 44.148438 37.605469 C 44.324219 37.675781 44.503906 37.710938 44.683594 37.710938 C 44.816406 37.710938 44.949219 37.691406 45.070312 37.652344 C 45.355469 37.5625 45.578125 37.371094 45.699219 37.125 C 45.703125 37.125 45.703125 37.121094 45.703125 37.117188 C 45.714844 37.097656 45.730469 37.074219 45.738281 37.050781 C 45.742188 37.042969 45.742188 37.035156 45.746094 37.03125 C 45.746094 37.023438 45.75 37.023438 45.75 37.015625 L 46.679688 33.660156 C 46.734375 33.46875 46.625 33.273438 46.433594 33.222656 Z M 44.859375 36.972656 C 44.726562 37.011719 44.558594 37.003906 44.40625 36.945312 C 44.121094 36.832031 43.9375 36.570312 44.011719 36.378906 C 44.054688 36.269531 44.167969 36.21875 44.230469 36.199219 C 44.285156 36.183594 44.34375 36.175781 44.40625 36.175781 C 44.496094 36.175781 44.59375 36.191406 44.683594 36.226562 C 44.953125 36.332031 45.128906 36.574219 45.082031 36.765625 L 45.074219 36.800781 C 45.03125 36.902344 44.921875 36.953125 44.859375 36.972656 Z M 44.859375 36.972656 " fill-opacity="1" fill-rule="nonzero"/></g><path fill="#cbcccd" d="M 35.695312 15.65625 C 35.695312 15.851562 35.855469 16.011719 36.050781 16.011719 C 36.847656 16.011719 37.402344 17.1875 37.402344 18.242188 C 37.402344 18.441406 37.5625 18.601562 37.757812 18.601562 C 37.953125 18.601562 38.113281 18.441406 38.113281 18.242188 C 38.113281 17.1875 38.667969 16.011719 39.464844 16.011719 C 39.660156 16.011719 39.820312 15.851562 39.820312 15.65625 C 39.820312 15.457031 39.660156 15.300781 39.464844 15.300781 C 38.578125 15.300781 38.113281 14.179688 38.113281 13.074219 C 38.113281 12.878906 37.953125 12.71875 37.757812 12.71875 C 37.5625 12.71875 37.402344 12.878906 37.402344 13.074219 C 37.402344 14.179688 36.9375 15.300781 36.050781 15.300781 C 35.855469 15.300781 35.695312 15.457031 35.695312 15.65625 Z M 37.757812 14.789062 C 37.933594 15.160156 38.171875 15.460938 38.453125 15.671875 C 38.167969 15.902344 37.933594 16.230469 37.757812 16.605469 C 37.582031 16.230469 37.347656 15.902344 37.0625 15.671875 C 37.34375 15.460938 37.582031 15.160156 37.757812 14.789062 Z M 37.757812 14.789062 " fill-opacity="1" fill-rule="nonzero"/><path fill="#cbcccd" d="M 32.609375 6.519531 C 33.40625 6.519531 33.964844 7.695312 33.964844 8.753906 C 33.964844 8.949219 34.121094 9.109375 34.320312 9.109375 C 34.515625 9.109375 34.675781 8.949219 34.675781 8.753906 C 34.675781 7.695312 35.230469 6.519531 36.027344 6.519531 C 36.222656 6.519531 36.382812 6.359375 36.382812 6.164062 C 36.382812 5.96875 36.222656 5.808594 36.027344 5.808594 C 35.136719 5.808594 34.675781 4.6875 34.675781 3.582031 C 34.675781 3.386719 34.515625 3.226562 34.320312 3.226562 C 34.121094 3.226562 33.964844 3.386719 33.964844 3.582031 C 33.964844 4.6875 33.5 5.808594 32.609375 5.808594 C 32.414062 5.808594 32.253906 5.96875 32.253906 6.164062 C 32.253906 6.359375 32.414062 6.519531 32.609375 6.519531 Z M 34.320312 5.296875 C 34.496094 5.667969 34.734375 5.96875 35.015625 6.179688 C 34.726562 6.410156 34.492188 6.738281 34.320312 7.113281 C 34.144531 6.738281 33.910156 6.410156 33.621094 6.179688 C 33.90625 5.96875 34.140625 5.667969 34.320312 5.296875 Z M 34.320312 5.296875 " fill-opacity="1" fill-rule="nonzero"/><path fill="#cbcccd" d="M 14.371094 24.550781 C 14.175781 24.550781 14.015625 24.707031 14.015625 24.90625 C 14.015625 25.101562 14.175781 25.261719 14.371094 25.261719 C 15.167969 25.261719 15.722656 26.4375 15.722656 27.496094 C 15.722656 27.691406 15.882812 27.851562 16.078125 27.851562 C 16.273438 27.851562 16.433594 27.691406 16.433594 27.496094 C 16.433594 26.4375 16.988281 25.261719 17.785156 25.261719 C 17.980469 25.261719 18.140625 25.101562 18.140625 24.90625 C 18.140625 24.707031 17.980469 24.550781 17.785156 24.550781 C 16.898438 24.550781 16.433594 23.429688 16.433594 22.324219 C 16.433594 22.128906 16.273438 21.96875 16.078125 21.96875 C 15.882812 21.96875 15.722656 22.128906 15.722656 22.324219 C 15.722656 23.429688 15.257812 24.550781 14.371094 24.550781 Z M 16.078125 24.039062 C 16.257812 24.410156 16.492188 24.710938 16.777344 24.921875 C 16.488281 25.152344 16.253906 25.480469 16.078125 25.855469 C 15.90625 25.480469 15.667969 25.152344 15.382812 24.921875 C 15.664062 24.710938 15.902344 24.410156 16.078125 24.039062 Z M 16.078125 24.039062 " fill-opacity="1" fill-rule="nonzero"/><path fill="#cbcccd" d="M 11.847656 9.832031 C 12.644531 9.832031 13.199219 11.007812 13.199219 12.066406 C 13.199219 12.261719 13.359375 12.421875 13.554688 12.421875 C 13.75 12.421875 13.910156 12.261719 13.910156 12.066406 C 13.910156 11.007812 14.464844 9.832031 15.261719 9.832031 C 15.457031 9.832031 15.617188 9.671875 15.617188 9.476562 C 15.617188 9.28125 15.457031 9.121094 15.261719 9.121094 C 14.375 9.121094 13.910156 8.003906 13.910156 6.898438 C 13.910156 6.699219 13.75 6.542969 13.554688 6.542969 C 13.359375 6.542969 13.199219 6.699219 13.199219 6.898438 C 13.199219 8.003906 12.734375 9.121094 11.847656 9.121094 C 11.652344 9.121094 11.492188 9.28125 11.492188 9.476562 C 11.492188 9.671875 11.652344 9.832031 11.847656 9.832031 Z M 13.554688 8.609375 C 13.734375 8.980469 13.96875 9.28125 14.253906 9.492188 C 13.964844 9.722656 13.730469 10.050781 13.554688 10.425781 C 13.382812 10.050781 13.144531 9.722656 12.859375 9.492188 C 13.140625 9.28125 13.378906 8.980469 13.554688 8.609375 Z M 13.554688 8.609375 " fill-opacity="1" fill-rule="nonzero"/><path fill="#cbcccd" d="M 27.304688 29.242188 L 24.683594 27.382812 C 24.59375 27.320312 24.480469 27.300781 24.375 27.332031 C 24.269531 27.363281 24.1875 27.441406 24.148438 27.546875 L 23.269531 29.800781 C 23.160156 29.691406 23.03125 29.597656 22.886719 29.523438 C 22.59375 29.375 22.269531 29.328125 21.972656 29.386719 C 21.648438 29.453125 21.386719 29.648438 21.246094 29.917969 C 20.972656 30.453125 21.261719 31.152344 21.890625 31.476562 C 22.101562 31.582031 22.328125 31.636719 22.550781 31.636719 C 22.636719 31.636719 22.722656 31.628906 22.808594 31.613281 C 23.128906 31.546875 23.394531 31.351562 23.53125 31.082031 C 23.535156 31.074219 23.535156 31.066406 23.539062 31.058594 C 23.542969 31.054688 23.546875 31.054688 23.546875 31.050781 L 24.644531 28.226562 L 26.667969 29.660156 L 25.890625 31.660156 C 25.78125 31.550781 25.652344 31.453125 25.507812 31.382812 C 25.214844 31.234375 24.890625 31.183594 24.59375 31.246094 C 24.269531 31.3125 24.003906 31.503906 23.867188 31.773438 C 23.59375 32.3125 23.882812 33.011719 24.511719 33.332031 C 24.722656 33.4375 24.949219 33.496094 25.171875 33.496094 C 25.257812 33.496094 25.34375 33.484375 25.425781 33.46875 C 25.722656 33.410156 25.960938 33.238281 26.109375 33.003906 C 26.113281 33 26.117188 32.992188 26.121094 32.984375 C 26.132812 32.96875 26.144531 32.957031 26.152344 32.9375 C 26.15625 32.933594 26.15625 32.925781 26.160156 32.917969 C 26.160156 32.914062 26.164062 32.910156 26.167969 32.90625 L 27.429688 29.660156 C 27.488281 29.507812 27.4375 29.335938 27.304688 29.242188 Z M 22.664062 30.914062 C 22.527344 30.945312 22.363281 30.917969 22.214844 30.84375 C 21.945312 30.703125 21.789062 30.421875 21.878906 30.242188 C 21.933594 30.136719 22.050781 30.097656 22.113281 30.085938 C 22.152344 30.078125 22.1875 30.074219 22.226562 30.074219 C 22.339844 30.074219 22.457031 30.101562 22.5625 30.15625 C 22.710938 30.234375 22.828125 30.351562 22.886719 30.480469 C 22.914062 30.535156 22.941406 30.636719 22.90625 30.734375 L 22.894531 30.765625 C 22.839844 30.863281 22.726562 30.902344 22.664062 30.914062 Z M 25.285156 32.773438 C 25.148438 32.800781 24.984375 32.773438 24.835938 32.699219 C 24.5625 32.5625 24.40625 32.28125 24.5 32.097656 C 24.554688 31.992188 24.671875 31.957031 24.734375 31.941406 C 24.769531 31.933594 24.808594 31.929688 24.847656 31.929688 C 24.957031 31.929688 25.074219 31.960938 25.183594 32.015625 C 25.332031 32.089844 25.449219 32.207031 25.507812 32.335938 C 25.53125 32.390625 25.5625 32.496094 25.527344 32.59375 L 25.515625 32.621094 C 25.460938 32.722656 25.347656 32.761719 25.285156 32.773438 Z M 25.285156 32.773438 " fill-opacity="1" fill-rule="nonzero"/><g clip-path="url(#cdac04a49a)"><path fill="#cbcccd" d="M 5.726562 38.71875 L 5.03125 35.304688 C 4.992188 35.113281 4.804688 34.988281 4.609375 35.027344 C 4.417969 35.066406 4.292969 35.253906 4.335938 35.449219 L 4.816406 37.820312 C 4.667969 37.785156 4.507812 37.777344 4.347656 37.792969 C 4.019531 37.828125 3.71875 37.960938 3.503906 38.175781 C 3.265625 38.402344 3.148438 38.710938 3.179688 39.011719 C 3.210938 39.3125 3.386719 39.589844 3.664062 39.765625 C 3.878906 39.90625 4.140625 39.980469 4.414062 39.980469 C 4.464844 39.980469 4.515625 39.976562 4.566406 39.972656 C 5.269531 39.902344 5.792969 39.355469 5.730469 38.753906 C 5.730469 38.746094 5.726562 38.738281 5.726562 38.730469 C 5.726562 38.726562 5.726562 38.722656 5.726562 38.71875 Z M 4.496094 39.265625 C 4.332031 39.28125 4.167969 39.246094 4.050781 39.171875 C 3.992188 39.132812 3.898438 39.058594 3.886719 38.941406 C 3.875 38.824219 3.953125 38.730469 4 38.683594 C 4.101562 38.582031 4.253906 38.515625 4.417969 38.5 C 4.445312 38.496094 4.472656 38.496094 4.5 38.496094 C 4.632812 38.496094 4.765625 38.53125 4.863281 38.59375 C 4.914062 38.628906 4.996094 38.699219 5.019531 38.800781 L 5.023438 38.832031 C 5.039062 39.035156 4.792969 39.234375 4.496094 39.265625 Z M 4.496094 39.265625 " fill-opacity="1" fill-rule="nonzero"/></g></svg>