<svg xmlns="http://www.w3.org/2000/svg" xmlns:xlink="http://www.w3.org/1999/xlink" width="70" zoomAndPan="magnify" viewBox="0 0 52.5 52.499999" height="70" preserveAspectRatio="xMidYMid meet" version="1.0"><defs><clipPath id="b1be4056b6"><path d="M 13.632812 3.835938 L 38.148438 3.835938 L 38.148438 50.640625 L 13.632812 50.640625 Z M 13.632812 3.835938 " clip-rule="nonzero"/></clipPath></defs><g clip-path="url(#b1be4056b6)"><path fill="#6d3c11" d="M 16.921875 11.230469 C 16.800781 10.195312 17.507812 9.488281 18.328125 9.230469 C 18.710938 9.109375 19.082031 8.949219 19.398438 8.699219 C 19.625 8.53125 19.867188 8.417969 20.136719 8.363281 C 20.265625 8.335938 20.386719 8.351562 20.5 8.429688 C 20.65625 8.53125 20.804688 8.652344 20.957031 8.761719 C 20.992188 8.792969 21.03125 8.820312 21.039062 8.855469 C 21.121094 9.136719 21.394531 9.183594 21.625 9.320312 C 21.605469 9.171875 21.597656 9.015625 21.578125 8.867188 C 21.570312 8.828125 21.53125 8.792969 21.503906 8.773438 C 21.253906 8.625 21.152344 8.382812 21.09375 8.109375 C 21.046875 7.871094 20.972656 7.628906 20.925781 7.375 C 20.898438 7.253906 20.824219 7.199219 20.714844 7.179688 C 20.554688 7.152344 20.441406 7.050781 20.394531 6.917969 C 20.292969 6.660156 20.246094 6.378906 20.332031 6.101562 C 20.359375 6.015625 20.425781 5.941406 20.480469 5.875 C 20.703125 5.644531 20.925781 5.421875 21.152344 5.1875 C 21.589844 4.730469 22.054688 4.332031 22.640625 4.070312 C 22.976562 3.929688 23.328125 3.875 23.683594 3.855469 C 23.953125 3.835938 24.195312 3.929688 24.363281 4.152344 C 24.371094 4.171875 24.390625 4.191406 24.410156 4.191406 C 24.558594 4.21875 24.707031 4.246094 24.855469 4.265625 C 24.996094 4.292969 25.15625 4.285156 25.285156 4.339844 C 25.769531 4.542969 26.085938 4.90625 26.152344 5.449219 C 26.207031 5.921875 26.261719 6.40625 26.320312 6.882812 C 26.335938 7.003906 26.335938 7.132812 26.382812 7.253906 C 26.46875 7.507812 26.46875 7.757812 26.457031 8.007812 C 26.449219 8.148438 26.515625 8.1875 26.652344 8.1875 C 26.878906 8.175781 27.101562 8.175781 27.316406 8.203125 C 27.613281 8.242188 27.902344 8.316406 28.191406 8.382812 C 28.210938 8.382812 28.21875 8.382812 28.238281 8.390625 C 28.542969 8.390625 28.851562 8.382812 29.148438 8.390625 C 29.402344 8.398438 29.632812 8.382812 29.875 8.296875 C 30.128906 8.214844 30.398438 8.167969 30.660156 8.128906 C 30.75 8.121094 30.863281 8.175781 30.957031 8.214844 C 31.03125 8.242188 31.097656 8.277344 31.171875 8.324219 C 31.597656 8.566406 31.933594 8.902344 32.242188 9.285156 C 32.289062 9.351562 32.34375 9.414062 32.382812 9.480469 C 32.539062 9.730469 32.761719 9.917969 33.070312 9.992188 C 33.097656 9.910156 33.125 9.824219 33.152344 9.742188 C 33.210938 9.546875 33.273438 9.359375 33.320312 9.164062 C 33.339844 9.097656 33.320312 9.015625 33.285156 8.949219 C 33.226562 8.847656 33.152344 8.761719 33.089844 8.679688 C 32.910156 8.4375 32.847656 8.167969 32.921875 7.871094 C 32.976562 7.636719 33.023438 7.402344 33.0625 7.171875 C 33.070312 7.144531 33.050781 7.105469 33.042969 7.078125 C 32.988281 6.957031 32.929688 6.835938 32.875 6.714844 C 32.789062 6.539062 32.828125 6.425781 32.996094 6.265625 C 33.136719 6.136719 33.265625 6.109375 33.414062 6.210938 C 33.554688 6.304688 33.667969 6.433594 33.804688 6.566406 C 33.910156 6.507812 34.046875 6.433594 34.179688 6.359375 C 34.1875 6.351562 34.195312 6.34375 34.195312 6.332031 C 34.289062 6.089844 34.496094 5.96875 34.738281 5.90625 C 34.847656 5.867188 34.953125 5.839844 35.0625 5.8125 C 35.183594 5.785156 35.304688 5.785156 35.398438 5.894531 C 35.480469 5.996094 35.511719 6.117188 35.453125 6.25 C 35.453125 6.257812 35.445312 6.265625 35.445312 6.265625 C 35.480469 6.417969 35.492188 6.566406 35.453125 6.722656 C 35.453125 6.734375 35.480469 6.761719 35.5 6.769531 C 35.707031 6.84375 35.734375 7.023438 35.742188 7.199219 C 35.742188 7.300781 35.761719 7.367188 35.835938 7.449219 C 35.902344 7.515625 35.9375 7.628906 35.9375 7.71875 C 35.949219 7.972656 35.949219 8.230469 35.929688 8.484375 C 35.917969 8.613281 35.855469 8.734375 35.816406 8.855469 C 35.964844 8.957031 36.125 9.070312 36.273438 9.183594 C 36.515625 9.359375 36.644531 9.601562 36.691406 9.910156 C 36.757812 10.382812 36.859375 10.847656 36.945312 11.316406 C 36.992188 11.601562 37.074219 11.882812 37.082031 12.171875 C 37.113281 12.710938 36.925781 13.195312 36.570312 13.605469 C 36.46875 13.726562 36.300781 13.820312 36.152344 13.855469 C 35.464844 14.023438 34.753906 14.035156 34.058594 13.941406 C 33.953125 13.921875 33.863281 13.886719 33.75 13.847656 C 33.648438 14.117188 33.527344 14.386719 33.433594 14.667969 C 33.304688 15.046875 33.097656 15.375 32.773438 15.617188 C 32.746094 15.636719 32.726562 15.683594 32.726562 15.710938 C 32.820312 16.242188 32.941406 16.761719 33.015625 17.292969 C 33.171875 18.316406 33.292969 19.351562 33.453125 20.382812 C 33.535156 20.925781 33.695312 21.457031 33.777344 21.996094 C 33.917969 22.871094 34.027344 23.753906 34.167969 24.632812 C 34.234375 25.023438 34.113281 25.339844 33.863281 25.628906 C 33.769531 25.738281 33.742188 25.839844 33.75 25.980469 C 33.777344 26.457031 33.777344 26.941406 33.777344 27.414062 C 33.769531 28.113281 33.75 28.8125 33.722656 29.511719 C 33.710938 29.667969 33.722656 29.828125 33.609375 29.96875 C 33.589844 29.996094 33.609375 30.058594 33.628906 30.105469 C 33.730469 30.441406 33.871094 30.757812 33.945312 31.101562 C 34.148438 31.996094 34.550781 32.816406 34.90625 33.65625 C 35.277344 34.539062 35.648438 35.421875 35.902344 36.355469 C 35.964844 36.597656 36.070312 36.839844 36.191406 37.0625 C 36.542969 37.761719 36.917969 38.441406 37.269531 39.128906 C 37.71875 40.015625 37.847656 40.9375 37.550781 41.894531 C 37.4375 42.238281 37.445312 42.558594 37.539062 42.902344 C 37.640625 43.273438 37.867188 43.589844 38.050781 43.925781 C 38.125 44.054688 38.199219 44.1875 38.265625 44.324219 C 38.367188 44.550781 38.367188 44.792969 38.257812 45.003906 C 38.15625 45.203125 38.042969 45.414062 37.875 45.566406 C 37.054688 46.308594 36.132812 46.851562 35.007812 46.953125 C 34.605469 46.988281 34.207031 46.980469 33.804688 47.015625 C 33.574219 47.035156 33.332031 47.101562 33.105469 47.175781 C 32.828125 47.269531 32.613281 47.464844 32.492188 47.734375 C 32.296875 48.179688 31.953125 48.394531 31.503906 48.507812 C 30.75 48.695312 30.007812 48.710938 29.242188 48.496094 C 28.992188 48.421875 28.703125 48.433594 28.433594 48.433594 C 27.863281 48.441406 27.316406 48.527344 26.785156 48.722656 C 26.488281 48.832031 26.226562 49.011719 26.039062 49.269531 C 25.621094 49.867188 24.996094 50.109375 24.324219 50.25 C 24.121094 50.296875 23.90625 50.257812 23.703125 50.265625 C 23.265625 50.285156 22.828125 50.332031 22.378906 50.339844 C 21.664062 50.359375 20.945312 50.398438 20.230469 50.371094 C 19.539062 50.339844 18.871094 50.164062 18.246094 49.859375 C 17.882812 49.671875 17.554688 49.4375 17.285156 49.132812 C 16.933594 48.738281 16.894531 48.460938 17.144531 47.910156 C 17.203125 47.800781 17.285156 47.695312 17.351562 47.59375 C 17.40625 47.511719 17.472656 47.4375 17.519531 47.34375 C 17.628906 47.148438 17.554688 46.914062 17.34375 46.859375 C 17.109375 46.792969 16.867188 46.757812 16.625 46.738281 C 16.253906 46.710938 15.898438 46.617188 15.542969 46.496094 C 15.332031 46.421875 15.144531 46.28125 14.996094 46.105469 C 14.820312 45.871094 14.605469 45.6875 14.351562 45.535156 C 13.914062 45.285156 13.730469 44.867188 13.683594 44.371094 C 13.636719 43.84375 13.777344 43.367188 14 42.890625 C 14.335938 42.203125 14.863281 41.679688 15.441406 41.195312 C 15.832031 40.871094 16.214844 40.527344 16.597656 40.183594 C 16.726562 40.0625 16.839844 39.921875 16.941406 39.78125 C 17.492188 39.054688 17.902344 38.265625 18.113281 37.378906 C 18.28125 36.699219 18.421875 36.019531 18.589844 35.347656 C 18.832031 34.363281 19.167969 33.414062 19.671875 32.527344 C 19.679688 32.519531 19.679688 32.5 19.6875 32.472656 C 19.503906 32.507812 19.324219 32.546875 19.148438 32.582031 C 18.597656 32.695312 18.058594 32.703125 17.507812 32.59375 C 16.914062 32.480469 16.363281 31.949219 16.289062 31.410156 C 16.261719 31.207031 16.261719 30.992188 16.289062 30.785156 C 16.34375 30.339844 16.214844 29.996094 15.816406 29.753906 C 15.515625 29.566406 15.257812 29.34375 15.078125 29.027344 C 14.714844 28.382812 14.585938 27.722656 14.855469 27.015625 C 15.015625 26.605469 15.179688 26.195312 15.300781 25.777344 C 15.460938 25.234375 15.582031 24.675781 15.710938 24.128906 C 15.878906 23.390625 15.972656 22.636719 16.011719 21.882812 C 16.019531 21.59375 15.953125 21.296875 15.90625 21.007812 C 15.871094 20.738281 15.824219 20.460938 15.757812 20.1875 C 15.683594 19.902344 15.609375 19.601562 15.5 19.324219 C 15.320312 18.886719 15.332031 18.429688 15.339844 17.972656 C 15.347656 17.730469 15.339844 17.480469 15.347656 17.238281 C 15.367188 16.828125 15.480469 16.445312 15.621094 16.0625 C 15.832031 15.449219 16.039062 14.835938 16.09375 14.183594 C 16.148438 13.539062 16.234375 12.90625 16.1875 12.265625 C 16.148438 11.714844 16.335938 11.425781 16.859375 11.210938 C 16.894531 11.25 16.914062 11.238281 16.921875 11.230469 Z M 14.929688 45.433594 C 15.890625 43.84375 16.949219 42.324219 17.882812 40.714844 C 17.902344 40.789062 17.902344 40.851562 17.890625 40.917969 C 17.828125 41.394531 17.640625 41.832031 17.425781 42.25 C 16.921875 43.246094 16.242188 44.128906 15.554688 45.003906 C 15.40625 45.191406 15.257812 45.378906 15.089844 45.59375 C 15.300781 45.75 15.480469 45.925781 15.695312 46.019531 C 15.972656 46.132812 16.289062 46.179688 16.585938 46.253906 C 16.839844 46.308594 17.101562 46.335938 17.351562 46.410156 C 17.492188 46.449219 17.601562 46.542969 17.742188 46.617188 C 17.828125 46.28125 17.929688 45.945312 18.003906 45.609375 C 18.21875 44.679688 18.429688 43.75 18.617188 42.808594 C 18.90625 41.347656 19.148438 39.875 19.4375 38.421875 C 19.808594 36.570312 20.480469 34.789062 21.039062 32.992188 C 21.046875 32.957031 21.074219 32.929688 21.09375 32.898438 C 21.121094 32.9375 21.121094 32.957031 21.121094 32.984375 C 21.039062 33.476562 20.972656 33.972656 20.851562 34.457031 C 20.273438 36.707031 19.828125 38.980469 19.484375 41.28125 C 19.324219 42.304688 19.175781 43.328125 18.878906 44.324219 C 18.636719 45.15625 18.347656 45.972656 18.085938 46.804688 C 17.976562 47.15625 17.828125 47.484375 17.601562 47.78125 C 17.546875 47.855469 17.492188 47.9375 17.464844 48.03125 C 17.40625 48.226562 17.351562 48.441406 17.519531 48.609375 C 17.929688 49.027344 18.394531 49.355469 18.953125 49.53125 C 19.261719 49.625 19.578125 49.71875 19.894531 49.765625 C 20.648438 49.886719 21.410156 49.859375 22.164062 49.820312 C 22.78125 49.792969 23.386719 49.746094 24 49.839844 C 24.148438 49.859375 24.316406 49.839844 24.457031 49.800781 C 24.6875 49.738281 24.929688 49.652344 25.144531 49.539062 C 25.304688 49.457031 25.453125 49.316406 25.574219 49.175781 C 25.648438 49.09375 25.65625 48.964844 25.703125 48.859375 C 25.917969 48.394531 26.132812 47.929688 26.355469 47.472656 C 26.90625 46.355469 27.351562 45.191406 27.652344 43.980469 C 27.910156 42.921875 28.078125 41.839844 28.003906 40.742188 C 27.921875 39.59375 27.789062 38.460938 27.679688 37.3125 C 27.667969 37.210938 27.660156 37.117188 27.652344 37.015625 C 27.660156 37.015625 27.679688 37.007812 27.6875 37.007812 C 27.695312 37.035156 27.714844 37.0625 27.726562 37.089844 C 27.78125 37.265625 27.847656 37.445312 27.902344 37.628906 C 28.144531 38.476562 28.273438 39.34375 28.40625 40.210938 C 28.527344 40.972656 28.574219 41.738281 28.46875 42.5 C 28.273438 44.039062 27.808594 45.5 27.109375 46.886719 C 26.839844 47.410156 26.542969 47.910156 26.261719 48.433594 C 26.246094 48.460938 26.234375 48.488281 26.207031 48.542969 C 26.671875 48.265625 27.148438 48.125 27.640625 48.042969 C 28.246094 47.949219 28.84375 47.882812 29.449219 48.050781 C 29.914062 48.179688 30.386719 48.199219 30.855469 48.117188 C 31.132812 48.070312 31.402344 48.003906 31.664062 47.910156 C 31.898438 47.828125 31.972656 47.660156 31.953125 47.417969 C 31.945312 47.34375 31.945312 47.277344 31.945312 47.203125 C 31.933594 46.644531 31.953125 46.085938 31.925781 45.527344 C 31.859375 44.195312 31.765625 42.863281 31.824219 41.53125 C 31.824219 41.496094 31.832031 41.449219 31.832031 41.394531 C 31.867188 41.410156 31.878906 41.421875 31.886719 41.429688 C 32.195312 43.320312 32.410156 45.21875 32.261719 47.167969 C 32.296875 47.136719 32.316406 47.128906 32.324219 47.109375 C 32.605469 46.851562 32.929688 46.683594 33.304688 46.636719 C 33.695312 46.589844 34.09375 46.5625 34.496094 46.570312 C 35.269531 46.578125 35.964844 46.382812 36.582031 45.929688 C 36.886719 45.703125 37.1875 45.460938 37.457031 45.191406 C 37.773438 44.867188 37.773438 44.671875 37.550781 44.28125 C 37.53125 44.242188 37.503906 44.203125 37.484375 44.167969 C 37.308594 43.765625 37.082031 43.386719 37.066406 42.9375 C 37.066406 42.902344 37.046875 42.855469 37.027344 42.816406 C 36.765625 42.351562 36.507812 41.878906 36.246094 41.410156 C 35.40625 39.941406 34.542969 38.476562 33.898438 36.90625 C 33.609375 36.195312 33.339844 35.488281 33.0625 34.78125 C 33.050781 34.753906 33.0625 34.714844 33.0625 34.679688 C 33.089844 34.699219 33.125 34.714844 33.144531 34.742188 C 33.238281 34.902344 33.332031 35.058594 33.414062 35.226562 C 33.945312 36.234375 34.476562 37.238281 35.015625 38.234375 C 35.660156 39.417969 36.320312 40.59375 36.980469 41.765625 C 37 41.792969 37.019531 41.8125 37.035156 41.847656 C 37.140625 41.363281 37.15625 40.898438 37.101562 40.425781 C 37.046875 39.875 36.945312 39.34375 36.691406 38.851562 C 36.421875 38.320312 36.132812 37.789062 35.855469 37.257812 C 35.742188 37.035156 35.632812 36.8125 35.539062 36.578125 C 35.453125 36.375 35.398438 36.160156 35.3125 35.964844 C 34.941406 35.078125 34.558594 34.195312 34.179688 33.320312 C 33.890625 32.648438 33.582031 31.996094 33.441406 31.28125 C 33.414062 31.148438 33.367188 31.019531 33.320312 30.878906 C 33.164062 30.320312 32.949219 29.769531 32.988281 29.175781 C 32.988281 29.148438 32.976562 29.128906 32.976562 29.101562 C 32.835938 28.71875 32.714844 28.335938 32.546875 27.972656 C 32.277344 27.359375 31.972656 26.761719 31.691406 26.15625 C 31.449219 25.636719 31.171875 25.144531 30.824219 24.6875 C 30.359375 24.0625 29.894531 23.4375 29.523438 22.75 C 29.28125 22.292969 28.972656 21.882812 28.648438 21.484375 C 28.433594 21.222656 28.21875 20.960938 28.023438 20.683594 C 27.828125 20.402344 27.660156 20.113281 27.640625 19.761719 C 27.632812 19.5 27.640625 19.238281 27.667969 18.988281 C 27.726562 18.464844 27.695312 17.980469 27.296875 17.589844 C 27.195312 17.488281 27.109375 17.441406 26.960938 17.488281 C 26.773438 17.535156 26.589844 17.554688 26.410156 17.582031 C 26.394531 17.664062 26.394531 17.75 26.355469 17.804688 C 26.1875 18.058594 26.039062 18.335938 25.816406 18.539062 C 25.164062 19.15625 24.355469 19.519531 23.507812 19.78125 C 23.21875 19.871094 22.910156 19.917969 22.601562 19.992188 C 22.855469 20.839844 23.117188 21.699219 23.375 22.582031 C 23.488281 22.480469 23.570312 22.414062 23.636719 22.339844 C 23.757812 22.199219 23.898438 22.089844 24.074219 22.015625 C 24.289062 21.921875 24.484375 21.789062 24.6875 21.667969 C 25.023438 21.464844 25.332031 21.230469 25.675781 21.054688 C 25.929688 20.925781 26.214844 20.867188 26.488281 20.792969 C 26.71875 20.71875 26.867188 20.839844 26.839844 21.09375 C 26.832031 21.175781 26.792969 21.269531 26.738281 21.34375 C 26.652344 21.457031 26.550781 21.558594 26.449219 21.660156 C 26.335938 21.773438 26.214844 21.867188 26.085938 21.988281 C 26.429688 21.894531 26.710938 21.734375 26.988281 21.546875 C 27.210938 21.398438 27.453125 21.25 27.742188 21.304688 C 28.03125 21.351562 28.117188 21.558594 27.9375 21.800781 C 27.894531 21.867188 27.828125 21.910156 27.773438 21.96875 C 27.742188 21.996094 27.707031 22.023438 27.652344 22.078125 C 27.789062 22.042969 27.902344 22.003906 28.003906 21.988281 C 28.117188 21.96875 28.238281 21.949219 28.359375 21.949219 C 28.601562 21.941406 28.738281 22.03125 28.796875 22.226562 C 28.851562 22.433594 28.757812 22.636719 28.5625 22.730469 C 28.40625 22.804688 28.226562 22.871094 28.070312 22.945312 C 27.976562 22.984375 27.894531 23.039062 27.816406 23.074219 C 27.996094 23.121094 28.171875 23.140625 28.320312 23.207031 C 28.515625 23.289062 28.535156 23.476562 28.367188 23.605469 C 28.273438 23.679688 28.152344 23.738281 28.042969 23.785156 C 27.96875 23.8125 27.875 23.8125 27.800781 23.839844 C 27.640625 23.886719 27.492188 23.941406 27.332031 23.996094 C 27.511719 24.070312 27.652344 24.148438 27.734375 24.304688 C 27.800781 24.425781 27.78125 24.527344 27.679688 24.621094 C 27.539062 24.761719 27.363281 24.78125 27.175781 24.761719 C 27.054688 24.742188 26.933594 24.722656 26.8125 24.714844 C 26.261719 24.6875 25.722656 24.601562 25.230469 24.324219 C 25.15625 24.285156 25.0625 24.269531 24.976562 24.269531 C 24.71875 24.285156 24.457031 24.3125 24.195312 24.351562 C 24.160156 24.351562 24.128906 24.378906 24.082031 24.390625 C 24.121094 24.492188 24.160156 24.585938 24.1875 24.675781 C 24.25 24.863281 24.308594 25.050781 24.371094 25.234375 C 24.402344 25.328125 24.417969 25.433594 24.476562 25.515625 C 24.671875 25.832031 24.820312 26.15625 24.875 26.519531 C 24.941406 26.976562 24.902344 27.414062 24.671875 27.816406 C 24.390625 28.300781 24.007812 28.699219 23.554688 29.027344 C 23.375 29.148438 23.191406 29.257812 23.011719 29.371094 C 22.828125 29.492188 22.714844 29.648438 22.707031 29.875 C 22.707031 30.058594 22.714844 30.246094 22.707031 30.421875 C 22.707031 30.570312 22.734375 30.738281 22.667969 30.851562 C 22.5 31.148438 22.332031 31.476562 22.015625 31.652344 C 21.671875 31.847656 21.316406 32.023438 20.957031 32.183594 C 20.667969 32.304688 20.359375 32.378906 20.078125 32.472656 C 20.050781 32.574219 20.035156 32.667969 19.996094 32.75 C 19.679688 33.414062 19.417969 34.101562 19.214844 34.808594 C 19.027344 35.480469 18.878906 36.160156 18.703125 36.828125 C 18.421875 37.863281 17.957031 38.8125 17.378906 39.707031 C 17.203125 39.988281 17.027344 40.265625 16.820312 40.527344 C 16.382812 41.105469 15.832031 41.578125 15.292969 42.0625 C 14.835938 42.472656 14.519531 42.976562 14.277344 43.523438 C 14.074219 43.980469 14.082031 44.445312 14.25 44.914062 C 14.304688 45.0625 14.398438 45.210938 14.519531 45.3125 C 14.652344 45.339844 14.800781 45.367188 14.929688 45.433594 Z M 16.644531 16.714844 C 16.652344 16.726562 16.671875 16.726562 16.679688 16.734375 C 16.679688 16.761719 16.691406 16.789062 16.691406 16.816406 C 16.707031 18.902344 16.644531 21 16.402344 23.074219 C 16.28125 24.136719 15.984375 25.152344 15.527344 26.121094 C 15.386719 26.410156 15.265625 26.707031 15.136719 27.003906 C 14.863281 27.59375 15.050781 28.132812 15.339844 28.644531 C 15.441406 28.820312 15.582031 28.980469 15.730469 29.109375 C 15.992188 29.34375 16.28125 29.539062 16.558594 29.753906 C 16.558594 29.726562 16.570312 29.6875 16.578125 29.640625 C 16.644531 29.148438 16.691406 28.652344 16.765625 28.167969 C 16.996094 26.773438 17.222656 25.375 17.34375 23.960938 C 17.417969 23.039062 17.546875 22.125 17.660156 21.214844 C 17.675781 21.0625 17.722656 20.914062 17.761719 20.765625 C 17.78125 20.765625 17.789062 20.765625 17.808594 20.777344 C 17.808594 20.824219 17.816406 20.867188 17.816406 20.914062 C 17.796875 21.957031 17.78125 22.992188 17.742188 24.035156 C 17.722656 24.621094 17.707031 25.21875 17.613281 25.804688 C 17.40625 27.117188 17.15625 28.421875 16.914062 29.726562 C 16.820312 30.238281 16.699219 30.75 16.691406 31.28125 C 16.691406 31.449219 16.71875 31.605469 16.820312 31.746094 C 17.015625 31.988281 17.25 32.191406 17.566406 32.210938 C 17.917969 32.238281 18.28125 32.265625 18.628906 32.210938 C 19.558594 32.070312 20.453125 31.8125 21.316406 31.457031 C 21.457031 31.402344 21.589844 31.335938 21.71875 31.28125 C 21.679688 31.113281 21.644531 30.953125 21.605469 30.796875 C 21.597656 30.769531 21.589844 30.730469 21.570312 30.703125 C 21.179688 29.902344 20.984375 29.042969 20.910156 28.167969 C 20.824219 27.257812 20.824219 26.34375 20.796875 25.433594 C 20.789062 25.3125 20.804688 25.179688 20.789062 25.058594 C 20.730469 24.566406 20.667969 24.070312 20.59375 23.578125 C 20.472656 22.742188 20.246094 21.921875 19.894531 21.148438 C 19.773438 20.886719 19.640625 20.636719 19.53125 20.375 C 18.628906 18.261719 17.855469 16.101562 17.5 13.808594 C 17.445312 13.4375 17.453125 13.054688 17.445312 12.683594 C 17.445312 12.644531 17.464844 12.609375 17.492188 12.542969 C 17.527344 12.804688 17.539062 13.019531 17.59375 13.222656 C 17.808594 14.007812 18.003906 14.796875 18.273438 15.5625 C 18.804688 17.03125 19.382812 18.484375 19.941406 19.945312 C 20.164062 20.535156 20.386719 21.121094 20.5 21.746094 C 20.609375 22.367188 20.703125 22.992188 20.789062 23.617188 C 20.863281 24.15625 20.9375 24.707031 21 25.246094 C 21.058594 25.691406 21.078125 26.148438 21.140625 26.597656 C 21.242188 27.292969 21.347656 28 21.476562 28.691406 C 21.570312 29.203125 21.691406 29.714844 21.820312 30.226562 C 21.886719 30.488281 21.980469 30.738281 22.0625 31.027344 C 22.136719 30.945312 22.183594 30.890625 22.238281 30.84375 C 22.425781 30.710938 22.445312 30.527344 22.4375 30.320312 C 22.425781 30.097656 22.453125 29.875 22.464844 29.660156 C 22.472656 29.484375 22.546875 29.332031 22.667969 29.210938 C 22.761719 29.121094 22.855469 29.015625 22.964844 28.941406 C 23.421875 28.625 23.777344 28.207031 24.09375 27.75 C 24.503906 27.144531 24.523438 26.503906 24.222656 25.839844 C 24.121094 25.617188 24.019531 25.394531 23.964844 25.160156 C 23.925781 25.023438 23.90625 24.882812 23.84375 24.761719 C 23.8125 24.714844 23.796875 24.660156 23.777344 24.601562 C 23.542969 23.921875 23.3125 23.242188 23.085938 22.5625 C 22.78125 21.625 22.558594 20.664062 22.222656 19.734375 C 21.914062 18.894531 21.46875 18.148438 20.925781 17.460938 C 20.359375 16.734375 19.800781 16.007812 19.429688 15.160156 C 19.398438 15.09375 19.382812 15.03125 19.351562 14.972656 C 19.363281 14.964844 19.382812 14.945312 19.390625 14.9375 C 19.445312 14.964844 19.511719 14.984375 19.558594 15.03125 C 19.660156 15.140625 19.761719 15.261719 19.855469 15.382812 C 20.089844 15.683594 20.320312 15.988281 20.554688 16.289062 C 20.574219 16.316406 20.601562 16.34375 20.628906 16.371094 C 20.621094 16.257812 20.582031 16.15625 20.554688 16.0625 C 20.359375 15.382812 20.042969 14.769531 19.578125 14.238281 C 19.410156 14.042969 19.261719 13.808594 19.121094 13.585938 C 18.859375 13.175781 18.609375 12.75 18.347656 12.339844 C 18.144531 12.003906 17.882812 11.734375 17.554688 11.511719 C 17.351562 11.359375 17.183594 11.398438 16.996094 11.480469 C 16.691406 11.613281 16.476562 11.816406 16.457031 12.171875 C 16.429688 12.570312 16.410156 12.972656 16.375 13.371094 C 16.328125 13.914062 16.28125 14.460938 16.195312 14.992188 C 16.121094 15.441406 16.011719 15.886719 15.898438 16.324219 C 15.710938 17.03125 15.695312 17.757812 15.695312 18.484375 C 15.695312 18.632812 15.730469 18.78125 15.785156 18.921875 C 15.917969 19.21875 16.066406 19.507812 16.214844 19.808594 C 16.214844 19.789062 16.222656 19.761719 16.222656 19.734375 C 16.28125 19.070312 16.335938 18.410156 16.410156 17.75 C 16.4375 17.46875 16.496094 17.191406 16.542969 16.921875 C 16.558594 16.855469 16.605469 16.789062 16.644531 16.714844 Z M 21.988281 12.160156 C 21.960938 12.433594 21.792969 12.636719 21.347656 12.601562 C 21.347656 12.617188 21.347656 12.636719 21.347656 12.664062 C 21.394531 13.140625 21.273438 13.578125 21.046875 13.996094 C 20.945312 14.191406 20.804688 14.339844 20.601562 14.433594 C 20.453125 14.5 20.40625 14.6875 20.488281 14.835938 C 20.574219 14.984375 20.675781 15.140625 20.714844 15.308594 C 20.804688 15.738281 20.871094 16.183594 20.945312 16.621094 C 20.957031 16.695312 20.984375 16.773438 21.03125 16.828125 C 21.679688 17.589844 22.164062 18.457031 22.464844 19.417969 C 22.558594 19.703125 22.558594 19.695312 22.84375 19.640625 C 23.917969 19.445312 24.855469 19.015625 25.601562 18.195312 C 25.761719 18.027344 25.890625 17.832031 26.03125 17.65625 C 26.019531 17.648438 26.011719 17.636719 26.003906 17.628906 C 25.824219 17.683594 25.648438 17.730469 25.472656 17.785156 C 25.433594 17.796875 25.398438 17.777344 25.359375 17.777344 C 25.367188 17.738281 25.359375 17.683594 25.378906 17.664062 C 25.425781 17.617188 25.480469 17.5625 25.546875 17.535156 C 25.75 17.453125 25.957031 17.359375 26.167969 17.3125 C 26.589844 17.226562 27.015625 17.179688 27.4375 17.097656 C 27.929688 16.996094 28.414062 16.863281 28.898438 16.753906 C 29.8125 16.539062 30.722656 16.332031 31.582031 15.933594 C 31.972656 15.746094 32.34375 15.550781 32.640625 15.246094 C 32.773438 15.105469 32.902344 14.957031 32.988281 14.789062 C 33.125 14.507812 33.246094 14.230469 33.347656 13.929688 C 33.796875 12.554688 34.195312 11.15625 34.46875 9.730469 C 34.484375 9.621094 34.523438 9.507812 34.597656 9.425781 C 34.847656 9.125 34.96875 8.792969 34.941406 8.382812 C 34.875 8.398438 34.820312 8.417969 34.765625 8.4375 C 34.625 8.472656 34.484375 8.53125 34.347656 8.558594 C 34.074219 8.605469 33.9375 8.445312 34 8.1875 C 34.011719 8.15625 34.011719 8.121094 33.992188 8.101562 C 33.898438 7.992188 33.898438 7.878906 33.953125 7.75 C 33.964844 7.71875 33.972656 7.691406 33.953125 7.671875 C 33.851562 7.46875 33.851562 7.414062 33.992188 7.234375 C 34.132812 7.058594 34.261719 6.882812 34.421875 6.667969 C 34.328125 6.667969 34.253906 6.648438 34.195312 6.667969 C 33.9375 6.796875 33.683594 6.929688 33.433594 7.078125 C 33.304688 7.152344 33.191406 7.253906 33.183594 7.429688 C 33.171875 7.644531 33.144531 7.871094 33.117188 8.082031 C 33.089844 8.277344 33.164062 8.4375 33.304688 8.550781 C 33.601562 8.773438 33.703125 9.117188 33.5625 9.453125 C 33.238281 10.234375 32.910156 11.015625 32.578125 11.789062 C 32.316406 12.386719 32.046875 12.972656 31.765625 13.558594 C 31.625 13.847656 31.429688 14.089844 31.1875 14.292969 C 31.050781 14.40625 30.910156 14.460938 30.714844 14.472656 C 30.230469 14.5 29.738281 14.527344 29.269531 14.667969 C 28.300781 14.945312 27.351562 14.917969 26.382812 14.714844 C 26.234375 14.6875 26.078125 14.6875 25.929688 14.722656 C 25.488281 14.816406 25.070312 14.945312 24.632812 15.046875 C 24.289062 15.125 23.933594 15.199219 23.582031 15.246094 C 23.292969 15.28125 22.9375 15.066406 22.84375 14.816406 C 22.761719 14.609375 22.6875 14.398438 22.613281 14.191406 C 22.398438 13.566406 22.398438 12.953125 22.753906 12.375 C 22.828125 12.246094 22.910156 12.125 23.003906 12.003906 C 23.132812 11.828125 23.253906 11.648438 23.3125 11.425781 C 23.097656 11.351562 22.984375 11.203125 22.929688 11 C 22.890625 10.878906 22.808594 10.800781 22.714844 10.71875 C 22.59375 10.605469 22.5 10.476562 22.34375 10.402344 C 22.316406 10.394531 22.304688 10.335938 22.296875 10.300781 C 22.277344 10.242188 22.25 10.179688 22.230469 10.121094 C 22.210938 10.046875 22.164062 10.019531 22.082031 10.011719 C 21.960938 10 21.832031 9.964844 21.738281 9.898438 C 21.597656 9.804688 21.484375 9.675781 21.355469 9.5625 C 21.300781 9.515625 21.234375 9.480469 21.179688 9.433594 C 21.382812 9.804688 21.484375 10.195312 21.515625 10.617188 C 21.523438 10.8125 21.570312 11.007812 21.691406 11.175781 C 21.710938 11.203125 21.71875 11.238281 21.726562 11.269531 C 21.773438 11.40625 21.738281 11.511719 21.605469 11.566406 C 21.523438 11.601562 21.429688 11.613281 21.335938 11.613281 C 21.242188 11.621094 21.140625 11.59375 21.046875 11.59375 C 20.910156 11.59375 20.789062 11.761719 20.835938 11.902344 C 20.910156 12.097656 21.03125 12.246094 21.226562 12.339844 C 21.449219 12.441406 21.636719 12.367188 21.726562 12.132812 C 21.785156 11.996094 21.90625 11.9375 22.054688 11.976562 C 22.136719 11.996094 22.222656 12.011719 22.296875 12.042969 C 22.34375 12.058594 22.40625 12.105469 22.40625 12.125 C 22.398438 12.171875 22.359375 12.246094 22.324219 12.253906 C 22.257812 12.273438 22.175781 12.253906 22.109375 12.238281 C 22.074219 12.226562 22.035156 12.191406 21.988281 12.160156 Z M 33.386719 26.140625 C 33.3125 26.1875 33.265625 26.222656 33.21875 26.261719 C 33.042969 26.382812 32.855469 26.445312 32.640625 26.417969 C 32.546875 26.410156 32.417969 26.410156 32.398438 26.289062 C 32.382812 26.15625 32.511719 26.128906 32.605469 26.09375 C 32.726562 26.046875 32.867188 26.027344 32.957031 25.945312 C 33.21875 25.738281 33.460938 25.515625 33.703125 25.292969 C 33.730469 25.273438 33.742188 25.21875 33.742188 25.179688 C 33.730469 25.039062 33.703125 24.910156 33.683594 24.769531 C 33.589844 23.875 33.527344 22.972656 33.414062 22.078125 C 33.339844 21.511719 33.199219 20.953125 33.105469 20.382812 C 32.902344 19.15625 32.714844 17.917969 32.519531 16.679688 C 32.484375 16.417969 32.457031 16.15625 32.425781 15.894531 C 31.777344 16.257812 31.105469 16.558594 30.386719 16.753906 C 29.78125 16.921875 29.160156 17.042969 28.535156 17.171875 C 28.246094 17.238281 27.957031 17.285156 27.660156 17.339844 C 27.652344 17.347656 27.652344 17.359375 27.640625 17.367188 C 27.679688 17.394531 27.714844 17.414062 27.742188 17.441406 C 27.984375 17.683594 28.144531 17.964844 28.152344 18.308594 C 28.152344 18.597656 28.144531 18.894531 28.089844 19.183594 C 27.996094 19.695312 28.070312 20.132812 28.421875 20.523438 C 28.664062 20.785156 28.898438 21.054688 29.113281 21.34375 C 29.34375 21.652344 29.585938 21.957031 29.78125 22.304688 C 30.097656 22.84375 30.425781 23.375 30.808594 23.875 C 31.234375 24.433594 31.636719 25.011719 31.914062 25.664062 C 32.027344 25.925781 32.148438 26.175781 32.261719 26.429688 C 32.566406 27.136719 32.875 27.84375 33.183594 28.550781 C 33.210938 28.605469 33.226562 28.664062 33.257812 28.710938 C 33.332031 27.863281 33.246094 27.003906 33.386719 26.140625 Z M 25.332031 9.152344 C 25.136719 9.109375 25.0625 8.957031 24.996094 8.828125 C 24.914062 8.660156 24.96875 8.566406 25.164062 8.566406 C 25.40625 8.566406 25.554688 8.445312 25.601562 8.203125 C 25.675781 7.851562 25.601562 7.523438 25.425781 7.21875 C 25.386719 7.152344 25.304688 7.105469 25.238281 7.050781 C 25.21875 7.03125 25.171875 7.03125 25.144531 7.039062 C 24.855469 7.179688 24.644531 7.550781 24.660156 7.878906 C 24.671875 8.046875 24.699219 8.214844 24.699219 8.382812 C 24.707031 8.511719 24.652344 8.613281 24.53125 8.660156 C 24.417969 8.707031 24.261719 8.671875 24.175781 8.566406 C 24.140625 8.53125 24.113281 8.472656 24.09375 8.429688 C 24.019531 8.289062 23.945312 8.148438 23.878906 8 C 23.832031 7.898438 23.765625 7.824219 23.644531 7.792969 C 23.46875 7.75 23.339844 7.628906 23.273438 7.449219 C 23.246094 7.367188 23.21875 7.28125 23.199219 7.199219 C 23.160156 7.03125 23.132812 7.003906 22.957031 6.976562 C 22.742188 6.9375 22.527344 6.992188 22.324219 7.050781 C 21.921875 7.160156 21.53125 7.308594 21.09375 7.28125 C 21.140625 7.507812 21.1875 7.71875 21.214844 7.933594 C 21.242188 8.203125 21.355469 8.410156 21.617188 8.519531 C 21.746094 8.578125 21.832031 8.6875 21.839844 8.828125 C 21.859375 9.097656 21.878906 9.367188 21.886719 9.636719 C 21.886719 9.714844 21.90625 9.75 21.980469 9.75 C 22.074219 9.75 22.164062 9.742188 22.25 9.742188 C 22.316406 9.742188 22.4375 9.722656 22.40625 9.816406 C 22.371094 9.964844 22.453125 10.058594 22.492188 10.160156 C 22.511719 10.207031 22.566406 10.253906 22.613281 10.253906 C 22.722656 10.261719 22.769531 10.316406 22.78125 10.421875 C 22.789062 10.457031 22.800781 10.503906 22.828125 10.515625 C 23.003906 10.597656 23.078125 10.765625 23.144531 10.933594 C 23.226562 11.136719 23.359375 11.210938 23.570312 11.148438 C 23.664062 11.117188 23.765625 11.082031 23.84375 11.027344 C 24 10.90625 24.148438 10.773438 24.289062 10.636719 C 24.503906 10.421875 24.699219 10.1875 24.894531 9.964844 C 24.96875 9.878906 25.035156 9.789062 25.097656 9.703125 C 25.136719 9.648438 25.171875 9.582031 25.210938 9.515625 C 25.21875 9.515625 25.238281 9.515625 25.246094 9.527344 C 25.265625 9.601562 25.285156 9.667969 25.292969 9.742188 C 25.304688 9.917969 25.171875 10.011719 25.0625 10.121094 C 24.902344 10.300781 24.746094 10.484375 24.585938 10.664062 C 24.597656 10.671875 24.597656 10.691406 24.605469 10.699219 C 24.847656 10.726562 25.089844 10.757812 25.324219 10.785156 C 25.480469 10.800781 25.601562 10.746094 25.703125 10.617188 C 26.011719 10.234375 26.234375 9.816406 26.355469 9.339844 C 26.449219 8.96875 26.410156 8.605469 26.199219 8.277344 C 26.179688 8.25 26.132812 8.222656 26.09375 8.214844 C 26.003906 8.195312 25.910156 8.195312 25.808594 8.175781 C 25.714844 8.457031 25.640625 8.761719 25.285156 8.828125 C 25.324219 8.957031 25.324219 9.050781 25.332031 9.152344 Z M 32.96875 10.335938 C 32.558594 10.152344 32.296875 9.816406 32.019531 9.5 C 31.730469 9.171875 31.402344 8.882812 31.097656 8.578125 C 30.992188 8.472656 30.871094 8.429688 30.714844 8.417969 C 30.460938 8.417969 30.203125 8.390625 29.96875 8.503906 C 29.625 8.679688 29.269531 8.671875 28.898438 8.632812 C 28.722656 8.613281 28.535156 8.605469 28.339844 8.59375 C 28.359375 8.632812 28.359375 8.640625 28.367188 8.652344 C 28.386719 8.679688 28.40625 8.707031 28.433594 8.726562 C 28.675781 8.96875 28.710938 9.238281 28.554688 9.554688 C 28.46875 9.730469 28.40625 9.925781 28.320312 10.132812 C 28.515625 10.113281 28.695312 10.09375 28.859375 10.074219 C 29.074219 10.046875 29.234375 10.132812 29.355469 10.308594 C 29.570312 10.625 29.726562 10.980469 29.8125 11.351562 C 29.960938 12.03125 30.035156 12.722656 30.015625 13.417969 C 30.007812 13.671875 30.015625 13.921875 30.015625 14.183594 C 30.257812 14.164062 30.480469 14.144531 30.703125 14.117188 C 30.769531 14.109375 30.855469 14.082031 30.902344 14.035156 C 31.273438 13.644531 31.5625 13.195312 31.824219 12.722656 C 31.839844 12.691406 31.839844 12.636719 31.832031 12.601562 C 31.757812 12.273438 31.691406 11.9375 31.589844 11.613281 C 31.300781 10.71875 31.105469 9.804688 30.910156 8.894531 C 30.902344 8.855469 30.929688 8.808594 30.9375 8.773438 C 30.976562 8.800781 31.023438 8.808594 31.039062 8.847656 C 31.105469 8.988281 31.160156 9.125 31.207031 9.265625 C 31.496094 10.179688 31.785156 11.089844 32.0625 12.011719 C 32.082031 12.058594 32.09375 12.105469 32.121094 12.179688 C 32.417969 11.539062 32.773438 10.980469 32.96875 10.335938 Z M 26.1875 7.980469 C 26.207031 7.972656 26.214844 7.960938 26.234375 7.953125 C 26.207031 7.804688 26.179688 7.644531 26.152344 7.496094 C 26.105469 7.28125 26.03125 7.078125 26.011719 6.863281 C 25.972656 6.453125 25.972656 6.035156 25.957031 5.625 C 25.9375 5.308594 25.890625 5.027344 25.601562 4.804688 C 25.292969 4.5625 24.960938 4.5 24.597656 4.535156 C 24.445312 4.554688 24.363281 4.515625 24.28125 4.386719 C 24.261719 4.367188 24.242188 4.339844 24.214844 4.332031 C 24.113281 4.292969 24.007812 4.238281 23.90625 4.226562 C 23.367188 4.191406 22.84375 4.257812 22.378906 4.574219 C 21.980469 4.84375 21.625 5.167969 21.300781 5.53125 C 21.113281 5.738281 20.910156 5.921875 20.628906 5.996094 C 20.59375 6.007812 20.554688 6.054688 20.527344 6.101562 C 20.441406 6.238281 20.5 6.378906 20.515625 6.527344 C 20.582031 6.9375 20.824219 7.078125 21.195312 7.039062 C 21.53125 7.003906 21.867188 6.902344 22.203125 6.828125 C 22.464844 6.761719 22.722656 6.6875 23.003906 6.742188 C 23.273438 6.789062 23.367188 6.882812 23.414062 7.152344 C 23.441406 7.347656 23.507812 7.535156 23.730469 7.597656 C 23.886719 7.644531 24 7.75 24.074219 7.886719 C 24.167969 8.054688 24.25 8.230469 24.355469 8.398438 C 24.371094 8.429688 24.410156 8.445312 24.445312 8.472656 C 24.464844 8.445312 24.492188 8.410156 24.511719 8.371094 C 24.523438 8.335938 24.523438 8.296875 24.523438 8.261719 C 24.511719 8.121094 24.492188 7.980469 24.484375 7.832031 C 24.457031 7.367188 24.644531 7.058594 25.042969 6.890625 C 25.265625 6.796875 25.472656 6.855469 25.628906 7.058594 C 25.769531 7.253906 25.84375 7.476562 25.871094 7.710938 C 25.882812 7.757812 25.882812 7.824219 25.910156 7.839844 C 25.984375 7.886719 26.085938 7.933594 26.1875 7.980469 Z M 19.457031 10.429688 C 19.261719 11.109375 19.027344 11.453125 18.785156 11.425781 C 18.878906 11.257812 18.980469 11.089844 19.066406 10.914062 C 19.222656 10.589844 19.335938 10.242188 19.308594 9.871094 C 19.289062 9.65625 19.25 9.441406 19.222656 9.238281 C 19.128906 9.265625 19.019531 9.3125 18.898438 9.339844 C 18.488281 9.425781 18.132812 9.621094 17.789062 9.863281 C 17.472656 10.085938 17.285156 10.394531 17.191406 10.765625 C 17.15625 10.894531 17.136719 11.035156 17.101562 11.183594 C 17.164062 11.183594 17.210938 11.183594 17.25 11.183594 C 17.445312 11.210938 17.660156 11.164062 17.835938 11.285156 C 17.957031 11.371094 18.070312 11.453125 18.171875 11.546875 C 18.488281 11.863281 18.691406 12.253906 18.90625 12.636719 C 19.214844 13.1875 19.550781 13.726562 19.976562 14.203125 C 20.003906 14.230469 20.035156 14.265625 20.078125 14.3125 C 20.023438 13.820312 19.847656 13.402344 19.660156 12.972656 C 19.734375 12.980469 19.800781 13 19.847656 13.039062 C 20.070312 13.214844 20.191406 13.457031 20.292969 13.71875 C 20.359375 13.875 20.40625 14.035156 20.460938 14.203125 C 20.621094 14.097656 20.75 13.976562 20.835938 13.820312 C 21.03125 13.4375 21.132812 13.039062 21.132812 12.609375 C 21.132812 12.570312 21.121094 12.523438 21.09375 12.496094 C 20.957031 12.359375 20.816406 12.226562 20.675781 12.097656 C 20.675781 12.097656 20.65625 12.117188 20.636719 12.132812 C 20.488281 12.386719 20.351562 12.628906 20.199219 12.878906 C 20.164062 12.933594 20.125 12.992188 20.070312 13.066406 C 20.035156 12.972656 20.003906 12.917969 19.996094 12.859375 C 19.929688 12.570312 19.996094 12.300781 20.164062 12.058594 C 20.257812 11.929688 20.378906 11.808594 20.480469 11.6875 C 20.675781 11.464844 20.796875 11.210938 20.824219 10.90625 C 20.835938 10.8125 20.863281 10.71875 20.878906 10.617188 C 20.890625 10.617188 20.910156 10.617188 20.917969 10.617188 C 21 10.832031 21 11.054688 21.011719 11.269531 C 21.207031 11.285156 21.382812 11.296875 21.558594 11.316406 C 21.570312 11.304688 21.578125 11.285156 21.589844 11.277344 C 21.363281 11.042969 21.335938 10.746094 21.261719 10.457031 C 21.234375 10.335938 21.207031 10.214844 21.167969 10.09375 C 21.058594 9.714844 20.824219 9.394531 20.582031 9.089844 C 20.546875 9.042969 20.480469 8.976562 20.488281 8.929688 C 20.515625 8.753906 20.367188 8.6875 20.285156 8.59375 C 20.257812 8.558594 20.171875 8.550781 20.125 8.558594 C 19.867188 8.59375 19.613281 8.867188 19.578125 9.125 C 19.550781 9.332031 19.59375 9.515625 19.671875 9.703125 C 19.976562 10.496094 19.847656 11.230469 19.335938 11.910156 C 19.289062 11.976562 19.214844 12.011719 19.148438 12.070312 C 19.140625 12.058594 19.128906 12.050781 19.121094 12.039062 C 19.390625 11.558594 19.613281 11.042969 19.457031 10.429688 Z M 33.816406 13.585938 C 33.910156 13.605469 33.984375 13.625 34.066406 13.632812 C 34.671875 13.699219 35.277344 13.652344 35.882812 13.597656 C 36.179688 13.566406 36.421875 13.417969 36.535156 13.121094 C 36.554688 13.074219 36.570312 13.039062 36.597656 13 C 36.785156 12.65625 36.832031 12.28125 36.785156 11.902344 C 36.765625 11.734375 36.730469 11.566406 36.703125 11.390625 C 36.609375 10.90625 36.523438 10.421875 36.421875 9.9375 C 36.394531 9.816406 36.386719 9.683594 36.3125 9.601562 C 36.132812 9.40625 35.890625 9.292969 35.621094 9.164062 C 35.6875 9.433594 35.734375 9.675781 35.789062 9.917969 C 35.863281 9.863281 35.929688 9.824219 35.996094 9.789062 C 36.078125 9.742188 36.132812 9.777344 36.125 9.863281 C 36.105469 9.964844 36.070312 10.066406 36.011719 10.140625 C 35.855469 10.316406 35.640625 10.410156 35.417969 10.46875 C 35.183594 10.523438 34.960938 10.476562 34.753906 10.402344 C 34.4375 11.464844 34.132812 12.515625 33.816406 13.585938 Z M 26.664062 20.980469 C 26.652344 20.972656 26.644531 20.960938 26.636719 20.953125 C 26.578125 20.980469 26.53125 21.007812 26.476562 21.027344 C 26.375 21.074219 26.273438 21.109375 26.179688 21.148438 C 26.058594 21.195312 25.9375 21.214844 25.824219 21.269531 C 25.566406 21.410156 25.304688 21.566406 25.042969 21.726562 C 24.78125 21.894531 24.511719 22.042969 24.203125 22.105469 C 24.007812 22.144531 23.917969 22.304688 23.8125 22.460938 C 23.75 22.574219 23.683594 22.695312 23.628906 22.804688 C 23.609375 22.84375 23.582031 22.878906 23.589844 22.917969 C 23.722656 23.289062 23.859375 23.664062 24 24.027344 C 24.160156 23.988281 24.289062 23.921875 24.4375 23.914062 C 24.828125 23.886719 25.210938 23.933594 25.574219 24.082031 C 26.152344 24.3125 26.765625 24.332031 27.363281 24.453125 C 27.425781 24.472656 27.511719 24.433594 27.574219 24.425781 C 27.574219 24.40625 27.585938 24.390625 27.585938 24.378906 C 27.519531 24.332031 27.472656 24.269531 27.398438 24.238281 C 27.183594 24.148438 26.980469 24.054688 26.730469 24.128906 C 26.597656 24.164062 26.429688 24.117188 26.289062 24.082031 C 26.234375 24.0625 26.152344 23.96875 26.152344 23.914062 C 26.152344 23.820312 26.253906 23.792969 26.335938 23.792969 C 26.375 23.792969 26.421875 23.792969 26.457031 23.800781 C 26.664062 23.859375 26.859375 23.832031 27.054688 23.765625 C 27.398438 23.652344 27.742188 23.558594 28.089844 23.449219 C 28.144531 23.429688 28.199219 23.390625 28.292969 23.347656 C 28.210938 23.316406 28.164062 23.289062 28.117188 23.28125 C 27.78125 23.261719 27.453125 23.316406 27.148438 23.4375 C 26.914062 23.53125 26.691406 23.570312 26.449219 23.542969 C 26.394531 23.53125 26.308594 23.476562 26.289062 23.429688 C 26.261719 23.347656 26.328125 23.28125 26.410156 23.253906 C 26.476562 23.226562 26.550781 23.195312 26.617188 23.207031 C 26.960938 23.234375 27.230469 23.066406 27.519531 22.910156 C 27.753906 22.777344 27.996094 22.683594 28.226562 22.574219 C 28.3125 22.535156 28.421875 22.507812 28.480469 22.441406 C 28.535156 22.386719 28.542969 22.273438 28.542969 22.191406 C 28.542969 22.171875 28.414062 22.125 28.359375 22.136719 C 28.042969 22.199219 27.726562 22.285156 27.410156 22.378906 C 27.296875 22.414062 27.195312 22.5 27.089844 22.574219 C 27 22.636719 26.914062 22.710938 26.820312 22.769531 C 26.691406 22.851562 26.550781 22.925781 26.421875 23 C 26.367188 23.039062 26.308594 23.085938 26.246094 23.09375 C 26.179688 23.105469 26.113281 23.066406 26.039062 23.046875 C 26.058594 22.984375 26.058594 22.890625 26.09375 22.851562 C 26.167969 22.789062 26.273438 22.75 26.367188 22.703125 C 26.503906 22.628906 26.683594 22.574219 26.785156 22.460938 C 27.054688 22.164062 27.351562 21.910156 27.667969 21.6875 C 27.726562 21.652344 27.773438 21.585938 27.816406 21.53125 C 27.808594 21.511719 27.808594 21.503906 27.800781 21.484375 C 27.726562 21.484375 27.652344 21.472656 27.585938 21.484375 C 27.289062 21.511719 27.046875 21.640625 26.8125 21.820312 C 26.273438 22.226562 25.675781 22.433594 24.996094 22.359375 C 24.949219 22.347656 24.914062 22.320312 24.867188 22.304688 C 24.902344 22.257812 24.929688 22.191406 24.96875 22.183594 C 25.117188 22.125 25.285156 22.089844 25.433594 22.042969 C 25.472656 22.03125 25.519531 22.015625 25.546875 21.996094 C 25.648438 21.921875 25.742188 21.847656 25.84375 21.761719 C 26.058594 21.578125 26.273438 21.390625 26.488281 21.195312 C 26.570312 21.148438 26.609375 21.054688 26.664062 20.980469 Z M 26.820312 8.4375 C 26.8125 8.445312 26.8125 8.457031 26.804688 8.464844 C 26.859375 8.550781 26.90625 8.625 26.960938 8.707031 C 27.269531 9.199219 27.546875 9.714844 27.734375 10.273438 C 27.976562 11.015625 28.246094 11.761719 28.480469 12.507812 C 28.664062 13.113281 28.824219 13.734375 29 14.359375 C 29.113281 14.339844 29.253906 14.3125 29.382812 14.292969 C 29.726562 14.238281 29.726562 14.238281 29.738281 13.894531 C 29.753906 13.167969 29.699219 12.441406 29.605469 11.714844 C 29.550781 11.277344 29.429688 10.859375 29.1875 10.476562 C 29.113281 10.363281 29.027344 10.328125 28.90625 10.347656 C 28.738281 10.375 28.5625 10.382812 28.394531 10.394531 C 28.117188 10.410156 28.003906 10.234375 28.132812 9.992188 C 28.179688 9.898438 28.238281 9.824219 28.292969 9.730469 C 28.367188 9.59375 28.441406 9.453125 28.507812 9.304688 C 28.527344 9.257812 28.527344 9.171875 28.496094 9.136719 C 28.394531 8.988281 28.273438 8.855469 28.152344 8.714844 C 28.125 8.6875 28.078125 8.660156 28.042969 8.660156 C 27.835938 8.625 27.640625 8.605469 27.4375 8.566406 C 27.210938 8.519531 27.015625 8.472656 26.820312 8.4375 Z M 27.324219 10.058594 C 27.316406 10.421875 27.304688 10.765625 27.289062 11.109375 C 27.277344 11.230469 27.269531 11.359375 27.242188 11.480469 C 27.195312 11.707031 27.015625 11.808594 26.792969 11.742188 C 26.691406 11.714844 26.578125 11.667969 26.476562 11.640625 C 26.457031 11.789062 26.449219 11.929688 26.402344 12.070312 C 26.367188 12.179688 26.375 12.273438 26.429688 12.375 C 26.71875 12.972656 27 13.578125 27.289062 14.183594 C 27.324219 14.265625 27.371094 14.359375 27.417969 14.445312 C 27.4375 14.472656 27.472656 14.5 27.5 14.507812 C 27.875 14.535156 28.246094 14.5 28.628906 14.445312 C 28.507812 12.871094 27.828125 11.492188 27.324219 10.058594 Z M 23.144531 12.246094 C 23.292969 12.273438 23.449219 12.292969 23.582031 12.347656 C 23.832031 12.449219 23.871094 12.589844 23.738281 12.832031 C 23.644531 13 23.535156 13.148438 23.449219 13.316406 C 23.421875 13.371094 23.414062 13.464844 23.449219 13.511719 C 23.710938 13.921875 23.980469 14.324219 24.242188 14.730469 C 24.28125 14.796875 24.335938 14.808594 24.402344 14.777344 C 24.652344 14.695312 24.902344 14.609375 25.15625 14.535156 C 25.171875 14.527344 25.191406 14.507812 25.21875 14.5 C 24.839844 13.410156 24.363281 12.359375 24.074219 11.257812 C 23.90625 11.316406 23.75 11.359375 23.589844 11.417969 C 23.5625 11.425781 23.542969 11.472656 23.523438 11.5 C 23.488281 11.621094 23.46875 11.753906 23.402344 11.863281 C 23.347656 11.996094 23.238281 12.117188 23.144531 12.246094 Z M 24.671875 12.085938 C 24.78125 11.902344 24.875 11.734375 24.988281 11.566406 C 25.277344 11.148438 25.898438 11.027344 26.320312 11.25 C 26.488281 11.332031 26.652344 11.417969 26.832031 11.492188 C 26.972656 11.546875 27.035156 11.519531 27.054688 11.359375 C 27.074219 11.183594 27.089844 11.007812 27.082031 10.839844 C 27.054688 10.394531 27.035156 9.9375 26.980469 9.488281 C 26.960938 9.320312 26.851562 9.171875 26.773438 9.015625 C 26.765625 9.023438 26.757812 9.023438 26.746094 9.035156 C 26.746094 9.425781 26.617188 9.789062 26.449219 10.121094 C 26.328125 10.375 26.160156 10.597656 25.992188 10.832031 C 25.890625 10.980469 25.730469 11.054688 25.554688 11.074219 C 25.203125 11.109375 24.847656 11.0625 24.523438 10.941406 C 24.410156 10.894531 24.382812 10.96875 24.324219 11.015625 C 24.261719 11.0625 24.289062 11.109375 24.316406 11.164062 C 24.390625 11.351562 24.476562 11.539062 24.550781 11.722656 C 24.578125 11.835938 24.613281 11.957031 24.671875 12.085938 Z M 27.128906 14.472656 C 27.101562 14.40625 27.089844 14.367188 27.074219 14.332031 C 26.894531 13.96875 26.71875 13.605469 26.542969 13.234375 C 26.410156 12.964844 26.28125 12.683594 26.167969 12.414062 C 26.132812 12.339844 26.113281 12.238281 26.132812 12.160156 C 26.167969 11.9375 26.234375 11.722656 26.28125 11.5 C 26.105469 11.390625 25.910156 11.285156 25.675781 11.390625 C 25.628906 11.40625 25.574219 11.425781 25.519531 11.425781 C 25.324219 11.4375 25.238281 11.558594 25.183594 11.722656 C 25.210938 11.734375 25.238281 11.742188 25.265625 11.761719 C 25.519531 11.875 25.722656 12.03125 25.777344 12.320312 C 25.851562 12.691406 25.929688 13.066406 25.984375 13.4375 C 26.03125 13.726562 26.039062 14.015625 26.058594 14.277344 C 26.253906 14.351562 26.410156 14.414062 26.578125 14.472656 C 26.597656 14.480469 26.625 14.488281 26.652344 14.488281 C 26.804688 14.472656 26.953125 14.472656 27.128906 14.472656 Z M 35.164062 8.398438 C 35.25 8.875 35.230469 9.070312 34.980469 9.394531 C 34.785156 9.636719 34.847656 9.917969 34.765625 10.1875 C 35.027344 10.226562 35.257812 10.234375 35.480469 10.121094 C 35.546875 10.085938 35.566406 10.046875 35.554688 9.984375 C 35.527344 9.804688 35.519531 9.636719 35.492188 9.460938 C 35.464844 9.210938 35.378906 8.949219 35.585938 8.714844 C 35.59375 8.707031 35.59375 8.6875 35.59375 8.679688 C 35.648438 8.4375 35.707031 8.195312 35.753906 7.945312 C 35.769531 7.871094 35.761719 7.792969 35.753906 7.71875 C 35.742188 7.664062 35.714844 7.617188 35.632812 7.628906 C 35.425781 7.65625 35.222656 7.671875 35.015625 7.683594 C 34.832031 7.691406 34.679688 7.765625 34.550781 7.898438 C 34.449219 8 34.347656 8.101562 34.242188 8.214844 C 34.214844 8.242188 34.207031 8.277344 34.1875 8.316406 C 34.234375 8.335938 34.28125 8.351562 34.316406 8.351562 C 34.355469 8.351562 34.390625 8.324219 34.4375 8.308594 C 34.570312 8.261719 34.699219 8.195312 34.832031 8.175781 C 34.996094 8.148438 35.175781 8.15625 35.34375 8.167969 C 35.378906 8.167969 35.417969 8.242188 35.453125 8.277344 C 35.417969 8.316406 35.390625 8.363281 35.34375 8.382812 C 35.296875 8.410156 35.238281 8.398438 35.164062 8.398438 Z M 25.488281 14.40625 C 25.808594 14.378906 25.816406 14.367188 25.796875 14.097656 C 25.796875 14.082031 25.796875 14.0625 25.796875 14.050781 C 25.761719 13.4375 25.648438 12.824219 25.5 12.226562 C 25.488281 12.191406 25.460938 12.132812 25.433594 12.117188 C 25.324219 12.050781 25.203125 11.996094 25.089844 11.929688 C 25.007812 12.050781 24.929688 12.179688 24.828125 12.28125 C 24.78125 12.339844 24.773438 12.367188 24.792969 12.433594 C 24.886719 12.710938 24.976562 12.992188 25.082031 13.261719 C 25.210938 13.644531 25.351562 14.035156 25.488281 14.40625 Z M 23.972656 14.863281 C 23.886719 14.742188 23.8125 14.640625 23.75 14.535156 C 23.5625 14.230469 23.386719 13.921875 23.207031 13.605469 C 23.125 13.464844 23.125 13.308594 23.21875 13.167969 C 23.320312 13.019531 23.421875 12.871094 23.515625 12.722656 C 23.542969 12.683594 23.570312 12.644531 23.617188 12.570312 C 23.402344 12.554688 23.226562 12.542969 23.050781 12.523438 C 22.976562 12.515625 22.949219 12.542969 22.910156 12.601562 C 22.761719 12.886719 22.714844 13.195312 22.769531 13.503906 C 22.84375 13.855469 22.949219 14.210938 23.050781 14.554688 C 23.070312 14.628906 23.132812 14.703125 23.191406 14.75 C 23.421875 14.957031 23.683594 14.9375 23.972656 14.863281 Z M 35.5 6.984375 C 35.285156 7.050781 35.0625 7.066406 34.886719 7.171875 C 34.617188 7.347656 34.375 7.570312 34.132812 7.785156 C 34.046875 7.859375 34.085938 7.925781 34.1875 7.960938 C 34.269531 7.992188 34.308594 7.933594 34.355469 7.898438 C 34.496094 7.785156 34.625 7.65625 34.785156 7.582031 C 35.007812 7.476562 35.257812 7.429688 35.492188 7.367188 C 35.5 7.253906 35.5 7.132812 35.5 6.984375 Z M 35.332031 6.425781 C 34.921875 6.527344 34.550781 6.585938 34.375 7.003906 C 34.347656 7.078125 34.289062 7.132812 34.242188 7.199219 C 34.1875 7.273438 34.132812 7.347656 34.074219 7.421875 C 34.085938 7.429688 34.09375 7.449219 34.105469 7.460938 C 34.148438 7.441406 34.195312 7.429688 34.234375 7.394531 C 34.46875 7.179688 34.699219 6.964844 35.015625 6.871094 C 35.101562 6.855469 35.210938 6.816406 35.25 6.75 C 35.304688 6.6875 35.304688 6.566406 35.332031 6.425781 Z M 34.457031 6.464844 C 34.710938 6.371094 34.96875 6.265625 35.230469 6.175781 C 35.257812 6.015625 35.175781 5.933594 35.007812 5.980469 C 34.847656 6.027344 34.699219 6.089844 34.550781 6.15625 C 34.449219 6.203125 34.410156 6.332031 34.457031 6.464844 Z M 33.507812 6.742188 C 33.433594 6.660156 33.367188 6.554688 33.273438 6.480469 C 33.238281 6.453125 33.144531 6.480469 33.089844 6.5 C 33.070312 6.507812 33.042969 6.574219 33.050781 6.601562 C 33.105469 6.714844 33.171875 6.828125 33.226562 6.9375 C 33.347656 6.863281 33.441406 6.796875 33.507812 6.742188 Z M 33.507812 6.742188 " fill-opacity="1" fill-rule="nonzero"/></g></svg>