<svg xmlns="http://www.w3.org/2000/svg" xmlns:xlink="http://www.w3.org/1999/xlink" width="70" zoomAndPan="magnify" viewBox="0 0 52.5 52.499999" height="70" preserveAspectRatio="xMidYMid meet" version="1.2"><defs><clipPath id="9c11f060c3"><path d="M 13.632812 2.71875 L 38.148438 2.71875 L 38.148438 49 L 13.632812 49 Z M 13.632812 2.71875 "/></clipPath></defs><g id="cafef02795"><g clip-rule="nonzero" clip-path="url(#9c11f060c3)"><path style=" stroke:none;fill-rule:nonzero;fill:#01313d;fill-opacity:1;" d="M 16.894531 10.046875 C 16.773438 9.023438 17.476562 8.324219 18.289062 8.0625 C 18.664062 7.945312 19.035156 7.785156 19.347656 7.539062 C 19.570312 7.371094 19.808594 7.261719 20.078125 7.207031 C 20.207031 7.179688 20.328125 7.195312 20.4375 7.269531 C 20.59375 7.371094 20.742188 7.492188 20.890625 7.601562 C 20.925781 7.628906 20.964844 7.65625 20.972656 7.695312 C 21.054688 7.972656 21.324219 8.019531 21.554688 8.15625 C 21.535156 8.007812 21.527344 7.851562 21.507812 7.703125 C 21.5 7.667969 21.460938 7.628906 21.433594 7.613281 C 21.183594 7.464844 21.082031 7.222656 21.027344 6.957031 C 20.980469 6.714844 20.910156 6.476562 20.863281 6.226562 C 20.835938 6.105469 20.761719 6.050781 20.648438 6.035156 C 20.492188 6.003906 20.382812 5.902344 20.335938 5.773438 C 20.234375 5.515625 20.1875 5.238281 20.273438 4.964844 C 20.300781 4.878906 20.363281 4.804688 20.417969 4.742188 C 20.640625 4.511719 20.863281 4.289062 21.082031 4.058594 C 21.515625 3.605469 21.980469 3.210938 22.558594 2.949219 C 22.890625 2.8125 23.242188 2.757812 23.59375 2.738281 C 23.863281 2.71875 24.101562 2.8125 24.269531 3.035156 C 24.277344 3.050781 24.296875 3.070312 24.3125 3.070312 C 24.460938 3.097656 24.609375 3.125 24.757812 3.144531 C 24.894531 3.171875 25.050781 3.164062 25.179688 3.21875 C 25.660156 3.421875 25.976562 3.78125 26.039062 4.316406 C 26.09375 4.789062 26.152344 5.265625 26.207031 5.738281 C 26.222656 5.859375 26.222656 5.988281 26.269531 6.105469 C 26.351562 6.355469 26.351562 6.605469 26.34375 6.855469 C 26.335938 6.992188 26.398438 7.03125 26.539062 7.03125 C 26.757812 7.019531 26.980469 7.019531 27.191406 7.046875 C 27.488281 7.085938 27.773438 7.160156 28.0625 7.222656 C 28.078125 7.222656 28.089844 7.222656 28.105469 7.234375 C 28.410156 7.234375 28.714844 7.222656 29.011719 7.234375 C 29.261719 7.242188 29.492188 7.222656 29.730469 7.140625 C 29.980469 7.058594 30.25 7.011719 30.507812 6.976562 C 30.597656 6.964844 30.710938 7.019531 30.800781 7.058594 C 30.875 7.085938 30.941406 7.121094 31.015625 7.167969 C 31.4375 7.410156 31.769531 7.742188 32.074219 8.121094 C 32.121094 8.183594 32.175781 8.25 32.214844 8.3125 C 32.371094 8.5625 32.59375 8.746094 32.898438 8.820312 C 32.925781 8.738281 32.953125 8.65625 32.980469 8.570312 C 33.035156 8.378906 33.101562 8.191406 33.144531 8 C 33.164062 7.933594 33.144531 7.851562 33.109375 7.785156 C 33.054688 7.683594 32.980469 7.601562 32.914062 7.519531 C 32.738281 7.28125 32.675781 7.011719 32.75 6.714844 C 32.804688 6.484375 32.851562 6.253906 32.886719 6.023438 C 32.898438 5.996094 32.878906 5.960938 32.871094 5.933594 C 32.8125 5.8125 32.757812 5.691406 32.703125 5.570312 C 32.621094 5.398438 32.65625 5.285156 32.824219 5.128906 C 32.960938 5 33.089844 4.972656 33.238281 5.074219 C 33.375 5.164062 33.488281 5.296875 33.625 5.425781 C 33.726562 5.367188 33.867188 5.296875 33.996094 5.222656 C 34.003906 5.210938 34.011719 5.203125 34.011719 5.195312 C 34.105469 4.953125 34.308594 4.832031 34.550781 4.769531 C 34.660156 4.730469 34.761719 4.703125 34.871094 4.675781 C 34.992188 4.648438 35.113281 4.648438 35.203125 4.761719 C 35.289062 4.863281 35.316406 4.980469 35.257812 5.109375 C 35.257812 5.121094 35.25 5.128906 35.25 5.128906 C 35.289062 5.277344 35.296875 5.425781 35.257812 5.582031 C 35.257812 5.589844 35.289062 5.617188 35.304688 5.628906 C 35.507812 5.703125 35.535156 5.875 35.546875 6.050781 C 35.546875 6.152344 35.5625 6.21875 35.636719 6.300781 C 35.703125 6.367188 35.738281 6.476562 35.738281 6.570312 C 35.75 6.816406 35.75 7.078125 35.730469 7.324219 C 35.722656 7.453125 35.65625 7.574219 35.621094 7.695312 C 35.765625 7.796875 35.925781 7.90625 36.070312 8.019531 C 36.3125 8.191406 36.441406 8.433594 36.488281 8.738281 C 36.550781 9.207031 36.652344 9.667969 36.734375 10.132812 C 36.78125 10.417969 36.867188 10.695312 36.875 10.980469 C 36.902344 11.515625 36.71875 11.996094 36.367188 12.402344 C 36.265625 12.523438 36.097656 12.613281 35.953125 12.652344 C 35.269531 12.816406 34.566406 12.824219 33.875 12.734375 C 33.773438 12.714844 33.679688 12.679688 33.570312 12.640625 C 33.46875 12.910156 33.347656 13.175781 33.257812 13.453125 C 33.128906 13.832031 32.925781 14.15625 32.601562 14.394531 C 32.574219 14.414062 32.554688 14.460938 32.554688 14.488281 C 32.648438 15.011719 32.769531 15.53125 32.839844 16.054688 C 33 17.070312 33.117188 18.097656 33.273438 19.121094 C 33.359375 19.65625 33.515625 20.183594 33.597656 20.71875 C 33.738281 21.585938 33.847656 22.460938 33.984375 23.328125 C 34.050781 23.714844 33.929688 24.03125 33.679688 24.316406 C 33.589844 24.425781 33.5625 24.527344 33.570312 24.667969 C 33.597656 25.136719 33.597656 25.617188 33.597656 26.089844 C 33.589844 26.78125 33.570312 27.472656 33.542969 28.164062 C 33.535156 28.320312 33.542969 28.480469 33.433594 28.617188 C 33.414062 28.644531 33.433594 28.710938 33.449219 28.753906 C 33.550781 29.085938 33.691406 29.402344 33.765625 29.742188 C 33.96875 30.628906 34.363281 31.441406 34.714844 32.273438 C 35.085938 33.148438 35.453125 34.023438 35.703125 34.949219 C 35.765625 35.1875 35.867188 35.429688 35.988281 35.648438 C 36.339844 36.339844 36.707031 37.015625 37.058594 37.699219 C 37.503906 38.574219 37.632812 39.488281 37.335938 40.4375 C 37.226562 40.78125 37.234375 41.09375 37.328125 41.4375 C 37.429688 41.804688 37.648438 42.117188 37.835938 42.453125 C 37.910156 42.582031 37.980469 42.710938 38.046875 42.847656 C 38.148438 43.070312 38.148438 43.308594 38.039062 43.523438 C 37.9375 43.714844 37.824219 43.929688 37.660156 44.074219 C 36.847656 44.8125 35.933594 45.347656 34.816406 45.449219 C 34.417969 45.488281 34.023438 45.480469 33.625 45.515625 C 33.394531 45.535156 33.15625 45.597656 32.933594 45.671875 C 32.65625 45.765625 32.445312 45.957031 32.324219 46.226562 C 32.128906 46.667969 31.789062 46.882812 31.347656 46.992188 C 30.597656 47.175781 29.859375 47.195312 29.105469 46.984375 C 28.855469 46.910156 28.570312 46.917969 28.300781 46.917969 C 27.738281 46.925781 27.191406 47.011719 26.667969 47.203125 C 26.371094 47.316406 26.113281 47.492188 25.929688 47.75 C 25.511719 48.339844 24.894531 48.578125 24.230469 48.71875 C 24.027344 48.765625 23.816406 48.726562 23.613281 48.738281 C 23.179688 48.753906 22.746094 48.800781 22.300781 48.808594 C 21.589844 48.828125 20.878906 48.867188 20.171875 48.839844 C 19.488281 48.808594 18.824219 48.636719 18.203125 48.332031 C 17.84375 48.144531 17.519531 47.914062 17.253906 47.609375 C 16.902344 47.222656 16.867188 46.945312 17.113281 46.402344 C 17.171875 46.289062 17.253906 46.1875 17.316406 46.085938 C 17.375 46.003906 17.4375 45.929688 17.484375 45.839844 C 17.59375 45.644531 17.519531 45.414062 17.308594 45.359375 C 17.078125 45.292969 16.839844 45.257812 16.597656 45.238281 C 16.230469 45.210938 15.878906 45.117188 15.527344 45 C 15.316406 44.925781 15.132812 44.785156 14.984375 44.609375 C 14.808594 44.378906 14.59375 44.195312 14.347656 44.046875 C 13.914062 43.796875 13.726562 43.382812 13.683594 42.894531 C 13.636719 42.367188 13.773438 41.898438 13.996094 41.425781 C 14.328125 40.742188 14.855469 40.226562 15.425781 39.746094 C 15.8125 39.425781 16.191406 39.082031 16.570312 38.742188 C 16.699219 38.621094 16.8125 38.484375 16.910156 38.34375 C 17.457031 37.625 17.863281 36.839844 18.074219 35.964844 C 18.242188 35.289062 18.378906 34.617188 18.546875 33.953125 C 18.785156 32.972656 19.117188 32.03125 19.617188 31.15625 C 19.625 31.144531 19.625 31.128906 19.632812 31.101562 C 19.449219 31.136719 19.273438 31.171875 19.097656 31.210938 C 18.554688 31.320312 18.019531 31.332031 17.476562 31.21875 C 16.882812 31.109375 16.339844 30.582031 16.265625 30.046875 C 16.238281 29.84375 16.238281 29.632812 16.265625 29.429688 C 16.320312 28.984375 16.191406 28.644531 15.796875 28.40625 C 15.5 28.21875 15.242188 28 15.066406 27.683594 C 14.707031 27.046875 14.578125 26.394531 14.84375 25.691406 C 15 25.285156 15.167969 24.878906 15.289062 24.464844 C 15.445312 23.929688 15.566406 23.375 15.695312 22.832031 C 15.859375 22.101562 15.953125 21.355469 15.988281 20.605469 C 16 20.320312 15.933594 20.023438 15.886719 19.738281 C 15.851562 19.472656 15.804688 19.195312 15.738281 18.925781 C 15.667969 18.640625 15.59375 18.34375 15.480469 18.066406 C 15.304688 17.632812 15.316406 17.183594 15.324219 16.730469 C 15.332031 16.488281 15.324219 16.242188 15.332031 16 C 15.351562 15.59375 15.464844 15.214844 15.601562 14.839844 C 15.8125 14.230469 16.015625 13.621094 16.070312 12.972656 C 16.128906 12.335938 16.210938 11.710938 16.164062 11.074219 C 16.128906 10.527344 16.3125 10.242188 16.828125 10.03125 C 16.867188 10.066406 16.882812 10.058594 16.894531 10.046875 Z M 14.917969 43.945312 C 15.871094 42.367188 16.921875 40.863281 17.84375 39.265625 C 17.863281 39.339844 17.863281 39.40625 17.851562 39.46875 C 17.789062 39.941406 17.605469 40.375 17.390625 40.789062 C 16.894531 41.777344 16.21875 42.65625 15.535156 43.523438 C 15.390625 43.707031 15.242188 43.890625 15.074219 44.101562 C 15.289062 44.261719 15.464844 44.4375 15.675781 44.527344 C 15.953125 44.640625 16.265625 44.683594 16.5625 44.757812 C 16.8125 44.8125 17.070312 44.839844 17.316406 44.914062 C 17.457031 44.953125 17.566406 45.042969 17.707031 45.117188 C 17.789062 44.785156 17.890625 44.453125 17.964844 44.121094 C 18.175781 43.199219 18.390625 42.277344 18.574219 41.34375 C 18.859375 39.894531 19.097656 38.4375 19.386719 36.996094 C 19.753906 35.160156 20.417969 33.398438 20.972656 31.617188 C 20.980469 31.578125 21.011719 31.550781 21.027344 31.523438 C 21.054688 31.5625 21.054688 31.578125 21.054688 31.605469 C 20.972656 32.097656 20.910156 32.585938 20.789062 33.066406 C 20.214844 35.300781 19.773438 37.550781 19.433594 39.832031 C 19.273438 40.84375 19.128906 41.859375 18.832031 42.847656 C 18.59375 43.667969 18.304688 44.480469 18.046875 45.304688 C 17.9375 45.652344 17.789062 45.976562 17.566406 46.273438 C 17.511719 46.347656 17.457031 46.429688 17.429688 46.519531 C 17.375 46.714844 17.316406 46.925781 17.484375 47.09375 C 17.890625 47.507812 18.351562 47.832031 18.90625 48.007812 C 19.210938 48.097656 19.523438 48.191406 19.835938 48.238281 C 20.585938 48.359375 21.34375 48.332031 22.089844 48.292969 C 22.699219 48.265625 23.296875 48.21875 23.90625 48.3125 C 24.054688 48.332031 24.222656 48.3125 24.359375 48.273438 C 24.589844 48.210938 24.832031 48.128906 25.042969 48.015625 C 25.199219 47.933594 25.347656 47.796875 25.46875 47.65625 C 25.542969 47.574219 25.550781 47.445312 25.597656 47.34375 C 25.808594 46.882812 26.019531 46.417969 26.242188 45.96875 C 26.789062 44.859375 27.230469 43.707031 27.527344 42.507812 C 27.785156 41.453125 27.949219 40.382812 27.875 39.296875 C 27.792969 38.160156 27.664062 37.035156 27.554688 35.898438 C 27.542969 35.796875 27.535156 35.703125 27.527344 35.601562 C 27.535156 35.601562 27.554688 35.59375 27.5625 35.59375 C 27.570312 35.621094 27.589844 35.648438 27.597656 35.675781 C 27.65625 35.851562 27.71875 36.027344 27.773438 36.210938 C 28.015625 37.050781 28.144531 37.910156 28.273438 38.769531 C 28.394531 39.527344 28.4375 40.28125 28.335938 41.039062 C 28.144531 42.5625 27.683594 44.011719 26.992188 45.386719 C 26.722656 45.902344 26.425781 46.402344 26.152344 46.917969 C 26.132812 46.945312 26.121094 46.972656 26.09375 47.027344 C 26.554688 46.753906 27.027344 46.613281 27.515625 46.53125 C 28.117188 46.4375 28.707031 46.375 29.308594 46.539062 C 29.769531 46.667969 30.238281 46.6875 30.699219 46.605469 C 30.976562 46.558594 31.246094 46.492188 31.503906 46.402344 C 31.734375 46.320312 31.808594 46.152344 31.789062 45.914062 C 31.78125 45.839844 31.78125 45.773438 31.78125 45.699219 C 31.769531 45.144531 31.789062 44.59375 31.761719 44.039062 C 31.695312 42.71875 31.605469 41.398438 31.660156 40.078125 C 31.660156 40.042969 31.667969 39.996094 31.667969 39.941406 C 31.707031 39.960938 31.714844 39.96875 31.726562 39.976562 C 32.03125 41.851562 32.242188 43.734375 32.09375 45.664062 C 32.128906 45.636719 32.148438 45.625 32.160156 45.609375 C 32.433594 45.347656 32.757812 45.183594 33.128906 45.136719 C 33.515625 45.089844 33.910156 45.0625 34.308594 45.074219 C 35.074219 45.082031 35.765625 44.886719 36.375 44.4375 C 36.679688 44.214844 36.976562 43.972656 37.242188 43.707031 C 37.558594 43.382812 37.558594 43.191406 37.335938 42.800781 C 37.316406 42.765625 37.289062 42.726562 37.269531 42.691406 C 37.097656 42.292969 36.875 41.917969 36.855469 41.472656 C 36.855469 41.4375 36.835938 41.390625 36.820312 41.351562 C 36.5625 40.890625 36.300781 40.421875 36.042969 39.960938 C 35.214844 38.5 34.355469 37.050781 33.71875 35.492188 C 33.433594 34.792969 33.164062 34.089844 32.886719 33.386719 C 32.878906 33.359375 32.886719 33.324219 32.886719 33.285156 C 32.914062 33.304688 32.953125 33.324219 32.96875 33.351562 C 33.0625 33.507812 33.15625 33.664062 33.238281 33.832031 C 33.765625 34.828125 34.289062 35.824219 34.824219 36.8125 C 35.460938 37.984375 36.117188 39.148438 36.773438 40.308594 C 36.792969 40.339844 36.808594 40.355469 36.828125 40.394531 C 36.929688 39.914062 36.949219 39.453125 36.894531 38.980469 C 36.835938 38.4375 36.734375 37.910156 36.488281 37.421875 C 36.21875 36.894531 35.933594 36.371094 35.65625 35.84375 C 35.546875 35.621094 35.433594 35.402344 35.34375 35.167969 C 35.257812 34.964844 35.203125 34.753906 35.121094 34.5625 C 34.75 33.683594 34.375 32.808594 33.996094 31.941406 C 33.710938 31.273438 33.40625 30.628906 33.265625 29.917969 C 33.238281 29.789062 33.191406 29.660156 33.144531 29.519531 C 32.988281 28.96875 32.777344 28.421875 32.8125 27.832031 C 32.8125 27.804688 32.804688 27.785156 32.804688 27.757812 C 32.667969 27.378906 32.546875 27 32.378906 26.640625 C 32.113281 26.03125 31.808594 25.441406 31.53125 24.84375 C 31.289062 24.324219 31.015625 23.835938 30.671875 23.382812 C 30.210938 22.765625 29.75 22.148438 29.378906 21.464844 C 29.140625 21.011719 28.835938 20.605469 28.511719 20.210938 C 28.300781 19.949219 28.089844 19.691406 27.894531 19.414062 C 27.699219 19.140625 27.535156 18.851562 27.515625 18.503906 C 27.507812 18.242188 27.515625 17.984375 27.542969 17.734375 C 27.597656 17.21875 27.570312 16.738281 27.175781 16.351562 C 27.074219 16.25 26.992188 16.203125 26.84375 16.25 C 26.65625 16.296875 26.472656 16.316406 26.296875 16.34375 C 26.28125 16.425781 26.28125 16.507812 26.242188 16.5625 C 26.078125 16.8125 25.929688 17.089844 25.707031 17.292969 C 25.0625 17.902344 24.257812 18.261719 23.417969 18.519531 C 23.132812 18.613281 22.828125 18.660156 22.523438 18.734375 C 22.773438 19.574219 23.03125 20.421875 23.289062 21.296875 C 23.398438 21.195312 23.484375 21.132812 23.546875 21.058594 C 23.667969 20.921875 23.804688 20.808594 23.980469 20.734375 C 24.195312 20.644531 24.386719 20.515625 24.589844 20.394531 C 24.921875 20.191406 25.226562 19.960938 25.570312 19.785156 C 25.816406 19.65625 26.105469 19.601562 26.371094 19.527344 C 26.601562 19.453125 26.75 19.574219 26.722656 19.820312 C 26.714844 19.90625 26.675781 19.996094 26.621094 20.070312 C 26.539062 20.183594 26.4375 20.28125 26.335938 20.382812 C 26.222656 20.496094 26.105469 20.585938 25.976562 20.707031 C 26.316406 20.617188 26.59375 20.457031 26.871094 20.273438 C 27.089844 20.125 27.332031 19.980469 27.617188 20.035156 C 27.902344 20.082031 27.988281 20.28125 27.8125 20.523438 C 27.765625 20.585938 27.699219 20.632812 27.644531 20.6875 C 27.617188 20.71875 27.582031 20.746094 27.527344 20.800781 C 27.664062 20.761719 27.773438 20.726562 27.875 20.707031 C 27.988281 20.6875 28.105469 20.671875 28.226562 20.671875 C 28.46875 20.660156 28.605469 20.753906 28.660156 20.949219 C 28.714844 21.152344 28.625 21.355469 28.429688 21.445312 C 28.273438 21.519531 28.097656 21.585938 27.941406 21.660156 C 27.847656 21.695312 27.765625 21.75 27.691406 21.789062 C 27.867188 21.832031 28.042969 21.851562 28.191406 21.917969 C 28.382812 22 28.402344 22.183594 28.234375 22.3125 C 28.144531 22.386719 28.023438 22.441406 27.914062 22.488281 C 27.839844 22.515625 27.746094 22.515625 27.671875 22.542969 C 27.515625 22.589844 27.367188 22.644531 27.210938 22.703125 C 27.386719 22.773438 27.527344 22.847656 27.609375 23.003906 C 27.671875 23.125 27.65625 23.226562 27.554688 23.320312 C 27.414062 23.457031 27.238281 23.476562 27.054688 23.457031 C 26.933594 23.441406 26.816406 23.421875 26.695312 23.410156 C 26.152344 23.382812 25.613281 23.300781 25.125 23.023438 C 25.050781 22.988281 24.960938 22.96875 24.875 22.96875 C 24.617188 22.988281 24.359375 23.015625 24.101562 23.050781 C 24.066406 23.050781 24.035156 23.078125 23.992188 23.089844 C 24.027344 23.191406 24.066406 23.28125 24.09375 23.375 C 24.15625 23.558594 24.210938 23.742188 24.277344 23.929688 C 24.304688 24.019531 24.324219 24.121094 24.378906 24.207031 C 24.570312 24.519531 24.71875 24.84375 24.773438 25.203125 C 24.839844 25.65625 24.804688 26.089844 24.570312 26.484375 C 24.296875 26.964844 23.917969 27.363281 23.464844 27.683594 C 23.289062 27.804688 23.105469 27.914062 22.929688 28.027344 C 22.746094 28.144531 22.632812 28.304688 22.625 28.523438 C 22.625 28.710938 22.632812 28.894531 22.625 29.070312 C 22.625 29.21875 22.652344 29.382812 22.589844 29.492188 C 22.421875 29.789062 22.253906 30.113281 21.941406 30.289062 C 21.601562 30.480469 21.25 30.65625 20.890625 30.8125 C 20.605469 30.933594 20.300781 31.007812 20.023438 31.101562 C 19.996094 31.203125 19.976562 31.292969 19.9375 31.375 C 19.625 32.03125 19.367188 32.714844 19.164062 33.417969 C 18.980469 34.082031 18.832031 34.753906 18.65625 35.417969 C 18.378906 36.441406 17.917969 37.382812 17.347656 38.269531 C 17.171875 38.546875 16.996094 38.824219 16.792969 39.082031 C 16.359375 39.65625 15.8125 40.125 15.277344 40.605469 C 14.828125 41.011719 14.511719 41.511719 14.273438 42.054688 C 14.070312 42.507812 14.078125 42.96875 14.246094 43.429688 C 14.300781 43.578125 14.390625 43.726562 14.511719 43.828125 C 14.640625 43.855469 14.789062 43.882812 14.917969 43.945312 Z M 16.617188 15.484375 C 16.625 15.492188 16.644531 15.492188 16.652344 15.503906 C 16.652344 15.53125 16.664062 15.558594 16.664062 15.585938 C 16.679688 17.652344 16.617188 19.730469 16.375 21.789062 C 16.257812 22.839844 15.960938 23.84375 15.507812 24.804688 C 15.371094 25.089844 15.25 25.386719 15.121094 25.683594 C 14.855469 26.261719 15.039062 26.800781 15.324219 27.304688 C 15.425781 27.480469 15.566406 27.640625 15.710938 27.769531 C 15.972656 28 16.257812 28.191406 16.535156 28.40625 C 16.535156 28.378906 16.542969 28.339844 16.550781 28.292969 C 16.617188 27.804688 16.664062 27.316406 16.738281 26.835938 C 16.96875 25.453125 17.1875 24.066406 17.308594 22.664062 C 17.382812 21.75 17.511719 20.847656 17.621094 19.941406 C 17.640625 19.792969 17.6875 19.644531 17.722656 19.5 C 17.742188 19.5 17.75 19.5 17.769531 19.507812 C 17.769531 19.554688 17.78125 19.601562 17.78125 19.644531 C 17.761719 20.679688 17.742188 21.703125 17.707031 22.738281 C 17.6875 23.320312 17.667969 23.910156 17.578125 24.492188 C 17.375 25.792969 17.125 27.085938 16.882812 28.378906 C 16.792969 28.882812 16.671875 29.390625 16.664062 29.917969 C 16.664062 30.085938 16.691406 30.242188 16.792969 30.378906 C 16.984375 30.621094 17.214844 30.824219 17.53125 30.839844 C 17.882812 30.867188 18.242188 30.898438 18.582031 30.839844 C 19.503906 30.703125 20.390625 30.445312 21.25 30.09375 C 21.386719 30.039062 21.515625 29.972656 21.648438 29.917969 C 21.609375 29.753906 21.574219 29.59375 21.535156 29.4375 C 21.527344 29.410156 21.515625 29.375 21.5 29.347656 C 21.113281 28.550781 20.917969 27.703125 20.84375 26.835938 C 20.761719 25.929688 20.761719 25.027344 20.734375 24.121094 C 20.722656 24.003906 20.742188 23.875 20.722656 23.753906 C 20.667969 23.265625 20.605469 22.773438 20.53125 22.285156 C 20.410156 21.457031 20.1875 20.644531 19.835938 19.878906 C 19.71875 19.617188 19.589844 19.371094 19.476562 19.109375 C 18.582031 17.015625 17.816406 14.875 17.464844 12.605469 C 17.410156 12.234375 17.417969 11.855469 17.410156 11.488281 C 17.410156 11.449219 17.429688 11.414062 17.457031 11.347656 C 17.492188 11.609375 17.503906 11.820312 17.558594 12.023438 C 17.769531 12.796875 17.964844 13.582031 18.230469 14.339844 C 18.757812 15.796875 19.332031 17.238281 19.882812 18.6875 C 20.105469 19.269531 20.328125 19.847656 20.4375 20.46875 C 20.546875 21.085938 20.640625 21.703125 20.722656 22.324219 C 20.796875 22.859375 20.871094 23.402344 20.9375 23.9375 C 20.992188 24.382812 21.011719 24.832031 21.074219 25.277344 C 21.175781 25.96875 21.277344 26.667969 21.40625 27.351562 C 21.5 27.859375 21.617188 28.367188 21.75 28.875 C 21.8125 29.132812 21.90625 29.382812 21.988281 29.667969 C 22.0625 29.585938 22.109375 29.53125 22.164062 29.484375 C 22.347656 29.355469 22.367188 29.171875 22.355469 28.96875 C 22.347656 28.746094 22.375 28.523438 22.386719 28.3125 C 22.394531 28.136719 22.46875 27.988281 22.589844 27.871094 C 22.679688 27.777344 22.773438 27.675781 22.882812 27.601562 C 23.335938 27.289062 23.6875 26.871094 24 26.421875 C 24.40625 25.820312 24.425781 25.183594 24.128906 24.527344 C 24.027344 24.308594 23.925781 24.085938 23.871094 23.855469 C 23.832031 23.714844 23.816406 23.578125 23.75 23.457031 C 23.722656 23.410156 23.703125 23.355469 23.6875 23.300781 C 23.457031 22.628906 23.226562 21.953125 23.003906 21.28125 C 22.699219 20.347656 22.476562 19.398438 22.144531 18.472656 C 21.839844 17.644531 21.398438 16.90625 20.863281 16.222656 C 20.300781 15.503906 19.746094 14.78125 19.375 13.941406 C 19.347656 13.878906 19.332031 13.8125 19.300781 13.757812 C 19.3125 13.75 19.332031 13.730469 19.339844 13.722656 C 19.394531 13.75 19.460938 13.765625 19.503906 13.8125 C 19.605469 13.925781 19.707031 14.042969 19.800781 14.164062 C 20.03125 14.460938 20.261719 14.765625 20.492188 15.058594 C 20.511719 15.085938 20.539062 15.113281 20.566406 15.144531 C 20.558594 15.03125 20.519531 14.929688 20.492188 14.839844 C 20.300781 14.164062 19.984375 13.554688 19.523438 13.027344 C 19.359375 12.835938 19.210938 12.605469 19.070312 12.382812 C 18.8125 11.976562 18.5625 11.550781 18.304688 11.144531 C 18.101562 10.8125 17.84375 10.546875 17.519531 10.324219 C 17.316406 10.175781 17.152344 10.214844 16.96875 10.296875 C 16.664062 10.425781 16.449219 10.628906 16.433594 10.980469 C 16.40625 11.378906 16.386719 11.773438 16.347656 12.171875 C 16.304688 12.707031 16.257812 13.25 16.171875 13.777344 C 16.101562 14.21875 15.988281 14.664062 15.878906 15.097656 C 15.695312 15.796875 15.675781 16.519531 15.675781 17.238281 C 15.675781 17.386719 15.710938 17.53125 15.769531 17.671875 C 15.898438 17.964844 16.042969 18.253906 16.191406 18.546875 C 16.191406 18.53125 16.203125 18.503906 16.203125 18.472656 C 16.257812 17.820312 16.3125 17.164062 16.386719 16.507812 C 16.414062 16.230469 16.46875 15.953125 16.515625 15.6875 C 16.535156 15.621094 16.578125 15.558594 16.617188 15.484375 Z M 21.914062 10.972656 C 21.886719 11.238281 21.71875 11.441406 21.277344 11.40625 C 21.277344 11.421875 21.277344 11.441406 21.277344 11.46875 C 21.324219 11.941406 21.203125 12.375 20.980469 12.789062 C 20.878906 12.984375 20.742188 13.128906 20.539062 13.222656 C 20.390625 13.289062 20.34375 13.472656 20.429688 13.621094 C 20.511719 13.765625 20.613281 13.925781 20.648438 14.089844 C 20.742188 14.515625 20.808594 14.957031 20.878906 15.390625 C 20.890625 15.464844 20.917969 15.539062 20.964844 15.59375 C 21.609375 16.351562 22.089844 17.210938 22.386719 18.160156 C 22.476562 18.445312 22.476562 18.4375 22.761719 18.382812 C 23.824219 18.1875 24.757812 17.761719 25.496094 16.953125 C 25.652344 16.785156 25.78125 16.589844 25.917969 16.417969 C 25.910156 16.40625 25.902344 16.398438 25.890625 16.386719 C 25.714844 16.445312 25.542969 16.488281 25.367188 16.546875 C 25.328125 16.554688 25.292969 16.535156 25.253906 16.535156 C 25.265625 16.5 25.253906 16.445312 25.273438 16.425781 C 25.320312 16.378906 25.375 16.324219 25.441406 16.296875 C 25.644531 16.214844 25.847656 16.121094 26.058594 16.074219 C 26.472656 15.992188 26.898438 15.945312 27.3125 15.863281 C 27.800781 15.761719 28.28125 15.632812 28.761719 15.519531 C 29.667969 15.308594 30.570312 15.105469 31.421875 14.707031 C 31.808594 14.523438 32.175781 14.332031 32.472656 14.027344 C 32.601562 13.886719 32.730469 13.738281 32.8125 13.574219 C 32.953125 13.296875 33.070312 13.019531 33.171875 12.722656 C 33.617188 11.359375 34.011719 9.972656 34.28125 8.5625 C 34.300781 8.453125 34.335938 8.339844 34.410156 8.257812 C 34.660156 7.960938 34.78125 7.628906 34.75 7.222656 C 34.6875 7.242188 34.632812 7.261719 34.578125 7.28125 C 34.4375 7.316406 34.300781 7.371094 34.160156 7.398438 C 33.894531 7.445312 33.753906 7.289062 33.820312 7.03125 C 33.828125 7.003906 33.828125 6.964844 33.808594 6.945312 C 33.71875 6.835938 33.71875 6.726562 33.773438 6.597656 C 33.78125 6.570312 33.792969 6.542969 33.773438 6.523438 C 33.671875 6.320312 33.671875 6.265625 33.808594 6.089844 C 33.949219 5.914062 34.078125 5.738281 34.234375 5.527344 C 34.144531 5.527344 34.070312 5.507812 34.011719 5.527344 C 33.753906 5.65625 33.507812 5.785156 33.257812 5.933594 C 33.128906 6.003906 33.015625 6.105469 33.007812 6.28125 C 33 6.496094 32.96875 6.714844 32.941406 6.929688 C 32.914062 7.121094 32.988281 7.28125 33.128906 7.390625 C 33.421875 7.613281 33.523438 7.953125 33.386719 8.285156 C 33.0625 9.0625 32.738281 9.835938 32.40625 10.601562 C 32.148438 11.191406 31.882812 11.773438 31.605469 12.355469 C 31.464844 12.640625 31.273438 12.882812 31.03125 13.085938 C 30.894531 13.195312 30.753906 13.25 30.5625 13.261719 C 30.082031 13.289062 29.59375 13.316406 29.132812 13.453125 C 28.171875 13.730469 27.230469 13.703125 26.269531 13.5 C 26.121094 13.472656 25.964844 13.472656 25.816406 13.507812 C 25.382812 13.601562 24.96875 13.730469 24.535156 13.832031 C 24.195312 13.90625 23.84375 13.980469 23.492188 14.027344 C 23.207031 14.0625 22.855469 13.851562 22.761719 13.601562 C 22.679688 13.398438 22.605469 13.1875 22.53125 12.984375 C 22.320312 12.363281 22.320312 11.753906 22.671875 11.183594 C 22.746094 11.054688 22.828125 10.933594 22.921875 10.8125 C 23.050781 10.640625 23.167969 10.464844 23.226562 10.242188 C 23.011719 10.167969 22.902344 10.019531 22.847656 9.816406 C 22.808594 9.699219 22.726562 9.625 22.632812 9.539062 C 22.515625 9.429688 22.421875 9.300781 22.265625 9.226562 C 22.238281 9.21875 22.226562 9.164062 22.21875 9.125 C 22.199219 9.070312 22.171875 9.003906 22.152344 8.949219 C 22.136719 8.875 22.089844 8.847656 22.007812 8.839844 C 21.886719 8.828125 21.757812 8.792969 21.664062 8.726562 C 21.527344 8.636719 21.414062 8.507812 21.285156 8.394531 C 21.230469 8.351562 21.167969 8.3125 21.113281 8.265625 C 21.3125 8.636719 21.414062 9.023438 21.445312 9.4375 C 21.453125 9.632812 21.5 9.828125 21.617188 9.992188 C 21.636719 10.019531 21.648438 10.058594 21.65625 10.085938 C 21.703125 10.222656 21.664062 10.324219 21.535156 10.378906 C 21.453125 10.417969 21.359375 10.425781 21.269531 10.425781 C 21.175781 10.4375 21.074219 10.40625 20.980469 10.40625 C 20.84375 10.40625 20.722656 10.574219 20.769531 10.710938 C 20.84375 10.90625 20.964844 11.054688 21.15625 11.144531 C 21.378906 11.246094 21.5625 11.175781 21.65625 10.941406 C 21.710938 10.804688 21.832031 10.75 21.980469 10.785156 C 22.0625 10.804688 22.144531 10.824219 22.21875 10.851562 C 22.265625 10.871094 22.328125 10.914062 22.328125 10.933594 C 22.320312 10.980469 22.285156 11.054688 22.246094 11.0625 C 22.183594 11.082031 22.097656 11.0625 22.035156 11.042969 C 21.996094 11.035156 21.960938 11 21.914062 10.972656 Z M 33.210938 24.824219 C 33.136719 24.871094 33.089844 24.90625 33.042969 24.945312 C 32.871094 25.0625 32.683594 25.128906 32.472656 25.101562 C 32.378906 25.089844 32.25 25.089844 32.230469 24.972656 C 32.214844 24.84375 32.34375 24.816406 32.433594 24.777344 C 32.554688 24.730469 32.695312 24.714844 32.785156 24.628906 C 33.042969 24.425781 33.285156 24.207031 33.523438 23.984375 C 33.550781 23.964844 33.5625 23.910156 33.5625 23.875 C 33.550781 23.734375 33.523438 23.605469 33.507812 23.46875 C 33.414062 22.582031 33.347656 21.6875 33.238281 20.800781 C 33.164062 20.238281 33.027344 19.683594 32.933594 19.121094 C 32.730469 17.902344 32.546875 16.675781 32.351562 15.445312 C 32.316406 15.1875 32.289062 14.929688 32.261719 14.671875 C 31.613281 15.03125 30.949219 15.328125 30.238281 15.519531 C 29.640625 15.6875 29.019531 15.808594 28.402344 15.9375 C 28.117188 16 27.832031 16.046875 27.535156 16.101562 C 27.527344 16.113281 27.527344 16.121094 27.515625 16.128906 C 27.554688 16.15625 27.589844 16.175781 27.617188 16.203125 C 27.859375 16.445312 28.015625 16.722656 28.023438 17.0625 C 28.023438 17.347656 28.015625 17.644531 27.960938 17.929688 C 27.867188 18.4375 27.941406 18.871094 28.292969 19.257812 C 28.53125 19.515625 28.761719 19.785156 28.972656 20.070312 C 29.207031 20.375 29.445312 20.679688 29.640625 21.023438 C 29.953125 21.558594 30.277344 22.082031 30.652344 22.582031 C 31.078125 23.136719 31.476562 23.707031 31.753906 24.351562 C 31.863281 24.613281 31.984375 24.859375 32.09375 25.109375 C 32.398438 25.8125 32.703125 26.511719 33.007812 27.214844 C 33.035156 27.269531 33.054688 27.324219 33.082031 27.371094 C 33.15625 26.53125 33.070312 25.683594 33.210938 24.824219 Z M 25.226562 7.988281 C 25.035156 7.945312 24.960938 7.796875 24.894531 7.667969 C 24.8125 7.5 24.867188 7.410156 25.0625 7.410156 C 25.300781 7.410156 25.449219 7.289062 25.496094 7.046875 C 25.570312 6.699219 25.496094 6.375 25.320312 6.070312 C 25.28125 6.003906 25.199219 5.960938 25.136719 5.902344 C 25.117188 5.886719 25.070312 5.886719 25.042969 5.894531 C 24.757812 6.035156 24.542969 6.402344 24.5625 6.726562 C 24.570312 6.890625 24.601562 7.058594 24.601562 7.222656 C 24.609375 7.351562 24.554688 7.453125 24.433594 7.5 C 24.324219 7.546875 24.167969 7.511719 24.082031 7.410156 C 24.046875 7.371094 24.019531 7.316406 24 7.269531 C 23.925781 7.132812 23.851562 6.992188 23.789062 6.84375 C 23.742188 6.742188 23.675781 6.671875 23.558594 6.644531 C 23.382812 6.597656 23.253906 6.476562 23.1875 6.300781 C 23.160156 6.21875 23.132812 6.136719 23.113281 6.050781 C 23.078125 5.886719 23.050781 5.859375 22.875 5.832031 C 22.660156 5.792969 22.449219 5.847656 22.246094 5.902344 C 21.851562 6.015625 21.460938 6.164062 21.027344 6.136719 C 21.074219 6.355469 21.121094 6.570312 21.148438 6.78125 C 21.175781 7.046875 21.285156 7.25 21.546875 7.363281 C 21.675781 7.417969 21.757812 7.527344 21.765625 7.667969 C 21.785156 7.933594 21.804688 8.203125 21.8125 8.46875 C 21.8125 8.542969 21.832031 8.582031 21.90625 8.582031 C 21.996094 8.582031 22.089844 8.570312 22.171875 8.570312 C 22.238281 8.570312 22.355469 8.554688 22.328125 8.644531 C 22.292969 8.792969 22.375 8.886719 22.414062 8.988281 C 22.429688 9.03125 22.488281 9.078125 22.53125 9.078125 C 22.644531 9.089844 22.691406 9.144531 22.699219 9.246094 C 22.707031 9.28125 22.71875 9.328125 22.746094 9.335938 C 22.921875 9.421875 22.992188 9.585938 23.058594 9.753906 C 23.140625 9.957031 23.269531 10.03125 23.484375 9.964844 C 23.574219 9.9375 23.675781 9.902344 23.75 9.84375 C 23.90625 9.726562 24.054688 9.597656 24.195312 9.457031 C 24.40625 9.246094 24.601562 9.015625 24.792969 8.792969 C 24.867188 8.710938 24.933594 8.617188 24.996094 8.535156 C 25.035156 8.480469 25.070312 8.414062 25.109375 8.351562 C 25.117188 8.351562 25.136719 8.351562 25.144531 8.359375 C 25.164062 8.433594 25.179688 8.496094 25.191406 8.570312 C 25.199219 8.746094 25.070312 8.839844 24.960938 8.949219 C 24.804688 9.125 24.644531 9.308594 24.488281 9.484375 C 24.5 9.496094 24.5 9.511719 24.507812 9.523438 C 24.746094 9.550781 24.988281 9.578125 25.21875 9.605469 C 25.375 9.625 25.496094 9.566406 25.597656 9.4375 C 25.902344 9.0625 26.121094 8.644531 26.242188 8.175781 C 26.335938 7.804688 26.296875 7.445312 26.085938 7.121094 C 26.066406 7.09375 26.019531 7.066406 25.984375 7.058594 C 25.890625 7.039062 25.800781 7.039062 25.699219 7.019531 C 25.605469 7.296875 25.53125 7.601562 25.179688 7.667969 C 25.21875 7.796875 25.21875 7.886719 25.226562 7.988281 Z M 32.796875 9.164062 C 32.390625 8.976562 32.128906 8.644531 31.855469 8.332031 C 31.566406 8.007812 31.246094 7.722656 30.941406 7.417969 C 30.839844 7.316406 30.71875 7.269531 30.5625 7.261719 C 30.3125 7.261719 30.054688 7.234375 29.824219 7.34375 C 29.480469 7.519531 29.132812 7.511719 28.761719 7.472656 C 28.585938 7.453125 28.402344 7.445312 28.207031 7.4375 C 28.226562 7.472656 28.226562 7.484375 28.234375 7.492188 C 28.253906 7.519531 28.273438 7.546875 28.300781 7.566406 C 28.539062 7.804688 28.578125 8.074219 28.421875 8.386719 C 28.335938 8.5625 28.273438 8.757812 28.191406 8.960938 C 28.382812 8.941406 28.558594 8.921875 28.726562 8.902344 C 28.9375 8.875 29.09375 8.960938 29.214844 9.132812 C 29.425781 9.449219 29.582031 9.800781 29.667969 10.167969 C 29.8125 10.84375 29.886719 11.523438 29.871094 12.21875 C 29.859375 12.464844 29.871094 12.714844 29.871094 12.972656 C 30.109375 12.957031 30.332031 12.9375 30.550781 12.910156 C 30.617188 12.898438 30.699219 12.871094 30.746094 12.824219 C 31.117188 12.4375 31.402344 11.996094 31.660156 11.523438 C 31.679688 11.496094 31.679688 11.441406 31.667969 11.40625 C 31.59375 11.082031 31.53125 10.75 31.429688 10.425781 C 31.144531 9.539062 30.949219 8.636719 30.753906 7.730469 C 30.746094 7.695312 30.773438 7.648438 30.785156 7.613281 C 30.820312 7.640625 30.867188 7.648438 30.886719 7.683594 C 30.949219 7.824219 31.003906 7.960938 31.050781 8.101562 C 31.335938 9.003906 31.625 9.910156 31.898438 10.824219 C 31.917969 10.871094 31.929688 10.914062 31.957031 10.988281 C 32.25 10.351562 32.601562 9.800781 32.796875 9.164062 Z M 26.078125 6.828125 C 26.09375 6.816406 26.105469 6.808594 26.121094 6.800781 C 26.09375 6.652344 26.066406 6.496094 26.039062 6.347656 C 25.992188 6.136719 25.917969 5.933594 25.902344 5.71875 C 25.863281 5.3125 25.863281 4.898438 25.847656 4.492188 C 25.828125 4.179688 25.78125 3.902344 25.496094 3.679688 C 25.191406 3.441406 24.859375 3.375 24.5 3.414062 C 24.351562 3.429688 24.269531 3.394531 24.183594 3.265625 C 24.167969 3.246094 24.148438 3.21875 24.121094 3.210938 C 24.019531 3.171875 23.917969 3.117188 23.816406 3.109375 C 23.28125 3.070312 22.761719 3.136719 22.300781 3.449219 C 21.90625 3.71875 21.554688 4.039062 21.230469 4.398438 C 21.046875 4.601562 20.84375 4.789062 20.566406 4.863281 C 20.53125 4.871094 20.492188 4.917969 20.464844 4.964844 C 20.382812 5.101562 20.4375 5.238281 20.457031 5.386719 C 20.519531 5.792969 20.761719 5.933594 21.128906 5.894531 C 21.460938 5.859375 21.792969 5.757812 22.125 5.683594 C 22.386719 5.617188 22.644531 5.542969 22.921875 5.601562 C 23.1875 5.644531 23.28125 5.738281 23.328125 6.003906 C 23.355469 6.199219 23.417969 6.382812 23.640625 6.449219 C 23.796875 6.496094 23.90625 6.597656 23.980469 6.734375 C 24.074219 6.902344 24.15625 7.078125 24.257812 7.242188 C 24.277344 7.269531 24.3125 7.289062 24.351562 7.316406 C 24.371094 7.289062 24.398438 7.25 24.414062 7.214844 C 24.425781 7.179688 24.425781 7.140625 24.425781 7.105469 C 24.414062 6.964844 24.398438 6.828125 24.386719 6.679688 C 24.359375 6.21875 24.542969 5.914062 24.941406 5.746094 C 25.164062 5.65625 25.367188 5.710938 25.523438 5.914062 C 25.660156 6.105469 25.734375 6.328125 25.761719 6.558594 C 25.773438 6.605469 25.773438 6.671875 25.800781 6.6875 C 25.875 6.734375 25.976562 6.78125 26.078125 6.828125 Z M 19.402344 9.253906 C 19.210938 9.929688 18.980469 10.269531 18.738281 10.242188 C 18.832031 10.074219 18.933594 9.910156 19.015625 9.734375 C 19.171875 9.410156 19.285156 9.070312 19.257812 8.699219 C 19.238281 8.488281 19.199219 8.277344 19.171875 8.074219 C 19.082031 8.101562 18.96875 8.148438 18.851562 8.175781 C 18.445312 8.257812 18.09375 8.453125 17.75 8.691406 C 17.4375 8.914062 17.253906 9.21875 17.160156 9.585938 C 17.125 9.714844 17.105469 9.855469 17.070312 10.003906 C 17.132812 10.003906 17.179688 10.003906 17.214844 10.003906 C 17.410156 10.03125 17.621094 9.984375 17.796875 10.101562 C 17.917969 10.1875 18.027344 10.269531 18.128906 10.363281 C 18.445312 10.675781 18.648438 11.0625 18.859375 11.441406 C 19.164062 11.984375 19.496094 12.523438 19.921875 12.992188 C 19.949219 13.019531 19.976562 13.058594 20.023438 13.101562 C 19.96875 12.613281 19.792969 12.199219 19.605469 11.773438 C 19.679688 11.78125 19.746094 11.800781 19.792969 11.839844 C 20.011719 12.015625 20.132812 12.253906 20.234375 12.511719 C 20.300781 12.667969 20.34375 12.824219 20.402344 12.992188 C 20.558594 12.890625 20.6875 12.769531 20.769531 12.613281 C 20.964844 12.234375 21.066406 11.839844 21.066406 11.414062 C 21.066406 11.378906 21.054688 11.332031 21.027344 11.304688 C 20.890625 11.164062 20.75 11.035156 20.613281 10.90625 C 20.613281 10.90625 20.59375 10.925781 20.574219 10.941406 C 20.429688 11.191406 20.289062 11.433594 20.140625 11.683594 C 20.105469 11.738281 20.070312 11.792969 20.011719 11.867188 C 19.976562 11.773438 19.949219 11.71875 19.9375 11.664062 C 19.875 11.378906 19.9375 11.109375 20.105469 10.871094 C 20.199219 10.742188 20.316406 10.621094 20.417969 10.5 C 20.613281 10.277344 20.734375 10.03125 20.761719 9.726562 C 20.769531 9.632812 20.796875 9.539062 20.816406 9.4375 C 20.824219 9.4375 20.84375 9.4375 20.851562 9.4375 C 20.9375 9.652344 20.9375 9.871094 20.945312 10.085938 C 21.140625 10.101562 21.3125 10.113281 21.488281 10.132812 C 21.5 10.121094 21.507812 10.101562 21.515625 10.09375 C 21.296875 9.863281 21.269531 9.566406 21.195312 9.28125 C 21.167969 9.164062 21.140625 9.042969 21.101562 8.921875 C 20.992188 8.542969 20.761719 8.230469 20.519531 7.925781 C 20.484375 7.878906 20.417969 7.816406 20.429688 7.769531 C 20.457031 7.59375 20.308594 7.527344 20.226562 7.4375 C 20.199219 7.398438 20.113281 7.390625 20.070312 7.398438 C 19.808594 7.4375 19.5625 7.703125 19.523438 7.960938 C 19.496094 8.164062 19.542969 8.351562 19.617188 8.535156 C 19.921875 9.320312 19.792969 10.046875 19.285156 10.722656 C 19.238281 10.785156 19.164062 10.824219 19.097656 10.878906 C 19.089844 10.871094 19.082031 10.859375 19.070312 10.851562 C 19.339844 10.371094 19.5625 9.863281 19.402344 9.253906 Z M 33.636719 12.382812 C 33.726562 12.402344 33.800781 12.421875 33.882812 12.429688 C 34.484375 12.492188 35.085938 12.449219 35.683594 12.390625 C 35.980469 12.363281 36.21875 12.21875 36.328125 11.921875 C 36.347656 11.875 36.367188 11.839844 36.394531 11.800781 C 36.578125 11.460938 36.625 11.089844 36.578125 10.710938 C 36.5625 10.546875 36.523438 10.378906 36.496094 10.203125 C 36.402344 9.726562 36.320312 9.246094 36.21875 8.765625 C 36.191406 8.644531 36.183594 8.515625 36.109375 8.433594 C 35.933594 8.238281 35.691406 8.128906 35.425781 8 C 35.488281 8.265625 35.535156 8.507812 35.589844 8.746094 C 35.664062 8.691406 35.730469 8.65625 35.792969 8.617188 C 35.878906 8.570312 35.933594 8.609375 35.925781 8.691406 C 35.90625 8.792969 35.867188 8.894531 35.8125 8.96875 C 35.65625 9.144531 35.445312 9.234375 35.222656 9.292969 C 34.992188 9.347656 34.769531 9.300781 34.566406 9.226562 C 34.253906 10.277344 33.949219 11.320312 33.636719 12.382812 Z M 26.546875 19.710938 C 26.539062 19.703125 26.527344 19.691406 26.519531 19.683594 C 26.464844 19.710938 26.417969 19.738281 26.363281 19.757812 C 26.261719 19.804688 26.160156 19.839844 26.066406 19.878906 C 25.949219 19.921875 25.828125 19.941406 25.714844 19.996094 C 25.457031 20.136719 25.199219 20.292969 24.941406 20.449219 C 24.683594 20.617188 24.414062 20.761719 24.109375 20.828125 C 23.917969 20.863281 23.824219 21.023438 23.722656 21.179688 C 23.660156 21.289062 23.59375 21.410156 23.539062 21.519531 C 23.519531 21.558594 23.492188 21.59375 23.5 21.628906 C 23.632812 22 23.769531 22.367188 23.90625 22.730469 C 24.066406 22.691406 24.195312 22.628906 24.339844 22.617188 C 24.730469 22.589844 25.109375 22.636719 25.46875 22.785156 C 26.039062 23.015625 26.648438 23.035156 27.238281 23.152344 C 27.304688 23.171875 27.386719 23.136719 27.453125 23.125 C 27.453125 23.105469 27.460938 23.089844 27.460938 23.078125 C 27.394531 23.035156 27.351562 22.96875 27.277344 22.941406 C 27.0625 22.847656 26.859375 22.757812 26.613281 22.832031 C 26.484375 22.867188 26.316406 22.820312 26.179688 22.785156 C 26.121094 22.765625 26.039062 22.671875 26.039062 22.617188 C 26.039062 22.527344 26.140625 22.5 26.222656 22.5 C 26.261719 22.5 26.308594 22.5 26.34375 22.507812 C 26.546875 22.5625 26.742188 22.535156 26.933594 22.46875 C 27.277344 22.359375 27.617188 22.265625 27.960938 22.15625 C 28.015625 22.136719 28.070312 22.101562 28.164062 22.054688 C 28.078125 22.027344 28.03125 22 27.988281 21.992188 C 27.65625 21.972656 27.332031 22.027344 27.027344 22.148438 C 26.796875 22.238281 26.574219 22.277344 26.335938 22.25 C 26.28125 22.238281 26.195312 22.183594 26.179688 22.136719 C 26.152344 22.054688 26.214844 21.992188 26.296875 21.960938 C 26.363281 21.933594 26.4375 21.90625 26.5 21.917969 C 26.84375 21.945312 27.109375 21.777344 27.394531 21.621094 C 27.628906 21.492188 27.867188 21.398438 28.097656 21.289062 C 28.179688 21.253906 28.292969 21.222656 28.347656 21.160156 C 28.402344 21.105469 28.410156 20.992188 28.410156 20.910156 C 28.410156 20.890625 28.28125 20.847656 28.226562 20.855469 C 27.914062 20.921875 27.597656 21.003906 27.285156 21.09375 C 27.175781 21.132812 27.074219 21.214844 26.972656 21.289062 C 26.878906 21.355469 26.796875 21.425781 26.703125 21.484375 C 26.574219 21.566406 26.4375 21.640625 26.308594 21.714844 C 26.25 21.75 26.195312 21.796875 26.132812 21.804688 C 26.066406 21.816406 26.003906 21.777344 25.929688 21.761719 C 25.949219 21.695312 25.949219 21.601562 25.984375 21.566406 C 26.058594 21.5 26.160156 21.464844 26.25 21.417969 C 26.390625 21.34375 26.566406 21.289062 26.667969 21.179688 C 26.933594 20.882812 27.230469 20.632812 27.542969 20.414062 C 27.597656 20.375 27.644531 20.3125 27.691406 20.253906 C 27.683594 20.238281 27.683594 20.226562 27.671875 20.210938 C 27.597656 20.210938 27.527344 20.199219 27.460938 20.210938 C 27.164062 20.238281 26.925781 20.367188 26.695312 20.542969 C 26.160156 20.949219 25.570312 21.152344 24.894531 21.078125 C 24.847656 21.066406 24.8125 21.039062 24.765625 21.023438 C 24.804688 20.976562 24.832031 20.910156 24.867188 20.902344 C 25.015625 20.847656 25.179688 20.808594 25.328125 20.761719 C 25.367188 20.753906 25.410156 20.734375 25.441406 20.71875 C 25.542969 20.644531 25.632812 20.570312 25.734375 20.484375 C 25.949219 20.300781 26.160156 20.117188 26.371094 19.921875 C 26.453125 19.878906 26.492188 19.785156 26.546875 19.710938 Z M 26.703125 7.28125 C 26.695312 7.289062 26.695312 7.296875 26.6875 7.308594 C 26.742188 7.390625 26.789062 7.464844 26.84375 7.546875 C 27.148438 8.035156 27.425781 8.542969 27.609375 9.097656 C 27.847656 9.835938 28.117188 10.574219 28.347656 11.3125 C 28.53125 11.914062 28.6875 12.53125 28.863281 13.148438 C 28.972656 13.128906 29.113281 13.101562 29.242188 13.085938 C 29.582031 13.027344 29.582031 13.027344 29.59375 12.6875 C 29.609375 11.96875 29.554688 11.246094 29.464844 10.527344 C 29.410156 10.09375 29.289062 9.679688 29.046875 9.300781 C 28.972656 9.191406 28.890625 9.152344 28.769531 9.171875 C 28.605469 9.199219 28.429688 9.207031 28.265625 9.21875 C 27.988281 9.234375 27.875 9.0625 28.003906 8.820312 C 28.050781 8.726562 28.105469 8.65625 28.164062 8.5625 C 28.234375 8.421875 28.308594 8.285156 28.375 8.136719 C 28.394531 8.089844 28.394531 8.007812 28.367188 7.972656 C 28.265625 7.824219 28.144531 7.695312 28.023438 7.554688 C 27.996094 7.527344 27.949219 7.5 27.914062 7.5 C 27.710938 7.464844 27.515625 7.445312 27.3125 7.410156 C 27.089844 7.363281 26.898438 7.316406 26.703125 7.28125 Z M 27.203125 8.886719 C 27.191406 9.246094 27.183594 9.585938 27.164062 9.929688 C 27.15625 10.046875 27.148438 10.175781 27.121094 10.296875 C 27.074219 10.519531 26.898438 10.621094 26.675781 10.554688 C 26.574219 10.527344 26.464844 10.480469 26.363281 10.453125 C 26.34375 10.601562 26.335938 10.742188 26.289062 10.878906 C 26.25 10.988281 26.261719 11.082031 26.316406 11.183594 C 26.601562 11.773438 26.878906 12.375 27.164062 12.972656 C 27.203125 13.058594 27.25 13.148438 27.292969 13.230469 C 27.3125 13.261719 27.351562 13.289062 27.378906 13.296875 C 27.746094 13.324219 28.117188 13.289062 28.496094 13.230469 C 28.375 11.671875 27.699219 10.304688 27.203125 8.886719 Z M 23.058594 11.054688 C 23.207031 11.082031 23.363281 11.101562 23.492188 11.15625 C 23.742188 11.257812 23.777344 11.394531 23.648438 11.636719 C 23.558594 11.800781 23.445312 11.949219 23.363281 12.117188 C 23.335938 12.171875 23.328125 12.261719 23.363281 12.308594 C 23.621094 12.714844 23.890625 13.113281 24.148438 13.519531 C 24.183594 13.582031 24.238281 13.59375 24.304688 13.5625 C 24.554688 13.480469 24.804688 13.398438 25.050781 13.324219 C 25.070312 13.316406 25.089844 13.296875 25.117188 13.289062 C 24.738281 12.207031 24.269531 11.164062 23.980469 10.074219 C 23.816406 10.132812 23.660156 10.175781 23.5 10.234375 C 23.472656 10.242188 23.457031 10.289062 23.4375 10.316406 C 23.398438 10.4375 23.382812 10.566406 23.316406 10.675781 C 23.261719 10.804688 23.152344 10.925781 23.058594 11.054688 Z M 24.570312 10.898438 C 24.683594 10.710938 24.773438 10.546875 24.886719 10.378906 C 25.171875 9.964844 25.789062 9.84375 26.207031 10.066406 C 26.371094 10.148438 26.539062 10.234375 26.714844 10.304688 C 26.851562 10.363281 26.917969 10.335938 26.933594 10.175781 C 26.953125 10.003906 26.972656 9.828125 26.960938 9.660156 C 26.933594 9.21875 26.917969 8.765625 26.859375 8.324219 C 26.84375 8.15625 26.730469 8.007812 26.65625 7.851562 C 26.648438 7.859375 26.640625 7.859375 26.628906 7.871094 C 26.628906 8.257812 26.5 8.617188 26.335938 8.949219 C 26.214844 9.199219 26.050781 9.421875 25.882812 9.652344 C 25.78125 9.800781 25.625 9.871094 25.449219 9.890625 C 25.097656 9.929688 24.746094 9.882812 24.425781 9.761719 C 24.3125 9.714844 24.285156 9.789062 24.230469 9.835938 C 24.167969 9.882812 24.195312 9.929688 24.222656 9.984375 C 24.296875 10.167969 24.378906 10.351562 24.453125 10.539062 C 24.480469 10.648438 24.515625 10.769531 24.570312 10.898438 Z M 27.007812 13.261719 C 26.980469 13.195312 26.972656 13.160156 26.953125 13.121094 C 26.777344 12.761719 26.601562 12.402344 26.425781 12.03125 C 26.296875 11.765625 26.167969 11.488281 26.058594 11.21875 C 26.019531 11.144531 26.003906 11.042969 26.019531 10.972656 C 26.058594 10.75 26.121094 10.539062 26.167969 10.316406 C 25.992188 10.203125 25.800781 10.101562 25.570312 10.203125 C 25.523438 10.222656 25.46875 10.242188 25.410156 10.242188 C 25.21875 10.25 25.136719 10.371094 25.078125 10.539062 C 25.109375 10.546875 25.136719 10.554688 25.164062 10.574219 C 25.410156 10.683594 25.613281 10.84375 25.671875 11.128906 C 25.746094 11.496094 25.816406 11.867188 25.875 12.234375 C 25.917969 12.523438 25.929688 12.808594 25.949219 13.066406 C 26.140625 13.140625 26.296875 13.203125 26.464844 13.261719 C 26.484375 13.269531 26.511719 13.277344 26.539062 13.277344 C 26.6875 13.261719 26.832031 13.261719 27.007812 13.261719 Z M 34.972656 7.242188 C 35.054688 7.714844 35.039062 7.90625 34.789062 8.230469 C 34.59375 8.46875 34.660156 8.746094 34.578125 9.015625 C 34.835938 9.050781 35.066406 9.0625 35.289062 8.949219 C 35.351562 8.914062 35.371094 8.875 35.359375 8.8125 C 35.332031 8.636719 35.324219 8.46875 35.296875 8.292969 C 35.269531 8.046875 35.1875 7.785156 35.390625 7.554688 C 35.398438 7.546875 35.398438 7.527344 35.398438 7.519531 C 35.453125 7.28125 35.507812 7.039062 35.554688 6.789062 C 35.574219 6.714844 35.5625 6.644531 35.554688 6.570312 C 35.546875 6.511719 35.519531 6.46875 35.433594 6.476562 C 35.230469 6.503906 35.027344 6.523438 34.824219 6.53125 C 34.640625 6.542969 34.492188 6.613281 34.363281 6.742188 C 34.261719 6.84375 34.160156 6.945312 34.058594 7.058594 C 34.03125 7.085938 34.023438 7.121094 34.003906 7.160156 C 34.050781 7.179688 34.097656 7.195312 34.132812 7.195312 C 34.171875 7.195312 34.207031 7.167969 34.253906 7.148438 C 34.382812 7.105469 34.511719 7.039062 34.640625 7.019531 C 34.808594 6.992188 34.984375 7.003906 35.148438 7.011719 C 35.1875 7.011719 35.222656 7.085938 35.257812 7.121094 C 35.222656 7.160156 35.195312 7.207031 35.148438 7.222656 C 35.101562 7.25 35.046875 7.242188 34.972656 7.242188 Z M 25.382812 13.195312 C 25.699219 13.167969 25.707031 13.160156 25.6875 12.890625 C 25.6875 12.871094 25.6875 12.855469 25.6875 12.84375 C 25.652344 12.234375 25.542969 11.625 25.394531 11.035156 C 25.382812 11 25.355469 10.941406 25.328125 10.925781 C 25.21875 10.859375 25.097656 10.804688 24.988281 10.742188 C 24.90625 10.859375 24.832031 10.988281 24.730469 11.089844 C 24.683594 11.144531 24.671875 11.175781 24.691406 11.238281 C 24.785156 11.515625 24.875 11.792969 24.976562 12.058594 C 25.109375 12.4375 25.246094 12.824219 25.382812 13.195312 Z M 23.878906 13.648438 C 23.796875 13.527344 23.722656 13.425781 23.660156 13.324219 C 23.472656 13.019531 23.296875 12.714844 23.125 12.402344 C 23.039062 12.261719 23.039062 12.105469 23.132812 11.96875 C 23.234375 11.820312 23.335938 11.671875 23.429688 11.523438 C 23.457031 11.488281 23.484375 11.449219 23.53125 11.378906 C 23.316406 11.359375 23.140625 11.347656 22.964844 11.332031 C 22.890625 11.320312 22.863281 11.347656 22.828125 11.40625 C 22.679688 11.691406 22.632812 11.996094 22.691406 12.300781 C 22.761719 12.652344 22.863281 13 22.964844 13.34375 C 22.984375 13.417969 23.050781 13.492188 23.105469 13.535156 C 23.335938 13.738281 23.59375 13.722656 23.878906 13.648438 Z M 35.304688 5.839844 C 35.09375 5.902344 34.871094 5.921875 34.695312 6.023438 C 34.429688 6.199219 34.1875 6.421875 33.949219 6.632812 C 33.867188 6.707031 33.902344 6.773438 34.003906 6.808594 C 34.085938 6.835938 34.125 6.78125 34.171875 6.742188 C 34.308594 6.632812 34.4375 6.503906 34.59375 6.429688 C 34.816406 6.328125 35.066406 6.28125 35.296875 6.21875 C 35.304688 6.105469 35.304688 5.988281 35.304688 5.839844 Z M 35.140625 5.285156 C 34.734375 5.386719 34.363281 5.441406 34.1875 5.859375 C 34.160156 5.933594 34.105469 5.988281 34.058594 6.050781 C 34.003906 6.125 33.949219 6.199219 33.894531 6.273438 C 33.902344 6.28125 33.910156 6.300781 33.921875 6.308594 C 33.96875 6.292969 34.011719 6.28125 34.050781 6.246094 C 34.28125 6.035156 34.511719 5.820312 34.824219 5.730469 C 34.910156 5.710938 35.019531 5.671875 35.054688 5.609375 C 35.113281 5.542969 35.113281 5.425781 35.140625 5.285156 Z M 34.273438 5.324219 C 34.519531 5.230469 34.78125 5.128906 35.039062 5.035156 C 35.066406 4.878906 34.984375 4.796875 34.816406 4.84375 C 34.660156 4.890625 34.511719 4.953125 34.363281 5.019531 C 34.261719 5.0625 34.226562 5.195312 34.273438 5.324219 Z M 33.332031 5.601562 C 33.257812 5.515625 33.191406 5.414062 33.101562 5.339844 C 33.0625 5.3125 32.96875 5.339844 32.914062 5.359375 C 32.898438 5.367188 32.871094 5.433594 32.878906 5.460938 C 32.933594 5.570312 33 5.683594 33.054688 5.792969 C 33.171875 5.71875 33.265625 5.65625 33.332031 5.601562 Z M 33.332031 5.601562 "/></g></g></svg>