<svg xmlns="http://www.w3.org/2000/svg" xmlns:xlink="http://www.w3.org/1999/xlink" width="70" zoomAndPan="magnify" viewBox="0 0 52.5 52.499999" height="70" preserveAspectRatio="xMidYMid meet" version="1.2"><defs><clipPath id="b1f16a4a64"><path d="M 6.664062 1.40625 L 45.296875 1.40625 L 45.296875 50.441406 L 6.664062 50.441406 Z M 6.664062 1.40625 "/></clipPath></defs><g id="61338d94a8"><g clip-rule="nonzero" clip-path="url(#b1f16a4a64)"><path style=" stroke:none;fill-rule:nonzero;fill:#01313d;fill-opacity:1;" d="M 11.511719 19.144531 C 11.292969 18.980469 11.046875 18.898438 10.804688 18.828125 C 10.449219 18.726562 10.09375 18.609375 9.710938 18.625 C 9.648438 18.625 9.585938 18.609375 9.53125 18.535156 C 9.675781 18.453125 9.820312 18.464844 9.964844 18.453125 C 10.546875 18.453125 11.003906 18.191406 11.410156 17.808594 C 11.839844 17.410156 12.148438 16.910156 12.441406 16.40625 C 12.722656 15.917969 12.96875 15.40625 13.148438 14.871094 C 13.167969 14.808594 13.195312 14.742188 13.230469 14.679688 C 13.304688 14.5625 13.402344 14.570312 13.496094 14.679688 C 13.621094 14.84375 13.648438 15.042969 13.695312 15.234375 C 13.792969 15.679688 13.957031 16.109375 14.140625 16.527344 C 14.160156 16.570312 14.175781 16.625 14.222656 16.652344 C 14.367188 16.554688 14.476562 16.417969 14.605469 16.300781 C 15.175781 15.789062 15.8125 15.371094 16.488281 14.988281 C 17.40625 14.472656 18.378906 14.054688 19.378906 13.714844 C 20.25 13.425781 21.140625 13.179688 22.050781 12.996094 C 22.1875 12.96875 22.25 12.96875 22.359375 12.898438 C 22.46875 12.824219 22.578125 12.625 22.660156 12.515625 C 22.914062 12.171875 23.226562 11.871094 23.5625 11.605469 C 23.835938 11.386719 24.144531 11.214844 24.496094 11.160156 C 24.617188 11.144531 24.734375 11.132812 24.851562 11.132812 C 25.144531 11.132812 25.433594 11.105469 25.726562 11.117188 C 25.742188 11.117188 25.796875 9.871094 25.769531 9.261719 C 25.742188 8.515625 25.734375 7.777344 25.742188 7.03125 C 25.742188 6.550781 25.761719 6.078125 25.789062 5.59375 C 25.816406 5.148438 25.835938 4.703125 25.851562 4.269531 C 25.878906 3.742188 25.917969 3.214844 25.953125 2.6875 C 25.972656 2.386719 26.027344 2.058594 26.042969 1.96875 C 26.0625 1.875 26.117188 1.578125 26.152344 1.457031 C 26.152344 1.429688 26.289062 1.421875 26.324219 1.421875 C 26.363281 1.421875 26.570312 1.457031 26.582031 1.484375 C 26.679688 1.96875 26.625 2.421875 26.589844 2.921875 C 26.554688 3.347656 26.542969 3.777344 26.515625 4.203125 C 26.480469 4.769531 26.425781 5.332031 26.390625 5.886719 C 26.34375 6.542969 26.289062 7.195312 26.269531 7.851562 C 26.261719 8.296875 26.269531 8.742188 26.234375 9.1875 C 26.207031 9.667969 26.160156 10.953125 26.152344 11.117188 C 26.335938 11.125 26.535156 11.125 26.742188 11.152344 C 27.097656 11.199219 27.453125 11.152344 27.800781 11.207031 C 27.933594 11.234375 28.082031 11.261719 28.21875 11.289062 C 28.554688 11.359375 28.828125 11.523438 29.054688 11.789062 C 29.273438 12.042969 29.519531 12.261719 29.679688 12.5625 C 29.71875 12.625 29.753906 12.6875 29.746094 12.769531 C 29.734375 12.851562 29.761719 12.878906 29.84375 12.898438 C 30.382812 13.007812 30.882812 13.1875 31.390625 13.398438 C 31.589844 13.480469 31.808594 13.515625 32.019531 13.570312 C 32.738281 13.761719 33.417969 14.0625 34.089844 14.363281 C 35.792969 15.125 37.320312 16.164062 38.710938 17.398438 C 40.175781 18.699219 41.421875 20.171875 42.414062 21.855469 C 43.203125 23.199219 43.847656 24.601562 44.257812 26.109375 C 44.339844 26.402344 44.402344 26.691406 44.457031 26.992188 C 44.511719 27.320312 44.621094 27.628906 44.667969 27.964844 C 44.714844 28.300781 44.757812 28.640625 44.796875 28.984375 C 44.859375 29.546875 44.902344 30.113281 44.921875 30.667969 C 44.941406 31.238281 44.949219 31.820312 44.914062 32.394531 C 44.894531 32.660156 44.886719 32.929688 44.867188 33.195312 C 44.785156 34.242188 44.640625 35.277344 44.394531 36.296875 C 44.085938 37.578125 43.695312 38.824219 43.148438 40.023438 C 43.058594 40.222656 42.96875 40.433594 42.867188 40.625 C 42.832031 40.6875 42.847656 40.726562 42.902344 40.761719 C 43.402344 41.125 43.957031 41.34375 44.578125 41.40625 C 44.75 41.425781 44.914062 41.441406 45.078125 41.496094 C 45.113281 41.507812 45.140625 41.515625 45.167969 41.535156 C 45.214844 41.570312 45.203125 41.617188 45.148438 41.644531 C 45.121094 41.652344 45.085938 41.660156 45.050781 41.671875 C 44.085938 41.90625 43.238281 42.351562 42.503906 43.015625 C 41.847656 43.617188 41.339844 44.316406 41.058594 45.164062 C 40.949219 45.480469 40.804688 45.78125 40.722656 46.109375 C 40.722656 46.136719 40.695312 46.164062 40.667969 46.164062 C 40.621094 46.164062 40.621094 46.125 40.613281 46.089844 C 40.585938 46.007812 40.59375 45.917969 40.59375 45.835938 C 40.59375 45.398438 40.347656 44.691406 40.066406 44.34375 C 39.964844 44.453125 39.875 44.5625 39.773438 44.671875 C 39.546875 44.933594 39.273438 45.164062 39.039062 45.40625 C 38.539062 45.90625 37.949219 46.289062 37.394531 46.71875 C 35.972656 47.828125 34.382812 48.609375 32.71875 49.246094 C 31.738281 49.617188 30.71875 49.84375 29.691406 50.035156 C 28.84375 50.191406 28 50.292969 27.152344 50.375 C 26.761719 50.410156 26.371094 50.425781 25.972656 50.425781 C 25.554688 50.425781 25.132812 50.363281 24.707031 50.335938 C 23.097656 50.226562 21.570312 49.773438 20.042969 49.300781 C 19.941406 49.273438 19.851562 49.238281 19.75 49.199219 C 19.6875 49.183594 19.632812 49.136719 19.570312 49.21875 C 19.53125 49.261719 19.421875 49.238281 19.394531 49.164062 C 19.359375 49.054688 19.269531 49.027344 19.179688 48.992188 C 18.140625 48.609375 17.175781 48.074219 16.230469 47.507812 C 15.824219 47.261719 15.414062 47.007812 15.023438 46.726562 C 14.941406 46.664062 14.832031 46.679688 14.757812 46.636719 C 14.6875 46.589844 14.6875 46.480469 14.605469 46.425781 C 13.976562 45.960938 13.402344 45.433594 12.847656 44.898438 C 12.441406 44.507812 12.039062 44.109375 11.648438 43.699219 C 10.992188 43.007812 10.394531 42.28125 9.902344 41.46875 C 9.683594 41.117188 9.429688 40.796875 9.21875 40.441406 C 8.511719 39.289062 7.984375 38.050781 7.582031 36.761719 C 7.300781 35.867188 7.121094 34.949219 6.957031 34.03125 C 6.855469 33.449219 6.765625 32.859375 6.730469 32.265625 C 6.703125 31.820312 6.664062 31.367188 6.703125 30.914062 C 6.730469 30.601562 6.730469 30.285156 6.746094 29.976562 C 6.800781 29.25 6.890625 28.53125 7.027344 27.8125 C 7.273438 26.53125 7.636719 25.273438 8.148438 24.066406 C 8.246094 23.820312 8.355469 23.582031 8.492188 23.355469 C 8.792969 22.847656 9.019531 22.300781 9.328125 21.800781 C 9.828125 21 10.367188 20.226562 11.003906 19.535156 C 11.148438 19.371094 11.304688 19.226562 11.476562 19.082031 Z M 34.992188 32.820312 C 35.046875 32.875 35.054688 32.929688 35.054688 32.976562 C 35.101562 33.566406 35.148438 34.160156 35.191406 34.75 C 35.203125 34.894531 35.191406 34.90625 35.347656 34.894531 C 35.628906 34.894531 35.917969 34.878906 36.203125 34.859375 C 36.683594 34.832031 37.15625 34.796875 37.636719 34.757812 C 38.175781 34.722656 38.703125 34.675781 39.238281 34.621094 C 39.3125 34.621094 39.339844 34.605469 39.347656 34.523438 C 39.347656 34.421875 39.367188 34.332031 39.375 34.230469 C 39.402344 33.894531 39.421875 33.550781 39.457031 33.214844 C 39.503906 32.796875 39.519531 32.386719 39.539062 31.96875 C 39.566406 31.558594 39.574219 31.148438 39.585938 30.738281 C 39.59375 30.074219 39.59375 29.410156 39.585938 28.75 C 39.585938 28.667969 39.546875 28.640625 39.476562 28.628906 C 39.367188 28.628906 39.246094 28.601562 39.140625 28.59375 C 38.65625 28.539062 38.175781 28.484375 37.691406 28.449219 C 37.191406 28.402344 36.691406 28.375 36.191406 28.328125 C 35.929688 28.3125 35.65625 28.292969 35.390625 28.273438 C 35.320312 28.273438 35.273438 28.285156 35.265625 28.375 C 35.265625 28.476562 35.253906 28.566406 35.238281 28.667969 C 35.191406 29.046875 35.148438 29.421875 35.101562 29.804688 C 35.101562 29.839844 35.101562 29.886719 35.039062 29.886719 C 35.011719 29.839844 35 29.792969 34.992188 29.738281 C 34.9375 29.285156 34.875 28.820312 34.820312 28.367188 C 34.808594 28.273438 34.78125 28.238281 34.691406 28.238281 C 34.320312 28.222656 33.957031 28.195312 33.582031 28.167969 C 33.144531 28.140625 32.710938 28.101562 32.273438 28.074219 C 31.855469 28.046875 31.425781 28.019531 31.007812 27.992188 C 30.65625 27.976562 30.289062 27.957031 29.9375 27.9375 C 29.910156 27.964844 29.910156 27.992188 29.910156 28.019531 C 29.910156 28.183594 29.917969 28.355469 29.910156 28.519531 C 29.871094 28.949219 29.890625 29.375 29.855469 29.804688 C 29.828125 30.113281 29.828125 30.429688 29.78125 30.738281 C 29.78125 30.777344 29.78125 30.8125 29.734375 30.8125 C 29.699219 30.8125 29.671875 30.792969 29.652344 30.765625 C 29.609375 30.703125 29.617188 30.621094 29.617188 30.546875 C 29.617188 29.777344 29.617188 29.003906 29.609375 28.238281 C 29.609375 28.167969 29.597656 28.101562 29.589844 28.039062 C 29.589844 27.949219 29.535156 27.929688 29.453125 27.929688 C 29.035156 27.929688 28.609375 27.902344 28.191406 27.894531 C 27.507812 27.882812 26.816406 27.875 26.136719 27.875 C 25.445312 27.875 24.753906 27.882812 24.0625 27.894531 C 23.625 27.894531 23.179688 27.902344 22.742188 27.910156 C 22.6875 27.910156 22.632812 27.921875 22.570312 27.929688 C 22.507812 27.929688 22.480469 27.964844 22.480469 28.03125 C 22.480469 28.195312 22.453125 28.355469 22.453125 28.519531 C 22.433594 28.910156 22.433594 29.292969 22.425781 29.683594 C 22.398438 30.546875 22.414062 31.414062 22.386719 32.265625 C 22.371094 32.949219 22.386719 33.640625 22.351562 34.324219 C 22.351562 34.460938 22.351562 34.59375 22.351562 34.730469 C 22.351562 34.824219 22.386719 34.851562 22.46875 34.851562 C 22.5625 34.851562 22.652344 34.851562 22.742188 34.851562 C 23.34375 34.867188 23.941406 34.894531 24.535156 34.914062 C 25.023438 34.933594 25.515625 34.933594 26.007812 34.949219 C 26.28125 34.960938 26.542969 34.949219 26.816406 34.96875 C 27.644531 34.996094 28.472656 35.003906 29.300781 34.996094 C 29.425781 34.996094 29.417969 34.996094 29.4375 34.859375 C 29.507812 34.105469 29.582031 33.339844 29.652344 32.585938 C 29.652344 32.503906 29.652344 32.402344 29.71875 32.320312 C 29.761719 32.402344 29.773438 32.476562 29.773438 32.550781 C 29.773438 32.8125 29.789062 33.085938 29.808594 33.351562 C 29.835938 33.839844 29.84375 34.339844 29.855469 34.839844 C 29.855469 35.015625 29.855469 35.003906 30.027344 35.003906 C 30.027344 35.003906 30.035156 35.003906 30.046875 35.003906 C 30.972656 35.003906 31.910156 35.003906 32.835938 34.976562 C 33.390625 34.960938 33.957031 34.941406 34.511719 34.941406 C 34.546875 34.941406 34.59375 34.941406 34.628906 34.941406 C 34.710938 34.941406 34.746094 34.894531 34.753906 34.8125 C 34.808594 34.222656 34.875 33.632812 34.929688 33.050781 C 34.929688 32.984375 34.945312 32.914062 34.984375 32.839844 Z M 14.484375 45.90625 C 14.484375 45.851562 14.476562 45.835938 14.46875 45.808594 C 14.222656 45.070312 14.003906 44.316406 13.820312 43.554688 C 13.804688 43.480469 13.765625 43.453125 13.703125 43.425781 C 13.386719 43.289062 13.058594 43.160156 12.738281 43.023438 C 12.710938 43.015625 12.675781 43 12.648438 42.988281 C 12.628906 42.988281 12.621094 42.972656 12.621094 42.953125 C 12.621094 42.925781 12.648438 42.917969 12.667969 42.917969 C 12.738281 42.925781 12.8125 42.945312 12.886719 42.960938 C 13.15625 43.023438 13.421875 43.089844 13.683594 43.152344 C 13.710938 43.097656 13.695312 43.0625 13.683594 43.023438 C 13.484375 42.144531 13.277344 41.261719 13.121094 40.371094 C 13.101562 40.25 13.050781 40.214844 12.941406 40.179688 C 12.46875 40.035156 12.003906 39.886719 11.539062 39.742188 C 11.503906 39.734375 11.449219 39.722656 11.429688 39.679688 C 11.464844 39.625 11.519531 39.652344 11.566406 39.652344 C 11.886719 39.6875 12.203125 39.734375 12.511719 39.769531 C 12.675781 39.789062 12.839844 39.832031 13.011719 39.804688 C 12.929688 39.304688 12.867188 38.804688 12.820312 38.304688 C 12.777344 37.816406 12.757812 37.316406 12.75 36.824219 C 12.75 36.332031 12.75 35.832031 12.792969 35.304688 C 12.867188 35.414062 12.867188 35.496094 12.875 35.578125 C 12.941406 36.003906 13.003906 36.433594 13.078125 36.859375 C 13.15625 37.40625 13.238281 37.949219 13.285156 38.503906 C 13.320312 38.925781 13.375 39.34375 13.421875 39.761719 C 13.429688 39.859375 13.476562 39.898438 13.566406 39.90625 C 13.722656 39.925781 13.875 39.941406 14.023438 39.96875 C 14.804688 40.105469 15.59375 40.242188 16.378906 40.378906 C 16.585938 40.414062 16.804688 40.441406 17.023438 40.480469 C 17.113281 40.488281 17.121094 40.480469 17.113281 40.386719 C 17.113281 40.371094 17.105469 40.34375 17.09375 40.324219 C 17.058594 40.070312 17.015625 39.804688 16.988281 39.542969 C 16.960938 39.152344 16.96875 38.75 16.988281 38.359375 C 16.988281 38.324219 16.988281 38.277344 17.023438 38.25 C 17.085938 38.277344 17.085938 38.34375 17.09375 38.398438 C 17.1875 38.6875 17.269531 38.980469 17.351562 39.269531 C 17.460938 39.652344 17.515625 40.050781 17.578125 40.441406 C 17.597656 40.535156 17.625 40.5625 17.714844 40.578125 C 18.277344 40.652344 18.839844 40.714844 19.414062 40.761719 C 19.90625 40.804688 20.386719 40.832031 20.878906 40.871094 C 21.261719 40.898438 21.640625 40.914062 22.023438 40.925781 C 22.195312 40.925781 22.195312 40.933594 22.214844 40.769531 C 22.214844 40.769531 22.234375 40.761719 22.242188 40.75 C 22.269531 40.75 22.277344 40.777344 22.277344 40.796875 C 22.316406 40.960938 22.332031 40.933594 22.460938 40.933594 C 22.859375 40.941406 23.261719 40.960938 23.660156 40.96875 C 24.953125 40.96875 26.242188 40.988281 27.535156 40.925781 C 28 40.898438 28.472656 40.878906 28.9375 40.851562 C 29.007812 40.851562 29.035156 40.816406 29.035156 40.75 C 29.054688 40.460938 29.082031 40.167969 29.097656 39.878906 C 29.117188 39.578125 29.125 39.289062 29.144531 38.988281 C 29.171875 38.515625 29.207031 38.042969 29.234375 37.570312 C 29.253906 37.289062 29.261719 36.996094 29.28125 36.714844 C 29.300781 36.351562 29.316406 35.988281 29.34375 35.625 C 29.355469 35.476562 29.316406 35.496094 29.21875 35.496094 C 29.042969 35.496094 28.871094 35.503906 28.707031 35.515625 C 27.570312 35.515625 26.433594 35.496094 25.296875 35.476562 C 24.796875 35.476562 24.308594 35.476562 23.808594 35.449219 C 23.488281 35.441406 23.171875 35.449219 22.851562 35.421875 C 22.707031 35.40625 22.550781 35.421875 22.40625 35.421875 C 22.351562 35.421875 22.324219 35.441406 22.324219 35.503906 C 22.324219 35.695312 22.304688 35.878906 22.304688 36.070312 C 22.296875 36.476562 22.289062 36.886719 22.269531 37.304688 C 22.25 37.914062 22.25 38.523438 22.234375 39.132812 C 22.234375 39.269531 22.195312 39.40625 22.234375 39.542969 C 22.242188 39.589844 22.207031 39.632812 22.152344 39.632812 C 22.089844 39.632812 22.078125 39.597656 22.078125 39.542969 C 22.078125 39.515625 22.078125 39.488281 22.078125 39.460938 C 22.078125 39.316406 22.078125 39.160156 22.078125 39.015625 C 22.042969 38.542969 22.042969 38.070312 22.023438 37.597656 C 21.996094 36.914062 21.996094 36.222656 21.988281 35.542969 C 21.988281 35.53125 21.988281 35.515625 21.988281 35.503906 C 21.988281 35.433594 21.953125 35.40625 21.886719 35.40625 C 21.714844 35.40625 21.542969 35.386719 21.378906 35.386719 C 20.988281 35.386719 20.605469 35.367188 20.214844 35.351562 C 19.769531 35.332031 19.316406 35.304688 18.867188 35.285156 C 18.585938 35.269531 18.296875 35.257812 18.015625 35.242188 C 17.570312 35.214844 17.132812 35.1875 16.695312 35.160156 C 16.667969 35.203125 16.675781 35.242188 16.6875 35.285156 C 16.742188 35.742188 16.785156 36.1875 16.839844 36.640625 C 16.851562 36.742188 16.851562 36.851562 16.839844 36.949219 C 16.839844 36.988281 16.8125 37.03125 16.769531 37.023438 C 16.722656 37.023438 16.695312 36.996094 16.695312 36.941406 C 16.695312 36.90625 16.695312 36.867188 16.695312 36.839844 C 16.695312 36.75 16.6875 36.660156 16.667969 36.570312 C 16.605469 36.132812 16.539062 35.703125 16.488281 35.269531 C 16.476562 35.167969 16.441406 35.140625 16.339844 35.132812 C 15.757812 35.085938 15.1875 35.03125 14.605469 34.96875 C 13.8125 34.886719 13.03125 34.785156 12.25 34.667969 C 11.574219 34.558594 10.910156 34.460938 10.25 34.296875 C 9.992188 34.230469 9.730469 34.160156 9.476562 34.09375 C 9.449219 34.132812 9.457031 34.167969 9.457031 34.203125 C 9.503906 34.632812 9.539062 35.050781 9.585938 35.476562 C 9.648438 36.085938 9.738281 36.695312 9.839844 37.304688 C 10.003906 38.242188 10.195312 39.179688 10.410156 40.097656 C 10.601562 40.898438 10.792969 41.707031 11.066406 42.488281 C 11.09375 42.570312 11.128906 42.644531 11.183594 42.714844 C 11.449219 43.023438 11.710938 43.324219 12.003906 43.617188 C 12.574219 44.207031 13.15625 44.789062 13.765625 45.335938 C 13.984375 45.535156 14.214844 45.726562 14.476562 45.925781 Z M 16.742188 27.394531 C 16.867188 27.394531 16.976562 27.394531 17.085938 27.394531 C 17.75 27.355469 18.421875 27.3125 19.085938 27.292969 C 19.789062 27.273438 20.488281 27.238281 21.195312 27.238281 C 21.433594 27.238281 21.679688 27.21875 21.914062 27.21875 C 21.996094 27.21875 22.042969 27.203125 22.042969 27.113281 C 22.042969 26.765625 22.078125 26.421875 22.105469 26.074219 C 22.144531 25.527344 22.1875 24.984375 22.242188 24.4375 C 22.296875 23.902344 22.34375 23.375 22.414062 22.847656 C 22.425781 22.753906 22.398438 22.71875 22.304688 22.71875 C 22.144531 22.699219 21.980469 22.683594 21.816406 22.65625 C 21.769531 22.65625 21.695312 22.65625 21.6875 22.601562 C 21.6875 22.539062 21.75 22.539062 21.804688 22.527344 C 21.96875 22.492188 22.132812 22.457031 22.289062 22.429688 C 22.453125 22.390625 22.460938 22.402344 22.480469 22.226562 C 22.507812 22 22.523438 21.773438 22.550781 21.546875 C 22.617188 21.046875 22.671875 20.554688 22.734375 20.054688 C 22.816406 19.445312 22.886719 18.835938 22.980469 18.226562 C 22.988281 18.144531 22.980469 18.125 22.898438 18.125 C 22.460938 18.164062 22.023438 18.191406 21.589844 18.21875 C 21.152344 18.246094 20.714844 18.300781 20.269531 18.289062 C 19.941406 18.289062 19.625 18.273438 19.296875 18.253906 C 19.058594 18.246094 18.832031 18.226562 18.597656 18.207031 C 18.550781 18.207031 18.46875 18.226562 18.46875 18.164062 C 18.46875 18.097656 18.542969 18.097656 18.585938 18.089844 C 18.988281 17.980469 19.394531 17.882812 19.796875 17.773438 C 20.214844 17.664062 20.632812 17.582031 21.058594 17.554688 C 21.695312 17.507812 22.332031 17.445312 22.96875 17.4375 C 23.097656 17.4375 23.097656 17.425781 23.117188 17.300781 C 23.226562 16.597656 23.34375 15.898438 23.46875 15.199219 C 23.488281 15.082031 23.480469 15.070312 23.359375 15.082031 C 22.789062 15.125 22.214844 15.199219 21.652344 15.289062 C 20.777344 15.433594 19.914062 15.625 19.070312 15.863281 C 18.996094 15.878906 18.949219 15.917969 18.933594 15.988281 C 18.90625 16.089844 18.867188 16.199219 18.839844 16.300781 C 18.542969 17.28125 18.324219 18.28125 18.085938 19.28125 C 18.003906 19.644531 17.914062 20 17.859375 20.371094 C 17.859375 20.417969 17.824219 20.472656 17.894531 20.5 C 17.976562 20.535156 18.003906 20.609375 18.023438 20.691406 C 18.097656 20.925781 18.160156 21.164062 18.25 21.390625 C 18.433594 21.835938 18.714844 22.171875 19.207031 22.292969 C 19.351562 22.328125 19.488281 22.402344 19.613281 22.5 C 19.660156 22.539062 19.667969 22.574219 19.613281 22.609375 C 19.542969 22.65625 19.46875 22.699219 19.386719 22.726562 C 18.894531 22.890625 18.488281 23.183594 18.167969 23.574219 C 17.914062 23.890625 17.714844 24.238281 17.640625 24.65625 C 17.625 24.746094 17.632812 24.839844 17.597656 24.917969 C 17.570312 24.992188 17.523438 25.011719 17.46875 24.964844 C 17.386719 24.890625 17.324219 24.820312 17.332031 24.703125 C 17.332031 24.65625 17.332031 24.609375 17.3125 24.574219 C 17.269531 24.472656 17.25 24.363281 17.214844 24.265625 C 17.195312 24.191406 17.175781 24.121094 17.105469 24.027344 C 16.976562 25.164062 16.832031 26.273438 16.75 27.382812 Z M 17.230469 18.417969 C 16.960938 18.625 16.730469 18.816406 16.449219 18.925781 C 16.023438 19.089844 15.621094 19.300781 15.257812 19.589844 C 14.730469 20.019531 14.285156 20.519531 13.914062 21.089844 C 13.640625 21.5 13.375 21.910156 13.3125 22.417969 C 13.265625 22.765625 13.203125 23.109375 13.140625 23.464844 C 13.167969 23.464844 13.175781 23.472656 13.195312 23.472656 C 13.59375 23.410156 13.996094 23.390625 14.402344 23.375 C 14.632812 23.375 14.859375 23.320312 15.085938 23.335938 C 15.25 23.347656 15.402344 23.355469 15.585938 23.445312 C 15.367188 23.546875 15.167969 23.621094 14.957031 23.636719 C 14.359375 23.691406 13.765625 23.78125 13.175781 23.855469 C 13.078125 23.863281 13.039062 23.902344 13.03125 24 C 12.941406 24.566406 12.859375 25.128906 12.792969 25.691406 C 12.722656 26.339844 12.695312 26.984375 12.648438 27.640625 C 12.648438 27.773438 12.648438 27.765625 12.777344 27.757812 C 13.203125 27.710938 13.640625 27.648438 14.066406 27.613281 C 14.714844 27.558594 15.351562 27.511719 15.996094 27.457031 C 16.113281 27.457031 16.269531 27.492188 16.339844 27.402344 C 16.414062 27.320312 16.378906 27.175781 16.386719 27.058594 C 16.441406 26.394531 16.503906 25.730469 16.59375 25.074219 C 16.648438 24.664062 16.695312 24.246094 16.804688 23.847656 C 16.851562 23.683594 16.804688 23.582031 16.6875 23.472656 C 16.394531 23.199219 16.078125 22.992188 15.703125 22.875 C 15.632812 22.847656 15.578125 22.808594 15.523438 22.746094 C 15.496094 22.710938 15.503906 22.683594 15.550781 22.671875 C 15.585938 22.671875 15.621094 22.671875 15.648438 22.671875 C 15.886719 22.65625 16.121094 22.609375 16.332031 22.472656 C 16.488281 22.363281 16.613281 22.226562 16.742188 22.082031 C 17.066406 21.691406 17.332031 21.253906 17.542969 20.792969 C 17.585938 20.691406 17.675781 20.617188 17.714844 20.519531 C 17.742188 20.417969 17.722656 20.300781 17.730469 20.191406 C 17.777344 19.738281 17.851562 19.273438 17.921875 18.816406 C 18.042969 18.027344 18.1875 17.234375 18.394531 16.453125 C 18.433594 16.316406 18.46875 16.179688 18.496094 16.042969 C 18.421875 16.027344 18.378906 16.042969 18.332031 16.054688 C 17.675781 16.199219 17.023438 16.28125 16.359375 16.378906 C 16.3125 16.378906 16.257812 16.417969 16.242188 16.363281 C 16.222656 16.308594 16.285156 16.300781 16.324219 16.273438 C 16.332031 16.273438 16.339844 16.261719 16.351562 16.253906 C 17.113281 15.878906 17.859375 15.460938 18.679688 15.226562 C 18.734375 15.207031 18.769531 15.191406 18.785156 15.136719 C 18.867188 14.871094 18.949219 14.609375 19.015625 14.335938 C 18.949219 14.316406 18.90625 14.34375 18.859375 14.363281 C 18.625 14.453125 18.378906 14.542969 18.140625 14.636719 C 16.804688 15.179688 15.558594 15.871094 14.429688 16.773438 C 14.320312 16.863281 14.320312 16.863281 14.402344 16.972656 C 14.785156 17.480469 15.269531 17.882812 15.859375 18.136719 C 16.023438 18.207031 16.1875 18.226562 16.359375 18.234375 C 16.433594 18.234375 16.503906 18.234375 16.578125 18.234375 C 16.796875 18.253906 17.003906 18.300781 17.230469 18.410156 Z M 12.195312 28.65625 C 12.101562 28.65625 12.039062 28.65625 11.976562 28.667969 C 11.339844 28.757812 10.703125 28.792969 10.066406 28.820312 C 9.847656 28.828125 9.628906 28.847656 9.421875 28.855469 C 9.339844 28.855469 9.292969 28.882812 9.292969 28.976562 C 9.292969 29.339844 9.265625 29.695312 9.265625 30.058594 C 9.265625 30.386719 9.265625 30.710938 9.285156 31.03125 C 9.300781 31.339844 9.300781 31.648438 9.320312 31.957031 C 9.347656 32.449219 9.382812 32.941406 9.402344 33.421875 C 9.402344 33.585938 9.429688 33.605469 9.59375 33.621094 C 10.167969 33.660156 10.738281 33.742188 11.304688 33.832031 C 12.914062 34.113281 14.53125 34.3125 16.148438 34.460938 C 16.460938 34.488281 16.40625 34.488281 16.378906 34.230469 C 16.3125 33.566406 16.285156 32.902344 16.257812 32.238281 C 16.230469 31.359375 16.25 30.484375 16.257812 29.601562 C 16.257812 29.558594 16.257812 29.511719 16.257812 29.464844 C 16.285156 29.09375 16.269531 28.710938 16.304688 28.339844 C 16.3125 28.238281 16.285156 28.222656 16.1875 28.230469 C 15.96875 28.25 15.742188 28.257812 15.523438 28.285156 C 14.839844 28.347656 14.148438 28.421875 13.46875 28.484375 C 13.210938 28.511719 12.957031 28.546875 12.703125 28.574219 C 12.621094 28.574219 12.585938 28.613281 12.585938 28.703125 C 12.585938 28.804688 12.585938 28.910156 12.574219 29.011719 C 12.539062 29.503906 12.523438 30.003906 12.523438 30.503906 C 12.523438 30.640625 12.523438 30.777344 12.523438 30.914062 C 12.523438 31.429688 12.511719 31.949219 12.546875 32.46875 C 12.574219 32.804688 12.523438 33.140625 12.558594 33.476562 C 12.558594 33.511719 12.546875 33.53125 12.511719 33.53125 C 12.496094 33.53125 12.46875 33.523438 12.457031 33.496094 C 12.441406 33.429688 12.429688 33.359375 12.421875 33.296875 C 12.367188 32.886719 12.347656 32.46875 12.3125 32.050781 C 12.265625 31.496094 12.238281 30.949219 12.222656 30.394531 C 12.203125 29.914062 12.210938 29.429688 12.203125 28.957031 C 12.203125 28.855469 12.203125 28.765625 12.203125 28.65625 Z M 16.558594 32.160156 C 16.578125 32.621094 16.539062 33.085938 16.578125 33.539062 C 16.59375 33.824219 16.59375 34.113281 16.613281 34.394531 C 16.613281 34.476562 16.640625 34.511719 16.730469 34.511719 C 16.90625 34.511719 17.078125 34.53125 17.242188 34.550781 C 17.804688 34.605469 18.367188 34.632812 18.933594 34.667969 C 19.277344 34.6875 19.613281 34.695312 19.960938 34.722656 C 20.605469 34.769531 21.261719 34.777344 21.90625 34.8125 C 21.988281 34.8125 22.007812 34.777344 21.996094 34.714844 C 21.996094 34.585938 21.980469 34.460938 21.980469 34.339844 C 21.980469 33.449219 21.960938 32.558594 21.941406 31.667969 C 21.933594 30.820312 21.941406 29.976562 21.941406 29.128906 C 21.941406 29.066406 21.941406 29.003906 21.941406 28.9375 C 21.980469 28.640625 21.953125 28.347656 21.96875 28.046875 C 21.96875 27.929688 21.96875 27.921875 21.851562 27.921875 C 21.597656 27.921875 21.351562 27.929688 21.097656 27.9375 C 20.789062 27.949219 20.46875 27.964844 20.160156 27.976562 C 19.742188 27.992188 19.316406 28.019531 18.894531 28.039062 C 18.570312 28.058594 18.230469 28.074219 17.90625 28.09375 C 17.597656 28.113281 17.285156 28.128906 16.988281 28.15625 C 16.621094 28.195312 16.703125 28.113281 16.667969 28.484375 C 16.640625 28.777344 16.640625 29.066406 16.621094 29.359375 C 16.605469 29.914062 16.578125 30.476562 16.558594 31.03125 C 16.550781 31.402344 16.558594 31.777344 16.558594 32.140625 Z M 22.535156 27.203125 C 22.597656 27.230469 22.644531 27.21875 22.6875 27.21875 C 23.523438 27.21875 24.351562 27.21875 25.1875 27.21875 C 25.578125 27.21875 25.960938 27.230469 26.351562 27.238281 C 27.042969 27.257812 27.746094 27.285156 28.433594 27.300781 C 28.734375 27.3125 29.035156 27.328125 29.34375 27.347656 C 29.398438 27.347656 29.445312 27.347656 29.5 27.347656 C 29.554688 27.347656 29.582031 27.320312 29.582031 27.265625 C 29.582031 27.164062 29.5625 27.074219 29.5625 26.976562 C 29.5625 26.539062 29.519531 26.109375 29.480469 25.675781 C 29.445312 25.183594 29.390625 24.703125 29.34375 24.210938 C 29.308594 23.855469 29.28125 23.5 29.246094 23.136719 C 29.246094 23.066406 29.226562 23.019531 29.136719 23.019531 C 28.917969 23.019531 28.691406 22.992188 28.472656 22.984375 C 28.171875 22.972656 27.871094 22.957031 27.5625 22.945312 C 26.972656 22.929688 26.390625 22.890625 25.796875 22.882812 C 25.207031 22.875 24.605469 22.875 24.015625 22.863281 C 23.96875 22.863281 23.925781 22.863281 23.878906 22.855469 C 23.597656 22.847656 23.324219 22.820312 23.042969 22.78125 C 22.96875 22.773438 22.925781 22.800781 22.925781 22.882812 C 22.914062 23.011719 22.898438 23.148438 22.878906 23.273438 C 22.832031 23.71875 22.789062 24.164062 22.734375 24.609375 C 22.671875 25.183594 22.625 25.757812 22.578125 26.328125 C 22.550781 26.609375 22.542969 26.894531 22.515625 27.183594 Z M 34.464844 35.339844 C 34.328125 35.339844 34.21875 35.351562 34.101562 35.359375 C 33.5 35.386719 32.902344 35.414062 32.308594 35.433594 C 31.753906 35.449219 31.191406 35.449219 30.636719 35.46875 C 30.417969 35.46875 30.199219 35.488281 29.980469 35.476562 C 29.890625 35.476562 29.863281 35.503906 29.863281 35.597656 C 29.863281 36.042969 29.863281 36.488281 29.828125 36.933594 C 29.808594 37.269531 29.800781 37.605469 29.78125 37.941406 C 29.753906 38.378906 29.726562 38.816406 29.691406 39.25 C 29.671875 39.523438 29.644531 39.796875 29.625 40.070312 C 29.609375 40.269531 29.597656 40.480469 29.582031 40.679688 C 29.582031 40.75 29.597656 40.789062 29.671875 40.777344 C 29.699219 40.777344 29.726562 40.777344 29.753906 40.777344 C 30.125 40.75 30.492188 40.714844 30.863281 40.679688 C 31.398438 40.625 31.9375 40.578125 32.480469 40.515625 C 33.0625 40.453125 33.644531 40.371094 34.226562 40.277344 C 34.308594 40.269531 34.355469 40.242188 34.363281 40.144531 C 34.402344 39.734375 34.445312 39.324219 34.484375 38.925781 C 34.539062 38.34375 34.582031 37.769531 34.621094 37.1875 C 34.65625 36.660156 34.683594 36.132812 34.699219 35.597656 C 34.699219 35.515625 34.773438 35.414062 34.699219 35.351562 C 34.636719 35.285156 34.539062 35.351562 34.472656 35.351562 Z M 25.398438 18.0625 C 24.835938 18.042969 24.269531 18.0625 23.707031 18.082031 C 23.625 18.082031 23.589844 18.109375 23.578125 18.199219 C 23.535156 18.582031 23.46875 18.964844 23.414062 19.34375 C 23.34375 19.890625 23.261719 20.4375 23.1875 20.980469 C 23.132812 21.363281 23.089844 21.738281 23.042969 22.117188 C 23.023438 22.265625 23.035156 22.265625 23.171875 22.246094 C 23.542969 22.191406 23.914062 22.144531 24.296875 22.15625 C 24.808594 22.15625 25.324219 22.15625 25.835938 22.191406 C 26.234375 22.21875 26.644531 22.21875 27.042969 22.246094 C 27.71875 22.292969 28.398438 22.347656 29.070312 22.390625 C 29.171875 22.390625 29.179688 22.390625 29.171875 22.292969 C 29.171875 22.183594 29.152344 22.0625 29.144531 21.957031 C 29.117188 21.535156 29.089844 21.128906 29.070312 20.710938 C 29.042969 20.265625 29.027344 19.816406 29.007812 19.382812 C 28.988281 19.019531 28.972656 18.652344 28.964844 18.289062 C 28.964844 18.21875 28.9375 18.179688 28.855469 18.171875 C 28.144531 18.144531 27.433594 18.097656 26.714844 18.070312 C 26.28125 18.054688 25.835938 18.070312 25.398438 18.070312 Z M 24.523438 41.488281 C 24.390625 41.488281 24.253906 41.488281 24.117188 41.488281 C 23.617188 41.46875 23.117188 41.488281 22.605469 41.46875 C 22.453125 41.46875 22.453125 41.46875 22.480469 41.617188 C 22.660156 42.542969 22.75 43.472656 22.832031 44.40625 C 22.851562 44.609375 22.871094 44.808594 22.898438 45 C 22.914062 45.136719 22.914062 45.136719 23.050781 45.144531 C 23.816406 45.207031 24.589844 45.253906 25.351562 45.28125 C 26.226562 45.308594 27.097656 45.308594 27.972656 45.28125 C 28.152344 45.28125 28.335938 45.261719 28.515625 45.253906 C 28.691406 45.234375 28.691406 45.234375 28.699219 45.054688 C 28.71875 44.761719 28.746094 44.460938 28.773438 44.171875 C 28.828125 43.625 28.882812 43.078125 28.925781 42.542969 C 28.964844 42.1875 28.980469 41.824219 29.007812 41.46875 C 29.015625 41.332031 29.015625 41.324219 28.882812 41.332031 C 28.597656 41.351562 28.328125 41.359375 28.042969 41.386719 C 27.507812 41.433594 26.960938 41.453125 26.425781 41.46875 C 25.789062 41.496094 25.160156 41.488281 24.523438 41.496094 Z M 34.417969 44.472656 C 34.445312 44.488281 34.472656 44.472656 34.5 44.472656 C 35.101562 44.335938 35.703125 44.207031 36.292969 44.027344 C 36.785156 43.871094 37.265625 43.699219 37.765625 43.578125 C 37.839844 43.5625 37.867188 43.527344 37.882812 43.460938 C 37.949219 43.179688 38.019531 42.898438 38.09375 42.617188 C 38.148438 42.378906 38.191406 42.417969 37.9375 42.316406 C 37.484375 42.117188 37 41.988281 36.5 41.933594 C 36.339844 41.914062 36.175781 41.851562 36.027344 41.769531 C 36.074219 41.699219 36.136719 41.6875 36.191406 41.671875 C 36.820312 41.441406 37.421875 41.152344 38.003906 40.824219 C 38.785156 40.378906 39.476562 39.824219 39.949219 39.035156 C 39.957031 39.015625 39.976562 38.996094 39.984375 38.980469 C 40.195312 38.734375 40.320312 38.441406 40.4375 38.140625 C 40.53125 37.898438 40.59375 37.660156 40.53125 37.386719 C 40.492188 37.214844 40.53125 37.03125 40.601562 36.824219 C 40.738281 37.03125 40.839844 37.214844 40.894531 37.421875 C 40.976562 37.742188 41.058594 38.058594 41.148438 38.386719 C 41.183594 38.515625 41.183594 38.515625 41.3125 38.496094 C 41.585938 38.453125 41.847656 38.40625 42.121094 38.371094 C 42.183594 38.359375 42.195312 38.316406 42.203125 38.261719 C 42.222656 37.921875 42.238281 37.585938 42.265625 37.25 C 42.285156 37.015625 42.285156 36.785156 42.320312 36.550781 C 42.402344 35.96875 42.503906 35.378906 42.558594 34.785156 C 42.566406 34.695312 42.585938 34.59375 42.578125 34.496094 C 42.550781 34.496094 42.53125 34.488281 42.523438 34.496094 C 41.675781 34.648438 40.832031 34.777344 39.984375 34.878906 C 39.867188 34.894531 39.855469 34.90625 39.847656 35.03125 C 39.785156 35.640625 39.703125 36.242188 39.601562 36.839844 C 39.484375 37.605469 39.347656 38.359375 39.113281 39.097656 C 39.101562 39.140625 39.066406 39.179688 39.101562 39.234375 C 39.3125 39.195312 39.519531 39.160156 39.738281 39.132812 C 39.765625 39.132812 39.800781 39.113281 39.8125 39.152344 C 39.820312 39.1875 39.8125 39.214844 39.773438 39.242188 C 39.730469 39.269531 39.683594 39.296875 39.640625 39.304688 C 39.503906 39.34375 39.367188 39.398438 39.230469 39.414062 C 39.046875 39.441406 38.957031 39.535156 38.921875 39.714844 C 38.894531 39.84375 38.855469 39.980469 38.785156 40.089844 C 38.738281 40.078125 38.738281 40.050781 38.738281 40.015625 C 38.738281 39.925781 38.738281 39.832031 38.757812 39.742188 C 38.773438 39.578125 38.773438 39.542969 38.59375 39.597656 C 37.410156 39.960938 36.230469 40.296875 35.027344 40.550781 C 34.882812 40.578125 34.882812 40.589844 34.875 40.726562 C 34.835938 41.105469 34.800781 41.488281 34.753906 41.863281 C 34.65625 42.6875 34.582031 43.527344 34.457031 44.351562 C 34.457031 44.398438 34.4375 44.445312 34.457031 44.488281 Z M 9.613281 24.757812 C 9.53125 24.757812 9.476562 24.792969 9.421875 24.8125 C 9.09375 24.917969 8.785156 25.09375 8.429688 25.148438 C 8.3125 25.164062 8.257812 25.210938 8.21875 25.328125 C 8 26.027344 7.792969 26.738281 7.636719 27.457031 C 7.445312 28.347656 7.328125 29.238281 7.257812 30.140625 C 7.230469 30.449219 7.230469 30.757812 7.203125 31.058594 C 7.164062 31.550781 7.203125 32.039062 7.230469 32.53125 C 7.257812 33.066406 7.328125 33.59375 7.417969 34.121094 C 7.539062 34.851562 7.65625 35.578125 7.839844 36.285156 C 8.230469 37.804688 8.792969 39.25 9.59375 40.597656 C 9.839844 41.015625 10.09375 41.433594 10.402344 41.808594 C 10.511719 41.933594 10.628906 42.0625 10.75 42.1875 C 10.648438 41.863281 10.539062 41.550781 10.449219 41.234375 C 10.019531 39.816406 9.667969 38.386719 9.382812 36.933594 C 9.203125 35.976562 9.066406 35.023438 8.992188 34.058594 C 8.992188 33.96875 8.957031 33.933594 8.875 33.90625 C 8.546875 33.8125 8.230469 33.703125 7.910156 33.605469 C 7.855469 33.585938 7.800781 33.585938 7.765625 33.511719 C 7.855469 33.46875 7.9375 33.496094 8.019531 33.496094 C 8.257812 33.511719 8.492188 33.539062 8.738281 33.558594 C 8.8125 33.558594 8.894531 33.605469 8.949219 33.550781 C 8.992188 33.503906 8.949219 33.429688 8.949219 33.367188 C 8.929688 32.902344 8.894531 32.429688 8.882812 31.96875 C 8.875 31.195312 8.867188 30.414062 8.910156 29.640625 C 8.921875 29.429688 8.9375 29.230469 8.949219 29.019531 C 8.949219 28.949219 8.957031 28.875 8.847656 28.894531 C 8.820312 28.894531 8.785156 28.894531 8.773438 28.855469 C 8.773438 28.8125 8.800781 28.792969 8.828125 28.785156 C 8.957031 28.757812 8.984375 28.667969 8.976562 28.558594 C 8.976562 28.511719 8.992188 28.464844 8.992188 28.421875 C 9.085938 27.410156 9.273438 26.429688 9.464844 25.4375 C 9.511719 25.21875 9.546875 24.992188 9.59375 24.757812 Z M 40.976562 20.464844 C 40.957031 20.519531 40.976562 20.535156 40.976562 20.5625 C 41.257812 21.453125 41.503906 22.347656 41.757812 23.238281 C 41.859375 23.59375 41.957031 23.957031 42.058594 24.308594 C 42.074219 24.375 42.085938 24.4375 42.175781 24.464844 C 42.46875 24.539062 42.75 24.664062 43.058594 24.664062 C 43.078125 24.664062 43.105469 24.664062 43.113281 24.703125 C 43.105469 24.71875 43.066406 24.730469 43.039062 24.730469 C 42.738281 24.765625 42.457031 24.65625 42.167969 24.609375 C 42.140625 24.675781 42.167969 24.730469 42.183594 24.785156 C 42.539062 26.164062 42.867188 27.546875 43.050781 28.964844 C 43.050781 29.019531 43.058594 29.058594 43.132812 29.066406 C 43.183594 29.066406 43.183594 29.121094 43.148438 29.140625 C 43.058594 29.195312 43.085938 29.265625 43.09375 29.347656 C 43.140625 29.765625 43.175781 30.183594 43.203125 30.601562 C 43.230469 30.976562 43.238281 31.359375 43.25 31.730469 C 43.265625 32.386719 43.25 33.039062 43.183594 33.695312 C 43.175781 33.839844 43.167969 33.984375 43.167969 34.121094 C 43.222656 34.140625 43.257812 34.121094 43.292969 34.121094 C 43.332031 34.121094 43.375 34.105469 43.394531 34.148438 C 43.421875 34.203125 43.402344 34.25 43.367188 34.285156 C 43.339844 34.3125 43.292969 34.332031 43.257812 34.332031 C 43.148438 34.332031 43.121094 34.40625 43.113281 34.503906 C 43.09375 34.785156 43.050781 35.066406 43.011719 35.351562 C 42.902344 36.257812 42.683594 37.132812 42.367188 37.988281 C 42.332031 38.097656 42.292969 38.195312 42.257812 38.316406 C 42.347656 38.316406 42.429688 38.316406 42.511719 38.316406 C 42.710938 38.296875 42.914062 38.269531 43.105469 38.25 C 43.160156 38.25 43.210938 38.25 43.230469 38.316406 C 43.25 38.378906 43.210938 38.425781 43.160156 38.453125 C 43.09375 38.476562 43.03125 38.496094 42.96875 38.515625 C 42.46875 38.640625 41.949219 38.722656 41.449219 38.859375 C 41.3125 38.898438 41.3125 38.886719 41.367188 39.015625 C 41.621094 39.605469 42.085938 40.035156 42.550781 40.480469 C 42.667969 40.222656 42.792969 39.988281 42.902344 39.742188 C 43.265625 38.941406 43.550781 38.125 43.777344 37.277344 C 44.085938 36.132812 44.3125 34.96875 44.394531 33.785156 C 44.429688 33.324219 44.457031 32.867188 44.46875 32.402344 C 44.476562 31.496094 44.496094 30.574219 44.441406 29.667969 C 44.414062 29.195312 44.375 28.710938 44.339844 28.238281 C 44.3125 27.9375 44.277344 27.640625 44.214844 27.347656 C 44.09375 26.800781 43.902344 26.273438 43.730469 25.746094 C 43.195312 24.054688 42.375 22.492188 41.375 21.035156 C 41.25 20.847656 41.121094 20.664062 40.957031 20.480469 Z M 29.707031 23.09375 C 29.734375 23.390625 29.761719 23.675781 29.773438 23.964844 C 29.800781 24.5 29.84375 25.046875 29.871094 25.582031 C 29.890625 26.027344 29.925781 26.484375 29.910156 26.929688 C 29.910156 27.046875 29.910156 27.164062 29.910156 27.292969 C 29.910156 27.367188 29.925781 27.394531 30.007812 27.402344 C 30.273438 27.410156 30.535156 27.429688 30.789062 27.457031 C 31.390625 27.503906 31.992188 27.558594 32.589844 27.613281 C 33.273438 27.675781 33.957031 27.738281 34.628906 27.800781 C 34.746094 27.8125 34.746094 27.8125 34.746094 27.683594 C 34.746094 27.429688 34.726562 27.183594 34.71875 26.929688 C 34.691406 26.449219 34.65625 25.964844 34.609375 25.484375 C 34.554688 24.863281 34.484375 24.246094 34.402344 23.636719 C 34.382812 23.492188 34.402344 23.492188 34.238281 23.472656 C 33.792969 23.429688 33.347656 23.390625 32.890625 23.347656 C 32.191406 23.28125 31.5 23.21875 30.800781 23.164062 C 30.4375 23.136719 30.074219 23.101562 29.691406 23.09375 Z M 29.109375 45.199219 C 29.191406 45.234375 29.261719 45.21875 29.335938 45.21875 C 29.734375 45.179688 30.144531 45.152344 30.546875 45.109375 C 31.589844 45 32.636719 44.84375 33.671875 44.644531 C 33.9375 44.589844 33.9375 44.589844 33.964844 44.335938 C 34.046875 43.597656 34.109375 42.863281 34.171875 42.125 C 34.21875 41.679688 34.253906 41.234375 34.300781 40.777344 C 34.300781 40.699219 34.300781 40.679688 34.210938 40.6875 C 34.191406 40.6875 34.171875 40.6875 34.15625 40.6875 C 32.917969 40.914062 31.671875 41.0625 30.425781 41.1875 C 30.164062 41.214844 29.890625 41.242188 29.625 41.261719 C 29.554688 41.261719 29.519531 41.289062 29.507812 41.371094 C 29.464844 41.851562 29.417969 42.335938 29.371094 42.816406 C 29.335938 43.179688 29.289062 43.554688 29.246094 43.917969 C 29.199219 44.34375 29.152344 44.761719 29.097656 45.191406 Z M 29.507812 18.226562 C 29.535156 18.527344 29.527344 18.800781 29.535156 19.074219 C 29.5625 19.738281 29.582031 20.390625 29.609375 21.054688 C 29.625 21.402344 29.636719 21.738281 29.652344 22.082031 C 29.652344 22.183594 29.652344 22.273438 29.671875 22.375 C 29.679688 22.4375 29.699219 22.457031 29.761719 22.464844 C 29.925781 22.472656 30.089844 22.5 30.253906 22.519531 C 31.136719 22.609375 32.007812 22.71875 32.882812 22.828125 C 33.320312 22.882812 33.753906 22.9375 34.191406 22.984375 C 34.320312 23 34.328125 23 34.308594 22.863281 C 34.292969 22.71875 34.265625 22.582031 34.246094 22.445312 C 34.074219 21.28125 33.847656 20.136719 33.601562 18.992188 C 33.546875 18.71875 33.589844 18.78125 33.320312 18.734375 C 32.355469 18.582031 31.390625 18.4375 30.425781 18.328125 C 30.125 18.289062 29.828125 18.261719 29.5 18.234375 Z M 39.566406 27.984375 C 39.558594 27.847656 39.539062 27.710938 39.539062 27.574219 C 39.519531 27.121094 39.476562 26.664062 39.4375 26.210938 C 39.375 25.527344 39.285156 24.855469 39.183594 24.175781 C 39.15625 24.019531 39.15625 24.011719 38.992188 23.992188 C 37.738281 23.808594 36.484375 23.664062 35.226562 23.546875 C 35.148438 23.546875 35.054688 23.539062 34.972656 23.527344 C 34.917969 23.527344 34.902344 23.554688 34.910156 23.601562 C 34.910156 23.628906 34.917969 23.65625 34.929688 23.683594 C 35.066406 24.574219 35.164062 25.464844 35.238281 26.367188 C 35.273438 26.8125 35.28125 27.265625 35.308594 27.710938 C 35.308594 27.839844 35.320312 27.847656 35.445312 27.855469 C 35.773438 27.882812 36.101562 27.910156 36.4375 27.949219 C 37.15625 28.011719 37.875 28.09375 38.59375 28.195312 C 38.882812 28.230469 39.183594 28.273438 39.476562 28.320312 C 39.546875 28.328125 39.585938 28.320312 39.574219 28.238281 C 39.574219 28.15625 39.574219 28.066406 39.574219 27.984375 Z M 39.285156 34.96875 C 39.246094 34.96875 39.21875 34.96875 39.203125 34.96875 C 38.847656 35.003906 38.484375 35.042969 38.128906 35.078125 C 37.210938 35.175781 36.292969 35.242188 35.363281 35.296875 C 35.238281 35.296875 35.238281 35.296875 35.226562 35.433594 C 35.226562 35.722656 35.226562 36.015625 35.210938 36.304688 C 35.183594 36.851562 35.148438 37.394531 35.101562 37.941406 C 35.046875 38.640625 34.984375 39.332031 34.890625 40.035156 C 34.882812 40.144531 34.890625 40.160156 35.019531 40.144531 C 35.21875 40.105469 35.410156 40.070312 35.609375 40.023438 C 36.601562 39.832031 37.582031 39.589844 38.566406 39.351562 C 38.71875 39.316406 38.710938 39.316406 38.746094 39.140625 C 38.765625 39.058594 38.757812 38.988281 38.765625 38.90625 C 38.785156 38.667969 38.785156 38.441406 38.820312 38.207031 C 38.964844 37.234375 39.148438 36.269531 39.257812 35.285156 C 39.265625 35.1875 39.292969 35.085938 39.273438 34.96875 Z M 39.074219 23.71875 C 39.09375 23.636719 39.074219 23.574219 39.066406 23.511719 C 38.957031 22.917969 38.839844 22.328125 38.703125 21.738281 C 38.539062 21.0625 38.375 20.398438 38.210938 19.726562 C 38.191406 19.636719 38.148438 19.582031 38.046875 19.5625 C 37.746094 19.507812 37.449219 19.425781 37.148438 19.371094 C 36.300781 19.207031 35.457031 19.074219 34.601562 18.925781 C 34.382812 18.890625 34.164062 18.855469 33.9375 18.816406 C 33.929688 18.917969 33.964844 19 33.984375 19.082031 C 34.273438 20.273438 34.527344 21.472656 34.746094 22.671875 C 34.765625 22.792969 34.746094 22.929688 34.820312 23.019531 C 34.882812 23.109375 35.039062 23.082031 35.15625 23.09375 C 36.257812 23.226562 37.347656 23.402344 38.429688 23.601562 C 38.636719 23.636719 38.855469 23.675781 39.066406 23.71875 Z M 44.414062 41.597656 C 44.402344 41.597656 44.394531 41.589844 44.375 41.589844 C 43.757812 41.5625 43.195312 41.371094 42.675781 41.023438 C 42.421875 40.851562 42.203125 40.652344 41.976562 40.453125 C 41.621094 40.125 41.3125 39.761719 41.101562 39.324219 C 40.964844 39.042969 40.867188 38.761719 40.785156 38.460938 C 40.75 38.332031 40.730469 38.207031 40.667969 38.078125 C 40.65625 38.105469 40.640625 38.113281 40.640625 38.132812 C 40.566406 38.496094 40.402344 38.824219 40.25 39.152344 C 40.039062 39.589844 39.765625 39.980469 39.402344 40.296875 C 38.730469 40.878906 37.949219 41.269531 37.101562 41.550781 C 37.054688 41.570312 37 41.570312 36.972656 41.617188 C 36.992188 41.617188 37 41.625 37.011719 41.625 C 37.691406 41.769531 38.3125 42.023438 38.867188 42.460938 C 39.59375 43.035156 40.09375 43.769531 40.484375 44.597656 C 40.574219 44.796875 40.640625 45.007812 40.703125 45.226562 C 40.722656 45.207031 40.730469 45.199219 40.730469 45.191406 C 40.75 45.136719 40.777344 45.082031 40.792969 45.027344 C 41.101562 44.125 41.574219 43.335938 42.3125 42.707031 C 42.894531 42.207031 43.53125 41.808594 44.296875 41.652344 C 44.339844 41.652344 44.386719 41.652344 44.414062 41.597656 Z M 25.679688 48.398438 C 25.863281 48.398438 26.042969 48.398438 26.226562 48.398438 C 26.90625 48.398438 27.582031 48.335938 28.253906 48.28125 C 28.355469 48.28125 28.390625 48.234375 28.410156 48.144531 C 28.472656 47.800781 28.527344 47.445312 28.554688 47.097656 C 28.570312 46.871094 28.597656 46.644531 28.609375 46.417969 C 28.617188 46.199219 28.617188 45.972656 28.644531 45.753906 C 28.652344 45.671875 28.625 45.644531 28.535156 45.644531 C 28.328125 45.664062 28.117188 45.671875 27.90625 45.679688 C 27.289062 45.699219 26.664062 45.726562 26.042969 45.71875 C 25.660156 45.71875 25.28125 45.71875 24.898438 45.71875 C 24.289062 45.691406 23.679688 45.671875 23.070312 45.617188 C 22.941406 45.609375 22.925781 45.636719 22.933594 45.746094 C 22.980469 46.21875 23.015625 46.699219 23.050781 47.171875 C 23.078125 47.492188 23.105469 47.808594 23.132812 48.125 C 23.152344 48.308594 23.160156 48.308594 23.34375 48.316406 C 24.117188 48.382812 24.890625 48.410156 25.671875 48.398438 Z M 22.496094 45.070312 C 22.535156 45.027344 22.515625 45 22.515625 44.960938 C 22.46875 44.535156 22.414062 44.109375 22.371094 43.671875 C 22.316406 43.234375 22.277344 42.796875 22.261719 42.363281 C 22.25 42.097656 22.261719 41.835938 22.25 41.570312 C 22.25 41.433594 22.25 41.433594 22.125 41.433594 C 21.460938 41.425781 20.804688 41.378906 20.140625 41.332031 C 19.433594 41.28125 18.722656 41.214844 18.015625 41.132812 C 17.921875 41.125 17.832031 41.089844 17.75 41.132812 C 17.75 41.144531 17.75 41.152344 17.75 41.152344 C 17.921875 42.1875 18.125 43.214844 18.324219 44.242188 C 18.339844 44.324219 18.386719 44.371094 18.46875 44.378906 C 18.652344 44.417969 18.832031 44.460938 19.023438 44.5 C 20.03125 44.714844 21.042969 44.898438 22.070312 45.027344 C 22.222656 45.042969 22.371094 45.082031 22.515625 45.0625 Z M 42.710938 32.195312 C 42.675781 31.695312 42.683594 31.203125 42.648438 30.710938 C 42.621094 30.238281 42.578125 29.757812 42.53125 29.285156 C 42.511719 29.128906 42.511719 29.128906 42.375 29.101562 C 41.949219 29.019531 41.511719 28.9375 41.085938 28.867188 C 40.792969 28.8125 40.503906 28.777344 40.203125 28.730469 C 40.121094 28.710938 40.085938 28.730469 40.09375 28.820312 C 40.09375 28.867188 40.09375 28.910156 40.09375 28.957031 C 40.113281 29.566406 40.101562 30.167969 40.101562 30.777344 C 40.101562 31.023438 40.101562 31.265625 40.09375 31.511719 C 40.066406 32.039062 40.039062 32.566406 40.003906 33.09375 C 39.984375 33.367188 39.957031 33.640625 39.9375 33.914062 C 39.921875 34.09375 39.910156 34.277344 39.894531 34.460938 C 39.894531 34.523438 39.902344 34.558594 39.976562 34.550781 C 39.992188 34.550781 40.019531 34.550781 40.039062 34.550781 C 40.847656 34.46875 41.65625 34.359375 42.46875 34.25 C 42.59375 34.230469 42.613281 34.230469 42.613281 34.085938 C 42.613281 34.03125 42.628906 33.984375 42.628906 33.933594 C 42.65625 33.351562 42.683594 32.769531 42.710938 32.195312 Z M 38.082031 19.316406 C 38.082031 19.273438 38.082031 19.246094 38.082031 19.226562 C 37.875 18.472656 37.648438 17.71875 37.394531 16.972656 C 37.355469 16.871094 37.300781 16.789062 37.21875 16.726562 C 36.382812 16.082031 35.5 15.5 34.566406 15 C 33.929688 14.660156 33.28125 14.34375 32.617188 14.0625 C 32.554688 14.035156 32.480469 13.988281 32.382812 13.988281 C 32.546875 14.335938 32.683594 14.660156 32.800781 15 C 32.835938 15.109375 32.902344 15.144531 33 15.171875 C 33.890625 15.390625 34.753906 15.699219 35.609375 16.035156 C 35.628906 16.035156 35.636719 16.042969 35.65625 16.054688 C 35.683594 16.070312 35.710938 16.097656 35.703125 16.136719 C 35.691406 16.171875 35.65625 16.164062 35.628906 16.164062 C 35.539062 16.144531 35.445312 16.125 35.363281 16.109375 C 34.820312 15.972656 34.28125 15.835938 33.738281 15.699219 C 33.5 15.644531 33.265625 15.582031 33.027344 15.554688 C 33.027344 15.582031 33.027344 15.589844 33.027344 15.597656 C 33.308594 16.472656 33.5625 17.34375 33.78125 18.226562 C 33.800781 18.300781 33.847656 18.328125 33.910156 18.335938 C 34.109375 18.371094 34.300781 18.417969 34.492188 18.453125 C 35.417969 18.644531 36.355469 18.835938 37.285156 19.074219 C 37.546875 19.136719 37.8125 19.21875 38.09375 19.289062 Z M 28.9375 17.207031 C 28.917969 16.808594 28.898438 16.398438 28.871094 16 C 28.855469 15.71875 28.816406 15.445312 28.800781 15.164062 C 28.800781 15.089844 28.773438 15.035156 28.679688 15.027344 C 28.355469 15.007812 28.015625 14.980469 27.691406 14.972656 C 27.226562 14.960938 26.761719 14.953125 26.296875 14.953125 C 25.597656 14.953125 24.90625 14.953125 24.207031 15 C 24.105469 15 24.070312 15.035156 24.0625 15.136719 C 24.035156 15.363281 23.988281 15.582031 23.953125 15.808594 C 23.871094 16.300781 23.796875 16.789062 23.714844 17.273438 C 23.699219 17.363281 23.714844 17.390625 23.808594 17.382812 C 23.925781 17.382812 24.035156 17.363281 24.152344 17.363281 C 24.972656 17.355469 25.796875 17.371094 26.617188 17.398438 C 26.863281 17.398438 27.109375 17.417969 27.351562 17.4375 C 27.851562 17.472656 28.355469 17.507812 28.855469 17.554688 C 28.917969 17.554688 28.953125 17.535156 28.953125 17.472656 C 28.953125 17.382812 28.953125 17.289062 28.953125 17.199219 Z M 33.875 44.878906 C 33.792969 44.898438 33.726562 44.90625 33.664062 44.917969 C 32.699219 45.117188 31.726562 45.289062 30.753906 45.417969 C 30.226562 45.480469 29.699219 45.542969 29.171875 45.582031 C 29.089844 45.582031 29.0625 45.609375 29.054688 45.691406 C 29.042969 45.863281 29.015625 46.042969 29 46.21875 C 28.964844 46.589844 28.925781 46.964844 28.863281 47.335938 C 28.816406 47.625 28.753906 47.917969 28.679688 48.199219 C 28.746094 48.234375 28.800781 48.207031 28.855469 48.199219 C 29.597656 48.109375 30.34375 48.007812 31.089844 47.882812 C 31.753906 47.761719 32.410156 47.636719 33.074219 47.5 C 33.144531 47.480469 33.199219 47.472656 33.21875 47.390625 C 33.402344 46.78125 33.609375 46.191406 33.746094 45.570312 C 33.792969 45.351562 33.847656 45.125 33.863281 44.871094 Z M 17.914062 44.253906 C 17.933594 44.207031 17.914062 44.179688 17.914062 44.152344 C 17.851562 43.871094 17.785156 43.597656 17.722656 43.316406 C 17.558594 42.597656 17.40625 41.878906 17.277344 41.160156 C 17.257812 41.078125 17.230469 41.035156 17.132812 41.023438 C 16.988281 41.015625 16.851562 40.980469 16.714844 40.960938 C 15.695312 40.804688 14.675781 40.632812 13.675781 40.378906 C 13.640625 40.371094 13.59375 40.332031 13.550781 40.359375 C 13.523438 40.414062 13.550781 40.46875 13.550781 40.515625 C 13.695312 41.378906 13.859375 42.242188 14.023438 43.097656 C 14.039062 43.1875 14.085938 43.234375 14.1875 43.261719 C 15.003906 43.453125 15.824219 43.671875 16.632812 43.90625 C 17.050781 44.035156 17.476562 44.144531 17.914062 44.242188 Z M 37.621094 17.082031 C 37.601562 17.117188 37.621094 17.144531 37.621094 17.171875 C 37.921875 17.890625 38.183594 18.617188 38.421875 19.355469 C 38.4375 19.417969 38.476562 19.464844 38.546875 19.480469 C 38.71875 19.535156 38.894531 19.601562 39.058594 19.683594 C 39.191406 19.746094 39.328125 19.808594 39.457031 19.871094 C 39.503906 19.898438 39.585938 19.917969 39.558594 19.992188 C 39.53125 20.074219 39.457031 20.007812 39.410156 19.992188 C 39.367188 19.980469 39.3125 19.953125 39.265625 19.9375 C 39.066406 19.863281 38.867188 19.800781 38.664062 19.738281 C 38.628906 19.726562 38.59375 19.699219 38.558594 19.738281 C 38.558594 19.773438 38.558594 19.808594 38.574219 19.855469 C 38.964844 21.117188 39.292969 22.402344 39.539062 23.703125 C 39.558594 23.808594 39.601562 23.847656 39.710938 23.875 C 40.304688 23.992188 40.886719 24.121094 41.457031 24.273438 C 41.503906 24.285156 41.539062 24.308594 41.59375 24.273438 C 41.585938 24.21875 41.574219 24.164062 41.566406 24.109375 C 41.476562 23.71875 41.386719 23.320312 41.292969 22.929688 C 41.09375 22.019531 40.902344 21.109375 40.683594 20.210938 C 40.667969 20.117188 40.640625 20.035156 40.574219 19.964844 C 40.210938 19.527344 39.828125 19.101562 39.429688 18.699219 C 38.949219 18.226562 38.449219 17.761719 37.921875 17.335938 C 37.820312 17.253906 37.730469 17.164062 37.621094 17.097656 Z M 12.558594 23.929688 C 12.25 23.984375 11.964844 23.984375 11.683594 24.054688 C 11.113281 24.210938 10.539062 24.402344 9.976562 24.601562 C 9.894531 24.628906 9.855469 24.664062 9.839844 24.746094 C 9.703125 25.429688 9.574219 26.109375 9.484375 26.800781 C 9.4375 27.164062 9.394531 27.539062 9.367188 27.902344 C 9.347656 28.128906 9.3125 28.355469 9.328125 28.585938 C 9.4375 28.585938 9.519531 28.53125 9.613281 28.503906 C 10.429688 28.222656 11.25 27.9375 12.121094 27.839844 C 12.222656 27.828125 12.230469 27.773438 12.230469 27.683594 C 12.230469 27.136719 12.257812 26.601562 12.292969 26.066406 C 12.332031 25.554688 12.386719 25.054688 12.46875 24.554688 C 12.503906 24.355469 12.53125 24.15625 12.558594 23.929688 Z M 10.8125 18.527344 C 10.8125 18.546875 10.8125 18.554688 10.820312 18.554688 C 10.894531 18.574219 10.976562 18.601562 11.046875 18.617188 C 11.804688 18.800781 12.359375 19.226562 12.683594 19.945312 C 12.875 20.363281 13.03125 20.792969 13.15625 21.226562 C 13.175781 21.28125 13.175781 21.347656 13.222656 21.390625 C 13.238281 21.363281 13.25 21.355469 13.257812 21.347656 C 13.578125 20.792969 13.949219 20.273438 14.375 19.800781 C 14.832031 19.308594 15.351562 18.917969 15.96875 18.679688 C 15.996094 18.671875 16.050781 18.679688 16.050781 18.617188 C 16.023438 18.574219 15.976562 18.574219 15.929688 18.5625 C 15.804688 18.546875 15.675781 18.492188 15.558594 18.445312 C 15.140625 18.28125 14.804688 18.007812 14.476562 17.707031 C 14.367188 17.609375 14.277344 17.507812 14.1875 17.390625 C 13.847656 16.917969 13.578125 16.40625 13.457031 15.835938 C 13.429688 15.726562 13.402344 15.617188 13.375 15.5 C 13.375 15.460938 13.375 15.417969 13.320312 15.40625 C 13.3125 15.425781 13.304688 15.453125 13.292969 15.472656 C 13.085938 16.070312 12.785156 16.625 12.421875 17.152344 C 12.121094 17.582031 11.785156 17.972656 11.339844 18.261719 C 11.167969 18.382812 10.976562 18.464844 10.785156 18.546875 Z M 22.742188 48.261719 C 22.925781 48.261719 22.925781 48.261719 22.90625 48.125 C 22.84375 47.644531 22.777344 47.152344 22.726562 46.671875 C 22.6875 46.355469 22.652344 46.027344 22.605469 45.707031 C 22.589844 45.570312 22.578125 45.570312 22.453125 45.5625 C 22.1875 45.535156 21.914062 45.507812 21.652344 45.480469 C 20.640625 45.351562 19.632812 45.179688 18.632812 44.953125 C 18.597656 44.953125 18.570312 44.945312 18.53125 44.933594 C 18.488281 44.933594 18.46875 44.953125 18.46875 45 C 18.46875 45.027344 18.46875 45.054688 18.476562 45.082031 C 18.660156 45.890625 18.832031 46.691406 19.058594 47.492188 C 19.097656 47.625 19.160156 47.691406 19.304688 47.726562 C 19.960938 47.871094 20.613281 47.992188 21.269531 48.089844 C 21.769531 48.164062 22.261719 48.226562 22.734375 48.273438 Z M 18.804688 47.570312 C 18.824219 47.527344 18.804688 47.5 18.785156 47.464844 C 18.53125 46.671875 18.324219 45.863281 18.125 45.0625 C 18.058594 44.789062 18.125 44.84375 17.832031 44.78125 C 16.722656 44.507812 15.621094 44.199219 14.550781 43.78125 C 14.421875 43.726562 14.285156 43.679688 14.160156 43.625 C 14.121094 43.671875 14.140625 43.707031 14.160156 43.734375 C 14.320312 44.527344 14.523438 45.296875 14.757812 46.0625 C 14.777344 46.125 14.8125 46.171875 14.867188 46.207031 C 15.09375 46.371094 15.324219 46.527344 15.558594 46.691406 C 15.605469 46.71875 15.648438 46.734375 15.695312 46.746094 C 16.257812 46.863281 16.824219 46.980469 17.367188 47.152344 C 17.804688 47.289062 18.242188 47.445312 18.695312 47.554688 C 18.734375 47.5625 18.769531 47.589844 18.8125 47.5625 Z M 33.429688 18.261719 C 33.457031 18.21875 33.4375 18.199219 33.429688 18.171875 C 33.246094 17.335938 33.035156 16.5 32.820312 15.664062 C 32.792969 15.554688 32.738281 15.507812 32.628906 15.488281 C 31.5625 15.289062 30.480469 15.191406 29.410156 15.089844 C 29.335938 15.089844 29.316406 15.097656 29.328125 15.179688 C 29.410156 15.816406 29.453125 16.445312 29.472656 17.089844 C 29.472656 17.234375 29.480469 17.390625 29.480469 17.535156 C 29.480469 17.609375 29.5 17.644531 29.582031 17.644531 C 29.609375 17.644531 29.636719 17.644531 29.664062 17.652344 C 30.664062 17.761719 31.664062 17.925781 32.65625 18.117188 C 32.910156 18.164062 33.164062 18.21875 33.429688 18.261719 Z M 39.628906 24.101562 C 39.628906 24.136719 39.628906 24.164062 39.628906 24.183594 C 39.675781 24.492188 39.730469 24.800781 39.773438 25.109375 C 39.867188 25.746094 39.9375 26.382812 39.992188 27.03125 C 40.03125 27.449219 40.046875 27.867188 40.074219 28.292969 C 40.074219 28.410156 40.058594 28.429688 40.230469 28.464844 C 40.675781 28.539062 41.113281 28.628906 41.558594 28.730469 C 41.859375 28.804688 42.167969 28.867188 42.46875 28.9375 C 42.496094 28.867188 42.46875 28.792969 42.46875 28.730469 C 42.429688 28.484375 42.402344 28.25 42.359375 28.003906 C 42.175781 26.875 41.929688 25.765625 41.695312 24.65625 C 41.667969 24.527344 41.601562 24.484375 41.484375 24.457031 C 40.875 24.328125 40.265625 24.21875 39.628906 24.121094 Z M 37.773438 43.816406 C 37.71875 43.808594 37.691406 43.816406 37.65625 43.835938 C 36.601562 44.179688 35.546875 44.5 34.464844 44.742188 C 34.363281 44.769531 34.328125 44.824219 34.308594 44.917969 C 34.199219 45.5625 34 46.191406 33.753906 46.800781 C 33.671875 47 33.601562 47.199219 33.527344 47.398438 C 33.5625 47.417969 33.589844 47.410156 33.617188 47.398438 C 34.59375 47.179688 35.554688 46.9375 36.511719 46.625 C 36.648438 46.582031 36.820312 46.5625 36.921875 46.472656 C 37.019531 46.371094 37.046875 46.207031 37.101562 46.070312 C 37.347656 45.433594 37.519531 44.78125 37.691406 44.125 C 37.71875 44.027344 37.757812 43.933594 37.765625 43.816406 Z M 11.832031 19.398438 C 11.695312 19.636719 11.492188 19.816406 11.320312 20.019531 C 11.265625 20.074219 11.238281 20.136719 11.230469 20.210938 C 11.195312 20.410156 11.140625 20.601562 11.058594 20.78125 C 10.964844 20.992188 10.875 21.199219 10.792969 21.410156 C 10.457031 22.292969 10.230469 23.210938 9.984375 24.128906 C 9.984375 24.148438 9.984375 24.175781 10.003906 24.191406 C 10.402344 24.082031 10.804688 23.972656 11.210938 23.875 C 11.648438 23.765625 12.085938 23.675781 12.53125 23.582031 C 12.621094 23.566406 12.65625 23.527344 12.675781 23.445312 C 12.703125 23.320312 12.730469 23.191406 12.757812 23.066406 C 12.8125 22.800781 12.820312 22.519531 12.949219 22.273438 C 12.96875 22.226562 12.949219 22.199219 12.949219 22.15625 C 12.820312 21.554688 12.648438 20.964844 12.441406 20.382812 C 12.339844 20.109375 12.222656 19.84375 12.046875 19.601562 C 11.992188 19.519531 11.941406 19.445312 11.847656 19.390625 Z M 28.273438 48.691406 C 28.199219 48.691406 28.144531 48.691406 28.089844 48.699219 C 27.308594 48.78125 26.527344 48.835938 25.734375 48.84375 C 24.917969 48.84375 24.105469 48.816406 23.289062 48.753906 C 23.214844 48.753906 23.199219 48.761719 23.207031 48.835938 C 23.242188 49.15625 23.269531 49.472656 23.304688 49.78125 C 23.324219 49.9375 23.316406 49.9375 23.46875 49.964844 C 23.84375 50.035156 24.207031 50.101562 24.589844 50.128906 C 24.898438 50.15625 25.214844 50.183594 25.527344 50.171875 C 25.933594 50.171875 26.34375 50.136719 26.753906 50.109375 C 27.117188 50.082031 27.480469 50.035156 27.84375 50 C 27.925781 50 27.960938 49.964844 27.972656 49.871094 C 28 49.71875 28.035156 49.574219 28.070312 49.425781 C 28.136719 49.183594 28.199219 48.945312 28.273438 48.691406 Z M 26.363281 12.996094 C 25.953125 12.980469 25.488281 13.015625 25.023438 13.050781 C 24.835938 13.070312 24.644531 13.078125 24.441406 13.105469 C 24.335938 13.117188 24.324219 13.125 24.324219 13.242188 C 24.324219 13.363281 24.324219 13.480469 24.308594 13.597656 C 24.269531 13.808594 24.234375 14.027344 24.199219 14.234375 C 24.179688 14.34375 24.199219 14.351562 24.296875 14.351562 C 24.378906 14.351562 24.46875 14.34375 24.550781 14.34375 C 24.988281 14.34375 25.433594 14.34375 25.871094 14.34375 C 26.308594 14.34375 26.734375 14.363281 27.171875 14.378906 C 27.644531 14.40625 28.117188 14.445312 28.589844 14.488281 C 28.671875 14.488281 28.691406 14.472656 28.691406 14.398438 C 28.671875 14.242188 28.644531 14.097656 28.636719 13.945312 C 28.617188 13.726562 28.5625 13.515625 28.582031 13.296875 C 28.589844 13.152344 28.589844 13.152344 28.453125 13.132812 C 27.78125 13.042969 27.109375 13.007812 26.363281 13.015625 Z M 29.390625 12.816406 C 29.417969 12.761719 29.390625 12.742188 29.390625 12.714844 C 29.179688 12.40625 28.953125 12.097656 28.671875 11.851562 C 28.5 11.707031 28.28125 11.671875 28.070312 11.625 C 27.808594 11.5625 27.535156 11.5625 27.253906 11.550781 C 26.816406 11.535156 26.390625 11.523438 25.953125 11.5625 C 25.34375 11.605469 24.742188 11.699219 24.132812 11.761719 C 24.015625 11.78125 23.90625 11.816406 23.808594 11.886719 C 23.488281 12.125 23.214844 12.40625 22.960938 12.707031 C 22.925781 12.753906 22.859375 12.78125 22.859375 12.871094 C 25.042969 12.460938 27.226562 12.363281 29.398438 12.808594 Z M 33.089844 47.835938 C 33.027344 47.808594 32.992188 47.835938 32.953125 47.835938 C 32.355469 47.972656 31.753906 48.109375 31.15625 48.226562 C 30.335938 48.390625 29.507812 48.527344 28.671875 48.628906 C 28.597656 48.628906 28.542969 48.644531 28.515625 48.734375 C 28.425781 49.046875 28.316406 49.34375 28.21875 49.644531 C 28.191406 49.738281 28.144531 49.835938 28.152344 49.945312 C 28.246094 49.945312 28.328125 49.9375 28.410156 49.925781 C 29.316406 49.808594 30.21875 49.628906 31.109375 49.425781 C 31.574219 49.316406 32.027344 49.191406 32.472656 49.027344 C 32.527344 49.007812 32.589844 49 32.589844 48.910156 C 32.589844 48.871094 32.636719 48.835938 32.664062 48.800781 C 32.902344 48.519531 32.992188 48.179688 33.089844 47.835938 Z M 23.898438 13.179688 C 23.863281 13.179688 23.851562 13.171875 23.84375 13.171875 C 22.523438 13.351562 21.234375 13.632812 19.949219 14.007812 C 19.804688 14.054688 19.625 14.054688 19.523438 14.160156 C 19.421875 14.269531 19.394531 14.453125 19.359375 14.609375 C 19.316406 14.761719 19.25 14.90625 19.234375 15.082031 C 19.296875 15.0625 19.339844 15.054688 19.394531 15.042969 C 20.742188 14.6875 22.105469 14.472656 23.488281 14.398438 C 23.578125 14.398438 23.617188 14.363281 23.632812 14.269531 C 23.707031 13.90625 23.769531 13.542969 23.898438 13.1875 Z M 32.628906 15.089844 C 32.628906 15.054688 32.636719 15.042969 32.628906 15.035156 C 32.527344 14.679688 32.398438 14.34375 32.273438 14 C 32.246094 13.933594 32.199219 13.917969 32.144531 13.898438 C 31.644531 13.761719 31.171875 13.550781 30.644531 13.507812 C 30.246094 13.480469 29.863281 13.34375 29.472656 13.269531 C 29.316406 13.242188 29.164062 13.199219 28.988281 13.1875 C 29.015625 13.289062 29.054688 13.378906 29.070312 13.480469 C 29.125 13.789062 29.179688 14.097656 29.226562 14.40625 C 29.246094 14.507812 29.28125 14.554688 29.371094 14.542969 C 29.390625 14.542969 29.417969 14.542969 29.4375 14.554688 C 30.253906 14.652344 31.074219 14.761719 31.882812 14.925781 C 32.117188 14.972656 32.363281 15.027344 32.609375 15.082031 Z M 37.609375 46.054688 C 37.683594 46.042969 37.71875 46 37.757812 45.972656 C 38.265625 45.644531 38.71875 45.261719 39.175781 44.871094 C 39.421875 44.671875 39.648438 44.460938 39.867188 44.234375 C 39.976562 44.117188 39.976562 44.144531 39.894531 44.015625 C 39.585938 43.542969 39.203125 43.144531 38.765625 42.789062 C 38.628906 42.679688 38.492188 42.578125 38.328125 42.507812 C 38.273438 42.835938 38.230469 43.144531 38.175781 43.472656 C 38.320312 43.460938 38.4375 43.417969 38.558594 43.378906 C 38.601562 43.371094 38.648438 43.351562 38.691406 43.363281 C 38.738281 43.363281 38.746094 43.398438 38.71875 43.433594 C 38.703125 43.472656 38.65625 43.480469 38.621094 43.488281 C 38.503906 43.535156 38.382812 43.570312 38.265625 43.605469 C 38.175781 43.632812 38.128906 43.6875 38.109375 43.789062 C 37.976562 44.542969 37.828125 45.296875 37.609375 46.054688 Z M 17.503906 24.066406 C 17.6875 23.738281 17.878906 23.4375 18.132812 23.183594 C 18.386719 22.929688 18.6875 22.746094 19.015625 22.574219 C 18.632812 22.375 18.496094 22.265625 18.3125 22.011719 C 18.167969 21.800781 18.070312 21.574219 17.988281 21.335938 C 17.941406 21.183594 17.886719 21.027344 17.832031 20.863281 C 17.804688 20.898438 17.796875 20.917969 17.785156 20.945312 C 17.613281 21.4375 17.332031 21.855469 16.996094 22.238281 C 16.785156 22.472656 16.550781 22.664062 16.242188 22.753906 C 16.1875 22.773438 16.113281 22.773438 16.058594 22.820312 C 16.695312 23.054688 17.203125 23.4375 17.503906 24.074219 Z M 23.171875 49.898438 C 23.117188 49.546875 23.070312 49.21875 23.015625 48.882812 C 22.988281 48.726562 22.988281 48.726562 22.84375 48.707031 C 21.796875 48.609375 20.75 48.453125 19.722656 48.234375 C 19.585938 48.207031 19.449219 48.164062 19.296875 48.152344 C 19.324219 48.335938 19.40625 48.492188 19.441406 48.65625 C 19.46875 48.753906 19.523438 48.808594 19.625 48.855469 C 20.46875 49.171875 21.332031 49.445312 22.214844 49.671875 C 22.523438 49.753906 22.832031 49.835938 23.171875 49.898438 Z M 8.4375 24.738281 C 8.601562 24.675781 8.746094 24.601562 8.902344 24.554688 C 9.136719 24.472656 9.375 24.390625 9.621094 24.320312 C 9.691406 24.292969 9.730469 24.265625 9.746094 24.183594 C 9.8125 23.910156 9.875 23.636719 9.949219 23.363281 C 10.167969 22.5 10.382812 21.636719 10.722656 20.820312 C 10.722656 20.800781 10.738281 20.773438 10.722656 20.753906 C 10.648438 20.808594 10.601562 20.890625 10.539062 20.964844 C 10.03125 21.582031 9.53125 22.21875 9.113281 22.910156 C 9.058594 23 9.011719 23.09375 8.984375 23.191406 C 8.882812 23.527344 8.792969 23.863281 8.664062 24.183594 C 8.59375 24.375 8.519531 24.566406 8.449219 24.757812 Z M 36.703125 46.773438 C 36.636719 46.753906 36.609375 46.773438 36.582031 46.789062 C 35.636719 47.136719 34.664062 47.417969 33.691406 47.652344 C 33.484375 47.699219 33.363281 47.789062 33.292969 48 C 33.183594 48.328125 33.027344 48.644531 32.765625 48.882812 C 32.765625 48.882812 32.765625 48.898438 32.765625 48.925781 C 34.171875 48.382812 35.492188 47.691406 36.710938 46.773438 Z M 19.179688 48.683594 C 19.1875 48.65625 19.195312 48.644531 19.195312 48.644531 C 19.152344 48.519531 19.097656 48.390625 19.070312 48.253906 C 19.03125 48.117188 18.960938 48.054688 18.824219 48.019531 C 18.003906 47.808594 17.1875 47.5625 16.421875 47.179688 C 16.40625 47.171875 16.378906 47.164062 16.351562 47.191406 C 17.269531 47.734375 18.1875 48.273438 19.1875 48.671875 Z M 10.148438 16.273438 C 10.675781 16.21875 11.15625 16.015625 11.640625 15.808594 C 11.65625 15.808594 11.683594 15.789062 11.695312 15.773438 C 11.722656 15.734375 11.710938 15.707031 11.675781 15.699219 C 11.648438 15.699219 11.621094 15.699219 11.59375 15.699219 C 10.828125 15.679688 10.066406 15.71875 9.300781 15.753906 C 9.085938 15.761719 8.875 15.753906 8.65625 15.699219 C 8.546875 15.671875 8.449219 15.671875 8.339844 15.699219 C 8.285156 15.71875 8.273438 15.753906 8.292969 15.808594 C 8.347656 15.925781 8.4375 16.015625 8.566406 16.054688 C 9.003906 16.191406 9.4375 16.308594 9.902344 16.300781 C 9.984375 16.300781 10.066406 16.300781 10.140625 16.289062 Z M 10.167969 11.78125 C 10.222656 11.878906 10.292969 11.96875 10.339844 12.070312 C 10.539062 12.460938 10.777344 12.835938 11.03125 13.1875 C 11.347656 13.625 11.777344 13.953125 12.222656 14.253906 C 12.230469 14.253906 12.238281 14.269531 12.25 14.269531 C 12.265625 14.269531 12.285156 14.28125 12.292969 14.269531 C 12.3125 14.261719 12.320312 14.226562 12.3125 14.207031 C 12.285156 14.160156 12.25 14.105469 12.222656 14.0625 C 11.894531 13.570312 11.574219 13.070312 11.183594 12.617188 C 10.921875 12.308594 10.648438 12.007812 10.421875 11.671875 C 10.382812 11.617188 10.320312 11.597656 10.257812 11.597656 C 10.128906 11.597656 10.09375 11.652344 10.148438 11.769531 Z M 14.332031 13.679688 C 14.449219 13.097656 14.550781 12.507812 14.605469 11.90625 C 14.640625 11.488281 14.6875 11.070312 14.804688 10.660156 C 14.820312 10.597656 14.820312 10.523438 14.820312 10.460938 C 14.820312 10.425781 14.820312 10.386719 14.777344 10.378906 C 14.742188 10.378906 14.714844 10.378906 14.6875 10.414062 C 14.640625 10.46875 14.621094 10.535156 14.605469 10.597656 C 14.46875 11.089844 14.339844 11.589844 14.277344 12.097656 C 14.203125 12.644531 14.214844 13.199219 14.265625 13.761719 C 14.332031 13.742188 14.332031 13.707031 14.339844 13.671875 Z M 14.332031 13.679688 "/></g></g></svg>