<svg xmlns="http://www.w3.org/2000/svg" xmlns:xlink="http://www.w3.org/1999/xlink" width="70" zoomAndPan="magnify" viewBox="0 0 52.5 52.499999" height="70" preserveAspectRatio="xMidYMid meet" version="1.2"><defs><clipPath id="829679cd21"><path d="M 2.863281 3.863281 L 48.914062 3.863281 L 48.914062 45.269531 L 2.863281 45.269531 Z M 2.863281 3.863281 "/></clipPath></defs><g id="b7335fea95"><g clip-rule="nonzero" clip-path="url(#829679cd21)"><path style=" stroke:none;fill-rule:nonzero;fill:#01313d;fill-opacity:1;" d="M 48.335938 29.613281 C 48.238281 29.8125 48.097656 29.953125 47.878906 29.984375 C 47.636719 30.015625 47.390625 30.046875 47.148438 30.042969 C 45.144531 30.03125 43.140625 30.007812 41.140625 29.996094 C 39.996094 29.988281 38.855469 29.992188 37.714844 29.992188 C 37.625 29.992188 37.535156 29.992188 37.410156 29.992188 C 37.632812 29.074219 37.601562 28.160156 37.65625 27.238281 C 37.769531 27.238281 37.867188 27.238281 37.964844 27.238281 C 40.578125 27.246094 43.1875 27.253906 45.796875 27.261719 C 46.238281 27.265625 46.6875 27.246094 47.125 27.289062 C 47.394531 27.316406 47.660156 27.425781 47.917969 27.527344 C 48.136719 27.613281 48.257812 27.816406 48.34375 28.019531 C 48.570312 28.546875 48.601562 29.082031 48.335938 29.613281 Z M 46.96875 30.722656 C 46.921875 31.195312 46.882812 31.671875 46.824219 32.144531 C 46.738281 32.859375 46.644531 33.574219 46.539062 34.289062 C 46.449219 34.882812 46.113281 35.289062 45.550781 35.503906 C 45.007812 35.710938 44.441406 35.796875 43.863281 35.808594 C 43.832031 35.808594 43.800781 35.800781 43.761719 35.796875 C 43.757812 35.546875 43.773438 35.300781 43.59375 35.0625 C 43.394531 35.28125 43.425781 35.550781 43.375 35.8125 C 43.144531 35.8125 42.914062 35.828125 42.6875 35.808594 C 42.117188 35.753906 41.546875 35.691406 40.976562 35.621094 C 40.414062 35.550781 40.125 35.1875 40.039062 34.660156 C 39.9375 34.054688 39.847656 33.445312 39.792969 32.832031 C 39.734375 32.132812 39.726562 31.425781 39.695312 30.71875 C 39.691406 30.640625 39.691406 30.558594 39.691406 30.464844 C 40.222656 30.464844 40.726562 30.464844 41.265625 30.464844 C 41.25 30.5625 41.246094 30.628906 41.234375 30.691406 C 41.179688 30.992188 41.191406 31.296875 41.222656 31.597656 C 41.226562 31.644531 41.242188 31.695312 41.257812 31.738281 C 41.289062 31.824219 41.347656 31.878906 41.445312 31.871094 C 41.542969 31.867188 41.589844 31.804688 41.605469 31.71875 C 41.671875 31.390625 41.683594 31.066406 41.636719 30.738281 C 41.628906 30.65625 41.617188 30.578125 41.605469 30.480469 C 42.257812 30.480469 42.890625 30.480469 43.515625 30.480469 C 43.515625 30.683594 43.515625 30.871094 43.515625 31.058594 C 43.519531 31.335938 43.527344 31.613281 43.535156 31.890625 C 43.535156 31.921875 43.535156 31.964844 43.550781 31.984375 C 43.589844 32.035156 43.640625 32.105469 43.683594 32.105469 C 43.742188 32.105469 43.832031 32.058594 43.855469 32.003906 C 43.898438 31.914062 43.921875 31.800781 43.925781 31.695312 C 43.933594 31.304688 43.925781 30.910156 43.925781 30.484375 C 44.441406 30.453125 44.984375 30.476562 45.554688 30.464844 C 45.546875 30.613281 45.539062 30.742188 45.53125 30.867188 C 45.523438 31.089844 45.519531 31.3125 45.511719 31.53125 C 45.511719 31.5625 45.519531 31.597656 45.527344 31.628906 C 45.546875 31.722656 45.582031 31.808594 45.695312 31.8125 C 45.808594 31.816406 45.847656 31.734375 45.863281 31.636719 C 45.914062 31.347656 45.964844 31.054688 45.921875 30.757812 C 45.914062 30.679688 45.90625 30.597656 45.894531 30.480469 C 46.265625 30.5 46.613281 30.519531 46.96875 30.539062 C 46.96875 30.613281 46.976562 30.667969 46.96875 30.722656 Z M 36.867188 26.554688 C 36.785156 26.65625 36.703125 26.671875 36.59375 26.671875 C 35.246094 26.660156 33.898438 26.648438 32.554688 26.640625 C 29.53125 26.613281 26.507812 26.589844 23.488281 26.5625 C 20.695312 26.539062 17.902344 26.515625 15.113281 26.492188 C 15.078125 26.492188 15.046875 26.492188 15.003906 26.492188 C 14.707031 26.035156 14.449219 26.035156 14.117188 26.46875 C 13.804688 26.46875 13.484375 26.472656 13.164062 26.464844 C 13.105469 26.464844 13.039062 26.429688 12.992188 26.390625 C 12.902344 26.324219 12.808594 26.25 12.734375 26.164062 C 12.1875 25.527344 11.644531 24.890625 11.097656 24.257812 C 11 24.144531 10.972656 24.03125 10.996094 23.878906 C 11.167969 22.769531 10.535156 21.679688 9.488281 21.277344 C 9.34375 21.222656 9.265625 21.140625 9.207031 21.003906 C 8.597656 19.605469 8.363281 18.140625 8.496094 16.625 C 8.632812 15.097656 9.316406 13.839844 10.429688 12.804688 C 10.511719 12.730469 10.621094 12.675781 10.730469 12.644531 C 11.550781 12.390625 12.371094 12.121094 13.203125 11.90625 C 14.921875 11.464844 16.675781 11.203125 18.4375 11.003906 C 21.289062 10.683594 24.152344 10.558594 27.019531 10.632812 C 28.378906 10.667969 29.742188 10.75 31.101562 10.859375 C 32.308594 10.960938 33.519531 11.09375 34.71875 11.273438 C 36.890625 11.59375 39.019531 12.085938 41.097656 12.804688 C 41.546875 12.957031 41.867188 13.203125 42.148438 13.558594 C 43.027344 14.6875 43.414062 15.96875 43.410156 17.390625 C 43.40625 18.628906 43.164062 19.816406 42.683594 20.960938 C 42.617188 21.113281 42.53125 21.207031 42.367188 21.265625 C 41.3125 21.640625 40.664062 22.769531 40.855469 23.878906 C 40.882812 24.027344 40.863281 24.144531 40.765625 24.265625 C 40.226562 24.949219 39.65625 25.605469 39.019531 26.203125 C 38.890625 26.324219 38.765625 26.457031 38.644531 26.59375 C 38.578125 26.667969 38.507812 26.695312 38.410156 26.691406 C 38.195312 26.683594 37.980469 26.683594 37.769531 26.6875 C 37.660156 26.6875 37.59375 26.652344 37.519531 26.566406 C 37.324219 26.335938 37.050781 26.328125 36.867188 26.554688 Z M 36.667969 29.980469 C 36.597656 29.984375 36.527344 29.992188 36.453125 29.992188 C 34.929688 29.984375 33.402344 29.976562 31.875 29.976562 C 31.738281 29.976562 31.652344 29.9375 31.570312 29.820312 C 30.945312 28.925781 30.152344 28.207031 29.238281 27.621094 C 28.980469 27.457031 28.695312 27.328125 28.421875 27.179688 C 28.421875 27.171875 28.421875 27.160156 28.421875 27.152344 C 31.195312 27.179688 33.964844 27.207031 36.761719 27.238281 C 36.773438 28.152344 36.792969 29.058594 36.667969 29.980469 Z M 29.394531 29.953125 C 29.273438 28.882812 28.753906 28.046875 27.902344 27.410156 C 27.914062 27.398438 27.925781 27.382812 27.9375 27.371094 C 28.050781 27.410156 28.164062 27.449219 28.273438 27.496094 C 28.679688 27.679688 29.046875 27.921875 29.394531 28.199219 C 29.957031 28.652344 30.476562 29.15625 30.921875 29.726562 C 30.96875 29.789062 31.015625 29.859375 31.082031 29.953125 C 30.496094 29.953125 29.957031 29.953125 29.394531 29.953125 Z M 27.621094 29.945312 C 27.660156 29.050781 27.675781 28.167969 27.230469 27.355469 C 28.0625 27.601562 29.007812 28.957031 29.035156 29.945312 C 28.558594 29.945312 28.101562 29.945312 27.621094 29.945312 Z M 27.207031 29.933594 C 26.628906 29.933594 26.058594 29.933594 25.445312 29.933594 C 25.492188 29.84375 25.527344 29.765625 25.566406 29.691406 C 25.839844 29.195312 26.058594 28.671875 26.152344 28.109375 C 26.195312 27.828125 26.226562 27.542969 26.265625 27.238281 C 26.308594 27.234375 26.371094 27.242188 26.433594 27.226562 C 26.734375 27.167969 26.882812 27.339844 26.992188 27.582031 C 27.132812 27.894531 27.210938 28.214844 27.238281 28.554688 C 27.277344 29.011719 27.289062 29.46875 27.207031 29.933594 Z M 24.933594 29.929688 C 24.472656 29.929688 24.023438 29.929688 23.570312 29.929688 C 24.03125 29.140625 25.472656 27.222656 25.898438 27.140625 C 26.007812 27.59375 25.46875 29.164062 24.933594 29.929688 Z M 23.074219 29.773438 C 22.984375 29.902344 22.882812 29.945312 22.726562 29.941406 C 20.894531 29.933594 19.066406 29.929688 17.234375 29.921875 C 16.578125 29.921875 15.921875 29.917969 15.265625 29.914062 C 15.183594 29.914062 15.105469 29.90625 15.027344 29.90625 C 15.027344 28.9375 15.027344 28.003906 15.027344 27.074219 C 15.253906 27.019531 24.675781 27.085938 25.273438 27.140625 C 25.257812 27.171875 25.253906 27.203125 25.234375 27.21875 C 24.71875 27.660156 24.285156 28.175781 23.875 28.710938 C 23.601562 29.0625 23.332031 29.414062 23.074219 29.773438 Z M 13.777344 29.910156 C 10.730469 29.90625 7.683594 29.902344 4.636719 29.894531 C 4.492188 29.894531 4.339844 29.90625 4.199219 29.867188 C 3.726562 29.730469 3.53125 29.359375 3.472656 28.910156 C 3.410156 28.410156 3.515625 27.929688 3.730469 27.472656 C 3.789062 27.347656 3.878906 27.265625 4 27.203125 C 4.429688 26.996094 4.886719 26.914062 5.359375 26.921875 C 6.929688 26.941406 8.5 26.960938 10.066406 26.980469 C 11.28125 26.996094 12.496094 27.007812 13.710938 27.023438 C 13.800781 27.023438 13.886719 27.023438 13.996094 27.023438 C 13.894531 28.007812 13.996094 28.9375 14.046875 29.898438 C 13.953125 29.902344 13.867188 29.910156 13.777344 29.910156 Z M 11.984375 34.492188 C 11.945312 34.699219 11.871094 34.902344 11.789062 35.097656 C 11.699219 35.300781 11.539062 35.449219 11.320312 35.507812 C 11.042969 35.578125 10.761719 35.648438 10.480469 35.679688 C 9.925781 35.734375 9.367188 35.765625 8.8125 35.804688 C 8.75 35.808594 8.683594 35.796875 8.601562 35.792969 C 8.582031 35.523438 8.589844 35.273438 8.410156 35.050781 C 8.195312 35.257812 8.25 35.519531 8.230469 35.785156 C 8.03125 35.777344 7.84375 35.777344 7.660156 35.757812 C 7.226562 35.714844 6.800781 35.625 6.394531 35.460938 C 5.894531 35.253906 5.566406 34.894531 5.476562 34.359375 C 5.367188 33.710938 5.277344 33.0625 5.195312 32.410156 C 5.117188 31.777344 5.0625 31.140625 4.996094 30.503906 C 4.992188 30.472656 4.996094 30.441406 4.996094 30.398438 C 5.363281 30.398438 5.71875 30.398438 6.0625 30.398438 C 6.0625 30.609375 6.054688 30.804688 6.066406 31 C 6.074219 31.195312 6.097656 31.390625 6.121094 31.585938 C 6.132812 31.691406 6.167969 31.78125 6.296875 31.785156 C 6.398438 31.789062 6.464844 31.710938 6.464844 31.558594 C 6.46875 31.246094 6.453125 30.933594 6.441406 30.625 C 6.4375 30.558594 6.429688 30.496094 6.417969 30.394531 C 6.980469 30.382812 7.535156 30.386719 8.097656 30.390625 C 8.078125 30.699219 8.054688 30.984375 8.050781 31.269531 C 8.050781 31.464844 8.074219 31.664062 8.09375 31.859375 C 8.097656 31.90625 8.113281 31.960938 8.140625 31.996094 C 8.183594 32.039062 8.253906 32.097656 8.296875 32.085938 C 8.351562 32.074219 8.429688 32.003906 8.4375 31.949219 C 8.464844 31.691406 8.484375 31.425781 8.488281 31.164062 C 8.488281 30.921875 8.457031 30.675781 8.441406 30.429688 C 8.609375 30.378906 10.011719 30.367188 10.386719 30.414062 C 10.375 30.523438 10.375 30.636719 10.351562 30.746094 C 10.292969 31.023438 10.332031 31.300781 10.363281 31.578125 C 10.382812 31.765625 10.449219 31.851562 10.550781 31.855469 C 10.660156 31.859375 10.746094 31.769531 10.757812 31.59375 C 10.777344 31.316406 10.769531 31.039062 10.765625 30.761719 C 10.765625 30.648438 10.738281 30.535156 10.722656 30.40625 C 11.238281 30.40625 11.742188 30.40625 12.265625 30.40625 C 12.273438 30.457031 12.289062 30.5 12.289062 30.546875 C 12.296875 31.871094 12.230469 33.1875 11.984375 34.492188 Z M 8.6875 21.417969 C 9.816406 21.445312 10.691406 22.351562 10.664062 23.472656 C 10.671875 24.523438 9.78125 25.558594 8.53125 25.511719 C 7.425781 25.46875 6.539062 24.535156 6.566406 23.398438 C 6.59375 22.28125 7.546875 21.390625 8.6875 21.417969 Z M 4.164062 22.292969 C 4.292969 21.65625 4.449219 21.027344 4.6875 20.421875 C 5.039062 19.539062 5.554688 18.785156 6.363281 18.257812 C 6.753906 18 7.171875 17.820312 7.648438 17.816406 C 7.707031 17.816406 7.761719 17.816406 7.847656 17.816406 C 7.90625 18.949219 8.121094 20.035156 8.554688 21.097656 C 7.089844 21.25 6.402344 22.265625 6.285156 23.234375 C 6.167969 24.179688 6.652344 25.164062 7.617188 25.640625 C 8.414062 26.035156 9.703125 26.0625 10.675781 24.800781 C 11.144531 25.335938 11.613281 25.871094 12.078125 26.398438 C 12.070312 26.417969 12.070312 26.425781 12.066406 26.433594 C 12.0625 26.441406 12.054688 26.445312 12.046875 26.445312 C 9.414062 26.441406 6.777344 26.433594 4.140625 26.425781 C 4.101562 26.425781 4.0625 26.414062 4 26.402344 C 3.964844 26.109375 3.925781 25.816406 3.902344 25.523438 C 3.816406 24.433594 3.949219 23.359375 4.164062 22.292969 Z M 13.203125 11.265625 C 14.394531 10.882812 15.605469 10.59375 16.84375 10.417969 C 18.191406 10.226562 19.542969 10.058594 20.898438 9.894531 C 21.539062 9.820312 22.1875 9.777344 22.835938 9.742188 C 23.769531 9.6875 24.707031 9.632812 25.640625 9.617188 C 26.839844 9.597656 28.039062 9.644531 29.234375 9.761719 C 29.917969 9.828125 30.609375 9.851562 31.292969 9.933594 C 32.492188 10.070312 33.691406 10.226562 34.886719 10.394531 C 35.941406 10.539062 36.984375 10.777344 38.011719 11.066406 C 38.921875 11.320312 39.808594 11.640625 40.609375 12.160156 C 40.675781 12.207031 40.742188 12.25 40.792969 12.332031 C 40.648438 12.285156 40.503906 12.238281 40.359375 12.191406 C 38.65625 11.625 36.910156 11.242188 35.136719 10.972656 C 33.878906 10.78125 32.617188 10.609375 31.355469 10.484375 C 28.851562 10.238281 26.339844 10.152344 23.824219 10.222656 C 22.632812 10.253906 21.441406 10.296875 20.253906 10.386719 C 18.175781 10.539062 16.109375 10.8125 14.066406 11.261719 C 13.453125 11.398438 12.839844 11.566406 12.230469 11.71875 C 12.179688 11.730469 12.125 11.738281 12.074219 11.75 C 12.070312 11.730469 12.0625 11.714844 12.058594 11.699219 C 12.441406 11.554688 12.816406 11.390625 13.203125 11.265625 Z M 37.660156 10.324219 C 37.347656 10.253906 37.046875 10.183594 36.746094 10.117188 C 35.664062 9.875 34.570312 9.703125 33.46875 9.578125 C 32.726562 9.492188 31.984375 9.394531 31.242188 9.332031 C 30.285156 9.253906 29.324219 9.203125 28.367188 9.140625 C 27.800781 9.105469 27.234375 9.074219 26.671875 9.027344 C 25.898438 8.964844 25.128906 9 24.359375 9.054688 C 23.246094 9.132812 22.128906 9.203125 21.019531 9.292969 C 20.226562 9.359375 19.433594 9.441406 18.644531 9.546875 C 17.691406 9.671875 16.738281 9.804688 15.796875 9.984375 C 15 10.132812 14.21875 10.355469 13.429688 10.546875 C 13.335938 10.570312 13.242188 10.597656 13.117188 10.632812 C 13.320312 9.234375 13.597656 7.878906 13.949219 6.539062 C 14.53125 6.453125 15.097656 6.363281 15.667969 6.285156 C 16.496094 6.171875 17.324219 6.054688 18.15625 5.96875 C 19.0625 5.875 19.972656 5.796875 20.878906 5.746094 C 22.25 5.667969 23.617188 5.605469 24.988281 5.554688 C 26.398438 5.503906 27.8125 5.507812 29.222656 5.582031 C 30.785156 5.660156 32.328125 5.875 33.855469 6.199219 C 34.929688 6.429688 36.003906 6.660156 37.078125 6.886719 C 37.152344 6.902344 37.222656 6.921875 37.320312 6.949219 C 37.445312 8.074219 37.652344 9.179688 37.660156 10.324219 Z M 13.285156 5.859375 C 14.082031 5.640625 14.886719 5.40625 15.695312 5.207031 C 16.851562 4.917969 18.027344 4.738281 19.210938 4.59375 C 20.597656 4.429688 21.988281 4.332031 23.382812 4.285156 C 24.820312 4.238281 26.257812 4.253906 27.695312 4.320312 C 29.65625 4.410156 31.609375 4.601562 33.546875 4.90625 C 35.0625 5.140625 36.566406 5.453125 38.050781 5.84375 C 38.113281 5.859375 38.175781 5.878906 38.257812 5.902344 C 38.375 6.679688 38.511719 7.457031 38.558594 8.242188 C 38.601562 9.015625 38.613281 9.792969 38.640625 10.605469 C 38.398438 10.53125 38.1875 10.46875 38.015625 10.421875 C 37.972656 9.847656 37.941406 9.308594 37.890625 8.773438 C 37.84375 8.3125 37.785156 7.859375 37.714844 7.402344 C 37.683594 7.203125 37.609375 7.007812 37.558594 6.8125 C 37.523438 6.675781 37.4375 6.605469 37.304688 6.574219 C 36.921875 6.480469 36.542969 6.371094 36.160156 6.292969 C 34.929688 6.042969 33.699219 5.789062 32.464844 5.566406 C 31.421875 5.375 30.367188 5.28125 29.308594 5.222656 C 27.945312 5.152344 26.585938 5.117188 25.222656 5.183594 C 23.933594 5.242188 22.644531 5.277344 21.355469 5.351562 C 19.777344 5.445312 18.195312 5.566406 16.628906 5.824219 C 15.722656 5.972656 14.816406 6.125 13.910156 6.273438 C 13.808594 6.289062 13.769531 6.347656 13.742188 6.425781 C 13.613281 6.78125 13.464844 7.128906 13.375 7.492188 C 13.101562 8.558594 12.871094 9.632812 12.773438 10.757812 C 12.550781 10.84375 12.339844 10.929688 12.105469 11.019531 C 12.402344 9.273438 12.871094 7.589844 13.285156 5.859375 Z M 41.117188 23.402344 C 41.140625 22.285156 42.09375 21.390625 43.234375 21.417969 C 44.363281 21.441406 45.238281 22.351562 45.214844 23.46875 C 45.226562 24.523438 44.332031 25.554688 43.085938 25.511719 C 41.976562 25.46875 41.09375 24.539062 41.117188 23.402344 Z M 44.015625 17.824219 C 44.367188 17.804688 44.695312 17.84375 45.007812 17.984375 C 45.796875 18.34375 46.386719 18.921875 46.816406 19.667969 C 47.195312 20.320312 47.417969 21.03125 47.585938 21.761719 C 47.816406 22.757812 47.996094 23.757812 47.988281 24.78125 C 47.984375 25.289062 47.917969 25.796875 47.878906 26.300781 C 47.859375 26.578125 47.6875 26.726562 47.441406 26.804688 C 47.34375 26.839844 47.230469 26.855469 47.128906 26.855469 C 44.796875 26.804688 42.464844 26.753906 40.132812 26.703125 C 39.960938 26.699219 39.789062 26.703125 39.617188 26.703125 C 39.605469 26.683594 39.59375 26.664062 39.582031 26.644531 C 40.113281 26.035156 40.644531 25.425781 41.191406 24.796875 C 41.25 24.867188 41.304688 24.933594 41.359375 25 C 42.382812 26.242188 44.292969 26.148438 45.191406 24.8125 C 46.027344 23.5625 45.445312 21.789062 44.019531 21.269531 C 43.804688 21.191406 43.578125 21.148438 43.324219 21.082031 C 43.738281 20.050781 43.96875 18.96875 44.015625 17.824219 Z M 41.03125 39.507812 C 41.253906 39.46875 41.480469 39.421875 41.707031 39.382812 C 41.777344 39.371094 41.847656 39.363281 41.917969 39.355469 C 41.675781 39.601562 41.480469 39.851562 41.363281 40.15625 C 41.316406 40.277344 41.21875 40.277344 41.125 40.289062 C 40.648438 40.359375 40.167969 40.421875 39.691406 40.492188 C 39.410156 40.53125 39.128906 40.582031 38.828125 40.628906 C 38.847656 40.339844 38.96875 40.105469 39.148438 39.902344 C 39.199219 39.84375 39.304688 39.816406 39.386719 39.800781 C 39.933594 39.699219 40.480469 39.605469 41.03125 39.507812 Z M 43.527344 39.796875 C 43.746094 40.113281 43.820312 40.34375 43.832031 40.855469 C 43.875 41.253906 43.691406 41.628906 43.339844 41.914062 C 42.964844 42.21875 42.589844 42.257812 42.203125 41.9375 C 41.660156 41.480469 41.324219 40.578125 41.953125 39.757812 C 42.398438 39.179688 43.109375 39.199219 43.527344 39.796875 Z M 41.960938 42.304688 C 41.175781 42.34375 40.386719 42.382812 39.601562 42.421875 C 39.59375 42.421875 39.585938 42.421875 39.574219 42.421875 C 39.195312 42.421875 39.132812 42.375 38.996094 41.976562 C 39.828125 41.820312 40.671875 41.800781 41.488281 41.6875 C 41.679688 41.886719 41.855469 42.074219 42.046875 42.273438 C 42.015625 42.285156 41.988281 42.300781 41.960938 42.304688 Z M 38.875 41.75 C 38.726562 41.480469 38.707031 41.195312 38.765625 40.910156 C 39.601562 40.777344 40.421875 40.648438 41.226562 40.519531 C 41.277344 40.835938 41.332031 41.152344 41.386719 41.492188 C 40.554688 41.53125 39.710938 41.550781 38.875 41.75 Z M 33.070312 40.613281 C 33.128906 40.671875 33.183594 40.742188 33.257812 40.769531 C 33.3125 40.792969 33.40625 40.789062 33.457031 40.753906 C 33.527344 40.710938 33.519531 40.621094 33.472656 40.554688 C 33.410156 40.46875 33.339844 40.386719 33.273438 40.304688 C 33.160156 40.164062 33.046875 40.023438 32.921875 39.867188 C 33.042969 39.804688 33.140625 39.753906 33.246094 39.703125 C 33.417969 39.957031 33.570312 40.199219 33.742188 40.429688 C 33.910156 40.660156 34.09375 40.875 34.28125 41.113281 C 33.933594 41.234375 33.664062 41.425781 33.472656 41.734375 C 33.074219 41.28125 32.691406 40.851562 32.296875 40.40625 C 32.386719 40.3125 32.480469 40.214844 32.585938 40.101562 C 32.757812 40.28125 32.914062 40.449219 33.070312 40.613281 Z M 33.839844 39.738281 C 34.15625 40.105469 34.480469 40.46875 34.796875 40.832031 C 34.851562 40.890625 34.898438 40.957031 34.980469 41.054688 C 34.808594 41.054688 34.695312 41.054688 34.558594 41.054688 C 34.1875 40.605469 33.800781 40.140625 33.410156 39.671875 C 33.679688 39.550781 33.683594 39.554688 33.839844 39.738281 Z M 35.5625 42.671875 C 35.410156 42.910156 35.207031 43.078125 34.957031 43.199219 C 34.285156 43.519531 33.511719 42.90625 33.566406 42.289062 C 33.542969 42.089844 33.628906 41.910156 33.742188 41.746094 C 33.996094 41.375 34.382812 41.234375 34.804688 41.238281 C 35.449219 41.246094 35.953125 42.0625 35.5625 42.671875 Z M 33.292969 42.570312 C 32.828125 41.992188 32.394531 41.460938 31.953125 40.917969 C 32.035156 40.785156 32.109375 40.664062 32.199219 40.519531 C 32.59375 41.003906 32.976562 41.464844 33.359375 41.929688 C 33.339844 42.117188 33.320312 42.316406 33.292969 42.570312 Z M 28.292969 41.78125 C 28.527344 41.757812 28.707031 41.8125 28.863281 41.988281 C 28.980469 42.125 29.089844 42.261719 29.15625 42.433594 C 28.644531 42.496094 28.148438 42.554688 27.65625 42.613281 C 27.371094 42.644531 27.085938 42.683594 26.800781 42.707031 C 26.734375 42.714844 26.636719 42.703125 26.605469 42.660156 C 26.390625 42.394531 26.136719 42.183594 25.828125 42.015625 C 25.914062 42 26 41.984375 26.089844 41.976562 C 26.824219 41.914062 27.558594 41.855469 28.292969 41.78125 Z M 29.289062 42.695312 C 29.417969 42.945312 29.457031 43.222656 29.410156 43.535156 C 28.558594 43.570312 27.730469 43.746094 26.875 43.949219 C 26.875 43.777344 26.890625 43.617188 26.875 43.457031 C 26.855469 43.296875 26.8125 43.140625 26.777344 42.964844 C 27.605469 42.878906 28.429688 42.789062 29.289062 42.695312 Z M 29.230469 44.214844 C 29.195312 44.273438 29.101562 44.3125 29.027344 44.332031 C 28.703125 44.417969 28.375 44.5 28.046875 44.570312 C 27.574219 44.671875 27.101562 44.761719 26.625 44.855469 C 26.574219 44.867188 26.519531 44.867188 26.460938 44.875 C 26.59375 44.636719 26.71875 44.410156 26.859375 44.15625 C 27.65625 44.03125 28.488281 43.898438 29.339844 43.765625 C 29.351562 43.953125 29.296875 44.089844 29.230469 44.214844 Z M 26.207031 44.605469 C 25.949219 44.941406 25.632812 45.050781 25.230469 44.898438 C 24.8125 44.734375 24.507812 44.457031 24.386719 44.003906 C 24.273438 43.597656 24.25 43.199219 24.414062 42.800781 C 24.519531 42.546875 24.683594 42.355469 24.941406 42.242188 C 25.242188 42.109375 25.53125 42.171875 25.785156 42.335938 C 26.25 42.628906 26.519531 43.050781 26.535156 43.605469 C 26.523438 43.980469 26.433594 44.3125 26.207031 44.605469 Z M 19.09375 40.847656 C 19.085938 40.859375 19.078125 40.871094 19.070312 40.882812 C 18.929688 40.832031 18.785156 40.777344 18.632812 40.71875 C 18.667969 40.644531 18.699219 40.582031 18.730469 40.515625 C 18.75 40.472656 18.773438 40.429688 18.8125 40.355469 C 18.917969 40.535156 19.003906 40.691406 19.09375 40.847656 Z M 19.378906 42.144531 C 19.378906 42.839844 18.769531 43.507812 18.136719 43.488281 C 17.347656 43.460938 16.792969 42.808594 16.804688 42.199219 C 16.8125 41.613281 17.304688 40.933594 18.109375 40.9375 C 18.808594 40.941406 19.378906 41.484375 19.378906 42.144531 Z M 15.964844 39.585938 C 16.078125 39.503906 16.203125 39.417969 16.332031 39.328125 C 16.53125 39.957031 16.722656 40.5625 16.925781 41.203125 C 16.824219 41.34375 16.714844 41.5 16.585938 41.675781 C 16.378906 40.972656 16.175781 40.292969 15.964844 39.585938 Z M 17.261719 38.972656 C 17.425781 39.542969 17.589844 40.113281 17.757812 40.691406 C 17.550781 40.792969 17.34375 40.894531 17.128906 40.996094 C 16.933594 40.40625 16.738281 39.820312 16.539062 39.226562 C 16.75 39.082031 16.984375 39.015625 17.261719 38.972656 Z M 18.183594 39.113281 C 18.210938 39.121094 18.234375 39.148438 18.253906 39.175781 C 18.269531 39.199219 18.28125 39.234375 18.292969 39.261719 C 18.375 39.449219 18.507812 39.632812 18.519531 39.824219 C 18.527344 40.015625 18.410156 40.210938 18.351562 40.40625 C 18.324219 40.492188 18.296875 40.578125 18.265625 40.675781 C 18.191406 40.675781 18.113281 40.675781 18.058594 40.675781 C 17.855469 40.105469 17.65625 39.546875 17.449219 38.976562 C 17.722656 38.949219 17.949219 39.046875 18.183594 39.113281 Z M 13.867188 40.15625 C 14.097656 40.136719 14.28125 40.175781 14.441406 40.355469 C 14.558594 40.492188 14.664062 40.632812 14.742188 40.804688 C 14.015625 40.894531 13.316406 40.976562 12.617188 41.058594 C 12.519531 41.070312 12.421875 41.089844 12.324219 41.085938 C 12.273438 41.085938 12.207031 41.0625 12.179688 41.023438 C 11.96875 40.753906 11.707031 40.554688 11.34375 40.394531 C 11.496094 40.375 11.59375 40.359375 11.691406 40.351562 C 12.417969 40.285156 13.144531 40.230469 13.867188 40.15625 Z M 14.871094 41.070312 C 15.007812 41.316406 15.027344 41.59375 14.988281 41.90625 C 14.132812 41.941406 13.300781 42.125 12.488281 42.316406 C 12.453125 41.980469 12.421875 41.667969 12.390625 41.335938 C 13.191406 41.25 14.023438 41.160156 14.871094 41.070312 Z M 14.933594 42.21875 C 14.90625 42.539062 14.742188 42.707031 14.417969 42.765625 C 13.652344 42.910156 12.894531 43.085938 12.132812 43.246094 C 12.109375 43.25 12.085938 43.246094 12.046875 43.246094 C 12.175781 43.007812 12.304688 42.777344 12.4375 42.527344 C 13.25 42.425781 14.070312 42.226562 14.925781 42.164062 C 14.929688 42.203125 14.933594 42.210938 14.933594 42.21875 Z M 11.65625 43.136719 C 11.519531 43.273438 11.355469 43.332031 11.164062 43.328125 C 10.703125 43.308594 10.332031 43.097656 10.113281 42.703125 C 9.84375 42.21875 9.78125 41.695312 10.003906 41.164062 C 10.105469 40.929688 10.257812 40.746094 10.492188 40.632812 C 10.804688 40.476562 11.109375 40.539062 11.378906 40.714844 C 12.332031 41.324219 12.296875 42.476562 11.65625 43.136719 Z M 48.878906 28.578125 C 48.785156 28.09375 48.644531 27.621094 48.347656 27.210938 C 48.296875 27.144531 48.273438 27.082031 48.304688 26.988281 C 48.550781 26.210938 48.605469 25.410156 48.582031 24.601562 C 48.554688 23.664062 48.40625 22.738281 48.203125 21.824219 C 48.03125 21.046875 47.804688 20.28125 47.417969 19.578125 C 46.96875 18.761719 46.359375 18.097656 45.539062 17.644531 C 45.089844 17.398438 44.621094 17.285156 44.117188 17.410156 C 44.09375 17.417969 44.070312 17.410156 44.015625 17.40625 C 44.015625 17.273438 44.019531 17.144531 44.015625 17.015625 C 44.007812 16.882812 43.996094 16.753906 43.984375 16.621094 C 43.84375 14.929688 43.113281 13.527344 41.882812 12.378906 C 41.113281 11.660156 40.210938 11.167969 39.226562 10.8125 C 39.144531 10.78125 39.0625 10.746094 38.992188 10.71875 C 39.007812 10.402344 39.03125 10.109375 39.035156 9.816406 C 39.046875 9.035156 38.980469 8.257812 38.882812 7.484375 C 38.808594 6.882812 38.714844 6.28125 38.535156 5.699219 C 38.515625 5.632812 38.449219 5.566406 38.386719 5.523438 C 38.328125 5.484375 38.25 5.472656 38.179688 5.453125 C 36.800781 5.105469 35.414062 4.824219 34.011719 4.59375 C 32.4375 4.332031 30.859375 4.144531 29.269531 4.027344 C 27.425781 3.886719 25.578125 3.820312 23.730469 3.894531 C 22.820312 3.933594 21.910156 3.984375 21 4.058594 C 20.25 4.121094 19.5 4.222656 18.75 4.3125 C 17.59375 4.449219 16.4375 4.609375 15.304688 4.898438 C 14.675781 5.054688 14.054688 5.230469 13.449219 5.460938 C 13.179688 5.5625 13.035156 5.730469 12.964844 5.992188 C 12.734375 6.804688 12.472656 7.609375 12.277344 8.429688 C 12.066406 9.304688 11.90625 10.195312 11.734375 11.082031 C 11.714844 11.1875 11.65625 11.230469 11.574219 11.277344 C 11.285156 11.449219 10.988281 11.609375 10.714844 11.800781 C 9.066406 12.976562 8.085938 14.550781 7.886719 16.582031 C 7.859375 16.855469 7.847656 17.132812 7.828125 17.417969 C 7.71875 17.402344 7.625 17.386719 7.527344 17.371094 C 7.0625 17.308594 6.652344 17.457031 6.261719 17.683594 C 5.402344 18.179688 4.785156 18.902344 4.347656 19.78125 C 3.992188 20.496094 3.785156 21.253906 3.625 22.027344 C 3.308594 23.53125 3.128906 25.039062 3.449219 26.570312 C 3.472656 26.6875 3.441406 26.769531 3.355469 26.851562 C 3.109375 27.105469 2.933594 27.402344 2.890625 27.757812 C 2.824219 28.34375 2.859375 28.933594 3.09375 29.476562 C 3.316406 30.003906 3.710938 30.363281 4.335938 30.363281 C 4.433594 30.363281 4.53125 30.378906 4.644531 30.386719 C 4.644531 30.511719 4.636719 30.625 4.644531 30.738281 C 4.695312 31.523438 4.730469 32.308594 4.808594 33.09375 C 4.851562 33.566406 4.9375 34.035156 5.039062 34.5 C 5.179688 35.128906 5.539062 35.609375 6.140625 35.867188 C 6.46875 36.007812 6.816406 36.113281 7.164062 36.199219 C 7.691406 36.335938 8.238281 36.332031 8.78125 36.339844 C 9.613281 36.347656 10.433594 36.273438 11.242188 36.066406 C 11.851562 35.910156 12.21875 35.527344 12.386719 34.933594 C 12.640625 34.046875 12.726562 33.144531 12.761719 32.230469 C 12.785156 31.699219 12.765625 31.164062 12.765625 30.628906 C 12.765625 30.558594 12.773438 30.488281 12.777344 30.429688 C 16.035156 30.429688 19.269531 30.429688 22.546875 30.429688 C 22.488281 30.515625 22.457031 30.5625 22.421875 30.605469 C 21.859375 31.324219 21.300781 32.046875 20.734375 32.757812 C 20.226562 33.394531 19.660156 33.980469 19.074219 34.542969 C 18.164062 35.417969 17.160156 36.171875 16.148438 36.917969 C 15.140625 37.664062 14.195312 38.472656 13.433594 39.476562 C 13.324219 39.617188 13.226562 39.796875 13.078125 39.875 C 12.929688 39.957031 12.726562 39.925781 12.550781 39.957031 C 11.917969 40.066406 11.285156 40.160156 10.660156 40.300781 C 10.171875 40.410156 9.855469 40.730469 9.707031 41.226562 C 9.566406 41.699219 9.632812 42.148438 9.761719 42.605469 C 9.917969 43.148438 10.648438 43.683594 11.265625 43.640625 C 11.488281 43.621094 11.707031 43.609375 11.925781 43.570312 C 12.578125 43.453125 13.230469 43.324219 13.882812 43.195312 C 14.179688 43.136719 14.476562 43.074219 14.769531 42.988281 C 14.886719 42.953125 15.03125 42.875 15.085938 42.777344 C 15.304688 42.367188 15.445312 41.925781 15.402344 41.457031 C 15.347656 40.847656 15.027344 40.378906 14.558594 40.011719 C 14.382812 39.875 14.179688 39.820312 13.957031 39.839844 C 13.863281 39.851562 13.765625 39.871094 13.664062 39.8125 C 13.847656 39.621094 14.011719 39.441406 14.1875 39.269531 C 14.597656 38.867188 14.984375 38.4375 15.429688 38.074219 C 16.125 37.5 16.863281 36.976562 17.582031 36.429688 C 18.863281 35.445312 20.046875 34.355469 21.070312 33.101562 C 21.738281 32.28125 22.382812 31.441406 23.027344 30.601562 C 23.128906 30.464844 23.234375 30.417969 23.398438 30.421875 C 23.75 30.433594 24.105469 30.425781 24.457031 30.429688 C 24.507812 30.429688 24.558594 30.441406 24.628906 30.453125 C 24.574219 30.546875 24.539062 30.621094 24.492188 30.6875 C 24.183594 31.140625 23.882812 31.605469 23.554688 32.046875 C 22.625 33.296875 21.667969 34.53125 20.746094 35.789062 C 19.929688 36.898438 19.253906 38.089844 18.726562 39.359375 C 18.710938 39.390625 18.6875 39.417969 18.648438 39.476562 C 18.585938 39.332031 18.542969 39.214844 18.484375 39.109375 C 18.4375 39.027344 18.382812 38.929688 18.300781 38.890625 C 17.585938 38.535156 16.582031 38.628906 15.957031 39.324219 C 15.800781 39.496094 15.746094 39.675781 15.8125 39.910156 C 15.953125 40.40625 16.074219 40.910156 16.207031 41.410156 C 16.320312 41.828125 16.433594 42.246094 16.558594 42.664062 C 16.816406 43.546875 17.726562 43.941406 18.367188 43.824219 C 19.203125 43.675781 19.835938 42.84375 19.707031 42.003906 C 19.636719 41.523438 19.542969 41.03125 19.292969 40.597656 C 19.207031 40.449219 19.136719 40.289062 19.046875 40.140625 C 18.984375 40.039062 18.984375 39.953125 19.035156 39.84375 C 19.210938 39.492188 19.375 39.132812 19.542969 38.777344 C 20.25 37.277344 21.175781 35.910156 22.164062 34.585938 C 23.15625 33.257812 24.203125 31.964844 25.070312 30.546875 C 25.132812 30.449219 25.207031 30.425781 25.316406 30.425781 C 25.855469 30.429688 26.398438 30.429688 26.941406 30.433594 C 26.996094 30.433594 27.050781 30.441406 27.117188 30.445312 C 27.109375 30.515625 27.105469 30.570312 27.089844 30.625 C 26.960938 31.152344 26.84375 31.679688 26.695312 32.199219 C 26.28125 33.636719 25.878906 35.070312 25.71875 36.5625 C 25.605469 37.585938 25.632812 38.59375 25.863281 39.597656 C 26.007812 40.226562 26.292969 40.800781 26.542969 41.390625 C 26.574219 41.460938 26.601562 41.53125 26.636719 41.617188 C 26.496094 41.640625 26.382812 41.652344 26.269531 41.675781 C 25.867188 41.757812 25.460938 41.824219 25.066406 41.925781 C 24.578125 42.054688 24.261719 42.371094 24.121094 42.867188 C 23.984375 43.335938 24.046875 43.785156 24.183594 44.246094 C 24.339844 44.773438 25.058594 45.308594 25.671875 45.265625 C 25.902344 45.25 26.132812 45.234375 26.355469 45.195312 C 27 45.078125 27.644531 44.953125 28.289062 44.824219 C 28.59375 44.761719 28.898438 44.691406 29.199219 44.613281 C 29.386719 44.566406 29.519531 44.457031 29.578125 44.261719 C 29.628906 44.097656 29.699219 43.9375 29.742188 43.773438 C 29.960938 42.949219 29.671875 42.140625 28.984375 41.640625 C 28.8125 41.519531 28.621094 41.453125 28.410156 41.464844 C 28.121094 41.484375 27.835938 41.5 27.546875 41.519531 C 27.363281 41.535156 27.175781 41.554688 26.984375 41.574219 C 26.835938 41.144531 26.6875 40.726562 26.554688 40.304688 C 26.253906 39.335938 26.074219 38.347656 26.121094 37.324219 C 26.171875 36.269531 26.359375 35.238281 26.609375 34.214844 C 26.84375 33.269531 27.105469 32.328125 27.34375 31.382812 C 27.421875 31.074219 27.480469 30.761719 27.542969 30.453125 C 27.867188 30.40625 28.953125 30.425781 29.148438 30.484375 C 29.195312 31.203125 29.242188 31.929688 29.289062 32.660156 C 29.339844 33.464844 29.40625 34.265625 29.582031 35.050781 C 29.839844 36.175781 30.242188 37.242188 30.933594 38.171875 C 31.347656 38.730469 31.832031 39.238281 32.285156 39.769531 C 32.339844 39.835938 32.398438 39.898438 32.453125 39.957031 C 32.230469 40.214844 32.003906 40.429688 31.890625 40.730469 C 31.835938 40.871094 31.839844 40.988281 31.929688 41.121094 C 32.417969 41.835938 32.945312 42.515625 33.550781 43.132812 C 34.1875 43.777344 34.949219 43.691406 35.523438 43.21875 C 36.125 42.726562 36.097656 42.007812 35.707031 41.527344 C 35.367188 41.109375 34.992188 40.714844 34.628906 40.316406 C 34.378906 40.042969 34.109375 39.789062 33.859375 39.519531 C 33.761719 39.414062 33.648438 39.386719 33.527344 39.421875 C 33.277344 39.496094 33.035156 39.585938 32.773438 39.675781 C 32.5625 39.421875 32.332031 39.15625 32.109375 38.882812 C 31.761719 38.449219 31.390625 38.027344 31.082031 37.5625 C 30.253906 36.328125 29.863281 34.9375 29.726562 33.46875 C 29.671875 32.871094 29.640625 32.273438 29.59375 31.675781 C 29.5625 31.273438 29.527344 30.875 29.488281 30.433594 C 29.585938 30.433594 29.667969 30.433594 29.75 30.433594 C 30.21875 30.433594 30.6875 30.441406 31.152344 30.425781 C 31.347656 30.417969 31.453125 30.480469 31.535156 30.652344 C 31.882812 31.386719 32.246094 32.113281 32.59375 32.847656 C 32.910156 33.515625 33.253906 34.167969 33.683594 34.777344 C 34.414062 35.808594 35.332031 36.648438 36.351562 37.378906 C 37.367188 38.109375 38.453125 38.722656 39.578125 39.265625 C 39.632812 39.289062 39.679688 39.328125 39.765625 39.378906 C 39.578125 39.425781 39.429688 39.441406 39.292969 39.496094 C 39.144531 39.554688 38.972656 39.613281 38.871094 39.726562 C 38.445312 40.191406 38.261719 40.75 38.339844 41.382812 C 38.386719 41.757812 38.597656 42.066406 38.792969 42.382812 C 38.964844 42.660156 39.203125 42.769531 39.515625 42.746094 C 39.558594 42.746094 39.597656 42.746094 39.640625 42.742188 C 40.140625 42.71875 40.640625 42.707031 41.140625 42.664062 C 41.710938 42.613281 42.285156 42.554688 42.847656 42.460938 C 43.488281 42.351562 43.894531 41.921875 44.046875 41.320312 C 44.199219 40.699219 44.082031 40.089844 43.683594 39.570312 C 43.496094 39.324219 43.253906 39.132812 42.925781 39.109375 C 42.648438 39.09375 42.371094 39.070312 42.09375 39.085938 C 41.675781 39.113281 41.261719 39.15625 40.847656 39.21875 C 40.621094 39.253906 40.425781 39.21875 40.234375 39.109375 C 40.175781 39.074219 40.117188 39.050781 40.058594 39.015625 C 39.265625 38.550781 38.46875 38.097656 37.6875 37.613281 C 37.199219 37.3125 36.726562 36.980469 36.269531 36.632812 C 34.972656 35.648438 33.960938 34.425781 33.25 32.953125 C 32.871094 32.164062 32.464844 31.382812 32.070312 30.597656 C 32.046875 30.550781 32.03125 30.5 32.011719 30.457031 C 34.421875 30.457031 36.816406 30.457031 39.222656 30.457031 C 39.226562 30.527344 39.234375 30.574219 39.234375 30.621094 C 39.226562 30.941406 39.195312 31.261719 39.210938 31.582031 C 39.246094 32.308594 39.285156 33.039062 39.359375 33.765625 C 39.410156 34.253906 39.507812 34.742188 39.691406 35.203125 C 39.851562 35.605469 40.136719 35.890625 40.550781 36.023438 C 40.777344 36.097656 41.011719 36.152344 41.242188 36.203125 C 42.085938 36.375 42.941406 36.375 43.792969 36.347656 C 44.445312 36.332031 45.082031 36.21875 45.691406 35.972656 C 46.414062 35.679688 46.835938 35.148438 46.984375 34.390625 C 47.175781 33.4375 47.261719 32.472656 47.316406 31.507812 C 47.335938 31.199219 47.347656 30.886719 47.363281 30.558594 C 47.476562 30.550781 47.570312 30.535156 47.667969 30.539062 C 48.121094 30.5625 48.441406 30.339844 48.644531 29.960938 C 48.875 29.53125 48.972656 29.0625 48.878906 28.578125 "/></g><path style=" stroke:none;fill-rule:nonzero;fill:#01313d;fill-opacity:1;" d="M 32.902344 24.019531 C 32.742188 24.042969 32.578125 24.09375 32.390625 24 C 32.390625 23.765625 32.382812 23.523438 32.390625 23.28125 C 32.402344 23.027344 32.421875 22.773438 32.445312 22.519531 C 32.492188 22.035156 32.503906 21.554688 32.414062 21.066406 C 33.097656 20.742188 33.757812 20.390625 34.476562 20.1875 C 34.714844 20.121094 34.949219 20.042969 35.183594 19.96875 C 35.386719 19.90625 35.433594 19.832031 35.386719 19.625 C 35.351562 19.449219 35.292969 19.277344 35.246094 19.101562 C 35.238281 19.066406 35.234375 19.027344 35.222656 18.976562 C 35.945312 19.074219 36.628906 18.929688 37.308594 18.78125 C 38.003906 18.628906 38.695312 18.449219 39.386719 18.277344 C 39.527344 18.242188 39.664062 18.199219 39.828125 18.191406 C 39.753906 18.277344 39.6875 18.363281 39.613281 18.449219 C 39.1875 18.917969 38.753906 19.375 38.34375 19.855469 C 38.132812 20.105469 37.964844 20.390625 37.785156 20.664062 C 37.742188 20.730469 37.714844 20.8125 37.691406 20.890625 C 37.617188 21.136719 37.691406 21.328125 37.910156 21.460938 C 38.027344 21.53125 38.15625 21.589844 38.28125 21.652344 C 38.710938 21.851562 39.140625 22.054688 39.570312 22.253906 C 39.636719 22.285156 39.699219 22.324219 39.761719 22.355469 C 39.761719 22.375 39.761719 22.394531 39.761719 22.410156 C 39.191406 22.589844 38.621094 22.769531 38.046875 22.941406 C 36.945312 23.269531 35.824219 23.503906 34.695312 23.707031 C 34.097656 23.8125 33.5 23.921875 32.902344 24.019531 Z M 31.03125 20.199219 C 30.101562 20.375 29.164062 20.382812 28.234375 20.25 C 27.242188 20.109375 26.257812 19.929688 25.273438 19.757812 C 24.097656 19.558594 22.921875 19.390625 21.726562 19.410156 C 20.558594 19.429688 19.394531 19.511719 18.257812 19.789062 C 17.8125 19.894531 17.378906 20.050781 16.917969 20.195312 C 16.960938 19.511719 17.03125 18.855469 17.179688 18.203125 C 17.40625 17.210938 17.765625 16.257812 18.066406 15.289062 C 18.167969 14.96875 18.335938 14.820312 18.640625 14.707031 C 19.84375 14.269531 21.09375 14.042969 22.355469 13.871094 C 23.414062 13.726562 24.472656 13.625 25.542969 13.671875 C 26.425781 13.710938 27.289062 13.863281 28.136719 14.105469 C 29.535156 14.503906 30.953125 14.640625 32.398438 14.503906 C 32.914062 14.457031 33.421875 14.363281 33.933594 14.289062 C 33.988281 14.28125 34.042969 14.277344 34.105469 14.273438 C 34.253906 16.050781 34.503906 17.800781 35 19.53125 C 34.925781 19.535156 34.867188 19.546875 34.804688 19.546875 C 34.300781 19.53125 33.808594 19.609375 33.320312 19.71875 C 32.558594 19.890625 31.796875 20.054688 31.03125 20.199219 Z M 18.058594 23.402344 C 16.710938 23.78125 13.734375 23.863281 12.996094 23.519531 C 13.0625 23.453125 13.125 23.390625 13.183594 23.332031 C 13.484375 23.019531 13.796875 22.714844 14.082031 22.386719 C 14.203125 22.25 14.289062 22.070312 14.355469 21.898438 C 14.449219 21.652344 14.378906 21.4375 14.160156 21.296875 C 13.992188 21.183594 13.800781 21.097656 13.613281 21.023438 C 13.074219 20.808594 12.515625 20.695312 11.941406 20.601562 C 13.5625 20.148438 15.128906 19.5625 16.667969 18.792969 C 16.640625 19.019531 16.605469 19.214844 16.59375 19.414062 C 16.574219 19.75 16.550781 20.085938 16.566406 20.417969 C 16.574219 20.648438 16.609375 20.636719 16.839844 20.65625 C 17.296875 20.691406 17.757812 20.625 18.238281 20.753906 C 17.980469 21.628906 18.011719 22.519531 18.058594 23.402344 Z M 39.882812 22.757812 C 40.027344 22.710938 40.171875 22.640625 40.304688 22.5625 C 40.453125 22.480469 40.472656 22.324219 40.351562 22.214844 C 40.28125 22.152344 40.191406 22.101562 40.105469 22.0625 C 39.515625 21.792969 38.921875 21.527344 38.332031 21.265625 C 37.964844 21.101562 37.953125 21.0625 38.136719 20.699219 C 38.320312 20.335938 38.59375 20.042969 38.859375 19.742188 C 39.214844 19.339844 39.5625 18.933594 39.902344 18.527344 C 39.992188 18.421875 40.0625 18.296875 40.128906 18.175781 C 40.238281 17.96875 40.175781 17.847656 39.941406 17.824219 C 39.820312 17.8125 39.691406 17.816406 39.574219 17.84375 C 39.136719 17.945312 38.703125 18.074219 38.261719 18.171875 C 37.472656 18.351562 36.679688 18.53125 35.882812 18.6875 C 35.652344 18.730469 35.410156 18.691406 35.15625 18.691406 C 35.136719 18.617188 35.113281 18.546875 35.097656 18.476562 C 34.902344 17.480469 34.71875 16.480469 34.648438 15.460938 C 34.617188 15.046875 34.542969 14.632812 34.464844 14.222656 C 34.414062 13.964844 34.332031 13.910156 34.070312 13.921875 C 33.675781 13.933594 33.28125 13.945312 32.890625 13.988281 C 31.269531 14.167969 29.679688 14.0625 28.109375 13.617188 C 27.199219 13.355469 26.269531 13.199219 25.316406 13.183594 C 24.644531 13.167969 23.972656 13.203125 23.300781 13.277344 C 22.304688 13.386719 21.316406 13.535156 20.347656 13.804688 C 19.648438 14 18.949219 14.21875 18.25 14.425781 C 18.0625 14.480469 17.945312 14.601562 17.878906 14.785156 C 17.46875 15.9375 17.03125 17.078125 16.777344 18.28125 C 16.753906 18.394531 16.699219 18.449219 16.597656 18.480469 C 16.394531 18.550781 16.191406 18.625 15.996094 18.703125 C 14.859375 19.15625 13.726562 19.605469 12.5625 19.980469 C 12.203125 20.097656 11.851562 20.242188 11.503906 20.378906 C 11.414062 20.414062 11.320312 20.464844 11.25 20.527344 C 11.128906 20.628906 11.164062 20.789062 11.308594 20.835938 C 11.378906 20.859375 11.453125 20.859375 11.527344 20.871094 C 11.671875 20.894531 11.820312 20.910156 11.960938 20.949219 C 12.371094 21.070312 12.777344 21.195312 13.183594 21.328125 C 13.417969 21.402344 13.648438 21.492188 13.871094 21.589844 C 14.035156 21.660156 14.0625 21.722656 13.980469 21.878906 C 13.898438 22.039062 13.804688 22.195312 13.683594 22.328125 C 13.386719 22.644531 13.074219 22.949219 12.769531 23.257812 C 12.699219 23.328125 12.632812 23.402344 12.582031 23.484375 C 12.5 23.613281 12.527344 23.722656 12.65625 23.796875 C 12.757812 23.855469 12.867188 23.894531 12.976562 23.925781 C 13.4375 24.042969 13.90625 24.109375 14.382812 24.140625 C 15.714844 24.222656 17.023438 24.082031 18.328125 23.847656 C 18.5625 23.804688 18.558594 23.800781 18.550781 23.558594 C 18.542969 23.238281 18.511719 22.917969 18.53125 22.601562 C 18.585938 21.746094 18.753906 20.910156 19.085938 20.089844 C 19.898438 19.945312 20.71875 19.890625 21.539062 19.898438 C 22.78125 19.90625 24.011719 20.078125 25.230469 20.304688 C 26.292969 20.503906 27.351562 20.742188 28.433594 20.847656 C 29.277344 20.929688 30.121094 20.925781 30.960938 20.792969 C 31.300781 20.738281 31.636719 20.671875 31.996094 20.605469 C 32.011719 20.722656 32.03125 20.832031 32.042969 20.945312 C 32.125 21.777344 32.015625 22.601562 31.976562 23.429688 C 31.964844 23.644531 31.984375 23.871094 32.035156 24.085938 C 32.09375 24.328125 32.238281 24.421875 32.484375 24.421875 C 32.632812 24.421875 32.78125 24.410156 32.925781 24.386719 C 33.4375 24.304688 33.945312 24.207031 34.453125 24.128906 C 35.632812 23.957031 36.800781 23.753906 37.941406 23.390625 C 38.589844 23.183594 39.234375 22.972656 39.882812 22.757812 "/><path style=" stroke:none;fill-rule:nonzero;fill:#01313d;fill-opacity:1;" d="M 8.523438 32.921875 C 8.5 32.867188 8.425781 32.808594 8.367188 32.800781 C 8.324219 32.792969 8.25 32.863281 8.230469 32.914062 C 8.085938 33.339844 8.125 33.753906 8.320312 34.152344 C 8.347656 34.207031 8.433594 34.257812 8.492188 34.257812 C 8.585938 34.261719 8.628906 34.175781 8.632812 34.085938 C 8.632812 33.953125 8.632812 33.824219 8.632812 33.691406 C 8.65625 33.425781 8.632812 33.164062 8.523438 32.921875 "/><path style=" stroke:none;fill-rule:nonzero;fill:#01313d;fill-opacity:1;" d="M 10.511719 32.695312 C 10.453125 32.710938 10.378906 32.769531 10.359375 32.824219 C 10.304688 32.992188 10.273438 33.171875 10.238281 33.324219 C 10.265625 33.488281 10.28125 33.628906 10.3125 33.761719 C 10.332031 33.859375 10.402344 33.921875 10.5 33.929688 C 10.601562 33.9375 10.675781 33.878906 10.707031 33.785156 C 10.808594 33.464844 10.8125 33.140625 10.695312 32.824219 C 10.664062 32.738281 10.605469 32.667969 10.511719 32.695312 "/><path style=" stroke:none;fill-rule:nonzero;fill:#01313d;fill-opacity:1;" d="M 6.277344 32.617188 C 6.238281 32.617188 6.164062 32.683594 6.152344 32.734375 C 6.054688 33.113281 6.050781 33.492188 6.164062 33.871094 C 6.191406 33.964844 6.25 34.035156 6.355469 34.019531 C 6.460938 34.007812 6.496094 33.921875 6.503906 33.824219 C 6.511719 33.71875 6.515625 33.613281 6.523438 33.503906 C 6.53125 33.503906 6.542969 33.503906 6.554688 33.5 C 6.507812 33.242188 6.46875 32.988281 6.410156 32.734375 C 6.398438 32.683594 6.328125 32.617188 6.277344 32.617188 "/><path style=" stroke:none;fill-rule:nonzero;fill:#01313d;fill-opacity:1;" d="M 43.726562 32.871094 C 43.671875 32.789062 43.578125 32.785156 43.515625 32.863281 C 43.476562 32.910156 43.445312 32.972656 43.433594 33.035156 C 43.386719 33.269531 43.351562 33.5 43.3125 33.734375 C 43.320312 33.738281 43.328125 33.738281 43.335938 33.742188 C 43.347656 33.878906 43.351562 34.019531 43.375 34.15625 C 43.382812 34.203125 43.4375 34.269531 43.476562 34.273438 C 43.53125 34.28125 43.597656 34.25 43.648438 34.214844 C 43.683594 34.191406 43.703125 34.136719 43.71875 34.089844 C 43.847656 33.761719 43.867188 33.417969 43.804688 33.074219 C 43.792969 33.003906 43.765625 32.929688 43.726562 32.871094 "/><path style=" stroke:none;fill-rule:nonzero;fill:#01313d;fill-opacity:1;" d="M 41.464844 32.714844 C 41.398438 32.734375 41.316406 32.800781 41.296875 32.863281 C 41.246094 33.015625 41.226562 33.179688 41.195312 33.332031 C 41.222656 33.492188 41.238281 33.636719 41.273438 33.78125 C 41.296875 33.886719 41.371094 33.953125 41.488281 33.949219 C 41.589844 33.945312 41.660156 33.882812 41.683594 33.789062 C 41.765625 33.472656 41.757812 33.15625 41.640625 32.847656 C 41.609375 32.769531 41.558594 32.683594 41.464844 32.714844 "/><path style=" stroke:none;fill-rule:nonzero;fill:#01313d;fill-opacity:1;" d="M 45.710938 32.632812 C 45.664062 32.683594 45.609375 32.726562 45.566406 32.78125 C 45.546875 32.804688 45.550781 32.84375 45.542969 32.875 C 45.464844 33.195312 45.445312 33.515625 45.492188 33.84375 C 45.503906 33.9375 45.519531 34.027344 45.632812 34.039062 C 45.753906 34.054688 45.816406 33.976562 45.835938 33.871094 C 45.871094 33.6875 45.894531 33.503906 45.921875 33.324219 C 45.898438 33.136719 45.882812 32.957031 45.84375 32.785156 C 45.832031 32.726562 45.757812 32.683594 45.710938 32.632812 "/><path style=" stroke:none;fill-rule:nonzero;fill:#01313d;fill-opacity:1;" d="M 8.578125 21.972656 C 9.40625 21.972656 10.0625 22.648438 10.0625 23.492188 C 10.058594 24.320312 9.402344 24.972656 8.570312 24.972656 C 7.746094 24.96875 7.070312 24.28125 7.078125 23.457031 C 7.089844 22.640625 7.765625 21.972656 8.578125 21.972656 Z M 8.605469 25.230469 C 9.558594 25.234375 10.347656 24.457031 10.359375 23.5 C 10.367188 22.558594 9.570312 21.761719 8.613281 21.761719 C 7.652344 21.757812 6.867188 22.539062 6.867188 23.492188 C 6.867188 24.460938 7.632812 25.226562 8.605469 25.230469 "/><path style=" stroke:none;fill-rule:nonzero;fill:#01313d;fill-opacity:1;" d="M 43.136719 21.972656 C 43.96875 21.980469 44.617188 22.652344 44.613281 23.5 C 44.609375 24.324219 43.945312 24.976562 43.117188 24.972656 C 42.300781 24.964844 41.632812 24.292969 41.628906 23.472656 C 41.625 22.652344 42.316406 21.964844 43.136719 21.972656 Z M 43.15625 25.230469 C 44.109375 25.234375 44.898438 24.453125 44.910156 23.5 C 44.917969 22.554688 44.121094 21.761719 43.164062 21.761719 C 42.203125 21.761719 41.417969 22.539062 41.417969 23.496094 C 41.417969 24.460938 42.183594 25.226562 43.15625 25.230469 "/><path style=" stroke:none;fill-rule:nonzero;fill:#01313d;fill-opacity:1;" d="M 25.710938 44.074219 C 25.539062 44.246094 25.292969 44.242188 25.128906 44.058594 C 24.84375 43.75 24.859375 43.210938 25.164062 42.925781 C 25.402344 42.695312 25.6875 42.753906 25.808594 43.058594 C 25.839844 43.125 25.863281 43.195312 25.878906 43.265625 C 25.894531 43.347656 25.898438 43.429688 25.902344 43.476562 C 25.910156 43.722656 25.867188 43.917969 25.710938 44.074219 Z M 26.015625 42.8125 C 25.75 42.457031 25.269531 42.453125 24.984375 42.785156 C 24.644531 43.1875 24.617188 43.632812 24.804688 44.097656 C 25.003906 44.578125 25.5625 44.683594 25.9375 44.324219 C 26.15625 44.113281 26.246094 43.851562 26.246094 43.550781 C 26.246094 43.28125 26.179688 43.027344 26.015625 42.8125 "/><path style=" stroke:none;fill-rule:nonzero;fill:#01313d;fill-opacity:1;" d="M 11.308594 42.433594 C 11.132812 42.621094 10.875 42.617188 10.707031 42.429688 C 10.421875 42.109375 10.445312 41.582031 10.753906 41.292969 C 10.996094 41.066406 11.273438 41.128906 11.394531 41.4375 C 11.429688 41.519531 11.457031 41.609375 11.472656 41.695312 C 11.488281 41.765625 11.488281 41.839844 11.492188 41.875 C 11.492188 42.109375 11.445312 42.289062 11.308594 42.433594 Z M 11.585938 41.167969 C 11.320312 40.832031 10.84375 40.835938 10.570312 41.160156 C 10.242188 41.550781 10.191406 41.980469 10.375 42.445312 C 10.582031 42.960938 11.171875 43.070312 11.554688 42.664062 C 11.75 42.457031 11.828125 42.203125 11.835938 41.898438 C 11.824219 41.648438 11.757812 41.386719 11.585938 41.167969 "/><path style=" stroke:none;fill-rule:nonzero;fill:#01313d;fill-opacity:1;" d="M 42.214844 40.332031 C 42.265625 40.03125 42.507812 39.914062 42.78125 40.050781 C 43.070312 40.195312 43.195312 40.414062 43.207031 40.769531 C 43.191406 40.875 43.191406 40.984375 43.15625 41.082031 C 43.0625 41.371094 42.773438 41.464844 42.53125 41.28125 C 42.441406 41.214844 42.363281 41.121094 42.3125 41.023438 C 42.203125 40.808594 42.175781 40.570312 42.214844 40.332031 Z M 41.953125 41.058594 C 42.050781 41.3125 42.210938 41.515625 42.460938 41.632812 C 42.882812 41.839844 43.324219 41.628906 43.4375 41.175781 C 43.457031 41.089844 43.464844 41 43.476562 40.910156 C 43.492188 40.421875 43.257812 40.078125 42.859375 39.835938 C 42.765625 39.777344 42.644531 39.738281 42.539062 39.746094 C 42.21875 39.765625 41.976562 39.996094 41.90625 40.308594 C 41.851562 40.5625 41.863281 40.8125 41.953125 41.058594 "/><path style=" stroke:none;fill-rule:nonzero;fill:#01313d;fill-opacity:1;" d="M 18.222656 42.929688 C 17.777344 43.007812 17.410156 42.695312 17.414062 42.195312 C 17.460938 41.941406 17.472656 41.636719 17.757812 41.433594 C 18.160156 41.152344 18.699219 41.324219 18.851562 41.796875 C 19.015625 42.3125 18.722656 42.839844 18.222656 42.929688 Z M 18.074219 41.089844 C 17.957031 41.101562 17.835938 41.148438 17.738281 41.210938 C 17.4375 41.410156 17.304688 41.710938 17.242188 42.054688 C 17.171875 42.429688 17.308594 42.84375 17.609375 43.03125 C 17.933594 43.234375 18.28125 43.210938 18.609375 43.027344 C 18.980469 42.816406 19.085938 42.464844 19.097656 41.980469 C 19.136719 41.40625 18.605469 41.039062 18.074219 41.089844 "/><path style=" stroke:none;fill-rule:nonzero;fill:#01313d;fill-opacity:1;" d="M 35.003906 41.617188 C 35.191406 41.714844 35.253906 41.886719 35.253906 42.089844 C 35.25 42.382812 34.878906 42.789062 34.582031 42.808594 C 34.503906 42.8125 34.398438 42.785156 34.339844 42.734375 C 33.957031 42.410156 34.003906 41.902344 34.398438 41.625 C 34.570312 41.503906 34.804688 41.515625 35.003906 41.617188 Z M 33.878906 42.238281 C 33.929688 42.398438 33.960938 42.570312 34.039062 42.71875 C 34.148438 42.9375 34.339844 43.066406 34.597656 43.042969 C 34.949219 43.011719 35.335938 42.667969 35.425781 42.328125 C 35.53125 41.921875 35.320312 41.507812 34.957031 41.433594 C 34.832031 41.410156 34.699219 41.433594 34.570312 41.453125 C 34.144531 41.523438 33.914062 41.800781 33.878906 42.238281 "/><path style=" stroke:none;fill-rule:nonzero;fill:#01313d;fill-opacity:1;" d="M 22.164062 16.453125 C 22.039062 16.398438 21.921875 16.441406 21.828125 16.535156 C 21.671875 16.6875 21.519531 16.851562 21.367188 17.011719 C 21.300781 17.085938 21.242188 17.171875 21.15625 17.28125 C 21.113281 17.132812 21.085938 17.03125 21.054688 16.933594 C 21.007812 16.792969 20.96875 16.648438 20.902344 16.515625 C 20.792969 16.304688 20.558594 16.308594 20.441406 16.515625 C 20.40625 16.574219 20.386719 16.636719 20.363281 16.699219 C 20.148438 17.289062 19.933594 17.882812 19.722656 18.476562 C 19.703125 18.527344 19.675781 18.582031 19.675781 18.636719 C 19.675781 18.777344 19.800781 18.84375 19.914062 18.765625 C 19.945312 18.746094 19.972656 18.710938 20 18.679688 C 20.242188 18.425781 20.394531 18.121094 20.523438 17.796875 C 20.566406 17.6875 20.617188 17.578125 20.675781 17.4375 C 20.730469 17.59375 20.761719 17.714844 20.816406 17.824219 C 20.921875 18.035156 21.121094 18.054688 21.273438 17.875 C 21.324219 17.8125 21.363281 17.738281 21.410156 17.671875 C 21.53125 17.511719 21.652344 17.351562 21.773438 17.1875 C 21.789062 17.199219 21.800781 17.210938 21.8125 17.222656 C 21.777344 17.53125 21.730469 17.839844 21.710938 18.148438 C 21.703125 18.296875 21.738281 18.453125 21.777344 18.601562 C 21.800781 18.691406 21.875 18.753906 21.980469 18.753906 C 22.085938 18.75 22.148438 18.679688 22.171875 18.589844 C 22.203125 18.480469 22.226562 18.367188 22.234375 18.253906 C 22.261719 17.902344 22.277344 17.550781 22.296875 17.199219 C 22.304688 17.058594 22.320312 16.921875 22.328125 16.78125 C 22.335938 16.640625 22.304688 16.511719 22.164062 16.453125 "/><path style=" stroke:none;fill-rule:nonzero;fill:#01313d;fill-opacity:1;" d="M 32.78125 17.957031 C 32.714844 18.460938 32.433594 18.710938 31.878906 18.730469 C 31.890625 18.242188 31.90625 17.757812 31.921875 17.285156 C 32.445312 17.128906 32.84375 17.460938 32.78125 17.957031 Z M 32.058594 16.835938 C 31.953125 16.847656 31.847656 16.84375 31.699219 16.851562 C 31.675781 16.90625 31.621094 16.992188 31.613281 17.082031 C 31.558594 17.6875 31.511719 18.289062 31.464844 18.894531 C 31.460938 18.941406 31.460938 18.992188 31.472656 19.039062 C 31.503906 19.179688 31.644531 19.246094 31.746094 19.148438 C 31.835938 19.058594 31.914062 19.082031 32.011719 19.09375 C 32.097656 19.101562 32.191406 19.105469 32.277344 19.089844 C 32.71875 19.007812 33.023438 18.765625 33.152344 18.328125 C 33.289062 17.863281 33.191406 17.453125 32.839844 17.117188 C 32.625 16.90625 32.367188 16.804688 32.058594 16.835938 "/><path style=" stroke:none;fill-rule:nonzero;fill:#01313d;fill-opacity:1;" d="M 27.195312 17.339844 C 27.074219 17.417969 26.941406 17.480469 26.785156 17.464844 C 26.785156 17.253906 26.785156 17.054688 26.785156 16.808594 C 26.941406 16.859375 27.0625 16.878906 27.167969 16.929688 C 27.355469 17.027344 27.367188 17.222656 27.195312 17.339844 Z M 27.484375 16.730469 C 27.273438 16.550781 27.027344 16.492188 26.75 16.5625 C 26.5 16.625 26.5 16.613281 26.46875 16.859375 C 26.398438 17.378906 26.320312 17.898438 26.261719 18.417969 C 26.246094 18.570312 26.265625 18.730469 26.296875 18.878906 C 26.308594 18.933594 26.390625 18.992188 26.453125 19.003906 C 26.484375 19.011719 26.5625 18.933594 26.574219 18.882812 C 26.621094 18.726562 26.640625 18.5625 26.671875 18.402344 C 26.683594 18.339844 26.699219 18.273438 26.71875 18.160156 C 26.890625 18.414062 27.027344 18.617188 27.167969 18.816406 C 27.21875 18.890625 27.273438 18.964844 27.335938 19.027344 C 27.40625 19.09375 27.492188 19.117188 27.582031 19.054688 C 27.671875 18.996094 27.695312 18.910156 27.664062 18.820312 C 27.628906 18.730469 27.582031 18.640625 27.519531 18.5625 C 27.332031 18.320312 27.132812 18.078125 26.929688 17.828125 C 27.089844 17.769531 27.242188 17.730469 27.378906 17.664062 C 27.769531 17.464844 27.820312 17.011719 27.484375 16.730469 "/><path style=" stroke:none;fill-rule:nonzero;fill:#01313d;fill-opacity:1;" d="M 25.4375 17.222656 C 25.316406 17.296875 25.171875 17.332031 24.996094 17.402344 C 25.019531 17.183594 25.035156 17.019531 25.054688 16.808594 C 25.199219 16.835938 25.316406 16.839844 25.414062 16.882812 C 25.582031 16.960938 25.59375 17.128906 25.4375 17.222656 Z M 25.792969 17.320312 C 26.046875 16.984375 25.875 16.539062 25.457031 16.480469 C 25.324219 16.457031 25.183594 16.511719 25.046875 16.5 C 24.847656 16.480469 24.78125 16.59375 24.746094 16.75 C 24.632812 17.238281 24.515625 17.722656 24.414062 18.210938 C 24.386719 18.355469 24.398438 18.507812 24.398438 18.652344 C 24.398438 18.75 24.433594 18.835938 24.546875 18.847656 C 24.65625 18.863281 24.707031 18.789062 24.738281 18.699219 C 24.757812 18.652344 24.773438 18.605469 24.785156 18.558594 C 24.828125 18.367188 24.871094 18.179688 24.921875 17.957031 C 24.972656 18.03125 25.011719 18.082031 25.046875 18.132812 C 25.214844 18.375 25.382812 18.617188 25.554688 18.855469 C 25.589844 18.910156 25.640625 18.964844 25.699219 18.984375 C 25.75 19.003906 25.828125 19 25.875 18.96875 C 25.90625 18.953125 25.910156 18.867188 25.894531 18.820312 C 25.871094 18.742188 25.832031 18.667969 25.789062 18.601562 C 25.59375 18.308594 25.394531 18.019531 25.183594 17.707031 C 25.421875 17.609375 25.644531 17.519531 25.792969 17.320312 "/><path style=" stroke:none;fill-rule:nonzero;fill:#01313d;fill-opacity:1;" d="M 23.566406 17.414062 C 23.480469 17.414062 23.410156 17.414062 23.324219 17.414062 C 23.347656 17.238281 23.425781 17.117188 23.566406 17 C 23.566406 17.15625 23.566406 17.28125 23.566406 17.414062 Z M 23.949219 16.90625 C 23.9375 16.796875 23.890625 16.683594 23.839844 16.585938 C 23.730469 16.378906 23.542969 16.351562 23.375 16.511719 C 23.308594 16.582031 23.238281 16.65625 23.191406 16.742188 C 22.882812 17.285156 22.640625 17.855469 22.511719 18.472656 C 22.496094 18.539062 22.496094 18.621094 22.511719 18.6875 C 22.527344 18.734375 22.582031 18.796875 22.621094 18.796875 C 22.675781 18.800781 22.753906 18.769531 22.78125 18.722656 C 22.832031 18.640625 22.851562 18.542969 22.882812 18.449219 C 22.964844 18.203125 23.050781 17.960938 23.136719 17.707031 C 23.296875 17.730469 23.425781 17.746094 23.574219 17.765625 C 23.574219 17.996094 23.570312 18.199219 23.574219 18.402344 C 23.574219 18.476562 23.582031 18.550781 23.597656 18.621094 C 23.625 18.714844 23.695312 18.78125 23.792969 18.785156 C 23.902344 18.789062 23.980469 18.726562 24.011719 18.621094 C 24.03125 18.542969 24.050781 18.457031 24.046875 18.378906 C 24.019531 17.886719 23.988281 17.398438 23.949219 16.90625 "/><path style=" stroke:none;fill-rule:nonzero;fill:#01313d;fill-opacity:1;" d="M 30.839844 16.835938 C 30.578125 16.816406 30.316406 16.792969 30.054688 16.785156 C 29.933594 16.785156 29.839844 16.851562 29.8125 16.984375 C 29.785156 17.121094 29.746094 17.257812 29.730469 17.394531 C 29.691406 17.675781 29.667969 17.960938 29.640625 18.246094 C 29.617188 18.492188 29.582031 18.734375 29.570312 18.980469 C 29.558594 19.199219 29.660156 19.289062 29.878906 19.300781 C 29.992188 19.308594 30.109375 19.328125 30.222656 19.320312 C 30.367188 19.3125 30.511719 19.292969 30.65625 19.253906 C 30.757812 19.230469 30.820312 19.144531 30.804688 19.03125 C 30.785156 18.914062 30.695312 18.875 30.585938 18.871094 C 30.546875 18.871094 30.507812 18.878906 30.464844 18.878906 C 30.320312 18.875 30.179688 18.871094 30.027344 18.867188 C 30.046875 18.597656 30.066406 18.363281 30.082031 18.117188 C 30.277344 18.117188 30.453125 18.117188 30.632812 18.117188 C 30.746094 18.117188 30.847656 18.09375 30.875 17.957031 C 30.894531 17.851562 30.816406 17.761719 30.667969 17.726562 C 30.621094 17.714844 30.570312 17.714844 30.523438 17.707031 C 30.382812 17.683594 30.238281 17.660156 30.089844 17.636719 C 30.105469 17.460938 30.113281 17.308594 30.125 17.144531 C 30.183594 17.140625 30.230469 17.136719 30.277344 17.132812 C 30.457031 17.128906 30.636719 17.128906 30.816406 17.125 C 30.910156 17.125 30.976562 17.078125 30.976562 16.980469 C 30.976562 16.894531 30.921875 16.839844 30.839844 16.835938 "/><path style=" stroke:none;fill-rule:nonzero;fill:#01313d;fill-opacity:1;" d="M 24.742188 14.222656 C 24.746094 14.222656 24.75 14.21875 24.75 14.21875 C 24.75 14.214844 24.75 14.214844 24.75 14.214844 C 24.75 14.214844 24.746094 14.21875 24.742188 14.21875 C 24.742188 14.21875 24.742188 14.222656 24.742188 14.222656 "/><path style=" stroke:none;fill-rule:nonzero;fill:#01313d;fill-opacity:1;" d="M 24.699219 15.265625 C 24.695312 15.371094 24.722656 15.480469 24.757812 15.578125 C 24.855469 15.863281 25.113281 15.941406 25.335938 15.746094 C 25.457031 15.644531 25.570312 15.507812 25.625 15.359375 C 25.722656 15.109375 25.773438 14.84375 25.835938 14.582031 C 25.855469 14.484375 25.875 14.382812 25.863281 14.289062 C 25.855469 14.226562 25.808594 14.148438 25.757812 14.121094 C 25.679688 14.078125 25.613281 14.140625 25.585938 14.214844 C 25.546875 14.320312 25.515625 14.433594 25.484375 14.542969 C 25.421875 14.753906 25.367188 14.964844 25.296875 15.175781 C 25.269531 15.253906 25.253906 15.375 25.132812 15.355469 C 25.003906 15.335938 25.019531 15.207031 25.015625 15.117188 C 25.007812 14.976562 25.015625 14.835938 25.023438 14.699219 C 25.027344 14.574219 25.046875 14.453125 25.050781 14.332031 C 25.050781 14.230469 25.097656 14.101562 24.957031 14.058594 C 24.828125 14.019531 24.8125 14.15625 24.75 14.21875 C 24.75 14.257812 24.75 14.296875 24.746094 14.335938 C 24.730469 14.648438 24.707031 14.957031 24.699219 15.265625 "/><path style=" stroke:none;fill-rule:nonzero;fill:#01313d;fill-opacity:1;" d="M 25.789062 15.464844 C 25.777344 15.527344 25.792969 15.617188 25.828125 15.667969 C 25.941406 15.828125 26.097656 15.929688 26.308594 15.910156 C 26.554688 15.890625 26.769531 15.800781 26.941406 15.625 C 27.144531 15.421875 27.148438 15.121094 26.9375 14.925781 C 26.84375 14.839844 26.722656 14.777344 26.613281 14.710938 C 26.539062 14.667969 26.460938 14.628906 26.347656 14.570312 C 26.453125 14.492188 26.519531 14.441406 26.597656 14.378906 C 26.679688 14.472656 26.734375 14.554688 26.808594 14.613281 C 26.851562 14.648438 26.9375 14.667969 26.980469 14.648438 C 27.023438 14.625 27.0625 14.535156 27.050781 14.488281 C 27.035156 14.402344 26.992188 14.3125 26.929688 14.253906 C 26.699219 14.03125 26.433594 14.050781 26.222656 14.292969 C 26 14.546875 26.042969 14.773438 26.335938 14.933594 C 26.421875 14.980469 26.519531 15.011719 26.597656 15.066406 C 26.753906 15.179688 26.753906 15.351562 26.59375 15.449219 C 26.492188 15.511719 26.367188 15.570312 26.253906 15.574219 C 26.179688 15.574219 26.105469 15.472656 26.03125 15.414062 C 26.019531 15.402344 26.007812 15.390625 25.992188 15.382812 C 25.90625 15.324219 25.804688 15.355469 25.789062 15.464844 "/><path style=" stroke:none;fill-rule:nonzero;fill:#01313d;fill-opacity:1;" d="M 28.910156 18.554688 C 28.820312 18.621094 28.726562 18.683594 28.597656 18.777344 C 28.574219 18.609375 28.535156 18.484375 28.542969 18.359375 C 28.558594 18.082031 28.597656 17.804688 28.625 17.53125 C 28.636719 17.40625 28.652344 17.285156 28.640625 17.164062 C 28.636719 17.113281 28.574219 17.050781 28.527344 17.03125 C 28.453125 17 28.378906 17.035156 28.347656 17.117188 C 28.308594 17.207031 28.269531 17.300781 28.253906 17.394531 C 28.203125 17.765625 28.15625 18.140625 28.113281 18.511719 C 28.105469 18.609375 28.105469 18.710938 28.125 18.804688 C 28.191406 19.15625 28.453125 19.285156 28.761719 19.113281 C 28.894531 19.042969 29.015625 18.9375 29.132812 18.835938 C 29.257812 18.730469 29.277344 18.621094 29.214844 18.539062 C 29.148438 18.453125 29.050781 18.457031 28.910156 18.554688 "/><path style=" stroke:none;fill-rule:nonzero;fill:#01313d;fill-opacity:1;" d="M 24.554688 14.011719 C 24.1875 14.039062 23.824219 14.082031 23.457031 14.125 C 23.417969 14.128906 23.378906 14.148438 23.347656 14.171875 C 23.28125 14.222656 23.292969 14.320312 23.371094 14.347656 C 23.421875 14.367188 23.484375 14.367188 23.539062 14.367188 C 23.675781 14.371094 23.808594 14.367188 23.972656 14.367188 C 23.90625 14.644531 23.863281 14.886719 23.785156 15.117188 C 23.691406 15.398438 23.582031 15.433594 23.308594 15.3125 C 23.292969 15.304688 23.277344 15.292969 23.265625 15.292969 C 23.21875 15.296875 23.152344 15.292969 23.132812 15.320312 C 23.101562 15.355469 23.078125 15.429688 23.09375 15.46875 C 23.152344 15.597656 23.238281 15.707031 23.382812 15.75 C 23.625 15.824219 23.90625 15.730469 24.035156 15.484375 C 24.121094 15.320312 24.171875 15.132812 24.207031 14.953125 C 24.246094 14.753906 24.253906 14.550781 24.273438 14.367188 C 24.441406 14.3125 24.59375 14.265625 24.742188 14.21875 C 24.722656 14.035156 24.703125 14.003906 24.554688 14.011719 "/><path style=" stroke:none;fill-rule:nonzero;fill:#01313d;fill-opacity:1;" d="M 28.152344 15.472656 C 28.167969 15.1875 28.183594 14.902344 28.199219 14.613281 C 28.359375 14.59375 28.496094 14.578125 28.632812 14.566406 C 28.71875 14.558594 28.789062 14.519531 28.78125 14.4375 C 28.773438 14.386719 28.707031 14.34375 28.667969 14.300781 C 28.65625 14.289062 28.640625 14.28125 28.625 14.277344 C 28.257812 14.195312 27.890625 14.207031 27.527344 14.257812 C 27.433594 14.269531 27.367188 14.335938 27.386719 14.425781 C 27.398438 14.480469 27.46875 14.542969 27.527344 14.5625 C 27.617188 14.59375 27.71875 14.59375 27.847656 14.613281 C 27.839844 14.679688 27.832031 14.726562 27.832031 14.773438 C 27.808594 15.097656 27.78125 15.425781 27.765625 15.753906 C 27.757812 15.890625 27.832031 15.980469 27.933594 15.976562 C 28.054688 15.976562 28.109375 15.894531 28.125 15.789062 C 28.140625 15.683594 28.148438 15.578125 28.152344 15.472656 "/><path style=" stroke:none;fill-rule:nonzero;fill:#01313d;fill-opacity:1;" d="M 28.269531 16.679688 C 28.265625 16.804688 28.378906 16.917969 28.5 16.917969 C 28.625 16.917969 28.738281 16.804688 28.742188 16.683594 C 28.746094 16.558594 28.636719 16.449219 28.511719 16.445312 C 28.386719 16.445312 28.273438 16.558594 28.269531 16.679688 "/><path style=" stroke:none;fill-rule:nonzero;fill:#01313d;fill-opacity:1;" d="M 17.417969 19.164062 C 17.296875 19.167969 17.203125 19.277344 17.210938 19.394531 C 17.222656 19.515625 17.328125 19.605469 17.449219 19.589844 C 17.554688 19.578125 17.644531 19.480469 17.644531 19.375 C 17.640625 19.257812 17.53125 19.15625 17.417969 19.164062 "/><path style=" stroke:none;fill-rule:nonzero;fill:#01313d;fill-opacity:1;" d="M 34.265625 19.179688 C 34.378906 19.183594 34.488281 19.082031 34.492188 18.96875 C 34.492188 18.851562 34.390625 18.75 34.273438 18.753906 C 34.160156 18.753906 34.070312 18.835938 34.0625 18.949219 C 34.054688 19.070312 34.144531 19.175781 34.265625 19.179688 "/><path style=" stroke:none;fill-rule:nonzero;fill:#01313d;fill-opacity:1;" d="M 33.613281 15.042969 C 33.730469 15.046875 33.828125 14.945312 33.828125 14.824219 C 33.828125 14.714844 33.738281 14.625 33.628906 14.621094 C 33.515625 14.621094 33.414062 14.722656 33.417969 14.839844 C 33.417969 14.949219 33.507812 15.042969 33.613281 15.042969 "/><path style=" stroke:none;fill-rule:nonzero;fill:#01313d;fill-opacity:1;" d="M 18.496094 15.070312 C 18.410156 15.050781 18.332031 15.148438 18.339844 15.246094 C 18.34375 15.339844 18.398438 15.394531 18.492188 15.394531 C 18.585938 15.398438 18.65625 15.316406 18.648438 15.175781 C 18.613281 15.148438 18.558594 15.085938 18.496094 15.070312 "/></g></svg>