<svg xmlns="http://www.w3.org/2000/svg" xmlns:xlink="http://www.w3.org/1999/xlink" width="70" zoomAndPan="magnify" viewBox="0 0 52.5 52.499999" height="70" preserveAspectRatio="xMidYMid meet" version="1.0"><defs><clipPath id="00db8759fe"><path d="M 3.710938 5.199219 L 48.332031 5.199219 L 48.332031 47.664062 L 3.710938 47.664062 Z M 3.710938 5.199219 " clip-rule="nonzero"/></clipPath><clipPath id="599c955268"><path d="M 26.003906 5.199219 C 13.691406 5.199219 3.710938 14.707031 3.710938 26.433594 C 3.710938 38.160156 13.691406 47.664062 26.003906 47.664062 C 38.3125 47.664062 48.292969 38.160156 48.292969 26.433594 C 48.292969 14.707031 38.3125 5.199219 26.003906 5.199219 Z M 26.003906 5.199219 " clip-rule="nonzero"/></clipPath><clipPath id="0e1ac8fcd0"><path d="M 7.644531 9.441406 L 44.050781 9.441406 L 44.050781 36.929688 L 7.644531 36.929688 Z M 7.644531 9.441406 " clip-rule="nonzero"/></clipPath></defs><g clip-path="url(#00db8759fe)"><g clip-path="url(#599c955268)"><path fill="#cc142a" d="M 3.710938 5.199219 L 48.332031 5.199219 L 48.332031 47.664062 L 3.710938 47.664062 Z M 3.710938 5.199219 " fill-opacity="1" fill-rule="nonzero"/></g></g><path fill="#fccdd5" d="M 12.847656 22.621094 L 12.128906 21.378906 L 11.410156 22.621094 L 12.128906 23.824219 Z M 12.847656 22.621094 " fill-opacity="1" fill-rule="nonzero"/><path fill="#fccdd5" d="M 21.015625 19.660156 L 20.335938 18.417969 L 19.613281 19.660156 L 20.335938 20.859375 Z M 21.015625 19.660156 " fill-opacity="1" fill-rule="nonzero"/><path fill="#fccdd5" d="M 40.589844 22.621094 L 39.867188 21.378906 L 39.148438 22.621094 L 39.867188 23.824219 Z M 40.589844 22.621094 " fill-opacity="1" fill-rule="nonzero"/><path fill="#fccdd5" d="M 32.382812 19.660156 L 31.664062 18.417969 L 30.980469 19.660156 L 31.664062 20.859375 Z M 32.382812 19.660156 " fill-opacity="1" fill-rule="nonzero"/><g clip-path="url(#0e1ac8fcd0)"><path fill="#fccdd5" d="M 38.828125 27.746094 L 36.226562 19.140625 L 31.300781 25.582031 L 26.660156 16.378906 L 28.058594 13.574219 L 26.019531 9.492188 L 23.9375 13.574219 L 25.339844 16.378906 L 20.695312 25.542969 L 15.851562 19.140625 L 13.25 27.785156 L 7.644531 21.339844 L 11.488281 33.507812 L 11.527344 33.589844 L 11.527344 36.550781 L 40.46875 36.550781 L 40.46875 33.589844 L 40.546875 33.390625 L 44.351562 21.339844 Z M 39.109375 32.910156 L 35.945312 32.910156 L 38.308594 30.1875 Z M 35.746094 21.742188 L 37.90625 28.824219 L 34.785156 32.429688 L 31.941406 26.785156 Z M 33.664062 32.910156 L 27.257812 32.910156 L 31.101562 27.863281 Z M 25.257812 13.574219 L 25.980469 12.175781 L 26.699219 13.574219 L 25.980469 15.015625 Z M 26.019531 17.699219 L 30.5 26.625 L 26.019531 32.546875 L 21.535156 26.585938 Z M 13.730469 30.226562 L 16.050781 32.910156 L 12.929688 32.910156 Z M 24.777344 32.910156 L 18.332031 32.910156 L 20.894531 27.785156 Z M 16.332031 21.742188 L 20.09375 26.703125 L 17.253906 32.429688 L 14.171875 28.867188 Z M 10.527344 26.542969 L 12.808594 29.144531 L 12.089844 31.46875 Z M 39.269531 35.351562 L 12.730469 35.351562 L 12.730469 34.109375 L 39.269531 34.109375 Z M 39.90625 31.386719 L 39.226562 29.105469 L 41.46875 26.542969 Z M 39.90625 31.386719 " fill-opacity="1" fill-rule="nonzero"/></g></svg>