<svg xmlns="http://www.w3.org/2000/svg" xmlns:xlink="http://www.w3.org/1999/xlink" width="70" zoomAndPan="magnify" viewBox="0 0 52.5 52.499999" height="70" preserveAspectRatio="xMidYMid meet" version="1.0"><defs><clipPath id="e9c1c6da1c"><path d="M 5.199219 12 L 20 12 L 20 40 L 5.199219 40 Z M 5.199219 12 " clip-rule="nonzero"/></clipPath><clipPath id="63b0be2b16"><path d="M 7 10.59375 L 46 10.59375 L 46 29 L 7 29 Z M 7 10.59375 " clip-rule="nonzero"/></clipPath><clipPath id="a7bcc334a1"><path d="M 33 12 L 47.546875 12 L 47.546875 40 L 33 40 Z M 33 12 " clip-rule="nonzero"/></clipPath><clipPath id="e88a708c5e"><path d="M 7 27 L 46 27 L 46 41.054688 L 7 41.054688 Z M 7 27 " clip-rule="nonzero"/></clipPath></defs><g clip-path="url(#e9c1c6da1c)"><path fill="#f29dab" d="M 19.984375 26.003906 L 6.210938 12.601562 C 5.589844 13.433594 5.222656 14.464844 5.222656 15.578125 L 5.222656 36.425781 C 5.222656 37.539062 5.589844 38.570312 6.210938 39.402344 L 19.984375 26.003906 " fill-opacity="1" fill-rule="nonzero"/></g><g clip-path="url(#63b0be2b16)"><path fill="#f29dab" d="M 24.074219 27.933594 C 25.449219 29.273438 27.601562 29.273438 28.976562 27.933594 L 45.796875 11.570312 C 44.96875 10.957031 43.949219 10.597656 42.847656 10.597656 L 10.203125 10.597656 C 9.097656 10.597656 8.078125 10.957031 7.253906 11.570312 L 24.074219 27.933594 " fill-opacity="1" fill-rule="nonzero"/></g><g clip-path="url(#a7bcc334a1)"><path fill="#f29dab" d="M 46.839844 12.601562 L 33.066406 26.003906 L 46.839844 39.402344 C 47.460938 38.570312 47.828125 37.539062 47.828125 36.425781 L 47.828125 15.578125 C 47.828125 14.464844 47.460938 13.433594 46.839844 12.601562 " fill-opacity="1" fill-rule="nonzero"/></g><g clip-path="url(#e88a708c5e)"><path fill="#f29dab" d="M 32.015625 27.027344 L 30 28.984375 C 29.0625 29.894531 27.828125 30.398438 26.523438 30.398438 C 25.21875 30.398438 23.984375 29.894531 23.050781 28.984375 L 21.035156 27.027344 L 7.253906 40.4375 C 8.078125 41.046875 9.097656 41.40625 10.203125 41.40625 L 42.847656 41.40625 C 43.949219 41.40625 44.96875 41.046875 45.796875 40.4375 L 32.015625 27.027344 " fill-opacity="1" fill-rule="nonzero"/></g></svg>