<svg xmlns="http://www.w3.org/2000/svg" xmlns:xlink="http://www.w3.org/1999/xlink" width="70" zoomAndPan="magnify" viewBox="0 0 52.5 52.499999" height="70" preserveAspectRatio="xMidYMid meet" version="1.0"><defs><clipPath id="b52f10ca0b"><path d="M 1.558594 1.558594 L 50.445312 1.558594 L 50.445312 50.445312 L 1.558594 50.445312 Z M 1.558594 1.558594 " clip-rule="nonzero"/></clipPath><clipPath id="29e89be542"><path d="M 26.003906 1.558594 C 12.503906 1.558594 1.558594 12.503906 1.558594 26.003906 C 1.558594 39.5 12.503906 50.445312 26.003906 50.445312 C 39.5 50.445312 50.445312 39.5 50.445312 26.003906 C 50.445312 12.503906 39.5 1.558594 26.003906 1.558594 Z M 26.003906 1.558594 " clip-rule="nonzero"/></clipPath><clipPath id="352820ce69"><path d="M 4 13.148438 L 47.816406 13.148438 L 47.816406 34 L 4 34 Z M 4 13.148438 " clip-rule="nonzero"/></clipPath></defs><g clip-path="url(#b52f10ca0b)"><g clip-path="url(#29e89be542)"><path fill="#ffffff" d="M 1.558594 1.558594 L 50.445312 1.558594 L 50.445312 50.445312 L 1.558594 50.445312 Z M 1.558594 1.558594 " fill-opacity="1" fill-rule="nonzero"/></g></g><g clip-path="url(#352820ce69)"><path fill="#5594d1" d="M 26.003906 18.757812 C 25.195312 20.964844 24.175781 23.128906 22.644531 24.910156 C 21.117188 26.699219 19.035156 28.089844 16.714844 28.4375 C 14.632812 28.757812 12.46875 28.226562 10.664062 27.15625 C 11.621094 29.226562 12.457031 31.351562 13.183594 33.515625 C 11.257812 30.257812 9.335938 26.992188 7.417969 23.730469 C 7.015625 23.046875 6.503906 22.292969 5.714844 22.191406 C 4.722656 22.074219 3.984375 20.941406 4.277344 19.976562 C 4.570312 19.019531 5.824219 18.496094 6.710938 18.953125 C 7.605469 19.414062 7.898438 20.734375 7.292969 21.527344 C 7.105469 21.777344 7.28125 22.136719 7.460938 22.386719 C 8.8125 24.234375 10.585938 25.769531 12.613281 26.832031 C 12.820312 26.945312 13.070312 27.042969 13.277344 26.945312 C 13.433594 26.867188 13.519531 26.695312 13.589844 26.53125 C 14.371094 24.667969 14.800781 22.660156 14.839844 20.640625 C 14.847656 20.332031 14.777344 19.941406 14.476562 19.882812 C 13.5 19.707031 12.828125 18.5625 13.152344 17.625 C 13.476562 16.6875 14.714844 16.207031 15.589844 16.675781 C 16.460938 17.136719 16.746094 18.4375 16.148438 19.234375 C 15.851562 19.613281 16.171875 20.160156 16.492188 20.527344 C 17.890625 22.148438 19.484375 23.597656 21.222656 24.847656 C 23.09375 22.765625 24.519531 20.285156 25.382812 17.625 C 25.5 17.269531 25.550781 16.789062 25.21875 16.625 C 24.296875 16.167969 23.980469 14.800781 24.621094 13.992188 C 25.257812 13.179688 26.664062 13.160156 27.320312 13.957031 C 27.984375 14.742188 27.710938 16.117188 26.796875 16.601562 C 26.421875 16.800781 26.496094 17.355469 26.644531 17.757812 C 27.503906 20.113281 28.742188 22.335938 30.296875 24.304688 C 30.429688 24.480469 30.597656 24.660156 30.816406 24.667969 C 30.980469 24.667969 31.128906 24.5625 31.261719 24.460938 C 32.824219 23.253906 34.269531 21.882812 35.5625 20.382812 C 35.851562 20.050781 36.140625 19.546875 35.863281 19.203125 C 35.246094 18.433594 35.480469 17.144531 36.332031 16.644531 C 37.183594 16.144531 38.425781 16.570312 38.796875 17.480469 C 39.164062 18.390625 38.566406 19.566406 37.613281 19.796875 C 37.175781 19.902344 37.09375 20.484375 37.121094 20.933594 C 37.226562 22.847656 37.664062 24.734375 38.410156 26.507812 C 38.472656 26.65625 38.539062 26.8125 38.683594 26.886719 C 38.878906 26.988281 39.109375 26.886719 39.304688 26.789062 C 41.390625 25.71875 43.222656 24.136719 44.585938 22.222656 C 44.738281 22.011719 44.886719 21.710938 44.71875 21.503906 C 44.097656 20.753906 44.300781 19.476562 45.117188 18.957031 C 45.9375 18.4375 47.183594 18.796875 47.601562 19.671875 C 48.015625 20.546875 47.507812 21.734375 46.589844 22.042969 C 46.300781 22.136719 45.992188 22.160156 45.730469 22.308594 C 45.480469 22.453125 45.3125 22.699219 45.15625 22.933594 C 42.886719 26.316406 40.796875 29.8125 38.910156 33.414062 C 39.546875 31.246094 40.355469 29.125 41.308594 27.074219 C 39.007812 28.558594 35.988281 28.855469 33.4375 27.863281 C 29.667969 26.398438 27.398438 22.546875 26.003906 18.757812 M 16.046875 22.421875 C 15.960938 24.042969 15.578125 25.648438 14.933594 27.132812 C 14.851562 27.320312 15.132812 27.445312 15.332031 27.449219 C 16.914062 27.476562 18.5 26.976562 19.773438 26.035156 C 19.855469 25.972656 19.949219 25.886719 19.925781 25.785156 C 19.90625 25.738281 19.867188 25.699219 19.828125 25.667969 C 18.566406 24.585938 17.308594 23.503906 16.046875 22.421875 M 36.875 26.585938 C 36.300781 25.253906 35.984375 23.816406 35.945312 22.367188 C 34.667969 23.453125 33.394531 24.542969 32.117188 25.628906 C 32.082031 25.65625 32.050781 25.691406 32.035156 25.730469 C 32.019531 25.8125 32.085938 25.875 32.148438 25.925781 C 33.519531 26.960938 35.277344 27.480469 36.988281 27.351562 C 37.09375 27.105469 36.984375 26.832031 36.875 26.585938 " fill-opacity="1" fill-rule="nonzero"/></g><path fill="#5594d1" d="M 35.136719 37.792969 C 30.472656 38.8125 25.632812 38.835938 20.878906 38.414062 C 18.699219 38.21875 16.492188 37.917969 14.496094 37.023438 C 14.121094 36.855469 13.703125 36.597656 13.65625 36.191406 C 15.566406 37.105469 17.699219 37.394531 19.796875 37.605469 C 26.027344 38.210938 32.429688 38.15625 38.402344 36.292969 C 37.566406 37.179688 36.328125 37.535156 35.136719 37.792969 " fill-opacity="1" fill-rule="nonzero"/></svg>