<svg xmlns="http://www.w3.org/2000/svg" xmlns:xlink="http://www.w3.org/1999/xlink" width="70" zoomAndPan="magnify" viewBox="0 0 52.5 52.499999" height="70" preserveAspectRatio="xMidYMid meet" version="1.0"><defs><clipPath id="a311990573"><path d="M 4.347656 12 L 20 12 L 20 40 L 4.347656 40 Z M 4.347656 12 " clip-rule="nonzero"/></clipPath><clipPath id="a86d85dc94"><path d="M 6 10.355469 L 46 10.355469 L 46 29 L 6 29 Z M 6 10.355469 " clip-rule="nonzero"/></clipPath><clipPath id="631bff6e1f"><path d="M 32 12 L 47.4375 12 L 47.4375 40 L 32 40 Z M 32 12 " clip-rule="nonzero"/></clipPath><clipPath id="1d3014e795"><path d="M 6 27 L 46 27 L 46 41.558594 L 6 41.558594 Z M 6 27 " clip-rule="nonzero"/></clipPath></defs><g clip-path="url(#a311990573)"><path fill="#aa98c4" d="M 19.359375 26.003906 L 5.375 12.394531 C 4.742188 13.238281 4.371094 14.285156 4.371094 15.417969 L 4.371094 36.585938 C 4.371094 37.71875 4.742188 38.765625 5.375 39.609375 L 19.359375 26.003906 " fill-opacity="1" fill-rule="nonzero"/></g><g clip-path="url(#a86d85dc94)"><path fill="#aa98c4" d="M 23.511719 27.964844 C 24.910156 29.320312 27.09375 29.320312 28.492188 27.964844 L 45.570312 11.34375 C 44.734375 10.726562 43.695312 10.359375 42.574219 10.359375 L 9.429688 10.359375 C 8.308594 10.359375 7.269531 10.726562 6.429688 11.34375 L 23.511719 27.964844 " fill-opacity="1" fill-rule="nonzero"/></g><g clip-path="url(#631bff6e1f)"><path fill="#aa98c4" d="M 46.628906 12.394531 L 32.644531 26.003906 L 46.628906 39.609375 C 47.261719 38.765625 47.632812 37.71875 47.632812 36.585938 L 47.632812 15.417969 C 47.632812 14.285156 47.261719 13.238281 46.628906 12.394531 " fill-opacity="1" fill-rule="nonzero"/></g><g clip-path="url(#1d3014e795)"><path fill="#aa98c4" d="M 31.574219 27.042969 L 29.53125 29.03125 C 28.578125 29.957031 27.328125 30.464844 26 30.464844 C 24.675781 30.464844 23.421875 29.957031 22.472656 29.03125 L 20.425781 27.042969 L 6.429688 40.660156 C 7.269531 41.277344 8.308594 41.644531 9.429688 41.644531 L 42.574219 41.644531 C 43.695312 41.644531 44.734375 41.277344 45.570312 40.660156 L 31.574219 27.042969 " fill-opacity="1" fill-rule="nonzero"/></g></svg>