<svg xmlns="http://www.w3.org/2000/svg" xmlns:xlink="http://www.w3.org/1999/xlink" width="70" zoomAndPan="magnify" viewBox="0 0 52.5 52.499999" height="70" preserveAspectRatio="xMidYMid meet" version="1.2"><defs><clipPath id="5960ff64e1"><path d="M 2.058594 9.214844 L 49.605469 9.214844 L 49.605469 42.644531 L 2.058594 42.644531 Z M 2.058594 9.214844 "/></clipPath><clipPath id="f120afba71"><path d="M 2.058594 11 L 49.605469 11 L 49.605469 30 L 2.058594 30 Z M 2.058594 11 "/></clipPath><clipPath id="e2d39dbf71"><path d="M 2.058594 25 L 23 25 L 23 41 L 2.058594 41 Z M 2.058594 25 "/></clipPath><clipPath id="3a39700834"><path d="M 29 25 L 49.605469 25 L 49.605469 42 L 29 42 Z M 29 25 "/></clipPath></defs><g id="6ecfe86e6a"><g clip-rule="nonzero" clip-path="url(#5960ff64e1)"><path style=" stroke:none;fill-rule:nonzero;fill:#ff9a00;fill-opacity:1;" d="M 5.519531 11.015625 C 4.609375 11.015625 3.871094 11.757812 3.871094 12.667969 L 3.871094 39.101562 C 3.871094 40.011719 4.609375 40.75 5.519531 40.75 L 46.144531 40.75 C 47.054688 40.75 47.792969 40.011719 47.792969 39.101562 L 47.792969 12.667969 C 47.792969 11.757812 47.054688 11.015625 46.144531 11.015625 Z M 46.144531 42.550781 L 5.519531 42.550781 C 3.617188 42.550781 2.070312 41.003906 2.070312 39.101562 L 2.070312 12.667969 C 2.070312 10.761719 3.617188 9.214844 5.519531 9.214844 L 46.144531 9.214844 C 48.046875 9.214844 49.59375 10.761719 49.59375 12.667969 L 49.59375 39.101562 C 49.59375 41.003906 48.046875 42.550781 46.144531 42.550781 "/></g><g clip-rule="nonzero" clip-path="url(#f120afba71)"><path style=" stroke:none;fill-rule:nonzero;fill:#ff9a00;fill-opacity:1;" d="M 26.128906 29.609375 C 25.429688 29.609375 24.730469 29.398438 24.179688 28.984375 L 2.585938 12.570312 L 3.675781 11.136719 L 25.269531 27.550781 C 25.730469 27.898438 26.5625 27.890625 27.015625 27.535156 L 47.976562 11.035156 L 49.089844 12.449219 L 28.128906 28.949219 C 27.570312 29.386719 26.851562 29.609375 26.128906 29.609375 "/></g><g clip-rule="nonzero" clip-path="url(#e2d39dbf71)"><path style=" stroke:none;fill-rule:nonzero;fill:#ff9a00;fill-opacity:1;" d="M 3.675781 40.90625 L 2.585938 39.472656 L 21.230469 25.304688 L 22.320312 26.738281 L 3.675781 40.90625 "/></g><g clip-rule="nonzero" clip-path="url(#3a39700834)"><path style=" stroke:none;fill-rule:nonzero;fill:#ff9a00;fill-opacity:1;" d="M 47.976562 41.007812 L 29.832031 26.730469 L 30.945312 25.316406 L 49.089844 39.59375 L 47.976562 41.007812 "/></g></g></svg>