<svg xmlns="http://www.w3.org/2000/svg" xmlns:xlink="http://www.w3.org/1999/xlink" width="70" zoomAndPan="magnify" viewBox="0 0 52.5 52.499999" height="70" preserveAspectRatio="xMidYMid meet" version="1.0"><defs><clipPath id="458af5d430"><path d="M 7.789062 5.199219 L 44.191406 5.199219 L 44.191406 44.574219 L 7.789062 44.574219 Z M 7.789062 5.199219 " clip-rule="nonzero"/></clipPath></defs><g clip-path="url(#458af5d430)"><path fill="#000000" d="M 25.695312 38.085938 C 25.851562 38.25 26.125 38.25 26.285156 38.085938 L 30.710938 33.632812 C 33.6875 30.363281 29.011719 26.011719 25.996094 29.257812 C 24.074219 27.007812 20.332031 28.371094 20.347656 31.359375 C 20.347656 32.222656 20.683594 33.03125 21.289062 33.640625 Z M 21.863281 29.660156 C 22.75 28.734375 24.335938 28.734375 25.222656 29.660156 C 25.222656 29.660156 25.695312 30.140625 25.695312 30.140625 C 25.851562 30.300781 26.125 30.300781 26.277344 30.140625 C 26.828125 29.507812 27.554688 28.917969 28.4375 28.957031 C 30.511719 28.917969 31.621094 31.597656 30.121094 33.054688 C 30.121094 33.054688 25.988281 37.214844 25.988281 37.214844 L 21.863281 33.046875 C 20.929688 32.160156 20.929688 30.554688 21.863281 29.660156 Z M 43.757812 41.976562 L 41.453125 41.976562 L 41.453125 39.445312 C 41.851562 39.4375 42.609375 39.566406 42.59375 38.972656 L 41.507812 26.71875 C 41.875 26.726562 42.570312 26.898438 42.59375 26.328125 C 42.59375 26.328125 42.59375 17.121094 42.59375 17.121094 L 43.757812 17.121094 C 43.984375 17.121094 44.167969 16.9375 44.167969 16.707031 L 44.167969 14.320312 C 44.152344 14.167969 44.085938 14.019531 43.941406 13.949219 L 26.164062 5.253906 C 26.050781 5.199219 25.917969 5.199219 25.804688 5.253906 L 8.035156 13.957031 C 7.898438 14.027344 7.8125 14.175781 7.804688 14.328125 L 7.804688 16.710938 C 7.804688 16.945312 7.988281 17.128906 8.21875 17.128906 L 9.382812 17.128906 L 9.382812 26.335938 C 9.40625 26.90625 10.101562 26.726562 10.46875 26.726562 L 9.382812 38.980469 C 9.367188 39.574219 10.132812 39.445312 10.523438 39.453125 L 10.523438 41.984375 L 8.21875 41.984375 C 7.988281 41.984375 7.804688 42.167969 7.804688 42.398438 L 7.804688 44.160156 C 7.804688 44.390625 7.988281 44.574219 8.21875 44.574219 L 43.765625 44.574219 C 43.992188 44.574219 44.175781 44.390625 44.175781 44.160156 L 44.175781 42.398438 C 44.167969 42.160156 43.984375 41.976562 43.757812 41.976562 Z M 41.734375 38.625 C 40.703125 38.648438 39.585938 38.378906 38.699219 37.847656 L 38.699219 26.117188 C 39.339844 26.351562 40 26.535156 40.671875 26.636719 Z M 40.632812 39.382812 L 40.632812 41.976562 L 39.839844 41.976562 L 39.839844 39.210938 C 40.097656 39.289062 40.367188 39.335938 40.632812 39.382812 Z M 14.097656 35.824219 C 14.839844 35.601562 15.542969 35.285156 16.183594 34.875 C 16.628906 34.589844 17.042969 34.265625 17.433594 33.890625 C 17.523438 33.804688 17.570312 33.679688 17.5625 33.550781 L 17.242188 29.835938 C 18.273438 29.429688 19.628906 28.039062 19.734375 26.734375 C 19.734375 26.734375 18.601562 21.382812 18.601562 21.382812 C 19.285156 20.070312 19.675781 18.609375 19.734375 17.128906 L 32.246094 17.128906 C 32.308594 18.609375 32.691406 20.070312 33.378906 21.382812 L 32.246094 26.734375 C 32.355469 28.039062 33.707031 29.429688 34.742188 29.835938 L 34.421875 33.550781 C 34.414062 33.671875 34.457031 33.796875 34.550781 33.890625 C 35.5 34.808594 36.632812 35.449219 37.894531 35.824219 L 37.894531 38.078125 C 37.941406 38.566406 38.667969 38.703125 39.035156 38.917969 L 39.035156 41.976562 L 12.957031 41.976562 L 12.957031 38.917969 C 13.292969 38.71875 14.058594 38.558594 14.097656 38.078125 C 14.097656 38.078125 14.097656 35.824219 14.097656 35.824219 Z M 16.726562 33.425781 C 15.964844 34.121094 15.074219 34.636719 14.097656 34.96875 L 14.097656 25.765625 C 14.761719 25.449219 15.382812 25.046875 15.964844 24.589844 C 16.175781 27.074219 16.515625 30.925781 16.726562 33.425781 Z M 16.726562 23.910156 C 17.195312 23.457031 17.601562 22.949219 17.984375 22.421875 L 18.910156 26.804688 C 18.671875 27.675781 17.90625 28.582031 17.164062 28.957031 C 17.066406 27.839844 16.820312 25 16.726562 23.910156 Z M 35.214844 24.207031 L 34.804688 28.949219 C 34.074219 28.585938 33.296875 27.675781 33.058594 26.804688 C 33.058594 26.804688 33.984375 22.421875 33.984375 22.421875 C 34.367188 22.949219 34.773438 23.457031 35.238281 23.910156 Z M 35.574219 29.613281 C 35.574219 29.613281 35.980469 24.90625 35.980469 24.90625 L 36.011719 24.589844 C 36.59375 25.046875 37.214844 25.449219 37.878906 25.765625 L 37.878906 34.960938 C 36.898438 34.636719 36.011719 34.121094 35.246094 33.417969 Z M 41.773438 25.917969 C 37.183594 25.785156 33.179688 21.78125 33.058594 17.136719 L 36.464844 17.136719 C 36.570312 20.65625 38.675781 23.996094 41.773438 25.601562 Z M 41.773438 24.652344 C 39.148438 23.117188 37.390625 20.199219 37.28125 17.128906 L 41.773438 17.128906 Z M 25.988281 6.085938 L 41.972656 13.910156 L 10.003906 13.910156 Z M 8.625 16.304688 L 8.625 14.746094 L 43.34375 14.746094 L 43.34375 16.304688 Z M 14.691406 17.128906 C 14.578125 20.199219 12.832031 23.109375 10.203125 24.652344 L 10.203125 17.128906 Z M 10.203125 25.917969 L 10.203125 25.601562 C 13.308594 23.988281 15.40625 20.664062 15.511719 17.136719 L 18.917969 17.136719 C 18.792969 21.773438 14.792969 25.777344 10.203125 25.917969 Z M 10.238281 38.625 L 11.296875 26.636719 C 11.96875 26.535156 12.632812 26.351562 13.277344 26.117188 C 13.277344 27.847656 13.277344 36.304688 13.277344 37.847656 C 12.351562 38.386719 11.3125 38.640625 10.238281 38.625 Z M 12.128906 39.21875 L 12.128906 41.984375 L 11.339844 41.984375 L 11.339844 39.390625 C 11.609375 39.335938 11.878906 39.289062 12.128906 39.21875 Z M 43.351562 43.742188 L 8.625 43.742188 L 8.625 42.808594 L 43.34375 42.808594 L 43.34375 43.742188 Z M 33.21875 11.472656 L 26.171875 8.015625 C 26.054688 7.960938 25.925781 7.960938 25.8125 8.015625 L 18.765625 11.472656 C 18.382812 11.652344 18.519531 12.277344 18.941406 12.261719 C 18.941406 12.261719 33.042969 12.261719 33.042969 12.261719 C 33.457031 12.277344 33.609375 11.652344 33.21875 11.472656 Z M 20.722656 11.433594 L 25.988281 8.859375 L 31.253906 11.433594 Z M 20.722656 11.433594 " fill-opacity="1" fill-rule="nonzero"/></g></svg>