<svg xmlns="http://www.w3.org/2000/svg" xmlns:xlink="http://www.w3.org/1999/xlink" width="70" zoomAndPan="magnify" viewBox="0 0 52.5 52.499999" height="70" preserveAspectRatio="xMidYMid meet" version="1.0"><defs><clipPath id="608013f79f"><path d="M 6.097656 5.199219 L 46 5.199219 L 46 46.804688 L 6.097656 46.804688 Z M 6.097656 5.199219 " clip-rule="nonzero"/></clipPath></defs><g clip-path="url(#608013f79f)"><path fill="#000000" d="M 38.128906 14.128906 L 38.039062 14.226562 C 37.914062 14.296875 37.816406 14.394531 37.753906 14.519531 L 36.773438 15.542969 C 36.679688 15.578125 36.585938 15.625 36.511719 15.699219 C 36.433594 15.78125 36.382812 15.878906 36.351562 15.980469 L 24.171875 28.667969 C 24.046875 28.796875 23.980469 28.964844 23.980469 29.144531 L 23.980469 43.667969 C 23.980469 44.027344 24.265625 44.328125 24.628906 44.347656 L 34.589844 44.902344 C 34.789062 44.914062 34.941406 45.078125 34.941406 45.273438 C 34.941406 45.476562 34.777344 45.644531 34.570312 45.644531 L 12.019531 45.644531 C 11.8125 45.644531 11.648438 45.476562 11.648438 45.273438 C 11.648438 45.078125 11.800781 44.914062 12 44.902344 L 21.960938 44.347656 C 22.328125 44.328125 22.609375 44.027344 22.609375 43.667969 L 22.609375 29.144531 C 22.609375 28.964844 22.542969 28.796875 22.417969 28.667969 L 8.460938 14.128906 Z M 36.3125 6.59375 C 40.84375 6.59375 44.53125 10.28125 44.53125 14.8125 C 44.53125 19.347656 40.84375 23.035156 36.3125 23.035156 C 34.945312 23.035156 33.613281 22.699219 32.421875 22.054688 L 32.925781 21.527344 C 33.972656 22.058594 35.132812 22.351562 36.3125 22.351562 C 40.46875 22.351562 43.847656 18.96875 43.847656 14.8125 C 43.847656 10.65625 40.46875 7.277344 36.3125 7.277344 C 32.933594 7.277344 29.972656 9.554688 29.0625 12.757812 L 28.351562 12.757812 C 29.277344 9.195312 32.566406 6.59375 36.3125 6.59375 Z M 35.625 20.933594 C 35.039062 20.871094 34.460938 20.722656 33.917969 20.496094 L 35.625 18.714844 Z M 39.765625 19.921875 C 38.957031 20.46875 38.015625 20.828125 36.996094 20.941406 L 36.996094 17.554688 C 36.996094 17.476562 36.976562 17.40625 36.953125 17.335938 L 37.0625 17.21875 Z M 38.714844 15.5 L 42.4375 15.5 C 42.285156 16.855469 41.691406 18.078125 40.804688 19.023438 L 38.011719 16.230469 Z M 40.820312 10.621094 C 41.695312 11.566406 42.289062 12.78125 42.4375 14.128906 L 40.027344 14.128906 L 40.234375 13.917969 C 40.421875 13.71875 40.476562 13.429688 40.367188 13.175781 C 40.257812 12.921875 40.011719 12.757812 39.738281 12.757812 L 39.109375 12.757812 Z M 31.5 10.972656 L 33.289062 12.757812 L 30.5 12.757812 C 30.734375 12.101562 31.074219 11.5 31.5 10.972656 Z M 35.226562 12.757812 L 32.46875 10 C 33.359375 9.289062 34.449219 8.824219 35.625 8.691406 L 35.625 12.757812 Z M 36.996094 12.757812 L 36.996094 8.6875 C 38.023438 8.804688 38.972656 9.167969 39.78125 9.722656 L 37.351562 12.757812 Z M 21.238281 29.421875 L 21.238281 43.015625 L 11.925781 43.535156 C 11 43.585938 10.277344 44.347656 10.277344 45.273438 C 10.277344 46.234375 11.058594 47.015625 12.019531 47.015625 L 34.570312 47.015625 C 35.53125 47.015625 36.3125 46.234375 36.3125 45.273438 C 36.3125 44.347656 35.589844 43.585938 34.667969 43.535156 L 25.351562 43.015625 L 25.351562 29.421875 L 31.445312 23.074219 C 32.914062 23.941406 34.589844 24.40625 36.3125 24.40625 C 41.601562 24.40625 45.902344 20.101562 45.902344 14.8125 C 45.902344 9.527344 41.601562 5.222656 36.3125 5.222656 C 31.820312 5.222656 27.902344 8.425781 26.949219 12.757812 L 6.851562 12.757812 C 6.578125 12.757812 6.332031 12.921875 6.222656 13.175781 C 6.113281 13.429688 6.167969 13.71875 6.355469 13.917969 L 21.238281 29.421875 " fill-opacity="1" fill-rule="nonzero"/></g><path fill="#000000" d="M 23.296875 26.472656 C 24.304688 26.472656 25.320312 26.089844 26.089844 25.316406 L 26.519531 24.890625 C 26.789062 24.621094 26.789062 24.1875 26.519531 23.921875 C 26.253906 23.652344 25.820312 23.652344 25.550781 23.921875 L 25.121094 24.347656 C 24.113281 25.359375 22.476562 25.359375 21.46875 24.347656 L 15.355469 18.238281 L 32.203125 18.238281 C 32.578125 18.238281 32.886719 17.933594 32.886719 17.554688 C 32.886719 17.175781 32.578125 16.871094 32.203125 16.871094 L 13.988281 16.871094 L 12.816406 15.699219 C 12.550781 15.433594 12.117188 15.433594 11.847656 15.699219 C 11.582031 15.96875 11.582031 16.402344 11.847656 16.667969 L 20.5 25.316406 C 21.269531 26.089844 22.285156 26.472656 23.296875 26.472656 " fill-opacity="1" fill-rule="nonzero"/></svg>