<svg xmlns="http://www.w3.org/2000/svg" xmlns:xlink="http://www.w3.org/1999/xlink" width="70" zoomAndPan="magnify" viewBox="0 0 52.5 52.499999" height="70" preserveAspectRatio="xMidYMid meet" version="1.0"><defs><clipPath id="c09591f1a8"><path d="M 3.429688 11.183594 L 48.746094 11.183594 L 48.746094 40.902344 L 3.429688 40.902344 Z M 3.429688 11.183594 " clip-rule="nonzero"/></clipPath></defs><g clip-path="url(#c09591f1a8)"><path fill="#000000" d="M 46.148438 11.257812 L 5.984375 11.257812 C 5.644531 11.257812 5.316406 11.324219 5 11.457031 C 4.6875 11.585938 4.40625 11.773438 4.167969 12.011719 C 3.925781 12.253906 3.738281 12.53125 3.609375 12.847656 C 3.476562 13.164062 3.414062 13.492188 3.410156 13.832031 L 3.410156 38.292969 C 3.414062 38.636719 3.476562 38.964844 3.609375 39.277344 C 3.738281 39.59375 3.925781 39.871094 4.167969 40.113281 C 4.40625 40.355469 4.6875 40.539062 5 40.671875 C 5.316406 40.800781 5.644531 40.867188 5.984375 40.867188 L 46.148438 40.867188 C 46.492188 40.867188 46.820312 40.800781 47.136719 40.671875 C 47.449219 40.539062 47.730469 40.355469 47.96875 40.113281 C 48.210938 39.871094 48.398438 39.59375 48.527344 39.277344 C 48.660156 38.964844 48.722656 38.636719 48.726562 38.292969 L 48.726562 13.832031 C 48.722656 13.492188 48.660156 13.164062 48.527344 12.847656 C 48.398438 12.53125 48.210938 12.253906 47.96875 12.011719 C 47.730469 11.773438 47.449219 11.585938 47.136719 11.457031 C 46.820312 11.324219 46.492188 11.257812 46.148438 11.257812 Z M 33.191406 26.0625 L 47.332031 13.46875 C 47.371094 13.585938 47.390625 13.707031 47.390625 13.832031 L 47.390625 38.292969 C 47.390625 38.417969 47.371094 38.539062 47.332031 38.660156 Z M 46.148438 12.59375 C 46.195312 12.59375 46.242188 12.597656 46.289062 12.605469 L 26.890625 29.886719 C 26.65625 30.097656 26.378906 30.199219 26.066406 30.199219 C 25.75 30.199219 25.476562 30.097656 25.242188 29.886719 L 5.84375 12.605469 C 5.890625 12.597656 5.9375 12.59375 5.984375 12.59375 Z M 4.808594 38.660156 C 4.769531 38.539062 4.746094 38.417969 4.746094 38.292969 L 4.746094 13.832031 C 4.746094 13.707031 4.769531 13.585938 4.808594 13.46875 L 18.945312 26.0625 Z M 5.984375 39.535156 C 5.9375 39.53125 5.890625 39.527344 5.84375 39.519531 L 19.949219 26.957031 L 24.355469 30.882812 C 24.59375 31.089844 24.855469 31.253906 25.152344 31.367188 C 25.449219 31.476562 25.753906 31.535156 26.066406 31.535156 C 26.382812 31.535156 26.6875 31.476562 26.984375 31.367188 C 27.277344 31.253906 27.542969 31.089844 27.78125 30.882812 L 32.1875 26.957031 L 46.289062 39.519531 C 46.242188 39.527344 46.195312 39.53125 46.148438 39.535156 Z M 5.984375 39.535156 " fill-opacity="1" fill-rule="nonzero"/></g></svg>