<svg xmlns="http://www.w3.org/2000/svg" xmlns:xlink="http://www.w3.org/1999/xlink" width="144" zoomAndPan="magnify" viewBox="0 0 108 143.999998" height="192" preserveAspectRatio="xMidYMid meet" version="1.0"><defs><clipPath id="id1"><path d="M 44 5.484375 L 65 5.484375 L 65 14 L 44 14 Z M 44 5.484375 " clip-rule="nonzero"/></clipPath><clipPath id="id2"><path d="M 55 5.484375 L 66 5.484375 L 66 22 L 55 22 Z M 55 5.484375 " clip-rule="nonzero"/></clipPath><clipPath id="id3"><path d="M 42 5.484375 L 53 5.484375 L 53 22 L 42 22 Z M 42 5.484375 " clip-rule="nonzero"/></clipPath><clipPath id="id4"><path d="M 1.285156 6 L 50 6 L 50 138 L 1.285156 138 Z M 1.285156 6 " clip-rule="nonzero"/></clipPath></defs><path fill="#eeefee" d="M 64.9375 8.804688 L 70.019531 21.429688 L 64.9375 44.339844 L 54.175781 57.261719 L 43.675781 47.636719 L 39.253906 33.066406 L 40.265625 16.113281 L 43.675781 7.867188 Z M 64.9375 8.804688 " fill-opacity="1" fill-rule="nonzero"/><path fill="#da364c" d="M 59.144531 17.910156 L 57.152344 21.679688 L 51.199219 21.679688 L 49.265625 17.707031 L 52.644531 13.453125 L 55.398438 13.453125 Z M 59.144531 17.910156 " fill-opacity="1" fill-rule="nonzero"/><path fill="#ef5261" d="M 60.558594 44.769531 L 54.632812 58.699219 L 47.851562 44.523438 L 51.199219 21.679688 L 57.152344 21.679688 Z M 60.558594 44.769531 " fill-opacity="1" fill-rule="nonzero"/><path fill="#575b6d" d="M 31.574219 123.089844 C 46.574219 130.199219 61.4375 130.324219 76.160156 123.089844 L 72.109375 102.925781 L 36.613281 100.851562 Z M 31.574219 123.089844 " fill-opacity="1" fill-rule="nonzero"/><path fill="#dbd8dd" d="M 68.914062 110.503906 L 60.910156 116.398438 C 60.175781 116.9375 59.140625 116.777344 58.601562 116.042969 C 58.539062 115.957031 58.480469 115.867188 58.433594 115.769531 L 54.175781 106.722656 L 49.917969 115.769531 C 49.53125 116.59375 48.546875 116.949219 47.71875 116.566406 C 47.621094 116.519531 47.527344 116.464844 47.441406 116.402344 L 39.4375 110.507812 L 46.808594 75.316406 L 42.84375 33.070312 L 54.175781 53.234375 L 65.511719 33.070312 L 61.546875 75.3125 Z M 68.914062 110.503906 " fill-opacity="1" fill-rule="nonzero"/><g clip-path="url(#id1)"><path fill="#dbd8dd" d="M 44.105469 5.484375 L 64.25 5.484375 L 59.796875 13.457031 L 52.949219 13.457031 L 45.609375 10.890625 Z M 44.105469 5.484375 " fill-opacity="1" fill-rule="nonzero"/></g><g clip-path="url(#id2)"><path fill="#ffffff" d="M 62.097656 21.429688 L 65.722656 9.820312 L 65.167969 6.277344 L 64.25 5.484375 L 55.40625 13.457031 Z M 62.097656 21.429688 " fill-opacity="1" fill-rule="nonzero"/></g><g clip-path="url(#id3)"><path fill="#ffffff" d="M 46.253906 21.429688 L 42.628906 9.820312 L 43.183594 6.277344 L 44.105469 5.484375 L 52.949219 13.457031 Z M 46.253906 21.429688 " fill-opacity="1" fill-rule="nonzero"/></g><path fill="#575b6d" d="M 72.828125 137.722656 L 93.480469 128.835938 L 83.71875 81.917969 L 86.082031 55.640625 L 92.089844 75.621094 C 92.199219 75.988281 92.261719 76.367188 92.269531 76.753906 L 93.359375 121.9375 L 106.996094 121.632812 L 106.089844 70.890625 C 106.082031 70.300781 106 69.71875 105.851562 69.148438 L 94.15625 23.863281 C 93.535156 21.375 91.867188 19.277344 89.578125 18.105469 C 83.753906 15.480469 77.695312 13.398438 71.488281 11.882812 C 70.480469 11.492188 69.574219 10.886719 68.828125 10.105469 L 65.171875 6.277344 L 58.640625 77.03125 C 58.613281 77.351562 58.625 77.675781 58.679688 77.992188 L 68.28125 135.257812 C 68.582031 137.039062 70.277344 138.242188 72.066406 137.945312 C 72.328125 137.902344 72.585938 137.828125 72.828125 137.722656 Z M 72.828125 137.722656 " fill-opacity="1" fill-rule="nonzero"/><g clip-path="url(#id4)"><path fill="#575b6d" d="M 35.523438 137.722656 L 14.867188 128.832031 L 24.636719 81.917969 L 22.273438 55.640625 L 16.265625 75.617188 C 16.15625 75.984375 16.09375 76.367188 16.085938 76.75 L 14.996094 121.929688 L 1.359375 121.625 L 2.265625 70.882812 C 2.277344 70.292969 2.355469 69.710938 2.503906 69.140625 L 14.859375 21.308594 C 15.035156 20.601562 15.4375 19.976562 16.011719 19.527344 C 21.316406 15.457031 36.867188 11.890625 36.867188 11.890625 C 37.875 11.496094 38.78125 10.890625 39.523438 10.109375 L 43.183594 6.285156 L 49.710938 77.039062 C 49.742188 77.355469 49.726562 77.679688 49.675781 77.996094 L 40.070312 135.265625 C 39.769531 137.046875 38.074219 138.246094 36.28125 137.945312 C 36.019531 137.902344 35.765625 137.828125 35.523438 137.722656 Z M 35.523438 137.722656 " fill-opacity="1" fill-rule="nonzero"/></g></svg>