<svg xmlns="http://www.w3.org/2000/svg" xmlns:xlink="http://www.w3.org/1999/xlink" width="70" zoomAndPan="magnify" viewBox="0 0 52.5 52.499999" height="70" preserveAspectRatio="xMidYMid meet" version="1.0"><defs><clipPath id="578802a764"><path d="M 5.199219 3.863281 L 44.574219 3.863281 L 44.574219 44.722656 L 5.199219 44.722656 Z M 5.199219 3.863281 " clip-rule="nonzero"/></clipPath></defs><path fill="#475b42" d="M 35.476562 39.660156 L 35.476562 41.675781 C 35.476562 41.847656 35.613281 41.988281 35.785156 41.988281 L 38.882812 41.988281 C 39.054688 41.988281 39.191406 41.847656 39.191406 41.675781 L 39.191406 39.660156 C 39.191406 38.710938 38.417969 37.933594 37.464844 37.933594 L 37.203125 37.933594 C 36.25 37.933594 35.476562 38.710938 35.476562 39.660156 Z M 36.097656 39.660156 C 36.097656 39.050781 36.59375 38.554688 37.203125 38.554688 L 37.464844 38.554688 C 38.074219 38.554688 38.570312 39.050781 38.570312 39.660156 L 38.570312 41.367188 L 36.097656 41.367188 Z M 36.097656 39.660156 " fill-opacity="1" fill-rule="nonzero"/><path fill="#475b42" d="M 12.578125 37.933594 L 12.316406 37.933594 C 11.363281 37.933594 10.585938 38.710938 10.585938 39.660156 L 10.585938 41.675781 C 10.585938 41.847656 10.726562 41.988281 10.898438 41.988281 L 13.996094 41.988281 C 14.164062 41.988281 14.304688 41.847656 14.304688 41.675781 L 14.304688 39.660156 C 14.304688 38.710938 13.53125 37.933594 12.578125 37.933594 Z M 13.683594 41.367188 L 11.210938 41.367188 L 11.210938 39.660156 C 11.210938 39.050781 11.703125 38.554688 12.316406 38.554688 L 12.578125 38.554688 C 13.1875 38.554688 13.683594 39.050781 13.683594 39.660156 Z M 13.683594 41.367188 " fill-opacity="1" fill-rule="nonzero"/><g clip-path="url(#578802a764)"><path fill="#475b42" d="M 5.71875 30.5625 L 8.148438 29.113281 L 8.148438 44.402344 C 8.148438 44.574219 8.285156 44.710938 8.457031 44.710938 L 41.277344 44.710938 C 41.449219 44.710938 41.585938 44.574219 41.585938 44.402344 L 41.585938 29.046875 L 44.144531 30.566406 C 44.195312 30.59375 44.25 30.609375 44.304688 30.609375 C 44.410156 30.609375 44.511719 30.554688 44.570312 30.457031 C 44.660156 30.308594 44.609375 30.117188 44.460938 30.03125 L 31.875 22.554688 L 31.875 15.273438 L 34.472656 16.898438 C 34.523438 16.929688 34.578125 16.945312 34.636719 16.945312 C 34.738281 16.945312 34.839844 16.894531 34.898438 16.800781 C 34.992188 16.65625 34.945312 16.464844 34.800781 16.371094 L 31.726562 14.449219 L 30.414062 13.625 L 25.195312 10.359375 L 25.195312 6.570312 L 27.117188 6.570312 C 27.289062 6.570312 27.425781 6.429688 27.425781 6.257812 C 27.425781 6.085938 27.289062 5.949219 27.117188 5.949219 L 25.195312 5.949219 L 25.195312 4.175781 C 25.195312 4.003906 25.054688 3.863281 24.886719 3.863281 C 24.714844 3.863281 24.574219 4.003906 24.574219 4.175781 L 24.574219 5.949219 L 22.652344 5.949219 C 22.480469 5.949219 22.34375 6.085938 22.34375 6.257812 C 22.34375 6.429688 22.480469 6.570312 22.652344 6.570312 L 24.574219 6.570312 L 24.574219 10.402344 L 14.992188 16.304688 C 14.847656 16.394531 14.800781 16.585938 14.890625 16.734375 C 14.980469 16.878906 15.171875 16.925781 15.320312 16.835938 L 17.859375 15.269531 L 17.859375 22.582031 L 5.402344 30.03125 C 5.253906 30.117188 5.207031 30.308594 5.292969 30.457031 C 5.382812 30.605469 5.574219 30.652344 5.71875 30.5625 Z M 24.609375 44.089844 L 21.828125 44.089844 L 21.828125 41.1875 C 21.828125 39.648438 23.074219 38.394531 24.609375 38.386719 Z M 28.011719 44.089844 L 25.230469 44.089844 L 25.230469 38.386719 C 26.765625 38.394531 28.011719 39.648438 28.011719 41.1875 Z M 31.875 23.308594 L 40.964844 28.746094 L 40.964844 44.089844 L 33.695312 44.089844 L 33.695312 30.191406 L 35.855469 31.484375 C 35.90625 31.515625 35.960938 31.527344 36.015625 31.527344 C 36.121094 31.527344 36.222656 31.472656 36.28125 31.375 C 36.371094 31.230469 36.324219 31.039062 36.175781 30.949219 L 33.542969 29.375 L 31.875 28.378906 Z M 18.480469 14.886719 L 24.765625 11.011719 L 24.917969 10.921875 L 30.367188 14.332031 L 31.253906 14.882812 L 31.253906 28.007812 L 25.027344 24.28125 C 24.929688 24.222656 24.804688 24.222656 24.707031 24.28125 L 18.480469 28.007812 Z M 21.089844 27.167969 L 24.867188 24.910156 L 28.644531 27.167969 L 33.074219 29.820312 L 33.074219 44.089844 L 28.632812 44.089844 L 28.632812 41.1875 C 28.632812 39.300781 27.097656 37.761719 25.210938 37.761719 L 24.628906 37.761719 C 22.742188 37.761719 21.207031 39.300781 21.207031 41.1875 L 21.207031 44.089844 L 16.664062 44.089844 L 16.664062 29.820312 Z M 8.769531 28.746094 L 17.859375 23.308594 L 17.859375 28.378906 L 16.191406 29.375 L 13.558594 30.949219 C 13.410156 31.039062 13.363281 31.230469 13.453125 31.375 C 13.539062 31.523438 13.730469 31.570312 13.878906 31.484375 L 16.039062 30.191406 L 16.039062 44.089844 L 8.769531 44.089844 Z M 8.769531 28.746094 " fill-opacity="1" fill-rule="nonzero"/></g><path fill="#475b42" d="M 23.273438 30.5625 L 24.574219 30.5625 L 24.574219 33.355469 C 24.574219 33.527344 24.714844 33.664062 24.886719 33.664062 C 25.054688 33.664062 25.195312 33.527344 25.195312 33.355469 L 25.195312 30.5625 L 26.496094 30.5625 C 26.667969 30.5625 26.808594 30.421875 26.808594 30.25 C 26.808594 30.078125 26.667969 29.941406 26.496094 29.941406 L 25.195312 29.941406 L 25.195312 28.746094 C 25.195312 28.574219 25.054688 28.433594 24.886719 28.433594 C 24.714844 28.433594 24.574219 28.574219 24.574219 28.746094 L 24.574219 29.941406 L 23.273438 29.941406 C 23.101562 29.941406 22.960938 30.078125 22.960938 30.25 C 22.960938 30.421875 23.101562 30.5625 23.273438 30.5625 Z M 23.273438 30.5625 " fill-opacity="1" fill-rule="nonzero"/><path fill="#475b42" d="M 24.878906 22.078125 C 24.96875 22.078125 25.058594 22.058594 25.144531 22.023438 C 25.292969 21.960938 25.4375 21.890625 25.609375 21.792969 C 25.816406 21.679688 26.011719 21.554688 26.199219 21.417969 C 27.375 20.554688 27.941406 19.570312 27.84375 18.574219 C 27.761719 17.777344 27.117188 17.148438 26.335938 17.113281 C 25.984375 17.09375 25.625 17.21875 25.292969 17.46875 C 25.132812 17.585938 24.988281 17.722656 24.867188 17.863281 C 24.746094 17.722656 24.601562 17.585938 24.441406 17.46875 C 24.109375 17.21875 23.75 17.09375 23.398438 17.113281 C 22.621094 17.148438 21.972656 17.777344 21.894531 18.574219 C 21.792969 19.570312 22.359375 20.554688 23.535156 21.417969 C 23.722656 21.554688 23.921875 21.679688 24.121094 21.792969 C 24.296875 21.890625 24.441406 21.960938 24.589844 22.023438 C 24.679688 22.058594 24.769531 22.078125 24.867188 22.078125 C 24.871094 22.078125 24.875 22.078125 24.878906 22.078125 Z M 24.421875 21.25 C 24.242188 21.148438 24.066406 21.039062 23.902344 20.917969 C 23.214844 20.410156 22.414062 19.605469 22.511719 18.636719 C 22.558594 18.152344 22.960938 17.753906 23.425781 17.730469 C 23.4375 17.730469 23.449219 17.730469 23.460938 17.730469 C 23.707031 17.730469 23.925781 17.855469 24.070312 17.964844 C 24.238281 18.089844 24.382812 18.238281 24.492188 18.394531 C 24.578125 18.515625 24.71875 18.585938 24.867188 18.585938 C 25.019531 18.585938 25.160156 18.511719 25.246094 18.390625 C 25.351562 18.238281 25.5 18.089844 25.664062 17.964844 C 25.816406 17.851562 26.046875 17.71875 26.308594 17.730469 C 26.773438 17.753906 27.175781 18.152344 27.222656 18.636719 C 27.320312 19.605469 26.519531 20.410156 25.832031 20.917969 C 25.667969 21.039062 25.492188 21.148438 25.308594 21.25 C 25.15625 21.335938 25.03125 21.398438 24.90625 21.449219 C 24.894531 21.457031 24.882812 21.457031 24.867188 21.457031 C 24.855469 21.457031 24.84375 21.457031 24.828125 21.449219 C 24.703125 21.398438 24.578125 21.335938 24.421875 21.25 Z M 24.421875 21.25 " fill-opacity="1" fill-rule="nonzero"/></svg>