<svg xmlns="http://www.w3.org/2000/svg" xmlns:xlink="http://www.w3.org/1999/xlink" width="70" zoomAndPan="magnify" viewBox="0 0 52.5 52.499999" height="70" preserveAspectRatio="xMidYMid meet" version="1.0"><defs><clipPath id="b2dc789985"><path d="M 7.789062 5.199219 L 44.191406 5.199219 L 44.191406 44.574219 L 7.789062 44.574219 Z M 7.789062 5.199219 " clip-rule="nonzero"/></clipPath></defs><g clip-path="url(#b2dc789985)"><path fill="#475b42" d="M 25.703125 37.824219 C 25.855469 37.984375 26.132812 37.984375 26.292969 37.824219 L 30.714844 33.40625 C 33.695312 30.164062 29.015625 25.84375 26 29.066406 C 24.078125 26.832031 20.335938 28.1875 20.351562 31.148438 C 20.351562 32.007812 20.6875 32.8125 21.292969 33.414062 Z M 21.867188 29.464844 C 22.753906 28.546875 24.339844 28.546875 25.226562 29.464844 C 25.226562 29.464844 25.703125 29.941406 25.703125 29.941406 C 25.855469 30.101562 26.132812 30.101562 26.285156 29.941406 C 26.835938 29.3125 27.5625 28.730469 28.441406 28.769531 C 30.515625 28.730469 31.628906 31.386719 30.128906 32.832031 C 30.128906 32.832031 25.992188 36.960938 25.992188 36.960938 L 21.867188 32.824219 C 20.933594 31.945312 20.933594 30.355469 21.867188 29.464844 Z M 43.765625 41.683594 L 41.464844 41.683594 L 41.464844 39.171875 C 41.863281 39.164062 42.621094 39.292969 42.605469 38.703125 L 41.515625 26.550781 C 41.882812 26.558594 42.582031 26.726562 42.605469 26.160156 C 42.605469 26.160156 42.605469 17.027344 42.605469 17.027344 L 43.765625 17.027344 C 43.996094 17.027344 44.179688 16.84375 44.179688 16.613281 L 44.179688 14.25 C 44.164062 14.09375 44.097656 13.949219 43.953125 13.878906 L 26.167969 5.253906 C 26.054688 5.199219 25.925781 5.199219 25.808594 5.253906 L 8.035156 13.886719 C 7.898438 13.957031 7.8125 14.101562 7.804688 14.257812 L 7.804688 16.621094 C 7.804688 16.851562 7.988281 17.035156 8.21875 17.035156 L 9.382812 17.035156 L 9.382812 26.167969 C 9.40625 26.734375 10.101562 26.558594 10.46875 26.558594 L 9.382812 38.710938 C 9.367188 39.300781 10.132812 39.171875 10.523438 39.179688 L 10.523438 41.691406 L 8.21875 41.691406 C 7.988281 41.691406 7.804688 41.875 7.804688 42.101562 L 7.804688 43.847656 C 7.804688 44.078125 7.988281 44.261719 8.21875 44.261719 L 43.773438 44.261719 C 44.003906 44.261719 44.1875 44.078125 44.1875 43.847656 L 44.1875 42.101562 C 44.179688 41.867188 43.996094 41.683594 43.765625 41.683594 Z M 41.746094 38.359375 C 40.714844 38.382812 39.597656 38.117188 38.707031 37.585938 L 38.707031 25.953125 C 39.351562 26.183594 40.007812 26.367188 40.683594 26.464844 Z M 40.644531 39.109375 L 40.644531 41.683594 L 39.847656 41.683594 L 39.847656 38.941406 C 40.109375 39.019531 40.375 39.066406 40.644531 39.109375 Z M 14.097656 35.582031 C 14.839844 35.359375 15.542969 35.046875 16.1875 34.640625 C 16.632812 34.355469 17.046875 34.035156 17.4375 33.660156 C 17.527344 33.578125 17.574219 33.453125 17.566406 33.324219 L 17.246094 29.640625 C 18.277344 29.234375 19.632812 27.859375 19.738281 26.566406 C 19.738281 26.566406 18.605469 21.253906 18.605469 21.253906 C 19.289062 19.949219 19.679688 18.503906 19.738281 17.035156 L 32.253906 17.035156 C 32.316406 18.503906 32.699219 19.949219 33.386719 21.253906 L 32.253906 26.566406 C 32.363281 27.859375 33.71875 29.234375 34.75 29.640625 L 34.429688 33.324219 C 34.421875 33.445312 34.46875 33.570312 34.558594 33.660156 C 35.507812 34.570312 36.640625 35.207031 37.902344 35.582031 L 37.902344 37.816406 C 37.949219 38.300781 38.675781 38.4375 39.042969 38.652344 L 39.042969 41.683594 L 12.957031 41.683594 L 12.957031 38.652344 C 13.292969 38.453125 14.058594 38.292969 14.097656 37.816406 C 14.097656 37.816406 14.097656 35.582031 14.097656 35.582031 Z M 16.730469 33.199219 C 15.964844 33.890625 15.078125 34.402344 14.097656 34.730469 L 14.097656 25.601562 C 14.765625 25.285156 15.382812 24.886719 15.964844 24.4375 C 16.179688 26.902344 16.515625 30.722656 16.730469 33.199219 Z M 16.730469 23.761719 C 17.199219 23.3125 17.605469 22.804688 17.988281 22.285156 L 18.914062 26.632812 C 18.675781 27.5 17.910156 28.394531 17.167969 28.769531 C 17.066406 27.660156 16.824219 24.84375 16.730469 23.761719 Z M 35.226562 24.054688 L 34.8125 28.761719 C 34.085938 28.402344 33.304688 27.5 33.066406 26.632812 C 33.066406 26.632812 33.992188 22.285156 33.992188 22.285156 C 34.375 22.804688 34.78125 23.3125 35.246094 23.761719 Z M 35.585938 29.417969 C 35.585938 29.417969 35.992188 24.75 35.992188 24.75 L 36.019531 24.4375 C 36.601562 24.886719 37.222656 25.285156 37.890625 25.601562 L 37.890625 34.722656 C 36.910156 34.402344 36.019531 33.890625 35.253906 33.195312 Z M 41.785156 25.753906 C 37.191406 25.621094 33.1875 21.648438 33.066406 17.042969 L 36.472656 17.042969 C 36.578125 20.53125 38.683594 23.847656 41.785156 25.4375 Z M 41.785156 24.496094 C 39.160156 22.972656 37.398438 20.082031 37.292969 17.035156 L 41.785156 17.035156 Z M 25.992188 6.082031 L 41.984375 13.84375 L 10.003906 13.84375 Z M 8.625 16.214844 L 8.625 14.667969 L 43.355469 14.667969 L 43.355469 16.214844 Z M 14.695312 17.035156 C 14.582031 20.082031 12.835938 22.96875 10.203125 24.496094 L 10.203125 17.035156 Z M 10.203125 25.753906 L 10.203125 25.4375 C 13.308594 23.839844 15.40625 20.539062 15.515625 17.042969 L 18.921875 17.042969 C 18.796875 21.644531 14.792969 25.617188 10.203125 25.753906 Z M 10.242188 38.359375 L 11.296875 26.464844 C 11.96875 26.367188 12.636719 26.183594 13.277344 25.953125 C 13.277344 27.667969 13.277344 36.054688 13.277344 37.585938 C 12.351562 38.121094 11.3125 38.375 10.242188 38.359375 Z M 12.132812 38.949219 L 12.132812 41.691406 L 11.34375 41.691406 L 11.34375 39.117188 C 11.609375 39.066406 11.878906 39.019531 12.132812 38.949219 Z M 43.363281 43.433594 L 8.625 43.433594 L 8.625 42.507812 L 43.355469 42.507812 L 43.355469 43.433594 Z M 33.226562 11.421875 L 26.175781 7.996094 C 26.0625 7.941406 25.933594 7.941406 25.816406 7.996094 L 18.765625 11.421875 C 18.382812 11.601562 18.523438 12.21875 18.945312 12.203125 C 18.945312 12.203125 33.050781 12.203125 33.050781 12.203125 C 33.464844 12.21875 33.617188 11.601562 33.226562 11.421875 Z M 20.726562 11.386719 L 25.992188 8.828125 L 31.261719 11.386719 Z M 20.726562 11.386719 " fill-opacity="1" fill-rule="nonzero"/></g></svg>