<svg xmlns="http://www.w3.org/2000/svg" xmlns:xlink="http://www.w3.org/1999/xlink" width="70" zoomAndPan="magnify" viewBox="0 0 52.5 52.499999" height="70" preserveAspectRatio="xMidYMid meet" version="1.0"><defs><clipPath id="8a47fd86c9"><path d="M 14 48 L 16 48 L 16 49.828125 L 14 49.828125 Z M 14 48 " clip-rule="nonzero"/></clipPath><clipPath id="2c193acaf4"><path d="M 25 4.511719 L 27 4.511719 L 27 14 L 25 14 Z M 25 4.511719 " clip-rule="nonzero"/></clipPath><clipPath id="0736995a2b"><path d="M 2.558594 19 L 5 19 L 5 23 L 2.558594 23 Z M 2.558594 19 " clip-rule="nonzero"/></clipPath><clipPath id="c0ff3ea057"><path d="M 2.558594 21 L 5 21 L 5 25 L 2.558594 25 Z M 2.558594 21 " clip-rule="nonzero"/></clipPath><clipPath id="00be6c0d37"><path d="M 37 45 L 42 45 L 42 49.828125 L 37 49.828125 Z M 37 45 " clip-rule="nonzero"/></clipPath><clipPath id="d4fe1ac764"><path d="M 46 37 L 49.363281 37 L 49.363281 38 L 46 38 Z M 46 37 " clip-rule="nonzero"/></clipPath></defs><path fill="#000139" d="M 7.382812 10.316406 C 7.183594 10.316406 7.015625 10.152344 7.015625 9.953125 C 7.015625 9.753906 7.175781 9.589844 7.375 9.589844 L 7.382812 9.589844 C 7.582031 9.589844 7.746094 9.753906 7.746094 9.953125 C 7.746094 10.152344 7.582031 10.316406 7.382812 10.316406 Z M 7.382812 10.316406 " fill-opacity="1" fill-rule="nonzero"/><path fill="#000139" d="M 41.480469 41.511719 C 41.28125 41.511719 41.117188 41.351562 41.117188 41.148438 C 41.117188 40.949219 41.273438 40.785156 41.472656 40.785156 L 41.480469 40.785156 C 41.679688 40.785156 41.84375 40.949219 41.84375 41.148438 C 41.84375 41.351562 41.679688 41.511719 41.480469 41.511719 Z M 41.480469 41.511719 " fill-opacity="1" fill-rule="nonzero"/><g clip-path="url(#8a47fd86c9)"><path fill="#000139" d="M 15.363281 49.492188 C 15.164062 49.492188 14.996094 49.332031 14.996094 49.128906 C 14.996094 48.929688 15.15625 48.765625 15.355469 48.765625 L 15.363281 48.765625 C 15.5625 48.765625 15.726562 48.929688 15.726562 49.128906 C 15.726562 49.332031 15.5625 49.492188 15.363281 49.492188 Z M 15.363281 49.492188 " fill-opacity="1" fill-rule="nonzero"/></g><path fill="#000139" d="M 7.382812 38.609375 C 7.183594 38.609375 7.015625 38.449219 7.015625 38.246094 C 7.015625 38.046875 7.175781 37.886719 7.375 37.886719 L 7.382812 37.886719 C 7.582031 37.886719 7.746094 38.046875 7.746094 38.246094 C 7.746094 38.449219 7.582031 38.609375 7.382812 38.609375 Z M 7.382812 38.609375 " fill-opacity="1" fill-rule="nonzero"/><path fill="#000139" d="M 47.285156 15.429688 C 47.085938 15.429688 46.917969 15.265625 46.917969 15.066406 C 46.917969 14.863281 47.078125 14.703125 47.277344 14.703125 L 47.285156 14.703125 C 47.484375 14.703125 47.648438 14.863281 47.648438 15.066406 C 47.648438 15.265625 47.484375 15.429688 47.285156 15.429688 Z M 47.285156 15.429688 " fill-opacity="1" fill-rule="nonzero"/><path fill="#000139" d="M 25.859375 46.589844 C 17.058594 46.589844 9.898438 39.429688 9.898438 30.628906 C 9.898438 21.828125 17.058594 14.667969 25.859375 14.667969 C 30.242188 14.667969 34.328125 16.40625 37.363281 19.5625 C 37.503906 19.710938 37.5 19.9375 37.355469 20.078125 C 37.210938 20.21875 36.980469 20.210938 36.839844 20.066406 C 33.941406 17.054688 30.042969 15.394531 25.863281 15.394531 C 17.460938 15.394531 10.625 22.230469 10.625 30.628906 C 10.625 39.03125 17.460938 45.867188 25.863281 45.867188 C 34.261719 45.867188 41.097656 39.03125 41.097656 30.628906 C 41.097656 28.535156 40.679688 26.507812 39.859375 24.605469 C 39.777344 24.417969 39.863281 24.207031 40.046875 24.128906 C 40.230469 24.046875 40.445312 24.132812 40.523438 24.316406 C 41.386719 26.3125 41.824219 28.4375 41.824219 30.628906 C 41.824219 39.429688 34.664062 46.589844 25.859375 46.589844 Z M 25.859375 46.589844 " fill-opacity="1" fill-rule="nonzero"/><path fill="#000139" d="M 29.558594 44.835938 C 29.535156 44.835938 29.507812 44.835938 29.484375 44.832031 C 29.289062 44.789062 29.160156 44.601562 29.203125 44.402344 C 29.214844 44.332031 30.644531 37.121094 30.644531 30.628906 C 30.644531 24.136719 29.214844 16.929688 29.203125 16.855469 C 29.160156 16.660156 29.289062 16.46875 29.484375 16.429688 C 29.679688 16.390625 29.871094 16.515625 29.914062 16.714844 C 29.925781 16.785156 31.371094 24.0625 31.371094 30.628906 C 31.371094 37.195312 29.925781 44.472656 29.914062 44.546875 C 29.878906 44.71875 29.726562 44.835938 29.558594 44.835938 Z M 29.558594 44.835938 " fill-opacity="1" fill-rule="nonzero"/><path fill="#000139" d="M 33.183594 43.386719 C 33.144531 43.386719 33.105469 43.378906 33.0625 43.367188 C 32.875 43.296875 32.777344 43.089844 32.84375 42.902344 C 32.863281 42.839844 35 36.730469 35 30.628906 C 35 24.527344 32.863281 18.417969 32.84375 18.355469 C 32.777344 18.167969 32.875 17.960938 33.0625 17.894531 C 33.25 17.828125 33.457031 17.925781 33.527344 18.113281 C 33.546875 18.175781 35.722656 24.398438 35.722656 30.628906 C 35.722656 36.859375 33.546875 43.082031 33.527344 43.144531 C 33.472656 43.292969 33.332031 43.386719 33.183594 43.386719 Z M 33.183594 43.386719 " fill-opacity="1" fill-rule="nonzero"/><path fill="#000139" d="M 36.8125 40.5 C 36.761719 40.5 36.710938 40.488281 36.660156 40.464844 C 36.476562 40.382812 36.398438 40.167969 36.484375 39.984375 C 36.503906 39.9375 38.625 35.277344 38.625 30.628906 C 38.625 29.210938 38.429688 27.652344 38.042969 26 C 37.996094 25.804688 38.117188 25.609375 38.3125 25.5625 C 38.515625 25.515625 38.703125 25.636719 38.75 25.832031 C 39.148438 27.539062 39.351562 29.152344 39.351562 30.628906 C 39.351562 35.441406 37.230469 40.09375 37.140625 40.289062 C 37.082031 40.421875 36.949219 40.5 36.8125 40.5 Z M 36.8125 40.5 " fill-opacity="1" fill-rule="nonzero"/><path fill="#000139" d="M 20.953125 27.726562 C 20.949219 27.726562 20.941406 27.726562 20.933594 27.726562 C 20.734375 27.714844 20.582031 27.542969 20.59375 27.34375 C 20.921875 21.863281 21.9375 16.765625 21.945312 16.714844 C 21.984375 16.515625 22.179688 16.390625 22.375 16.429688 C 22.570312 16.46875 22.695312 16.660156 22.65625 16.855469 C 22.648438 16.90625 21.644531 21.957031 21.316406 27.386719 C 21.304688 27.578125 21.144531 27.726562 20.953125 27.726562 Z M 20.953125 27.726562 " fill-opacity="1" fill-rule="nonzero"/><path fill="#000139" d="M 22.300781 44.835938 C 22.132812 44.835938 21.980469 44.71875 21.945312 44.546875 C 21.9375 44.496094 20.921875 39.398438 20.59375 33.917969 C 20.582031 33.71875 20.734375 33.542969 20.933594 33.53125 C 21.15625 33.511719 21.304688 33.671875 21.316406 33.871094 C 21.644531 39.304688 22.648438 44.351562 22.65625 44.402344 C 22.695312 44.601562 22.570312 44.789062 22.375 44.832031 C 22.347656 44.835938 22.324219 44.835938 22.300781 44.835938 Z M 22.300781 44.835938 " fill-opacity="1" fill-rule="nonzero"/><path fill="#000139" d="M 18.675781 43.386719 C 18.523438 43.386719 18.386719 43.292969 18.332031 43.144531 C 18.308594 43.082031 16.136719 36.859375 16.136719 30.628906 C 16.136719 24.398438 18.308594 18.175781 18.332031 18.113281 C 18.398438 17.925781 18.605469 17.828125 18.796875 17.894531 C 18.984375 17.960938 19.082031 18.167969 19.015625 18.355469 C 18.996094 18.417969 16.859375 24.527344 16.859375 30.628906 C 16.859375 36.730469 18.996094 42.839844 19.015625 42.902344 C 19.082031 43.089844 18.984375 43.296875 18.796875 43.367188 C 18.753906 43.378906 18.714844 43.386719 18.675781 43.386719 Z M 18.675781 43.386719 " fill-opacity="1" fill-rule="nonzero"/><path fill="#000139" d="M 15.046875 40.5 C 14.910156 40.5 14.777344 40.421875 14.71875 40.289062 C 14.628906 40.09375 12.507812 35.441406 12.507812 30.628906 C 12.507812 25.820312 14.628906 21.167969 14.71875 20.972656 C 14.800781 20.789062 15.019531 20.710938 15.199219 20.792969 C 15.378906 20.878906 15.460938 21.09375 15.375 21.273438 C 15.355469 21.320312 13.234375 25.980469 13.234375 30.628906 C 13.234375 35.277344 15.355469 39.9375 15.375 39.984375 C 15.460938 40.167969 15.378906 40.382812 15.199219 40.464844 C 15.148438 40.488281 15.097656 40.5 15.046875 40.5 Z M 15.046875 40.5 " fill-opacity="1" fill-rule="nonzero"/><path fill="#000139" d="M 18.242188 30.992188 L 11.359375 30.992188 C 11.160156 30.992188 10.996094 30.832031 10.996094 30.628906 C 10.996094 30.429688 11.160156 30.265625 11.359375 30.265625 L 18.242188 30.265625 C 18.445312 30.265625 18.605469 30.429688 18.605469 30.628906 C 18.605469 30.832031 18.445312 30.992188 18.242188 30.992188 Z M 18.242188 30.992188 " fill-opacity="1" fill-rule="nonzero"/><path fill="#000139" d="M 40.5 30.992188 L 23.320312 30.992188 C 23.121094 30.992188 22.960938 30.832031 22.960938 30.628906 C 22.960938 30.429688 23.121094 30.265625 23.320312 30.265625 L 40.5 30.265625 C 40.699219 30.265625 40.863281 30.429688 40.863281 30.628906 C 40.863281 30.832031 40.699219 30.992188 40.5 30.992188 Z M 40.5 30.992188 " fill-opacity="1" fill-rule="nonzero"/><path fill="#000139" d="M 25.867188 36.011719 C 19.304688 36.011719 12.027344 34.566406 11.953125 34.554688 C 11.757812 34.511719 11.628906 34.324219 11.667969 34.125 C 11.707031 33.929688 11.902344 33.800781 12.097656 33.839844 C 12.167969 33.855469 19.378906 35.285156 25.867188 35.285156 C 32.363281 35.285156 39.570312 33.855469 39.640625 33.839844 C 39.835938 33.800781 40.03125 33.929688 40.070312 34.125 C 40.109375 34.324219 39.980469 34.511719 39.785156 34.554688 C 39.710938 34.566406 32.433594 36.011719 25.867188 36.011719 Z M 25.867188 36.011719 " fill-opacity="1" fill-rule="nonzero"/><path fill="#000139" d="M 25.867188 40.363281 C 19.640625 40.363281 13.417969 38.1875 13.355469 38.167969 C 13.164062 38.097656 13.066406 37.894531 13.132812 37.703125 C 13.199219 37.515625 13.40625 37.417969 13.597656 37.480469 C 13.65625 37.503906 19.765625 39.636719 25.867188 39.636719 C 31.972656 39.636719 38.082031 37.503906 38.140625 37.480469 C 38.332031 37.414062 38.535156 37.515625 38.605469 37.703125 C 38.671875 37.894531 38.574219 38.097656 38.382812 38.167969 C 38.320312 38.1875 32.097656 40.363281 25.867188 40.363281 Z M 25.867188 40.363281 " fill-opacity="1" fill-rule="nonzero"/><path fill="#000139" d="M 25.867188 43.992188 C 21.058594 43.992188 16.40625 41.871094 16.210938 41.78125 C 16.027344 41.699219 15.949219 41.480469 16.03125 41.300781 C 16.117188 41.117188 16.335938 41.039062 16.515625 41.121094 C 16.5625 41.144531 21.222656 43.265625 25.867188 43.265625 C 30.515625 43.265625 35.175781 41.144531 35.222656 41.121094 C 35.40625 41.039062 35.621094 41.117188 35.707031 41.300781 C 35.789062 41.484375 35.710938 41.699219 35.527344 41.78125 C 35.332031 41.871094 30.679688 43.992188 25.867188 43.992188 Z M 25.867188 43.992188 " fill-opacity="1" fill-rule="nonzero"/><path fill="#000139" d="M 12.023438 27.304688 C 11.855469 27.304688 11.703125 27.1875 11.667969 27.011719 C 11.628906 26.816406 11.757812 26.625 11.953125 26.585938 C 12.027344 26.570312 19.304688 25.128906 25.867188 25.128906 C 32.433594 25.128906 39.710938 26.570312 39.785156 26.585938 C 39.980469 26.625 40.109375 26.816406 40.070312 27.011719 C 40.03125 27.210938 39.835938 27.335938 39.640625 27.296875 C 39.570312 27.285156 32.359375 25.855469 25.867188 25.855469 C 19.375 25.855469 12.167969 27.285156 12.097656 27.296875 C 12.070312 27.300781 12.046875 27.304688 12.023438 27.304688 Z M 12.023438 27.304688 " fill-opacity="1" fill-rule="nonzero"/><path fill="#000139" d="M 13.476562 23.675781 C 13.324219 23.675781 13.1875 23.585938 13.132812 23.4375 C 13.066406 23.246094 13.164062 23.039062 13.355469 22.972656 C 13.417969 22.949219 19.640625 20.773438 25.871094 20.773438 C 29.632812 20.773438 33.359375 21.554688 35.820312 22.207031 C 36.015625 22.257812 36.128906 22.457031 36.078125 22.648438 C 36.027344 22.84375 35.832031 22.960938 35.636719 22.90625 C 33.214844 22.265625 29.554688 21.5 25.867188 21.5 C 19.765625 21.5 13.65625 23.632812 13.597656 23.65625 C 13.554688 23.671875 13.515625 23.675781 13.476562 23.675781 Z M 13.476562 23.675781 " fill-opacity="1" fill-rule="nonzero"/><path fill="#000139" d="M 16.363281 20.050781 C 16.226562 20.050781 16.09375 19.972656 16.03125 19.839844 C 15.949219 19.65625 16.027344 19.441406 16.210938 19.359375 C 16.40625 19.265625 21.058594 17.148438 25.867188 17.148438 C 30.679688 17.148438 35.332031 19.265625 35.527344 19.359375 C 35.710938 19.441406 35.789062 19.65625 35.707031 19.839844 C 35.621094 20.019531 35.40625 20.101562 35.222656 20.015625 C 35.175781 19.996094 30.515625 17.875 25.867188 17.875 C 21.222656 17.875 16.5625 19.996094 16.515625 20.015625 C 16.464844 20.039062 16.414062 20.050781 16.363281 20.050781 Z M 16.363281 20.050781 " fill-opacity="1" fill-rule="nonzero"/><path fill="#000139" d="M 25.867188 45.503906 C 25.667969 45.503906 25.507812 45.339844 25.507812 45.140625 L 25.507812 16 C 25.507812 15.796875 25.667969 15.636719 25.867188 15.636719 C 26.070312 15.636719 26.230469 15.796875 26.230469 16 L 26.230469 45.140625 C 26.230469 45.339844 26.070312 45.503906 25.867188 45.503906 Z M 25.867188 45.503906 " fill-opacity="1" fill-rule="nonzero"/><g clip-path="url(#2c193acaf4)"><path fill="#000139" d="M 25.859375 13.941406 C 25.660156 13.941406 25.5 13.78125 25.5 13.582031 L 25.5 4.875 C 25.5 4.671875 25.660156 4.511719 25.859375 4.511719 C 26.0625 4.511719 26.222656 4.671875 26.222656 4.875 L 26.222656 13.582031 C 26.222656 13.78125 26.0625 13.941406 25.859375 13.941406 Z M 25.859375 13.941406 " fill-opacity="1" fill-rule="nonzero"/></g><path fill="#000139" d="M 4.457031 24.824219 C 4.257812 24.824219 4.097656 24.664062 4.097656 24.464844 C 4.097656 22.777344 5.683594 21.992188 5.753906 21.960938 C 5.933594 21.871094 6.148438 21.949219 6.234375 22.128906 C 6.324219 22.308594 6.246094 22.523438 6.070312 22.613281 C 6.015625 22.636719 4.820312 23.238281 4.820312 24.464844 C 4.820312 24.664062 4.660156 24.824219 4.457031 24.824219 Z M 4.457031 24.824219 " fill-opacity="1" fill-rule="nonzero"/><path fill="#000139" d="M 5.910156 22.648438 C 5.855469 22.648438 5.804688 22.636719 5.753906 22.613281 C 5.683594 22.582031 4.097656 21.792969 4.097656 20.109375 C 4.097656 19.910156 4.257812 19.746094 4.457031 19.746094 C 4.660156 19.746094 4.820312 19.910156 4.820312 20.109375 C 4.820312 21.34375 6.054688 21.953125 6.066406 21.960938 C 6.246094 22.046875 6.324219 22.265625 6.238281 22.445312 C 6.175781 22.574219 6.042969 22.648438 5.910156 22.648438 Z M 5.910156 22.648438 " fill-opacity="1" fill-rule="nonzero"/><g clip-path="url(#0736995a2b)"><path fill="#000139" d="M 3.007812 22.648438 C 2.875 22.648438 2.746094 22.574219 2.683594 22.445312 C 2.59375 22.265625 2.667969 22.046875 2.847656 21.960938 C 2.898438 21.933594 4.097656 21.335938 4.097656 20.109375 C 4.097656 19.910156 4.257812 19.746094 4.457031 19.746094 C 4.660156 19.746094 4.820312 19.910156 4.820312 20.109375 C 4.820312 21.792969 3.234375 22.582031 3.164062 22.613281 C 3.113281 22.636719 3.0625 22.648438 3.007812 22.648438 Z M 3.007812 22.648438 " fill-opacity="1" fill-rule="nonzero"/></g><g clip-path="url(#c0ff3ea057)"><path fill="#000139" d="M 4.457031 24.824219 C 4.257812 24.824219 4.097656 24.664062 4.097656 24.464844 C 4.097656 23.230469 2.863281 22.621094 2.851562 22.613281 C 2.667969 22.527344 2.59375 22.308594 2.679688 22.128906 C 2.769531 21.949219 2.988281 21.871094 3.164062 21.960938 C 3.234375 21.992188 4.820312 22.777344 4.820312 24.464844 C 4.820312 24.664062 4.660156 24.824219 4.457031 24.824219 Z M 4.457031 24.824219 " fill-opacity="1" fill-rule="nonzero"/></g><path fill="#000139" d="M 38.558594 24.824219 C 38.355469 24.824219 38.195312 24.664062 38.195312 24.464844 C 38.195312 22.777344 39.785156 21.992188 39.851562 21.960938 C 40.03125 21.871094 40.246094 21.949219 40.335938 22.128906 C 40.421875 22.308594 40.347656 22.523438 40.167969 22.613281 C 40.117188 22.636719 38.921875 23.238281 38.921875 24.464844 C 38.921875 24.664062 38.757812 24.824219 38.558594 24.824219 Z M 38.558594 24.824219 " fill-opacity="1" fill-rule="nonzero"/><path fill="#000139" d="M 40.007812 22.648438 C 39.957031 22.648438 39.902344 22.636719 39.851562 22.613281 C 39.785156 22.582031 38.195312 21.792969 38.195312 20.109375 C 38.195312 19.910156 38.355469 19.746094 38.558594 19.746094 C 38.757812 19.746094 38.921875 19.910156 38.921875 20.109375 C 38.921875 21.34375 40.152344 21.953125 40.164062 21.960938 C 40.347656 22.046875 40.421875 22.265625 40.335938 22.445312 C 40.273438 22.574219 40.144531 22.648438 40.007812 22.648438 Z M 40.007812 22.648438 " fill-opacity="1" fill-rule="nonzero"/><path fill="#000139" d="M 37.109375 22.648438 C 36.972656 22.648438 36.84375 22.574219 36.78125 22.445312 C 36.695312 22.265625 36.769531 22.046875 36.949219 21.960938 C 37 21.933594 38.195312 21.335938 38.195312 20.109375 C 38.195312 19.910156 38.355469 19.746094 38.558594 19.746094 C 38.757812 19.746094 38.921875 19.910156 38.921875 20.109375 C 38.921875 21.792969 37.332031 22.582031 37.265625 22.613281 C 37.214844 22.636719 37.160156 22.648438 37.109375 22.648438 Z M 37.109375 22.648438 " fill-opacity="1" fill-rule="nonzero"/><path fill="#000139" d="M 38.558594 24.824219 C 38.355469 24.824219 38.195312 24.664062 38.195312 24.464844 C 38.195312 23.230469 36.960938 22.621094 36.949219 22.613281 C 36.769531 22.527344 36.691406 22.308594 36.78125 22.128906 C 36.867188 21.949219 37.085938 21.871094 37.265625 21.960938 C 37.332031 21.992188 38.921875 22.777344 38.921875 24.464844 C 38.921875 24.664062 38.757812 24.824219 38.558594 24.824219 Z M 38.558594 24.824219 " fill-opacity="1" fill-rule="nonzero"/><path fill="#000139" d="M 20.78125 33.109375 C 20.582031 33.109375 20.421875 32.945312 20.421875 32.746094 C 20.421875 31.0625 22.007812 30.273438 22.078125 30.242188 C 22.257812 30.15625 22.472656 30.230469 22.558594 30.410156 C 22.648438 30.589844 22.570312 30.808594 22.390625 30.894531 C 22.339844 30.921875 21.144531 31.519531 21.144531 32.746094 C 21.144531 32.945312 20.984375 33.109375 20.78125 33.109375 Z M 20.78125 33.109375 " fill-opacity="1" fill-rule="nonzero"/><path fill="#000139" d="M 22.234375 30.933594 C 22.179688 30.933594 22.125 30.921875 22.078125 30.894531 C 22.007812 30.863281 20.421875 30.078125 20.421875 28.390625 C 20.421875 28.191406 20.582031 28.03125 20.78125 28.03125 C 20.984375 28.03125 21.144531 28.191406 21.144531 28.390625 C 21.144531 29.625 22.378906 30.234375 22.390625 30.242188 C 22.570312 30.328125 22.648438 30.546875 22.558594 30.726562 C 22.496094 30.855469 22.367188 30.933594 22.234375 30.933594 Z M 22.234375 30.933594 " fill-opacity="1" fill-rule="nonzero"/><path fill="#000139" d="M 19.332031 30.933594 C 19.199219 30.933594 19.070312 30.855469 19.003906 30.726562 C 18.917969 30.546875 18.992188 30.332031 19.171875 30.242188 C 19.222656 30.21875 20.421875 29.617188 20.421875 28.390625 C 20.421875 28.191406 20.582031 28.03125 20.78125 28.03125 C 20.984375 28.03125 21.144531 28.191406 21.144531 28.390625 C 21.144531 30.078125 19.558594 30.863281 19.488281 30.894531 C 19.4375 30.921875 19.386719 30.933594 19.332031 30.933594 Z M 19.332031 30.933594 " fill-opacity="1" fill-rule="nonzero"/><path fill="#000139" d="M 20.78125 33.109375 C 20.582031 33.109375 20.421875 32.945312 20.421875 32.746094 C 20.421875 31.511719 19.1875 30.902344 19.175781 30.894531 C 18.992188 30.808594 18.917969 30.589844 19.003906 30.410156 C 19.09375 30.230469 19.3125 30.15625 19.488281 30.242188 C 19.558594 30.273438 21.144531 31.0625 21.144531 32.746094 C 21.144531 32.945312 20.984375 33.109375 20.78125 33.109375 Z M 20.78125 33.109375 " fill-opacity="1" fill-rule="nonzero"/><path fill="#000139" d="M 19.867188 11.695312 C 19.808594 11.695312 19.75 11.683594 19.699219 11.652344 L 18.96875 11.269531 L 18.242188 11.652344 C 18.117188 11.71875 17.96875 11.707031 17.859375 11.625 C 17.746094 11.546875 17.691406 11.40625 17.714844 11.269531 L 17.855469 10.460938 L 17.265625 9.886719 C 17.164062 9.789062 17.128906 9.644531 17.171875 9.515625 C 17.214844 9.382812 17.328125 9.289062 17.464844 9.269531 L 18.28125 9.148438 L 18.644531 8.410156 C 18.765625 8.164062 19.171875 8.164062 19.292969 8.410156 L 19.660156 9.148438 L 20.472656 9.269531 C 20.609375 9.289062 20.722656 9.382812 20.765625 9.515625 C 20.808594 9.644531 20.773438 9.789062 20.671875 9.886719 L 20.085938 10.460938 L 20.222656 11.269531 C 20.246094 11.40625 20.191406 11.546875 20.078125 11.625 C 20.015625 11.671875 19.941406 11.695312 19.867188 11.695312 Z M 18.96875 10.5 C 19.027344 10.5 19.085938 10.511719 19.136719 10.539062 L 19.382812 10.667969 L 19.335938 10.394531 C 19.316406 10.277344 19.355469 10.15625 19.441406 10.074219 L 19.640625 9.878906 L 19.363281 9.839844 C 19.246094 9.824219 19.144531 9.75 19.09375 9.640625 L 18.96875 9.390625 L 18.84375 9.640625 C 18.792969 9.75 18.691406 9.824219 18.574219 9.839844 L 18.296875 9.878906 L 18.496094 10.074219 C 18.582031 10.15625 18.621094 10.277344 18.601562 10.394531 L 18.554688 10.667969 L 18.800781 10.539062 C 18.851562 10.511719 18.910156 10.5 18.96875 10.5 Z M 18.96875 10.5 " fill-opacity="1" fill-rule="nonzero"/><g clip-path="url(#00be6c0d37)"><path fill="#000139" d="M 40.179688 49.421875 C 40.121094 49.421875 40.066406 49.410156 40.011719 49.378906 L 39.285156 48.996094 L 38.554688 49.378906 C 38.433594 49.445312 38.285156 49.433594 38.171875 49.351562 C 38.0625 49.273438 38.003906 49.132812 38.027344 49 L 38.167969 48.1875 L 37.578125 47.613281 C 37.480469 47.515625 37.445312 47.371094 37.488281 47.242188 C 37.53125 47.109375 37.644531 47.015625 37.78125 46.992188 L 38.59375 46.875 L 38.957031 46.140625 C 39.019531 46.015625 39.144531 45.9375 39.28125 45.9375 C 39.421875 45.9375 39.546875 46.015625 39.609375 46.136719 L 39.972656 46.875 L 40.785156 46.996094 C 40.921875 47.015625 41.035156 47.109375 41.078125 47.242188 C 41.121094 47.371094 41.085938 47.515625 40.988281 47.613281 L 40.398438 48.1875 L 40.539062 48.996094 C 40.5625 49.132812 40.503906 49.273438 40.394531 49.351562 C 40.332031 49.398438 40.253906 49.421875 40.179688 49.421875 Z M 39.28125 48.226562 C 39.339844 48.226562 39.398438 48.238281 39.453125 48.265625 L 39.699219 48.394531 L 39.652344 48.121094 C 39.632812 48.003906 39.671875 47.882812 39.753906 47.800781 L 39.953125 47.605469 L 39.679688 47.566406 C 39.5625 47.550781 39.460938 47.476562 39.40625 47.367188 L 39.285156 47.117188 L 39.160156 47.367188 C 39.109375 47.476562 39.003906 47.550781 38.886719 47.566406 L 38.613281 47.605469 L 38.8125 47.800781 C 38.894531 47.882812 38.933594 48.003906 38.914062 48.121094 L 38.867188 48.394531 L 39.113281 48.265625 C 39.167969 48.238281 39.226562 48.226562 39.28125 48.226562 Z M 39.28125 48.226562 " fill-opacity="1" fill-rule="nonzero"/></g><path fill="#000139" d="M 47.988281 39.335938 C 47.789062 39.335938 47.625 39.171875 47.625 38.972656 L 47.625 36.070312 C 47.625 35.871094 47.789062 35.707031 47.988281 35.707031 C 48.191406 35.707031 48.351562 35.871094 48.351562 36.070312 L 48.351562 38.972656 C 48.351562 39.171875 48.191406 39.335938 47.988281 39.335938 Z M 47.988281 39.335938 " fill-opacity="1" fill-rule="nonzero"/><g clip-path="url(#d4fe1ac764)"><path fill="#000139" d="M 48.714844 37.886719 L 47.265625 37.886719 C 47.0625 37.886719 46.902344 37.722656 46.902344 37.523438 C 46.902344 37.320312 47.0625 37.160156 47.265625 37.160156 L 48.714844 37.160156 C 48.914062 37.160156 49.078125 37.320312 49.078125 37.523438 C 49.078125 37.722656 48.914062 37.886719 48.714844 37.886719 Z M 48.714844 37.886719 " fill-opacity="1" fill-rule="nonzero"/></g><path fill="#000139" d="M 5.910156 48.042969 C 5.710938 48.042969 5.546875 47.878906 5.546875 47.679688 L 5.546875 44.777344 C 5.546875 44.578125 5.710938 44.414062 5.910156 44.414062 C 6.109375 44.414062 6.273438 44.578125 6.273438 44.777344 L 6.273438 47.679688 C 6.273438 47.878906 6.109375 48.042969 5.910156 48.042969 Z M 5.910156 48.042969 " fill-opacity="1" fill-rule="nonzero"/><path fill="#000139" d="M 6.636719 46.589844 L 5.183594 46.589844 C 4.984375 46.589844 4.820312 46.429688 4.820312 46.226562 C 4.820312 46.027344 4.984375 45.867188 5.183594 45.867188 L 6.636719 45.867188 C 6.835938 45.867188 7 46.027344 7 46.226562 C 7 46.429688 6.835938 46.589844 6.636719 46.589844 Z M 6.636719 46.589844 " fill-opacity="1" fill-rule="nonzero"/><path fill="#000139" d="M 37.832031 14.667969 C 37.632812 14.667969 37.46875 14.507812 37.46875 14.304688 L 37.46875 11.402344 C 37.46875 11.203125 37.632812 11.042969 37.832031 11.042969 C 38.03125 11.042969 38.195312 11.203125 38.195312 11.402344 L 38.195312 14.304688 C 38.195312 14.507812 38.03125 14.667969 37.832031 14.667969 Z M 37.832031 14.667969 " fill-opacity="1" fill-rule="nonzero"/><path fill="#000139" d="M 38.558594 13.21875 L 37.105469 13.21875 C 36.90625 13.21875 36.742188 13.054688 36.742188 12.855469 C 36.742188 12.65625 36.90625 12.492188 37.105469 12.492188 L 38.558594 12.492188 C 38.757812 12.492188 38.921875 12.65625 38.921875 12.855469 C 38.921875 13.054688 38.757812 13.21875 38.558594 13.21875 Z M 38.558594 13.21875 " fill-opacity="1" fill-rule="nonzero"/></svg>