<svg xmlns="http://www.w3.org/2000/svg" xmlns:xlink="http://www.w3.org/1999/xlink" width="70" zoomAndPan="magnify" viewBox="0 0 52.5 52.499999" height="70" preserveAspectRatio="xMidYMid meet" version="1.0"><defs><clipPath id="1cc41b7901"><path d="M 6.707031 26 L 18 26 L 18 47 L 6.707031 47 Z M 6.707031 26 " clip-rule="nonzero"/></clipPath><clipPath id="170b985c66"><path d="M 17 4.15625 L 26 4.15625 L 26 8 L 17 8 Z M 17 4.15625 " clip-rule="nonzero"/></clipPath><clipPath id="b931cb5de0"><path d="M 34 27 L 48 27 L 48 47.988281 L 34 47.988281 Z M 34 27 " clip-rule="nonzero"/></clipPath></defs><path fill="#5e3023" d="M 14.410156 24.105469 C 14.511719 24.695312 14.613281 25.320312 14.871094 25.867188 C 14.945312 26.027344 15.175781 25.953125 15.140625 25.78125 C 15.039062 25.257812 14.882812 24.746094 14.785156 24.222656 C 14.683594 23.65625 14.617188 23.082031 14.570312 22.511719 C 14.472656 21.242188 14.492188 19.964844 14.578125 18.695312 C 14.761719 15.972656 15.257812 13.265625 15.949219 10.625 C 16.132812 9.914062 16.335938 9.207031 16.554688 8.503906 C 16.660156 8.164062 16.769531 7.828125 16.882812 7.492188 C 16.992188 7.15625 17.132812 6.828125 17.179688 6.476562 C 17.199219 6.347656 17.035156 6.296875 16.96875 6.402344 C 16.796875 6.667969 16.707031 6.964844 16.601562 7.257812 C 16.496094 7.5625 16.390625 7.867188 16.292969 8.175781 C 16.09375 8.808594 15.90625 9.441406 15.730469 10.082031 C 15.367188 11.421875 15.054688 12.78125 14.808594 14.148438 C 14.328125 16.769531 14.035156 19.464844 14.191406 22.132812 C 14.230469 22.792969 14.296875 23.453125 14.410156 24.105469 Z M 14.410156 24.105469 " fill-opacity="1" fill-rule="nonzero"/><g clip-path="url(#1cc41b7901)"><path fill="#5e3023" d="M 17.832031 26.886719 C 17.730469 26.976562 17.617188 27.042969 17.523438 27.132812 C 17.421875 27.222656 17.339844 27.328125 17.257812 27.433594 C 17.089844 27.644531 16.933594 27.863281 16.789062 28.089844 C 16.5 28.542969 16.273438 29.042969 16.105469 29.550781 C 15.921875 30.117188 15.804688 30.707031 15.660156 31.285156 C 15.507812 31.898438 15.359375 32.511719 15.207031 33.121094 C 14.597656 35.589844 13.984375 38.058594 13.378906 40.527344 C 13.296875 40.855469 13.21875 41.183594 13.132812 41.511719 C 13.050781 41.835938 12.941406 42.152344 12.878906 42.480469 C 12.78125 43.027344 12.851562 43.671875 13.414062 43.929688 C 13.5 43.96875 13.601562 43.855469 13.515625 43.789062 C 13.085938 43.472656 13.164062 42.820312 13.277344 42.363281 C 13.300781 42.285156 13.320312 42.203125 13.34375 42.125 C 14.007812 42.335938 14.652344 42.589844 15.269531 42.914062 C 15.585938 43.078125 15.902344 43.25 16.203125 43.445312 C 16.523438 43.65625 16.851562 43.882812 17.09375 44.183594 C 17.324219 44.464844 17.496094 44.820312 17.441406 45.191406 C 17.386719 45.566406 17.097656 45.789062 16.75 45.890625 C 16.378906 46 15.972656 46 15.589844 45.992188 C 15.136719 45.988281 14.683594 45.964844 14.230469 45.925781 C 13.734375 45.882812 13.242188 45.816406 12.75 45.734375 C 12.515625 45.695312 12.277344 45.648438 12.042969 45.601562 C 11.949219 45.578125 11.855469 45.554688 11.757812 45.535156 C 11.570312 45.480469 11.382812 45.429688 11.199219 45.375 C 10.800781 45.253906 10.414062 45.125 10.023438 44.976562 C 9.277344 44.695312 8.527344 44.371094 7.835938 43.96875 C 7.542969 43.796875 7.234375 43.589844 7.066406 43.289062 C 6.882812 42.964844 6.957031 42.59375 7.1875 42.316406 C 7.664062 41.742188 8.570312 41.671875 9.261719 41.640625 C 10.105469 41.601562 10.921875 41.703125 11.75 41.847656 C 11.679688 42.089844 11.609375 42.328125 11.53125 42.566406 C 11.480469 42.707031 11.4375 42.863281 11.320312 42.960938 C 11.207031 43.050781 11.035156 43.078125 10.894531 43.082031 C 10.785156 43.089844 10.734375 43.25 10.847656 43.300781 C 11.085938 43.402344 11.34375 43.351562 11.542969 43.175781 C 11.746094 43 11.8125 42.71875 11.890625 42.472656 C 12.085938 41.855469 12.230469 41.226562 12.367188 40.597656 C 12.648438 39.300781 12.96875 38.011719 13.28125 36.722656 C 13.597656 35.421875 13.898438 34.113281 14.199219 32.808594 C 14.347656 32.164062 14.496094 31.515625 14.652344 30.875 C 14.804688 30.253906 14.980469 29.640625 15.128906 29.019531 C 15.234375 28.574219 15.226562 28.089844 15.226562 27.632812 C 15.226562 27.496094 15.21875 27.359375 15.210938 27.21875 C 15.199219 27.09375 15.167969 26.972656 15.15625 26.847656 C 15.140625 26.636719 15.121094 26.429688 15.097656 26.21875 C 15.089844 26.15625 14.992188 26.160156 14.992188 26.226562 C 14.996094 26.398438 14.996094 26.570312 14.996094 26.746094 C 14.996094 26.964844 14.972656 27.179688 14.964844 27.398438 C 14.957031 27.828125 14.964844 28.257812 14.910156 28.683594 C 14.839844 29.203125 14.65625 29.714844 14.527344 30.222656 C 14.375 30.835938 14.226562 31.453125 14.082031 32.066406 C 13.792969 33.3125 13.515625 34.558594 13.214844 35.796875 C 12.910156 37.058594 12.585938 38.316406 12.289062 39.578125 C 12.132812 40.242188 11.996094 40.910156 11.824219 41.574219 C 11.050781 41.347656 10.199219 41.28125 9.402344 41.324219 C 8.640625 41.363281 7.71875 41.484375 7.132812 42.019531 C 6.878906 42.253906 6.699219 42.589844 6.71875 42.941406 C 6.742188 43.285156 6.953125 43.574219 7.203125 43.792969 C 7.507812 44.058594 7.875 44.242188 8.226562 44.433594 C 8.617188 44.640625 9.011719 44.832031 9.417969 45.003906 C 9.867188 45.199219 10.328125 45.371094 10.792969 45.527344 C 11.039062 45.609375 11.285156 45.679688 11.535156 45.75 C 11.675781 45.789062 11.820312 45.832031 11.964844 45.855469 C 12.179688 45.902344 12.390625 45.941406 12.601562 45.980469 C 13.09375 46.066406 13.589844 46.125 14.085938 46.164062 C 14.5625 46.203125 15.039062 46.222656 15.515625 46.21875 C 15.929688 46.214844 16.351562 46.214844 16.753906 46.113281 C 17.097656 46.023438 17.433594 45.839844 17.589844 45.511719 C 17.75 45.175781 17.710938 44.773438 17.554688 44.441406 C 17.210938 43.726562 16.464844 43.238281 15.800781 42.847656 C 15.390625 42.605469 14.957031 42.398438 14.515625 42.214844 C 14.160156 42.070312 13.800781 41.933594 13.425781 41.851562 C 13.457031 41.746094 13.484375 41.640625 13.511719 41.53125 C 13.582031 41.25 13.648438 40.96875 13.71875 40.683594 C 14.003906 39.507812 14.289062 38.332031 14.570312 37.15625 C 15.144531 34.78125 15.714844 32.410156 16.289062 30.039062 C 16.425781 29.46875 16.652344 28.929688 16.9375 28.417969 C 17.078125 28.164062 17.226562 27.914062 17.390625 27.671875 C 17.472656 27.554688 17.558594 27.441406 17.636719 27.324219 C 17.726562 27.195312 17.789062 27.058594 17.886719 26.933594 C 17.917969 26.894531 17.863281 26.855469 17.828125 26.886719 Z M 17.832031 26.886719 " fill-opacity="1" fill-rule="nonzero"/></g><path fill="#5e3023" d="M 15.300781 21.898438 C 15.289062 21.800781 15.148438 21.808594 15.144531 21.90625 C 15.128906 22.292969 15.101562 22.691406 15.144531 23.082031 C 15.183594 23.4375 15.300781 23.796875 15.476562 24.113281 C 15.792969 24.671875 16.375 25.222656 17.023438 25.347656 C 17.445312 25.429688 17.835938 25.171875 18.144531 24.917969 C 18.539062 24.585938 18.871094 24.183594 19.175781 23.765625 C 19.472656 23.367188 19.777344 22.964844 19.957031 22.5 C 20 22.386719 19.835938 22.355469 19.773438 22.410156 C 19.472656 22.65625 19.269531 22.984375 19.039062 23.292969 C 18.75 23.675781 18.445312 24.058594 18.105469 24.402344 C 17.878906 24.632812 17.546875 24.9375 17.234375 24.96875 C 17.042969 24.984375 16.789062 24.859375 16.601562 24.738281 C 16.34375 24.570312 16.121094 24.347656 15.945312 24.097656 C 15.492188 23.457031 15.382812 22.660156 15.300781 21.898438 Z M 15.300781 21.898438 " fill-opacity="1" fill-rule="nonzero"/><g clip-path="url(#170b985c66)"><path fill="#5e3023" d="M 17.492188 5.925781 C 17.992188 5.867188 18.492188 5.800781 18.996094 5.789062 C 19.179688 5.78125 19.367188 5.789062 19.554688 5.796875 C 19.542969 5.855469 19.53125 5.914062 19.519531 5.972656 C 19.503906 6.066406 19.484375 6.164062 19.46875 6.257812 C 19.457031 6.34375 19.453125 6.417969 19.523438 6.480469 C 19.550781 6.5 19.589844 6.507812 19.621094 6.496094 C 19.785156 6.433594 19.777344 6.179688 19.804688 6.03125 C 19.816406 5.960938 19.828125 5.886719 19.84375 5.816406 C 19.886719 5.820312 19.933594 5.824219 19.976562 5.828125 C 19.992188 5.855469 20.007812 5.882812 20.023438 5.90625 C 20.097656 6.027344 20.191406 6.21875 20.335938 6.25 C 20.390625 6.261719 20.4375 6.230469 20.453125 6.183594 C 20.476562 6.105469 20.441406 6.03125 20.410156 5.960938 C 20.394531 5.933594 20.382812 5.902344 20.367188 5.875 C 20.414062 5.882812 20.464844 5.886719 20.515625 5.894531 C 21.515625 6.039062 22.496094 6.34375 23.398438 6.804688 C 23.644531 6.929688 23.882812 7.070312 24.117188 7.214844 C 24.246094 7.296875 24.367188 7.382812 24.492188 7.46875 C 24.605469 7.550781 24.710938 7.65625 24.84375 7.703125 C 24.945312 7.742188 25.070312 7.648438 25 7.539062 C 24.867188 7.339844 24.597656 7.207031 24.402344 7.074219 C 24.179688 6.929688 23.953125 6.792969 23.722656 6.667969 C 23.261719 6.417969 22.777344 6.214844 22.28125 6.042969 C 21.789062 5.878906 21.28125 5.75 20.769531 5.671875 C 20.582031 5.640625 20.394531 5.621094 20.210938 5.605469 C 20.167969 5.539062 20.128906 5.476562 20.089844 5.410156 C 20.117188 5.410156 20.148438 5.414062 20.175781 5.417969 C 20.5625 5.457031 20.96875 5.523438 21.355469 5.4375 C 21.417969 5.421875 21.425781 5.324219 21.367188 5.296875 C 21 5.144531 20.589844 5.144531 20.203125 5.113281 L 19.960938 5.097656 C 20.003906 4.847656 20.042969 4.597656 20.078125 4.351562 C 20.101562 4.207031 19.878906 4.160156 19.851562 4.304688 C 19.8125 4.480469 19.777344 4.660156 19.738281 4.839844 C 19.679688 4.746094 19.621094 4.648438 19.558594 4.554688 C 19.464844 4.410156 19.242188 4.546875 19.328125 4.699219 C 19.394531 4.824219 19.464844 4.945312 19.535156 5.066406 C 19.355469 5.054688 19.171875 5.039062 18.992188 5.027344 C 18.835938 5.015625 18.808594 5.277344 18.96875 5.296875 C 19.1875 5.316406 19.410156 5.339844 19.632812 5.363281 C 19.628906 5.382812 19.625 5.402344 19.621094 5.421875 C 19.613281 5.472656 19.601562 5.523438 19.59375 5.574219 C 19.460938 5.574219 19.332031 5.574219 19.199219 5.574219 C 18.617188 5.582031 18.027344 5.632812 17.464844 5.796875 C 17.390625 5.816406 17.414062 5.933594 17.492188 5.925781 Z M 17.492188 5.925781 " fill-opacity="1" fill-rule="nonzero"/></g><path fill="#5e3023" d="M 20.621094 21.039062 C 20.710938 20.9375 20.804688 20.847656 20.882812 20.738281 C 20.957031 20.640625 21.015625 20.527344 21.078125 20.417969 C 21.210938 20.1875 21.339844 19.953125 21.460938 19.714844 C 21.707031 19.230469 21.925781 18.730469 22.125 18.222656 C 22.316406 17.730469 22.480469 17.230469 22.609375 16.71875 C 22.746094 16.195312 22.878906 15.664062 22.933594 15.121094 C 22.941406 15.042969 22.828125 15.019531 22.808594 15.097656 C 22.679688 15.613281 22.570312 16.140625 22.414062 16.652344 C 22.261719 17.152344 22.089844 17.652344 21.902344 18.140625 C 21.714844 18.625 21.5 19.097656 21.269531 19.558594 C 21.148438 19.796875 21.023438 20.035156 20.894531 20.269531 C 20.832031 20.375 20.765625 20.484375 20.707031 20.59375 C 20.640625 20.71875 20.601562 20.855469 20.542969 20.988281 C 20.523438 21.035156 20.585938 21.082031 20.625 21.039062 Z M 20.621094 21.039062 " fill-opacity="1" fill-rule="nonzero"/><path fill="#5e3023" d="M 19.230469 19.363281 C 19.230469 19.363281 19.226562 19.359375 19.226562 19.355469 C 19.226562 19.355469 19.226562 19.355469 19.230469 19.363281 Z M 19.230469 19.363281 " fill-opacity="1" fill-rule="nonzero"/><path fill="#5e3023" d="M 19.582031 19.839844 C 19.699219 19.738281 19.753906 19.5625 19.6875 19.417969 C 19.652344 19.332031 19.585938 19.257812 19.5 19.226562 C 19.4375 19.199219 19.363281 19.199219 19.296875 19.222656 C 19.292969 19.199219 19.265625 19.175781 19.242188 19.179688 C 19.160156 19.195312 19.085938 19.226562 19.03125 19.285156 C 18.976562 19.339844 18.9375 19.417969 18.929688 19.496094 C 18.90625 19.660156 18.988281 19.808594 19.132812 19.890625 C 19.277344 19.976562 19.457031 19.945312 19.582031 19.839844 Z M 19.203125 19.320312 C 19.203125 19.320312 19.203125 19.328125 19.203125 19.328125 C 19.210938 19.34375 19.214844 19.347656 19.226562 19.355469 C 19.226562 19.355469 19.242188 19.367188 19.246094 19.367188 C 19.261719 19.375 19.273438 19.375 19.289062 19.367188 C 19.316406 19.359375 19.34375 19.351562 19.367188 19.347656 C 19.417969 19.34375 19.476562 19.355469 19.515625 19.394531 C 19.59375 19.46875 19.585938 19.605469 19.53125 19.6875 C 19.5 19.730469 19.457031 19.765625 19.410156 19.785156 C 19.359375 19.804688 19.3125 19.808594 19.257812 19.789062 C 19.164062 19.761719 19.082031 19.667969 19.078125 19.570312 C 19.070312 19.476562 19.125 19.375 19.203125 19.320312 Z M 19.203125 19.320312 " fill-opacity="1" fill-rule="nonzero"/><path fill="#5e3023" d="M 21.492188 16.722656 C 21.492188 16.703125 21.472656 16.6875 21.457031 16.699219 C 21.449219 16.703125 21.441406 16.707031 21.4375 16.714844 C 21.429688 16.722656 21.425781 16.730469 21.421875 16.738281 C 21.417969 16.746094 21.421875 16.738281 21.417969 16.742188 C 21.410156 16.75 21.410156 16.757812 21.40625 16.765625 C 21.40625 16.773438 21.402344 16.78125 21.402344 16.789062 C 21.394531 16.824219 21.40625 16.867188 21.421875 16.898438 C 21.457031 16.96875 21.523438 17.023438 21.605469 17.023438 C 21.691406 17.027344 21.773438 16.96875 21.808594 16.894531 C 21.84375 16.8125 21.824219 16.722656 21.761719 16.664062 C 21.695312 16.601562 21.59375 16.589844 21.515625 16.632812 C 21.480469 16.652344 21.511719 16.703125 21.546875 16.691406 C 21.550781 16.691406 21.554688 16.691406 21.558594 16.6875 C 21.566406 16.6875 21.574219 16.6875 21.578125 16.6875 C 21.582031 16.6875 21.582031 16.6875 21.582031 16.6875 C 21.582031 16.6875 21.589844 16.6875 21.589844 16.6875 C 21.597656 16.6875 21.605469 16.691406 21.613281 16.691406 C 21.613281 16.691406 21.617188 16.695312 21.621094 16.695312 C 21.609375 16.691406 21.621094 16.695312 21.621094 16.695312 C 21.628906 16.699219 21.632812 16.699219 21.640625 16.703125 C 21.640625 16.703125 21.644531 16.707031 21.648438 16.707031 C 21.65625 16.714844 21.660156 16.71875 21.667969 16.722656 C 21.671875 16.726562 21.675781 16.730469 21.679688 16.734375 C 21.683594 16.738281 21.6875 16.742188 21.6875 16.742188 C 21.6875 16.742188 21.6875 16.746094 21.6875 16.746094 C 21.691406 16.75 21.695312 16.753906 21.699219 16.761719 C 21.699219 16.761719 21.699219 16.761719 21.703125 16.761719 C 21.703125 16.761719 21.703125 16.769531 21.703125 16.773438 C 21.707031 16.773438 21.710938 16.78125 21.710938 16.789062 C 21.710938 16.792969 21.710938 16.796875 21.710938 16.800781 C 21.710938 16.804688 21.710938 16.816406 21.710938 16.816406 C 21.710938 16.820312 21.707031 16.828125 21.707031 16.835938 C 21.707031 16.835938 21.707031 16.839844 21.703125 16.839844 C 21.703125 16.84375 21.703125 16.84375 21.703125 16.84375 C 21.703125 16.851562 21.699219 16.855469 21.695312 16.863281 C 21.691406 16.867188 21.683594 16.875 21.695312 16.867188 C 21.691406 16.867188 21.691406 16.871094 21.6875 16.871094 C 21.683594 16.878906 21.679688 16.882812 21.671875 16.890625 C 21.671875 16.890625 21.660156 16.898438 21.671875 16.890625 C 21.667969 16.894531 21.664062 16.894531 21.664062 16.898438 C 21.65625 16.902344 21.648438 16.90625 21.644531 16.910156 C 21.640625 16.910156 21.636719 16.910156 21.632812 16.914062 C 21.625 16.914062 21.617188 16.917969 21.609375 16.917969 C 21.609375 16.917969 21.605469 16.917969 21.605469 16.921875 C 21.605469 16.921875 21.601562 16.921875 21.601562 16.921875 C 21.597656 16.921875 21.589844 16.921875 21.585938 16.921875 C 21.585938 16.921875 21.574219 16.917969 21.570312 16.917969 C 21.566406 16.917969 21.5625 16.914062 21.5625 16.914062 C 21.574219 16.917969 21.5625 16.914062 21.558594 16.914062 C 21.550781 16.914062 21.546875 16.910156 21.542969 16.90625 C 21.542969 16.90625 21.542969 16.90625 21.539062 16.90625 C 21.539062 16.902344 21.535156 16.902344 21.53125 16.898438 C 21.53125 16.898438 21.527344 16.894531 21.527344 16.894531 C 21.519531 16.886719 21.515625 16.882812 21.511719 16.875 C 21.511719 16.875 21.507812 16.871094 21.507812 16.867188 C 21.503906 16.863281 21.503906 16.863281 21.507812 16.867188 C 21.507812 16.867188 21.507812 16.863281 21.503906 16.863281 C 21.503906 16.855469 21.5 16.851562 21.496094 16.84375 C 21.496094 16.839844 21.496094 16.835938 21.496094 16.835938 C 21.496094 16.832031 21.496094 16.832031 21.492188 16.828125 C 21.492188 16.820312 21.492188 16.8125 21.492188 16.804688 C 21.492188 16.800781 21.488281 16.792969 21.488281 16.785156 C 21.488281 16.78125 21.492188 16.761719 21.488281 16.757812 C 21.488281 16.753906 21.488281 16.75 21.492188 16.746094 C 21.492188 16.738281 21.492188 16.730469 21.492188 16.726562 Z M 21.492188 16.722656 " fill-opacity="1" fill-rule="nonzero"/><path fill="#5e3023" d="M 20.199219 17.5 C 20.378906 17.542969 20.578125 17.445312 20.632812 17.265625 C 20.679688 17.113281 20.632812 16.925781 20.503906 16.828125 C 20.425781 16.773438 20.332031 16.742188 20.238281 16.746094 C 20.191406 16.75 20.140625 16.761719 20.09375 16.785156 C 20.078125 16.792969 20.058594 16.804688 20.042969 16.820312 C 20.03125 16.828125 20.023438 16.839844 20.015625 16.851562 C 19.941406 16.929688 19.933594 17.070312 19.945312 17.167969 C 19.953125 17.238281 19.972656 17.308594 20.011719 17.371094 C 20.054688 17.4375 20.125 17.480469 20.199219 17.5 Z M 20.132812 17.269531 Z M 20.378906 17.335938 C 20.367188 17.34375 20.375 17.339844 20.378906 17.335938 Z M 20.429688 17.304688 C 20.425781 17.3125 20.425781 17.308594 20.429688 17.304688 Z M 20.183594 16.886719 C 20.191406 16.886719 20.199219 16.882812 20.210938 16.878906 C 20.210938 16.878906 20.214844 16.878906 20.21875 16.878906 C 20.21875 16.878906 20.226562 16.878906 20.226562 16.875 C 20.289062 16.867188 20.339844 16.871094 20.394531 16.894531 C 20.503906 16.945312 20.542969 17.078125 20.507812 17.1875 C 20.507812 17.1875 20.507812 17.191406 20.507812 17.195312 C 20.507812 17.195312 20.507812 17.199219 20.507812 17.199219 C 20.503906 17.207031 20.5 17.210938 20.496094 17.21875 C 20.488281 17.234375 20.480469 17.25 20.46875 17.261719 C 20.46875 17.261719 20.46875 17.265625 20.464844 17.269531 C 20.464844 17.269531 20.464844 17.269531 20.460938 17.273438 C 20.457031 17.277344 20.453125 17.285156 20.445312 17.289062 C 20.441406 17.292969 20.4375 17.300781 20.429688 17.304688 C 20.425781 17.308594 20.421875 17.3125 20.417969 17.316406 C 20.40625 17.324219 20.394531 17.332031 20.378906 17.335938 C 20.375 17.339844 20.375 17.339844 20.371094 17.339844 C 20.363281 17.34375 20.351562 17.347656 20.34375 17.351562 C 20.335938 17.351562 20.332031 17.351562 20.324219 17.355469 C 20.324219 17.355469 20.316406 17.355469 20.308594 17.355469 C 20.300781 17.355469 20.292969 17.359375 20.285156 17.359375 C 20.28125 17.359375 20.273438 17.359375 20.269531 17.359375 C 20.253906 17.355469 20.242188 17.355469 20.226562 17.351562 C 20.222656 17.351562 20.222656 17.347656 20.21875 17.347656 C 20.210938 17.34375 20.199219 17.339844 20.195312 17.335938 C 20.191406 17.335938 20.179688 17.328125 20.179688 17.328125 C 20.175781 17.324219 20.171875 17.324219 20.167969 17.320312 C 20.164062 17.316406 20.160156 17.3125 20.15625 17.308594 C 20.15625 17.308594 20.15625 17.308594 20.152344 17.304688 C 20.148438 17.296875 20.140625 17.289062 20.136719 17.277344 C 20.136719 17.277344 20.132812 17.273438 20.132812 17.273438 C 20.128906 17.265625 20.128906 17.261719 20.125 17.257812 C 20.117188 17.230469 20.105469 17.207031 20.101562 17.179688 C 20.097656 17.164062 20.09375 17.148438 20.089844 17.132812 C 20.089844 17.132812 20.089844 17.128906 20.085938 17.125 C 20.085938 17.117188 20.085938 17.109375 20.082031 17.101562 C 20.078125 17.070312 20.078125 17.039062 20.078125 17.007812 C 20.078125 17.003906 20.078125 17.003906 20.078125 17.003906 C 20.078125 17.003906 20.078125 17 20.078125 17 C 20.078125 16.992188 20.082031 16.984375 20.082031 16.976562 C 20.085938 16.972656 20.085938 16.964844 20.089844 16.960938 C 20.089844 16.957031 20.089844 16.949219 20.089844 16.945312 C 20.09375 16.945312 20.097656 16.9375 20.097656 16.933594 C 20.097656 16.929688 20.097656 16.929688 20.101562 16.929688 C 20.101562 16.929688 20.105469 16.925781 20.105469 16.925781 C 20.113281 16.921875 20.121094 16.917969 20.128906 16.914062 C 20.128906 16.914062 20.132812 16.910156 20.136719 16.910156 C 20.136719 16.910156 20.140625 16.90625 20.140625 16.90625 C 20.136719 16.90625 20.136719 16.90625 20.140625 16.90625 C 20.15625 16.898438 20.167969 16.894531 20.183594 16.890625 Z M 20.183594 16.886719 " fill-opacity="1" fill-rule="nonzero"/><path fill="#5e3023" d="M 16.234375 20.78125 C 16.285156 20.832031 16.359375 20.851562 16.429688 20.84375 C 16.503906 20.839844 16.574219 20.808594 16.628906 20.753906 C 16.726562 20.65625 16.757812 20.503906 16.6875 20.378906 C 16.625 20.269531 16.46875 20.207031 16.347656 20.253906 C 16.28125 20.285156 16.222656 20.339844 16.199219 20.410156 C 16.1875 20.449219 16.1875 20.492188 16.199219 20.53125 C 16.15625 20.609375 16.171875 20.71875 16.234375 20.78125 Z M 16.390625 20.699219 C 16.398438 20.699219 16.390625 20.699219 16.390625 20.699219 Z M 16.5625 20.484375 C 16.5625 20.476562 16.5625 20.480469 16.5625 20.484375 Z M 16.347656 20.417969 C 16.347656 20.417969 16.351562 20.414062 16.351562 20.410156 C 16.355469 20.410156 16.355469 20.40625 16.359375 20.402344 C 16.363281 20.398438 16.367188 20.394531 16.371094 20.394531 C 16.359375 20.40625 16.375 20.390625 16.378906 20.386719 C 16.382812 20.386719 16.386719 20.382812 16.390625 20.378906 C 16.394531 20.378906 16.398438 20.378906 16.40625 20.375 C 16.40625 20.375 16.410156 20.375 16.414062 20.375 C 16.421875 20.375 16.429688 20.375 16.4375 20.371094 C 16.4375 20.371094 16.4375 20.371094 16.441406 20.371094 C 16.449219 20.371094 16.453125 20.375 16.457031 20.375 C 16.460938 20.375 16.46875 20.378906 16.46875 20.378906 C 16.472656 20.378906 16.476562 20.382812 16.480469 20.382812 C 16.484375 20.386719 16.492188 20.390625 16.5 20.394531 C 16.5 20.394531 16.507812 20.398438 16.507812 20.402344 C 16.511719 20.40625 16.515625 20.410156 16.519531 20.410156 C 16.523438 20.414062 16.527344 20.417969 16.53125 20.421875 C 16.53125 20.421875 16.53125 20.425781 16.535156 20.425781 C 16.539062 20.433594 16.542969 20.4375 16.546875 20.441406 C 16.546875 20.441406 16.546875 20.445312 16.546875 20.445312 C 16.546875 20.445312 16.550781 20.457031 16.550781 20.457031 C 16.554688 20.460938 16.558594 20.464844 16.558594 20.472656 C 16.558594 20.476562 16.5625 20.480469 16.5625 20.488281 C 16.5625 20.503906 16.5625 20.515625 16.5625 20.53125 C 16.5625 20.53125 16.5625 20.53125 16.5625 20.535156 C 16.5625 20.535156 16.5625 20.542969 16.5625 20.542969 C 16.558594 20.554688 16.558594 20.566406 16.554688 20.578125 C 16.554688 20.582031 16.550781 20.585938 16.550781 20.589844 C 16.554688 20.574219 16.550781 20.589844 16.546875 20.59375 C 16.542969 20.605469 16.535156 20.617188 16.53125 20.625 C 16.527344 20.628906 16.515625 20.644531 16.527344 20.628906 C 16.523438 20.632812 16.519531 20.640625 16.515625 20.644531 C 16.511719 20.648438 16.503906 20.65625 16.5 20.660156 C 16.5 20.660156 16.492188 20.664062 16.492188 20.667969 C 16.484375 20.671875 16.480469 20.671875 16.476562 20.675781 C 16.472656 20.679688 16.46875 20.679688 16.464844 20.683594 C 16.460938 20.683594 16.460938 20.683594 16.460938 20.683594 C 16.457031 20.683594 16.457031 20.6875 16.453125 20.6875 C 16.441406 20.691406 16.433594 20.695312 16.421875 20.695312 C 16.414062 20.695312 16.40625 20.699219 16.402344 20.699219 C 16.394531 20.699219 16.390625 20.699219 16.386719 20.699219 C 16.386719 20.699219 16.386719 20.699219 16.382812 20.699219 C 16.378906 20.699219 16.371094 20.695312 16.367188 20.695312 C 16.363281 20.695312 16.359375 20.691406 16.359375 20.691406 C 16.359375 20.691406 16.359375 20.691406 16.355469 20.691406 C 16.351562 20.691406 16.347656 20.6875 16.34375 20.6875 C 16.339844 20.6875 16.320312 20.671875 16.332031 20.683594 C 16.328125 20.679688 16.324219 20.675781 16.320312 20.671875 C 16.320312 20.671875 16.316406 20.667969 16.316406 20.667969 C 16.3125 20.660156 16.304688 20.652344 16.300781 20.640625 C 16.296875 20.632812 16.292969 20.628906 16.292969 20.621094 C 16.292969 20.621094 16.292969 20.613281 16.289062 20.613281 C 16.289062 20.609375 16.289062 20.605469 16.289062 20.597656 C 16.289062 20.597656 16.289062 20.597656 16.289062 20.59375 C 16.296875 20.589844 16.304688 20.582031 16.308594 20.570312 C 16.308594 20.5625 16.308594 20.550781 16.308594 20.542969 C 16.3125 20.539062 16.3125 20.539062 16.316406 20.535156 C 16.332031 20.519531 16.332031 20.488281 16.316406 20.472656 C 16.316406 20.472656 16.316406 20.472656 16.316406 20.46875 C 16.324219 20.453125 16.332031 20.433594 16.34375 20.417969 Z M 16.347656 20.417969 " fill-opacity="1" fill-rule="nonzero"/><path fill="#5e3023" d="M 17.296875 22.394531 C 17.375 22.390625 17.457031 22.386719 17.539062 22.382812 C 17.457031 22.46875 17.378906 22.558594 17.316406 22.660156 C 17.296875 22.691406 17.339844 22.71875 17.367188 22.703125 C 17.46875 22.632812 17.558594 22.550781 17.644531 22.460938 C 17.648438 22.488281 17.652344 22.511719 17.660156 22.535156 C 17.679688 22.644531 17.699219 22.757812 17.75 22.859375 C 17.765625 22.886719 17.824219 22.878906 17.828125 22.84375 C 17.839844 22.738281 17.816406 22.628906 17.796875 22.523438 C 17.792969 22.511719 17.789062 22.496094 17.789062 22.484375 C 17.804688 22.5 17.824219 22.519531 17.84375 22.535156 C 17.859375 22.542969 17.875 22.550781 17.890625 22.558594 C 17.90625 22.566406 17.921875 22.578125 17.941406 22.578125 C 17.960938 22.582031 17.980469 22.570312 17.980469 22.546875 C 17.980469 22.53125 17.972656 22.519531 17.964844 22.503906 C 17.960938 22.496094 17.957031 22.492188 17.953125 22.484375 C 17.949219 22.476562 17.949219 22.46875 17.945312 22.460938 C 17.925781 22.433594 17.894531 22.40625 17.871094 22.382812 C 17.867188 22.375 17.859375 22.371094 17.851562 22.363281 C 17.914062 22.355469 17.976562 22.351562 18.03125 22.324219 C 18.070312 22.308594 18.070312 22.257812 18.027344 22.246094 C 17.976562 22.230469 17.925781 22.230469 17.871094 22.234375 C 17.902344 22.203125 17.933594 22.171875 17.964844 22.136719 C 18.027344 22.070312 18.089844 22 18.132812 21.914062 C 18.148438 21.882812 18.113281 21.855469 18.082031 21.871094 C 18 21.914062 17.933594 21.976562 17.867188 22.042969 C 17.820312 22.089844 17.777344 22.136719 17.730469 22.183594 C 17.683594 21.960938 17.636719 21.738281 17.589844 21.515625 C 17.574219 21.460938 17.476562 21.476562 17.484375 21.535156 C 17.515625 21.722656 17.546875 21.914062 17.582031 22.101562 C 17.527344 22.050781 17.476562 22.003906 17.425781 21.953125 C 17.371094 21.898438 17.289062 21.984375 17.34375 22.039062 C 17.417969 22.113281 17.488281 22.1875 17.5625 22.257812 C 17.472656 22.269531 17.382812 22.277344 17.292969 22.289062 C 17.222656 22.296875 17.226562 22.398438 17.296875 22.394531 Z M 17.296875 22.394531 " fill-opacity="1" fill-rule="nonzero"/><path fill="#5e3023" d="M 22.875 13.441406 C 22.789062 13.539062 22.726562 13.648438 22.636719 13.742188 C 22.53125 13.847656 22.410156 13.933594 22.28125 14.003906 C 22.023438 14.148438 21.738281 14.230469 21.457031 14.3125 C 21.160156 14.398438 20.859375 14.480469 20.578125 14.625 C 20.304688 14.761719 20.082031 14.964844 19.878906 15.191406 C 19.679688 15.410156 19.492188 15.652344 19.253906 15.832031 C 19.011719 16.019531 18.730469 16.144531 18.4375 16.238281 C 17.882812 16.417969 17.292969 16.5 16.757812 16.742188 C 16.484375 16.863281 16.226562 17.011719 16.007812 17.214844 C 15.78125 17.429688 15.632812 17.664062 15.597656 17.976562 C 15.585938 18.0625 15.707031 18.113281 15.75 18.03125 C 15.984375 17.523438 16.417969 17.175781 16.929688 16.964844 C 17.46875 16.742188 18.050781 16.667969 18.597656 16.480469 C 18.878906 16.382812 19.15625 16.257812 19.398438 16.082031 C 19.640625 15.902344 19.835938 15.671875 20.035156 15.449219 C 20.242188 15.214844 20.460938 15.003906 20.742188 14.863281 C 21.019531 14.722656 21.328125 14.648438 21.625 14.558594 C 21.925781 14.472656 22.230469 14.371094 22.503906 14.207031 C 22.742188 14.0625 23.035156 13.832031 23.089844 13.546875 C 23.113281 13.425781 22.957031 13.351562 22.875 13.441406 Z M 22.875 13.441406 " fill-opacity="1" fill-rule="nonzero"/><path fill="#5e3023" d="M 33.289062 27.472656 C 32.878906 27.070312 32.492188 26.644531 32.121094 26.203125 C 31.304688 25.222656 30.578125 24.167969 29.910156 23.082031 C 28.480469 20.746094 27.308594 18.25 26.34375 15.691406 C 26.078125 14.996094 25.832031 14.292969 25.601562 13.585938 C 25.492188 13.25 25.386719 12.917969 25.285156 12.582031 C 25.183594 12.257812 25.105469 11.925781 24.949219 11.621094 C 25.007812 11.339844 25.0625 11.058594 25.117188 10.777344 C 25.421875 10.5 25.726562 10.226562 26.058594 9.980469 C 26.460938 9.679688 26.902344 9.429688 27.347656 9.199219 C 28.246094 8.738281 29.226562 8.417969 30.226562 8.273438 C 30.511719 8.234375 30.796875 8.207031 31.082031 8.195312 C 31.21875 8.1875 31.355469 8.1875 31.488281 8.1875 C 31.636719 8.1875 31.785156 8.207031 31.925781 8.167969 C 32.019531 8.140625 32.042969 7.996094 31.945312 7.957031 C 31.71875 7.875 31.429688 7.910156 31.191406 7.921875 C 30.925781 7.929688 30.664062 7.949219 30.402344 7.980469 C 29.882812 8.046875 29.371094 8.152344 28.867188 8.300781 C 28.367188 8.449219 27.878906 8.644531 27.410156 8.875 C 26.933594 9.109375 26.5 9.394531 26.070312 9.707031 C 25.757812 9.9375 25.449219 10.183594 25.171875 10.460938 C 25.230469 10.144531 25.28125 9.828125 25.328125 9.511719 C 25.382812 9.160156 25.453125 8.800781 25.417969 8.445312 C 25.414062 8.386719 25.371094 8.355469 25.328125 8.347656 C 25.285156 8.316406 25.230469 8.300781 25.167969 8.320312 C 24.945312 8.394531 24.730469 8.460938 24.492188 8.46875 C 24.25 8.476562 24.007812 8.445312 23.769531 8.40625 C 23.28125 8.328125 22.796875 8.21875 22.320312 8.097656 C 21.355469 7.855469 20.402344 7.550781 19.476562 7.1875 C 18.964844 6.988281 18.464844 6.738281 17.9375 6.582031 C 17.847656 6.554688 17.765625 6.6875 17.847656 6.742188 C 18.273438 7.03125 18.753906 7.21875 19.230469 7.410156 C 19.703125 7.601562 20.179688 7.777344 20.664062 7.9375 C 21.65625 8.265625 22.667969 8.519531 23.691406 8.730469 C 24.148438 8.824219 24.664062 8.875 25.113281 8.71875 C 25.066406 8.929688 25.042969 9.144531 25.007812 9.355469 C 24.957031 9.667969 24.902344 9.976562 24.851562 10.285156 C 24.734375 10.925781 24.609375 11.5625 24.46875 12.199219 C 24.167969 13.542969 23.808594 14.871094 23.394531 16.179688 C 22.59375 18.703125 21.59375 21.191406 20.226562 23.464844 C 19.886719 24.027344 19.523438 24.578125 19.125 25.101562 C 18.757812 25.578125 18.339844 26.007812 17.964844 26.476562 C 17.871094 26.597656 18.019531 26.78125 18.148438 26.679688 C 18.574219 26.351562 18.917969 25.925781 19.25 25.503906 C 19.609375 25.042969 19.949219 24.5625 20.261719 24.070312 C 20.953125 22.984375 21.546875 21.835938 22.074219 20.660156 C 23.210938 18.125 24.066406 15.460938 24.699219 12.757812 C 24.742188 12.578125 24.78125 12.394531 24.824219 12.210938 C 24.855469 12.328125 24.886719 12.445312 24.921875 12.5625 C 25.011719 12.867188 25.105469 13.171875 25.199219 13.476562 C 25.40625 14.117188 25.625 14.753906 25.855469 15.382812 C 26.335938 16.691406 26.875 17.976562 27.464844 19.238281 C 28.597656 21.65625 29.925781 24.027344 31.605469 26.113281 C 32.015625 26.625 32.453125 27.117188 32.917969 27.585938 C 33.347656 28.011719 33.800781 28.453125 34.328125 28.757812 C 34.46875 28.835938 34.605469 28.644531 34.488281 28.535156 C 34.101562 28.167969 33.675781 27.839844 33.292969 27.46875 Z M 33.289062 27.472656 " fill-opacity="1" fill-rule="nonzero"/><path fill="#5e3023" d="M 33.726562 26.9375 C 34.328125 27.238281 35.175781 27.367188 35.800781 27.066406 C 36.171875 26.886719 36.335938 26.453125 36.433594 26.082031 C 36.5625 25.578125 36.597656 25.050781 36.605469 24.535156 C 36.613281 24.046875 36.628906 23.546875 36.503906 23.074219 C 36.476562 22.96875 36.320312 22.992188 36.296875 23.082031 C 36.195312 23.457031 36.214844 23.84375 36.207031 24.230469 C 36.195312 24.703125 36.171875 25.183594 36.09375 25.648438 C 36.039062 25.988281 35.957031 26.414062 35.707031 26.652344 C 35.675781 26.675781 35.59375 26.726562 35.558594 26.738281 C 35.402344 26.792969 35.242188 26.824219 35.078125 26.832031 C 34.765625 26.847656 34.445312 26.796875 34.152344 26.691406 C 33.414062 26.433594 32.863281 25.847656 32.359375 25.277344 C 32.300781 25.207031 32.175781 25.273438 32.230469 25.359375 C 32.632812 25.984375 33.042969 26.59375 33.726562 26.9375 Z M 33.726562 26.9375 " fill-opacity="1" fill-rule="nonzero"/><g clip-path="url(#b931cb5de0)"><path fill="#5e3023" d="M 47.917969 43.21875 C 47.863281 42.84375 47.609375 42.539062 47.289062 42.351562 C 46.910156 42.128906 46.453125 42.058594 46.023438 42.027344 C 45.636719 42 45.242188 42.019531 44.855469 42.058594 C 44.394531 42.101562 43.933594 42.183594 43.480469 42.285156 C 43.109375 42.371094 42.746094 42.46875 42.402344 42.617188 C 42.378906 42.554688 42.359375 42.492188 42.335938 42.433594 C 42.234375 42.160156 42.121094 41.890625 42.011719 41.621094 C 41.554688 40.480469 41.097656 39.339844 40.640625 38.199219 C 39.71875 35.894531 38.78125 33.597656 37.867188 31.289062 C 37.652344 30.75 37.53125 30.179688 37.472656 29.601562 C 37.441406 29.3125 37.417969 29.027344 37.414062 28.738281 C 37.410156 28.59375 37.421875 28.441406 37.414062 28.296875 C 37.410156 28.152344 37.382812 28.015625 37.390625 27.871094 C 37.390625 27.828125 37.320312 27.824219 37.3125 27.863281 C 37.28125 27.988281 37.234375 28.105469 37.203125 28.230469 C 37.171875 28.359375 37.167969 28.496094 37.160156 28.628906 C 37.144531 28.898438 37.144531 29.167969 37.15625 29.4375 C 37.183594 29.972656 37.289062 30.515625 37.445312 31.027344 C 37.625 31.605469 37.878906 32.160156 38.101562 32.722656 C 38.339844 33.328125 38.578125 33.933594 38.816406 34.539062 C 39.761719 36.9375 40.710938 39.335938 41.660156 41.734375 C 41.78125 42.042969 41.910156 42.347656 42.019531 42.65625 C 42.117188 42.929688 42.203125 43.203125 42.332031 43.464844 C 42.574219 43.96875 43.007812 44.421875 43.613281 44.3125 C 43.71875 44.292969 43.675781 44.144531 43.582031 44.144531 C 43.058594 44.132812 42.746094 43.558594 42.582031 43.132812 C 42.550781 43.050781 42.523438 42.96875 42.492188 42.882812 C 43.148438 42.675781 43.8125 42.507812 44.496094 42.410156 C 45.21875 42.308594 46.027344 42.195312 46.746094 42.386719 C 47.117188 42.484375 47.488281 42.703125 47.636719 43.074219 C 47.785156 43.453125 47.605469 43.8125 47.347656 44.089844 C 47.070312 44.394531 46.722656 44.628906 46.382812 44.859375 C 46.042969 45.089844 45.691406 45.308594 45.335938 45.515625 C 44.917969 45.761719 44.488281 45.988281 44.046875 46.195312 C 43.832031 46.300781 43.613281 46.398438 43.390625 46.496094 C 43.335938 46.519531 43.277344 46.546875 43.21875 46.570312 C 43.203125 46.574219 43.1875 46.582031 43.171875 46.585938 C 42.964844 46.65625 42.761719 46.734375 42.554688 46.800781 C 42.160156 46.933594 41.761719 47.050781 41.359375 47.152344 C 40.570312 47.359375 39.746094 47.546875 38.925781 47.589844 C 38.585938 47.609375 38.195312 47.601562 37.90625 47.390625 C 37.636719 47.191406 37.550781 46.835938 37.601562 46.515625 C 37.65625 46.152344 37.871094 45.832031 38.113281 45.566406 C 38.371094 45.289062 38.652344 45.035156 38.953125 44.804688 C 39.601562 44.3125 40.300781 43.933594 41.03125 43.582031 C 41.113281 43.804688 41.1875 44.027344 41.257812 44.253906 C 41.304688 44.414062 41.375 44.59375 41.316406 44.761719 C 41.273438 44.882812 41.160156 45 41.058594 45.078125 C 40.949219 45.164062 41.03125 45.308594 41.164062 45.28125 C 41.40625 45.230469 41.570312 45.042969 41.636719 44.804688 C 41.714844 44.511719 41.570312 44.1875 41.480469 43.914062 C 41.28125 43.308594 41.03125 42.722656 40.777344 42.136719 C 40.257812 40.917969 39.773438 39.683594 39.28125 38.449219 C 38.792969 37.222656 38.289062 36.003906 37.78125 34.785156 C 37.53125 34.179688 37.28125 33.570312 37.035156 32.957031 C 36.800781 32.371094 36.59375 31.773438 36.355469 31.1875 C 36.179688 30.753906 35.890625 30.359375 35.617188 29.984375 C 35.542969 29.882812 35.464844 29.78125 35.386719 29.683594 C 35.300781 29.578125 35.199219 29.492188 35.109375 29.386719 C 34.976562 29.226562 34.84375 29.070312 34.703125 28.914062 C 34.664062 28.867188 34.574219 28.914062 34.613281 28.96875 C 34.71875 29.109375 34.820312 29.25 34.921875 29.394531 C 35.046875 29.566406 35.148438 29.753906 35.265625 29.929688 C 35.511719 30.289062 35.769531 30.640625 35.976562 31.023438 C 36.074219 31.203125 36.140625 31.398438 36.210938 31.59375 C 36.320312 31.886719 36.433594 32.179688 36.546875 32.46875 C 36.777344 33.0625 37.015625 33.65625 37.257812 34.246094 C 37.738281 35.417969 38.234375 36.585938 38.703125 37.761719 C 39.183594 38.957031 39.648438 40.164062 40.132812 41.359375 C 40.386719 41.996094 40.667969 42.621094 40.914062 43.261719 C 40.921875 43.28125 40.925781 43.296875 40.933594 43.316406 C 40.191406 43.578125 39.46875 44.003906 38.855469 44.484375 C 38.257812 44.957031 37.578125 45.570312 37.382812 46.335938 C 37.296875 46.664062 37.328125 47.039062 37.523438 47.324219 C 37.714844 47.609375 38.042969 47.746094 38.378906 47.789062 C 38.769531 47.84375 39.164062 47.792969 39.550781 47.742188 C 40.011719 47.683594 40.464844 47.613281 40.917969 47.515625 C 41.417969 47.410156 41.910156 47.28125 42.398438 47.132812 C 42.652344 47.054688 42.902344 46.96875 43.152344 46.875 C 43.171875 46.867188 43.195312 46.859375 43.21875 46.851562 C 43.234375 46.84375 43.25 46.839844 43.265625 46.835938 C 43.355469 46.800781 43.445312 46.765625 43.53125 46.722656 C 43.726562 46.640625 43.914062 46.554688 44.105469 46.464844 C 44.535156 46.261719 44.957031 46.035156 45.367188 45.792969 C 45.769531 45.554688 46.160156 45.304688 46.539062 45.03125 C 46.882812 44.78125 47.25 44.535156 47.535156 44.214844 C 47.78125 43.945312 47.976562 43.59375 47.921875 43.214844 Z M 47.917969 43.21875 " fill-opacity="1" fill-rule="nonzero"/></g><path fill="#5e3023" d="M 30.34375 9.851562 C 29.375 10.242188 28.378906 10.570312 27.363281 10.832031 C 26.789062 10.984375 26.191406 11.070312 25.628906 11.261719 C 25.523438 11.296875 25.554688 11.449219 25.664062 11.449219 C 26.199219 11.433594 26.726562 11.292969 27.246094 11.167969 C 27.78125 11.039062 28.3125 10.890625 28.835938 10.726562 C 29.828125 10.410156 30.828125 10.046875 31.757812 9.578125 C 32.121094 9.394531 32.511719 9.132812 32.757812 8.785156 C 32.835938 8.972656 32.933594 9.148438 33.023438 9.332031 C 33.164062 9.617188 33.300781 9.910156 33.4375 10.199219 C 33.71875 10.785156 33.980469 11.382812 34.234375 11.984375 C 34.355469 12.273438 34.472656 12.566406 34.589844 12.863281 C 34.394531 13.027344 34.207031 13.191406 34.015625 13.359375 C 33.949219 13.417969 33.886719 13.472656 33.820312 13.53125 C 33.640625 13.113281 33.449219 12.699219 33.261719 12.285156 C 33.226562 12.199219 33.082031 12.238281 33.113281 12.332031 C 33.261719 12.738281 33.414062 13.140625 33.566406 13.542969 C 33.351562 13.417969 33.136719 13.296875 32.921875 13.171875 C 32.8125 13.109375 32.679688 13.277344 32.789062 13.351562 C 33.023438 13.511719 33.257812 13.664062 33.492188 13.820312 C 33.292969 13.996094 33.097656 14.175781 32.902344 14.355469 C 32.839844 14.410156 32.855469 14.507812 32.910156 14.554688 C 32.976562 14.613281 33.0625 14.597656 33.121094 14.546875 C 33.332031 14.371094 33.542969 14.195312 33.75 14.019531 C 33.855469 14.285156 33.960938 14.554688 34.070312 14.820312 C 34.164062 15.054688 34.253906 15.375 34.445312 15.546875 C 34.496094 15.589844 34.566406 15.546875 34.574219 15.488281 C 34.582031 15.347656 34.515625 15.199219 34.46875 15.066406 C 34.421875 14.9375 34.367188 14.808594 34.3125 14.679688 C 34.25 14.527344 34.1875 14.375 34.121094 14.222656 C 34.222656 14.285156 34.320312 14.347656 34.421875 14.410156 C 34.597656 14.519531 34.800781 14.652344 35.007812 14.675781 C 35.074219 14.683594 35.128906 14.625 35.089844 14.5625 C 34.984375 14.398438 34.789062 14.277344 34.625 14.175781 C 34.4375 14.058594 34.246094 13.941406 34.054688 13.828125 C 34.039062 13.820312 34.019531 13.808594 34.003906 13.800781 C 34.09375 13.722656 34.179688 13.648438 34.269531 13.574219 C 34.417969 13.445312 34.566406 13.3125 34.714844 13.183594 C 35.054688 14.066406 35.371094 14.960938 35.660156 15.863281 C 36.46875 18.402344 37.09375 21.035156 37.285156 23.703125 C 37.332031 24.363281 37.351562 25.027344 37.328125 25.6875 C 37.308594 26.289062 37.214844 26.882812 37.183594 27.484375 C 37.175781 27.648438 37.421875 27.640625 37.464844 27.503906 C 37.621094 26.992188 37.648438 26.433594 37.675781 25.902344 C 37.703125 25.316406 37.699219 24.726562 37.667969 24.144531 C 37.601562 22.851562 37.417969 21.570312 37.171875 20.300781 C 36.679688 17.785156 35.929688 15.320312 34.996094 12.9375 C 35.121094 12.828125 35.238281 12.707031 35.292969 12.558594 C 35.316406 12.488281 35.230469 12.449219 35.179688 12.460938 C 35.070312 12.484375 34.96875 12.546875 34.871094 12.617188 C 34.835938 12.53125 34.800781 12.441406 34.765625 12.351562 C 34.484375 11.660156 34.1875 10.972656 33.871094 10.292969 C 33.714844 9.960938 33.554688 9.632812 33.386719 9.304688 C 33.226562 8.992188 33.082031 8.664062 32.851562 8.394531 C 32.828125 8.367188 32.792969 8.355469 32.761719 8.355469 C 32.699219 8.328125 32.628906 8.339844 32.578125 8.40625 C 32.453125 8.578125 32.332031 8.742188 32.171875 8.886719 C 32.011719 9.027344 31.828125 9.140625 31.644531 9.25 C 31.230469 9.492188 30.785156 9.675781 30.339844 9.855469 Z M 30.34375 9.851562 " fill-opacity="1" fill-rule="nonzero"/><path fill="#5e3023" d="M 27.996094 18.0625 C 28.125 18.5 28.261719 18.921875 28.445312 19.339844 C 28.628906 19.765625 28.824219 20.1875 29.023438 20.605469 C 29.421875 21.4375 29.851562 22.257812 30.339844 23.035156 C 30.472656 23.25 30.605469 23.457031 30.742188 23.667969 C 30.871094 23.863281 31.015625 24.113281 31.207031 24.257812 C 31.246094 24.289062 31.308594 24.253906 31.292969 24.203125 C 31.242188 24.011719 31.101562 23.828125 31 23.660156 C 30.882812 23.472656 30.765625 23.285156 30.65625 23.09375 C 30.429688 22.699219 30.210938 22.304688 30 21.90625 C 29.5625 21.085938 29.152344 20.253906 28.777344 19.402344 C 28.675781 19.171875 28.574219 18.941406 28.472656 18.710938 C 28.367188 18.476562 28.234375 18.253906 28.117188 18.023438 C 28.085938 17.957031 27.976562 17.984375 27.996094 18.0625 Z M 27.996094 18.0625 " fill-opacity="1" fill-rule="nonzero"/><path fill="#5e3023" d="M 34.238281 19.847656 C 34.210938 19.863281 34.179688 19.882812 34.160156 19.910156 C 34.152344 19.914062 34.148438 19.921875 34.144531 19.929688 C 34.117188 19.914062 34.089844 19.917969 34.066406 19.9375 C 33.960938 20.042969 33.933594 20.210938 33.996094 20.347656 C 34.058594 20.492188 34.203125 20.578125 34.359375 20.578125 C 34.507812 20.578125 34.644531 20.492188 34.707031 20.359375 C 34.769531 20.226562 34.761719 20.0625 34.667969 19.945312 C 34.5625 19.824219 34.382812 19.773438 34.238281 19.847656 Z M 34.527344 20.367188 C 34.484375 20.414062 34.425781 20.433594 34.359375 20.433594 C 34.339844 20.433594 34.292969 20.425781 34.273438 20.417969 C 34.257812 20.410156 34.238281 20.402344 34.222656 20.394531 C 34.21875 20.390625 34.21875 20.390625 34.21875 20.390625 C 34.21875 20.390625 34.214844 20.390625 34.210938 20.386719 C 34.203125 20.378906 34.195312 20.375 34.1875 20.367188 C 34.140625 20.324219 34.113281 20.257812 34.113281 20.195312 C 34.109375 20.152344 34.117188 20.109375 34.128906 20.066406 C 34.152344 20.082031 34.179688 20.089844 34.207031 20.074219 C 34.222656 20.0625 34.234375 20.042969 34.242188 20.03125 C 34.253906 20.015625 34.269531 20.003906 34.28125 19.992188 C 34.316406 19.957031 34.378906 19.9375 34.429688 19.945312 C 34.488281 19.957031 34.539062 20.003906 34.570312 20.050781 C 34.628906 20.148438 34.605469 20.285156 34.527344 20.367188 Z M 34.527344 20.367188 " fill-opacity="1" fill-rule="nonzero"/><path fill="#5e3023" d="M 34.539062 19.011719 C 34.539062 19.011719 34.542969 19.015625 34.542969 19.015625 C 34.542969 19.015625 34.542969 19.015625 34.539062 19.015625 Z M 34.539062 19.011719 " fill-opacity="1" fill-rule="nonzero"/><path fill="#5e3023" d="M 34.515625 19.003906 C 34.515625 19.003906 34.519531 19.007812 34.519531 19.007812 C 34.519531 19.007812 34.519531 19.007812 34.515625 19.003906 Z M 34.515625 19.003906 " fill-opacity="1" fill-rule="nonzero"/><path fill="#5e3023" d="M 34.511719 18.898438 C 34.429688 18.886719 34.339844 18.929688 34.304688 19.011719 C 34.296875 19.027344 34.300781 19.042969 34.316406 19.054688 C 34.328125 19.0625 34.351562 19.0625 34.363281 19.046875 C 34.367188 19.042969 34.371094 19.039062 34.375 19.03125 C 34.378906 19.03125 34.378906 19.027344 34.382812 19.027344 C 34.390625 19.023438 34.394531 19.015625 34.398438 19.015625 C 34.398438 19.015625 34.40625 19.011719 34.40625 19.011719 C 34.40625 19.011719 34.410156 19.011719 34.410156 19.011719 C 34.417969 19.007812 34.425781 19.003906 34.429688 19.003906 C 34.433594 19.003906 34.4375 19.003906 34.441406 19 C 34.441406 19 34.441406 19 34.445312 19 C 34.449219 19 34.457031 19 34.457031 19 C 34.464844 19 34.472656 19.003906 34.480469 19 C 34.484375 19 34.484375 19 34.488281 19 C 34.496094 19 34.5 19.003906 34.503906 19.003906 C 34.507812 19.003906 34.511719 19.003906 34.515625 19.007812 C 34.519531 19.007812 34.519531 19.007812 34.519531 19.007812 C 34.523438 19.011719 34.53125 19.011719 34.535156 19.011719 C 34.535156 19.011719 34.535156 19.015625 34.539062 19.015625 C 34.539062 19.015625 34.539062 19.015625 34.542969 19.015625 C 34.546875 19.019531 34.550781 19.023438 34.554688 19.027344 C 34.558594 19.03125 34.554688 19.027344 34.558594 19.027344 C 34.558594 19.03125 34.5625 19.035156 34.5625 19.035156 C 34.5625 19.039062 34.566406 19.046875 34.570312 19.050781 C 34.570312 19.050781 34.570312 19.054688 34.570312 19.054688 C 34.574219 19.058594 34.574219 19.058594 34.574219 19.0625 C 34.574219 19.066406 34.578125 19.074219 34.578125 19.078125 C 34.578125 19.082031 34.578125 19.085938 34.578125 19.089844 C 34.578125 19.09375 34.578125 19.101562 34.578125 19.109375 C 34.578125 19.113281 34.578125 19.117188 34.578125 19.117188 C 34.578125 19.125 34.578125 19.128906 34.574219 19.136719 C 34.574219 19.136719 34.574219 19.140625 34.574219 19.144531 C 34.570312 19.148438 34.566406 19.160156 34.566406 19.164062 C 34.5625 19.164062 34.554688 19.175781 34.554688 19.179688 C 34.554688 19.179688 34.558594 19.175781 34.558594 19.175781 C 34.558594 19.179688 34.554688 19.183594 34.550781 19.183594 C 34.546875 19.191406 34.542969 19.195312 34.539062 19.199219 C 34.535156 19.199219 34.535156 19.203125 34.53125 19.203125 C 34.53125 19.203125 34.53125 19.203125 34.53125 19.207031 C 34.527344 19.207031 34.519531 19.214844 34.515625 19.214844 C 34.511719 19.214844 34.507812 19.21875 34.503906 19.21875 C 34.5 19.21875 34.496094 19.222656 34.492188 19.222656 C 34.488281 19.222656 34.480469 19.222656 34.472656 19.222656 C 34.472656 19.222656 34.46875 19.222656 34.46875 19.222656 C 34.464844 19.222656 34.460938 19.21875 34.457031 19.21875 C 34.453125 19.21875 34.453125 19.21875 34.449219 19.214844 C 34.449219 19.214844 34.445312 19.214844 34.445312 19.214844 C 34.445312 19.214844 34.445312 19.214844 34.441406 19.214844 C 34.433594 19.210938 34.429688 19.210938 34.421875 19.207031 C 34.417969 19.203125 34.417969 19.203125 34.414062 19.203125 C 34.414062 19.203125 34.40625 19.199219 34.40625 19.195312 C 34.398438 19.191406 34.394531 19.1875 34.390625 19.183594 C 34.390625 19.183594 34.390625 19.183594 34.386719 19.179688 C 34.382812 19.175781 34.382812 19.171875 34.378906 19.167969 C 34.375 19.164062 34.375 19.160156 34.371094 19.15625 C 34.367188 19.152344 34.367188 19.152344 34.371094 19.15625 C 34.367188 19.152344 34.367188 19.152344 34.367188 19.152344 C 34.359375 19.140625 34.351562 19.132812 34.339844 19.125 C 34.34375 19.128906 34.347656 19.132812 34.351562 19.136719 C 34.347656 19.132812 34.347656 19.128906 34.34375 19.121094 C 34.339844 19.113281 34.335938 19.105469 34.332031 19.097656 C 34.324219 19.085938 34.300781 19.085938 34.292969 19.101562 C 34.289062 19.113281 34.285156 19.121094 34.285156 19.132812 C 34.285156 19.140625 34.285156 19.148438 34.285156 19.152344 C 34.285156 19.171875 34.289062 19.191406 34.296875 19.207031 C 34.308594 19.226562 34.324219 19.242188 34.335938 19.253906 C 34.367188 19.277344 34.402344 19.296875 34.4375 19.304688 C 34.445312 19.308594 34.453125 19.308594 34.460938 19.308594 C 34.464844 19.308594 34.484375 19.3125 34.472656 19.308594 C 34.480469 19.308594 34.488281 19.3125 34.496094 19.3125 C 34.515625 19.3125 34.535156 19.308594 34.550781 19.304688 C 34.585938 19.292969 34.621094 19.269531 34.644531 19.242188 C 34.6875 19.179688 34.707031 19.097656 34.679688 19.023438 C 34.65625 18.949219 34.585938 18.902344 34.511719 18.894531 Z M 34.511719 18.898438 " fill-opacity="1" fill-rule="nonzero"/><path fill="#5e3023" d="M 29.730469 19.511719 C 29.835938 19.625 29.980469 19.691406 30.132812 19.625 C 30.296875 19.554688 30.40625 19.367188 30.339844 19.191406 C 30.285156 19.035156 30.140625 18.910156 29.96875 18.90625 C 29.878906 18.90625 29.785156 18.9375 29.71875 18.996094 C 29.679688 19.023438 29.644531 19.058594 29.625 19.101562 C 29.613281 19.125 29.605469 19.148438 29.597656 19.167969 C 29.59375 19.183594 29.59375 19.199219 29.597656 19.214844 C 29.585938 19.324219 29.664062 19.4375 29.734375 19.511719 Z M 29.789062 19.105469 C 29.832031 19.0625 29.882812 19.03125 29.941406 19.019531 C 30.050781 19 30.160156 19.085938 30.191406 19.1875 C 30.226562 19.296875 30.1875 19.414062 30.09375 19.476562 C 30.082031 19.484375 30.070312 19.488281 30.0625 19.492188 C 30.054688 19.492188 30.050781 19.496094 30.042969 19.496094 C 30.042969 19.496094 30.03125 19.5 30.027344 19.5 C 30.015625 19.503906 30.003906 19.503906 29.992188 19.503906 C 29.988281 19.503906 29.980469 19.503906 29.980469 19.503906 C 29.976562 19.503906 29.96875 19.5 29.964844 19.5 C 29.964844 19.5 29.964844 19.5 29.960938 19.5 C 29.957031 19.496094 29.953125 19.496094 29.949219 19.496094 C 29.9375 19.488281 29.925781 19.484375 29.914062 19.476562 C 29.914062 19.476562 29.910156 19.472656 29.910156 19.472656 C 29.90625 19.46875 29.902344 19.464844 29.894531 19.460938 C 29.882812 19.453125 29.871094 19.445312 29.859375 19.433594 C 29.8125 19.394531 29.777344 19.359375 29.746094 19.308594 C 29.730469 19.285156 29.722656 19.269531 29.714844 19.246094 C 29.714844 19.238281 29.714844 19.230469 29.714844 19.222656 C 29.714844 19.21875 29.71875 19.214844 29.71875 19.214844 C 29.726562 19.199219 29.730469 19.1875 29.738281 19.175781 C 29.753906 19.152344 29.769531 19.128906 29.789062 19.105469 Z M 29.789062 19.105469 " fill-opacity="1" fill-rule="nonzero"/><path fill="#5e3023" d="M 32.296875 23.632812 C 32.300781 23.664062 32.3125 23.695312 32.328125 23.722656 C 32.371094 23.785156 32.433594 23.816406 32.503906 23.820312 C 32.574219 23.820312 32.644531 23.78125 32.695312 23.734375 C 32.742188 23.6875 32.773438 23.625 32.78125 23.554688 C 32.792969 23.421875 32.730469 23.277344 32.597656 23.226562 C 32.472656 23.179688 32.320312 23.214844 32.25 23.332031 C 32.214844 23.390625 32.203125 23.46875 32.226562 23.53125 C 32.238281 23.566406 32.261719 23.609375 32.296875 23.632812 Z M 32.484375 23.347656 C 32.472656 23.347656 32.480469 23.347656 32.484375 23.347656 Z M 32.363281 23.417969 C 32.363281 23.417969 32.363281 23.417969 32.363281 23.414062 C 32.363281 23.410156 32.367188 23.40625 32.367188 23.402344 C 32.371094 23.402344 32.371094 23.398438 32.371094 23.394531 C 32.371094 23.394531 32.378906 23.386719 32.378906 23.386719 C 32.382812 23.382812 32.386719 23.378906 32.386719 23.378906 C 32.386719 23.378906 32.394531 23.375 32.394531 23.371094 C 32.402344 23.367188 32.410156 23.363281 32.417969 23.359375 C 32.417969 23.359375 32.425781 23.355469 32.425781 23.355469 C 32.429688 23.355469 32.433594 23.351562 32.4375 23.351562 C 32.4375 23.351562 32.445312 23.347656 32.449219 23.347656 C 32.449219 23.347656 32.453125 23.347656 32.453125 23.347656 C 32.464844 23.347656 32.476562 23.347656 32.484375 23.347656 C 32.492188 23.347656 32.5 23.351562 32.507812 23.351562 C 32.511719 23.351562 32.515625 23.355469 32.519531 23.355469 C 32.527344 23.359375 32.539062 23.363281 32.546875 23.371094 C 32.546875 23.371094 32.546875 23.371094 32.550781 23.371094 C 32.554688 23.375 32.558594 23.378906 32.5625 23.382812 C 32.566406 23.386719 32.570312 23.390625 32.574219 23.390625 C 32.574219 23.394531 32.578125 23.398438 32.578125 23.398438 C 32.585938 23.40625 32.589844 23.417969 32.597656 23.425781 C 32.597656 23.429688 32.605469 23.445312 32.597656 23.429688 C 32.601562 23.433594 32.601562 23.4375 32.605469 23.4375 C 32.609375 23.449219 32.613281 23.460938 32.617188 23.472656 C 32.617188 23.476562 32.617188 23.484375 32.617188 23.484375 C 32.613281 23.464844 32.617188 23.492188 32.617188 23.496094 C 32.617188 23.507812 32.621094 23.515625 32.621094 23.527344 C 32.621094 23.53125 32.617188 23.550781 32.621094 23.53125 C 32.621094 23.535156 32.621094 23.539062 32.617188 23.542969 C 32.617188 23.554688 32.613281 23.5625 32.609375 23.574219 C 32.609375 23.578125 32.609375 23.582031 32.609375 23.582031 C 32.609375 23.582031 32.601562 23.597656 32.601562 23.601562 C 32.597656 23.609375 32.589844 23.617188 32.585938 23.625 C 32.585938 23.625 32.582031 23.628906 32.582031 23.628906 C 32.578125 23.632812 32.574219 23.636719 32.570312 23.640625 C 32.566406 23.644531 32.5625 23.648438 32.558594 23.652344 C 32.554688 23.65625 32.546875 23.660156 32.542969 23.664062 C 32.542969 23.664062 32.527344 23.671875 32.527344 23.671875 C 32.527344 23.671875 32.523438 23.671875 32.523438 23.671875 C 32.515625 23.675781 32.507812 23.675781 32.5 23.679688 C 32.492188 23.679688 32.488281 23.679688 32.480469 23.679688 C 32.480469 23.679688 32.480469 23.679688 32.476562 23.679688 C 32.476562 23.679688 32.464844 23.675781 32.460938 23.675781 C 32.453125 23.671875 32.445312 23.667969 32.4375 23.664062 C 32.433594 23.664062 32.429688 23.65625 32.429688 23.65625 C 32.425781 23.65625 32.421875 23.652344 32.417969 23.648438 C 32.417969 23.648438 32.410156 23.640625 32.410156 23.640625 C 32.410156 23.640625 32.410156 23.636719 32.40625 23.636719 C 32.410156 23.625 32.410156 23.613281 32.40625 23.601562 C 32.402344 23.597656 32.398438 23.589844 32.398438 23.585938 C 32.398438 23.585938 32.394531 23.582031 32.394531 23.582031 C 32.394531 23.578125 32.394531 23.578125 32.394531 23.574219 C 32.402344 23.546875 32.382812 23.53125 32.359375 23.523438 C 32.359375 23.519531 32.355469 23.515625 32.355469 23.511719 C 32.355469 23.511719 32.355469 23.507812 32.355469 23.503906 C 32.355469 23.5 32.355469 23.496094 32.351562 23.492188 C 32.351562 23.484375 32.351562 23.472656 32.351562 23.460938 C 32.351562 23.457031 32.351562 23.453125 32.351562 23.453125 C 32.351562 23.449219 32.351562 23.453125 32.351562 23.449219 C 32.351562 23.4375 32.355469 23.425781 32.355469 23.417969 Z M 32.363281 23.417969 " fill-opacity="1" fill-rule="nonzero"/><path fill="#5e3023" d="M 31.820312 21.449219 C 31.957031 21.449219 32.09375 21.457031 32.234375 21.46875 C 32.363281 21.484375 32.507812 21.523438 32.636719 21.503906 C 32.664062 21.5 32.695312 21.457031 32.660156 21.433594 C 32.546875 21.355469 32.386719 21.339844 32.253906 21.324219 C 32.125 21.308594 31.992188 21.304688 31.863281 21.308594 C 31.882812 21.273438 31.898438 21.242188 31.917969 21.207031 C 31.988281 21.09375 32.074219 20.984375 32.105469 20.855469 C 32.113281 20.820312 32.074219 20.796875 32.046875 20.816406 C 31.925781 20.886719 31.855469 21.015625 31.785156 21.128906 C 31.746094 21.191406 31.710938 21.253906 31.679688 21.316406 C 31.671875 21.316406 31.664062 21.316406 31.660156 21.316406 C 31.554688 21.039062 31.449219 20.765625 31.339844 20.488281 C 31.316406 20.4375 31.238281 20.460938 31.253906 20.519531 C 31.332031 20.792969 31.414062 21.0625 31.5 21.335938 C 31.316406 21.359375 31.136719 21.398438 30.960938 21.457031 C 30.898438 21.476562 30.929688 21.5625 30.992188 21.546875 C 31.171875 21.503906 31.355469 21.476562 31.539062 21.464844 C 31.546875 21.492188 31.554688 21.519531 31.566406 21.546875 C 31.449219 21.804688 31.351562 22.074219 31.304688 22.351562 C 31.292969 22.414062 31.386719 22.429688 31.40625 22.371094 C 31.476562 22.164062 31.550781 21.957031 31.636719 21.757812 C 31.675781 21.878906 31.71875 22.003906 31.757812 22.125 C 31.8125 22.28125 31.851562 22.480469 31.972656 22.601562 C 31.996094 22.625 32.046875 22.609375 32.050781 22.578125 C 32.070312 22.410156 31.980469 22.226562 31.925781 22.074219 C 31.867188 21.898438 31.804688 21.722656 31.742188 21.550781 C 31.742188 21.546875 31.742188 21.542969 31.738281 21.539062 C 31.753906 21.507812 31.765625 21.480469 31.78125 21.453125 C 31.796875 21.453125 31.808594 21.449219 31.820312 21.449219 Z M 31.820312 21.449219 " fill-opacity="1" fill-rule="nonzero"/><path fill="#5e3023" d="M 34.410156 16.761719 C 34.238281 16.847656 34.097656 16.957031 33.898438 16.980469 C 33.691406 17.003906 33.492188 16.976562 33.289062 16.925781 C 32.832031 16.808594 32.347656 16.648438 31.882812 16.820312 C 31.691406 16.894531 31.503906 17 31.320312 17.09375 C 31.125 17.195312 30.953125 17.332031 30.730469 17.375 C 30.230469 17.476562 29.753906 17.195312 29.269531 17.136719 C 28.855469 17.089844 28.332031 17.148438 28.140625 17.574219 C 28.09375 17.683594 28.230469 17.769531 28.316406 17.6875 C 28.605469 17.402344 29.023438 17.378906 29.40625 17.457031 C 29.890625 17.554688 30.375 17.769531 30.878906 17.628906 C 31.074219 17.574219 31.273438 17.46875 31.441406 17.347656 C 31.523438 17.285156 31.589844 17.203125 31.675781 17.144531 C 31.769531 17.078125 31.875 17.019531 31.980469 16.980469 C 32.484375 16.785156 32.960938 17.125 33.445312 17.226562 C 33.785156 17.296875 34.464844 17.304688 34.558594 16.855469 C 34.578125 16.769531 34.480469 16.726562 34.414062 16.761719 Z M 34.410156 16.761719 " fill-opacity="1" fill-rule="nonzero"/><path fill="#5e3023" d="M 35.558594 18.980469 C 35.742188 19.582031 35.855469 20.199219 36.023438 20.800781 C 36.035156 20.84375 36.105469 20.828125 36.105469 20.785156 C 36.074219 20.15625 35.90625 19.53125 35.730469 18.925781 C 35.558594 18.332031 35.34375 17.707031 35.019531 17.175781 C 35 17.140625 34.945312 17.167969 34.957031 17.203125 C 35.046875 17.5 35.164062 17.785156 35.265625 18.074219 C 35.371094 18.375 35.464844 18.679688 35.558594 18.980469 Z M 35.558594 18.980469 " fill-opacity="1" fill-rule="nonzero"/></svg>