<svg xmlns="http://www.w3.org/2000/svg" xmlns:xlink="http://www.w3.org/1999/xlink" width="100" zoomAndPan="magnify" viewBox="0 0 75 74.999997" height="100" preserveAspectRatio="xMidYMid meet" version="1.0"><defs><clipPath id="ce4fa6ab0b"><path d="M 10.351562 16.292969 L 64.351562 16.292969 L 64.351562 55.292969 L 10.351562 55.292969 Z M 10.351562 16.292969 " clip-rule="nonzero"/></clipPath></defs><g clip-path="url(#ce4fa6ab0b)"><path fill="#dfad87" d="M 16.167969 16.296875 C 12.953125 16.296875 10.351562 18.898438 10.351562 22.113281 C 10.421875 30.933594 10.351562 40.269531 10.351562 49.257812 C 10.351562 52.355469 12.757812 54.859375 15.804688 55.046875 L 59.070312 55.078125 C 62.171875 54.953125 64.644531 52.394531 64.644531 49.257812 L 64.644531 21.113281 C 64.171875 18.371094 61.792969 16.296875 58.917969 16.296875 C 44.675781 16.304688 30.414062 16.296875 16.167969 16.296875 Z M 16.078125 19.355469 L 59.097656 19.355469 L 38.285156 40.171875 C 37.90625 40.550781 37.300781 40.550781 36.921875 40.171875 Z M 61.734375 20.839844 L 61.734375 49.046875 C 61.734375 50.726562 61.128906 51.675781 59.917969 52.015625 L 45.253906 37.324219 Z M 13.59375 20.960938 L 29.800781 37.171875 L 14.988281 51.984375 C 13.972656 51.644531 13.621094 50.828125 13.59375 49.714844 Z M 31.863281 39.199219 L 36.921875 44.289062 C 37.300781 44.671875 37.90625 44.671875 38.285156 44.289062 L 43.195312 39.382812 L 55.980469 52.167969 L 18.894531 52.167969 Z M 31.863281 39.199219 " fill-opacity="1" fill-rule="nonzero"/></g></svg>