<svg xmlns="http://www.w3.org/2000/svg" xmlns:xlink="http://www.w3.org/1999/xlink" width="100" zoomAndPan="magnify" viewBox="0 0 75 74.999997" height="100" preserveAspectRatio="xMidYMid meet" version="1.0"><defs><clipPath id="c91188a9a8"><path d="M 12.140625 15 L 42 15 L 42 71.589844 L 12.140625 71.589844 Z M 12.140625 15 " clip-rule="nonzero"/></clipPath><clipPath id="b40d35b613"><path d="M 21 4.089844 L 33 4.089844 L 33 15 L 21 15 Z M 21 4.089844 " clip-rule="nonzero"/></clipPath><clipPath id="b82f605ab7"><path d="M 37.5 15 L 67.5 15 L 67.5 71.660156 L 37.5 71.660156 Z M 37.5 15 " clip-rule="nonzero"/></clipPath><clipPath id="9c1acd2061"><path d="M 46 3.410156 L 58 3.410156 L 58 15 L 46 15 Z M 46 3.410156 " clip-rule="nonzero"/></clipPath></defs><g clip-path="url(#c91188a9a8)"><path fill="#dfad87" d="M 41.722656 40.746094 C 41.550781 41.46875 41.105469 41.984375 40.441406 42.230469 C 39.347656 42.632812 38.460938 42.144531 37.910156 41.191406 C 37.816406 41.027344 37.746094 40.851562 37.6875 40.675781 L 33.621094 27.773438 C 33.550781 27.546875 33.214844 27.59375 33.210938 27.832031 L 32.972656 35.679688 L 37.457031 69.328125 C 37.617188 70.519531 36.691406 71.574219 35.492188 71.574219 L 32.742188 71.574219 C 31.742188 71.574219 30.898438 70.832031 30.773438 69.835938 L 26.984375 39.726562 L 23.199219 69.835938 C 23.074219 70.832031 22.230469 71.574219 21.230469 71.574219 L 18.480469 71.574219 C 17.28125 71.574219 16.355469 70.519531 16.511719 69.328125 L 20.996094 35.679688 L 20.761719 27.832031 C 20.753906 27.59375 20.417969 27.546875 20.347656 27.773438 L 16.28125 40.675781 C 16.226562 40.855469 16.152344 41.027344 16.058594 41.191406 C 15.507812 42.144531 14.625 42.632812 13.53125 42.230469 C 12.863281 41.984375 12.421875 41.46875 12.246094 40.746094 C 12.136719 40.300781 12.160156 39.832031 12.289062 39.386719 L 18.125 19.171875 C 18.675781 17.273438 20.414062 15.964844 22.390625 15.964844 L 31.578125 15.964844 C 33.558594 15.964844 35.296875 17.273438 35.84375 19.171875 L 41.683594 39.386719 C 41.808594 39.832031 41.832031 40.300781 41.722656 40.746094 Z M 41.722656 40.746094 " fill-opacity="1" fill-rule="nonzero"/></g><g clip-path="url(#b40d35b613)"><path fill="#dfad87" d="M 32.429688 9.546875 C 32.429688 9.90625 32.394531 10.261719 32.324219 10.609375 C 32.253906 10.960938 32.152344 11.300781 32.015625 11.632812 C 31.878906 11.960938 31.710938 12.277344 31.511719 12.574219 C 31.3125 12.871094 31.085938 13.144531 30.835938 13.398438 C 30.582031 13.652344 30.308594 13.875 30.011719 14.074219 C 29.710938 14.273438 29.398438 14.441406 29.070312 14.578125 C 28.738281 14.714844 28.398438 14.820312 28.046875 14.886719 C 27.695312 14.957031 27.34375 14.992188 26.984375 14.992188 C 26.628906 14.992188 26.273438 14.957031 25.921875 14.886719 C 25.574219 14.820312 25.230469 14.714844 24.902344 14.578125 C 24.570312 14.441406 24.257812 14.273438 23.960938 14.074219 C 23.664062 13.875 23.386719 13.652344 23.136719 13.398438 C 22.882812 13.144531 22.65625 12.871094 22.457031 12.574219 C 22.257812 12.277344 22.09375 11.960938 21.953125 11.632812 C 21.816406 11.300781 21.714844 10.960938 21.644531 10.609375 C 21.574219 10.261719 21.539062 9.90625 21.539062 9.546875 C 21.539062 9.191406 21.574219 8.835938 21.644531 8.488281 C 21.714844 8.136719 21.816406 7.796875 21.953125 7.464844 C 22.09375 7.136719 22.257812 6.820312 22.457031 6.523438 C 22.65625 6.226562 22.882812 5.953125 23.136719 5.699219 C 23.386719 5.445312 23.664062 5.21875 23.960938 5.023438 C 24.257812 4.824219 24.570312 4.65625 24.902344 4.519531 C 25.230469 4.382812 25.574219 4.277344 25.921875 4.207031 C 26.273438 4.140625 26.628906 4.105469 26.984375 4.105469 C 27.34375 4.105469 27.695312 4.140625 28.046875 4.207031 C 28.398438 4.277344 28.738281 4.382812 29.070312 4.519531 C 29.398438 4.65625 29.710938 4.824219 30.011719 5.023438 C 30.308594 5.21875 30.582031 5.445312 30.835938 5.699219 C 31.085938 5.953125 31.3125 6.226562 31.511719 6.523438 C 31.710938 6.820312 31.878906 7.136719 32.015625 7.464844 C 32.152344 7.796875 32.253906 8.136719 32.324219 8.488281 C 32.394531 8.835938 32.429688 9.191406 32.429688 9.546875 Z M 32.429688 9.546875 " fill-opacity="1" fill-rule="nonzero"/></g><g clip-path="url(#b82f605ab7)"><path fill="#dfad87" d="M 67.390625 40.433594 C 67.214844 41.164062 66.761719 41.683594 66.089844 41.933594 C 64.988281 42.339844 64.089844 41.847656 63.535156 40.882812 C 63.441406 40.71875 63.367188 40.542969 63.3125 40.363281 L 59.203125 27.328125 C 59.132812 27.097656 58.792969 27.144531 58.785156 27.386719 L 58.546875 35.316406 L 63.078125 69.308594 C 63.238281 70.511719 62.304688 71.578125 61.089844 71.578125 L 58.3125 71.578125 C 57.304688 71.578125 56.449219 70.828125 56.324219 69.824219 L 52.5 39.402344 L 48.671875 69.824219 C 48.546875 70.828125 47.695312 71.578125 46.683594 71.578125 L 43.90625 71.578125 C 42.691406 71.578125 41.757812 70.511719 41.917969 69.308594 L 46.449219 35.316406 L 46.210938 27.386719 C 46.203125 27.144531 45.867188 27.097656 45.792969 27.328125 L 41.683594 40.363281 C 41.628906 40.542969 41.554688 40.71875 41.460938 40.882812 C 40.90625 41.847656 40.007812 42.339844 38.90625 41.933594 C 38.234375 41.683594 37.785156 41.164062 37.609375 40.433594 C 37.5 39.984375 37.523438 39.507812 37.652344 39.0625 L 43.546875 18.640625 C 44.101562 16.71875 45.859375 15.398438 47.855469 15.398438 L 57.140625 15.398438 C 59.136719 15.398438 60.894531 16.71875 61.449219 18.640625 L 67.34375 39.0625 C 67.476562 39.507812 67.496094 39.984375 67.390625 40.433594 Z M 67.390625 40.433594 " fill-opacity="1" fill-rule="nonzero"/></g><g clip-path="url(#9c1acd2061)"><path fill="#dfad87" d="M 58 8.917969 C 58 9.277344 57.964844 9.636719 57.894531 9.988281 C 57.824219 10.34375 57.71875 10.6875 57.578125 11.019531 C 57.441406 11.355469 57.273438 11.671875 57.070312 11.972656 C 56.871094 12.273438 56.644531 12.550781 56.386719 12.804688 C 56.132812 13.0625 55.855469 13.289062 55.554688 13.488281 C 55.253906 13.691406 54.9375 13.859375 54.601562 13.996094 C 54.269531 14.136719 53.925781 14.242188 53.570312 14.3125 C 53.21875 14.382812 52.859375 14.417969 52.5 14.417969 C 52.136719 14.417969 51.78125 14.382812 51.425781 14.3125 C 51.070312 14.242188 50.726562 14.136719 50.394531 13.996094 C 50.058594 13.859375 49.742188 13.691406 49.441406 13.488281 C 49.140625 13.289062 48.863281 13.0625 48.609375 12.804688 C 48.355469 12.550781 48.125 12.273438 47.925781 11.972656 C 47.722656 11.671875 47.554688 11.355469 47.417969 11.019531 C 47.277344 10.6875 47.175781 10.34375 47.105469 9.988281 C 47.035156 9.636719 46.996094 9.277344 46.996094 8.917969 C 46.996094 8.554688 47.035156 8.199219 47.105469 7.84375 C 47.175781 7.488281 47.277344 7.144531 47.417969 6.8125 C 47.554688 6.476562 47.722656 6.160156 47.925781 5.859375 C 48.125 5.558594 48.355469 5.28125 48.609375 5.027344 C 48.863281 4.773438 49.140625 4.542969 49.441406 4.34375 C 49.742188 4.140625 50.058594 3.972656 50.394531 3.835938 C 50.726562 3.695312 51.070312 3.59375 51.425781 3.523438 C 51.78125 3.453125 52.136719 3.414062 52.5 3.414062 C 52.859375 3.414062 53.21875 3.453125 53.570312 3.523438 C 53.925781 3.59375 54.269531 3.695312 54.601562 3.835938 C 54.9375 3.972656 55.253906 4.140625 55.554688 4.34375 C 55.855469 4.542969 56.132812 4.773438 56.386719 5.027344 C 56.644531 5.28125 56.871094 5.558594 57.070312 5.859375 C 57.273438 6.160156 57.441406 6.476562 57.578125 6.8125 C 57.71875 7.144531 57.824219 7.488281 57.894531 7.84375 C 57.964844 8.199219 58 8.554688 58 8.917969 Z M 58 8.917969 " fill-opacity="1" fill-rule="nonzero"/></g></svg>