<svg xmlns="http://www.w3.org/2000/svg" xmlns:xlink="http://www.w3.org/1999/xlink" width="70" zoomAndPan="magnify" viewBox="0 0 52.5 52.499999" height="70" preserveAspectRatio="xMidYMid meet" version="1.0"><defs><clipPath id="0711762895"><path d="M 14 18.175781 L 36.53125 18.175781 L 36.53125 49.480469 L 14 49.480469 Z M 14 18.175781 " clip-rule="nonzero"/></clipPath><clipPath id="3770095d8c"><path d="M 13.019531 5 L 37.375 5 L 37.375 36.441406 L 13.019531 36.441406 Z M 13.019531 5 " clip-rule="nonzero"/></clipPath><clipPath id="2895e09d8e"><path d="M 25.03125 2.800781 L 25.707031 2.800781 L 25.707031 6 L 25.03125 6 Z M 25.03125 2.800781 " clip-rule="nonzero"/></clipPath></defs><g clip-path="url(#0711762895)"><path fill="#f7f3f0" d="M 28.917969 29.683594 L 28.917969 20.253906 L 29.210938 20.253906 L 29.210938 18.289062 L 21.1875 18.289062 L 21.1875 20.253906 L 21.480469 20.253906 L 21.480469 29.683594 L 14.171875 36.296875 L 14.171875 48.871094 L 21.472656 48.871094 L 21.472656 48.859375 L 21.480469 48.859375 L 21.480469 48.871094 L 21.472656 48.871094 L 21.472656 49.484375 L 28.925781 49.484375 L 28.925781 48.871094 L 28.917969 48.871094 L 28.917969 48.859375 L 28.925781 48.859375 L 28.925781 48.871094 L 36.222656 48.871094 L 36.222656 36.296875 Z M 24.9375 44.871094 L 24.699219 44.871094 L 24.699219 44.152344 L 24.9375 44.152344 Z M 25.84375 44.871094 L 25.601562 44.871094 L 25.601562 44.152344 L 25.84375 44.152344 Z M 25.84375 44.871094 " fill-opacity="1" fill-rule="evenodd"/></g><path fill="#cfe1eb" d="M 24.109375 21.234375 L 25.191406 20.8125 L 26.253906 21.183594 L 26.574219 22.042969 L 26.574219 26.554688 L 23.820312 26.554688 L 23.820312 22.027344 Z M 23.820312 32.550781 L 23.820312 37.078125 L 26.574219 37.078125 L 26.574219 32.566406 L 26.253906 31.707031 L 25.191406 31.335938 L 24.109375 31.757812 Z M 15.960938 37.917969 L 15.960938 44.421875 L 19.917969 44.421875 L 19.917969 37.941406 L 19.453125 36.707031 L 17.929688 36.171875 L 16.371094 36.777344 Z M 30.480469 37.917969 L 30.480469 44.421875 L 34.4375 44.421875 L 34.4375 37.941406 L 33.972656 36.707031 L 32.445312 36.171875 L 30.890625 36.777344 Z M 30.480469 37.917969 " fill-opacity="1" fill-rule="evenodd"/><path fill="#f7ece1" d="M 23.640625 26.65625 L 26.757812 26.65625 L 26.757812 27.277344 L 23.640625 27.277344 Z M 23.640625 37.800781 L 26.757812 37.800781 L 26.757812 37.183594 L 23.640625 37.183594 Z M 15.699219 45.46875 L 20.183594 45.46875 L 20.183594 44.574219 L 15.699219 44.574219 Z M 30.214844 45.46875 L 34.699219 45.46875 L 34.699219 44.574219 L 30.214844 44.574219 Z M 30.214844 45.46875 " fill-opacity="1" fill-rule="evenodd"/><path fill="#081534" d="M 23.066406 48.367188 L 23.066406 42.820312 C 23.066406 39.574219 27.332031 39.574219 27.332031 42.820312 L 27.332031 48.367188 Z M 26.464844 22.128906 L 26.464844 22.1875 L 26.464844 22.175781 C 26.464844 22.160156 26.464844 22.144531 26.464844 22.128906 Z M 25.199219 20.675781 C 24.390625 20.679688 23.738281 21.328125 23.738281 22.128906 L 23.738281 26.664062 L 26.660156 26.664062 L 26.660156 22.128906 C 26.660156 21.328125 26.007812 20.679688 25.199219 20.675781 Z M 25.105469 26.441406 L 23.941406 26.441406 L 23.941406 25.140625 L 25.105469 25.140625 Z M 25.105469 25.042969 L 23.941406 25.042969 L 23.941406 23.777344 L 25.105469 23.777344 Z M 25.105469 23.589844 L 23.941406 23.589844 L 23.941406 22.289062 L 25.105469 22.289062 Z M 25.105469 22.1875 L 23.941406 22.1875 L 23.941406 22.132812 L 23.933594 22.132812 C 23.957031 21.492188 24.464844 20.972656 25.105469 20.925781 Z M 26.464844 26.441406 L 25.292969 26.441406 L 25.292969 25.140625 L 26.464844 25.140625 Z M 26.464844 25.042969 L 25.292969 25.042969 L 25.292969 23.777344 L 26.464844 23.777344 Z M 26.464844 23.589844 L 25.292969 23.589844 L 25.292969 22.289062 L 26.464844 22.289062 Z M 26.464844 22.1875 L 25.292969 22.1875 L 25.292969 20.925781 C 25.933594 20.976562 26.4375 21.492188 26.464844 22.128906 C 26.464844 22.144531 26.464844 22.160156 26.464844 22.175781 Z M 26.464844 32.703125 L 26.464844 32.710938 L 26.464844 32.652344 C 26.464844 32.667969 26.464844 32.6875 26.464844 32.703125 Z M 23.941406 32.65625 L 23.941406 32.710938 L 23.933594 32.710938 L 23.933594 32.703125 C 23.933594 32.6875 23.933594 32.671875 23.933594 32.65625 Z M 25.199219 31.199219 C 24.390625 31.203125 23.738281 31.847656 23.738281 32.652344 L 23.738281 37.1875 L 26.660156 37.1875 L 26.660156 32.652344 C 26.660156 31.851562 26.007812 31.203125 25.199219 31.199219 Z M 25.105469 36.96875 L 23.941406 36.96875 L 23.941406 35.667969 L 25.105469 35.667969 Z M 25.105469 35.566406 L 23.941406 35.566406 L 23.941406 34.300781 L 25.105469 34.300781 Z M 25.105469 34.113281 L 23.941406 34.113281 L 23.941406 32.8125 L 25.105469 32.8125 Z M 25.105469 32.710938 L 23.933594 32.710938 L 23.933594 32.703125 C 23.933594 32.6875 23.933594 32.671875 23.933594 32.65625 C 23.957031 32.015625 24.464844 31.496094 25.105469 31.449219 Z M 26.464844 36.964844 L 25.292969 36.96875 L 25.292969 35.667969 L 26.464844 35.667969 Z M 26.464844 35.566406 L 25.292969 35.566406 L 25.292969 34.300781 L 26.464844 34.300781 Z M 26.464844 34.113281 L 25.292969 34.113281 L 25.292969 32.8125 L 26.464844 32.8125 Z M 26.464844 32.710938 L 25.292969 32.710938 L 25.292969 31.449219 C 25.933594 31.496094 26.4375 32.015625 26.464844 32.652344 C 26.464844 32.667969 26.464844 32.683594 26.464844 32.699219 Z M 25.292969 31.308594 L 25.292969 31.449219 C 25.261719 31.445312 25.230469 31.445312 25.199219 31.445312 C 25.167969 31.445312 25.136719 31.445312 25.105469 31.449219 L 25.105469 31.308594 Z M 25.292969 31.308594 L 25.292969 31.449219 C 25.261719 31.445312 25.230469 31.445312 25.199219 31.445312 C 25.167969 31.445312 25.136719 31.445312 25.105469 31.449219 L 25.105469 31.308594 Z M 16.132812 38.070312 L 16.132812 38.148438 L 16.121094 38.148438 L 16.121094 38.132812 C 16.121094 38.113281 16.121094 38.089844 16.121094 38.070312 Z M 17.941406 35.976562 C 16.78125 35.980469 15.839844 36.914062 15.835938 38.066406 L 15.835938 44.585938 L 20.042969 44.585938 L 20.042969 38.066406 C 20.039062 36.914062 19.097656 35.980469 17.9375 35.976562 Z M 17.804688 40.433594 L 17.804688 42.25 L 16.128906 42.25 L 16.128906 40.433594 Z M 16.132812 40.164062 L 16.132812 38.296875 L 17.804688 38.296875 L 17.804688 40.164062 Z M 16.121094 38.132812 C 16.121094 38.113281 16.121094 38.089844 16.121094 38.070312 C 16.15625 37.152344 16.882812 36.40625 17.804688 36.335938 L 17.804688 38.148438 L 16.121094 38.148438 Z M 16.132812 42.394531 L 17.804688 42.394531 L 17.804688 44.265625 L 16.128906 44.265625 Z M 19.757812 44.265625 L 18.074219 44.265625 L 18.074219 42.394531 L 19.757812 42.394531 Z M 19.757812 42.25 L 18.074219 42.25 L 18.074219 40.433594 L 19.757812 40.433594 Z M 19.757812 40.164062 L 18.074219 40.164062 L 18.074219 38.296875 L 19.757812 38.296875 Z M 19.757812 38.148438 L 18.074219 38.148438 L 18.074219 36.335938 C 19.023438 36.40625 19.757812 37.191406 19.757812 38.132812 Z M 32.457031 35.976562 C 31.300781 35.980469 30.359375 36.914062 30.355469 38.066406 L 30.355469 44.585938 L 34.5625 44.585938 L 34.5625 38.066406 C 34.558594 36.914062 33.617188 35.980469 32.457031 35.976562 Z M 32.324219 44.265625 L 30.648438 44.265625 L 30.648438 42.394531 L 32.324219 42.394531 Z M 32.324219 42.25 L 30.648438 42.25 L 30.648438 40.433594 L 32.324219 40.433594 Z M 32.324219 40.164062 L 30.648438 40.164062 L 30.648438 38.296875 L 32.324219 38.296875 Z M 32.324219 38.148438 L 30.648438 38.148438 L 30.648438 38.070312 L 30.640625 38.070312 C 30.675781 37.152344 31.398438 36.40625 32.324219 36.335938 Z M 34.277344 44.265625 L 32.59375 44.265625 L 32.59375 42.394531 L 34.277344 42.394531 Z M 34.277344 42.25 L 32.59375 42.25 L 32.59375 40.433594 L 34.277344 40.433594 Z M 34.277344 40.164062 L 32.59375 40.164062 L 32.59375 38.296875 L 34.277344 38.296875 Z M 34.277344 38.148438 L 32.59375 38.148438 L 32.59375 36.335938 C 33.539062 36.40625 34.277344 37.191406 34.277344 38.132812 Z M 34.277344 38.148438 " fill-opacity="1" fill-rule="nonzero"/><g clip-path="url(#3770095d8c)"><path fill="#dbbf97" d="M 37.378906 36.296875 L 36.222656 36.296875 L 28.746094 29.527344 L 21.652344 29.527344 L 14.171875 36.296875 L 13.019531 36.296875 L 21.003906 29.128906 L 20.992188 29.128906 L 21.480469 28.035156 L 28.917969 28.035156 L 29.402344 29.128906 L 29.390625 29.128906 Z M 27.960938 18.410156 L 25.199219 5.082031 L 22.4375 18.410156 Z M 27.960938 18.410156 " fill-opacity="1" fill-rule="evenodd"/></g><path fill="#f7ece1" d="M 24.9375 44.871094 L 24.699219 44.871094 L 24.699219 44.152344 L 24.9375 44.152344 Z M 25.84375 44.152344 L 25.601562 44.152344 L 25.601562 44.871094 L 25.84375 44.871094 Z M 25.84375 44.152344 " fill-opacity="1" fill-rule="evenodd"/><path fill="#f7ece1" d="M 21.480469 18.492188 L 22.722656 18.492188 L 22.722656 48.867188 L 21.480469 48.867188 Z M 27.675781 18.492188 L 28.917969 18.492188 L 28.917969 48.867188 L 27.675781 48.867188 Z M 27.675781 18.492188 " fill-opacity="1" fill-rule="evenodd"/><path fill="#f7ece1" d="M 21.1875 18.289062 L 29.210938 18.289062 L 29.210938 20.253906 L 21.1875 20.253906 Z M 21.1875 18.289062 " fill-opacity="1" fill-rule="nonzero"/><g clip-path="url(#2895e09d8e)"><path fill="#f7ece1" d="M 25.035156 2.804688 L 25.363281 2.804688 L 25.363281 5.894531 L 25.035156 5.894531 Z M 25.035156 2.804688 " fill-opacity="1" fill-rule="nonzero"/></g><path fill="#f7ece1" d="M 23.917969 3.523438 L 26.488281 3.523438 L 26.488281 3.851562 L 23.917969 3.851562 Z M 23.917969 3.523438 " fill-opacity="1" fill-rule="nonzero"/></svg>