<svg xmlns="http://www.w3.org/2000/svg" xmlns:xlink="http://www.w3.org/1999/xlink" width="70" zoomAndPan="magnify" viewBox="0 0 52.5 52.499999" height="70" preserveAspectRatio="xMidYMid meet" version="1.0"><defs><clipPath id="a6635d78ec"><path d="M 2.402344 9.113281 L 49.949219 9.113281 L 49.949219 37.34375 L 2.402344 37.34375 Z M 2.402344 9.113281 " clip-rule="nonzero"/></clipPath></defs><g clip-path="url(#a6635d78ec)"><path fill="#dca4a1" d="M 48.84375 9.757812 C 48.394531 9.324219 47.855469 9.109375 47.230469 9.113281 L 4.761719 9.113281 C 4.148438 9.109375 3.617188 9.316406 3.175781 9.742188 C 2.660156 10.207031 2.40625 10.78125 2.402344 11.472656 L 2.402344 35.066406 C 2.402344 35.746094 2.652344 36.316406 3.152344 36.78125 C 3.601562 37.214844 4.136719 37.429688 4.761719 37.425781 L 47.230469 37.425781 C 47.847656 37.433594 48.375 37.222656 48.820312 36.796875 C 49.332031 36.335938 49.589844 35.757812 49.589844 35.066406 L 49.589844 11.472656 C 49.589844 10.792969 49.34375 10.222656 48.84375 9.757812 Z M 46.625 10.6875 L 33.011719 21.949219 C 32.867188 21.507812 32.648438 21.105469 32.351562 20.746094 C 31.605469 19.863281 30.65625 19.394531 29.503906 19.335938 C 28.359375 19.300781 27.375 19.683594 26.554688 20.484375 L 25.996094 21.042969 L 25.4375 20.484375 C 25.246094 20.292969 25.035156 20.121094 24.804688 19.972656 C 24.578125 19.824219 24.335938 19.699219 24.082031 19.601562 C 23.828125 19.503906 23.566406 19.429688 23.296875 19.386719 C 23.027344 19.34375 22.757812 19.328125 22.484375 19.339844 C 22.210938 19.351562 21.941406 19.390625 21.679688 19.460938 C 21.414062 19.527344 21.160156 19.621094 20.914062 19.742188 C 20.671875 19.863281 20.441406 20.007812 20.226562 20.179688 C 20.011719 20.347656 19.816406 20.535156 19.644531 20.746094 C 19.34375 21.105469 19.121094 21.503906 18.972656 21.949219 L 5.367188 10.6875 Z M 3.976562 34.964844 L 3.976562 11.574219 L 18.109375 23.269531 Z M 5.367188 35.851562 L 19.011719 24.566406 C 19.214844 25.175781 19.542969 25.707031 19.996094 26.164062 L 24.886719 31.054688 C 25.035156 31.203125 25.207031 31.316406 25.398438 31.394531 C 25.589844 31.472656 25.789062 31.511719 25.996094 31.511719 C 26.203125 31.511719 26.40625 31.472656 26.597656 31.394531 C 26.789062 31.316406 26.957031 31.203125 27.105469 31.054688 L 31.996094 26.164062 C 32.449219 25.707031 32.777344 25.175781 32.980469 24.566406 L 46.625 35.851562 Z M 48.019531 34.964844 L 33.886719 23.269531 L 48.019531 11.574219 Z M 48.019531 34.964844 " fill-opacity="1" fill-rule="nonzero"/></g></svg>