<svg xmlns="http://www.w3.org/2000/svg" xmlns:xlink="http://www.w3.org/1999/xlink" width="70" zoomAndPan="magnify" viewBox="0 0 52.5 52.499999" height="70" preserveAspectRatio="xMidYMid meet" version="1.0"><defs><clipPath id="6b06907a60"><path d="M 4.414062 3.660156 L 46.015625 3.660156 L 46.015625 46.746094 L 4.414062 46.746094 Z M 4.414062 3.660156 " clip-rule="nonzero"/></clipPath></defs><path fill="#9c9d93" d="M 36.386719 41.460938 L 36.386719 43.589844 C 36.386719 43.769531 36.53125 43.917969 36.714844 43.917969 L 39.984375 43.917969 C 40.164062 43.917969 40.3125 43.769531 40.3125 43.589844 L 40.3125 41.460938 C 40.3125 40.457031 39.492188 39.636719 38.488281 39.636719 L 38.207031 39.636719 C 37.203125 39.636719 36.386719 40.457031 36.386719 41.460938 Z M 37.042969 41.460938 C 37.042969 40.816406 37.566406 40.292969 38.207031 40.292969 L 38.488281 40.292969 C 39.132812 40.292969 39.65625 40.816406 39.65625 41.460938 L 39.65625 43.261719 L 37.042969 43.261719 Z M 37.042969 41.460938 " fill-opacity="1" fill-rule="nonzero"/><path fill="#9c9d93" d="M 12.207031 39.636719 L 11.929688 39.636719 C 10.921875 39.636719 10.105469 40.457031 10.105469 41.460938 L 10.105469 43.589844 C 10.105469 43.769531 10.253906 43.917969 10.433594 43.917969 L 13.703125 43.917969 C 13.882812 43.917969 14.03125 43.769531 14.03125 43.589844 L 14.03125 41.460938 C 14.03125 40.457031 13.210938 39.636719 12.207031 39.636719 Z M 13.375 43.261719 L 10.761719 43.261719 L 10.761719 41.460938 C 10.761719 40.816406 11.285156 40.292969 11.929688 40.292969 L 12.207031 40.292969 C 12.851562 40.292969 13.375 40.816406 13.375 41.460938 Z M 13.375 43.261719 " fill-opacity="1" fill-rule="nonzero"/><g clip-path="url(#6b06907a60)"><path fill="#9c9d93" d="M 4.964844 31.855469 L 7.527344 30.320312 L 7.527344 46.464844 C 7.527344 46.648438 7.675781 46.792969 7.855469 46.792969 L 42.511719 46.792969 C 42.691406 46.792969 42.839844 46.648438 42.839844 46.464844 L 42.839844 30.25 L 45.542969 31.855469 C 45.59375 31.886719 45.652344 31.902344 45.707031 31.902344 C 45.820312 31.902344 45.929688 31.84375 45.992188 31.738281 C 46.082031 31.585938 46.03125 31.382812 45.875 31.289062 L 32.582031 23.394531 L 32.582031 15.707031 L 35.328125 17.425781 C 35.378906 17.457031 35.441406 17.472656 35.5 17.472656 C 35.609375 17.472656 35.714844 17.417969 35.777344 17.320312 C 35.875 17.167969 35.828125 16.964844 35.675781 16.867188 L 32.429688 14.835938 L 31.042969 13.96875 L 25.53125 10.519531 L 25.53125 6.515625 L 27.558594 6.515625 C 27.738281 6.515625 27.886719 6.371094 27.886719 6.1875 C 27.886719 6.007812 27.738281 5.859375 27.558594 5.859375 L 25.53125 5.859375 L 25.53125 3.988281 C 25.53125 3.804688 25.382812 3.660156 25.203125 3.660156 C 25.023438 3.660156 24.875 3.804688 24.875 3.988281 L 24.875 5.859375 L 22.847656 5.859375 C 22.664062 5.859375 22.519531 6.007812 22.519531 6.1875 C 22.519531 6.371094 22.664062 6.515625 22.847656 6.515625 L 24.875 6.515625 L 24.875 10.5625 L 14.757812 16.796875 C 14.601562 16.894531 14.554688 17.09375 14.648438 17.25 C 14.746094 17.402344 14.945312 17.453125 15.101562 17.355469 L 17.785156 15.703125 L 17.785156 23.425781 L 4.628906 31.292969 C 4.472656 31.382812 4.421875 31.585938 4.515625 31.742188 C 4.609375 31.894531 4.808594 31.945312 4.964844 31.855469 Z M 24.910156 46.136719 L 21.972656 46.136719 L 21.972656 43.070312 C 21.972656 41.445312 23.289062 40.125 24.910156 40.113281 Z M 28.503906 46.136719 L 25.566406 46.136719 L 25.566406 40.113281 C 27.1875 40.125 28.503906 41.445312 28.503906 43.070312 Z M 32.582031 24.191406 L 42.183594 29.933594 L 42.183594 46.136719 L 34.503906 46.136719 L 34.503906 31.460938 L 36.789062 32.824219 C 36.839844 32.855469 36.898438 32.871094 36.957031 32.871094 C 37.066406 32.871094 37.175781 32.816406 37.238281 32.710938 C 37.332031 32.558594 37.28125 32.355469 37.125 32.261719 L 34.34375 30.597656 L 32.582031 29.546875 Z M 18.441406 15.296875 L 25.078125 11.210938 L 25.238281 11.109375 L 30.992188 14.710938 L 31.925781 15.296875 L 31.925781 29.152344 L 25.351562 25.21875 C 25.25 25.160156 25.121094 25.160156 25.015625 25.21875 L 18.441406 29.152344 Z M 21.195312 28.269531 L 25.183594 25.882812 L 29.171875 28.269531 L 33.847656 31.066406 L 33.847656 46.136719 L 29.160156 46.136719 L 29.160156 43.070312 C 29.160156 41.078125 27.539062 39.457031 25.546875 39.457031 L 24.933594 39.457031 C 22.941406 39.457031 21.316406 41.078125 21.316406 43.070312 L 21.316406 46.136719 L 16.519531 46.136719 L 16.519531 31.066406 Z M 8.183594 29.933594 L 17.785156 24.191406 L 17.785156 29.546875 L 16.023438 30.597656 L 13.242188 32.261719 C 13.085938 32.355469 13.035156 32.558594 13.128906 32.710938 C 13.222656 32.867188 13.425781 32.917969 13.578125 32.824219 L 15.863281 31.460938 L 15.863281 46.136719 L 8.183594 46.136719 Z M 8.183594 29.933594 " fill-opacity="1" fill-rule="nonzero"/></g><path fill="#9c9d93" d="M 23.5 31.851562 L 24.875 31.851562 L 24.875 34.800781 C 24.875 34.980469 25.023438 35.128906 25.203125 35.128906 C 25.382812 35.128906 25.53125 34.980469 25.53125 34.800781 L 25.53125 31.851562 L 26.90625 31.851562 C 27.085938 31.851562 27.234375 31.703125 27.234375 31.523438 C 27.234375 31.34375 27.085938 31.195312 26.90625 31.195312 L 25.53125 31.195312 L 25.53125 29.933594 C 25.53125 29.75 25.382812 29.605469 25.203125 29.605469 C 25.023438 29.605469 24.875 29.75 24.875 29.933594 L 24.875 31.195312 L 23.5 31.195312 C 23.320312 31.195312 23.171875 31.34375 23.171875 31.523438 C 23.171875 31.703125 23.320312 31.851562 23.5 31.851562 Z M 23.5 31.851562 " fill-opacity="1" fill-rule="nonzero"/><path fill="#9c9d93" d="M 25.195312 22.894531 C 25.292969 22.894531 25.386719 22.871094 25.476562 22.835938 C 25.636719 22.769531 25.785156 22.695312 25.96875 22.59375 C 26.183594 22.472656 26.394531 22.339844 26.59375 22.195312 C 27.832031 21.285156 28.429688 20.246094 28.324219 19.195312 C 28.242188 18.351562 27.558594 17.6875 26.734375 17.648438 C 26.363281 17.632812 25.984375 17.761719 25.632812 18.023438 C 25.464844 18.148438 25.3125 18.292969 25.183594 18.445312 C 25.054688 18.292969 24.902344 18.148438 24.734375 18.023438 C 24.386719 17.761719 24.003906 17.632812 23.632812 17.648438 C 22.808594 17.6875 22.128906 18.351562 22.042969 19.195312 C 21.9375 20.246094 22.539062 21.285156 23.777344 22.195312 C 23.972656 22.339844 24.183594 22.472656 24.398438 22.589844 C 24.582031 22.695312 24.734375 22.769531 24.890625 22.835938 C 24.984375 22.875 25.082031 22.894531 25.183594 22.894531 C 25.1875 22.894531 25.191406 22.894531 25.195312 22.894531 Z M 24.714844 22.015625 C 24.523438 21.914062 24.339844 21.792969 24.164062 21.667969 C 23.4375 21.132812 22.59375 20.28125 22.695312 19.257812 C 22.746094 18.746094 23.171875 18.328125 23.664062 18.304688 C 23.675781 18.304688 23.6875 18.304688 23.699219 18.304688 C 23.957031 18.304688 24.191406 18.433594 24.339844 18.550781 C 24.519531 18.679688 24.671875 18.835938 24.789062 19 C 24.878906 19.128906 25.027344 19.207031 25.183594 19.207031 C 25.183594 19.207031 25.183594 19.207031 25.1875 19.207031 C 25.34375 19.203125 25.492188 19.128906 25.582031 19 C 25.695312 18.835938 25.851562 18.679688 26.027344 18.550781 C 26.183594 18.429688 26.429688 18.289062 26.707031 18.304688 C 27.195312 18.328125 27.621094 18.746094 27.671875 19.257812 C 27.773438 20.28125 26.929688 21.132812 26.203125 21.667969 C 26.027344 21.792969 25.84375 21.914062 25.652344 22.019531 C 25.488281 22.109375 25.359375 22.175781 25.222656 22.230469 C 25.210938 22.234375 25.199219 22.238281 25.1875 22.238281 C 25.171875 22.238281 25.15625 22.234375 25.144531 22.230469 C 25.011719 22.175781 24.878906 22.109375 24.714844 22.015625 Z M 24.714844 22.015625 " fill-opacity="1" fill-rule="nonzero"/></svg>