<svg xmlns="http://www.w3.org/2000/svg" xmlns:xlink="http://www.w3.org/1999/xlink" width="70" zoomAndPan="magnify" viewBox="0 0 52.5 52.499999" height="70" preserveAspectRatio="xMidYMid meet" version="1.0"><defs><clipPath id="898fe88480"><path d="M 9.351562 3.039062 L 42.652344 3.039062 L 42.652344 48.964844 L 9.351562 48.964844 Z M 9.351562 3.039062 " clip-rule="nonzero"/></clipPath></defs><g clip-path="url(#898fe88480)"><path fill="#9c9d93" d="M 12.5 48 L 39.503906 48 C 40.707031 48 41.6875 47.019531 41.6875 45.8125 L 41.6875 6.191406 C 41.6875 4.984375 40.707031 4.007812 39.503906 4.007812 L 12.5 4.007812 C 11.292969 4.007812 10.316406 4.984375 10.316406 6.191406 L 10.316406 45.8125 C 10.316406 47.019531 11.292969 48 12.5 48 Z M 40.46875 48.964844 L 11.535156 48.964844 C 10.328125 48.964844 9.351562 47.988281 9.351562 46.78125 L 9.351562 5.226562 C 9.351562 4.019531 10.328125 3.039062 11.535156 3.039062 L 40.46875 3.039062 C 41.675781 3.039062 42.652344 4.019531 42.652344 5.226562 L 42.652344 46.78125 C 42.652344 47.988281 41.675781 48.964844 40.46875 48.964844 " fill-opacity="1" fill-rule="nonzero"/></g><path fill="#9c9d93" d="M 13.886719 21.082031 L 12.78125 19.664062 C 12.675781 19.53125 12.6875 19.335938 12.808594 19.210938 C 12.949219 19.066406 13.144531 18.882812 13.277344 19.03125 L 13.878906 19.714844 C 14.023438 19.875 14.277344 19.867188 14.410156 19.699219 L 15.621094 18.152344 C 15.714844 18.035156 15.890625 18.023438 15.996094 18.128906 L 16.34375 18.480469 C 16.472656 18.609375 16.480469 18.820312 16.355469 18.957031 L 14.414062 21.101562 C 14.273438 21.261719 14.019531 21.25 13.886719 21.082031 " fill-opacity="1" fill-rule="nonzero"/><path fill="#9c9d93" d="M 13.886719 27.949219 L 12.78125 26.53125 C 12.675781 26.394531 12.6875 26.203125 12.808594 26.078125 C 12.949219 25.933594 13.144531 25.746094 13.277344 25.898438 L 13.878906 26.578125 C 14.023438 26.742188 14.277344 26.734375 14.410156 26.5625 L 15.464844 25.222656 C 15.640625 24.996094 15.976562 24.976562 16.175781 25.179688 L 16.34375 25.34375 C 16.472656 25.476562 16.480469 25.683594 16.355469 25.820312 L 14.414062 27.96875 C 14.273438 28.128906 14.019531 28.117188 13.886719 27.949219 " fill-opacity="1" fill-rule="nonzero"/><path fill="#9c9d93" d="M 13.886719 35.503906 L 12.78125 34.089844 C 12.675781 33.953125 12.6875 33.761719 12.808594 33.636719 C 12.949219 33.492188 13.144531 33.304688 13.277344 33.457031 L 13.878906 34.136719 C 14.023438 34.296875 14.277344 34.289062 14.410156 34.121094 L 15.464844 32.78125 C 15.640625 32.554688 15.976562 32.535156 16.175781 32.738281 L 16.34375 32.902344 C 16.472656 33.03125 16.480469 33.242188 16.355469 33.378906 L 14.414062 35.523438 C 14.273438 35.683594 14.019531 35.675781 13.886719 35.503906 " fill-opacity="1" fill-rule="nonzero"/><path fill="#9c9d93" d="M 25.410156 12.289062 C 24.890625 12.800781 24.066406 13.417969 23.597656 13.382812 C 22.835938 13.320312 21.847656 12.292969 21.847656 12.292969 C 21.847656 12.292969 19.496094 10.609375 20.910156 8.96875 C 21.921875 7.792969 23.597656 9.675781 23.597656 9.675781 C 23.597656 9.675781 25.160156 7.679688 26.386719 8.363281 C 27.859375 9.1875 26.320312 11.390625 25.410156 12.289062 Z M 27.09375 7.457031 C 25.316406 6.464844 23.601562 8.339844 23.601562 8.339844 C 22.957031 7.828125 22.078125 7.417969 21.246094 7.417969 C 19.890625 7.421875 18.875 8.839844 19.078125 10.140625 C 19.308594 11.648438 20.851562 12.886719 21.972656 13.753906 C 22.320312 14.019531 22.675781 14.285156 23.089844 14.433594 C 24.324219 14.871094 25.433594 13.726562 26.230469 12.9375 C 27.546875 11.632812 29.226562 8.652344 27.09375 7.457031 " fill-opacity="1" fill-rule="nonzero"/><path fill="#9c9d93" d="M 30.285156 13.789062 C 29.765625 14.300781 28.945312 14.917969 28.472656 14.882812 C 27.710938 14.820312 26.722656 13.792969 26.722656 13.792969 C 26.722656 13.792969 24.074219 12.109375 25.484375 10.464844 C 26.496094 9.289062 28.472656 11.175781 28.472656 11.175781 C 28.472656 11.175781 29.65625 9.324219 30.878906 10.007812 C 32.355469 10.832031 31.195312 12.890625 30.285156 13.789062 Z M 31.96875 8.957031 C 30.191406 7.964844 28.488281 10.089844 28.488281 10.089844 C 27.839844 9.582031 26.953125 8.917969 26.125 8.917969 C 24.765625 8.921875 23.753906 10.339844 23.953125 11.640625 C 24.183594 13.148438 25.730469 14.390625 26.847656 15.253906 C 27.195312 15.519531 27.554688 15.785156 27.964844 15.933594 C 29.203125 16.371094 30.308594 15.226562 31.105469 14.4375 C 32.421875 13.132812 34.105469 10.152344 31.96875 8.957031 " fill-opacity="1" fill-rule="nonzero"/><path fill="#9c9d93" d="M 37.917969 19.617188 L 18.667969 19.617188 C 18.324219 19.617188 18.046875 19.335938 18.046875 18.992188 C 18.046875 18.648438 18.324219 18.371094 18.667969 18.371094 L 37.917969 18.371094 C 38.261719 18.371094 38.542969 18.648438 38.542969 18.992188 C 38.542969 19.335938 38.261719 19.617188 37.917969 19.617188 " fill-opacity="1" fill-rule="nonzero"/><path fill="#9c9d93" d="M 37.917969 23.546875 L 18.667969 23.546875 C 18.324219 23.546875 18.046875 23.265625 18.046875 22.921875 C 18.046875 22.578125 18.324219 22.300781 18.667969 22.300781 L 37.917969 22.300781 C 38.261719 22.300781 38.542969 22.578125 38.542969 22.921875 C 38.542969 23.265625 38.261719 23.546875 37.917969 23.546875 " fill-opacity="1" fill-rule="nonzero"/><path fill="#9c9d93" d="M 37.917969 27.476562 L 18.667969 27.476562 C 18.324219 27.476562 18.046875 27.195312 18.046875 26.851562 C 18.046875 26.507812 18.324219 26.230469 18.667969 26.230469 L 37.917969 26.230469 C 38.261719 26.230469 38.542969 26.507812 38.542969 26.851562 C 38.542969 27.195312 38.261719 27.476562 37.917969 27.476562 " fill-opacity="1" fill-rule="nonzero"/><path fill="#9c9d93" d="M 37.917969 31.402344 L 18.667969 31.402344 C 18.324219 31.402344 18.046875 31.125 18.046875 30.78125 C 18.046875 30.4375 18.324219 30.160156 18.667969 30.160156 L 37.917969 30.160156 C 38.261719 30.160156 38.542969 30.4375 38.542969 30.78125 C 38.542969 31.125 38.261719 31.402344 37.917969 31.402344 " fill-opacity="1" fill-rule="nonzero"/><path fill="#9c9d93" d="M 37.917969 35.332031 L 18.667969 35.332031 C 18.324219 35.332031 18.046875 35.054688 18.046875 34.710938 C 18.046875 34.367188 18.324219 34.089844 18.667969 34.089844 L 37.917969 34.089844 C 38.261719 34.089844 38.542969 34.367188 38.542969 34.710938 C 38.542969 35.054688 38.261719 35.332031 37.917969 35.332031 " fill-opacity="1" fill-rule="nonzero"/><path fill="#9c9d93" d="M 24.429688 43.496094 L 18.90625 43.496094 C 18.578125 43.496094 18.3125 43.230469 18.3125 42.902344 C 18.3125 42.570312 18.578125 42.304688 18.90625 42.304688 L 24.429688 42.304688 C 24.757812 42.304688 25.023438 42.570312 25.023438 42.902344 C 25.023438 43.230469 24.757812 43.496094 24.429688 43.496094 " fill-opacity="1" fill-rule="nonzero"/><path fill="#9c9d93" d="M 34.816406 38.011719 C 32.507812 37.765625 30.574219 39.703125 30.816406 42.007812 C 30.996094 43.691406 32.347656 45.042969 34.027344 45.21875 C 36.335938 45.464844 38.269531 43.527344 38.027344 41.222656 C 37.847656 39.539062 36.496094 38.1875 34.816406 38.011719 Z M 34.839844 46.179688 C 31.984375 46.433594 29.601562 44.054688 29.855469 41.195312 C 30.050781 39.007812 31.8125 37.246094 34.003906 37.050781 C 36.859375 36.796875 39.242188 39.179688 38.988281 42.035156 C 38.792969 44.222656 37.027344 45.984375 34.839844 46.179688 " fill-opacity="1" fill-rule="nonzero"/><path fill="#9c9d93" d="M 36.753906 42.070312 C 36.554688 42.003906 36.4375 41.808594 36.4375 41.601562 C 36.425781 40.5 35.535156 39.609375 34.4375 39.601562 C 34.230469 39.601562 34.035156 39.480469 33.96875 39.285156 C 33.859375 38.949219 34.105469 38.640625 34.421875 38.640625 C 36.0625 38.640625 37.394531 39.976562 37.394531 41.613281 C 37.394531 41.933594 37.085938 42.179688 36.753906 42.070312 " fill-opacity="1" fill-rule="nonzero"/><path fill="#9c9d93" d="M 34.421875 44.589844 C 32.789062 44.589844 31.457031 43.261719 31.449219 41.628906 C 31.449219 41.398438 31.609375 41.1875 31.835938 41.144531 C 32.140625 41.085938 32.40625 41.320312 32.40625 41.613281 C 32.40625 42.722656 33.308594 43.625 34.414062 43.628906 C 34.65625 43.628906 34.871094 43.8125 34.898438 44.054688 C 34.929688 44.34375 34.703125 44.589844 34.421875 44.589844 " fill-opacity="1" fill-rule="nonzero"/></svg>