<svg xmlns="http://www.w3.org/2000/svg" xmlns:xlink="http://www.w3.org/1999/xlink" width="70" zoomAndPan="magnify" viewBox="0 0 52.5 52.499999" height="70" preserveAspectRatio="xMidYMid meet" version="1.0"><defs><clipPath id="585fdc4dbe"><path d="M 3.171875 3.117188 L 47 3.117188 L 47 46.949219 L 3.171875 46.949219 Z M 3.171875 3.117188 " clip-rule="nonzero"/></clipPath></defs><g clip-path="url(#585fdc4dbe)"><path fill="#6f2834" d="M 6.921875 46.714844 C 6.292969 46.609375 5.570312 46.222656 5.027344 45.699219 C 3.523438 44.246094 3.175781 41.621094 4.097656 38.699219 C 4.835938 36.371094 6.386719 34.191406 8.605469 32.367188 C 8.855469 32.160156 9.085938 31.96875 9.117188 31.941406 C 9.144531 31.914062 9.074219 31.785156 8.953125 31.65625 C 8.523438 31.195312 8.429688 30.925781 8.429688 30.152344 C 8.429688 29.472656 8.4375 29.433594 8.722656 28.855469 C 9.582031 27.105469 11.515625 25.710938 13.625 25.3125 C 14.484375 25.152344 15.867188 25.195312 16.3125 25.398438 C 16.660156 25.558594 16.832031 25.726562 16.890625 25.96875 C 16.945312 26.195312 16.816406 26.53125 16.636719 26.625 C 16.554688 26.671875 16.101562 26.710938 15.613281 26.722656 C 14.597656 26.738281 13.949219 26.886719 13.046875 27.3125 C 11.71875 27.929688 10.578125 29.007812 10.3125 29.882812 C 10.195312 30.273438 10.242188 30.382812 10.542969 30.4375 C 10.980469 30.523438 11.351562 30.425781 12.011719 30.054688 C 13.21875 29.375 14.835938 28.785156 15.488281 28.785156 C 16.148438 28.785156 16.589844 29.171875 16.589844 29.746094 C 16.589844 30.324219 16.128906 30.726562 14.863281 31.253906 C 14.066406 31.589844 12.402344 32.148438 12.210938 32.148438 C 12.074219 32.148438 11.058594 32.832031 10.316406 33.417969 C 9.121094 34.367188 7.953125 35.578125 7.285156 36.550781 C 6.492188 37.710938 5.871094 39.1875 5.65625 40.417969 C 5.546875 41.050781 5.542969 42.429688 5.652344 42.882812 C 5.832031 43.632812 6.304688 44.335938 6.808594 44.597656 C 7.527344 44.972656 8.6875 44.640625 9.96875 43.699219 C 10.648438 43.199219 12.375 41.445312 13.0625 40.558594 C 14.699219 38.441406 17.355469 34.042969 17.988281 32.402344 C 18.105469 32.097656 18.261719 31.78125 18.335938 31.699219 C 18.410156 31.621094 18.617188 31.191406 18.796875 30.746094 C 19.4375 29.171875 19.800781 28.644531 20.246094 28.644531 C 20.648438 28.644531 21 28.949219 21.003906 29.296875 C 21.003906 29.40625 20.804688 30.132812 20.558594 30.910156 C 20.308594 31.6875 19.960938 32.828125 19.785156 33.445312 C 19.605469 34.0625 19.441406 34.613281 19.421875 34.667969 C 19.351562 34.875 19.472656 34.679688 20.101562 33.578125 C 21.769531 30.667969 23.074219 29.121094 24.101562 28.847656 C 24.867188 28.640625 25.554688 29.105469 25.675781 29.90625 C 25.742188 30.367188 25.597656 31.101562 25.140625 32.605469 C 24.574219 34.449219 24.324219 35.363281 24.160156 36.167969 C 23.972656 37.074219 23.976562 37.140625 24.203125 36.878906 C 24.300781 36.761719 24.546875 36.480469 24.753906 36.246094 C 25.546875 35.351562 25.707031 35.15625 26.714844 33.832031 C 27.898438 32.277344 28.988281 30.886719 29.105469 30.78125 C 29.148438 30.746094 29.367188 30.460938 29.585938 30.152344 C 31.078125 28.082031 32.746094 27.351562 33.925781 28.25 C 34.21875 28.476562 34.582031 29.171875 34.640625 29.640625 C 34.667969 29.832031 34.710938 29.960938 34.742188 29.929688 C 34.773438 29.898438 35.246094 29.132812 35.792969 28.226562 C 38.101562 24.40625 39.878906 21.785156 41.183594 20.273438 C 41.808594 19.550781 43.019531 18.347656 43.546875 17.921875 C 44.179688 17.414062 44.476562 17.34375 44.949219 17.585938 C 45.464844 17.851562 45.652344 18.378906 45.4375 18.957031 C 45.390625 19.082031 44.941406 19.667969 44.4375 20.253906 C 39.746094 25.714844 36.667969 30.707031 35.714844 34.390625 C 35.550781 35.027344 35.441406 35.792969 35.515625 35.792969 C 35.546875 35.792969 35.800781 35.609375 36.082031 35.382812 C 36.652344 34.925781 37.304688 34.261719 38.347656 33.070312 C 39.265625 32.023438 39.496094 31.90625 39.925781 32.265625 C 40.132812 32.441406 40.148438 32.480469 40.121094 32.808594 C 40.03125 33.851562 37.941406 36.917969 36.65625 37.882812 C 36.046875 38.339844 35.570312 38.523438 34.988281 38.523438 C 34.164062 38.523438 33.550781 38.058594 33.238281 37.195312 L 33.078125 36.757812 L 32.519531 37.484375 C 31.808594 38.402344 30.980469 39.191406 30.394531 39.507812 C 29.984375 39.726562 29.886719 39.75 29.378906 39.75 C 28.894531 39.75 28.773438 39.726562 28.492188 39.558594 C 27.792969 39.148438 27.464844 38.492188 27.390625 37.375 L 27.347656 36.679688 L 27.074219 37.09375 C 25.875 38.914062 24.523438 40.09375 23.527344 40.191406 C 22.777344 40.261719 22.085938 39.847656 21.769531 39.140625 C 21.625 38.8125 21.605469 38.671875 21.609375 37.929688 C 21.617188 37.003906 21.78125 36.125 22.226562 34.628906 C 22.363281 34.175781 22.460938 33.789062 22.445312 33.777344 C 22.410156 33.742188 21.597656 35.183594 20.582031 37.089844 C 19.046875 39.972656 18.511719 40.628906 17.683594 40.628906 C 17.164062 40.628906 16.800781 40.371094 16.558594 39.828125 L 16.40625 39.484375 L 15.875 40.25 C 13.613281 43.515625 11.132812 45.789062 9.039062 46.503906 C 8.597656 46.65625 7.808594 46.796875 7.484375 46.785156 C 7.386719 46.777344 7.132812 46.75 6.921875 46.714844 Z M 30.226562 36.773438 C 30.820312 36.113281 31.929688 34.535156 33.019531 32.792969 C 33.410156 32.164062 33.425781 32.128906 33.351562 31.882812 C 33.308594 31.738281 33.257812 31.355469 33.234375 31.03125 C 33.207031 30.683594 33.136719 30.3125 33.058594 30.132812 C 32.929688 29.851562 32.910156 29.835938 32.765625 29.914062 C 32.433594 30.089844 31.832031 30.738281 31.40625 31.382812 C 30.417969 32.863281 29.734375 34.832031 29.585938 36.609375 C 29.558594 36.921875 29.558594 37.214844 29.585938 37.257812 C 29.644531 37.355469 29.828125 37.214844 30.226562 36.773438 Z M 19.265625 44.789062 C 18.039062 44.613281 16.9375 44.222656 16.269531 43.726562 C 15.75 43.339844 15.632812 42.789062 16.007812 42.441406 C 16.226562 42.234375 16.601562 42.226562 16.816406 42.425781 C 17.246094 42.820312 18.171875 43.070312 19.402344 43.128906 C 21.125 43.207031 22.078125 43.015625 29.378906 41.082031 C 32.308594 40.308594 33.589844 40.101562 35.371094 40.105469 C 36.476562 40.109375 36.746094 40.132812 37.226562 40.261719 C 37.875 40.441406 38.792969 40.871094 39.191406 41.1875 C 40.003906 41.832031 40.085938 42.722656 39.351562 42.90625 C 39.25 42.929688 39.105469 42.917969 39.035156 42.878906 C 38.960938 42.84375 38.453125 42.769531 37.90625 42.722656 C 36.367188 42.589844 35.347656 42.703125 31.445312 43.453125 C 24.835938 44.726562 21.414062 45.101562 19.261719 44.789062 Z M 41.648438 34.410156 C 41.628906 34.339844 41.558594 33.941406 41.5 33.523438 C 41.328125 32.347656 41.058594 31.78125 40.519531 31.449219 C 40.167969 31.230469 40.195312 31.046875 40.636719 30.75 C 40.832031 30.617188 41.210938 30.246094 41.480469 29.929688 C 41.769531 29.585938 42.003906 29.367188 42.058594 29.390625 C 42.109375 29.410156 42.222656 29.621094 42.304688 29.859375 C 42.507812 30.425781 42.847656 30.953125 43.058594 31.035156 C 43.152344 31.070312 43.316406 31.097656 43.429688 31.097656 C 43.640625 31.097656 43.8125 31.289062 43.722656 31.421875 C 43.695312 31.460938 43.554688 31.5625 43.414062 31.648438 C 42.800781 32.019531 42.34375 32.796875 42.164062 33.765625 C 42.117188 34.011719 42.054688 34.285156 42.019531 34.375 C 41.949219 34.5625 41.703125 34.585938 41.648438 34.410156 Z M 43.808594 33.308594 C 43.722656 33.179688 43.714844 33.105469 43.773438 33 C 43.867188 32.820312 44.105469 32.742188 44.238281 32.851562 C 44.386719 32.976562 44.367188 33.320312 44.203125 33.40625 C 44 33.515625 43.933594 33.5 43.808594 33.308594 Z M 45.492188 29.875 C 45.074219 29.457031 45.480469 28.574219 46.089844 28.574219 C 46.332031 28.574219 46.515625 28.710938 46.621094 28.960938 C 46.75 29.273438 46.679688 29.585938 46.425781 29.839844 C 46.152344 30.113281 45.746094 30.128906 45.492188 29.875 Z M 44.351562 28.34375 C 44.316406 28.296875 44.234375 27.945312 44.171875 27.558594 C 44.023438 26.679688 43.832031 26.113281 43.507812 25.628906 C 43.300781 25.324219 43.15625 25.203125 42.769531 25.003906 C 42 24.613281 41.96875 24.394531 42.644531 24.164062 C 43.21875 23.972656 43.363281 23.828125 43.722656 23.109375 C 43.90625 22.742188 44.097656 22.433594 44.152344 22.425781 C 44.207031 22.414062 44.351562 22.5625 44.476562 22.757812 C 44.753906 23.191406 45.136719 23.511719 45.722656 23.804688 C 46.226562 24.054688 46.28125 24.207031 45.953125 24.453125 C 45.460938 24.8125 45.078125 25.769531 44.828125 27.246094 C 44.746094 27.726562 44.664062 28.171875 44.648438 28.234375 C 44.601562 28.386719 44.4375 28.449219 44.351562 28.34375 Z M 40.839844 27.957031 C 40.570312 27.691406 40.570312 27.589844 40.839844 27.324219 C 41.214844 26.945312 41.828125 26.960938 41.929688 27.351562 C 42.015625 27.703125 41.738281 28.035156 41.273438 28.128906 C 41.085938 28.164062 41.015625 28.136719 40.839844 27.957031 Z M 10.878906 25.371094 C 10.601562 23.628906 10.308594 23.152344 9.363281 22.90625 C 8.777344 22.753906 8.738281 22.601562 9.25 22.453125 C 9.453125 22.394531 9.691406 22.292969 9.777344 22.234375 C 10.035156 22.050781 10.316406 21.496094 10.394531 21.007812 C 10.457031 20.628906 10.492188 20.554688 10.605469 20.554688 C 10.699219 20.554688 10.800781 20.671875 10.9375 20.9375 C 11.1875 21.429688 11.636719 21.898438 12.019531 22.070312 C 12.363281 22.226562 12.386719 22.332031 12.144531 22.644531 C 11.890625 22.980469 11.640625 23.703125 11.441406 24.679688 C 11.347656 25.15625 11.265625 25.566406 11.265625 25.589844 C 11.265625 25.613281 11.1875 25.632812 11.09375 25.632812 C 10.949219 25.632812 10.917969 25.589844 10.878906 25.371094 Z M 17.503906 25.375 C 17.03125 25.132812 16.707031 24.6875 16.585938 24.109375 C 16.480469 23.59375 16.542969 22 16.699219 21.292969 C 17.367188 18.246094 19.214844 14.125 21.574219 10.410156 C 21.839844 9.984375 22.054688 9.628906 22.042969 9.621094 C 22.03125 9.609375 21.359375 9.894531 20.550781 10.25 C 18.128906 11.324219 17.027344 11.691406 16.210938 11.691406 C 15.1875 11.691406 14.582031 10.949219 14.863281 10.050781 C 15.019531 9.558594 15.324219 9.214844 15.832031 8.960938 C 16.3125 8.722656 16.785156 8.679688 17.175781 8.84375 C 17.425781 8.949219 17.78125 9.328125 17.78125 9.492188 C 17.78125 9.570312 17.828125 9.582031 17.941406 9.550781 C 18.292969 9.441406 21.023438 8.132812 24.230469 6.53125 C 28.542969 4.382812 29.265625 4.066406 30.625 3.734375 C 33.15625 3.117188 34.847656 3.777344 35.167969 5.5 C 35.3125 6.289062 34.914062 7.546875 34.363281 8.027344 C 34.023438 8.324219 33.628906 8.34375 33.363281 8.078125 C 33.167969 7.878906 33.160156 7.675781 33.332031 6.8125 C 33.398438 6.488281 33.398438 6.316406 33.339844 6.089844 C 33.226562 5.679688 32.953125 5.5625 32.113281 5.570312 C 30.851562 5.585938 29.34375 6.128906 25.503906 7.957031 C 24.816406 8.28125 24.773438 8.320312 24.535156 8.710938 C 24.210938 9.253906 22.707031 11.953125 22.023438 13.226562 C 20.28125 16.476562 18.925781 20.015625 18.585938 22.199219 C 18.46875 22.96875 18.460938 23.179688 18.542969 23.179688 C 18.757812 23.179688 20.628906 20.519531 21.824219 18.519531 C 22.449219 17.46875 22.675781 17.074219 24.476562 13.863281 C 27.160156 9.078125 27.898438 8.046875 28.640625 8.046875 C 29.382812 8.046875 29.851562 8.703125 29.625 9.421875 C 29.578125 9.570312 28.945312 10.84375 28.21875 12.25 C 27.128906 14.363281 25.816406 17.085938 25.605469 17.675781 C 25.578125 17.75 25.851562 17.523438 26.214844 17.171875 C 26.972656 16.441406 27.429688 16.171875 27.921875 16.175781 C 28.625 16.179688 29.070312 16.65625 29.121094 17.472656 C 29.152344 17.972656 29.039062 18.589844 28.5625 20.441406 C 28.375 21.191406 28.226562 21.855469 28.238281 21.914062 C 28.265625 22.050781 28.917969 21.011719 29.398438 20.0625 C 29.667969 19.535156 29.773438 19.230469 29.832031 18.835938 C 30.21875 16.191406 32.605469 12.902344 34.921875 11.816406 C 36.050781 11.285156 37.007812 11.582031 37.328125 12.558594 C 37.464844 12.96875 37.382812 13.917969 37.15625 14.632812 C 36.910156 15.390625 36.347656 16.519531 35.785156 17.367188 C 35.273438 18.140625 34.296875 19.140625 33.785156 19.414062 C 33.113281 19.773438 32.265625 19.898438 31.777344 19.710938 C 31.671875 19.667969 31.65625 19.710938 31.65625 20.074219 C 31.65625 20.546875 31.808594 21.207031 31.980469 21.46875 C 32.289062 21.941406 33.125 22.019531 34.042969 21.660156 C 35.734375 21 37.820312 18.90625 38.6875 17.007812 C 39.28125 15.703125 39.601562 14.332031 39.605469 13.085938 C 39.609375 12.242188 39.601562 12.191406 39.417969 11.917969 C 39.167969 11.539062 39.121094 11.328125 39.222656 11.023438 C 39.378906 10.558594 39.894531 10.378906 40.398438 10.617188 C 41.222656 11.007812 41.683594 12.070312 41.679688 13.570312 C 41.679688 14.496094 41.542969 15.285156 41.21875 16.269531 C 40.578125 18.207031 39.644531 19.699219 38.144531 21.183594 C 35.820312 23.484375 33.332031 24.371094 31.539062 23.535156 C 31.066406 23.3125 30.515625 22.847656 30.347656 22.53125 L 30.246094 22.328125 L 29.835938 23.019531 C 29.359375 23.828125 28.890625 24.371094 28.453125 24.628906 C 27.769531 25.03125 26.914062 24.773438 26.542969 24.058594 C 26.390625 23.753906 26.363281 23.605469 26.34375 22.894531 C 26.316406 21.953125 26.40625 21.390625 26.8125 19.921875 C 26.960938 19.382812 27.074219 18.929688 27.0625 18.917969 C 26.992188 18.835938 25.710938 20.429688 25.101562 21.359375 C 24.429688 22.382812 23.621094 23.980469 23.492188 24.542969 C 23.351562 25.152344 23.304688 25.234375 23.011719 25.417969 C 22.679688 25.625 22.371094 25.605469 22.136719 25.371094 C 21.992188 25.222656 21.925781 25.050781 21.851562 24.625 C 21.746094 24.015625 21.800781 23.4375 22.066406 22.382812 C 22.140625 22.082031 22.191406 21.820312 22.175781 21.804688 C 22.160156 21.789062 22.027344 21.957031 21.878906 22.179688 C 20.902344 23.65625 19.644531 25.054688 19.023438 25.347656 C 18.839844 25.433594 18.511719 25.523438 18.289062 25.539062 C 17.945312 25.570312 17.832031 25.546875 17.503906 25.375 Z M 32.96875 17.882812 C 33.394531 17.585938 33.742188 17.195312 34.210938 16.464844 C 34.792969 15.566406 35.5625 13.792969 35.371094 13.792969 C 35.335938 13.792969 35.066406 13.984375 34.773438 14.222656 C 33.78125 15.019531 32.769531 16.355469 32.25 17.546875 C 32.121094 17.847656 32.03125 18.121094 32.054688 18.15625 C 32.128906 18.277344 32.59375 18.140625 32.96875 17.882812 Z M 14.039062 23.210938 C 13.890625 23.0625 13.902344 22.929688 14.074219 22.757812 C 14.28125 22.546875 14.589844 22.59375 14.617188 22.839844 C 14.632812 22.972656 14.585938 23.066406 14.449219 23.171875 C 14.222656 23.351562 14.183594 23.355469 14.039062 23.210938 Z M 14.414062 20.734375 C 14.183594 20.503906 14.136719 20.09375 14.3125 19.863281 C 14.492188 19.625 15.042969 19.378906 15.296875 19.425781 C 15.742188 19.511719 15.894531 20.078125 15.589844 20.523438 C 15.28125 20.984375 14.761719 21.078125 14.414062 20.734375 Z M 12.710938 19.523438 C 12.695312 19.433594 12.632812 18.929688 12.570312 18.40625 C 12.457031 17.417969 12.308594 16.886719 12.039062 16.546875 C 11.808594 16.253906 11.316406 15.929688 10.828125 15.75 C 10.585938 15.660156 10.371094 15.554688 10.34375 15.515625 C 10.269531 15.40625 10.414062 15.191406 10.5625 15.191406 C 10.792969 15.191406 11.921875 14.578125 12.292969 14.25 C 12.492188 14.074219 12.800781 13.710938 12.980469 13.4375 C 13.160156 13.164062 13.355469 12.925781 13.417969 12.902344 C 13.574219 12.839844 13.707031 13.046875 13.753906 13.433594 C 13.886719 14.433594 14.464844 15.007812 15.550781 15.210938 C 15.921875 15.28125 16.085938 15.398438 16 15.539062 C 15.980469 15.570312 15.800781 15.617188 15.605469 15.640625 C 15.066406 15.714844 14.675781 15.929688 14.246094 16.394531 C 13.621094 17.070312 13.296875 17.878906 13.113281 19.222656 C 13.0625 19.582031 13.03125 19.644531 12.898438 19.664062 C 12.78125 19.679688 12.734375 19.644531 12.710938 19.523438 Z M 8.925781 19.234375 C 8.558594 18.867188 8.757812 18.429688 9.320312 18.367188 C 9.714844 18.320312 9.90625 18.5 9.835938 18.859375 C 9.785156 19.144531 9.617188 19.308594 9.324219 19.367188 C 9.148438 19.402344 9.070312 19.378906 8.925781 19.234375 Z M 8.925781 19.234375 " fill-opacity="1" fill-rule="nonzero"/></g></svg>