<svg xmlns="http://www.w3.org/2000/svg" xmlns:xlink="http://www.w3.org/1999/xlink" width="70" zoomAndPan="magnify" viewBox="0 0 52.5 52.499999" height="70" preserveAspectRatio="xMidYMid meet" version="1.0"><defs><clipPath id="371a48f2b4"><path d="M 4.539062 11 L 26 11 L 26 45 L 4.539062 45 Z M 4.539062 11 " clip-rule="nonzero"/></clipPath><clipPath id="f7569ed642"><path d="M 25 11 L 46.886719 11 L 46.886719 45 L 25 45 Z M 25 11 " clip-rule="nonzero"/></clipPath><clipPath id="02a415582c"><path d="M 25 6.449219 L 26 6.449219 L 26 13 L 25 13 Z M 25 6.449219 " clip-rule="nonzero"/></clipPath></defs><g clip-path="url(#371a48f2b4)"><path fill="#6f2834" d="M 19.042969 11.394531 L 18.535156 12.082031 C 17.824219 13.101562 11.640625 21.976562 11.515625 26.386719 C 11.488281 27.433594 11.707031 28.472656 12.152344 29.417969 C 12.480469 30.199219 12.628906 30.550781 12.277344 31.320312 L 8.710938 39.183594 C 8.597656 39.617188 8.191406 39.90625 7.742188 39.875 C 7.421875 39.863281 7.097656 39.820312 6.785156 39.742188 C 6.492188 39.675781 6.191406 39.632812 5.886719 39.621094 C 5.753906 39.617188 5.617188 39.632812 5.484375 39.667969 C 5.035156 39.765625 4.699219 40.132812 4.644531 40.589844 C 4.558594 41.445312 5.074219 41.828125 8.308594 43.320312 L 8.441406 43.382812 L 8.542969 43.429688 L 9.476562 43.863281 C 11.386719 44.691406 11.867188 44.769531 12.179688 44.769531 C 12.570312 44.78125 12.9375 44.585938 13.148438 44.257812 C 13.335938 43.925781 13.335938 43.519531 13.148438 43.183594 C 12.914062 42.8125 12.605469 42.496094 12.234375 42.253906 C 11.296875 41.472656 11.066406 41.140625 11.398438 40.382812 L 14.96875 32.539062 C 15.3125 31.769531 15.683594 31.644531 16.496094 31.378906 C 17.503906 31.085938 18.429688 30.5625 19.203125 29.851562 C 22.4375 26.847656 25.0625 16.335938 25.347656 15.144531 L 25.542969 14.324219 L 24.78125 13.976562 L 22.40625 12.921875 L 22.160156 12.816406 L 19.796875 11.738281 Z M 19.375 12.667969 L 21.738281 13.746094 L 21.984375 13.847656 L 24.347656 14.910156 C 24.347656 14.910156 21.589844 26.246094 18.496094 29.121094 C 16.5625 30.90625 15.003906 30.007812 14.046875 32.121094 C 13.535156 33.261719 11.105469 38.597656 10.480469 39.976562 C 9.488281 42.160156 11.910156 42.933594 12.285156 43.613281 C 12.324219 43.6875 12.285156 43.722656 12.195312 43.722656 C 11.714844 43.722656 9.71875 42.839844 8.976562 42.503906 L 8.734375 42.394531 C 7.851562 41.992188 5.210938 40.761719 5.71875 40.632812 C 5.773438 40.628906 5.828125 40.628906 5.882812 40.632812 C 6.308594 40.632812 7.019531 40.886719 7.734375 40.886719 C 8.148438 40.90625 8.558594 40.796875 8.902344 40.566406 C 9.242188 40.335938 9.5 40.003906 9.644531 39.617188 L 13.210938 31.757812 C 14.171875 29.648438 12.460938 29.0625 12.539062 26.433594 C 12.652344 22.203125 19.371094 12.675781 19.371094 12.675781 " fill-opacity="1" fill-rule="nonzero"/></g><path fill="#6f2834" d="M 15.53125 20.148438 C 14.332031 22.328125 13.265625 24.671875 13.226562 26.199219 C 13.164062 28.402344 16.59375 29.960938 18.214844 28.464844 C 19.835938 26.964844 21.207031 23.085938 22.101562 20.125 C 22.140625 19.988281 22.097656 19.839844 21.984375 19.75 C 21.875 19.65625 21.71875 19.640625 21.589844 19.707031 C 20.351562 20.363281 17.722656 21.394531 15.53125 20.148438 " fill-opacity="1" fill-rule="nonzero"/><g clip-path="url(#f7569ed642)"><path fill="#6f2834" d="M 32.292969 11.394531 L 31.523438 11.742188 L 29.160156 12.816406 L 28.914062 12.921875 L 26.546875 14 L 25.78125 14.34375 L 25.984375 15.164062 C 26.269531 16.359375 28.894531 26.886719 32.128906 29.867188 C 32.902344 30.582031 33.824219 31.109375 34.835938 31.398438 C 35.632812 31.667969 36 31.792969 36.363281 32.5625 L 36.734375 33.375 L 39.933594 40.386719 C 40.277344 41.125 40.039062 41.457031 39.070312 42.199219 C 38.699219 42.441406 38.390625 42.753906 38.15625 43.128906 C 37.964844 43.460938 37.964844 43.867188 38.15625 44.203125 C 38.363281 44.535156 38.734375 44.722656 39.125 44.710938 C 39.4375 44.710938 39.917969 44.632812 41.828125 43.8125 L 42.792969 43.441406 L 42.90625 43.394531 L 43.035156 43.332031 C 46.261719 41.84375 46.777344 41.464844 46.6875 40.605469 C 46.644531 40.140625 46.304688 39.761719 45.847656 39.664062 C 45.714844 39.628906 45.582031 39.617188 45.449219 39.617188 C 45.144531 39.628906 44.84375 39.671875 44.550781 39.738281 C 44.234375 39.816406 43.917969 39.859375 43.589844 39.871094 C 43.148438 39.910156 42.738281 39.628906 42.613281 39.199219 L 41.085938 35.863281 L 39.046875 31.335938 C 38.695312 30.566406 38.84375 30.210938 39.171875 29.433594 C 39.613281 28.488281 39.835938 27.449219 39.8125 26.402344 C 39.683594 21.976562 33.5 13.078125 32.800781 12.082031 Z M 31.960938 12.667969 C 31.960938 12.667969 38.671875 22.1875 38.792969 26.425781 C 38.867188 29.054688 37.15625 29.640625 38.121094 31.75 L 41.6875 39.609375 C 41.824219 39.996094 42.082031 40.332031 42.425781 40.566406 C 42.769531 40.800781 43.179688 40.914062 43.589844 40.894531 C 44.3125 40.894531 45.019531 40.640625 45.449219 40.640625 C 45.5 40.632812 45.554688 40.632812 45.609375 40.640625 C 46.121094 40.769531 43.480469 41.996094 42.597656 42.398438 L 42.476562 42.457031 L 42.359375 42.507812 C 41.613281 42.839844 39.617188 43.730469 39.140625 43.730469 C 39.046875 43.730469 39.011719 43.691406 39.054688 43.621094 C 39.425781 42.933594 41.847656 42.160156 40.863281 39.976562 C 40.226562 38.597656 37.804688 33.261719 37.296875 32.121094 C 36.335938 30.007812 34.777344 30.910156 32.839844 29.121094 C 29.746094 26.246094 26.988281 14.910156 26.988281 14.910156 L 29.347656 13.835938 L 29.597656 13.730469 L 31.960938 12.652344 " fill-opacity="1" fill-rule="nonzero"/></g><path fill="#6f2834" d="M 35.800781 20.148438 C 37.003906 22.328125 38.070312 24.671875 38.109375 26.199219 C 38.167969 28.402344 34.742188 29.960938 33.121094 28.464844 C 31.5 26.964844 30.125 23.085938 29.234375 20.125 C 29.191406 19.988281 29.238281 19.839844 29.347656 19.75 C 29.460938 19.65625 29.617188 19.640625 29.746094 19.707031 C 30.988281 20.363281 33.617188 21.394531 35.800781 20.148438 " fill-opacity="1" fill-rule="nonzero"/><g clip-path="url(#02a415582c)"><path fill="#6f2834" d="M 25.667969 12.363281 C 25.527344 12.363281 25.414062 12.246094 25.414062 12.109375 L 25.414062 6.785156 C 25.414062 6.640625 25.527344 6.53125 25.667969 6.53125 C 25.808594 6.53125 25.921875 6.640625 25.921875 6.785156 L 25.921875 12.113281 C 25.921875 12.25 25.804688 12.363281 25.667969 12.363281 " fill-opacity="1" fill-rule="nonzero"/></g><path fill="#6f2834" d="M 23.863281 11.855469 C 23.796875 11.851562 23.734375 11.824219 23.683594 11.78125 L 21.824219 9.921875 C 21.726562 9.824219 21.726562 9.660156 21.824219 9.558594 C 21.925781 9.460938 22.085938 9.460938 22.1875 9.558594 L 24.046875 11.417969 C 24.144531 11.519531 24.144531 11.679688 24.046875 11.78125 C 24 11.824219 23.929688 11.851562 23.863281 11.855469 " fill-opacity="1" fill-rule="nonzero"/><path fill="#6f2834" d="M 27.574219 11.855469 C 27.511719 11.851562 27.449219 11.824219 27.398438 11.78125 C 27.351562 11.734375 27.324219 11.667969 27.324219 11.601562 C 27.324219 11.535156 27.351562 11.464844 27.398438 11.417969 L 29.234375 9.535156 C 29.335938 9.433594 29.496094 9.433594 29.597656 9.535156 C 29.644531 9.582031 29.671875 9.648438 29.671875 9.714844 C 29.671875 9.78125 29.644531 9.847656 29.597656 9.898438 L 27.738281 11.757812 C 27.703125 11.804688 27.644531 11.839844 27.574219 11.855469 " fill-opacity="1" fill-rule="nonzero"/></svg>