<svg xmlns="http://www.w3.org/2000/svg" xmlns:xlink="http://www.w3.org/1999/xlink" width="70" zoomAndPan="magnify" viewBox="0 0 52.5 52.499999" height="70" preserveAspectRatio="xMidYMid meet" version="1.0"><defs><clipPath id="5177626380"><path d="M 14.253906 5.855469 L 38 5.855469 L 38 45.972656 L 14.253906 45.972656 Z M 14.253906 5.855469 " clip-rule="nonzero"/></clipPath></defs><g clip-path="url(#5177626380)"><path fill="#6f2834" d="M 14.667969 34.53125 C 14.898438 37.058594 15.714844 39.421875 16.507812 41.710938 C 16.621094 42.03125 16.734375 42.359375 16.847656 42.6875 C 17.28125 43.96875 18.324219 44.945312 19.628906 45.296875 C 19.855469 45.355469 20.082031 45.414062 20.308594 45.472656 C 20.308594 45.472656 20.308594 45.472656 20.3125 45.472656 C 21.234375 45.683594 22.132812 45.847656 23.054688 45.976562 C 23.058594 45.976562 23.058594 45.976562 23.058594 45.976562 C 23.058594 45.976562 23.058594 45.976562 23.0625 45.976562 C 24.003906 46.085938 24.957031 46.113281 25.878906 46.140625 L 25.972656 46.140625 C 25.976562 46.140625 25.976562 46.140625 25.980469 46.140625 C 25.984375 46.140625 25.984375 46.140625 25.988281 46.140625 C 26.074219 46.140625 26.160156 46.136719 26.246094 46.132812 C 27.117188 46.109375 28.015625 46.082031 28.902344 45.980469 C 28.902344 45.980469 28.90625 45.980469 28.90625 45.980469 C 29.84375 45.855469 30.742188 45.695312 31.65625 45.484375 C 31.660156 45.484375 31.660156 45.484375 31.660156 45.484375 C 31.9375 45.414062 32.21875 45.339844 32.496094 45.261719 C 33.753906 44.90625 34.777344 43.964844 35.222656 42.738281 C 36.113281 40.308594 37.0625 37.429688 37.355469 34.5 C 37.355469 34.480469 37.355469 34.460938 37.351562 34.441406 C 37.617188 33.84375 37.75 33.222656 37.75 32.589844 C 37.75 31.609375 37.429688 30.660156 36.800781 29.769531 C 36.675781 29.589844 36.535156 29.414062 36.386719 29.242188 C 36.628906 28.847656 36.78125 28.417969 36.828125 27.960938 C 36.910156 27.132812 36.800781 26.375 36.503906 25.703125 C 36.265625 25.164062 35.902344 24.683594 35.429688 24.277344 C 34.839844 23.761719 34.226562 23.496094 33.933594 23.386719 C 33.921875 22.292969 33.621094 21.40625 33.042969 20.75 C 32.503906 20.132812 31.835938 19.855469 31.316406 19.730469 C 31.597656 19.113281 31.765625 18.402344 31.800781 17.664062 C 31.835938 16.867188 31.707031 16.09375 31.425781 15.4375 C 31.117188 14.707031 30.621094 14.132812 30 13.773438 C 29.09375 13.257812 28.230469 13.351562 27.394531 13.445312 C 27.230469 13.460938 27.0625 13.480469 26.894531 13.496094 C 27.121094 12.695312 27.417969 11.929688 27.789062 11.195312 C 28.292969 10.207031 28.925781 9.285156 29.679688 8.449219 C 30.960938 7.03125 32.148438 6.355469 32.167969 6.34375 C 32.285156 6.28125 32.328125 6.132812 32.261719 6.019531 C 32.199219 5.902344 32.050781 5.859375 31.9375 5.925781 C 31.886719 5.953125 30.671875 6.636719 29.335938 8.113281 C 28.554688 8.980469 27.890625 9.941406 27.367188 10.96875 C 26.953125 11.777344 26.628906 12.632812 26.390625 13.519531 C 26.347656 13.519531 26.304688 13.519531 26.261719 13.515625 C 25.898438 13.507812 25.546875 13.441406 25.203125 13.378906 C 24.589844 13.269531 23.953125 13.152344 23.230469 13.335938 C 22.347656 13.558594 21.609375 14.15625 21.105469 15.0625 C 20.777344 15.648438 20.5625 16.339844 20.484375 17.0625 C 20.410156 17.773438 20.46875 18.464844 20.660156 19.066406 C 20.765625 19.40625 20.910156 19.730469 21.089844 20.035156 C 19.976562 20.5625 19.09375 21.175781 18.457031 21.871094 C 17.585938 22.8125 17.347656 23.71875 17.300781 24.308594 C 17.28125 24.542969 17.289062 24.738281 17.308594 24.871094 C 16.894531 25.066406 15.902344 25.625 15.488281 26.695312 C 15.488281 26.695312 15.488281 26.699219 15.488281 26.699219 C 15.480469 26.714844 15.339844 27.097656 15.300781 27.625 C 15.261719 28.222656 15.375 28.773438 15.632812 29.226562 C 15.476562 29.402344 15.332031 29.585938 15.203125 29.769531 C 14.574219 30.660156 14.253906 31.609375 14.253906 32.589844 C 14.253906 33.238281 14.394531 33.871094 14.667969 34.484375 C 14.667969 34.5 14.667969 34.515625 14.667969 34.53125 Z M 19.753906 44.832031 C 18.601562 44.523438 17.6875 43.660156 17.300781 42.53125 C 17.1875 42.203125 17.074219 41.871094 16.960938 41.550781 C 16.226562 39.425781 15.464844 37.234375 15.191406 34.929688 C 16.035156 35.328125 16.933594 35.558594 17.800781 35.753906 C 17.800781 35.761719 17.800781 35.769531 17.804688 35.777344 C 17.808594 35.808594 17.8125 35.839844 17.816406 35.875 C 17.824219 35.910156 17.828125 35.945312 17.835938 35.984375 C 17.839844 36.015625 17.84375 36.046875 17.851562 36.082031 C 17.855469 36.117188 17.859375 36.152344 17.867188 36.1875 C 17.871094 36.222656 17.878906 36.253906 17.882812 36.289062 C 17.886719 36.324219 17.894531 36.359375 17.898438 36.394531 C 17.90625 36.425781 17.910156 36.460938 17.917969 36.496094 C 17.921875 36.527344 17.929688 36.5625 17.9375 36.597656 C 17.941406 36.632812 17.949219 36.667969 17.953125 36.699219 C 17.960938 36.734375 17.964844 36.769531 17.972656 36.804688 C 17.976562 36.835938 17.984375 36.871094 17.992188 36.90625 C 17.996094 36.941406 18.003906 36.972656 18.011719 37.007812 C 18.015625 37.042969 18.023438 37.074219 18.03125 37.109375 C 18.035156 37.144531 18.042969 37.179688 18.050781 37.210938 C 18.054688 37.246094 18.0625 37.28125 18.070312 37.316406 C 18.078125 37.347656 18.082031 37.382812 18.089844 37.414062 C 18.097656 37.449219 18.105469 37.484375 18.113281 37.519531 C 18.117188 37.550781 18.125 37.585938 18.132812 37.617188 C 18.140625 37.652344 18.148438 37.6875 18.15625 37.722656 C 18.160156 37.753906 18.167969 37.789062 18.175781 37.820312 C 18.183594 37.855469 18.191406 37.890625 18.199219 37.925781 C 18.207031 37.957031 18.210938 37.992188 18.21875 38.023438 C 18.226562 38.058594 18.234375 38.09375 18.242188 38.128906 C 18.25 38.160156 18.257812 38.195312 18.265625 38.226562 C 18.273438 38.261719 18.28125 38.296875 18.289062 38.328125 C 18.296875 38.363281 18.304688 38.394531 18.3125 38.429688 C 18.320312 38.460938 18.328125 38.496094 18.335938 38.53125 C 18.34375 38.5625 18.351562 38.597656 18.359375 38.628906 C 18.367188 38.664062 18.375 38.699219 18.382812 38.734375 C 18.390625 38.765625 18.398438 38.796875 18.40625 38.832031 C 18.414062 38.863281 18.421875 38.898438 18.433594 38.933594 C 18.441406 38.964844 18.449219 39 18.457031 39.03125 C 18.464844 39.066406 18.472656 39.101562 18.480469 39.136719 C 18.488281 39.167969 18.496094 39.199219 18.503906 39.230469 C 18.515625 39.265625 18.523438 39.300781 18.53125 39.335938 C 18.539062 39.367188 18.546875 39.398438 18.554688 39.429688 C 18.5625 39.464844 18.574219 39.5 18.582031 39.535156 C 18.589844 39.566406 18.597656 39.597656 18.605469 39.632812 C 18.617188 39.664062 18.625 39.699219 18.632812 39.734375 C 18.640625 39.765625 18.648438 39.796875 18.660156 39.832031 C 18.667969 39.863281 18.675781 39.898438 18.683594 39.933594 C 18.695312 39.964844 18.703125 39.996094 18.710938 40.027344 C 18.71875 40.0625 18.730469 40.097656 18.738281 40.132812 C 18.746094 40.164062 18.753906 40.195312 18.761719 40.226562 C 18.773438 40.261719 18.78125 40.296875 18.789062 40.332031 C 18.800781 40.363281 18.808594 40.394531 18.816406 40.425781 C 18.824219 40.460938 18.835938 40.492188 18.84375 40.527344 C 18.851562 40.558594 18.859375 40.589844 18.871094 40.625 C 18.878906 40.65625 18.886719 40.691406 18.898438 40.726562 C 18.90625 40.757812 18.914062 40.789062 18.921875 40.820312 C 18.933594 40.855469 18.941406 40.890625 18.953125 40.921875 C 18.960938 40.953125 18.96875 40.988281 18.976562 41.019531 C 18.988281 41.050781 18.996094 41.085938 19.003906 41.121094 C 19.015625 41.152344 19.023438 41.183594 19.03125 41.214844 C 19.042969 41.246094 19.050781 41.28125 19.058594 41.316406 C 19.070312 41.347656 19.078125 41.375 19.085938 41.40625 C 19.09375 41.441406 19.105469 41.476562 19.113281 41.511719 C 19.121094 41.539062 19.128906 41.5625 19.136719 41.589844 C 19.183594 41.757812 19.230469 41.925781 19.277344 42.09375 C 19.277344 42.101562 19.28125 42.105469 19.28125 42.109375 C 19.308594 42.203125 19.335938 42.296875 19.359375 42.390625 C 19.367188 42.414062 19.371094 42.433594 19.378906 42.453125 C 19.40625 42.554688 19.433594 42.652344 19.460938 42.753906 C 19.46875 42.773438 19.472656 42.792969 19.476562 42.8125 C 19.507812 42.914062 19.535156 43.015625 19.5625 43.117188 C 19.566406 43.136719 19.570312 43.152344 19.574219 43.167969 C 19.605469 43.273438 19.632812 43.382812 19.664062 43.488281 C 19.664062 43.492188 19.664062 43.496094 19.667969 43.5 C 19.695312 43.601562 19.722656 43.707031 19.75 43.8125 C 19.753906 43.828125 19.757812 43.84375 19.761719 43.855469 C 19.789062 43.960938 19.820312 44.0625 19.84375 44.167969 C 19.851562 44.183594 19.855469 44.203125 19.859375 44.222656 C 19.886719 44.324219 19.914062 44.429688 19.941406 44.53125 C 19.945312 44.546875 19.949219 44.566406 19.953125 44.582031 C 19.980469 44.6875 20.007812 44.796875 20.035156 44.902344 C 20.035156 44.902344 20.035156 44.90625 20.035156 44.90625 C 19.941406 44.882812 19.847656 44.855469 19.753906 44.832031 Z M 20.5625 45.039062 C 20.308594 44.003906 20.019531 42.96875 19.738281 41.964844 C 19.1875 39.984375 18.613281 37.9375 18.300781 35.851562 C 19.347656 36.039062 20.480469 36.183594 21.75 36.289062 C 21.75 36.296875 21.75 36.304688 21.75 36.3125 C 21.753906 36.402344 21.757812 36.496094 21.761719 36.589844 C 21.761719 36.597656 21.761719 36.609375 21.765625 36.617188 C 21.769531 36.710938 21.773438 36.808594 21.777344 36.902344 C 21.777344 36.90625 21.777344 36.910156 21.777344 36.914062 C 21.785156 37.011719 21.789062 37.109375 21.792969 37.207031 C 21.792969 37.210938 21.792969 37.214844 21.796875 37.21875 C 21.800781 37.3125 21.804688 37.410156 21.8125 37.503906 C 21.8125 37.511719 21.8125 37.523438 21.8125 37.53125 C 21.820312 37.621094 21.824219 37.714844 21.832031 37.804688 C 21.832031 37.816406 21.832031 37.828125 21.835938 37.839844 C 21.839844 37.929688 21.847656 38.019531 21.855469 38.109375 C 21.855469 38.125 21.855469 38.136719 21.855469 38.152344 C 21.863281 38.238281 21.871094 38.328125 21.878906 38.417969 C 21.878906 38.429688 21.878906 38.445312 21.882812 38.457031 C 21.886719 38.546875 21.894531 38.632812 21.902344 38.722656 C 21.902344 38.734375 21.90625 38.746094 21.90625 38.761719 C 21.914062 38.847656 21.921875 38.9375 21.929688 39.027344 C 21.929688 39.039062 21.933594 39.050781 21.933594 39.058594 C 21.941406 39.152344 21.949219 39.242188 21.957031 39.332031 C 21.957031 39.339844 21.960938 39.347656 21.960938 39.351562 C 21.976562 39.542969 21.996094 39.734375 22.015625 39.921875 C 22.019531 39.925781 22.019531 39.933594 22.019531 39.9375 C 22.027344 40.027344 22.039062 40.117188 22.046875 40.210938 C 22.050781 40.21875 22.050781 40.226562 22.050781 40.238281 C 22.0625 40.324219 22.070312 40.414062 22.082031 40.5 C 22.082031 40.511719 22.082031 40.523438 22.085938 40.535156 C 22.09375 40.621094 22.105469 40.707031 22.113281 40.792969 C 22.117188 40.804688 22.117188 40.816406 22.117188 40.832031 C 22.128906 40.914062 22.140625 41 22.148438 41.085938 C 22.152344 41.097656 22.152344 41.109375 22.15625 41.121094 C 22.164062 41.207031 22.175781 41.292969 22.1875 41.375 C 22.1875 41.386719 22.1875 41.398438 22.191406 41.410156 C 22.203125 41.496094 22.210938 41.582031 22.222656 41.667969 C 22.222656 41.675781 22.226562 41.683594 22.226562 41.695312 C 22.238281 41.78125 22.25 41.871094 22.261719 41.957031 C 22.261719 41.960938 22.261719 41.964844 22.261719 41.96875 C 22.273438 42.058594 22.289062 42.148438 22.300781 42.238281 C 22.300781 42.242188 22.300781 42.242188 22.300781 42.242188 C 22.3125 42.332031 22.324219 42.421875 22.335938 42.507812 C 22.339844 42.515625 22.339844 42.523438 22.339844 42.53125 C 22.351562 42.613281 22.363281 42.699219 22.375 42.78125 C 22.378906 42.792969 22.378906 42.800781 22.382812 42.8125 C 22.394531 42.894531 22.40625 42.976562 22.417969 43.058594 C 22.417969 43.070312 22.421875 43.082031 22.421875 43.09375 C 22.433594 43.171875 22.445312 43.253906 22.457031 43.332031 C 22.460938 43.34375 22.460938 43.355469 22.464844 43.371094 C 22.476562 43.449219 22.488281 43.527344 22.5 43.605469 C 22.5 43.617188 22.503906 43.628906 22.503906 43.640625 C 22.515625 43.722656 22.527344 43.800781 22.542969 43.878906 C 22.542969 43.890625 22.542969 43.898438 22.546875 43.910156 C 22.558594 43.992188 22.570312 44.070312 22.585938 44.152344 C 22.585938 44.160156 22.585938 44.164062 22.585938 44.171875 C 22.601562 44.253906 22.613281 44.339844 22.628906 44.421875 C 22.628906 44.421875 22.628906 44.421875 22.628906 44.425781 C 22.640625 44.507812 22.65625 44.59375 22.667969 44.675781 C 22.667969 44.679688 22.667969 44.683594 22.671875 44.6875 C 22.683594 44.769531 22.695312 44.847656 22.710938 44.929688 C 22.710938 44.9375 22.710938 44.945312 22.714844 44.953125 C 22.726562 45.027344 22.738281 45.105469 22.75 45.183594 C 22.753906 45.191406 22.753906 45.203125 22.757812 45.210938 C 22.769531 45.289062 22.78125 45.363281 22.792969 45.4375 C 22.796875 45.441406 22.796875 45.449219 22.796875 45.453125 C 22.046875 45.34375 21.3125 45.207031 20.5625 45.039062 Z M 22.230469 36.324219 C 23.371094 36.390625 24.523438 36.429688 25.742188 36.441406 L 25.742188 45.65625 C 24.902344 45.632812 24.105469 45.605469 23.296875 45.519531 C 22.839844 42.824219 22.367188 39.648438 22.230469 36.324219 Z M 29.144531 43.070312 C 29.140625 43.109375 29.132812 43.144531 29.128906 43.183594 C 29.117188 43.242188 29.109375 43.300781 29.097656 43.359375 C 29.089844 43.398438 29.085938 43.4375 29.078125 43.476562 C 29.066406 43.53125 29.058594 43.585938 29.046875 43.644531 C 29.042969 43.683594 29.035156 43.722656 29.027344 43.761719 C 29.015625 43.816406 29.007812 43.871094 28.996094 43.925781 C 28.988281 43.96875 28.980469 44.007812 28.972656 44.050781 C 28.964844 44.101562 28.953125 44.15625 28.945312 44.210938 C 28.9375 44.25 28.929688 44.292969 28.921875 44.335938 C 28.910156 44.386719 28.902344 44.441406 28.890625 44.492188 C 28.882812 44.535156 28.875 44.578125 28.867188 44.617188 C 28.855469 44.671875 28.84375 44.722656 28.835938 44.773438 C 28.828125 44.816406 28.816406 44.859375 28.808594 44.902344 C 28.796875 44.953125 28.789062 45.003906 28.777344 45.054688 C 28.769531 45.097656 28.761719 45.140625 28.75 45.183594 C 28.742188 45.230469 28.730469 45.28125 28.71875 45.332031 C 28.710938 45.375 28.699219 45.417969 28.691406 45.460938 C 28.6875 45.480469 28.683594 45.503906 28.679688 45.523438 C 27.863281 45.605469 27.035156 45.628906 26.234375 45.652344 C 26.230469 45.652344 26.226562 45.65625 26.222656 45.65625 L 26.222656 36.4375 C 27.398438 36.425781 28.589844 36.367188 29.851562 36.269531 C 29.847656 36.28125 29.847656 36.289062 29.847656 36.296875 C 29.847656 36.34375 29.84375 36.390625 29.839844 36.4375 C 29.839844 36.496094 29.835938 36.554688 29.832031 36.617188 C 29.828125 36.664062 29.828125 36.710938 29.824219 36.757812 C 29.820312 36.816406 29.816406 36.875 29.816406 36.933594 C 29.8125 36.980469 29.808594 37.027344 29.808594 37.074219 C 29.804688 37.128906 29.800781 37.1875 29.796875 37.246094 C 29.792969 37.292969 29.789062 37.339844 29.789062 37.386719 C 29.785156 37.445312 29.78125 37.503906 29.777344 37.558594 C 29.773438 37.605469 29.769531 37.652344 29.765625 37.699219 C 29.761719 37.757812 29.757812 37.816406 29.753906 37.871094 C 29.75 37.917969 29.746094 37.964844 29.742188 38.007812 C 29.738281 38.066406 29.734375 38.125 29.730469 38.183594 C 29.726562 38.226562 29.722656 38.273438 29.71875 38.316406 C 29.714844 38.375 29.710938 38.433594 29.707031 38.492188 C 29.703125 38.535156 29.699219 38.582031 29.695312 38.625 C 29.691406 38.683594 29.683594 38.742188 29.679688 38.796875 C 29.675781 38.84375 29.671875 38.886719 29.667969 38.929688 C 29.664062 38.988281 29.660156 39.046875 29.652344 39.105469 C 29.648438 39.148438 29.644531 39.191406 29.640625 39.234375 C 29.636719 39.292969 29.628906 39.351562 29.625 39.410156 C 29.621094 39.453125 29.617188 39.496094 29.613281 39.539062 C 29.605469 39.597656 29.601562 39.65625 29.59375 39.714844 C 29.589844 39.757812 29.585938 39.796875 29.582031 39.839844 C 29.574219 39.898438 29.566406 39.960938 29.5625 40.019531 C 29.558594 40.058594 29.554688 40.097656 29.546875 40.136719 C 29.542969 40.199219 29.535156 40.261719 29.527344 40.324219 C 29.523438 40.359375 29.519531 40.398438 29.515625 40.4375 C 29.507812 40.5 29.5 40.5625 29.492188 40.628906 C 29.488281 40.664062 29.484375 40.699219 29.480469 40.734375 C 29.472656 40.800781 29.464844 40.867188 29.457031 40.9375 C 29.453125 40.96875 29.449219 41 29.445312 41.03125 C 29.433594 41.105469 29.425781 41.179688 29.414062 41.253906 C 29.410156 41.277344 29.410156 41.300781 29.40625 41.324219 C 29.394531 41.417969 29.378906 41.511719 29.367188 41.605469 C 29.367188 41.609375 29.367188 41.613281 29.367188 41.617188 C 29.339844 41.816406 29.3125 42.011719 29.28125 42.207031 C 29.277344 42.226562 29.277344 42.246094 29.273438 42.265625 C 29.261719 42.34375 29.25 42.421875 29.238281 42.496094 C 29.234375 42.527344 29.230469 42.554688 29.222656 42.585938 C 29.214844 42.652344 29.203125 42.71875 29.191406 42.785156 C 29.1875 42.820312 29.183594 42.855469 29.175781 42.886719 C 29.167969 42.949219 29.15625 43.011719 29.144531 43.070312 Z M 31.914062 43.519531 C 31.898438 43.574219 31.878906 43.628906 31.863281 43.679688 C 31.847656 43.726562 31.835938 43.769531 31.820312 43.8125 C 31.804688 43.867188 31.785156 43.917969 31.769531 43.96875 C 31.753906 44.015625 31.742188 44.058594 31.726562 44.101562 C 31.710938 44.15625 31.691406 44.207031 31.675781 44.257812 C 31.660156 44.304688 31.648438 44.347656 31.632812 44.390625 C 31.613281 44.441406 31.597656 44.496094 31.582031 44.546875 C 31.566406 44.589844 31.550781 44.632812 31.539062 44.679688 C 31.519531 44.730469 31.503906 44.78125 31.488281 44.832031 C 31.472656 44.875 31.457031 44.921875 31.441406 44.964844 C 31.433594 44.992188 31.425781 45.019531 31.417969 45.046875 C 30.675781 45.214844 29.941406 45.347656 29.183594 45.457031 C 29.800781 42.5625 30.179688 39.535156 30.332031 36.226562 C 31.652344 36.097656 32.828125 35.9375 33.914062 35.738281 C 33.902344 35.816406 33.886719 35.894531 33.875 35.976562 C 33.871094 35.996094 33.867188 36.015625 33.863281 36.035156 C 33.847656 36.136719 33.828125 36.242188 33.808594 36.34375 C 33.804688 36.371094 33.796875 36.402344 33.792969 36.429688 C 33.78125 36.503906 33.765625 36.578125 33.75 36.652344 C 33.742188 36.691406 33.734375 36.730469 33.726562 36.769531 C 33.714844 36.832031 33.703125 36.894531 33.691406 36.960938 C 33.683594 37.003906 33.671875 37.046875 33.664062 37.089844 C 33.652344 37.148438 33.640625 37.207031 33.628906 37.265625 C 33.617188 37.3125 33.609375 37.355469 33.597656 37.402344 C 33.585938 37.457031 33.574219 37.515625 33.5625 37.574219 C 33.550781 37.617188 33.542969 37.664062 33.53125 37.710938 C 33.519531 37.765625 33.507812 37.824219 33.496094 37.878906 C 33.484375 37.925781 33.472656 37.972656 33.464844 38.019531 C 33.449219 38.074219 33.4375 38.128906 33.425781 38.183594 C 33.414062 38.230469 33.402344 38.277344 33.390625 38.324219 C 33.378906 38.378906 33.367188 38.433594 33.355469 38.488281 C 33.34375 38.535156 33.332031 38.582031 33.320312 38.628906 C 33.304688 38.683594 33.292969 38.738281 33.28125 38.792969 C 33.269531 38.839844 33.257812 38.886719 33.246094 38.933594 C 33.230469 38.988281 33.21875 39.042969 33.203125 39.09375 C 33.191406 39.140625 33.179688 39.191406 33.167969 39.238281 C 33.15625 39.292969 33.140625 39.34375 33.128906 39.398438 C 33.113281 39.445312 33.101562 39.492188 33.089844 39.539062 C 33.074219 39.59375 33.0625 39.648438 33.046875 39.699219 C 33.035156 39.746094 33.023438 39.792969 33.011719 39.84375 C 32.996094 39.894531 32.980469 39.949219 32.96875 40 C 32.953125 40.046875 32.941406 40.09375 32.929688 40.144531 C 32.914062 40.195312 32.898438 40.25 32.882812 40.300781 C 32.871094 40.347656 32.859375 40.394531 32.84375 40.441406 C 32.832031 40.496094 32.816406 40.550781 32.800781 40.601562 C 32.789062 40.648438 32.773438 40.695312 32.761719 40.742188 C 32.746094 40.796875 32.730469 40.847656 32.714844 40.902344 C 32.703125 40.949219 32.6875 40.992188 32.675781 41.039062 C 32.660156 41.09375 32.644531 41.148438 32.628906 41.203125 C 32.613281 41.246094 32.601562 41.292969 32.589844 41.335938 C 32.574219 41.394531 32.554688 41.449219 32.539062 41.503906 C 32.527344 41.546875 32.515625 41.589844 32.5 41.632812 C 32.484375 41.691406 32.464844 41.75 32.449219 41.808594 C 32.4375 41.847656 32.425781 41.890625 32.414062 41.929688 C 32.390625 41.996094 32.371094 42.0625 32.351562 42.132812 C 32.339844 42.160156 32.332031 42.191406 32.324219 42.222656 C 32.292969 42.320312 32.261719 42.417969 32.234375 42.515625 C 32.222656 42.542969 32.214844 42.570312 32.207031 42.597656 C 32.183594 42.667969 32.164062 42.738281 32.140625 42.808594 C 32.128906 42.847656 32.117188 42.882812 32.105469 42.921875 C 32.085938 42.980469 32.066406 43.042969 32.050781 43.101562 C 32.035156 43.140625 32.023438 43.183594 32.007812 43.222656 C 31.992188 43.28125 31.972656 43.335938 31.957031 43.390625 C 31.941406 43.433594 31.929688 43.476562 31.914062 43.519531 Z M 34.773438 42.574219 C 34.378906 43.65625 33.476562 44.488281 32.363281 44.800781 C 32.234375 44.835938 32.101562 44.871094 31.96875 44.90625 C 32.9375 41.964844 33.902344 38.84375 34.417969 35.636719 C 35.230469 35.457031 36.066406 35.265625 36.828125 34.902344 C 36.492188 37.625 35.605469 40.296875 34.773438 42.574219 Z M 35.128906 24.652344 C 35.542969 25.011719 35.859375 25.4375 36.070312 25.910156 C 36.332031 26.5 36.425781 27.175781 36.347656 27.914062 C 36.261719 28.765625 35.738281 29.523438 34.871094 30.054688 C 33.402344 30.949219 31.472656 31.449219 29.773438 31.753906 C 31.148438 31.058594 32.257812 30.320312 33.078125 29.546875 C 33.136719 29.492188 33.195312 29.433594 33.25 29.378906 C 33.882812 28.746094 34.335938 28.085938 34.597656 27.40625 C 34.617188 27.347656 34.640625 27.289062 34.660156 27.230469 C 34.699219 27.109375 34.734375 26.992188 34.761719 26.871094 C 34.769531 26.84375 34.773438 26.8125 34.78125 26.78125 C 34.953125 25.96875 34.851562 25.128906 34.484375 24.347656 C 34.449219 24.265625 34.410156 24.191406 34.371094 24.121094 C 34.605469 24.25 34.871094 24.425781 35.128906 24.652344 Z M 33.957031 24.363281 C 33.957031 24.367188 33.960938 24.371094 33.960938 24.375 C 33.972656 24.390625 33.980469 24.410156 33.992188 24.429688 C 33.992188 24.433594 33.996094 24.4375 33.996094 24.441406 C 34.007812 24.457031 34.015625 24.472656 34.023438 24.488281 C 34.023438 24.496094 34.027344 24.5 34.03125 24.507812 C 34.039062 24.527344 34.046875 24.546875 34.058594 24.566406 C 34.066406 24.589844 34.078125 24.609375 34.085938 24.632812 C 34.335938 25.195312 34.425781 25.773438 34.363281 26.355469 C 34.351562 26.46875 34.332031 26.578125 34.308594 26.691406 C 34.304688 26.71875 34.296875 26.746094 34.292969 26.773438 C 34.191406 27.199219 34.003906 27.625 33.730469 28.042969 C 33.695312 28.097656 33.660156 28.148438 33.625 28.199219 C 33.386719 28.539062 33.09375 28.871094 32.746094 29.199219 C 32.710938 29.230469 32.679688 29.261719 32.644531 29.292969 C 32.636719 29.300781 32.628906 29.308594 32.621094 29.316406 C 32.59375 29.339844 32.566406 29.363281 32.539062 29.386719 C 32.527344 29.398438 32.515625 29.410156 32.503906 29.421875 C 32.480469 29.441406 32.457031 29.460938 32.429688 29.480469 C 32.417969 29.492188 32.402344 29.507812 32.386719 29.519531 C 32.367188 29.539062 32.34375 29.554688 32.320312 29.574219 C 32.304688 29.589844 32.285156 29.601562 32.269531 29.617188 C 32.25 29.632812 32.230469 29.648438 32.207031 29.667969 C 32.191406 29.679688 32.171875 29.695312 32.152344 29.710938 C 32.132812 29.726562 32.113281 29.742188 32.089844 29.757812 C 32.070312 29.773438 32.050781 29.789062 32.035156 29.804688 C 32.011719 29.820312 31.992188 29.835938 31.972656 29.851562 C 31.953125 29.867188 31.929688 29.882812 31.910156 29.898438 C 31.890625 29.914062 31.871094 29.925781 31.847656 29.941406 C 31.828125 29.957031 31.808594 29.972656 31.785156 29.988281 C 31.765625 30.003906 31.746094 30.019531 31.722656 30.035156 C 31.703125 30.050781 31.679688 30.066406 31.660156 30.078125 C 31.636719 30.09375 31.617188 30.109375 31.59375 30.125 C 31.574219 30.140625 31.550781 30.15625 31.527344 30.171875 C 31.507812 30.1875 31.484375 30.199219 31.464844 30.214844 C 31.441406 30.230469 31.417969 30.246094 31.394531 30.261719 C 31.371094 30.277344 31.351562 30.292969 31.328125 30.304688 C 31.304688 30.320312 31.28125 30.335938 31.257812 30.351562 C 31.238281 30.367188 31.214844 30.382812 31.191406 30.394531 C 31.167969 30.410156 31.144531 30.425781 31.121094 30.441406 C 31.097656 30.457031 31.074219 30.46875 31.050781 30.484375 C 31.027344 30.5 31.003906 30.515625 30.976562 30.53125 C 30.953125 30.546875 30.933594 30.558594 30.910156 30.574219 C 30.882812 30.589844 30.859375 30.605469 30.832031 30.621094 C 30.808594 30.632812 30.785156 30.648438 30.761719 30.664062 C 30.738281 30.679688 30.710938 30.691406 30.6875 30.707031 C 30.664062 30.722656 30.636719 30.738281 30.613281 30.75 C 30.589844 30.765625 30.5625 30.78125 30.535156 30.796875 C 30.511719 30.808594 30.488281 30.824219 30.464844 30.839844 C 30.4375 30.855469 30.410156 30.867188 30.382812 30.882812 C 30.359375 30.898438 30.332031 30.910156 30.308594 30.925781 C 30.28125 30.941406 30.253906 30.957031 30.226562 30.972656 C 30.203125 30.984375 30.175781 31 30.152344 31.011719 C 30.125 31.027344 30.097656 31.042969 30.066406 31.058594 C 30.042969 31.070312 30.015625 31.085938 29.992188 31.097656 C 29.960938 31.113281 29.933594 31.128906 29.90625 31.144531 C 29.878906 31.15625 29.855469 31.171875 29.828125 31.183594 C 29.800781 31.199219 29.769531 31.214844 29.742188 31.230469 C 29.714844 31.242188 29.6875 31.257812 29.660156 31.269531 C 29.632812 31.285156 29.605469 31.300781 29.574219 31.3125 C 29.546875 31.328125 29.519531 31.34375 29.492188 31.355469 C 29.464844 31.371094 29.433594 31.386719 29.40625 31.398438 C 29.375 31.414062 29.347656 31.425781 29.320312 31.441406 C 29.292969 31.457031 29.261719 31.46875 29.234375 31.484375 C 29.203125 31.496094 29.175781 31.511719 29.144531 31.527344 C 29.117188 31.539062 29.085938 31.554688 29.058594 31.566406 C 29.027344 31.582031 29 31.59375 28.96875 31.609375 C 28.9375 31.625 28.910156 31.636719 28.878906 31.652344 C 28.847656 31.664062 28.820312 31.679688 28.789062 31.691406 C 28.757812 31.707031 28.726562 31.71875 28.699219 31.734375 C 28.667969 31.746094 28.636719 31.761719 28.605469 31.777344 C 28.574219 31.789062 28.542969 31.804688 28.515625 31.816406 C 28.484375 31.832031 28.449219 31.84375 28.417969 31.859375 C 28.390625 31.871094 28.359375 31.886719 28.328125 31.898438 C 28.296875 31.914062 28.261719 31.925781 28.230469 31.941406 C 28.199219 31.953125 28.167969 31.964844 28.140625 31.980469 C 28.109375 31.992188 28.082031 32.003906 28.054688 32.015625 C 25.394531 32.363281 22.628906 32.300781 19.824219 31.832031 C 19.152344 31.71875 18.519531 31.519531 17.941406 31.246094 C 17.375 30.976562 16.988281 30.699219 16.722656 30.4375 C 17.234375 30.671875 17.917969 30.816406 18.769531 30.863281 C 18.96875 30.875 19.175781 30.878906 19.390625 30.878906 C 20.691406 30.878906 22.308594 30.683594 24.210938 30.300781 C 24.410156 30.261719 24.609375 30.21875 24.8125 30.175781 C 25.191406 30.09375 25.5625 30.007812 25.921875 29.917969 C 27.863281 29.425781 29.484375 28.8125 30.746094 28.089844 C 31.675781 27.558594 32.414062 26.96875 32.949219 26.328125 C 32.972656 26.304688 32.992188 26.277344 33.015625 26.25 C 33.078125 26.175781 33.136719 26.097656 33.191406 26.015625 C 33.25 25.9375 33.304688 25.859375 33.355469 25.777344 C 33.714844 25.214844 33.867188 24.703125 33.929688 24.308594 C 33.929688 24.3125 33.929688 24.316406 33.933594 24.320312 C 33.941406 24.332031 33.949219 24.347656 33.957031 24.363281 Z M 32.683594 21.066406 C 33.207031 21.660156 33.464844 22.492188 33.457031 23.539062 C 33.453125 23.554688 33.453125 23.566406 33.457031 23.582031 C 33.457031 23.585938 33.457031 23.589844 33.457031 23.59375 C 33.457031 23.601562 33.460938 23.605469 33.460938 23.613281 C 33.464844 23.621094 33.488281 23.757812 33.480469 23.984375 C 33.480469 23.988281 33.480469 23.988281 33.480469 23.992188 C 33.476562 24.007812 33.476562 24.023438 33.476562 24.039062 C 33.476562 24.042969 33.476562 24.046875 33.476562 24.046875 C 33.472656 24.085938 33.46875 24.125 33.464844 24.164062 C 33.460938 24.175781 33.460938 24.183594 33.460938 24.195312 C 33.425781 24.433594 33.347656 24.769531 33.15625 25.15625 C 33.140625 25.179688 33.128906 25.207031 33.117188 25.234375 C 33.105469 25.25 33.097656 25.265625 33.089844 25.285156 C 33.070312 25.316406 33.050781 25.351562 33.03125 25.386719 C 33 25.4375 32.96875 25.492188 32.933594 25.546875 C 32.855469 25.667969 32.769531 25.789062 32.671875 25.90625 C 32.164062 26.550781 31.429688 27.148438 30.484375 27.6875 C 30.257812 27.816406 30.019531 27.941406 29.769531 28.0625 C 29.667969 28.113281 29.566406 28.160156 29.460938 28.207031 C 29.359375 28.253906 29.25 28.300781 29.144531 28.347656 C 29.035156 28.394531 28.925781 28.441406 28.816406 28.488281 C 28.703125 28.53125 28.589844 28.578125 28.476562 28.621094 C 27.957031 28.816406 27.402344 29.003906 26.8125 29.175781 C 26.679688 29.214844 26.546875 29.253906 26.410156 29.289062 C 26.210938 29.347656 26.003906 29.402344 25.792969 29.453125 C 25.441406 29.542969 25.082031 29.625 24.710938 29.707031 C 24.640625 29.722656 24.574219 29.734375 24.503906 29.75 C 24.496094 29.753906 24.484375 29.753906 24.472656 29.757812 C 24.410156 29.769531 24.347656 29.785156 24.28125 29.796875 C 24.269531 29.800781 24.257812 29.800781 24.242188 29.804688 C 24.179688 29.816406 24.121094 29.828125 24.058594 29.84375 C 24.042969 29.84375 24.03125 29.847656 24.019531 29.851562 C 23.957031 29.863281 23.898438 29.875 23.835938 29.886719 C 23.824219 29.886719 23.8125 29.890625 23.800781 29.890625 C 23.75 29.902344 23.699219 29.914062 23.644531 29.921875 C 23.628906 29.925781 23.613281 29.929688 23.597656 29.933594 C 23.542969 29.941406 23.492188 29.953125 23.4375 29.960938 C 23.417969 29.964844 23.394531 29.96875 23.371094 29.972656 C 23.324219 29.980469 23.277344 29.992188 23.230469 30 C 23.203125 30.003906 23.175781 30.007812 23.148438 30.011719 C 23.113281 30.019531 23.078125 30.027344 23.042969 30.03125 C 23.003906 30.039062 22.960938 30.046875 22.921875 30.050781 C 22.90625 30.054688 22.890625 30.058594 22.875 30.058594 C 22.8125 30.070312 22.753906 30.082031 22.695312 30.089844 C 22.691406 30.089844 22.683594 30.089844 22.679688 30.09375 C 20.304688 30.476562 18.804688 30.449219 17.859375 30.277344 C 17.855469 30.277344 17.855469 30.277344 17.855469 30.277344 C 17.839844 30.273438 17.828125 30.273438 17.816406 30.269531 C 17.800781 30.265625 17.785156 30.265625 17.769531 30.261719 C 17.757812 30.257812 17.75 30.257812 17.738281 30.253906 C 17.726562 30.25 17.710938 30.25 17.699219 30.246094 C 17.6875 30.242188 17.675781 30.242188 17.664062 30.238281 C 17.652344 30.234375 17.640625 30.234375 17.628906 30.230469 C 17.613281 30.226562 17.597656 30.222656 17.585938 30.21875 C 17.574219 30.21875 17.566406 30.214844 17.554688 30.214844 C 17.539062 30.210938 17.523438 30.207031 17.503906 30.199219 C 17.5 30.199219 17.496094 30.199219 17.488281 30.195312 C 17.46875 30.191406 17.449219 30.1875 17.425781 30.179688 C 17.171875 30.109375 16.96875 30.027344 16.8125 29.945312 C 16.8125 29.941406 16.808594 29.941406 16.804688 29.9375 C 16.789062 29.929688 16.777344 29.921875 16.761719 29.914062 C 16.75 29.910156 16.738281 29.902344 16.726562 29.894531 C 16.722656 29.890625 16.714844 29.886719 16.710938 29.882812 C 16.695312 29.875 16.679688 29.867188 16.664062 29.855469 C 16.660156 29.855469 16.660156 29.851562 16.65625 29.851562 C 16.640625 29.839844 16.625 29.828125 16.605469 29.816406 C 16.609375 29.816406 16.613281 29.816406 16.617188 29.820312 C 16.628906 29.820312 16.636719 29.824219 16.644531 29.824219 C 16.660156 29.828125 16.675781 29.832031 16.695312 29.835938 C 16.703125 29.835938 16.710938 29.839844 16.71875 29.839844 C 16.738281 29.84375 16.757812 29.847656 16.777344 29.851562 C 16.785156 29.855469 16.789062 29.855469 16.796875 29.855469 C 16.820312 29.863281 16.84375 29.867188 16.871094 29.871094 C 16.878906 29.871094 16.886719 29.871094 16.894531 29.875 C 16.910156 29.878906 16.929688 29.878906 16.949219 29.882812 C 16.957031 29.882812 16.964844 29.886719 16.976562 29.886719 C 16.992188 29.890625 17.011719 29.890625 17.027344 29.894531 C 17.039062 29.894531 17.046875 29.898438 17.054688 29.898438 C 17.078125 29.902344 17.101562 29.902344 17.125 29.90625 C 17.128906 29.90625 17.128906 29.90625 17.132812 29.90625 C 17.160156 29.910156 17.1875 29.914062 17.210938 29.914062 C 17.222656 29.914062 17.230469 29.917969 17.238281 29.917969 C 17.257812 29.917969 17.277344 29.921875 17.292969 29.921875 C 17.304688 29.921875 17.316406 29.921875 17.324219 29.925781 C 17.34375 29.925781 17.363281 29.925781 17.378906 29.925781 C 17.390625 29.929688 17.398438 29.929688 17.40625 29.929688 C 17.433594 29.929688 17.460938 29.929688 17.488281 29.933594 C 17.492188 29.933594 17.5 29.933594 17.503906 29.933594 C 17.527344 29.933594 17.550781 29.933594 17.574219 29.933594 C 17.582031 29.933594 17.59375 29.933594 17.601562 29.933594 C 17.621094 29.933594 17.640625 29.9375 17.660156 29.9375 C 17.664062 29.9375 17.671875 29.9375 17.675781 29.9375 C 17.683594 29.9375 17.6875 29.9375 17.691406 29.9375 C 17.703125 29.9375 17.714844 29.9375 17.730469 29.933594 C 17.742188 29.933594 17.753906 29.933594 17.769531 29.933594 C 17.78125 29.933594 17.792969 29.933594 17.804688 29.933594 C 17.816406 29.933594 17.832031 29.933594 17.84375 29.933594 C 17.855469 29.933594 17.867188 29.933594 17.882812 29.933594 C 17.894531 29.929688 17.90625 29.929688 17.921875 29.929688 C 17.933594 29.929688 17.945312 29.929688 17.957031 29.929688 C 17.972656 29.929688 17.984375 29.925781 18 29.925781 C 18.011719 29.925781 18.023438 29.925781 18.039062 29.925781 C 18.050781 29.921875 18.0625 29.921875 18.078125 29.921875 C 18.089844 29.921875 18.101562 29.921875 18.117188 29.917969 C 18.128906 29.917969 18.144531 29.917969 18.15625 29.917969 C 18.167969 29.914062 18.183594 29.914062 18.195312 29.914062 C 18.210938 29.910156 18.222656 29.910156 18.234375 29.910156 C 18.25 29.910156 18.261719 29.90625 18.277344 29.90625 C 18.289062 29.902344 18.304688 29.902344 18.316406 29.902344 C 18.332031 29.898438 18.34375 29.898438 18.359375 29.898438 C 18.371094 29.894531 18.386719 29.894531 18.398438 29.894531 C 18.414062 29.890625 18.425781 29.890625 18.441406 29.886719 C 18.453125 29.886719 18.46875 29.882812 18.480469 29.882812 C 18.496094 29.882812 18.511719 29.878906 18.523438 29.878906 C 18.539062 29.875 18.550781 29.875 18.5625 29.871094 C 18.578125 29.871094 18.59375 29.867188 18.609375 29.867188 C 18.621094 29.863281 18.636719 29.863281 18.648438 29.859375 C 18.664062 29.859375 18.679688 29.855469 18.695312 29.851562 C 18.707031 29.851562 18.71875 29.847656 18.734375 29.847656 C 18.75 29.84375 18.765625 29.84375 18.785156 29.839844 C 18.796875 29.835938 18.804688 29.835938 18.816406 29.832031 C 18.835938 29.832031 18.855469 29.828125 18.875 29.824219 C 18.886719 29.820312 18.894531 29.820312 18.90625 29.820312 C 18.933594 29.8125 18.960938 29.808594 18.988281 29.804688 C 18.992188 29.804688 18.992188 29.804688 18.992188 29.804688 C 19.300781 29.746094 19.605469 29.671875 19.902344 29.589844 C 20.011719 29.5625 20.117188 29.53125 20.222656 29.5 C 20.292969 29.480469 20.359375 29.460938 20.429688 29.4375 C 20.464844 29.429688 20.5 29.417969 20.535156 29.40625 C 20.878906 29.300781 21.210938 29.1875 21.523438 29.082031 L 21.53125 29.082031 C 22.339844 28.804688 23.101562 28.523438 23.820312 28.226562 C 24.058594 28.125 24.296875 28.027344 24.523438 27.925781 C 25.570312 27.464844 26.519531 26.972656 27.390625 26.445312 C 29.558594 25.125 30.871094 23.71875 31.28125 22.261719 C 31.367188 21.96875 31.402344 21.667969 31.386719 21.375 C 31.386719 21.355469 31.386719 21.335938 31.382812 21.316406 C 31.378906 21.265625 31.375 21.214844 31.367188 21.164062 C 31.363281 21.113281 31.351562 21.0625 31.34375 21.011719 C 31.339844 20.988281 31.332031 20.960938 31.328125 20.9375 C 31.324219 20.929688 31.324219 20.921875 31.324219 20.914062 C 31.316406 20.898438 31.3125 20.878906 31.308594 20.859375 C 31.304688 20.851562 31.304688 20.847656 31.304688 20.839844 C 31.296875 20.816406 31.289062 20.792969 31.28125 20.769531 C 31.28125 20.765625 31.28125 20.757812 31.277344 20.753906 C 31.273438 20.734375 31.265625 20.714844 31.257812 20.699219 C 31.257812 20.691406 31.253906 20.683594 31.25 20.675781 C 31.242188 20.65625 31.238281 20.636719 31.230469 20.617188 C 31.226562 20.613281 31.226562 20.609375 31.226562 20.605469 C 31.214844 20.585938 31.207031 20.5625 31.195312 20.539062 C 31.195312 20.535156 31.191406 20.527344 31.1875 20.523438 C 31.179688 20.503906 31.171875 20.488281 31.164062 20.472656 C 31.160156 20.464844 31.160156 20.460938 31.15625 20.453125 C 31.144531 20.433594 31.132812 20.410156 31.121094 20.390625 C 31.121094 20.386719 31.121094 20.386719 31.117188 20.382812 C 31.109375 20.363281 31.097656 20.347656 31.085938 20.328125 C 31.082031 20.320312 31.078125 20.316406 31.074219 20.308594 C 31.066406 20.292969 31.054688 20.277344 31.046875 20.261719 C 31.042969 20.257812 31.039062 20.253906 31.035156 20.25 C 31.035156 20.246094 31.035156 20.246094 31.035156 20.246094 C 31.050781 20.222656 31.066406 20.195312 31.082031 20.171875 C 31.542969 20.261719 32.179688 20.492188 32.683594 21.066406 Z M 20.964844 17.113281 C 21.035156 16.457031 21.226562 15.828125 21.523438 15.296875 C 21.832031 14.746094 22.394531 14.042969 23.351562 13.800781 C 23.578125 13.742188 23.800781 13.71875 24.015625 13.71875 C 24.386719 13.71875 24.746094 13.785156 25.117188 13.851562 C 25.476562 13.917969 25.847656 13.988281 26.246094 13.996094 C 26.257812 13.996094 26.265625 13.996094 26.273438 13.996094 C 26.191406 14.363281 26.121094 14.734375 26.070312 15.109375 C 26.066406 15.117188 26.066406 15.121094 26.066406 15.125 C 25.996094 15.117188 25.921875 15.101562 25.847656 15.085938 C 25.367188 14.984375 25.027344 14.789062 25.027344 14.785156 C 24.910156 14.71875 24.765625 14.757812 24.695312 14.871094 C 24.628906 14.984375 24.667969 15.132812 24.78125 15.199219 C 24.796875 15.207031 25.175781 15.433594 25.730469 15.554688 C 25.960938 15.601562 26.1875 15.628906 26.40625 15.628906 C 26.898438 15.628906 27.363281 15.503906 27.773438 15.257812 C 27.886719 15.1875 27.925781 15.039062 27.855469 14.925781 C 27.789062 14.8125 27.640625 14.777344 27.527344 14.84375 C 27.226562 15.023438 26.902344 15.125 26.550781 15.144531 C 26.605469 14.753906 26.679688 14.367188 26.769531 13.984375 C 27 13.96875 27.226562 13.945312 27.445312 13.921875 C 28.273438 13.832031 28.992188 13.75 29.761719 14.191406 C 30.300781 14.5 30.710938 14.984375 30.984375 15.625 C 31.238281 16.21875 31.351562 16.914062 31.320312 17.644531 C 31.28125 18.550781 31.015625 19.410156 30.578125 20.066406 C 30.570312 20.082031 30.5625 20.097656 30.554688 20.113281 C 29 20.4375 28.457031 20.796875 27.574219 21.382812 C 27.242188 21.601562 26.863281 21.851562 26.359375 22.148438 C 26.304688 22.179688 26.195312 22.160156 26.085938 22.148438 C 26.015625 22.136719 25.945312 22.125 25.871094 22.125 C 24.828125 22.097656 23.796875 21.789062 22.960938 21.257812 C 22.054688 20.683594 21.417969 19.875 21.117188 18.925781 C 20.949219 18.382812 20.894531 17.757812 20.964844 17.113281 Z M 22.964844 23.863281 C 22.9375 23.871094 22.90625 23.882812 22.878906 23.890625 C 22.855469 23.898438 22.832031 23.90625 22.808594 23.914062 C 22.78125 23.921875 22.753906 23.929688 22.722656 23.941406 C 22.699219 23.945312 22.675781 23.953125 22.652344 23.960938 C 22.625 23.96875 22.597656 23.980469 22.570312 23.988281 C 22.546875 23.996094 22.519531 24 22.496094 24.007812 C 22.46875 24.015625 22.441406 24.023438 22.414062 24.03125 C 22.390625 24.039062 22.363281 24.046875 22.339844 24.054688 C 22.3125 24.0625 22.285156 24.070312 22.257812 24.078125 C 22.230469 24.085938 22.207031 24.089844 22.183594 24.097656 C 22.152344 24.105469 22.125 24.113281 22.097656 24.121094 C 22.074219 24.128906 22.046875 24.132812 22.023438 24.140625 C 21.996094 24.148438 21.96875 24.15625 21.9375 24.164062 C 21.914062 24.167969 21.890625 24.175781 21.863281 24.183594 C 21.835938 24.1875 21.808594 24.195312 21.777344 24.203125 C 21.753906 24.210938 21.730469 24.214844 21.703125 24.222656 C 21.675781 24.230469 21.644531 24.234375 21.617188 24.242188 C 21.59375 24.25 21.566406 24.253906 21.542969 24.261719 C 21.511719 24.265625 21.484375 24.273438 21.457031 24.28125 C 21.429688 24.285156 21.40625 24.292969 21.378906 24.296875 C 21.351562 24.304688 21.320312 24.3125 21.292969 24.316406 C 21.265625 24.324219 21.242188 24.328125 21.214844 24.335938 C 21.1875 24.339844 21.15625 24.347656 21.128906 24.351562 C 21.101562 24.359375 21.078125 24.363281 21.050781 24.367188 C 21.023438 24.375 20.992188 24.378906 20.964844 24.386719 C 20.9375 24.390625 20.914062 24.398438 20.886719 24.402344 C 20.855469 24.40625 20.828125 24.414062 20.796875 24.417969 C 20.773438 24.425781 20.746094 24.429688 20.71875 24.433594 C 20.691406 24.441406 20.660156 24.445312 20.628906 24.449219 C 20.605469 24.457031 20.578125 24.460938 20.554688 24.464844 C 20.523438 24.46875 20.492188 24.476562 20.460938 24.480469 C 20.4375 24.484375 20.410156 24.488281 20.386719 24.492188 C 20.355469 24.5 20.324219 24.503906 20.292969 24.507812 C 20.269531 24.511719 20.242188 24.519531 20.21875 24.523438 C 20.1875 24.527344 20.15625 24.53125 20.125 24.535156 C 20.097656 24.539062 20.074219 24.542969 20.046875 24.546875 C 20.015625 24.554688 19.984375 24.558594 19.953125 24.5625 C 19.925781 24.566406 19.902344 24.570312 19.875 24.574219 C 19.84375 24.578125 19.8125 24.582031 19.78125 24.585938 C 19.753906 24.589844 19.730469 24.59375 19.707031 24.597656 C 19.671875 24.601562 19.640625 24.605469 19.605469 24.609375 C 19.582031 24.613281 19.558594 24.617188 19.53125 24.621094 C 19.5 24.625 19.464844 24.628906 19.433594 24.632812 C 19.40625 24.636719 19.382812 24.636719 19.359375 24.640625 C 19.324219 24.644531 19.289062 24.648438 19.253906 24.652344 C 19.230469 24.65625 19.207031 24.660156 19.1875 24.660156 C 19.148438 24.664062 19.113281 24.667969 19.074219 24.671875 C 19.054688 24.675781 19.03125 24.675781 19.011719 24.679688 C 18.96875 24.683594 18.929688 24.6875 18.886719 24.691406 C 18.871094 24.691406 18.851562 24.695312 18.835938 24.695312 C 18.777344 24.703125 18.722656 24.707031 18.664062 24.710938 C 18.660156 24.710938 18.660156 24.710938 18.660156 24.710938 C 18.597656 24.71875 18.539062 24.722656 18.480469 24.726562 C 18.464844 24.726562 18.449219 24.730469 18.429688 24.730469 C 18.386719 24.734375 18.347656 24.738281 18.304688 24.738281 C 18.28125 24.742188 18.257812 24.742188 18.234375 24.742188 C 18.199219 24.746094 18.160156 24.75 18.125 24.75 C 18.097656 24.753906 18.074219 24.753906 18.046875 24.753906 C 18.015625 24.757812 17.980469 24.757812 17.945312 24.761719 C 17.917969 24.761719 17.890625 24.765625 17.863281 24.765625 C 17.835938 24.765625 17.808594 24.769531 17.777344 24.769531 C 17.773438 24.699219 17.765625 24.605469 17.769531 24.5 C 20.050781 23.671875 21.941406 22.851562 23.421875 22.050781 C 24.160156 22.382812 24.980469 22.574219 25.808594 22.601562 C 25.804688 22.605469 25.800781 22.609375 25.796875 22.609375 C 25.777344 22.621094 25.761719 22.628906 25.746094 22.640625 C 25.726562 22.648438 25.707031 22.660156 25.6875 22.671875 C 25.671875 22.679688 25.65625 22.691406 25.640625 22.699219 C 25.621094 22.710938 25.601562 22.722656 25.582031 22.730469 C 25.566406 22.742188 25.546875 22.75 25.53125 22.757812 C 25.511719 22.769531 25.492188 22.78125 25.472656 22.789062 C 25.457031 22.800781 25.441406 22.808594 25.421875 22.816406 C 25.402344 22.828125 25.382812 22.839844 25.363281 22.847656 C 25.347656 22.859375 25.332031 22.867188 25.3125 22.875 C 25.292969 22.886719 25.273438 22.894531 25.253906 22.90625 C 25.238281 22.914062 25.222656 22.925781 25.203125 22.933594 C 25.183594 22.941406 25.164062 22.953125 25.144531 22.964844 C 25.128906 22.972656 25.109375 22.980469 25.09375 22.988281 C 25.074219 23 25.054688 23.007812 25.035156 23.019531 C 25.015625 23.027344 25 23.035156 24.980469 23.042969 C 24.960938 23.054688 24.941406 23.066406 24.921875 23.074219 C 24.902344 23.082031 24.886719 23.089844 24.871094 23.097656 C 24.847656 23.109375 24.828125 23.117188 24.808594 23.128906 C 24.792969 23.136719 24.773438 23.144531 24.757812 23.152344 C 24.734375 23.164062 24.714844 23.171875 24.695312 23.183594 C 24.675781 23.191406 24.660156 23.199219 24.640625 23.207031 C 24.621094 23.214844 24.601562 23.226562 24.582031 23.234375 C 24.5625 23.242188 24.546875 23.25 24.527344 23.257812 C 24.507812 23.269531 24.488281 23.277344 24.464844 23.285156 C 24.449219 23.292969 24.429688 23.300781 24.414062 23.308594 C 24.390625 23.320312 24.371094 23.328125 24.351562 23.335938 C 24.332031 23.34375 24.3125 23.351562 24.296875 23.359375 C 24.277344 23.371094 24.253906 23.378906 24.234375 23.386719 C 24.214844 23.394531 24.199219 23.402344 24.179688 23.410156 C 24.160156 23.417969 24.136719 23.429688 24.117188 23.4375 C 24.097656 23.445312 24.078125 23.453125 24.0625 23.460938 C 24.039062 23.46875 24.019531 23.476562 24 23.484375 C 23.980469 23.492188 23.960938 23.5 23.941406 23.507812 C 23.921875 23.515625 23.902344 23.523438 23.878906 23.53125 C 23.863281 23.539062 23.84375 23.546875 23.824219 23.554688 C 23.804688 23.5625 23.78125 23.570312 23.761719 23.578125 C 23.742188 23.585938 23.722656 23.59375 23.703125 23.601562 C 23.683594 23.609375 23.660156 23.617188 23.640625 23.625 C 23.621094 23.632812 23.601562 23.640625 23.582031 23.648438 C 23.5625 23.65625 23.542969 23.664062 23.519531 23.671875 C 23.5 23.675781 23.480469 23.683594 23.460938 23.691406 C 23.441406 23.699219 23.421875 23.707031 23.398438 23.714844 C 23.378906 23.722656 23.359375 23.726562 23.339844 23.734375 C 23.320312 23.742188 23.296875 23.75 23.277344 23.757812 C 23.257812 23.765625 23.238281 23.769531 23.21875 23.777344 C 23.195312 23.785156 23.175781 23.792969 23.152344 23.800781 C 23.132812 23.804688 23.113281 23.8125 23.09375 23.820312 C 23.074219 23.828125 23.054688 23.835938 23.03125 23.839844 C 23.007812 23.847656 22.988281 23.855469 22.964844 23.863281 Z M 18.808594 22.195312 C 19.417969 21.53125 20.273438 20.945312 21.363281 20.4375 C 21.714844 20.910156 22.167969 21.324219 22.703125 21.664062 C 22.765625 21.707031 22.832031 21.746094 22.902344 21.785156 C 22.890625 21.789062 22.882812 21.792969 22.875 21.796875 C 22.851562 21.808594 22.828125 21.824219 22.804688 21.835938 C 22.796875 21.839844 22.789062 21.839844 22.785156 21.84375 C 22.660156 21.910156 22.53125 21.976562 22.398438 22.039062 C 22.390625 22.042969 22.386719 22.046875 22.378906 22.050781 C 22.351562 22.0625 22.324219 22.078125 22.296875 22.089844 C 22.289062 22.09375 22.277344 22.101562 22.265625 22.105469 C 22.242188 22.117188 22.21875 22.128906 22.191406 22.140625 C 22.179688 22.148438 22.167969 22.15625 22.15625 22.160156 C 22.128906 22.171875 22.105469 22.183594 22.082031 22.195312 C 22.070312 22.203125 22.054688 22.207031 22.042969 22.214844 C 22.015625 22.226562 21.992188 22.238281 21.96875 22.25 C 21.953125 22.257812 21.941406 22.261719 21.925781 22.269531 C 21.902344 22.28125 21.878906 22.292969 21.855469 22.304688 C 21.839844 22.3125 21.824219 22.316406 21.8125 22.324219 C 21.785156 22.335938 21.761719 22.347656 21.738281 22.359375 C 21.722656 22.367188 21.707031 22.375 21.691406 22.378906 C 21.667969 22.390625 21.644531 22.402344 21.621094 22.414062 C 21.605469 22.421875 21.589844 22.429688 21.574219 22.433594 C 21.550781 22.445312 21.527344 22.457031 21.503906 22.46875 C 21.488281 22.476562 21.472656 22.484375 21.453125 22.492188 C 21.429688 22.5 21.40625 22.511719 21.382812 22.523438 C 21.367188 22.53125 21.351562 22.539062 21.332031 22.546875 C 21.308594 22.554688 21.285156 22.566406 21.261719 22.578125 C 21.246094 22.585938 21.226562 22.59375 21.210938 22.601562 C 21.1875 22.613281 21.164062 22.621094 21.136719 22.632812 C 21.121094 22.640625 21.105469 22.648438 21.085938 22.65625 C 21.0625 22.667969 21.039062 22.679688 21.015625 22.6875 C 20.996094 22.695312 20.980469 22.703125 20.960938 22.710938 C 20.9375 22.722656 20.914062 22.734375 20.890625 22.742188 C 20.871094 22.75 20.855469 22.757812 20.835938 22.765625 C 20.8125 22.777344 20.785156 22.789062 20.761719 22.800781 C 20.746094 22.808594 20.726562 22.816406 20.710938 22.824219 C 20.683594 22.832031 20.660156 22.84375 20.632812 22.855469 C 20.617188 22.863281 20.597656 22.871094 20.582031 22.878906 C 20.554688 22.890625 20.53125 22.898438 20.503906 22.910156 C 20.488281 22.917969 20.46875 22.925781 20.449219 22.933594 C 20.425781 22.945312 20.398438 22.957031 20.375 22.964844 C 20.355469 22.972656 20.339844 22.980469 20.320312 22.988281 C 20.292969 23 20.269531 23.011719 20.242188 23.023438 C 20.222656 23.03125 20.207031 23.035156 20.1875 23.042969 C 20.160156 23.054688 20.136719 23.066406 20.109375 23.078125 C 20.089844 23.085938 20.074219 23.09375 20.054688 23.101562 C 20.027344 23.109375 20 23.121094 19.972656 23.132812 C 19.957031 23.140625 19.9375 23.148438 19.921875 23.15625 C 19.894531 23.167969 19.867188 23.175781 19.839844 23.1875 C 19.820312 23.195312 19.804688 23.203125 19.785156 23.210938 C 19.757812 23.222656 19.730469 23.234375 19.699219 23.246094 C 19.6875 23.25 19.667969 23.257812 19.652344 23.265625 C 19.625 23.277344 19.59375 23.289062 19.5625 23.300781 C 19.550781 23.304688 19.539062 23.308594 19.527344 23.316406 C 19.414062 23.359375 19.300781 23.40625 19.1875 23.449219 C 19.171875 23.457031 19.160156 23.460938 19.144531 23.46875 C 19.117188 23.476562 19.089844 23.488281 19.058594 23.5 C 19.039062 23.507812 19.019531 23.515625 19 23.523438 C 18.976562 23.535156 18.949219 23.542969 18.921875 23.554688 C 18.898438 23.5625 18.878906 23.570312 18.855469 23.578125 C 18.832031 23.589844 18.804688 23.597656 18.78125 23.609375 C 18.757812 23.617188 18.734375 23.628906 18.710938 23.636719 C 18.683594 23.644531 18.660156 23.65625 18.636719 23.664062 C 18.609375 23.675781 18.585938 23.683594 18.5625 23.691406 C 18.539062 23.703125 18.511719 23.710938 18.488281 23.71875 C 18.460938 23.730469 18.4375 23.738281 18.414062 23.75 C 18.386719 23.757812 18.363281 23.765625 18.339844 23.777344 C 18.3125 23.785156 18.289062 23.796875 18.261719 23.804688 C 18.238281 23.816406 18.214844 23.824219 18.1875 23.832031 C 18.164062 23.84375 18.136719 23.851562 18.109375 23.863281 C 18.085938 23.871094 18.0625 23.878906 18.039062 23.890625 C 18.011719 23.898438 17.984375 23.910156 17.957031 23.917969 C 17.933594 23.925781 17.910156 23.9375 17.886719 23.945312 C 17.867188 23.953125 17.851562 23.957031 17.835938 23.964844 C 17.941406 23.476562 18.207031 22.851562 18.808594 22.195312 Z M 15.78125 27.671875 C 15.808594 27.21875 15.929688 26.882812 15.9375 26.867188 C 16.335938 25.835938 17.421875 25.339844 17.625 25.257812 C 19.632812 25.179688 21.503906 24.855469 23.191406 24.292969 C 23.363281 24.238281 23.53125 24.179688 23.699219 24.117188 C 23.90625 24.039062 24.113281 23.957031 24.316406 23.875 C 25.246094 23.488281 26.113281 23.019531 26.902344 22.484375 C 27.246094 22.25 27.554688 22.015625 27.828125 21.789062 C 27.832031 21.789062 27.835938 21.785156 27.839844 21.78125 C 28.710938 21.207031 29.195312 20.886719 30.675781 20.578125 C 30.769531 20.734375 30.835938 20.910156 30.871094 21.105469 C 30.933594 21.425781 30.917969 21.792969 30.820312 22.132812 C 30.730469 22.445312 30.59375 22.757812 30.414062 23.066406 C 30.351562 23.167969 30.285156 23.273438 30.214844 23.375 C 30.1875 23.417969 30.15625 23.457031 30.125 23.5 C 30.066406 23.582031 30.003906 23.664062 29.933594 23.746094 C 29.902344 23.785156 29.867188 23.828125 29.832031 23.867188 C 29.515625 24.234375 29.132812 24.601562 28.683594 24.960938 C 28.660156 24.980469 28.632812 25.003906 28.609375 25.023438 C 28.378906 25.203125 28.136719 25.382812 27.875 25.558594 C 27.644531 25.71875 27.398438 25.875 27.140625 26.03125 C 27.039062 26.09375 26.9375 26.15625 26.835938 26.214844 C 25.703125 26.875 24.441406 27.476562 23.007812 28.035156 C 22.746094 28.136719 22.480469 28.234375 22.210938 28.332031 C 21.9375 28.433594 21.660156 28.53125 21.375 28.625 L 21.371094 28.628906 C 20.617188 28.882812 19.765625 29.167969 18.902344 29.332031 C 18.75 29.359375 18.601562 29.382812 18.457031 29.402344 C 18.34375 29.417969 18.230469 29.429688 18.121094 29.4375 C 18.066406 29.441406 18.011719 29.445312 17.957031 29.449219 C 17.929688 29.449219 17.902344 29.449219 17.875 29.453125 C 17.347656 29.472656 16.878906 29.414062 16.464844 29.277344 C 16.34375 29.238281 16.242188 29.191406 16.148438 29.140625 C 16.144531 29.140625 16.144531 29.140625 16.140625 29.136719 C 15.863281 28.738281 15.742188 28.246094 15.78125 27.671875 Z M 15.59375 30.046875 C 15.65625 29.960938 15.722656 29.871094 15.789062 29.785156 C 15.96875 30.503906 16.632812 31.152344 17.734375 31.679688 C 18.351562 31.972656 19.027344 32.183594 19.746094 32.304688 C 21.386719 32.578125 23.011719 32.71875 24.617188 32.71875 C 25.808594 32.71875 26.988281 32.640625 28.148438 32.488281 C 30.152344 32.222656 33.054688 31.722656 35.121094 30.464844 C 35.507812 30.226562 35.832031 29.949219 36.09375 29.640625 C 36.207031 29.773438 36.3125 29.910156 36.410156 30.046875 C 36.980469 30.855469 37.269531 31.710938 37.269531 32.589844 C 37.269531 33.1875 37.136719 33.773438 36.871094 34.339844 C 36.0625 34.78125 35.117188 34.988281 34.203125 35.191406 L 34.15625 35.203125 C 32.9375 35.441406 31.605469 35.625 30.082031 35.769531 C 28.648438 35.886719 27.304688 35.949219 25.980469 35.960938 C 24.589844 35.953125 23.285156 35.910156 22 35.828125 C 20.527344 35.710938 19.242188 35.546875 18.0625 35.320312 C 17.085938 35.105469 16.058594 34.851562 15.140625 34.363281 C 14.871094 33.789062 14.734375 33.195312 14.734375 32.589844 C 14.734375 31.710938 15.023438 30.855469 15.59375 30.046875 Z M 15.59375 30.046875 " fill-opacity="1" fill-rule="nonzero"/></g></svg>