<svg xmlns="http://www.w3.org/2000/svg" xmlns:xlink="http://www.w3.org/1999/xlink" width="70" zoomAndPan="magnify" viewBox="0 0 52.5 52.499999" height="70" preserveAspectRatio="xMidYMid meet" version="1.0"><defs><clipPath id="b1eeb3189a"><path d="M 15 47 L 17 47 L 17 47.546875 L 15 47.546875 Z M 15 47 " clip-rule="nonzero"/></clipPath><clipPath id="1c23119c8b"><path d="M 25 5.199219 L 27 5.199219 L 27 15 L 25 15 Z M 25 5.199219 " clip-rule="nonzero"/></clipPath><clipPath id="bd227833bb"><path d="M 3.902344 19 L 7 19 L 7 23 L 3.902344 23 Z M 3.902344 19 " clip-rule="nonzero"/></clipPath><clipPath id="a91b6ce2d8"><path d="M 3.902344 21 L 7 21 L 7 25 L 3.902344 25 Z M 3.902344 21 " clip-rule="nonzero"/></clipPath><clipPath id="43eb5d0c59"><path d="M 37 44 L 41 44 L 41 47.546875 L 37 47.546875 Z M 37 44 " clip-rule="nonzero"/></clipPath><clipPath id="ad1dc10c2b"><path d="M 46 34 L 47.734375 34 L 47.734375 39 L 46 39 Z M 46 34 " clip-rule="nonzero"/></clipPath><clipPath id="e42edc9f9c"><path d="M 45 36 L 47.734375 36 L 47.734375 37 L 45 37 Z M 45 36 " clip-rule="nonzero"/></clipPath></defs><path fill="#6f2834" d="M 8.484375 10.710938 C 8.296875 10.710938 8.136719 10.554688 8.136719 10.367188 C 8.136719 10.175781 8.289062 10.019531 8.480469 10.019531 L 8.484375 10.019531 C 8.675781 10.019531 8.832031 10.175781 8.832031 10.367188 C 8.832031 10.554688 8.675781 10.710938 8.484375 10.710938 Z M 8.484375 10.710938 " fill-opacity="1" fill-rule="nonzero"/><path fill="#6f2834" d="M 40.851562 40.320312 C 40.660156 40.320312 40.503906 40.167969 40.503906 39.976562 C 40.503906 39.785156 40.65625 39.632812 40.84375 39.632812 L 40.851562 39.632812 C 41.042969 39.632812 41.195312 39.785156 41.195312 39.976562 C 41.195312 40.167969 41.042969 40.320312 40.851562 40.320312 Z M 40.851562 40.320312 " fill-opacity="1" fill-rule="nonzero"/><g clip-path="url(#b1eeb3189a)"><path fill="#6f2834" d="M 16.0625 47.894531 C 15.871094 47.894531 15.714844 47.742188 15.714844 47.550781 C 15.714844 47.359375 15.863281 47.207031 16.054688 47.207031 L 16.0625 47.207031 C 16.25 47.207031 16.40625 47.359375 16.40625 47.550781 C 16.40625 47.742188 16.25 47.894531 16.0625 47.894531 Z M 16.0625 47.894531 " fill-opacity="1" fill-rule="nonzero"/></g><path fill="#6f2834" d="M 8.484375 37.566406 C 8.296875 37.566406 8.136719 37.410156 8.136719 37.222656 C 8.136719 37.03125 8.289062 36.878906 8.480469 36.878906 L 8.484375 36.878906 C 8.675781 36.878906 8.832031 37.03125 8.832031 37.222656 C 8.832031 37.410156 8.675781 37.566406 8.484375 37.566406 Z M 8.484375 37.566406 " fill-opacity="1" fill-rule="nonzero"/><path fill="#6f2834" d="M 46.359375 15.5625 C 46.171875 15.5625 46.011719 15.40625 46.011719 15.21875 C 46.011719 15.027344 46.164062 14.875 46.351562 14.875 L 46.359375 14.875 C 46.550781 14.875 46.703125 15.027344 46.703125 15.21875 C 46.703125 15.40625 46.550781 15.5625 46.359375 15.5625 Z M 46.359375 15.5625 " fill-opacity="1" fill-rule="nonzero"/><path fill="#6f2834" d="M 26.027344 45.140625 C 17.671875 45.140625 10.875 38.34375 10.875 29.992188 C 10.875 21.636719 17.671875 14.839844 26.027344 14.839844 C 30.183594 14.839844 34.058594 16.492188 36.941406 19.488281 C 37.074219 19.625 37.070312 19.84375 36.933594 19.976562 C 36.796875 20.109375 36.582031 20.101562 36.445312 19.964844 C 33.695312 17.105469 29.992188 15.53125 26.027344 15.53125 C 18.050781 15.53125 11.5625 22.015625 11.5625 29.992188 C 11.5625 37.964844 18.050781 44.453125 26.027344 44.453125 C 34 44.453125 40.488281 37.964844 40.488281 29.992188 C 40.488281 28.003906 40.089844 26.078125 39.3125 24.273438 C 39.234375 24.097656 39.316406 23.894531 39.492188 23.820312 C 39.664062 23.742188 39.867188 23.824219 39.941406 24 C 40.761719 25.894531 41.175781 27.910156 41.175781 29.992188 C 41.175781 38.34375 34.378906 45.140625 26.027344 45.140625 Z M 26.027344 45.140625 " fill-opacity="1" fill-rule="nonzero"/><path fill="#6f2834" d="M 29.535156 43.476562 C 29.511719 43.476562 29.488281 43.472656 29.464844 43.46875 C 29.277344 43.433594 29.15625 43.25 29.195312 43.0625 C 29.207031 42.996094 30.566406 36.152344 30.566406 29.992188 C 30.566406 23.828125 29.207031 16.984375 29.195312 16.917969 C 29.15625 16.730469 29.277344 16.550781 29.464844 16.511719 C 29.648438 16.476562 29.832031 16.59375 29.871094 16.78125 C 29.886719 16.851562 31.253906 23.757812 31.253906 29.992188 C 31.253906 36.222656 29.886719 43.128906 29.871094 43.199219 C 29.835938 43.363281 29.695312 43.476562 29.535156 43.476562 Z M 29.535156 43.476562 " fill-opacity="1" fill-rule="nonzero"/><path fill="#6f2834" d="M 32.976562 42.097656 C 32.9375 42.097656 32.898438 42.09375 32.859375 42.078125 C 32.683594 42.015625 32.589844 41.820312 32.652344 41.640625 C 32.671875 41.582031 34.699219 35.78125 34.699219 29.992188 C 34.699219 24.199219 32.671875 18.398438 32.652344 18.34375 C 32.589844 18.164062 32.683594 17.964844 32.859375 17.902344 C 33.039062 17.839844 33.238281 17.933594 33.300781 18.113281 C 33.320312 18.171875 35.386719 24.078125 35.386719 29.992188 C 35.386719 35.902344 33.320312 41.8125 33.300781 41.871094 C 33.25 42.011719 33.117188 42.097656 32.976562 42.097656 Z M 32.976562 42.097656 " fill-opacity="1" fill-rule="nonzero"/><path fill="#6f2834" d="M 36.417969 39.359375 C 36.371094 39.359375 36.320312 39.347656 36.277344 39.328125 C 36.101562 39.246094 36.027344 39.042969 36.105469 38.871094 C 36.125 38.824219 38.140625 34.402344 38.140625 29.992188 C 38.140625 28.644531 37.953125 27.164062 37.585938 25.59375 C 37.542969 25.410156 37.660156 25.222656 37.84375 25.179688 C 38.035156 25.136719 38.214844 25.253906 38.257812 25.4375 C 38.636719 27.058594 38.828125 28.589844 38.828125 29.992188 C 38.828125 34.558594 36.816406 38.972656 36.730469 39.160156 C 36.675781 39.285156 36.550781 39.359375 36.417969 39.359375 Z M 36.417969 39.359375 " fill-opacity="1" fill-rule="nonzero"/><path fill="#6f2834" d="M 21.367188 27.238281 C 21.363281 27.238281 21.355469 27.238281 21.347656 27.234375 C 21.15625 27.222656 21.011719 27.0625 21.023438 26.871094 C 21.339844 21.667969 22.300781 16.832031 22.308594 16.78125 C 22.347656 16.59375 22.53125 16.476562 22.714844 16.511719 C 22.902344 16.550781 23.023438 16.730469 22.984375 16.917969 C 22.976562 16.964844 22.023438 21.761719 21.710938 26.914062 C 21.703125 27.097656 21.550781 27.238281 21.367188 27.238281 Z M 21.367188 27.238281 " fill-opacity="1" fill-rule="nonzero"/><path fill="#6f2834" d="M 22.644531 43.476562 C 22.484375 43.476562 22.34375 43.363281 22.308594 43.199219 C 22.300781 43.152344 21.339844 38.3125 21.023438 33.109375 C 21.011719 32.921875 21.15625 32.757812 21.347656 32.746094 C 21.558594 32.726562 21.703125 32.878906 21.710938 33.070312 C 22.023438 38.222656 22.976562 43.015625 22.984375 43.0625 C 23.023438 43.25 22.902344 43.433594 22.714844 43.46875 C 22.691406 43.472656 22.667969 43.476562 22.644531 43.476562 Z M 22.644531 43.476562 " fill-opacity="1" fill-rule="nonzero"/><path fill="#6f2834" d="M 19.203125 42.097656 C 19.0625 42.097656 18.929688 42.011719 18.878906 41.871094 C 18.859375 41.8125 16.792969 35.902344 16.792969 29.992188 C 16.792969 24.078125 18.859375 18.171875 18.878906 18.113281 C 18.941406 17.933594 19.140625 17.839844 19.320312 17.902344 C 19.496094 17.964844 19.589844 18.164062 19.527344 18.34375 C 19.507812 18.398438 17.480469 24.199219 17.480469 29.992188 C 17.480469 35.78125 19.507812 41.582031 19.527344 41.640625 C 19.589844 41.820312 19.496094 42.015625 19.320312 42.078125 C 19.28125 42.09375 19.242188 42.097656 19.203125 42.097656 Z M 19.203125 42.097656 " fill-opacity="1" fill-rule="nonzero"/><path fill="#6f2834" d="M 15.761719 39.359375 C 15.628906 39.359375 15.503906 39.285156 15.449219 39.160156 C 15.363281 38.972656 13.351562 34.554688 13.351562 29.992188 C 13.351562 25.425781 15.363281 21.007812 15.449219 20.824219 C 15.527344 20.648438 15.734375 20.578125 15.90625 20.65625 C 16.078125 20.734375 16.152344 20.9375 16.074219 21.113281 C 16.054688 21.15625 14.039062 25.578125 14.039062 29.992188 C 14.039062 34.402344 16.054688 38.828125 16.074219 38.871094 C 16.152344 39.042969 16.078125 39.246094 15.90625 39.328125 C 15.859375 39.347656 15.808594 39.359375 15.761719 39.359375 Z M 15.761719 39.359375 " fill-opacity="1" fill-rule="nonzero"/><path fill="#6f2834" d="M 18.792969 30.335938 L 12.261719 30.335938 C 12.070312 30.335938 11.917969 30.179688 11.917969 29.992188 C 11.917969 29.800781 12.070312 29.648438 12.261719 29.648438 L 18.792969 29.648438 C 18.984375 29.648438 19.140625 29.800781 19.140625 29.992188 C 19.140625 30.179688 18.984375 30.335938 18.792969 30.335938 Z M 18.792969 30.335938 " fill-opacity="1" fill-rule="nonzero"/><path fill="#6f2834" d="M 39.917969 30.335938 L 23.613281 30.335938 C 23.425781 30.335938 23.269531 30.179688 23.269531 29.992188 C 23.269531 29.800781 23.425781 29.648438 23.613281 29.648438 L 39.917969 29.648438 C 40.109375 29.648438 40.265625 29.800781 40.265625 29.992188 C 40.265625 30.179688 40.109375 30.335938 39.917969 30.335938 Z M 39.917969 30.335938 " fill-opacity="1" fill-rule="nonzero"/><path fill="#6f2834" d="M 26.03125 35.097656 C 19.800781 35.097656 12.894531 33.730469 12.824219 33.714844 C 12.636719 33.675781 12.515625 33.496094 12.554688 33.308594 C 12.59375 33.121094 12.777344 33 12.960938 33.039062 C 13.027344 33.054688 19.871094 34.410156 26.03125 34.410156 C 32.195312 34.410156 39.039062 33.054688 39.105469 33.039062 C 39.289062 33 39.472656 33.121094 39.511719 33.308594 C 39.550781 33.496094 39.429688 33.675781 39.242188 33.714844 C 39.171875 33.730469 32.265625 35.097656 26.03125 35.097656 Z M 26.03125 35.097656 " fill-opacity="1" fill-rule="nonzero"/><path fill="#6f2834" d="M 26.03125 39.230469 C 20.121094 39.230469 14.214844 37.164062 14.152344 37.144531 C 13.976562 37.082031 13.882812 36.882812 13.945312 36.707031 C 14.007812 36.527344 14.207031 36.433594 14.382812 36.496094 C 14.441406 36.515625 20.242188 38.542969 26.03125 38.542969 C 31.824219 38.542969 37.625 36.515625 37.679688 36.496094 C 37.859375 36.433594 38.058594 36.527344 38.121094 36.707031 C 38.183594 36.882812 38.089844 37.082031 37.910156 37.144531 C 37.851562 37.164062 31.945312 39.230469 26.03125 39.230469 Z M 26.03125 39.230469 " fill-opacity="1" fill-rule="nonzero"/><path fill="#6f2834" d="M 26.03125 42.671875 C 21.464844 42.671875 17.050781 40.660156 16.867188 40.574219 C 16.691406 40.496094 16.617188 40.292969 16.695312 40.121094 C 16.777344 39.945312 16.984375 39.871094 17.152344 39.949219 C 17.199219 39.96875 21.621094 41.984375 26.03125 41.984375 C 30.445312 41.984375 34.867188 39.972656 34.914062 39.949219 C 35.082031 39.871094 35.289062 39.945312 35.367188 40.121094 C 35.449219 40.292969 35.371094 40.496094 35.199219 40.574219 C 35.015625 40.660156 30.597656 42.671875 26.03125 42.671875 Z M 26.03125 42.671875 " fill-opacity="1" fill-rule="nonzero"/><path fill="#6f2834" d="M 12.890625 26.835938 C 12.730469 26.835938 12.585938 26.722656 12.554688 26.558594 C 12.515625 26.371094 12.636719 26.191406 12.824219 26.152344 C 12.894531 26.140625 19.800781 24.769531 26.03125 24.769531 C 32.265625 24.769531 39.171875 26.140625 39.242188 26.152344 C 39.429688 26.191406 39.550781 26.371094 39.511719 26.558594 C 39.472656 26.746094 39.289062 26.867188 39.105469 26.828125 C 39.039062 26.816406 32.195312 25.457031 26.03125 25.457031 C 19.867188 25.457031 13.027344 26.816406 12.960938 26.828125 C 12.9375 26.832031 12.914062 26.835938 12.890625 26.835938 Z M 12.890625 26.835938 " fill-opacity="1" fill-rule="nonzero"/><path fill="#6f2834" d="M 14.269531 23.390625 C 14.128906 23.390625 13.996094 23.304688 13.945312 23.164062 C 13.882812 22.984375 13.976562 22.785156 14.152344 22.722656 C 14.214844 22.703125 20.121094 20.636719 26.03125 20.636719 C 29.605469 20.636719 33.140625 21.375 35.480469 21.996094 C 35.664062 22.042969 35.773438 22.234375 35.722656 22.417969 C 35.675781 22.601562 35.488281 22.710938 35.300781 22.660156 C 33.003906 22.050781 29.53125 21.324219 26.03125 21.324219 C 20.242188 21.324219 14.441406 23.351562 14.382812 23.371094 C 14.34375 23.386719 14.308594 23.390625 14.269531 23.390625 Z M 14.269531 23.390625 " fill-opacity="1" fill-rule="nonzero"/><path fill="#6f2834" d="M 17.007812 19.949219 C 16.878906 19.949219 16.753906 19.875 16.695312 19.75 C 16.617188 19.574219 16.691406 19.371094 16.867188 19.292969 C 17.050781 19.207031 21.46875 17.195312 26.03125 17.195312 C 30.597656 17.195312 35.015625 19.207031 35.199219 19.292969 C 35.371094 19.371094 35.449219 19.578125 35.367188 19.75 C 35.289062 19.921875 35.082031 19.996094 34.914062 19.917969 C 34.867188 19.898438 30.445312 17.882812 26.03125 17.882812 C 21.621094 17.882812 17.199219 19.898438 17.152344 19.917969 C 17.105469 19.9375 17.058594 19.949219 17.007812 19.949219 Z M 17.007812 19.949219 " fill-opacity="1" fill-rule="nonzero"/><path fill="#6f2834" d="M 26.03125 44.109375 C 25.84375 44.109375 25.6875 43.953125 25.6875 43.761719 L 25.6875 16.105469 C 25.6875 15.914062 25.84375 15.761719 26.03125 15.761719 C 26.222656 15.761719 26.378906 15.914062 26.378906 16.105469 L 26.378906 43.761719 C 26.378906 43.953125 26.222656 44.109375 26.03125 44.109375 Z M 26.03125 44.109375 " fill-opacity="1" fill-rule="nonzero"/><g clip-path="url(#1c23119c8b)"><path fill="#6f2834" d="M 26.027344 14.152344 C 25.835938 14.152344 25.679688 14 25.679688 13.808594 L 25.679688 5.542969 C 25.679688 5.355469 25.835938 5.199219 26.027344 5.199219 C 26.214844 5.199219 26.371094 5.355469 26.371094 5.542969 L 26.371094 13.808594 C 26.371094 14 26.214844 14.152344 26.027344 14.152344 Z M 26.027344 14.152344 " fill-opacity="1" fill-rule="nonzero"/></g><path fill="#6f2834" d="M 5.710938 24.480469 C 5.519531 24.480469 5.367188 24.328125 5.367188 24.136719 C 5.367188 22.539062 6.875 21.792969 6.9375 21.761719 C 7.109375 21.679688 7.316406 21.75 7.398438 21.921875 C 7.480469 22.09375 7.410156 22.296875 7.238281 22.382812 C 7.191406 22.40625 6.054688 22.976562 6.054688 24.136719 C 6.054688 24.328125 5.902344 24.480469 5.710938 24.480469 Z M 5.710938 24.480469 " fill-opacity="1" fill-rule="nonzero"/><path fill="#6f2834" d="M 7.089844 22.417969 C 7.039062 22.417969 6.988281 22.40625 6.9375 22.382812 C 6.875 22.351562 5.367188 21.605469 5.367188 20.007812 C 5.367188 19.816406 5.519531 19.660156 5.710938 19.660156 C 5.902344 19.660156 6.054688 19.816406 6.054688 20.007812 C 6.054688 21.175781 7.226562 21.757812 7.238281 21.761719 C 7.410156 21.84375 7.480469 22.050781 7.398438 22.222656 C 7.339844 22.34375 7.214844 22.417969 7.089844 22.417969 Z M 7.089844 22.417969 " fill-opacity="1" fill-rule="nonzero"/><g clip-path="url(#bd227833bb)"><path fill="#6f2834" d="M 4.335938 22.417969 C 4.207031 22.417969 4.085938 22.34375 4.023438 22.222656 C 3.941406 22.050781 4.011719 21.847656 4.183594 21.761719 C 4.230469 21.738281 5.367188 21.167969 5.367188 20.007812 C 5.367188 19.816406 5.519531 19.660156 5.710938 19.660156 C 5.902344 19.660156 6.054688 19.816406 6.054688 20.007812 C 6.054688 21.605469 4.546875 22.351562 4.484375 22.382812 C 4.433594 22.40625 4.382812 22.417969 4.335938 22.417969 Z M 4.335938 22.417969 " fill-opacity="1" fill-rule="nonzero"/></g><g clip-path="url(#a91b6ce2d8)"><path fill="#6f2834" d="M 5.710938 24.480469 C 5.519531 24.480469 5.367188 24.328125 5.367188 24.136719 C 5.367188 22.964844 4.195312 22.386719 4.183594 22.382812 C 4.011719 22.300781 3.941406 22.09375 4.023438 21.921875 C 4.105469 21.75 4.3125 21.679688 4.484375 21.761719 C 4.546875 21.792969 6.054688 22.539062 6.054688 24.136719 C 6.054688 24.328125 5.902344 24.480469 5.710938 24.480469 Z M 5.710938 24.480469 " fill-opacity="1" fill-rule="nonzero"/></g><path fill="#6f2834" d="M 38.078125 24.480469 C 37.886719 24.480469 37.730469 24.328125 37.730469 24.136719 C 37.730469 22.539062 39.238281 21.792969 39.304688 21.761719 C 39.476562 21.679688 39.679688 21.75 39.761719 21.921875 C 39.84375 22.09375 39.773438 22.296875 39.605469 22.382812 C 39.554688 22.40625 38.421875 22.976562 38.421875 24.136719 C 38.421875 24.328125 38.265625 24.480469 38.078125 24.480469 Z M 38.078125 24.480469 " fill-opacity="1" fill-rule="nonzero"/><path fill="#6f2834" d="M 39.453125 22.417969 C 39.402344 22.417969 39.351562 22.40625 39.304688 22.382812 C 39.238281 22.351562 37.730469 21.605469 37.730469 20.007812 C 37.730469 19.816406 37.886719 19.660156 38.078125 19.660156 C 38.265625 19.660156 38.421875 19.816406 38.421875 20.007812 C 38.421875 21.175781 39.589844 21.757812 39.601562 21.761719 C 39.773438 21.84375 39.847656 22.050781 39.761719 22.222656 C 39.703125 22.34375 39.582031 22.417969 39.453125 22.417969 Z M 39.453125 22.417969 " fill-opacity="1" fill-rule="nonzero"/><path fill="#6f2834" d="M 36.699219 22.417969 C 36.570312 22.417969 36.449219 22.34375 36.390625 22.222656 C 36.308594 22.050781 36.378906 21.847656 36.546875 21.761719 C 36.597656 21.738281 37.730469 21.167969 37.730469 20.007812 C 37.730469 19.816406 37.886719 19.660156 38.078125 19.660156 C 38.265625 19.660156 38.421875 19.816406 38.421875 20.007812 C 38.421875 21.605469 36.914062 22.351562 36.847656 22.382812 C 36.800781 22.40625 36.75 22.417969 36.699219 22.417969 Z M 36.699219 22.417969 " fill-opacity="1" fill-rule="nonzero"/><path fill="#6f2834" d="M 38.078125 24.480469 C 37.886719 24.480469 37.730469 24.328125 37.730469 24.136719 C 37.730469 22.964844 36.5625 22.386719 36.550781 22.382812 C 36.378906 22.300781 36.304688 22.09375 36.390625 21.921875 C 36.472656 21.75 36.679688 21.679688 36.847656 21.761719 C 36.914062 21.792969 38.421875 22.539062 38.421875 24.136719 C 38.421875 24.328125 38.265625 24.480469 38.078125 24.480469 Z M 38.078125 24.480469 " fill-opacity="1" fill-rule="nonzero"/><path fill="#6f2834" d="M 21.203125 32.34375 C 21.015625 32.34375 20.859375 32.1875 20.859375 32 C 20.859375 30.398438 22.367188 29.652344 22.433594 29.625 C 22.605469 29.539062 22.808594 29.613281 22.890625 29.78125 C 22.972656 29.953125 22.902344 30.160156 22.734375 30.242188 C 22.683594 30.265625 21.550781 30.835938 21.550781 32 C 21.550781 32.1875 21.394531 32.34375 21.203125 32.34375 Z M 21.203125 32.34375 " fill-opacity="1" fill-rule="nonzero"/><path fill="#6f2834" d="M 22.582031 30.277344 C 22.53125 30.277344 22.480469 30.265625 22.433594 30.242188 C 22.367188 30.210938 20.859375 29.464844 20.859375 27.867188 C 20.859375 27.675781 21.015625 27.523438 21.203125 27.523438 C 21.394531 27.523438 21.550781 27.675781 21.550781 27.867188 C 21.550781 29.039062 22.71875 29.617188 22.730469 29.625 C 22.902344 29.707031 22.976562 29.910156 22.890625 30.082031 C 22.832031 30.207031 22.710938 30.277344 22.582031 30.277344 Z M 22.582031 30.277344 " fill-opacity="1" fill-rule="nonzero"/><path fill="#6f2834" d="M 19.828125 30.277344 C 19.699219 30.277344 19.578125 30.207031 19.519531 30.082031 C 19.4375 29.914062 19.507812 29.707031 19.675781 29.625 C 19.726562 29.601562 20.859375 29.03125 20.859375 27.867188 C 20.859375 27.675781 21.015625 27.523438 21.203125 27.523438 C 21.394531 27.523438 21.550781 27.675781 21.550781 27.867188 C 21.550781 29.464844 20.042969 30.210938 19.976562 30.242188 C 19.929688 30.265625 19.878906 30.277344 19.828125 30.277344 Z M 19.828125 30.277344 " fill-opacity="1" fill-rule="nonzero"/><path fill="#6f2834" d="M 21.203125 32.34375 C 21.015625 32.34375 20.859375 32.1875 20.859375 32 C 20.859375 30.828125 19.691406 30.25 19.679688 30.242188 C 19.507812 30.160156 19.433594 29.953125 19.519531 29.785156 C 19.601562 29.613281 19.808594 29.539062 19.976562 29.625 C 20.042969 29.652344 21.550781 30.398438 21.550781 32 C 21.550781 32.1875 21.394531 32.34375 21.203125 32.34375 Z M 21.203125 32.34375 " fill-opacity="1" fill-rule="nonzero"/><path fill="#6f2834" d="M 20.335938 12.019531 C 20.28125 12.019531 20.226562 12.007812 20.175781 11.980469 L 19.484375 11.617188 L 18.792969 11.980469 C 18.675781 12.042969 18.535156 12.03125 18.429688 11.953125 C 18.324219 11.878906 18.269531 11.746094 18.292969 11.617188 L 18.425781 10.847656 L 17.867188 10.300781 C 17.773438 10.210938 17.738281 10.074219 17.777344 9.949219 C 17.820312 9.824219 17.925781 9.734375 18.054688 9.714844 L 18.828125 9.601562 L 19.175781 8.902344 C 19.289062 8.667969 19.675781 8.667969 19.792969 8.902344 L 20.136719 9.601562 L 20.910156 9.714844 C 21.039062 9.734375 21.148438 9.824219 21.1875 9.949219 C 21.230469 10.074219 21.195312 10.210938 21.101562 10.300781 L 20.542969 10.847656 L 20.675781 11.617188 C 20.695312 11.746094 20.644531 11.878906 20.539062 11.953125 C 20.476562 11.996094 20.40625 12.019531 20.335938 12.019531 Z M 19.484375 10.882812 C 19.539062 10.882812 19.59375 10.898438 19.644531 10.921875 L 19.878906 11.046875 L 19.832031 10.785156 C 19.8125 10.671875 19.851562 10.558594 19.933594 10.480469 L 20.121094 10.296875 L 19.859375 10.257812 C 19.746094 10.242188 19.648438 10.171875 19.601562 10.070312 L 19.484375 9.832031 L 19.367188 10.070312 C 19.316406 10.171875 19.21875 10.242188 19.109375 10.257812 L 18.847656 10.296875 L 19.035156 10.480469 C 19.117188 10.558594 19.152344 10.671875 19.132812 10.785156 L 19.089844 11.046875 L 19.324219 10.921875 C 19.375 10.898438 19.429688 10.882812 19.484375 10.882812 Z M 19.484375 10.882812 " fill-opacity="1" fill-rule="nonzero"/><g clip-path="url(#43eb5d0c59)"><path fill="#6f2834" d="M 39.617188 47.828125 C 39.5625 47.828125 39.507812 47.816406 39.457031 47.789062 L 38.765625 47.425781 L 38.074219 47.789062 C 37.960938 47.851562 37.816406 47.839844 37.710938 47.761719 C 37.605469 47.683594 37.550781 47.554688 37.574219 47.425781 L 37.707031 46.65625 L 37.148438 46.109375 C 37.054688 46.019531 37.019531 45.882812 37.058594 45.757812 C 37.101562 45.632812 37.207031 45.542969 37.339844 45.523438 L 38.109375 45.410156 L 38.457031 44.710938 C 38.515625 44.59375 38.632812 44.519531 38.765625 44.519531 C 38.894531 44.519531 39.015625 44.59375 39.074219 44.710938 L 39.421875 45.410156 L 40.191406 45.523438 C 40.320312 45.542969 40.429688 45.632812 40.46875 45.757812 C 40.511719 45.882812 40.476562 46.019531 40.382812 46.113281 L 39.824219 46.65625 L 39.957031 47.425781 C 39.976562 47.554688 39.925781 47.6875 39.820312 47.761719 C 39.757812 47.804688 39.6875 47.828125 39.617188 47.828125 Z M 38.765625 46.691406 C 38.820312 46.691406 38.875 46.703125 38.925781 46.730469 L 39.160156 46.855469 L 39.113281 46.59375 C 39.09375 46.480469 39.132812 46.367188 39.214844 46.289062 L 39.402344 46.105469 L 39.140625 46.066406 C 39.03125 46.050781 38.933594 45.980469 38.882812 45.878906 L 38.765625 45.640625 L 38.648438 45.878906 C 38.597656 45.980469 38.5 46.050781 38.390625 46.066406 L 38.128906 46.105469 L 38.316406 46.289062 C 38.398438 46.367188 38.433594 46.480469 38.414062 46.59375 L 38.371094 46.855469 L 38.605469 46.730469 C 38.65625 46.703125 38.710938 46.691406 38.765625 46.691406 Z M 38.765625 46.691406 " fill-opacity="1" fill-rule="nonzero"/></g><g clip-path="url(#ad1dc10c2b)"><path fill="#6f2834" d="M 47.027344 38.253906 C 46.839844 38.253906 46.683594 38.101562 46.683594 37.910156 L 46.683594 35.15625 C 46.683594 34.964844 46.839844 34.8125 47.027344 34.8125 C 47.21875 34.8125 47.371094 34.964844 47.371094 35.15625 L 47.371094 37.910156 C 47.371094 38.101562 47.21875 38.253906 47.027344 38.253906 Z M 47.027344 38.253906 " fill-opacity="1" fill-rule="nonzero"/></g><g clip-path="url(#e42edc9f9c)"><path fill="#6f2834" d="M 47.71875 36.878906 L 46.339844 36.878906 C 46.148438 36.878906 45.996094 36.722656 45.996094 36.53125 C 45.996094 36.34375 46.148438 36.1875 46.339844 36.1875 L 47.71875 36.1875 C 47.90625 36.1875 48.0625 36.34375 48.0625 36.53125 C 48.0625 36.722656 47.90625 36.878906 47.71875 36.878906 Z M 47.71875 36.878906 " fill-opacity="1" fill-rule="nonzero"/></g><path fill="#6f2834" d="M 7.089844 46.519531 C 6.898438 46.519531 6.742188 46.363281 6.742188 46.171875 L 6.742188 43.417969 C 6.742188 43.230469 6.898438 43.074219 7.089844 43.074219 C 7.277344 43.074219 7.433594 43.230469 7.433594 43.417969 L 7.433594 46.171875 C 7.433594 46.363281 7.277344 46.519531 7.089844 46.519531 Z M 7.089844 46.519531 " fill-opacity="1" fill-rule="nonzero"/><path fill="#6f2834" d="M 7.777344 45.140625 L 6.398438 45.140625 C 6.210938 45.140625 6.054688 44.988281 6.054688 44.796875 C 6.054688 44.605469 6.210938 44.453125 6.398438 44.453125 L 7.777344 44.453125 C 7.96875 44.453125 8.121094 44.605469 8.121094 44.796875 C 8.121094 44.988281 7.96875 45.140625 7.777344 45.140625 Z M 7.777344 45.140625 " fill-opacity="1" fill-rule="nonzero"/><path fill="#6f2834" d="M 37.386719 14.839844 C 37.199219 14.839844 37.042969 14.6875 37.042969 14.496094 L 37.042969 11.742188 C 37.042969 11.550781 37.199219 11.398438 37.386719 11.398438 C 37.578125 11.398438 37.730469 11.550781 37.730469 11.742188 L 37.730469 14.496094 C 37.730469 14.6875 37.578125 14.839844 37.386719 14.839844 Z M 37.386719 14.839844 " fill-opacity="1" fill-rule="nonzero"/><path fill="#6f2834" d="M 38.078125 13.464844 L 36.699219 13.464844 C 36.507812 13.464844 36.355469 13.308594 36.355469 13.121094 C 36.355469 12.929688 36.507812 12.777344 36.699219 12.777344 L 38.078125 12.777344 C 38.265625 12.777344 38.421875 12.929688 38.421875 13.121094 C 38.421875 13.308594 38.265625 13.464844 38.078125 13.464844 Z M 38.078125 13.464844 " fill-opacity="1" fill-rule="nonzero"/></svg>