<svg xmlns="http://www.w3.org/2000/svg" xmlns:xlink="http://www.w3.org/1999/xlink" width="70" zoomAndPan="magnify" viewBox="0 0 52.5 52.499999" height="70" preserveAspectRatio="xMidYMid meet" version="1.0"><defs><clipPath id="f165ff5539"><path d="M 7 7 L 25 7 L 25 43.082031 L 7 43.082031 Z M 7 7 " clip-rule="nonzero"/></clipPath><clipPath id="f6d1b6ee63"><path d="M 42 7 L 45.246094 7 L 45.246094 28 L 42 28 Z M 42 7 " clip-rule="nonzero"/></clipPath></defs><g clip-path="url(#f165ff5539)"><path fill="#6f2834" d="M 20.96875 7.953125 C 20.839844 7.953125 20.703125 7.9375 20.582031 7.953125 C 18.804688 8.234375 17.007812 8.289062 15.222656 8.425781 C 14.519531 8.484375 13.8125 8.492188 13.113281 8.546875 C 12.417969 8.613281 11.777344 8.820312 11.210938 9.273438 C 10.738281 9.660156 10.207031 9.988281 9.753906 10.398438 C 8.851562 11.230469 8.320312 12.300781 7.832031 13.402344 C 7.386719 14.417969 7.195312 15.472656 7.195312 16.582031 C 7.195312 17.855469 7.203125 19.128906 7.476562 20.375 C 7.558594 20.753906 7.652344 21.117188 7.902344 21.429688 C 7.933594 21.46875 7.945312 21.566406 7.917969 21.625 C 7.878906 21.734375 7.824219 21.832031 7.757812 21.9375 C 6.75 23.5625 6.847656 25.222656 7.621094 26.898438 C 7.894531 27.484375 8.199219 28.054688 8.507812 28.628906 C 8.765625 29.101562 8.894531 29.59375 8.851562 30.140625 C 8.796875 30.96875 8.714844 31.792969 8.707031 32.621094 C 8.699219 33.199219 8.757812 33.789062 8.820312 34.359375 C 8.910156 35.222656 9.328125 35.945312 9.753906 36.679688 C 10.753906 38.378906 12.28125 39.464844 13.941406 40.414062 C 15.230469 41.148438 16.605469 41.558594 18.089844 41.671875 C 18.636719 41.710938 19.175781 41.839844 19.714844 41.9375 C 20.148438 42.015625 20.527344 42.226562 20.890625 42.46875 C 21.164062 42.652344 21.4375 42.839844 21.71875 43.007812 C 22.152344 43.273438 22.628906 43.378906 23.136719 43.257812 C 23.441406 43.183594 23.746094 43.136719 24.046875 43.054688 C 24.3125 42.984375 24.535156 42.847656 24.683594 42.613281 C 24.746094 42.507812 24.800781 42.386719 24.8125 42.273438 C 24.8125 42.179688 24.761719 42.03125 24.691406 41.984375 C 24.632812 41.945312 24.480469 41.992188 24.40625 42.058594 C 24.246094 42.1875 24.070312 42.242188 23.867188 42.25 C 23.265625 42.273438 22.71875 42.160156 22.234375 41.765625 C 21.582031 41.234375 20.832031 41.027344 19.996094 41.035156 C 19.296875 41.042969 18.59375 40.984375 17.902344 40.914062 C 17.210938 40.839844 16.566406 40.589844 15.953125 40.285156 C 14.503906 39.554688 13.183594 38.636719 11.976562 37.546875 C 11.398438 37.023438 11.003906 36.355469 10.558594 35.730469 C 10.457031 35.582031 10.382812 35.414062 10.277344 35.261719 C 9.84375 34.648438 9.667969 33.941406 9.640625 33.207031 C 9.617188 32.445312 9.632812 31.679688 9.667969 30.914062 C 9.707031 29.859375 9.625 28.835938 9.207031 27.847656 C 8.886719 27.089844 8.578125 26.324219 8.3125 25.542969 C 7.953125 24.472656 8.007812 23.417969 8.59375 22.410156 C 8.707031 22.226562 8.765625 22.007812 8.84375 21.800781 C 8.910156 21.625 8.964844 21.4375 9.039062 21.253906 C 9.117188 21.042969 9.117188 20.824219 9.03125 20.625 C 8.652344 19.753906 8.585938 18.828125 8.613281 17.902344 C 8.628906 17.121094 8.667969 16.332031 8.707031 15.550781 C 8.714844 15.367188 8.75 15.175781 8.796875 14.996094 C 9.128906 13.855469 9.519531 12.742188 10.148438 11.71875 C 10.503906 11.148438 10.929688 10.632812 11.4375 10.199219 C 11.550781 10.101562 11.703125 10.054688 11.847656 9.996094 C 11.953125 9.957031 12.066406 9.957031 12.171875 9.917969 C 12.804688 9.660156 13.472656 9.636719 14.152344 9.601562 C 14.648438 9.578125 15.15625 9.480469 15.640625 9.359375 C 17.289062 8.957031 18.933594 8.539062 20.574219 8.128906 C 20.710938 8.097656 20.847656 8.039062 20.988281 7.992188 C 20.976562 7.992188 20.976562 7.976562 20.96875 7.953125 Z M 20.96875 7.953125 " fill-opacity="1" fill-rule="nonzero"/></g><path fill="#6f2834" d="M 31.339844 7.535156 C 31.6875 7.476562 32 7.414062 32.3125 7.386719 C 33.417969 7.300781 34.519531 7.21875 35.625 7.140625 C 36.589844 7.058594 37.554688 6.96875 38.523438 6.898438 C 39.09375 6.855469 39.671875 6.855469 40.253906 6.816406 C 41.46875 6.71875 42.675781 6.609375 43.890625 6.496094 C 44.011719 6.488281 44.132812 6.460938 44.253906 6.4375 C 44.496094 6.398438 44.496094 6.398438 44.601562 6.609375 C 44.714844 6.519531 44.707031 6.398438 44.632812 6.324219 C 44.519531 6.203125 44.382812 6.078125 44.230469 6.019531 C 43.769531 5.851562 43.296875 5.890625 42.828125 5.949219 C 42.136719 6.035156 41.453125 6.035156 40.761719 5.988281 C 39.679688 5.90625 38.59375 5.851562 37.523438 6.027344 C 36.816406 6.140625 36.128906 6.375 35.421875 6.496094 C 34.585938 6.640625 33.730469 6.777344 32.878906 6.839844 C 32.402344 6.875 31.917969 6.761719 31.4375 6.710938 C 31.140625 6.6875 30.832031 6.671875 30.527344 6.640625 C 30.445312 6.632812 30.359375 6.589844 30.292969 6.535156 C 29.132812 5.671875 27.871094 5.039062 26.445312 4.753906 C 25.929688 4.652344 25.398438 4.628906 24.859375 4.5625 C 24.867188 4.539062 24.890625 4.5 24.90625 4.457031 C 24.980469 4.222656 25.066406 3.992188 25.101562 3.75 C 25.140625 3.378906 25.019531 3.21875 24.65625 3.144531 C 23.765625 2.96875 22.933594 3.105469 22.234375 3.71875 C 22.015625 3.910156 21.878906 4.191406 21.71875 4.417969 C 21.535156 4.234375 21.332031 3.992188 21.097656 3.78125 C 20.746094 3.460938 20.328125 3.242188 19.867188 3.097656 C 19.519531 2.992188 19.320312 3.058594 19.152344 3.371094 C 19.039062 3.582031 18.949219 3.8125 18.910156 4.039062 C 18.773438 4.8125 18.820312 5.578125 19.117188 6.308594 C 19.441406 7.089844 20.050781 7.507812 20.839844 7.710938 C 20.988281 7.742188 21.15625 7.757812 21.234375 7.589844 C 21.324219 7.421875 21.226562 7.292969 21.097656 7.1875 C 20.824219 6.96875 20.558594 6.746094 20.285156 6.527344 C 19.835938 6.164062 19.601562 5.683594 19.59375 5.109375 C 19.585938 4.675781 19.632812 4.25 19.664062 3.8125 C 19.675781 3.660156 19.753906 3.597656 19.914062 3.667969 C 20.09375 3.75 20.285156 3.796875 20.445312 3.910156 C 20.738281 4.113281 21.003906 4.351562 21.285156 4.570312 C 21.566406 4.796875 21.703125 5.0625 21.597656 5.441406 C 21.535156 5.65625 21.582031 5.898438 21.71875 6.109375 C 21.878906 5.390625 22.058594 4.675781 22.636719 4.191406 C 23.214844 3.710938 23.941406 3.660156 24.707031 3.660156 C 24.671875 3.773438 24.65625 3.855469 24.632812 3.933594 C 24.59375 4.03125 24.519531 4.121094 24.511719 4.214844 C 24.488281 4.578125 24.253906 4.675781 23.957031 4.78125 C 23.425781 4.964844 23 5.320312 22.636719 5.738281 C 22.507812 5.890625 22.410156 6.09375 22.363281 6.285156 C 22.308594 6.496094 22.453125 6.582031 22.652344 6.488281 C 23.078125 6.277344 23.53125 6.09375 23.941406 5.851562 C 24.496094 5.527344 25.078125 5.542969 25.679688 5.601562 C 27.039062 5.730469 28.222656 6.316406 29.375 6.992188 C 30.078125 7.40625 30.71875 7.902344 31.292969 8.476562 C 31.605469 8.789062 31.871094 9.152344 32.160156 9.496094 C 32.347656 9.714844 32.539062 9.925781 32.726562 10.132812 C 32.765625 10.175781 32.804688 10.222656 32.820312 10.277344 C 32.871094 10.382812 32.894531 10.503906 32.941406 10.609375 C 33.183594 11.109375 32.992188 11.480469 32.628906 11.855469 C 31.285156 13.265625 29.632812 13.917969 27.710938 13.933594 C 27.53125 13.933594 27.355469 13.933594 27.1875 13.949219 C 26.285156 14.039062 25.4375 13.828125 24.617188 13.476562 C 23.828125 13.136719 23.113281 12.679688 22.453125 12.148438 C 22.042969 11.808594 21.734375 11.382812 21.636719 10.835938 C 21.621094 10.761719 21.621094 10.679688 21.605469 10.550781 C 21.695312 10.632812 21.742188 10.671875 21.792969 10.722656 C 22.484375 11.339844 23.289062 11.488281 24.167969 11.230469 C 24.527344 11.125 24.777344 10.875 24.929688 10.535156 C 25.300781 9.707031 25.308594 8.878906 24.859375 8.074219 C 24.5625 7.535156 24.132812 7.148438 23.480469 7.089844 C 23.039062 7.050781 22.597656 7.011719 22.144531 6.96875 C 22.121094 6.96875 22.089844 6.992188 22.066406 7.003906 C 22.082031 7.035156 22.082031 7.082031 22.105469 7.097656 C 22.167969 7.132812 22.25 7.164062 22.324219 7.179688 C 22.683594 7.257812 23.039062 7.355469 23.402344 7.421875 C 23.796875 7.492188 24.039062 7.726562 24.167969 8.089844 C 24.40625 8.75 24.480469 9.425781 24.238281 10.101562 C 24.160156 10.335938 24.03125 10.472656 23.789062 10.527344 C 23.113281 10.699219 22.628906 10.542969 22.21875 9.988281 C 22.015625 9.722656 21.847656 9.441406 21.664062 9.167969 C 21.605469 9.085938 21.542969 9.015625 21.46875 8.949219 C 21.332031 8.835938 21.125 8.828125 21.035156 8.964844 C 20.882812 9.199219 20.6875 9.410156 20.671875 9.722656 C 20.640625 10.230469 20.558594 10.730469 20.847656 11.222656 C 20.230469 11.414062 19.949219 12 19.417969 12.332031 C 19.320312 12.179688 19.207031 12.050781 19.152344 11.898438 C 19.054688 11.632812 18.972656 11.359375 18.910156 11.085938 C 18.851562 10.820312 18.910156 10.570312 19.046875 10.335938 C 19.390625 9.714844 19.859375 9.214844 20.453125 8.835938 C 20.511719 8.804688 20.558594 8.765625 20.617188 8.734375 C 20.625 8.726562 20.625 8.707031 20.648438 8.652344 C 20.558594 8.652344 20.488281 8.636719 20.429688 8.652344 C 20.285156 8.699219 20.132812 8.742188 19.996094 8.820312 C 19.328125 9.214844 18.789062 9.730469 18.417969 10.414062 C 18.207031 10.800781 18.199219 11.203125 18.265625 11.625 C 18.335938 12.105469 18.539062 12.542969 18.878906 12.902344 C 19.167969 13.21875 19.464844 13.273438 19.84375 13.089844 C 20.335938 12.847656 20.753906 12.515625 21.027344 12.035156 C 21.066406 11.960938 21.125 11.90625 21.203125 11.800781 C 21.234375 11.863281 21.253906 11.898438 21.277344 11.929688 C 21.785156 12.789062 22.582031 13.324219 23.425781 13.78125 C 24.183594 14.191406 24.957031 14.5625 25.824219 14.632812 C 26.308594 14.675781 26.800781 14.644531 27.28125 14.625 C 28.175781 14.59375 29.078125 14.5625 29.921875 14.222656 C 30.703125 13.910156 31.476562 13.570312 32.210938 13.160156 C 32.765625 12.855469 33.191406 12.371094 33.523438 11.808594 C 33.691406 11.519531 33.722656 11.222656 33.570312 10.914062 C 33.441406 10.664062 33.28125 10.425781 33.128906 10.191406 C 32.949219 9.917969 32.734375 9.660156 32.589844 9.359375 C 32.28125 8.742188 31.917969 8.160156 31.453125 7.652344 C 31.414062 7.628906 31.386719 7.597656 31.339844 7.535156 Z M 31.339844 7.535156 " fill-opacity="1" fill-rule="nonzero"/><path fill="#6f2834" d="M 44.441406 7.042969 C 44.382812 7.089844 44.320312 7.140625 44.269531 7.195312 C 43.289062 8.257812 42.136719 9.101562 40.929688 9.875 C 37.007812 12.386719 33.023438 14.804688 28.988281 17.136719 C 27.902344 17.765625 26.9375 18.539062 26.011719 19.367188 C 25.238281 20.054688 24.8125 20.898438 24.683594 21.90625 C 24.648438 22.171875 24.617188 22.429688 24.601562 22.695312 C 24.535156 23.613281 24.488281 24.53125 24.433594 25.449219 C 24.425781 25.542969 24.40625 25.640625 24.40625 25.738281 C 24.441406 26.597656 24.0625 27.332031 23.652344 28.046875 C 23.492188 28.328125 23.257812 28.53125 22.894531 28.554688 C 22.554688 28.578125 22.308594 28.457031 22.152344 28.167969 C 21.960938 27.804688 21.785156 27.445312 21.621094 27.066406 C 21.460938 26.679688 21.324219 26.277344 21.1875 25.882812 C 20.945312 25.164062 20.390625 24.789062 19.714844 24.546875 C 19.351562 24.417969 19.054688 24.59375 18.828125 24.867188 C 18.601562 25.140625 18.484375 25.464844 18.417969 25.800781 C 18.328125 26.261719 18.273438 26.71875 18.183594 27.179688 C 18.144531 27.402344 18.070312 27.628906 17.984375 27.847656 C 17.917969 27.992188 17.820312 28.136719 17.710938 28.242188 C 17.378906 28.554688 17.074219 28.539062 16.816406 28.160156 C 16.382812 27.523438 16.082031 26.816406 15.9375 26.058594 C 15.679688 24.738281 15.464844 23.410156 15.191406 22.089844 C 15.078125 21.558594 14.882812 21.035156 14.667969 20.527344 C 14.554688 20.277344 14.328125 20.054688 14.101562 19.875 C 13.636719 19.511719 13.070312 19.546875 12.644531 19.949219 C 12.417969 20.164062 12.234375 20.429688 12.058594 20.6875 C 11.871094 20.953125 11.71875 21.246094 11.535156 21.503906 C 11.292969 21.839844 11.15625 21.855469 10.800781 21.632812 C 10.730469 21.582031 10.648438 21.535156 10.566406 21.496094 C 10.230469 21.355469 9.898438 21.613281 9.964844 21.976562 C 9.980469 22.082031 10.019531 22.195312 10.09375 22.273438 C 10.714844 22.960938 11.527344 23.113281 12.203125 22.445312 C 12.492188 22.15625 12.6875 21.769531 12.910156 21.414062 C 13.046875 21.195312 13.144531 20.953125 13.28125 20.730469 C 13.5 20.382812 13.742188 20.359375 14.039062 20.648438 C 14.335938 20.945312 14.480469 21.339844 14.5625 21.734375 C 14.667969 22.265625 14.699219 22.816406 14.753906 23.355469 C 14.90625 24.789062 14.949219 26.238281 15.269531 27.652344 C 15.335938 27.953125 15.421875 28.242188 15.535156 28.523438 C 16.105469 29.949219 17.597656 30.253906 18.699219 29.175781 C 19.175781 28.707031 19.425781 28.128906 19.511719 27.492188 C 19.601562 26.847656 19.640625 26.203125 19.707031 25.558594 C 19.738281 25.222656 19.753906 25.222656 20.070312 25.320312 C 20.34375 25.398438 20.542969 25.578125 20.601562 25.859375 C 20.671875 26.210938 20.730469 26.574219 20.777344 26.929688 C 20.839844 27.421875 20.929688 27.902344 21.148438 28.347656 C 21.613281 29.3125 22.53125 29.519531 23.492188 29.207031 C 23.859375 29.085938 24.101562 28.78125 24.296875 28.449219 C 24.554688 28.023438 24.683594 27.546875 24.800781 27.066406 C 24.828125 26.976562 24.875 26.886719 24.929688 26.816406 C 25.207031 26.484375 25.300781 26.082031 25.351562 25.679688 C 25.4375 24.8125 25.511719 23.941406 25.550781 23.0625 C 25.582031 22.394531 25.6875 21.75 25.960938 21.140625 C 26.058594 20.914062 26.195312 20.6875 26.363281 20.503906 C 27.25 19.539062 28.222656 18.667969 29.335938 17.960938 C 31.703125 16.445312 34.078125 14.941406 36.4375 13.402344 C 38.152344 12.285156 39.851562 11.140625 41.53125 9.980469 C 42.539062 9.289062 43.441406 8.476562 44.191406 7.492188 C 44.285156 7.363281 44.375 7.226562 44.464844 7.089844 C 44.464844 7.113281 44.464844 7.089844 44.464844 7.074219 C 44.457031 7.066406 44.449219 7.050781 44.441406 7.042969 Z M 44.441406 7.042969 " fill-opacity="1" fill-rule="nonzero"/><path fill="#6f2834" d="M 25.730469 40.785156 C 25.703125 40.335938 25.679688 39.941406 25.65625 39.554688 C 25.601562 38.289062 25.550781 37.03125 25.503906 35.769531 C 25.445312 34.320312 25.390625 32.871094 25.351562 31.421875 C 25.308594 30.191406 25.285156 28.957031 25.261719 27.734375 C 25.261719 27.703125 25.269531 27.667969 25.253906 27.636719 C 25.230469 27.589844 25.207031 27.539062 25.171875 27.492188 C 25.125 27.523438 25.042969 27.539062 25.019531 27.589844 C 24.957031 27.710938 24.890625 27.832031 24.867188 27.96875 C 24.738281 28.722656 24.578125 29.480469 24.503906 30.246094 C 24.390625 31.40625 24.320312 32.574219 24.289062 33.730469 C 24.238281 35.359375 24.335938 36.984375 24.519531 38.601562 C 24.585938 39.191406 24.59375 39.777344 24.617188 40.367188 C 24.625 40.582031 24.585938 40.800781 24.570312 41.027344 C 24.5625 41.148438 24.546875 41.277344 24.554688 41.398438 C 24.578125 41.71875 24.785156 41.9375 25.117188 41.960938 C 25.472656 41.992188 25.808594 41.921875 26.097656 41.71875 C 26.566406 41.398438 27.03125 41.066406 27.476562 40.710938 C 28 40.292969 28.5 39.835938 29.003906 39.390625 C 29.175781 39.246094 29.351562 39.117188 29.496094 38.949219 C 30.019531 38.335938 30.625 37.78125 31.027344 37.066406 C 31.445312 36.324219 32.113281 35.914062 32.902344 35.695312 C 33.667969 35.480469 34.40625 35.222656 35.117188 34.875 C 35.882812 34.503906 36.453125 33.949219 36.871094 33.199219 C 37.183594 32.636719 37.578125 32.113281 37.957031 31.589844 C 38.078125 31.429688 38.238281 31.285156 38.417969 31.179688 C 39.09375 30.792969 39.777344 30.421875 40.460938 30.0625 C 41.066406 29.746094 41.660156 29.410156 42.152344 28.933594 C 42.371094 28.714844 42.546875 28.449219 42.714844 28.199219 C 42.757812 28.144531 42.742188 28 42.691406 27.960938 C 42.621094 27.894531 42.523438 27.8125 42.386719 27.894531 C 41.53125 28.425781 40.613281 28.835938 39.664062 29.167969 C 38.59375 29.546875 37.75 30.207031 37.121094 31.148438 C 37.039062 31.269531 36.953125 31.390625 36.871094 31.519531 C 36.21875 32.539062 35.390625 33.355469 34.246094 33.828125 C 33.644531 34.085938 33.054688 34.398438 32.46875 34.707031 C 31.742188 35.085938 31.140625 35.609375 30.582031 36.210938 C 30.148438 36.695312 29.730469 37.195312 29.160156 37.546875 C 28.773438 37.789062 28.441406 38.144531 28.113281 38.464844 C 27.394531 39.160156 26.6875 39.859375 25.976562 40.558594 C 25.914062 40.632812 25.832031 40.6875 25.730469 40.785156 Z M 25.730469 40.785156 " fill-opacity="1" fill-rule="nonzero"/><g clip-path="url(#f6d1b6ee63)"><path fill="#6f2834" d="M 44.0625 26.300781 C 44.011719 25.898438 43.882812 25.550781 43.699219 25.214844 C 43.667969 25.15625 43.640625 25.0625 43.667969 25.003906 C 44.035156 24.265625 44.191406 23.46875 44.34375 22.660156 C 44.609375 21.253906 44.519531 19.867188 44.101562 18.492188 C 44.046875 18.3125 44.011719 18.128906 43.980469 17.945312 C 43.933594 17.6875 43.964844 17.429688 44.117188 17.21875 C 44.625 16.496094 44.707031 15.699219 44.640625 14.84375 C 44.59375 14.199219 44.601562 13.546875 44.625 12.902344 C 44.632812 12.636719 44.695312 12.355469 44.785156 12.105469 C 45.246094 10.929688 45.148438 9.730469 44.90625 8.53125 C 44.859375 8.304688 44.800781 8.089844 44.730469 7.878906 C 44.707031 7.808594 44.609375 7.75 44.550781 7.6875 C 44.527344 7.765625 44.480469 7.855469 44.488281 7.9375 C 44.535156 8.570312 44.625 9.207031 44.648438 9.851562 C 44.671875 10.488281 44.519531 11.09375 44.199219 11.65625 C 43.964844 12.058594 43.820312 12.5 43.789062 12.960938 C 43.769531 13.226562 43.804688 13.507812 43.867188 13.765625 C 44.019531 14.335938 44.078125 14.910156 44.070312 15.496094 C 44.0625 15.828125 43.988281 16.148438 43.769531 16.40625 C 43.199219 17.097656 43.160156 17.878906 43.3125 18.714844 C 43.480469 19.660156 43.59375 20.609375 43.472656 21.558594 C 43.375 22.332031 43.175781 23.097656 43 23.851562 C 42.910156 24.222656 42.804688 24.585938 42.863281 24.964844 C 42.886719 25.109375 42.980469 25.238281 43.03125 25.382812 C 43.078125 25.511719 43.117188 25.648438 43.144531 25.785156 C 43.214844 26.210938 43.160156 26.621094 42.910156 26.992188 C 42.863281 27.074219 42.835938 27.226562 42.878906 27.292969 C 42.925781 27.371094 43.0625 27.4375 43.160156 27.4375 C 43.464844 27.429688 43.683594 27.226562 43.8125 26.976562 C 43.941406 26.785156 43.988281 26.535156 44.0625 26.300781 Z M 44.0625 26.300781 " fill-opacity="1" fill-rule="nonzero"/></g><path fill="#6f2834" d="M 42.621094 21.710938 C 42.515625 21.945312 42.433594 22.179688 42.304688 22.386719 C 41.878906 23.082031 41.25 23.554688 40.535156 23.910156 C 40.019531 24.167969 39.480469 24.382812 38.980469 24.667969 C 38.699219 24.828125 38.457031 25.070312 38.214844 25.277344 C 38.144531 25.34375 38.085938 25.4375 38.046875 25.535156 C 37.734375 26.316406 37.097656 26.75 36.363281 27.058594 C 35.6875 27.347656 34.972656 27.558594 34.296875 27.839844 C 33.417969 28.207031 32.507812 28.492188 31.710938 29.03125 C 31.324219 29.296875 30.96875 29.578125 30.726562 29.980469 C 30.421875 30.496094 29.957031 30.746094 29.390625 30.859375 C 29.238281 30.890625 29.085938 30.921875 28.941406 30.980469 C 28.738281 31.058594 28.660156 31.210938 28.707031 31.429688 C 28.738281 31.558594 28.707031 31.65625 28.59375 31.703125 C 28.351562 31.816406 28.113281 31.929688 27.863281 32.007812 C 27.613281 32.089844 27.347656 32.136719 27.089844 32.203125 C 26.792969 32.28125 26.664062 32.445312 26.6875 32.75 C 26.695312 32.902344 26.628906 33 26.515625 33.070312 C 26.378906 33.167969 26.234375 33.257812 26.105469 33.363281 C 25.960938 33.484375 25.847656 33.636719 25.9375 33.835938 C 25.996094 33.988281 26.203125 34.070312 26.421875 34.039062 C 26.847656 33.980469 27.363281 33.515625 27.410156 33.089844 C 27.433594 32.917969 27.507812 32.886719 27.644531 32.847656 C 28.039062 32.71875 28.433594 32.589844 28.804688 32.417969 C 29.085938 32.289062 29.289062 32.058594 29.351562 31.726562 C 29.359375 31.679688 29.441406 31.628906 29.496094 31.613281 C 29.640625 31.582031 29.785156 31.566406 29.9375 31.542969 C 30.558594 31.445312 31.035156 31.140625 31.421875 30.640625 C 32.355469 29.457031 33.570312 28.652344 34.964844 28.097656 C 35.460938 27.894531 35.976562 27.75 36.492188 27.589844 C 37.167969 27.378906 37.742188 26.992188 38.230469 26.484375 C 38.34375 26.375 38.441406 26.226562 38.503906 26.082031 C 38.625 25.792969 38.828125 25.578125 39.085938 25.421875 C 39.558594 25.132812 40.035156 24.851562 40.527344 24.585938 C 41.179688 24.238281 41.742188 23.78125 42.183594 23.199219 C 42.402344 22.910156 42.546875 22.566406 42.691406 22.226562 C 42.78125 22 42.734375 21.847656 42.621094 21.710938 Z M 42.621094 21.710938 " fill-opacity="1" fill-rule="nonzero"/><path fill="#6f2834" d="M 35.269531 22.285156 C 35.710938 22.203125 36.148438 22.121094 36.574219 22.042969 C 37.097656 21.9375 37.570312 21.734375 38.015625 21.4375 C 38.34375 21.210938 38.570312 20.914062 38.660156 20.519531 C 38.699219 20.335938 38.796875 20.214844 38.964844 20.140625 C 39.277344 20.011719 39.585938 19.882812 39.90625 19.78125 C 40.625 19.546875 41.292969 19.238281 41.832031 18.691406 C 41.894531 18.628906 41.960938 18.554688 42.007812 18.449219 C 41.96875 18.476562 41.925781 18.492188 41.886719 18.515625 C 41.257812 19.015625 40.542969 19.265625 39.746094 19.351562 C 39.277344 19.402344 38.820312 19.480469 38.425781 19.761719 C 38.289062 19.859375 38.144531 19.980469 38.054688 20.125 C 37.84375 20.488281 37.546875 20.738281 37.175781 20.898438 C 36.636719 21.132812 36.082031 21.339844 35.542969 21.566406 C 35.375 21.640625 35.210938 21.71875 35.058594 21.816406 C 34.90625 21.90625 34.816406 22.042969 34.828125 22.234375 C 34.828125 22.484375 34.707031 22.652344 34.488281 22.78125 C 34.183594 22.96875 33.84375 23.039062 33.488281 23.082031 C 33.304688 23.105469 33.121094 23.128906 32.933594 23.167969 C 32.75 23.210938 32.621094 23.320312 32.570312 23.507812 C 32.53125 23.691406 32.410156 23.8125 32.257812 23.902344 C 31.992188 24.054688 31.71875 24.144531 31.40625 24.136719 C 31.105469 24.128906 30.808594 24.109375 30.511719 24.117188 C 30.1875 24.136719 30.09375 24.246094 30.011719 24.554688 C 29.929688 24.875 29.746094 25.148438 29.480469 25.34375 C 28.949219 25.722656 28.386719 26.066406 27.878906 26.46875 C 27.402344 26.847656 26.976562 27.28125 26.527344 27.695312 C 26.371094 27.839844 26.226562 28 26.074219 28.144531 C 26.042969 28.175781 26.011719 28.207031 25.976562 28.242188 C 25.753906 28.492188 25.695312 28.742188 25.832031 28.925781 C 25.953125 29.101562 26.242188 29.160156 26.527344 29.054688 C 26.832031 28.941406 27.015625 28.707031 27.144531 28.417969 C 27.234375 28.234375 27.316406 28.054688 27.402344 27.871094 C 27.582031 27.523438 27.863281 27.28125 28.175781 27.066406 C 28.730469 26.679688 29.296875 26.292969 29.820312 25.867188 C 30.085938 25.648438 30.285156 25.351562 30.488281 25.070312 C 30.566406 24.957031 30.640625 24.925781 30.777344 24.933594 C 31.316406 24.980469 31.855469 24.964844 32.355469 24.722656 C 32.75 24.539062 33.085938 24.304688 33.199219 23.84375 C 33.207031 23.804688 33.328125 23.757812 33.402344 23.757812 C 33.859375 23.75 34.304688 23.660156 34.707031 23.425781 C 35.132812 23.167969 35.339844 22.816406 35.269531 22.308594 C 35.261719 22.300781 35.269531 22.273438 35.269531 22.285156 Z M 35.269531 22.285156 " fill-opacity="1" fill-rule="nonzero"/><path fill="#6f2834" d="M 24.632812 17.203125 C 24.5625 17.097656 24.496094 16.992188 24.40625 16.90625 C 23.417969 15.800781 22.265625 14.917969 20.9375 14.257812 C 19.441406 13.515625 17.855469 13.121094 16.1875 13.074219 C 15.792969 13.066406 15.398438 13.128906 15.011719 13.160156 C 14.964844 13.160156 14.921875 13.175781 14.882812 13.195312 C 14.65625 13.257812 14.539062 13.386719 14.539062 13.554688 C 14.539062 13.726562 14.648438 13.878906 14.882812 13.917969 C 15.171875 13.972656 15.472656 14.015625 15.769531 14.03125 C 16.164062 14.054688 16.558594 14.046875 16.953125 14.046875 C 19.398438 14.039062 21.574219 14.84375 23.507812 16.324219 C 23.875 16.613281 24.238281 16.914062 24.609375 17.210938 C 24.617188 17.210938 24.625 17.210938 24.632812 17.203125 Z M 24.632812 17.203125 " fill-opacity="1" fill-rule="nonzero"/><path fill="#6f2834" d="M 10.945312 30.367188 C 11.082031 30.558594 11.203125 30.769531 11.363281 30.9375 C 13.144531 32.796875 15.09375 34.441406 17.429688 35.582031 C 17.703125 35.710938 17.992188 35.808594 18.28125 35.898438 C 18.523438 35.96875 18.691406 35.890625 18.765625 35.730469 C 18.835938 35.566406 18.773438 35.390625 18.554688 35.253906 C 18.34375 35.117188 18.121094 34.980469 17.886719 34.898438 C 15.777344 34.117188 13.949219 32.886719 12.234375 31.460938 C 11.800781 31.097656 11.390625 30.730469 10.960938 30.359375 C 10.960938 30.351562 10.953125 30.359375 10.945312 30.367188 Z M 10.945312 30.367188 " fill-opacity="1" fill-rule="nonzero"/><path fill="#6f2834" d="M 21.429688 35.824219 C 21.527344 35.761719 21.671875 35.722656 21.71875 35.625 C 21.800781 35.480469 21.679688 35.367188 21.558594 35.300781 C 21.292969 35.164062 21.035156 35.019531 20.761719 34.90625 C 19.941406 34.5625 19.109375 34.253906 18.304688 33.886719 C 17.8125 33.667969 17.363281 33.363281 16.894531 33.105469 C 16.816406 33.054688 16.71875 33.015625 16.628906 32.984375 C 16.597656 32.976562 16.542969 32.992188 16.535156 33.015625 C 16.519531 33.039062 16.527344 33.097656 16.542969 33.121094 C 16.589844 33.191406 16.648438 33.257812 16.703125 33.3125 C 17.941406 34.554688 19.441406 35.34375 21.140625 35.753906 C 21.226562 35.777344 21.316406 35.777344 21.40625 35.785156 C 21.414062 35.800781 21.421875 35.808594 21.429688 35.824219 Z M 21.429688 35.824219 " fill-opacity="1" fill-rule="nonzero"/><path fill="#6f2834" d="M 17.53125 12.332031 C 17.4375 12.292969 17.347656 12.226562 17.242188 12.210938 C 16.800781 12.148438 16.363281 12.066406 15.921875 12.042969 C 15.109375 12 14.304688 12.050781 13.515625 12.242188 C 13.257812 12.308594 13.007812 12.429688 12.757812 12.542969 C 12.613281 12.605469 12.492188 12.726562 12.546875 12.910156 C 12.597656 13.089844 12.757812 13.121094 12.910156 13.105469 C 13.144531 13.082031 13.386719 13.066406 13.621094 12.992188 C 14.683594 12.6875 15.753906 12.46875 16.863281 12.414062 C 17.082031 12.40625 17.300781 12.414062 17.515625 12.414062 C 17.523438 12.386719 17.53125 12.355469 17.53125 12.332031 Z M 17.53125 12.332031 " fill-opacity="1" fill-rule="nonzero"/><path fill="#6f2834" d="M 41.316406 13.628906 C 41.257812 13.8125 41.203125 13.992188 41.136719 14.175781 C 40.832031 15.054688 40.375 15.828125 39.714844 16.476562 C 39.519531 16.671875 39.375 16.921875 39.230469 17.15625 C 38.828125 17.773438 38.433594 18.394531 38.054688 19.023438 C 38.007812 19.101562 37.964844 19.246094 38.007812 19.320312 C 38.054688 19.402344 38.191406 19.464844 38.289062 19.464844 C 38.417969 19.457031 38.554688 19.394531 38.660156 19.320312 C 38.957031 19.121094 39.15625 18.828125 39.261719 18.484375 C 39.351562 18.210938 39.433594 17.925781 39.488281 17.636719 C 39.558594 17.277344 39.722656 16.96875 39.980469 16.703125 C 40.792969 15.867188 41.179688 14.828125 41.355469 13.699219 C 41.355469 13.675781 41.355469 13.652344 41.355469 13.628906 C 41.332031 13.636719 41.324219 13.636719 41.316406 13.628906 Z M 41.316406 13.628906 " fill-opacity="1" fill-rule="nonzero"/><path fill="#6f2834" d="M 37.589844 15.472656 C 37.539062 15.601562 37.5 15.722656 37.449219 15.851562 C 37.089844 16.800781 36.535156 17.628906 35.871094 18.394531 C 35.71875 18.578125 35.558594 18.757812 35.398438 18.933594 C 35.316406 19.023438 35.238281 19.144531 35.351562 19.238281 C 35.421875 19.296875 35.589844 19.328125 35.65625 19.28125 C 35.882812 19.144531 36.121094 19 36.277344 18.796875 C 36.960938 17.871094 37.433594 16.839844 37.628906 15.699219 C 37.644531 15.625 37.628906 15.550781 37.628906 15.472656 C 37.621094 15.472656 37.605469 15.472656 37.589844 15.472656 Z M 37.589844 15.472656 " fill-opacity="1" fill-rule="nonzero"/><path fill="#6f2834" d="M 36.128906 8.046875 C 36.40625 8.121094 36.6875 8.203125 36.960938 8.273438 C 37.75 8.492188 38.488281 8.820312 39.199219 9.242188 C 39.328125 9.320312 39.472656 9.386719 39.617188 9.441406 C 39.753906 9.488281 39.890625 9.472656 39.980469 9.335938 C 40.066406 9.191406 40.027344 9.046875 39.90625 8.949219 C 39.707031 8.796875 39.496094 8.644531 39.269531 8.554688 C 38.53125 8.257812 37.742188 8.128906 36.945312 8.046875 C 36.671875 8.023438 36.394531 8.007812 36.128906 7.992188 C 36.140625 8.007812 36.140625 8.023438 36.128906 8.046875 Z M 36.128906 8.046875 " fill-opacity="1" fill-rule="nonzero"/><path fill="#6f2834" d="M 32.289062 8.210938 C 32.8125 8.289062 33.335938 8.371094 33.859375 8.460938 C 34.828125 8.628906 35.726562 8.957031 36.566406 9.488281 C 36.71875 9.585938 36.878906 9.667969 37.054688 9.722656 C 37.128906 9.746094 37.257812 9.707031 37.304688 9.652344 C 37.347656 9.601562 37.332031 9.449219 37.28125 9.410156 C 37.097656 9.257812 36.910156 9.070312 36.6875 8.992188 C 36.121094 8.789062 35.550781 8.582031 34.964844 8.46875 C 34.207031 8.324219 33.425781 8.265625 32.660156 8.175781 C 32.539062 8.160156 32.417969 8.175781 32.296875 8.175781 C 32.289062 8.195312 32.289062 8.203125 32.289062 8.210938 Z M 32.289062 8.210938 " fill-opacity="1" fill-rule="nonzero"/><path fill="#6f2834" d="M 14.34375 11.382812 C 14.207031 11.359375 14.078125 11.316406 13.941406 11.316406 C 13.265625 11.300781 12.613281 11.480469 11.953125 11.625 C 11.847656 11.648438 11.75 11.710938 11.65625 11.769531 C 11.527344 11.839844 11.445312 11.945312 11.484375 12.105469 C 11.527344 12.257812 11.65625 12.285156 11.792969 12.292969 C 12.121094 12.316406 12.410156 12.1875 12.710938 12.066406 C 13.152344 11.882812 13.601562 11.695312 14.054688 11.519531 C 14.144531 11.488281 14.246094 11.46875 14.34375 11.445312 C 14.34375 11.429688 14.34375 11.40625 14.34375 11.382812 Z M 14.34375 11.382812 " fill-opacity="1" fill-rule="nonzero"/><path fill="#6f2834" d="M 35.421875 30.625 C 35.308594 30.808594 35.222656 30.96875 35.117188 31.132812 C 34.609375 31.945312 33.949219 32.613281 33.25 33.257812 C 33.160156 33.335938 33.101562 33.410156 33.160156 33.523438 C 33.222656 33.644531 33.34375 33.660156 33.441406 33.59375 C 33.636719 33.464844 33.84375 33.34375 33.996094 33.175781 C 34.617188 32.445312 35.066406 31.605469 35.414062 30.710938 C 35.429688 30.695312 35.421875 30.671875 35.421875 30.625 Z M 35.421875 30.625 " fill-opacity="1" fill-rule="nonzero"/><path fill="#6f2834" d="M 33.3125 31.847656 C 33.28125 31.886719 33.242188 31.929688 33.207031 31.976562 C 32.78125 32.621094 32.234375 33.144531 31.671875 33.660156 C 31.644531 33.683594 31.613281 33.699219 31.597656 33.722656 C 31.566406 33.796875 31.542969 33.867188 31.507812 33.941406 C 31.589844 33.949219 31.679688 33.972656 31.75 33.949219 C 31.839844 33.925781 31.929688 33.867188 32 33.8125 C 32.613281 33.355469 33.046875 32.765625 33.320312 32.050781 C 33.34375 31.992188 33.351562 31.929688 33.359375 31.871094 C 33.34375 31.863281 33.328125 31.855469 33.3125 31.847656 Z M 33.3125 31.847656 " fill-opacity="1" fill-rule="nonzero"/><path fill="#6f2834" d="M 34.261719 18.621094 C 34.269531 18.457031 34.167969 18.394531 34.039062 18.46875 C 33.988281 18.492188 33.941406 18.523438 33.917969 18.5625 C 33.699219 18.925781 33.480469 19.296875 33.289062 19.667969 C 33.257812 19.722656 33.289062 19.859375 33.34375 19.898438 C 33.394531 19.941406 33.53125 19.925781 33.585938 19.882812 C 33.964844 19.539062 34.175781 19.101562 34.261719 18.621094 Z M 34.261719 18.621094 " fill-opacity="1" fill-rule="nonzero"/><path fill="#6f2834" d="M 28.570312 12.082031 C 28.796875 12.035156 28.957031 11.921875 28.980469 11.761719 C 29.003906 11.597656 28.882812 11.429688 28.675781 11.398438 C 28.488281 11.375 28.289062 11.375 28.105469 11.40625 C 27.886719 11.445312 27.839844 11.664062 28.015625 11.792969 C 28.183594 11.921875 28.386719 11.992188 28.570312 12.082031 Z M 28.570312 12.082031 " fill-opacity="1" fill-rule="nonzero"/><path fill="#6f2834" d="M 28.714844 9.242188 C 28.601562 9.320312 28.464844 9.359375 28.433594 9.441406 C 28.402344 9.523438 28.457031 9.683594 28.523438 9.738281 C 28.644531 9.851562 28.804688 9.941406 28.964844 9.988281 C 29.09375 10.03125 29.246094 9.972656 29.277344 9.828125 C 29.304688 9.714844 29.277344 9.546875 29.207031 9.480469 C 29.070312 9.378906 28.894531 9.328125 28.714844 9.242188 Z M 28.714844 9.242188 " fill-opacity="1" fill-rule="nonzero"/><path fill="#6f2834" d="M 24.527344 6.640625 C 24.617188 6.632812 24.683594 6.625 24.738281 6.609375 C 24.875 6.574219 24.980469 6.496094 24.980469 6.34375 C 24.980469 6.179688 24.867188 6.058594 24.730469 6.078125 C 24.496094 6.09375 24.261719 6.140625 24.046875 6.222656 C 23.894531 6.277344 23.925781 6.488281 24.09375 6.542969 C 24.238281 6.589844 24.398438 6.609375 24.527344 6.640625 Z M 24.527344 6.640625 " fill-opacity="1" fill-rule="nonzero"/><path fill="#6f2834" d="M 26.398438 6.527344 C 26.644531 6.738281 26.902344 6.921875 27.234375 6.976562 C 27.371094 7.003906 27.492188 6.929688 27.539062 6.792969 C 27.589844 6.664062 27.53125 6.550781 27.417969 6.472656 C 27.25 6.359375 26.582031 6.382812 26.398438 6.527344 Z M 26.398438 6.527344 " fill-opacity="1" fill-rule="nonzero"/><path fill="#6f2834" d="M 30.382812 10.671875 C 30.238281 10.699219 30.035156 10.671875 29.972656 10.882812 C 29.929688 11.011719 30.078125 11.15625 30.316406 11.246094 C 30.488281 11.308594 30.671875 11.339844 30.800781 11.1875 C 30.855469 11.125 30.875 10.980469 30.847656 10.890625 C 30.800781 10.738281 30.625 10.664062 30.382812 10.671875 Z M 30.382812 10.671875 " fill-opacity="1" fill-rule="nonzero"/><path fill="#6f2834" d="M 24.527344 12.421875 C 24.40625 12.421875 24.289062 12.460938 24.289062 12.636719 C 24.289062 12.871094 24.5625 13.144531 24.792969 13.136719 C 24.972656 13.136719 25.09375 13.007812 25.09375 12.847656 C 25.09375 12.628906 24.835938 12.429688 24.527344 12.421875 Z M 24.527344 12.421875 " fill-opacity="1" fill-rule="nonzero"/><path fill="#6f2834" d="M 25.855469 8.402344 C 25.703125 8.425781 25.632812 8.515625 25.710938 8.636719 C 25.808594 8.796875 25.921875 8.949219 26.066406 9.0625 C 26.210938 9.183594 26.421875 9.136719 26.507812 8.992188 C 26.597656 8.847656 26.550781 8.644531 26.371094 8.5625 C 26.203125 8.5 26.027344 8.460938 25.855469 8.402344 Z M 25.855469 8.402344 " fill-opacity="1" fill-rule="nonzero"/><path fill="#6f2834" d="M 28.121094 8.523438 C 28.304688 8.523438 28.449219 8.402344 28.441406 8.242188 C 28.441406 8.046875 28.214844 7.878906 27.949219 7.871094 C 27.75 7.871094 27.621094 7.960938 27.621094 8.121094 C 27.628906 8.304688 27.886719 8.515625 28.121094 8.523438 Z M 28.121094 8.523438 " fill-opacity="1" fill-rule="nonzero"/><path fill="#6f2834" d="M 26.1875 12.347656 C 26.210938 12.605469 26.363281 12.6875 26.507812 12.757812 C 26.644531 12.824219 26.792969 12.832031 26.902344 12.726562 C 27.007812 12.628906 27.015625 12.507812 26.953125 12.386719 C 26.871094 12.234375 26.582031 12.113281 26.390625 12.179688 C 26.308594 12.210938 26.234375 12.300781 26.1875 12.347656 Z M 26.1875 12.347656 " fill-opacity="1" fill-rule="nonzero"/><path fill="#6f2834" d="M 30.746094 9.207031 C 30.503906 9.242188 30.414062 9.378906 30.527344 9.570312 C 30.589844 9.675781 30.679688 9.78125 30.785156 9.851562 C 30.929688 9.957031 31.113281 9.933594 31.203125 9.8125 C 31.292969 9.691406 31.277344 9.496094 31.140625 9.394531 C 31.027344 9.320312 30.882812 9.273438 30.746094 9.207031 Z M 30.746094 9.207031 " fill-opacity="1" fill-rule="nonzero"/><path fill="#6f2834" d="M 28.320312 13.613281 C 28.539062 13.613281 28.714844 13.46875 28.707031 13.289062 C 28.699219 13.128906 28.554688 13.007812 28.351562 13.007812 C 28.121094 13.007812 27.910156 13.160156 27.917969 13.332031 C 27.917969 13.492188 28.09375 13.613281 28.320312 13.613281 Z M 28.320312 13.613281 " fill-opacity="1" fill-rule="nonzero"/><path fill="#6f2834" d="M 30.398438 12.71875 C 30.625 12.71875 30.847656 12.542969 30.847656 12.363281 C 30.847656 12.21875 30.71875 12.113281 30.535156 12.113281 C 30.300781 12.113281 30.085938 12.285156 30.09375 12.460938 C 30.09375 12.613281 30.222656 12.71875 30.398438 12.71875 Z M 30.398438 12.71875 " fill-opacity="1" fill-rule="nonzero"/><path fill="#6f2834" d="M 27.242188 10.191406 C 27.179688 10.230469 27.039062 10.261719 27.023438 10.335938 C 27 10.414062 27.074219 10.535156 27.128906 10.617188 C 27.179688 10.679688 27.257812 10.730469 27.332031 10.761719 C 27.507812 10.835938 27.683594 10.769531 27.742188 10.625 C 27.789062 10.480469 27.710938 10.328125 27.539062 10.261719 C 27.453125 10.222656 27.371094 10.214844 27.242188 10.191406 Z M 27.242188 10.191406 " fill-opacity="1" fill-rule="nonzero"/><path fill="#6f2834" d="M 32.105469 10.875 C 31.96875 10.964844 31.792969 11.011719 31.75 11.117188 C 31.6875 11.277344 31.855469 11.375 31.984375 11.445312 C 32.113281 11.519531 32.257812 11.542969 32.363281 11.421875 C 32.417969 11.351562 32.46875 11.195312 32.425781 11.132812 C 32.371094 11.035156 32.234375 10.980469 32.105469 10.875 Z M 32.105469 10.875 " fill-opacity="1" fill-rule="nonzero"/><path fill="#6f2834" d="M 25.277344 10.738281 C 25.214844 10.777344 25.125 10.800781 25.109375 10.859375 C 25.085938 10.90625 25.109375 11.003906 25.140625 11.050781 C 25.230469 11.15625 25.324219 11.253906 25.4375 11.316406 C 25.558594 11.390625 25.695312 11.367188 25.777344 11.230469 C 25.847656 11.09375 25.808594 10.964844 25.679688 10.890625 C 25.566406 10.828125 25.421875 10.792969 25.277344 10.738281 Z M 25.277344 10.738281 " fill-opacity="1" fill-rule="nonzero"/><path fill="#6f2834" d="M 29.683594 7.710938 C 29.617188 7.742188 29.519531 7.757812 29.503906 7.808594 C 29.480469 7.863281 29.503906 7.960938 29.542969 8.007812 C 29.617188 8.097656 29.707031 8.175781 29.800781 8.234375 C 29.914062 8.296875 30.042969 8.304688 30.125 8.175781 C 30.203125 8.039062 30.140625 7.921875 30.019531 7.847656 C 29.921875 7.78125 29.800781 7.757812 29.683594 7.710938 Z M 29.683594 7.710938 " fill-opacity="1" fill-rule="nonzero"/></svg>