<svg xmlns="http://www.w3.org/2000/svg" xmlns:xlink="http://www.w3.org/1999/xlink" width="200" zoomAndPan="magnify" viewBox="0 0 150 30.000001" height="40" preserveAspectRatio="xMidYMid meet" version="1.0"><defs><clipPath id="c36a55d0a6"><path d="M 2.417969 12 L 63 12 L 63 16 L 2.417969 16 Z M 2.417969 12 " clip-rule="nonzero"/></clipPath><clipPath id="04aed391c3"><path d="M 70 13 L 80 13 L 80 22.136719 L 70 22.136719 Z M 70 13 " clip-rule="nonzero"/></clipPath><clipPath id="77c8856a89"><path d="M 2.417969 6.894531 L 75 6.894531 L 75 18 L 2.417969 18 Z M 2.417969 6.894531 " clip-rule="nonzero"/></clipPath><clipPath id="104fdc4b53"><path d="M 62 6.894531 L 70 6.894531 L 70 17 L 62 17 Z M 62 6.894531 " clip-rule="nonzero"/></clipPath><clipPath id="7b86a8a427"><path d="M 87 12 L 147.578125 12 L 147.578125 16 L 87 16 Z M 87 12 " clip-rule="nonzero"/></clipPath><clipPath id="eece6e05bc"><path d="M 75 6.894531 L 147.578125 6.894531 L 147.578125 18 L 75 18 Z M 75 6.894531 " clip-rule="nonzero"/></clipPath></defs><g clip-path="url(#c36a55d0a6)"><path fill="#e18e9e" d="M 62.347656 12.617188 L 2.417969 15.066406 L 31.128906 14.488281 L 62.421875 13.207031 C 62.390625 13.011719 62.367188 12.816406 62.347656 12.617188 Z M 62.347656 12.617188 " fill-opacity="1" fill-rule="nonzero"/></g><g clip-path="url(#04aed391c3)"><path fill="#e18e9e" d="M 75 22.121094 C 74.511719 20.910156 74.222656 19.367188 74.222656 17.691406 C 74.222656 17.3125 74.238281 16.9375 74.265625 16.574219 C 74.035156 16.945312 73.75 17.289062 73.410156 17.59375 C 72.613281 18.253906 71.628906 18.613281 70.59375 18.4375 C 71.421875 17.875 72.164062 17.28125 72.851562 16.554688 C 72.972656 16.417969 73.089844 16.28125 73.210938 16.136719 C 73.648438 15.578125 74.019531 15 74.363281 14.378906 L 74.972656 13.324219 L 75 13.257812 L 75.027344 13.324219 L 75.636719 14.378906 C 75.980469 15 76.351562 15.578125 76.789062 16.136719 C 76.910156 16.28125 77.03125 16.417969 77.148438 16.554688 C 77.835938 17.28125 78.578125 17.875 79.40625 18.4375 C 78.371094 18.613281 77.386719 18.253906 76.589844 17.59375 C 76.25 17.289062 75.964844 16.949219 75.738281 16.578125 C 75.765625 16.941406 75.78125 17.3125 75.78125 17.691406 C 75.78125 19.367188 75.488281 20.910156 75 22.121094 Z M 75 22.121094 " fill-opacity="1" fill-rule="evenodd"/></g><g clip-path="url(#77c8856a89)"><path fill="#e18e9e" d="M 75 9.726562 C 74.273438 15.375 67.027344 19.574219 64.183594 14.648438 C 65.871094 14.328125 67.082031 13.636719 67.886719 12.808594 C 68.683594 11.984375 69.203125 10.882812 69.152344 9.722656 C 69.085938 8.050781 67.820312 6.902344 66.152344 6.941406 C 64.640625 6.976562 63.488281 7.996094 62.964844 9.371094 C 62.566406 10.417969 62.445312 11.84375 62.808594 13.699219 L 2.417969 14.953125 L 55.152344 14.953125 C 57.648438 14.953125 60.65625 14.996094 63.070312 14.796875 C 66.453125 20.941406 74.976562 17.273438 75 9.726562 Z M 63.914062 13.5625 C 63.574219 11.902344 63.664062 10.65625 64.003906 9.769531 C 64.507812 8.574219 65.363281 7.660156 66.476562 7.542969 C 67.589844 7.421875 68.324219 8.136719 68.28125 9.351562 C 68.246094 10.324219 67.746094 11.292969 67.085938 12.035156 C 66.417969 12.722656 65.382812 13.296875 63.914062 13.5625 Z M 63.914062 13.5625 " fill-opacity="1" fill-rule="nonzero"/></g><g clip-path="url(#104fdc4b53)"><path fill="#e18e9e" d="M 66.175781 16.507812 C 65.40625 16.175781 64.71875 15.574219 64.183594 14.648438 C 65.871094 14.328125 67.082031 13.636719 67.886719 12.808594 C 68.472656 12.203125 68.90625 11.449219 69.078125 10.628906 L 68.320312 7.757812 C 67.78125 7.226562 67.023438 6.921875 66.152344 6.941406 C 64.640625 6.976562 63.488281 7.996094 62.964844 9.371094 C 62.566406 10.417969 62.445312 11.84375 62.808594 13.699219 L 62.5625 13.703125 L 62.855469 14.8125 L 63.070312 14.796875 C 63.5625 15.6875 64.160156 16.371094 64.824219 16.867188 Z M 63.914062 13.5625 C 63.574219 11.902344 63.664062 10.65625 64.003906 9.769531 C 64.507812 8.574219 65.363281 7.660156 66.476562 7.542969 C 67.589844 7.421875 68.324219 8.136719 68.28125 9.351562 C 68.246094 10.324219 67.746094 11.292969 67.085938 12.035156 C 66.417969 12.722656 65.382812 13.296875 63.914062 13.5625 Z M 63.914062 13.5625 " fill-opacity="1" fill-rule="nonzero"/></g><g clip-path="url(#7b86a8a427)"><path fill="#e18e9e" d="M 87.65625 12.617188 L 147.582031 15.066406 L 118.871094 14.488281 L 87.578125 13.207031 C 87.609375 13.011719 87.632812 12.816406 87.65625 12.617188 Z M 87.65625 12.617188 " fill-opacity="1" fill-rule="nonzero"/></g><g clip-path="url(#eece6e05bc)"><path fill="#e18e9e" d="M 75 9.726562 C 75.730469 15.375 82.972656 19.574219 85.816406 14.648438 C 84.132812 14.328125 82.917969 13.636719 82.117188 12.808594 C 81.320312 11.984375 80.800781 10.882812 80.847656 9.722656 C 80.917969 8.050781 82.183594 6.902344 83.847656 6.941406 C 85.359375 6.976562 86.511719 7.996094 87.035156 9.371094 C 87.433594 10.417969 87.558594 11.84375 87.191406 13.699219 L 147.582031 14.953125 L 94.847656 14.953125 C 92.351562 14.953125 89.34375 14.996094 86.929688 14.796875 C 83.546875 20.941406 75.023438 17.273438 75 9.726562 Z M 86.085938 13.5625 C 86.429688 11.902344 86.335938 10.65625 85.996094 9.769531 C 85.496094 8.574219 84.636719 7.660156 83.527344 7.542969 C 82.410156 7.421875 81.675781 8.136719 81.71875 9.351562 C 81.757812 10.324219 82.253906 11.292969 82.917969 12.035156 C 83.585938 12.722656 84.617188 13.296875 86.085938 13.5625 Z M 86.085938 13.5625 " fill-opacity="1" fill-rule="nonzero"/></g></svg>