<svg xmlns="http://www.w3.org/2000/svg" xmlns:xlink="http://www.w3.org/1999/xlink" width="200" zoomAndPan="magnify" viewBox="0 0 150 30.000001" height="40" preserveAspectRatio="xMidYMid meet" version="1.0"><defs><g/><clipPath id="0b61f959a4"><path d="M 115 2.210938 L 122.640625 2.210938 L 122.640625 20 L 115 20 Z M 115 2.210938 " clip-rule="nonzero"/></clipPath><clipPath id="9f9a206aa1"><path d="M 110 2.210938 L 120 2.210938 L 120 20.359375 L 110 20.359375 Z M 110 2.210938 " clip-rule="nonzero"/></clipPath><clipPath id="92444eb44a"><path d="M 105.945312 11 L 111 11 L 111 16 L 105.945312 16 Z M 105.945312 11 " clip-rule="nonzero"/></clipPath></defs><g fill="#f8c8dc" fill-opacity="1"><g transform="translate(27.617967, 19.493662)"><g><path d="M 8.171875 -6.21875 L 6.390625 -6.234375 C 4.929688 -6.234375 3.789062 -5.878906 2.96875 -5.171875 C 2.007812 -4.359375 1.53125 -3.410156 1.53125 -2.328125 C 1.53125 -1.816406 1.644531 -1.347656 1.875 -0.921875 C 2.113281 -0.492188 2.539062 -0.144531 3.15625 0.125 C 3.769531 0.40625 4.597656 0.546875 5.640625 0.546875 C 6.691406 0.546875 7.796875 0.328125 8.953125 -0.109375 C 10.117188 -0.554688 11.097656 -1.085938 11.890625 -1.703125 C 12.804688 -2.410156 13.265625 -3.03125 13.265625 -3.5625 C 13.265625 -3.820312 13.128906 -3.976562 12.859375 -4.03125 C 12.597656 -4.09375 12.457031 -4.164062 12.4375 -4.25 C 12.414062 -4.34375 12.5 -4.382812 12.6875 -4.375 C 12.875 -4.363281 13.03125 -4.328125 13.15625 -4.265625 C 13.65625 -3.992188 13.90625 -3.648438 13.90625 -3.234375 C 13.90625 -2.617188 13.472656 -1.972656 12.609375 -1.296875 C 11.753906 -0.617188 10.675781 -0.0820312 9.375 0.3125 C 8.070312 0.707031 6.847656 0.90625 5.703125 0.90625 C 4.566406 0.90625 3.644531 0.796875 2.9375 0.578125 C 1.6875 0.191406 0.875 -0.519531 0.5 -1.5625 C 0.394531 -1.820312 0.34375 -2.070312 0.34375 -2.3125 C 0.34375 -2.5625 0.382812 -2.863281 0.46875 -3.21875 C 0.5625 -3.582031 0.765625 -3.992188 1.078125 -4.453125 C 1.390625 -4.921875 1.835938 -5.351562 2.421875 -5.75 C 3.003906 -6.15625 3.628906 -6.453125 4.296875 -6.640625 C 4.972656 -6.835938 5.578125 -6.945312 6.109375 -6.96875 C 5.554688 -7.164062 5.082031 -7.441406 4.6875 -7.796875 C 4.300781 -8.148438 4.109375 -8.53125 4.109375 -8.9375 C 4.109375 -8.976562 4.109375 -9.015625 4.109375 -9.046875 C 4.191406 -9.941406 4.695312 -10.742188 5.625 -11.453125 C 6.550781 -12.171875 7.523438 -12.664062 8.546875 -12.9375 C 9.566406 -13.207031 10.445312 -13.34375 11.1875 -13.34375 C 11.414062 -13.34375 11.640625 -13.332031 11.859375 -13.3125 C 12.773438 -13.195312 13.429688 -12.960938 13.828125 -12.609375 C 14.234375 -12.265625 14.4375 -11.914062 14.4375 -11.5625 C 14.4375 -11.0625 14.148438 -10.582031 13.578125 -10.125 C 13.015625 -9.664062 12.328125 -9.347656 11.515625 -9.171875 C 11.316406 -9.128906 11.148438 -9.109375 11.015625 -9.109375 C 10.890625 -9.109375 10.835938 -9.140625 10.859375 -9.203125 C 10.898438 -9.335938 11.085938 -9.425781 11.421875 -9.46875 C 11.753906 -9.507812 12.070312 -9.640625 12.375 -9.859375 C 13 -10.304688 13.351562 -10.890625 13.4375 -11.609375 C 13.4375 -11.648438 13.4375 -11.6875 13.4375 -11.71875 C 13.4375 -11.988281 13.304688 -12.242188 13.046875 -12.484375 C 12.710938 -12.785156 12.148438 -12.9375 11.359375 -12.9375 C 10.578125 -12.9375 9.765625 -12.8125 8.921875 -12.5625 C 8.085938 -12.320312 7.316406 -11.910156 6.609375 -11.328125 C 5.765625 -10.640625 5.34375 -9.894531 5.34375 -9.09375 C 5.34375 -8.769531 5.4375 -8.472656 5.625 -8.203125 C 5.820312 -7.941406 6.101562 -7.75 6.46875 -7.625 C 6.84375 -7.5 7.21875 -7.390625 7.59375 -7.296875 C 8.445312 -7.117188 8.875 -6.890625 8.875 -6.609375 C 8.875 -6.347656 8.640625 -6.21875 8.171875 -6.21875 Z M 8.171875 -6.21875 "/></g></g></g><g fill="#f8c8dc" fill-opacity="1"><g transform="translate(41.137638, 19.493662)"><g><path d="M 1.859375 -3.203125 C 1.847656 -3.160156 1.796875 -3.007812 1.703125 -2.75 C 1.617188 -2.488281 1.546875 -2.238281 1.484375 -2 C 1.421875 -1.757812 1.390625 -1.519531 1.390625 -1.28125 C 1.390625 -1.039062 1.441406 -0.816406 1.546875 -0.609375 C 1.660156 -0.410156 1.84375 -0.3125 2.09375 -0.3125 C 2.488281 -0.3125 2.875 -0.578125 3.25 -1.109375 C 3.625 -1.648438 4.023438 -2.335938 4.453125 -3.171875 C 4.535156 -3.328125 4.617188 -3.390625 4.703125 -3.359375 C 4.753906 -3.304688 4.757812 -3.242188 4.71875 -3.171875 C 4.6875 -3.097656 4.617188 -2.941406 4.515625 -2.703125 C 4.410156 -2.472656 4.332031 -2.3125 4.28125 -2.21875 C 4.238281 -2.125 4.148438 -1.957031 4.015625 -1.71875 C 3.890625 -1.476562 3.78125 -1.300781 3.6875 -1.1875 C 3.59375 -1.070312 3.460938 -0.921875 3.296875 -0.734375 C 3.140625 -0.554688 2.992188 -0.421875 2.859375 -0.328125 C 2.460938 -0.0859375 2.09375 0.03125 1.75 0.03125 C 1.414062 0.03125 1.15625 -0.0390625 0.96875 -0.1875 C 0.78125 -0.34375 0.664062 -0.503906 0.625 -0.671875 C 0.582031 -0.835938 0.5625 -0.988281 0.5625 -1.125 C 0.5625 -1.257812 0.566406 -1.429688 0.578125 -1.640625 C 0.609375 -1.992188 0.675781 -2.335938 0.78125 -2.671875 C 0.894531 -3.003906 0.957031 -3.191406 0.96875 -3.234375 C 1.21875 -4.148438 1.578125 -5.148438 2.046875 -6.234375 C 2.515625 -7.316406 2.910156 -8.132812 3.234375 -8.6875 C 3.566406 -9.238281 3.828125 -9.613281 4.015625 -9.8125 C 4.390625 -10.207031 4.757812 -10.40625 5.125 -10.40625 C 5.382812 -10.40625 5.554688 -10.222656 5.640625 -9.859375 C 5.648438 -9.785156 5.65625 -9.703125 5.65625 -9.609375 C 5.65625 -9.234375 5.523438 -8.757812 5.265625 -8.1875 C 4.304688 -6.070312 3.171875 -4.410156 1.859375 -3.203125 Z M 1.984375 -3.734375 C 2.554688 -4.304688 3.117188 -5.03125 3.671875 -5.90625 C 4.222656 -6.78125 4.628906 -7.523438 4.890625 -8.140625 C 5.148438 -8.753906 5.28125 -9.171875 5.28125 -9.390625 C 5.28125 -9.609375 5.238281 -9.71875 5.15625 -9.71875 C 5.050781 -9.71875 4.84375 -9.5 4.53125 -9.0625 C 4.21875 -8.625 3.796875 -7.835938 3.265625 -6.703125 C 2.742188 -5.578125 2.316406 -4.585938 1.984375 -3.734375 Z M 1.984375 -3.734375 "/></g></g></g><g fill="#f8c8dc" fill-opacity="1"><g transform="translate(44.654414, 19.493662)"><g/></g></g><g fill="#f8c8dc" fill-opacity="1"><g transform="translate(48.95084, 19.493662)"><g><path d="M 2.640625 -7.671875 C 2.109375 -6.515625 1.84375 -5.484375 1.84375 -4.578125 C 1.84375 -2.710938 2.484375 -1.566406 3.765625 -1.140625 C 4.140625 -1.046875 4.523438 -1 4.921875 -1 C 5.316406 -1 5.710938 -1.046875 6.109375 -1.140625 C 6.898438 -1.347656 7.609375 -1.660156 8.234375 -2.078125 C 8.867188 -2.503906 9.269531 -2.910156 9.4375 -3.296875 C 9.882812 -4.328125 10.363281 -4.84375 10.875 -4.84375 C 11.125 -4.84375 11.289062 -4.695312 11.375 -4.40625 C 11.425781 -4.300781 11.441406 -4.179688 11.421875 -4.046875 C 11.304688 -3.179688 11.066406 -2.328125 10.703125 -1.484375 C 10.335938 -0.640625 9.820312 0.328125 9.15625 1.421875 C 10.488281 1.429688 11.703125 1.578125 12.796875 1.859375 C 13.023438 1.910156 13.140625 1.988281 13.140625 2.09375 C 13.140625 2.207031 12.976562 2.226562 12.65625 2.15625 C 11.894531 1.957031 10.796875 1.859375 9.359375 1.859375 C 9.222656 1.859375 9.078125 1.859375 8.921875 1.859375 C 8.253906 2.828125 7.359375 3.6875 6.234375 4.4375 C 5.109375 5.1875 4.015625 5.695312 2.953125 5.96875 C 2.367188 6.125 1.867188 6.203125 1.453125 6.203125 C 1.046875 6.203125 0.707031 6.15625 0.4375 6.0625 C -0.375 5.757812 -0.78125 5.363281 -0.78125 4.875 C -0.78125 4.726562 -0.742188 4.570312 -0.671875 4.40625 C -0.367188 3.75 0.414062 3.140625 1.6875 2.578125 C 2.65625 2.140625 3.671875 1.84375 4.734375 1.6875 C 5.804688 1.53125 7.003906 1.441406 8.328125 1.421875 C 9.148438 0.046875 9.707031 -1.3125 10 -2.65625 L 10.078125 -2.9375 C 9.546875 -2.425781 8.941406 -1.972656 8.265625 -1.578125 C 7.597656 -1.191406 7.015625 -0.921875 6.515625 -0.765625 C 5.722656 -0.503906 5.066406 -0.375 4.546875 -0.375 C 4.035156 -0.375 3.585938 -0.445312 3.203125 -0.59375 C 2.492188 -0.84375 1.914062 -1.332031 1.46875 -2.0625 C 1 -2.832031 0.765625 -3.753906 0.765625 -4.828125 C 0.765625 -5.898438 1.046875 -7.050781 1.609375 -8.28125 C 0.878906 -9.03125 0.515625 -9.828125 0.515625 -10.671875 C 0.515625 -11.523438 0.859375 -12.332031 1.546875 -13.09375 C 1.671875 -13.238281 1.765625 -13.289062 1.828125 -13.25 C 1.890625 -13.207031 1.867188 -13.109375 1.765625 -12.953125 C 1.265625 -12.296875 1.015625 -11.628906 1.015625 -10.953125 C 1.015625 -10.179688 1.300781 -9.457031 1.875 -8.78125 C 1.9375 -8.925781 2.054688 -9.140625 2.234375 -9.421875 C 3.097656 -10.835938 4.269531 -11.921875 5.75 -12.671875 C 6.914062 -13.273438 8.039062 -13.578125 9.125 -13.578125 C 9.425781 -13.578125 9.722656 -13.550781 10.015625 -13.5 C 11.441406 -13.28125 12.40625 -12.695312 12.90625 -11.75 C 13.101562 -11.375 13.203125 -10.96875 13.203125 -10.53125 C 13.203125 -10.09375 13.066406 -9.625 12.796875 -9.125 C 12.171875 -8.050781 11.085938 -7.300781 9.546875 -6.875 C 8.722656 -6.632812 7.882812 -6.515625 7.03125 -6.515625 C 5.238281 -6.515625 3.773438 -6.898438 2.640625 -7.671875 Z M 9.5 -13.0625 C 8.550781 -13.0625 7.546875 -12.738281 6.484375 -12.09375 C 4.921875 -11.164062 3.710938 -9.832031 2.859375 -8.09375 C 3.378906 -7.695312 3.976562 -7.414062 4.65625 -7.25 C 5.332031 -7.082031 5.875 -7 6.28125 -7 C 8.625 -7 10.390625 -7.625 11.578125 -8.875 C 12.179688 -9.519531 12.484375 -10.160156 12.484375 -10.796875 C 12.484375 -11.816406 11.910156 -12.503906 10.765625 -12.859375 C 10.347656 -12.992188 9.925781 -13.0625 9.5 -13.0625 Z M 0.0625 5 C 0.0625 5.300781 0.328125 5.507812 0.859375 5.625 C 1.035156 5.664062 1.226562 5.6875 1.4375 5.6875 C 2.226562 5.6875 3.222656 5.40625 4.421875 4.84375 C 5.953125 4.144531 7.164062 3.15625 8.0625 1.875 C 6.90625 1.90625 5.890625 1.992188 5.015625 2.140625 C 3.753906 2.328125 2.550781 2.785156 1.40625 3.515625 C 0.507812 4.085938 0.0625 4.582031 0.0625 5 Z M 0.0625 5 "/></g></g></g><g fill="#f8c8dc" fill-opacity="1"><g transform="translate(60.546236, 19.493662)"><g><path d="M 3.1875 -6.65625 C 3.1875 -6.15625 2.867188 -5.6875 2.234375 -5.25 C 2.460938 -5.238281 2.757812 -5.234375 3.125 -5.234375 C 3.5 -5.234375 3.96875 -5.257812 4.53125 -5.3125 C 4.550781 -5.28125 4.5625 -5.191406 4.5625 -5.046875 C 4.5625 -4.898438 4.492188 -4.6875 4.359375 -4.40625 C 4.222656 -4.125 4.101562 -3.878906 4 -3.671875 C 3.894531 -3.472656 3.796875 -3.28125 3.703125 -3.09375 C 3.609375 -2.914062 3.503906 -2.691406 3.390625 -2.421875 C 3.273438 -2.160156 3.179688 -1.914062 3.109375 -1.6875 C 2.828125 -0.851562 2.867188 -0.4375 3.234375 -0.4375 C 3.703125 -0.4375 4.390625 -1.359375 5.296875 -3.203125 C 5.367188 -3.347656 5.429688 -3.398438 5.484375 -3.359375 C 5.535156 -3.328125 5.5625 -3.285156 5.5625 -3.234375 C 5.5625 -3.191406 5.488281 -3.023438 5.34375 -2.734375 C 5.195312 -2.441406 5.039062 -2.140625 4.875 -1.828125 C 4.707031 -1.515625 4.445312 -1.15625 4.09375 -0.75 C 3.675781 -0.238281 3.273438 0.015625 2.890625 0.015625 C 2.453125 0.015625 2.148438 -0.242188 1.984375 -0.765625 C 1.953125 -0.859375 1.9375 -1.003906 1.9375 -1.203125 C 1.9375 -1.410156 2 -1.675781 2.125 -2 C 2.257812 -2.332031 2.460938 -2.738281 2.734375 -3.21875 C 3.015625 -3.695312 3.171875 -3.976562 3.203125 -4.0625 C 3.234375 -4.144531 3.25 -4.222656 3.25 -4.296875 C 3.25 -4.640625 2.804688 -4.820312 1.921875 -4.84375 L 1.71875 -4.3125 C 1.019531 -2.488281 0.351562 -1.265625 -0.28125 -0.640625 C -0.394531 -0.546875 -0.453125 -0.582031 -0.453125 -0.75 C -0.453125 -0.78125 -0.441406 -0.816406 -0.421875 -0.859375 C 0.203125 -1.679688 0.738281 -2.648438 1.1875 -3.765625 C 1.644531 -4.878906 1.960938 -5.941406 2.140625 -6.953125 C 2.203125 -7.296875 2.351562 -7.46875 2.59375 -7.46875 C 2.84375 -7.46875 3.023438 -7.3125 3.140625 -7 C 3.171875 -6.90625 3.1875 -6.789062 3.1875 -6.65625 Z M 3.1875 -6.65625 "/></g></g></g><g fill="#f8c8dc" fill-opacity="1"><g transform="translate(64.859262, 19.493662)"><g><path d="M 5.984375 -4.5 C 5.785156 -4.300781 5.503906 -3.847656 5.140625 -3.140625 C 4.773438 -2.441406 4.554688 -1.914062 4.484375 -1.5625 C 4.410156 -1.21875 4.375 -0.9375 4.375 -0.71875 C 4.375 -0.5 4.457031 -0.390625 4.625 -0.390625 C 4.832031 -0.390625 5.09375 -0.585938 5.40625 -0.984375 C 5.863281 -1.546875 6.3125 -2.28125 6.75 -3.1875 C 6.789062 -3.28125 6.84375 -3.335938 6.90625 -3.359375 C 6.988281 -3.390625 7.03125 -3.351562 7.03125 -3.25 C 7.03125 -3.195312 7.015625 -3.128906 6.984375 -3.046875 C 5.960938 -0.992188 5.101562 0.03125 4.40625 0.03125 C 4.09375 0.03125 3.835938 -0.125 3.640625 -0.4375 C 3.535156 -0.601562 3.484375 -0.820312 3.484375 -1.09375 C 3.484375 -1.375 3.539062 -1.710938 3.65625 -2.109375 C 2.769531 -0.679688 2.003906 0.03125 1.359375 0.03125 C 1.179688 0.03125 1.019531 -0.0195312 0.875 -0.125 C 0.539062 -0.363281 0.375 -0.765625 0.375 -1.328125 C 0.375 -2.410156 0.847656 -3.507812 1.796875 -4.625 C 2.328125 -5.25 2.976562 -5.65625 3.75 -5.84375 C 3.957031 -5.894531 4.15625 -5.921875 4.34375 -5.921875 C 4.851562 -5.921875 5.285156 -5.742188 5.640625 -5.390625 C 5.753906 -5.265625 5.785156 -5.144531 5.734375 -5.03125 C 5.691406 -4.925781 5.597656 -4.882812 5.453125 -4.90625 C 5.335938 -5.3125 5.070312 -5.515625 4.65625 -5.515625 C 4.1875 -5.515625 3.601562 -5.132812 2.90625 -4.375 C 2.507812 -3.9375 2.140625 -3.421875 1.796875 -2.828125 C 1.359375 -2.109375 1.140625 -1.53125 1.140625 -1.09375 C 1.140625 -0.664062 1.28125 -0.453125 1.5625 -0.453125 C 2.226562 -0.453125 3.097656 -1.46875 4.171875 -3.5 C 4.378906 -3.90625 4.550781 -4.179688 4.6875 -4.328125 C 4.832031 -4.484375 5.019531 -4.5625 5.25 -4.5625 C 5.289062 -4.5625 5.398438 -4.546875 5.578125 -4.515625 C 5.765625 -4.484375 5.898438 -4.476562 5.984375 -4.5 Z M 5.984375 -4.5 "/></g></g></g><g fill="#f8c8dc" fill-opacity="1"><g transform="translate(70.665249, 19.493662)"><g><path d="M 5.953125 -5.4375 C 4.597656 -3.050781 3.921875 -1.492188 3.921875 -0.765625 C 3.921875 -0.472656 4.023438 -0.328125 4.234375 -0.328125 C 4.796875 -0.328125 5.550781 -1.285156 6.5 -3.203125 C 6.570312 -3.359375 6.640625 -3.414062 6.703125 -3.375 C 6.765625 -3.34375 6.796875 -3.300781 6.796875 -3.25 C 6.796875 -3.195312 6.773438 -3.128906 6.734375 -3.046875 C 6.148438 -1.867188 5.65625 -1.054688 5.25 -0.609375 C 4.84375 -0.160156 4.4375 0.0625 4.03125 0.0625 C 3.632812 0.0625 3.332031 -0.0859375 3.125 -0.390625 C 3.007812 -0.535156 2.953125 -0.734375 2.953125 -0.984375 C 2.953125 -1.234375 3.003906 -1.535156 3.109375 -1.890625 C 3.222656 -2.242188 3.53125 -2.820312 4.03125 -3.625 C 4.15625 -3.820312 4.21875 -3.976562 4.21875 -4.09375 C 4.21875 -4.207031 4.125 -4.265625 3.9375 -4.265625 C 3.75 -4.265625 3.390625 -4.015625 2.859375 -3.515625 C 2.054688 -2.785156 1.285156 -1.691406 0.546875 -0.234375 C 0.484375 -0.117188 0.410156 -0.046875 0.328125 -0.015625 C 0.242188 0.00390625 0.0820312 0.0195312 -0.15625 0.03125 C -0.40625 0.0390625 -0.566406 0.0664062 -0.640625 0.109375 C -0.460938 -0.242188 -0.117188 -0.96875 0.390625 -2.0625 C 1.328125 -4 1.9375 -5.101562 2.21875 -5.375 C 2.351562 -5.507812 2.535156 -5.578125 2.765625 -5.578125 C 2.816406 -5.578125 2.929688 -5.554688 3.109375 -5.515625 C 3.296875 -5.484375 3.429688 -5.484375 3.515625 -5.515625 C 3.109375 -5.285156 2.441406 -4.242188 1.515625 -2.390625 C 2.035156 -3.035156 2.503906 -3.546875 2.921875 -3.921875 C 3.347656 -4.304688 3.859375 -4.660156 4.453125 -4.984375 C 5.054688 -5.304688 5.5 -5.46875 5.78125 -5.46875 C 5.84375 -5.46875 5.898438 -5.457031 5.953125 -5.4375 Z M 5.953125 -5.4375 "/></g></g></g><g fill="#f8c8dc" fill-opacity="1"><g transform="translate(76.22242, 19.493662)"><g/></g></g><g fill="#f8c8dc" fill-opacity="1"><g transform="translate(80.518846, 19.493662)"><g><path d="M 6.21875 -0.59375 C 5.1875 0.226562 4.046875 0.640625 2.796875 0.640625 C 1.367188 0.640625 0.492188 0.242188 0.171875 -0.546875 C 0.0859375 -0.734375 0.046875 -0.953125 0.046875 -1.203125 C 0.046875 -1.453125 0.175781 -1.722656 0.4375 -2.015625 C 0.832031 -2.460938 1.382812 -2.6875 2.09375 -2.6875 C 2.5625 -2.6875 3.035156 -2.597656 3.515625 -2.421875 C 4.003906 -2.253906 4.863281 -1.84375 6.09375 -1.1875 C 6.644531 -1.71875 7.195312 -2.425781 7.75 -3.3125 C 8.300781 -4.195312 8.78125 -5.050781 9.1875 -5.875 C 9.59375 -6.707031 10.082031 -7.609375 10.65625 -8.578125 C 11.238281 -9.554688 11.816406 -10.363281 12.390625 -11 C 11.148438 -11.738281 9.835938 -12.109375 8.453125 -12.109375 C 7.867188 -12.109375 7.28125 -12.050781 6.6875 -11.9375 C 4.96875 -11.570312 3.660156 -10.820312 2.765625 -9.6875 C 2.210938 -9 1.9375 -8.347656 1.9375 -7.734375 C 1.9375 -6.890625 2.34375 -6.34375 3.15625 -6.09375 C 3.4375 -6.007812 3.679688 -5.96875 3.890625 -5.96875 C 4.109375 -5.96875 4.347656 -6 4.609375 -6.0625 C 4.867188 -6.132812 5.125 -6.289062 5.375 -6.53125 C 5.863281 -7.019531 6.125 -7.476562 6.15625 -7.90625 C 6.164062 -8 6.226562 -8.03125 6.34375 -8 C 6.457031 -7.976562 6.503906 -7.894531 6.484375 -7.75 C 6.378906 -6.9375 5.953125 -6.320312 5.203125 -5.90625 C 4.753906 -5.664062 4.300781 -5.546875 3.84375 -5.546875 L 2.984375 -5.6875 C 2.140625 -5.976562 1.585938 -6.515625 1.328125 -7.296875 C 1.210938 -7.597656 1.15625 -7.898438 1.15625 -8.203125 C 1.15625 -8.804688 1.382812 -9.40625 1.84375 -10 C 2.8125 -11.3125 4.535156 -12.148438 7.015625 -12.515625 C 7.503906 -12.578125 7.988281 -12.609375 8.46875 -12.609375 C 10 -12.609375 11.460938 -12.242188 12.859375 -11.515625 C 13.285156 -12.015625 13.679688 -12.394531 14.046875 -12.65625 C 14.421875 -12.914062 14.71875 -13.046875 14.9375 -13.046875 C 15.050781 -13.046875 15.117188 -13.019531 15.140625 -12.96875 C 15.171875 -12.914062 15.171875 -12.875 15.140625 -12.84375 C 15.109375 -12.820312 15.070312 -12.8125 15.03125 -12.8125 C 14.84375 -12.8125 14.597656 -12.609375 14.296875 -12.203125 C 14.003906 -11.804688 13.765625 -11.4375 13.578125 -11.09375 C 14.753906 -10.3125 15.65625 -9.304688 16.28125 -8.078125 C 16.78125 -7.097656 17.03125 -6.023438 17.03125 -4.859375 C 17.03125 -3.421875 16.6875 -2.273438 16 -1.421875 C 15.4375 -0.722656 14.75 -0.234375 13.9375 0.046875 C 12.976562 0.390625 12.023438 0.5625 11.078125 0.5625 C 9.179688 0.5625 7.5625 0.175781 6.21875 -0.59375 Z M 6.625 -0.890625 C 7.738281 -0.234375 9.046875 0.09375 10.546875 0.09375 C 12.296875 0.09375 13.691406 -0.398438 14.734375 -1.390625 C 15.566406 -2.203125 15.984375 -3.320312 15.984375 -4.75 C 15.984375 -5.757812 15.78125 -6.710938 15.375 -7.609375 C 14.882812 -8.753906 14.148438 -9.707031 13.171875 -10.46875 C 12.847656 -9.96875 12.226562 -8.960938 11.3125 -7.453125 C 10.40625 -5.941406 9.632812 -4.71875 9 -3.78125 C 8.375 -2.84375 7.878906 -2.175781 7.515625 -1.78125 C 7.148438 -1.382812 6.851562 -1.085938 6.625 -0.890625 Z M 5.65625 -0.859375 C 4.363281 -1.484375 3.546875 -1.851562 3.203125 -1.96875 C 2.859375 -2.09375 2.519531 -2.15625 2.1875 -2.15625 C 1.863281 -2.15625 1.601562 -2.03125 1.40625 -1.78125 C 1.21875 -1.539062 1.125 -1.320312 1.125 -1.125 C 1.125 -0.9375 1.171875 -0.753906 1.265625 -0.578125 C 1.492188 -0.109375 1.96875 0.125 2.6875 0.125 C 3.75 0.125 4.738281 -0.203125 5.65625 -0.859375 Z M 5.65625 -0.859375 "/></g></g></g><g fill="#f8c8dc" fill-opacity="1"><g transform="translate(97.339637, 19.493662)"><g><path d="M 2.625 -0.765625 C 2.46875 -0.585938 2.265625 -0.414062 2.015625 -0.25 C 1.773438 -0.0820312 1.5 0 1.1875 0 C 0.882812 0 0.640625 -0.117188 0.453125 -0.359375 C 0.265625 -0.609375 0.171875 -0.894531 0.171875 -1.21875 C 0.171875 -1.539062 0.253906 -1.851562 0.421875 -2.15625 L 1.859375 -4.90625 C 2.066406 -5.320312 2.203125 -5.554688 2.265625 -5.609375 C 2.335938 -5.671875 2.5 -5.703125 2.75 -5.703125 L 3.59375 -5.703125 C 3.570312 -5.679688 3.519531 -5.640625 3.4375 -5.578125 C 3.238281 -5.441406 3.085938 -5.285156 2.984375 -5.109375 C 2.128906 -3.722656 1.554688 -2.648438 1.265625 -1.890625 C 1.066406 -1.460938 0.96875 -1.109375 0.96875 -0.828125 C 0.96875 -0.515625 1.144531 -0.359375 1.5 -0.359375 L 2.140625 -0.6875 C 2.578125 -1.113281 3.097656 -1.945312 3.703125 -3.1875 C 3.785156 -3.351562 3.859375 -3.40625 3.921875 -3.34375 C 3.992188 -3.28125 3.972656 -3.128906 3.859375 -2.890625 C 3.742188 -2.648438 3.648438 -2.460938 3.578125 -2.328125 C 3.515625 -2.203125 3.378906 -1.957031 3.171875 -1.59375 C 2.972656 -1.226562 2.789062 -0.953125 2.625 -0.765625 Z M 3.1875 -6.890625 C 3.175781 -6.890625 3.15625 -6.894531 3.125 -6.90625 C 3.101562 -6.925781 3.09375 -6.953125 3.09375 -6.984375 C 3.09375 -7.023438 3.101562 -7.0625 3.125 -7.09375 C 3.144531 -7.132812 3.300781 -7.265625 3.59375 -7.484375 C 3.882812 -7.703125 4.203125 -7.929688 4.546875 -8.171875 C 4.890625 -8.410156 5.140625 -8.585938 5.296875 -8.703125 C 5.453125 -8.816406 5.601562 -8.875 5.75 -8.875 C 5.894531 -8.875 6.023438 -8.847656 6.140625 -8.796875 C 6.265625 -8.742188 6.328125 -8.675781 6.328125 -8.59375 C 6.328125 -8.507812 6.304688 -8.429688 6.265625 -8.359375 C 6.210938 -8.234375 5.71875 -7.957031 4.78125 -7.53125 C 3.84375 -7.101562 3.3125 -6.890625 3.1875 -6.890625 Z M 3.1875 -6.890625 "/></g></g></g><g fill="#f8c8dc" fill-opacity="1"><g transform="translate(100.126522, 19.493662)"><g><path d="M 5.984375 -4.5 C 5.785156 -4.300781 5.503906 -3.847656 5.140625 -3.140625 C 4.773438 -2.441406 4.554688 -1.914062 4.484375 -1.5625 C 4.410156 -1.21875 4.375 -0.9375 4.375 -0.71875 C 4.375 -0.5 4.457031 -0.390625 4.625 -0.390625 C 4.832031 -0.390625 5.09375 -0.585938 5.40625 -0.984375 C 5.863281 -1.546875 6.3125 -2.28125 6.75 -3.1875 C 6.789062 -3.28125 6.84375 -3.335938 6.90625 -3.359375 C 6.988281 -3.390625 7.03125 -3.351562 7.03125 -3.25 C 7.03125 -3.195312 7.015625 -3.128906 6.984375 -3.046875 C 5.960938 -0.992188 5.101562 0.03125 4.40625 0.03125 C 4.09375 0.03125 3.835938 -0.125 3.640625 -0.4375 C 3.535156 -0.601562 3.484375 -0.820312 3.484375 -1.09375 C 3.484375 -1.375 3.539062 -1.710938 3.65625 -2.109375 C 2.769531 -0.679688 2.003906 0.03125 1.359375 0.03125 C 1.179688 0.03125 1.019531 -0.0195312 0.875 -0.125 C 0.539062 -0.363281 0.375 -0.765625 0.375 -1.328125 C 0.375 -2.410156 0.847656 -3.507812 1.796875 -4.625 C 2.328125 -5.25 2.976562 -5.65625 3.75 -5.84375 C 3.957031 -5.894531 4.15625 -5.921875 4.34375 -5.921875 C 4.851562 -5.921875 5.285156 -5.742188 5.640625 -5.390625 C 5.753906 -5.265625 5.785156 -5.144531 5.734375 -5.03125 C 5.691406 -4.925781 5.597656 -4.882812 5.453125 -4.90625 C 5.335938 -5.3125 5.070312 -5.515625 4.65625 -5.515625 C 4.1875 -5.515625 3.601562 -5.132812 2.90625 -4.375 C 2.507812 -3.9375 2.140625 -3.421875 1.796875 -2.828125 C 1.359375 -2.109375 1.140625 -1.53125 1.140625 -1.09375 C 1.140625 -0.664062 1.28125 -0.453125 1.5625 -0.453125 C 2.226562 -0.453125 3.097656 -1.46875 4.171875 -3.5 C 4.378906 -3.90625 4.550781 -4.179688 4.6875 -4.328125 C 4.832031 -4.484375 5.019531 -4.5625 5.25 -4.5625 C 5.289062 -4.5625 5.398438 -4.546875 5.578125 -4.515625 C 5.765625 -4.484375 5.898438 -4.476562 5.984375 -4.5 Z M 5.984375 -4.5 "/></g></g></g><g clip-path="url(#0b61f959a4)"><path fill="#f8c8dc" d="M 115.925781 3.519531 C 116.121094 3.304688 116.320312 3.097656 116.542969 2.90625 C 116.652344 2.808594 116.765625 2.71875 116.886719 2.632812 C 117.003906 2.550781 117.132812 2.472656 117.261719 2.40625 C 117.394531 2.339844 117.535156 2.285156 117.683594 2.25 C 117.757812 2.234375 117.832031 2.222656 117.910156 2.21875 C 117.984375 2.210938 118.0625 2.214844 118.140625 2.222656 C 118.214844 2.230469 118.292969 2.25 118.367188 2.273438 C 118.4375 2.296875 118.511719 2.328125 118.578125 2.363281 C 118.644531 2.402344 118.707031 2.441406 118.769531 2.488281 C 118.800781 2.511719 118.828125 2.539062 118.855469 2.5625 C 118.863281 2.570312 118.871094 2.574219 118.878906 2.582031 L 118.886719 2.589844 C 118.890625 2.59375 118.894531 2.597656 118.898438 2.601562 L 118.910156 2.613281 C 118.914062 2.617188 118.917969 2.621094 118.921875 2.621094 L 118.941406 2.644531 L 118.957031 2.664062 L 118.976562 2.6875 C 118.988281 2.699219 119 2.714844 119.011719 2.730469 C 119.023438 2.742188 119.035156 2.757812 119.046875 2.769531 L 119.082031 2.816406 C 119.128906 2.871094 119.171875 2.929688 119.214844 2.992188 C 119.257812 3.050781 119.296875 3.113281 119.339844 3.175781 L 119.367188 3.21875 L 119.382812 3.242188 L 119.394531 3.265625 L 119.425781 3.3125 L 119.453125 3.359375 C 119.527344 3.488281 119.597656 3.617188 119.664062 3.746094 C 119.726562 3.875 119.789062 4.007812 119.847656 4.140625 C 120.082031 4.675781 120.257812 5.230469 120.390625 5.796875 L 120.4375 6.007812 L 120.457031 6.117188 C 120.464844 6.152344 120.472656 6.1875 120.480469 6.222656 C 120.507812 6.363281 120.53125 6.507812 120.554688 6.652344 C 120.578125 6.792969 120.597656 6.9375 120.613281 7.082031 C 120.632812 7.222656 120.648438 7.367188 120.660156 7.511719 C 120.671875 7.65625 120.6875 7.800781 120.695312 7.945312 C 120.703125 8.089844 120.710938 8.234375 120.714844 8.378906 C 120.722656 8.523438 120.726562 8.667969 120.726562 8.808594 L 120.726562 9.027344 C 120.726562 9.0625 120.726562 9.097656 120.726562 9.136719 L 120.726562 9.246094 C 120.726562 9.253906 120.726562 9.261719 120.726562 9.273438 L 120.722656 9.300781 C 120.722656 9.316406 120.71875 9.335938 120.71875 9.355469 C 120.714844 9.390625 120.710938 9.425781 120.707031 9.460938 C 120.699219 9.535156 120.691406 9.605469 120.679688 9.675781 C 120.65625 9.820312 120.628906 9.964844 120.597656 10.105469 C 120.5625 10.246094 120.523438 10.386719 120.476562 10.523438 C 120.429688 10.660156 120.375 10.796875 120.3125 10.929688 C 120.25 11.058594 120.179688 11.1875 120.097656 11.308594 C 120.015625 11.429688 119.921875 11.546875 119.820312 11.648438 C 119.714844 11.753906 119.597656 11.84375 119.464844 11.917969 C 119.398438 11.953125 119.332031 11.984375 119.257812 12.007812 C 119.1875 12.03125 119.113281 12.046875 119.039062 12.058594 C 118.964844 12.066406 118.886719 12.066406 118.8125 12.0625 C 118.738281 12.054688 118.664062 12.042969 118.589844 12.023438 C 118.515625 12 118.445312 11.972656 118.378906 11.941406 C 118.363281 11.933594 118.34375 11.925781 118.328125 11.917969 C 118.308594 11.90625 118.292969 11.894531 118.277344 11.882812 C 118.242188 11.859375 118.210938 11.832031 118.183594 11.800781 C 118.15625 11.769531 118.136719 11.730469 118.121094 11.691406 C 118.105469 11.648438 118.097656 11.605469 118.097656 11.5625 C 118.101562 11.515625 118.109375 11.472656 118.125 11.433594 C 118.136719 11.394531 118.15625 11.359375 118.179688 11.324219 C 118.226562 11.257812 118.289062 11.203125 118.351562 11.15625 C 118.417969 11.113281 118.488281 11.078125 118.5625 11.054688 C 118.601562 11.042969 118.636719 11.03125 118.675781 11.023438 C 118.714844 11.015625 118.75 11.007812 118.789062 11.003906 C 118.867188 10.996094 118.945312 10.996094 119.019531 11.003906 C 119.171875 11.015625 119.320312 11.050781 119.460938 11.105469 C 119.601562 11.160156 119.734375 11.234375 119.859375 11.316406 C 119.921875 11.355469 119.980469 11.398438 120.039062 11.445312 C 120.097656 11.492188 120.15625 11.539062 120.210938 11.589844 C 120.238281 11.613281 120.265625 11.640625 120.292969 11.664062 L 120.332031 11.703125 C 120.34375 11.714844 120.355469 11.726562 120.367188 11.742188 L 120.386719 11.757812 L 120.40625 11.777344 C 120.421875 11.789062 120.433594 11.804688 120.445312 11.816406 C 120.460938 11.828125 120.472656 11.839844 120.484375 11.855469 C 120.5 11.867188 120.511719 11.878906 120.523438 11.894531 C 120.628906 11.996094 120.726562 12.101562 120.824219 12.210938 C 121.015625 12.429688 121.195312 12.664062 121.359375 12.90625 C 121.6875 13.390625 121.949219 13.921875 122.121094 14.484375 C 122.210938 14.765625 122.273438 15.054688 122.316406 15.34375 C 122.359375 15.636719 122.378906 15.929688 122.375 16.222656 C 122.367188 16.808594 122.269531 17.394531 122.074219 17.949219 C 122.027344 18.085938 121.972656 18.222656 121.910156 18.355469 C 121.878906 18.421875 121.847656 18.488281 121.8125 18.554688 C 121.777344 18.617188 121.742188 18.683594 121.703125 18.746094 C 121.628906 18.871094 121.546875 18.992188 121.453125 19.109375 C 121.40625 19.167969 121.359375 19.222656 121.308594 19.277344 C 121.257812 19.332031 121.207031 19.382812 121.152344 19.429688 C 121.039062 19.53125 120.917969 19.617188 120.785156 19.683594 C 120.71875 19.71875 120.648438 19.746094 120.578125 19.765625 C 120.539062 19.777344 120.503906 19.785156 120.464844 19.792969 C 120.449219 19.792969 120.429688 19.796875 120.410156 19.800781 C 120.402344 19.800781 120.390625 19.800781 120.382812 19.800781 L 120.355469 19.804688 C 120.210938 19.8125 120.0625 19.808594 119.917969 19.789062 C 119.847656 19.78125 119.773438 19.769531 119.703125 19.753906 C 119.632812 19.742188 119.5625 19.722656 119.492188 19.703125 L 119.496094 19.683594 C 119.566406 19.699219 119.636719 19.710938 119.710938 19.71875 C 119.78125 19.730469 119.851562 19.738281 119.921875 19.742188 C 120.066406 19.75 120.207031 19.746094 120.347656 19.730469 L 120.375 19.726562 C 120.382812 19.726562 120.390625 19.726562 120.402344 19.722656 C 120.417969 19.722656 120.433594 19.71875 120.453125 19.714844 C 120.484375 19.707031 120.519531 19.695312 120.550781 19.6875 C 120.617188 19.664062 120.679688 19.632812 120.742188 19.601562 C 120.863281 19.53125 120.972656 19.445312 121.074219 19.347656 C 121.125 19.300781 121.171875 19.246094 121.21875 19.195312 C 121.265625 19.140625 121.308594 19.085938 121.351562 19.027344 C 121.390625 18.972656 121.429688 18.914062 121.46875 18.855469 C 121.507812 18.796875 121.542969 18.734375 121.578125 18.671875 C 121.613281 18.609375 121.644531 18.546875 121.675781 18.484375 C 121.707031 18.421875 121.734375 18.355469 121.765625 18.292969 C 121.820312 18.160156 121.867188 18.027344 121.914062 17.894531 C 121.957031 17.757812 121.992188 17.621094 122.027344 17.484375 C 122.058594 17.347656 122.085938 17.207031 122.105469 17.066406 C 122.148438 16.789062 122.167969 16.503906 122.167969 16.222656 C 122.167969 16.078125 122.160156 15.9375 122.148438 15.796875 C 122.140625 15.65625 122.121094 15.515625 122.101562 15.375 C 122.058594 15.097656 121.996094 14.820312 121.914062 14.550781 C 121.828125 14.28125 121.726562 14.015625 121.605469 13.757812 C 121.574219 13.695312 121.542969 13.632812 121.511719 13.570312 C 121.480469 13.507812 121.445312 13.445312 121.410156 13.382812 C 121.34375 13.257812 121.269531 13.136719 121.191406 13.019531 C 121.035156 12.78125 120.863281 12.554688 120.679688 12.335938 C 120.585938 12.230469 120.492188 12.125 120.394531 12.023438 C 120.378906 12.007812 120.367188 11.996094 120.355469 11.984375 C 120.34375 11.96875 120.332031 11.957031 120.320312 11.945312 C 120.304688 11.933594 120.292969 11.917969 120.28125 11.90625 L 120.261719 11.886719 L 120.242188 11.871094 C 120.230469 11.855469 120.214844 11.84375 120.203125 11.832031 L 120.164062 11.792969 C 120.140625 11.769531 120.117188 11.742188 120.089844 11.71875 C 120.039062 11.671875 119.984375 11.625 119.933594 11.582031 C 119.878906 11.539062 119.820312 11.496094 119.765625 11.457031 C 119.648438 11.378906 119.527344 11.3125 119.402344 11.257812 C 119.273438 11.207031 119.140625 11.167969 119.007812 11.15625 C 118.9375 11.148438 118.871094 11.148438 118.804688 11.152344 C 118.769531 11.15625 118.738281 11.160156 118.703125 11.164062 C 118.671875 11.171875 118.640625 11.179688 118.609375 11.191406 C 118.542969 11.210938 118.484375 11.238281 118.429688 11.273438 C 118.375 11.308594 118.328125 11.351562 118.289062 11.402344 C 118.253906 11.449219 118.230469 11.507812 118.226562 11.566406 C 118.226562 11.59375 118.230469 11.621094 118.238281 11.648438 C 118.246094 11.675781 118.261719 11.703125 118.277344 11.726562 C 118.296875 11.75 118.320312 11.769531 118.34375 11.789062 C 118.359375 11.796875 118.371094 11.804688 118.386719 11.816406 C 118.398438 11.824219 118.414062 11.832031 118.429688 11.839844 C 118.492188 11.867188 118.554688 11.894531 118.621094 11.914062 C 118.753906 11.953125 118.890625 11.96875 119.027344 11.957031 C 119.097656 11.949219 119.164062 11.933594 119.230469 11.914062 C 119.296875 11.894531 119.359375 11.867188 119.421875 11.835938 C 119.542969 11.769531 119.65625 11.683594 119.757812 11.585938 C 119.859375 11.488281 119.949219 11.378906 120.03125 11.261719 C 120.113281 11.148438 120.183594 11.023438 120.246094 10.894531 C 120.371094 10.640625 120.464844 10.367188 120.53125 10.089844 C 120.542969 10.054688 120.550781 10.019531 120.558594 9.984375 C 120.566406 9.949219 120.570312 9.914062 120.578125 9.878906 C 120.59375 9.808594 120.605469 9.738281 120.617188 9.667969 C 120.628906 9.597656 120.636719 9.527344 120.644531 9.457031 C 120.648438 9.417969 120.652344 9.382812 120.65625 9.347656 C 120.65625 9.332031 120.660156 9.3125 120.660156 9.296875 L 120.664062 9.269531 C 120.664062 9.261719 120.664062 9.25 120.664062 9.242188 L 120.664062 9.136719 C 120.664062 9.097656 120.664062 9.0625 120.667969 9.027344 L 120.667969 8.917969 L 120.664062 8.8125 C 120.664062 8.667969 120.660156 8.523438 120.652344 8.378906 C 120.644531 8.238281 120.632812 8.09375 120.621094 7.949219 C 120.609375 7.808594 120.59375 7.664062 120.578125 7.519531 C 120.539062 7.234375 120.496094 6.953125 120.4375 6.671875 C 120.382812 6.390625 120.316406 6.109375 120.242188 5.832031 C 120.234375 5.800781 120.222656 5.765625 120.214844 5.730469 C 120.203125 5.695312 120.195312 5.660156 120.183594 5.628906 C 120.175781 5.59375 120.164062 5.558594 120.15625 5.523438 L 120.125 5.421875 C 120.082031 5.285156 120.035156 5.148438 119.992188 5.011719 C 119.898438 4.742188 119.792969 4.476562 119.679688 4.214844 C 119.621094 4.085938 119.5625 3.957031 119.5 3.828125 C 119.433594 3.699219 119.367188 3.574219 119.296875 3.453125 L 119.242188 3.359375 L 119.230469 3.339844 L 119.214844 3.316406 L 119.1875 3.269531 C 119.148438 3.210938 119.109375 3.152344 119.070312 3.09375 C 119.03125 3.035156 118.988281 2.976562 118.945312 2.921875 L 118.914062 2.878906 C 118.902344 2.867188 118.890625 2.851562 118.878906 2.839844 C 118.867188 2.824219 118.855469 2.8125 118.847656 2.800781 L 118.828125 2.777344 L 118.8125 2.761719 L 118.796875 2.742188 C 118.792969 2.738281 118.789062 2.734375 118.789062 2.730469 L 118.777344 2.722656 C 118.777344 2.722656 118.773438 2.71875 118.769531 2.714844 L 118.761719 2.707031 C 118.753906 2.699219 118.75 2.695312 118.742188 2.6875 C 118.71875 2.664062 118.691406 2.644531 118.664062 2.621094 C 118.613281 2.578125 118.554688 2.542969 118.496094 2.507812 C 118.378906 2.441406 118.253906 2.398438 118.121094 2.378906 C 118.054688 2.371094 117.984375 2.367188 117.917969 2.371094 C 117.851562 2.371094 117.78125 2.382812 117.714844 2.394531 C 117.582031 2.421875 117.449219 2.46875 117.324219 2.527344 C 117.195312 2.585938 117.074219 2.65625 116.953125 2.734375 C 116.835938 2.8125 116.722656 2.898438 116.609375 2.988281 C 116.386719 3.164062 116.175781 3.363281 115.972656 3.5625 Z M 115.925781 3.519531 " fill-opacity="1" fill-rule="nonzero"/></g><g clip-path="url(#9f9a206aa1)"><path fill="#f8c8dc" d="M 110.496094 15.03125 C 110.480469 15.042969 110.464844 15.050781 110.453125 15.0625 C 110.445312 15.070312 110.4375 15.074219 110.429688 15.082031 C 110.425781 15.085938 110.417969 15.09375 110.410156 15.097656 C 110.398438 15.113281 110.386719 15.125 110.375 15.140625 C 110.367188 15.152344 110.355469 15.167969 110.347656 15.183594 C 110.3125 15.246094 110.300781 15.316406 110.3125 15.386719 C 110.320312 15.457031 110.347656 15.527344 110.378906 15.59375 C 110.398438 15.625 110.414062 15.65625 110.4375 15.6875 C 110.457031 15.71875 110.480469 15.75 110.5 15.78125 C 110.546875 15.839844 110.597656 15.898438 110.648438 15.953125 C 110.699219 16.011719 110.753906 16.0625 110.8125 16.117188 C 110.921875 16.222656 111.039062 16.320312 111.160156 16.414062 C 111.28125 16.507812 111.40625 16.601562 111.53125 16.6875 C 111.65625 16.777344 111.785156 16.859375 111.917969 16.941406 C 111.933594 16.953125 111.949219 16.960938 111.964844 16.972656 L 111.976562 16.976562 L 111.980469 16.980469 L 112.011719 16.996094 C 112.046875 17.015625 112.082031 17.035156 112.117188 17.054688 C 112.183594 17.089844 112.253906 17.128906 112.320312 17.167969 C 112.453125 17.246094 112.585938 17.328125 112.714844 17.414062 C 112.976562 17.589844 113.222656 17.78125 113.445312 18.003906 C 113.667969 18.226562 113.867188 18.472656 114.027344 18.746094 C 114.109375 18.882812 114.179688 19.023438 114.238281 19.171875 C 114.253906 19.207031 114.269531 19.242188 114.28125 19.28125 L 114.292969 19.308594 L 114.296875 19.324219 L 114.300781 19.328125 L 114.300781 19.335938 L 114.308594 19.351562 C 114.308594 19.359375 114.308594 19.363281 114.3125 19.367188 C 114.316406 19.378906 114.316406 19.390625 114.320312 19.402344 C 114.324219 19.421875 114.328125 19.445312 114.332031 19.46875 C 114.332031 19.480469 114.332031 19.492188 114.332031 19.503906 C 114.332031 19.515625 114.332031 19.523438 114.332031 19.535156 C 114.328125 19.582031 114.320312 19.632812 114.300781 19.675781 C 114.28125 19.71875 114.253906 19.761719 114.21875 19.792969 C 114.1875 19.828125 114.148438 19.855469 114.109375 19.878906 C 114.070312 19.898438 114.027344 19.914062 113.984375 19.925781 C 113.941406 19.941406 113.898438 19.949219 113.855469 19.953125 C 113.773438 19.960938 113.6875 19.953125 113.601562 19.9375 C 113.519531 19.917969 113.4375 19.886719 113.363281 19.84375 L 113.359375 19.839844 L 113.355469 19.839844 C 113.292969 19.789062 113.234375 19.734375 113.183594 19.675781 C 113.132812 19.617188 113.085938 19.554688 113.046875 19.488281 C 112.964844 19.359375 112.898438 19.226562 112.839844 19.085938 C 112.785156 18.945312 112.738281 18.804688 112.699219 18.660156 C 112.679688 18.585938 112.664062 18.511719 112.648438 18.4375 C 112.640625 18.402344 112.636719 18.363281 112.632812 18.324219 C 112.628906 18.308594 112.625 18.289062 112.625 18.269531 L 112.617188 18.214844 C 112.601562 18.066406 112.589844 17.921875 112.578125 17.777344 C 112.5625 17.632812 112.546875 17.492188 112.511719 17.355469 C 112.496094 17.289062 112.476562 17.222656 112.453125 17.15625 C 112.445312 17.140625 112.441406 17.125 112.433594 17.105469 C 112.425781 17.089844 112.421875 17.074219 112.414062 17.058594 C 112.40625 17.042969 112.398438 17.027344 112.390625 17.011719 L 112.367188 16.964844 C 112.359375 16.949219 112.351562 16.9375 112.34375 16.921875 C 112.339844 16.917969 112.335938 16.910156 112.332031 16.902344 C 112.324219 16.894531 112.320312 16.886719 112.316406 16.878906 C 112.304688 16.867188 112.296875 16.851562 112.285156 16.835938 L 112.253906 16.796875 C 112.214844 16.742188 112.167969 16.6875 112.117188 16.636719 C 112.019531 16.53125 111.914062 16.433594 111.808594 16.335938 C 111.699219 16.234375 111.589844 16.132812 111.488281 16.023438 C 111.476562 16.007812 111.464844 15.992188 111.449219 15.980469 C 111.4375 15.964844 111.425781 15.949219 111.414062 15.9375 L 111.394531 15.914062 L 111.378906 15.890625 L 111.34375 15.847656 C 111.332031 15.832031 111.320312 15.816406 111.308594 15.804688 L 111.277344 15.757812 C 111.265625 15.742188 111.253906 15.726562 111.242188 15.710938 L 111.210938 15.667969 C 111.125 15.546875 111.046875 15.417969 110.972656 15.289062 C 110.824219 15.03125 110.699219 14.757812 110.59375 14.480469 C 110.492188 14.203125 110.410156 13.917969 110.347656 13.625 C 110.28125 13.335938 110.238281 13.042969 110.207031 12.75 C 110.179688 12.453125 110.164062 12.160156 110.164062 11.863281 C 110.164062 11.273438 110.210938 10.683594 110.300781 10.101562 C 110.34375 9.8125 110.394531 9.519531 110.453125 9.234375 C 110.515625 8.945312 110.585938 8.660156 110.660156 8.375 C 110.8125 7.808594 110.992188 7.25 111.203125 6.699219 C 111.253906 6.5625 111.308594 6.425781 111.363281 6.289062 C 111.421875 6.15625 111.476562 6.019531 111.539062 5.886719 C 111.65625 5.617188 111.785156 5.351562 111.921875 5.09375 C 111.992188 4.964844 112.066406 4.835938 112.144531 4.710938 C 112.179688 4.648438 112.222656 4.585938 112.261719 4.523438 C 112.304688 4.460938 112.347656 4.402344 112.390625 4.34375 C 112.414062 4.3125 112.4375 4.285156 112.460938 4.257812 C 112.484375 4.230469 112.507812 4.199219 112.53125 4.171875 C 112.578125 4.117188 112.628906 4.0625 112.675781 4.003906 C 112.773438 3.894531 112.875 3.789062 112.976562 3.683594 C 113.082031 3.582031 113.191406 3.480469 113.304688 3.386719 C 113.417969 3.292969 113.539062 3.203125 113.664062 3.128906 C 113.792969 3.050781 113.925781 2.984375 114.066406 2.9375 C 114.210938 2.890625 114.359375 2.863281 114.507812 2.867188 C 114.585938 2.867188 114.660156 2.875 114.734375 2.890625 C 114.804688 2.90625 114.878906 2.929688 114.949219 2.960938 C 115.015625 2.988281 115.082031 3.023438 115.144531 3.066406 C 115.175781 3.085938 115.207031 3.105469 115.238281 3.128906 C 115.253906 3.140625 115.265625 3.152344 115.28125 3.164062 C 115.289062 3.167969 115.296875 3.175781 115.304688 3.179688 C 115.3125 3.1875 115.316406 3.195312 115.324219 3.199219 C 115.351562 3.226562 115.378906 3.253906 115.402344 3.28125 C 115.429688 3.308594 115.453125 3.339844 115.472656 3.367188 C 115.519531 3.425781 115.5625 3.488281 115.605469 3.546875 C 115.6875 3.667969 115.761719 3.796875 115.835938 3.925781 C 115.980469 4.179688 116.109375 4.441406 116.234375 4.710938 C 116.355469 4.976562 116.472656 5.246094 116.582031 5.519531 C 116.796875 6.0625 116.988281 6.617188 117.152344 7.183594 C 117.234375 7.464844 117.308594 7.75 117.371094 8.035156 C 117.4375 8.324219 117.492188 8.613281 117.535156 8.902344 C 117.574219 9.195312 117.605469 9.492188 117.609375 9.785156 C 117.613281 9.933594 117.609375 10.082031 117.601562 10.234375 C 117.589844 10.382812 117.570312 10.53125 117.539062 10.679688 C 117.511719 10.824219 117.46875 10.972656 117.40625 11.113281 C 117.375 11.183594 117.339844 11.25 117.300781 11.316406 C 117.277344 11.351562 117.257812 11.382812 117.234375 11.414062 C 117.210938 11.445312 117.191406 11.472656 117.167969 11.503906 C 117.078125 11.621094 116.988281 11.738281 116.898438 11.851562 C 116.804688 11.96875 116.714844 12.082031 116.621094 12.195312 C 116.246094 12.644531 115.855469 13.085938 115.445312 13.507812 C 115.242188 13.722656 115.03125 13.929688 114.8125 14.125 C 114.703125 14.226562 114.59375 14.324219 114.476562 14.417969 C 114.363281 14.511719 114.246094 14.601562 114.121094 14.6875 C 114 14.773438 113.871094 14.851562 113.730469 14.921875 C 113.660156 14.953125 113.589844 14.984375 113.511719 15.007812 C 113.472656 15.019531 113.433594 15.027344 113.394531 15.035156 C 113.351562 15.042969 113.308594 15.046875 113.265625 15.042969 C 113.222656 15.042969 113.175781 15.039062 113.128906 15.023438 C 113.085938 15.011719 113.042969 14.992188 113 14.964844 C 112.980469 14.953125 112.964844 14.9375 112.945312 14.921875 L 112.933594 14.910156 C 112.929688 14.90625 112.925781 14.902344 112.921875 14.898438 C 112.917969 14.894531 112.914062 14.890625 112.910156 14.886719 L 112.898438 14.875 C 112.871094 14.839844 112.84375 14.804688 112.824219 14.761719 C 112.8125 14.742188 112.804688 14.722656 112.796875 14.699219 C 112.789062 14.675781 112.78125 14.65625 112.777344 14.632812 C 112.773438 14.609375 112.769531 14.585938 112.769531 14.5625 C 112.769531 14.539062 112.769531 14.515625 112.773438 14.492188 C 112.773438 14.46875 112.777344 14.445312 112.785156 14.425781 C 112.789062 14.402344 112.796875 14.378906 112.804688 14.359375 C 112.820312 14.320312 112.835938 14.28125 112.859375 14.242188 C 112.898438 14.171875 112.949219 14.109375 113.003906 14.050781 C 113.058594 13.992188 113.113281 13.941406 113.171875 13.890625 C 113.289062 13.792969 113.414062 13.703125 113.539062 13.625 C 113.667969 13.546875 113.796875 13.472656 113.929688 13.402344 C 114.0625 13.335938 114.195312 13.273438 114.332031 13.210938 C 114.46875 13.152344 114.605469 13.09375 114.742188 13.042969 C 114.882812 12.988281 115.019531 12.9375 115.160156 12.894531 C 115.304688 12.847656 115.445312 12.804688 115.589844 12.769531 C 115.734375 12.730469 115.882812 12.699219 116.027344 12.675781 C 116.175781 12.648438 116.324219 12.628906 116.472656 12.617188 C 116.621094 12.601562 116.769531 12.59375 116.921875 12.597656 C 117.070312 12.597656 117.222656 12.605469 117.371094 12.625 C 117.523438 12.640625 117.671875 12.671875 117.820312 12.714844 C 117.890625 12.734375 117.964844 12.761719 118.035156 12.789062 C 118.109375 12.820312 118.179688 12.851562 118.246094 12.890625 C 118.3125 12.929688 118.378906 12.96875 118.441406 13.015625 L 118.464844 13.035156 C 118.472656 13.039062 118.480469 13.046875 118.488281 13.050781 C 118.503906 13.066406 118.519531 13.078125 118.53125 13.089844 C 118.5625 13.113281 118.589844 13.136719 118.617188 13.164062 C 118.84375 13.363281 119.039062 13.601562 119.203125 13.855469 C 119.363281 14.109375 119.492188 14.382812 119.589844 14.664062 C 119.691406 14.949219 119.761719 15.238281 119.808594 15.535156 C 119.855469 15.828125 119.878906 16.125 119.882812 16.421875 C 119.882812 16.71875 119.867188 17.015625 119.828125 17.308594 C 119.789062 17.605469 119.734375 17.894531 119.65625 18.183594 C 119.617188 18.324219 119.574219 18.46875 119.523438 18.609375 C 119.472656 18.746094 119.414062 18.886719 119.351562 19.019531 C 119.289062 19.15625 119.21875 19.289062 119.136719 19.414062 C 119.058594 19.539062 118.96875 19.664062 118.867188 19.773438 C 118.8125 19.828125 118.761719 19.882812 118.703125 19.933594 C 118.644531 19.980469 118.582031 20.027344 118.511719 20.066406 C 118.445312 20.105469 118.375 20.140625 118.300781 20.164062 C 118.261719 20.175781 118.222656 20.183594 118.183594 20.191406 C 118.179688 20.191406 118.175781 20.191406 118.171875 20.195312 L 118.15625 20.195312 L 118.128906 20.199219 C 118.109375 20.203125 118.09375 20.207031 118.074219 20.207031 C 117.925781 20.226562 117.773438 20.234375 117.625 20.226562 C 117.476562 20.21875 117.324219 20.199219 117.179688 20.167969 C 117.035156 20.140625 116.890625 20.097656 116.75 20.050781 C 116.609375 20.003906 116.472656 19.945312 116.335938 19.882812 C 116.070312 19.761719 115.8125 19.613281 115.566406 19.449219 C 115.320312 19.285156 115.085938 19.109375 114.859375 18.921875 C 114.40625 18.546875 113.988281 18.136719 113.589844 17.703125 C 113.390625 17.488281 113.195312 17.269531 113.007812 17.046875 C 112.914062 16.933594 112.820312 16.820312 112.726562 16.707031 L 112.585938 16.539062 C 112.5625 16.511719 112.539062 16.484375 112.515625 16.453125 C 112.492188 16.425781 112.46875 16.398438 112.441406 16.375 L 112.457031 16.359375 C 112.484375 16.386719 112.507812 16.414062 112.53125 16.441406 C 112.558594 16.46875 112.582031 16.496094 112.605469 16.523438 C 112.652344 16.578125 112.703125 16.632812 112.75 16.6875 C 112.84375 16.800781 112.941406 16.910156 113.035156 17.019531 C 113.230469 17.238281 113.425781 17.457031 113.628906 17.667969 C 114.03125 18.089844 114.457031 18.492188 114.910156 18.859375 C 115.140625 19.039062 115.375 19.210938 115.617188 19.371094 C 115.863281 19.527344 116.117188 19.667969 116.382812 19.785156 C 116.515625 19.84375 116.648438 19.898438 116.785156 19.945312 C 116.921875 19.988281 117.0625 20.027344 117.203125 20.050781 C 117.34375 20.078125 117.488281 20.097656 117.628906 20.101562 C 117.773438 20.109375 117.914062 20.101562 118.054688 20.082031 C 118.074219 20.078125 118.089844 20.074219 118.109375 20.074219 L 118.136719 20.066406 L 118.148438 20.066406 C 118.152344 20.066406 118.15625 20.066406 118.160156 20.0625 C 118.195312 20.058594 118.226562 20.046875 118.257812 20.039062 C 118.324219 20.015625 118.386719 19.984375 118.445312 19.949219 C 118.503906 19.914062 118.558594 19.871094 118.609375 19.828125 C 118.664062 19.78125 118.714844 19.730469 118.761719 19.679688 C 118.855469 19.574219 118.9375 19.457031 119.011719 19.335938 C 119.085938 19.214844 119.152344 19.085938 119.210938 18.953125 C 119.328125 18.691406 119.421875 18.417969 119.492188 18.140625 C 119.566406 17.859375 119.617188 17.574219 119.652344 17.289062 C 119.683594 17 119.699219 16.714844 119.691406 16.425781 C 119.6875 16.136719 119.664062 15.847656 119.613281 15.566406 C 119.566406 15.28125 119.496094 15.003906 119.398438 14.734375 C 119.300781 14.464844 119.179688 14.207031 119.023438 13.96875 C 118.871094 13.730469 118.6875 13.511719 118.476562 13.324219 C 118.449219 13.300781 118.421875 13.277344 118.394531 13.253906 C 118.382812 13.242188 118.367188 13.230469 118.355469 13.222656 C 118.347656 13.214844 118.339844 13.210938 118.335938 13.207031 L 118.3125 13.191406 C 118.257812 13.148438 118.203125 13.113281 118.140625 13.078125 C 118.082031 13.046875 118.019531 13.015625 117.953125 12.992188 C 117.890625 12.964844 117.824219 12.941406 117.757812 12.921875 C 117.625 12.882812 117.484375 12.855469 117.34375 12.839844 C 117.203125 12.824219 117.0625 12.816406 116.921875 12.816406 C 116.636719 12.816406 116.347656 12.84375 116.066406 12.890625 C 115.925781 12.917969 115.785156 12.945312 115.644531 12.980469 C 115.503906 13.015625 115.367188 13.058594 115.230469 13.101562 C 114.957031 13.191406 114.683594 13.296875 114.421875 13.414062 C 114.289062 13.46875 114.160156 13.53125 114.03125 13.597656 C 113.902344 13.664062 113.777344 13.734375 113.65625 13.808594 C 113.535156 13.882812 113.417969 13.964844 113.308594 14.054688 C 113.257812 14.097656 113.207031 14.144531 113.160156 14.195312 C 113.113281 14.246094 113.074219 14.296875 113.042969 14.351562 C 113.007812 14.40625 112.988281 14.460938 112.980469 14.515625 C 112.976562 14.566406 112.984375 14.617188 113.011719 14.667969 C 113.023438 14.691406 113.039062 14.714844 113.058594 14.738281 L 113.066406 14.746094 C 113.066406 14.75 113.070312 14.753906 113.074219 14.753906 C 113.074219 14.757812 113.078125 14.761719 113.078125 14.761719 L 113.085938 14.769531 C 113.097656 14.777344 113.105469 14.785156 113.117188 14.792969 C 113.136719 14.808594 113.160156 14.820312 113.1875 14.824219 C 113.210938 14.832031 113.238281 14.835938 113.269531 14.835938 C 113.328125 14.839844 113.390625 14.828125 113.453125 14.808594 C 113.519531 14.792969 113.582031 14.765625 113.644531 14.734375 C 113.769531 14.675781 113.890625 14.601562 114.007812 14.523438 C 114.125 14.441406 114.242188 14.355469 114.351562 14.261719 C 114.464844 14.171875 114.574219 14.078125 114.683594 13.980469 C 114.898438 13.789062 115.105469 13.585938 115.308594 13.375 C 115.515625 13.167969 115.714844 12.957031 115.910156 12.738281 C 116.105469 12.523438 116.296875 12.300781 116.484375 12.078125 C 116.578125 11.96875 116.671875 11.855469 116.761719 11.742188 C 116.855469 11.628906 116.945312 11.515625 117.03125 11.398438 C 117.054688 11.371094 117.078125 11.34375 117.097656 11.3125 C 117.117188 11.285156 117.136719 11.257812 117.15625 11.226562 C 117.195312 11.171875 117.226562 11.109375 117.253906 11.046875 C 117.3125 10.917969 117.351562 10.78125 117.382812 10.644531 C 117.414062 10.503906 117.433594 10.363281 117.449219 10.21875 C 117.460938 10.078125 117.464844 9.933594 117.464844 9.789062 C 117.460938 9.5 117.4375 9.210938 117.402344 8.921875 C 117.367188 8.632812 117.316406 8.347656 117.257812 8.0625 C 117.199219 7.777344 117.128906 7.492188 117.050781 7.210938 C 116.976562 6.929688 116.890625 6.648438 116.800781 6.371094 C 116.753906 6.234375 116.707031 6.09375 116.660156 5.957031 C 116.609375 5.820312 116.558594 5.683594 116.507812 5.546875 C 116.402344 5.273438 116.289062 5.003906 116.167969 4.738281 C 116.109375 4.605469 116.046875 4.472656 115.980469 4.34375 C 115.917969 4.210938 115.851562 4.082031 115.777344 3.957031 C 115.707031 3.828125 115.632812 3.703125 115.550781 3.582031 C 115.511719 3.523438 115.46875 3.464844 115.425781 3.40625 C 115.402344 3.378906 115.378906 3.351562 115.355469 3.324219 C 115.332031 3.296875 115.308594 3.269531 115.28125 3.246094 C 115.277344 3.238281 115.269531 3.234375 115.265625 3.226562 C 115.257812 3.222656 115.25 3.21875 115.242188 3.210938 C 115.230469 3.199219 115.214844 3.1875 115.199219 3.179688 C 115.171875 3.15625 115.140625 3.136719 115.113281 3.117188 C 115.050781 3.078125 114.988281 3.042969 114.921875 3.015625 C 114.859375 2.988281 114.789062 2.964844 114.71875 2.953125 C 114.652344 2.9375 114.578125 2.929688 114.507812 2.925781 C 114.367188 2.925781 114.222656 2.953125 114.085938 2.996094 C 113.953125 3.042969 113.820312 3.105469 113.699219 3.183594 C 113.574219 3.257812 113.457031 3.34375 113.347656 3.4375 C 113.234375 3.53125 113.128906 3.628906 113.027344 3.730469 C 112.925781 3.835938 112.824219 3.941406 112.730469 4.054688 C 112.683594 4.109375 112.636719 4.164062 112.589844 4.21875 C 112.566406 4.246094 112.542969 4.277344 112.519531 4.304688 C 112.496094 4.332031 112.472656 4.359375 112.453125 4.390625 C 112.40625 4.445312 112.367188 4.507812 112.328125 4.566406 C 112.285156 4.628906 112.25 4.6875 112.210938 4.75 C 112.136719 4.875 112.066406 5.003906 112 5.132812 C 111.863281 5.390625 111.738281 5.65625 111.625 5.921875 C 111.507812 6.191406 111.402344 6.460938 111.300781 6.738281 C 111.101562 7.285156 110.929688 7.84375 110.789062 8.410156 C 110.71875 8.691406 110.652344 8.976562 110.597656 9.261719 C 110.542969 9.546875 110.492188 9.835938 110.453125 10.125 C 110.414062 10.414062 110.386719 10.703125 110.363281 10.992188 C 110.34375 11.28125 110.335938 11.574219 110.339844 11.863281 C 110.34375 12.152344 110.355469 12.441406 110.386719 12.730469 C 110.417969 13.019531 110.460938 13.304688 110.523438 13.585938 C 110.585938 13.867188 110.667969 14.148438 110.765625 14.417969 C 110.867188 14.6875 110.988281 14.949219 111.132812 15.199219 C 111.203125 15.324219 111.277344 15.445312 111.359375 15.5625 L 111.390625 15.605469 C 111.402344 15.621094 111.414062 15.636719 111.425781 15.648438 L 111.457031 15.691406 C 111.46875 15.707031 111.476562 15.722656 111.488281 15.734375 L 111.523438 15.777344 L 111.539062 15.800781 L 111.554688 15.820312 C 111.566406 15.832031 111.578125 15.847656 111.589844 15.859375 C 111.601562 15.871094 111.613281 15.886719 111.625 15.898438 C 111.71875 16.003906 111.824219 16.101562 111.929688 16.203125 C 112.039062 16.300781 112.148438 16.402344 112.25 16.511719 C 112.300781 16.566406 112.351562 16.625 112.398438 16.6875 L 112.414062 16.710938 L 112.433594 16.734375 C 112.445312 16.746094 112.453125 16.765625 112.464844 16.78125 C 112.472656 16.789062 112.476562 16.796875 112.480469 16.804688 C 112.488281 16.8125 112.492188 16.820312 112.496094 16.828125 L 112.511719 16.855469 C 112.515625 16.859375 112.515625 16.863281 112.519531 16.867188 L 112.527344 16.882812 L 112.539062 16.910156 L 112.550781 16.933594 C 112.5625 16.953125 112.570312 16.96875 112.578125 16.988281 C 112.585938 17.003906 112.589844 17.023438 112.597656 17.039062 C 112.605469 17.058594 112.613281 17.074219 112.621094 17.09375 C 112.644531 17.164062 112.667969 17.238281 112.6875 17.3125 C 112.722656 17.460938 112.738281 17.613281 112.753906 17.761719 C 112.765625 17.90625 112.773438 18.054688 112.789062 18.195312 L 112.796875 18.25 C 112.796875 18.269531 112.800781 18.285156 112.800781 18.304688 C 112.808594 18.339844 112.8125 18.371094 112.820312 18.40625 C 112.832031 18.476562 112.847656 18.546875 112.863281 18.617188 C 112.898438 18.753906 112.945312 18.890625 112.996094 19.023438 C 113.050781 19.15625 113.113281 19.28125 113.1875 19.402344 C 113.222656 19.460938 113.261719 19.515625 113.308594 19.570312 C 113.351562 19.621094 113.398438 19.667969 113.453125 19.707031 L 113.445312 19.703125 C 113.5625 19.773438 113.707031 19.804688 113.84375 19.792969 C 113.910156 19.789062 113.976562 19.769531 114.035156 19.738281 C 114.0625 19.726562 114.085938 19.707031 114.109375 19.683594 C 114.128906 19.664062 114.148438 19.640625 114.160156 19.613281 C 114.183594 19.5625 114.183594 19.5 114.171875 19.433594 C 114.167969 19.425781 114.167969 19.417969 114.164062 19.410156 C 114.164062 19.40625 114.164062 19.402344 114.160156 19.398438 L 114.15625 19.386719 L 114.15625 19.378906 L 114.152344 19.371094 L 114.148438 19.359375 L 114.140625 19.332031 C 114.125 19.296875 114.113281 19.261719 114.101562 19.226562 C 114.042969 19.085938 113.976562 18.949219 113.902344 18.820312 C 113.753906 18.554688 113.5625 18.316406 113.351562 18.101562 C 113.136719 17.882812 112.898438 17.691406 112.648438 17.515625 C 112.519531 17.429688 112.390625 17.347656 112.261719 17.269531 C 112.195312 17.226562 112.128906 17.191406 112.0625 17.152344 C 112.027344 17.132812 111.992188 17.113281 111.960938 17.09375 L 111.933594 17.082031 L 111.925781 17.078125 L 111.925781 17.074219 L 111.921875 17.074219 L 111.90625 17.066406 C 111.890625 17.054688 111.875 17.042969 111.859375 17.035156 C 111.726562 16.949219 111.597656 16.863281 111.472656 16.773438 C 111.34375 16.683594 111.222656 16.589844 111.101562 16.488281 C 110.980469 16.390625 110.859375 16.289062 110.75 16.179688 C 110.691406 16.125 110.636719 16.070312 110.585938 16.011719 C 110.53125 15.953125 110.484375 15.894531 110.4375 15.828125 C 110.414062 15.796875 110.390625 15.765625 110.371094 15.730469 C 110.347656 15.699219 110.328125 15.664062 110.3125 15.625 C 110.292969 15.589844 110.277344 15.554688 110.265625 15.515625 C 110.257812 15.496094 110.253906 15.476562 110.25 15.457031 C 110.242188 15.433594 110.238281 15.414062 110.238281 15.394531 C 110.234375 15.351562 110.234375 15.308594 110.242188 15.269531 C 110.246094 15.246094 110.253906 15.226562 110.257812 15.207031 C 110.265625 15.1875 110.277344 15.167969 110.285156 15.148438 C 110.296875 15.128906 110.308594 15.113281 110.324219 15.097656 C 110.335938 15.082031 110.351562 15.066406 110.367188 15.050781 C 110.371094 15.042969 110.378906 15.039062 110.386719 15.03125 C 110.394531 15.023438 110.402344 15.019531 110.414062 15.011719 C 110.429688 15 110.445312 14.988281 110.460938 14.976562 Z M 110.496094 15.03125 " fill-opacity="1" fill-rule="nonzero"/></g><path fill="#f8c8dc" d="M 107.128906 10.585938 C 107.183594 10.566406 107.246094 10.5625 107.308594 10.566406 C 107.371094 10.574219 107.429688 10.589844 107.484375 10.617188 C 107.515625 10.628906 107.542969 10.644531 107.570312 10.65625 C 107.59375 10.671875 107.621094 10.691406 107.644531 10.707031 C 107.695312 10.742188 107.742188 10.78125 107.789062 10.824219 C 107.878906 10.90625 107.960938 11 108.035156 11.09375 C 108.074219 11.140625 108.109375 11.1875 108.144531 11.238281 C 108.183594 11.285156 108.21875 11.335938 108.25 11.386719 C 108.285156 11.433594 108.316406 11.484375 108.351562 11.535156 C 108.382812 11.585938 108.414062 11.636719 108.445312 11.6875 C 108.507812 11.792969 108.566406 11.894531 108.625 12 C 108.65625 12.050781 108.683594 12.101562 108.714844 12.15625 L 108.800781 12.3125 C 108.855469 12.417969 108.914062 12.523438 108.96875 12.628906 L 109.132812 12.945312 C 109.1875 13.050781 109.242188 13.15625 109.300781 13.261719 C 109.355469 13.363281 109.410156 13.46875 109.464844 13.574219 C 109.496094 13.625 109.523438 13.675781 109.550781 13.730469 C 109.582031 13.78125 109.609375 13.832031 109.640625 13.882812 C 109.757812 14.089844 109.878906 14.289062 110.011719 14.480469 C 110.148438 14.675781 110.292969 14.859375 110.46875 15.015625 L 110.4375 15.058594 C 110.335938 14.992188 110.242188 14.914062 110.152344 14.828125 C 110.066406 14.746094 109.984375 14.65625 109.90625 14.5625 C 109.753906 14.378906 109.613281 14.179688 109.484375 13.976562 C 109.453125 13.925781 109.421875 13.875 109.390625 13.824219 C 109.359375 13.773438 109.328125 13.71875 109.296875 13.667969 C 109.238281 13.566406 109.179688 13.460938 109.121094 13.355469 C 109.0625 13.25 109.007812 13.144531 108.953125 13.039062 C 108.894531 12.933594 108.839844 12.828125 108.785156 12.722656 L 108.625 12.40625 L 108.542969 12.246094 L 108.460938 12.089844 C 108.40625 11.984375 108.351562 11.878906 108.292969 11.777344 C 108.265625 11.722656 108.238281 11.671875 108.210938 11.621094 C 108.179688 11.570312 108.152344 11.519531 108.121094 11.46875 C 108.089844 11.417969 108.0625 11.367188 108.03125 11.316406 C 108 11.265625 107.96875 11.21875 107.933594 11.167969 C 107.902344 11.121094 107.867188 11.074219 107.832031 11.027344 C 107.796875 10.980469 107.761719 10.933594 107.722656 10.890625 C 107.683594 10.847656 107.644531 10.804688 107.601562 10.765625 C 107.578125 10.746094 107.554688 10.730469 107.535156 10.710938 C 107.511719 10.695312 107.488281 10.679688 107.460938 10.664062 C 107.4375 10.648438 107.410156 10.636719 107.386719 10.625 C 107.359375 10.613281 107.332031 10.601562 107.304688 10.597656 C 107.246094 10.582031 107.1875 10.578125 107.128906 10.585938 Z M 107.128906 10.585938 " fill-opacity="1" fill-rule="nonzero"/><g clip-path="url(#92444eb44a)"><path fill="#f8c8dc" d="M 105.945312 11.726562 C 105.996094 11.695312 106.054688 11.671875 106.113281 11.660156 C 106.175781 11.648438 106.238281 11.652344 106.300781 11.660156 C 106.328125 11.664062 106.359375 11.667969 106.390625 11.675781 C 106.417969 11.683594 106.449219 11.695312 106.476562 11.703125 C 106.535156 11.726562 106.59375 11.75 106.648438 11.777344 C 106.753906 11.832031 106.859375 11.898438 106.957031 11.96875 C 107.007812 12.003906 107.054688 12.042969 107.101562 12.078125 C 107.148438 12.117188 107.195312 12.152344 107.242188 12.195312 C 107.289062 12.230469 107.332031 12.273438 107.378906 12.3125 C 107.421875 12.351562 107.46875 12.394531 107.511719 12.433594 C 107.597656 12.515625 107.683594 12.597656 107.769531 12.683594 C 107.8125 12.726562 107.855469 12.769531 107.894531 12.808594 L 108.023438 12.9375 C 108.105469 13.023438 108.1875 13.109375 108.269531 13.199219 L 108.511719 13.457031 C 108.59375 13.542969 108.675781 13.628906 108.757812 13.714844 C 108.839844 13.800781 108.921875 13.886719 109.003906 13.972656 C 109.046875 14.015625 109.085938 14.058594 109.128906 14.097656 C 109.167969 14.140625 109.210938 14.183594 109.253906 14.222656 C 109.421875 14.390625 109.59375 14.550781 109.773438 14.699219 C 109.957031 14.847656 110.148438 14.984375 110.359375 15.089844 L 110.335938 15.140625 C 110.222656 15.105469 110.109375 15.054688 110.003906 15 C 109.894531 14.941406 109.792969 14.878906 109.691406 14.808594 C 109.492188 14.671875 109.308594 14.515625 109.128906 14.355469 C 109.085938 14.316406 109.039062 14.273438 108.996094 14.234375 C 108.953125 14.191406 108.910156 14.152344 108.867188 14.109375 C 108.78125 14.027344 108.695312 13.941406 108.613281 13.855469 C 108.527344 13.769531 108.445312 13.683594 108.363281 13.597656 C 108.28125 13.511719 108.199219 13.425781 108.121094 13.335938 L 107.878906 13.074219 L 107.757812 12.945312 L 107.636719 12.8125 C 107.554688 12.726562 107.472656 12.640625 107.390625 12.558594 C 107.347656 12.515625 107.308594 12.472656 107.265625 12.429688 C 107.222656 12.390625 107.183594 12.347656 107.140625 12.304688 C 107.097656 12.265625 107.054688 12.226562 107.011719 12.1875 C 106.96875 12.144531 106.925781 12.105469 106.878906 12.070312 C 106.835938 12.03125 106.789062 11.996094 106.742188 11.960938 C 106.695312 11.925781 106.648438 11.890625 106.601562 11.859375 C 106.550781 11.828125 106.5 11.796875 106.449219 11.773438 C 106.421875 11.761719 106.398438 11.75 106.371094 11.738281 C 106.34375 11.726562 106.316406 11.71875 106.289062 11.710938 C 106.261719 11.703125 106.234375 11.695312 106.203125 11.691406 C 106.175781 11.6875 106.148438 11.6875 106.117188 11.6875 C 106.058594 11.691406 106 11.703125 105.945312 11.726562 Z M 105.945312 11.726562 " fill-opacity="1" fill-rule="nonzero"/></g></svg>