<svg xmlns="http://www.w3.org/2000/svg" xmlns:xlink="http://www.w3.org/1999/xlink" width="70" zoomAndPan="magnify" viewBox="0 0 52.5 52.499999" height="70" preserveAspectRatio="xMidYMid meet" version="1.0"><defs><clipPath id="9ff95f8f68"><path d="M 0 8.320312 L 52 8.320312 L 52 41 L 0 41 Z M 0 8.320312 " clip-rule="nonzero"/></clipPath></defs><g clip-path="url(#9ff95f8f68)"><path fill="#f8c8dc" d="M 41.347656 11.460938 C 42.167969 12.144531 43.015625 12.964844 43.898438 13.925781 C 45.722656 16.351562 46.042969 18.71875 44.859375 21.035156 C 44.492188 17.5 43.230469 14.425781 41.070312 11.8125 L 41.066406 11.8125 C 41.066406 11.753906 41.148438 11.652344 41.304688 11.5 C 41.320312 11.484375 41.332031 11.472656 41.34375 11.460938 Z M 39.933594 21.683594 C 40.054688 21.726562 40.179688 21.765625 40.304688 21.808594 C 41.867188 22.402344 42.722656 22.914062 42.882812 23.347656 L 42.878906 23.347656 C 42.757812 23.4375 42.597656 23.480469 42.398438 23.476562 C 42.070312 23.472656 41.632812 23.339844 41.085938 23.078125 L 41.082031 23.078125 C 40.800781 22.902344 40.558594 22.671875 40.347656 22.390625 C 40.199219 22.140625 40.0625 21.902344 39.929688 21.683594 Z M 45.613281 22.726562 C 45.847656 22.730469 46.007812 22.769531 46.089844 22.839844 C 46.25 22.972656 46.105469 23.304688 45.660156 23.832031 L 45.65625 23.832031 L 44.003906 25.226562 C 44.257812 24.675781 44.488281 24.101562 44.695312 23.503906 L 44.691406 23.503906 C 44.90625 23.15625 45.183594 22.898438 45.527344 22.726562 L 45.523438 22.726562 C 45.554688 22.726562 45.582031 22.726562 45.613281 22.726562 Z M 35.417969 25.285156 C 36.402344 25.527344 37.519531 25.660156 38.773438 25.683594 C 39.851562 25.699219 41.03125 25.636719 42.308594 25.488281 L 42.316406 25.488281 C 42.238281 25.523438 42.148438 25.5625 42.042969 25.605469 L 42.019531 25.621094 C 41.839844 25.738281 40.269531 26.339844 37.300781 27.425781 C 36.335938 27.769531 35.53125 27.992188 34.890625 28.097656 C 34.492188 27.425781 34.386719 26.6875 34.570312 25.878906 C 34.71875 25.507812 35 25.3125 35.414062 25.285156 Z M 43.023438 26.453125 C 42.429688 27.464844 41.738281 28.382812 40.949219 29.195312 C 40.359375 29.746094 39.632812 30.023438 38.773438 30.035156 L 43.019531 26.453125 Z M 19.632812 27.085938 C 20.640625 27.101562 21.46875 27.382812 22.113281 27.929688 C 22.167969 27.984375 22.21875 28.039062 22.265625 28.09375 C 22.992188 28.945312 22.796875 29.851562 21.675781 30.808594 L 21.671875 30.808594 C 20.640625 31.578125 19.175781 32.203125 17.277344 32.679688 L 17.257812 32.6875 C 16.710938 32.902344 14.867188 33.171875 11.722656 33.488281 C 12.113281 30.574219 14.058594 28.53125 17.558594 27.355469 C 18.320312 27.164062 19.011719 27.074219 19.632812 27.085938 Z M 44.6875 8.332031 C 44.332031 8.324219 43.988281 8.414062 43.652344 8.601562 L 43.648438 8.601562 C 43.28125 8.746094 42.871094 9.3125 42.410156 10.296875 L 42.40625 10.296875 C 41.957031 10.59375 41.601562 10.851562 41.339844 11.066406 C 39.398438 9.492188 37.628906 8.691406 36.023438 8.664062 C 35.558594 8.65625 35.109375 8.714844 34.671875 8.835938 L 34.652344 8.84375 C 33.890625 9.183594 33.488281 9.640625 33.433594 10.214844 C 33.433594 10.238281 33.4375 10.257812 33.441406 10.277344 L 34.980469 14.746094 L 34.976562 14.746094 C 34.574219 15.5625 34.285156 16.222656 34.117188 16.726562 C 33.863281 17.472656 33.871094 17.914062 34.144531 18.050781 L 34.136719 18.050781 C 34.28125 18.28125 34.53125 18.46875 34.890625 18.613281 L 34.917969 18.621094 C 36.785156 18.972656 37.820312 19.289062 38.027344 19.570312 C 38.050781 19.597656 38.082031 19.621094 38.121094 19.628906 C 38.277344 19.679688 38.65625 20.183594 39.246094 21.136719 L 39.242188 21.136719 C 36.742188 20.328125 35.023438 19.914062 34.089844 19.898438 C 33.824219 19.894531 33.621094 19.921875 33.484375 19.980469 L 33.480469 19.980469 C 33.359375 20 33.242188 20.027344 33.128906 20.050781 C 30.265625 20.6875 29.113281 22.261719 29.671875 24.777344 L 29.679688 24.800781 C 30.617188 27.066406 32.015625 28.285156 33.875 28.453125 C 33.941406 28.460938 34.007812 28.464844 34.082031 28.464844 C 34.277344 28.46875 34.492188 28.453125 34.730469 28.421875 L 34.734375 28.421875 C 35.054688 28.894531 35.511719 29.332031 36.109375 29.734375 L 36.136719 29.75 C 36.808594 30.027344 37.433594 30.207031 38.011719 30.289062 L 38.007812 30.289062 L 31.605469 35.691406 L 31.601562 35.691406 C 27.535156 38.113281 23.46875 39.289062 19.394531 39.21875 C 19.148438 39.214844 18.902344 39.207031 18.65625 39.195312 L 18.652344 39.195312 C 14.363281 38.765625 12.03125 37.21875 11.652344 34.550781 L 11.648438 34.550781 C 11.652344 34.292969 11.664062 34.042969 11.6875 33.796875 L 11.683594 33.796875 C 14.871094 33.472656 16.761719 33.199219 17.355469 32.972656 L 17.351562 32.972656 C 19.292969 32.484375 20.796875 31.84375 21.863281 31.042969 L 21.871094 31.039062 C 23.144531 29.949219 23.351562 28.902344 22.492188 27.898438 C 22.4375 27.835938 22.378906 27.769531 22.316406 27.707031 L 22.308594 27.699219 C 21.605469 27.105469 20.71875 26.800781 19.640625 26.785156 C 18.992188 26.773438 18.273438 26.867188 17.484375 27.0625 L 17.472656 27.066406 C 13.8125 28.292969 11.792969 30.445312 11.414062 33.523438 L 11.410156 33.519531 C 10.632812 33.597656 9.785156 33.679688 8.859375 33.761719 L 8.847656 33.765625 C 7.363281 34.015625 6.285156 34.308594 5.613281 34.640625 C 3.246094 35.761719 1.394531 37.75 0.0664062 40.613281 C 0.03125 40.6875 0.0625 40.777344 0.136719 40.8125 C 0.15625 40.820312 0.179688 40.828125 0.199219 40.828125 C 0.257812 40.828125 0.3125 40.796875 0.339844 40.738281 C 1.640625 37.941406 3.441406 36 5.746094 34.910156 C 6.390625 34.59375 7.4375 34.308594 8.886719 34.0625 C 9.785156 33.980469 10.617188 33.902344 11.378906 33.828125 L 11.382812 33.828125 C 11.363281 34.0625 11.351562 34.300781 11.347656 34.546875 L 11.351562 34.570312 C 11.742188 37.40625 14.164062 39.050781 18.621094 39.496094 L 18.628906 39.496094 C 18.882812 39.507812 19.136719 39.519531 19.390625 39.523438 C 23.527344 39.589844 27.65625 38.394531 31.777344 35.933594 L 31.796875 35.921875 L 38.421875 30.332031 L 38.429688 30.332031 C 38.5 30.335938 38.574219 30.339844 38.648438 30.339844 C 39.644531 30.355469 40.480469 30.046875 41.160156 29.410156 L 41.164062 29.40625 C 42.148438 28.390625 42.984375 27.226562 43.667969 25.90625 L 43.664062 25.90625 L 45.871094 24.042969 L 45.890625 24.027344 C 46.464844 23.347656 46.597656 22.875 46.285156 22.609375 C 46.148438 22.492188 45.921875 22.429688 45.605469 22.425781 C 45.570312 22.425781 45.527344 22.425781 45.488281 22.425781 C 45.464844 22.425781 45.445312 22.433594 45.425781 22.441406 C 45.015625 22.636719 44.683594 22.9375 44.433594 23.34375 L 44.421875 23.375 C 44.136719 24.203125 43.804688 24.984375 43.429688 25.714844 L 43.421875 25.714844 L 38.324219 30.019531 C 37.707031 29.964844 37.023438 29.785156 36.273438 29.480469 L 36.269531 29.480469 C 35.761719 29.136719 35.363281 28.765625 35.070312 28.371094 L 35.066406 28.371094 C 35.710938 28.253906 36.488281 28.035156 37.402344 27.710938 C 40.296875 26.652344 41.886719 26.042969 42.160156 25.886719 C 42.527344 25.734375 42.75 25.605469 42.824219 25.496094 C 42.832031 25.480469 42.84375 25.464844 42.851562 25.449219 C 42.894531 25.339844 42.867188 25.25 42.757812 25.183594 C 42.742188 25.171875 42.726562 25.164062 42.707031 25.15625 C 42.6875 25.148438 42.671875 25.144531 42.652344 25.144531 C 42.644531 25.144531 42.636719 25.144531 42.628906 25.144531 C 41.226562 25.320312 39.941406 25.398438 38.777344 25.378906 C 37.539062 25.359375 36.433594 25.230469 35.46875 24.988281 C 35.457031 24.984375 35.445312 24.984375 35.433594 24.984375 C 35.429688 24.984375 35.425781 24.984375 35.421875 24.984375 C 34.871094 25.007812 34.492188 25.269531 34.289062 25.765625 L 34.28125 25.789062 C 34.082031 26.644531 34.171875 27.429688 34.5625 28.140625 L 34.558594 28.140625 C 34.390625 28.15625 34.234375 28.164062 34.089844 28.164062 C 34.023438 28.160156 33.960938 28.160156 33.902344 28.152344 C 32.171875 27.996094 30.859375 26.847656 29.96875 24.710938 L 29.964844 24.710938 C 29.453125 22.390625 30.527344 20.9375 33.195312 20.34375 C 33.3125 20.320312 33.433594 20.292969 33.558594 20.273438 L 33.59375 20.261719 C 33.710938 20.207031 33.882812 20.183594 34.113281 20.1875 C 35.019531 20.203125 36.8125 20.652344 39.496094 21.539062 L 39.492188 21.539062 C 39.671875 21.835938 39.871094 22.171875 40.085938 22.542969 L 40.09375 22.554688 C 40.328125 22.875 40.605469 23.132812 40.921875 23.332031 L 40.9375 23.34375 C 41.527344 23.625 42.011719 23.769531 42.398438 23.773438 C 42.726562 23.78125 42.976562 23.6875 43.160156 23.496094 C 43.195312 23.460938 43.207031 23.414062 43.199219 23.363281 C 43.097656 22.808594 42.167969 22.195312 40.410156 21.527344 L 40.402344 21.523438 C 40.160156 21.441406 39.921875 21.363281 39.691406 21.285156 L 39.6875 21.285156 C 38.976562 20.125 38.496094 19.480469 38.246094 19.355469 L 38.242188 19.355469 C 37.945312 19.023438 36.863281 18.679688 34.996094 18.328125 L 34.992188 18.328125 C 34.679688 18.199219 34.476562 18.042969 34.375 17.859375 C 34.355469 17.824219 34.328125 17.800781 34.289062 17.789062 C 34.160156 17.746094 34.199219 17.421875 34.402344 16.824219 C 34.570312 16.320312 34.863281 15.652344 35.277344 14.820312 C 35.296875 14.78125 35.300781 14.742188 35.285156 14.703125 L 33.742188 10.222656 L 33.738281 10.222656 C 33.785156 9.777344 34.128906 9.414062 34.757812 9.128906 L 34.753906 9.128906 C 35.164062 9.011719 35.585938 8.960938 36.023438 8.964844 C 37.546875 8.992188 39.246094 9.757812 41.113281 11.269531 L 41.109375 11.269531 C 41.105469 11.273438 41.101562 11.277344 41.097656 11.28125 C 40.871094 11.496094 40.761719 11.675781 40.765625 11.820312 C 40.765625 11.890625 40.792969 11.953125 40.84375 12.007812 C 43.054688 14.691406 44.308594 17.871094 44.605469 21.546875 C 44.609375 21.613281 44.65625 21.667969 44.71875 21.683594 C 44.730469 21.683594 44.742188 21.6875 44.75 21.6875 C 44.804688 21.6875 44.855469 21.660156 44.882812 21.613281 C 46.40625 19.042969 46.15625 16.417969 44.128906 13.734375 L 44.121094 13.722656 C 43.242188 12.769531 42.398438 11.949219 41.578125 11.261719 L 41.574219 11.261719 C 41.832031 11.054688 42.175781 10.808594 42.613281 10.519531 C 42.636719 10.507812 42.65625 10.484375 42.667969 10.457031 C 43.109375 9.503906 43.480469 8.976562 43.773438 8.875 L 43.796875 8.863281 C 44.082031 8.707031 44.378906 8.632812 44.683594 8.636719 C 45.09375 8.644531 45.519531 8.796875 45.96875 9.097656 L 45.964844 9.097656 C 47.25 10.140625 47.839844 12.3125 47.738281 15.613281 L 47.738281 15.617188 C 47.75 18.507812 47.03125 20.636719 45.578125 22 C 45.535156 22.039062 45.519531 22.097656 45.535156 22.152344 C 45.554688 22.210938 45.601562 22.25 45.65625 22.257812 C 46.964844 22.460938 47.992188 22.570312 48.730469 22.582031 C 49.242188 22.589844 49.617188 22.550781 49.855469 22.46875 L 49.851562 22.46875 C 50.628906 22.335938 51.179688 22.046875 51.511719 21.601562 C 51.832031 21.214844 51.832031 20.890625 51.515625 20.625 C 51.476562 20.59375 51.4375 20.566406 51.394531 20.535156 C 51.375 20.527344 51.355469 20.519531 51.332031 20.515625 C 51.25 20.503906 51.171875 20.5 51.101562 20.496094 C 50.722656 20.492188 50.515625 20.617188 50.484375 20.878906 C 50.46875 20.984375 50.492188 21.105469 50.546875 21.246094 C 50.570312 21.304688 50.625 21.339844 50.683594 21.339844 C 50.703125 21.339844 50.722656 21.335938 50.742188 21.328125 C 50.820312 21.300781 50.855469 21.210938 50.824219 21.132812 C 50.789062 21.042969 50.777344 20.972656 50.78125 20.917969 C 50.792969 20.835938 50.890625 20.792969 51.082031 20.796875 C 51.136719 20.796875 51.199219 20.804688 51.265625 20.8125 L 51.261719 20.8125 C 51.285156 20.824219 51.304688 20.839844 51.320312 20.855469 C 51.488281 20.992188 51.472656 21.175781 51.277344 21.410156 L 51.273438 21.417969 C 50.992188 21.800781 50.5 22.054688 49.796875 22.171875 L 49.769531 22.179688 C 49.5625 22.257812 49.21875 22.292969 48.746094 22.285156 C 48.085938 22.273438 47.171875 22.179688 46.003906 22.007812 L 46 22.007812 C 47.371094 20.582031 48.050781 18.453125 48.042969 15.621094 C 48.144531 12.214844 47.511719 9.957031 46.148438 8.855469 L 46.136719 8.847656 C 45.636719 8.511719 45.152344 8.339844 44.6875 8.332031 Z M 44.6875 8.332031 " fill-opacity="1" fill-rule="nonzero"/></g><path fill="#f8c8dc" d="M 49.6875 18.789062 C 49.679688 18.789062 49.671875 18.789062 49.664062 18.789062 C 49.660156 18.789062 49.65625 18.792969 49.652344 18.792969 C 49.347656 18.84375 49.226562 19.054688 49.289062 19.433594 C 49.300781 19.503906 49.363281 19.558594 49.433594 19.558594 C 49.441406 19.558594 49.453125 19.558594 49.460938 19.554688 C 49.542969 19.542969 49.597656 19.464844 49.585938 19.410156 L 49.585938 19.382812 C 49.5625 19.234375 49.582031 19.144531 49.652344 19.105469 L 49.65625 19.105469 C 49.714844 19.175781 49.726562 19.3125 49.691406 19.511719 C 49.609375 19.816406 49.40625 20.085938 49.078125 20.324219 C 47.984375 21.039062 46.898438 21.582031 45.824219 21.949219 C 45.746094 21.976562 45.703125 22.058594 45.730469 22.140625 C 45.75 22.199219 45.808594 22.238281 45.871094 22.242188 C 45.886719 22.242188 45.90625 22.238281 45.921875 22.234375 C 47.023438 21.855469 48.132812 21.304688 49.25 20.574219 L 49.257812 20.570312 C 49.648438 20.285156 49.890625 19.953125 49.988281 19.574219 L 49.988281 19.566406 C 50.054688 19.183594 49.980469 18.929688 49.757812 18.808594 C 49.738281 18.796875 49.714844 18.789062 49.6875 18.789062 Z M 49.6875 18.789062 " fill-opacity="1" fill-rule="nonzero"/></svg>