<svg xmlns="http://www.w3.org/2000/svg" xmlns:xlink="http://www.w3.org/1999/xlink" width="70" zoomAndPan="magnify" viewBox="0 0 52.5 52.499999" height="70" preserveAspectRatio="xMidYMid meet" version="1.0"><defs><clipPath id="e3699c537b"><path d="M 1.730469 8.507812 L 50.019531 8.507812 L 50.019531 43.425781 L 1.730469 43.425781 Z M 1.730469 8.507812 " clip-rule="nonzero"/></clipPath></defs><g clip-path="url(#e3699c537b)"><path fill="#f8c8dc" d="M 49.90625 10.175781 C 48.921875 9.246094 47.472656 8.8125 46.140625 8.703125 C 44.800781 8.59375 43.351562 8.867188 42.03125 9.238281 C 37.871094 10.40625 34.570312 12.777344 31.796875 16.011719 C 30.082031 18.011719 28.640625 20.203125 27.472656 22.566406 C 27.457031 22.597656 27.441406 22.597656 27.425781 22.566406 C 27.261719 22.234375 27.042969 21.945312 26.757812 21.707031 C 26.757812 21.707031 26.757812 21.707031 26.75 21.699219 C 26.734375 21.683594 26.734375 21.652344 26.757812 21.636719 C 27.546875 20.992188 27.515625 20.511719 26.6875 19.964844 C 26.664062 19.949219 26.664062 19.933594 26.6875 19.910156 C 26.890625 19.769531 27.066406 19.621094 27.199219 19.460938 C 28.585938 17.832031 29.128906 16.003906 29.78125 13.886719 C 29.910156 13.476562 30.121094 13.105469 30.421875 12.769531 C 30.894531 12.222656 31.617188 11.917969 32.035156 11.335938 C 32.121094 11.207031 32.074219 11.042969 31.933594 11.011719 C 30.679688 10.742188 29.671875 12.808594 29.394531 13.730469 C 29.308594 14.027344 29.113281 14.714844 28.8125 15.800781 C 28.449219 17.109375 27.773438 18.320312 26.789062 19.429688 C 26.511719 19.738281 26.191406 19.863281 25.8125 19.808594 C 25.679688 19.785156 25.535156 19.714844 25.402344 19.605469 C 24.566406 18.871094 23.929688 17.761719 23.503906 16.738281 C 23.140625 15.871094 22.867188 14.722656 22.574219 13.710938 C 22.277344 12.703125 21.441406 10.957031 20.171875 10.996094 C 20.078125 10.996094 20 11.050781 19.9375 11.152344 C 19.921875 11.175781 19.921875 11.191406 19.929688 11.214844 C 19.96875 11.359375 20.03125 11.46875 20.117188 11.546875 C 20.574219 11.957031 21.269531 12.398438 21.652344 12.894531 C 21.945312 13.28125 22.164062 13.710938 22.300781 14.191406 C 22.820312 15.988281 23.371094 17.683594 24.566406 19.21875 C 24.773438 19.476562 25 19.707031 25.253906 19.902344 C 25.261719 19.910156 25.261719 19.910156 25.269531 19.917969 C 25.285156 19.941406 25.277344 19.972656 25.246094 19.992188 C 24.386719 20.464844 24.480469 21.125 25.222656 21.644531 C 25.222656 21.644531 25.230469 21.652344 25.230469 21.652344 C 25.246094 21.667969 25.238281 21.691406 25.222656 21.707031 C 24.921875 21.953125 24.6875 22.242188 24.519531 22.589844 C 24.503906 22.621094 24.488281 22.621094 24.472656 22.589844 C 22.929688 19.46875 20.921875 16.691406 18.441406 14.257812 C 15.445312 11.300781 11.863281 9.398438 7.65625 8.765625 C 5.925781 8.507812 4.050781 8.773438 2.570312 9.75 C 2.347656 9.894531 1.953125 10.183594 1.890625 10.453125 C 1.734375 11.058594 4.421875 13.050781 4.917969 13.453125 C 5.625 14.019531 6.308594 14.792969 6.59375 15.640625 C 6.839844 16.367188 6.824219 17.164062 6.71875 17.917969 C 6.617188 18.691406 7.214844 19.179688 7.453125 19.855469 C 7.601562 20.28125 7.679688 20.722656 7.703125 21.171875 C 7.726562 21.582031 7.800781 21.945312 7.957031 22.257812 C 8.367188 23.085938 9.144531 24.09375 9.871094 24.644531 C 10.585938 25.1875 11.585938 25.226562 12.429688 24.992188 C 12.628906 24.9375 13.0625 24.746094 13.746094 24.425781 C 15.488281 23.597656 17.273438 23.171875 19.257812 23.210938 C 20.621094 23.242188 22.09375 23.480469 23.664062 23.929688 C 23.78125 23.960938 23.875 23.992188 23.9375 24.015625 C 23.953125 24.023438 23.96875 24.039062 23.96875 24.0625 L 23.90625 24.8125 C 23.90625 24.84375 23.890625 24.851562 23.859375 24.859375 C 22.355469 25.023438 20.722656 25.371094 18.960938 25.890625 C 17.265625 26.394531 15.738281 27.085938 14.375 27.976562 C 14.25 28.0625 14.132812 28.109375 14.03125 28.125 C 13.996094 28.132812 13.972656 28.117188 13.957031 28.085938 C 13.746094 27.636719 14.769531 26.75 15.125 26.527344 C 15.878906 26.0625 16.667969 25.683594 17.503906 25.402344 C 19.488281 24.730469 21.675781 24.324219 23.773438 24.503906 C 23.796875 24.503906 23.8125 24.496094 23.8125 24.464844 C 23.8125 24.449219 23.804688 24.441406 23.789062 24.433594 C 21.675781 23.921875 19.441406 23.808594 17.273438 24.085938 C 15.234375 24.347656 12.597656 25.242188 11.707031 27.277344 C 11.210938 28.402344 10.925781 30.175781 11.359375 31.386719 C 11.839844 32.75 13.109375 33.625 14.304688 34.332031 C 16.101562 35.398438 16.265625 37.46875 15.265625 39.152344 C 15.015625 39.585938 14.476562 40.167969 14.21875 40.648438 C 13.699219 41.609375 13.761719 42.546875 14.421875 43.453125 C 14.445312 43.476562 14.476562 43.492188 14.511719 43.476562 C 14.550781 43.460938 14.566406 43.414062 14.550781 43.375 C 14.453125 43.164062 14.328125 42.964844 14.304688 42.738281 C 14.117188 41.128906 15.816406 41.035156 16.3125 39.933594 C 16.683594 39.113281 16.9375 38.484375 17.644531 38.058594 C 17.960938 37.871094 18.410156 37.75 18.792969 37.625 C 21.726562 36.648438 22.78125 33.410156 23.378906 30.726562 C 23.621094 29.632812 23.921875 28.519531 24.277344 27.402344 C 24.308594 27.300781 24.339844 27.300781 24.371094 27.402344 C 24.566406 28.109375 24.914062 28.734375 25.402344 29.277344 C 25.417969 29.300781 25.425781 29.324219 25.402344 29.347656 C 24.386719 30.710938 24.710938 33.554688 25.640625 34.902344 C 25.859375 35.222656 26.121094 35.191406 26.371094 34.925781 C 26.488281 34.804688 26.5625 34.703125 26.59375 34.632812 C 27.277344 33.175781 27.433594 31.703125 27.066406 30.191406 C 26.992188 29.898438 26.835938 29.597656 26.585938 29.285156 C 26.570312 29.261719 26.570312 29.246094 26.59375 29.222656 C 27.097656 28.78125 27.449219 27.898438 27.632812 27.269531 C 27.640625 27.238281 27.648438 27.238281 27.65625 27.269531 C 28.183594 28.789062 28.492188 30.269531 28.84375 31.78125 C 29.386719 34.097656 30.695312 36.839844 33.144531 37.632812 C 33.390625 37.710938 33.632812 37.792969 33.878906 37.878906 C 34.902344 38.230469 35.160156 38.949219 35.585938 39.832031 C 35.753906 40.175781 35.910156 40.40625 36.050781 40.5 C 36.460938 40.792969 36.957031 41.105469 37.25 41.453125 C 37.730469 42.019531 37.777344 42.675781 37.390625 43.40625 C 37.367188 43.445312 37.382812 43.460938 37.421875 43.453125 C 37.492188 43.4375 37.554688 43.390625 37.601562 43.3125 C 38.203125 42.414062 38.234375 41.5 37.683594 40.570312 C 37.40625 40.105469 36.871094 39.546875 36.601562 39.042969 C 35.886719 37.6875 35.863281 36.066406 36.910156 34.917969 C 37.359375 34.421875 38.226562 33.972656 38.699219 33.65625 C 39.707031 32.988281 40.691406 31.8125 40.792969 30.550781 C 40.855469 29.757812 40.769531 28.929688 40.535156 28.070312 C 39.816406 25.457031 37.097656 24.425781 34.6875 24.101562 C 32.46875 23.808594 30.261719 23.929688 28.082031 24.449219 C 28.058594 24.449219 28.035156 24.433594 28.027344 24.410156 L 27.988281 24.070312 C 27.988281 24.039062 27.996094 24.023438 28.027344 24.007812 C 30.933594 23.101562 34.003906 22.875 36.917969 23.914062 C 37.5 24.117188 38.148438 24.402344 38.847656 24.746094 C 39.957031 25.300781 41.382812 25.308594 42.328125 24.425781 C 42.945312 23.851562 43.457031 23.195312 43.855469 22.457031 C 44.046875 22.101562 44.15625 21.832031 44.171875 21.636719 C 44.21875 21.164062 44.25 20.644531 44.363281 20.210938 C 44.496094 19.699219 44.714844 19.328125 45.03125 18.808594 C 45.164062 18.589844 45.308594 18.289062 45.273438 18.070312 C 45.109375 16.949219 45.132812 15.800781 45.761719 14.824219 C 46.054688 14.375 46.496094 13.910156 47.085938 13.429688 C 47.804688 12.855469 48.503906 12.261719 49.207031 11.664062 C 49.363281 11.53125 49.542969 11.34375 49.734375 11.097656 C 50.015625 10.765625 50.269531 10.53125 49.90625 10.175781 Z M 18.296875 22.746094 C 18.296875 22.753906 18.296875 22.753906 18.296875 22.746094 C 16.621094 22.683594 14.957031 22.761719 13.296875 23 C 12.53125 23.109375 11.148438 23.15625 10.667969 22.382812 C 10.359375 21.886719 11.515625 21.730469 11.769531 21.714844 C 12.589844 21.667969 13.429688 21.746094 14.296875 21.960938 C 15.351562 22.210938 16.683594 22.472656 18.28125 22.738281 C 18.296875 22.730469 18.296875 22.730469 18.296875 22.746094 C 18.296875 22.738281 18.296875 22.746094 18.296875 22.746094 Z M 23.890625 23.3125 C 21.140625 21.921875 18.070312 21.125 15.101562 20.242188 C 14.359375 20.023438 11.925781 19.335938 11.660156 18.582031 C 11.636719 18.5 11.667969 18.414062 11.746094 18.382812 C 12.089844 18.234375 12.613281 18.351562 12.964844 18.445312 C 13.296875 18.542969 13.964844 18.785156 14.972656 19.195312 C 16.210938 19.691406 17.441406 20.117188 18.675781 20.574219 C 18.683594 20.574219 18.691406 20.574219 18.691406 20.574219 C 18.699219 20.566406 18.699219 20.566406 18.691406 20.558594 C 17.203125 19.863281 16.148438 19.367188 15.527344 19.054688 C 14.398438 18.484375 13.21875 17.824219 12.34375 16.902344 C 12.066406 16.621094 11.429688 15.617188 12.035156 15.414062 C 12.894531 15.121094 13.515625 15.335938 14.335938 15.792969 C 16.34375 16.910156 18.09375 18.234375 19.898438 19.722656 C 19.898438 19.722656 19.90625 19.722656 19.90625 19.722656 C 19.90625 19.722656 19.90625 19.714844 19.90625 19.714844 C 18.15625 18.003906 16.25 16.367188 14.21875 15.019531 C 12.3125 13.753906 11.058594 12.910156 10.46875 12.5 C 10.1875 12.296875 8.4375 11.019531 8.671875 10.640625 C 8.878906 10.316406 10.5 11.152344 10.785156 11.308594 C 11.917969 11.964844 12.933594 12.6875 13.839844 13.46875 C 17.367188 16.515625 20.730469 19.777344 23.9375 23.242188 C 24.070312 23.378906 24.046875 23.402344 23.890625 23.3125 Z M 15.117188 31.457031 C 14.746094 31.308594 14.574219 31.023438 14.582031 30.617188 C 14.605469 29.6875 15.109375 28.992188 15.808594 28.441406 C 16.582031 27.828125 17.417969 27.316406 18.3125 26.90625 C 20.09375 26.101562 21.929688 25.480469 23.828125 25.046875 C 23.828125 25.046875 23.835938 25.046875 23.835938 25.046875 C 23.867188 25.046875 23.890625 25.070312 23.890625 25.101562 L 23.898438 25.582031 C 23.898438 25.605469 23.890625 25.628906 23.859375 25.636719 C 23.644531 25.722656 23.425781 25.835938 23.207031 25.984375 C 22.417969 26.503906 21.683594 27.078125 21.023438 27.71875 C 20.339844 28.378906 19.613281 29.300781 18.921875 30.097656 C 17.984375 31.183594 16.597656 32.066406 15.117188 31.457031 Z M 24.0625 26.605469 C 23.347656 27.558594 22.8125 28.496094 22.464844 29.402344 C 21.984375 30.664062 21.589844 31.578125 21.300781 32.136719 C 20.859375 32.988281 20.132812 33.90625 19.210938 34.144531 C 18.730469 34.261719 17.921875 34.152344 17.882812 33.515625 C 17.792969 32.113281 18.84375 30.914062 19.777344 29.9375 C 20.605469 29.085938 21.527344 28.109375 22.542969 27 C 22.929688 26.582031 23.386719 26.164062 23.90625 25.757812 C 23.929688 25.738281 23.945312 25.738281 23.953125 25.773438 L 24.085938 26.535156 C 24.085938 26.558594 24.078125 26.582031 24.0625 26.605469 Z M 36.660156 31.527344 C 34.632812 32.136719 33.304688 30.371094 32.160156 29.046875 C 30.957031 27.636719 29.695312 26.488281 28.097656 25.535156 C 28.074219 25.519531 28.066406 25.503906 28.066406 25.472656 L 28.089844 25.09375 C 28.089844 25.0625 28.113281 25.046875 28.144531 25.046875 C 28.5 25.109375 28.84375 25.179688 29.183594 25.285156 C 31.375 25.90625 37.1875 27.757812 37.382812 30.449219 C 37.429688 31.015625 37.195312 31.371094 36.660156 31.527344 Z M 28.105469 24.503906 C 28.921875 24.425781 29.828125 24.449219 30.8125 24.582031 C 32.863281 24.851562 35.066406 25.449219 36.839844 26.550781 C 37.234375 26.796875 38.117188 27.558594 38.003906 28.070312 C 37.996094 28.09375 37.980469 28.109375 37.957031 28.109375 C 37.863281 28.117188 37.785156 28.09375 37.722656 28.054688 C 34.832031 26.1875 31.507812 25.292969 28.136719 24.851562 C 28.105469 24.851562 28.089844 24.828125 28.082031 24.796875 L 28.066406 24.550781 C 28.058594 24.527344 28.074219 24.511719 28.105469 24.503906 Z M 28.050781 25.730469 C 28.050781 25.714844 28.066406 25.707031 28.074219 25.722656 C 28.640625 26.15625 29.082031 26.542969 29.378906 26.882812 C 30.339844 27.96875 31.253906 28.953125 32.121094 29.851562 C 33.035156 30.796875 33.941406 31.828125 34.097656 33.160156 C 34.113281 33.300781 34.105469 33.449219 34.082031 33.601562 C 33.988281 34.082031 33.382812 34.238281 32.972656 34.183594 C 31.050781 33.914062 30.167969 31.074219 29.578125 29.574219 C 29.160156 28.511719 28.609375 27.527344 27.921875 26.613281 C 27.90625 26.589844 27.898438 26.574219 27.90625 26.542969 Z M 41.296875 22.402344 C 40.957031 23 39.722656 23.125 39.15625 23.03125 C 37.414062 22.769531 35.664062 22.675781 33.910156 22.746094 C 33.847656 22.746094 33.785156 22.753906 33.71875 22.769531 C 33.703125 22.769531 33.695312 22.769531 33.6875 22.769531 C 33.679688 22.769531 33.679688 22.761719 33.679688 22.753906 C 33.679688 22.746094 33.6875 22.730469 33.695312 22.730469 C 35.050781 22.480469 36.390625 22.210938 37.714844 21.914062 C 38.429688 21.753906 39.164062 21.675781 39.902344 21.675781 C 40.210938 21.691406 41.644531 21.792969 41.296875 22.402344 Z M 43.265625 10.765625 C 42.96875 11.359375 42.242188 11.902344 41.714844 12.296875 C 40.613281 13.121094 38.824219 14.175781 37.335938 15.234375 C 36.035156 16.15625 34.722656 17.21875 33.375 18.429688 C 32.863281 18.894531 32.476562 19.257812 32.230469 19.511719 C 32.230469 19.519531 32.230469 19.519531 32.230469 19.527344 C 32.230469 19.535156 32.238281 19.535156 32.246094 19.527344 C 33.570312 18.398438 34.964844 17.375 36.4375 16.445312 C 37.058594 16.050781 37.621094 15.746094 38.117188 15.507812 C 38.730469 15.21875 39.34375 15.195312 39.949219 15.4375 C 40.125 15.507812 40.179688 15.675781 40.15625 15.855469 C 39.972656 17.003906 38.46875 17.917969 37.46875 18.476562 C 36.164062 19.210938 34.6875 19.878906 33.269531 20.519531 C 33.261719 20.519531 33.261719 20.527344 33.261719 20.527344 C 33.261719 20.527344 33.261719 20.527344 33.269531 20.527344 C 35.042969 19.894531 36.808594 19.25 38.5625 18.582031 C 39.101562 18.375 39.792969 18.164062 40.21875 18.390625 C 40.21875 18.390625 40.226562 18.390625 40.226562 18.390625 C 40.304688 18.4375 40.335938 18.542969 40.289062 18.621094 C 40.078125 18.980469 39.566406 19.242188 39.1875 19.398438 C 38.382812 19.738281 37.554688 20.023438 36.714844 20.257812 C 33.5 21.164062 30.703125 21.953125 27.929688 23.363281 C 27.921875 23.371094 27.914062 23.363281 27.90625 23.363281 C 27.898438 23.355469 27.898438 23.335938 27.90625 23.328125 C 30.484375 20.421875 33.304688 17.722656 36.28125 15.003906 C 37.894531 13.53125 39.421875 12.222656 41.25 11.207031 C 41.738281 10.933594 42.597656 10.5 43.140625 10.53125 C 43.164062 10.53125 43.179688 10.539062 43.203125 10.546875 C 43.273438 10.59375 43.304688 10.6875 43.265625 10.765625 Z M 43.265625 10.765625 " fill-opacity="1" fill-rule="nonzero"/></g></svg>