<svg xmlns="http://www.w3.org/2000/svg" xmlns:xlink="http://www.w3.org/1999/xlink" width="70" zoomAndPan="magnify" viewBox="0 0 52.5 52.499999" height="70" preserveAspectRatio="xMidYMid meet" version="1.0"><defs><clipPath id="928d6e7853"><path d="M 17 2.550781 L 40 2.550781 L 40 37 L 17 37 Z M 17 2.550781 " clip-rule="nonzero"/></clipPath><clipPath id="5c048e9960"><path d="M 2.808594 7 L 48.125 7 L 48.125 48.613281 L 2.808594 48.613281 Z M 2.808594 7 " clip-rule="nonzero"/></clipPath></defs><g clip-path="url(#928d6e7853)"><path fill="#f9ca98" d="M 26.566406 11.339844 C 26.566406 11.355469 26.539062 11.355469 26.519531 11.339844 C 26.070312 10.003906 26.316406 8.300781 26.445312 6.917969 C 26.5 6.203125 26.59375 5.5 26.703125 4.777344 C 26.804688 4.097656 26.859375 3.332031 27.207031 2.726562 C 27.304688 2.550781 27.535156 2.644531 27.554688 2.828125 C 27.609375 3.476562 27.398438 4.164062 27.296875 4.804688 C 27.152344 5.589844 27.050781 6.398438 26.96875 7.183594 C 26.894531 7.914062 26.839844 8.648438 26.785156 9.390625 C 26.738281 10.046875 26.757812 10.726562 26.566406 11.339844 Z M 30.007812 14.671875 C 31.113281 12.703125 32.148438 10.699219 33.300781 8.757812 C 33.886719 7.796875 34.492188 6.835938 35.140625 5.902344 C 35.773438 4.988281 36.484375 4.0625 36.945312 3.046875 C 36.988281 2.945312 36.871094 2.84375 36.789062 2.917969 C 35.925781 3.660156 35.277344 4.667969 34.644531 5.617188 C 34.035156 6.5625 33.429688 7.523438 32.851562 8.5 C 31.707031 10.46875 30.65625 12.472656 29.886719 14.625 C 29.878906 14.6875 29.980469 14.726562 30.007812 14.671875 Z M 34.902344 13.597656 C 36.277344 12.308594 37.804688 11.265625 39.277344 10.101562 C 39.359375 10.03125 39.25 9.921875 39.160156 9.957031 C 37.457031 10.734375 36.019531 12.109375 34.839844 13.542969 C 34.8125 13.582031 34.855469 13.636719 34.902344 13.597656 Z M 24.386719 26.402344 C 23.910156 28.023438 23.371094 29.644531 22.8125 31.234375 C 22.554688 31.996094 22.261719 32.746094 22 33.503906 C 21.722656 34.246094 21.285156 35.023438 21.210938 35.828125 C 21.191406 36.003906 21.441406 36.085938 21.539062 35.976562 C 22.027344 35.417969 22.246094 34.632812 22.5 33.933594 C 22.804688 33.148438 23.078125 32.34375 23.335938 31.539062 C 23.863281 29.863281 24.242188 28.195312 24.550781 26.457031 C 24.5625 26.347656 24.414062 26.300781 24.386719 26.402344 Z M 25.859375 29.101562 C 25.816406 29.917969 26.035156 30.769531 26.207031 31.554688 C 26.382812 32.359375 26.539062 33.203125 26.921875 33.933594 C 27.023438 34.117188 27.351562 34.035156 27.324219 33.816406 C 27.242188 33.039062 26.96875 32.296875 26.765625 31.539062 C 26.566406 30.722656 26.457031 29.84375 26.152344 29.058594 C 26.109375 28.902344 25.878906 28.929688 25.859375 29.101562 Z M 20.140625 28.78125 C 19.226562 29.269531 18.164062 29.898438 17.707031 30.878906 C 17.632812 31.035156 17.789062 31.234375 17.960938 31.136719 C 18.851562 30.605469 19.527344 29.769531 20.359375 29.15625 C 20.570312 29.003906 20.398438 28.65625 20.140625 28.78125 Z M 19.628906 6.425781 C 19.910156 7.054688 20.257812 7.761719 20.734375 8.261719 C 20.808594 8.335938 20.9375 8.234375 20.882812 8.144531 C 20.507812 7.539062 20.066406 7 19.71875 6.367188 C 19.683594 6.304688 19.601562 6.367188 19.628906 6.425781 Z M 19.628906 6.425781 " fill-opacity="1" fill-rule="nonzero"/></g><g clip-path="url(#5c048e9960)"><path fill="#f3e9dd" d="M 27.425781 13.855469 C 26.539062 16.738281 25.585938 19.492188 24.542969 22.15625 C 23.535156 24.691406 21.441406 26.816406 18.851562 27.667969 C 17.148438 28.222656 15.410156 28.152344 13.742188 27.648438 C 11.480469 33.789062 11.792969 33.488281 9.6875 39.535156 C 9.742188 39.582031 9.789062 39.617188 9.84375 39.664062 C 10.722656 40.425781 11.261719 41.613281 11.316406 42.777344 C 8.390625 41.933594 5.550781 40.808594 2.816406 39.480469 C 3.722656 38.546875 5.019531 38.007812 6.328125 38.117188 C 6.503906 38.136719 6.660156 38.144531 6.832031 38.171875 C 9.113281 32.105469 8.78125 32.527344 11.050781 26.457031 C 10.117188 25.910156 9.277344 25.242188 8.652344 24.363281 C 7.207031 22.320312 7.234375 19.601562 7.648438 17.132812 C 8.179688 13.890625 9.257812 10.753906 10.8125 7.871094 C 15.0625 9.085938 24.816406 12.636719 27.425781 13.855469 Z M 25.980469 19.042969 C 26.636719 22 27.351562 24.8125 28.183594 27.546875 C 28.972656 30.15625 30.894531 32.433594 33.402344 33.496094 C 35.050781 34.183594 36.789062 34.273438 38.492188 33.898438 C 40.238281 40.214844 39.699219 39.105469 41.300781 45.300781 C 41.246094 45.347656 41.179688 45.375 41.144531 45.421875 C 40.210938 46.109375 39.578125 47.242188 39.425781 48.40625 C 42.40625 47.792969 45.335938 46.929688 48.15625 45.804688 C 47.320312 44.800781 46.078125 44.160156 44.769531 44.160156 C 44.59375 44.160156 44.4375 44.175781 44.265625 44.1875 C 42.488281 37.960938 43.046875 39.152344 41.261719 32.929688 C 42.222656 32.453125 43.128906 31.847656 43.816406 31.035156 C 45.425781 29.128906 45.609375 26.402344 45.410156 23.90625 C 45.136719 20.636719 44.449219 17.050781 43.128906 14.039062 C 38.800781 14.945312 28.679688 18.039062 25.980469 19.042969 Z M 25.980469 19.042969 " fill-opacity="1" fill-rule="nonzero"/></g><path fill="#895737" d="M 44.183594 26.632812 C 44.128906 28.480469 43.039062 30.230469 41.519531 31.28125 C 40 32.34375 38.078125 32.746094 36.230469 32.625 C 35.386719 32.570312 34.535156 32.425781 33.777344 32.078125 C 31.570312 31.089844 30.335938 28.738281 29.320312 26.53125 C 30.65625 25.84375 32.128906 26.128906 33.566406 26.511719 C 35.003906 26.898438 36.496094 27.429688 37.96875 27.199219 C 39.058594 27.027344 40.046875 26.457031 41.097656 26.082031 C 42.140625 25.71875 43.25 26.046875 44.183594 26.632812 Z M 19.5625 21.296875 C 16.269531 22.457031 12.332031 20.582031 8.992188 21.578125 C 9.378906 22.925781 10.328125 24.078125 11.519531 24.839844 C 12.699219 25.597656 14.101562 25.980469 15.492188 26.082031 C 17.386719 26.210938 19.390625 25.808594 20.871094 24.609375 C 22.144531 23.574219 22.949219 22 23.050781 20.363281 C 21.558594 20.464844 20.953125 20.8125 19.5625 21.296875 Z M 19.5625 21.296875 " fill-opacity="1" fill-rule="nonzero"/></svg>