<svg xmlns="http://www.w3.org/2000/svg" xmlns:xlink="http://www.w3.org/1999/xlink" width="70" zoomAndPan="magnify" viewBox="0 0 52.5 52.499999" height="70" preserveAspectRatio="xMidYMid meet" version="1.0"><defs><clipPath id="19239ebd56"><path d="M 1.113281 6.464844 L 50.890625 6.464844 L 50.890625 43.609375 L 1.113281 43.609375 Z M 1.113281 6.464844 " clip-rule="nonzero"/></clipPath></defs><path fill="#f8c8dc" d="M 8.167969 24.335938 L 7.191406 22.65625 L 6.214844 24.335938 L 7.191406 25.964844 Z M 8.167969 24.335938 " fill-opacity="1" fill-rule="nonzero"/><path fill="#f8c8dc" d="M 19.242188 20.320312 L 18.316406 18.640625 L 17.339844 20.320312 L 18.316406 21.949219 Z M 19.242188 20.320312 " fill-opacity="1" fill-rule="nonzero"/><path fill="#f8c8dc" d="M 45.777344 24.335938 L 44.800781 22.65625 L 43.824219 24.335938 L 44.800781 25.964844 Z M 45.777344 24.335938 " fill-opacity="1" fill-rule="nonzero"/><path fill="#f8c8dc" d="M 34.652344 20.320312 L 33.675781 18.640625 L 32.753906 20.320312 L 33.675781 21.949219 Z M 34.652344 20.320312 " fill-opacity="1" fill-rule="nonzero"/><g clip-path="url(#19239ebd56)"><path fill="#f8c8dc" d="M 43.390625 31.285156 L 39.863281 19.617188 L 33.1875 28.355469 L 26.890625 15.871094 L 28.792969 12.074219 L 26.023438 6.539062 L 23.203125 12.074219 L 25.101562 15.871094 L 18.804688 28.300781 L 12.238281 19.617188 L 8.710938 31.339844 L 1.113281 22.601562 L 6.324219 39.097656 L 6.378906 39.207031 L 6.378906 43.222656 L 45.613281 43.222656 L 45.613281 39.207031 L 45.722656 38.9375 L 50.878906 22.601562 Z M 43.769531 38.285156 L 39.484375 38.285156 L 42.683594 34.59375 Z M 39.210938 23.144531 L 42.140625 32.75 L 37.910156 37.632812 L 34.054688 29.980469 Z M 36.390625 38.285156 L 27.707031 38.285156 L 32.917969 31.445312 Z M 24.992188 12.074219 L 25.96875 10.171875 L 26.945312 12.074219 L 25.96875 14.027344 Z M 26.023438 17.664062 L 32.101562 29.765625 L 26.023438 37.796875 L 19.945312 29.710938 Z M 9.363281 34.648438 L 12.511719 38.285156 L 8.277344 38.285156 Z M 24.339844 38.285156 L 15.605469 38.285156 L 19.078125 31.339844 Z M 12.890625 23.144531 L 17.992188 29.875 L 14.140625 37.632812 L 9.960938 32.804688 Z M 5.023438 29.65625 L 8.117188 33.183594 L 7.136719 36.332031 Z M 43.988281 41.59375 L 8.007812 41.59375 L 8.007812 39.914062 L 43.988281 39.914062 Z M 44.855469 36.222656 L 43.933594 33.128906 L 46.972656 29.65625 Z M 44.855469 36.222656 " fill-opacity="1" fill-rule="nonzero"/></g></svg>