<svg xmlns="http://www.w3.org/2000/svg" xmlns:xlink="http://www.w3.org/1999/xlink" width="70" zoomAndPan="magnify" viewBox="0 0 52.5 52.499999" height="70" preserveAspectRatio="xMidYMid meet" version="1.0"><defs><clipPath id="e46a7e8b7c"><path d="M 8 2.167969 L 33 2.167969 L 33 23 L 8 23 Z M 8 2.167969 " clip-rule="nonzero"/></clipPath><clipPath id="78f24124c9"><path d="M 40 23 L 44.847656 23 L 44.847656 30 L 40 30 Z M 40 23 " clip-rule="nonzero"/></clipPath><clipPath id="0d51f7f6e9"><path d="M 22 42 L 26 42 L 26 46.746094 L 22 46.746094 Z M 22 42 " clip-rule="nonzero"/></clipPath><clipPath id="0687d8d047"><path d="M 42 34 L 44.847656 34 L 44.847656 37 L 42 37 Z M 42 34 " clip-rule="nonzero"/></clipPath><clipPath id="8cd060f80a"><path d="M 26 44 L 29 44 L 29 46.746094 L 26 46.746094 Z M 26 44 " clip-rule="nonzero"/></clipPath><clipPath id="15a1453ac8"><path d="M 42 19 L 44.847656 19 L 44.847656 21 L 42 21 Z M 42 19 " clip-rule="nonzero"/></clipPath><clipPath id="93a406cedb"><path d="M 3.988281 19 L 6 19 L 6 22 L 3.988281 22 Z M 3.988281 19 " clip-rule="nonzero"/></clipPath><clipPath id="27ff9c4f63"><path d="M 19 45 L 21 45 L 21 46.746094 L 19 46.746094 Z M 19 45 " clip-rule="nonzero"/></clipPath></defs><path fill="#f8c8dc" d="M 34.175781 29.726562 C 34.375 29.09375 34.550781 28.492188 34.753906 27.902344 C 35.613281 25.371094 36.484375 22.84375 37.34375 20.316406 C 37.445312 20.023438 37.511719 19.71875 37.585938 19.421875 C 37.648438 19.152344 37.757812 19.074219 38.027344 19.132812 C 38.199219 19.167969 38.375 19.199219 38.542969 19.253906 C 38.9375 19.375 39.214844 19.707031 39.214844 20.113281 C 39.214844 20.449219 39.1875 20.789062 39.117188 21.117188 C 38.871094 22.28125 38.429688 23.382812 38.027344 24.496094 C 37.0625 27.167969 36.042969 29.820312 35.210938 32.535156 C 34.890625 33.578125 34.65625 34.640625 34.558594 35.726562 C 34.539062 35.964844 34.542969 36.214844 34.589844 36.445312 C 34.796875 37.417969 35.851562 37.9375 36.847656 37.574219 C 37.359375 37.390625 37.773438 37.066406 38.136719 36.683594 C 38.789062 36 39.230469 35.195312 39.359375 34.25 C 39.496094 33.222656 38.683594 32.769531 37.988281 32.867188 C 37.898438 32.878906 37.804688 32.878906 37.714844 32.878906 C 37.453125 32.882812 37.332031 32.757812 37.40625 32.503906 C 37.464844 32.292969 37.554688 32.058594 37.699219 31.902344 C 38.433594 31.109375 39.816406 31.175781 40.378906 32.101562 C 40.800781 32.796875 40.917969 33.515625 40.726562 34.292969 C 40.316406 35.949219 39.386719 37.234375 37.898438 38.078125 C 36.902344 38.644531 35.828125 38.695312 34.769531 38.253906 C 33.75 37.828125 33.21875 36.992188 32.988281 35.945312 C 32.957031 35.816406 32.945312 35.683594 32.917969 35.511719 C 32.863281 35.589844 32.835938 35.644531 32.800781 35.6875 C 32.503906 36.046875 32.230469 36.433594 31.898438 36.761719 C 31.46875 37.183594 30.921875 37.40625 30.328125 37.476562 C 29.566406 37.570312 29.015625 37.195312 28.597656 36.601562 C 28.445312 36.386719 28.339844 36.136719 28.214844 35.898438 C 28.0625 36.109375 27.910156 36.332031 27.746094 36.539062 C 27.488281 36.859375 27.191406 37.132812 26.847656 37.359375 C 25.554688 38.203125 23.960938 37.472656 23.871094 35.832031 C 23.828125 35.070312 23.996094 34.351562 24.234375 33.640625 C 24.664062 32.375 25.226562 31.164062 25.84375 29.980469 C 25.992188 29.699219 26.113281 29.398438 26.222656 29.097656 C 26.292969 28.910156 26.359375 28.683594 26.183594 28.535156 C 26.003906 28.382812 25.792969 28.492188 25.621094 28.589844 C 25.375 28.734375 25.132812 28.890625 24.917969 29.078125 C 24.25 29.65625 23.710938 30.339844 23.246094 31.09375 C 22.4375 32.410156 21.851562 33.824219 21.363281 35.285156 C 21.164062 35.875 20.945312 36.460938 20.746094 37.050781 C 20.695312 37.199219 20.675781 37.363281 20.644531 37.519531 C 20.621094 37.652344 20.550781 37.75 20.414062 37.757812 C 20.117188 37.785156 19.820312 37.777344 19.539062 37.640625 C 19.289062 37.515625 19.136719 37.308594 19.039062 37.015625 C 18.992188 37.105469 18.957031 37.167969 18.921875 37.230469 C 18.445312 38.171875 17.941406 39.097656 17.257812 39.910156 C 16.152344 41.234375 14.84375 42.277344 13.191406 42.824219 C 10.371094 43.75 7.53125 41.882812 7.265625 38.925781 C 7.125 37.378906 7.476562 35.921875 8.160156 34.539062 C 8.792969 33.257812 9.660156 32.171875 10.832031 31.339844 C 10.855469 31.324219 10.878906 31.304688 10.914062 31.277344 C 10.097656 30.367188 9.75 29.308594 9.898438 28.09375 C 10.046875 26.898438 10.539062 25.894531 11.480469 25.101562 C 11.417969 25.046875 11.367188 25 11.320312 24.957031 C 10.503906 24.214844 10.003906 23.304688 9.964844 22.195312 C 9.921875 21.039062 10.269531 20 11.042969 19.128906 C 11.484375 18.632812 12.046875 18.304688 12.703125 18.183594 C 12.953125 18.136719 13.226562 18.171875 13.484375 18.203125 C 13.558594 18.210938 13.664062 18.320312 13.675781 18.398438 C 13.6875 18.453125 13.585938 18.574219 13.511719 18.597656 C 11.878906 19.09375 11.144531 21.058594 11.324219 22.484375 C 11.402344 23.125 11.75 23.613281 12.214844 24.042969 C 12.464844 24.273438 12.65625 24.316406 12.984375 24.15625 C 14.109375 23.601562 15.304688 23.347656 16.566406 23.488281 C 17.175781 23.558594 17.765625 23.691406 18.265625 24.082031 C 18.832031 24.523438 18.917969 25.1875 18.472656 25.757812 C 18.167969 26.152344 17.75 26.363281 17.277344 26.484375 C 16.0625 26.796875 14.867188 26.671875 13.691406 26.292969 C 13.460938 26.21875 13.238281 26.125 13.015625 26.035156 C 12.9375 26.003906 12.886719 25.996094 12.832031 26.078125 C 12.308594 26.851562 11.949219 27.6875 11.882812 28.625 C 11.839844 29.269531 11.945312 29.890625 12.253906 30.472656 C 12.316406 30.585938 12.375 30.617188 12.507812 30.578125 C 13.445312 30.285156 14.394531 30.101562 15.382812 30.15625 C 15.875 30.183594 16.351562 30.261719 16.789062 30.503906 C 17.289062 30.785156 17.527344 31.230469 17.449219 31.734375 C 17.402344 32.015625 17.230469 32.222656 17.027344 32.402344 C 16.660156 32.726562 16.21875 32.875 15.746094 32.949219 C 14.566406 33.140625 13.457031 32.902344 12.40625 32.367188 C 12.269531 32.296875 12.199219 32.316406 12.105469 32.421875 C 10.75 33.886719 9.976562 35.628906 9.683594 37.585938 C 9.550781 38.457031 9.640625 39.328125 10.015625 40.140625 C 10.445312 41.085938 11.238281 41.523438 12.230469 41.621094 C 12.980469 41.699219 13.667969 41.457031 14.308594 41.078125 C 15.171875 40.566406 15.917969 39.910156 16.582031 39.15625 C 17.355469 38.269531 18.058594 37.332031 18.667969 36.324219 C 19.011719 35.75 19.1875 35.136719 19.351562 34.5 C 19.648438 33.324219 19.992188 32.160156 20.304688 30.988281 C 20.398438 30.636719 20.464844 30.273438 20.535156 29.914062 C 20.566406 29.742188 20.648438 29.632812 20.824219 29.601562 C 20.976562 29.574219 21.128906 29.535156 21.28125 29.523438 C 21.804688 29.484375 22.179688 29.859375 22.097656 30.378906 C 22.035156 30.792969 21.921875 31.203125 21.824219 31.617188 C 21.746094 31.941406 21.664062 32.269531 21.585938 32.597656 C 21.597656 32.601562 21.613281 32.605469 21.628906 32.613281 C 21.652344 32.554688 21.679688 32.5 21.703125 32.441406 C 22.121094 31.449219 22.585938 30.476562 23.1875 29.578125 C 23.582031 28.984375 24.023438 28.429688 24.605469 28 C 25.179688 27.574219 25.820312 27.347656 26.546875 27.40625 C 27.5 27.480469 28.164062 28.160156 28.21875 29.113281 C 28.253906 29.722656 28.074219 30.285156 27.839844 30.824219 C 27.453125 31.71875 27.035156 32.597656 26.636719 33.488281 C 26.363281 34.109375 26.078125 34.734375 25.960938 35.410156 C 25.929688 35.613281 25.90625 35.824219 25.929688 36.023438 C 25.96875 36.394531 26.210938 36.550781 26.5625 36.421875 C 26.765625 36.34375 26.972656 36.222656 27.121094 36.066406 C 27.421875 35.742188 27.691406 35.382812 27.964844 35.03125 C 28.007812 34.976562 28.003906 34.878906 28.003906 34.804688 C 27.941406 32.78125 28.46875 30.949219 29.808594 29.398438 C 30.316406 28.808594 30.964844 28.402344 31.746094 28.265625 C 32.824219 28.078125 33.710938 28.582031 34.121094 29.597656 C 34.132812 29.628906 34.148438 29.660156 34.175781 29.726562 Z M 33.632812 31.070312 C 33.652344 30.703125 33.609375 30.347656 33.472656 30.007812 C 33.210938 29.359375 32.714844 29.226562 32.214844 29.710938 C 31.941406 29.972656 31.703125 30.285156 31.511719 30.613281 C 30.78125 31.875 30.414062 33.257812 30.242188 34.695312 C 30.195312 35.089844 30.191406 35.488281 30.335938 35.867188 C 30.441406 36.148438 30.644531 36.277344 30.945312 36.277344 C 31.324219 36.273438 31.625 36.097656 31.878906 35.832031 C 32.230469 35.472656 32.484375 35.046875 32.710938 34.601562 C 33.050781 33.945312 33.1875 33.230469 33.363281 32.527344 C 33.480469 32.046875 33.679688 31.578125 33.632812 31.070312 Z M 13.207031 31.492188 C 13.289062 31.546875 13.363281 31.597656 13.445312 31.640625 C 14.105469 32.015625 14.828125 32.132812 15.578125 32.117188 C 15.789062 32.113281 16 32.078125 16.203125 32.027344 C 16.335938 31.992188 16.46875 31.917969 16.582031 31.832031 C 16.996094 31.519531 16.9375 31.058594 16.449219 30.882812 C 15.261719 30.449219 14.191406 30.691406 13.207031 31.492188 Z M 13.796875 25.019531 C 13.847656 25.042969 13.882812 25.0625 13.917969 25.078125 C 14.597656 25.378906 15.3125 25.550781 16.054688 25.613281 C 16.492188 25.648438 16.921875 25.605469 17.328125 25.417969 C 17.539062 25.320312 17.738281 25.191406 17.738281 24.933594 C 17.738281 24.683594 17.546875 24.542969 17.339844 24.441406 C 17.03125 24.285156 16.699219 24.234375 16.355469 24.246094 C 15.488281 24.273438 14.691406 24.5625 13.917969 24.9375 C 13.878906 24.957031 13.84375 24.988281 13.796875 25.019531 Z M 13.796875 25.019531 " fill-opacity="1" fill-rule="nonzero"/><path fill="#f8c8dc" d="M 22.066406 38.664062 C 23.316406 38.695312 24.574219 38.984375 25.808594 39.394531 C 27.292969 39.890625 28.6875 40.578125 30.0625 41.3125 C 31.1875 41.914062 32.320312 42.503906 33.46875 43.0625 C 34.523438 43.570312 35.65625 43.796875 36.828125 43.839844 C 38.597656 43.902344 40.125 42.734375 40.585938 40.945312 C 40.753906 40.289062 40.78125 39.621094 40.617188 38.957031 C 40.535156 38.632812 40.394531 38.347656 40.125 38.132812 C 39.933594 37.980469 39.945312 37.835938 40.144531 37.6875 C 40.859375 37.140625 41.960938 37.410156 42.371094 38.234375 C 42.597656 38.6875 42.703125 39.179688 42.703125 39.679688 C 42.703125 41.710938 41.867188 43.289062 40.113281 44.34375 C 39.242188 44.867188 38.273438 45.023438 37.273438 44.996094 C 36.160156 44.964844 35.101562 44.65625 34.058594 44.3125 C 32.453125 43.789062 30.9375 43.058594 29.410156 42.347656 C 28.234375 41.804688 27.074219 41.230469 25.832031 40.847656 C 24.84375 40.539062 23.839844 40.363281 22.800781 40.445312 C 21.964844 40.511719 21.1875 40.757812 20.488281 41.238281 C 19.640625 41.820312 19.265625 42.648438 19.203125 43.644531 C 19.199219 43.695312 19.195312 43.746094 19.191406 43.800781 C 19.179688 43.90625 19.113281 43.960938 19.015625 43.925781 C 18.839844 43.867188 18.648438 43.816406 18.5 43.710938 C 17.941406 43.324219 17.648438 42.78125 17.609375 42.105469 C 17.546875 41.085938 17.957031 40.292969 18.761719 39.6875 C 19.722656 38.960938 20.820312 38.664062 22.066406 38.664062 Z M 22.066406 38.664062 " fill-opacity="1" fill-rule="nonzero"/><g clip-path="url(#e46a7e8b7c)"><path fill="#f8c8dc" d="M 28.894531 2.167969 C 29.152344 2.203125 29.417969 2.222656 29.675781 2.269531 C 30.433594 2.417969 31.128906 2.71875 31.722656 3.222656 C 32.683594 4.039062 33.027344 5.105469 32.953125 6.328125 C 32.859375 7.882812 32.253906 9.207031 31.101562 10.265625 C 30.613281 10.714844 30.058594 11.039062 29.394531 11.128906 C 28.75 11.21875 28.132812 11.140625 27.605469 10.714844 C 27.296875 10.464844 27.09375 10.15625 27.140625 9.738281 C 27.148438 9.65625 27.1875 9.511719 27.226562 9.507812 C 27.3125 9.492188 27.4375 9.527344 27.5 9.589844 C 27.796875 9.890625 28.171875 10.011719 28.574219 10.078125 C 28.953125 10.144531 29.300781 10.058594 29.632812 9.882812 C 30.019531 9.675781 30.335938 9.386719 30.597656 9.042969 C 31.15625 8.304688 31.546875 7.488281 31.632812 6.570312 C 31.746094 5.367188 31.222656 4.066406 29.476562 3.582031 C 28.425781 3.292969 27.402344 3.414062 26.375 3.699219 C 24.90625 4.105469 23.660156 4.898438 22.535156 5.902344 C 21.855469 6.511719 21.1875 7.128906 20.519531 7.746094 C 20.476562 7.789062 20.425781 7.863281 20.433594 7.914062 C 20.53125 8.417969 20.425781 8.90625 20.347656 9.398438 C 19.992188 11.652344 19.414062 13.859375 18.984375 16.097656 C 18.671875 17.695312 18.433594 19.3125 18.183594 20.921875 C 18.128906 21.289062 18.148438 21.667969 18.136719 22.039062 C 18.128906 22.316406 18.074219 22.382812 17.796875 22.402344 C 17.636719 22.414062 17.476562 22.414062 17.320312 22.386719 C 17.023438 22.339844 16.824219 22.160156 16.710938 21.882812 C 16.570312 21.539062 16.523438 21.179688 16.546875 20.808594 C 16.597656 19.878906 16.765625 18.964844 16.957031 18.058594 C 17.375 16.074219 17.777344 14.089844 18.199219 12.105469 C 18.382812 11.230469 18.59375 10.363281 18.792969 9.492188 C 18.804688 9.445312 18.8125 9.394531 18.832031 9.292969 C 18.75 9.367188 18.699219 9.410156 18.652344 9.453125 C 17.585938 10.417969 16.476562 11.316406 15.214844 12.019531 C 14.460938 12.441406 13.683594 12.789062 12.816406 12.910156 C 10.359375 13.261719 8.316406 11.382812 8.484375 8.898438 C 8.597656 7.167969 9.421875 5.847656 10.949219 5.019531 C 11.695312 4.617188 12.527344 4.46875 13.378906 4.644531 C 13.769531 4.726562 14.113281 4.917969 14.351562 5.25 C 14.425781 5.355469 14.476562 5.496094 14.488281 5.625 C 14.507812 5.84375 14.34375 5.933594 14.144531 5.832031 C 14.109375 5.816406 14.074219 5.792969 14.042969 5.769531 C 13.230469 5.109375 11.761719 5.199219 10.886719 6.003906 C 9.546875 7.238281 9.527344 9.511719 10.859375 10.757812 C 11.460938 11.316406 12.175781 11.441406 12.957031 11.296875 C 13.667969 11.164062 14.320312 10.867188 14.945312 10.515625 C 16.261719 9.777344 17.449219 8.859375 18.605469 7.898438 C 20.417969 6.394531 22.261719 4.933594 24.277344 3.699219 C 25.1875 3.140625 26.128906 2.640625 27.179688 2.402344 C 27.632812 2.296875 28.097656 2.261719 28.554688 2.195312 C 28.609375 2.1875 28.667969 2.179688 28.722656 2.167969 C 28.777344 2.167969 28.835938 2.167969 28.894531 2.167969 Z M 28.894531 2.167969 " fill-opacity="1" fill-rule="nonzero"/></g><path fill="#f8c8dc" d="M 27.648438 20.691406 C 27.257812 21.167969 26.84375 21.585938 26.335938 21.902344 C 25.886719 22.179688 25.414062 22.328125 24.882812 22.230469 C 24.082031 22.085938 23.664062 21.664062 23.527344 20.867188 C 23.375 19.996094 23.550781 19.167969 23.855469 18.359375 C 24.226562 17.355469 24.785156 16.445312 25.332031 15.53125 C 25.53125 15.195312 25.710938 14.851562 25.894531 14.507812 C 25.957031 14.386719 26.003906 14.253906 26.050781 14.125 C 26.101562 13.988281 26.140625 13.839844 26.019531 13.722656 C 25.894531 13.605469 25.746094 13.664062 25.613281 13.714844 C 25.265625 13.847656 24.96875 14.058594 24.707031 14.324219 C 24.027344 15.007812 23.441406 15.769531 22.960938 16.613281 C 22.308594 17.761719 21.601562 18.882812 21.109375 20.117188 C 21.074219 20.199219 21.046875 20.289062 21.007812 20.371094 C 20.90625 20.59375 20.859375 20.820312 20.886719 21.070312 C 20.910156 21.296875 20.832031 21.394531 20.609375 21.457031 C 20.476562 21.492188 20.339844 21.519531 20.203125 21.53125 C 19.773438 21.566406 19.476562 21.378906 19.316406 20.976562 C 19.117188 20.488281 19.140625 19.976562 19.179688 19.46875 C 19.34375 17.429688 19.839844 15.460938 20.414062 13.507812 C 20.820312 12.132812 21.292969 10.785156 22.019531 9.535156 C 22.386719 8.902344 22.78125 8.28125 23.335938 7.785156 C 23.714844 7.445312 24.144531 7.226562 24.664062 7.21875 C 25.460938 7.203125 25.972656 7.664062 26.039062 8.460938 C 26.089844 9.023438 25.988281 9.570312 25.796875 10.097656 C 25.21875 11.722656 24.257812 13.074219 22.859375 14.085938 C 22.511719 14.339844 22.097656 14.5 21.707031 14.691406 C 21.613281 14.738281 21.554688 14.785156 21.527344 14.894531 C 21.195312 16.152344 21 17.4375 20.859375 18.730469 C 20.851562 18.808594 20.859375 18.890625 20.859375 19.019531 C 20.902344 18.921875 20.929688 18.859375 20.953125 18.800781 C 21.582031 17.269531 22.375 15.824219 23.355469 14.488281 C 23.785156 13.898438 24.308594 13.386719 24.953125 13.027344 C 25.507812 12.714844 26.09375 12.535156 26.734375 12.648438 C 27.339844 12.753906 27.695312 13.191406 27.730469 13.808594 C 27.757812 14.3125 27.621094 14.78125 27.417969 15.222656 C 27.054688 16.027344 26.660156 16.816406 26.269531 17.605469 C 25.953125 18.246094 25.617188 18.882812 25.449219 19.585938 C 25.378906 19.890625 25.351562 20.21875 25.363281 20.535156 C 25.378906 21 25.730469 21.179688 26.132812 20.960938 C 26.65625 20.679688 26.992188 20.214844 27.296875 19.722656 C 27.320312 19.683594 27.316406 19.621094 27.308594 19.574219 C 27.121094 18.308594 27.363281 17.101562 27.777344 15.914062 C 28.101562 14.976562 28.554688 14.121094 29.246094 13.398438 C 29.699219 12.921875 30.210938 12.542969 30.875 12.441406 C 31.703125 12.3125 32.921875 12.578125 33.363281 13.792969 C 33.835938 15.085938 33.65625 16.328125 33.03125 17.519531 C 32.652344 18.238281 32.097656 18.792969 31.351562 19.136719 C 30.804688 19.390625 30.242188 19.449219 29.660156 19.285156 C 29.625 19.277344 29.585938 19.269531 29.546875 19.261719 C 29.371094 20.027344 29.769531 20.96875 30.402344 21.300781 C 30.773438 21.496094 31.160156 21.480469 31.558594 21.40625 C 32.335938 21.261719 32.898438 20.785156 33.359375 20.175781 C 33.894531 19.472656 34.171875 18.65625 34.324219 17.796875 C 34.347656 17.683594 34.363281 17.566406 34.398438 17.460938 C 34.421875 17.378906 34.464844 17.296875 34.519531 17.238281 C 34.683594 17.066406 34.925781 17.128906 34.984375 17.359375 C 35.070312 17.6875 35.023438 18.011719 34.945312 18.328125 C 34.609375 19.679688 33.984375 20.859375 32.910156 21.773438 C 31.710938 22.789062 30.140625 22.757812 28.980469 22.144531 C 28.484375 21.882812 28.125 21.476562 27.832031 21.007812 C 27.773438 20.914062 27.71875 20.8125 27.648438 20.691406 Z M 29.605469 18.398438 C 29.875 18.425781 30.113281 18.484375 30.347656 18.46875 C 31.011719 18.429688 31.5 18.0625 31.878906 17.542969 C 32.503906 16.695312 32.757812 15.726562 32.761719 14.691406 C 32.761719 14.429688 32.691406 14.15625 32.597656 13.910156 C 32.480469 13.613281 32.242188 13.546875 31.949219 13.679688 C 31.640625 13.820312 31.410156 14.046875 31.207031 14.308594 C 30.292969 15.5 29.925781 16.90625 29.605469 18.398438 Z M 21.871094 13.699219 C 21.882812 13.707031 21.894531 13.714844 21.90625 13.71875 C 21.957031 13.691406 22.003906 13.660156 22.054688 13.632812 C 23.167969 12.980469 23.949219 12.011719 24.59375 10.917969 C 24.863281 10.457031 25.070312 9.96875 25.191406 9.445312 C 25.253906 9.179688 25.308594 8.90625 25.21875 8.632812 C 25.164062 8.457031 25.074219 8.394531 24.910156 8.472656 C 24.691406 8.585938 24.457031 8.707031 24.289062 8.882812 C 24.015625 9.167969 23.773438 9.484375 23.558594 9.8125 C 22.960938 10.734375 22.558594 11.753906 22.183594 12.777344 C 22.070312 13.082031 21.976562 13.394531 21.871094 13.699219 Z M 21.871094 13.699219 " fill-opacity="1" fill-rule="nonzero"/><path fill="#f8c8dc" d="M 30.765625 27.351562 C 29.878906 27.367188 29.042969 27.09375 28.230469 26.738281 C 27.351562 26.355469 26.488281 25.949219 25.609375 25.574219 C 24.953125 25.292969 24.265625 25.117188 23.542969 25.09375 C 22.859375 25.070312 22.210938 25.195312 21.621094 25.558594 C 21.191406 25.816406 20.878906 26.183594 20.671875 26.640625 C 20.558594 26.890625 20.425781 26.921875 20.242188 26.71875 C 19.804688 26.222656 19.710938 25.644531 19.867188 25.015625 C 20.023438 24.40625 20.398438 23.976562 20.957031 23.695312 C 21.8125 23.265625 22.707031 23.234375 23.625 23.40625 C 24.492188 23.566406 25.296875 23.90625 26.085938 24.296875 C 26.96875 24.734375 27.847656 25.175781 28.738281 25.597656 C 29.222656 25.828125 29.738281 26.003906 30.285156 26.027344 C 31.308594 26.070312 32.230469 25.335938 32.460938 24.285156 C 32.511719 24.039062 32.507812 23.777344 32.5 23.519531 C 32.488281 23.1875 32.617188 23.058594 32.949219 23.097656 C 33.421875 23.15625 33.863281 23.546875 33.984375 24.011719 C 34.242188 25.003906 33.816406 26.273438 32.695312 26.882812 C 32.097656 27.207031 31.460938 27.367188 30.765625 27.351562 Z M 30.765625 27.351562 " fill-opacity="1" fill-rule="nonzero"/><g clip-path="url(#78f24124c9)"><path fill="#f8c8dc" d="M 45.183594 26.234375 C 45.199219 26.28125 45.179688 26.335938 45.132812 26.363281 C 45.085938 26.394531 45.03125 26.429688 44.972656 26.441406 C 44.699219 26.496094 44.414062 26.511719 44.148438 26.585938 C 43.292969 26.816406 43.253906 27.019531 43.25 27.710938 C 43.246094 28.128906 43.25 28.546875 43.253906 28.964844 C 43.253906 29.089844 43.238281 29.214844 43.09375 29.226562 C 42.929688 29.238281 42.90625 29.101562 42.894531 28.980469 C 42.859375 28.464844 42.828125 27.949219 42.792969 27.4375 C 42.789062 27.359375 42.769531 27.28125 42.753906 27.207031 C 42.710938 26.964844 42.519531 26.777344 42.277344 26.761719 C 41.8125 26.730469 41.347656 26.722656 40.886719 26.703125 C 40.847656 26.703125 40.804688 26.714844 40.765625 26.710938 C 40.648438 26.707031 40.542969 26.671875 40.527344 26.539062 C 40.511719 26.394531 40.605469 26.324219 40.730469 26.3125 C 41.054688 26.273438 41.382812 26.246094 41.703125 26.203125 C 41.859375 26.183594 42.007812 26.144531 42.160156 26.113281 C 42.457031 26.054688 42.632812 25.867188 42.6875 25.574219 C 42.746094 25.265625 42.785156 24.953125 42.824219 24.640625 C 42.859375 24.351562 42.882812 24.0625 42.914062 23.769531 C 42.929688 23.660156 42.953125 23.539062 43.101562 23.558594 C 43.242188 23.574219 43.234375 23.691406 43.238281 23.796875 C 43.261719 24.367188 43.277344 24.9375 43.3125 25.511719 C 43.335938 25.910156 43.433594 26.015625 43.828125 26.050781 C 44.207031 26.082031 44.585938 26.085938 44.960938 26.097656 C 45.0625 26.101562 45.140625 26.121094 45.183594 26.234375 Z M 45.183594 26.234375 " fill-opacity="1" fill-rule="nonzero"/></g><path fill="#f8c8dc" d="M 8.90625 25.039062 C 9.078125 25.027344 9.230469 25.015625 9.386719 25.007812 C 9.484375 25.003906 9.59375 25.007812 9.609375 25.140625 C 9.625 25.269531 9.527344 25.296875 9.425781 25.320312 C 9.109375 25.382812 8.792969 25.4375 8.488281 25.523438 C 7.953125 25.675781 7.8125 25.863281 7.789062 26.421875 C 7.773438 26.832031 7.761719 27.242188 7.746094 27.65625 C 7.746094 27.703125 7.757812 27.757812 7.734375 27.789062 C 7.695312 27.855469 7.632812 27.90625 7.582031 27.960938 C 7.53125 27.902344 7.445312 27.84375 7.441406 27.78125 C 7.394531 27.335938 7.371094 26.890625 7.332031 26.445312 C 7.320312 26.316406 7.300781 26.183594 7.261719 26.058594 C 7.167969 25.746094 6.949219 25.589844 6.625 25.589844 C 6.273438 25.589844 5.925781 25.597656 5.574219 25.605469 C 5.464844 25.605469 5.339844 25.613281 5.332031 25.457031 C 5.328125 25.308594 5.453125 25.296875 5.5625 25.28125 C 5.957031 25.222656 6.351562 25.15625 6.75 25.105469 C 7.039062 25.066406 7.226562 24.917969 7.28125 24.628906 C 7.351562 24.265625 7.414062 23.898438 7.464844 23.53125 C 7.5 23.285156 7.511719 23.039062 7.535156 22.796875 C 7.542969 22.699219 7.546875 22.59375 7.671875 22.601562 C 7.808594 22.605469 7.8125 22.71875 7.808594 22.820312 C 7.800781 23.117188 7.789062 23.414062 7.769531 23.710938 C 7.746094 24.066406 7.742188 24.417969 7.882812 24.757812 C 7.9375 24.890625 8.011719 24.96875 8.152344 24.980469 C 8.410156 25 8.664062 25.019531 8.90625 25.039062 Z M 8.90625 25.039062 " fill-opacity="1" fill-rule="nonzero"/><g clip-path="url(#0d51f7f6e9)"><path fill="#f8c8dc" d="M 24.28125 43.628906 C 24.320312 43.902344 24.390625 43.960938 24.660156 43.980469 C 24.886719 43.996094 25.117188 44.003906 25.347656 44.015625 C 25.574219 44.003906 25.613281 44.117188 25.609375 44.160156 C 25.609375 44.21875 25.542969 44.308594 25.484375 44.328125 C 25.324219 44.378906 25.152344 44.398438 24.984375 44.433594 C 24.445312 44.554688 24.25 44.785156 24.226562 45.339844 C 24.21875 45.628906 24.214844 45.921875 24.207031 46.214844 C 24.203125 46.332031 24.1875 46.457031 24.03125 46.460938 C 23.867188 46.46875 23.839844 46.34375 23.832031 46.214844 C 23.8125 45.832031 23.804688 45.449219 23.773438 45.066406 C 23.738281 44.675781 23.617188 44.578125 23.21875 44.574219 C 23.019531 44.574219 22.816406 44.578125 22.617188 44.574219 C 22.558594 44.574219 22.492188 44.582031 22.449219 44.554688 C 22.394531 44.519531 22.324219 44.453125 22.324219 44.402344 C 22.328125 44.351562 22.402344 44.269531 22.457031 44.257812 C 22.644531 44.214844 22.839844 44.195312 23.03125 44.164062 C 23.632812 44.066406 23.792969 43.890625 23.839844 43.28125 C 23.859375 43.011719 23.882812 42.746094 23.90625 42.476562 C 23.914062 42.402344 23.914062 42.320312 23.949219 42.257812 C 23.980469 42.203125 24.058594 42.144531 24.117188 42.140625 C 24.152344 42.136719 24.226562 42.234375 24.230469 42.292969 C 24.25 42.445312 24.242188 43.339844 24.28125 43.628906 Z M 24.28125 43.628906 " fill-opacity="1" fill-rule="nonzero"/></g><path fill="#f8c8dc" d="M 39.097656 6.402344 C 39.125 6.542969 39.105469 6.695312 39.054688 6.832031 C 39.007812 6.96875 38.941406 7.148438 38.851562 7.3125 C 38.453125 8.0625 37.9375 8.738281 37.40625 9.398438 C 36.613281 10.375 35.710938 11.246094 34.789062 12.101562 C 34.738281 12.152344 34.679688 12.210938 34.617188 12.238281 C 34.554688 12.265625 34.449219 12.289062 34.414062 12.257812 C 34.363281 12.21875 34.339844 12.121094 34.339844 12.046875 C 34.335938 11.976562 34.371094 11.902344 34.402344 11.835938 C 35.160156 10.121094 36.011719 8.464844 37.253906 7.042969 C 37.511719 6.746094 37.820312 6.492188 38.128906 6.25 C 38.261719 6.144531 38.445312 6.082031 38.617188 6.058594 C 38.875 6.019531 39.039062 6.125 39.097656 6.402344 Z M 39.097656 6.402344 " fill-opacity="1" fill-rule="nonzero"/><path fill="#f8c8dc" d="M 40.269531 10.589844 C 40.621094 10.589844 40.800781 10.789062 40.734375 11.078125 C 40.699219 11.222656 40.628906 11.371094 40.539062 11.492188 C 40.148438 12.027344 39.632812 12.4375 39.058594 12.753906 C 38.140625 13.261719 37.195312 13.722656 36.253906 14.199219 C 36.195312 14.230469 36.0625 14.222656 36.03125 14.183594 C 35.992188 14.136719 36.066406 13.890625 36.089844 13.867188 C 36.976562 12.867188 37.902344 11.90625 39.042969 11.1875 C 39.367188 10.984375 39.710938 10.816406 40.050781 10.640625 C 40.128906 10.601562 40.230469 10.597656 40.269531 10.589844 Z M 40.269531 10.589844 " fill-opacity="1" fill-rule="nonzero"/><path fill="#f8c8dc" d="M 40.925781 16.023438 C 40.628906 16.050781 40.324219 16.050781 40.027344 16.019531 C 39.507812 15.964844 38.957031 15.90625 38.402344 15.84375 C 37.984375 15.796875 37.5625 15.742188 37.144531 15.691406 C 37.109375 15.6875 36.863281 15.691406 36.839844 15.511719 C 36.824219 15.402344 36.957031 15.378906 37.03125 15.359375 C 37.476562 15.257812 37.921875 15.152344 38.371094 15.082031 C 39.152344 14.964844 39.9375 14.933594 40.707031 15.136719 C 40.949219 15.199219 41.179688 15.308594 41.40625 15.414062 C 41.527344 15.472656 41.609375 15.585938 41.589844 15.738281 C 41.566406 15.898438 41.4375 15.957031 41.308594 15.980469 C 41.183594 16 41.058594 16.011719 40.925781 16.023438 Z M 40.925781 16.023438 " fill-opacity="1" fill-rule="nonzero"/><path fill="#f8c8dc" d="M 4.601562 11.605469 C 4.761719 11.574219 4.925781 11.59375 5.082031 11.636719 C 5.261719 11.6875 5.503906 11.753906 5.730469 11.847656 C 6.566406 12.191406 7.328125 12.671875 8.066406 13.1875 C 9.019531 13.855469 9.921875 14.585938 10.769531 15.386719 C 10.917969 15.527344 11.050781 15.683594 11.179688 15.84375 C 11.21875 15.894531 11.246094 15.996094 11.222656 16.039062 C 11.191406 16.082031 11.089844 16.105469 11.027344 16.097656 C 10.878906 16.070312 10.722656 16.039062 10.585938 15.972656 C 9.15625 15.304688 7.71875 14.648438 6.304688 13.945312 C 5.792969 13.695312 5.335938 13.339844 4.859375 13.019531 C 4.703125 12.914062 4.566406 12.765625 4.429688 12.628906 C 4.355469 12.550781 4.289062 12.460938 4.238281 12.367188 C 4.042969 11.996094 4.164062 11.6875 4.601562 11.605469 Z M 4.601562 11.605469 " fill-opacity="1" fill-rule="nonzero"/><path fill="#f8c8dc" d="M 6.488281 17.230469 C 6.34375 17.21875 6.199219 17.207031 6.066406 17.132812 C 5.9375 17.066406 5.863281 16.882812 5.878906 16.726562 C 5.890625 16.574219 6.011719 16.410156 6.136719 16.378906 C 6.351562 16.328125 6.558594 16.34375 6.777344 16.351562 C 7.828125 16.390625 8.859375 16.566406 9.863281 16.878906 C 9.976562 16.914062 10.085938 16.972656 10.1875 17.027344 C 10.277344 17.078125 10.296875 17.148438 10.175781 17.175781 C 9.921875 17.226562 9.664062 17.285156 9.402344 17.300781 C 9.039062 17.320312 7.09375 17.277344 6.488281 17.230469 Z M 6.488281 17.230469 " fill-opacity="1" fill-rule="nonzero"/><path fill="#f8c8dc" d="M 10.082031 18.136719 C 10.121094 18.25 9.957031 18.335938 9.875 18.394531 C 9.160156 18.902344 8.402344 19.335938 7.59375 19.679688 C 7.445312 19.742188 7.273438 19.773438 7.113281 19.773438 C 6.875 19.773438 6.734375 19.546875 6.84375 19.335938 C 6.914062 19.203125 7.023438 19.074219 7.148438 19 C 7.421875 18.835938 7.703125 18.667969 8.003906 18.570312 C 8.5625 18.390625 9.136719 18.265625 9.707031 18.117188 C 9.734375 18.109375 10.039062 18.023438 10.082031 18.136719 Z M 10.082031 18.136719 " fill-opacity="1" fill-rule="nonzero"/><path fill="#f8c8dc" d="M 4.21875 32.308594 C 4.226562 31.679688 4.6875 31.132812 5.269531 31.082031 C 5.410156 31.066406 5.558594 31.082031 5.691406 31.125 C 6.1875 31.28125 6.585938 31.96875 6.492188 32.488281 C 6.394531 33.054688 5.871094 33.496094 5.304688 33.488281 C 4.683594 33.480469 4.210938 32.96875 4.21875 32.308594 Z M 4.21875 32.308594 " fill-opacity="1" fill-rule="nonzero"/><g clip-path="url(#0687d8d047)"><path fill="#f8c8dc" d="M 44.4375 35.046875 C 44.429688 35.667969 43.792969 36.273438 43.167969 36.242188 C 42.894531 36.230469 42.671875 36.109375 42.503906 35.894531 C 42.230469 35.542969 42.226562 35.027344 42.492188 34.605469 C 42.753906 34.1875 43.203125 33.980469 43.648438 34.074219 C 44.113281 34.175781 44.441406 34.574219 44.4375 35.046875 Z M 44.4375 35.046875 " fill-opacity="1" fill-rule="nonzero"/></g><g clip-path="url(#8cd060f80a)"><path fill="#f8c8dc" d="M 28.863281 45.355469 C 28.863281 46.117188 28.023438 46.640625 27.355469 46.292969 C 26.800781 46.007812 26.6875 45.28125 27.132812 44.84375 C 27.207031 44.769531 27.289062 44.707031 27.367188 44.640625 C 27.648438 44.394531 27.96875 44.34375 28.308594 44.496094 C 28.648438 44.644531 28.863281 44.984375 28.863281 45.355469 Z M 28.863281 45.355469 " fill-opacity="1" fill-rule="nonzero"/></g><g clip-path="url(#15a1453ac8)"><path fill="#f8c8dc" d="M 43.265625 20.925781 C 42.757812 20.921875 42.359375 20.523438 42.359375 20.019531 C 42.359375 19.527344 42.765625 19.113281 43.246094 19.117188 C 43.769531 19.121094 44.207031 19.535156 44.199219 20.027344 C 44.195312 20.527344 43.777344 20.929688 43.265625 20.925781 Z M 43.265625 20.925781 " fill-opacity="1" fill-rule="nonzero"/></g><g clip-path="url(#93a406cedb)"><path fill="#f8c8dc" d="M 4.878906 19.800781 C 5.394531 19.804688 5.761719 20.152344 5.757812 20.636719 C 5.753906 21.117188 5.355469 21.5 4.867188 21.492188 C 4.382812 21.488281 3.988281 21.09375 3.988281 20.617188 C 3.988281 20.136719 4.355469 19.796875 4.878906 19.800781 Z M 4.878906 19.800781 " fill-opacity="1" fill-rule="nonzero"/></g><path fill="#f8c8dc" d="M 14.089844 8.160156 C 14.089844 8.601562 13.746094 8.941406 13.300781 8.941406 C 12.863281 8.941406 12.515625 8.589844 12.519531 8.152344 C 12.527344 7.71875 12.878906 7.367188 13.3125 7.367188 C 13.746094 7.367188 14.089844 7.71875 14.089844 8.160156 Z M 14.089844 8.160156 " fill-opacity="1" fill-rule="nonzero"/><g clip-path="url(#27ff9c4f63)"><path fill="#f8c8dc" d="M 20.292969 46.28125 C 20.292969 46.570312 20.058594 46.800781 19.769531 46.804688 C 19.472656 46.804688 19.226562 46.554688 19.234375 46.253906 C 19.238281 45.960938 19.46875 45.730469 19.757812 45.730469 C 20.054688 45.726562 20.292969 45.972656 20.292969 46.28125 Z M 20.292969 46.28125 " fill-opacity="1" fill-rule="nonzero"/></g><path fill="#f8c8dc" d="M 5.691406 28.871094 C 5.691406 29.164062 5.457031 29.394531 5.164062 29.390625 C 4.875 29.390625 4.640625 29.15625 4.636719 28.867188 C 4.632812 28.570312 4.863281 28.335938 5.15625 28.335938 C 5.445312 28.332031 5.6875 28.574219 5.691406 28.871094 Z M 5.691406 28.871094 " fill-opacity="1" fill-rule="nonzero"/><path fill="#f8c8dc" d="M 41.753906 18.320312 C 41.75 18.574219 41.535156 18.777344 41.273438 18.773438 C 41.011719 18.769531 40.804688 18.5625 40.804688 18.304688 C 40.804688 18.046875 41.015625 17.839844 41.277344 17.839844 C 41.542969 17.839844 41.757812 18.058594 41.753906 18.320312 Z M 41.753906 18.320312 " fill-opacity="1" fill-rule="nonzero"/><path fill="#f8c8dc" d="M 16.023438 7.605469 C 15.765625 7.601562 15.566406 7.394531 15.566406 7.140625 C 15.570312 6.886719 15.777344 6.683594 16.03125 6.683594 C 16.289062 6.679688 16.507812 6.894531 16.511719 7.148438 C 16.511719 7.394531 16.285156 7.605469 16.023438 7.605469 Z M 16.023438 7.605469 " fill-opacity="1" fill-rule="nonzero"/><path fill="#f8c8dc" d="M 20.96875 42.648438 C 20.972656 42.402344 21.175781 42.199219 21.417969 42.207031 C 21.640625 42.210938 21.8125 42.390625 21.816406 42.613281 C 21.816406 42.867188 21.605469 43.085938 21.367188 43.078125 C 21.140625 43.070312 20.964844 42.882812 20.96875 42.648438 Z M 20.96875 42.648438 " fill-opacity="1" fill-rule="nonzero"/></svg>