<svg xmlns="http://www.w3.org/2000/svg" xmlns:xlink="http://www.w3.org/1999/xlink" width="70" zoomAndPan="magnify" viewBox="0 0 52.5 52.499999" height="70" preserveAspectRatio="xMidYMid meet" version="1.0"><defs><filter x="0%" y="0%" width="100%" height="100%" id="dbc6f6f378"><feColorMatrix values="0 0 0 0 1 0 0 0 0 1 0 0 0 0 1 0 0 0 1 0" color-interpolation-filters="sRGB"/></filter><mask id="86cc0857a4"><g filter="url(#dbc6f6f378)"><rect x="-5.25" width="63" fill="#000000" y="-5.25" height="62.999999" fill-opacity="0.23"/></g></mask><clipPath id="d0ae629d93"><path d="M 0.839844 0.0351562 L 46.902344 0.0351562 L 46.902344 34 L 0.839844 34 Z M 0.839844 0.0351562 " clip-rule="nonzero"/></clipPath><clipPath id="50e985a238"><rect x="0" width="48" y="0" height="35"/></clipPath><clipPath id="5a78c696d7"><path d="M 2.15625 18.265625 L 49.703125 18.265625 L 49.703125 44 L 2.15625 44 Z M 2.15625 18.265625 " clip-rule="nonzero"/></clipPath></defs><g mask="url(#86cc0857a4)"><g transform="matrix(1, 0, 0, 1, 3, 9)"><g clip-path="url(#50e985a238)"><path fill="#f8c8dc" d="M 7.363281 16.5 L 6.460938 14.945312 L 5.554688 16.5 L 6.460938 18.003906 Z M 7.363281 16.5 " fill-opacity="1" fill-rule="nonzero"/><path fill="#f8c8dc" d="M 17.597656 12.789062 L 16.742188 11.234375 L 15.839844 12.789062 L 16.742188 14.292969 Z M 17.597656 12.789062 " fill-opacity="1" fill-rule="nonzero"/><path fill="#f8c8dc" d="M 42.128906 16.5 L 41.226562 14.945312 L 40.320312 16.5 L 41.226562 18.003906 Z M 42.128906 16.5 " fill-opacity="1" fill-rule="nonzero"/><path fill="#f8c8dc" d="M 31.84375 12.789062 L 30.941406 11.234375 L 30.089844 12.789062 L 30.941406 14.292969 Z M 31.84375 12.789062 " fill-opacity="1" fill-rule="nonzero"/><g clip-path="url(#d0ae629d93)"><path fill="#f8c8dc" d="M 39.921875 22.921875 L 36.660156 12.136719 L 30.488281 20.210938 L 24.671875 8.675781 L 26.425781 5.164062 L 23.867188 0.046875 L 21.257812 5.164062 L 23.015625 8.675781 L 17.195312 20.164062 L 11.125 12.136719 L 7.863281 22.972656 L 0.839844 14.894531 L 5.65625 30.144531 L 5.707031 30.246094 L 5.707031 33.957031 L 41.976562 33.957031 L 41.976562 30.246094 L 42.078125 29.996094 L 46.84375 14.894531 Z M 40.273438 29.394531 L 36.308594 29.394531 L 39.269531 25.980469 Z M 36.058594 15.398438 L 38.765625 24.277344 L 34.855469 28.792969 L 31.292969 21.71875 Z M 33.449219 29.394531 L 25.421875 29.394531 L 30.238281 23.074219 Z M 22.914062 5.164062 L 23.816406 3.40625 L 24.71875 5.164062 L 23.816406 6.96875 Z M 23.867188 10.328125 L 29.484375 21.515625 L 23.867188 28.941406 L 18.25 21.46875 Z M 8.464844 26.03125 L 11.375 29.394531 L 7.460938 29.394531 Z M 22.3125 29.394531 L 14.234375 29.394531 L 17.445312 22.972656 Z M 11.726562 15.398438 L 16.441406 21.617188 L 12.878906 28.792969 L 9.019531 24.328125 Z M 4.453125 21.417969 L 7.3125 24.679688 L 6.410156 27.585938 Z M 40.472656 32.453125 L 7.210938 32.453125 L 7.210938 30.898438 L 40.472656 30.898438 Z M 41.273438 27.488281 L 40.421875 24.628906 L 43.230469 21.417969 Z M 41.273438 27.488281 " fill-opacity="1" fill-rule="nonzero"/></g></g></g></g><g clip-path="url(#5a78c696d7)"><path fill="#de75a1" d="M 49.792969 32.890625 C 49.792969 35.707031 47.503906 37.9375 44.460938 37.9375 C 41.046875 37.9375 38.277344 34.28125 38.277344 29.777344 C 38.277344 29.710938 38.277344 29.640625 38.28125 29.574219 L 34.984375 39.1875 L 33.65625 39.300781 L 27.214844 20.5 C 27.164062 20.589844 27.109375 20.679688 27.054688 20.78125 L 22.632812 28.726562 L 27.113281 36.527344 C 28.15625 38.347656 28.527344 38.550781 29.714844 38.550781 L 30.117188 38.550781 L 30.117188 39.042969 L 24.945312 39.042969 L 24.945312 38.550781 L 25.496094 38.550781 C 26.476562 38.550781 26.910156 38.492188 26.910156 38.089844 C 26.910156 37.800781 26.707031 37.367188 26.304688 36.644531 L 22.199219 29.507812 L 18.34375 36.441406 C 14.9375 42.574219 12.277344 43.898438 8.171875 43.898438 C 6.746094 43.898438 5.605469 43.390625 4.707031 42.683594 C 3.328125 41.597656 2.203125 39.921875 2.203125 37.519531 C 2.203125 34.085938 4.648438 31.539062 7.71875 31.039062 L 7.765625 31.324219 C 4.824219 31.800781 2.492188 34.230469 2.492188 37.519531 C 2.492188 39.824219 3.5625 41.414062 4.886719 42.457031 C 5.65625 43.0625 6.773438 43.34375 7.558594 43.34375 C 11.074219 43.34375 13.753906 40.539062 16.582031 35.402344 L 20.8125 27.714844 L 20.398438 27.039062 C 19.863281 26.300781 18.964844 25.695312 17.894531 25.695312 C 16.957031 25.695312 16.253906 26.25 16.253906 27.042969 C 16.253906 27.652344 16.734375 28.035156 17.207031 28.035156 C 17.523438 28.035156 17.785156 27.867188 17.925781 27.683594 L 18.152344 27.863281 C 17.964844 28.105469 17.628906 28.324219 17.207031 28.324219 C 16.582031 28.324219 15.964844 27.820312 15.964844 27.042969 C 15.964844 26.046875 16.851562 25.40625 17.894531 25.40625 C 18.605469 25.40625 19.253906 25.65625 19.773438 26.019531 L 16.566406 20.78125 C 15.4375 18.988281 15.234375 18.554688 14.367188 18.554688 L 11.21875 18.554688 L 11.21875 18.265625 L 18.644531 18.265625 L 18.644531 18.785156 L 18.125 18.785156 C 17.203125 18.785156 16.765625 18.871094 16.765625 19.277344 C 16.765625 19.566406 17 20.027344 17.402344 20.691406 L 21.246094 26.933594 L 25.003906 20.171875 C 25.363281 19.527344 25.886719 19.089844 26.28125 18.902344 C 26.328125 18.878906 26.375 18.859375 26.417969 18.84375 L 26.417969 18.785156 L 24.917969 18.785156 L 24.917969 18.265625 L 30.503906 18.265625 L 30.503906 18.785156 L 29.25 18.785156 C 28.949219 18.785156 28.710938 18.8125 28.476562 18.941406 C 28.789062 19.132812 29.03125 19.503906 29.175781 19.914062 L 34.578125 35.71875 C 34.78125 36.269531 34.808594 36.613281 34.808594 36.730469 L 34.808594 36.757812 L 35.042969 36.757812 L 35.042969 36.730469 C 35.042969 36.644531 35.070312 36.296875 35.332031 35.632812 L 40.675781 20.316406 C 40.792969 19.96875 40.875 19.660156 40.875 19.398438 C 40.875 18.871094 40.535156 18.554688 39.460938 18.554688 L 35.445312 18.554688 L 35.445312 18.265625 L 43.710938 18.265625 L 43.710938 18.785156 L 43.132812 18.785156 C 42.09375 18.785156 41.902344 19.019531 41.457031 20.316406 L 38.773438 28.132812 C 38.632812 28.683594 38.566406 29.234375 38.566406 29.777344 C 38.566406 34.121094 41.207031 37.648438 44.460938 37.648438 C 47.355469 37.648438 49.503906 35.539062 49.503906 32.890625 C 49.503906 30.351562 47.625 28.511719 45.191406 28.511719 C 43.453125 28.511719 42.289062 29.402344 41.609375 30.480469 L 41.363281 30.324219 C 42.085938 29.183594 43.339844 28.222656 45.191406 28.222656 C 47.78125 28.222656 49.792969 30.199219 49.792969 32.890625 Z M 26.417969 18.785156 L 26.417969 18.84375 C 26.375 18.859375 26.328125 18.878906 26.28125 18.902344 C 26.074219 18.8125 25.8125 18.785156 25.449219 18.785156 Z M 26.417969 18.785156 " fill-opacity="1" fill-rule="nonzero"/></g></svg>