<svg xmlns="http://www.w3.org/2000/svg" xmlns:xlink="http://www.w3.org/1999/xlink" width="70" zoomAndPan="magnify" viewBox="0 0 52.5 52.499999" height="70" preserveAspectRatio="xMidYMid meet" version="1.2"><defs><clipPath id="fc52b0f61c"><path d="M 3.117188 2.316406 L 48.433594 2.316406 L 48.433594 49.121094 L 3.117188 49.121094 Z M 3.117188 2.316406 "/></clipPath></defs><g id="2aff6953d4"><path style=" stroke:none;fill-rule:nonzero;fill:#000000;fill-opacity:1;" d="M 37.875 43.335938 L 37.875 45.640625 C 37.875 45.839844 38.035156 46 38.234375 46 L 41.789062 46 C 41.984375 46 42.144531 45.839844 42.144531 45.640625 L 42.144531 43.335938 C 42.144531 42.242188 41.253906 41.355469 40.160156 41.355469 L 39.859375 41.355469 C 38.765625 41.355469 37.875 42.242188 37.875 43.335938 Z M 38.589844 43.335938 C 38.589844 42.636719 39.160156 42.066406 39.859375 42.066406 L 40.160156 42.066406 C 40.863281 42.066406 41.429688 42.636719 41.429688 43.335938 L 41.429688 45.285156 L 38.589844 45.285156 Z M 38.589844 43.335938 "/><path style=" stroke:none;fill-rule:nonzero;fill:#000000;fill-opacity:1;" d="M 11.589844 41.355469 L 11.285156 41.355469 C 10.195312 41.355469 9.304688 42.242188 9.304688 43.335938 L 9.304688 45.640625 C 9.304688 45.839844 9.464844 46 9.660156 46 L 13.214844 46 C 13.414062 46 13.570312 45.839844 13.570312 45.640625 L 13.570312 43.335938 C 13.570312 42.242188 12.683594 41.355469 11.589844 41.355469 Z M 12.859375 45.285156 L 10.019531 45.285156 L 10.019531 43.335938 C 10.019531 42.636719 10.585938 42.066406 11.285156 42.066406 L 11.589844 42.066406 C 12.289062 42.066406 12.859375 42.636719 12.859375 43.335938 Z M 12.859375 45.285156 "/><g clip-rule="nonzero" clip-path="url(#fc52b0f61c)"><path style=" stroke:none;fill-rule:nonzero;fill:#000000;fill-opacity:1;" d="M 3.714844 32.910156 L 6.503906 31.246094 L 6.503906 48.765625 C 6.503906 48.960938 6.664062 49.121094 6.859375 49.121094 L 44.535156 49.121094 C 44.734375 49.121094 44.894531 48.960938 44.894531 48.765625 L 44.894531 31.171875 L 47.832031 32.910156 C 47.886719 32.945312 47.949219 32.960938 48.011719 32.960938 C 48.132812 32.960938 48.253906 32.898438 48.320312 32.785156 C 48.417969 32.617188 48.363281 32.398438 48.195312 32.296875 L 33.742188 23.734375 L 33.742188 15.390625 L 36.726562 17.253906 C 36.785156 17.289062 36.847656 17.308594 36.914062 17.308594 C 37.03125 17.308594 37.148438 17.25 37.214844 17.140625 C 37.320312 16.972656 37.269531 16.753906 37.101562 16.648438 L 33.574219 14.445312 L 32.066406 13.503906 L 26.074219 9.761719 L 26.074219 5.417969 L 28.28125 5.417969 C 28.476562 5.417969 28.636719 5.257812 28.636719 5.0625 C 28.636719 4.867188 28.476562 4.707031 28.28125 4.707031 L 26.074219 4.707031 L 26.074219 2.671875 C 26.074219 2.476562 25.914062 2.316406 25.71875 2.316406 C 25.523438 2.316406 25.363281 2.476562 25.363281 2.671875 L 25.363281 4.707031 L 23.15625 4.707031 C 22.960938 4.707031 22.800781 4.867188 22.800781 5.0625 C 22.800781 5.257812 22.960938 5.417969 23.15625 5.417969 L 25.363281 5.417969 L 25.363281 9.808594 L 14.359375 16.574219 C 14.195312 16.675781 14.140625 16.894531 14.246094 17.0625 C 14.347656 17.230469 14.566406 17.28125 14.734375 17.179688 L 17.65625 15.386719 L 17.65625 23.765625 L 3.351562 32.300781 C 3.179688 32.398438 3.125 32.617188 3.226562 32.789062 C 3.328125 32.957031 3.546875 33.011719 3.714844 32.910156 Z M 25.402344 48.410156 L 22.207031 48.410156 L 22.207031 45.082031 C 22.207031 43.320312 23.640625 41.882812 25.402344 41.871094 Z M 29.308594 48.410156 L 26.113281 48.410156 L 26.113281 41.871094 C 27.878906 41.882812 29.308594 43.320312 29.308594 45.082031 Z M 33.742188 24.59375 L 44.179688 30.824219 L 44.179688 48.410156 L 35.832031 48.410156 L 35.832031 32.480469 L 38.316406 33.964844 C 38.371094 34 38.433594 34.015625 38.496094 34.015625 C 38.617188 34.015625 38.738281 33.953125 38.804688 33.839844 C 38.90625 33.671875 38.851562 33.453125 38.679688 33.351562 L 35.65625 31.546875 L 33.742188 30.40625 Z M 18.367188 14.945312 L 25.582031 10.507812 L 25.757812 10.402344 L 32.011719 14.308594 L 33.027344 14.945312 L 33.027344 29.980469 L 25.882812 25.710938 C 25.769531 25.644531 25.628906 25.644531 25.515625 25.710938 L 18.367188 29.980469 Z M 21.363281 29.019531 L 25.699219 26.433594 L 30.03125 29.019531 L 35.117188 32.054688 L 35.117188 48.410156 L 30.023438 48.410156 L 30.023438 45.082031 C 30.023438 42.917969 28.257812 41.160156 26.089844 41.160156 L 25.425781 41.160156 C 23.257812 41.160156 21.496094 42.917969 21.496094 45.082031 L 21.496094 48.410156 L 16.277344 48.410156 L 16.277344 32.054688 Z M 7.214844 30.824219 L 17.65625 24.59375 L 17.65625 30.40625 L 15.738281 31.546875 L 12.714844 33.351562 C 12.546875 33.453125 12.492188 33.671875 12.59375 33.839844 C 12.695312 34.011719 12.914062 34.066406 13.082031 33.964844 L 15.566406 32.480469 L 15.566406 48.410156 L 7.214844 48.410156 Z M 7.214844 30.824219 "/></g><path style=" stroke:none;fill-rule:nonzero;fill:#000000;fill-opacity:1;" d="M 23.867188 32.90625 L 25.363281 32.90625 L 25.363281 36.109375 C 25.363281 36.304688 25.523438 36.464844 25.71875 36.464844 C 25.914062 36.464844 26.074219 36.304688 26.074219 36.109375 L 26.074219 32.90625 L 27.570312 32.90625 C 27.765625 32.90625 27.925781 32.75 27.925781 32.550781 C 27.925781 32.355469 27.765625 32.195312 27.570312 32.195312 L 26.074219 32.195312 L 26.074219 30.824219 C 26.074219 30.628906 25.914062 30.46875 25.71875 30.46875 C 25.523438 30.46875 25.363281 30.628906 25.363281 30.824219 L 25.363281 32.195312 L 23.867188 32.195312 C 23.671875 32.195312 23.511719 32.355469 23.511719 32.550781 C 23.511719 32.75 23.671875 32.90625 23.867188 32.90625 Z M 23.867188 32.90625 "/><path style=" stroke:none;fill-rule:nonzero;fill:#000000;fill-opacity:1;" d="M 25.710938 23.1875 C 25.816406 23.1875 25.917969 23.164062 26.019531 23.125 C 26.1875 23.050781 26.355469 22.972656 26.550781 22.859375 C 26.785156 22.734375 27.015625 22.585938 27.230469 22.429688 C 28.574219 21.441406 29.226562 20.316406 29.113281 19.171875 C 29.023438 18.257812 28.277344 17.539062 27.386719 17.496094 C 26.980469 17.476562 26.566406 17.617188 26.1875 17.90625 C 26.003906 18.039062 25.839844 18.195312 25.699219 18.359375 C 25.558594 18.195312 25.390625 18.039062 25.210938 17.90625 C 24.828125 17.617188 24.414062 17.476562 24.011719 17.496094 C 23.117188 17.539062 22.375 18.257812 22.285156 19.171875 C 22.167969 20.316406 22.820312 21.441406 24.167969 22.429688 C 24.382812 22.585938 24.609375 22.734375 24.84375 22.859375 C 25.042969 22.972656 25.207031 23.050781 25.378906 23.125 C 25.480469 23.167969 25.589844 23.1875 25.699219 23.1875 C 25.703125 23.1875 25.707031 23.1875 25.710938 23.1875 Z M 25.1875 22.238281 C 24.980469 22.125 24.78125 21.996094 24.589844 21.855469 C 23.800781 21.277344 22.882812 20.351562 22.992188 19.246094 C 23.046875 18.6875 23.511719 18.230469 24.042969 18.207031 C 24.058594 18.207031 24.070312 18.207031 24.082031 18.207031 C 24.363281 18.207031 24.617188 18.351562 24.78125 18.472656 C 24.972656 18.617188 25.140625 18.785156 25.265625 18.964844 C 25.367188 19.101562 25.527344 19.1875 25.699219 19.1875 C 25.871094 19.183594 26.03125 19.101562 26.132812 18.960938 C 26.253906 18.785156 26.421875 18.617188 26.613281 18.472656 C 26.785156 18.34375 27.054688 18.195312 27.351562 18.207031 C 27.886719 18.230469 28.347656 18.6875 28.402344 19.246094 C 28.515625 20.351562 27.597656 21.277344 26.804688 21.855469 C 26.617188 21.996094 26.414062 22.125 26.207031 22.238281 C 26.03125 22.335938 25.886719 22.40625 25.742188 22.46875 C 25.726562 22.472656 25.714844 22.476562 25.699219 22.476562 C 25.683594 22.476562 25.667969 22.472656 25.65625 22.46875 C 25.511719 22.40625 25.367188 22.335938 25.1875 22.238281 Z M 25.1875 22.238281 "/></g></svg>