<svg xmlns="http://www.w3.org/2000/svg" xmlns:xlink="http://www.w3.org/1999/xlink" width="70" zoomAndPan="magnify" viewBox="0 0 52.5 52.499999" height="70" preserveAspectRatio="xMidYMid meet" version="1.2"><defs><clipPath id="89c960c8d8"><path d="M 10.382812 2.832031 L 41.585938 2.832031 L 41.585938 45.859375 L 10.382812 45.859375 Z M 10.382812 2.832031 "/></clipPath></defs><g id="02a4f32263"><g clip-rule="nonzero" clip-path="url(#89c960c8d8)"><path style=" stroke:none;fill-rule:nonzero;fill:#000000;fill-opacity:1;" d="M 13.335938 44.953125 L 38.632812 44.953125 C 39.761719 44.953125 40.679688 44.039062 40.679688 42.90625 L 40.679688 5.785156 C 40.679688 4.65625 39.761719 3.738281 38.632812 3.738281 L 13.335938 3.738281 C 12.203125 3.738281 11.289062 4.65625 11.289062 5.785156 L 11.289062 42.90625 C 11.289062 44.039062 12.203125 44.953125 13.335938 44.953125 Z M 39.539062 45.859375 L 12.429688 45.859375 C 11.300781 45.859375 10.382812 44.941406 10.382812 43.8125 L 10.382812 4.878906 C 10.382812 3.75 11.300781 2.832031 12.429688 2.832031 L 39.539062 2.832031 C 40.667969 2.832031 41.585938 3.75 41.585938 4.878906 L 41.585938 43.8125 C 41.585938 44.941406 40.667969 45.859375 39.539062 45.859375 "/></g><path style=" stroke:none;fill-rule:nonzero;fill:#000000;fill-opacity:1;" d="M 14.632812 19.734375 L 13.597656 18.410156 C 13.5 18.28125 13.507812 18.101562 13.621094 17.984375 C 13.753906 17.847656 13.9375 17.675781 14.0625 17.816406 L 14.625 18.453125 C 14.761719 18.605469 15 18.597656 15.125 18.4375 L 16.257812 16.992188 C 16.347656 16.882812 16.507812 16.871094 16.609375 16.96875 L 16.933594 17.296875 C 17.054688 17.417969 17.0625 17.617188 16.945312 17.742188 L 15.128906 19.753906 C 14.992188 19.902344 14.757812 19.894531 14.632812 19.734375 "/><path style=" stroke:none;fill-rule:nonzero;fill:#000000;fill-opacity:1;" d="M 14.632812 26.167969 L 13.597656 24.84375 C 13.5 24.714844 13.507812 24.535156 13.621094 24.417969 C 13.753906 24.28125 13.9375 24.105469 14.0625 24.25 L 14.625 24.886719 C 14.761719 25.039062 15 25.03125 15.125 24.871094 L 16.109375 23.617188 C 16.277344 23.402344 16.589844 23.386719 16.78125 23.574219 L 16.933594 23.730469 C 17.054688 23.851562 17.0625 24.046875 16.945312 24.175781 L 15.128906 26.1875 C 14.992188 26.335938 14.757812 26.328125 14.632812 26.167969 "/><path style=" stroke:none;fill-rule:nonzero;fill:#000000;fill-opacity:1;" d="M 14.632812 33.25 L 13.597656 31.921875 C 13.5 31.792969 13.507812 31.613281 13.621094 31.496094 C 13.753906 31.363281 13.9375 31.1875 14.0625 31.328125 L 14.625 31.96875 C 14.761719 32.117188 15 32.113281 15.125 31.953125 L 16.109375 30.695312 C 16.277344 30.484375 16.589844 30.464844 16.78125 30.65625 L 16.933594 30.8125 C 17.054688 30.933594 17.0625 31.128906 16.945312 31.257812 L 15.128906 33.265625 C 14.992188 33.417969 14.757812 33.40625 14.632812 33.25 "/><path style=" stroke:none;fill-rule:nonzero;fill:#000000;fill-opacity:1;" d="M 25.429688 11.496094 C 24.941406 11.980469 24.171875 12.558594 23.730469 12.523438 C 23.015625 12.464844 22.09375 11.5 22.09375 11.5 C 22.09375 11.5 19.890625 9.925781 21.214844 8.386719 C 22.160156 7.285156 23.730469 9.050781 23.730469 9.050781 C 23.730469 9.050781 25.195312 7.179688 26.34375 7.820312 C 27.726562 8.59375 26.28125 10.65625 25.429688 11.496094 Z M 27.003906 6.972656 C 25.34375 6.042969 23.734375 7.796875 23.734375 7.796875 C 23.132812 7.320312 22.308594 6.933594 21.53125 6.933594 C 20.257812 6.9375 19.308594 8.265625 19.496094 9.488281 C 19.710938 10.894531 21.160156 12.058594 22.207031 12.867188 C 22.535156 13.121094 22.867188 13.367188 23.253906 13.507812 C 24.414062 13.917969 25.449219 12.84375 26.199219 12.105469 C 27.429688 10.882812 29.007812 8.089844 27.003906 6.972656 "/><path style=" stroke:none;fill-rule:nonzero;fill:#000000;fill-opacity:1;" d="M 29.996094 12.902344 C 29.511719 13.382812 28.738281 13.960938 28.296875 13.925781 C 27.585938 13.871094 26.660156 12.90625 26.660156 12.90625 C 26.660156 12.90625 24.175781 11.328125 25.5 9.789062 C 26.449219 8.6875 28.300781 10.453125 28.300781 10.453125 C 28.300781 10.453125 29.40625 8.71875 30.554688 9.359375 C 31.9375 10.132812 30.847656 12.058594 29.996094 12.902344 Z M 31.574219 8.378906 C 29.910156 7.449219 28.3125 9.4375 28.3125 9.4375 C 27.707031 8.960938 26.875 8.339844 26.097656 8.339844 C 24.824219 8.34375 23.875 9.671875 24.0625 10.890625 C 24.28125 12.300781 25.726562 13.464844 26.777344 14.273438 C 27.101562 14.523438 27.4375 14.773438 27.824219 14.910156 C 28.980469 15.324219 30.019531 14.25 30.765625 13.507812 C 32 12.289062 33.574219 9.496094 31.574219 8.378906 "/><path style=" stroke:none;fill-rule:nonzero;fill:#000000;fill-opacity:1;" d="M 37.148438 18.363281 L 19.113281 18.363281 C 18.789062 18.363281 18.53125 18.101562 18.53125 17.78125 C 18.53125 17.457031 18.789062 17.195312 19.113281 17.195312 L 37.148438 17.195312 C 37.472656 17.195312 37.734375 17.457031 37.734375 17.78125 C 37.734375 18.101562 37.472656 18.363281 37.148438 18.363281 "/><path style=" stroke:none;fill-rule:nonzero;fill:#000000;fill-opacity:1;" d="M 37.148438 22.042969 L 19.113281 22.042969 C 18.789062 22.042969 18.53125 21.78125 18.53125 21.460938 C 18.53125 21.140625 18.789062 20.878906 19.113281 20.878906 L 37.148438 20.878906 C 37.472656 20.878906 37.734375 21.140625 37.734375 21.460938 C 37.734375 21.78125 37.472656 22.042969 37.148438 22.042969 "/><path style=" stroke:none;fill-rule:nonzero;fill:#000000;fill-opacity:1;" d="M 37.148438 25.726562 L 19.113281 25.726562 C 18.789062 25.726562 18.53125 25.464844 18.53125 25.144531 C 18.53125 24.820312 18.789062 24.558594 19.113281 24.558594 L 37.148438 24.558594 C 37.472656 24.558594 37.734375 24.820312 37.734375 25.144531 C 37.734375 25.464844 37.472656 25.726562 37.148438 25.726562 "/><path style=" stroke:none;fill-rule:nonzero;fill:#000000;fill-opacity:1;" d="M 37.148438 29.40625 L 19.113281 29.40625 C 18.789062 29.40625 18.53125 29.144531 18.53125 28.824219 C 18.53125 28.503906 18.789062 28.242188 19.113281 28.242188 L 37.148438 28.242188 C 37.472656 28.242188 37.734375 28.503906 37.734375 28.824219 C 37.734375 29.144531 37.472656 29.40625 37.148438 29.40625 "/><path style=" stroke:none;fill-rule:nonzero;fill:#000000;fill-opacity:1;" d="M 37.148438 33.089844 L 19.113281 33.089844 C 18.789062 33.089844 18.53125 32.828125 18.53125 32.503906 C 18.53125 32.183594 18.789062 31.921875 19.113281 31.921875 L 37.148438 31.921875 C 37.472656 31.921875 37.734375 32.183594 37.734375 32.503906 C 37.734375 32.828125 37.472656 33.089844 37.148438 33.089844 "/><path style=" stroke:none;fill-rule:nonzero;fill:#000000;fill-opacity:1;" d="M 24.511719 40.734375 L 19.335938 40.734375 C 19.027344 40.734375 18.777344 40.484375 18.777344 40.179688 C 18.777344 39.871094 19.027344 39.621094 19.335938 39.621094 L 24.511719 39.621094 C 24.816406 39.621094 25.066406 39.871094 25.066406 40.179688 C 25.066406 40.484375 24.816406 40.734375 24.511719 40.734375 "/><path style=" stroke:none;fill-rule:nonzero;fill:#000000;fill-opacity:1;" d="M 34.242188 35.597656 C 32.078125 35.367188 30.265625 37.179688 30.496094 39.34375 C 30.664062 40.917969 31.929688 42.183594 33.503906 42.351562 C 35.664062 42.578125 37.480469 40.765625 37.25 38.605469 C 37.082031 37.03125 35.816406 35.765625 34.242188 35.597656 Z M 34.265625 43.25 C 31.589844 43.488281 29.355469 41.257812 29.59375 38.582031 C 29.777344 36.53125 31.429688 34.878906 33.480469 34.695312 C 36.15625 34.457031 38.386719 36.691406 38.148438 39.367188 C 37.96875 41.417969 36.316406 43.070312 34.265625 43.25 "/><path style=" stroke:none;fill-rule:nonzero;fill:#000000;fill-opacity:1;" d="M 36.058594 39.398438 C 35.871094 39.335938 35.761719 39.152344 35.757812 38.960938 C 35.75 37.929688 34.917969 37.09375 33.886719 37.085938 C 33.691406 37.085938 33.507812 36.972656 33.449219 36.789062 C 33.34375 36.476562 33.574219 36.1875 33.871094 36.1875 C 35.410156 36.1875 36.65625 37.4375 36.65625 38.972656 C 36.65625 39.269531 36.371094 39.5 36.058594 39.398438 "/><path style=" stroke:none;fill-rule:nonzero;fill:#000000;fill-opacity:1;" d="M 33.871094 41.757812 C 32.339844 41.757812 31.09375 40.515625 31.085938 38.988281 C 31.085938 38.769531 31.238281 38.574219 31.449219 38.53125 C 31.734375 38.480469 31.984375 38.699219 31.984375 38.972656 C 31.984375 40.011719 32.828125 40.855469 33.867188 40.859375 C 34.09375 40.863281 34.292969 41.035156 34.320312 41.261719 C 34.347656 41.53125 34.136719 41.757812 33.871094 41.757812 "/></g></svg>