<svg xmlns="http://www.w3.org/2000/svg" xmlns:xlink="http://www.w3.org/1999/xlink" width="70" zoomAndPan="magnify" viewBox="0 0 52.5 52.499999" height="70" preserveAspectRatio="xMidYMid meet" version="1.0"><defs><clipPath id="4b17318ea6"><path d="M 4.207031 3.445312 L 48 3.445312 L 48 48.765625 L 4.207031 48.765625 Z M 4.207031 3.445312 " clip-rule="nonzero"/></clipPath></defs><path fill="#000000" d="M 37.828125 43.160156 L 37.828125 45.394531 C 37.828125 45.585938 37.984375 45.742188 38.171875 45.742188 L 41.609375 45.742188 C 41.800781 45.742188 41.957031 45.585938 41.957031 45.394531 L 41.957031 43.160156 C 41.957031 42.105469 41.097656 41.246094 40.039062 41.246094 L 39.746094 41.246094 C 38.6875 41.246094 37.828125 42.105469 37.828125 43.160156 Z M 38.519531 43.160156 C 38.519531 42.484375 39.070312 41.933594 39.746094 41.933594 L 40.039062 41.933594 C 40.714844 41.933594 41.265625 42.484375 41.265625 43.160156 L 41.265625 45.050781 L 38.519531 45.050781 Z M 38.519531 43.160156 " fill-opacity="1" fill-rule="nonzero"/><path fill="#000000" d="M 12.402344 41.246094 L 12.109375 41.246094 C 11.050781 41.246094 10.191406 42.105469 10.191406 43.160156 L 10.191406 45.394531 C 10.191406 45.585938 10.347656 45.742188 10.539062 45.742188 L 13.976562 45.742188 C 14.164062 45.742188 14.320312 45.585938 14.320312 45.394531 L 14.320312 43.160156 C 14.320312 42.105469 13.460938 41.246094 12.402344 41.246094 Z M 13.628906 45.050781 L 10.882812 45.050781 L 10.882812 43.160156 C 10.882812 42.484375 11.433594 41.933594 12.109375 41.933594 L 12.402344 41.933594 C 13.078125 41.933594 13.628906 42.484375 13.628906 43.160156 Z M 13.628906 45.050781 " fill-opacity="1" fill-rule="nonzero"/><g clip-path="url(#4b17318ea6)"><path fill="#000000" d="M 4.785156 33.070312 L 7.484375 31.457031 L 7.484375 48.421875 C 7.484375 48.609375 7.636719 48.765625 7.828125 48.765625 L 44.269531 48.765625 C 44.460938 48.765625 44.617188 48.609375 44.617188 48.421875 L 44.617188 31.382812 L 47.457031 33.070312 C 47.511719 33.101562 47.574219 33.117188 47.632812 33.117188 C 47.75 33.117188 47.863281 33.058594 47.929688 32.949219 C 48.027344 32.785156 47.972656 32.574219 47.808594 32.476562 L 33.828125 24.183594 L 33.828125 16.105469 L 36.714844 17.910156 C 36.769531 17.945312 36.835938 17.960938 36.898438 17.960938 C 37.011719 17.960938 37.125 17.902344 37.191406 17.800781 C 37.289062 17.636719 37.242188 17.425781 37.082031 17.324219 L 33.667969 15.191406 L 32.207031 14.277344 L 26.414062 10.65625 L 26.414062 6.449219 L 28.546875 6.449219 C 28.738281 6.449219 28.890625 6.292969 28.890625 6.105469 C 28.890625 5.914062 28.738281 5.757812 28.546875 5.757812 L 26.414062 5.757812 L 26.414062 3.789062 C 26.414062 3.601562 26.257812 3.445312 26.070312 3.445312 C 25.878906 3.445312 25.722656 3.601562 25.722656 3.789062 L 25.722656 5.757812 L 23.589844 5.757812 C 23.402344 5.757812 23.246094 5.914062 23.246094 6.105469 C 23.246094 6.292969 23.402344 6.449219 23.589844 6.449219 L 25.722656 6.449219 L 25.722656 10.699219 L 15.082031 17.25 C 14.921875 17.351562 14.871094 17.5625 14.972656 17.726562 C 15.070312 17.886719 15.285156 17.9375 15.445312 17.835938 L 18.269531 16.097656 L 18.269531 24.210938 L 4.433594 32.476562 C 4.269531 32.574219 4.214844 32.785156 4.3125 32.949219 C 4.410156 33.113281 4.625 33.167969 4.785156 33.070312 Z M 25.761719 48.074219 L 22.671875 48.074219 L 22.671875 44.851562 C 22.671875 43.148438 24.058594 41.757812 25.761719 41.746094 Z M 29.542969 48.074219 L 26.453125 48.074219 L 26.453125 41.746094 C 28.15625 41.757812 29.542969 43.148438 29.542969 44.851562 Z M 33.828125 25.015625 L 43.925781 31.050781 L 43.925781 48.074219 L 35.851562 48.074219 L 35.851562 32.652344 L 38.253906 34.089844 C 38.308594 34.121094 38.367188 34.136719 38.429688 34.136719 C 38.546875 34.136719 38.660156 34.078125 38.726562 33.96875 C 38.824219 33.804688 38.769531 33.59375 38.605469 33.496094 L 35.683594 31.75 L 33.828125 30.644531 Z M 18.957031 15.675781 L 25.9375 11.378906 L 26.105469 11.273438 L 32.15625 15.058594 L 33.140625 15.671875 L 33.140625 30.230469 L 26.226562 26.097656 C 26.117188 26.035156 25.980469 26.035156 25.871094 26.097656 L 18.957031 30.230469 Z M 21.855469 29.300781 L 26.050781 26.796875 L 30.242188 29.300781 L 35.160156 32.242188 L 35.160156 48.074219 L 30.230469 48.074219 L 30.230469 44.851562 C 30.230469 42.757812 28.527344 41.054688 26.429688 41.054688 L 25.785156 41.054688 C 23.6875 41.054688 21.984375 42.757812 21.984375 44.851562 L 21.984375 48.074219 L 16.9375 48.074219 L 16.9375 32.242188 Z M 8.171875 31.050781 L 18.269531 25.015625 L 18.269531 30.644531 L 16.414062 31.75 L 13.492188 33.496094 C 13.328125 33.59375 13.273438 33.804688 13.371094 33.96875 C 13.472656 34.132812 13.683594 34.1875 13.847656 34.089844 L 16.246094 32.652344 L 16.246094 48.074219 L 8.171875 48.074219 Z M 8.171875 31.050781 " fill-opacity="1" fill-rule="nonzero"/></g><path fill="#000000" d="M 24.277344 33.066406 L 25.722656 33.066406 L 25.722656 36.164062 C 25.722656 36.355469 25.878906 36.507812 26.070312 36.507812 C 26.257812 36.507812 26.414062 36.355469 26.414062 36.164062 L 26.414062 33.066406 L 27.859375 33.066406 C 28.050781 33.066406 28.203125 32.910156 28.203125 32.722656 C 28.203125 32.53125 28.050781 32.375 27.859375 32.375 L 26.414062 32.375 L 26.414062 31.050781 C 26.414062 30.859375 26.257812 30.703125 26.070312 30.703125 C 25.878906 30.703125 25.722656 30.859375 25.722656 31.050781 L 25.722656 32.375 L 24.277344 32.375 C 24.089844 32.375 23.933594 32.53125 23.933594 32.722656 C 23.933594 32.910156 24.085938 33.066406 24.277344 33.066406 Z M 24.277344 33.066406 " fill-opacity="1" fill-rule="nonzero"/><path fill="#000000" d="M 26.058594 23.65625 C 26.164062 23.652344 26.261719 23.632812 26.359375 23.59375 C 26.523438 23.523438 26.683594 23.445312 26.875 23.339844 C 27.101562 23.214844 27.320312 23.074219 27.53125 22.921875 C 28.832031 21.964844 29.460938 20.871094 29.351562 19.769531 C 29.265625 18.882812 28.546875 18.183594 27.679688 18.144531 C 27.289062 18.125 26.890625 18.261719 26.519531 18.539062 C 26.34375 18.671875 26.183594 18.820312 26.050781 18.980469 C 25.914062 18.820312 25.753906 18.671875 25.578125 18.539062 C 25.207031 18.261719 24.808594 18.125 24.417969 18.144531 C 23.554688 18.183594 22.835938 18.882812 22.746094 19.769531 C 22.636719 20.871094 23.265625 21.964844 24.570312 22.921875 C 24.777344 23.074219 24.996094 23.214844 25.222656 23.335938 C 25.414062 23.445312 25.574219 23.523438 25.742188 23.59375 C 25.839844 23.632812 25.941406 23.65625 26.050781 23.65625 C 26.054688 23.65625 26.054688 23.65625 26.058594 23.65625 Z M 25.554688 22.734375 C 25.355469 22.625 25.160156 22.5 24.976562 22.367188 C 24.214844 21.804688 23.324219 20.910156 23.433594 19.835938 C 23.488281 19.296875 23.933594 18.855469 24.449219 18.832031 C 24.460938 18.832031 24.472656 18.832031 24.484375 18.832031 C 24.757812 18.832031 25.003906 18.96875 25.164062 19.089844 C 25.347656 19.230469 25.511719 19.394531 25.632812 19.566406 C 25.726562 19.699219 25.882812 19.78125 26.050781 19.78125 C 26.214844 19.777344 26.371094 19.699219 26.46875 19.5625 C 26.589844 19.394531 26.75 19.230469 26.933594 19.089844 C 27.101562 18.964844 27.359375 18.820312 27.648438 18.832031 C 28.164062 18.855469 28.613281 19.296875 28.667969 19.835938 C 28.773438 20.910156 27.886719 21.804688 27.121094 22.367188 C 26.9375 22.5 26.742188 22.625 26.539062 22.734375 C 26.371094 22.828125 26.230469 22.898438 26.089844 22.957031 C 26.078125 22.960938 26.066406 22.964844 26.050781 22.964844 C 26.035156 22.964844 26.023438 22.964844 26.007812 22.957031 C 25.867188 22.898438 25.730469 22.828125 25.554688 22.734375 Z M 25.554688 22.734375 " fill-opacity="1" fill-rule="nonzero"/></svg>