<svg xmlns="http://www.w3.org/2000/svg" xmlns:xlink="http://www.w3.org/1999/xlink" width="70" zoomAndPan="magnify" viewBox="0 0 52.5 52.499999" height="70" preserveAspectRatio="xMidYMid meet" version="1.0"><defs><clipPath id="4e9068e006"><path d="M 7.800781 14 L 21 14 L 21 38 L 7.800781 38 Z M 7.800781 14 " clip-rule="nonzero"/></clipPath><clipPath id="db7925923d"><path d="M 9 12.851562 L 43 12.851562 L 43 29 L 9 29 Z M 9 12.851562 " clip-rule="nonzero"/></clipPath><clipPath id="72b194b2b0"><path d="M 31 14 L 44.203125 14 L 44.203125 38 L 31 38 Z M 31 14 " clip-rule="nonzero"/></clipPath><clipPath id="d4f07a5ab8"><path d="M 9 26 L 43 26 L 43 38.855469 L 9 38.855469 Z M 9 26 " clip-rule="nonzero"/></clipPath></defs><g clip-path="url(#4e9068e006)"><path fill="#000000" d="M 20.417969 25.855469 L 8.664062 14.546875 C 8.136719 15.25 7.820312 16.117188 7.820312 17.058594 L 7.820312 34.652344 C 7.820312 35.59375 8.136719 36.464844 8.664062 37.164062 L 20.417969 25.855469 " fill-opacity="1" fill-rule="nonzero"/></g><g clip-path="url(#db7925923d)"><path fill="#000000" d="M 23.910156 27.488281 C 25.082031 28.617188 26.921875 28.617188 28.09375 27.488281 L 42.449219 13.675781 C 41.746094 13.160156 40.875 12.855469 39.929688 12.855469 L 12.074219 12.855469 C 11.132812 12.855469 10.261719 13.160156 9.554688 13.675781 L 23.910156 27.488281 " fill-opacity="1" fill-rule="nonzero"/></g><g clip-path="url(#72b194b2b0)"><path fill="#000000" d="M 43.339844 14.546875 L 31.585938 25.855469 L 43.339844 37.164062 C 43.867188 36.464844 44.183594 35.59375 44.183594 34.652344 L 44.183594 17.058594 C 44.183594 16.117188 43.867188 15.25 43.339844 14.546875 " fill-opacity="1" fill-rule="nonzero"/></g><g clip-path="url(#d4f07a5ab8)"><path fill="#000000" d="M 30.6875 26.71875 L 28.96875 28.375 C 28.167969 29.140625 27.117188 29.566406 26.003906 29.566406 C 24.886719 29.566406 23.835938 29.140625 23.039062 28.375 L 21.316406 26.71875 L 9.554688 38.039062 C 10.261719 38.554688 11.132812 38.859375 12.074219 38.859375 L 39.929688 38.859375 C 40.875 38.859375 41.746094 38.554688 42.449219 38.039062 L 30.6875 26.71875 " fill-opacity="1" fill-rule="nonzero"/></g></svg>