<svg xmlns="http://www.w3.org/2000/svg" xmlns:xlink="http://www.w3.org/1999/xlink" width="70" zoomAndPan="magnify" viewBox="0 0 52.5 52.499999" height="70" preserveAspectRatio="xMidYMid meet" version="1.0"><defs><clipPath id="2c0792d737"><path d="M 3.324219 2.535156 L 47.902344 2.535156 L 47.902344 49.335938 L 3.324219 49.335938 Z M 3.324219 2.535156 " clip-rule="nonzero"/></clipPath></defs><path fill="#000000" d="M 37.515625 43.550781 L 37.515625 45.859375 C 37.515625 46.054688 37.671875 46.214844 37.867188 46.214844 L 41.363281 46.214844 C 41.558594 46.214844 41.714844 46.054688 41.714844 45.859375 L 41.714844 43.550781 C 41.714844 42.460938 40.839844 41.570312 39.765625 41.570312 L 39.464844 41.570312 C 38.390625 41.570312 37.515625 42.460938 37.515625 43.550781 Z M 38.21875 43.550781 C 38.21875 42.851562 38.777344 42.285156 39.464844 42.285156 L 39.765625 42.285156 C 40.453125 42.285156 41.011719 42.851562 41.011719 43.550781 L 41.011719 45.503906 L 38.21875 45.503906 Z M 38.21875 43.550781 " fill-opacity="1" fill-rule="nonzero"/><path fill="#000000" d="M 11.660156 41.570312 L 11.363281 41.570312 C 10.285156 41.570312 9.410156 42.460938 9.410156 43.550781 L 9.410156 45.859375 C 9.410156 46.054688 9.570312 46.214844 9.761719 46.214844 L 13.257812 46.214844 C 13.453125 46.214844 13.609375 46.054688 13.609375 45.859375 L 13.609375 43.550781 C 13.609375 42.460938 12.734375 41.570312 11.660156 41.570312 Z M 12.90625 45.503906 L 10.113281 45.503906 L 10.113281 43.550781 C 10.113281 42.851562 10.671875 42.285156 11.363281 42.285156 L 11.660156 42.285156 C 12.347656 42.285156 12.90625 42.851562 12.90625 43.550781 Z M 12.90625 45.503906 " fill-opacity="1" fill-rule="nonzero"/><g clip-path="url(#2c0792d737)"><path fill="#000000" d="M 3.914062 33.125 L 6.65625 31.464844 L 6.65625 48.980469 C 6.65625 49.179688 6.8125 49.335938 7.007812 49.335938 L 44.066406 49.335938 C 44.261719 49.335938 44.417969 49.179688 44.417969 48.980469 L 44.417969 31.386719 L 47.308594 33.128906 C 47.363281 33.160156 47.425781 33.175781 47.488281 33.175781 C 47.605469 33.175781 47.722656 33.113281 47.789062 33.003906 C 47.886719 32.835938 47.832031 32.617188 47.664062 32.515625 L 33.449219 23.949219 L 33.449219 15.605469 L 36.382812 17.46875 C 36.441406 17.507812 36.503906 17.523438 36.570312 17.523438 C 36.6875 17.523438 36.800781 17.464844 36.867188 17.355469 C 36.96875 17.191406 36.921875 16.972656 36.753906 16.867188 L 33.285156 14.664062 L 31.800781 13.71875 L 25.90625 9.976562 L 25.90625 5.632812 L 28.078125 5.632812 C 28.269531 5.632812 28.429688 5.476562 28.429688 5.277344 C 28.429688 5.082031 28.269531 4.921875 28.078125 4.921875 L 25.90625 4.921875 L 25.90625 2.890625 C 25.90625 2.691406 25.75 2.535156 25.558594 2.535156 C 25.363281 2.535156 25.207031 2.691406 25.207031 2.890625 L 25.207031 4.921875 L 23.039062 4.921875 C 22.84375 4.921875 22.6875 5.082031 22.6875 5.277344 C 22.6875 5.476562 22.84375 5.632812 23.039062 5.632812 L 25.207031 5.632812 L 25.207031 10.027344 L 14.386719 16.789062 C 14.222656 16.894531 14.167969 17.113281 14.269531 17.28125 C 14.371094 17.449219 14.589844 17.5 14.753906 17.394531 L 17.625 15.601562 L 17.625 23.980469 L 3.554688 32.515625 C 3.386719 32.617188 3.335938 32.835938 3.433594 33.003906 C 3.53125 33.171875 3.75 33.226562 3.914062 33.125 Z M 25.246094 48.625 L 22.105469 48.625 L 22.105469 45.296875 C 22.105469 43.535156 23.511719 42.101562 25.246094 42.085938 Z M 29.089844 48.625 L 25.949219 48.625 L 25.949219 42.085938 C 27.683594 42.101562 29.089844 43.535156 29.089844 45.296875 Z M 33.449219 24.8125 L 43.71875 31.042969 L 43.71875 48.625 L 35.503906 48.625 L 35.503906 32.699219 L 37.949219 34.179688 C 38.003906 34.214844 38.066406 34.230469 38.128906 34.230469 C 38.246094 34.230469 38.363281 34.167969 38.429688 34.058594 C 38.527344 33.890625 38.472656 33.671875 38.308594 33.570312 L 35.335938 31.765625 L 33.449219 30.621094 Z M 18.328125 15.164062 L 25.421875 10.726562 L 25.59375 10.617188 L 31.75 14.527344 L 32.75 15.160156 L 32.75 30.195312 L 25.71875 25.929688 C 25.605469 25.863281 25.46875 25.863281 25.359375 25.929688 L 18.328125 30.195312 Z M 21.273438 29.238281 L 25.539062 26.648438 L 29.800781 29.238281 L 34.804688 32.273438 L 34.804688 48.625 L 29.789062 48.625 L 29.789062 45.296875 C 29.789062 43.136719 28.054688 41.375 25.921875 41.375 L 25.269531 41.375 C 23.136719 41.375 21.402344 43.136719 21.402344 45.296875 L 21.402344 48.625 L 16.273438 48.625 L 16.273438 32.273438 Z M 7.359375 31.042969 L 17.625 24.8125 L 17.625 30.621094 L 15.742188 31.765625 L 12.765625 33.570312 C 12.601562 33.671875 12.546875 33.890625 12.644531 34.058594 C 12.746094 34.226562 12.960938 34.28125 13.128906 34.179688 L 15.570312 32.699219 L 15.570312 48.625 L 7.359375 48.625 Z M 7.359375 31.042969 " fill-opacity="1" fill-rule="nonzero"/></g><path fill="#000000" d="M 23.738281 33.125 L 25.207031 33.125 L 25.207031 36.324219 C 25.207031 36.519531 25.363281 36.679688 25.558594 36.679688 C 25.75 36.679688 25.90625 36.519531 25.90625 36.324219 L 25.90625 33.125 L 27.378906 33.125 C 27.570312 33.125 27.730469 32.964844 27.730469 32.769531 C 27.730469 32.570312 27.570312 32.414062 27.378906 32.414062 L 25.90625 32.414062 L 25.90625 31.042969 C 25.90625 30.84375 25.75 30.6875 25.558594 30.6875 C 25.363281 30.6875 25.207031 30.84375 25.207031 31.042969 L 25.207031 32.414062 L 23.738281 32.414062 C 23.542969 32.414062 23.386719 32.570312 23.386719 32.769531 C 23.386719 32.964844 23.542969 33.125 23.738281 33.125 Z M 23.738281 33.125 " fill-opacity="1" fill-rule="nonzero"/><path fill="#000000" d="M 25.546875 23.40625 C 25.652344 23.402344 25.753906 23.382812 25.851562 23.339844 C 26.019531 23.269531 26.183594 23.1875 26.375 23.078125 C 26.605469 22.949219 26.832031 22.804688 27.042969 22.644531 C 28.367188 21.65625 29.007812 20.53125 28.898438 19.390625 C 28.808594 18.476562 28.074219 17.753906 27.195312 17.714844 C 26.800781 17.695312 26.390625 17.835938 26.015625 18.121094 C 25.839844 18.257812 25.675781 18.410156 25.539062 18.578125 C 25.398438 18.410156 25.234375 18.257812 25.058594 18.121094 C 24.683594 17.835938 24.273438 17.695312 23.878906 17.714844 C 23 17.753906 22.269531 18.476562 22.179688 19.390625 C 22.066406 20.53125 22.707031 21.65625 24.03125 22.644531 C 24.242188 22.804688 24.46875 22.949219 24.695312 23.078125 C 24.894531 23.1875 25.054688 23.269531 25.222656 23.339844 C 25.324219 23.382812 25.429688 23.40625 25.539062 23.40625 C 25.542969 23.40625 25.546875 23.40625 25.546875 23.40625 Z M 25.035156 22.453125 C 24.832031 22.339844 24.632812 22.210938 24.449219 22.074219 C 23.671875 21.492188 22.765625 20.570312 22.875 19.460938 C 22.929688 18.902344 23.386719 18.449219 23.910156 18.425781 C 23.921875 18.421875 23.933594 18.421875 23.949219 18.421875 C 24.226562 18.421875 24.472656 18.566406 24.636719 18.691406 C 24.824219 18.835938 24.988281 19.003906 25.113281 19.179688 C 25.210938 19.320312 25.371094 19.402344 25.539062 19.402344 C 25.707031 19.402344 25.867188 19.316406 25.964844 19.179688 C 26.085938 19.003906 26.25 18.835938 26.4375 18.691406 C 26.609375 18.5625 26.871094 18.410156 27.164062 18.425781 C 27.691406 18.449219 28.144531 18.902344 28.199219 19.460938 C 28.308594 20.570312 27.402344 21.492188 26.628906 22.074219 C 26.441406 22.210938 26.242188 22.339844 26.035156 22.453125 C 25.863281 22.550781 25.722656 22.625 25.582031 22.683594 C 25.566406 22.691406 25.554688 22.691406 25.539062 22.691406 C 25.523438 22.695312 25.507812 22.691406 25.496094 22.683594 C 25.351562 22.625 25.210938 22.554688 25.035156 22.453125 Z M 25.035156 22.453125 " fill-opacity="1" fill-rule="nonzero"/></svg>