<svg xmlns="http://www.w3.org/2000/svg" xmlns:xlink="http://www.w3.org/1999/xlink" width="70" zoomAndPan="magnify" viewBox="0 0 52.5 52.499999" height="70" preserveAspectRatio="xMidYMid meet" version="1.0"><defs><clipPath id="94c9c6d0d7"><path d="M 24 2.597656 L 27 2.597656 L 27 7 L 24 7 Z M 24 2.597656 " clip-rule="nonzero"/></clipPath><clipPath id="5dcc3dcb71"><path d="M 26 8 L 46 8 L 46 48.65625 L 26 48.65625 Z M 26 8 " clip-rule="nonzero"/></clipPath><clipPath id="e17e9b3f08"><path d="M 5.199219 8 L 25 8 L 25 48.65625 L 5.199219 48.65625 Z M 5.199219 8 " clip-rule="nonzero"/></clipPath></defs><g clip-path="url(#94c9c6d0d7)"><path fill="#000000" d="M 24.925781 3.164062 L 24.925781 6.046875 C 24.925781 6.386719 25.152344 6.613281 25.488281 6.613281 C 25.773438 6.613281 26.054688 6.386719 26.054688 6.046875 L 26.109375 3.164062 C 26.109375 2.824219 25.886719 2.597656 25.546875 2.597656 C 25.207031 2.597656 24.980469 2.878906 24.925781 3.164062 Z M 24.925781 3.164062 " fill-opacity="1" fill-rule="nonzero"/></g><path fill="#000000" d="M 29.046875 5.144531 L 26.957031 7.125 C 26.730469 7.351562 26.730469 7.6875 26.957031 7.914062 C 27.070312 8.027344 27.242188 8.085938 27.351562 8.085938 C 27.464844 8.085938 27.636719 8.027344 27.75 7.914062 L 29.839844 5.933594 C 30.0625 5.707031 30.0625 5.371094 29.839844 5.144531 C 29.667969 4.972656 29.273438 4.972656 29.046875 5.144531 Z M 29.046875 5.144531 " fill-opacity="1" fill-rule="nonzero"/><path fill="#000000" d="M 21.140625 5.199219 C 20.914062 5.425781 20.914062 5.765625 21.140625 5.992188 L 23.230469 7.972656 C 23.34375 8.085938 23.457031 8.140625 23.625 8.140625 C 23.796875 8.140625 23.910156 8.085938 24.019531 7.972656 C 24.246094 7.746094 24.246094 7.40625 24.019531 7.179688 L 21.933594 5.199219 C 21.707031 4.972656 21.3125 4.972656 21.140625 5.199219 Z M 21.140625 5.199219 " fill-opacity="1" fill-rule="nonzero"/><g clip-path="url(#5dcc3dcb71)"><path fill="#000000" d="M 45.027344 45.546875 L 41.472656 46.394531 L 38.367188 33.664062 C 41.527344 32.246094 42.601562 25.855469 40.792969 18.609375 C 40.230469 16.402344 38.648438 11.027344 37.6875 8.992188 C 37.574219 8.765625 37.292969 8.652344 37.066406 8.707031 L 26.902344 11.199219 C 26.621094 11.253906 26.449219 11.480469 26.449219 11.761719 C 26.507812 14.027344 27.578125 19.515625 28.144531 21.722656 C 29.894531 28.851562 33.679688 33.945312 37.066406 33.945312 C 37.121094 33.945312 37.179688 33.945312 37.292969 33.945312 L 40.398438 46.675781 L 36.839844 47.527344 C 36.558594 47.582031 36.332031 47.921875 36.445312 48.207031 C 36.5 48.488281 36.726562 48.65625 37.011719 48.65625 C 37.066406 48.65625 37.121094 48.65625 37.121094 48.65625 L 45.3125 46.675781 C 45.59375 46.621094 45.820312 46.28125 45.707031 46 C 45.648438 45.660156 45.3125 45.488281 45.027344 45.546875 Z M 36.839844 9.839844 C 37.234375 10.746094 37.6875 12.046875 38.140625 13.40625 L 28.085938 15.78125 C 27.863281 14.367188 27.636719 13.066406 27.578125 12.101562 Z M 29.21875 21.382812 C 28.992188 20.363281 28.59375 18.667969 28.257812 16.914062 L 38.421875 14.480469 C 38.929688 16.175781 39.382812 17.816406 39.609375 18.78125 C 41.300781 25.628906 40.285156 31.964844 37.460938 32.644531 C 34.695312 33.4375 30.910156 28.230469 29.21875 21.382812 Z M 29.21875 21.382812 " fill-opacity="1" fill-rule="nonzero"/></g><path fill="#000000" d="M 38.195312 29.136719 C 38.816406 27.664062 39.042969 23.25 37.746094 17.929688 C 37.6875 17.648438 37.347656 17.421875 37.066406 17.535156 C 36.785156 17.59375 36.558594 17.929688 36.671875 18.214844 C 37.914062 23.195312 37.6875 27.4375 37.179688 28.683594 C 37.066406 28.964844 37.179688 29.304688 37.460938 29.417969 C 37.519531 29.476562 37.632812 29.476562 37.6875 29.476562 C 37.914062 29.53125 38.082031 29.363281 38.195312 29.136719 Z M 38.195312 29.136719 " fill-opacity="1" fill-rule="nonzero"/><g clip-path="url(#e17e9b3f08)"><path fill="#000000" d="M 24.753906 11.707031 C 24.753906 11.425781 24.585938 11.199219 24.304688 11.140625 L 14.140625 8.652344 C 13.855469 8.59375 13.628906 8.707031 13.519531 8.933594 C 12.558594 10.972656 10.976562 16.347656 10.410156 18.554688 C 9.507812 22.117188 9.339844 25.683594 9.847656 28.511719 C 10.296875 31.171875 11.371094 32.984375 12.894531 33.664062 L 9.789062 46.449219 L 6.175781 45.546875 C 5.894531 45.488281 5.554688 45.660156 5.5 45.941406 C 5.441406 46.226562 5.613281 46.5625 5.894531 46.621094 L 14.082031 48.601562 C 14.140625 48.601562 14.195312 48.601562 14.195312 48.601562 C 14.476562 48.601562 14.703125 48.429688 14.761719 48.148438 C 14.816406 47.867188 14.648438 47.527344 14.363281 47.46875 L 10.863281 46.675781 L 13.96875 33.890625 C 14.027344 33.890625 14.140625 33.890625 14.195312 33.890625 C 15.777344 33.890625 17.46875 32.8125 18.996094 30.71875 C 20.746094 28.457031 22.15625 25.230469 23.0625 21.609375 C 23.625 19.460938 24.699219 13.96875 24.753906 11.707031 Z M 14.363281 9.839844 L 23.625 12.101562 C 23.570312 13.066406 23.34375 14.421875 23.117188 15.78125 L 13.066406 13.40625 C 13.519531 12.046875 13.96875 10.746094 14.363281 9.839844 Z M 18.09375 30.097656 C 16.566406 32.078125 14.929688 33.039062 13.628906 32.757812 C 12.332031 32.417969 11.371094 30.832031 10.917969 28.34375 C 10.46875 25.683594 10.636719 22.289062 11.484375 18.835938 C 11.710938 17.816406 12.164062 16.175781 12.671875 14.535156 L 22.835938 16.96875 C 22.496094 18.722656 22.15625 20.421875 21.875 21.441406 C 21.140625 24.835938 19.785156 27.949219 18.09375 30.097656 Z M 18.09375 30.097656 " fill-opacity="1" fill-rule="nonzero"/></g><path fill="#000000" d="M 14.140625 17.535156 C 13.855469 17.480469 13.519531 17.648438 13.460938 17.929688 C 12.164062 23.25 12.445312 27.664062 13.007812 29.136719 C 13.121094 29.363281 13.292969 29.476562 13.519531 29.476562 C 13.574219 29.476562 13.6875 29.476562 13.742188 29.417969 C 14.027344 29.304688 14.195312 28.964844 14.027344 28.683594 C 13.519531 27.382812 13.292969 23.195312 14.535156 18.214844 C 14.648438 17.929688 14.476562 17.648438 14.140625 17.535156 Z M 14.140625 17.535156 " fill-opacity="1" fill-rule="nonzero"/><path fill="#000000" d="M 28.484375 32.8125 C 27.351562 32.359375 26.167969 32.699219 25.265625 33.664062 C 24.417969 32.699219 23.230469 32.359375 22.042969 32.8125 C 20.691406 33.324219 19.558594 34.964844 20.011719 37.113281 C 20.746094 40.621094 24.8125 42.433594 24.980469 42.488281 C 25.039062 42.546875 25.152344 42.546875 25.207031 42.546875 C 25.265625 42.546875 25.375 42.546875 25.433594 42.488281 C 25.601562 42.433594 29.667969 40.621094 30.402344 37.113281 C 30.96875 34.964844 29.839844 33.324219 28.484375 32.8125 Z M 29.386719 36.832031 C 28.820312 39.320312 26.109375 40.90625 25.265625 41.300781 C 24.472656 40.90625 21.707031 39.320312 21.140625 36.832031 C 20.800781 35.246094 21.59375 34.171875 22.496094 33.832031 C 22.722656 33.777344 22.890625 33.71875 23.117188 33.71875 C 23.738281 33.71875 24.359375 34.113281 24.8125 34.851562 C 25.039062 35.191406 25.601562 35.191406 25.773438 34.851562 C 26.335938 33.890625 27.183594 33.492188 28.085938 33.832031 C 28.933594 34.171875 29.726562 35.246094 29.386719 36.832031 Z M 29.386719 36.832031 " fill-opacity="1" fill-rule="nonzero"/></svg>