<svg xmlns="http://www.w3.org/2000/svg" xmlns:xlink="http://www.w3.org/1999/xlink" width="70" zoomAndPan="magnify" viewBox="0 0 52.5 52.499999" height="70" preserveAspectRatio="xMidYMid meet" version="1.0"><defs><clipPath id="a756f65203"><path d="M 8.21875 10.511719 L 43.878906 10.511719 L 43.878906 46.917969 L 8.21875 46.917969 Z M 8.21875 10.511719 " clip-rule="nonzero"/></clipPath></defs><g clip-path="url(#a756f65203)"><path fill="#ece6da" d="M 37.140625 45.960938 C 37.152344 45.152344 37.0625 44.386719 36.867188 43.671875 C 39.207031 43.476562 40.4375 42.851562 40.535156 42.796875 C 40.65625 42.730469 40.738281 42.605469 40.753906 42.46875 C 40.765625 42.328125 40.707031 42.191406 40.597656 42.105469 C 34.175781 36.882812 37.203125 26.082031 37.234375 25.972656 C 37.238281 25.960938 37.234375 25.949219 37.238281 25.941406 C 37.238281 25.925781 37.246094 25.917969 37.246094 25.90625 C 37.273438 25.667969 37.863281 20.402344 36.027344 16.542969 C 41.464844 23.21875 42.898438 35.3125 42.933594 45.960938 Z M 29.875 37.515625 C 29.023438 37.242188 28.910156 35.726562 29.023438 34.296875 C 32.347656 33.035156 34.777344 29.757812 35.109375 25.738281 C 35.273438 25.808594 35.46875 25.847656 35.640625 25.910156 C 35.867188 25.992188 36.074219 26.089844 36.316406 26.160156 C 35.804688 28.222656 33.988281 37.175781 39.542969 42.300781 C 38.976562 42.496094 37.972656 42.742188 36.585938 42.835938 C 35.601562 40.441406 33.335938 38.628906 29.875 37.515625 Z M 33.734375 45.960938 C 33.675781 45.15625 33.453125 43.425781 32.625 42.714844 C 32.015625 42.195312 30.5625 41.753906 29.074219 41.960938 C 28.179688 42.085938 26.96875 42.484375 25.996094 43.652344 C 25.027344 42.484375 23.8125 42.085938 22.921875 41.960938 C 21.433594 41.753906 19.980469 42.195312 19.371094 42.714844 C 18.542969 43.425781 18.320312 45.15625 18.261719 45.960938 L 15.6875 45.960938 C 15.625 42.382812 17.933594 39.746094 22.378906 38.316406 C 23.691406 37.894531 23.914062 36.148438 23.832031 34.5625 C 24.53125 34.75 25.253906 34.859375 26.003906 34.859375 C 26.75 34.859375 27.46875 34.753906 28.160156 34.570312 C 28.078125 36.152344 28.308594 37.894531 29.617188 38.316406 C 34.0625 39.746094 36.367188 42.382812 36.308594 45.960938 Z M 19.105469 45.960938 C 19.179688 45.03125 19.429688 43.773438 19.917969 43.355469 C 20.308594 43.019531 21.496094 42.609375 22.804688 42.792969 C 23.636719 42.910156 24.804688 43.3125 25.644531 44.582031 C 25.800781 44.816406 26.195312 44.816406 26.351562 44.582031 C 27.191406 43.3125 28.359375 42.910156 29.191406 42.792969 C 30.5 42.609375 31.6875 43.019531 32.078125 43.355469 C 32.5625 43.769531 32.8125 45.03125 32.890625 45.960938 Z M 12.453125 42.296875 C 18 37.179688 16.195312 28.242188 15.679688 26.164062 C 16.046875 26.074219 16.382812 25.972656 16.738281 25.875 C 16.792969 25.859375 16.851562 25.847656 16.910156 25.828125 C 17.273438 29.785156 19.699219 33.023438 22.96875 34.285156 C 23.085938 35.714844 22.976562 37.242188 22.121094 37.515625 C 18.664062 38.628906 16.398438 40.433594 15.410156 42.828125 C 14.027344 42.734375 13.023438 42.492188 12.453125 42.296875 Z M 14.855469 45.960938 L 9.0625 45.960938 C 9.097656 34.386719 10.675781 21.265625 16.832031 15.074219 C 13.652344 19.195312 14.699219 25.636719 14.75 25.929688 C 14.75 25.9375 14.757812 25.941406 14.757812 25.949219 C 14.761719 25.960938 14.757812 25.96875 14.761719 25.972656 C 14.792969 26.082031 17.820312 36.882812 11.394531 42.105469 C 11.289062 42.191406 11.230469 42.328125 11.242188 42.46875 C 11.253906 42.605469 11.335938 42.730469 11.460938 42.796875 C 11.558594 42.851562 12.789062 43.476562 15.128906 43.667969 C 14.933594 44.386719 14.839844 45.152344 14.855469 45.960938 Z M 34.304688 25.359375 C 34.046875 30.238281 30.445312 34.019531 26.003906 34.019531 C 21.671875 34.019531 18.09375 30.351562 17.722656 25.609375 C 17.746094 25.601562 17.769531 25.59375 17.792969 25.585938 C 18.207031 25.464844 18.589844 25.328125 18.980469 25.199219 C 19.304688 25.089844 19.636719 24.988281 19.949219 24.875 C 20.328125 24.734375 20.679688 24.582031 21.042969 24.433594 C 21.074219 24.421875 21.109375 24.40625 21.144531 24.394531 C 21.242188 24.351562 21.347656 24.316406 21.445312 24.273438 C 21.597656 24.207031 21.761719 24.144531 21.914062 24.078125 C 22.199219 23.949219 22.464844 23.808594 22.738281 23.675781 C 22.882812 23.605469 23.03125 23.535156 23.171875 23.464844 C 23.34375 23.375 23.527344 23.289062 23.695312 23.199219 C 23.890625 23.089844 24.070312 22.976562 24.257812 22.867188 C 24.425781 22.765625 24.589844 22.667969 24.75 22.566406 C 24.925781 22.457031 25.117188 22.351562 25.285156 22.238281 C 25.414062 22.15625 25.523438 22.066406 25.644531 21.980469 C 25.832031 21.847656 26.003906 21.710938 26.183594 21.578125 C 26.347656 21.449219 26.53125 21.328125 26.691406 21.199219 C 26.757812 21.140625 26.820312 21.078125 26.886719 21.019531 C 27.101562 20.839844 27.292969 20.648438 27.492188 20.460938 C 27.496094 20.457031 27.5 20.453125 27.503906 20.449219 C 27.632812 20.320312 27.777344 20.203125 27.902344 20.078125 C 27.929688 20.046875 27.953125 20.015625 27.980469 19.988281 C 28.320312 19.628906 28.632812 19.265625 28.914062 18.886719 C 28.917969 18.882812 28.917969 18.878906 28.921875 18.878906 C 29.035156 19.195312 29.167969 19.519531 29.316406 19.851562 C 29.320312 19.859375 29.320312 19.863281 29.324219 19.871094 C 29.332031 19.882812 29.339844 19.902344 29.347656 19.917969 C 29.488281 20.230469 29.644531 20.546875 29.820312 20.863281 C 29.828125 20.878906 29.839844 20.898438 29.847656 20.914062 C 29.863281 20.945312 29.882812 20.972656 29.898438 21 C 30.066406 21.296875 30.25 21.589844 30.445312 21.882812 C 30.46875 21.917969 30.492188 21.953125 30.515625 21.984375 C 30.539062 22.015625 30.558594 22.046875 30.578125 22.074219 C 30.777344 22.355469 30.988281 22.625 31.21875 22.890625 C 31.253906 22.933594 31.285156 22.976562 31.324219 23.019531 C 31.347656 23.042969 31.367188 23.070312 31.390625 23.097656 C 31.390625 23.101562 31.394531 23.101562 31.398438 23.105469 C 31.648438 23.386719 31.921875 23.65625 32.214844 23.914062 C 32.230469 23.933594 32.246094 23.949219 32.265625 23.964844 C 32.300781 24 32.34375 24.03125 32.382812 24.0625 C 32.453125 24.125 32.535156 24.179688 32.609375 24.238281 C 32.835938 24.421875 33.0625 24.601562 33.3125 24.769531 C 33.382812 24.816406 33.453125 24.859375 33.527344 24.90625 C 33.664062 24.996094 33.816406 25.070312 33.960938 25.15625 C 34.078125 25.222656 34.183594 25.296875 34.304688 25.359375 Z M 18.253906 14.726562 C 20.355469 12.734375 23.058594 11.613281 25.738281 11.46875 L 26.65625 11.46875 C 26.695312 11.484375 26.738281 11.496094 26.785156 11.5 C 28.253906 11.632812 29.589844 11.988281 30.816406 12.515625 C 32.582031 13.394531 33.90625 14.5625 34.886719 16.191406 C 36.703125 19.199219 36.5625 23.773438 36.457031 25.292969 C 36.242188 25.230469 36.035156 25.164062 35.835938 25.089844 C 35.601562 25.007812 35.363281 24.929688 35.144531 24.828125 C 34.933594 24.734375 34.746094 24.625 34.554688 24.519531 C 34.285156 24.375 34.015625 24.234375 33.773438 24.070312 C 33.757812 24.0625 33.75 24.054688 33.738281 24.046875 C 33.421875 23.828125 33.125 23.597656 32.847656 23.355469 C 32.824219 23.332031 32.789062 23.3125 32.761719 23.285156 C 32.511719 23.0625 32.28125 22.820312 32.0625 22.578125 C 32 22.511719 31.933594 22.449219 31.875 22.382812 C 31.695312 22.171875 31.53125 21.953125 31.371094 21.738281 C 31.335938 21.683594 31.292969 21.632812 31.257812 21.578125 C 31.210938 21.519531 31.167969 21.457031 31.125 21.394531 C 30.992188 21.199219 30.867188 20.996094 30.75 20.796875 C 30.679688 20.679688 30.617188 20.5625 30.550781 20.445312 C 30.53125 20.410156 30.511719 20.378906 30.496094 20.34375 C 30.398438 20.164062 30.308594 19.984375 30.222656 19.804688 C 30.136719 19.621094 30.058594 19.441406 29.980469 19.257812 C 29.976562 19.246094 29.972656 19.234375 29.964844 19.222656 C 29.910156 19.082031 29.847656 18.941406 29.792969 18.804688 C 29.667969 18.472656 29.554688 18.140625 29.457031 17.820312 C 29.410156 17.664062 29.277344 17.546875 29.113281 17.527344 C 28.957031 17.503906 28.789062 17.578125 28.703125 17.71875 C 28.46875 18.082031 28.207031 18.4375 27.917969 18.785156 C 27.898438 18.808594 27.875 18.835938 27.855469 18.859375 C 27.84375 18.875 27.828125 18.890625 27.816406 18.90625 C 27.542969 19.226562 27.246094 19.539062 26.925781 19.839844 C 26.917969 19.851562 26.90625 19.859375 26.898438 19.867188 C 26.863281 19.902344 26.828125 19.933594 26.792969 19.96875 C 26.460938 20.277344 26.105469 20.574219 25.726562 20.863281 C 25.707031 20.878906 25.691406 20.890625 25.671875 20.90625 L 25.605469 20.957031 C 25.203125 21.257812 24.777344 21.554688 24.324219 21.835938 C 24.304688 21.847656 24.289062 21.855469 24.273438 21.867188 C 23.3125 22.464844 22.238281 23.015625 21.0625 23.515625 C 21.058594 23.519531 21.054688 23.519531 21.046875 23.523438 C 20.457031 23.777344 19.835938 24.015625 19.195312 24.242188 C 19.1875 24.246094 19.183594 24.246094 19.179688 24.246094 C 18.539062 24.472656 17.875 24.6875 17.183594 24.886719 C 17.054688 24.925781 16.929688 24.960938 16.800781 25 C 16.5625 25.066406 16.320312 25.128906 16.074219 25.191406 C 15.890625 25.238281 15.707031 25.289062 15.519531 25.335938 C 15.324219 23.679688 14.929688 17.882812 18.253906 14.726562 Z M 31.078125 11.707031 C 30.902344 11.621094 30.753906 11.523438 30.574219 11.445312 C 29 10.777344 27.285156 10.511719 25.5625 10.628906 L 25.1875 10.628906 C 25.164062 10.628906 25.140625 10.628906 25.121094 10.632812 C 14.066406 10.917969 8.222656 23.277344 8.222656 46.382812 C 8.222656 46.613281 8.410156 46.800781 8.640625 46.800781 L 43.355469 46.800781 C 43.585938 46.800781 43.773438 46.613281 43.773438 46.382812 C 43.773438 32.507812 41.445312 16.058594 31.078125 11.707031 " fill-opacity="1" fill-rule="nonzero"/></g></svg>