<svg xmlns="http://www.w3.org/2000/svg" xmlns:xlink="http://www.w3.org/1999/xlink" width="70" zoomAndPan="magnify" viewBox="0 0 52.5 52.499999" height="70" preserveAspectRatio="xMidYMid meet" version="1.0"><defs><clipPath id="c34e215265"><path d="M 10.550781 5.199219 L 43.238281 5.199219 L 43.238281 48.289062 L 10.550781 48.289062 Z M 10.550781 5.199219 " clip-rule="nonzero"/></clipPath></defs><path fill="#ece6da" d="M 37.246094 44.167969 L 39.183594 46.046875 L 35.316406 46.046875 Z M 40.527344 46.050781 L 37.566406 43.183594 C 37.386719 43.007812 37.097656 43.007812 36.917969 43.183594 L 33.984375 46.046875 L 33.003906 46.046875 C 32.746094 46.046875 32.539062 46.253906 32.539062 46.511719 C 32.539062 46.769531 32.746094 46.980469 33.003906 46.980469 L 40.480469 46.980469 C 40.738281 46.980469 40.945312 46.769531 40.945312 46.511719 C 40.945312 46.269531 40.761719 46.074219 40.527344 46.050781 " fill-opacity="1" fill-rule="nonzero"/><g clip-path="url(#c34e215265)"><path fill="#ece6da" d="M 34.5625 37.796875 L 32.644531 36.957031 C 32.476562 36.882812 32.28125 36.914062 32.144531 37.035156 C 32.007812 37.160156 31.957031 37.351562 32.015625 37.527344 L 33.335938 41.601562 L 27.652344 46.519531 L 33.285156 31.480469 L 36.765625 32.597656 Z M 20.566406 41.601562 L 21.886719 37.527344 C 21.945312 37.351562 21.890625 37.160156 21.757812 37.035156 C 21.621094 36.914062 21.425781 36.882812 21.257812 36.957031 L 19.339844 37.796875 L 17.136719 32.597656 L 20.617188 31.480469 L 26.25 46.519531 Z M 26.949219 27.867188 C 27.855469 27.867188 28.730469 27.695312 29.550781 27.378906 L 29.550781 29.710938 L 26.949219 31.660156 L 24.351562 29.710938 L 24.351562 27.378906 C 25.171875 27.695312 26.046875 27.867188 26.949219 27.867188 Z M 19.082031 17.460938 C 20.972656 17.683594 27.113281 18.101562 30.003906 14.671875 C 30.046875 15.484375 30.015625 16.546875 29.707031 17.382812 C 29.648438 17.539062 29.679688 17.71875 29.789062 17.84375 C 29.894531 17.972656 30.0625 18.03125 30.230469 18.003906 C 30.351562 17.980469 32.914062 17.488281 34.832031 15.796875 L 34.832031 16.925781 C 34.832031 22.445312 31.296875 26.933594 26.949219 26.933594 C 22.746094 26.933594 19.300781 22.730469 19.082031 17.460938 Z M 17.894531 21.878906 C 17.046875 21.878906 16.34375 21.179688 16.261719 20.253906 L 16.238281 19.988281 C 16.179688 19.332031 16.441406 18.714844 16.933594 18.335938 C 17.304688 18.054688 17.75 17.953125 18.183594 18.046875 C 18.296875 19.414062 18.613281 20.707031 19.09375 21.878906 Z M 21.070312 8.460938 C 22.414062 6.917969 24.390625 6.136719 26.949219 6.136719 C 29.507812 6.136719 31.488281 6.917969 32.828125 8.460938 C 34.34375 10.199219 34.792969 12.597656 34.894531 14.390625 C 33.714844 15.847656 31.839844 16.582031 30.804688 16.894531 C 31.132812 15.222656 30.8125 13.351562 30.796875 13.261719 C 30.761719 13.066406 30.605469 12.910156 30.410156 12.882812 C 30.210938 12.851562 30.015625 12.949219 29.925781 13.128906 C 27.757812 17.300781 20.6875 16.714844 19.03125 16.515625 C 18.925781 15.289062 18.769531 11.105469 21.070312 8.460938 Z M 36.984375 18.335938 C 37.476562 18.714844 37.738281 19.332031 37.679688 19.988281 L 37.65625 20.253906 C 37.574219 21.179688 36.871094 21.878906 36.019531 21.878906 L 34.804688 21.878906 C 35.289062 20.707031 35.605469 19.417969 35.714844 18.050781 C 36.15625 17.949219 36.609375 18.050781 36.984375 18.335938 Z M 27.808594 32.183594 L 29.550781 30.875 L 29.550781 33.144531 Z M 24.351562 30.875 L 26.09375 32.183594 L 24.351562 33.144531 Z M 32.398438 31.195312 L 26.949219 45.730469 L 21.503906 31.195312 L 23.417969 30.582031 L 23.417969 33.9375 C 23.417969 34.101562 23.503906 34.253906 23.648438 34.335938 C 23.71875 34.378906 23.800781 34.402344 23.882812 34.402344 C 23.960938 34.402344 24.039062 34.382812 24.109375 34.34375 L 26.949219 32.773438 L 29.792969 34.34375 C 29.863281 34.382812 29.941406 34.402344 30.015625 34.402344 C 30.097656 34.402344 30.179688 34.378906 30.253906 34.335938 C 30.394531 34.253906 30.484375 34.101562 30.484375 33.9375 L 30.484375 30.582031 Z M 41.597656 33.167969 L 30.484375 29.605469 L 30.484375 26.945312 C 32.085938 26.074219 33.441406 24.625 34.375 22.8125 L 36.019531 22.8125 C 37.355469 22.8125 38.457031 21.746094 38.585938 20.335938 L 38.609375 20.070312 C 38.695312 19.09375 38.296875 18.167969 37.546875 17.597656 C 37.019531 17.191406 36.386719 17.019531 35.761719 17.097656 C 35.761719 17.050781 35.761719 17.007812 35.761719 16.960938 C 35.828125 16.464844 36.441406 11.195312 33.535156 7.851562 C 32.007812 6.09375 29.792969 5.203125 26.949219 5.203125 C 24.109375 5.203125 21.894531 6.09375 20.367188 7.851562 C 17.460938 11.195312 18.074219 16.464844 18.140625 16.960938 C 18.140625 17.003906 18.140625 17.050781 18.140625 17.09375 C 17.519531 17.023438 16.894531 17.195312 16.367188 17.597656 C 15.617188 18.167969 15.222656 19.09375 15.308594 20.070312 L 15.332031 20.335938 C 15.457031 21.746094 16.558594 22.8125 17.894531 22.8125 L 19.527344 22.8125 C 20.460938 24.625 21.816406 26.074219 23.417969 26.945312 L 23.417969 29.605469 L 12.300781 33.167969 C 11.28125 33.496094 10.59375 34.4375 10.59375 35.511719 L 10.59375 47.234375 C 10.59375 47.492188 10.804688 47.703125 11.058594 47.703125 C 11.316406 47.703125 11.527344 47.492188 11.527344 47.234375 L 11.527344 35.511719 C 11.527344 34.84375 11.953125 34.257812 12.585938 34.054688 L 16.246094 32.882812 L 18.664062 38.59375 C 18.714844 38.710938 18.804688 38.800781 18.921875 38.847656 C 19.035156 38.890625 19.167969 38.890625 19.28125 38.839844 L 20.679688 38.226562 L 19.582031 41.605469 C 19.527344 41.785156 19.578125 41.980469 19.722656 42.105469 L 26.644531 48.089844 C 26.664062 48.109375 26.683594 48.125 26.707031 48.136719 C 26.714844 48.140625 26.722656 48.144531 26.730469 48.148438 C 26.738281 48.15625 26.746094 48.160156 26.757812 48.164062 C 26.765625 48.167969 26.773438 48.171875 26.78125 48.171875 C 26.785156 48.175781 26.789062 48.179688 26.796875 48.179688 C 26.816406 48.1875 26.839844 48.195312 26.863281 48.199219 C 26.867188 48.199219 26.871094 48.199219 26.875 48.199219 C 26.902344 48.203125 26.925781 48.207031 26.949219 48.207031 C 26.976562 48.207031 27 48.203125 27.023438 48.199219 C 27.027344 48.199219 27.035156 48.199219 27.039062 48.199219 C 27.0625 48.195312 27.085938 48.1875 27.105469 48.179688 C 27.113281 48.179688 27.117188 48.175781 27.121094 48.171875 C 27.128906 48.171875 27.136719 48.167969 27.144531 48.164062 C 27.152344 48.160156 27.160156 48.15625 27.171875 48.148438 C 27.179688 48.144531 27.1875 48.140625 27.195312 48.136719 C 27.21875 48.125 27.238281 48.109375 27.257812 48.089844 L 34.179688 42.105469 C 34.320312 41.980469 34.375 41.785156 34.320312 41.605469 L 33.222656 38.226562 L 34.621094 38.839844 C 34.734375 38.890625 34.863281 38.890625 34.980469 38.847656 C 35.097656 38.800781 35.1875 38.710938 35.238281 38.59375 L 37.65625 32.882812 L 41.316406 34.054688 C 41.949219 34.257812 42.375 34.84375 42.375 35.511719 L 42.375 47.234375 C 42.375 47.492188 42.582031 47.703125 42.839844 47.703125 C 43.097656 47.703125 43.308594 47.492188 43.308594 47.234375 L 43.308594 35.511719 C 43.308594 34.4375 42.621094 33.496094 41.597656 33.167969 " fill-opacity="1" fill-rule="nonzero"/></g><path fill="#ece6da" d="M 26.949219 35.046875 C 26.691406 35.046875 26.484375 35.253906 26.484375 35.511719 L 26.484375 36.523438 C 26.484375 36.78125 26.691406 36.988281 26.949219 36.988281 C 27.207031 36.988281 27.417969 36.78125 27.417969 36.523438 L 27.417969 35.511719 C 27.417969 35.253906 27.207031 35.046875 26.949219 35.046875 " fill-opacity="1" fill-rule="nonzero"/><path fill="#ece6da" d="M 26.949219 39.636719 C 26.691406 39.636719 26.484375 39.84375 26.484375 40.101562 L 26.484375 41.113281 C 26.484375 41.371094 26.691406 41.578125 26.949219 41.578125 C 27.207031 41.578125 27.417969 41.371094 27.417969 41.113281 L 27.417969 40.101562 C 27.417969 39.84375 27.207031 39.636719 26.949219 39.636719 " fill-opacity="1" fill-rule="nonzero"/></svg>