<svg xmlns="http://www.w3.org/2000/svg" xmlns:xlink="http://www.w3.org/1999/xlink" width="200" zoomAndPan="magnify" viewBox="0 0 150 30.000001" height="40" preserveAspectRatio="xMidYMid meet" version="1.2"><defs><clipPath id="117108ebe0"><path d="M 119 17 L 139 17 L 139 27 L 119 27 Z M 119 17 "/></clipPath><clipPath id="e5d5ce4698"><path d="M 135.46875 34.03125 L 69.664062 16.75 L 74.875 -3.082031 L 140.675781 14.199219 Z M 135.46875 34.03125 "/></clipPath><clipPath id="9e6b5be14e"><path d="M 135.46875 34.03125 L 69.664062 16.75 L 74.875 -3.082031 L 140.675781 14.199219 Z M 135.46875 34.03125 "/></clipPath><clipPath id="0af2649bf0"><path d="M 132 19 L 138 19 L 138 21 L 132 21 Z M 132 19 "/></clipPath><clipPath id="2aa6b532fb"><path d="M 135.46875 34.03125 L 69.664062 16.75 L 74.875 -3.082031 L 140.675781 14.199219 Z M 135.46875 34.03125 "/></clipPath><clipPath id="b07b24f8b0"><path d="M 135.46875 34.03125 L 69.664062 16.75 L 74.875 -3.082031 L 140.675781 14.199219 Z M 135.46875 34.03125 "/></clipPath><clipPath id="3051e1d8e9"><path d="M 124 16 L 137 16 L 137 21 L 124 21 Z M 124 16 "/></clipPath><clipPath id="48fd5b7738"><path d="M 135.46875 34.03125 L 69.664062 16.75 L 74.875 -3.082031 L 140.675781 14.199219 Z M 135.46875 34.03125 "/></clipPath><clipPath id="58fa9cbe25"><path d="M 135.46875 34.03125 L 69.664062 16.75 L 74.875 -3.082031 L 140.675781 14.199219 Z M 135.46875 34.03125 "/></clipPath><clipPath id="3e9fb5d337"><path d="M 70 6 L 127 6 L 127 28 L 70 28 Z M 70 6 "/></clipPath><clipPath id="afe523e0be"><path d="M 135.46875 34.03125 L 69.664062 16.75 L 74.875 -3.082031 L 140.675781 14.199219 Z M 135.46875 34.03125 "/></clipPath><clipPath id="cb86ef13e1"><path d="M 135.46875 34.03125 L 69.664062 16.75 L 74.875 -3.082031 L 140.675781 14.199219 Z M 135.46875 34.03125 "/></clipPath><clipPath id="a2c5d64ba7"><path d="M 107 15 L 109 15 L 109 17 L 107 17 Z M 107 15 "/></clipPath><clipPath id="34f81d9bb1"><path d="M 135.46875 34.03125 L 69.664062 16.75 L 74.875 -3.082031 L 140.675781 14.199219 Z M 135.46875 34.03125 "/></clipPath><clipPath id="95e1451270"><path d="M 135.46875 34.03125 L 69.664062 16.75 L 74.875 -3.082031 L 140.675781 14.199219 Z M 135.46875 34.03125 "/></clipPath><clipPath id="388399afbb"><path d="M 96 15 L 98 15 L 98 17 L 96 17 Z M 96 15 "/></clipPath><clipPath id="282cde0cca"><path d="M 135.46875 34.03125 L 69.664062 16.75 L 74.875 -3.082031 L 140.675781 14.199219 Z M 135.46875 34.03125 "/></clipPath><clipPath id="d4525e27ec"><path d="M 135.46875 34.03125 L 69.664062 16.75 L 74.875 -3.082031 L 140.675781 14.199219 Z M 135.46875 34.03125 "/></clipPath><clipPath id="57fac94c5a"><path d="M 123 17 L 125 17 L 125 18 L 123 18 Z M 123 17 "/></clipPath><clipPath id="1d843870eb"><path d="M 135.46875 34.03125 L 69.664062 16.75 L 74.875 -3.082031 L 140.675781 14.199219 Z M 135.46875 34.03125 "/></clipPath><clipPath id="313930e227"><path d="M 135.46875 34.03125 L 69.664062 16.75 L 74.875 -3.082031 L 140.675781 14.199219 Z M 135.46875 34.03125 "/></clipPath><clipPath id="4e49cd682f"><path d="M 7 5 L 28 5 L 28 15 L 7 15 Z M 7 5 "/></clipPath><clipPath id="22cba51c83"><path d="M 10.777344 -2.78125 L 78.382812 14.976562 L 72.9375 35.707031 L 5.332031 17.953125 Z M 10.777344 -2.78125 "/></clipPath><clipPath id="dc907e13d9"><path d="M 10.777344 -2.78125 L 78.382812 14.976562 L 72.9375 35.707031 L 5.332031 17.953125 Z M 10.777344 -2.78125 "/></clipPath><clipPath id="43790645e9"><path d="M 8 10 L 14 10 L 14 13 L 8 13 Z M 8 10 "/></clipPath><clipPath id="c563bf2f48"><path d="M 10.777344 -2.78125 L 78.382812 14.976562 L 72.9375 35.707031 L 5.332031 17.953125 Z M 10.777344 -2.78125 "/></clipPath><clipPath id="43828eb47a"><path d="M 10.777344 -2.78125 L 78.382812 14.976562 L 72.9375 35.707031 L 5.332031 17.953125 Z M 10.777344 -2.78125 "/></clipPath><clipPath id="8cd21ce44f"><path d="M 9 11 L 22 11 L 22 16 L 9 16 Z M 9 11 "/></clipPath><clipPath id="77a037b1f1"><path d="M 10.777344 -2.78125 L 78.382812 14.976562 L 72.9375 35.707031 L 5.332031 17.953125 Z M 10.777344 -2.78125 "/></clipPath><clipPath id="4157ecc6f0"><path d="M 10.777344 -2.78125 L 78.382812 14.976562 L 72.9375 35.707031 L 5.332031 17.953125 Z M 10.777344 -2.78125 "/></clipPath><clipPath id="e2bffa8865"><path d="M 19 3 L 78 3 L 78 26 L 19 26 Z M 19 3 "/></clipPath><clipPath id="d8d9292f48"><path d="M 10.777344 -2.78125 L 78.382812 14.976562 L 72.9375 35.707031 L 5.332031 17.953125 Z M 10.777344 -2.78125 "/></clipPath><clipPath id="8b7687332c"><path d="M 10.777344 -2.78125 L 78.382812 14.976562 L 72.9375 35.707031 L 5.332031 17.953125 Z M 10.777344 -2.78125 "/></clipPath><clipPath id="7f9bc2dbbe"><path d="M 38 15 L 40 15 L 40 17 L 38 17 Z M 38 15 "/></clipPath><clipPath id="8f6c252a4c"><path d="M 10.777344 -2.78125 L 78.382812 14.976562 L 72.9375 35.707031 L 5.332031 17.953125 Z M 10.777344 -2.78125 "/></clipPath><clipPath id="7de110ce9c"><path d="M 10.777344 -2.78125 L 78.382812 14.976562 L 72.9375 35.707031 L 5.332031 17.953125 Z M 10.777344 -2.78125 "/></clipPath><clipPath id="c4366f85f8"><path d="M 49 14 L 51 14 L 51 16 L 49 16 Z M 49 14 "/></clipPath><clipPath id="648b6eb59e"><path d="M 10.777344 -2.78125 L 78.382812 14.976562 L 72.9375 35.707031 L 5.332031 17.953125 Z M 10.777344 -2.78125 "/></clipPath><clipPath id="0539fffe69"><path d="M 10.777344 -2.78125 L 78.382812 14.976562 L 72.9375 35.707031 L 5.332031 17.953125 Z M 10.777344 -2.78125 "/></clipPath><clipPath id="0a0c89ee6d"><path d="M 22 13 L 23 13 L 23 15 L 22 15 Z M 22 13 "/></clipPath><clipPath id="0a39600c11"><path d="M 10.777344 -2.78125 L 78.382812 14.976562 L 72.9375 35.707031 L 5.332031 17.953125 Z M 10.777344 -2.78125 "/></clipPath><clipPath id="7cfb238be2"><path d="M 10.777344 -2.78125 L 78.382812 14.976562 L 72.9375 35.707031 L 5.332031 17.953125 Z M 10.777344 -2.78125 "/></clipPath></defs><g id="c59b54f370"><g clip-rule="nonzero" clip-path="url(#117108ebe0)"><g clip-rule="nonzero" clip-path="url(#e5d5ce4698)"><g clip-rule="nonzero" clip-path="url(#9e6b5be14e)"><path style=" stroke:none;fill-rule:nonzero;fill:#ff6a04;fill-opacity:1;" d="M 130.632812 21.390625 C 129.273438 21.296875 127.921875 20.972656 126.773438 20.222656 C 126.230469 19.863281 125.734375 19.445312 125.199219 19.082031 C 124.671875 18.730469 124.121094 18.433594 123.539062 18.183594 C 122.222656 17.617188 120.847656 17.332031 119.414062 17.332031 C 119.402344 17.328125 119.296875 17.335938 119.320312 17.378906 C 119.546875 17.785156 119.824219 18.160156 120.152344 18.503906 C 120.191406 18.542969 120.234375 18.582031 120.277344 18.617188 C 120.539062 18.855469 120.820312 19.066406 121.125 19.25 C 121.488281 19.46875 121.871094 19.664062 122.238281 19.878906 C 122.675781 20.128906 123.097656 20.410156 123.507812 20.703125 C 125.140625 21.859375 126.597656 23.238281 128.199219 24.4375 C 129.105469 25.113281 130.089844 25.84375 131.214844 26.105469 C 131.234375 26.113281 131.417969 26.097656 131.351562 26.054688 C 129.757812 24.992188 128.878906 23.273438 127.683594 21.835938 C 127.382812 21.460938 127.039062 21.132812 126.644531 20.851562 C 126.21875 20.578125 125.765625 20.363281 125.28125 20.203125 C 124.265625 19.84375 123.214844 19.539062 122.164062 19.273438 C 121.597656 19.125 120.996094 19.015625 120.523438 18.636719 C 120.492188 18.613281 120.464844 18.585938 120.433594 18.5625 C 120.148438 18.296875 119.945312 17.980469 119.828125 17.609375 C 119.816406 17.570312 119.714844 17.566406 119.660156 17.585938 L 119.550781 17.410156 C 120.230469 17.421875 120.90625 17.5 121.574219 17.648438 C 121.492188 17.664062 121.414062 17.695312 121.347656 17.742188 C 121.28125 17.789062 121.226562 17.851562 121.1875 17.925781 C 121.148438 17.996094 121.128906 18.074219 121.128906 18.15625 C 121.125 18.238281 121.140625 18.320312 121.175781 18.394531 C 121.210938 18.46875 121.261719 18.535156 121.324219 18.585938 C 121.390625 18.640625 121.464844 18.675781 121.546875 18.695312 C 121.625 18.714844 121.707031 18.71875 121.789062 18.699219 C 121.871094 18.683594 121.945312 18.648438 122.011719 18.597656 C 122.078125 18.546875 122.128906 18.484375 122.164062 18.410156 C 122.199219 18.335938 122.21875 18.257812 122.214844 18.175781 C 122.214844 18.089844 122.195312 18.011719 122.15625 17.9375 C 122.121094 17.867188 122.066406 17.804688 122 17.753906 C 122.429688 17.867188 122.851562 18.007812 123.265625 18.179688 C 123.867188 18.425781 124.433594 18.730469 124.976562 19.085938 C 125.523438 19.449219 126.019531 19.875 126.574219 20.242188 C 128.757812 21.6875 131.5 21.570312 133.996094 21.371094 C 135.488281 21.25 136.988281 21.109375 138.492188 21.289062 C 138.519531 21.296875 138.679688 21.265625 138.585938 21.226562 L 137.640625 20.964844 C 137.832031 21.035156 138.019531 21.109375 138.210938 21.183594 C 135.679688 20.964844 133.164062 21.5625 130.632812 21.390625 Z M 121.371094 19.160156 C 121.886719 19.304688 122.402344 19.417969 122.914062 19.5625 C 123.46875 19.71875 124.019531 19.886719 124.5625 20.066406 C 125.074219 20.21875 125.566406 20.410156 126.046875 20.644531 C 126.515625 20.890625 126.929688 21.214844 127.28125 21.609375 C 127.925781 22.328125 128.441406 23.132812 129.011719 23.894531 C 129.585938 24.660156 130.203125 25.382812 130.976562 25.949219 C 130.101562 25.65625 129.308594 25.082031 128.574219 24.542969 C 127.78125 23.960938 127.027344 23.335938 126.273438 22.710938 C 125.519531 22.085938 124.78125 21.46875 124.003906 20.886719 C 123.253906 20.347656 122.476562 19.859375 121.667969 19.414062 C 121.472656 19.304688 121.273438 19.1875 121.082031 19.0625 C 121.171875 19.097656 121.269531 19.128906 121.371094 19.160156 Z M 121.371094 19.160156 "/></g></g></g><g clip-rule="nonzero" clip-path="url(#0af2649bf0)"><g clip-rule="nonzero" clip-path="url(#2aa6b532fb)"><g clip-rule="nonzero" clip-path="url(#b07b24f8b0)"><path style=" stroke:none;fill-rule:nonzero;fill:#ff6a04;fill-opacity:1;" d="M 135.492188 20.234375 C 134.515625 19.953125 133.527344 19.726562 132.527344 19.554688 L 137.636719 20.964844 C 136.929688 20.699219 136.214844 20.453125 135.492188 20.234375 Z M 135.492188 20.234375 "/></g></g></g><g clip-rule="nonzero" clip-path="url(#3051e1d8e9)"><g clip-rule="nonzero" clip-path="url(#48fd5b7738)"><g clip-rule="nonzero" clip-path="url(#58fa9cbe25)"><path style=" stroke:none;fill-rule:nonzero;fill:#ff6a04;fill-opacity:1;" d="M 124.640625 18.589844 C 124.597656 18.578125 124.402344 18.609375 124.5 18.640625 L 128.789062 19.980469 C 129.460938 20.1875 130.128906 20.421875 130.816406 20.570312 C 131.445312 20.699219 132.078125 20.722656 132.710938 20.644531 C 133.460938 20.570312 134.207031 20.402344 134.96875 20.417969 C 135.085938 20.421875 135.085938 20.347656 134.964844 20.347656 C 133.65625 20.320312 132.386719 20.78125 131.078125 20.535156 C 130.378906 20.40625 129.703125 20.167969 129.027344 19.957031 L 126.980469 19.316406 L 125.378906 18.816406 C 125.980469 18.875 126.605469 18.832031 127.199219 18.855469 C 128.125 18.886719 129.0625 18.882812 129.972656 19.074219 C 130.800781 19.246094 131.664062 19.390625 132.527344 19.550781 L 131.230469 19.195312 C 131.316406 19.203125 131.402344 19.191406 131.484375 19.167969 C 131.550781 19.15625 131.613281 19.140625 131.679688 19.117188 C 132.484375 18.917969 133.183594 18.433594 133.929688 18.09375 C 134.835938 17.699219 135.761719 17.355469 136.707031 17.058594 C 136.835938 17.015625 136.671875 16.953125 136.605469 16.96875 C 135.351562 17.253906 134.09375 17.519531 132.847656 17.835938 C 132.261719 17.980469 131.6875 18.164062 131.125 18.378906 C 130.597656 18.585938 130.074219 18.847656 129.492188 18.847656 C 129.402344 18.847656 129.378906 18.90625 129.425781 18.933594 C 128.902344 18.878906 128.382812 18.839844 127.863281 18.808594 C 127.363281 18.78125 126.867188 18.761719 126.367188 18.757812 C 125.789062 18.753906 125.199219 18.78125 124.640625 18.589844 Z M 132.832031 17.960938 C 133.753906 17.71875 134.691406 17.511719 135.621094 17.300781 C 135.058594 17.5 134.496094 17.707031 133.953125 17.945312 C 133.535156 18.128906 133.136719 18.339844 132.734375 18.550781 C 132.460938 18.703125 132.175781 18.832031 131.878906 18.9375 L 131.871094 18.925781 C 131.894531 18.917969 131.917969 18.910156 131.9375 18.902344 C 131.996094 18.878906 131.957031 18.832031 131.917969 18.820312 C 131.898438 18.8125 131.875 18.808594 131.851562 18.804688 L 131.988281 18.757812 C 132.0625 18.730469 132.039062 18.699219 131.992188 18.679688 C 132.015625 18.640625 131.90625 18.597656 131.847656 18.621094 L 131.839844 18.625 L 131.828125 18.621094 L 131.675781 18.667969 C 131.679688 18.652344 131.683594 18.644531 131.664062 18.636719 C 131.699219 18.601562 131.625 18.554688 131.566406 18.554688 L 131.59375 18.546875 C 131.65625 18.527344 131.652344 18.503906 131.621094 18.480469 C 131.667969 18.46875 131.675781 18.449219 131.664062 18.433594 L 131.707031 18.414062 C 131.796875 18.367188 131.660156 18.328125 131.585938 18.335938 C 132 18.199219 132.414062 18.070312 132.832031 17.960938 Z M 131.492188 18.375 L 131.335938 18.4375 Z M 130.597656 18.722656 Z M 130.417969 18.785156 C 130.398438 18.800781 130.410156 18.816406 130.421875 18.828125 L 130.261719 18.867188 L 130.246094 18.871094 L 130.199219 18.859375 C 130.183594 18.859375 130.164062 18.859375 130.148438 18.863281 L 130.136719 18.859375 C 130.234375 18.847656 130.324219 18.816406 130.417969 18.785156 Z M 130.417969 18.785156 "/></g></g></g><g clip-rule="nonzero" clip-path="url(#3e9fb5d337)"><g clip-rule="nonzero" clip-path="url(#afe523e0be)"><g clip-rule="nonzero" clip-path="url(#cb86ef13e1)"><path style=" stroke:none;fill-rule:nonzero;fill:#ff6a04;fill-opacity:1;" d="M 70.179688 16.296875 C 72.671875 16.277344 75.148438 16.082031 77.605469 15.707031 C 77.75 15.683594 77.730469 15.578125 77.628906 15.546875 C 78.183594 15.609375 78.699219 15.792969 79.164062 16.097656 C 79.792969 16.5 80.300781 17.046875 80.828125 17.558594 C 81.894531 18.59375 83.050781 19.570312 84.359375 20.292969 C 85.007812 20.660156 85.691406 20.941406 86.40625 21.144531 C 86.570312 21.1875 86.730469 21.230469 86.898438 21.265625 C 87.027344 21.292969 87.195312 21.34375 87.324219 21.289062 C 87.566406 21.179688 87.386719 20.765625 87.320312 20.589844 C 86.820312 19.246094 85.398438 18.601562 84.269531 17.859375 C 83.929688 17.609375 83.574219 17.386719 83.203125 17.1875 C 82.8125 17 82.410156 16.964844 81.988281 16.914062 C 81.109375 16.804688 80.394531 16.222656 79.523438 16.082031 C 79.496094 16.082031 79.472656 16.085938 79.449219 16.09375 C 79.316406 16 79.175781 15.914062 79.03125 15.835938 C 78.457031 15.53125 77.847656 15.382812 77.199219 15.390625 L 77.324219 15.363281 L 78.117188 15.21875 L 81.117188 14.929688 C 81.152344 14.929688 81.183594 14.917969 81.210938 14.894531 L 83.375 14.597656 C 83.992188 14.722656 84.707031 14.871094 84.835938 14.9375 C 84.832031 14.949219 84.828125 14.960938 84.863281 14.980469 L 84.921875 15.003906 C 84.925781 15.011719 84.933594 15.015625 84.9375 15.019531 C 85.265625 15.210938 85.582031 15.425781 85.886719 15.65625 L 85.898438 15.671875 C 86.171875 15.945312 86.476562 16.175781 86.8125 16.367188 L 86.890625 16.40625 C 86.964844 16.457031 87.039062 16.507812 87.113281 16.558594 C 87.898438 17.074219 88.785156 17.339844 89.65625 17.664062 C 90.59375 18.015625 91.515625 18.417969 92.429688 18.832031 C 92.875 19.03125 93.3125 19.246094 93.769531 19.425781 C 94.214844 19.589844 94.667969 19.714844 95.132812 19.804688 C 96.222656 20.03125 97.238281 20.503906 98.328125 20.730469 C 98.363281 20.738281 98.503906 20.707031 98.441406 20.648438 C 97.636719 19.914062 96.84375 19.15625 96.019531 18.445312 C 95.25 17.78125 94.429688 17.253906 93.445312 16.972656 C 92.941406 16.832031 92.425781 16.730469 91.917969 16.621094 C 91.375 16.503906 90.832031 16.390625 90.289062 16.292969 C 89.238281 16.085938 88.179688 15.96875 87.109375 15.929688 C 86.941406 15.9375 86.773438 15.917969 86.609375 15.878906 C 86.453125 15.820312 86.320312 15.734375 86.203125 15.617188 C 86.019531 15.429688 85.824219 15.257812 85.617188 15.09375 C 85.195312 14.796875 84.726562 14.617188 84.210938 14.558594 L 83.878906 14.523438 L 84.3125 14.464844 L 84.96875 14.417969 C 84.984375 14.425781 85.003906 14.425781 85.023438 14.425781 C 86.039062 14.4375 87.050781 14.386719 88.058594 14.28125 C 88.164062 14.269531 88.183594 14.21875 88.15625 14.179688 L 88.527344 14.175781 C 89.386719 14.339844 90.25 14.417969 91.121094 14.40625 C 92.25 14.5 93.375 14.558594 94.507812 14.578125 C 95.601562 14.691406 96.617188 15.027344 97.5625 15.589844 C 98.03125 15.859375 98.457031 16.183594 98.835938 16.5625 C 99.199219 16.953125 99.214844 17.445312 99.261719 17.941406 C 99.328125 18.449219 99.453125 18.941406 99.636719 19.417969 C 99.785156 19.90625 100 20.363281 100.277344 20.789062 C 100.863281 21.605469 101.832031 22 102.65625 22.53125 C 103.695312 23.195312 104.492188 24.144531 105.277344 25.078125 C 105.320312 25.132812 105.496094 25.117188 105.460938 25.023438 C 104.914062 23.652344 104.683594 22.199219 104.320312 20.78125 C 104.152344 20.132812 103.984375 19.449219 103.625 18.875 C 103.480469 18.632812 103.289062 18.421875 103.0625 18.253906 C 102.765625 18.0625 102.445312 17.929688 102.101562 17.855469 C 101.207031 17.621094 100.3125 17.386719 99.417969 17.152344 C 99.40625 17.148438 99.390625 17.148438 99.375 17.152344 C 99.324219 16.929688 99.226562 16.730469 99.078125 16.550781 C 98.71875 16.164062 98.304688 15.835938 97.84375 15.566406 C 97.101562 15.101562 96.300781 14.777344 95.441406 14.585938 C 95.691406 14.585938 95.941406 14.582031 96.1875 14.585938 L 96.34375 14.582031 C 96.585938 14.597656 96.828125 14.609375 97.074219 14.621094 C 97.875 14.695312 99.679688 14.730469 99.671875 14.71875 L 100.121094 14.742188 C 100.148438 14.761719 100.179688 14.769531 100.210938 14.765625 L 101.625 14.875 C 101.660156 14.894531 101.695312 14.902344 101.734375 14.902344 L 102.007812 14.921875 C 102.203125 14.972656 102.398438 15.023438 102.585938 15.09375 C 102.949219 15.222656 103.296875 15.375 103.636719 15.550781 C 105.34375 17.101562 107.078125 18.617188 108.882812 20.050781 C 109.355469 20.425781 109.832031 20.792969 110.308594 21.152344 C 110.773438 21.503906 111.261719 21.832031 111.691406 22.222656 C 112.503906 22.976562 112.960938 23.984375 113.628906 24.839844 C 114.132812 25.488281 114.730469 26.152344 114.976562 26.9375 L 115.089844 27.515625 C 115.101562 27.582031 115.292969 27.585938 115.289062 27.515625 C 115.273438 27.320312 115.238281 27.125 115.179688 26.9375 C 115.0625 26.332031 114.941406 25.722656 114.824219 25.113281 C 114.6875 24.410156 114.5625 23.691406 114.25 23.035156 C 113.730469 21.945312 112.804688 21.113281 111.894531 20.34375 C 111.425781 19.945312 110.949219 19.554688 110.496094 19.136719 C 110.402344 18.992188 110.300781 18.851562 110.191406 18.71875 C 109.496094 17.867188 108.542969 17.277344 107.511719 16.894531 C 106.878906 16.664062 106.226562 16.496094 105.554688 16.398438 C 105.527344 16.390625 105.421875 16.410156 105.429688 16.449219 C 105.144531 16.273438 104.855469 16.101562 104.566406 15.933594 C 104.3125 15.785156 104.058594 15.640625 103.796875 15.507812 L 103.574219 15.300781 C 103.511719 15.269531 103.453125 15.273438 103.394531 15.308594 C 103.300781 15.265625 103.203125 15.222656 103.105469 15.183594 C 102.917969 15.105469 102.726562 15.039062 102.527344 14.972656 L 104.140625 15.082031 C 104.363281 15.105469 104.585938 15.125 104.8125 15.148438 C 104.816406 15.175781 104.84375 15.199219 104.917969 15.207031 L 107.429688 15.527344 C 107.472656 15.601562 107.53125 15.660156 107.601562 15.707031 C 107.671875 15.753906 107.746094 15.78125 107.832031 15.792969 C 107.914062 15.800781 107.996094 15.792969 108.078125 15.765625 C 108.15625 15.738281 108.222656 15.695312 108.28125 15.636719 L 109.375 15.773438 C 109.414062 15.78125 109.457031 15.773438 109.492188 15.753906 L 109.570312 15.761719 C 109.558594 15.765625 109.550781 15.769531 109.542969 15.777344 L 109.519531 15.78125 C 109.398438 15.804688 109.554688 15.847656 109.597656 15.84375 L 109.757812 15.839844 C 110.277344 15.964844 110.71875 16.277344 111.1875 16.519531 C 111.589844 16.722656 112.011719 16.859375 112.453125 16.933594 C 112.855469 17 113.257812 17.011719 113.660156 16.964844 C 114.269531 17.507812 115.988281 17.878906 116.808594 17.929688 C 117.210938 17.957031 117.609375 17.921875 118 17.816406 C 118.40625 17.691406 118.808594 17.546875 119.199219 17.382812 C 119.636719 17.222656 120.085938 17.125 120.550781 17.097656 C 120.949219 17.066406 121.34375 16.988281 121.722656 16.867188 C 122.484375 16.621094 123.1875 16.238281 123.917969 15.925781 C 124.355469 15.738281 124.804688 15.589844 125.269531 15.480469 C 125.742188 15.371094 126.21875 15.261719 126.644531 15.015625 C 126.722656 14.96875 126.617188 14.929688 126.570312 14.925781 C 125.011719 14.816406 123.46875 15.078125 121.917969 15.1875 C 121.113281 15.246094 120.3125 15.238281 119.507812 15.171875 C 119.128906 15.128906 118.75 15.121094 118.371094 15.148438 C 118.28125 15.152344 118.191406 15.167969 118.101562 15.179688 C 118.496094 15.082031 118.882812 14.964844 119.261719 14.828125 C 119.722656 14.648438 120.167969 14.4375 120.597656 14.195312 C 121.609375 13.644531 122.542969 12.945312 123.464844 12.253906 C 123.523438 12.210938 123.371094 12.203125 123.351562 12.203125 C 122.894531 12.246094 122.449219 12.34375 122.015625 12.492188 C 121.558594 12.625 121.089844 12.722656 120.617188 12.789062 C 119.675781 12.929688 118.71875 12.972656 117.773438 13.078125 C 116.851562 13.179688 115.957031 13.386719 115.085938 13.695312 C 114.625 13.863281 114.160156 14.039062 113.703125 14.191406 C 113.246094 14.339844 112.777344 14.460938 112.316406 14.617188 C 111.847656 14.785156 111.390625 14.992188 110.953125 15.226562 C 110.585938 15.429688 110.203125 15.589844 109.800781 15.714844 L 109.699219 15.707031 L 109.5625 15.691406 C 109.574219 15.65625 109.550781 15.621094 109.460938 15.609375 L 108.394531 15.476562 C 108.410156 15.449219 108.417969 15.421875 108.425781 15.394531 C 108.46875 15.234375 108.441406 15.085938 108.34375 14.945312 C 108.246094 14.808594 108.109375 14.734375 107.941406 14.71875 C 107.769531 14.703125 107.625 14.757812 107.507812 14.875 C 107.386719 14.996094 107.339844 15.140625 107.355469 15.304688 C 106.6875 15.203125 106.023438 15.113281 105.355469 15.039062 C 105.328125 15.003906 105.296875 14.988281 105.253906 14.992188 L 102.035156 14.75 C 102 14.703125 101.953125 14.679688 101.894531 14.683594 L 101.183594 14.644531 C 100.210938 14.445312 99.234375 14.316406 98.246094 14.257812 L 98.035156 14.25 C 99.289062 14.046875 100.703125 13.820312 101.167969 13.824219 C 101.683594 13.847656 102.1875 13.800781 102.6875 13.679688 C 103.214844 13.53125 103.707031 13.289062 104.21875 13.101562 C 105.226562 12.734375 106.222656 12.328125 106.988281 11.558594 C 107.378906 11.167969 107.621094 10.691406 107.855469 10.195312 C 108.066406 9.71875 108.328125 9.277344 108.640625 8.859375 C 109.375 7.929688 110.351562 7.226562 111.308594 6.539062 C 111.363281 6.5 111.171875 6.484375 111.132812 6.503906 C 110.28125 7 109.371094 7.386719 108.5 7.84375 C 107.695312 8.273438 106.949219 8.785156 106.261719 9.382812 C 105.589844 9.957031 104.949219 10.570312 104.21875 11.074219 C 103.867188 11.324219 103.492188 11.53125 103.09375 11.707031 C 102.679688 11.878906 102.246094 11.992188 101.824219 12.140625 C 101.386719 12.277344 100.996094 12.496094 100.65625 12.800781 C 100.339844 13.101562 100.089844 13.425781 99.683594 13.621094 C 99.539062 13.683594 99.398438 13.753906 99.261719 13.835938 C 99.074219 13.863281 98.21875 14.0625 97.457031 14.242188 C 97.027344 14.246094 96.597656 14.265625 96.164062 14.277344 C 96.246094 14.25 96.316406 14.203125 96.375 14.140625 C 96.433594 14.078125 96.476562 14.003906 96.5 13.921875 C 96.519531 13.839844 96.523438 13.753906 96.507812 13.671875 C 96.488281 13.585938 96.453125 13.511719 96.398438 13.445312 C 96.34375 13.375 96.277344 13.324219 96.199219 13.289062 C 96.121094 13.25 96.035156 13.234375 95.949219 13.238281 C 95.863281 13.242188 95.78125 13.261719 95.703125 13.304688 C 95.628906 13.34375 95.566406 13.402344 95.519531 13.472656 C 95.46875 13.542969 95.441406 13.621094 95.429688 13.707031 C 95.417969 13.789062 95.429688 13.875 95.460938 13.953125 C 95.488281 14.035156 95.535156 14.105469 95.601562 14.164062 C 95.664062 14.222656 95.738281 14.265625 95.820312 14.289062 C 95.609375 14.292969 95.402344 14.300781 95.1875 14.300781 L 95.128906 14.292969 C 95.148438 14.253906 94.960938 14.152344 94.90625 14.148438 L 92.019531 14.039062 C 91.753906 13.996094 91.050781 13.96875 91.183594 13.996094 C 91.339844 14.027344 91.496094 14.050781 91.648438 14.078125 C 91.648438 14.082031 91.648438 14.085938 91.648438 14.089844 C 91.558594 14.085938 90.476562 13.988281 90.167969 13.976562 L 89.8125 13.945312 C 89.765625 13.941406 89.714844 13.945312 89.671875 13.957031 L 89.660156 13.953125 C 90.585938 13.480469 91.53125 13.03125 92.5625 12.789062 C 93.59375 12.542969 94.664062 12.4375 95.703125 12.191406 C 96.617188 11.972656 97.53125 11.640625 98.265625 11.042969 C 99.019531 10.433594 99.53125 9.601562 100.191406 8.902344 C 100.585938 8.503906 101.023438 8.164062 101.511719 7.882812 C 101.988281 7.613281 102.429688 7.296875 102.839844 6.933594 C 102.914062 6.863281 102.753906 6.808594 102.703125 6.832031 C 101.527344 7.390625 100.328125 7.882812 99.097656 8.304688 C 98.476562 8.519531 97.847656 8.714844 97.214844 8.890625 C 96.832031 8.996094 96.3125 9.144531 96.195312 9.558594 C 95.757812 9.421875 95.292969 9.585938 94.890625 9.761719 C 94.390625 9.980469 93.90625 10.234375 93.441406 10.515625 C 92.972656 10.800781 92.570312 11.15625 92.230469 11.578125 C 91.894531 12.035156 91.59375 12.515625 91.335938 13.019531 C 90.699219 13.269531 90.078125 13.554688 89.476562 13.871094 C 89.433594 13.894531 89.425781 13.921875 89.433594 13.945312 L 89.097656 13.9375 C 89.050781 13.929688 89.011719 13.941406 88.976562 13.96875 L 88.285156 13.902344 C 88.257812 13.898438 88.230469 13.898438 88.207031 13.90625 L 88 13.878906 C 87.910156 13.863281 87.738281 13.957031 87.828125 14.015625 L 86.289062 14.03125 C 86.214844 14.03125 86.171875 14.054688 86.152344 14.085938 L 85.929688 14.105469 L 85.78125 14.113281 C 84.941406 14.085938 84.101562 14.101562 83.265625 14.160156 C 83.222656 14.164062 83.109375 14.167969 83.074219 14.167969 C 82.300781 14.136719 81.542969 14.238281 80.804688 14.464844 C 80.796875 14.464844 80.785156 14.472656 80.777344 14.476562 L 80.464844 14.519531 C 81 14.183594 81.546875 13.855469 82.152344 13.691406 C 82.199219 13.699219 82.242188 13.703125 82.285156 13.691406 C 82.335938 13.667969 82.386719 13.644531 82.441406 13.625 C 82.582031 13.601562 82.722656 13.585938 82.863281 13.578125 C 83.621094 13.554688 84.4375 13.699219 85.117188 13.289062 C 85.464844 13.082031 85.726562 12.777344 86.019531 12.511719 C 86.320312 12.246094 86.644531 12.007812 86.992188 11.800781 C 87.679688 11.40625 88.398438 11.066406 89.140625 10.785156 C 89.980469 10.445312 90.828125 10.121094 91.625 9.6875 C 91.722656 9.632812 91.542969 9.601562 91.503906 9.613281 L 87.175781 10.699219 C 86.523438 10.863281 85.851562 11.007812 85.234375 11.273438 C 84.671875 11.523438 84.152344 11.839844 83.675781 12.226562 C 83.15625 12.652344 82.65625 13.101562 82.183594 13.582031 C 81.488281 13.746094 80.863281 14.121094 80.253906 14.503906 C 80.21875 14.523438 80.242188 14.539062 80.292969 14.554688 L 78.234375 14.839844 C 78.210938 14.835938 78.1875 14.832031 78.164062 14.835938 L 77.992188 14.875 L 76.9375 15.019531 C 76.894531 14.945312 76.828125 14.917969 76.746094 14.945312 L 74.101562 15.46875 C 73.941406 15.496094 73.5 15.640625 73.535156 15.679688 C 73.101562 15.742188 72.667969 15.800781 72.234375 15.859375 C 71.539062 15.949219 70.839844 16.039062 70.140625 16.128906 C 69.957031 16.148438 70.03125 16.296875 70.179688 16.296875 Z M 81.53125 16.972656 C 81.898438 17.070312 82.289062 17.054688 82.660156 17.140625 C 83.039062 17.253906 83.382812 17.425781 83.699219 17.664062 C 84.300781 18.070312 84.933594 18.433594 85.535156 18.84375 C 86.085938 19.214844 86.609375 19.660156 86.941406 20.242188 C 87.019531 20.375 87.082031 20.511719 87.136719 20.65625 C 87.171875 20.757812 87.308594 21.0625 87.234375 21.160156 C 87.160156 21.253906 86.8125 21.117188 86.714844 21.09375 C 86.53125 21.046875 86.347656 20.996094 86.164062 20.9375 C 85.472656 20.710938 84.8125 20.40625 84.1875 20.03125 C 82.9375 19.292969 81.839844 18.324219 80.808594 17.308594 L 80.429688 16.933594 C 80.988281 17.300781 81.578125 17.613281 82.199219 17.875 C 82.71875 18.097656 83.265625 18.261719 83.765625 18.519531 C 84.234375 18.765625 84.65625 19.074219 85.03125 19.441406 C 85.449219 19.847656 85.828125 20.289062 86.171875 20.757812 C 86.21875 20.824219 86.410156 20.78125 86.34375 20.695312 C 85.746094 19.886719 85.0625 19.109375 84.1875 18.582031 C 83.722656 18.324219 83.238281 18.109375 82.738281 17.9375 C 82.199219 17.734375 81.679688 17.492188 81.179688 17.210938 C 80.699219 16.9375 80.242188 16.628906 79.808594 16.289062 C 80.394531 16.464844 80.929688 16.816406 81.53125 16.96875 Z M 86.585938 15.996094 C 86.804688 16.035156 87.027344 16.054688 87.246094 16.046875 C 87.539062 16.058594 87.832031 16.074219 88.125 16.101562 C 88.667969 16.148438 89.207031 16.222656 89.738281 16.3125 C 90.796875 16.488281 91.851562 16.707031 92.890625 16.953125 C 93.402344 17.066406 93.894531 17.234375 94.363281 17.460938 C 94.824219 17.703125 95.25 17.996094 95.644531 18.332031 C 96.503906 19.039062 97.304688 19.816406 98.121094 20.570312 C 97.257812 20.355469 96.441406 19.992188 95.574219 19.792969 C 95.085938 19.699219 94.601562 19.578125 94.125 19.433594 C 93.65625 19.265625 93.207031 19.054688 92.757812 18.84375 C 91.886719 18.449219 91.011719 18.066406 90.128906 17.71875 C 89.28125 17.390625 88.382812 17.144531 87.589844 16.691406 C 88.121094 16.84375 88.664062 16.9375 89.210938 16.980469 C 90.132812 17.0625 91.074219 17.074219 91.964844 17.339844 C 92.855469 17.609375 93.507812 18.183594 94.230469 18.714844 C 95.042969 19.320312 95.957031 19.667969 96.917969 19.988281 C 96.996094 20.007812 97.144531 19.9375 97.019531 19.894531 C 96.128906 19.597656 95.261719 19.285156 94.496094 18.730469 C 93.824219 18.246094 93.207031 17.683594 92.425781 17.367188 C 90.742188 16.703125 88.824219 17.152344 87.171875 16.398438 C 87.128906 16.378906 87.085938 16.359375 87.046875 16.335938 C 86.886719 16.226562 86.730469 16.109375 86.574219 15.992188 Z M 104.140625 22.761719 C 103.707031 22.488281 103.394531 22.113281 103.207031 21.636719 C 103.027344 21.167969 103.082031 20.648438 102.8125 20.210938 C 102.34375 19.449219 101.390625 19.140625 100.710938 18.609375 C 100.257812 18.25 99.878906 17.828125 99.574219 17.34375 L 101.667969 17.894531 C 102.035156 17.992188 102.421875 18.0625 102.757812 18.246094 C 103.046875 18.414062 103.273438 18.640625 103.445312 18.921875 C 103.789062 19.46875 103.953125 20.121094 104.113281 20.734375 C 104.289062 21.414062 104.429688 22.097656 104.59375 22.773438 C 104.730469 23.382812 104.898438 23.988281 105.101562 24.582031 C 104.511719 23.890625 103.898438 23.21875 103.164062 22.675781 C 102.332031 22.0625 101.277344 21.699219 100.601562 20.894531 C 100.242188 20.46875 100.042969 19.949219 99.859375 19.4375 C 99.660156 18.921875 99.527344 18.390625 99.460938 17.84375 C 99.449219 17.714844 99.4375 17.582031 99.425781 17.453125 C 99.664062 17.828125 99.945312 18.164062 100.273438 18.46875 C 100.652344 18.792969 101.058594 19.074219 101.496094 19.320312 C 101.886719 19.558594 102.292969 19.804688 102.5625 20.179688 C 102.882812 20.621094 102.816406 21.167969 103.007812 21.660156 C 103.203125 22.167969 103.535156 22.566406 104 22.859375 C 104.078125 22.910156 104.246094 22.828125 104.140625 22.761719 Z M 106.070312 17.007812 C 106.457031 17.296875 106.863281 17.550781 107.292969 17.769531 C 107.347656 17.796875 107.535156 17.757812 107.433594 17.699219 L 106.277344 16.984375 C 106.089844 16.84375 105.910156 16.695312 105.734375 16.542969 C 107.414062 16.84375 109.101562 17.574219 110.117188 18.921875 C 110.082031 18.929688 110.058594 18.945312 110.078125 18.96875 C 110.636719 19.691406 110.941406 20.503906 110.996094 21.40625 C 111 21.476562 111.199219 21.476562 111.199219 21.40625 C 111.191406 20.761719 111.039062 20.152344 110.738281 19.578125 C 111.441406 20.1875 112.183594 20.757812 112.839844 21.421875 C 113.273438 21.847656 113.640625 22.324219 113.9375 22.851562 C 114.28125 23.488281 114.429688 24.167969 114.566406 24.863281 C 114.652344 25.304688 114.738281 25.746094 114.824219 26.183594 C 114.597656 25.824219 114.351562 25.480469 114.078125 25.152344 C 113.765625 24.761719 113.46875 24.359375 113.195312 23.9375 C 112.917969 23.46875 112.609375 23.023438 112.265625 22.601562 C 111.863281 22.175781 111.421875 21.796875 110.9375 21.46875 C 110.445312 21.105469 109.960938 20.734375 109.480469 20.359375 C 108.515625 19.605469 107.570312 18.832031 106.648438 18.035156 C 105.824219 17.328125 105.011719 16.609375 104.207031 15.882812 C 104.835938 16.242188 105.453125 16.625 106.074219 17.011719 Z M 110.152344 15.875 L 110.074219 15.855469 L 110.242188 15.863281 C 110.214844 15.855469 110.183594 15.863281 110.152344 15.875 Z M 118.46875 15.25 C 118.871094 15.234375 119.269531 15.25 119.671875 15.292969 C 121.125 15.417969 122.558594 15.234375 124.003906 15.105469 C 124.777344 15.023438 125.554688 14.996094 126.335938 15.023438 C 125.667969 15.363281 124.878906 15.425781 124.179688 15.6875 C 123.457031 15.960938 122.777344 16.335938 122.054688 16.617188 C 121.691406 16.765625 121.320312 16.875 120.933594 16.949219 C 120.535156 17.015625 120.125 17.003906 119.730469 17.09375 C 118.9375 17.28125 118.230469 17.730469 117.410156 17.820312 C 116.484375 17.917969 114.789062 17.507812 114.03125 16.90625 C 114.363281 16.839844 114.683594 16.726562 114.984375 16.574219 C 115.113281 16.507812 115.242188 16.433594 115.363281 16.351562 C 115.394531 16.367188 115.421875 16.375 115.457031 16.375 C 116.574219 16.40625 117.691406 16.371094 118.800781 16.265625 C 119.355469 16.214844 119.902344 16.121094 120.457031 16.066406 C 120.757812 16.042969 121.054688 16.058594 121.351562 16.109375 C 121.578125 16.144531 121.800781 16.136719 122.023438 16.082031 C 122.304688 15.992188 122.582031 15.886719 122.851562 15.761719 L 123.8125 15.367188 C 123.855469 15.347656 123.835938 15.316406 123.808594 15.292969 C 123.761719 15.269531 123.714844 15.269531 123.671875 15.292969 C 123.144531 15.507812 122.621094 15.746094 122.085938 15.933594 C 121.816406 16.027344 121.539062 16.046875 121.253906 15.988281 C 121.011719 15.949219 120.769531 15.9375 120.527344 15.957031 C 119.996094 15.996094 119.46875 16.09375 118.945312 16.152344 C 118.417969 16.207031 117.847656 16.246094 117.296875 16.265625 C 116.75 16.285156 116.167969 16.292969 115.605469 16.28125 C 115.667969 16.191406 115.742188 16.113281 115.828125 16.046875 C 115.90625 15.992188 115.992188 15.941406 116.074219 15.890625 C 116.164062 15.84375 116.253906 15.804688 116.347656 15.769531 C 116.667969 15.648438 117.003906 15.554688 117.339844 15.464844 C 117.707031 15.355469 118.085938 15.28125 118.46875 15.246094 Z M 112.011719 14.835938 C 112.460938 14.660156 112.917969 14.507812 113.382812 14.378906 C 113.851562 14.242188 114.3125 14.085938 114.773438 13.914062 C 115.230469 13.746094 115.695312 13.574219 116.164062 13.445312 C 116.617188 13.328125 117.078125 13.238281 117.542969 13.179688 C 118.46875 13.058594 119.402344 13.015625 120.324219 12.902344 C 120.824219 12.847656 121.3125 12.761719 121.796875 12.640625 C 122.265625 12.523438 122.726562 12.347656 123.207031 12.289062 C 121.660156 13.441406 120.078125 14.578125 118.171875 15.082031 C 117.710938 15.203125 117.242188 15.304688 116.789062 15.457031 C 116.605469 15.519531 116.425781 15.589844 116.25 15.675781 C 116.214844 15.691406 116.175781 15.703125 116.144531 15.714844 C 115.921875 15.800781 115.722656 15.921875 115.550781 16.078125 L 115.5 16.109375 C 115.105469 16.40625 114.675781 16.628906 114.207031 16.785156 C 114.125 16.808594 114.039062 16.832031 113.953125 16.855469 C 113.917969 16.828125 113.785156 16.859375 113.707031 16.898438 C 113.410156 16.941406 113.109375 16.949219 112.808594 16.917969 C 112.265625 16.863281 111.753906 16.707031 111.273438 16.449219 C 110.949219 16.277344 110.636719 16.082031 110.300781 15.9375 L 110.746094 15.894531 C 111.019531 15.921875 111.289062 15.953125 111.566406 15.960938 C 112.113281 15.984375 112.652344 15.929688 113.183594 15.800781 C 114.285156 15.546875 115.308594 15.035156 116.308594 14.527344 C 116.371094 14.496094 116.179688 14.484375 116.152344 14.488281 C 115.195312 14.761719 114.234375 15.007812 113.265625 15.230469 C 113.214844 15.214844 113.160156 15.210938 113.109375 15.214844 C 113.101562 15.21875 113.097656 15.222656 113.09375 15.222656 C 113.023438 15.25 112.953125 15.28125 112.886719 15.316406 C 112.160156 15.480469 111.433594 15.628906 110.699219 15.765625 C 110.476562 15.761719 110.25 15.75 110.027344 15.726562 C 110.722656 15.515625 111.339844 15.113281 112.011719 14.832031 Z M 113.300781 15.394531 C 113.34375 15.371094 113.382812 15.351562 113.425781 15.328125 C 113.464844 15.304688 113.425781 15.300781 113.382812 15.292969 C 114.183594 15.109375 114.976562 14.90625 115.769531 14.691406 C 114.890625 15.128906 113.992188 15.550781 113.03125 15.765625 C 112.839844 15.808594 112.644531 15.84375 112.449219 15.863281 C 112.75 15.75 113.035156 15.601562 113.300781 15.417969 C 113.3125 15.402344 113.3125 15.394531 113.304688 15.390625 Z M 112.589844 15.503906 C 112.570312 15.5 112.546875 15.5 112.527344 15.503906 L 112.398438 15.542969 L 112.371094 15.546875 C 112.351562 15.542969 112.328125 15.542969 112.304688 15.546875 L 111.585938 15.730469 C 111.578125 15.730469 111.570312 15.734375 111.5625 15.742188 C 111.417969 15.757812 111.269531 15.765625 111.121094 15.769531 C 111.636719 15.671875 112.148438 15.566406 112.660156 15.457031 C 112.636719 15.464844 112.605469 15.480469 112.589844 15.5 Z M 112.273438 15.746094 Z M 112.132812 15.890625 C 111.851562 15.910156 111.566406 15.90625 111.285156 15.882812 L 111.136719 15.871094 L 111.324219 15.855469 C 111.351562 15.863281 111.375 15.867188 111.398438 15.867188 L 111.582031 15.851562 C 111.625 15.875 111.671875 15.882812 111.722656 15.878906 L 111.855469 15.855469 C 111.882812 15.867188 111.910156 15.875 111.941406 15.878906 C 112 15.875 112.054688 15.875 112.113281 15.867188 C 112.125 15.875 112.136719 15.878906 112.152344 15.878906 C 112.136719 15.878906 112.136719 15.882812 112.136719 15.886719 Z M 100.230469 14.59375 L 99.597656 14.554688 C 99.609375 14.535156 99.609375 14.515625 99.597656 14.5 C 99.8125 14.523438 100.023438 14.554688 100.234375 14.585938 Z M 99.195312 14.445312 L 98.695312 14.453125 C 98.703125 14.4375 98.703125 14.421875 98.695312 14.402344 C 98.867188 14.414062 99.035156 14.421875 99.199219 14.441406 Z M 100.210938 13.644531 C 100.558594 13.574219 100.898438 13.492188 101.230469 13.40625 C 101.894531 13.226562 102.542969 13.007812 103.175781 12.742188 C 104.277344 12.285156 105.453125 11.746094 106.210938 10.808594 C 106.667969 10.238281 107.117188 9.683594 107.6875 9.21875 C 107.707031 9.203125 107.539062 9.164062 107.492188 9.203125 C 107.015625 9.597656 106.589844 10.042969 106.214844 10.535156 C 106.035156 10.78125 105.835938 11.015625 105.617188 11.230469 C 105.386719 11.441406 105.136719 11.625 104.867188 11.78125 C 103.84375 12.386719 102.757812 12.863281 101.613281 13.210938 C 101.078125 13.375 100.535156 13.507812 99.984375 13.613281 C 100.222656 13.457031 100.429688 13.273438 100.613281 13.0625 C 100.914062 12.726562 101.269531 12.46875 101.6875 12.285156 C 102.09375 12.121094 102.523438 12.007812 102.941406 11.863281 C 103.335938 11.71875 103.714844 11.535156 104.074219 11.3125 C 104.8125 10.855469 105.460938 10.273438 106.101562 9.703125 C 106.78125 9.082031 107.519531 8.535156 108.316406 8.066406 C 109.015625 7.671875 109.757812 7.34375 110.472656 6.980469 C 109.875 7.410156 109.320312 7.894531 108.808594 8.425781 C 108.460938 8.792969 108.164062 9.199219 107.921875 9.640625 C 107.667969 10.121094 107.484375 10.621094 107.179688 11.070312 C 106.570312 11.976562 105.523438 12.527344 104.515625 12.898438 C 104.003906 13.085938 103.5 13.292969 102.988281 13.484375 C 102.441406 13.683594 101.875 13.777344 101.289062 13.765625 C 100.703125 13.765625 100.117188 13.761719 99.535156 13.804688 C 99.761719 13.746094 99.988281 13.6875 100.214844 13.640625 Z M 97.597656 14.339844 C 97.796875 14.339844 97.992188 14.347656 98.191406 14.359375 L 97.957031 14.371094 C 97.691406 14.378906 97.425781 14.386719 97.160156 14.386719 L 97.4375 14.34375 Z M 96.820312 14.390625 C 96.628906 14.390625 96.4375 14.390625 96.246094 14.386719 L 96.101562 14.375 C 96.394531 14.367188 96.6875 14.355469 96.980469 14.351562 Z M 93.089844 14.347656 C 93.09375 14.355469 93.097656 14.359375 93.101562 14.367188 L 92.617188 14.34375 C 92.597656 14.335938 92.578125 14.328125 92.558594 14.328125 L 92.4375 14.3125 C 92.664062 14.324219 92.878906 14.339844 93.097656 14.347656 Z M 92.34375 11.726562 C 92.648438 11.324219 93.011719 10.984375 93.433594 10.707031 C 93.847656 10.441406 94.277344 10.207031 94.730469 10.003906 C 95.175781 9.792969 95.722656 9.492188 96.222656 9.726562 C 96.273438 9.75 96.367188 9.730469 96.375 9.664062 C 96.398438 9.382812 96.65625 9.234375 96.898438 9.140625 C 97.167969 9.03125 97.460938 8.96875 97.742188 8.886719 C 98.308594 8.71875 98.871094 8.539062 99.429688 8.339844 C 100.375 8.011719 101.304688 7.632812 102.214844 7.222656 C 101.582031 7.683594 100.859375 8.023438 100.285156 8.558594 C 99.589844 9.203125 99.09375 10.019531 98.414062 10.679688 C 96.914062 12.132812 94.683594 12.171875 92.742188 12.59375 C 92.4375 12.660156 92.136719 12.742188 91.835938 12.839844 C 92.246094 12.546875 92.675781 12.296875 93.136719 12.089844 C 93.691406 11.835938 94.28125 11.679688 94.855469 11.472656 C 95.125 11.378906 95.386719 11.265625 95.632812 11.132812 C 95.894531 10.972656 96.136719 10.789062 96.363281 10.582031 C 96.84375 10.171875 97.449219 10.035156 98.027344 9.808594 C 98.671875 9.558594 99.253906 9.207031 99.777344 8.757812 C 99.871094 8.679688 99.707031 8.59375 99.632812 8.65625 C 99.152344 9.070312 98.621094 9.398438 98.03125 9.644531 C 97.484375 9.867188 96.882812 9.988281 96.398438 10.335938 C 96.148438 10.519531 95.9375 10.746094 95.675781 10.917969 C 95.414062 11.082031 95.140625 11.214844 94.851562 11.316406 C 94.285156 11.53125 93.695312 11.679688 93.136719 11.921875 C 92.632812 12.144531 92.15625 12.417969 91.710938 12.738281 C 91.902344 12.386719 92.113281 12.046875 92.351562 11.726562 Z M 85.160156 11.425781 C 85.777344 11.132812 86.445312 10.984375 87.105469 10.820312 L 89.21875 10.285156 L 91.070312 9.8125 C 89.761719 10.460938 88.335938 10.871094 87.0625 11.589844 C 86.730469 11.777344 86.414062 11.988281 86.113281 12.222656 C 85.796875 12.476562 85.527344 12.78125 85.214844 13.039062 C 84.859375 13.324219 84.449219 13.472656 83.984375 13.480469 C 83.609375 13.496094 83.238281 13.464844 82.863281 13.476562 C 83.136719 13.402344 83.421875 13.34375 83.703125 13.289062 C 84.164062 13.199219 84.605469 13.050781 85.027344 12.851562 C 85.875 12.433594 86.578125 11.796875 87.394531 11.328125 C 87.492188 11.273438 87.308594 11.226562 87.253906 11.257812 C 86.433594 11.726562 85.738281 12.363281 84.894531 12.789062 C 84.144531 13.164062 83.292969 13.21875 82.507812 13.488281 C 83.304688 12.699219 84.140625 11.910156 85.167969 11.429688 Z M 75.792969 15.609375 C 75.824219 15.621094 75.859375 15.621094 75.890625 15.617188 L 76.363281 15.535156 C 76.386719 15.539062 76.40625 15.539062 76.429688 15.535156 C 76.535156 15.523438 76.636719 15.503906 76.742188 15.480469 C 76.769531 15.523438 76.808594 15.539062 76.855469 15.535156 C 77.089844 15.507812 77.320312 15.507812 77.554688 15.53125 L 75.574219 15.648438 C 75.648438 15.640625 75.722656 15.628906 75.800781 15.613281 Z M 75.199219 15.617188 C 75.222656 15.644531 75.25 15.660156 75.285156 15.667969 L 74.535156 15.714844 C 74.761719 15.679688 74.988281 15.648438 75.207031 15.621094 Z M 72.679688 15.96875 C 72.710938 15.984375 72.742188 15.992188 72.777344 15.988281 L 75.003906 15.855469 C 73.957031 15.964844 72.902344 16.039062 71.84375 16.082031 Z M 72.679688 15.96875 "/></g></g></g><g clip-rule="nonzero" clip-path="url(#a2c5d64ba7)"><g clip-rule="nonzero" clip-path="url(#34f81d9bb1)"><g clip-rule="nonzero" clip-path="url(#95e1451270)"><path style=" stroke:none;fill-rule:nonzero;fill:#ff6a04;fill-opacity:1;" d="M 107.65625 16.175781 C 107.617188 16.316406 107.636719 16.453125 107.714844 16.582031 C 107.792969 16.710938 107.902344 16.792969 108.046875 16.832031 C 108.195312 16.871094 108.332031 16.851562 108.460938 16.777344 C 108.589844 16.703125 108.675781 16.597656 108.714844 16.453125 C 108.75 16.308594 108.730469 16.171875 108.65625 16.046875 C 108.578125 15.917969 108.464844 15.832031 108.320312 15.796875 C 108.175781 15.757812 108.035156 15.773438 107.90625 15.847656 C 107.777344 15.921875 107.691406 16.03125 107.65625 16.175781 Z M 107.65625 16.175781 "/></g></g></g><g clip-rule="nonzero" clip-path="url(#388399afbb)"><g clip-rule="nonzero" clip-path="url(#282cde0cca)"><g clip-rule="nonzero" clip-path="url(#d4525e27ec)"><path style=" stroke:none;fill-rule:nonzero;fill:#ff6a04;fill-opacity:1;" d="M 97.027344 15.921875 C 96.882812 15.882812 96.742188 15.902344 96.613281 15.976562 C 96.484375 16.050781 96.398438 16.160156 96.363281 16.300781 C 96.324219 16.445312 96.34375 16.582031 96.421875 16.710938 C 96.496094 16.835938 96.609375 16.921875 96.753906 16.960938 C 96.902344 16.996094 97.039062 16.980469 97.167969 16.90625 C 97.296875 16.832031 97.382812 16.722656 97.417969 16.578125 C 97.457031 16.4375 97.4375 16.300781 97.359375 16.171875 C 97.285156 16.042969 97.171875 15.960938 97.027344 15.921875 Z M 97.027344 15.921875 "/></g></g></g><g clip-rule="nonzero" clip-path="url(#57fac94c5a)"><g clip-rule="nonzero" clip-path="url(#1d843870eb)"><g clip-rule="nonzero" clip-path="url(#313930e227)"><path style=" stroke:none;fill-rule:nonzero;fill:#ff6a04;fill-opacity:1;" d="M 123.886719 17.910156 C 123.960938 17.929688 124.027344 17.921875 124.089844 17.882812 C 124.15625 17.847656 124.195312 17.792969 124.214844 17.722656 C 124.234375 17.652344 124.222656 17.585938 124.1875 17.523438 C 124.148438 17.460938 124.09375 17.417969 124.019531 17.398438 C 123.949219 17.382812 123.882812 17.390625 123.816406 17.425781 C 123.753906 17.464844 123.710938 17.515625 123.695312 17.585938 C 123.675781 17.65625 123.683594 17.726562 123.722656 17.789062 C 123.761719 17.851562 123.816406 17.890625 123.886719 17.910156 Z M 123.886719 17.910156 "/></g></g></g><g clip-rule="nonzero" clip-path="url(#4e49cd682f)"><g clip-rule="nonzero" clip-path="url(#22cba51c83)"><g clip-rule="nonzero" clip-path="url(#dc907e13d9)"><path style=" stroke:none;fill-rule:nonzero;fill:#ff6a04;fill-opacity:1;" d="M 15.691406 10.398438 C 17.085938 10.488281 18.472656 10.820312 19.648438 11.601562 C 20.203125 11.96875 20.707031 12.40625 21.257812 12.78125 C 21.796875 13.144531 22.363281 13.453125 22.957031 13.710938 C 24.308594 14.296875 25.71875 14.585938 27.1875 14.582031 C 27.203125 14.585938 27.3125 14.574219 27.285156 14.53125 C 27.054688 14.105469 26.769531 13.714844 26.4375 13.363281 C 26.394531 13.320312 26.351562 13.28125 26.308594 13.242188 C 26.042969 12.992188 25.753906 12.773438 25.441406 12.585938 C 25.070312 12.359375 24.679688 12.15625 24.300781 11.933594 C 23.855469 11.675781 23.425781 11.382812 23.003906 11.082031 C 21.332031 9.882812 19.84375 8.449219 18.203125 7.203125 C 17.277344 6.5 16.269531 5.746094 15.117188 5.476562 C 15.097656 5.472656 14.910156 5.484375 14.976562 5.53125 C 16.609375 6.632812 17.5 8.421875 18.71875 9.917969 C 19.027344 10.308594 19.378906 10.648438 19.785156 10.941406 C 20.21875 11.222656 20.683594 11.445312 21.175781 11.609375 C 22.222656 11.980469 23.296875 12.296875 24.375 12.566406 C 24.957031 12.71875 25.570312 12.832031 26.054688 13.222656 C 26.085938 13.246094 26.117188 13.277344 26.148438 13.300781 C 26.4375 13.578125 26.644531 13.90625 26.765625 14.289062 C 26.777344 14.335938 26.882812 14.335938 26.9375 14.316406 L 27.050781 14.5 C 26.351562 14.492188 25.65625 14.410156 24.972656 14.261719 C 25.058594 14.246094 25.136719 14.210938 25.207031 14.160156 C 25.273438 14.109375 25.328125 14.046875 25.371094 13.96875 C 25.410156 13.894531 25.433594 13.8125 25.433594 13.726562 C 25.4375 13.640625 25.421875 13.558594 25.386719 13.480469 C 25.351562 13.402344 25.300781 13.335938 25.234375 13.28125 C 25.167969 13.222656 25.089844 13.1875 25.007812 13.167969 C 24.925781 13.144531 24.839844 13.144531 24.753906 13.164062 C 24.671875 13.183594 24.597656 13.21875 24.527344 13.273438 C 24.460938 13.324219 24.410156 13.390625 24.371094 13.46875 C 24.335938 13.546875 24.316406 13.628906 24.316406 13.714844 C 24.316406 13.800781 24.335938 13.882812 24.375 13.960938 C 24.414062 14.035156 24.46875 14.101562 24.535156 14.152344 C 24.09375 14.035156 23.660156 13.890625 23.238281 13.714844 C 22.625 13.460938 22.039062 13.144531 21.488281 12.773438 C 20.925781 12.398438 20.417969 11.957031 19.851562 11.578125 C 17.617188 10.078125 14.800781 10.210938 12.238281 10.433594 C 10.703125 10.566406 9.164062 10.71875 7.621094 10.542969 C 7.59375 10.535156 7.425781 10.570312 7.523438 10.609375 L 8.492188 10.875 C 8.296875 10.800781 8.105469 10.726562 7.910156 10.648438 C 10.507812 10.867188 13.09375 10.230469 15.691406 10.398438 Z M 25.1875 12.683594 C 24.660156 12.53125 24.128906 12.414062 23.605469 12.265625 C 23.035156 12.109375 22.472656 11.9375 21.914062 11.75 C 21.390625 11.59375 20.886719 11.394531 20.394531 11.15625 C 19.914062 10.898438 19.492188 10.5625 19.132812 10.152344 C 18.472656 9.40625 17.949219 8.566406 17.367188 7.773438 C 16.785156 6.980469 16.152344 6.226562 15.359375 5.640625 C 16.257812 5.941406 17.066406 6.535156 17.820312 7.09375 C 18.628906 7.699219 19.402344 8.351562 20.171875 8.996094 C 20.945312 9.644531 21.699219 10.289062 22.496094 10.890625 C 23.261719 11.449219 24.058594 11.957031 24.882812 12.414062 C 25.085938 12.53125 25.289062 12.648438 25.484375 12.78125 C 25.394531 12.746094 25.292969 12.710938 25.1875 12.683594 Z M 25.1875 12.683594 "/></g></g></g><g clip-rule="nonzero" clip-path="url(#43790645e9)"><g clip-rule="nonzero" clip-path="url(#c563bf2f48)"><g clip-rule="nonzero" clip-path="url(#43828eb47a)"><path style=" stroke:none;fill-rule:nonzero;fill:#ff6a04;fill-opacity:1;" d="M 10.695312 11.628906 C 11.695312 11.917969 12.710938 12.148438 13.738281 12.324219 L 8.496094 10.875 C 9.21875 11.152344 9.953125 11.402344 10.695312 11.628906 Z M 10.695312 11.628906 "/></g></g></g><g clip-rule="nonzero" clip-path="url(#8cd21ce44f)"><g clip-rule="nonzero" clip-path="url(#77a037b1f1)"><g clip-rule="nonzero" clip-path="url(#4157ecc6f0)"><path style=" stroke:none;fill-rule:nonzero;fill:#ff6a04;fill-opacity:1;" d="M 21.828125 13.292969 C 21.875 13.304688 22.074219 13.273438 21.972656 13.238281 L 17.574219 11.863281 C 16.886719 11.648438 16.203125 11.40625 15.496094 11.253906 C 14.851562 11.125 14.203125 11.101562 13.550781 11.1875 C 12.78125 11.269531 12.015625 11.445312 11.234375 11.433594 C 11.113281 11.433594 11.113281 11.507812 11.234375 11.507812 C 12.578125 11.53125 13.886719 11.042969 15.230469 11.292969 C 15.945312 11.421875 16.636719 11.671875 17.332031 11.886719 L 19.433594 12.542969 L 21.074219 13.058594 C 20.453125 13 19.816406 13.046875 19.203125 13.027344 C 18.253906 13 17.289062 13.007812 16.355469 12.8125 C 15.507812 12.636719 14.621094 12.488281 13.738281 12.328125 L 15.066406 12.695312 C 14.976562 12.6875 14.890625 12.695312 14.804688 12.722656 C 14.738281 12.734375 14.671875 12.75 14.605469 12.777344 C 13.777344 12.984375 13.054688 13.5 12.289062 13.855469 C 11.355469 14.273438 10.402344 14.636719 9.433594 14.953125 C 9.300781 14.996094 9.46875 15.0625 9.539062 15.046875 C 10.824219 14.738281 12.117188 14.457031 13.398438 14.117188 C 14 13.964844 14.59375 13.773438 15.171875 13.542969 C 15.710938 13.324219 16.253906 13.050781 16.847656 13.046875 C 16.941406 13.046875 16.964844 12.988281 16.917969 12.957031 C 17.453125 13.011719 17.988281 13.050781 18.523438 13.078125 C 19.035156 13.105469 19.546875 13.121094 20.058594 13.125 C 20.652344 13.128906 21.257812 13.097656 21.828125 13.292969 Z M 13.417969 13.992188 C 12.46875 14.246094 11.503906 14.46875 10.546875 14.691406 C 11.125 14.480469 11.703125 14.265625 12.265625 14.011719 C 12.695312 13.816406 13.105469 13.597656 13.519531 13.371094 C 13.800781 13.214844 14.09375 13.078125 14.398438 12.964844 L 14.40625 12.976562 C 14.382812 12.984375 14.359375 12.992188 14.335938 13.003906 C 14.28125 13.027344 14.316406 13.074219 14.355469 13.085938 C 14.378906 13.09375 14.402344 13.101562 14.425781 13.105469 L 14.285156 13.15625 C 14.207031 13.183594 14.230469 13.214844 14.28125 13.234375 C 14.257812 13.277344 14.367188 13.320312 14.429688 13.296875 L 14.4375 13.292969 L 14.449219 13.296875 L 14.605469 13.246094 C 14.601562 13.261719 14.597656 13.269531 14.617188 13.28125 C 14.582031 13.3125 14.660156 13.363281 14.71875 13.363281 L 14.6875 13.371094 C 14.625 13.390625 14.628906 13.417969 14.660156 13.4375 C 14.613281 13.453125 14.605469 13.472656 14.617188 13.492188 L 14.574219 13.511719 C 14.480469 13.5625 14.621094 13.601562 14.695312 13.59375 C 14.269531 13.734375 13.84375 13.875 13.417969 13.992188 Z M 14.792969 13.550781 L 14.953125 13.484375 Z M 15.710938 13.183594 Z M 15.898438 13.117188 C 15.917969 13.101562 15.90625 13.082031 15.894531 13.070312 L 16.058594 13.03125 L 16.074219 13.027344 L 16.121094 13.039062 C 16.140625 13.039062 16.15625 13.039062 16.175781 13.035156 L 16.1875 13.035156 C 16.089844 13.050781 15.992188 13.082031 15.898438 13.113281 Z M 15.898438 13.117188 "/></g></g></g><g clip-rule="nonzero" clip-path="url(#e2bffa8865)"><g clip-rule="nonzero" clip-path="url(#d8d9292f48)"><g clip-rule="nonzero" clip-path="url(#8b7687332c)"><path style=" stroke:none;fill-rule:nonzero;fill:#ff6a04;fill-opacity:1;" d="M 77.734375 15.417969 C 75.175781 15.449219 72.632812 15.667969 70.109375 16.074219 C 69.957031 16.097656 69.980469 16.207031 70.082031 16.238281 C 69.511719 16.175781 68.988281 15.984375 68.507812 15.671875 C 67.867188 15.257812 67.347656 14.6875 66.808594 14.152344 C 65.714844 13.078125 64.539062 12.0625 63.195312 11.316406 C 62.53125 10.9375 61.832031 10.644531 61.097656 10.433594 C 60.929688 10.390625 60.765625 10.347656 60.59375 10.3125 C 60.460938 10.285156 60.289062 10.234375 60.15625 10.292969 C 59.90625 10.40625 60.089844 10.839844 60.15625 11.019531 C 60.664062 12.421875 62.117188 13.085938 63.273438 13.855469 C 63.621094 14.113281 63.984375 14.347656 64.367188 14.554688 C 64.765625 14.746094 65.179688 14.78125 65.613281 14.832031 C 66.515625 14.941406 67.246094 15.546875 68.140625 15.6875 C 68.167969 15.691406 68.191406 15.6875 68.214844 15.675781 C 68.355469 15.773438 68.496094 15.863281 68.644531 15.945312 C 69.230469 16.261719 69.855469 16.414062 70.523438 16.398438 L 70.394531 16.429688 L 69.578125 16.582031 L 66.5 16.898438 C 66.460938 16.898438 66.429688 16.914062 66.402344 16.9375 L 64.179688 17.257812 C 63.542969 17.132812 62.8125 16.980469 62.679688 16.910156 C 62.683594 16.898438 62.6875 16.882812 62.652344 16.867188 L 62.59375 16.839844 C 62.589844 16.835938 62.582031 16.828125 62.574219 16.824219 C 62.238281 16.625 61.914062 16.40625 61.605469 16.164062 L 61.589844 16.148438 C 61.3125 15.867188 61 15.625 60.65625 15.425781 L 60.578125 15.386719 C 60.503906 15.332031 60.425781 15.28125 60.351562 15.230469 C 59.546875 14.695312 58.636719 14.421875 57.746094 14.085938 C 56.78125 13.722656 55.839844 13.308594 54.902344 12.882812 C 54.449219 12.675781 53.996094 12.453125 53.53125 12.269531 C 53.074219 12.097656 52.609375 11.96875 52.132812 11.878906 C 51.015625 11.644531 49.972656 11.160156 48.855469 10.929688 C 48.816406 10.917969 48.675781 10.953125 48.738281 11.015625 C 49.5625 11.777344 50.371094 12.5625 51.214844 13.304688 C 52 13.992188 52.839844 14.539062 53.851562 14.824219 C 54.367188 14.972656 54.894531 15.074219 55.417969 15.1875 C 55.972656 15.304688 56.527344 15.421875 57.085938 15.523438 C 58.164062 15.730469 59.253906 15.851562 60.351562 15.886719 C 60.523438 15.878906 60.695312 15.894531 60.863281 15.9375 C 61.023438 15.996094 61.160156 16.085938 61.28125 16.207031 C 61.46875 16.402344 61.667969 16.582031 61.878906 16.75 C 62.3125 17.058594 62.792969 17.242188 63.320312 17.300781 L 63.664062 17.335938 L 63.21875 17.402344 L 62.542969 17.453125 C 62.523438 17.449219 62.503906 17.445312 62.484375 17.445312 C 61.441406 17.4375 60.402344 17.496094 59.367188 17.613281 C 59.261719 17.625 59.242188 17.675781 59.269531 17.71875 L 58.886719 17.726562 C 58.007812 17.558594 57.117188 17.480469 56.222656 17.496094 C 55.066406 17.402344 53.910156 17.347656 52.75 17.332031 C 51.628906 17.21875 50.582031 16.875 49.617188 16.289062 C 49.136719 16.015625 48.703125 15.679688 48.3125 15.28125 C 47.941406 14.878906 47.929688 14.363281 47.882812 13.847656 C 47.820312 13.316406 47.691406 12.800781 47.503906 12.304688 C 47.355469 11.796875 47.136719 11.320312 46.851562 10.875 C 46.257812 10.027344 45.265625 9.617188 44.421875 9.070312 C 43.355469 8.378906 42.542969 7.394531 41.742188 6.421875 C 41.695312 6.367188 41.515625 6.382812 41.554688 6.480469 C 42.105469 7.90625 42.339844 9.425781 42.707031 10.90625 C 42.871094 11.582031 43.042969 12.292969 43.40625 12.890625 C 43.558594 13.144531 43.75 13.359375 43.984375 13.539062 C 44.285156 13.734375 44.613281 13.871094 44.964844 13.949219 C 45.882812 14.1875 46.800781 14.429688 47.71875 14.671875 C 47.734375 14.671875 47.75 14.671875 47.765625 14.671875 C 47.816406 14.902344 47.914062 15.109375 48.0625 15.296875 C 48.433594 15.699219 48.855469 16.039062 49.328125 16.316406 C 50.089844 16.796875 50.910156 17.132812 51.789062 17.328125 C 51.535156 17.328125 51.277344 17.335938 51.023438 17.332031 L 50.859375 17.339844 C 50.613281 17.324219 50.363281 17.3125 50.113281 17.300781 C 49.292969 17.226562 47.4375 17.199219 47.445312 17.214844 L 46.984375 17.1875 C 46.957031 17.171875 46.925781 17.164062 46.894531 17.164062 L 45.441406 17.058594 C 45.40625 17.039062 45.371094 17.027344 45.328125 17.03125 L 45.046875 17.011719 C 44.847656 16.960938 44.648438 16.90625 44.453125 16.832031 C 44.085938 16.699219 43.726562 16.542969 43.378906 16.359375 C 41.636719 14.753906 39.863281 13.175781 38.015625 11.6875 C 37.53125 11.300781 37.046875 10.917969 36.554688 10.542969 C 36.078125 10.183594 35.582031 9.839844 35.140625 9.4375 C 34.3125 8.652344 33.847656 7.601562 33.167969 6.710938 C 32.652344 6.035156 32.042969 5.347656 31.792969 4.527344 L 31.679688 3.925781 C 31.667969 3.855469 31.46875 3.855469 31.472656 3.929688 C 31.488281 4.132812 31.523438 4.332031 31.582031 4.527344 C 31.703125 5.164062 31.820312 5.796875 31.941406 6.429688 C 32.078125 7.167969 32.199219 7.914062 32.519531 8.597656 C 33.046875 9.734375 33.992188 10.597656 34.921875 11.398438 C 35.40625 11.8125 35.890625 12.214844 36.351562 12.652344 C 36.449219 12.800781 36.554688 12.949219 36.667969 13.089844 C 37.375 13.972656 38.351562 14.585938 39.40625 14.980469 C 40.058594 15.21875 40.726562 15.386719 41.414062 15.488281 C 41.441406 15.496094 41.550781 15.472656 41.542969 15.433594 C 41.835938 15.613281 42.128906 15.792969 42.425781 15.96875 C 42.683594 16.121094 42.945312 16.273438 43.214844 16.410156 L 43.441406 16.625 C 43.507812 16.65625 43.566406 16.652344 43.625 16.613281 C 43.722656 16.660156 43.820312 16.703125 43.921875 16.746094 C 44.117188 16.824219 44.3125 16.894531 44.515625 16.960938 L 42.863281 16.851562 C 42.632812 16.832031 42.402344 16.8125 42.171875 16.789062 C 42.167969 16.761719 42.136719 16.738281 42.0625 16.726562 L 39.484375 16.402344 C 39.441406 16.328125 39.382812 16.265625 39.3125 16.21875 C 39.238281 16.171875 39.160156 16.140625 39.074219 16.132812 C 38.988281 16.121094 38.902344 16.128906 38.824219 16.160156 C 38.742188 16.1875 38.667969 16.234375 38.609375 16.296875 L 37.488281 16.15625 C 37.445312 16.152344 37.40625 16.160156 37.367188 16.179688 L 37.289062 16.167969 C 37.300781 16.167969 37.308594 16.160156 37.320312 16.152344 L 37.339844 16.148438 C 37.464844 16.125 37.308594 16.082031 37.257812 16.085938 L 37.09375 16.09375 C 36.566406 15.964844 36.113281 15.636719 35.632812 15.390625 C 35.222656 15.179688 34.789062 15.035156 34.332031 14.960938 C 33.921875 14.894531 33.507812 14.886719 33.09375 14.933594 C 32.472656 14.371094 30.707031 13.992188 29.867188 13.945312 C 29.453125 13.914062 29.046875 13.957031 28.644531 14.066406 C 28.226562 14.199219 27.8125 14.351562 27.410156 14.527344 C 26.960938 14.699219 26.5 14.800781 26.023438 14.832031 C 25.609375 14.863281 25.207031 14.945312 24.816406 15.078125 C 24.035156 15.335938 23.308594 15.738281 22.558594 16.070312 C 22.109375 16.269531 21.644531 16.425781 21.167969 16.539062 C 20.683594 16.660156 20.191406 16.773438 19.753906 17.035156 C 19.671875 17.085938 19.78125 17.125 19.828125 17.128906 C 21.429688 17.230469 23.015625 16.953125 24.609375 16.832031 C 25.433594 16.769531 26.257812 16.769531 27.082031 16.835938 C 27.472656 16.878906 27.859375 16.882812 28.25 16.855469 C 28.34375 16.847656 28.433594 16.835938 28.527344 16.824219 C 28.121094 16.925781 27.722656 17.050781 27.332031 17.195312 C 26.859375 17.382812 26.398438 17.605469 25.957031 17.859375 C 24.914062 18.441406 23.957031 19.175781 23.003906 19.902344 C 22.945312 19.949219 23.101562 19.953125 23.121094 19.953125 C 23.589844 19.90625 24.046875 19.804688 24.492188 19.648438 C 24.964844 19.507812 25.445312 19.402344 25.929688 19.328125 C 26.898438 19.179688 27.882812 19.125 28.855469 19.011719 C 29.800781 18.902344 30.722656 18.683594 31.617188 18.355469 C 32.089844 18.179688 32.566406 17.992188 33.035156 17.832031 C 33.507812 17.675781 33.992188 17.546875 34.460938 17.382812 C 34.945312 17.199219 35.414062 16.984375 35.867188 16.738281 C 36.242188 16.523438 36.636719 16.351562 37.050781 16.21875 L 37.15625 16.230469 L 37.292969 16.242188 C 37.285156 16.28125 37.308594 16.316406 37.402344 16.328125 L 38.492188 16.464844 C 38.480469 16.492188 38.46875 16.519531 38.460938 16.546875 C 38.414062 16.714844 38.441406 16.871094 38.542969 17.015625 C 38.644531 17.160156 38.78125 17.238281 38.957031 17.253906 C 39.132812 17.265625 39.28125 17.210938 39.402344 17.085938 C 39.523438 16.960938 39.578125 16.8125 39.558594 16.636719 C 40.246094 16.738281 40.929688 16.832031 41.613281 16.90625 C 41.640625 16.941406 41.675781 16.957031 41.714844 16.953125 L 45.019531 17.191406 C 45.054688 17.238281 45.101562 17.261719 45.164062 17.257812 L 45.894531 17.296875 C 46.890625 17.5 47.894531 17.628906 48.90625 17.6875 L 49.125 17.691406 C 47.835938 17.914062 46.382812 18.15625 45.90625 18.152344 C 45.378906 18.128906 44.855469 18.183594 44.34375 18.3125 C 43.804688 18.46875 43.296875 18.726562 42.769531 18.921875 C 41.730469 19.308594 40.710938 19.738281 39.917969 20.546875 C 39.515625 20.957031 39.261719 21.457031 39.023438 21.976562 C 38.804688 22.472656 38.535156 22.9375 38.210938 23.371094 C 37.453125 24.347656 36.445312 25.089844 35.457031 25.8125 C 35.402344 25.851562 35.597656 25.867188 35.636719 25.84375 C 36.515625 25.324219 37.449219 24.914062 38.347656 24.433594 C 39.175781 23.980469 39.945312 23.441406 40.652344 22.816406 C 41.34375 22.210938 42.007812 21.570312 42.757812 21.039062 C 43.125 20.777344 43.507812 20.558594 43.917969 20.375 C 44.34375 20.191406 44.792969 20.074219 45.226562 19.914062 C 45.675781 19.769531 46.074219 19.539062 46.425781 19.21875 C 46.753906 18.90625 47.011719 18.5625 47.425781 18.355469 C 47.578125 18.292969 47.722656 18.21875 47.863281 18.132812 C 48.058594 18.101562 48.933594 17.890625 49.71875 17.699219 C 50.160156 17.691406 50.601562 17.671875 51.042969 17.65625 C 50.960938 17.6875 50.890625 17.734375 50.828125 17.800781 C 50.769531 17.867188 50.726562 17.941406 50.699219 18.027344 C 50.675781 18.113281 50.671875 18.203125 50.691406 18.289062 C 50.707031 18.378906 50.746094 18.457031 50.800781 18.527344 C 50.855469 18.597656 50.925781 18.652344 51.003906 18.6875 C 51.085938 18.726562 51.171875 18.742188 51.261719 18.738281 C 51.351562 18.738281 51.433594 18.714844 51.511719 18.667969 C 51.589844 18.625 51.65625 18.566406 51.707031 18.492188 C 51.753906 18.417969 51.785156 18.339844 51.796875 18.25 C 51.808594 18.160156 51.796875 18.074219 51.769531 17.988281 C 51.738281 17.90625 51.691406 17.832031 51.625 17.773438 C 51.558594 17.710938 51.484375 17.667969 51.398438 17.640625 C 51.613281 17.636719 51.828125 17.628906 52.050781 17.628906 L 52.109375 17.632812 C 52.089844 17.675781 52.277344 17.78125 52.339844 17.785156 L 55.296875 17.886719 C 55.570312 17.929688 56.296875 17.949219 56.160156 17.925781 C 56 17.894531 55.839844 17.867188 55.679688 17.839844 C 55.679688 17.835938 55.683594 17.832031 55.683594 17.828125 C 55.773438 17.832031 56.886719 17.925781 57.199219 17.941406 L 57.566406 17.96875 C 57.617188 17.976562 57.664062 17.972656 57.710938 17.957031 L 57.722656 17.960938 C 56.765625 18.457031 55.796875 18.933594 54.738281 19.191406 C 53.675781 19.453125 52.574219 19.566406 51.511719 19.832031 C 50.566406 20.0625 49.628906 20.417969 48.871094 21.042969 C 48.09375 21.683594 47.566406 22.554688 46.886719 23.289062 C 46.480469 23.703125 46.027344 24.0625 45.527344 24.359375 C 45.035156 24.644531 44.578125 24.976562 44.15625 25.355469 C 44.078125 25.429688 44.242188 25.488281 44.296875 25.460938 C 45.503906 24.871094 46.742188 24.355469 48.007812 23.90625 C 48.644531 23.679688 49.289062 23.472656 49.941406 23.285156 C 50.332031 23.171875 50.867188 23.015625 50.988281 22.582031 C 51.441406 22.726562 51.917969 22.550781 52.332031 22.363281 C 52.847656 22.132812 53.34375 21.867188 53.824219 21.570312 C 54.304688 21.269531 54.71875 20.898438 55.070312 20.453125 C 55.417969 19.976562 55.730469 19.472656 55.996094 18.945312 C 56.652344 18.679688 57.289062 18.378906 57.910156 18.046875 C 57.953125 18.023438 57.964844 17.992188 57.957031 17.96875 L 58.300781 17.976562 C 58.347656 17.980469 58.386719 17.96875 58.425781 17.941406 L 59.136719 18.011719 C 59.164062 18.011719 59.1875 18.011719 59.214844 18.003906 L 59.425781 18.03125 C 59.519531 18.046875 59.695312 17.949219 59.605469 17.890625 L 61.183594 17.863281 C 61.257812 17.863281 61.304688 17.835938 61.324219 17.804688 L 61.550781 17.78125 L 61.703125 17.777344 C 62.566406 17.800781 63.429688 17.777344 64.289062 17.714844 C 64.335938 17.710938 64.449219 17.703125 64.484375 17.707031 C 65.28125 17.734375 66.058594 17.625 66.816406 17.386719 C 66.828125 17.382812 66.835938 17.378906 66.847656 17.371094 L 67.167969 17.324219 C 66.617188 17.675781 66.050781 18.023438 65.425781 18.199219 C 65.382812 18.1875 65.339844 18.1875 65.292969 18.199219 C 65.242188 18.222656 65.1875 18.246094 65.132812 18.269531 C 64.988281 18.296875 64.84375 18.3125 64.699219 18.316406 C 63.921875 18.347656 63.082031 18.199219 62.382812 18.632812 C 62.027344 18.851562 61.753906 19.167969 61.453125 19.449219 C 61.140625 19.730469 60.808594 19.980469 60.449219 20.195312 C 59.742188 20.613281 59.003906 20.972656 58.238281 21.269531 C 57.375 21.625 56.503906 21.96875 55.6875 22.425781 C 55.582031 22.484375 55.769531 22.515625 55.808594 22.503906 L 60.257812 21.347656 C 60.929688 21.171875 61.617188 21.019531 62.253906 20.738281 C 62.832031 20.476562 63.367188 20.140625 63.855469 19.734375 C 64.394531 19.289062 64.90625 18.816406 65.394531 18.3125 C 66.113281 18.140625 66.753906 17.746094 67.382812 17.34375 C 67.417969 17.320312 67.394531 17.300781 67.34375 17.289062 L 69.457031 16.980469 C 69.480469 16.984375 69.503906 16.988281 69.527344 16.980469 L 69.707031 16.941406 L 70.792969 16.785156 C 70.835938 16.863281 70.902344 16.890625 70.988281 16.863281 L 73.703125 16.304688 C 73.867188 16.273438 74.320312 16.121094 74.289062 16.078125 C 74.734375 16.011719 75.179688 15.945312 75.621094 15.882812 C 76.339844 15.785156 77.058594 15.691406 77.777344 15.59375 C 77.964844 15.570312 77.886719 15.417969 77.734375 15.417969 Z M 66.082031 14.769531 C 65.707031 14.671875 65.308594 14.6875 64.925781 14.597656 C 64.539062 14.484375 64.183594 14.304688 63.863281 14.058594 C 63.246094 13.636719 62.597656 13.261719 61.980469 12.835938 C 61.417969 12.449219 60.882812 11.988281 60.546875 11.382812 C 60.464844 11.246094 60.402344 11.101562 60.347656 10.949219 C 60.3125 10.84375 60.171875 10.527344 60.25 10.425781 C 60.324219 10.324219 60.683594 10.464844 60.78125 10.492188 C 60.96875 10.539062 61.160156 10.589844 61.34375 10.652344 C 62.054688 10.886719 62.730469 11.199219 63.371094 11.589844 C 64.652344 12.351562 65.773438 13.363281 66.824219 14.414062 L 67.214844 14.804688 C 66.640625 14.425781 66.039062 14.101562 65.402344 13.828125 C 64.871094 13.601562 64.3125 13.433594 63.796875 13.164062 C 63.316406 12.910156 62.886719 12.589844 62.5 12.207031 C 62.074219 11.785156 61.6875 11.328125 61.335938 10.839844 C 61.289062 10.769531 61.09375 10.816406 61.160156 10.90625 C 61.769531 11.746094 62.46875 12.554688 63.363281 13.101562 C 63.839844 13.367188 64.335938 13.589844 64.851562 13.765625 C 65.402344 13.976562 65.933594 14.226562 66.445312 14.519531 C 66.9375 14.800781 67.40625 15.121094 67.851562 15.476562 C 67.246094 15.292969 66.703125 14.929688 66.082031 14.773438 Z M 60.886719 15.8125 C 60.664062 15.773438 60.4375 15.757812 60.210938 15.761719 C 59.910156 15.753906 59.609375 15.738281 59.308594 15.710938 C 58.75 15.664062 58.199219 15.589844 57.652344 15.5 C 56.570312 15.320312 55.488281 15.09375 54.417969 14.84375 C 53.894531 14.730469 53.390625 14.558594 52.910156 14.320312 C 52.4375 14.070312 52 13.769531 51.597656 13.421875 C 50.722656 12.683594 49.902344 11.875 49.070312 11.09375 C 49.953125 11.3125 50.789062 11.691406 51.675781 11.894531 C 52.179688 11.992188 52.675781 12.113281 53.164062 12.261719 C 53.644531 12.433594 54.105469 12.652344 54.566406 12.871094 C 55.457031 13.28125 56.351562 13.675781 57.257812 14.03125 C 58.125 14.371094 59.050781 14.621094 59.859375 15.09375 C 59.316406 14.9375 58.761719 14.839844 58.195312 14.800781 C 57.253906 14.714844 56.289062 14.710938 55.375 14.433594 C 54.460938 14.160156 53.792969 13.566406 53.054688 13.011719 C 52.222656 12.382812 51.285156 12.023438 50.300781 11.695312 C 50.21875 11.675781 50.066406 11.75 50.195312 11.796875 C 51.105469 12.101562 51.996094 12.421875 52.78125 12.996094 C 53.46875 13.5 54.097656 14.085938 54.902344 14.410156 C 56.625 15.09375 58.59375 14.617188 60.289062 15.398438 C 60.332031 15.417969 60.375 15.4375 60.417969 15.460938 C 60.578125 15.574219 60.742188 15.695312 60.902344 15.816406 Z M 42.894531 8.835938 C 43.34375 9.121094 43.660156 9.507812 43.847656 10.003906 C 44.03125 10.492188 43.972656 11.035156 44.25 11.492188 C 44.726562 12.285156 45.703125 12.601562 46.398438 13.15625 C 46.863281 13.527344 47.25 13.964844 47.558594 14.46875 L 45.414062 13.90625 C 45.039062 13.808594 44.636719 13.730469 44.292969 13.542969 C 44 13.371094 43.765625 13.136719 43.59375 12.839844 C 43.242188 12.269531 43.078125 11.59375 42.917969 10.949219 C 42.742188 10.246094 42.597656 9.53125 42.433594 8.824219 C 42.292969 8.1875 42.125 7.558594 41.921875 6.941406 C 42.519531 7.660156 43.148438 8.359375 43.898438 8.917969 C 44.75 9.558594 45.832031 9.929688 46.523438 10.765625 C 46.886719 11.207031 47.09375 11.75 47.277344 12.285156 C 47.480469 12.824219 47.613281 13.375 47.675781 13.945312 C 47.6875 14.082031 47.703125 14.222656 47.714844 14.355469 C 47.46875 13.964844 47.183594 13.613281 46.847656 13.300781 C 46.460938 12.964844 46.042969 12.667969 45.597656 12.414062 C 45.199219 12.167969 44.78125 11.914062 44.507812 11.523438 C 44.179688 11.0625 44.25 10.492188 44.054688 9.976562 C 43.855469 9.449219 43.519531 9.035156 43.042969 8.734375 C 42.964844 8.679688 42.789062 8.765625 42.894531 8.835938 Z M 40.886719 14.855469 C 40.492188 14.554688 40.078125 14.289062 39.636719 14.066406 C 39.578125 14.035156 39.386719 14.078125 39.488281 14.140625 L 40.675781 14.878906 C 40.867188 15.023438 41.050781 15.175781 41.230469 15.339844 C 39.507812 15.027344 37.777344 14.277344 36.742188 12.875 C 36.777344 12.867188 36.800781 12.847656 36.78125 12.824219 C 36.214844 12.070312 35.902344 11.226562 35.851562 10.285156 C 35.847656 10.210938 35.644531 10.210938 35.644531 10.285156 C 35.648438 10.957031 35.804688 11.59375 36.109375 12.191406 C 35.386719 11.558594 34.628906 10.964844 33.960938 10.277344 C 33.515625 9.835938 33.140625 9.339844 32.835938 8.789062 C 32.492188 8.128906 32.34375 7.417969 32.203125 6.691406 C 32.117188 6.230469 32.03125 5.773438 31.945312 5.3125 C 32.175781 5.6875 32.429688 6.046875 32.703125 6.386719 C 33.027344 6.792969 33.328125 7.214844 33.605469 7.652344 C 33.886719 8.136719 34.203125 8.601562 34.554688 9.042969 C 34.964844 9.484375 35.417969 9.878906 35.914062 10.21875 C 36.417969 10.597656 36.914062 10.980469 37.40625 11.371094 C 38.390625 12.152344 39.355469 12.957031 40.300781 13.785156 C 41.140625 14.515625 41.972656 15.261719 42.796875 16.019531 C 42.152344 15.648438 41.519531 15.25 40.886719 14.851562 Z M 36.691406 16.054688 L 36.773438 16.078125 L 36.601562 16.066406 C 36.628906 16.074219 36.660156 16.066406 36.691406 16.054688 Z M 28.148438 16.75 C 27.738281 16.769531 27.328125 16.753906 26.917969 16.710938 C 25.425781 16.585938 23.949219 16.785156 22.46875 16.929688 C 21.671875 17.015625 20.871094 17.046875 20.070312 17.023438 C 20.757812 16.667969 21.570312 16.597656 22.289062 16.320312 C 23.03125 16.03125 23.734375 15.636719 24.472656 15.339844 C 24.847656 15.183594 25.230469 15.066406 25.628906 14.988281 C 26.039062 14.917969 26.457031 14.925781 26.863281 14.828125 C 27.679688 14.628906 28.40625 14.15625 29.25 14.0625 C 30.199219 13.953125 31.941406 14.375 32.714844 15 C 32.371094 15.070312 32.046875 15.1875 31.734375 15.347656 C 31.601562 15.421875 31.46875 15.5 31.34375 15.585938 C 31.3125 15.570312 31.28125 15.5625 31.246094 15.5625 C 30.101562 15.535156 28.953125 15.578125 27.8125 15.691406 C 27.242188 15.746094 26.679688 15.84375 26.113281 15.90625 C 25.804688 15.933594 25.496094 15.917969 25.191406 15.867188 C 24.960938 15.832031 24.734375 15.839844 24.503906 15.898438 C 24.214844 15.992188 23.929688 16.105469 23.652344 16.234375 L 22.664062 16.652344 C 22.621094 16.671875 22.636719 16.707031 22.667969 16.730469 C 22.714844 16.753906 22.761719 16.753906 22.808594 16.730469 C 23.351562 16.503906 23.886719 16.253906 24.4375 16.050781 C 24.714844 15.953125 25 15.933594 25.292969 15.992188 C 25.539062 16.03125 25.789062 16.042969 26.039062 16.023438 C 26.585938 15.976562 27.125 15.871094 27.664062 15.808594 C 28.207031 15.75 28.792969 15.707031 29.355469 15.683594 C 29.921875 15.660156 30.515625 15.648438 31.09375 15.660156 C 31.03125 15.75 30.953125 15.832031 30.867188 15.902344 C 30.785156 15.960938 30.695312 16.015625 30.609375 16.070312 C 30.519531 16.117188 30.425781 16.160156 30.332031 16.195312 C 30 16.324219 29.652344 16.425781 29.3125 16.519531 C 28.933594 16.636719 28.542969 16.714844 28.148438 16.753906 Z M 34.777344 17.148438 C 34.316406 17.335938 33.84375 17.496094 33.367188 17.632812 C 32.882812 17.78125 32.410156 17.945312 31.9375 18.125 C 31.46875 18.304688 30.988281 18.484375 30.503906 18.621094 C 30.039062 18.75 29.570312 18.84375 29.089844 18.90625 C 28.140625 19.039062 27.179688 19.085938 26.230469 19.207031 C 25.722656 19.269531 25.21875 19.363281 24.71875 19.488281 C 24.238281 19.613281 23.765625 19.800781 23.269531 19.863281 C 24.863281 18.652344 26.492188 17.457031 28.453125 16.921875 C 28.929688 16.792969 29.410156 16.6875 29.875 16.527344 C 30.066406 16.460938 30.25 16.382812 30.429688 16.292969 C 30.46875 16.277344 30.503906 16.265625 30.539062 16.25 C 30.769531 16.164062 30.972656 16.035156 31.152344 15.871094 L 31.203125 15.835938 C 31.605469 15.527344 32.050781 15.289062 32.53125 15.125 C 32.617188 15.097656 32.703125 15.078125 32.796875 15.050781 C 32.828125 15.078125 32.964844 15.046875 33.046875 15.003906 C 33.351562 14.957031 33.660156 14.949219 33.96875 14.976562 C 34.527344 15.035156 35.050781 15.195312 35.542969 15.460938 C 35.875 15.636719 36.195312 15.84375 36.539062 15.992188 L 36.078125 16.039062 C 35.800781 16.011719 35.523438 15.980469 35.242188 15.972656 C 34.679688 15.953125 34.125 16.011719 33.578125 16.144531 C 32.445312 16.417969 31.394531 16.957031 30.363281 17.492188 C 30.300781 17.527344 30.492188 17.539062 30.523438 17.535156 C 31.507812 17.246094 32.496094 16.980469 33.492188 16.746094 C 33.546875 16.761719 33.597656 16.765625 33.652344 16.757812 C 33.660156 16.753906 33.664062 16.753906 33.667969 16.75 C 33.742188 16.722656 33.8125 16.6875 33.882812 16.652344 C 34.625 16.476562 35.375 16.316406 36.128906 16.171875 C 36.359375 16.175781 36.589844 16.1875 36.816406 16.210938 C 36.101562 16.433594 35.46875 16.859375 34.777344 17.152344 Z M 33.453125 16.574219 C 33.414062 16.597656 33.371094 16.617188 33.328125 16.640625 C 33.285156 16.667969 33.328125 16.671875 33.371094 16.679688 C 32.550781 16.875 31.734375 17.089844 30.917969 17.320312 C 31.820312 16.859375 32.746094 16.414062 33.734375 16.183594 C 33.933594 16.136719 34.132812 16.101562 34.335938 16.078125 C 34.023438 16.199219 33.730469 16.355469 33.457031 16.546875 C 33.441406 16.5625 33.445312 16.570312 33.453125 16.578125 Z M 34.1875 16.457031 C 34.207031 16.457031 34.230469 16.457031 34.25 16.453125 L 34.382812 16.414062 L 34.410156 16.410156 C 34.433594 16.414062 34.457031 16.414062 34.480469 16.410156 L 35.21875 16.214844 C 35.226562 16.210938 35.234375 16.207031 35.242188 16.203125 C 35.390625 16.183594 35.542969 16.175781 35.695312 16.167969 C 35.167969 16.273438 34.640625 16.386719 34.113281 16.503906 C 34.136719 16.496094 34.167969 16.480469 34.1875 16.460938 Z M 34.511719 16.203125 Z M 34.65625 16.046875 C 34.949219 16.027344 35.238281 16.027344 35.53125 16.050781 L 35.679688 16.0625 L 35.488281 16.082031 C 35.460938 16.074219 35.4375 16.070312 35.410156 16.070312 L 35.226562 16.089844 C 35.179688 16.0625 35.128906 16.054688 35.078125 16.058594 L 34.941406 16.085938 C 34.914062 16.070312 34.886719 16.066406 34.855469 16.0625 C 34.796875 16.0625 34.738281 16.066406 34.679688 16.074219 C 34.667969 16.066406 34.652344 16.0625 34.640625 16.0625 C 34.652344 16.0625 34.65625 16.054688 34.65625 16.054688 Z M 46.871094 17.347656 L 47.519531 17.382812 C 47.507812 17.402344 47.507812 17.421875 47.523438 17.441406 C 47.300781 17.414062 47.085938 17.386719 46.867188 17.351562 Z M 47.933594 17.492188 L 48.445312 17.484375 C 48.4375 17.5 48.4375 17.519531 48.445312 17.535156 C 48.269531 17.527344 48.101562 17.515625 47.929688 17.496094 Z M 46.886719 18.335938 C 46.53125 18.410156 46.183594 18.496094 45.839844 18.589844 C 45.160156 18.78125 44.492188 19.015625 43.839844 19.292969 C 42.707031 19.773438 41.492188 20.34375 40.714844 21.324219 C 40.242188 21.925781 39.777344 22.507812 39.191406 22.996094 C 39.171875 23.011719 39.34375 23.046875 39.390625 23.011719 C 39.882812 22.59375 40.320312 22.128906 40.707031 21.613281 C 40.894531 21.351562 41.101562 21.109375 41.328125 20.882812 C 41.5625 20.664062 41.820312 20.46875 42.097656 20.304688 C 43.152344 19.664062 44.269531 19.164062 45.445312 18.796875 C 45.996094 18.621094 46.554688 18.480469 47.117188 18.367188 C 46.875 18.53125 46.660156 18.722656 46.46875 18.945312 C 46.164062 19.296875 45.792969 19.570312 45.367188 19.761719 C 44.949219 19.9375 44.503906 20.054688 44.078125 20.210938 C 43.667969 20.363281 43.277344 20.554688 42.910156 20.789062 C 42.152344 21.269531 41.480469 21.882812 40.820312 22.480469 C 40.117188 23.132812 39.359375 23.707031 38.539062 24.199219 C 37.816406 24.613281 37.054688 24.960938 36.316406 25.34375 C 36.9375 24.890625 37.507812 24.386719 38.035156 23.828125 C 38.394531 23.441406 38.699219 23.015625 38.953125 22.554688 C 39.214844 22.050781 39.402344 21.53125 39.71875 21.054688 C 40.347656 20.109375 41.425781 19.527344 42.464844 19.136719 C 42.992188 18.9375 43.511719 18.71875 44.035156 18.515625 C 44.597656 18.304688 45.179688 18.203125 45.78125 18.214844 C 46.382812 18.214844 46.984375 18.214844 47.582031 18.164062 C 47.351562 18.226562 47.117188 18.289062 46.882812 18.339844 Z M 49.574219 17.597656 C 49.371094 17.597656 49.167969 17.589844 48.964844 17.578125 L 49.207031 17.566406 C 49.476562 17.554688 49.75 17.546875 50.023438 17.542969 L 49.742188 17.589844 Z M 50.371094 17.542969 C 50.566406 17.542969 50.765625 17.539062 50.960938 17.542969 L 51.109375 17.554688 C 50.808594 17.566406 50.507812 17.574219 50.207031 17.582031 Z M 54.203125 17.566406 C 54.199219 17.558594 54.195312 17.554688 54.191406 17.546875 L 54.6875 17.570312 C 54.707031 17.578125 54.726562 17.582031 54.746094 17.585938 L 54.871094 17.601562 C 54.640625 17.585938 54.417969 17.570312 54.195312 17.566406 Z M 54.953125 20.300781 C 54.640625 20.722656 54.269531 21.078125 53.832031 21.371094 C 53.40625 21.648438 52.960938 21.894531 52.496094 22.109375 C 52.039062 22.332031 51.476562 22.648438 50.964844 22.410156 C 50.910156 22.382812 50.816406 22.40625 50.804688 22.472656 C 50.78125 22.765625 50.515625 22.921875 50.269531 23.023438 C 49.988281 23.136719 49.6875 23.203125 49.398438 23.292969 C 48.816406 23.46875 48.238281 23.664062 47.664062 23.871094 C 46.691406 24.21875 45.738281 24.617188 44.800781 25.050781 C 45.449219 24.566406 46.195312 24.207031 46.789062 23.648438 C 47.503906 22.96875 48.015625 22.113281 48.714844 21.421875 C 50.265625 19.898438 52.554688 19.847656 54.550781 19.394531 C 54.863281 19.324219 55.175781 19.238281 55.480469 19.136719 C 55.0625 19.441406 54.617188 19.707031 54.144531 19.925781 C 53.570312 20.191406 52.964844 20.359375 52.375 20.578125 C 52.097656 20.675781 51.832031 20.796875 51.574219 20.9375 C 51.304688 21.105469 51.054688 21.296875 50.824219 21.515625 C 50.328125 21.945312 49.707031 22.089844 49.109375 22.328125 C 48.449219 22.59375 47.847656 22.964844 47.308594 23.433594 C 47.210938 23.519531 47.382812 23.605469 47.457031 23.539062 C 47.949219 23.105469 48.5 22.761719 49.109375 22.503906 C 49.667969 22.265625 50.285156 22.136719 50.785156 21.773438 C 51.046875 21.582031 51.261719 21.339844 51.53125 21.160156 C 51.796875 20.988281 52.082031 20.847656 52.378906 20.742188 C 52.960938 20.515625 53.570312 20.355469 54.144531 20.097656 C 54.664062 19.863281 55.152344 19.578125 55.609375 19.242188 C 55.414062 19.609375 55.191406 19.960938 54.949219 20.300781 Z M 62.328125 20.578125 C 61.695312 20.886719 61.007812 21.046875 60.332031 21.222656 L 58.15625 21.792969 L 56.253906 22.292969 C 57.601562 21.609375 59.066406 21.175781 60.378906 20.414062 C 60.722656 20.21875 61.046875 19.996094 61.355469 19.75 C 61.679688 19.484375 61.960938 19.164062 62.28125 18.894531 C 62.648438 18.59375 63.070312 18.4375 63.546875 18.429688 C 63.929688 18.410156 64.316406 18.4375 64.699219 18.425781 C 64.414062 18.507812 64.125 18.570312 63.835938 18.628906 C 63.363281 18.722656 62.910156 18.878906 62.476562 19.089844 C 61.601562 19.53125 60.875 20.199219 60.035156 20.691406 C 59.933594 20.75 60.125 20.796875 60.179688 20.761719 C 61.023438 20.269531 61.742188 19.605469 62.609375 19.152344 C 63.382812 18.757812 64.257812 18.695312 65.0625 18.414062 C 64.242188 19.238281 63.378906 20.066406 62.320312 20.578125 Z M 71.96875 16.164062 C 71.933594 16.152344 71.902344 16.152344 71.867188 16.15625 L 71.382812 16.246094 C 71.359375 16.242188 71.335938 16.242188 71.3125 16.242188 C 71.207031 16.257812 71.101562 16.277344 70.996094 16.304688 C 70.964844 16.261719 70.925781 16.242188 70.875 16.25 C 70.636719 16.277344 70.398438 16.277344 70.160156 16.257812 L 72.195312 16.121094 C 72.117188 16.132812 72.039062 16.144531 71.960938 16.160156 Z M 72.578125 16.152344 C 72.554688 16.125 72.523438 16.109375 72.492188 16.101562 L 73.257812 16.050781 C 73.027344 16.085938 72.792969 16.117188 72.570312 16.148438 Z M 75.167969 15.773438 C 75.136719 15.757812 75.101562 15.75 75.066406 15.753906 L 72.777344 15.902344 C 73.855469 15.785156 74.9375 15.699219 76.027344 15.648438 Z M 75.167969 15.773438 "/></g></g></g><g clip-rule="nonzero" clip-path="url(#7f9bc2dbbe)"><g clip-rule="nonzero" clip-path="url(#8f6c252a4c)"><g clip-rule="nonzero" clip-path="url(#7de110ce9c)"><path style=" stroke:none;fill-rule:nonzero;fill:#ff6a04;fill-opacity:1;" d="M 39.257812 15.730469 C 39.296875 15.582031 39.277344 15.4375 39.199219 15.304688 C 39.121094 15.171875 39.007812 15.085938 38.855469 15.046875 C 38.707031 15.007812 38.566406 15.027344 38.429688 15.105469 C 38.296875 15.183594 38.210938 15.296875 38.171875 15.445312 C 38.132812 15.59375 38.152344 15.738281 38.230469 15.871094 C 38.308594 16.003906 38.421875 16.089844 38.570312 16.128906 C 38.722656 16.167969 38.863281 16.152344 38.996094 16.074219 C 39.128906 15.996094 39.21875 15.878906 39.257812 15.730469 Z M 39.257812 15.730469 "/></g></g></g><g clip-rule="nonzero" clip-path="url(#c4366f85f8)"><g clip-rule="nonzero" clip-path="url(#648b6eb59e)"><g clip-rule="nonzero" clip-path="url(#0539fffe69)"><path style=" stroke:none;fill-rule:nonzero;fill:#ff6a04;fill-opacity:1;" d="M 50.167969 15.941406 C 50.316406 15.980469 50.457031 15.960938 50.59375 15.882812 C 50.726562 15.804688 50.8125 15.691406 50.851562 15.542969 C 50.890625 15.390625 50.871094 15.25 50.792969 15.117188 C 50.714844 14.984375 50.601562 14.898438 50.453125 14.859375 C 50.300781 14.820312 50.160156 14.835938 50.027344 14.914062 C 49.894531 14.992188 49.808594 15.109375 49.769531 15.257812 C 49.730469 15.40625 49.746094 15.546875 49.824219 15.683594 C 49.902344 15.816406 50.019531 15.902344 50.167969 15.941406 Z M 50.167969 15.941406 "/></g></g></g><g clip-rule="nonzero" clip-path="url(#0a0c89ee6d)"><g clip-rule="nonzero" clip-path="url(#0a39600c11)"><g clip-rule="nonzero" clip-path="url(#7cfb238be2)"><path style=" stroke:none;fill-rule:nonzero;fill:#ff6a04;fill-opacity:1;" d="M 22.597656 13.996094 C 22.527344 13.976562 22.457031 13.988281 22.390625 14.027344 C 22.324219 14.066406 22.28125 14.121094 22.261719 14.195312 C 22.242188 14.269531 22.253906 14.335938 22.289062 14.402344 C 22.328125 14.46875 22.386719 14.511719 22.460938 14.53125 C 22.53125 14.550781 22.601562 14.542969 22.667969 14.503906 C 22.734375 14.464844 22.777344 14.410156 22.796875 14.335938 C 22.816406 14.261719 22.804688 14.191406 22.769531 14.125 C 22.730469 14.058594 22.671875 14.015625 22.597656 13.996094 Z M 22.597656 13.996094 "/></g></g></g></g></svg>