<svg xmlns="http://www.w3.org/2000/svg" xmlns:xlink="http://www.w3.org/1999/xlink" width="70" zoomAndPan="magnify" viewBox="0 0 52.5 52.499999" height="70" preserveAspectRatio="xMidYMid meet" version="1.0"><defs><clipPath id="baef947f30"><path d="M 0 0 L 52.003906 0 L 52.003906 52.003906 L 0 52.003906 Z M 0 0 " clip-rule="nonzero"/></clipPath><clipPath id="453609bc81"><path d="M 3.359375 9.839844 L 47.933594 9.839844 L 47.933594 41.785156 L 3.359375 41.785156 Z M 3.359375 9.839844 " clip-rule="nonzero"/></clipPath></defs><g clip-path="url(#baef947f30)"><path fill="#ffffff" d="M 0 0 L 52.003906 0 L 52.003906 52.003906 L 0 52.003906 Z M 0 0 " fill-opacity="1" fill-rule="nonzero"/><path fill="#ffffff" d="M 0 0 L 52.003906 0 L 52.003906 52.003906 L 0 52.003906 Z M 0 0 " fill-opacity="1" fill-rule="nonzero"/></g><g clip-path="url(#453609bc81)"><path fill="#e18e9e" d="M 8.15625 9.839844 C 5.515625 9.839844 3.371094 11.980469 3.371094 14.625 C 3.429688 21.882812 3.371094 29.566406 3.371094 36.964844 C 3.371094 39.511719 5.351562 41.574219 7.859375 41.726562 L 43.460938 41.75 C 46.011719 41.648438 48.046875 39.542969 48.046875 36.964844 L 48.046875 13.804688 C 47.660156 11.546875 45.699219 9.839844 43.335938 9.839844 C 31.617188 9.84375 19.882812 9.839844 8.15625 9.839844 Z M 8.082031 12.359375 L 43.484375 12.359375 L 26.355469 29.484375 C 26.042969 29.796875 25.546875 29.796875 25.234375 29.484375 Z M 45.652344 13.578125 L 45.652344 36.789062 C 45.652344 38.171875 45.15625 38.953125 44.15625 39.234375 L 32.089844 27.140625 Z M 6.039062 13.679688 L 19.378906 27.015625 L 7.1875 39.207031 C 6.351562 38.925781 6.0625 38.253906 6.039062 37.335938 Z M 21.074219 28.6875 L 25.234375 32.875 C 25.546875 33.1875 26.046875 33.1875 26.359375 32.875 L 30.398438 28.835938 L 40.917969 39.355469 L 10.402344 39.355469 Z M 21.074219 28.6875 " fill-opacity="1" fill-rule="nonzero"/></g></svg>