<svg xmlns="http://www.w3.org/2000/svg" xmlns:xlink="http://www.w3.org/1999/xlink" width="70" zoomAndPan="magnify" viewBox="0 0 52.5 52.499999" height="70" preserveAspectRatio="xMidYMid meet" version="1.0"><defs><clipPath id="224604c861"><path d="M 0 0 L 52.003906 0 L 52.003906 52.003906 L 0 52.003906 Z M 0 0 " clip-rule="nonzero"/></clipPath><clipPath id="ca5996bff5"><path d="M 7 45 L 16 45 L 16 48.3125 L 7 48.3125 Z M 7 45 " clip-rule="nonzero"/></clipPath><clipPath id="37c47520f2"><path d="M 36 45 L 45 45 L 45 48.3125 L 36 48.3125 Z M 36 45 " clip-rule="nonzero"/></clipPath><clipPath id="673c5aed49"><path d="M 40 1.507812 L 49.78125 1.507812 L 49.78125 12 L 40 12 Z M 40 1.507812 " clip-rule="nonzero"/></clipPath><clipPath id="7a10115c43"><path d="M 2.234375 1.507812 L 12 1.507812 L 12 12 L 2.234375 12 Z M 2.234375 1.507812 " clip-rule="nonzero"/></clipPath></defs><g clip-path="url(#224604c861)"><path fill="#ffffff" d="M 0 0 L 52.003906 0 L 52.003906 52.003906 L 0 52.003906 Z M 0 0 " fill-opacity="1" fill-rule="nonzero"/><path fill="#ffffff" d="M 0 0 L 52.003906 0 L 52.003906 52.003906 L 0 52.003906 Z M 0 0 " fill-opacity="1" fill-rule="nonzero"/></g><path fill="#f6a5b6" d="M 23.625 26.074219 L 25.207031 26.074219 L 25.207031 40.335938 L 23.625 40.335938 Z M 23.625 26.074219 " fill-opacity="1" fill-rule="nonzero"/><path fill="#f6a5b6" d="M 4.609375 40.335938 L 18.871094 40.335938 L 18.871094 27.660156 L 11.269531 27.660156 C 9.714844 27.660156 8.199219 28.207031 7.003906 29.203125 C 5.484375 30.472656 4.609375 32.335938 4.609375 34.320312 Z M 11.738281 29.246094 C 14.359375 29.246094 16.492188 31.375 16.492188 34 C 16.492188 36.621094 14.359375 38.75 11.738281 38.75 C 9.117188 38.75 6.984375 36.621094 6.984375 34 C 6.984375 31.375 9.117188 29.246094 11.738281 29.246094 Z M 11.738281 29.246094 " fill-opacity="1" fill-rule="nonzero"/><path fill="#f6a5b6" d="M 26.792969 26.074219 L 28.378906 26.074219 L 28.378906 40.335938 L 26.792969 40.335938 Z M 26.792969 26.074219 " fill-opacity="1" fill-rule="nonzero"/><path fill="#f6a5b6" d="M 20.453125 26.867188 L 20.453125 40.335938 L 22.039062 40.335938 L 22.039062 26.074219 L 21.246094 26.074219 C 20.808594 26.074219 20.453125 26.429688 20.453125 26.867188 Z M 20.453125 26.867188 " fill-opacity="1" fill-rule="nonzero"/><path fill="#f6a5b6" d="M 14.910156 34 C 14.910156 34.417969 14.828125 34.824219 14.667969 35.210938 C 14.507812 35.597656 14.277344 35.941406 13.980469 36.238281 C 13.683594 36.535156 13.339844 36.765625 12.953125 36.925781 C 12.5625 37.085938 12.160156 37.167969 11.738281 37.167969 C 11.320312 37.167969 10.914062 37.085938 10.527344 36.925781 C 10.136719 36.765625 9.796875 36.535156 9.5 36.238281 C 9.203125 35.941406 8.972656 35.597656 8.8125 35.210938 C 8.652344 34.824219 8.570312 34.417969 8.570312 34 C 8.570312 33.578125 8.652344 33.171875 8.8125 32.785156 C 8.972656 32.398438 9.203125 32.054688 9.5 31.757812 C 9.796875 31.460938 10.136719 31.230469 10.527344 31.070312 C 10.914062 30.910156 11.320312 30.828125 11.738281 30.828125 C 12.160156 30.828125 12.5625 30.910156 12.953125 31.070312 C 13.339844 31.230469 13.683594 31.460938 13.980469 31.757812 C 14.277344 32.054688 14.507812 32.398438 14.667969 32.785156 C 14.828125 33.171875 14.910156 33.578125 14.910156 34 Z M 14.910156 34 " fill-opacity="1" fill-rule="nonzero"/><path fill="#f6a5b6" d="M 29.960938 26.074219 L 29.960938 40.335938 L 31.546875 40.335938 L 31.546875 26.867188 C 31.546875 26.429688 31.191406 26.074219 30.753906 26.074219 Z M 29.960938 26.074219 " fill-opacity="1" fill-rule="nonzero"/><path fill="#f6a5b6" d="M 30.984375 13.398438 C 30.410156 13.398438 29.828125 13.253906 29.296875 12.964844 L 28.8125 12.707031 C 29.117188 13.535156 29.550781 14.300781 30.105469 14.984375 L 40.171875 14.984375 C 39.507812 13.113281 37.730469 11.816406 35.703125 11.816406 L 33.972656 11.816406 C 33.667969 12.242188 33.277344 12.609375 32.816406 12.886719 C 32.246094 13.226562 31.617188 13.398438 30.984375 13.398438 Z M 30.984375 13.398438 " fill-opacity="1" fill-rule="nonzero"/><path fill="#f6a5b6" d="M 43.429688 34 C 43.429688 34.417969 43.347656 34.824219 43.1875 35.210938 C 43.027344 35.597656 42.800781 35.941406 42.5 36.238281 C 42.203125 36.535156 41.863281 36.765625 41.472656 36.925781 C 41.085938 37.085938 40.679688 37.167969 40.261719 37.167969 C 39.839844 37.167969 39.4375 37.085938 39.046875 36.925781 C 38.660156 36.765625 38.316406 36.535156 38.019531 36.238281 C 37.722656 35.941406 37.492188 35.597656 37.332031 35.210938 C 37.171875 34.824219 37.09375 34.417969 37.09375 34 C 37.09375 33.578125 37.171875 33.171875 37.332031 32.785156 C 37.492188 32.398438 37.722656 32.054688 38.019531 31.757812 C 38.316406 31.460938 38.660156 31.230469 39.046875 31.070312 C 39.4375 30.910156 39.839844 30.828125 40.261719 30.828125 C 40.679688 30.828125 41.085938 30.910156 41.472656 31.070312 C 41.863281 31.230469 42.203125 31.460938 42.5 31.757812 C 42.800781 32.054688 43.027344 32.398438 43.1875 32.785156 C 43.347656 33.171875 43.429688 33.578125 43.429688 34 Z M 43.429688 34 " fill-opacity="1" fill-rule="nonzero"/><path fill="#f6a5b6" d="M 33.128906 27.660156 L 33.128906 40.335938 L 47.390625 40.335938 L 47.390625 34.320312 C 47.390625 32.335938 46.515625 30.472656 44.996094 29.203125 C 43.800781 28.207031 42.285156 27.660156 40.730469 27.660156 Z M 45.015625 34 C 45.015625 36.621094 42.882812 38.75 40.261719 38.75 C 37.640625 38.75 35.507812 36.621094 35.507812 34 C 35.507812 31.375 37.640625 29.246094 40.261719 29.246094 C 42.882812 29.246094 45.015625 31.375 45.015625 34 Z M 45.015625 34 " fill-opacity="1" fill-rule="nonzero"/><path fill="#f6a5b6" d="M 31.808594 16.570312 L 32.019531 16.726562 C 32.238281 16.890625 32.359375 17.160156 32.335938 17.433594 C 32.3125 17.707031 32.144531 17.945312 31.898438 18.070312 L 28.730469 19.652344 C 28.617188 19.710938 28.496094 19.738281 28.378906 19.738281 C 28.105469 19.738281 27.84375 19.597656 27.699219 19.351562 L 26.953125 18.109375 C 26.574219 17.476562 26.257812 16.8125 26 16.128906 C 25.742188 16.8125 25.429688 17.476562 25.050781 18.109375 L 24.304688 19.351562 C 24.15625 19.597656 23.894531 19.738281 23.621094 19.738281 C 23.503906 19.738281 23.382812 19.710938 23.269531 19.652344 L 20.101562 18.070312 C 19.855469 17.945312 19.691406 17.707031 19.664062 17.433594 C 19.640625 17.160156 19.757812 16.890625 19.980469 16.726562 L 20.191406 16.570312 L 11.457031 16.570312 L 9.546875 26.265625 C 10.109375 26.144531 10.6875 26.074219 11.269531 26.074219 L 19.015625 26.074219 C 19.34375 25.15625 20.214844 24.492188 21.246094 24.492188 L 30.753906 24.492188 C 31.785156 24.492188 32.65625 25.15625 32.984375 26.074219 L 40.730469 26.074219 C 41.316406 26.074219 41.890625 26.144531 42.457031 26.265625 L 40.546875 16.570312 Z M 31.808594 16.570312 " fill-opacity="1" fill-rule="nonzero"/><path fill="#f6a5b6" d="M 46.597656 23.699219 L 46.597656 20.53125 C 46.597656 20.09375 46.242188 19.738281 45.808594 19.738281 L 42.785156 19.738281 L 43.722656 24.492188 L 45.808594 24.492188 C 46.242188 24.492188 46.597656 24.136719 46.597656 23.699219 Z M 46.597656 23.699219 " fill-opacity="1" fill-rule="nonzero"/><path fill="#f6a5b6" d="M 30.046875 11.570312 C 30.675781 11.910156 31.386719 11.890625 32 11.527344 C 32.707031 11.105469 33.128906 10.324219 33.128906 9.4375 C 33.128906 8.550781 32.707031 7.769531 32 7.347656 C 31.386719 6.984375 30.675781 6.964844 30.046875 7.304688 L 28.796875 7.980469 C 29.027344 8.417969 29.167969 8.910156 29.167969 9.4375 C 29.167969 9.96875 29.027344 10.460938 28.796875 10.898438 Z M 30.046875 11.570312 " fill-opacity="1" fill-rule="nonzero"/><g clip-path="url(#ca5996bff5)"><path fill="#f6a5b6" d="M 7.777344 47.464844 C 7.777344 47.902344 8.132812 48.257812 8.570312 48.257812 L 14.910156 48.257812 C 15.347656 48.257812 15.699219 47.902344 15.699219 47.464844 L 15.699219 45.089844 L 7.777344 45.089844 Z M 7.777344 47.464844 " fill-opacity="1" fill-rule="nonzero"/></g><path fill="#f6a5b6" d="M 23.1875 12.707031 L 22.707031 12.964844 C 22.171875 13.253906 21.59375 13.398438 21.015625 13.398438 C 20.382812 13.398438 19.753906 13.226562 19.1875 12.886719 C 18.722656 12.609375 18.332031 12.242188 18.03125 11.816406 L 16.300781 11.816406 C 14.269531 11.816406 12.492188 13.113281 11.828125 14.984375 L 21.894531 14.984375 C 22.449219 14.300781 22.886719 13.535156 23.1875 12.707031 Z M 23.1875 12.707031 " fill-opacity="1" fill-rule="nonzero"/><g clip-path="url(#37c47520f2)"><path fill="#f6a5b6" d="M 36.300781 47.464844 C 36.300781 47.902344 36.65625 48.257812 37.09375 48.257812 L 43.429688 48.257812 C 43.867188 48.257812 44.222656 47.902344 44.222656 47.464844 L 44.222656 45.089844 L 36.300781 45.089844 Z M 36.300781 47.464844 " fill-opacity="1" fill-rule="nonzero"/></g><path fill="#f6a5b6" d="M 20 11.527344 C 20.613281 11.894531 21.328125 11.910156 21.953125 11.574219 L 23.203125 10.898438 C 22.972656 10.460938 22.832031 9.96875 22.832031 9.4375 C 22.832031 8.910156 22.972656 8.417969 23.203125 7.976562 L 21.953125 7.304688 C 21.328125 6.964844 20.613281 6.984375 20 7.347656 C 19.292969 7.769531 18.871094 8.550781 18.871094 9.4375 C 18.871094 10.324219 19.292969 11.105469 20 11.527344 Z M 20 11.527344 " fill-opacity="1" fill-rule="nonzero"/><path fill="#f6a5b6" d="M 3.023438 41.921875 L 48.976562 41.921875 L 48.976562 43.503906 L 3.023438 43.503906 Z M 3.023438 41.921875 " fill-opacity="1" fill-rule="nonzero"/><path fill="#f6a5b6" d="M 8.277344 24.492188 L 9.214844 19.738281 L 6.195312 19.738281 C 5.757812 19.738281 5.402344 20.09375 5.402344 20.53125 L 5.402344 23.699219 C 5.402344 24.136719 5.757812 24.492188 6.195312 24.492188 Z M 8.277344 24.492188 " fill-opacity="1" fill-rule="nonzero"/><path fill="#f6a5b6" d="M 27.585938 9.4375 C 27.585938 9.648438 27.542969 9.851562 27.464844 10.042969 C 27.382812 10.238281 27.269531 10.410156 27.121094 10.558594 C 26.972656 10.707031 26.800781 10.820312 26.605469 10.902344 C 26.414062 10.980469 26.210938 11.023438 26 11.023438 C 25.789062 11.023438 25.589844 10.980469 25.394531 10.902344 C 25.199219 10.820312 25.027344 10.707031 24.878906 10.558594 C 24.730469 10.410156 24.617188 10.238281 24.535156 10.042969 C 24.457031 9.851562 24.414062 9.648438 24.414062 9.4375 C 24.414062 9.226562 24.457031 9.027344 24.535156 8.832031 C 24.617188 8.636719 24.730469 8.464844 24.878906 8.316406 C 25.027344 8.167969 25.199219 8.054688 25.394531 7.972656 C 25.589844 7.894531 25.789062 7.855469 26 7.855469 C 26.210938 7.855469 26.414062 7.894531 26.605469 7.972656 C 26.800781 8.054688 26.972656 8.167969 27.121094 8.316406 C 27.269531 8.464844 27.382812 8.636719 27.464844 8.832031 C 27.542969 9.027344 27.585938 9.226562 27.585938 9.4375 Z M 27.585938 9.4375 " fill-opacity="1" fill-rule="nonzero"/><path fill="#f6a5b6" d="M 23.691406 17.292969 C 24.566406 15.832031 25.078125 14.183594 25.183594 12.488281 C 25.101562 12.464844 25.019531 12.441406 24.941406 12.410156 C 24.445312 14.28125 23.402344 15.957031 21.933594 17.214844 L 23.320312 17.90625 Z M 23.691406 17.292969 " fill-opacity="1" fill-rule="nonzero"/><path fill="#f6a5b6" d="M 28.679688 17.90625 L 30.066406 17.214844 C 28.597656 15.957031 27.554688 14.28125 27.058594 12.410156 C 26.980469 12.441406 26.898438 12.464844 26.816406 12.488281 C 26.921875 14.183594 27.433594 15.832031 28.308594 17.292969 Z M 28.679688 17.90625 " fill-opacity="1" fill-rule="nonzero"/><g clip-path="url(#673c5aed49)"><path fill="#f6a5b6" d="M 48.742188 2.074219 C 48.386719 1.714844 47.898438 1.515625 47.390625 1.515625 C 46.882812 1.515625 46.398438 1.714844 46.039062 2.074219 L 45.015625 3.101562 L 43.988281 2.074219 C 43.632812 1.714844 43.144531 1.515625 42.636719 1.515625 C 42.128906 1.515625 41.644531 1.714844 41.285156 2.074219 C 40.628906 2.730469 40.261719 3.621094 40.261719 4.546875 L 40.261719 4.683594 C 40.261719 5.699219 40.664062 6.671875 41.382812 7.390625 L 45.015625 11.023438 L 48.648438 7.390625 C 49.363281 6.671875 49.769531 5.699219 49.769531 4.683594 L 49.769531 4.546875 C 49.769531 3.621094 49.398438 2.730469 48.742188 2.074219 Z M 48.742188 2.074219 " fill-opacity="1" fill-rule="nonzero"/></g><g clip-path="url(#7a10115c43)"><path fill="#f6a5b6" d="M 6.984375 11.023438 L 10.621094 7.390625 C 11.335938 6.671875 11.738281 5.699219 11.738281 4.683594 L 11.738281 4.546875 C 11.738281 3.621094 11.371094 2.730469 10.714844 2.074219 C 10.355469 1.714844 9.871094 1.515625 9.363281 1.515625 C 8.855469 1.515625 8.371094 1.714844 8.011719 2.074219 L 6.984375 3.101562 L 5.960938 2.074219 C 5.601562 1.714844 5.117188 1.515625 4.609375 1.515625 C 4.101562 1.515625 3.617188 1.714844 3.257812 2.074219 C 2.601562 2.730469 2.234375 3.621094 2.234375 4.546875 L 2.234375 4.683594 C 2.234375 5.699219 2.636719 6.671875 3.351562 7.390625 Z M 6.984375 11.023438 " fill-opacity="1" fill-rule="nonzero"/></g></svg>