<svg xmlns="http://www.w3.org/2000/svg" xmlns:xlink="http://www.w3.org/1999/xlink" width="70" zoomAndPan="magnify" viewBox="0 0 52.5 52.499999" height="70" preserveAspectRatio="xMidYMid meet" version="1.0"><defs><clipPath id="700547aa1a"><path d="M 0 0 L 52.003906 0 L 52.003906 52.003906 L 0 52.003906 Z M 0 0 " clip-rule="nonzero"/></clipPath><clipPath id="de1b40fb4d"><path d="M 2.601562 5.199219 L 49.40625 5.199219 L 49.40625 43.832031 L 2.601562 43.832031 Z M 2.601562 5.199219 " clip-rule="nonzero"/></clipPath></defs><g clip-path="url(#700547aa1a)"><path fill="#ffffff" d="M 0 0 L 52.003906 0 L 52.003906 52.003906 L 0 52.003906 Z M 0 0 " fill-opacity="1" fill-rule="nonzero"/><path fill="#ffffff" d="M 0 0 L 52.003906 0 L 52.003906 52.003906 L 0 52.003906 Z M 0 0 " fill-opacity="1" fill-rule="nonzero"/></g><g clip-path="url(#de1b40fb4d)"><path fill="#f6a5b6" d="M 6.375 11.546875 L 7.28125 11.546875 L 7.28125 8.375 C 7.28125 8.042969 7.554688 7.773438 7.886719 7.773438 L 14.527344 7.773438 C 14.859375 7.773438 15.132812 8.042969 15.132812 8.375 L 15.132812 11.546875 L 17.429688 11.546875 C 18.210938 9.042969 19.109375 6.378906 21.800781 5.363281 C 24.386719 5.363281 26.972656 5.363281 29.554688 5.363281 C 32.539062 5.199219 33.839844 9.261719 34.582031 11.546875 L 45.628906 11.546875 C 47.703125 11.546875 49.402344 13.246094 49.402344 15.320312 L 49.402344 40.082031 C 49.402344 42.15625 47.703125 43.855469 45.628906 43.855469 L 6.375 43.855469 C 4.300781 43.855469 2.601562 42.15625 2.601562 40.082031 L 2.601562 15.320312 C 2.601562 13.246094 4.300781 11.546875 6.375 11.546875 Z M 13.320312 8.828125 L 13.320312 11.546875 L 13.925781 11.546875 L 13.925781 8.828125 Z M 12.714844 11.546875 L 12.714844 8.828125 L 12.113281 8.828125 L 12.113281 11.546875 Z M 11.507812 11.546875 L 11.507812 8.828125 L 10.90625 8.828125 L 10.90625 11.546875 Z M 10.300781 11.546875 L 10.300781 8.828125 L 9.695312 8.828125 L 9.695312 11.546875 Z M 9.09375 11.546875 L 9.09375 8.828125 L 8.488281 8.828125 L 8.488281 11.546875 Z M 22.078125 6.871094 C 27.109375 6.871094 29.625 6.871094 29.625 6.871094 C 30.832031 6.871094 31.925781 8.25 32.945312 11.402344 C 32.945312 11.402344 28.316406 11.402344 19.058594 11.402344 C 19.859375 8.839844 20.863281 7.328125 22.078125 6.871094 Z M 6.375 13.058594 L 45.628906 13.058594 C 46.875 13.058594 47.894531 14.074219 47.894531 15.320312 L 47.894531 40.082031 C 47.894531 41.328125 46.875 42.347656 45.628906 42.347656 L 6.375 42.347656 C 5.128906 42.347656 4.109375 41.328125 4.109375 40.082031 L 4.109375 15.320312 C 4.109375 14.074219 5.128906 13.058594 6.375 13.058594 Z M 6.375 13.058594 " fill-opacity="1" fill-rule="evenodd"/></g><path fill="#f6a5b6" d="M 36.871094 14.71875 L 42.910156 14.71875 L 42.910156 17.738281 L 36.871094 17.738281 Z M 37.476562 15.320312 L 42.308594 15.320312 L 42.308594 17.132812 L 37.476562 17.132812 Z M 37.476562 15.320312 " fill-opacity="1" fill-rule="evenodd"/><path fill="#f6a5b6" d="M 31.996094 19.550781 L 38.082031 19.550781 L 38.082031 20.152344 L 32.804688 20.152344 C 32.542969 19.9375 32.273438 19.738281 31.996094 19.550781 Z M 31.996094 19.550781 " fill-opacity="1" fill-rule="evenodd"/><path fill="#f6a5b6" d="M 3.960938 19.550781 L 20.160156 19.550781 C 19.878906 19.738281 19.609375 19.9375 19.351562 20.152344 L 3.960938 20.152344 Z M 3.960938 19.550781 " fill-opacity="1" fill-rule="evenodd"/><path fill="#f6a5b6" d="M 41.101562 19.550781 L 45.929688 19.550781 L 45.929688 20.152344 L 41.101562 20.152344 Z M 41.101562 19.550781 " fill-opacity="1" fill-rule="evenodd"/><path fill="#f6a5b6" d="M 32.175781 36.9375 L 45.78125 36.9375 L 45.78125 37.816406 L 30.6875 37.816406 C 31.210938 37.5625 31.707031 37.269531 32.175781 36.9375 Z M 32.175781 36.9375 " fill-opacity="1" fill-rule="evenodd"/><path fill="#f6a5b6" d="M 4.109375 36.9375 L 19.980469 36.9375 C 20.449219 37.269531 20.945312 37.5625 21.464844 37.816406 L 4.109375 37.816406 Z M 4.109375 36.9375 " fill-opacity="1" fill-rule="evenodd"/><path fill="#f6a5b6" d="M 26.078125 21.4375 C 29.871094 21.4375 32.945312 24.511719 32.945312 28.304688 C 32.945312 32.097656 29.871094 35.175781 26.078125 35.175781 C 22.285156 35.175781 19.207031 32.097656 19.207031 28.304688 C 19.207031 24.511719 22.285156 21.4375 26.078125 21.4375 Z M 26.078125 22.34375 C 29.371094 22.34375 32.042969 25.011719 32.042969 28.304688 C 32.042969 31.597656 29.371094 34.269531 26.078125 34.269531 C 22.785156 34.269531 20.113281 31.597656 20.113281 28.304688 C 20.113281 25.011719 22.785156 22.34375 26.078125 22.34375 Z M 26.078125 22.34375 " fill-opacity="1" fill-rule="evenodd"/><path fill="#f6a5b6" d="M 26.078125 17.738281 C 31.914062 17.738281 36.644531 22.46875 36.644531 28.304688 C 36.644531 34.140625 31.914062 38.875 26.078125 38.875 C 20.242188 38.875 15.511719 34.140625 15.511719 28.304688 C 15.511719 22.46875 20.242188 17.738281 26.078125 17.738281 Z M 26.078125 19.128906 C 31.144531 19.128906 35.253906 23.238281 35.253906 28.304688 C 35.253906 33.371094 31.144531 37.480469 26.078125 37.480469 C 21.011719 37.480469 16.902344 33.371094 16.902344 28.304688 C 16.902344 23.238281 21.011719 19.128906 26.078125 19.128906 Z M 26.078125 19.128906 " fill-opacity="1" fill-rule="evenodd"/><path fill="#f6a5b6" d="M 28.570312 24.855469 C 29.515625 24.855469 30.285156 25.621094 30.285156 26.570312 C 30.285156 27.515625 29.515625 28.285156 28.570312 28.285156 C 27.621094 28.285156 26.855469 27.515625 26.855469 26.570312 C 26.855469 25.621094 27.621094 24.855469 28.570312 24.855469 Z M 28.570312 25.078125 C 29.390625 25.078125 30.058594 25.746094 30.058594 26.570312 C 30.058594 27.390625 29.390625 28.058594 28.570312 28.058594 C 27.746094 28.058594 27.078125 27.390625 27.078125 26.570312 C 27.078125 25.746094 27.746094 25.078125 28.570312 25.078125 Z M 28.570312 25.078125 " fill-opacity="1" fill-rule="evenodd"/></svg>