<svg xmlns="http://www.w3.org/2000/svg" xmlns:xlink="http://www.w3.org/1999/xlink" width="70" zoomAndPan="magnify" viewBox="0 0 52.5 52.499999" height="70" preserveAspectRatio="xMidYMid meet" version="1.0"><defs><clipPath id="b8d5e96d4a"><path d="M 6.472656 4.40625 L 46.589844 4.40625 L 46.589844 46.753906 L 6.472656 46.753906 Z M 6.472656 4.40625 " clip-rule="nonzero"/></clipPath></defs><g clip-path="url(#b8d5e96d4a)"><path fill="#98996d" d="M 38.925781 13.457031 L 38.832031 13.554688 C 38.707031 13.625 38.605469 13.726562 38.542969 13.851562 L 37.550781 14.886719 C 37.453125 14.921875 37.363281 14.972656 37.285156 15.046875 C 37.207031 15.128906 37.15625 15.230469 37.125 15.332031 L 24.78125 28.1875 C 24.65625 28.316406 24.589844 28.488281 24.589844 28.667969 L 24.589844 43.382812 C 24.589844 43.746094 24.875 44.054688 25.246094 44.074219 L 35.339844 44.632812 C 35.539062 44.644531 35.695312 44.808594 35.695312 45.007812 C 35.695312 45.21875 35.527344 45.386719 35.316406 45.386719 L 12.472656 45.386719 C 12.265625 45.386719 12.097656 45.21875 12.097656 45.007812 C 12.097656 44.808594 12.25 44.644531 12.449219 44.632812 L 22.546875 44.074219 C 22.914062 44.054688 23.203125 43.746094 23.203125 43.382812 L 23.203125 28.667969 C 23.203125 28.488281 23.132812 28.316406 23.007812 28.1875 L 8.867188 13.457031 Z M 37.082031 5.820312 C 41.675781 5.820312 45.414062 9.558594 45.414062 14.152344 C 45.414062 18.742188 41.675781 22.480469 37.082031 22.480469 C 35.699219 22.480469 34.347656 22.136719 33.140625 21.488281 L 33.652344 20.953125 C 34.714844 21.488281 35.886719 21.785156 37.082031 21.785156 C 41.292969 21.785156 44.71875 18.363281 44.71875 14.152344 C 44.71875 9.941406 41.292969 6.515625 37.082031 6.515625 C 33.660156 6.515625 30.660156 8.820312 29.738281 12.070312 L 29.019531 12.070312 C 29.957031 8.457031 33.289062 5.820312 37.082031 5.820312 Z M 36.390625 20.351562 C 35.792969 20.285156 35.210938 20.136719 34.65625 19.90625 L 36.390625 18.105469 Z M 40.582031 19.324219 C 39.761719 19.878906 38.808594 20.242188 37.777344 20.355469 L 37.777344 16.925781 C 37.777344 16.847656 37.753906 16.773438 37.730469 16.703125 L 37.84375 16.589844 Z M 39.519531 14.84375 L 43.289062 14.84375 C 43.136719 16.21875 42.53125 17.457031 41.636719 18.414062 L 38.804688 15.585938 Z M 41.648438 9.902344 C 42.539062 10.859375 43.136719 12.089844 43.289062 13.457031 L 40.847656 13.457031 L 41.054688 13.242188 C 41.246094 13.042969 41.300781 12.746094 41.191406 12.492188 C 41.082031 12.234375 40.832031 12.070312 40.554688 12.070312 L 39.917969 12.070312 Z M 32.207031 10.257812 L 34.019531 12.070312 L 31.195312 12.070312 C 31.433594 11.402344 31.777344 10.792969 32.207031 10.257812 Z M 35.980469 12.070312 L 33.191406 9.273438 C 34.09375 8.550781 35.195312 8.082031 36.390625 7.945312 L 36.390625 12.070312 Z M 37.777344 12.070312 L 37.777344 7.945312 C 38.816406 8.0625 39.777344 8.429688 40.601562 8.992188 L 38.136719 12.070312 Z M 21.8125 28.949219 L 21.8125 42.722656 L 12.375 43.25 C 11.441406 43.300781 10.707031 44.074219 10.707031 45.007812 C 10.707031 45.980469 11.5 46.773438 12.472656 46.773438 L 35.316406 46.773438 C 36.292969 46.773438 37.082031 45.980469 37.082031 45.007812 C 37.082031 44.074219 36.351562 43.300781 35.414062 43.25 L 25.976562 42.722656 L 25.976562 28.949219 L 32.152344 22.519531 C 33.640625 23.398438 35.335938 23.867188 37.082031 23.867188 C 42.441406 23.867188 46.800781 19.507812 46.800781 14.152344 C 46.800781 8.792969 42.441406 4.433594 37.082031 4.433594 C 32.535156 4.433594 28.5625 7.679688 27.597656 12.070312 L 7.238281 12.070312 C 6.957031 12.070312 6.707031 12.234375 6.601562 12.492188 C 6.488281 12.746094 6.542969 13.042969 6.734375 13.242188 L 21.8125 28.949219 " fill-opacity="1" fill-rule="nonzero"/></g><path fill="#98996d" d="M 23.894531 25.964844 C 24.921875 25.964844 25.949219 25.574219 26.730469 24.792969 L 27.164062 24.359375 C 27.433594 24.085938 27.433594 23.648438 27.164062 23.378906 C 26.890625 23.105469 26.453125 23.105469 26.179688 23.378906 L 25.746094 23.8125 C 24.726562 24.832031 23.066406 24.832031 22.042969 23.8125 L 15.855469 17.621094 L 32.917969 17.621094 C 33.300781 17.621094 33.613281 17.308594 33.613281 16.925781 C 33.613281 16.542969 33.300781 16.234375 32.917969 16.234375 L 14.464844 16.234375 L 13.28125 15.046875 C 13.007812 14.777344 12.570312 14.777344 12.300781 15.046875 C 12.027344 15.320312 12.027344 15.757812 12.300781 16.03125 L 21.0625 24.792969 C 21.84375 25.574219 22.871094 25.964844 23.894531 25.964844 " fill-opacity="1" fill-rule="nonzero"/></svg>