<svg xmlns="http://www.w3.org/2000/svg" xmlns:xlink="http://www.w3.org/1999/xlink" width="70" zoomAndPan="magnify" viewBox="0 0 52.5 52.499999" height="70" preserveAspectRatio="xMidYMid meet" version="1.0"><defs><clipPath id="9e7fd4bfe6"><path d="M 2.871094 2.0625 L 48.933594 2.0625 L 48.933594 49.613281 L 2.871094 49.613281 Z M 2.871094 2.0625 " clip-rule="nonzero"/></clipPath></defs><path fill="#364236" d="M 38.355469 44.019531 L 38.355469 46.378906 C 38.355469 46.578125 38.515625 46.742188 38.71875 46.742188 L 42.347656 46.742188 C 42.546875 46.742188 42.710938 46.578125 42.710938 46.378906 L 42.710938 44.019531 C 42.710938 42.902344 41.800781 41.992188 40.6875 41.992188 L 40.378906 41.992188 C 39.261719 41.992188 38.355469 42.902344 38.355469 44.019531 Z M 39.082031 44.019531 C 39.082031 43.304688 39.664062 42.722656 40.378906 42.722656 L 40.6875 42.722656 C 41.402344 42.722656 41.980469 43.304688 41.980469 44.019531 L 41.980469 46.015625 L 39.082031 46.015625 Z M 39.082031 44.019531 " fill-opacity="1" fill-rule="nonzero"/><path fill="#364236" d="M 11.519531 41.992188 L 11.210938 41.992188 C 10.097656 41.992188 9.1875 42.902344 9.1875 44.019531 L 9.1875 46.378906 C 9.1875 46.578125 9.351562 46.742188 9.550781 46.742188 L 13.179688 46.742188 C 13.382812 46.742188 13.542969 46.578125 13.542969 46.378906 L 13.542969 44.019531 C 13.542969 42.902344 12.636719 41.992188 11.519531 41.992188 Z M 12.816406 46.015625 L 9.917969 46.015625 L 9.917969 44.019531 C 9.917969 43.304688 10.496094 42.722656 11.210938 42.722656 L 11.519531 42.722656 C 12.234375 42.722656 12.816406 43.304688 12.816406 44.019531 Z M 12.816406 46.015625 " fill-opacity="1" fill-rule="nonzero"/><g clip-path="url(#9e7fd4bfe6)"><path fill="#364236" d="M 3.484375 33.355469 L 6.328125 31.65625 L 6.328125 49.574219 C 6.328125 49.773438 6.492188 49.9375 6.691406 49.9375 L 45.152344 49.9375 C 45.355469 49.9375 45.515625 49.773438 45.515625 49.574219 L 45.515625 31.574219 L 48.515625 33.355469 C 48.574219 33.390625 48.636719 33.40625 48.699219 33.40625 C 48.824219 33.40625 48.945312 33.34375 49.015625 33.230469 C 49.117188 33.054688 49.058594 32.832031 48.886719 32.730469 L 34.132812 23.96875 L 34.132812 15.4375 L 37.179688 17.339844 C 37.238281 17.378906 37.304688 17.398438 37.371094 17.398438 C 37.492188 17.398438 37.609375 17.335938 37.679688 17.226562 C 37.785156 17.054688 37.734375 16.832031 37.566406 16.722656 L 33.964844 14.46875 L 32.421875 13.507812 L 26.308594 9.679688 L 26.308594 5.234375 L 28.558594 5.234375 C 28.757812 5.234375 28.921875 5.074219 28.921875 4.871094 C 28.921875 4.671875 28.757812 4.507812 28.558594 4.507812 L 26.308594 4.507812 L 26.308594 2.429688 C 26.308594 2.226562 26.144531 2.0625 25.945312 2.0625 C 25.742188 2.0625 25.578125 2.226562 25.578125 2.429688 L 25.578125 4.507812 L 23.328125 4.507812 C 23.128906 4.507812 22.964844 4.671875 22.964844 4.871094 C 22.964844 5.074219 23.128906 5.234375 23.328125 5.234375 L 25.578125 5.234375 L 25.578125 9.726562 L 14.351562 16.648438 C 14.179688 16.753906 14.125 16.976562 14.230469 17.148438 C 14.335938 17.320312 14.5625 17.371094 14.730469 17.265625 L 17.710938 15.429688 L 17.710938 24 L 3.109375 32.730469 C 2.9375 32.835938 2.882812 33.058594 2.984375 33.230469 C 3.089844 33.402344 3.3125 33.460938 3.484375 33.355469 Z M 25.621094 49.207031 L 22.359375 49.207031 L 22.359375 45.804688 C 22.359375 44.003906 23.820312 42.535156 25.621094 42.519531 Z M 29.609375 49.207031 L 26.347656 49.207031 L 26.347656 42.519531 C 28.148438 42.535156 29.609375 44.003906 29.609375 45.804688 Z M 34.132812 24.851562 L 44.789062 31.222656 L 44.789062 49.207031 L 36.265625 49.207031 L 36.265625 32.917969 L 38.800781 34.433594 C 38.859375 34.46875 38.925781 34.484375 38.988281 34.484375 C 39.113281 34.484375 39.234375 34.421875 39.300781 34.308594 C 39.402344 34.136719 39.347656 33.910156 39.175781 33.808594 L 36.089844 31.964844 L 34.132812 30.792969 Z M 18.441406 14.980469 L 25.804688 10.445312 L 25.984375 10.335938 L 32.367188 14.332031 L 33.40625 14.980469 L 33.40625 30.359375 L 26.109375 25.992188 C 25.996094 25.925781 25.851562 25.925781 25.734375 25.992188 L 18.441406 30.359375 Z M 21.5 29.378906 L 25.921875 26.730469 L 30.347656 29.378906 L 35.539062 32.480469 L 35.539062 49.207031 L 30.335938 49.207031 L 30.335938 45.804688 C 30.335938 43.59375 28.535156 41.792969 26.324219 41.792969 L 25.644531 41.792969 C 23.433594 41.792969 21.632812 43.59375 21.632812 45.804688 L 21.632812 49.207031 L 16.308594 49.207031 L 16.308594 32.480469 Z M 7.058594 31.222656 L 17.710938 24.851562 L 17.710938 30.792969 L 15.757812 31.964844 L 12.671875 33.808594 C 12.5 33.910156 12.441406 34.136719 12.546875 34.308594 C 12.648438 34.480469 12.871094 34.535156 13.042969 34.433594 L 15.578125 32.917969 L 15.578125 49.207031 L 7.058594 49.207031 Z M 7.058594 31.222656 " fill-opacity="1" fill-rule="nonzero"/></g><path fill="#364236" d="M 24.054688 33.351562 L 25.578125 33.351562 L 25.578125 36.625 C 25.578125 36.828125 25.742188 36.992188 25.945312 36.992188 C 26.144531 36.992188 26.308594 36.828125 26.308594 36.625 L 26.308594 33.351562 L 27.832031 33.351562 C 28.035156 33.351562 28.199219 33.191406 28.199219 32.988281 C 28.199219 32.789062 28.035156 32.625 27.832031 32.625 L 26.308594 32.625 L 26.308594 31.222656 C 26.308594 31.023438 26.144531 30.859375 25.945312 30.859375 C 25.742188 30.859375 25.578125 31.023438 25.578125 31.222656 L 25.578125 32.625 L 24.054688 32.625 C 23.851562 32.625 23.691406 32.789062 23.691406 32.988281 C 23.691406 33.191406 23.851562 33.351562 24.054688 33.351562 Z M 24.054688 33.351562 " fill-opacity="1" fill-rule="nonzero"/><path fill="#364236" d="M 25.933594 23.414062 C 26.042969 23.410156 26.148438 23.386719 26.25 23.347656 C 26.421875 23.273438 26.59375 23.191406 26.792969 23.078125 C 27.03125 22.945312 27.265625 22.796875 27.484375 22.636719 C 28.859375 21.625 29.527344 20.472656 29.410156 19.304688 C 29.316406 18.371094 28.558594 17.632812 27.644531 17.589844 C 27.234375 17.570312 26.808594 17.714844 26.421875 18.007812 C 26.234375 18.148438 26.066406 18.304688 25.921875 18.472656 C 25.777344 18.304688 25.609375 18.148438 25.425781 18.007812 C 25.035156 17.714844 24.613281 17.570312 24.199219 17.589844 C 23.289062 17.632812 22.53125 18.371094 22.4375 19.304688 C 22.320312 20.472656 22.984375 21.625 24.359375 22.636719 C 24.578125 22.796875 24.8125 22.945312 25.050781 23.074219 C 25.253906 23.191406 25.421875 23.273438 25.597656 23.347656 C 25.699219 23.390625 25.808594 23.414062 25.921875 23.414062 C 25.925781 23.414062 25.929688 23.414062 25.933594 23.414062 Z M 25.402344 22.4375 C 25.191406 22.324219 24.984375 22.191406 24.792969 22.050781 C 23.984375 21.457031 23.046875 20.511719 23.160156 19.378906 C 23.21875 18.808594 23.691406 18.34375 24.234375 18.316406 C 24.246094 18.316406 24.261719 18.316406 24.273438 18.316406 C 24.5625 18.316406 24.820312 18.464844 24.988281 18.589844 C 25.183594 18.738281 25.355469 18.910156 25.484375 19.089844 C 25.585938 19.234375 25.75 19.320312 25.921875 19.320312 C 25.921875 19.320312 25.925781 19.320312 25.925781 19.320312 C 26.101562 19.316406 26.265625 19.230469 26.367188 19.089844 C 26.492188 18.910156 26.664062 18.738281 26.859375 18.589844 C 27.035156 18.457031 27.308594 18.304688 27.613281 18.316406 C 28.15625 18.34375 28.628906 18.808594 28.683594 19.378906 C 28.796875 20.511719 27.859375 21.457031 27.054688 22.050781 C 26.859375 22.191406 26.65625 22.324219 26.441406 22.441406 C 26.261719 22.539062 26.117188 22.613281 25.96875 22.675781 C 25.953125 22.679688 25.9375 22.683594 25.925781 22.683594 C 25.910156 22.683594 25.894531 22.679688 25.878906 22.675781 C 25.730469 22.613281 25.585938 22.539062 25.402344 22.4375 Z M 25.402344 22.4375 " fill-opacity="1" fill-rule="nonzero"/></svg>