<svg xmlns="http://www.w3.org/2000/svg" xmlns:xlink="http://www.w3.org/1999/xlink" width="70" zoomAndPan="magnify" viewBox="0 0 52.5 52.499999" height="70" preserveAspectRatio="xMidYMid meet" version="1.0"><defs><clipPath id="da2b0db3bb"><path d="M 5.667969 9 L 46.527344 9 L 46.527344 42 L 5.667969 42 Z M 5.667969 9 " clip-rule="nonzero"/></clipPath><clipPath id="8c0131c53c"><path d="M 33 42 L 35 42 L 35 45.320312 L 33 45.320312 Z M 33 42 " clip-rule="nonzero"/></clipPath><clipPath id="e785f8872e"><path d="M 15 5.199219 L 17 5.199219 L 17 8 L 15 8 Z M 15 5.199219 " clip-rule="nonzero"/></clipPath></defs><path fill="#364236" d="M 33.96875 26.726562 C 33.296875 24.546875 31.0625 23.25 28.835938 23.738281 C 28.097656 23.898438 27.414062 24.25 26.851562 24.753906 L 25.910156 25.597656 C 25.703125 25.78125 25.414062 25.832031 25.160156 25.730469 L 23.984375 25.257812 C 23.28125 24.976562 22.519531 24.882812 21.769531 24.980469 C 19.511719 25.285156 17.859375 27.269531 17.96875 29.546875 C 18.050781 31.160156 18.765625 32.679688 19.96875 33.761719 C 22.332031 35.886719 24.75 37.636719 27.238281 38.9375 C 27.652344 39.152344 28.15625 39.0625 28.472656 38.722656 C 30.367188 36.648438 32.039062 34.171875 33.535156 31.371094 C 34.292969 29.945312 34.445312 28.269531 33.96875 26.726562 Z M 24.859375 35.164062 C 24.808594 35.265625 24.703125 35.328125 24.597656 35.328125 C 24.554688 35.328125 24.511719 35.320312 24.46875 35.300781 C 24.324219 35.226562 24.265625 35.054688 24.335938 34.910156 L 28.855469 25.632812 C 28.925781 25.488281 29.101562 25.429688 29.246094 25.5 C 29.390625 25.570312 29.449219 25.742188 29.378906 25.886719 Z M 31.886719 27.46875 L 28.867188 33.667969 C 28.816406 33.769531 28.714844 33.832031 28.605469 33.832031 C 28.5625 33.832031 28.519531 33.824219 28.476562 33.804688 C 28.332031 33.730469 28.273438 33.558594 28.34375 33.414062 L 31.363281 27.214844 C 31.433594 27.070312 31.609375 27.007812 31.753906 27.082031 C 31.898438 27.152344 31.957031 27.324219 31.886719 27.46875 Z M 31.886719 27.46875 " fill-opacity="1" fill-rule="nonzero"/><path fill="#364236" d="M 26.199219 12.050781 L 20.25 13.097656 C 20.140625 13.117188 20.082031 13.253906 20.121094 13.382812 L 20.921875 15.757812 C 20.957031 15.859375 21.042969 15.917969 21.128906 15.902344 L 26.335938 14.984375 C 26.421875 14.96875 26.480469 14.882812 26.480469 14.78125 L 26.417969 12.269531 C 26.414062 12.136719 26.308594 12.03125 26.199219 12.050781 Z M 26.199219 12.050781 " fill-opacity="1" fill-rule="nonzero"/><g clip-path="url(#da2b0db3bb)"><path fill="#364236" d="M 46.242188 33.378906 L 43.289062 16.625 C 43.105469 15.574219 42.097656 14.871094 41.050781 15.054688 L 19.589844 18.839844 L 17.222656 12.792969 C 17.105469 12.492188 17.128906 12.15625 17.285156 11.875 C 17.445312 11.59375 17.71875 11.398438 18.039062 11.339844 L 27.675781 9.640625 C 28.027344 9.582031 28.347656 9.660156 28.585938 9.863281 C 28.820312 10.066406 28.945312 10.371094 28.9375 10.726562 L 28.816406 15.8125 C 28.8125 15.972656 28.9375 16.109375 29.101562 16.109375 C 29.101562 16.109375 29.105469 16.109375 29.109375 16.109375 C 29.265625 16.109375 29.394531 15.984375 29.398438 15.828125 L 29.523438 10.738281 C 29.535156 10.207031 29.335938 9.738281 28.964844 9.417969 C 28.59375 9.101562 28.101562 8.976562 27.578125 9.066406 L 17.9375 10.769531 C 17.445312 10.855469 17.023438 11.152344 16.777344 11.589844 C 16.535156 12.023438 16.5 12.539062 16.679688 13.003906 L 19.003906 18.941406 L 14.609375 19.71875 L 14.4375 18.742188 C 14.296875 17.949219 13.539062 17.421875 12.75 17.558594 L 9.457031 18.140625 C 8.667969 18.277344 8.136719 19.035156 8.277344 19.828125 L 8.449219 20.804688 L 7.324219 21 C 6.816406 21.089844 6.371094 21.375 6.074219 21.796875 C 5.777344 22.21875 5.664062 22.730469 5.753906 23.242188 L 8.710938 39.996094 C 8.875 40.933594 9.695312 41.59375 10.613281 41.59375 C 10.726562 41.59375 10.839844 41.582031 10.949219 41.5625 L 18.214844 40.285156 C 18.371094 40.253906 18.476562 40.105469 18.449219 39.945312 C 18.421875 39.789062 18.269531 39.683594 18.113281 39.710938 L 10.847656 40.992188 C 10.117188 41.121094 9.414062 40.628906 9.285156 39.894531 L 7.160156 27.851562 L 13.222656 26.78125 C 13.382812 26.753906 13.488281 26.601562 13.460938 26.445312 C 13.433594 26.285156 13.28125 26.179688 13.125 26.207031 L 7.058594 27.277344 L 6.332031 23.140625 C 6.269531 22.785156 6.347656 22.425781 6.554688 22.132812 C 6.761719 21.835938 7.070312 21.640625 7.425781 21.578125 L 41.152344 15.628906 C 41.886719 15.5 42.585938 15.992188 42.714844 16.726562 L 43.445312 20.863281 L 37.359375 21.9375 C 37.199219 21.964844 37.09375 22.113281 37.121094 22.273438 C 37.144531 22.414062 37.269531 22.515625 37.40625 22.515625 C 37.425781 22.515625 37.441406 22.511719 37.457031 22.507812 L 43.546875 21.4375 L 45.671875 33.480469 C 45.734375 33.835938 45.652344 34.191406 45.445312 34.488281 C 45.238281 34.785156 44.929688 34.980469 44.574219 35.042969 L 35.335938 36.671875 C 36.648438 34.800781 37.335938 32.570312 37.292969 30.238281 C 37.191406 24.28125 32.3125 19.503906 26.375 19.503906 C 26.3125 19.503906 26.25 19.503906 26.1875 19.503906 C 23.269531 19.554688 20.546875 20.738281 18.519531 22.835938 C 16.492188 24.933594 15.402344 27.695312 15.453125 30.613281 C 15.554688 36.570312 20.433594 41.347656 26.371094 41.347656 C 26.433594 41.347656 26.496094 41.347656 26.5625 41.347656 C 29.480469 41.296875 32.203125 40.113281 34.230469 38.015625 C 34.433594 37.800781 34.632812 37.582031 34.816406 37.355469 L 44.675781 35.617188 C 45.183594 35.527344 45.628906 35.242188 45.925781 34.820312 C 46.21875 34.398438 46.332031 33.886719 46.242188 33.378906 Z M 9.023438 20.703125 L 8.851562 19.726562 C 8.765625 19.25 9.085938 18.796875 9.5625 18.714844 L 12.851562 18.132812 C 13.328125 18.050781 13.78125 18.367188 13.863281 18.84375 L 14.035156 19.820312 Z M 33.808594 37.613281 C 31.890625 39.597656 29.3125 40.71875 26.550781 40.765625 C 26.492188 40.765625 26.429688 40.769531 26.371094 40.769531 C 20.753906 40.769531 16.132812 36.246094 16.035156 30.605469 C 15.988281 27.84375 17.019531 25.230469 18.9375 23.242188 C 20.855469 21.253906 23.433594 20.136719 26.195312 20.089844 C 26.253906 20.085938 26.316406 20.085938 26.375 20.085938 C 31.996094 20.085938 36.613281 24.609375 36.710938 30.25 C 36.757812 33.011719 35.726562 35.625 33.808594 37.613281 Z M 33.808594 37.613281 " fill-opacity="1" fill-rule="nonzero"/></g><path fill="#364236" d="M 41.332031 40.683594 L 39.34375 39.816406 C 39.195312 39.75 39.023438 39.816406 38.960938 39.964844 C 38.894531 40.113281 38.960938 40.285156 39.109375 40.347656 L 41.097656 41.21875 C 41.136719 41.234375 41.175781 41.242188 41.214844 41.242188 C 41.324219 41.242188 41.433594 41.175781 41.480469 41.066406 C 41.546875 40.921875 41.476562 40.75 41.332031 40.683594 Z M 41.332031 40.683594 " fill-opacity="1" fill-rule="nonzero"/><g clip-path="url(#8c0131c53c)"><path fill="#364236" d="M 34.066406 43.125 C 34.027344 42.96875 33.871094 42.875 33.714844 42.914062 C 33.558594 42.953125 33.460938 43.109375 33.5 43.265625 L 34.023438 45.371094 C 34.054688 45.503906 34.171875 45.59375 34.304688 45.59375 C 34.328125 45.59375 34.351562 45.589844 34.375 45.582031 C 34.53125 45.546875 34.625 45.386719 34.585938 45.230469 Z M 34.066406 43.125 " fill-opacity="1" fill-rule="nonzero"/></g><path fill="#364236" d="M 9.246094 10.78125 L 11.300781 11.464844 C 11.332031 11.476562 11.363281 11.480469 11.394531 11.480469 C 11.515625 11.480469 11.628906 11.402344 11.667969 11.28125 C 11.71875 11.128906 11.636719 10.964844 11.484375 10.914062 L 9.429688 10.226562 C 9.277344 10.175781 9.109375 10.257812 9.058594 10.410156 C 9.007812 10.5625 9.09375 10.730469 9.246094 10.78125 Z M 9.246094 10.78125 " fill-opacity="1" fill-rule="nonzero"/><g clip-path="url(#e785f8872e)"><path fill="#364236" d="M 16.257812 7.695312 C 16.300781 7.816406 16.414062 7.890625 16.535156 7.890625 C 16.566406 7.890625 16.597656 7.886719 16.628906 7.875 C 16.78125 7.820312 16.863281 7.65625 16.808594 7.503906 L 16.101562 5.453125 C 16.046875 5.300781 15.882812 5.222656 15.730469 5.273438 C 15.578125 5.328125 15.496094 5.492188 15.550781 5.644531 Z M 16.257812 7.695312 " fill-opacity="1" fill-rule="nonzero"/></g></svg>