<svg xmlns="http://www.w3.org/2000/svg" xmlns:xlink="http://www.w3.org/1999/xlink" width="200" zoomAndPan="magnify" viewBox="0 0 150 30.000001" height="40" preserveAspectRatio="xMidYMid meet" version="1.2"><defs><clipPath id="c80baf1efb"><path d="M 23 1.480469 L 32 1.480469 L 32 18 L 23 18 Z M 23 1.480469 "/></clipPath><clipPath id="c386a72f05"><path d="M 20 1.480469 L 32 1.480469 L 32 21 L 20 21 Z M 20 1.480469 "/></clipPath><clipPath id="b472a7d82c"><path d="M 18.308594 1.480469 L 32 1.480469 L 32 23 L 18.308594 23 Z M 18.308594 1.480469 "/></clipPath><clipPath id="919beef7f0"><path d="M 26 1.480469 L 32 1.480469 L 32 15 L 26 15 Z M 26 1.480469 "/></clipPath><clipPath id="4bb81ad9f7"><path d="M 28 1.480469 L 43 1.480469 L 43 23 L 28 23 Z M 28 1.480469 "/></clipPath><clipPath id="a5e1b41337"><path d="M 88 9 L 124 9 L 124 27.609375 L 88 27.609375 Z M 88 9 "/></clipPath><clipPath id="f1454fc615"><path d="M 128 6 L 131.535156 6 L 131.535156 9 L 128 9 Z M 128 6 "/></clipPath></defs><g id="ab31d41332"><g clip-rule="nonzero" clip-path="url(#c80baf1efb)"><path style=" stroke:none;fill-rule:evenodd;fill:#01313d;fill-opacity:1;" d="M 31.75 15.585938 L 26.300781 15.585938 C 25.695312 15.585938 25.5 15.214844 25.5 14.707031 C 25.5 14.296875 25.496094 1.804688 25.496094 1.804688 L 23.582031 1.804688 L 23.582031 16.46875 C 23.582031 17.082031 24.113281 17.488281 24.507812 17.488281 L 31.75 17.488281 Z M 31.75 15.585938 "/></g><g clip-rule="nonzero" clip-path="url(#c386a72f05)"><path style=" stroke:none;fill-rule:evenodd;fill:#01313d;fill-opacity:1;" d="M 31.75 18.214844 L 31.75 20.125 L 22.074219 20.125 C 21.414062 20.125 20.953125 19.628906 20.953125 18.992188 C 20.960938 18.242188 20.953125 1.800781 20.953125 1.800781 L 22.863281 1.800781 L 22.863281 17.03125 C 22.863281 17.699219 23.152344 18.214844 23.96875 18.214844 Z M 31.75 18.214844 "/></g><g clip-rule="nonzero" clip-path="url(#b472a7d82c)"><path style=" stroke:none;fill-rule:evenodd;fill:#01313d;fill-opacity:1;" d="M 18.308594 1.800781 L 20.226562 1.800781 L 20.226562 19.527344 C 20.226562 20.167969 20.550781 20.847656 21.488281 20.847656 L 31.75 20.847656 L 31.75 22.75 L 20.589844 22.75 C 19.316406 22.75 18.308594 21.699219 18.308594 20.441406 Z M 18.308594 1.800781 "/></g><g clip-rule="nonzero" clip-path="url(#919beef7f0)"><path style=" stroke:none;fill-rule:evenodd;fill:#01313d;fill-opacity:1;" d="M 26.214844 1.800781 L 28.132812 1.800781 L 28.132812 12.210938 C 28.132812 12.589844 28.304688 12.949219 28.847656 12.949219 L 31.75 12.949219 L 31.75 14.859375 L 27.1875 14.859375 C 26.488281 14.859375 26.214844 14.414062 26.214844 13.910156 Z M 26.214844 1.800781 "/></g><path style=" stroke:none;fill-rule:evenodd;fill:#01313d;fill-opacity:1;" d="M 28.859375 8.96875 L 34.308594 8.96875 C 34.914062 8.96875 35.109375 9.339844 35.109375 9.847656 C 35.109375 10.257812 35.113281 22.75 35.113281 22.75 L 37.027344 22.75 L 37.027344 8.085938 C 37.027344 7.472656 36.492188 7.066406 36.101562 7.066406 L 28.859375 7.066406 Z M 28.859375 8.96875 "/><path style=" stroke:none;fill-rule:evenodd;fill:#01313d;fill-opacity:1;" d="M 28.855469 6.339844 L 28.855469 4.429688 L 38.53125 4.429688 C 39.195312 4.429688 39.652344 4.925781 39.652344 5.5625 C 39.648438 6.3125 39.652344 22.75 39.652344 22.75 L 37.746094 22.75 L 37.746094 7.523438 C 37.746094 6.855469 37.453125 6.339844 36.640625 6.339844 Z M 28.855469 6.339844 "/><g clip-rule="nonzero" clip-path="url(#4bb81ad9f7)"><path style=" stroke:none;fill-rule:evenodd;fill:#01313d;fill-opacity:1;" d="M 42.296875 22.75 L 40.378906 22.75 L 40.378906 5.027344 C 40.378906 4.386719 40.058594 3.707031 39.117188 3.707031 L 28.855469 3.707031 L 28.855469 1.800781 L 40.019531 1.800781 C 41.292969 1.800781 42.296875 2.855469 42.296875 4.113281 Z M 42.296875 22.75 "/></g><path style=" stroke:none;fill-rule:evenodd;fill:#01313d;fill-opacity:1;" d="M 34.394531 22.75 L 32.476562 22.75 L 32.476562 12.34375 C 32.476562 11.964844 32.304688 11.605469 31.757812 11.605469 L 28.859375 11.605469 L 28.859375 9.695312 L 33.417969 9.695312 C 34.121094 9.695312 34.394531 10.140625 34.394531 10.644531 Z M 34.394531 22.75 "/><path style=" stroke:none;fill-rule:evenodd;fill:#01313d;fill-opacity:1;" d="M 86.304688 13.695312 C 86.304688 13.039062 86.796875 12.515625 87.449219 12.515625 L 89.164062 12.515625 L 89.164062 10.589844 L 87.132812 10.589844 C 85.589844 10.589844 84.367188 11.835938 84.367188 13.375 L 84.367188 22.75 L 86.304688 22.75 Z M 86.304688 13.695312 "/><path style=" stroke:none;fill-rule:evenodd;fill:#01313d;fill-opacity:1;" d="M 56.191406 10.554688 L 58.128906 10.554688 L 58.128906 22.75 L 56.191406 22.75 Z M 56.191406 10.554688 "/><g clip-rule="nonzero" clip-path="url(#a5e1b41337)"><path style=" stroke:none;fill-rule:evenodd;fill:#01313d;fill-opacity:1;" d="M 95.359375 11.894531 C 97.855469 11.894531 99.886719 13.921875 99.886719 16.410156 C 99.886719 18.902344 97.855469 20.933594 95.359375 20.933594 C 92.863281 20.933594 90.832031 18.902344 90.832031 16.410156 C 90.832031 13.921875 92.863281 11.894531 95.359375 11.894531 Z M 106.355469 11.894531 C 108.855469 11.894531 110.886719 13.921875 110.886719 16.410156 C 110.886719 18.902344 108.855469 20.933594 106.355469 20.933594 C 103.859375 20.933594 101.828125 18.902344 101.828125 16.410156 C 101.828125 13.921875 103.859375 11.894531 106.355469 11.894531 Z M 117.355469 11.894531 C 119.855469 11.894531 121.882812 13.921875 121.882812 16.410156 C 121.882812 18.902344 119.855469 20.933594 117.355469 20.933594 C 114.859375 20.933594 112.828125 18.902344 112.828125 16.410156 C 112.828125 13.921875 114.859375 11.894531 117.355469 11.894531 Z M 88.898438 27.425781 L 90.851562 27.425781 L 90.851562 21.027344 C 92.011719 22.160156 93.601562 22.859375 95.359375 22.859375 C 97.683594 22.859375 99.722656 21.632812 100.859375 19.796875 C 101.996094 21.632812 104.035156 22.859375 106.355469 22.859375 C 108.679688 22.859375 110.722656 21.632812 111.855469 19.796875 C 112.996094 21.632812 115.03125 22.859375 117.355469 22.859375 C 120.925781 22.859375 123.816406 19.972656 123.816406 16.410156 C 123.816406 12.851562 120.925781 9.964844 117.355469 9.964844 C 115.03125 9.964844 112.996094 11.191406 111.855469 13.027344 C 110.722656 11.191406 108.679688 9.964844 106.355469 9.964844 C 104.035156 9.964844 101.996094 11.191406 100.859375 13.027344 C 99.722656 11.191406 97.683594 9.964844 95.359375 9.964844 C 91.792969 9.964844 88.898438 12.851562 88.898438 16.410156 Z M 88.898438 27.425781 "/></g><path style=" stroke:none;fill-rule:evenodd;fill:#01313d;fill-opacity:1;" d="M 76.953125 11.824219 C 78.902344 11.824219 80.671875 13.0625 81.320312 14.992188 L 72.578125 14.992188 C 73.226562 13.0625 75.003906 11.824219 76.953125 11.824219 M 76.953125 22.792969 C 79.925781 22.792969 82.460938 20.792969 83.160156 17.921875 L 81.289062 17.921875 C 80.644531 19.761719 78.910156 21 76.953125 21 C 74.578125 21 72.601562 19.214844 72.367188 16.789062 L 83.34375 16.789062 L 83.34375 16.410156 C 83.34375 12.894531 80.476562 10.03125 76.953125 10.03125 C 73.425781 10.03125 70.558594 12.894531 70.558594 16.410156 C 70.558594 19.929688 73.425781 22.792969 76.953125 22.792969 "/><path style=" stroke:none;fill-rule:evenodd;fill:#01313d;fill-opacity:1;" d="M 66.292969 22.75 L 71.140625 10.554688 L 68.929688 10.554688 L 65.027344 20.371094 L 61.128906 10.554688 L 58.917969 10.554688 L 63.765625 22.75 Z M 66.292969 22.75 "/><path style=" stroke:none;fill-rule:evenodd;fill:#01313d;fill-opacity:1;" d="M 124.773438 6.371094 L 126.710938 6.371094 L 126.710938 22.75 L 124.773438 22.75 Z M 124.773438 6.371094 "/><path style=" stroke:none;fill-rule:evenodd;fill:#01313d;fill-opacity:1;" d="M 49.535156 6.375 L 49.535156 19.679688 C 49.539062 20.34375 49.921875 20.859375 50.679688 20.859375 L 55.4375 20.859375 L 55.4375 22.75 L 48.882812 22.746094 C 48.054688 22.746094 47.574219 22.242188 47.574219 21.511719 L 47.574219 6.375 Z M 49.535156 6.375 "/><g clip-rule="nonzero" clip-path="url(#f1454fc615)"><path style=" stroke:none;fill-rule:evenodd;fill:#01313d;fill-opacity:1;" d="M 130.203125 7.570312 C 130.375 7.570312 130.484375 7.503906 130.484375 7.363281 C 130.484375 7.238281 130.382812 7.160156 130.242188 7.160156 L 129.882812 7.160156 L 129.882812 7.570312 Z M 129.660156 6.972656 L 130.265625 6.972656 C 130.605469 6.972656 130.71875 7.183594 130.71875 7.332031 C 130.71875 7.554688 130.5625 7.710938 130.332031 7.726562 L 130.332031 7.734375 C 130.449219 7.773438 130.535156 7.890625 130.648438 8.074219 L 130.8125 8.339844 L 130.546875 8.339844 L 130.421875 8.125 C 130.25 7.820312 130.183594 7.757812 130.019531 7.757812 L 129.882812 7.757812 L 129.882812 8.339844 L 129.660156 8.339844 Z M 130.21875 6.574219 C 129.632812 6.574219 129.160156 7.046875 129.160156 7.636719 C 129.160156 8.222656 129.632812 8.699219 130.21875 8.699219 C 130.804688 8.699219 131.285156 8.222656 131.285156 7.636719 C 131.285156 7.046875 130.804688 6.574219 130.21875 6.574219 Z M 130.21875 8.910156 C 129.515625 8.910156 128.945312 8.339844 128.945312 7.636719 C 128.945312 6.929688 129.515625 6.367188 130.21875 6.367188 C 130.925781 6.367188 131.496094 6.929688 131.496094 7.636719 C 131.496094 8.339844 130.925781 8.910156 130.21875 8.910156 Z M 130.21875 8.910156 "/></g><path style=" stroke:none;fill-rule:evenodd;fill:#01313d;fill-opacity:1;" d="M 56.191406 6.375 L 58.128906 6.375 L 58.128906 8.328125 L 56.191406 8.328125 Z M 56.191406 6.375 "/></g></svg>