<svg xmlns="http://www.w3.org/2000/svg" xmlns:xlink="http://www.w3.org/1999/xlink" width="70" zoomAndPan="magnify" viewBox="0 0 52.5 52.499999" height="70" preserveAspectRatio="xMidYMid meet" version="1.0"><defs><clipPath id="f31d371377"><path d="M 15 17 L 39 17 L 39 50.667969 L 15 50.667969 Z M 15 17 " clip-rule="nonzero"/></clipPath><clipPath id="4d0bd6e43b"><path d="M 14.480469 4 L 39.738281 4 L 39.738281 37 L 14.480469 37 Z M 14.480469 4 " clip-rule="nonzero"/></clipPath><clipPath id="c32779d434"><path d="M 26 1.636719 L 28 1.636719 L 28 5 L 26 5 Z M 26 1.636719 " clip-rule="nonzero"/></clipPath></defs><g clip-path="url(#f31d371377)"><path fill="#c7c5d1" d="M 30.957031 29.699219 L 30.957031 19.855469 L 31.261719 19.855469 L 31.261719 17.804688 L 22.949219 17.804688 L 22.949219 19.855469 L 23.25 19.855469 L 23.25 29.699219 L 15.675781 36.605469 L 15.675781 49.730469 L 23.242188 49.730469 L 23.242188 49.71875 L 23.25 49.71875 L 23.25 49.730469 L 23.242188 49.730469 L 23.242188 50.371094 L 30.964844 50.371094 L 30.964844 49.730469 L 30.957031 49.730469 L 30.957031 49.71875 L 30.964844 49.71875 L 30.964844 49.730469 L 38.535156 49.730469 L 38.535156 36.605469 Z M 26.835938 45.554688 L 26.585938 45.554688 L 26.585938 44.804688 L 26.835938 44.804688 Z M 27.773438 45.554688 L 27.523438 45.554688 L 27.523438 44.804688 L 27.773438 44.804688 Z M 27.773438 45.554688 " fill-opacity="1" fill-rule="evenodd"/></g><path fill="#c5b3e0" d="M 25.976562 20.875 L 27.097656 20.4375 L 28.195312 20.824219 L 28.53125 21.722656 L 28.53125 26.429688 L 25.675781 26.429688 L 25.675781 21.707031 Z M 25.679688 32.691406 L 25.679688 37.417969 L 28.53125 37.417969 L 28.53125 32.707031 L 28.195312 31.8125 L 27.097656 31.425781 L 25.976562 31.863281 Z M 17.527344 38.296875 L 17.527344 45.089844 L 21.628906 45.089844 L 21.628906 38.320312 L 21.148438 37.03125 L 19.570312 36.476562 L 17.957031 37.105469 Z M 32.578125 38.296875 L 32.578125 45.089844 L 36.679688 45.089844 L 36.679688 38.320312 L 36.199219 37.03125 L 34.621094 36.476562 L 33.003906 37.105469 Z M 32.578125 38.296875 " fill-opacity="1" fill-rule="evenodd"/><path fill="#f8e8d9" d="M 25.488281 26.539062 L 28.722656 26.539062 L 28.722656 27.1875 L 25.488281 27.1875 Z M 25.488281 38.175781 L 28.722656 38.175781 L 28.722656 37.527344 L 25.488281 37.527344 Z M 17.257812 46.175781 L 21.902344 46.175781 L 21.902344 45.246094 L 17.257812 45.246094 Z M 32.304688 46.175781 L 36.953125 46.175781 L 36.953125 45.246094 L 32.304688 45.246094 Z M 32.304688 46.175781 " fill-opacity="1" fill-rule="evenodd"/><path fill="#82719b" d="M 24.894531 49.207031 L 24.894531 43.410156 C 24.894531 40.027344 29.316406 40.027344 29.316406 43.410156 L 29.316406 49.207031 Z M 28.417969 21.8125 L 28.417969 21.875 L 28.417969 21.863281 C 28.417969 21.847656 28.417969 21.828125 28.414062 21.8125 Z M 27.105469 20.296875 C 26.269531 20.296875 25.589844 20.976562 25.589844 21.8125 L 25.589844 26.546875 L 28.621094 26.546875 L 28.621094 21.8125 C 28.621094 20.976562 27.941406 20.296875 27.105469 20.296875 Z M 27.007812 26.316406 L 25.800781 26.316406 L 25.800781 24.957031 L 27.007812 24.957031 Z M 27.007812 24.851562 L 25.800781 24.851562 L 25.800781 23.53125 L 27.007812 23.53125 Z M 27.007812 23.335938 L 25.800781 23.335938 L 25.800781 21.980469 L 27.007812 21.980469 Z M 27.007812 21.875 L 25.800781 21.875 L 25.800781 21.816406 L 25.792969 21.816406 C 25.820312 21.148438 26.339844 20.605469 27.007812 20.554688 Z M 28.417969 26.316406 L 27.203125 26.316406 L 27.203125 24.957031 L 28.417969 24.957031 Z M 28.417969 24.851562 L 27.203125 24.851562 L 27.203125 23.53125 L 28.417969 23.53125 Z M 28.417969 23.335938 L 27.203125 23.335938 L 27.203125 21.980469 L 28.417969 21.980469 Z M 28.417969 21.875 L 27.203125 21.875 L 27.203125 20.554688 C 27.867188 20.605469 28.386719 21.148438 28.417969 21.8125 C 28.417969 21.828125 28.417969 21.847656 28.417969 21.863281 Z M 28.417969 32.851562 L 28.417969 32.859375 L 28.417969 32.800781 C 28.417969 32.816406 28.417969 32.835938 28.417969 32.851562 Z M 25.800781 32.800781 L 25.800781 32.859375 L 25.792969 32.859375 L 25.792969 32.851562 C 25.792969 32.835938 25.792969 32.816406 25.792969 32.800781 Z M 27.105469 31.28125 C 26.269531 31.285156 25.589844 31.960938 25.589844 32.796875 L 25.589844 37.535156 L 28.621094 37.535156 L 28.621094 32.796875 C 28.617188 31.960938 27.941406 31.285156 27.105469 31.28125 Z M 27.007812 37.304688 L 25.800781 37.304688 L 25.800781 35.945312 L 27.007812 35.945312 Z M 27.007812 35.839844 L 25.800781 35.839844 L 25.800781 34.519531 L 27.007812 34.519531 Z M 27.007812 34.324219 L 25.800781 34.324219 L 25.800781 32.96875 L 27.007812 32.96875 Z M 27.007812 32.859375 L 25.792969 32.859375 L 25.792969 32.851562 C 25.792969 32.835938 25.792969 32.816406 25.792969 32.800781 C 25.820312 32.132812 26.339844 31.589844 27.007812 31.542969 Z M 28.417969 37.300781 L 27.203125 37.304688 L 27.203125 35.945312 L 28.417969 35.945312 Z M 28.417969 35.839844 L 27.203125 35.839844 L 27.203125 34.519531 L 28.417969 34.519531 Z M 28.417969 34.324219 L 27.203125 34.324219 L 27.203125 32.96875 L 28.417969 32.96875 Z M 28.417969 32.859375 L 27.203125 32.859375 L 27.203125 31.539062 C 27.867188 31.59375 28.386719 32.132812 28.417969 32.800781 C 28.417969 32.816406 28.417969 32.832031 28.417969 32.851562 Z M 27.203125 31.398438 L 27.203125 31.539062 C 27.171875 31.539062 27.136719 31.539062 27.105469 31.539062 C 27.074219 31.539062 27.039062 31.539062 27.007812 31.539062 L 27.007812 31.398438 Z M 27.203125 31.398438 L 27.203125 31.539062 C 27.171875 31.539062 27.136719 31.539062 27.105469 31.539062 C 27.074219 31.539062 27.039062 31.539062 27.007812 31.539062 L 27.007812 31.398438 Z M 17.703125 38.453125 L 17.703125 38.539062 L 17.691406 38.539062 L 17.691406 38.523438 C 17.691406 38.5 17.691406 38.476562 17.695312 38.453125 Z M 19.582031 36.269531 C 18.378906 36.273438 17.402344 37.246094 17.398438 38.449219 L 17.398438 45.253906 L 21.761719 45.253906 L 21.761719 38.449219 C 21.753906 37.246094 20.78125 36.273438 19.578125 36.269531 Z M 19.4375 40.921875 L 19.4375 42.820312 L 17.703125 42.820312 L 17.703125 40.921875 Z M 17.703125 40.640625 L 17.703125 38.691406 L 19.4375 38.691406 L 19.4375 40.640625 Z M 17.695312 38.523438 C 17.695312 38.5 17.695312 38.476562 17.695312 38.453125 C 17.730469 37.496094 18.480469 36.71875 19.4375 36.644531 L 19.4375 38.539062 L 17.691406 38.539062 Z M 17.703125 42.972656 L 19.4375 42.972656 L 19.4375 44.925781 L 17.703125 44.925781 Z M 21.464844 44.921875 L 19.71875 44.925781 L 19.71875 42.972656 L 21.464844 42.972656 Z M 21.464844 42.820312 L 19.71875 42.820312 L 19.71875 40.921875 L 21.464844 40.921875 Z M 21.464844 40.640625 L 19.71875 40.640625 L 19.71875 38.691406 L 21.464844 38.691406 Z M 21.464844 38.539062 L 19.71875 38.539062 L 19.71875 36.644531 C 20.703125 36.71875 21.460938 37.535156 21.464844 38.523438 Z M 34.628906 36.269531 C 33.429688 36.273438 32.453125 37.246094 32.449219 38.449219 L 32.449219 45.253906 L 36.808594 45.253906 L 36.808594 38.449219 C 36.804688 37.246094 35.832031 36.273438 34.628906 36.269531 Z M 34.488281 44.925781 L 32.753906 44.925781 L 32.753906 42.972656 L 34.488281 42.972656 Z M 34.488281 42.820312 L 32.753906 42.820312 L 32.753906 40.921875 L 34.488281 40.921875 Z M 34.488281 40.640625 L 32.753906 40.640625 L 32.753906 38.691406 L 34.488281 38.691406 Z M 34.488281 38.539062 L 32.753906 38.539062 L 32.753906 38.453125 L 32.746094 38.453125 C 32.78125 37.496094 33.53125 36.71875 34.488281 36.644531 Z M 36.515625 44.921875 L 34.769531 44.925781 L 34.769531 42.972656 L 36.515625 42.972656 Z M 36.515625 42.820312 L 34.769531 42.820312 L 34.769531 40.921875 L 36.515625 40.921875 Z M 36.515625 40.640625 L 34.769531 40.640625 L 34.769531 38.691406 L 36.515625 38.691406 Z M 36.515625 38.539062 L 34.769531 38.539062 L 34.769531 36.644531 C 35.753906 36.71875 36.511719 37.535156 36.515625 38.523438 Z M 36.515625 38.539062 " fill-opacity="1" fill-rule="nonzero"/><g clip-path="url(#4d0bd6e43b)"><path fill="#8f7ea9" d="M 39.726562 36.605469 L 38.53125 36.605469 L 30.78125 29.539062 L 23.429688 29.539062 L 15.675781 36.605469 L 14.480469 36.605469 L 22.757812 29.121094 L 22.746094 29.121094 L 23.25 27.980469 L 30.957031 27.980469 L 31.464844 29.121094 L 31.453125 29.121094 Z M 29.96875 17.925781 L 27.105469 4.015625 L 24.242188 17.925781 Z M 29.96875 17.925781 " fill-opacity="1" fill-rule="evenodd"/></g><path fill="#f8e8d9" d="M 26.835938 45.554688 L 26.585938 45.554688 L 26.585938 44.804688 L 26.835938 44.804688 Z M 27.773438 44.804688 L 27.523438 44.804688 L 27.523438 45.554688 L 27.773438 45.554688 Z M 27.773438 44.804688 " fill-opacity="1" fill-rule="evenodd"/><path fill="#f8e8d9" d="M 23.25 18.015625 L 24.535156 18.015625 L 24.535156 49.730469 L 23.25 49.730469 Z M 29.671875 18.015625 L 30.957031 18.015625 L 30.957031 49.730469 L 29.671875 49.730469 Z M 29.671875 18.015625 " fill-opacity="1" fill-rule="evenodd"/><path fill="#f8e8d9" d="M 22.949219 17.804688 L 31.261719 17.804688 L 31.261719 19.855469 L 22.949219 19.855469 Z M 22.949219 17.804688 " fill-opacity="1" fill-rule="nonzero"/><g clip-path="url(#c32779d434)"><path fill="#f8e8d9" d="M 26.933594 1.636719 L 27.273438 1.636719 L 27.273438 4.863281 L 26.933594 4.863281 Z M 26.933594 1.636719 " fill-opacity="1" fill-rule="nonzero"/></g><path fill="#f8e8d9" d="M 25.773438 2.386719 L 28.441406 2.386719 L 28.441406 2.726562 L 25.773438 2.726562 Z M 25.773438 2.386719 " fill-opacity="1" fill-rule="nonzero"/></svg>