<svg xmlns="http://www.w3.org/2000/svg" xmlns:xlink="http://www.w3.org/1999/xlink" width="70" zoomAndPan="magnify" viewBox="0 0 52.5 52.499999" height="70" preserveAspectRatio="xMidYMid meet" version="1.0"><defs><clipPath id="6836aab446"><path d="M 20 6.828125 L 38 6.828125 L 38 35 L 20 35 Z M 20 6.828125 " clip-rule="nonzero"/></clipPath><clipPath id="92cad12a43"><path d="M 8 11 L 45 11 L 45 43.972656 L 8 43.972656 Z M 8 11 " clip-rule="nonzero"/></clipPath></defs><g clip-path="url(#6836aab446)"><path fill="#9b88b4" d="M 27.359375 13.988281 C 27.359375 14 27.335938 14 27.320312 13.988281 C 26.957031 12.898438 27.15625 11.511719 27.261719 10.382812 C 27.304688 9.800781 27.382812 9.226562 27.46875 8.640625 C 27.550781 8.085938 27.597656 7.460938 27.878906 6.96875 C 27.960938 6.828125 28.148438 6.902344 28.164062 7.050781 C 28.210938 7.578125 28.039062 8.140625 27.957031 8.660156 C 27.835938 9.304688 27.753906 9.960938 27.6875 10.601562 C 27.628906 11.199219 27.582031 11.792969 27.539062 12.398438 C 27.5 12.933594 27.515625 13.488281 27.359375 13.988281 Z M 30.164062 16.703125 C 31.066406 15.097656 31.910156 13.464844 32.847656 11.882812 C 33.324219 11.101562 33.816406 10.316406 34.347656 9.554688 C 34.863281 8.8125 35.445312 8.058594 35.816406 7.230469 C 35.855469 7.148438 35.757812 7.066406 35.691406 7.125 C 34.988281 7.730469 34.460938 8.550781 33.945312 9.324219 C 33.445312 10.09375 32.953125 10.875 32.484375 11.675781 C 31.550781 13.277344 30.691406 14.910156 30.066406 16.664062 C 30.058594 16.714844 30.140625 16.746094 30.164062 16.703125 Z M 34.152344 15.828125 C 35.273438 14.777344 36.519531 13.925781 37.71875 12.980469 C 37.785156 12.921875 37.695312 12.832031 37.621094 12.859375 C 36.234375 13.496094 35.0625 14.613281 34.101562 15.785156 C 34.078125 15.8125 34.117188 15.859375 34.152344 15.828125 Z M 25.582031 26.261719 C 25.195312 27.582031 24.753906 28.902344 24.300781 30.203125 C 24.09375 30.820312 23.851562 31.433594 23.636719 32.050781 C 23.414062 32.65625 23.054688 33.289062 22.996094 33.945312 C 22.980469 34.085938 23.183594 34.15625 23.265625 34.066406 C 23.660156 33.609375 23.839844 32.96875 24.046875 32.402344 C 24.292969 31.761719 24.515625 31.105469 24.726562 30.449219 C 25.160156 29.082031 25.464844 27.726562 25.71875 26.308594 C 25.726562 26.21875 25.605469 26.179688 25.582031 26.261719 Z M 26.785156 28.464844 C 26.746094 29.128906 26.925781 29.820312 27.066406 30.460938 C 27.210938 31.117188 27.335938 31.804688 27.648438 32.402344 C 27.730469 32.550781 28 32.484375 27.976562 32.304688 C 27.910156 31.671875 27.6875 31.066406 27.523438 30.449219 C 27.359375 29.785156 27.269531 29.066406 27.023438 28.425781 C 26.984375 28.300781 26.800781 28.320312 26.785156 28.464844 Z M 22.121094 28.203125 C 21.378906 28.597656 20.511719 29.113281 20.140625 29.910156 C 20.078125 30.039062 20.207031 30.203125 20.347656 30.121094 C 21.070312 29.6875 21.625 29.007812 22.300781 28.507812 C 22.472656 28.382812 22.332031 28.097656 22.121094 28.203125 Z M 21.707031 9.980469 C 21.9375 10.496094 22.21875 11.070312 22.609375 11.480469 C 22.667969 11.539062 22.773438 11.457031 22.726562 11.382812 C 22.421875 10.890625 22.0625 10.453125 21.78125 9.9375 C 21.75 9.882812 21.683594 9.9375 21.707031 9.980469 Z M 21.707031 9.980469 " fill-opacity="1" fill-rule="nonzero"/></g><g clip-path="url(#92cad12a43)"><path fill="#f5eee7" d="M 28.058594 16.039062 C 27.335938 18.386719 26.5625 20.632812 25.710938 22.800781 C 24.890625 24.867188 23.183594 26.597656 21.070312 27.292969 C 19.683594 27.746094 18.265625 27.6875 16.910156 27.277344 C 15.066406 32.28125 15.320312 32.035156 13.605469 36.964844 C 13.648438 37.003906 13.6875 37.035156 13.730469 37.070312 C 14.449219 37.691406 14.886719 38.660156 14.933594 39.605469 C 12.546875 38.921875 10.234375 38.003906 8.003906 36.921875 C 8.742188 36.160156 9.800781 35.71875 10.867188 35.808594 C 11.011719 35.824219 11.136719 35.832031 11.277344 35.855469 C 13.136719 30.910156 12.867188 31.253906 14.714844 26.308594 C 13.957031 25.859375 13.269531 25.316406 12.761719 24.601562 C 11.585938 22.9375 11.605469 20.722656 11.941406 18.707031 C 12.375 16.066406 13.253906 13.507812 14.523438 11.160156 C 17.984375 12.152344 25.933594 15.046875 28.058594 16.039062 Z M 26.882812 20.265625 C 27.417969 22.675781 28 24.964844 28.679688 27.195312 C 29.320312 29.320312 30.886719 31.179688 32.929688 32.042969 C 34.273438 32.601562 35.691406 32.675781 37.078125 32.371094 C 38.5 37.519531 38.0625 36.617188 39.367188 41.664062 C 39.320312 41.703125 39.269531 41.726562 39.238281 41.761719 C 38.480469 42.320312 37.964844 43.246094 37.835938 44.195312 C 40.269531 43.695312 42.65625 42.992188 44.953125 42.074219 C 44.273438 41.253906 43.261719 40.734375 42.195312 40.734375 C 42.050781 40.734375 41.925781 40.746094 41.785156 40.753906 C 40.335938 35.683594 40.792969 36.652344 39.335938 31.582031 C 40.121094 31.195312 40.859375 30.699219 41.417969 30.039062 C 42.730469 28.484375 42.878906 26.261719 42.714844 24.226562 C 42.492188 21.566406 41.933594 18.640625 40.859375 16.1875 C 37.332031 16.925781 29.082031 19.445312 26.882812 20.265625 Z M 26.882812 20.265625 " fill-opacity="1" fill-rule="nonzero"/></g><path fill="#c5b3e0" d="M 41.714844 26.449219 C 41.671875 27.957031 40.785156 29.382812 39.546875 30.238281 C 38.308594 31.105469 36.742188 31.433594 35.234375 31.335938 C 34.546875 31.289062 33.855469 31.171875 33.234375 30.886719 C 31.4375 30.082031 30.429688 28.164062 29.605469 26.367188 C 30.691406 25.808594 31.894531 26.039062 33.0625 26.351562 C 34.234375 26.667969 35.449219 27.097656 36.652344 26.914062 C 37.539062 26.769531 38.34375 26.308594 39.203125 26.003906 C 40.054688 25.703125 40.957031 25.972656 41.714844 26.449219 Z M 21.652344 22.101562 C 18.96875 23.046875 15.761719 21.519531 13.039062 22.332031 C 13.351562 23.429688 14.128906 24.367188 15.097656 24.988281 C 16.058594 25.605469 17.199219 25.921875 18.335938 26.003906 C 19.878906 26.105469 21.511719 25.777344 22.71875 24.800781 C 23.757812 23.957031 24.414062 22.675781 24.496094 21.339844 C 23.277344 21.421875 22.785156 21.707031 21.652344 22.101562 Z M 21.652344 22.101562 " fill-opacity="1" fill-rule="nonzero"/></svg>