<svg xmlns="http://www.w3.org/2000/svg" xmlns:xlink="http://www.w3.org/1999/xlink" width="70" zoomAndPan="magnify" viewBox="0 0 52.5 52.499999" height="70" preserveAspectRatio="xMidYMid meet" version="1.0"><defs><clipPath id="a717725d7f"><path d="M 1.914062 36.59375 L 50.089844 36.59375 L 50.089844 41.441406 L 1.914062 41.441406 Z M 1.914062 36.59375 " clip-rule="nonzero"/></clipPath><clipPath id="e98b88d57a"><path d="M 22 8.171875 L 30 8.171875 L 30 15 L 22 15 Z M 22 8.171875 " clip-rule="nonzero"/></clipPath></defs><g clip-path="url(#a717725d7f)"><path fill="#5e3023" d="M 48.171875 40.496094 L 3.828125 40.496094 C 3.292969 40.496094 2.859375 40.0625 2.859375 39.527344 L 2.859375 38.5625 C 2.859375 38.027344 3.292969 37.59375 3.828125 37.59375 C 3.851562 37.59375 3.871094 37.589844 3.890625 37.589844 C 3.933594 37.589844 4.007812 37.589844 4.054688 37.589844 C 4.074219 37.585938 4.089844 37.589844 4.105469 37.585938 L 48.121094 37.589844 C 48.136719 37.589844 48.152344 37.59375 48.171875 37.59375 C 48.707031 37.59375 49.140625 38.027344 49.140625 38.5625 L 49.140625 39.527344 C 49.140625 39.542969 49.144531 39.554688 49.144531 39.570312 C 49.121094 40.085938 48.695312 40.496094 48.171875 40.496094 Z M 50.085938 39.476562 L 50.085938 38.5625 C 50.085938 37.523438 49.257812 36.679688 48.230469 36.648438 C 48.210938 36.644531 48.191406 36.644531 48.171875 36.644531 L 4.105469 36.644531 C 4.09375 36.644531 4.078125 36.644531 4.0625 36.648438 L 4.0625 36.644531 C 3.976562 36.640625 3.898438 36.644531 3.828125 36.648438 C 2.773438 36.648438 1.914062 37.507812 1.914062 38.5625 L 1.914062 39.527344 C 1.914062 40.582031 2.773438 41.441406 3.828125 41.441406 L 48.171875 41.441406 C 49.226562 41.441406 50.089844 40.582031 50.089844 39.527344 C 50.089844 39.507812 50.089844 39.492188 50.085938 39.476562 " fill-opacity="1" fill-rule="nonzero"/></g><path fill="#5e3023" d="M 30.460938 25.871094 L 26 30.636719 L 21.539062 25.871094 C 21.160156 25.464844 20.949219 24.914062 20.949219 24.320312 C 20.949219 23.136719 21.820312 22.171875 22.890625 22.171875 C 23.734375 22.171875 24.246094 22.738281 24.835938 23.394531 L 25.113281 23.695312 C 25.3125 23.957031 25.617188 24.117188 25.945312 24.132812 C 26.285156 24.144531 26.59375 24.019531 26.816406 23.78125 C 26.816406 23.78125 26.820312 23.78125 26.820312 23.78125 L 27.5625 22.980469 C 27.773438 22.757812 27.789062 22.734375 27.855469 22.675781 C 28.203125 22.347656 28.648438 22.171875 29.109375 22.171875 C 29.871094 22.171875 30.523438 22.625 30.855469 23.382812 C 31.226562 24.242188 31.074219 25.21875 30.460938 25.871094 Z M 29.109375 21.226562 C 28.40625 21.226562 27.734375 21.496094 27.210938 21.984375 C 27.136719 22.050781 27.113281 22.074219 26.871094 22.339844 L 26.128906 23.136719 C 26.082031 23.1875 26.019531 23.191406 25.992188 23.191406 C 25.960938 23.191406 25.90625 23.179688 25.832031 23.085938 L 25.539062 22.765625 C 24.890625 22.042969 24.15625 21.226562 22.890625 21.226562 C 21.296875 21.226562 20.003906 22.613281 20.003906 24.320312 C 20.003906 25.15625 20.304688 25.933594 20.851562 26.519531 L 25.65625 31.648438 C 25.746094 31.746094 25.871094 31.800781 26 31.800781 C 26.132812 31.800781 26.257812 31.746094 26.347656 31.648438 L 31.152344 26.519531 C 32.019531 25.589844 32.242188 24.210938 31.71875 23.003906 C 31.246094 21.90625 30.246094 21.226562 29.109375 21.226562 " fill-opacity="1" fill-rule="nonzero"/><g clip-path="url(#e98b88d57a)"><path fill="#5e3023" d="M 26 9.117188 C 27.210938 9.117188 28.199219 10.105469 28.199219 11.316406 C 28.199219 12.527344 27.210938 13.515625 26 13.515625 C 24.785156 13.515625 23.800781 12.53125 23.800781 11.316406 C 23.800781 10.105469 24.785156 9.117188 26 9.117188 Z M 26 14.460938 C 27.734375 14.460938 29.144531 13.050781 29.144531 11.316406 C 29.144531 9.582031 27.734375 8.171875 26 8.171875 C 24.265625 8.171875 22.855469 9.582031 22.855469 11.316406 C 22.855469 13.050781 24.265625 14.460938 26 14.460938 " fill-opacity="1" fill-rule="nonzero"/></g><path fill="#5e3023" d="M 11.351562 21.820312 C 19.429688 13.746094 32.574219 13.746094 40.648438 21.820312 C 44.28125 25.457031 46.414062 30.246094 46.6875 35.355469 L 5.3125 35.355469 C 5.585938 30.246094 7.71875 25.457031 11.351562 21.820312 Z M 4.820312 36.296875 L 47.179688 36.296875 C 47.308594 36.296875 47.429688 36.246094 47.519531 36.15625 C 47.609375 36.0625 47.65625 35.941406 47.652344 35.8125 C 47.488281 30.28125 45.238281 25.074219 41.316406 21.152344 C 32.871094 12.707031 19.128906 12.707031 10.683594 21.152344 C 6.761719 25.074219 4.511719 30.28125 4.347656 35.8125 C 4.34375 35.941406 4.390625 36.0625 4.480469 36.15625 C 4.570312 36.246094 4.691406 36.296875 4.820312 36.296875 " fill-opacity="1" fill-rule="nonzero"/><path fill="#5e3023" d="M 31.398438 26.75 C 30.855469 27.332031 30.285156 27.96875 29.699219 28.617188 C 28.503906 29.945312 27.265625 31.320312 26.121094 32.394531 C 26.050781 32.460938 25.9375 32.457031 25.871094 32.386719 L 20.597656 26.75 C 19.988281 26.097656 19.652344 25.234375 19.652344 24.320312 C 19.652344 22.421875 21.105469 20.875 22.890625 20.875 C 23.675781 20.875 24.433594 21.179688 25.023438 21.730469 C 25.121094 21.824219 25.175781 21.886719 25.335938 22.054688 L 25.65625 22.394531 C 25.746094 22.492188 25.871094 22.546875 26 22.546875 C 26.128906 22.546875 26.253906 22.492188 26.34375 22.394531 L 26.664062 22.054688 C 26.824219 21.882812 26.878906 21.824219 26.976562 21.734375 C 27.566406 21.179688 28.324219 20.875 29.109375 20.875 C 30.894531 20.875 32.347656 22.421875 32.347656 24.320312 C 32.347656 25.234375 32.011719 26.097656 31.398438 26.75 Z M 29.109375 19.929688 C 28.085938 19.929688 27.097656 20.324219 26.332031 21.042969 C 26.226562 21.140625 26.160156 21.207031 26 21.382812 C 25.839844 21.210938 25.773438 21.144531 25.667969 21.042969 C 24.902344 20.324219 23.914062 19.929688 22.890625 19.929688 C 20.582031 19.929688 18.707031 21.898438 18.707031 24.320312 C 18.707031 25.476562 19.136719 26.566406 19.910156 27.394531 L 25.183594 33.03125 C 25.402344 33.265625 25.699219 33.386719 26 33.386719 C 26.273438 33.386719 26.550781 33.285156 26.765625 33.085938 C 27.9375 31.984375 29.191406 30.59375 30.402344 29.25 C 30.984375 28.605469 31.550781 27.972656 32.089844 27.394531 C 32.863281 26.566406 33.292969 25.476562 33.292969 24.320312 C 33.292969 21.898438 31.417969 19.929688 29.109375 19.929688 " fill-opacity="1" fill-rule="nonzero"/></svg>