<svg xmlns="http://www.w3.org/2000/svg" xmlns:xlink="http://www.w3.org/1999/xlink" width="70" zoomAndPan="magnify" viewBox="0 0 52.5 52.499999" height="70" preserveAspectRatio="xMidYMid meet" version="1.0"><path fill="#5e3023" d="M 22.105469 47.199219 C 21.75 46.925781 21.328125 46.898438 20.953125 46.761719 C 20.441406 46.578125 19.933594 46.390625 19.476562 46.09375 C 19.433594 46.066406 19.386719 46.027344 19.335938 46.019531 C 18.382812 45.898438 17.421875 45.785156 16.488281 46.050781 C 16.109375 46.160156 15.746094 46.210938 15.371094 46.152344 C 14.929688 46.085938 14.691406 45.753906 14.679688 45.242188 C 14.65625 44.320312 14.796875 43.410156 14.953125 42.503906 C 14.976562 42.371094 15.027344 42.246094 14.964844 42.09375 C 14.78125 42.054688 14.679688 42.199219 14.574219 42.304688 C 14.089844 42.777344 13.609375 43.257812 13.125 43.730469 C 13.011719 43.839844 12.945312 43.953125 12.945312 44.117188 C 12.9375 44.683594 13.011719 45.226562 13.332031 45.707031 C 13.488281 45.949219 13.542969 46.203125 13.507812 46.480469 C 13.460938 46.890625 13.035156 47.109375 12.703125 46.871094 C 11.84375 46.253906 11.085938 45.554688 10.871094 44.445312 C 10.804688 44.09375 10.65625 43.789062 10.433594 43.5 C 9.964844 42.886719 10.078125 42.457031 10.554688 41.855469 C 11.714844 40.40625 12.984375 39.054688 14.15625 37.621094 C 14.625 37.042969 15.089844 36.449219 15.636719 35.949219 C 16.289062 35.359375 16.226562 34.703125 15.996094 33.996094 C 15.703125 33.109375 15.386719 32.234375 15.082031 31.351562 C 14.746094 30.378906 14.5 29.382812 14.351562 28.363281 C 14.304688 28.054688 14.238281 27.734375 14.027344 27.5 C 13.449219 26.859375 13.46875 26.144531 13.664062 25.367188 C 13.964844 24.171875 14.394531 23.019531 14.867188 21.882812 C 15.132812 21.246094 15.214844 20.582031 15.246094 19.90625 C 15.300781 18.605469 15.152344 17.308594 15.160156 16.007812 C 15.167969 15.332031 15.207031 14.660156 15.3125 13.992188 C 15.363281 13.671875 15.378906 13.359375 15.167969 13.058594 C 14.957031 12.753906 14.988281 12.433594 15.199219 12.109375 C 15.398438 11.804688 15.632812 11.519531 15.726562 11.15625 C 15.777344 10.953125 15.945312 10.878906 16.128906 10.871094 C 16.574219 10.847656 17.023438 10.816406 17.445312 11.015625 C 17.898438 11.230469 18.378906 11.246094 18.832031 11.089844 C 19.40625 10.894531 19.652344 10.375 19.703125 9.824219 C 19.792969 8.925781 20.117188 8.160156 20.722656 7.496094 C 21.179688 6.992188 21.75 6.707031 22.402344 6.578125 C 22.9375 6.46875 23.417969 6.625 23.855469 6.9375 C 24.496094 7.394531 25.097656 7.898438 25.652344 8.457031 C 26.101562 8.914062 26.015625 9.332031 25.429688 9.605469 C 24.863281 9.871094 24.625 10.351562 24.644531 10.9375 C 24.660156 11.316406 24.566406 11.578125 24.253906 11.792969 C 23.925781 12.015625 23.6875 12.320312 23.523438 12.695312 C 23.328125 13.136719 23.023438 13.207031 22.59375 12.96875 C 22.546875 12.945312 22.503906 12.90625 22.457031 12.886719 C 22.285156 12.808594 22.09375 12.570312 21.941406 12.851562 C 21.808594 13.097656 21.726562 13.417969 22.023438 13.617188 C 22.363281 13.839844 22.734375 14.007812 23.085938 14.214844 C 23.609375 14.523438 24.039062 14.90625 23.984375 15.585938 C 23.96875 15.773438 23.875 15.949219 23.839844 16.132812 C 23.753906 16.558594 23.863281 16.65625 24.273438 16.542969 C 24.625 16.445312 24.898438 16.308594 25.007812 15.894531 C 25.164062 15.328125 25.46875 14.835938 25.980469 14.492188 C 26.296875 14.277344 26.265625 13.886719 26.285156 13.558594 C 26.316406 13.066406 26.390625 12.660156 26.796875 12.265625 C 27.058594 12.007812 27.273438 11.53125 27.140625 11.035156 C 26.972656 10.410156 27.125 9.820312 27.5 9.644531 C 28.027344 9.40625 28.46875 9.640625 28.871094 9.980469 C 29.03125 10.117188 29.160156 10.304688 29.402344 10.375 C 29.582031 10.175781 29.78125 10.007812 30.054688 9.933594 C 30.5625 9.792969 31.0625 9.65625 31.496094 10.097656 C 31.96875 10.578125 32.269531 11.101562 32.035156 11.8125 C 31.898438 12.222656 31.816406 12.648438 31.789062 13.082031 C 31.75 13.621094 31.472656 14 31.042969 14.316406 C 30.652344 14.605469 30.167969 14.742188 29.816406 15.097656 C 29.285156 15.640625 29.261719 15.871094 29.6875 16.503906 C 29.71875 16.550781 29.753906 16.589844 29.785156 16.636719 C 30.039062 17.015625 30.3125 17.3125 30.835938 17.054688 C 30.984375 16.980469 31.179688 16.992188 31.355469 16.984375 C 31.8125 16.960938 32.164062 17.242188 32.1875 17.683594 C 32.214844 18.238281 32.207031 18.800781 31.933594 19.308594 C 31.796875 19.5625 31.8125 19.785156 31.96875 20.027344 C 32.289062 20.527344 32.601562 21.042969 33.015625 21.46875 C 33.734375 22.210938 34.21875 23.097656 34.703125 23.992188 C 35.097656 24.71875 35.480469 25.449219 35.902344 26.160156 C 36.316406 26.859375 36.492188 27.632812 36.703125 28.398438 C 36.734375 28.503906 36.785156 28.652344 36.691406 28.707031 C 36.257812 28.941406 36.503906 29.234375 36.617188 29.496094 C 36.902344 30.167969 37.1875 30.839844 37.421875 31.53125 C 37.667969 32.253906 38.222656 32.761719 38.828125 33.171875 C 40.480469 34.292969 42.292969 34.976562 44.3125 35.078125 C 45.140625 35.121094 45.632812 35.714844 45.703125 36.53125 C 45.785156 37.441406 45.394531 38.167969 44.933594 38.867188 C 43.742188 40.679688 42.164062 42.074219 40.261719 43.109375 C 39.144531 43.71875 38 44.269531 36.792969 44.683594 C 36.121094 44.910156 35.554688 45.339844 34.90625 45.621094 C 34.316406 45.875 33.699219 45.992188 33.101562 46.191406 C 32.257812 46.472656 31.375 46.632812 30.554688 46.984375 C 28.394531 47.90625 26.144531 48.34375 23.796875 48.277344 C 23.566406 48.273438 23.335938 48.246094 23.113281 48.195312 C 22.757812 48.113281 22.449219 47.957031 22.351562 47.554688 C 22.316406 47.417969 22.226562 47.316406 22.105469 47.199219 M 30.566406 24.96875 C 30.816406 25.21875 31.050781 25.476562 31.246094 25.773438 C 31.386719 25.988281 31.566406 26.175781 31.804688 26.289062 C 32.21875 26.480469 32.546875 26.804688 32.691406 27.203125 C 32.984375 28.011719 33.71875 28.1875 34.367188 28.476562 C 34.691406 28.621094 34.871094 28.460938 34.917969 28.109375 C 34.949219 27.855469 34.945312 27.585938 35.019531 27.347656 C 35.128906 27 35.023438 26.742188 34.804688 26.496094 C 34.484375 26.144531 34.195312 25.765625 33.84375 25.449219 C 32.644531 24.363281 31.578125 23.179688 30.820312 21.726562 C 30.484375 21.085938 30.296875 21.085938 29.667969 21.507812 C 29.660156 21.648438 29.765625 21.769531 29.730469 21.929688 C 29.609375 22.484375 29.515625 23.050781 29.261719 23.558594 C 29.113281 23.859375 29.195312 23.992188 29.453125 24.132812 C 29.847656 24.34375 30.203125 24.617188 30.566406 24.96875 M 18.316406 40.9375 C 18.136719 41.863281 17.964844 42.792969 17.773438 43.714844 C 17.710938 44.003906 17.820312 44.191406 18.039062 44.335938 C 18.265625 44.480469 18.519531 44.507812 18.78125 44.5 C 19.011719 44.496094 19.113281 44.390625 19.148438 44.164062 C 19.519531 41.707031 19.902344 39.257812 20.273438 36.800781 C 20.292969 36.671875 20.359375 36.511719 20.167969 36.367188 C 19.753906 36.902344 19.269531 37.378906 19.0625 38.046875 C 18.773438 38.976562 18.554688 39.925781 18.316406 40.9375 M 21.070312 27.007812 C 21.105469 27.273438 21.121094 27.546875 21.1875 27.804688 C 21.246094 28.03125 21.195312 28.1875 21.046875 28.355469 C 20.660156 28.789062 20.710938 29.421875 21.152344 29.855469 C 21.371094 29.582031 21.320312 29.242188 21.371094 28.929688 C 21.511719 28.089844 21.8125 27.277344 21.851562 26.425781 C 21.894531 25.527344 22.148438 24.730469 22.714844 24.03125 C 22.847656 23.863281 22.78125 23.730469 22.628906 23.621094 C 22.332031 23.40625 22.023438 23.210938 21.742188 22.980469 C 21.414062 22.710938 21.332031 22.734375 21.21875 23.148438 C 20.871094 24.398438 20.957031 25.664062 21.070312 27.007812 M 24.484375 18.871094 C 24.429688 18.570312 24.257812 18.507812 23.984375 18.589844 C 23.707031 18.675781 23.550781 18.808594 23.585938 19.140625 C 23.679688 20.070312 24.324219 20.664062 24.878906 21.3125 C 24.929688 21.371094 25.015625 21.398438 25.121094 21.328125 C 25.246094 20.957031 25.121094 20.605469 24.980469 20.253906 C 24.808594 19.816406 24.554688 19.410156 24.484375 18.871094 Z M 24.484375 18.871094 " fill-opacity="1" fill-rule="nonzero"/></svg>