<svg xmlns="http://www.w3.org/2000/svg" xmlns:xlink="http://www.w3.org/1999/xlink" width="70" zoomAndPan="magnify" viewBox="0 0 52.5 52.499999" height="70" preserveAspectRatio="xMidYMid meet" version="1.0"><defs><clipPath id="b09e9d7587"><path d="M 2.863281 5.199219 L 48.917969 5.199219 L 48.917969 46.804688 L 2.863281 46.804688 Z M 2.863281 5.199219 " clip-rule="nonzero"/></clipPath><clipPath id="91007ff710"><path d="M 24 44 L 27 44 L 27 46.804688 L 24 46.804688 Z M 24 44 " clip-rule="nonzero"/></clipPath></defs><g clip-path="url(#b09e9d7587)"><path fill="#5e3023" d="M 48.554688 31.074219 C 48.457031 31.273438 48.3125 31.414062 48.09375 31.445312 C 47.851562 31.480469 47.605469 31.507812 47.359375 31.507812 C 45.347656 31.496094 43.335938 31.46875 41.324219 31.457031 C 40.175781 31.449219 39.027344 31.453125 37.882812 31.453125 C 37.792969 31.453125 37.703125 31.453125 37.574219 31.453125 C 37.796875 30.53125 37.769531 29.613281 37.820312 28.6875 C 37.9375 28.6875 38.035156 28.6875 38.132812 28.6875 C 40.757812 28.695312 43.378906 28.703125 46.003906 28.710938 C 46.449219 28.714844 46.894531 28.695312 47.335938 28.738281 C 47.609375 28.765625 47.875 28.878906 48.136719 28.976562 C 48.355469 29.0625 48.476562 29.269531 48.5625 29.472656 C 48.789062 30.003906 48.820312 30.539062 48.554688 31.074219 Z M 47.179688 32.191406 C 47.132812 32.664062 47.09375 33.140625 47.035156 33.617188 C 46.945312 34.335938 46.851562 35.054688 46.746094 35.773438 C 46.660156 36.367188 46.320312 36.777344 45.753906 36.992188 C 45.210938 37.203125 44.640625 37.285156 44.058594 37.300781 C 44.027344 37.300781 43.996094 37.292969 43.957031 37.285156 C 43.953125 37.035156 43.96875 36.789062 43.789062 36.546875 C 43.589844 36.769531 43.617188 37.042969 43.566406 37.300781 C 43.335938 37.300781 43.105469 37.320312 42.878906 37.296875 C 42.304688 37.246094 41.730469 37.183594 41.160156 37.109375 C 40.59375 37.039062 40.304688 36.675781 40.214844 36.144531 C 40.117188 35.535156 40.023438 34.925781 39.972656 34.308594 C 39.910156 33.605469 39.902344 32.894531 39.871094 32.183594 C 39.867188 32.105469 39.871094 32.023438 39.871094 31.929688 C 40.402344 31.929688 40.910156 31.929688 41.449219 31.929688 C 41.433594 32.027344 41.429688 32.09375 41.417969 32.15625 C 41.363281 32.460938 41.375 32.765625 41.40625 33.066406 C 41.410156 33.117188 41.425781 33.164062 41.441406 33.210938 C 41.472656 33.296875 41.53125 33.347656 41.628906 33.34375 C 41.726562 33.339844 41.777344 33.277344 41.792969 33.1875 C 41.855469 32.863281 41.867188 32.535156 41.824219 32.203125 C 41.8125 32.121094 41.800781 32.042969 41.789062 31.945312 C 42.445312 31.945312 43.082031 31.945312 43.710938 31.945312 C 43.710938 32.148438 43.707031 32.335938 43.710938 32.523438 C 43.714844 32.804688 43.722656 33.082031 43.730469 33.363281 C 43.730469 33.394531 43.726562 33.433594 43.746094 33.457031 C 43.785156 33.507812 43.835938 33.578125 43.878906 33.578125 C 43.9375 33.578125 44.027344 33.53125 44.050781 33.476562 C 44.097656 33.382812 44.117188 33.273438 44.121094 33.167969 C 44.128906 32.773438 44.125 32.378906 44.125 31.949219 C 44.636719 31.917969 45.183594 31.9375 45.761719 31.929688 C 45.75 32.078125 45.742188 32.207031 45.738281 32.335938 C 45.730469 32.558594 45.722656 32.78125 45.71875 33 C 45.714844 33.035156 45.726562 33.066406 45.730469 33.097656 C 45.75 33.195312 45.785156 33.277344 45.898438 33.28125 C 46.015625 33.285156 46.054688 33.203125 46.070312 33.109375 C 46.121094 32.816406 46.171875 32.523438 46.128906 32.222656 C 46.117188 32.144531 46.113281 32.0625 46.101562 31.945312 C 46.472656 31.964844 46.820312 31.984375 47.183594 32.003906 C 47.183594 32.078125 47.1875 32.136719 47.179688 32.191406 Z M 37.03125 28.003906 C 36.949219 28.105469 36.867188 28.117188 36.753906 28.117188 C 35.402344 28.105469 34.046875 28.097656 32.695312 28.085938 C 29.660156 28.058594 26.621094 28.035156 23.585938 28.007812 C 20.78125 27.984375 17.976562 27.960938 15.171875 27.9375 C 15.136719 27.9375 15.105469 27.9375 15.0625 27.9375 C 14.765625 27.480469 14.507812 27.476562 14.171875 27.914062 C 13.855469 27.914062 13.535156 27.917969 13.214844 27.910156 C 13.15625 27.910156 13.089844 27.875 13.039062 27.835938 C 12.949219 27.765625 12.859375 27.691406 12.78125 27.605469 C 12.230469 26.96875 11.6875 26.328125 11.136719 25.691406 C 11.039062 25.578125 11.011719 25.464844 11.035156 25.3125 C 11.207031 24.195312 10.574219 23.101562 9.523438 22.699219 C 9.375 22.644531 9.296875 22.558594 9.238281 22.421875 C 8.625 21.015625 8.386719 19.546875 8.523438 18.023438 C 8.660156 16.488281 9.347656 15.226562 10.464844 14.1875 C 10.546875 14.109375 10.660156 14.054688 10.765625 14.023438 C 11.59375 13.769531 12.414062 13.5 13.253906 13.285156 C 14.980469 12.839844 16.742188 12.574219 18.511719 12.375 C 21.378906 12.054688 24.253906 11.929688 27.132812 12.003906 C 28.503906 12.039062 29.871094 12.121094 31.234375 12.230469 C 32.449219 12.332031 33.664062 12.46875 34.871094 12.644531 C 37.050781 12.96875 39.191406 13.464844 41.28125 14.183594 C 41.730469 14.339844 42.054688 14.585938 42.335938 14.945312 C 43.222656 16.074219 43.605469 17.363281 43.605469 18.792969 C 43.601562 20.039062 43.355469 21.230469 42.871094 22.378906 C 42.804688 22.535156 42.71875 22.628906 42.554688 22.6875 C 41.496094 23.0625 40.84375 24.199219 41.039062 25.3125 C 41.0625 25.460938 41.046875 25.578125 40.949219 25.699219 C 40.402344 26.386719 39.832031 27.046875 39.195312 27.644531 C 39.0625 27.769531 38.9375 27.902344 38.816406 28.039062 C 38.75 28.113281 38.675781 28.140625 38.578125 28.136719 C 38.363281 28.128906 38.148438 28.128906 37.933594 28.132812 C 37.828125 28.136719 37.757812 28.097656 37.6875 28.011719 C 37.488281 27.78125 37.214844 27.773438 37.03125 28.003906 Z M 36.832031 31.441406 C 36.761719 31.445312 36.6875 31.453125 36.617188 31.453125 C 35.082031 31.449219 33.546875 31.441406 32.015625 31.4375 C 31.875 31.4375 31.789062 31.398438 31.707031 31.28125 C 31.082031 30.382812 30.28125 29.664062 29.363281 29.074219 C 29.105469 28.90625 28.816406 28.777344 28.542969 28.628906 C 28.542969 28.621094 28.542969 28.609375 28.542969 28.601562 C 31.328125 28.628906 34.113281 28.65625 36.925781 28.6875 C 36.9375 29.605469 36.957031 30.515625 36.832031 31.441406 Z M 29.523438 31.414062 C 29.398438 30.339844 28.878906 29.5 28.023438 28.863281 C 28.035156 28.847656 28.046875 28.832031 28.058594 28.820312 C 28.167969 28.863281 28.285156 28.898438 28.394531 28.945312 C 28.800781 29.128906 29.171875 29.375 29.519531 29.65625 C 30.089844 30.109375 30.609375 30.613281 31.054688 31.1875 C 31.105469 31.253906 31.148438 31.320312 31.21875 31.414062 C 30.628906 31.414062 30.085938 31.414062 29.523438 31.414062 Z M 27.738281 31.40625 C 27.777344 30.507812 27.796875 29.621094 27.347656 28.804688 C 28.183594 29.050781 29.132812 30.414062 29.160156 31.40625 C 28.679688 31.40625 28.222656 31.40625 27.738281 31.40625 Z M 27.324219 31.398438 C 26.742188 31.398438 26.167969 31.398438 25.550781 31.398438 C 25.597656 31.304688 25.636719 31.226562 25.675781 31.152344 C 25.949219 30.652344 26.171875 30.128906 26.261719 29.5625 C 26.308594 29.277344 26.339844 28.992188 26.378906 28.6875 C 26.421875 28.683594 26.484375 28.691406 26.546875 28.675781 C 26.851562 28.613281 27 28.789062 27.109375 29.03125 C 27.25 29.34375 27.324219 29.671875 27.355469 30.011719 C 27.394531 30.46875 27.40625 30.929688 27.324219 31.398438 Z M 25.039062 31.394531 C 24.578125 31.394531 24.125 31.394531 23.667969 31.394531 C 24.132812 30.597656 25.582031 28.671875 26.007812 28.589844 C 26.121094 29.046875 25.578125 30.621094 25.039062 31.394531 Z M 23.171875 31.234375 C 23.078125 31.363281 22.980469 31.40625 22.820312 31.40625 C 20.984375 31.394531 19.144531 31.390625 17.304688 31.386719 C 16.644531 31.382812 15.984375 31.382812 15.324219 31.378906 C 15.242188 31.378906 15.164062 31.371094 15.085938 31.367188 C 15.085938 30.394531 15.085938 29.453125 15.085938 28.523438 C 15.3125 28.46875 24.78125 28.53125 25.382812 28.589844 C 25.367188 28.621094 25.359375 28.652344 25.339844 28.667969 C 24.824219 29.113281 24.390625 29.628906 23.976562 30.167969 C 23.703125 30.519531 23.429688 30.871094 23.171875 31.234375 Z M 13.832031 31.371094 C 10.769531 31.367188 7.707031 31.363281 4.648438 31.355469 C 4.5 31.355469 4.34375 31.367188 4.207031 31.328125 C 3.734375 31.191406 3.53125 30.820312 3.476562 30.367188 C 3.414062 29.863281 3.515625 29.382812 3.734375 28.925781 C 3.792969 28.796875 3.882812 28.714844 4.007812 28.652344 C 4.4375 28.445312 4.894531 28.359375 5.375 28.367188 C 6.949219 28.390625 8.523438 28.410156 10.101562 28.429688 C 11.320312 28.445312 12.542969 28.457031 13.765625 28.46875 C 13.851562 28.472656 13.941406 28.46875 14.046875 28.46875 C 13.949219 29.460938 14.046875 30.394531 14.101562 31.359375 C 14.007812 31.363281 13.917969 31.371094 13.832031 31.371094 Z M 12.027344 35.976562 C 11.988281 36.183594 11.914062 36.386719 11.828125 36.582031 C 11.742188 36.789062 11.578125 36.9375 11.363281 36.996094 C 11.082031 37.066406 10.800781 37.140625 10.515625 37.167969 C 9.960938 37.226562 9.398438 37.253906 8.839844 37.292969 C 8.777344 37.296875 8.710938 37.285156 8.628906 37.28125 C 8.609375 37.011719 8.617188 36.761719 8.4375 36.535156 C 8.222656 36.746094 8.277344 37.007812 8.253906 37.277344 C 8.054688 37.265625 7.867188 37.265625 7.683594 37.246094 C 7.246094 37.203125 6.820312 37.117188 6.410156 36.949219 C 5.910156 36.742188 5.582031 36.378906 5.488281 35.839844 C 5.378906 35.191406 5.289062 34.539062 5.207031 33.886719 C 5.128906 33.246094 5.070312 32.605469 5.007812 31.96875 C 5.003906 31.9375 5.003906 31.90625 5.003906 31.863281 C 5.375 31.863281 5.734375 31.863281 6.078125 31.863281 C 6.078125 32.074219 6.070312 32.269531 6.082031 32.464844 C 6.089844 32.664062 6.113281 32.859375 6.136719 33.054688 C 6.148438 33.160156 6.1875 33.253906 6.3125 33.257812 C 6.414062 33.261719 6.484375 33.183594 6.484375 33.027344 C 6.484375 32.714844 6.46875 32.402344 6.457031 32.089844 C 6.457031 32.023438 6.445312 31.960938 6.433594 31.855469 C 7.003906 31.847656 7.554688 31.851562 8.121094 31.855469 C 8.105469 32.167969 8.078125 32.453125 8.078125 32.738281 C 8.074219 32.9375 8.101562 33.132812 8.117188 33.328125 C 8.125 33.375 8.136719 33.433594 8.167969 33.464844 C 8.210938 33.511719 8.28125 33.570312 8.324219 33.558594 C 8.378906 33.546875 8.457031 33.476562 8.464844 33.421875 C 8.492188 33.160156 8.511719 32.898438 8.511719 32.632812 C 8.511719 32.386719 8.484375 32.140625 8.46875 31.894531 C 8.636719 31.84375 10.046875 31.832031 10.425781 31.878906 C 10.414062 31.988281 10.410156 32.101562 10.386719 32.210938 C 10.328125 32.492188 10.367188 32.769531 10.398438 33.046875 C 10.417969 33.234375 10.484375 33.324219 10.589844 33.328125 C 10.695312 33.332031 10.785156 33.242188 10.796875 33.0625 C 10.8125 32.785156 10.808594 32.507812 10.804688 32.230469 C 10.804688 32.113281 10.777344 32 10.761719 31.871094 C 11.277344 31.871094 11.785156 31.871094 12.308594 31.871094 C 12.316406 31.921875 12.332031 31.964844 12.335938 32.011719 C 12.34375 33.34375 12.273438 34.667969 12.027344 35.976562 Z M 8.714844 22.839844 C 9.847656 22.867188 10.726562 23.777344 10.703125 24.902344 C 10.710938 25.957031 9.816406 27 8.558594 26.953125 C 7.445312 26.910156 6.558594 25.972656 6.585938 24.832031 C 6.609375 23.707031 7.570312 22.808594 8.714844 22.839844 Z M 4.171875 23.71875 C 4.300781 23.078125 4.457031 22.449219 4.695312 21.839844 C 5.050781 20.953125 5.570312 20.195312 6.378906 19.664062 C 6.773438 19.40625 7.191406 19.222656 7.671875 19.222656 C 7.730469 19.222656 7.785156 19.222656 7.875 19.222656 C 7.929688 20.359375 8.144531 21.449219 8.582031 22.515625 C 7.109375 22.667969 6.417969 23.691406 6.300781 24.664062 C 6.183594 25.613281 6.667969 26.605469 7.636719 27.082031 C 8.441406 27.476562 9.734375 27.503906 10.714844 26.238281 C 11.1875 26.777344 11.65625 27.3125 12.125 27.84375 C 12.117188 27.863281 12.113281 27.871094 12.109375 27.878906 C 12.105469 27.886719 12.097656 27.890625 12.09375 27.890625 C 9.445312 27.886719 6.796875 27.878906 4.148438 27.871094 C 4.105469 27.871094 4.066406 27.859375 4.003906 27.847656 C 3.972656 27.550781 3.929688 27.257812 3.90625 26.964844 C 3.820312 25.867188 3.957031 24.789062 4.171875 23.71875 Z M 13.253906 12.640625 C 14.449219 12.253906 15.667969 11.964844 16.910156 11.789062 C 18.265625 11.597656 19.625 11.421875 20.984375 11.261719 C 21.628906 11.1875 22.28125 11.144531 22.933594 11.105469 C 23.871094 11.054688 24.808594 11 25.75 10.980469 C 26.957031 10.960938 28.160156 11.011719 29.359375 11.128906 C 30.050781 11.191406 30.742188 11.21875 31.429688 11.296875 C 32.636719 11.4375 33.835938 11.59375 35.039062 11.761719 C 36.101562 11.910156 37.144531 12.148438 38.179688 12.4375 C 39.09375 12.695312 39.984375 13.015625 40.789062 13.539062 C 40.859375 13.582031 40.925781 13.628906 40.972656 13.710938 C 40.828125 13.664062 40.683594 13.617188 40.539062 13.566406 C 38.828125 13 37.070312 12.613281 35.292969 12.34375 C 34.027344 12.152344 32.761719 11.976562 31.488281 11.851562 C 28.972656 11.605469 26.449219 11.519531 23.921875 11.589844 C 22.726562 11.625 21.53125 11.664062 20.339844 11.753906 C 18.246094 11.90625 16.171875 12.183594 14.121094 12.636719 C 13.503906 12.773438 12.890625 12.9375 12.273438 13.09375 C 12.222656 13.105469 12.171875 13.113281 12.117188 13.125 C 12.113281 13.105469 12.109375 13.089844 12.101562 13.074219 C 12.484375 12.929688 12.863281 12.765625 13.253906 12.640625 Z M 37.828125 11.695312 C 37.511719 11.621094 37.210938 11.550781 36.90625 11.484375 C 35.820312 11.242188 34.71875 11.070312 33.613281 10.941406 C 32.867188 10.855469 32.125 10.757812 31.378906 10.695312 C 30.414062 10.613281 29.453125 10.566406 28.488281 10.503906 C 27.921875 10.46875 27.351562 10.4375 26.785156 10.390625 C 26.007812 10.328125 25.234375 10.363281 24.460938 10.417969 C 23.34375 10.496094 22.222656 10.566406 21.105469 10.65625 C 20.308594 10.722656 19.511719 10.804688 18.71875 10.910156 C 17.761719 11.039062 16.804688 11.167969 15.859375 11.347656 C 15.058594 11.5 14.273438 11.726562 13.480469 11.917969 C 13.386719 11.941406 13.292969 11.96875 13.164062 12.003906 C 13.371094 10.597656 13.648438 9.238281 14.003906 7.890625 C 14.589844 7.804688 15.15625 7.710938 15.726562 7.632812 C 16.5625 7.519531 17.394531 7.402344 18.230469 7.3125 C 19.140625 7.21875 20.054688 7.144531 20.964844 7.089844 C 22.339844 7.011719 23.71875 6.949219 25.09375 6.898438 C 26.511719 6.847656 27.929688 6.851562 29.351562 6.925781 C 30.917969 7.007812 32.46875 7.222656 34.003906 7.550781 C 35.082031 7.78125 36.164062 8.007812 37.242188 8.238281 C 37.316406 8.253906 37.386719 8.273438 37.484375 8.300781 C 37.609375 9.429688 37.820312 10.539062 37.828125 11.695312 Z M 13.335938 7.207031 C 14.136719 6.988281 14.941406 6.75 15.757812 6.550781 C 16.921875 6.261719 18.101562 6.078125 19.289062 5.9375 C 20.683594 5.769531 22.082031 5.671875 23.484375 5.625 C 24.925781 5.574219 26.371094 5.59375 27.8125 5.660156 C 29.785156 5.75 31.746094 5.945312 33.695312 6.246094 C 35.21875 6.484375 36.726562 6.796875 38.21875 7.1875 C 38.28125 7.207031 38.34375 7.226562 38.425781 7.25 C 38.542969 8.03125 38.683594 8.808594 38.726562 9.597656 C 38.773438 10.378906 38.785156 11.15625 38.8125 11.972656 C 38.566406 11.902344 38.355469 11.839844 38.183594 11.789062 C 38.140625 11.214844 38.109375 10.671875 38.058594 10.132812 C 38.011719 9.671875 37.953125 9.214844 37.882812 8.757812 C 37.851562 8.554688 37.773438 8.363281 37.726562 8.164062 C 37.691406 8.027344 37.601562 7.957031 37.46875 7.925781 C 37.085938 7.832031 36.707031 7.71875 36.320312 7.640625 C 35.082031 7.390625 33.847656 7.136719 32.605469 6.910156 C 31.558594 6.722656 30.5 6.625 29.433594 6.566406 C 28.066406 6.496094 26.699219 6.460938 25.328125 6.527344 C 24.035156 6.585938 22.738281 6.621094 21.445312 6.695312 C 19.855469 6.789062 18.269531 6.914062 16.695312 7.171875 C 15.785156 7.320312 14.875 7.476562 13.964844 7.621094 C 13.863281 7.636719 13.820312 7.699219 13.792969 7.773438 C 13.664062 8.132812 13.515625 8.480469 13.421875 8.847656 C 13.152344 9.917969 12.917969 11 12.820312 12.128906 C 12.597656 12.214844 12.382812 12.300781 12.148438 12.390625 C 12.449219 10.636719 12.917969 8.945312 13.335938 7.207031 Z M 41.300781 24.835938 C 41.324219 23.710938 42.28125 22.8125 43.425781 22.839844 C 44.5625 22.863281 45.441406 23.777344 45.417969 24.898438 C 45.429688 25.957031 44.53125 26.996094 43.277344 26.953125 C 42.164062 26.910156 41.277344 25.976562 41.300781 24.835938 Z M 44.210938 19.230469 C 44.566406 19.210938 44.894531 19.25 45.207031 19.390625 C 46.003906 19.75 46.59375 20.332031 47.027344 21.078125 C 47.40625 21.734375 47.628906 22.449219 47.800781 23.183594 C 48.03125 24.183594 48.210938 25.191406 48.203125 26.21875 C 48.199219 26.730469 48.132812 27.238281 48.09375 27.746094 C 48.074219 28.023438 47.898438 28.175781 47.65625 28.253906 C 47.554688 28.285156 47.445312 28.304688 47.339844 28.300781 C 44.996094 28.253906 42.65625 28.203125 40.3125 28.152344 C 40.140625 28.148438 39.96875 28.152344 39.792969 28.152344 C 39.78125 28.128906 39.769531 28.109375 39.757812 28.089844 C 40.289062 27.476562 40.824219 26.867188 41.375 26.234375 C 41.433594 26.304688 41.488281 26.371094 41.542969 26.4375 C 42.570312 27.6875 44.492188 27.59375 45.394531 26.25 C 46.234375 24.992188 45.648438 23.214844 44.214844 22.691406 C 44 22.613281 43.773438 22.570312 43.515625 22.5 C 43.933594 21.464844 44.164062 20.375 44.210938 19.230469 Z M 41.210938 41.015625 C 41.4375 40.976562 41.664062 40.929688 41.890625 40.890625 C 41.960938 40.878906 42.035156 40.871094 42.105469 40.863281 C 41.859375 41.109375 41.664062 41.363281 41.546875 41.667969 C 41.5 41.785156 41.402344 41.789062 41.308594 41.800781 C 40.828125 41.871094 40.347656 41.933594 39.867188 42.003906 C 39.582031 42.042969 39.300781 42.09375 39 42.144531 C 39.019531 41.851562 39.140625 41.617188 39.320312 41.414062 C 39.375 41.351562 39.476562 41.324219 39.5625 41.308594 C 40.113281 41.207031 40.664062 41.113281 41.210938 41.015625 Z M 43.722656 41.304688 C 43.941406 41.625 44.015625 41.855469 44.03125 42.371094 C 44.074219 42.773438 43.886719 43.148438 43.535156 43.433594 C 43.15625 43.738281 42.78125 43.777344 42.394531 43.457031 C 41.84375 43 41.507812 42.09375 42.140625 41.265625 C 42.585938 40.683594 43.300781 40.707031 43.722656 41.304688 Z M 42.148438 43.824219 C 41.359375 43.867188 40.566406 43.90625 39.777344 43.945312 C 39.769531 43.945312 39.761719 43.945312 39.753906 43.945312 C 39.371094 43.945312 39.304688 43.894531 39.171875 43.5 C 40.003906 43.335938 40.855469 43.320312 41.671875 43.207031 C 41.863281 43.40625 42.042969 43.59375 42.234375 43.792969 C 42.203125 43.804688 42.175781 43.824219 42.148438 43.824219 Z M 39.050781 43.269531 C 38.898438 42.996094 38.878906 42.710938 38.9375 42.425781 C 39.777344 42.292969 40.601562 42.160156 41.410156 42.035156 C 41.464844 42.347656 41.515625 42.667969 41.570312 43.007812 C 40.738281 43.046875 39.890625 43.070312 39.050781 43.269531 Z M 33.214844 42.125 C 33.273438 42.1875 33.332031 42.253906 33.402344 42.285156 C 33.460938 42.308594 33.554688 42.300781 33.605469 42.269531 C 33.671875 42.226562 33.664062 42.136719 33.617188 42.070312 C 33.554688 41.980469 33.484375 41.898438 33.417969 41.816406 C 33.304688 41.675781 33.191406 41.535156 33.066406 41.375 C 33.1875 41.316406 33.285156 41.265625 33.390625 41.210938 C 33.5625 41.464844 33.71875 41.710938 33.886719 41.941406 C 34.058594 42.171875 34.246094 42.390625 34.433594 42.628906 C 34.082031 42.75 33.8125 42.945312 33.621094 43.25 C 33.21875 42.796875 32.835938 42.367188 32.4375 41.917969 C 32.53125 41.824219 32.621094 41.722656 32.730469 41.613281 C 32.902344 41.792969 33.054688 41.960938 33.214844 42.125 Z M 33.988281 41.25 C 34.308594 41.617188 34.628906 41.980469 34.949219 42.34375 C 35.003906 42.40625 35.050781 42.46875 35.132812 42.570312 C 34.960938 42.570312 34.847656 42.570312 34.710938 42.570312 C 34.335938 42.121094 33.949219 41.652344 33.558594 41.183594 C 33.828125 41.058594 33.828125 41.0625 33.988281 41.25 Z M 35.71875 44.195312 C 35.566406 44.433594 35.363281 44.601562 35.113281 44.722656 C 34.4375 45.046875 33.660156 44.429688 33.714844 43.808594 C 33.691406 43.609375 33.773438 43.429688 33.890625 43.265625 C 34.148438 42.890625 34.535156 42.75 34.960938 42.757812 C 35.605469 42.765625 36.113281 43.582031 35.71875 44.195312 Z M 33.441406 44.089844 C 32.96875 43.511719 32.535156 42.976562 32.09375 42.429688 C 32.175781 42.300781 32.25 42.175781 32.339844 42.03125 C 32.738281 42.519531 33.121094 42.984375 33.503906 43.449219 C 33.484375 43.640625 33.464844 43.835938 33.441406 44.089844 Z M 28.414062 43.300781 C 28.648438 43.277344 28.828125 43.332031 28.988281 43.511719 C 29.105469 43.644531 29.214844 43.785156 29.28125 43.957031 C 28.765625 44.019531 28.269531 44.078125 27.773438 44.136719 C 27.488281 44.167969 27.203125 44.207031 26.914062 44.230469 C 26.847656 44.238281 26.753906 44.226562 26.71875 44.183594 C 26.5 43.917969 26.25 43.703125 25.9375 43.535156 C 26.023438 43.523438 26.113281 43.507812 26.199219 43.5 C 26.9375 43.433594 27.679688 43.375 28.414062 43.300781 Z M 29.414062 44.21875 C 29.542969 44.46875 29.585938 44.746094 29.539062 45.0625 C 28.679688 45.097656 27.847656 45.273438 26.992188 45.480469 C 26.992188 45.304688 27.003906 45.144531 26.988281 44.984375 C 26.972656 44.824219 26.929688 44.664062 26.894531 44.488281 C 27.722656 44.402344 28.550781 44.3125 29.414062 44.21875 Z M 29.355469 45.742188 C 29.320312 45.804688 29.226562 45.84375 29.152344 45.863281 C 28.824219 45.949219 28.496094 46.03125 28.167969 46.101562 C 27.691406 46.203125 27.214844 46.292969 26.738281 46.390625 C 26.6875 46.398438 26.632812 46.402344 26.574219 46.410156 C 26.707031 46.167969 26.832031 45.941406 26.972656 45.683594 C 27.777344 45.558594 28.609375 45.429688 29.46875 45.292969 C 29.480469 45.480469 29.425781 45.621094 29.355469 45.742188 Z M 26.320312 46.136719 C 26.058594 46.476562 25.742188 46.585938 25.339844 46.429688 C 24.917969 46.269531 24.613281 45.988281 24.488281 45.535156 C 24.378906 45.125 24.351562 44.722656 24.519531 44.324219 C 24.625 44.070312 24.789062 43.875 25.046875 43.761719 C 25.351562 43.628906 25.640625 43.695312 25.894531 43.855469 C 26.363281 44.152344 26.632812 44.578125 26.648438 45.132812 C 26.636719 45.507812 26.546875 45.84375 26.320312 46.136719 Z M 19.171875 42.363281 C 19.164062 42.375 19.15625 42.386719 19.148438 42.398438 C 19.003906 42.34375 18.863281 42.292969 18.710938 42.234375 C 18.742188 42.160156 18.773438 42.09375 18.804688 42.027344 C 18.824219 41.984375 18.851562 41.941406 18.890625 41.867188 C 18.992188 42.046875 19.082031 42.203125 19.171875 42.363281 Z M 19.460938 43.664062 C 19.460938 44.363281 18.847656 45.035156 18.207031 45.015625 C 17.417969 44.988281 16.859375 44.332031 16.871094 43.722656 C 16.882812 43.128906 17.375 42.449219 18.183594 42.453125 C 18.882812 42.453125 19.460938 43.003906 19.460938 43.664062 Z M 16.027344 41.09375 C 16.140625 41.015625 16.265625 40.925781 16.398438 40.835938 C 16.597656 41.46875 16.789062 42.074219 16.992188 42.71875 C 16.894531 42.859375 16.78125 43.019531 16.652344 43.195312 C 16.441406 42.488281 16.238281 41.804688 16.027344 41.09375 Z M 17.332031 40.480469 C 17.496094 41.050781 17.660156 41.621094 17.828125 42.207031 C 17.621094 42.304688 17.414062 42.40625 17.199219 42.511719 C 17 41.917969 16.804688 41.328125 16.605469 40.730469 C 16.820312 40.585938 17.050781 40.519531 17.332031 40.480469 Z M 18.257812 40.617188 C 18.285156 40.625 18.308594 40.65625 18.324219 40.679688 C 18.34375 40.707031 18.351562 40.738281 18.367188 40.769531 C 18.449219 40.957031 18.585938 41.144531 18.59375 41.335938 C 18.601562 41.527344 18.484375 41.722656 18.421875 41.917969 C 18.398438 42.003906 18.371094 42.089844 18.339844 42.1875 C 18.265625 42.1875 18.1875 42.1875 18.132812 42.1875 C 17.925781 41.617188 17.726562 41.054688 17.519531 40.484375 C 17.792969 40.453125 18.023438 40.554688 18.257812 40.617188 Z M 13.921875 41.667969 C 14.152344 41.644531 14.335938 41.6875 14.496094 41.867188 C 14.617188 42.003906 14.722656 42.144531 14.800781 42.320312 C 14.066406 42.40625 13.367188 42.492188 12.664062 42.574219 C 12.566406 42.585938 12.464844 42.601562 12.367188 42.601562 C 12.316406 42.601562 12.25 42.578125 12.222656 42.539062 C 12.011719 42.269531 11.75 42.066406 11.382812 41.90625 C 11.539062 41.886719 11.636719 41.871094 11.730469 41.863281 C 12.460938 41.796875 13.191406 41.742188 13.921875 41.667969 Z M 14.925781 42.585938 C 15.066406 42.832031 15.085938 43.113281 15.046875 43.425781 C 14.1875 43.460938 13.351562 43.644531 12.535156 43.835938 C 12.5 43.5 12.46875 43.183594 12.4375 42.851562 C 13.242188 42.765625 14.078125 42.675781 14.925781 42.585938 Z M 14.988281 43.742188 C 14.964844 44.0625 14.800781 44.230469 14.472656 44.289062 C 13.707031 44.4375 12.945312 44.609375 12.179688 44.773438 C 12.15625 44.777344 12.128906 44.773438 12.089844 44.773438 C 12.222656 44.53125 12.347656 44.300781 12.484375 44.050781 C 13.300781 43.945312 14.125 43.75 14.984375 43.683594 C 14.988281 43.722656 14.992188 43.734375 14.988281 43.742188 Z M 11.695312 44.660156 C 11.5625 44.800781 11.398438 44.859375 11.203125 44.851562 C 10.738281 44.832031 10.367188 44.625 10.148438 44.226562 C 9.875 43.742188 9.816406 43.214844 10.039062 42.679688 C 10.136719 42.441406 10.292969 42.257812 10.527344 42.144531 C 10.84375 41.988281 11.148438 42.054688 11.421875 42.226562 C 12.378906 42.839844 12.34375 44 11.695312 44.660156 Z M 49.097656 30.03125 C 49.003906 29.546875 48.863281 29.070312 48.566406 28.660156 C 48.515625 28.59375 48.492188 28.53125 48.519531 28.433594 C 48.769531 27.65625 48.824219 26.851562 48.800781 26.039062 C 48.773438 25.09375 48.625 24.167969 48.417969 23.25 C 48.246094 22.464844 48.019531 21.699219 47.628906 20.992188 C 47.179688 20.171875 46.570312 19.503906 45.742188 19.046875 C 45.292969 18.800781 44.824219 18.6875 44.3125 18.8125 C 44.292969 18.820312 44.265625 18.8125 44.210938 18.808594 C 44.210938 18.675781 44.214844 18.542969 44.210938 18.414062 C 44.207031 18.28125 44.191406 18.152344 44.183594 18.019531 C 44.042969 16.320312 43.304688 14.910156 42.066406 13.753906 C 41.296875 13.035156 40.386719 12.539062 39.398438 12.183594 C 39.316406 12.152344 39.234375 12.117188 39.164062 12.089844 C 39.179688 11.773438 39.207031 11.476562 39.207031 11.179688 C 39.21875 10.398438 39.152344 9.617188 39.058594 8.839844 C 38.980469 8.234375 38.886719 7.632812 38.707031 7.046875 C 38.683594 6.976562 38.621094 6.910156 38.558594 6.867188 C 38.5 6.828125 38.417969 6.816406 38.347656 6.796875 C 36.964844 6.449219 35.566406 6.167969 34.160156 5.933594 C 32.582031 5.671875 30.992188 5.484375 29.394531 5.363281 C 27.542969 5.222656 25.6875 5.15625 23.828125 5.234375 C 22.914062 5.269531 22 5.320312 21.089844 5.394531 C 20.332031 5.457031 19.578125 5.5625 18.828125 5.652344 C 17.664062 5.789062 16.503906 5.953125 15.367188 6.238281 C 14.734375 6.398438 14.109375 6.574219 13.5 6.804688 C 13.230469 6.90625 13.085938 7.074219 13.011719 7.339844 C 12.78125 8.15625 12.519531 8.964844 12.320312 9.789062 C 12.109375 10.671875 11.949219 11.5625 11.777344 12.453125 C 11.753906 12.5625 11.695312 12.601562 11.617188 12.648438 C 11.324219 12.820312 11.027344 12.980469 10.75 13.175781 C 9.097656 14.355469 8.113281 15.9375 7.914062 17.980469 C 7.886719 18.257812 7.875 18.535156 7.855469 18.820312 C 7.742188 18.804688 7.648438 18.789062 7.550781 18.773438 C 7.082031 18.707031 6.667969 18.859375 6.277344 19.085938 C 5.414062 19.585938 4.796875 20.3125 4.355469 21.195312 C 3.996094 21.910156 3.789062 22.671875 3.628906 23.449219 C 3.308594 24.960938 3.128906 26.480469 3.449219 28.015625 C 3.476562 28.132812 3.441406 28.214844 3.359375 28.300781 C 3.109375 28.554688 2.933594 28.851562 2.890625 29.210938 C 2.824219 29.800781 2.859375 30.390625 3.09375 30.9375 C 3.320312 31.46875 3.714844 31.828125 4.34375 31.828125 C 4.441406 31.828125 4.539062 31.839844 4.652344 31.851562 C 4.652344 31.976562 4.644531 32.089844 4.652344 32.203125 C 4.703125 32.992188 4.742188 33.78125 4.816406 34.570312 C 4.863281 35.042969 4.949219 35.515625 5.050781 35.984375 C 5.191406 36.617188 5.550781 37.097656 6.15625 37.355469 C 6.484375 37.5 6.835938 37.605469 7.183594 37.691406 C 7.714844 37.828125 8.265625 37.824219 8.808594 37.832031 C 9.644531 37.839844 10.472656 37.765625 11.285156 37.558594 C 11.894531 37.398438 12.261719 37.019531 12.433594 36.417969 C 12.6875 35.53125 12.773438 34.621094 12.808594 33.703125 C 12.832031 33.167969 12.8125 32.632812 12.8125 32.097656 C 12.8125 32.023438 12.824219 31.953125 12.828125 31.894531 C 16.097656 31.894531 19.351562 31.894531 22.640625 31.894531 C 22.582031 31.980469 22.550781 32.027344 22.515625 32.070312 C 21.949219 32.792969 21.390625 33.515625 20.820312 34.234375 C 20.308594 34.871094 19.742188 35.460938 19.152344 36.027344 C 18.238281 36.90625 17.230469 37.664062 16.214844 38.414062 C 15.199219 39.164062 14.25 39.976562 13.484375 40.984375 C 13.375 41.128906 13.277344 41.304688 13.128906 41.386719 C 12.980469 41.464844 12.773438 41.433594 12.59375 41.464844 C 11.960938 41.574219 11.324219 41.671875 10.699219 41.8125 C 10.207031 41.921875 9.890625 42.246094 9.742188 42.742188 C 9.597656 43.21875 9.664062 43.667969 9.796875 44.128906 C 9.953125 44.675781 10.6875 45.214844 11.304688 45.167969 C 11.527344 45.148438 11.75 45.136719 11.96875 45.097656 C 12.625 44.980469 13.28125 44.851562 13.9375 44.722656 C 14.234375 44.660156 14.535156 44.597656 14.824219 44.511719 C 14.945312 44.476562 15.089844 44.402344 15.144531 44.300781 C 15.367188 43.890625 15.507812 43.445312 15.464844 42.972656 C 15.410156 42.363281 15.085938 41.890625 14.613281 41.519531 C 14.4375 41.382812 14.234375 41.328125 14.007812 41.351562 C 13.917969 41.359375 13.820312 41.382812 13.714844 41.320312 C 13.898438 41.128906 14.066406 40.949219 14.242188 40.777344 C 14.652344 40.371094 15.042969 39.9375 15.488281 39.574219 C 16.191406 39 16.929688 38.472656 17.652344 37.921875 C 18.941406 36.933594 20.128906 35.839844 21.15625 34.582031 C 21.828125 33.757812 22.476562 32.910156 23.125 32.066406 C 23.226562 31.929688 23.332031 31.882812 23.496094 31.886719 C 23.851562 31.898438 24.207031 31.890625 24.558594 31.894531 C 24.613281 31.894531 24.664062 31.90625 24.734375 31.917969 C 24.679688 32.011719 24.640625 32.085938 24.597656 32.152344 C 24.285156 32.609375 23.984375 33.074219 23.65625 33.515625 C 22.71875 34.773438 21.757812 36.015625 20.832031 37.277344 C 20.011719 38.390625 19.335938 39.589844 18.800781 40.867188 C 18.789062 40.898438 18.761719 40.925781 18.722656 40.984375 C 18.660156 40.839844 18.621094 40.722656 18.558594 40.617188 C 18.511719 40.535156 18.457031 40.4375 18.375 40.398438 C 17.65625 40.039062 16.648438 40.132812 16.019531 40.832031 C 15.863281 41.003906 15.808594 41.1875 15.875 41.417969 C 16.019531 41.917969 16.136719 42.425781 16.269531 42.925781 C 16.382812 43.347656 16.5 43.769531 16.625 44.1875 C 16.882812 45.074219 17.800781 45.46875 18.441406 45.355469 C 19.28125 45.203125 19.917969 44.367188 19.789062 43.523438 C 19.714844 43.039062 19.621094 42.546875 19.371094 42.109375 C 19.285156 41.960938 19.214844 41.800781 19.125 41.652344 C 19.0625 41.550781 19.0625 41.460938 19.113281 41.355469 C 19.289062 41 19.453125 40.636719 19.621094 40.28125 C 20.335938 38.773438 21.261719 37.402344 22.257812 36.070312 C 23.253906 34.734375 24.304688 33.4375 25.175781 32.015625 C 25.238281 31.914062 25.316406 31.890625 25.421875 31.890625 C 25.964844 31.894531 26.511719 31.894531 27.054688 31.894531 C 27.113281 31.894531 27.167969 31.90625 27.234375 31.910156 C 27.222656 31.980469 27.21875 32.035156 27.207031 32.089844 C 27.074219 32.621094 26.957031 33.152344 26.808594 33.671875 C 26.390625 35.117188 25.992188 36.558594 25.828125 38.058594 C 25.714844 39.085938 25.742188 40.097656 25.972656 41.105469 C 26.117188 41.738281 26.40625 42.316406 26.65625 42.90625 C 26.6875 42.980469 26.714844 43.050781 26.753906 43.136719 C 26.609375 43.160156 26.496094 43.171875 26.382812 43.195312 C 25.976562 43.273438 25.570312 43.34375 25.171875 43.445312 C 24.679688 43.574219 24.363281 43.894531 24.222656 44.390625 C 24.085938 44.863281 24.148438 45.316406 24.285156 45.777344 C 24.445312 46.304688 25.164062 46.84375 25.78125 46.800781 C 26.011719 46.785156 26.242188 46.769531 26.46875 46.730469 C 27.117188 46.613281 27.765625 46.488281 28.410156 46.355469 C 28.71875 46.296875 29.023438 46.222656 29.324219 46.144531 C 29.511719 46.097656 29.648438 45.988281 29.707031 45.792969 C 29.757812 45.628906 29.824219 45.46875 29.871094 45.300781 C 30.089844 44.476562 29.796875 43.660156 29.109375 43.160156 C 28.9375 43.035156 28.746094 42.96875 28.53125 42.984375 C 28.242188 43.003906 27.953125 43.015625 27.667969 43.039062 C 27.480469 43.050781 27.292969 43.070312 27.097656 43.089844 C 26.953125 42.660156 26.800781 42.242188 26.667969 41.816406 C 26.363281 40.84375 26.183594 39.851562 26.234375 38.820312 C 26.285156 37.761719 26.472656 36.726562 26.726562 35.699219 C 26.957031 34.746094 27.21875 33.800781 27.460938 32.851562 C 27.539062 32.542969 27.597656 32.226562 27.664062 31.917969 C 27.984375 31.871094 29.078125 31.886719 29.273438 31.949219 C 29.320312 32.671875 29.371094 33.402344 29.414062 34.132812 C 29.464844 34.941406 29.53125 35.746094 29.710938 36.539062 C 29.96875 37.667969 30.371094 38.738281 31.066406 39.671875 C 31.484375 40.234375 31.96875 40.746094 32.425781 41.277344 C 32.480469 41.34375 32.539062 41.40625 32.59375 41.46875 C 32.371094 41.726562 32.144531 41.941406 32.027344 42.246094 C 31.976562 42.386719 31.976562 42.503906 32.070312 42.636719 C 32.558594 43.355469 33.089844 44.039062 33.699219 44.65625 C 34.339844 45.308594 35.101562 45.21875 35.679688 44.746094 C 36.285156 44.25 36.257812 43.527344 35.863281 43.046875 C 35.519531 42.625 35.148438 42.226562 34.78125 41.828125 C 34.527344 41.554688 34.261719 41.296875 34.007812 41.027344 C 33.910156 40.921875 33.796875 40.890625 33.671875 40.929688 C 33.425781 41.003906 33.179688 41.09375 32.917969 41.183594 C 32.703125 40.929688 32.472656 40.664062 32.25 40.386719 C 31.898438 39.949219 31.527344 39.527344 31.214844 39.0625 C 30.386719 37.820312 29.996094 36.421875 29.855469 34.945312 C 29.800781 34.347656 29.765625 33.746094 29.722656 33.144531 C 29.691406 32.742188 29.652344 32.339844 29.617188 31.898438 C 29.714844 31.898438 29.796875 31.898438 29.878906 31.898438 C 30.347656 31.898438 30.820312 31.90625 31.289062 31.890625 C 31.484375 31.882812 31.589844 31.945312 31.671875 32.117188 C 32.023438 32.855469 32.386719 33.585938 32.738281 34.324219 C 33.054688 34.996094 33.398438 35.652344 33.832031 36.261719 C 34.566406 37.296875 35.484375 38.140625 36.511719 38.875 C 37.53125 39.609375 38.621094 40.226562 39.753906 40.769531 C 39.808594 40.796875 39.855469 40.832031 39.941406 40.886719 C 39.753906 40.933594 39.601562 40.949219 39.46875 41.003906 C 39.320312 41.0625 39.148438 41.121094 39.042969 41.234375 C 38.617188 41.703125 38.429688 42.265625 38.507812 42.898438 C 38.558594 43.277344 38.769531 43.585938 38.964844 43.902344 C 39.136719 44.183594 39.378906 44.292969 39.691406 44.269531 C 39.734375 44.269531 39.773438 44.269531 39.816406 44.265625 C 40.316406 44.242188 40.820312 44.230469 41.324219 44.1875 C 41.898438 44.136719 42.472656 44.078125 43.039062 43.980469 C 43.683594 43.871094 44.089844 43.441406 44.242188 42.835938 C 44.398438 42.214844 44.28125 41.601562 43.878906 41.078125 C 43.6875 40.828125 43.445312 40.640625 43.117188 40.617188 C 42.839844 40.597656 42.558594 40.578125 42.28125 40.59375 C 41.863281 40.621094 41.445312 40.664062 41.027344 40.726562 C 40.800781 40.761719 40.605469 40.726562 40.414062 40.613281 C 40.355469 40.582031 40.292969 40.554688 40.238281 40.523438 C 39.441406 40.054688 38.636719 39.597656 37.851562 39.113281 C 37.363281 38.808594 36.886719 38.476562 36.429688 38.128906 C 35.125 37.140625 34.109375 35.910156 33.398438 34.429688 C 33.011719 33.636719 32.605469 32.851562 32.210938 32.0625 C 32.1875 32.015625 32.171875 31.964844 32.148438 31.921875 C 34.574219 31.921875 36.980469 31.921875 39.394531 31.921875 C 39.402344 31.992188 39.410156 32.039062 39.40625 32.085938 C 39.402344 32.40625 39.371094 32.730469 39.386719 33.050781 C 39.421875 33.785156 39.460938 34.515625 39.535156 35.246094 C 39.585938 35.738281 39.683594 36.226562 39.867188 36.6875 C 40.027344 37.097656 40.316406 37.378906 40.734375 37.515625 C 40.957031 37.589844 41.191406 37.644531 41.425781 37.695312 C 42.273438 37.871094 43.132812 37.867188 43.988281 37.839844 C 44.644531 37.824219 45.285156 37.710938 45.894531 37.464844 C 46.625 37.167969 47.042969 36.636719 47.195312 35.871094 C 47.386719 34.914062 47.472656 33.949219 47.53125 32.976562 C 47.546875 32.664062 47.558594 32.355469 47.574219 32.023438 C 47.6875 32.015625 47.785156 32 47.882812 32.003906 C 48.339844 32.027344 48.660156 31.804688 48.867188 31.421875 C 49.09375 30.992188 49.191406 30.519531 49.097656 30.03125 " fill-opacity="1" fill-rule="nonzero"/></g><path fill="#5e3023" d="M 33.042969 25.453125 C 32.886719 25.476562 32.722656 25.527344 32.53125 25.433594 C 32.53125 25.199219 32.523438 24.953125 32.53125 24.710938 C 32.542969 24.453125 32.566406 24.199219 32.589844 23.945312 C 32.632812 23.460938 32.644531 22.976562 32.554688 22.488281 C 33.242188 22.160156 33.902344 21.804688 34.628906 21.601562 C 34.867188 21.535156 35.101562 21.457031 35.335938 21.382812 C 35.539062 21.320312 35.589844 21.246094 35.542969 21.039062 C 35.503906 20.859375 35.449219 20.6875 35.402344 20.511719 C 35.390625 20.476562 35.386719 20.4375 35.378906 20.386719 C 36.101562 20.484375 36.789062 20.339844 37.472656 20.191406 C 38.171875 20.035156 38.863281 19.855469 39.5625 19.683594 C 39.703125 19.648438 39.839844 19.605469 40.003906 19.59375 C 39.933594 19.683594 39.863281 19.769531 39.789062 19.855469 C 39.363281 20.328125 38.925781 20.789062 38.511719 21.269531 C 38.300781 21.519531 38.132812 21.808594 37.953125 22.082031 C 37.910156 22.148438 37.878906 22.230469 37.855469 22.308594 C 37.785156 22.554688 37.859375 22.75 38.074219 22.882812 C 38.195312 22.953125 38.324219 23.011719 38.449219 23.074219 C 38.882812 23.277344 39.316406 23.476562 39.746094 23.679688 C 39.8125 23.710938 39.875 23.75 39.941406 23.78125 C 39.9375 23.800781 39.9375 23.820312 39.9375 23.835938 C 39.363281 24.015625 38.792969 24.195312 38.214844 24.371094 C 37.109375 24.699219 35.980469 24.9375 34.847656 25.140625 C 34.246094 25.246094 33.644531 25.355469 33.042969 25.453125 Z M 31.164062 21.613281 C 30.234375 21.789062 29.292969 21.796875 28.355469 21.667969 C 27.359375 21.527344 26.371094 21.34375 25.378906 21.171875 C 24.199219 20.96875 23.015625 20.800781 21.816406 20.820312 C 20.644531 20.839844 19.472656 20.921875 18.332031 21.199219 C 17.882812 21.308594 17.449219 21.46875 16.984375 21.609375 C 17.027344 20.925781 17.097656 20.261719 17.246094 19.609375 C 17.476562 18.613281 17.835938 17.65625 18.140625 16.679688 C 18.238281 16.359375 18.410156 16.210938 18.71875 16.097656 C 19.925781 15.65625 21.179688 15.429688 22.449219 15.257812 C 23.511719 15.113281 24.578125 15.007812 25.652344 15.054688 C 26.539062 15.09375 27.40625 15.25 28.257812 15.492188 C 29.660156 15.894531 31.089844 16.027344 32.542969 15.894531 C 33.058594 15.84375 33.570312 15.75 34.082031 15.675781 C 34.136719 15.667969 34.191406 15.667969 34.257812 15.660156 C 34.40625 17.449219 34.65625 19.207031 35.15625 20.941406 C 35.082031 20.949219 35.019531 20.960938 34.960938 20.957031 C 34.453125 20.945312 33.957031 21.023438 33.464844 21.132812 C 32.699219 21.304688 31.933594 21.46875 31.164062 21.613281 Z M 18.132812 24.832031 C 16.777344 25.214844 13.785156 25.296875 13.046875 24.953125 C 13.113281 24.882812 13.171875 24.824219 13.234375 24.761719 C 13.535156 24.445312 13.847656 24.140625 14.136719 23.8125 C 14.257812 23.675781 14.34375 23.496094 14.410156 23.320312 C 14.503906 23.074219 14.433594 22.859375 14.214844 22.714844 C 14.042969 22.605469 13.855469 22.515625 13.664062 22.441406 C 13.125 22.230469 12.5625 22.113281 11.984375 22.019531 C 13.613281 21.566406 15.1875 20.972656 16.734375 20.203125 C 16.707031 20.429688 16.671875 20.628906 16.660156 20.828125 C 16.640625 21.164062 16.617188 21.5 16.628906 21.835938 C 16.640625 22.066406 16.675781 22.054688 16.90625 22.070312 C 17.367188 22.109375 17.832031 22.042969 18.3125 22.171875 C 18.054688 23.050781 18.085938 23.945312 18.132812 24.832031 Z M 40.058594 24.1875 C 40.207031 24.136719 40.347656 24.066406 40.484375 23.992188 C 40.632812 23.90625 40.652344 23.75 40.53125 23.640625 C 40.460938 23.578125 40.371094 23.527344 40.28125 23.484375 C 39.691406 23.214844 39.097656 22.949219 38.5 22.6875 C 38.132812 22.523438 38.121094 22.480469 38.304688 22.117188 C 38.492188 21.753906 38.765625 21.457031 39.03125 21.152344 C 39.390625 20.753906 39.738281 20.34375 40.082031 19.933594 C 40.171875 19.828125 40.242188 19.703125 40.308594 19.582031 C 40.417969 19.371094 40.355469 19.25 40.117188 19.226562 C 39.996094 19.214844 39.867188 19.21875 39.75 19.246094 C 39.308594 19.351562 38.875 19.476562 38.433594 19.578125 C 37.636719 19.761719 36.839844 19.9375 36.039062 20.09375 C 35.8125 20.140625 35.566406 20.101562 35.3125 20.101562 C 35.289062 20.023438 35.265625 19.957031 35.253906 19.886719 C 35.054688 18.882812 34.871094 17.878906 34.800781 16.855469 C 34.769531 16.4375 34.695312 16.023438 34.613281 15.609375 C 34.566406 15.347656 34.480469 15.296875 34.21875 15.304688 C 33.824219 15.320312 33.425781 15.328125 33.035156 15.375 C 31.40625 15.554688 29.808594 15.449219 28.230469 15 C 27.316406 14.738281 26.378906 14.582031 25.425781 14.5625 C 24.75 14.550781 24.074219 14.585938 23.398438 14.660156 C 22.398438 14.769531 21.40625 14.917969 20.433594 15.1875 C 19.726562 15.386719 19.027344 15.605469 18.324219 15.8125 C 18.136719 15.867188 18.015625 15.988281 17.949219 16.175781 C 17.539062 17.332031 17.097656 18.480469 16.84375 19.6875 C 16.820312 19.800781 16.765625 19.855469 16.660156 19.890625 C 16.457031 19.957031 16.257812 20.03125 16.058594 20.109375 C 14.917969 20.566406 13.777344 21.019531 12.609375 21.394531 C 12.246094 21.511719 11.898438 21.65625 11.542969 21.796875 C 11.453125 21.832031 11.363281 21.878906 11.289062 21.945312 C 11.171875 22.046875 11.203125 22.207031 11.351562 22.253906 C 11.417969 22.277344 11.496094 22.277344 11.570312 22.289062 C 11.714844 22.316406 11.863281 22.328125 12.003906 22.367188 C 12.417969 22.488281 12.828125 22.613281 13.234375 22.75 C 13.46875 22.824219 13.699219 22.914062 13.925781 23.011719 C 14.089844 23.085938 14.117188 23.144531 14.035156 23.304688 C 13.953125 23.460938 13.855469 23.621094 13.734375 23.753906 C 13.4375 24.074219 13.121094 24.375 12.816406 24.6875 C 12.75 24.757812 12.679688 24.832031 12.628906 24.917969 C 12.546875 25.046875 12.570312 25.15625 12.703125 25.230469 C 12.804688 25.285156 12.914062 25.328125 13.023438 25.355469 C 13.488281 25.476562 13.957031 25.542969 14.4375 25.574219 C 15.773438 25.660156 17.089844 25.515625 18.402344 25.28125 C 18.636719 25.238281 18.632812 25.230469 18.625 24.992188 C 18.617188 24.667969 18.589844 24.347656 18.609375 24.027344 C 18.660156 23.167969 18.832031 22.332031 19.164062 21.503906 C 19.980469 21.359375 20.804688 21.304688 21.628906 21.3125 C 22.878906 21.320312 24.113281 21.492188 25.335938 21.722656 C 26.40625 21.921875 27.46875 22.160156 28.554688 22.265625 C 29.40625 22.347656 30.25 22.34375 31.097656 22.210938 C 31.4375 22.15625 31.773438 22.089844 32.136719 22.023438 C 32.152344 22.140625 32.171875 22.25 32.183594 22.363281 C 32.265625 23.199219 32.15625 24.027344 32.113281 24.859375 C 32.105469 25.078125 32.125 25.304688 32.175781 25.519531 C 32.230469 25.761719 32.378906 25.855469 32.628906 25.855469 C 32.773438 25.859375 32.925781 25.84375 33.070312 25.820312 C 33.582031 25.738281 34.09375 25.640625 34.605469 25.566406 C 35.789062 25.390625 36.964844 25.183594 38.109375 24.820312 C 38.757812 24.613281 39.410156 24.402344 40.058594 24.1875 " fill-opacity="1" fill-rule="nonzero"/><path fill="#5e3023" d="M 8.550781 34.398438 C 8.527344 34.34375 8.453125 34.285156 8.390625 34.277344 C 8.351562 34.269531 8.273438 34.339844 8.257812 34.390625 C 8.109375 34.816406 8.152344 35.234375 8.347656 35.636719 C 8.371094 35.6875 8.460938 35.738281 8.519531 35.742188 C 8.613281 35.742188 8.65625 35.65625 8.660156 35.566406 C 8.660156 35.4375 8.660156 35.304688 8.660156 35.171875 C 8.683594 34.90625 8.660156 34.644531 8.550781 34.398438 " fill-opacity="1" fill-rule="nonzero"/><path fill="#5e3023" d="M 10.550781 34.167969 C 10.488281 34.1875 10.414062 34.242188 10.394531 34.300781 C 10.339844 34.46875 10.308594 34.648438 10.273438 34.804688 C 10.300781 34.96875 10.316406 35.105469 10.347656 35.242188 C 10.367188 35.339844 10.4375 35.402344 10.539062 35.410156 C 10.640625 35.417969 10.714844 35.359375 10.746094 35.265625 C 10.847656 34.941406 10.847656 34.617188 10.734375 34.296875 C 10.703125 34.214844 10.644531 34.144531 10.550781 34.167969 " fill-opacity="1" fill-rule="nonzero"/><path fill="#5e3023" d="M 6.296875 34.09375 C 6.253906 34.089844 6.183594 34.160156 6.167969 34.210938 C 6.070312 34.589844 6.066406 34.972656 6.179688 35.351562 C 6.207031 35.445312 6.265625 35.515625 6.371094 35.503906 C 6.480469 35.488281 6.515625 35.402344 6.523438 35.304688 C 6.53125 35.199219 6.535156 35.089844 6.539062 34.984375 C 6.550781 34.984375 6.5625 34.980469 6.570312 34.980469 C 6.523438 34.722656 6.484375 34.464844 6.429688 34.207031 C 6.417969 34.160156 6.34375 34.09375 6.296875 34.09375 " fill-opacity="1" fill-rule="nonzero"/><path fill="#5e3023" d="M 43.921875 34.347656 C 43.867188 34.265625 43.773438 34.261719 43.710938 34.335938 C 43.671875 34.386719 43.640625 34.449219 43.625 34.511719 C 43.582031 34.746094 43.546875 34.980469 43.507812 35.214844 C 43.515625 35.21875 43.523438 35.21875 43.53125 35.21875 C 43.542969 35.359375 43.546875 35.5 43.570312 35.636719 C 43.578125 35.683594 43.632812 35.75 43.671875 35.757812 C 43.726562 35.765625 43.792969 35.730469 43.84375 35.699219 C 43.878906 35.671875 43.898438 35.617188 43.917969 35.570312 C 44.046875 35.238281 44.0625 34.898438 44.003906 34.550781 C 43.988281 34.480469 43.960938 34.40625 43.921875 34.347656 " fill-opacity="1" fill-rule="nonzero"/><path fill="#5e3023" d="M 41.648438 34.1875 C 41.582031 34.210938 41.5 34.273438 41.480469 34.339844 C 41.429688 34.492188 41.410156 34.65625 41.378906 34.808594 C 41.40625 34.96875 41.421875 35.117188 41.457031 35.261719 C 41.480469 35.367188 41.554688 35.433594 41.671875 35.429688 C 41.773438 35.429688 41.84375 35.367188 41.867188 35.269531 C 41.949219 34.953125 41.945312 34.636719 41.828125 34.324219 C 41.796875 34.246094 41.742188 34.160156 41.648438 34.1875 " fill-opacity="1" fill-rule="nonzero"/><path fill="#5e3023" d="M 45.917969 34.109375 C 45.867188 34.15625 45.816406 34.203125 45.769531 34.257812 C 45.753906 34.277344 45.753906 34.320312 45.746094 34.351562 C 45.667969 34.671875 45.648438 34.996094 45.695312 35.324219 C 45.710938 35.421875 45.722656 35.507812 45.839844 35.523438 C 45.960938 35.535156 46.023438 35.457031 46.042969 35.351562 C 46.078125 35.167969 46.101562 34.984375 46.128906 34.800781 C 46.101562 34.613281 46.089844 34.433594 46.050781 34.257812 C 46.039062 34.203125 45.964844 34.160156 45.917969 34.109375 " fill-opacity="1" fill-rule="nonzero"/><path fill="#5e3023" d="M 8.605469 23.398438 C 9.4375 23.398438 10.097656 24.074219 10.097656 24.921875 C 10.09375 25.753906 9.433594 26.410156 8.597656 26.410156 C 7.769531 26.40625 7.089844 25.714844 7.101562 24.886719 C 7.109375 24.066406 7.789062 23.394531 8.605469 23.398438 Z M 8.632812 26.667969 C 9.589844 26.671875 10.382812 25.890625 10.394531 24.929688 C 10.402344 23.984375 9.601562 23.183594 8.640625 23.183594 C 7.675781 23.183594 6.886719 23.964844 6.886719 24.925781 C 6.886719 25.898438 7.65625 26.667969 8.632812 26.667969 " fill-opacity="1" fill-rule="nonzero"/><path fill="#5e3023" d="M 43.328125 23.398438 C 44.164062 23.40625 44.816406 24.078125 44.8125 24.929688 C 44.808594 25.757812 44.140625 26.414062 43.308594 26.410156 C 42.488281 26.402344 41.820312 25.726562 41.816406 24.90625 C 41.8125 24.078125 42.503906 23.390625 43.328125 23.398438 Z M 43.347656 26.667969 C 44.308594 26.671875 45.101562 25.890625 45.109375 24.929688 C 45.117188 23.984375 44.316406 23.183594 43.355469 23.183594 C 42.390625 23.183594 41.605469 23.964844 41.601562 24.925781 C 41.601562 25.898438 42.371094 26.667969 43.347656 26.667969 " fill-opacity="1" fill-rule="nonzero"/><g clip-path="url(#91007ff710)"><path fill="#5e3023" d="M 25.824219 45.605469 C 25.648438 45.777344 25.402344 45.769531 25.234375 45.589844 C 24.949219 45.277344 24.964844 44.738281 25.273438 44.449219 C 25.511719 44.21875 25.796875 44.277344 25.921875 44.582031 C 25.949219 44.652344 25.972656 44.722656 25.988281 44.792969 C 26.003906 44.875 26.007812 44.957031 26.015625 45.003906 C 26.019531 45.25 25.980469 45.445312 25.824219 45.605469 Z M 26.128906 44.335938 C 25.863281 43.980469 25.378906 43.976562 25.089844 44.308594 C 24.746094 44.714844 24.71875 45.160156 24.910156 45.625 C 25.109375 46.109375 25.671875 46.21875 26.046875 45.855469 C 26.269531 45.644531 26.359375 45.378906 26.355469 45.078125 C 26.355469 44.804688 26.289062 44.554688 26.128906 44.335938 " fill-opacity="1" fill-rule="nonzero"/></g><path fill="#5e3023" d="M 11.347656 43.957031 C 11.171875 44.144531 10.914062 44.140625 10.746094 43.949219 C 10.460938 43.628906 10.480469 43.097656 10.792969 42.808594 C 11.035156 42.582031 11.3125 42.644531 11.4375 42.953125 C 11.46875 43.039062 11.496094 43.125 11.515625 43.214844 C 11.53125 43.285156 11.53125 43.359375 11.53125 43.394531 C 11.535156 43.628906 11.484375 43.808594 11.347656 43.957031 Z M 11.628906 42.683594 C 11.363281 42.347656 10.878906 42.347656 10.605469 42.675781 C 10.277344 43.066406 10.226562 43.5 10.414062 43.96875 C 10.617188 44.484375 11.210938 44.59375 11.597656 44.1875 C 11.792969 43.980469 11.871094 43.722656 11.878906 43.417969 C 11.867188 43.167969 11.800781 42.902344 11.628906 42.683594 " fill-opacity="1" fill-rule="nonzero"/><path fill="#5e3023" d="M 42.40625 41.84375 C 42.453125 41.539062 42.699219 41.421875 42.972656 41.5625 C 43.261719 41.707031 43.390625 41.925781 43.398438 42.285156 C 43.382812 42.386719 43.382812 42.5 43.351562 42.597656 C 43.253906 42.886719 42.964844 42.984375 42.722656 42.800781 C 42.632812 42.730469 42.554688 42.636719 42.503906 42.539062 C 42.390625 42.324219 42.363281 42.085938 42.40625 41.84375 Z M 42.140625 42.574219 C 42.238281 42.832031 42.398438 43.03125 42.648438 43.152344 C 43.074219 43.355469 43.519531 43.148438 43.632812 42.691406 C 43.652344 42.605469 43.660156 42.515625 43.671875 42.425781 C 43.6875 41.933594 43.449219 41.589844 43.050781 41.34375 C 42.957031 41.289062 42.835938 41.246094 42.730469 41.253906 C 42.410156 41.273438 42.164062 41.503906 42.09375 41.820312 C 42.039062 42.074219 42.050781 42.328125 42.140625 42.574219 " fill-opacity="1" fill-rule="nonzero"/><path fill="#5e3023" d="M 18.296875 44.453125 C 17.847656 44.53125 17.480469 44.21875 17.484375 43.714844 C 17.53125 43.460938 17.542969 43.152344 17.828125 42.953125 C 18.234375 42.667969 18.777344 42.839844 18.925781 43.316406 C 19.09375 43.832031 18.796875 44.363281 18.296875 44.453125 Z M 18.148438 42.605469 C 18.03125 42.617188 17.90625 42.664062 17.808594 42.726562 C 17.507812 42.925781 17.375 43.230469 17.3125 43.574219 C 17.242188 43.949219 17.378906 44.371094 17.679688 44.554688 C 18.007812 44.757812 18.355469 44.738281 18.6875 44.550781 C 19.058594 44.339844 19.164062 43.988281 19.175781 43.5 C 19.214844 42.921875 18.683594 42.550781 18.148438 42.605469 " fill-opacity="1" fill-rule="nonzero"/><path fill="#5e3023" d="M 35.160156 43.136719 C 35.34375 43.234375 35.410156 43.40625 35.410156 43.609375 C 35.40625 43.90625 35.035156 44.3125 34.734375 44.332031 C 34.652344 44.335938 34.550781 44.308594 34.488281 44.257812 C 34.105469 43.929688 34.152344 43.421875 34.546875 43.144531 C 34.722656 43.019531 34.957031 43.03125 35.160156 43.136719 Z M 34.027344 43.757812 C 34.078125 43.921875 34.109375 44.09375 34.1875 44.242188 C 34.300781 44.460938 34.492188 44.589844 34.75 44.566406 C 35.101562 44.535156 35.492188 44.191406 35.582031 43.847656 C 35.6875 43.441406 35.476562 43.023438 35.109375 42.949219 C 34.988281 42.925781 34.851562 42.949219 34.722656 42.972656 C 34.292969 43.042969 34.0625 43.320312 34.027344 43.757812 " fill-opacity="1" fill-rule="nonzero"/><path fill="#5e3023" d="M 22.257812 17.851562 C 22.128906 17.792969 22.011719 17.839844 21.917969 17.929688 C 21.761719 18.085938 21.609375 18.25 21.457031 18.414062 C 21.390625 18.488281 21.332031 18.570312 21.242188 18.683594 C 21.199219 18.535156 21.171875 18.429688 21.140625 18.332031 C 21.09375 18.191406 21.058594 18.046875 20.988281 17.914062 C 20.878906 17.703125 20.644531 17.707031 20.523438 17.914062 C 20.492188 17.96875 20.472656 18.035156 20.449219 18.097656 C 20.234375 18.691406 20.015625 19.285156 19.800781 19.882812 C 19.78125 19.933594 19.757812 19.992188 19.757812 20.046875 C 19.753906 20.183594 19.882812 20.25 19.996094 20.175781 C 20.027344 20.152344 20.054688 20.117188 20.082031 20.089844 C 20.324219 19.832031 20.480469 19.527344 20.609375 19.203125 C 20.652344 19.089844 20.699219 18.980469 20.761719 18.839844 C 20.816406 19 20.847656 19.121094 20.902344 19.230469 C 21.007812 19.4375 21.210938 19.460938 21.359375 19.28125 C 21.414062 19.214844 21.449219 19.140625 21.5 19.074219 C 21.621094 18.914062 21.742188 18.753906 21.867188 18.589844 C 21.878906 18.601562 21.890625 18.613281 21.902344 18.621094 C 21.867188 18.933594 21.820312 19.242188 21.800781 19.554688 C 21.792969 19.703125 21.828125 19.863281 21.867188 20.011719 C 21.890625 20.101562 21.964844 20.164062 22.070312 20.160156 C 22.179688 20.15625 22.238281 20.089844 22.265625 20 C 22.296875 19.886719 22.320312 19.773438 22.328125 19.660156 C 22.351562 19.304688 22.371094 18.953125 22.390625 18.597656 C 22.398438 18.460938 22.414062 18.320312 22.421875 18.179688 C 22.429688 18.039062 22.398438 17.910156 22.257812 17.851562 " fill-opacity="1" fill-rule="nonzero"/><path fill="#5e3023" d="M 32.921875 19.359375 C 32.859375 19.867188 32.578125 20.117188 32.015625 20.140625 C 32.03125 19.648438 32.046875 19.160156 32.058594 18.683594 C 32.585938 18.53125 32.984375 18.863281 32.921875 19.359375 Z M 32.199219 18.234375 C 32.09375 18.246094 31.984375 18.246094 31.835938 18.25 C 31.816406 18.304688 31.761719 18.394531 31.75 18.484375 C 31.695312 19.089844 31.648438 19.695312 31.601562 20.300781 C 31.597656 20.351562 31.597656 20.402344 31.609375 20.449219 C 31.640625 20.589844 31.78125 20.660156 31.882812 20.558594 C 31.976562 20.46875 32.054688 20.492188 32.148438 20.503906 C 32.238281 20.511719 32.332031 20.515625 32.421875 20.5 C 32.859375 20.417969 33.167969 20.175781 33.296875 19.734375 C 33.433594 19.265625 33.335938 18.855469 32.984375 18.515625 C 32.769531 18.304688 32.507812 18.203125 32.199219 18.234375 " fill-opacity="1" fill-rule="nonzero"/><path fill="#5e3023" d="M 27.3125 18.742188 C 27.191406 18.820312 27.058594 18.882812 26.898438 18.867188 C 26.898438 18.65625 26.898438 18.453125 26.898438 18.210938 C 27.054688 18.257812 27.179688 18.277344 27.285156 18.332031 C 27.472656 18.425781 27.484375 18.625 27.3125 18.742188 Z M 27.605469 18.128906 C 27.390625 17.949219 27.144531 17.890625 26.867188 17.960938 C 26.613281 18.023438 26.613281 18.011719 26.582031 18.257812 C 26.511719 18.78125 26.433594 19.304688 26.375 19.828125 C 26.355469 19.976562 26.378906 20.136719 26.410156 20.289062 C 26.421875 20.339844 26.503906 20.402344 26.566406 20.414062 C 26.597656 20.421875 26.675781 20.34375 26.691406 20.292969 C 26.734375 20.132812 26.753906 19.96875 26.785156 19.808594 C 26.796875 19.746094 26.8125 19.679688 26.835938 19.566406 C 27.007812 19.820312 27.144531 20.023438 27.285156 20.226562 C 27.335938 20.300781 27.390625 20.375 27.453125 20.4375 C 27.523438 20.503906 27.609375 20.527344 27.703125 20.464844 C 27.792969 20.40625 27.816406 20.320312 27.78125 20.230469 C 27.75 20.136719 27.699219 20.046875 27.640625 19.972656 C 27.449219 19.726562 27.25 19.484375 27.042969 19.230469 C 27.203125 19.171875 27.359375 19.136719 27.496094 19.066406 C 27.890625 18.867188 27.941406 18.414062 27.605469 18.128906 " fill-opacity="1" fill-rule="nonzero"/><path fill="#5e3023" d="M 25.542969 18.625 C 25.421875 18.699219 25.28125 18.734375 25.101562 18.804688 C 25.125 18.585938 25.140625 18.421875 25.164062 18.207031 C 25.304688 18.234375 25.421875 18.238281 25.523438 18.28125 C 25.691406 18.359375 25.703125 18.53125 25.542969 18.625 Z M 25.902344 18.722656 C 26.15625 18.386719 25.984375 17.9375 25.566406 17.875 C 25.433594 17.855469 25.289062 17.910156 25.152344 17.898438 C 24.953125 17.878906 24.886719 17.992188 24.851562 18.148438 C 24.738281 18.640625 24.621094 19.125 24.519531 19.617188 C 24.488281 19.761719 24.503906 19.914062 24.503906 20.0625 C 24.503906 20.160156 24.539062 20.242188 24.648438 20.257812 C 24.761719 20.273438 24.8125 20.195312 24.84375 20.105469 C 24.863281 20.058594 24.878906 20.011719 24.890625 19.964844 C 24.933594 19.773438 24.976562 19.585938 25.027344 19.359375 C 25.082031 19.4375 25.117188 19.488281 25.152344 19.539062 C 25.320312 19.78125 25.488281 20.027344 25.664062 20.265625 C 25.699219 20.316406 25.75 20.371094 25.808594 20.394531 C 25.859375 20.414062 25.941406 20.410156 25.988281 20.378906 C 26.015625 20.363281 26.019531 20.273438 26.007812 20.226562 C 25.984375 20.152344 25.941406 20.078125 25.898438 20.007812 C 25.703125 19.714844 25.503906 19.425781 25.292969 19.113281 C 25.53125 19.011719 25.753906 18.921875 25.902344 18.722656 " fill-opacity="1" fill-rule="nonzero"/><path fill="#5e3023" d="M 23.664062 18.816406 C 23.578125 18.816406 23.507812 18.816406 23.421875 18.816406 C 23.445312 18.640625 23.523438 18.515625 23.664062 18.398438 C 23.664062 18.554688 23.664062 18.683594 23.664062 18.816406 Z M 24.050781 18.308594 C 24.039062 18.195312 23.992188 18.082031 23.9375 17.984375 C 23.832031 17.773438 23.640625 17.746094 23.472656 17.910156 C 23.40625 17.980469 23.335938 18.054688 23.289062 18.140625 C 22.976562 18.6875 22.738281 19.261719 22.605469 19.878906 C 22.589844 19.949219 22.589844 20.027344 22.609375 20.097656 C 22.621094 20.140625 22.675781 20.203125 22.71875 20.207031 C 22.769531 20.210938 22.851562 20.175781 22.875 20.132812 C 22.925781 20.050781 22.945312 19.949219 22.976562 19.855469 C 23.0625 19.609375 23.148438 19.363281 23.234375 19.109375 C 23.394531 19.132812 23.523438 19.148438 23.671875 19.171875 C 23.671875 19.402344 23.671875 19.605469 23.671875 19.8125 C 23.675781 19.882812 23.679688 19.957031 23.699219 20.03125 C 23.722656 20.125 23.796875 20.1875 23.894531 20.191406 C 24.003906 20.195312 24.082031 20.132812 24.113281 20.027344 C 24.132812 19.949219 24.152344 19.863281 24.148438 19.785156 C 24.121094 19.292969 24.089844 18.800781 24.050781 18.308594 " fill-opacity="1" fill-rule="nonzero"/><path fill="#5e3023" d="M 30.972656 18.234375 C 30.710938 18.214844 30.449219 18.191406 30.1875 18.183594 C 30.066406 18.183594 29.96875 18.25 29.941406 18.386719 C 29.914062 18.523438 29.875 18.65625 29.855469 18.796875 C 29.820312 19.082031 29.796875 19.367188 29.769531 19.652344 C 29.742188 19.898438 29.710938 20.144531 29.699219 20.390625 C 29.6875 20.609375 29.789062 20.699219 30.007812 20.710938 C 30.125 20.71875 30.238281 20.738281 30.351562 20.734375 C 30.5 20.722656 30.644531 20.703125 30.789062 20.667969 C 30.890625 20.640625 30.953125 20.554688 30.9375 20.441406 C 30.917969 20.320312 30.828125 20.285156 30.71875 20.28125 C 30.679688 20.277344 30.636719 20.289062 30.597656 20.289062 C 30.453125 20.285156 30.308594 20.28125 30.15625 20.277344 C 30.175781 20.007812 30.195312 19.773438 30.214844 19.523438 C 30.40625 19.523438 30.585938 19.523438 30.765625 19.523438 C 30.878906 19.519531 30.984375 19.496094 31.007812 19.363281 C 31.027344 19.253906 30.949219 19.164062 30.800781 19.128906 C 30.753906 19.117188 30.703125 19.117188 30.65625 19.109375 C 30.511719 19.085938 30.371094 19.0625 30.222656 19.039062 C 30.234375 18.863281 30.246094 18.710938 30.257812 18.546875 C 30.3125 18.542969 30.359375 18.535156 30.410156 18.535156 C 30.589844 18.53125 30.769531 18.53125 30.953125 18.527344 C 31.046875 18.523438 31.113281 18.480469 31.113281 18.378906 C 31.109375 18.292969 31.058594 18.242188 30.972656 18.234375 " fill-opacity="1" fill-rule="nonzero"/><path fill="#5e3023" d="M 24.847656 15.609375 C 24.851562 15.609375 24.851562 15.605469 24.855469 15.605469 C 24.855469 15.605469 24.855469 15.601562 24.855469 15.601562 C 24.851562 15.601562 24.851562 15.605469 24.847656 15.605469 C 24.847656 15.605469 24.847656 15.609375 24.847656 15.609375 " fill-opacity="1" fill-rule="nonzero"/><path fill="#5e3023" d="M 24.804688 16.660156 C 24.800781 16.761719 24.828125 16.871094 24.863281 16.972656 C 24.960938 17.257812 25.222656 17.339844 25.445312 17.140625 C 25.566406 17.035156 25.679688 16.898438 25.734375 16.753906 C 25.832031 16.5 25.882812 16.234375 25.945312 15.96875 C 25.96875 15.875 25.984375 15.773438 25.972656 15.675781 C 25.96875 15.613281 25.917969 15.535156 25.867188 15.507812 C 25.789062 15.464844 25.722656 15.527344 25.695312 15.601562 C 25.652344 15.707031 25.625 15.820312 25.59375 15.929688 C 25.53125 16.140625 25.472656 16.355469 25.402344 16.566406 C 25.375 16.644531 25.359375 16.765625 25.238281 16.746094 C 25.109375 16.726562 25.125 16.597656 25.121094 16.507812 C 25.113281 16.367188 25.121094 16.226562 25.128906 16.085938 C 25.136719 15.964844 25.15625 15.839844 25.15625 15.71875 C 25.160156 15.617188 25.203125 15.488281 25.0625 15.445312 C 24.933594 15.40625 24.917969 15.542969 24.855469 15.605469 C 24.855469 15.644531 24.855469 15.683594 24.851562 15.726562 C 24.835938 16.035156 24.8125 16.347656 24.804688 16.660156 " fill-opacity="1" fill-rule="nonzero"/><path fill="#5e3023" d="M 25.898438 16.855469 C 25.890625 16.921875 25.902344 17.007812 25.9375 17.0625 C 26.054688 17.222656 26.210938 17.324219 26.421875 17.308594 C 26.667969 17.289062 26.882812 17.195312 27.058594 17.019531 C 27.261719 16.8125 27.265625 16.511719 27.050781 16.316406 C 26.957031 16.226562 26.835938 16.167969 26.726562 16.101562 C 26.652344 16.054688 26.574219 16.019531 26.460938 15.960938 C 26.566406 15.878906 26.632812 15.828125 26.714844 15.769531 C 26.792969 15.859375 26.847656 15.941406 26.921875 16.003906 C 26.964844 16.035156 27.054688 16.058594 27.09375 16.035156 C 27.136719 16.011719 27.179688 15.921875 27.167969 15.875 C 27.148438 15.792969 27.105469 15.699219 27.042969 15.640625 C 26.8125 15.417969 26.546875 15.4375 26.335938 15.679688 C 26.113281 15.933594 26.152344 16.164062 26.449219 16.324219 C 26.535156 16.371094 26.632812 16.402344 26.710938 16.457031 C 26.867188 16.570312 26.867188 16.742188 26.707031 16.84375 C 26.605469 16.90625 26.480469 16.964844 26.367188 16.96875 C 26.292969 16.96875 26.214844 16.863281 26.140625 16.804688 C 26.128906 16.796875 26.117188 16.78125 26.105469 16.773438 C 26.015625 16.714844 25.914062 16.75 25.898438 16.855469 " fill-opacity="1" fill-rule="nonzero"/><path fill="#5e3023" d="M 29.035156 19.960938 C 28.945312 20.027344 28.851562 20.09375 28.71875 20.183594 C 28.695312 20.015625 28.660156 19.890625 28.667969 19.765625 C 28.683594 19.488281 28.722656 19.210938 28.75 18.933594 C 28.761719 18.808594 28.777344 18.6875 28.765625 18.566406 C 28.761719 18.515625 28.699219 18.453125 28.648438 18.429688 C 28.574219 18.398438 28.5 18.4375 28.46875 18.515625 C 28.429688 18.605469 28.390625 18.699219 28.378906 18.796875 C 28.324219 19.171875 28.277344 19.546875 28.234375 19.921875 C 28.226562 20.015625 28.226562 20.121094 28.246094 20.214844 C 28.3125 20.566406 28.574219 20.695312 28.886719 20.523438 C 29.019531 20.449219 29.140625 20.347656 29.261719 20.246094 C 29.382812 20.136719 29.40625 20.03125 29.339844 19.949219 C 29.273438 19.863281 29.175781 19.867188 29.035156 19.960938 " fill-opacity="1" fill-rule="nonzero"/><path fill="#5e3023" d="M 24.660156 15.398438 C 24.289062 15.425781 23.921875 15.46875 23.554688 15.511719 C 23.515625 15.515625 23.476562 15.535156 23.445312 15.558594 C 23.378906 15.609375 23.390625 15.707031 23.46875 15.734375 C 23.519531 15.753906 23.582031 15.753906 23.636719 15.753906 C 23.773438 15.757812 23.910156 15.753906 24.074219 15.753906 C 24.007812 16.03125 23.964844 16.277344 23.886719 16.507812 C 23.792969 16.789062 23.679688 16.824219 23.40625 16.703125 C 23.390625 16.699219 23.375 16.683594 23.363281 16.6875 C 23.316406 16.691406 23.25 16.683594 23.226562 16.710938 C 23.199219 16.75 23.175781 16.824219 23.191406 16.863281 C 23.25 16.992188 23.335938 17.101562 23.484375 17.144531 C 23.726562 17.21875 24.003906 17.125 24.136719 16.875 C 24.222656 16.710938 24.273438 16.523438 24.308594 16.34375 C 24.351562 16.144531 24.355469 15.941406 24.375 15.753906 C 24.542969 15.699219 24.695312 15.652344 24.847656 15.605469 C 24.828125 15.421875 24.808594 15.386719 24.660156 15.398438 " fill-opacity="1" fill-rule="nonzero"/><path fill="#5e3023" d="M 28.273438 16.863281 C 28.292969 16.578125 28.304688 16.292969 28.320312 16 C 28.484375 15.984375 28.621094 15.964844 28.757812 15.953125 C 28.84375 15.949219 28.914062 15.910156 28.90625 15.824219 C 28.898438 15.777344 28.832031 15.730469 28.792969 15.6875 C 28.78125 15.675781 28.761719 15.667969 28.746094 15.667969 C 28.378906 15.582031 28.011719 15.59375 27.644531 15.644531 C 27.550781 15.65625 27.484375 15.722656 27.503906 15.8125 C 27.515625 15.867188 27.585938 15.929688 27.648438 15.953125 C 27.738281 15.984375 27.839844 15.984375 27.96875 16.003906 C 27.960938 16.066406 27.953125 16.117188 27.949219 16.164062 C 27.925781 16.492188 27.898438 16.816406 27.882812 17.144531 C 27.875 17.285156 27.953125 17.375 28.054688 17.371094 C 28.175781 17.371094 28.230469 17.289062 28.246094 17.183594 C 28.261719 17.078125 28.269531 16.972656 28.273438 16.863281 " fill-opacity="1" fill-rule="nonzero"/><path fill="#5e3023" d="M 28.390625 18.078125 C 28.390625 18.203125 28.5 18.320312 28.625 18.316406 C 28.746094 18.316406 28.863281 18.203125 28.867188 18.082031 C 28.871094 17.957031 28.761719 17.84375 28.632812 17.84375 C 28.511719 17.84375 28.394531 17.957031 28.390625 18.078125 " fill-opacity="1" fill-rule="nonzero"/><path fill="#5e3023" d="M 17.484375 20.574219 C 17.367188 20.578125 17.273438 20.6875 17.28125 20.808594 C 17.289062 20.929688 17.394531 21.015625 17.515625 21.003906 C 17.625 20.992188 17.714844 20.894531 17.714844 20.785156 C 17.710938 20.671875 17.601562 20.566406 17.484375 20.574219 " fill-opacity="1" fill-rule="nonzero"/><path fill="#5e3023" d="M 34.414062 20.589844 C 34.53125 20.59375 34.640625 20.492188 34.640625 20.378906 C 34.644531 20.261719 34.542969 20.160156 34.421875 20.160156 C 34.308594 20.164062 34.21875 20.246094 34.210938 20.359375 C 34.203125 20.480469 34.292969 20.585938 34.414062 20.589844 " fill-opacity="1" fill-rule="nonzero"/><path fill="#5e3023" d="M 33.761719 16.433594 C 33.878906 16.4375 33.976562 16.335938 33.976562 16.214844 C 33.976562 16.101562 33.886719 16.011719 33.777344 16.011719 C 33.660156 16.007812 33.5625 16.109375 33.5625 16.230469 C 33.5625 16.339844 33.65625 16.433594 33.761719 16.433594 " fill-opacity="1" fill-rule="nonzero"/><path fill="#5e3023" d="M 18.570312 16.464844 C 18.484375 16.441406 18.40625 16.542969 18.414062 16.636719 C 18.417969 16.734375 18.472656 16.785156 18.570312 16.789062 C 18.660156 16.792969 18.730469 16.707031 18.726562 16.566406 C 18.6875 16.539062 18.632812 16.480469 18.570312 16.464844 " fill-opacity="1" fill-rule="nonzero"/></svg>