<svg xmlns="http://www.w3.org/2000/svg" xmlns:xlink="http://www.w3.org/1999/xlink" width="70" zoomAndPan="magnify" viewBox="0 0 52.5 52.499999" height="70" preserveAspectRatio="xMidYMid meet" version="1.0"><defs><clipPath id="2abfe66fa2"><path d="M 8.859375 3.519531 L 43.035156 3.519531 L 43.035156 48.839844 L 8.859375 48.839844 Z M 8.859375 3.519531 " clip-rule="nonzero"/></clipPath></defs><path fill="#a33a0d" d="M 36.765625 44.253906 L 38.789062 46.21875 L 34.75 46.21875 Z M 40.195312 46.222656 L 37.101562 43.226562 C 36.914062 43.042969 36.613281 43.042969 36.421875 43.226562 L 33.355469 46.21875 L 32.332031 46.21875 C 32.0625 46.21875 31.847656 46.4375 31.847656 46.707031 C 31.847656 46.976562 32.0625 47.195312 32.332031 47.195312 L 40.144531 47.195312 C 40.414062 47.195312 40.632812 46.976562 40.632812 46.707031 C 40.632812 46.453125 40.441406 46.25 40.195312 46.222656 " fill-opacity="1" fill-rule="nonzero"/><g clip-path="url(#2abfe66fa2)"><path fill="#a33a0d" d="M 33.960938 37.59375 L 31.957031 36.714844 C 31.78125 36.636719 31.574219 36.671875 31.433594 36.800781 C 31.292969 36.929688 31.238281 37.128906 31.296875 37.3125 L 32.679688 41.570312 L 26.734375 46.710938 L 32.625 30.992188 L 36.261719 32.160156 Z M 19.328125 41.570312 L 20.710938 37.3125 C 20.769531 37.128906 20.714844 36.929688 20.574219 36.800781 C 20.433594 36.671875 20.226562 36.636719 20.050781 36.714844 L 18.046875 37.59375 L 15.746094 32.160156 L 19.382812 30.992188 L 25.273438 46.710938 Z M 26.003906 27.214844 C 26.949219 27.214844 27.863281 27.035156 28.722656 26.703125 L 28.722656 29.140625 L 26.003906 31.179688 L 23.285156 29.140625 L 23.285156 26.707031 C 24.144531 27.035156 25.058594 27.214844 26.003906 27.214844 Z M 17.777344 16.335938 C 19.753906 16.570312 26.171875 17.003906 29.199219 13.421875 C 29.238281 14.273438 29.210938 15.382812 28.886719 16.253906 C 28.824219 16.421875 28.855469 16.605469 28.96875 16.738281 C 29.082031 16.871094 29.257812 16.933594 29.429688 16.902344 C 29.5625 16.878906 32.238281 16.367188 34.242188 14.597656 L 34.242188 15.777344 C 34.242188 21.546875 30.546875 26.238281 26.003906 26.238281 C 21.609375 26.238281 18.007812 21.847656 17.777344 16.335938 Z M 16.539062 20.957031 C 15.652344 20.957031 14.914062 20.226562 14.828125 19.257812 L 14.804688 18.980469 C 14.746094 18.292969 15.015625 17.648438 15.535156 17.253906 C 15.921875 16.957031 16.386719 16.851562 16.839844 16.949219 C 16.957031 18.378906 17.289062 19.730469 17.792969 20.957031 Z M 19.859375 6.925781 C 21.261719 5.316406 23.328125 4.496094 26.003906 4.496094 C 28.679688 4.496094 30.746094 5.316406 32.148438 6.925781 C 33.730469 8.746094 34.203125 11.253906 34.308594 13.125 C 33.078125 14.648438 31.117188 15.417969 30.035156 15.746094 C 30.378906 14 30.042969 12.042969 30.023438 11.945312 C 29.988281 11.742188 29.824219 11.582031 29.617188 11.550781 C 29.414062 11.519531 29.207031 11.621094 29.113281 11.808594 C 26.847656 16.167969 19.457031 15.554688 17.726562 15.347656 C 17.617188 14.066406 17.453125 9.695312 19.859375 6.925781 Z M 36.492188 17.253906 C 37.007812 17.648438 37.28125 18.292969 37.21875 18.980469 L 37.195312 19.253906 C 37.109375 20.226562 36.375 20.957031 35.484375 20.957031 L 34.214844 20.957031 C 34.71875 19.730469 35.050781 18.378906 35.167969 16.953125 C 35.625 16.847656 36.097656 16.953125 36.492188 17.253906 Z M 26.898438 31.726562 L 28.722656 30.359375 L 28.722656 32.734375 Z M 23.285156 30.359375 L 25.109375 31.726562 L 23.285156 32.734375 Z M 31.699219 30.695312 L 26.003906 45.886719 L 20.308594 30.695312 L 22.3125 30.054688 L 22.3125 33.558594 C 22.3125 33.730469 22.402344 33.890625 22.550781 33.976562 C 22.628906 34.023438 22.714844 34.046875 22.796875 34.046875 C 22.878906 34.046875 22.960938 34.027344 23.035156 33.984375 L 26.003906 32.34375 L 28.972656 33.984375 C 29.046875 34.027344 29.128906 34.046875 29.210938 34.046875 C 29.296875 34.046875 29.382812 34.023438 29.457031 33.976562 C 29.605469 33.890625 29.695312 33.730469 29.695312 33.558594 L 29.695312 30.054688 Z M 41.316406 32.757812 L 29.695312 29.03125 L 29.695312 26.253906 C 31.371094 25.339844 32.789062 23.824219 33.765625 21.929688 L 35.484375 21.929688 C 36.882812 21.929688 38.035156 20.816406 38.164062 19.339844 L 38.191406 19.066406 C 38.28125 18.046875 37.867188 17.078125 37.082031 16.476562 C 36.527344 16.054688 35.871094 15.875 35.214844 15.957031 C 35.214844 15.910156 35.214844 15.863281 35.214844 15.8125 C 35.285156 15.292969 35.925781 9.785156 32.886719 6.292969 C 31.292969 4.453125 28.976562 3.523438 26.003906 3.523438 C 23.03125 3.523438 20.71875 4.453125 19.121094 6.292969 C 16.082031 9.785156 16.726562 15.292969 16.792969 15.8125 C 16.792969 15.859375 16.792969 15.90625 16.792969 15.953125 C 16.144531 15.878906 15.492188 16.058594 14.941406 16.476562 C 14.15625 17.078125 13.742188 18.046875 13.835938 19.066406 L 13.859375 19.34375 C 13.988281 20.816406 15.140625 21.929688 16.539062 21.929688 L 18.242188 21.929688 C 19.222656 23.824219 20.636719 25.339844 22.3125 26.253906 L 22.3125 29.03125 L 10.691406 32.757812 C 9.625 33.097656 8.90625 34.082031 8.90625 35.203125 L 8.90625 47.460938 C 8.90625 47.730469 9.125 47.949219 9.394531 47.949219 C 9.664062 47.949219 9.878906 47.730469 9.878906 47.460938 L 9.878906 35.203125 C 9.878906 34.507812 10.324219 33.898438 10.988281 33.683594 L 14.8125 32.457031 L 17.34375 38.429688 C 17.394531 38.546875 17.488281 38.644531 17.609375 38.691406 C 17.730469 38.738281 17.867188 38.738281 17.988281 38.683594 L 19.449219 38.042969 L 18.300781 41.578125 C 18.242188 41.765625 18.300781 41.96875 18.445312 42.097656 L 25.683594 48.355469 C 25.703125 48.375 25.726562 48.390625 25.75 48.402344 C 25.757812 48.410156 25.765625 48.414062 25.773438 48.417969 C 25.785156 48.421875 25.792969 48.429688 25.800781 48.433594 C 25.808594 48.4375 25.816406 48.4375 25.828125 48.441406 C 25.832031 48.445312 25.835938 48.445312 25.839844 48.449219 C 25.863281 48.457031 25.890625 48.460938 25.914062 48.46875 C 25.917969 48.46875 25.921875 48.46875 25.925781 48.46875 C 25.953125 48.472656 25.976562 48.476562 26.003906 48.476562 C 26.03125 48.476562 26.054688 48.472656 26.082031 48.46875 C 26.085938 48.46875 26.089844 48.46875 26.09375 48.46875 C 26.117188 48.460938 26.144531 48.457031 26.167969 48.449219 C 26.171875 48.445312 26.175781 48.445312 26.179688 48.441406 C 26.191406 48.4375 26.199219 48.4375 26.207031 48.433594 C 26.214844 48.429688 26.226562 48.421875 26.234375 48.417969 C 26.242188 48.414062 26.25 48.410156 26.257812 48.402344 C 26.28125 48.390625 26.304688 48.375 26.324219 48.355469 L 33.5625 42.097656 C 33.710938 41.96875 33.765625 41.765625 33.707031 41.578125 L 32.558594 38.042969 L 34.023438 38.683594 C 34.140625 38.738281 34.277344 38.738281 34.398438 38.691406 C 34.519531 38.644531 34.617188 38.546875 34.667969 38.429688 L 37.195312 32.457031 L 41.019531 33.683594 C 41.683594 33.898438 42.128906 34.507812 42.128906 35.203125 L 42.128906 47.460938 C 42.128906 47.730469 42.347656 47.949219 42.617188 47.949219 C 42.882812 47.949219 43.101562 47.730469 43.101562 47.460938 L 43.101562 35.203125 C 43.101562 34.082031 42.382812 33.097656 41.316406 32.757812 " fill-opacity="1" fill-rule="nonzero"/></g><path fill="#a33a0d" d="M 26.003906 34.71875 C 25.734375 34.71875 25.515625 34.9375 25.515625 35.207031 L 25.515625 36.261719 C 25.515625 36.53125 25.734375 36.75 26.003906 36.75 C 26.273438 36.75 26.492188 36.53125 26.492188 36.261719 L 26.492188 35.207031 C 26.492188 34.9375 26.273438 34.71875 26.003906 34.71875 " fill-opacity="1" fill-rule="nonzero"/><path fill="#a33a0d" d="M 26.003906 39.515625 C 25.734375 39.515625 25.515625 39.734375 25.515625 40.003906 L 25.515625 41.0625 C 25.515625 41.332031 25.734375 41.546875 26.003906 41.546875 C 26.273438 41.546875 26.492188 41.332031 26.492188 41.0625 L 26.492188 40.003906 C 26.492188 39.734375 26.273438 39.515625 26.003906 39.515625 " fill-opacity="1" fill-rule="nonzero"/></svg>