<svg
	xmlns="http://www.w3.org/2000/svg"
	xmlns:xlink="http://www.w3.org/1999/xlink" width="200" zoomAndPan="magnify" viewBox="0 0 150 30.000001" height="40" preserveAspectRatio="xMidYMid meet" version="1.0">
	<defs>
        <linearGradient id="grad1" x1="0%" y1="0%" x2="100%" y2="0%">
			<stop offset="0%" style="stop-color:#B38A4B" />	
			<stop offset="22%" style="stop-color:#cb9b51" />	
			<stop offset="45%" style="stop-color:#f6e27a" />	
			<stop offset="50%" style="stop-color:#f6f2c0" />
            <stop offset="55%" style="stop-color:#f6e27a" />
			<stop offset="78%" style="stop-color:#cb9b51" />
			<stop offset="100%" style="stop-color:#B38A4B" />
		</linearGradient>
		<clipPath id="eb4254ebd6">
			<path d="M 60 6.046875 L 86 6.046875 L 86 25.644531 L 60 25.644531 Z M 60 6.046875 " clip-rule="nonzero"/>
		</clipPath>
		<clipPath id="caf94d90a1">
			<path d="M 5.324219 16 L 11 16 L 11 20 L 5.324219 20 Z M 5.324219 16 " clip-rule="nonzero"/>
		</clipPath>
		<clipPath id="a9df0ac642">
			<path d="M 135 16 L 140.324219 16 L 140.324219 20 L 135 20 Z M 135 16 " clip-rule="nonzero"/>
		</clipPath>
	</defs>
	<path fill="url(#grad1)" d="M 70.355469 11.441406 C 70.394531 11.296875 70.414062 11.148438 70.414062 10.996094 C 70.414062 10.847656 70.394531 10.699219 70.355469 10.554688 C 70.316406 10.40625 70.257812 10.269531 70.183594 10.140625 C 70.105469 10.007812 70.015625 9.890625 69.910156 9.78125 C 69.800781 9.675781 69.683594 9.585938 69.550781 9.511719 C 69.421875 9.433594 69.28125 9.378906 69.136719 9.339844 C 68.988281 9.300781 68.839844 9.28125 68.6875 9.28125 C 68.539062 9.28125 68.386719 9.300781 68.242188 9.339844 C 68.203125 9.484375 68.183594 9.632812 68.183594 9.78125 C 68.183594 9.933594 68.203125 10.082031 68.242188 10.226562 C 68.28125 10.375 68.339844 10.511719 68.414062 10.640625 C 68.492188 10.773438 68.582031 10.890625 68.6875 10.996094 C 68.796875 11.105469 68.914062 11.195312 69.046875 11.269531 C 69.175781 11.34375 69.316406 11.402344 69.460938 11.441406 C 69.609375 11.480469 69.757812 11.5 69.910156 11.5 C 70.058594 11.5 70.207031 11.480469 70.355469 11.441406 Z M 70.355469 11.441406 " fill-opacity="1" fill-rule="nonzero"/>
	<path fill="url(#grad1)" d="M 76.953125 10.996094 C 77.167969 10.78125 77.320312 10.523438 77.398438 10.226562 C 77.476562 9.929688 77.476562 9.636719 77.398438 9.339844 C 77.253906 9.300781 77.101562 9.28125 76.953125 9.28125 C 76.800781 9.28125 76.652344 9.300781 76.503906 9.339844 C 76.359375 9.378906 76.21875 9.433594 76.089844 9.511719 C 75.957031 9.585938 75.839844 9.675781 75.730469 9.78125 C 75.625 9.890625 75.535156 10.007812 75.457031 10.140625 C 75.382812 10.269531 75.324219 10.40625 75.285156 10.554688 C 75.246094 10.699219 75.226562 10.847656 75.226562 10.996094 C 75.226562 11.148438 75.246094 11.296875 75.285156 11.441406 C 75.582031 11.519531 75.882812 11.519531 76.179688 11.441406 C 76.476562 11.363281 76.734375 11.214844 76.953125 10.996094 Z M 76.953125 10.996094 " fill-opacity="1" fill-rule="nonzero"/>
	<path fill="url(#grad1)" d="M 11.269531 16.257812 L 10.585938 16.941406 L 11.988281 18.339844 L 10.574219 19.75 L 11.257812 20.433594 L 12.875 18.820312 L 57.484375 18.820312 L 57.484375 17.855469 L 12.875 17.855469 Z M 11.269531 16.257812 " fill-opacity="1" fill-rule="nonzero"/>
	<g clip-path="url(#eb4254ebd6)">
		<path fill="url(#grad1)" d="M 81.15625 16.230469 C 79.882812 16.367188 78.625 16.886719 77.414062 17.765625 C 77.34375 17.816406 77.273438 17.871094 77.203125 17.925781 C 74.855469 15.382812 73.285156 12.09375 73.261719 12.042969 L 73.042969 11.582031 C 73.273438 11.425781 73.476562 11.246094 73.65625 11.035156 C 73.839844 10.828125 73.992188 10.601562 74.117188 10.355469 C 74.238281 10.109375 74.332031 9.851562 74.390625 9.582031 C 74.449219 9.3125 74.472656 9.039062 74.460938 8.761719 C 74.449219 8.488281 74.402344 8.21875 74.324219 7.953125 C 74.242188 7.691406 74.132812 7.441406 73.988281 7.203125 C 73.847656 6.96875 73.675781 6.753906 73.476562 6.5625 C 73.28125 6.367188 73.0625 6.203125 72.820312 6.066406 C 72.582031 6.203125 72.363281 6.367188 72.164062 6.5625 C 71.96875 6.753906 71.796875 6.96875 71.652344 7.203125 C 71.511719 7.441406 71.398438 7.691406 71.320312 7.953125 C 71.238281 8.21875 71.195312 8.488281 71.183594 8.761719 C 71.171875 9.039062 71.195312 9.3125 71.253906 9.582031 C 71.3125 9.851562 71.402344 10.109375 71.527344 10.355469 C 71.652344 10.601562 71.804688 10.828125 71.984375 11.035156 C 72.167969 11.246094 72.371094 11.425781 72.601562 11.582031 L 72.382812 12.042969 C 72.359375 12.089844 70.789062 15.382812 68.441406 17.925781 C 68.371094 17.871094 68.300781 17.816406 68.226562 17.765625 C 67.019531 16.882812 65.761719 16.367188 64.488281 16.230469 C 62.667969 16.03125 61.238281 16.589844 60.570312 17.761719 C 60.308594 18.21875 60.195312 18.710938 60.230469 19.234375 C 60.265625 19.757812 60.441406 20.230469 60.761719 20.648438 C 61.539062 21.675781 62.921875 22.035156 64.550781 21.640625 C 65.863281 21.320312 67.1875 20.515625 68.507812 19.242188 C 70.933594 21.4375 72.359375 24.582031 72.378906 24.628906 L 72.820312 25.625 L 73.265625 24.628906 C 73.285156 24.582031 74.707031 21.4375 77.132812 19.242188 C 78.453125 20.515625 79.777344 21.320312 81.09375 21.640625 C 82.722656 22.039062 84.105469 21.675781 84.882812 20.652344 C 85.203125 20.230469 85.378906 19.761719 85.414062 19.234375 C 85.449219 18.710938 85.335938 18.21875 85.074219 17.765625 C 84.402344 16.589844 82.976562 16.03125 81.15625 16.230469 Z M 64.320312 20.703125 C 63.082031 21.003906 62.066406 20.773438 61.53125 20.070312 C 61.332031 19.804688 61.21875 19.503906 61.199219 19.171875 C 61.175781 18.839844 61.25 18.527344 61.414062 18.238281 C 61.8125 17.539062 62.660156 17.15625 63.789062 17.15625 C 63.988281 17.15625 64.1875 17.167969 64.382812 17.1875 C 65.632812 17.324219 66.765625 17.875 67.757812 18.621094 C 66.714844 19.609375 65.550781 20.402344 64.320312 20.703125 Z M 74.679688 20.488281 C 73.980469 21.390625 73.363281 22.347656 72.820312 23.351562 C 72.28125 22.347656 71.660156 21.390625 70.964844 20.488281 C 70.425781 19.789062 69.835938 19.140625 69.1875 18.546875 C 69.761719 17.914062 70.296875 17.25 70.792969 16.558594 C 71.539062 15.519531 72.214844 14.433594 72.820312 13.308594 C 73.429688 14.433594 74.105469 15.519531 74.851562 16.558594 C 75.347656 17.25 75.878906 17.914062 76.453125 18.546875 C 75.804688 19.140625 75.214844 19.789062 74.679688 20.488281 Z M 84.109375 20.070312 C 83.578125 20.773438 82.558594 21.003906 81.324219 20.703125 C 80.085938 20.402344 78.925781 19.609375 77.886719 18.621094 C 78.878906 17.875 80.011719 17.324219 81.257812 17.191406 C 82.679688 17.035156 83.761719 17.417969 84.230469 18.238281 C 84.394531 18.527344 84.464844 18.839844 84.441406 19.171875 C 84.421875 19.503906 84.308594 19.800781 84.109375 20.066406 Z M 84.109375 20.070312 " fill-opacity="1" fill-rule="nonzero"/>
	</g>
	<g clip-path="url(#caf94d90a1)">
		<path fill="url(#grad1)" d="M 5.320312 18.339844 L 8.46875 19.789062 L 10.410156 18.339844 L 8.46875 16.890625 Z M 5.320312 18.339844 " fill-opacity="1" fill-rule="nonzero"/>
	</g>
	<path fill="url(#grad1)" d="M 135.054688 16.941406 L 134.367188 16.257812 L 132.765625 17.855469 L 88.152344 17.855469 L 88.152344 18.820312 L 132.765625 18.820312 L 134.382812 20.433594 L 135.066406 19.75 L 133.648438 18.339844 Z M 135.054688 16.941406 " fill-opacity="1" fill-rule="nonzero"/>
	<g clip-path="url(#a9df0ac642)">
		<path fill="url(#grad1)" d="M 137.171875 16.890625 L 135.230469 18.339844 L 137.171875 19.789062 L 140.320312 18.339844 Z M 137.171875 16.890625 " fill-opacity="1" fill-rule="nonzero"/>
	</g>
</svg>