<svg xmlns="http://www.w3.org/2000/svg" xmlns:xlink="http://www.w3.org/1999/xlink" width="200" zoomAndPan="magnify" viewBox="0 0 150 30.000001" height="40" preserveAspectRatio="xMidYMid meet" version="1.0"><defs><clipPath id="0297f725ef"><path d="M 7.96875 6.011719 L 141.347656 6.011719 L 141.347656 19.804688 L 7.96875 19.804688 Z M 7.96875 6.011719 " clip-rule="nonzero"/></clipPath></defs><g clip-path="url(#0297f725ef)"><path fill="#eed0d2" d="M 138.277344 6.609375 C 136.902344 7.136719 134.640625 10.058594 134.460938 11.515625 C 134.386719 11.539062 134.3125 11.578125 134.25 11.636719 C 134.191406 11.6875 128.398438 16.671875 121.875 16.792969 C 119.90625 16.828125 117.535156 16.226562 114.847656 15.34375 C 117.570312 15.496094 121.355469 15.34375 122.011719 13.667969 C 122.835938 11.566406 119.863281 10.078125 117.335938 11.464844 C 115.515625 12.46875 113.269531 13.765625 112.367188 14.488281 C 111.699219 14.25 111.023438 14.003906 110.328125 13.753906 C 105.332031 11.941406 99.722656 9.910156 94.09375 9.429688 C 96.597656 9.265625 98.757812 8.980469 98.757812 7.886719 C 98.757812 6.101562 93.53125 5.816406 92.441406 6.117188 C 89.972656 6.789062 88.035156 8.554688 87.457031 9.511719 C 79.972656 10.285156 75.429688 13.132812 74.636719 13.664062 C 73.84375 13.132812 69.300781 10.285156 61.816406 9.511719 C 61.238281 8.554688 59.300781 6.789062 56.832031 6.117188 C 55.742188 5.816406 50.511719 6.101562 50.511719 7.886719 C 50.511719 8.980469 52.675781 9.265625 55.175781 9.429688 C 49.550781 9.910156 43.941406 11.941406 38.945312 13.753906 C 38.25 14.003906 37.570312 14.25 36.90625 14.488281 C 36 13.765625 33.757812 12.46875 31.9375 11.464844 C 29.410156 10.078125 26.4375 11.566406 27.261719 13.667969 C 27.917969 15.34375 31.699219 15.496094 34.421875 15.34375 C 31.734375 16.226562 29.363281 16.824219 27.398438 16.792969 C 20.886719 16.671875 15.082031 11.6875 15.023438 11.636719 C 14.96875 11.589844 14.90625 11.554688 14.84375 11.53125 C 14.621094 10.058594 12.398438 7.195312 11.035156 6.671875 C 9.394531 6.039062 7.167969 8.148438 8.253906 10.371094 C 8.910156 11.710938 12.582031 12.785156 14.140625 12.480469 C 14.164062 12.507812 14.1875 12.535156 14.214844 12.5625 C 14.367188 12.691406 16.554688 14.574219 19.777344 16.09375 C 19.175781 15.988281 18.6875 15.914062 18.414062 15.890625 C 17.023438 15.761719 15.128906 17.027344 15.253906 18.667969 C 15.402344 20.558594 19.550781 19.933594 21.574219 19.175781 C 22.753906 18.734375 24.273438 18.207031 25.339844 17.84375 C 26.003906 17.945312 26.683594 18.007812 27.375 18.019531 C 27.4375 18.023438 27.503906 18.023438 27.566406 18.023438 C 30.773438 18.023438 34.761719 16.578125 39.363281 14.910156 C 41.515625 14.128906 43.78125 13.308594 46.105469 12.589844 C 44.804688 13.308594 43.382812 14.160156 42.425781 14.878906 C 40.402344 16.394531 41.589844 19.824219 44.507812 18.210938 C 46.539062 17.085938 48.660156 13.257812 49.171875 11.726562 C 51.671875 11.09375 54.210938 10.648438 56.726562 10.5625 C 60.683594 10.429688 64.0625 10.953125 66.757812 11.675781 C 64.765625 11.71875 63.496094 12.207031 62.8125 12.6875 C 61.738281 13.445312 61.460938 14.875 62.898438 15.390625 C 64.078125 15.808594 65.507812 14.710938 67.53125 14.121094 C 69.175781 13.640625 72.140625 14.21875 73.261719 14.265625 C 73.761719 14.554688 74.027344 14.738281 74.039062 14.746094 C 74.222656 14.875 74.445312 14.890625 74.636719 14.8125 C 74.824219 14.890625 75.050781 14.875 75.230469 14.746094 C 75.242188 14.738281 75.511719 14.554688 76.011719 14.265625 C 77.128906 14.21875 80.09375 13.640625 81.742188 14.121094 C 83.761719 14.710938 85.195312 15.808594 86.375 15.390625 C 87.8125 14.875 87.53125 13.445312 86.457031 12.6875 C 85.773438 12.207031 84.5 11.71875 82.503906 11.675781 C 85.203125 10.953125 88.582031 10.425781 92.546875 10.5625 C 95.0625 10.648438 97.601562 11.09375 100.101562 11.726562 C 100.613281 13.257812 102.734375 17.085938 104.761719 18.210938 C 107.679688 19.824219 108.867188 16.394531 106.847656 14.878906 C 105.886719 14.160156 104.464844 13.308594 103.164062 12.589844 C 105.492188 13.308594 107.757812 14.128906 109.910156 14.910156 C 114.511719 16.578125 118.5 18.023438 121.703125 18.023438 C 121.769531 18.023438 121.832031 18.023438 121.894531 18.019531 C 122.585938 18.007812 123.265625 17.945312 123.933594 17.84375 C 124.996094 18.207031 126.519531 18.734375 127.699219 19.175781 C 129.71875 19.933594 133.871094 20.558594 134.015625 18.667969 C 134.144531 17.027344 132.246094 15.761719 130.859375 15.890625 C 130.582031 15.914062 130.097656 15.988281 129.496094 16.09375 C 132.71875 14.574219 134.90625 12.691406 135.054688 12.5625 C 135.105469 12.519531 135.140625 12.46875 135.171875 12.417969 C 136.730469 12.71875 140.402344 11.648438 141.058594 10.308594 C 142.144531 8.085938 139.921875 5.976562 138.277344 6.609375 " fill-opacity="1" fill-rule="nonzero"/></g></svg>