<svg xmlns="http://www.w3.org/2000/svg" xmlns:xlink="http://www.w3.org/1999/xlink" width="70" zoomAndPan="magnify" viewBox="0 0 52.5 52.499999" height="70" preserveAspectRatio="xMidYMid meet" version="1.0"><defs><filter x="0%" y="0%" width="100%" height="100%" id="d9a6db71d9"><feColorMatrix values="0 0 0 0 1 0 0 0 0 1 0 0 0 0 1 0 0 0 1 0" color-interpolation-filters="sRGB"/></filter><mask id="4cbc80aa12"><g filter="url(#d9a6db71d9)"><rect x="-5.25" width="63" fill="#000000" y="-5.25" height="62.999999" fill-opacity="0.15"/></g></mask><clipPath id="860c8bbb19"><path d="M 0.148438 0.457031 L 47.695312 0.457031 L 47.695312 36 L 0.148438 36 Z M 0.148438 0.457031 " clip-rule="nonzero"/></clipPath><clipPath id="7d1ab43427"><rect x="0" width="49" y="0" height="37"/></clipPath><clipPath id="075d21f5ea"><path d="M 4.519531 17.953125 L 46.867188 17.953125 L 46.867188 40.984375 L 4.519531 40.984375 Z M 4.519531 17.953125 " clip-rule="nonzero"/></clipPath></defs><g mask="url(#4cbc80aa12)"><g transform="matrix(1, 0, 0, 1, 2, 7)"><g clip-path="url(#7d1ab43427)"><path fill="#e9aa7d" d="M 6.910156 17.589844 L 5.976562 15.976562 L 5.039062 17.589844 L 5.976562 19.148438 Z M 6.910156 17.589844 " fill-opacity="1" fill-rule="nonzero"/><path fill="#e9aa7d" d="M 17.523438 13.738281 L 16.636719 12.128906 L 15.703125 13.738281 L 16.636719 15.300781 Z M 17.523438 13.738281 " fill-opacity="1" fill-rule="nonzero"/><path fill="#e9aa7d" d="M 42.957031 17.589844 L 42.023438 15.976562 L 41.085938 17.589844 L 42.023438 19.148438 Z M 42.957031 17.589844 " fill-opacity="1" fill-rule="nonzero"/><path fill="#e9aa7d" d="M 32.296875 13.738281 L 31.359375 12.128906 L 30.472656 13.738281 L 31.359375 15.300781 Z M 32.296875 13.738281 " fill-opacity="1" fill-rule="nonzero"/><g clip-path="url(#860c8bbb19)"><path fill="#e9aa7d" d="M 40.667969 24.246094 L 37.289062 13.0625 L 30.890625 21.4375 L 24.855469 9.476562 L 26.675781 5.832031 L 24.023438 0.527344 L 21.320312 5.832031 L 23.140625 9.476562 L 17.105469 21.386719 L 10.8125 13.0625 L 7.429688 24.300781 L 0.148438 15.925781 L 5.144531 31.738281 L 5.195312 31.839844 L 5.195312 35.691406 L 42.800781 35.691406 L 42.800781 31.839844 L 42.90625 31.582031 L 47.847656 15.925781 Z M 41.035156 30.957031 L 36.925781 30.957031 L 39.992188 27.421875 Z M 36.664062 16.445312 L 39.472656 25.652344 L 35.414062 30.332031 L 31.722656 23 Z M 33.960938 30.957031 L 25.636719 30.957031 L 30.628906 24.402344 Z M 23.035156 5.832031 L 23.972656 4.011719 L 24.910156 5.832031 L 23.972656 7.707031 Z M 24.023438 11.191406 L 29.851562 22.789062 L 24.023438 30.488281 L 18.199219 22.738281 Z M 8.054688 27.472656 L 11.074219 30.957031 L 7.015625 30.957031 Z M 22.410156 30.957031 L 14.039062 30.957031 L 17.367188 24.300781 Z M 11.4375 16.445312 L 16.328125 22.894531 L 12.632812 30.332031 L 8.628906 25.703125 Z M 3.894531 22.6875 L 6.859375 26.066406 L 5.921875 29.085938 Z M 41.242188 34.128906 L 6.753906 34.128906 L 6.753906 32.515625 L 41.242188 32.515625 Z M 42.074219 28.980469 L 41.191406 26.015625 L 44.101562 22.6875 Z M 42.074219 28.980469 " fill-opacity="1" fill-rule="nonzero"/></g></g></g></g><g clip-path="url(#075d21f5ea)"><path fill="#f0dfa2" d="M 46.746094 30.917969 C 46.746094 33.410156 44.71875 35.386719 42.019531 35.386719 C 38.996094 35.386719 36.542969 32.148438 36.542969 28.15625 C 36.542969 28.097656 36.542969 28.035156 36.546875 27.976562 L 33.621094 36.496094 L 32.445312 36.597656 L 26.738281 19.933594 C 26.691406 20.011719 26.644531 20.09375 26.59375 20.179688 L 22.675781 27.226562 L 26.648438 34.140625 C 27.570312 35.75 27.902344 35.933594 28.953125 35.933594 L 29.308594 35.933594 L 29.308594 36.367188 L 24.726562 36.367188 L 24.726562 35.933594 L 25.210938 35.933594 C 26.082031 35.933594 26.46875 35.882812 26.46875 35.523438 C 26.46875 35.265625 26.289062 34.882812 25.929688 34.242188 L 22.292969 27.914062 L 18.875 34.0625 C 15.855469 39.5 13.496094 40.671875 9.859375 40.671875 C 8.597656 40.671875 7.582031 40.222656 6.789062 39.597656 C 5.566406 38.632812 4.570312 37.148438 4.570312 35.019531 C 4.570312 31.972656 6.738281 29.714844 9.457031 29.273438 L 9.496094 29.527344 C 6.890625 29.953125 4.824219 32.105469 4.824219 35.019531 C 4.824219 37.058594 5.773438 38.46875 6.945312 39.394531 C 7.628906 39.929688 8.621094 40.183594 9.316406 40.183594 C 12.433594 40.183594 14.808594 37.695312 17.3125 33.140625 L 21.0625 26.328125 L 20.695312 25.730469 C 20.222656 25.078125 19.421875 24.539062 18.476562 24.539062 C 17.644531 24.539062 17.023438 25.03125 17.023438 25.730469 C 17.023438 26.273438 17.449219 26.613281 17.867188 26.613281 C 18.148438 26.613281 18.378906 26.460938 18.503906 26.300781 L 18.707031 26.457031 C 18.539062 26.671875 18.242188 26.871094 17.867188 26.871094 C 17.3125 26.867188 16.765625 26.421875 16.765625 25.730469 C 16.765625 24.847656 17.554688 24.28125 18.476562 24.28125 C 19.105469 24.28125 19.683594 24.503906 20.144531 24.824219 L 17.296875 20.179688 C 16.300781 18.59375 16.121094 18.207031 15.351562 18.207031 L 12.558594 18.207031 L 12.558594 17.953125 L 19.144531 17.953125 L 19.144531 18.414062 L 18.679688 18.414062 C 17.863281 18.414062 17.476562 18.492188 17.476562 18.847656 C 17.476562 19.105469 17.683594 19.515625 18.042969 20.105469 L 21.449219 25.636719 L 24.777344 19.644531 C 25.097656 19.070312 25.558594 18.683594 25.910156 18.515625 C 25.953125 18.496094 25.992188 18.480469 26.03125 18.464844 L 26.03125 18.414062 L 24.699219 18.414062 L 24.699219 17.953125 L 29.652344 17.953125 L 29.652344 18.414062 L 28.542969 18.414062 C 28.277344 18.414062 28.0625 18.4375 27.855469 18.550781 C 28.132812 18.722656 28.347656 19.050781 28.476562 19.414062 L 33.265625 33.421875 C 33.445312 33.910156 33.46875 34.214844 33.46875 34.320312 L 33.46875 34.34375 L 33.675781 34.34375 L 33.675781 34.320312 C 33.675781 34.242188 33.699219 33.933594 33.929688 33.347656 L 38.667969 19.769531 C 38.773438 19.464844 38.84375 19.1875 38.84375 18.957031 C 38.84375 18.492188 38.542969 18.207031 37.59375 18.207031 L 34.03125 18.207031 L 34.03125 17.953125 L 41.359375 17.953125 L 41.359375 18.414062 L 40.84375 18.414062 C 39.921875 18.414062 39.753906 18.621094 39.359375 19.769531 L 36.984375 26.699219 C 36.859375 27.183594 36.800781 27.675781 36.800781 28.15625 C 36.800781 32.007812 39.136719 35.132812 42.019531 35.132812 C 44.589844 35.132812 46.492188 33.261719 46.492188 30.917969 C 46.492188 28.664062 44.828125 27.035156 42.667969 27.035156 C 41.128906 27.035156 40.097656 27.824219 39.492188 28.777344 L 39.277344 28.640625 C 39.917969 27.628906 41.03125 26.777344 42.667969 26.777344 C 44.96875 26.777344 46.746094 28.527344 46.746094 30.917969 Z M 26.03125 18.414062 L 26.03125 18.464844 C 25.992188 18.480469 25.953125 18.496094 25.910156 18.515625 C 25.726562 18.4375 25.496094 18.414062 25.171875 18.414062 Z M 26.03125 18.414062 " fill-opacity="1" fill-rule="nonzero"/></g></svg>