<svg xmlns="http://www.w3.org/2000/svg" xmlns:xlink="http://www.w3.org/1999/xlink" width="70" zoomAndPan="magnify" viewBox="0 0 52.5 52.499999" height="70" preserveAspectRatio="xMidYMid meet" version="1.0"><defs><clipPath id="75bb8bc7de"><path d="M 2.027344 10 L 19 10 L 19 42 L 2.027344 42 Z M 2.027344 10 " clip-rule="nonzero"/></clipPath><clipPath id="339cbe6a5f"><path d="M 4 8.679688 L 48 8.679688 L 48 30 L 4 30 Z M 4 8.679688 " clip-rule="nonzero"/></clipPath><clipPath id="a84e57e527"><path d="M 4 27 L 48 27 L 48 43.597656 L 4 43.597656 Z M 4 27 " clip-rule="nonzero"/></clipPath></defs><g clip-path="url(#75bb8bc7de)"><path fill="#d7e8bc" d="M 18.640625 26.003906 L 3.15625 10.9375 C 2.460938 11.871094 2.046875 13.03125 2.046875 14.285156 L 2.046875 37.722656 C 2.046875 38.976562 2.460938 40.132812 3.15625 41.070312 L 18.640625 26.003906 " fill-opacity="1" fill-rule="nonzero"/></g><g clip-path="url(#339cbe6a5f)"><path fill="#d7e8bc" d="M 23.242188 28.175781 C 24.785156 29.679688 27.207031 29.679688 28.753906 28.175781 L 47.667969 9.773438 C 46.738281 9.089844 45.589844 8.683594 44.347656 8.683594 L 7.648438 8.683594 C 6.40625 8.683594 5.257812 9.089844 4.328125 9.773438 L 23.242188 28.175781 " fill-opacity="1" fill-rule="nonzero"/></g><path fill="#d7e8bc" d="M 48.835938 10.9375 L 33.351562 26.003906 L 48.835938 41.070312 C 49.535156 40.132812 49.949219 38.976562 49.949219 37.722656 L 49.949219 14.285156 C 49.949219 13.03125 49.535156 11.871094 48.835938 10.9375 " fill-opacity="1" fill-rule="nonzero"/><g clip-path="url(#a84e57e527)"><path fill="#d7e8bc" d="M 32.167969 27.152344 L 29.902344 29.359375 C 28.851562 30.382812 27.464844 30.945312 25.996094 30.945312 C 24.53125 30.945312 23.140625 30.382812 22.089844 29.359375 L 19.824219 27.152344 L 4.328125 42.230469 C 5.257812 42.917969 6.40625 43.324219 7.648438 43.324219 L 44.347656 43.324219 C 45.589844 43.324219 46.738281 42.917969 47.667969 42.230469 L 32.167969 27.152344 " fill-opacity="1" fill-rule="nonzero"/></g></svg>