<svg xmlns="http://www.w3.org/2000/svg" xmlns:xlink="http://www.w3.org/1999/xlink" width="70" zoomAndPan="magnify" viewBox="0 0 52.5 52.499999" height="70" preserveAspectRatio="xMidYMid meet" version="1.0"><defs><clipPath id="41e2c613b7"><path d="M 6.796875 6.796875 L 46.914062 6.796875 L 46.914062 46.914062 L 6.796875 46.914062 Z M 6.796875 6.796875 " clip-rule="nonzero"/></clipPath></defs><g clip-path="url(#41e2c613b7)"><path fill="#aa98c4" d="M 40.851562 46.800781 L 12.742188 46.800781 C 9.464844 46.800781 6.796875 44.132812 6.796875 40.851562 L 6.796875 12.742188 C 6.796875 9.464844 9.464844 6.796875 12.742188 6.796875 L 40.851562 6.796875 C 44.132812 6.796875 46.800781 9.464844 46.800781 12.742188 L 46.800781 40.851562 C 46.800781 44.132812 44.132812 46.800781 40.851562 46.800781 Z M 12.742188 8.960938 C 10.65625 8.960938 8.960938 10.65625 8.960938 12.742188 L 8.960938 40.851562 C 8.960938 42.941406 10.65625 44.636719 12.742188 44.636719 L 40.851562 44.636719 C 42.941406 44.636719 44.636719 42.941406 44.636719 40.851562 L 44.636719 12.742188 C 44.636719 10.65625 42.941406 8.960938 40.851562 8.960938 Z M 12.742188 8.960938 " fill-opacity="1" fill-rule="nonzero"/></g><path fill="#aa98c4" d="M 26.796875 38.152344 C 20.539062 38.152344 15.445312 33.058594 15.445312 26.796875 C 15.445312 20.539062 20.539062 15.445312 26.796875 15.445312 C 33.058594 15.445312 38.152344 20.539062 38.152344 26.796875 C 38.152344 33.058594 33.058594 38.152344 26.796875 38.152344 Z M 26.796875 17.609375 C 21.730469 17.609375 17.609375 21.730469 17.609375 26.796875 C 17.609375 31.867188 21.730469 35.988281 26.796875 35.988281 C 31.867188 35.988281 35.988281 31.867188 35.988281 26.796875 C 35.988281 21.730469 31.867188 17.609375 26.796875 17.609375 Z M 26.796875 17.609375 " fill-opacity="1" fill-rule="nonzero"/><path fill="#aa98c4" d="M 38.691406 18.691406 C 36.605469 18.691406 34.90625 16.992188 34.90625 14.90625 C 34.90625 12.820312 36.605469 11.121094 38.691406 11.121094 C 40.777344 11.121094 42.476562 12.820312 42.476562 14.90625 C 42.476562 16.992188 40.777344 18.691406 38.691406 18.691406 Z M 38.691406 13.285156 C 37.796875 13.285156 37.070312 14.011719 37.070312 14.90625 C 37.070312 15.800781 37.796875 16.527344 38.691406 16.527344 C 39.585938 16.527344 40.3125 15.800781 40.3125 14.90625 C 40.3125 14.011719 39.585938 13.285156 38.691406 13.285156 Z M 38.691406 13.285156 " fill-opacity="1" fill-rule="nonzero"/></svg>