<svg xmlns="http://www.w3.org/2000/svg" xmlns:xlink="http://www.w3.org/1999/xlink" width="300" zoomAndPan="magnify" viewBox="0 0 224.87999 37.5" height="50" preserveAspectRatio="xMidYMid meet" version="1.0"><defs><clipPath id="ca81f2bdca"><path d="M 71 23 L 127 23 L 127 35.417969 L 71 35.417969 Z M 71 23 " clip-rule="nonzero"/></clipPath><clipPath id="09bc7f48fa"><path d="M 120 1.371094 L 135 1.371094 L 135 21 L 120 21 Z M 120 1.371094 " clip-rule="nonzero"/></clipPath><clipPath id="c2f52d4cdb"><path d="M 74 1.371094 L 99 1.371094 L 99 22 L 74 22 Z M 74 1.371094 " clip-rule="nonzero"/></clipPath><clipPath id="fce90a85c4"><path d="M 136 1.371094 L 153 1.371094 L 153 22 L 136 22 Z M 136 1.371094 " clip-rule="nonzero"/></clipPath><clipPath id="0e1312abfc"><path d="M 154 1.371094 L 169.503906 1.371094 L 169.503906 22 L 154 22 Z M 154 1.371094 " clip-rule="nonzero"/></clipPath><clipPath id="a633e1d992"><path d="M 101 1.371094 L 119 1.371094 L 119 22 L 101 22 Z M 101 1.371094 " clip-rule="nonzero"/></clipPath><clipPath id="d6c7bb9121"><path d="M 55.523438 1.371094 L 73 1.371094 L 73 22 L 55.523438 22 Z M 55.523438 1.371094 " clip-rule="nonzero"/></clipPath></defs><g clip-path="url(#ca81f2bdca)"><path fill="#dfad87" d="M 126.121094 28.160156 C 119.515625 33.027344 109.941406 35.625 101.699219 35.625 C 90.140625 35.625 79.734375 31.351562 71.863281 24.238281 C 71.242188 23.679688 71.796875 22.917969 72.539062 23.355469 C 81.035156 28.296875 91.539062 31.269531 102.390625 31.269531 C 109.707031 31.269531 117.757812 29.757812 125.160156 26.613281 C 126.277344 26.140625 127.214844 27.347656 126.121094 28.160156 " fill-opacity="1" fill-rule="evenodd"/></g><path fill="#dfad87" d="M 128.867188 25.015625 C 128.023438 23.9375 123.285156 24.507812 121.15625 24.757812 C 120.507812 24.839844 120.410156 24.273438 120.992188 23.867188 C 124.769531 21.210938 130.964844 21.980469 131.6875 22.871094 C 132.410156 23.765625 131.5 29.976562 127.949219 32.9375 C 127.40625 33.394531 126.886719 33.152344 127.128906 32.546875 C 127.925781 30.558594 129.710938 26.101562 128.867188 25.015625 " fill-opacity="1" fill-rule="evenodd"/><g clip-path="url(#09bc7f48fa)"><path fill="#000000" d="M 121.304688 5.113281 L 121.304688 2.527344 C 121.304688 2.136719 121.601562 1.875 121.957031 1.875 L 133.523438 1.875 C 133.894531 1.875 134.191406 2.144531 134.191406 2.527344 L 134.191406 4.742188 C 134.183594 5.113281 133.875 5.597656 133.320312 6.363281 L 127.328125 14.917969 C 129.554688 14.863281 131.902344 15.195312 133.921875 16.332031 C 134.378906 16.589844 134.5 16.964844 134.535156 17.335938 L 134.535156 20.09375 C 134.535156 20.46875 134.121094 20.910156 133.683594 20.683594 C 130.128906 18.816406 125.402344 18.613281 121.46875 20.703125 C 121.066406 20.921875 120.648438 20.484375 120.648438 20.109375 L 120.648438 17.492188 C 120.648438 17.070312 120.652344 16.351562 121.074219 15.714844 L 128.015625 5.757812 L 121.972656 5.757812 C 121.601562 5.757812 121.304688 5.496094 121.304688 5.113281 " fill-opacity="1" fill-rule="evenodd"/></g><g clip-path="url(#c2f52d4cdb)"><path fill="#000000" d="M 79.125 21.226562 L 75.605469 21.226562 C 75.269531 21.203125 75.003906 20.949219 74.980469 20.628906 L 74.980469 2.574219 C 74.980469 2.210938 75.28125 1.925781 75.65625 1.925781 L 78.9375 1.925781 C 79.277344 1.941406 79.550781 2.203125 79.574219 2.527344 L 79.574219 4.890625 L 79.640625 4.890625 C 80.496094 2.609375 82.105469 1.542969 84.269531 1.542969 C 86.472656 1.542969 87.847656 2.609375 88.835938 4.890625 C 89.6875 2.609375 91.625 1.542969 93.695312 1.542969 C 95.171875 1.542969 96.785156 2.152344 97.769531 3.519531 C 98.882812 5.039062 98.65625 7.242188 98.65625 9.179688 L 98.648438 20.574219 C 98.648438 20.933594 98.347656 21.226562 97.972656 21.226562 L 94.457031 21.226562 C 94.105469 21.203125 93.824219 20.921875 93.824219 20.574219 L 93.824219 11.003906 C 93.824219 10.242188 93.894531 8.34375 93.726562 7.621094 C 93.464844 6.40625 92.675781 6.066406 91.65625 6.066406 C 90.808594 6.066406 89.917969 6.636719 89.554688 7.546875 C 89.195312 8.457031 89.230469 9.980469 89.230469 11.003906 L 89.230469 20.574219 C 89.230469 20.933594 88.925781 21.226562 88.550781 21.226562 L 85.039062 21.226562 C 84.679688 21.203125 84.40625 20.921875 84.40625 20.574219 L 84.398438 11.003906 C 84.398438 8.992188 84.730469 6.027344 82.234375 6.027344 C 79.703125 6.027344 79.804688 8.917969 79.804688 11.003906 L 79.804688 20.574219 C 79.804688 20.933594 79.5 21.226562 79.125 21.226562 " fill-opacity="1" fill-rule="evenodd"/></g><g clip-path="url(#fce90a85c4)"><path fill="#000000" d="M 144.144531 1.542969 C 149.367188 1.542969 152.191406 6.027344 152.191406 11.726562 C 152.191406 17.234375 149.070312 21.601562 144.144531 21.601562 C 139.019531 21.601562 136.230469 17.121094 136.230469 11.535156 C 136.230469 5.914062 139.054688 1.542969 144.144531 1.542969 M 144.175781 5.230469 C 141.582031 5.230469 141.417969 8.761719 141.417969 10.964844 C 141.417969 13.171875 141.382812 17.882812 144.144531 17.882812 C 146.871094 17.882812 147 14.082031 147 11.765625 C 147 10.242188 146.9375 8.421875 146.476562 6.976562 C 146.078125 5.71875 145.292969 5.230469 144.175781 5.230469 " fill-opacity="1" fill-rule="evenodd"/></g><g clip-path="url(#0e1312abfc)"><path fill="#000000" d="M 158.960938 21.226562 L 155.457031 21.226562 C 155.105469 21.203125 154.824219 20.921875 154.824219 20.574219 L 154.816406 2.515625 C 154.847656 2.183594 155.140625 1.925781 155.496094 1.925781 L 158.757812 1.925781 C 159.0625 1.941406 159.316406 2.148438 159.382812 2.429688 L 159.382812 5.191406 L 159.449219 5.191406 C 160.433594 2.722656 161.8125 1.542969 164.242188 1.542969 C 165.820312 1.542969 167.359375 2.113281 168.351562 3.671875 C 169.269531 5.117188 169.269531 7.546875 169.269531 9.292969 L 169.269531 20.65625 C 169.230469 20.972656 168.9375 21.226562 168.59375 21.226562 L 165.066406 21.226562 C 164.742188 21.203125 164.476562 20.964844 164.441406 20.65625 L 164.441406 10.851562 C 164.441406 8.875 164.667969 5.988281 162.238281 5.988281 C 161.382812 5.988281 160.597656 6.5625 160.207031 7.433594 C 159.710938 8.535156 159.648438 9.632812 159.648438 10.851562 L 159.648438 20.574219 C 159.640625 20.933594 159.335938 21.226562 158.960938 21.226562 " fill-opacity="1" fill-rule="evenodd"/></g><g clip-path="url(#a633e1d992)"><path fill="#000000" d="M 112.089844 12.601562 C 112.089844 13.972656 112.121094 15.117188 111.429688 16.332031 C 110.871094 17.324219 109.980469 17.929688 108.996094 17.929688 C 107.644531 17.929688 106.851562 16.902344 106.851562 15.382812 C 106.851562 12.386719 109.539062 11.839844 112.089844 11.839844 L 112.089844 12.601562 M 115.636719 21.175781 C 115.402344 21.386719 115.066406 21.398438 114.804688 21.261719 C 113.636719 20.292969 113.425781 19.839844 112.785156 18.917969 C 110.855469 20.886719 109.484375 21.472656 106.988281 21.472656 C 104.023438 21.472656 101.722656 19.648438 101.722656 15.992188 C 101.722656 13.136719 103.265625 11.191406 105.472656 10.242188 C 107.382812 9.402344 110.050781 9.253906 112.089844 9.019531 L 112.089844 8.566406 C 112.089844 7.730469 112.152344 6.738281 111.65625 6.015625 C 111.230469 5.367188 110.410156 5.101562 109.683594 5.101562 C 108.34375 5.101562 107.148438 5.789062 106.859375 7.214844 C 106.796875 7.53125 106.566406 7.84375 106.246094 7.859375 L 102.835938 7.492188 C 102.546875 7.425781 102.226562 7.195312 102.3125 6.753906 C 103.09375 2.617188 106.832031 1.371094 110.179688 1.371094 C 111.890625 1.371094 114.125 1.824219 115.476562 3.121094 C 117.1875 4.71875 117.027344 6.851562 117.027344 9.171875 L 117.027344 14.65625 C 117.027344 16.304688 117.707031 17.027344 118.351562 17.917969 C 118.574219 18.234375 118.625 18.613281 118.335938 18.851562 C 117.621094 19.449219 116.34375 20.5625 115.640625 21.1875 L 115.636719 21.175781 " fill-opacity="1" fill-rule="evenodd"/></g><g clip-path="url(#d6c7bb9121)"><path fill="#000000" d="M 65.96875 12.601562 C 65.96875 13.972656 66.003906 15.117188 65.3125 16.332031 C 64.75 17.324219 63.867188 17.929688 62.875 17.929688 C 61.527344 17.929688 60.738281 16.902344 60.738281 15.382812 C 60.738281 12.386719 63.425781 11.839844 65.96875 11.839844 L 65.96875 12.601562 M 69.515625 21.175781 C 69.285156 21.386719 68.949219 21.398438 68.683594 21.261719 C 67.515625 20.292969 67.308594 19.839844 66.667969 18.917969 C 64.738281 20.886719 63.371094 21.472656 60.867188 21.472656 C 57.910156 21.472656 55.601562 19.648438 55.601562 15.992188 C 55.601562 13.136719 57.152344 11.191406 59.351562 10.242188 C 61.261719 9.402344 63.929688 9.253906 65.96875 9.019531 L 65.96875 8.566406 C 65.96875 7.730469 66.03125 6.738281 65.542969 6.015625 C 65.113281 5.367188 64.292969 5.101562 63.570312 5.101562 C 62.226562 5.101562 61.03125 5.789062 60.738281 7.214844 C 60.679688 7.53125 60.445312 7.84375 60.128906 7.859375 L 56.714844 7.492188 C 56.429688 7.425781 56.113281 7.195312 56.191406 6.753906 C 56.976562 2.617188 60.714844 1.371094 64.058594 1.371094 C 65.769531 1.371094 68.007812 1.824219 69.359375 3.121094 C 71.070312 4.71875 70.90625 6.851562 70.90625 9.171875 L 70.90625 14.65625 C 70.90625 16.304688 71.589844 17.027344 72.234375 17.917969 C 72.460938 18.234375 72.511719 18.613281 72.222656 18.851562 C 71.503906 19.449219 70.230469 20.5625 69.527344 21.1875 L 69.515625 21.175781 " fill-opacity="1" fill-rule="evenodd"/></g></svg>