<svg xmlns="http://www.w3.org/2000/svg" xmlns:xlink="http://www.w3.org/1999/xlink" width="70" zoomAndPan="magnify" viewBox="0 0 52.5 52.499999" height="70" preserveAspectRatio="xMidYMid meet" version="1.0"><defs><filter x="0%" y="0%" width="100%" height="100%" id="33d253509e"><feColorMatrix values="0 0 0 0 1 0 0 0 0 1 0 0 0 0 1 0 0 0 1 0" color-interpolation-filters="sRGB"/></filter><clipPath id="fdf211088a"><path d="M 21 20 L 31 20 L 31 46.457031 L 21 46.457031 Z M 21 20 " clip-rule="nonzero"/></clipPath><clipPath id="4fb72c10e6"><path d="M 25 20 L 32 20 L 32 46.457031 L 25 46.457031 Z M 25 20 " clip-rule="nonzero"/></clipPath><mask id="5c96f52367"><g filter="url(#33d253509e)"><rect x="-5.25" width="63" fill="#000000" y="-5.25" height="62.999999" fill-opacity="0.2"/></g></mask><clipPath id="3699c15562"><path d="M 0.199219 0.683594 L 1 0.683594 L 1 2 L 0.199219 2 Z M 0.199219 0.683594 " clip-rule="nonzero"/></clipPath><clipPath id="1c9491d1f5"><path d="M 0.199219 0.683594 L 6 0.683594 L 6 26.121094 L 0.199219 26.121094 Z M 0.199219 0.683594 " clip-rule="nonzero"/></clipPath><clipPath id="b257d786f4"><rect x="0" width="7" y="0" height="27"/></clipPath><clipPath id="c65c3a05d4"><path d="M 21 24 L 31 24 L 31 46.457031 L 21 46.457031 Z M 21 24 " clip-rule="nonzero"/></clipPath><clipPath id="e26cdacc19"><path d="M 18 2.621094 L 34 2.621094 L 34 20 L 18 20 Z M 18 2.621094 " clip-rule="nonzero"/></clipPath><clipPath id="0b02d4696c"><path d="M 16.476562 11 L 35.792969 11 L 35.792969 25 L 16.476562 25 Z M 16.476562 11 " clip-rule="nonzero"/></clipPath><clipPath id="904f9aa729"><path d="M 16.476562 11 L 35.792969 11 L 35.792969 25 L 16.476562 25 Z M 16.476562 11 " clip-rule="nonzero"/></clipPath><clipPath id="0705792683"><path d="M 16.476562 11 L 33 11 L 33 25 L 16.476562 25 Z M 16.476562 11 " clip-rule="nonzero"/></clipPath><clipPath id="6e9fec28db"><path d="M 30 12 L 35.792969 12 L 35.792969 22 L 30 22 Z M 30 12 " clip-rule="nonzero"/></clipPath><clipPath id="cac6133ac5"><path d="M 16.476562 11 L 35.792969 11 L 35.792969 12 L 16.476562 12 Z M 16.476562 11 " clip-rule="nonzero"/></clipPath></defs><g clip-path="url(#fdf211088a)"><path fill="#ffb22e" d="M 30.40625 44.429688 C 29.519531 44 28.78125 43.320312 28.441406 42.410156 C 27.792969 40.667969 27.039062 38.109375 26.851562 35.273438 C 26.5 30.078125 27.140625 21.585938 27.140625 21.585938 C 27.140625 21.585938 26.4375 19.78125 26.136719 21.484375 C 25.832031 19.78125 25.132812 21.585938 25.132812 21.585938 C 25.132812 21.585938 25.773438 30.078125 25.421875 35.273438 C 25.234375 38.109375 24.476562 40.667969 23.832031 42.410156 C 23.492188 43.320312 22.753906 44 21.863281 44.429688 C 21.554688 44.578125 21.378906 44.746094 21.378906 44.925781 C 21.378906 45.554688 23.507812 46.066406 26.136719 46.066406 C 28.765625 46.066406 30.894531 45.554688 30.894531 44.925781 C 30.894531 44.746094 30.71875 44.578125 30.40625 44.429688 Z M 30.40625 44.429688 " fill-opacity="1" fill-rule="nonzero"/></g><g clip-path="url(#4fb72c10e6)"><g mask="url(#5c96f52367)"><g transform="matrix(1, 0, 0, 1, 25, 20)"><g clip-path="url(#b257d786f4)"><g clip-path="url(#3699c15562)"><path fill="#fff4b3" d="M 0.496094 1.484375 C 0.582031 1.011719 0.695312 0.816406 0.816406 0.769531 C 0.671875 0.714844 0.519531 0.875 0.390625 1.074219 C 0.429688 1.179688 0.464844 1.308594 0.496094 1.484375 Z M 0.496094 1.484375 " fill-opacity="1" fill-rule="nonzero"/></g><g clip-path="url(#1c9491d1f5)"><path fill="#fff4b3" d="M 5.40625 24.429688 C 4.519531 24 3.78125 23.320312 3.441406 22.410156 C 2.792969 20.667969 2.039062 18.109375 1.851562 15.273438 C 1.5 10.078125 2.140625 1.585938 2.140625 1.585938 C 2.140625 1.585938 1.578125 0.140625 1.242188 1.074219 C 1.390625 1.308594 1.5 1.585938 1.5 1.585938 C 1.5 1.585938 0.863281 10.078125 1.210938 15.273438 C 1.402344 18.109375 2.15625 20.667969 2.804688 22.410156 C 3.140625 23.320312 3.878906 24 4.769531 24.429688 C 5.078125 24.578125 5.253906 24.746094 5.253906 24.925781 C 5.253906 25.53125 3.292969 26.019531 0.816406 26.058594 C 0.925781 26.0625 1.027344 26.066406 1.136719 26.066406 C 3.765625 26.066406 5.894531 25.554688 5.894531 24.925781 C 5.894531 24.746094 5.71875 24.578125 5.40625 24.429688 Z M 5.40625 24.429688 " fill-opacity="1" fill-rule="nonzero"/></g></g></g></g></g><g clip-path="url(#c65c3a05d4)"><path fill="#ffb22e" d="M 26.136719 46.066406 C 28.175781 46.066406 29.902344 45.757812 30.578125 45.324219 C 26.441406 46.425781 22.203125 45.222656 22.570312 44.660156 C 22.976562 44.035156 25.886719 42.132812 25.886719 36.707031 C 25.886719 31.28125 25.886719 26.109375 25.886719 26.109375 L 25.335938 24.914062 C 25.484375 27.859375 25.632812 32.15625 25.421875 35.273438 C 25.234375 38.109375 24.476562 40.667969 23.832031 42.410156 C 23.492188 43.320312 22.753906 44 21.867188 44.429688 C 21.554688 44.578125 21.378906 44.746094 21.378906 44.925781 C 21.378906 45.554688 23.507812 46.066406 26.136719 46.066406 Z M 26.136719 46.066406 " fill-opacity="0.3" fill-rule="nonzero"/></g><path fill="#ffb22e" d="M 26.839844 27.121094 C 26.917969 25.039062 27.027344 23.25 27.089844 22.308594 C 26.792969 22.191406 26.472656 22.125 26.136719 22.125 C 25.800781 22.125 25.480469 22.191406 25.183594 22.308594 C 25.246094 23.25 25.355469 25.039062 25.433594 27.121094 C 25.660156 27.183594 25.890625 27.226562 26.136719 27.226562 C 26.382812 27.226562 26.613281 27.183594 26.839844 27.121094 Z M 26.839844 27.121094 " fill-opacity="0.7" fill-rule="nonzero"/><path fill="#ffb22e" d="M 28.746094 24.058594 C 28.746094 25.464844 27.578125 26.609375 26.136719 26.609375 C 24.695312 26.609375 23.527344 25.464844 23.527344 24.058594 C 23.527344 22.648438 24.695312 21.503906 26.136719 21.503906 C 27.578125 21.503906 28.746094 22.648438 28.746094 24.058594 Z M 28.746094 24.058594 " fill-opacity="1" fill-rule="nonzero"/><path fill="#ffb22e" d="M 26.675781 26.457031 C 25.238281 26.457031 24.070312 25.316406 24.070312 23.90625 C 24.070312 22.84375 24.734375 21.933594 25.683594 21.550781 C 24.460938 21.761719 23.527344 22.800781 23.527344 24.058594 C 23.527344 25.464844 24.695312 26.609375 26.136719 26.609375 C 26.488281 26.609375 26.824219 26.539062 27.132812 26.414062 C 26.984375 26.4375 26.832031 26.457031 26.675781 26.457031 Z M 26.675781 26.457031 " fill-opacity="0.4" fill-rule="nonzero"/><g clip-path="url(#e26cdacc19)"><path fill="#ffefd4" d="M 33.910156 11.003906 C 33.910156 15.613281 30.429688 19.351562 26.136719 19.351562 C 21.84375 19.351562 18.363281 15.613281 18.363281 11.003906 C 18.363281 6.390625 21.84375 2.652344 26.136719 2.652344 C 30.429688 2.652344 33.910156 6.390625 33.910156 11.003906 Z M 33.910156 11.003906 " fill-opacity="1" fill-rule="nonzero"/></g><path fill="#ffb22e" d="M 27.953125 5.851562 L 26.605469 5.851562 L 26.605469 4.648438 L 25.667969 4.648438 L 25.667969 5.851562 L 24.320312 5.851562 L 24.320312 6.792969 L 25.667969 6.792969 L 25.667969 10.628906 L 26.605469 10.628906 L 26.605469 6.792969 L 27.953125 6.792969 Z M 27.953125 5.851562 " fill-opacity="0.7" fill-rule="nonzero"/><path fill="#ffefd4" d="M 29.996094 14.691406 C 25.464844 14.691406 21.792969 10.914062 21.792969 6.253906 C 21.792969 5.421875 21.914062 4.617188 22.132812 3.855469 C 19.878906 5.316406 18.363281 7.964844 18.363281 11.003906 C 18.363281 15.613281 21.84375 19.351562 26.136719 19.351562 C 29.472656 19.351562 32.3125 17.085938 33.414062 13.917969 C 32.371094 14.410156 31.214844 14.691406 29.996094 14.691406 Z M 29.996094 14.691406 " fill-opacity="1" fill-rule="nonzero"/><path fill="#ffefd4" d="M 33.910156 11.003906 C 33.910156 10.917969 33.902344 10.839844 33.898438 10.757812 L 18.375 10.757812 C 18.371094 10.839844 18.363281 10.917969 18.363281 11.003906 C 18.363281 15.613281 21.84375 19.351562 26.136719 19.351562 C 30.429688 19.351562 33.910156 15.613281 33.910156 11.003906 Z M 33.910156 11.003906 " fill-opacity="0.7" fill-rule="nonzero"/><path fill="#ffb22e" d="M 26.136719 21.503906 C 24.695312 21.503906 23.527344 22.648438 23.527344 24.058594 C 23.527344 24.742188 23.808594 25.363281 24.257812 25.820312 C 24.84375 25.902344 25.457031 25.953125 26.136719 25.953125 C 26.816406 25.953125 27.429688 25.898438 28.015625 25.820312 C 28.464844 25.363281 28.746094 24.742188 28.746094 24.058594 C 28.746094 22.648438 27.578125 21.503906 26.136719 21.503906 Z M 26.136719 21.503906 " fill-opacity="0.4" fill-rule="nonzero"/><g clip-path="url(#0b02d4696c)"><path fill="#ffb22e" d="M 17.863281 11.226562 C 17.09375 11.226562 16.476562 11.855469 16.515625 12.609375 C 16.777344 17.625 17.292969 24.675781 26.136719 24.675781 C 34.980469 24.675781 35.496094 17.625 35.757812 12.609375 C 35.796875 11.855469 35.179688 11.226562 34.410156 11.226562 Z M 17.863281 11.226562 " fill-opacity="1" fill-rule="nonzero"/></g><path fill="#ffffff" d="M 30.992188 6.015625 C 30.75 6.371094 29.78125 6.152344 28.828125 5.527344 C 27.875 4.902344 27.300781 4.109375 27.542969 3.753906 C 27.789062 3.398438 28.757812 3.617188 29.707031 4.242188 C 30.660156 4.867188 31.234375 5.660156 30.992188 6.015625 Z M 30.992188 6.015625 " fill-opacity="0.4" fill-rule="nonzero"/><path fill="#ffffff" d="M 32.355469 6.890625 C 32.53125 7.285156 32.464844 7.695312 32.210938 7.804688 C 31.953125 7.914062 31.601562 7.683594 31.421875 7.289062 C 31.246094 6.894531 31.3125 6.484375 31.566406 6.375 C 31.824219 6.265625 32.175781 6.496094 32.355469 6.890625 Z M 32.355469 6.890625 " fill-opacity="0.5" fill-rule="nonzero"/><g clip-path="url(#904f9aa729)"><path fill="#ffb22e" d="M 27.664062 22.105469 C 22.714844 22.105469 18.699219 17.683594 18.699219 12.226562 C 18.699219 11.890625 18.714844 11.554688 18.746094 11.226562 L 17.863281 11.226562 C 17.09375 11.226562 16.476562 11.855469 16.515625 12.609375 C 16.777344 17.625 17.292969 24.675781 26.136719 24.675781 C 32.257812 24.675781 34.386719 21.300781 35.203125 17.554688 C 33.609375 20.289062 30.832031 22.105469 27.664062 22.105469 Z M 27.664062 22.105469 " fill-opacity="0.5" fill-rule="nonzero"/></g><g clip-path="url(#0705792683)"><path fill="#feffde" d="M 26.355469 24.476562 C 17.511719 24.476562 16.996094 17.425781 16.734375 12.410156 C 16.714844 12.054688 16.847656 11.730469 17.066406 11.484375 C 16.714844 11.734375 16.492188 12.148438 16.515625 12.609375 C 16.777344 17.625 17.292969 24.675781 26.136719 24.675781 C 29.050781 24.675781 31.046875 23.902344 32.441406 22.695312 C 31.058594 23.792969 29.109375 24.476562 26.355469 24.476562 Z M 26.355469 24.476562 " fill-opacity="0.4" fill-rule="nonzero"/></g><g clip-path="url(#6e9fec28db)"><path fill="#fff1a3" d="M 32.609375 12.082031 C 32.054688 12.097656 31.613281 12.554688 31.621094 13.097656 C 31.71875 19.949219 30.675781 21.195312 30.675781 21.195312 C 30.675781 21.195312 34.742188 19.550781 35.082031 15.816406 C 35.195312 14.539062 35.246094 13.589844 35.203125 12.957031 C 35.167969 12.425781 34.699219 12.019531 34.152344 12.035156 Z M 32.609375 12.082031 " fill-opacity="0.2" fill-rule="nonzero"/></g><g clip-path="url(#cac6133ac5)"><path fill="#feffde" d="M 16.804688 11.738281 L 35.46875 11.738281 C 35.222656 11.429688 34.84375 11.226562 34.410156 11.226562 L 17.863281 11.226562 C 17.429688 11.226562 17.050781 11.429688 16.804688 11.738281 Z M 16.804688 11.738281 " fill-opacity="0.2" fill-rule="nonzero"/></g><path fill="#fff1a3" d="M 34.828125 13.855469 C 34.828125 14.519531 34.601562 15.0625 34.320312 15.0625 C 34.039062 15.0625 33.8125 14.519531 33.8125 13.855469 C 33.8125 13.1875 34.039062 12.644531 34.320312 12.644531 C 34.601562 12.644531 34.828125 13.1875 34.828125 13.855469 Z M 34.828125 13.855469 " fill-opacity="0.6" fill-rule="nonzero"/><path fill="#fff1a3" d="M 34.539062 15.714844 C 34.539062 15.925781 34.410156 16.097656 34.253906 16.097656 C 34.097656 16.097656 33.972656 15.925781 33.972656 15.714844 C 33.972656 15.503906 34.097656 15.332031 34.253906 15.332031 C 34.410156 15.332031 34.539062 15.503906 34.539062 15.714844 Z M 34.539062 15.714844 " fill-opacity="0.5" fill-rule="nonzero"/></svg>