<svg xmlns="http://www.w3.org/2000/svg" xmlns:xlink="http://www.w3.org/1999/xlink" width="70" zoomAndPan="magnify" viewBox="0 0 52.5 52.499999" height="70" preserveAspectRatio="xMidYMid meet" version="1.0"><defs><clipPath id="ea421cece8"><path d="M 2.601562 10.996094 L 49.40625 10.996094 L 49.40625 39.226562 L 2.601562 39.226562 Z M 2.601562 10.996094 " clip-rule="nonzero"/></clipPath></defs><g clip-path="url(#ea421cece8)"><path fill="#929292" d="M 48.660156 11.636719 C 48.214844 11.207031 47.683594 10.992188 47.0625 10.996094 L 4.941406 10.996094 C 4.332031 10.988281 3.808594 11.199219 3.367188 11.621094 C 2.859375 12.078125 2.601562 12.648438 2.601562 13.335938 L 2.601562 36.734375 C 2.601562 37.410156 2.847656 37.976562 3.34375 38.4375 C 3.789062 38.863281 4.324219 39.078125 4.941406 39.074219 L 47.0625 39.074219 C 47.671875 39.082031 48.199219 38.875 48.636719 38.453125 C 49.148438 37.992188 49.402344 37.421875 49.402344 36.734375 L 49.402344 13.335938 C 49.402344 12.660156 49.15625 12.09375 48.660156 11.636719 Z M 46.460938 12.554688 L 32.960938 23.726562 C 32.816406 23.285156 32.597656 22.886719 32.304688 22.53125 C 31.566406 21.65625 30.625 21.191406 29.480469 21.136719 C 28.34375 21.097656 27.371094 21.480469 26.554688 22.273438 L 26.003906 22.828125 L 25.449219 22.273438 C 25.257812 22.082031 25.046875 21.914062 24.820312 21.765625 C 24.59375 21.617188 24.355469 21.496094 24.101562 21.398438 C 23.851562 21.300781 23.589844 21.226562 23.324219 21.183594 C 23.054688 21.140625 22.789062 21.125 22.515625 21.136719 C 22.246094 21.148438 21.980469 21.1875 21.71875 21.257812 C 21.457031 21.324219 21.203125 21.417969 20.960938 21.539062 C 20.71875 21.65625 20.492188 21.800781 20.277344 21.96875 C 20.066406 22.136719 19.875 22.324219 19.699219 22.53125 C 19.402344 22.886719 19.183594 23.285156 19.035156 23.726562 L 5.542969 12.554688 Z M 4.164062 36.632812 L 4.164062 13.4375 L 18.179688 25.035156 Z M 5.542969 37.515625 L 19.074219 26.324219 C 19.277344 26.925781 19.601562 27.453125 20.050781 27.90625 L 24.902344 32.757812 C 25.046875 32.902344 25.21875 33.015625 25.40625 33.09375 C 25.597656 33.171875 25.796875 33.210938 26.003906 33.210938 C 26.207031 33.210938 26.40625 33.171875 26.597656 33.09375 C 26.789062 33.015625 26.957031 32.902344 27.101562 32.757812 L 31.953125 27.90625 C 32.402344 27.453125 32.726562 26.925781 32.929688 26.324219 L 46.460938 37.515625 Z M 47.84375 36.632812 L 33.824219 25.035156 L 47.84375 13.4375 Z M 47.84375 36.632812 " fill-opacity="1" fill-rule="nonzero"/></g></svg>