<svg xmlns="http://www.w3.org/2000/svg" xmlns:xlink="http://www.w3.org/1999/xlink" width="70" zoomAndPan="magnify" viewBox="0 0 52.5 52.499999" height="70" preserveAspectRatio="xMidYMid meet" version="1.0"><defs><clipPath id="01c5a39066"><path d="M 2.753906 9.390625 L 49.558594 9.390625 L 49.558594 42.824219 L 2.753906 42.824219 Z M 2.753906 9.390625 " clip-rule="nonzero"/></clipPath></defs><g clip-path="url(#01c5a39066)"><path fill="#d5b36f" d="M 7.738281 9.394531 C 4.984375 9.394531 2.753906 11.621094 2.753906 14.375 C 2.816406 21.925781 2.753906 29.921875 2.753906 37.621094 C 2.753906 40.269531 4.816406 42.417969 7.425781 42.574219 L 44.472656 42.601562 C 47.128906 42.492188 49.246094 40.304688 49.246094 37.621094 L 49.246094 13.519531 C 48.84375 11.171875 46.804688 9.394531 44.34375 9.394531 C 32.148438 9.398438 19.9375 9.394531 7.738281 9.394531 Z M 7.660156 12.011719 L 44.5 12.011719 L 26.675781 29.835938 C 26.351562 30.160156 25.832031 30.160156 25.507812 29.835938 Z M 46.757812 13.285156 L 46.757812 37.4375 C 46.757812 38.878906 46.238281 39.691406 45.199219 39.980469 L 32.644531 27.398438 Z M 5.53125 13.386719 L 19.410156 27.269531 L 6.726562 39.953125 C 5.855469 39.660156 5.554688 38.960938 5.53125 38.007812 Z M 21.175781 29.007812 L 25.507812 33.363281 C 25.832031 33.691406 26.351562 33.691406 26.675781 33.363281 L 30.878906 29.160156 L 41.828125 40.109375 L 10.074219 40.109375 Z M 21.175781 29.007812 " fill-opacity="1" fill-rule="nonzero"/></g></svg>