<svg xmlns="http://www.w3.org/2000/svg" xmlns:xlink="http://www.w3.org/1999/xlink" width="70" zoomAndPan="magnify" viewBox="0 0 52.5 52.499999" height="70" preserveAspectRatio="xMidYMid meet" version="1.0"><defs><clipPath id="cb846ace40"><path d="M 10.105469 3.25 L 42.050781 3.25 L 42.050781 48.570312 L 10.105469 48.570312 Z M 10.105469 3.25 " clip-rule="nonzero"/></clipPath></defs><g clip-path="url(#cb846ace40)"><path fill="#000000" d="M 31.554688 6.25 C 29.519531 6.695312 27.445312 7.429688 25.414062 7.878906 C 25.390625 7.886719 25.363281 7.894531 25.34375 7.90625 L 25.339844 7.90625 C 25.300781 7.929688 25.265625 7.960938 25.242188 7.996094 C 25.21875 8.035156 25.203125 8.078125 25.195312 8.125 C 25.195312 8.152344 25.195312 8.175781 25.199219 8.203125 L 25.207031 8.226562 C 25.289062 8.683594 25.367188 9.140625 25.441406 9.597656 C 25.511719 10.007812 25.574219 10.414062 25.636719 10.824219 L 25.640625 10.832031 C 23.746094 10.265625 21.710938 9.882812 19.835938 9.304688 C 19.808594 9.296875 19.785156 9.292969 19.757812 9.289062 C 19.710938 9.289062 19.667969 9.300781 19.625 9.320312 C 19.585938 9.339844 19.550781 9.367188 19.523438 9.40625 C 19.507812 9.429688 19.496094 9.449219 19.488281 9.476562 C 17.835938 14.035156 15.78125 18.34375 14.25 22.972656 C 13.804688 24.320312 13.292969 25.96875 13.148438 27.441406 C 13.046875 28.472656 13.125 29.421875 13.496094 30.144531 C 13.851562 30.828125 14.351562 31.328125 14.867188 31.703125 C 14.964844 31.777344 15.132812 31.878906 15.351562 31.992188 C 15.421875 34.164062 14.949219 36.234375 14.472656 38.382812 C 13.921875 40.859375 13.316406 43.300781 12.59375 45.730469 C 11.894531 45.589844 11.28125 45.710938 10.847656 45.941406 C 10.476562 46.140625 10.234375 46.421875 10.148438 46.691406 C 10.144531 46.695312 10.144531 46.699219 10.140625 46.707031 C 10.101562 46.855469 10.1875 47.007812 10.335938 47.046875 C 12.1875 47.558594 14.058594 48.011719 15.914062 48.527344 C 16.0625 48.566406 16.214844 48.484375 16.257812 48.335938 C 16.257812 48.332031 16.257812 48.332031 16.257812 48.332031 C 16.261719 48.320312 16.265625 48.3125 16.265625 48.304688 C 16.367188 47.738281 16.160156 47.28125 15.730469 46.914062 C 15.378906 46.613281 14.863281 46.371094 14.246094 46.175781 C 14.429688 44.390625 15.042969 42.644531 15.539062 40.921875 C 16.332031 38.164062 17.03125 35.359375 18.300781 32.796875 C 18.585938 32.8125 18.820312 32.808594 18.960938 32.792969 C 19.59375 32.722656 20.277344 32.535156 20.929688 32.121094 C 21.617188 31.679688 22.164062 30.894531 22.597656 29.953125 C 23.214844 28.601562 23.601562 26.921875 23.894531 25.535156 C 24.804688 21.253906 25.210938 16.988281 25.917969 12.710938 C 26.378906 15.96875 26.78125 19.222656 27.472656 22.488281 C 27.765625 23.875 28.15625 25.554688 28.773438 26.902344 C 29.203125 27.847656 29.75 28.628906 30.441406 29.070312 C 31.089844 29.488281 31.777344 29.671875 32.410156 29.742188 C 32.535156 29.757812 32.730469 29.761719 32.976562 29.753906 C 34.132812 31.597656 34.769531 33.621094 35.4375 35.722656 C 36.210938 38.140625 36.917969 40.550781 37.515625 43.015625 C 36.839844 43.238281 36.371094 43.652344 36.113281 44.066406 C 35.890625 44.421875 35.820312 44.785156 35.882812 45.058594 C 35.882812 45.066406 35.886719 45.070312 35.886719 45.074219 L 35.886719 45.078125 C 35.925781 45.222656 36.078125 45.3125 36.226562 45.277344 C 38.089844 44.800781 39.941406 44.265625 41.804688 43.792969 C 41.953125 43.753906 42.042969 43.605469 42.007812 43.457031 C 42.003906 43.453125 42.003906 43.453125 42.003906 43.449219 C 42.003906 43.441406 42 43.433594 41.996094 43.425781 C 41.800781 42.882812 41.390625 42.59375 40.832031 42.488281 C 40.375 42.402344 39.804688 42.449219 39.175781 42.582031 C 38.433594 40.945312 38.082031 39.128906 37.644531 37.390625 C 36.941406 34.613281 36.132812 31.832031 35.9375 28.984375 C 36.191406 28.855469 36.390625 28.738281 36.503906 28.65625 C 37.019531 28.28125 37.519531 27.78125 37.871094 27.097656 C 38.246094 26.371094 38.324219 25.425781 38.222656 24.394531 C 38.078125 22.917969 37.566406 21.273438 37.121094 19.925781 C 35.589844 15.292969 33.535156 10.988281 31.882812 6.429688 C 31.875 6.40625 31.867188 6.386719 31.855469 6.371094 L 31.855469 6.367188 C 31.828125 6.328125 31.792969 6.300781 31.753906 6.277344 C 31.714844 6.253906 31.667969 6.242188 31.625 6.242188 L 31.621094 6.242188 C 31.601562 6.242188 31.578125 6.246094 31.554688 6.25 Z M 15.914062 32.257812 C 15.941406 34.375 15.484375 36.398438 15.015625 38.5 C 14.453125 41.035156 13.835938 43.527344 13.089844 46.011719 C 13.101562 46.058594 13.097656 46.109375 13.082031 46.15625 C 13.039062 46.300781 12.878906 46.382812 12.734375 46.339844 L 12.726562 46.335938 C 12.71875 46.335938 12.710938 46.332031 12.703125 46.328125 C 12.695312 46.328125 12.6875 46.324219 12.679688 46.320312 C 12.050781 46.140625 11.492188 46.226562 11.109375 46.429688 C 11.007812 46.484375 10.917969 46.546875 10.847656 46.613281 C 12.464844 47.054688 14.097656 47.457031 15.71875 47.898438 C 15.683594 47.679688 15.554688 47.496094 15.367188 47.335938 C 15.039062 47.054688 14.542969 46.84375 13.957031 46.664062 C 13.914062 46.648438 13.878906 46.628906 13.847656 46.597656 C 13.738281 46.554688 13.664062 46.441406 13.671875 46.320312 C 13.832031 44.433594 14.480469 42.589844 15.003906 40.769531 C 15.785156 38.050781 16.484375 35.28125 17.707031 32.742188 C 17.421875 32.703125 17.113281 32.648438 16.808594 32.566406 C 16.496094 32.484375 16.191406 32.375 15.914062 32.257812 Z M 35.394531 29.230469 C 35.128906 29.34375 34.832031 29.445312 34.53125 29.527344 C 34.214844 29.609375 33.894531 29.664062 33.597656 29.703125 C 34.6875 31.523438 35.316406 33.503906 35.96875 35.554688 C 36.757812 38.027344 37.480469 40.492188 38.089844 43.015625 C 38.121094 43.050781 38.148438 43.09375 38.15625 43.140625 C 38.191406 43.292969 38.097656 43.4375 37.945312 43.472656 L 37.941406 43.472656 C 37.933594 43.476562 37.921875 43.480469 37.914062 43.480469 C 37.90625 43.484375 37.898438 43.484375 37.890625 43.484375 C 37.253906 43.640625 36.8125 43.992188 36.585938 44.355469 C 36.523438 44.453125 36.480469 44.554688 36.449219 44.648438 C 38.074219 44.226562 39.691406 43.765625 41.320312 43.34375 C 41.175781 43.175781 40.972656 43.078125 40.726562 43.03125 C 40.304688 42.949219 39.765625 43.011719 39.171875 43.148438 C 39.125 43.15625 39.082031 43.15625 39.042969 43.144531 C 38.925781 43.164062 38.804688 43.101562 38.75 42.988281 C 37.9375 41.277344 37.566406 39.359375 37.101562 37.527344 C 36.40625 34.78125 35.617188 32.039062 35.394531 29.230469 Z M 17.558594 15.875 C 16.574219 18.265625 15.601562 20.660156 14.78125 23.144531 C 14.347656 24.457031 13.84375 26.058594 13.703125 27.496094 C 13.613281 28.410156 13.664062 29.25 13.996094 29.894531 C 14.304688 30.492188 14.746094 30.929688 15.195312 31.257812 C 15.296875 31.332031 15.472656 31.4375 15.699219 31.550781 C 15.734375 31.558594 15.761719 31.574219 15.789062 31.59375 C 16.117188 31.753906 16.527344 31.917969 16.957031 32.035156 C 17.746094 32.246094 18.585938 32.277344 18.898438 32.242188 C 19.453125 32.179688 20.054688 32.019531 20.625 31.65625 C 21.238281 31.265625 21.707031 30.558594 22.089844 29.722656 C 22.691406 28.410156 23.0625 26.773438 23.351562 25.421875 C 23.957031 22.550781 24.34375 19.6875 24.742188 16.824219 C 23.480469 16.683594 22.183594 16.753906 20.9375 16.566406 C 19.785156 16.394531 18.738281 15.90625 17.558594 15.875 Z M 34.488281 14.480469 C 32.914062 14.46875 31.4375 14.777344 29.871094 14.867188 C 28.84375 14.925781 27.8125 14.820312 26.792969 14.964844 C 27.136719 17.433594 27.496094 19.898438 28.019531 22.375 C 28.304688 23.722656 28.679688 25.359375 29.28125 26.675781 C 29.664062 27.511719 30.132812 28.214844 30.742188 28.605469 C 31.3125 28.972656 31.914062 29.132812 32.472656 29.191406 C 32.59375 29.207031 32.800781 29.210938 33.054688 29.195312 C 33.089844 29.1875 33.121094 29.1875 33.15625 29.191406 C 33.519531 29.164062 33.960938 29.105469 34.386719 28.992188 C 35.179688 28.78125 35.921875 28.394531 36.171875 28.210938 C 36.625 27.882812 37.066406 27.445312 37.375 26.84375 C 37.707031 26.203125 37.757812 25.359375 37.667969 24.449219 C 37.523438 23.011719 37.023438 21.410156 36.589844 20.097656 C 35.957031 18.183594 35.234375 16.324219 34.488281 14.480469 Z M 35.53125 26.996094 C 35.308594 27.175781 35.078125 27.324219 34.816406 27.449219 C 34.679688 27.511719 34.621094 27.679688 34.6875 27.816406 C 34.753906 27.953125 34.917969 28.011719 35.058594 27.945312 C 35.359375 27.804688 35.628906 27.632812 35.886719 27.421875 C 36.003906 27.324219 36.023438 27.148438 35.921875 27.03125 C 35.824219 26.914062 35.648438 26.898438 35.53125 26.996094 Z M 35.628906 20.6875 C 36.183594 22.105469 36.832031 23.941406 36.351562 25.457031 C 36.304688 25.601562 36.386719 25.757812 36.535156 25.800781 C 36.679688 25.847656 36.835938 25.765625 36.882812 25.621094 C 37.402344 23.992188 36.742188 22.011719 36.152344 20.488281 C 36.097656 20.347656 35.933594 20.273438 35.789062 20.328125 C 35.648438 20.382812 35.574219 20.542969 35.628906 20.6875 Z M 15.078125 23.882812 C 14.949219 24.164062 14.824219 24.449219 14.714844 24.738281 C 14.664062 24.882812 14.738281 25.039062 14.882812 25.09375 C 15.027344 25.144531 15.1875 25.074219 15.238281 24.929688 C 15.34375 24.652344 15.464844 24.378906 15.585938 24.105469 C 15.648438 23.96875 15.585938 23.804688 15.445312 23.742188 C 15.304688 23.679688 15.140625 23.742188 15.078125 23.882812 Z M 16.714844 18.902344 C 16.34375 19.894531 15.996094 20.890625 15.660156 21.894531 C 15.609375 22.039062 15.6875 22.195312 15.835938 22.246094 C 15.980469 22.292969 16.140625 22.214844 16.1875 22.070312 C 16.523438 21.070312 16.871094 20.082031 17.238281 19.09375 C 17.292969 18.949219 17.21875 18.789062 17.074219 18.738281 C 16.929688 18.683594 16.769531 18.757812 16.714844 18.902344 Z M 19.914062 9.925781 C 19.644531 10.671875 19.359375 11.410156 19.070312 12.148438 C 18.664062 13.179688 18.242188 14.207031 17.820312 15.230469 L 17.78125 15.332031 C 18.898438 15.410156 19.914062 15.851562 21.019531 16.019531 C 22.265625 16.207031 23.558594 16.136719 24.816406 16.277344 L 24.832031 16.167969 C 24.957031 15.277344 25.085938 14.382812 25.226562 13.492188 C 25.335938 12.796875 25.449219 12.097656 25.574219 11.402344 L 25.578125 11.390625 C 23.742188 10.832031 21.761719 10.457031 19.921875 9.910156 Z M 31.441406 6.84375 C 29.570312 7.269531 27.664062 7.925781 25.796875 8.359375 C 26.15625 10.382812 26.4375 12.398438 26.71875 14.414062 C 27.75 14.273438 28.796875 14.375 29.835938 14.316406 C 31.339844 14.230469 32.761719 13.945312 34.261719 13.925781 C 33.304688 11.578125 32.316406 9.242188 31.441406 6.84375 Z M 19.15625 7.359375 C 19.425781 7.480469 19.683594 7.617188 19.941406 7.753906 C 20.078125 7.828125 20.25 7.773438 20.320312 7.640625 C 20.390625 7.503906 20.339844 7.335938 20.203125 7.265625 C 19.929688 7.125 19.664062 6.976562 19.382812 6.855469 C 19.242188 6.792969 19.078125 6.855469 19.015625 6.992188 C 18.953125 7.132812 19.015625 7.296875 19.15625 7.359375 Z M 21.046875 4.835938 C 21.226562 5.097656 21.402344 5.363281 21.558594 5.640625 C 21.636719 5.773438 21.804688 5.820312 21.941406 5.746094 C 22.074219 5.671875 22.121094 5.503906 22.046875 5.367188 C 21.882812 5.078125 21.695312 4.800781 21.507812 4.527344 C 21.421875 4.402344 21.246094 4.367188 21.121094 4.453125 C 20.992188 4.539062 20.960938 4.710938 21.046875 4.835938 Z M 27.882812 4.082031 C 27.769531 4.402344 27.636719 4.71875 27.535156 5.042969 C 27.488281 5.1875 27.570312 5.34375 27.714844 5.390625 C 27.863281 5.4375 28.019531 5.355469 28.066406 5.210938 C 28.167969 4.890625 28.300781 4.582031 28.410156 4.265625 C 28.460938 4.121094 28.382812 3.960938 28.238281 3.914062 C 28.09375 3.863281 27.933594 3.9375 27.882812 4.082031 Z M 24.816406 3.535156 C 24.816406 3.878906 24.828125 4.222656 24.84375 4.566406 C 24.851562 4.71875 24.980469 4.835938 25.136719 4.828125 C 25.289062 4.824219 25.410156 4.691406 25.402344 4.539062 C 25.386719 4.203125 25.375 3.871094 25.375 3.535156 C 25.375 3.382812 25.25 3.257812 25.097656 3.257812 C 24.941406 3.257812 24.816406 3.382812 24.816406 3.535156 Z M 24.816406 3.535156 " fill-opacity="1" fill-rule="evenodd"/></g></svg>