<svg xmlns="http://www.w3.org/2000/svg" xmlns:xlink="http://www.w3.org/1999/xlink" width="70" zoomAndPan="magnify" viewBox="0 0 52.5 52.499999" height="70" preserveAspectRatio="xMidYMid meet" version="1.0"><path fill="#000000" d="M 21.632812 49.554688 C 21.238281 49.25 20.773438 49.222656 20.355469 49.070312 C 19.789062 48.863281 19.226562 48.65625 18.71875 48.328125 C 18.671875 48.292969 18.617188 48.25 18.5625 48.246094 C 17.507812 48.109375 16.441406 47.984375 15.402344 48.277344 C 14.980469 48.398438 14.582031 48.453125 14.167969 48.390625 C 13.675781 48.320312 13.410156 47.949219 13.398438 47.382812 C 13.371094 46.355469 13.53125 45.347656 13.703125 44.339844 C 13.726562 44.191406 13.785156 44.050781 13.714844 43.878906 C 13.507812 43.839844 13.398438 44 13.28125 44.117188 C 12.742188 44.640625 12.214844 45.175781 11.675781 45.699219 C 11.546875 45.824219 11.476562 45.949219 11.472656 46.128906 C 11.464844 46.757812 11.546875 47.363281 11.902344 47.898438 C 12.078125 48.164062 12.136719 48.449219 12.101562 48.753906 C 12.046875 49.210938 11.574219 49.453125 11.207031 49.1875 C 10.253906 48.503906 9.414062 47.726562 9.175781 46.492188 C 9.101562 46.105469 8.933594 45.765625 8.6875 45.445312 C 8.167969 44.765625 8.292969 44.285156 8.824219 43.617188 C 10.109375 42.007812 11.515625 40.503906 12.816406 38.910156 C 13.339844 38.269531 13.851562 37.609375 14.460938 37.054688 C 15.183594 36.398438 15.113281 35.671875 14.859375 34.886719 C 14.535156 33.898438 14.183594 32.925781 13.84375 31.945312 C 13.472656 30.863281 13.199219 29.757812 13.03125 28.625 C 12.984375 28.28125 12.910156 27.925781 12.675781 27.664062 C 12.035156 26.953125 12.058594 26.160156 12.273438 25.296875 C 12.605469 23.96875 13.082031 22.6875 13.605469 21.425781 C 13.902344 20.714844 13.992188 19.980469 14.023438 19.226562 C 14.085938 17.785156 13.921875 16.34375 13.933594 14.898438 C 13.9375 14.144531 13.980469 13.398438 14.097656 12.65625 C 14.15625 12.304688 14.171875 11.953125 13.9375 11.617188 C 13.703125 11.28125 13.742188 10.925781 13.976562 10.566406 C 14.195312 10.230469 14.457031 9.910156 14.558594 9.503906 C 14.617188 9.28125 14.800781 9.199219 15.003906 9.1875 C 15.5 9.164062 16 9.128906 16.464844 9.351562 C 16.96875 9.585938 17.5 9.605469 18.003906 9.433594 C 18.640625 9.214844 18.914062 8.636719 18.972656 8.027344 C 19.066406 7.027344 19.429688 6.175781 20.101562 5.4375 C 20.609375 4.878906 21.242188 4.5625 21.964844 4.417969 C 22.558594 4.300781 23.089844 4.46875 23.578125 4.816406 C 24.289062 5.324219 24.953125 5.886719 25.566406 6.507812 C 26.0625 7.015625 25.96875 7.480469 25.324219 7.78125 C 24.695312 8.078125 24.429688 8.613281 24.453125 9.265625 C 24.464844 9.683594 24.363281 9.972656 24.015625 10.214844 C 23.652344 10.460938 23.386719 10.796875 23.203125 11.214844 C 22.988281 11.707031 22.652344 11.785156 22.175781 11.523438 C 22.121094 11.492188 22.078125 11.453125 22.023438 11.429688 C 21.835938 11.34375 21.621094 11.078125 21.453125 11.390625 C 21.304688 11.664062 21.214844 12.019531 21.546875 12.238281 C 21.917969 12.488281 22.332031 12.675781 22.71875 12.902344 C 23.300781 13.246094 23.777344 13.671875 23.714844 14.429688 C 23.699219 14.636719 23.597656 14.832031 23.554688 15.035156 C 23.460938 15.507812 23.585938 15.617188 24.039062 15.492188 C 24.429688 15.386719 24.730469 15.230469 24.855469 14.773438 C 25.023438 14.140625 25.363281 13.597656 25.933594 13.210938 C 26.285156 12.972656 26.246094 12.539062 26.269531 12.175781 C 26.304688 11.628906 26.386719 11.175781 26.835938 10.738281 C 27.128906 10.453125 27.367188 9.925781 27.21875 9.371094 C 27.03125 8.675781 27.199219 8.019531 27.617188 7.828125 C 28.199219 7.5625 28.6875 7.824219 29.136719 8.203125 C 29.316406 8.351562 29.460938 8.558594 29.726562 8.636719 C 29.925781 8.417969 30.148438 8.230469 30.453125 8.144531 C 31.015625 7.992188 31.566406 7.839844 32.050781 8.332031 C 32.574219 8.863281 32.90625 9.449219 32.648438 10.234375 C 32.496094 10.691406 32.40625 11.164062 32.371094 11.644531 C 32.332031 12.246094 32.023438 12.667969 31.546875 13.019531 C 31.109375 13.339844 30.574219 13.492188 30.1875 13.886719 C 29.597656 14.488281 29.570312 14.746094 30.042969 15.449219 C 30.078125 15.5 30.117188 15.542969 30.152344 15.59375 C 30.433594 16.015625 30.738281 16.347656 31.316406 16.058594 C 31.480469 15.976562 31.699219 15.992188 31.894531 15.980469 C 32.398438 15.953125 32.792969 16.269531 32.816406 16.761719 C 32.847656 17.378906 32.839844 18 32.535156 18.5625 C 32.382812 18.847656 32.398438 19.09375 32.574219 19.363281 C 32.929688 19.917969 33.277344 20.492188 33.734375 20.964844 C 34.53125 21.789062 35.070312 22.777344 35.609375 23.769531 C 36.042969 24.574219 36.46875 25.390625 36.933594 26.175781 C 37.398438 26.953125 37.589844 27.816406 37.824219 28.667969 C 37.859375 28.785156 37.914062 28.949219 37.808594 29.003906 C 37.328125 29.265625 37.605469 29.59375 37.726562 29.882812 C 38.046875 30.628906 38.359375 31.375 38.621094 32.144531 C 38.894531 32.949219 39.507812 33.511719 40.179688 33.96875 C 42.011719 35.214844 44.023438 35.972656 46.261719 36.085938 C 47.183594 36.132812 47.726562 36.792969 47.808594 37.699219 C 47.894531 38.710938 47.460938 39.519531 46.949219 40.296875 C 45.628906 42.3125 43.878906 43.859375 41.769531 45.011719 C 40.53125 45.6875 39.261719 46.300781 37.921875 46.757812 C 37.179688 47.011719 36.550781 47.488281 35.832031 47.800781 C 35.179688 48.082031 34.492188 48.210938 33.828125 48.433594 C 32.890625 48.746094 31.917969 48.925781 31.003906 49.316406 C 28.609375 50.339844 26.113281 50.824219 23.507812 50.753906 C 23.253906 50.746094 22.996094 50.71875 22.75 50.660156 C 22.359375 50.566406 22.011719 50.394531 21.90625 49.949219 C 21.867188 49.796875 21.769531 49.683594 21.632812 49.554688 M 31.019531 24.855469 C 31.292969 25.132812 31.554688 25.417969 31.773438 25.746094 C 31.929688 25.988281 32.125 26.195312 32.394531 26.320312 C 32.847656 26.535156 33.214844 26.894531 33.375 27.335938 C 33.699219 28.234375 34.511719 28.433594 35.234375 28.753906 C 35.59375 28.914062 35.792969 28.734375 35.84375 28.34375 C 35.878906 28.058594 35.871094 27.765625 35.957031 27.496094 C 36.078125 27.113281 35.960938 26.824219 35.714844 26.550781 C 35.363281 26.160156 35.042969 25.738281 34.65625 25.386719 C 33.324219 24.179688 32.136719 22.867188 31.296875 21.253906 C 30.925781 20.539062 30.71875 20.542969 30.019531 21.007812 C 30.011719 21.164062 30.128906 21.296875 30.089844 21.476562 C 29.957031 22.09375 29.851562 22.71875 29.570312 23.285156 C 29.40625 23.621094 29.5 23.769531 29.785156 23.925781 C 30.222656 24.160156 30.613281 24.464844 31.019531 24.855469 M 17.433594 42.597656 C 17.234375 43.625 17.042969 44.65625 16.828125 45.683594 C 16.761719 46.003906 16.878906 46.210938 17.125 46.371094 C 17.375 46.53125 17.65625 46.5625 17.945312 46.558594 C 18.203125 46.550781 18.316406 46.433594 18.355469 46.179688 C 18.765625 43.453125 19.191406 40.730469 19.601562 38.003906 C 19.625 37.859375 19.699219 37.679688 19.484375 37.519531 C 19.023438 38.113281 18.488281 38.640625 18.257812 39.382812 C 17.9375 40.417969 17.699219 41.472656 17.433594 42.597656 M 20.484375 27.117188 C 20.527344 27.414062 20.542969 27.71875 20.617188 28.007812 C 20.679688 28.257812 20.625 28.429688 20.457031 28.617188 C 20.03125 29.097656 20.085938 29.800781 20.578125 30.285156 C 20.816406 29.976562 20.761719 29.601562 20.820312 29.253906 C 20.976562 28.320312 21.308594 27.417969 21.355469 26.472656 C 21.402344 25.476562 21.683594 24.589844 22.308594 23.8125 C 22.457031 23.625 22.382812 23.476562 22.214844 23.355469 C 21.886719 23.121094 21.542969 22.902344 21.230469 22.644531 C 20.867188 22.34375 20.777344 22.371094 20.648438 22.828125 C 20.265625 24.21875 20.359375 25.628906 20.484375 27.117188 M 24.269531 18.078125 C 24.214844 17.746094 24.019531 17.671875 23.714844 17.765625 C 23.410156 17.863281 23.238281 18.007812 23.277344 18.378906 C 23.378906 19.410156 24.09375 20.070312 24.710938 20.789062 C 24.765625 20.855469 24.863281 20.886719 24.976562 20.808594 C 25.117188 20.398438 24.980469 20.003906 24.824219 19.613281 C 24.628906 19.132812 24.347656 18.679688 24.269531 18.078125 Z M 24.269531 18.078125 " fill-opacity="1" fill-rule="nonzero"/></svg>