<svg xmlns="http://www.w3.org/2000/svg" xmlns:xlink="http://www.w3.org/1999/xlink" width="70" zoomAndPan="magnify" viewBox="0 0 52.5 52.499999" height="70" preserveAspectRatio="xMidYMid meet" version="1.2"><defs><clipPath id="84f260cb7b"><path d="M 13.632812 2.71875 L 38.148438 2.71875 L 38.148438 49.523438 L 13.632812 49.523438 Z M 13.632812 2.71875 "/></clipPath></defs><g id="2735f5041d"><g clip-rule="nonzero" clip-path="url(#84f260cb7b)"><path style=" stroke:none;fill-rule:nonzero;fill:#000000;fill-opacity:1;" d="M 16.894531 10.152344 C 16.773438 9.113281 17.476562 8.402344 18.289062 8.140625 C 18.664062 8.019531 19.035156 7.859375 19.347656 7.605469 C 19.570312 7.4375 19.808594 7.324219 20.078125 7.269531 C 20.207031 7.242188 20.328125 7.261719 20.4375 7.335938 C 20.59375 7.4375 20.742188 7.558594 20.890625 7.671875 C 20.925781 7.699219 20.964844 7.726562 20.972656 7.765625 C 21.054688 8.046875 21.324219 8.09375 21.554688 8.234375 C 21.535156 8.085938 21.527344 7.925781 21.507812 7.773438 C 21.5 7.738281 21.460938 7.699219 21.433594 7.679688 C 21.183594 7.53125 21.082031 7.289062 21.027344 7.015625 C 20.980469 6.773438 20.910156 6.53125 20.863281 6.277344 C 20.835938 6.15625 20.761719 6.097656 20.648438 6.082031 C 20.492188 6.050781 20.382812 5.949219 20.335938 5.820312 C 20.234375 5.554688 20.1875 5.277344 20.273438 4.996094 C 20.300781 4.910156 20.363281 4.835938 20.417969 4.769531 C 20.640625 4.535156 20.863281 4.3125 21.082031 4.078125 C 21.515625 3.617188 21.980469 3.214844 22.558594 2.953125 C 22.890625 2.8125 23.242188 2.757812 23.59375 2.738281 C 23.863281 2.71875 24.101562 2.8125 24.269531 3.039062 C 24.277344 3.058594 24.296875 3.074219 24.3125 3.074219 C 24.460938 3.105469 24.609375 3.132812 24.757812 3.152344 C 24.894531 3.179688 25.050781 3.167969 25.179688 3.226562 C 25.660156 3.433594 25.976562 3.796875 26.039062 4.339844 C 26.09375 4.816406 26.152344 5.304688 26.207031 5.78125 C 26.222656 5.902344 26.222656 6.035156 26.269531 6.15625 C 26.351562 6.410156 26.351562 6.660156 26.34375 6.914062 C 26.335938 7.054688 26.398438 7.089844 26.539062 7.089844 C 26.757812 7.082031 26.980469 7.082031 27.191406 7.109375 C 27.488281 7.148438 27.773438 7.222656 28.0625 7.289062 C 28.078125 7.289062 28.089844 7.289062 28.105469 7.296875 C 28.410156 7.296875 28.714844 7.289062 29.011719 7.296875 C 29.261719 7.308594 29.492188 7.289062 29.730469 7.203125 C 29.980469 7.121094 30.25 7.074219 30.507812 7.035156 C 30.597656 7.027344 30.710938 7.082031 30.800781 7.121094 C 30.875 7.148438 30.941406 7.183594 31.015625 7.230469 C 31.4375 7.476562 31.769531 7.8125 32.074219 8.195312 C 32.121094 8.261719 32.175781 8.328125 32.214844 8.394531 C 32.371094 8.644531 32.59375 8.832031 32.898438 8.90625 C 32.925781 8.824219 32.953125 8.738281 32.980469 8.65625 C 33.035156 8.457031 33.101562 8.269531 33.144531 8.074219 C 33.164062 8.007812 33.144531 7.925781 33.109375 7.859375 C 33.054688 7.757812 32.980469 7.671875 32.914062 7.589844 C 32.738281 7.34375 32.675781 7.074219 32.75 6.773438 C 32.804688 6.539062 32.851562 6.304688 32.886719 6.070312 C 32.898438 6.042969 32.878906 6.007812 32.871094 5.976562 C 32.8125 5.855469 32.757812 5.734375 32.703125 5.613281 C 32.621094 5.433594 32.65625 5.324219 32.824219 5.164062 C 32.960938 5.03125 33.089844 5.003906 33.238281 5.105469 C 33.375 5.199219 33.488281 5.332031 33.625 5.464844 C 33.726562 5.40625 33.867188 5.332031 33.996094 5.257812 C 34.003906 5.246094 34.011719 5.238281 34.011719 5.230469 C 34.105469 4.984375 34.308594 4.863281 34.550781 4.796875 C 34.660156 4.761719 34.761719 4.734375 34.871094 4.703125 C 34.992188 4.675781 35.113281 4.675781 35.203125 4.789062 C 35.289062 4.890625 35.316406 5.011719 35.257812 5.144531 C 35.257812 5.152344 35.25 5.164062 35.25 5.164062 C 35.289062 5.3125 35.296875 5.464844 35.257812 5.621094 C 35.257812 5.632812 35.289062 5.660156 35.304688 5.667969 C 35.507812 5.742188 35.535156 5.921875 35.546875 6.097656 C 35.546875 6.203125 35.5625 6.269531 35.636719 6.351562 C 35.703125 6.417969 35.738281 6.53125 35.738281 6.625 C 35.75 6.875 35.75 7.136719 35.730469 7.390625 C 35.722656 7.523438 35.65625 7.644531 35.621094 7.765625 C 35.765625 7.867188 35.925781 7.980469 36.070312 8.09375 C 36.3125 8.269531 36.441406 8.515625 36.488281 8.824219 C 36.550781 9.300781 36.652344 9.769531 36.734375 10.238281 C 36.78125 10.527344 36.867188 10.808594 36.875 11.097656 C 36.902344 11.640625 36.71875 12.128906 36.367188 12.539062 C 36.265625 12.660156 36.097656 12.753906 35.953125 12.792969 C 35.269531 12.960938 34.566406 12.96875 33.875 12.875 C 33.773438 12.859375 33.679688 12.820312 33.570312 12.78125 C 33.46875 13.054688 33.347656 13.324219 33.257812 13.605469 C 33.128906 13.992188 32.925781 14.316406 32.601562 14.5625 C 32.574219 14.582031 32.554688 14.628906 32.554688 14.65625 C 32.648438 15.1875 32.769531 15.714844 32.839844 16.246094 C 33 17.277344 33.117188 18.316406 33.273438 19.355469 C 33.359375 19.898438 33.515625 20.429688 33.597656 20.972656 C 33.738281 21.855469 33.847656 22.742188 33.984375 23.621094 C 34.050781 24.015625 33.929688 24.335938 33.679688 24.625 C 33.589844 24.738281 33.5625 24.839844 33.570312 24.980469 C 33.597656 25.457031 33.597656 25.945312 33.597656 26.421875 C 33.589844 27.125 33.570312 27.824219 33.542969 28.527344 C 33.535156 28.6875 33.542969 28.847656 33.433594 28.988281 C 33.414062 29.015625 33.433594 29.082031 33.449219 29.128906 C 33.550781 29.464844 33.691406 29.78125 33.765625 30.128906 C 33.96875 31.027344 34.363281 31.851562 34.714844 32.695312 C 35.085938 33.582031 35.453125 34.472656 35.703125 35.410156 C 35.765625 35.652344 35.867188 35.894531 35.988281 36.121094 C 36.339844 36.820312 36.707031 37.503906 37.058594 38.199219 C 37.503906 39.085938 37.632812 40.015625 37.335938 40.976562 C 37.226562 41.324219 37.234375 41.644531 37.328125 41.988281 C 37.429688 42.363281 37.648438 42.683594 37.835938 43.019531 C 37.910156 43.148438 37.980469 43.28125 38.046875 43.421875 C 38.148438 43.644531 38.148438 43.890625 38.039062 44.105469 C 37.9375 44.300781 37.824219 44.515625 37.660156 44.667969 C 36.847656 45.414062 35.933594 45.957031 34.816406 46.0625 C 34.417969 46.097656 34.023438 46.089844 33.625 46.125 C 33.394531 46.144531 33.15625 46.210938 32.933594 46.285156 C 32.65625 46.378906 32.445312 46.574219 32.324219 46.847656 C 32.128906 47.296875 31.789062 47.511719 31.347656 47.625 C 30.597656 47.8125 29.859375 47.832031 29.105469 47.613281 C 28.855469 47.539062 28.570312 47.550781 28.300781 47.550781 C 27.738281 47.558594 27.191406 47.644531 26.667969 47.839844 C 26.371094 47.953125 26.113281 48.128906 25.929688 48.390625 C 25.511719 48.992188 24.894531 49.234375 24.230469 49.375 C 24.027344 49.421875 23.816406 49.382812 23.613281 49.394531 C 23.179688 49.414062 22.746094 49.457031 22.300781 49.46875 C 21.589844 49.488281 20.878906 49.523438 20.171875 49.496094 C 19.488281 49.46875 18.824219 49.289062 18.203125 48.980469 C 17.84375 48.792969 17.519531 48.558594 17.253906 48.25 C 16.902344 47.859375 16.867188 47.578125 17.113281 47.023438 C 17.171875 46.914062 17.253906 46.808594 17.316406 46.707031 C 17.375 46.621094 17.4375 46.546875 17.484375 46.453125 C 17.59375 46.257812 17.519531 46.023438 17.308594 45.96875 C 17.078125 45.902344 16.839844 45.863281 16.597656 45.84375 C 16.230469 45.816406 15.878906 45.722656 15.527344 45.601562 C 15.316406 45.527344 15.132812 45.386719 14.984375 45.210938 C 14.808594 44.976562 14.59375 44.789062 14.347656 44.636719 C 13.914062 44.386719 13.726562 43.964844 13.683594 43.46875 C 13.636719 42.933594 13.773438 42.457031 13.996094 41.980469 C 14.328125 41.285156 14.855469 40.761719 15.425781 40.277344 C 15.8125 39.949219 16.191406 39.601562 16.570312 39.253906 C 16.699219 39.132812 16.8125 38.992188 16.910156 38.851562 C 17.457031 38.121094 17.863281 37.328125 18.074219 36.4375 C 18.242188 35.753906 18.378906 35.070312 18.546875 34.398438 C 18.785156 33.40625 19.117188 32.449219 19.617188 31.5625 C 19.625 31.550781 19.625 31.53125 19.632812 31.503906 C 19.449219 31.542969 19.273438 31.578125 19.097656 31.617188 C 18.554688 31.730469 18.019531 31.738281 17.476562 31.625 C 16.882812 31.515625 16.339844 30.980469 16.265625 30.4375 C 16.238281 30.230469 16.238281 30.015625 16.265625 29.808594 C 16.320312 29.359375 16.191406 29.015625 15.796875 28.773438 C 15.5 28.585938 15.242188 28.359375 15.066406 28.042969 C 14.707031 27.394531 14.578125 26.730469 14.84375 26.019531 C 15 25.609375 15.167969 25.195312 15.289062 24.773438 C 15.445312 24.230469 15.566406 23.667969 15.695312 23.117188 C 15.859375 22.378906 15.953125 21.621094 15.988281 20.863281 C 16 20.570312 15.933594 20.273438 15.886719 19.980469 C 15.851562 19.710938 15.804688 19.429688 15.738281 19.15625 C 15.667969 18.867188 15.59375 18.566406 15.480469 18.289062 C 15.304688 17.847656 15.316406 17.390625 15.324219 16.929688 C 15.332031 16.6875 15.324219 16.433594 15.332031 16.191406 C 15.351562 15.777344 15.464844 15.394531 15.601562 15.011719 C 15.8125 14.394531 16.015625 13.777344 16.070312 13.121094 C 16.128906 12.472656 16.210938 11.835938 16.164062 11.191406 C 16.128906 10.640625 16.3125 10.347656 16.828125 10.132812 C 16.867188 10.171875 16.882812 10.164062 16.894531 10.152344 Z M 14.917969 44.535156 C 15.871094 42.933594 16.921875 41.410156 17.84375 39.789062 C 17.863281 39.863281 17.863281 39.929688 17.851562 39.996094 C 17.789062 40.472656 17.605469 40.914062 17.390625 41.332031 C 16.894531 42.335938 16.21875 43.226562 15.535156 44.105469 C 15.390625 44.292969 15.242188 44.480469 15.074219 44.695312 C 15.289062 44.851562 15.464844 45.03125 15.675781 45.125 C 15.953125 45.238281 16.265625 45.285156 16.5625 45.359375 C 16.8125 45.414062 17.070312 45.441406 17.316406 45.519531 C 17.457031 45.554688 17.566406 45.648438 17.707031 45.722656 C 17.789062 45.386719 17.890625 45.050781 17.964844 44.714844 C 18.175781 43.777344 18.390625 42.839844 18.574219 41.894531 C 18.859375 40.425781 19.097656 38.945312 19.386719 37.488281 C 19.753906 35.625 20.417969 33.835938 20.972656 32.027344 C 20.980469 31.992188 21.011719 31.964844 21.027344 31.933594 C 21.054688 31.972656 21.054688 31.992188 21.054688 32.019531 C 20.972656 32.515625 20.910156 33.011719 20.789062 33.5 C 20.214844 35.765625 19.773438 38.046875 19.433594 40.359375 C 19.273438 41.390625 19.128906 42.417969 18.832031 43.421875 C 18.59375 44.253906 18.304688 45.078125 18.046875 45.910156 C 17.9375 46.265625 17.789062 46.59375 17.566406 46.894531 C 17.511719 46.96875 17.457031 47.054688 17.429688 47.148438 C 17.375 47.34375 17.316406 47.558594 17.484375 47.726562 C 17.890625 48.148438 18.351562 48.476562 18.90625 48.652344 C 19.210938 48.746094 19.523438 48.839844 19.835938 48.886719 C 20.585938 49.007812 21.34375 48.980469 22.089844 48.945312 C 22.699219 48.917969 23.296875 48.871094 23.90625 48.960938 C 24.054688 48.980469 24.222656 48.960938 24.359375 48.925781 C 24.589844 48.859375 24.832031 48.777344 25.042969 48.664062 C 25.199219 48.578125 25.347656 48.4375 25.46875 48.296875 C 25.542969 48.214844 25.550781 48.082031 25.597656 47.980469 C 25.808594 47.511719 26.019531 47.042969 26.242188 46.585938 C 26.789062 45.460938 27.230469 44.292969 27.527344 43.074219 C 27.785156 42.007812 27.949219 40.921875 27.875 39.816406 C 27.792969 38.664062 27.664062 37.523438 27.554688 36.371094 C 27.542969 36.269531 27.535156 36.175781 27.527344 36.074219 C 27.535156 36.074219 27.554688 36.0625 27.5625 36.0625 C 27.570312 36.089844 27.589844 36.121094 27.597656 36.148438 C 27.65625 36.324219 27.71875 36.503906 27.773438 36.691406 C 28.015625 37.542969 28.144531 38.414062 28.273438 39.285156 C 28.394531 40.050781 28.4375 40.820312 28.335938 41.585938 C 28.144531 43.132812 27.683594 44.601562 26.992188 45.996094 C 26.722656 46.519531 26.425781 47.023438 26.152344 47.550781 C 26.132812 47.578125 26.121094 47.605469 26.09375 47.660156 C 26.554688 47.382812 27.027344 47.242188 27.515625 47.15625 C 28.117188 47.0625 28.707031 46.996094 29.308594 47.164062 C 29.769531 47.296875 30.238281 47.316406 30.699219 47.230469 C 30.976562 47.183594 31.246094 47.117188 31.503906 47.023438 C 31.734375 46.941406 31.808594 46.773438 31.789062 46.527344 C 31.78125 46.453125 31.78125 46.386719 31.78125 46.3125 C 31.769531 45.753906 31.789062 45.191406 31.761719 44.628906 C 31.695312 43.289062 31.605469 41.953125 31.660156 40.613281 C 31.660156 40.574219 31.667969 40.527344 31.667969 40.472656 C 31.707031 40.492188 31.714844 40.5 31.726562 40.511719 C 32.03125 42.410156 32.242188 44.320312 32.09375 46.277344 C 32.128906 46.25 32.148438 46.238281 32.160156 46.21875 C 32.433594 45.957031 32.757812 45.789062 33.128906 45.742188 C 33.515625 45.695312 33.910156 45.667969 34.308594 45.675781 C 35.074219 45.6875 35.765625 45.488281 36.375 45.03125 C 36.679688 44.808594 36.976562 44.5625 37.242188 44.292969 C 37.558594 43.964844 37.558594 43.769531 37.335938 43.375 C 37.316406 43.335938 37.289062 43.300781 37.269531 43.261719 C 37.097656 42.859375 36.875 42.476562 36.855469 42.027344 C 36.855469 41.988281 36.835938 41.941406 36.820312 41.90625 C 36.5625 41.4375 36.300781 40.960938 36.042969 40.492188 C 35.214844 39.011719 34.355469 37.542969 33.71875 35.960938 C 33.433594 35.25 33.164062 34.539062 32.886719 33.828125 C 32.878906 33.796875 32.886719 33.761719 32.886719 33.722656 C 32.914062 33.742188 32.953125 33.761719 32.96875 33.789062 C 33.0625 33.949219 33.15625 34.105469 33.238281 34.277344 C 33.765625 35.285156 34.289062 36.296875 34.824219 37.300781 C 35.460938 38.488281 36.117188 39.667969 36.773438 40.847656 C 36.792969 40.875 36.808594 40.894531 36.828125 40.929688 C 36.929688 40.445312 36.949219 39.976562 36.894531 39.5 C 36.835938 38.945312 36.734375 38.414062 36.488281 37.917969 C 36.21875 37.382812 35.933594 36.851562 35.65625 36.316406 C 35.546875 36.089844 35.433594 35.867188 35.34375 35.632812 C 35.257812 35.425781 35.203125 35.210938 35.121094 35.015625 C 34.75 34.125 34.375 33.238281 33.996094 32.355469 C 33.710938 31.683594 33.40625 31.027344 33.265625 30.308594 C 33.238281 30.175781 33.191406 30.042969 33.144531 29.902344 C 32.988281 29.34375 32.777344 28.789062 32.8125 28.191406 C 32.8125 28.164062 32.804688 28.144531 32.804688 28.117188 C 32.667969 27.734375 32.546875 27.347656 32.378906 26.984375 C 32.113281 26.367188 31.808594 25.765625 31.53125 25.160156 C 31.289062 24.632812 31.015625 24.136719 30.671875 23.679688 C 30.210938 23.050781 29.75 22.425781 29.378906 21.730469 C 29.140625 21.273438 28.835938 20.863281 28.511719 20.460938 C 28.300781 20.195312 28.089844 19.933594 27.894531 19.652344 C 27.699219 19.375 27.535156 19.082031 27.515625 18.726562 C 27.507812 18.464844 27.515625 18.203125 27.542969 17.949219 C 27.597656 17.425781 27.570312 16.9375 27.175781 16.546875 C 27.074219 16.441406 26.992188 16.394531 26.84375 16.441406 C 26.65625 16.488281 26.472656 16.507812 26.296875 16.535156 C 26.28125 16.621094 26.28125 16.707031 26.242188 16.761719 C 26.078125 17.015625 25.929688 17.296875 25.707031 17.5 C 25.0625 18.117188 24.257812 18.484375 23.417969 18.746094 C 23.132812 18.839844 22.828125 18.886719 22.523438 18.960938 C 22.773438 19.8125 23.03125 20.675781 23.289062 21.5625 C 23.398438 21.460938 23.484375 21.394531 23.546875 21.320312 C 23.667969 21.179688 23.804688 21.066406 23.980469 20.992188 C 24.195312 20.898438 24.386719 20.769531 24.589844 20.644531 C 24.921875 20.441406 25.226562 20.207031 25.570312 20.027344 C 25.816406 19.898438 26.105469 19.839844 26.371094 19.765625 C 26.601562 19.691406 26.75 19.8125 26.722656 20.066406 C 26.714844 20.148438 26.675781 20.242188 26.621094 20.320312 C 26.539062 20.429688 26.4375 20.535156 26.335938 20.636719 C 26.222656 20.75 26.105469 20.84375 25.976562 20.964844 C 26.316406 20.871094 26.59375 20.710938 26.871094 20.523438 C 27.089844 20.375 27.332031 20.226562 27.617188 20.28125 C 27.902344 20.328125 27.988281 20.535156 27.8125 20.777344 C 27.765625 20.84375 27.699219 20.890625 27.644531 20.945312 C 27.617188 20.972656 27.582031 21.003906 27.527344 21.058594 C 27.664062 21.019531 27.773438 20.984375 27.875 20.964844 C 27.988281 20.945312 28.105469 20.925781 28.226562 20.925781 C 28.46875 20.917969 28.605469 21.011719 28.660156 21.207031 C 28.714844 21.414062 28.625 21.621094 28.429688 21.714844 C 28.273438 21.789062 28.097656 21.855469 27.941406 21.929688 C 27.847656 21.964844 27.765625 22.023438 27.691406 22.058594 C 27.867188 22.105469 28.042969 22.125 28.191406 22.191406 C 28.382812 22.273438 28.402344 22.460938 28.234375 22.59375 C 28.144531 22.667969 28.023438 22.722656 27.914062 22.769531 C 27.839844 22.800781 27.746094 22.800781 27.671875 22.828125 C 27.515625 22.875 27.367188 22.929688 27.210938 22.988281 C 27.386719 23.0625 27.527344 23.136719 27.609375 23.296875 C 27.671875 23.417969 27.65625 23.519531 27.554688 23.613281 C 27.414062 23.753906 27.238281 23.773438 27.054688 23.753906 C 26.933594 23.734375 26.816406 23.714844 26.695312 23.707031 C 26.152344 23.679688 25.613281 23.59375 25.125 23.3125 C 25.050781 23.277344 24.960938 23.257812 24.875 23.257812 C 24.617188 23.277344 24.359375 23.304688 24.101562 23.34375 C 24.066406 23.34375 24.035156 23.371094 23.992188 23.378906 C 24.027344 23.484375 24.066406 23.578125 24.09375 23.667969 C 24.15625 23.855469 24.210938 24.042969 24.277344 24.230469 C 24.304688 24.324219 24.324219 24.429688 24.378906 24.511719 C 24.570312 24.832031 24.71875 25.160156 24.773438 25.523438 C 24.839844 25.980469 24.804688 26.421875 24.570312 26.824219 C 24.296875 27.3125 23.917969 27.714844 23.464844 28.042969 C 23.289062 28.164062 23.105469 28.273438 22.929688 28.386719 C 22.746094 28.507812 22.632812 28.667969 22.625 28.894531 C 22.625 29.082031 22.632812 29.269531 22.625 29.445312 C 22.625 29.59375 22.652344 29.765625 22.589844 29.875 C 22.421875 30.175781 22.253906 30.503906 21.941406 30.679688 C 21.601562 30.878906 21.25 31.054688 20.890625 31.214844 C 20.605469 31.335938 20.300781 31.410156 20.023438 31.503906 C 19.996094 31.609375 19.976562 31.703125 19.9375 31.785156 C 19.625 32.449219 19.367188 33.144531 19.164062 33.855469 C 18.980469 34.527344 18.832031 35.210938 18.65625 35.886719 C 18.378906 36.925781 17.917969 37.878906 17.347656 38.777344 C 17.171875 39.058594 16.996094 39.339844 16.792969 39.601562 C 16.359375 40.183594 15.8125 40.660156 15.277344 41.148438 C 14.828125 41.558594 14.511719 42.0625 14.273438 42.617188 C 14.070312 43.074219 14.078125 43.542969 14.246094 44.011719 C 14.300781 44.160156 14.390625 44.308594 14.511719 44.414062 C 14.640625 44.441406 14.789062 44.46875 14.917969 44.535156 Z M 16.617188 15.667969 C 16.625 15.675781 16.644531 15.675781 16.652344 15.683594 C 16.652344 15.714844 16.664062 15.742188 16.664062 15.769531 C 16.679688 17.867188 16.617188 19.972656 16.375 22.058594 C 16.257812 23.125 15.960938 24.148438 15.507812 25.121094 C 15.371094 25.410156 15.25 25.710938 15.121094 26.011719 C 14.855469 26.601562 15.039062 27.144531 15.324219 27.65625 C 15.425781 27.835938 15.566406 27.996094 15.710938 28.125 C 15.972656 28.359375 16.257812 28.554688 16.535156 28.773438 C 16.535156 28.742188 16.542969 28.707031 16.550781 28.660156 C 16.617188 28.164062 16.664062 27.667969 16.738281 27.179688 C 16.96875 25.777344 17.1875 24.371094 17.308594 22.949219 C 17.382812 22.023438 17.511719 21.105469 17.621094 20.1875 C 17.640625 20.039062 17.6875 19.886719 17.722656 19.738281 C 17.742188 19.738281 17.75 19.738281 17.769531 19.746094 C 17.769531 19.792969 17.78125 19.839844 17.78125 19.886719 C 17.761719 20.9375 17.742188 21.976562 17.707031 23.023438 C 17.6875 23.613281 17.667969 24.210938 17.578125 24.800781 C 17.375 26.121094 17.125 27.433594 16.882812 28.742188 C 16.792969 29.257812 16.671875 29.773438 16.664062 30.308594 C 16.664062 30.476562 16.691406 30.632812 16.792969 30.773438 C 16.984375 31.019531 17.214844 31.222656 17.53125 31.242188 C 17.882812 31.269531 18.242188 31.300781 18.582031 31.242188 C 19.503906 31.101562 20.390625 30.839844 21.25 30.484375 C 21.386719 30.429688 21.515625 30.363281 21.648438 30.308594 C 21.609375 30.136719 21.574219 29.980469 21.535156 29.820312 C 21.527344 29.792969 21.515625 29.753906 21.5 29.726562 C 21.113281 28.921875 20.917969 28.058594 20.84375 27.179688 C 20.761719 26.261719 20.761719 25.34375 20.734375 24.429688 C 20.722656 24.304688 20.742188 24.175781 20.722656 24.054688 C 20.667969 23.558594 20.605469 23.0625 20.53125 22.566406 C 20.410156 21.722656 20.1875 20.898438 19.835938 20.121094 C 19.71875 19.859375 19.589844 19.605469 19.476562 19.34375 C 18.582031 17.21875 17.816406 15.046875 17.464844 12.746094 C 17.410156 12.371094 17.417969 11.988281 17.410156 11.613281 C 17.410156 11.574219 17.429688 11.539062 17.457031 11.472656 C 17.492188 11.734375 17.503906 11.949219 17.558594 12.15625 C 17.769531 12.941406 17.964844 13.738281 18.230469 14.503906 C 18.757812 15.984375 19.332031 17.445312 19.882812 18.914062 C 20.105469 19.503906 20.328125 20.09375 20.4375 20.722656 C 20.546875 21.347656 20.640625 21.976562 20.722656 22.601562 C 20.796875 23.144531 20.871094 23.699219 20.9375 24.242188 C 20.992188 24.691406 21.011719 25.148438 21.074219 25.597656 C 21.175781 26.300781 21.277344 27.011719 21.40625 27.703125 C 21.5 28.21875 21.617188 28.734375 21.75 29.25 C 21.8125 29.511719 21.90625 29.765625 21.988281 30.054688 C 22.0625 29.96875 22.109375 29.914062 22.164062 29.867188 C 22.347656 29.734375 22.367188 29.546875 22.355469 29.34375 C 22.347656 29.117188 22.375 28.894531 22.386719 28.679688 C 22.394531 28.5 22.46875 28.351562 22.589844 28.230469 C 22.679688 28.136719 22.773438 28.03125 22.882812 27.957031 C 23.335938 27.640625 23.6875 27.21875 24 26.757812 C 24.40625 26.152344 24.425781 25.503906 24.128906 24.839844 C 24.027344 24.617188 23.925781 24.390625 23.871094 24.15625 C 23.832031 24.015625 23.816406 23.875 23.75 23.753906 C 23.722656 23.707031 23.703125 23.652344 23.6875 23.59375 C 23.457031 22.910156 23.226562 22.226562 23.003906 21.546875 C 22.699219 20.597656 22.476562 19.636719 22.144531 18.699219 C 21.839844 17.855469 21.398438 17.109375 20.863281 16.414062 C 20.300781 15.683594 19.746094 14.953125 19.375 14.101562 C 19.347656 14.039062 19.332031 13.972656 19.300781 13.914062 C 19.3125 13.90625 19.332031 13.886719 19.339844 13.878906 C 19.394531 13.90625 19.460938 13.925781 19.503906 13.972656 C 19.605469 14.085938 19.707031 14.207031 19.800781 14.328125 C 20.03125 14.628906 20.261719 14.9375 20.492188 15.234375 C 20.511719 15.265625 20.539062 15.292969 20.566406 15.320312 C 20.558594 15.207031 20.519531 15.105469 20.492188 15.011719 C 20.300781 14.328125 19.984375 13.710938 19.523438 13.175781 C 19.359375 12.980469 19.210938 12.746094 19.070312 12.519531 C 18.8125 12.109375 18.5625 11.679688 18.304688 11.265625 C 18.101562 10.929688 17.84375 10.660156 17.519531 10.433594 C 17.316406 10.285156 17.152344 10.320312 16.96875 10.40625 C 16.664062 10.535156 16.449219 10.742188 16.433594 11.097656 C 16.40625 11.5 16.386719 11.902344 16.347656 12.304688 C 16.304688 12.847656 16.257812 13.402344 16.171875 13.933594 C 16.101562 14.382812 15.988281 14.832031 15.878906 15.273438 C 15.695312 15.984375 15.675781 16.714844 15.675781 17.445312 C 15.675781 17.59375 15.710938 17.746094 15.769531 17.886719 C 15.898438 18.183594 16.042969 18.472656 16.191406 18.773438 C 16.191406 18.753906 16.203125 18.726562 16.203125 18.699219 C 16.257812 18.035156 16.3125 17.371094 16.386719 16.707031 C 16.414062 16.425781 16.46875 16.144531 16.515625 15.871094 C 16.535156 15.808594 16.578125 15.742188 16.617188 15.667969 Z M 21.914062 11.089844 C 21.886719 11.359375 21.71875 11.566406 21.277344 11.527344 C 21.277344 11.546875 21.277344 11.566406 21.277344 11.59375 C 21.324219 12.070312 21.203125 12.511719 20.980469 12.933594 C 20.878906 13.128906 20.742188 13.277344 20.539062 13.371094 C 20.390625 13.4375 20.34375 13.625 20.429688 13.777344 C 20.511719 13.925781 20.613281 14.085938 20.648438 14.253906 C 20.742188 14.683594 20.808594 15.132812 20.878906 15.574219 C 20.890625 15.648438 20.917969 15.722656 20.964844 15.777344 C 21.609375 16.546875 22.089844 17.417969 22.386719 18.382812 C 22.476562 18.671875 22.476562 18.660156 22.761719 18.605469 C 23.824219 18.410156 24.757812 17.976562 25.496094 17.15625 C 25.652344 16.984375 25.78125 16.789062 25.917969 16.613281 C 25.910156 16.601562 25.902344 16.59375 25.890625 16.582031 C 25.714844 16.640625 25.542969 16.6875 25.367188 16.742188 C 25.328125 16.753906 25.292969 16.734375 25.253906 16.734375 C 25.265625 16.695312 25.253906 16.640625 25.273438 16.621094 C 25.320312 16.574219 25.375 16.519531 25.441406 16.488281 C 25.644531 16.40625 25.847656 16.3125 26.058594 16.265625 C 26.472656 16.179688 26.898438 16.132812 27.3125 16.050781 C 27.800781 15.945312 28.28125 15.816406 28.761719 15.703125 C 29.667969 15.488281 30.570312 15.28125 31.421875 14.878906 C 31.808594 14.691406 32.175781 14.496094 32.472656 14.1875 C 32.601562 14.046875 32.730469 13.898438 32.8125 13.730469 C 32.953125 13.449219 33.070312 13.167969 33.171875 12.867188 C 33.617188 11.480469 34.011719 10.078125 34.28125 8.644531 C 34.300781 8.535156 34.335938 8.421875 34.410156 8.335938 C 34.660156 8.039062 34.78125 7.699219 34.75 7.289062 C 34.6875 7.308594 34.632812 7.324219 34.578125 7.34375 C 34.4375 7.382812 34.300781 7.4375 34.160156 7.464844 C 33.894531 7.511719 33.753906 7.355469 33.820312 7.089844 C 33.828125 7.0625 33.828125 7.027344 33.808594 7.007812 C 33.71875 6.894531 33.71875 6.78125 33.773438 6.652344 C 33.78125 6.625 33.792969 6.59375 33.773438 6.578125 C 33.671875 6.371094 33.671875 6.316406 33.808594 6.136719 C 33.949219 5.960938 34.078125 5.78125 34.234375 5.566406 C 34.144531 5.566406 34.070312 5.546875 34.011719 5.566406 C 33.753906 5.695312 33.507812 5.828125 33.257812 5.976562 C 33.128906 6.050781 33.015625 6.15625 33.007812 6.332031 C 33 6.550781 32.96875 6.773438 32.941406 6.988281 C 32.914062 7.183594 32.988281 7.34375 33.128906 7.457031 C 33.421875 7.679688 33.523438 8.027344 33.386719 8.363281 C 33.0625 9.152344 32.738281 9.9375 32.40625 10.714844 C 32.148438 11.3125 31.882812 11.902344 31.605469 12.492188 C 31.464844 12.78125 31.273438 13.027344 31.03125 13.234375 C 30.894531 13.34375 30.753906 13.402344 30.5625 13.410156 C 30.082031 13.4375 29.59375 13.464844 29.132812 13.605469 C 28.171875 13.886719 27.230469 13.859375 26.269531 13.652344 C 26.121094 13.625 25.964844 13.625 25.816406 13.664062 C 25.382812 13.757812 24.96875 13.886719 24.535156 13.992188 C 24.195312 14.066406 23.84375 14.140625 23.492188 14.1875 C 23.207031 14.226562 22.855469 14.007812 22.761719 13.757812 C 22.679688 13.550781 22.605469 13.335938 22.53125 13.128906 C 22.320312 12.503906 22.320312 11.882812 22.671875 11.304688 C 22.746094 11.171875 22.828125 11.050781 22.921875 10.929688 C 23.050781 10.75 23.167969 10.574219 23.226562 10.347656 C 23.011719 10.273438 22.902344 10.125 22.847656 9.917969 C 22.808594 9.796875 22.726562 9.722656 22.632812 9.636719 C 22.515625 9.527344 22.421875 9.394531 22.265625 9.320312 C 22.238281 9.308594 22.226562 9.253906 22.21875 9.214844 C 22.199219 9.160156 22.171875 9.09375 22.152344 9.039062 C 22.136719 8.964844 22.089844 8.9375 22.007812 8.925781 C 21.886719 8.917969 21.757812 8.878906 21.664062 8.8125 C 21.527344 8.71875 21.414062 8.589844 21.285156 8.476562 C 21.230469 8.429688 21.167969 8.394531 21.113281 8.347656 C 21.3125 8.71875 21.414062 9.113281 21.445312 9.535156 C 21.453125 9.730469 21.5 9.929688 21.617188 10.097656 C 21.636719 10.125 21.648438 10.164062 21.65625 10.191406 C 21.703125 10.332031 21.664062 10.433594 21.535156 10.488281 C 21.453125 10.527344 21.359375 10.535156 21.269531 10.535156 C 21.175781 10.546875 21.074219 10.519531 20.980469 10.519531 C 20.84375 10.519531 20.722656 10.6875 20.769531 10.828125 C 20.84375 11.023438 20.964844 11.171875 21.15625 11.265625 C 21.378906 11.371094 21.5625 11.292969 21.65625 11.0625 C 21.710938 10.921875 21.832031 10.863281 21.980469 10.902344 C 22.0625 10.921875 22.144531 10.9375 22.21875 10.96875 C 22.265625 10.984375 22.328125 11.03125 22.328125 11.050781 C 22.320312 11.097656 22.285156 11.171875 22.246094 11.183594 C 22.183594 11.203125 22.097656 11.183594 22.035156 11.164062 C 21.996094 11.15625 21.960938 11.117188 21.914062 11.089844 Z M 33.210938 25.140625 C 33.136719 25.1875 33.089844 25.222656 33.042969 25.261719 C 32.871094 25.382812 32.683594 25.449219 32.472656 25.421875 C 32.378906 25.410156 32.25 25.410156 32.230469 25.289062 C 32.214844 25.160156 32.34375 25.128906 32.433594 25.09375 C 32.554688 25.046875 32.695312 25.027344 32.785156 24.941406 C 33.042969 24.738281 33.285156 24.511719 33.523438 24.289062 C 33.550781 24.269531 33.5625 24.210938 33.5625 24.175781 C 33.550781 24.035156 33.523438 23.902344 33.507812 23.761719 C 33.414062 22.863281 33.347656 21.957031 33.238281 21.058594 C 33.164062 20.488281 33.027344 19.925781 32.933594 19.355469 C 32.730469 18.117188 32.546875 16.875 32.351562 15.628906 C 32.316406 15.367188 32.289062 15.105469 32.261719 14.84375 C 31.613281 15.207031 30.949219 15.507812 30.238281 15.703125 C 29.640625 15.871094 29.019531 15.992188 28.402344 16.125 C 28.117188 16.191406 27.832031 16.238281 27.535156 16.292969 C 27.527344 16.304688 27.527344 16.3125 27.515625 16.320312 C 27.554688 16.351562 27.589844 16.367188 27.617188 16.394531 C 27.859375 16.640625 28.015625 16.921875 28.023438 17.265625 C 28.023438 17.558594 28.015625 17.855469 27.960938 18.148438 C 27.867188 18.660156 27.941406 19.101562 28.292969 19.496094 C 28.53125 19.757812 28.761719 20.027344 28.972656 20.320312 C 29.207031 20.628906 29.445312 20.9375 29.640625 21.28125 C 29.953125 21.824219 30.277344 22.359375 30.652344 22.863281 C 31.078125 23.425781 31.476562 24.007812 31.753906 24.660156 C 31.863281 24.925781 31.984375 25.175781 32.09375 25.429688 C 32.398438 26.140625 32.703125 26.851562 33.007812 27.5625 C 33.035156 27.621094 33.054688 27.675781 33.082031 27.722656 C 33.15625 26.871094 33.070312 26.011719 33.210938 25.140625 Z M 25.226562 8.066406 C 25.035156 8.019531 24.960938 7.867188 24.894531 7.738281 C 24.8125 7.570312 24.867188 7.476562 25.0625 7.476562 C 25.300781 7.476562 25.449219 7.355469 25.496094 7.109375 C 25.570312 6.753906 25.496094 6.425781 25.320312 6.117188 C 25.28125 6.050781 25.199219 6.007812 25.136719 5.949219 C 25.117188 5.929688 25.070312 5.929688 25.042969 5.941406 C 24.757812 6.082031 24.542969 6.457031 24.5625 6.78125 C 24.570312 6.953125 24.601562 7.121094 24.601562 7.289062 C 24.609375 7.417969 24.554688 7.523438 24.433594 7.570312 C 24.324219 7.617188 24.167969 7.578125 24.082031 7.476562 C 24.046875 7.4375 24.019531 7.382812 24 7.335938 C 23.925781 7.195312 23.851562 7.054688 23.789062 6.90625 C 23.742188 6.800781 23.675781 6.726562 23.558594 6.699219 C 23.382812 6.652344 23.253906 6.53125 23.1875 6.351562 C 23.160156 6.269531 23.132812 6.183594 23.113281 6.097656 C 23.078125 5.929688 23.050781 5.902344 22.875 5.875 C 22.660156 5.835938 22.449219 5.894531 22.246094 5.949219 C 21.851562 6.0625 21.460938 6.210938 21.027344 6.183594 C 21.074219 6.410156 21.121094 6.625 21.148438 6.839844 C 21.175781 7.109375 21.285156 7.316406 21.546875 7.429688 C 21.675781 7.484375 21.757812 7.597656 21.765625 7.738281 C 21.785156 8.007812 21.804688 8.28125 21.8125 8.550781 C 21.8125 8.625 21.832031 8.664062 21.90625 8.664062 C 21.996094 8.664062 22.089844 8.65625 22.171875 8.65625 C 22.238281 8.65625 22.355469 8.636719 22.328125 8.730469 C 22.292969 8.878906 22.375 8.972656 22.414062 9.078125 C 22.429688 9.125 22.488281 9.167969 22.53125 9.167969 C 22.644531 9.179688 22.691406 9.234375 22.699219 9.339844 C 22.707031 9.375 22.71875 9.421875 22.746094 9.433594 C 22.921875 9.515625 22.992188 9.683594 23.058594 9.851562 C 23.140625 10.058594 23.269531 10.132812 23.484375 10.070312 C 23.574219 10.039062 23.675781 10.003906 23.75 9.945312 C 23.90625 9.824219 24.054688 9.695312 24.195312 9.554688 C 24.40625 9.339844 24.601562 9.105469 24.792969 8.878906 C 24.867188 8.796875 24.933594 8.703125 24.996094 8.617188 C 25.035156 8.5625 25.070312 8.496094 25.109375 8.429688 C 25.117188 8.429688 25.136719 8.429688 25.144531 8.441406 C 25.164062 8.515625 25.179688 8.582031 25.191406 8.65625 C 25.199219 8.832031 25.070312 8.925781 24.960938 9.039062 C 24.804688 9.214844 24.644531 9.402344 24.488281 9.582031 C 24.5 9.589844 24.5 9.609375 24.507812 9.621094 C 24.746094 9.648438 24.988281 9.675781 25.21875 9.703125 C 25.375 9.722656 25.496094 9.664062 25.597656 9.535156 C 25.902344 9.152344 26.121094 8.730469 26.242188 8.253906 C 26.335938 7.878906 26.296875 7.511719 26.085938 7.183594 C 26.066406 7.15625 26.019531 7.128906 25.984375 7.121094 C 25.890625 7.101562 25.800781 7.101562 25.699219 7.082031 C 25.605469 7.363281 25.53125 7.671875 25.179688 7.738281 C 25.21875 7.867188 25.21875 7.960938 25.226562 8.066406 Z M 32.796875 9.253906 C 32.390625 9.066406 32.128906 8.730469 31.855469 8.410156 C 31.566406 8.085938 31.246094 7.792969 30.941406 7.484375 C 30.839844 7.382812 30.71875 7.335938 30.5625 7.324219 C 30.3125 7.324219 30.054688 7.296875 29.824219 7.410156 C 29.480469 7.589844 29.132812 7.578125 28.761719 7.542969 C 28.585938 7.523438 28.402344 7.511719 28.207031 7.503906 C 28.226562 7.542969 28.226562 7.550781 28.234375 7.558594 C 28.253906 7.589844 28.273438 7.617188 28.300781 7.632812 C 28.539062 7.878906 28.578125 8.148438 28.421875 8.46875 C 28.335938 8.644531 28.273438 8.84375 28.191406 9.046875 C 28.382812 9.03125 28.558594 9.011719 28.726562 8.992188 C 28.9375 8.964844 29.09375 9.046875 29.214844 9.226562 C 29.425781 9.542969 29.582031 9.898438 29.667969 10.273438 C 29.8125 10.957031 29.886719 11.652344 29.871094 12.351562 C 29.859375 12.605469 29.871094 12.859375 29.871094 13.121094 C 30.109375 13.101562 30.332031 13.082031 30.550781 13.054688 C 30.617188 13.046875 30.699219 13.015625 30.746094 12.96875 C 31.117188 12.578125 31.402344 12.128906 31.660156 11.652344 C 31.679688 11.621094 31.679688 11.566406 31.667969 11.527344 C 31.59375 11.203125 31.53125 10.863281 31.429688 10.535156 C 31.144531 9.636719 30.949219 8.71875 30.753906 7.804688 C 30.746094 7.765625 30.773438 7.71875 30.785156 7.679688 C 30.820312 7.710938 30.867188 7.71875 30.886719 7.757812 C 30.949219 7.898438 31.003906 8.039062 31.050781 8.175781 C 31.335938 9.09375 31.625 10.011719 31.898438 10.9375 C 31.917969 10.984375 31.929688 11.03125 31.957031 11.109375 C 32.25 10.460938 32.601562 9.898438 32.796875 9.253906 Z M 26.078125 6.886719 C 26.09375 6.875 26.105469 6.867188 26.121094 6.859375 C 26.09375 6.707031 26.066406 6.550781 26.039062 6.398438 C 25.992188 6.183594 25.917969 5.976562 25.902344 5.761719 C 25.863281 5.351562 25.863281 4.929688 25.847656 4.515625 C 25.828125 4.199219 25.78125 3.917969 25.496094 3.695312 C 25.191406 3.449219 24.859375 3.386719 24.5 3.421875 C 24.351562 3.441406 24.269531 3.402344 24.183594 3.273438 C 24.167969 3.253906 24.148438 3.226562 24.121094 3.214844 C 24.019531 3.179688 23.917969 3.121094 23.816406 3.113281 C 23.28125 3.074219 22.761719 3.140625 22.300781 3.460938 C 21.90625 3.730469 21.554688 4.058594 21.230469 4.425781 C 21.046875 4.628906 20.84375 4.816406 20.566406 4.890625 C 20.53125 4.902344 20.492188 4.949219 20.464844 4.996094 C 20.382812 5.136719 20.4375 5.277344 20.457031 5.425781 C 20.519531 5.835938 20.761719 5.976562 21.128906 5.941406 C 21.460938 5.902344 21.792969 5.800781 22.125 5.726562 C 22.386719 5.660156 22.644531 5.585938 22.921875 5.640625 C 23.1875 5.6875 23.28125 5.78125 23.328125 6.050781 C 23.355469 6.25 23.417969 6.4375 23.640625 6.503906 C 23.796875 6.550781 23.90625 6.652344 23.980469 6.792969 C 24.074219 6.960938 24.15625 7.136719 24.257812 7.308594 C 24.277344 7.335938 24.3125 7.355469 24.351562 7.382812 C 24.371094 7.355469 24.398438 7.316406 24.414062 7.277344 C 24.425781 7.242188 24.425781 7.203125 24.425781 7.167969 C 24.414062 7.027344 24.398438 6.886719 24.386719 6.734375 C 24.359375 6.269531 24.542969 5.960938 24.941406 5.789062 C 25.164062 5.695312 25.367188 5.753906 25.523438 5.960938 C 25.660156 6.15625 25.734375 6.378906 25.761719 6.613281 C 25.773438 6.660156 25.773438 6.726562 25.800781 6.746094 C 25.875 6.792969 25.976562 6.839844 26.078125 6.886719 Z M 19.402344 9.347656 C 19.210938 10.03125 18.980469 10.378906 18.738281 10.347656 C 18.832031 10.179688 18.933594 10.011719 19.015625 9.835938 C 19.171875 9.507812 19.285156 9.160156 19.257812 8.785156 C 19.238281 8.570312 19.199219 8.355469 19.171875 8.148438 C 19.082031 8.175781 18.96875 8.222656 18.851562 8.253906 C 18.445312 8.335938 18.09375 8.535156 17.75 8.777344 C 17.4375 9 17.253906 9.308594 17.160156 9.683594 C 17.125 9.816406 17.105469 9.957031 17.070312 10.105469 C 17.132812 10.105469 17.179688 10.105469 17.214844 10.105469 C 17.410156 10.132812 17.621094 10.085938 17.796875 10.207031 C 17.917969 10.292969 18.027344 10.378906 18.128906 10.472656 C 18.445312 10.789062 18.648438 11.183594 18.859375 11.566406 C 19.164062 12.117188 19.496094 12.660156 19.921875 13.140625 C 19.949219 13.167969 19.976562 13.203125 20.023438 13.25 C 19.96875 12.753906 19.792969 12.332031 19.605469 11.902344 C 19.679688 11.914062 19.746094 11.929688 19.792969 11.96875 C 20.011719 12.148438 20.132812 12.390625 20.234375 12.652344 C 20.300781 12.8125 20.34375 12.96875 20.402344 13.140625 C 20.558594 13.035156 20.6875 12.914062 20.769531 12.753906 C 20.964844 12.371094 21.066406 11.96875 21.066406 11.539062 C 21.066406 11.5 21.054688 11.453125 21.027344 11.425781 C 20.890625 11.285156 20.75 11.15625 20.613281 11.023438 C 20.613281 11.023438 20.59375 11.042969 20.574219 11.0625 C 20.429688 11.3125 20.289062 11.558594 20.140625 11.808594 C 20.105469 11.867188 20.070312 11.921875 20.011719 11.996094 C 19.976562 11.902344 19.949219 11.847656 19.9375 11.789062 C 19.875 11.5 19.9375 11.230469 20.105469 10.984375 C 20.199219 10.855469 20.316406 10.734375 20.417969 10.613281 C 20.613281 10.386719 20.734375 10.132812 20.761719 9.824219 C 20.769531 9.730469 20.796875 9.636719 20.816406 9.535156 C 20.824219 9.535156 20.84375 9.535156 20.851562 9.535156 C 20.9375 9.75 20.9375 9.976562 20.945312 10.191406 C 21.140625 10.207031 21.3125 10.21875 21.488281 10.238281 C 21.5 10.226562 21.507812 10.207031 21.515625 10.199219 C 21.296875 9.964844 21.269531 9.664062 21.195312 9.375 C 21.167969 9.253906 21.140625 9.132812 21.101562 9.011719 C 20.992188 8.625 20.761719 8.308594 20.519531 8 C 20.484375 7.953125 20.417969 7.886719 20.429688 7.839844 C 20.457031 7.664062 20.308594 7.597656 20.226562 7.503906 C 20.199219 7.464844 20.113281 7.457031 20.070312 7.464844 C 19.808594 7.503906 19.5625 7.773438 19.523438 8.039062 C 19.496094 8.242188 19.542969 8.429688 19.617188 8.617188 C 19.921875 9.414062 19.792969 10.152344 19.285156 10.835938 C 19.238281 10.902344 19.164062 10.9375 19.097656 10.996094 C 19.089844 10.984375 19.082031 10.976562 19.070312 10.96875 C 19.339844 10.480469 19.5625 9.964844 19.402344 9.347656 Z M 33.636719 12.519531 C 33.726562 12.539062 33.800781 12.558594 33.882812 12.566406 C 34.484375 12.632812 35.085938 12.585938 35.683594 12.53125 C 35.980469 12.503906 36.21875 12.351562 36.328125 12.054688 C 36.347656 12.007812 36.367188 11.96875 36.394531 11.929688 C 36.578125 11.585938 36.625 11.210938 36.578125 10.828125 C 36.5625 10.660156 36.523438 10.488281 36.496094 10.3125 C 36.402344 9.824219 36.320312 9.339844 36.21875 8.851562 C 36.191406 8.730469 36.183594 8.597656 36.109375 8.515625 C 35.933594 8.316406 35.691406 8.207031 35.425781 8.074219 C 35.488281 8.347656 35.535156 8.589844 35.589844 8.832031 C 35.664062 8.777344 35.730469 8.738281 35.792969 8.703125 C 35.878906 8.65625 35.933594 8.691406 35.925781 8.777344 C 35.90625 8.878906 35.867188 8.984375 35.8125 9.058594 C 35.65625 9.234375 35.445312 9.328125 35.222656 9.386719 C 34.992188 9.441406 34.769531 9.394531 34.566406 9.320312 C 34.253906 10.386719 33.949219 11.445312 33.636719 12.519531 Z M 26.546875 19.953125 C 26.539062 19.945312 26.527344 19.933594 26.519531 19.925781 C 26.464844 19.953125 26.417969 19.980469 26.363281 20 C 26.261719 20.046875 26.160156 20.085938 26.066406 20.121094 C 25.949219 20.167969 25.828125 20.1875 25.714844 20.242188 C 25.457031 20.382812 25.199219 20.542969 24.941406 20.703125 C 24.683594 20.871094 24.414062 21.019531 24.109375 21.085938 C 23.917969 21.125 23.824219 21.28125 23.722656 21.441406 C 23.660156 21.554688 23.59375 21.675781 23.539062 21.789062 C 23.519531 21.824219 23.492188 21.863281 23.5 21.902344 C 23.632812 22.273438 23.769531 22.648438 23.90625 23.015625 C 24.066406 22.976562 24.195312 22.910156 24.339844 22.902344 C 24.730469 22.875 25.109375 22.921875 25.46875 23.070312 C 26.039062 23.304688 26.648438 23.324219 27.238281 23.445312 C 27.304688 23.464844 27.386719 23.425781 27.453125 23.417969 C 27.453125 23.398438 27.460938 23.378906 27.460938 23.371094 C 27.394531 23.324219 27.351562 23.257812 27.277344 23.230469 C 27.0625 23.136719 26.859375 23.042969 26.613281 23.117188 C 26.484375 23.15625 26.316406 23.109375 26.179688 23.070312 C 26.121094 23.050781 26.039062 22.957031 26.039062 22.902344 C 26.039062 22.808594 26.140625 22.78125 26.222656 22.78125 C 26.261719 22.78125 26.308594 22.78125 26.34375 22.789062 C 26.546875 22.847656 26.742188 22.816406 26.933594 22.753906 C 27.277344 22.640625 27.617188 22.546875 27.960938 22.433594 C 28.015625 22.414062 28.070312 22.378906 28.164062 22.332031 C 28.078125 22.304688 28.03125 22.273438 27.988281 22.265625 C 27.65625 22.246094 27.332031 22.304688 27.027344 22.425781 C 26.796875 22.519531 26.574219 22.554688 26.335938 22.527344 C 26.28125 22.519531 26.195312 22.460938 26.179688 22.414062 C 26.152344 22.332031 26.214844 22.265625 26.296875 22.238281 C 26.363281 22.210938 26.4375 22.179688 26.5 22.191406 C 26.84375 22.21875 27.109375 22.050781 27.394531 21.890625 C 27.628906 21.761719 27.867188 21.667969 28.097656 21.554688 C 28.179688 21.515625 28.292969 21.488281 28.347656 21.421875 C 28.402344 21.367188 28.410156 21.253906 28.410156 21.171875 C 28.410156 21.152344 28.28125 21.105469 28.226562 21.113281 C 27.914062 21.179688 27.597656 21.265625 27.285156 21.359375 C 27.175781 21.394531 27.074219 21.480469 26.972656 21.554688 C 26.878906 21.621094 26.796875 21.695312 26.703125 21.75 C 26.574219 21.835938 26.4375 21.910156 26.308594 21.984375 C 26.25 22.023438 26.195312 22.070312 26.132812 22.078125 C 26.066406 22.085938 26.003906 22.050781 25.929688 22.03125 C 25.949219 21.964844 25.949219 21.871094 25.984375 21.835938 C 26.058594 21.769531 26.160156 21.730469 26.25 21.683594 C 26.390625 21.609375 26.566406 21.554688 26.667969 21.441406 C 26.933594 21.140625 27.230469 20.890625 27.542969 20.664062 C 27.597656 20.628906 27.644531 20.5625 27.691406 20.507812 C 27.683594 20.488281 27.683594 20.476562 27.671875 20.460938 C 27.597656 20.460938 27.527344 20.449219 27.460938 20.460938 C 27.164062 20.488281 26.925781 20.617188 26.695312 20.796875 C 26.160156 21.207031 25.570312 21.414062 24.894531 21.339844 C 24.847656 21.328125 24.8125 21.300781 24.765625 21.28125 C 24.804688 21.234375 24.832031 21.171875 24.867188 21.160156 C 25.015625 21.105469 25.179688 21.066406 25.328125 21.019531 C 25.367188 21.011719 25.410156 20.992188 25.441406 20.972656 C 25.542969 20.898438 25.632812 20.824219 25.734375 20.738281 C 25.949219 20.550781 26.160156 20.367188 26.371094 20.167969 C 26.453125 20.121094 26.492188 20.027344 26.546875 19.953125 Z M 26.703125 7.34375 C 26.695312 7.355469 26.695312 7.363281 26.6875 7.371094 C 26.742188 7.457031 26.789062 7.53125 26.84375 7.617188 C 27.148438 8.113281 27.425781 8.625 27.609375 9.1875 C 27.847656 9.9375 28.117188 10.6875 28.347656 11.433594 C 28.53125 12.042969 28.6875 12.671875 28.863281 13.296875 C 28.972656 13.277344 29.113281 13.25 29.242188 13.234375 C 29.582031 13.175781 29.582031 13.175781 29.59375 12.828125 C 29.609375 12.101562 29.554688 11.371094 29.464844 10.640625 C 29.410156 10.199219 29.289062 9.777344 29.046875 9.394531 C 28.972656 9.28125 28.890625 9.246094 28.769531 9.261719 C 28.605469 9.292969 28.429688 9.300781 28.265625 9.308594 C 27.988281 9.328125 27.875 9.152344 28.003906 8.90625 C 28.050781 8.8125 28.105469 8.738281 28.164062 8.644531 C 28.234375 8.503906 28.308594 8.363281 28.375 8.214844 C 28.394531 8.167969 28.394531 8.085938 28.367188 8.046875 C 28.265625 7.898438 28.144531 7.765625 28.023438 7.625 C 27.996094 7.597656 27.949219 7.570312 27.914062 7.570312 C 27.710938 7.53125 27.515625 7.511719 27.3125 7.476562 C 27.089844 7.429688 26.898438 7.382812 26.703125 7.34375 Z M 27.203125 8.972656 C 27.191406 9.339844 27.183594 9.683594 27.164062 10.03125 C 27.15625 10.152344 27.148438 10.285156 27.121094 10.40625 C 27.074219 10.628906 26.898438 10.734375 26.675781 10.667969 C 26.574219 10.640625 26.464844 10.59375 26.363281 10.566406 C 26.34375 10.714844 26.335938 10.855469 26.289062 10.996094 C 26.25 11.109375 26.261719 11.203125 26.316406 11.304688 C 26.601562 11.902344 26.878906 12.511719 27.164062 13.121094 C 27.203125 13.203125 27.25 13.296875 27.292969 13.382812 C 27.3125 13.410156 27.351562 13.4375 27.378906 13.449219 C 27.746094 13.476562 28.117188 13.4375 28.496094 13.382812 C 28.375 11.800781 27.699219 10.414062 27.203125 8.972656 Z M 23.058594 11.171875 C 23.207031 11.203125 23.363281 11.21875 23.492188 11.277344 C 23.742188 11.378906 23.777344 11.519531 23.648438 11.761719 C 23.558594 11.929688 23.445312 12.082031 23.363281 12.25 C 23.335938 12.304688 23.328125 12.398438 23.363281 12.445312 C 23.621094 12.859375 23.890625 13.261719 24.148438 13.671875 C 24.183594 13.738281 24.238281 13.746094 24.304688 13.71875 C 24.554688 13.636719 24.804688 13.550781 25.050781 13.476562 C 25.070312 13.464844 25.089844 13.449219 25.117188 13.4375 C 24.738281 12.34375 24.269531 11.285156 23.980469 10.179688 C 23.816406 10.238281 23.660156 10.285156 23.5 10.339844 C 23.472656 10.347656 23.457031 10.394531 23.4375 10.425781 C 23.398438 10.546875 23.382812 10.675781 23.316406 10.789062 C 23.261719 10.921875 23.152344 11.042969 23.058594 11.171875 Z M 24.570312 11.015625 C 24.683594 10.828125 24.773438 10.660156 24.886719 10.488281 C 25.171875 10.070312 25.789062 9.945312 26.207031 10.171875 C 26.371094 10.253906 26.539062 10.339844 26.714844 10.414062 C 26.851562 10.472656 26.917969 10.441406 26.933594 10.285156 C 26.953125 10.105469 26.972656 9.929688 26.960938 9.757812 C 26.933594 9.308594 26.917969 8.851562 26.859375 8.402344 C 26.84375 8.234375 26.730469 8.085938 26.65625 7.925781 C 26.648438 7.933594 26.640625 7.933594 26.628906 7.945312 C 26.628906 8.335938 26.5 8.703125 26.335938 9.039062 C 26.214844 9.292969 26.050781 9.515625 25.882812 9.75 C 25.78125 9.898438 25.625 9.976562 25.449219 9.992188 C 25.097656 10.03125 24.746094 9.984375 24.425781 9.863281 C 24.3125 9.816406 24.285156 9.890625 24.230469 9.9375 C 24.167969 9.984375 24.195312 10.03125 24.222656 10.085938 C 24.296875 10.273438 24.378906 10.460938 24.453125 10.648438 C 24.480469 10.761719 24.515625 10.882812 24.570312 11.015625 Z M 27.007812 13.410156 C 26.980469 13.34375 26.972656 13.308594 26.953125 13.269531 C 26.777344 12.90625 26.601562 12.539062 26.425781 12.164062 C 26.296875 11.894531 26.167969 11.613281 26.058594 11.339844 C 26.019531 11.265625 26.003906 11.164062 26.019531 11.089844 C 26.058594 10.863281 26.121094 10.648438 26.167969 10.425781 C 25.992188 10.3125 25.800781 10.207031 25.570312 10.3125 C 25.523438 10.332031 25.46875 10.347656 25.410156 10.347656 C 25.21875 10.359375 25.136719 10.480469 25.078125 10.648438 C 25.109375 10.660156 25.136719 10.667969 25.164062 10.6875 C 25.410156 10.796875 25.613281 10.957031 25.671875 11.246094 C 25.746094 11.621094 25.816406 11.996094 25.875 12.371094 C 25.917969 12.660156 25.929688 12.953125 25.949219 13.214844 C 26.140625 13.289062 26.296875 13.355469 26.464844 13.410156 C 26.484375 13.417969 26.511719 13.429688 26.539062 13.429688 C 26.6875 13.410156 26.832031 13.410156 27.007812 13.410156 Z M 34.972656 7.308594 C 35.054688 7.785156 35.039062 7.980469 34.789062 8.308594 C 34.59375 8.550781 34.660156 8.832031 34.578125 9.105469 C 34.835938 9.140625 35.066406 9.152344 35.289062 9.039062 C 35.351562 9 35.371094 8.964844 35.359375 8.898438 C 35.332031 8.71875 35.324219 8.550781 35.296875 8.375 C 35.269531 8.121094 35.1875 7.859375 35.390625 7.625 C 35.398438 7.617188 35.398438 7.597656 35.398438 7.589844 C 35.453125 7.34375 35.507812 7.101562 35.554688 6.847656 C 35.574219 6.773438 35.5625 6.699219 35.554688 6.625 C 35.546875 6.566406 35.519531 6.519531 35.433594 6.53125 C 35.230469 6.558594 35.027344 6.578125 34.824219 6.585938 C 34.640625 6.59375 34.492188 6.671875 34.363281 6.800781 C 34.261719 6.90625 34.160156 7.007812 34.058594 7.121094 C 34.03125 7.148438 34.023438 7.183594 34.003906 7.222656 C 34.050781 7.242188 34.097656 7.261719 34.132812 7.261719 C 34.171875 7.261719 34.207031 7.230469 34.253906 7.214844 C 34.382812 7.167969 34.511719 7.101562 34.640625 7.082031 C 34.808594 7.054688 34.984375 7.0625 35.148438 7.074219 C 35.1875 7.074219 35.222656 7.148438 35.257812 7.183594 C 35.222656 7.222656 35.195312 7.269531 35.148438 7.289062 C 35.101562 7.316406 35.046875 7.308594 34.972656 7.308594 Z M 25.382812 13.34375 C 25.699219 13.316406 25.707031 13.308594 25.6875 13.035156 C 25.6875 13.015625 25.6875 13 25.6875 12.988281 C 25.652344 12.371094 25.542969 11.753906 25.394531 11.15625 C 25.382812 11.117188 25.355469 11.0625 25.328125 11.042969 C 25.21875 10.976562 25.097656 10.921875 24.988281 10.855469 C 24.90625 10.976562 24.832031 11.109375 24.730469 11.210938 C 24.683594 11.265625 24.671875 11.292969 24.691406 11.359375 C 24.785156 11.640625 24.875 11.921875 24.976562 12.195312 C 25.109375 12.578125 25.246094 12.96875 25.382812 13.34375 Z M 23.878906 13.804688 C 23.796875 13.683594 23.722656 13.578125 23.660156 13.476562 C 23.472656 13.167969 23.296875 12.859375 23.125 12.539062 C 23.039062 12.398438 23.039062 12.242188 23.132812 12.101562 C 23.234375 11.949219 23.335938 11.800781 23.429688 11.652344 C 23.457031 11.613281 23.484375 11.574219 23.53125 11.5 C 23.316406 11.480469 23.140625 11.472656 22.964844 11.453125 C 22.890625 11.445312 22.863281 11.472656 22.828125 11.527344 C 22.679688 11.820312 22.632812 12.128906 22.691406 12.4375 C 22.761719 12.792969 22.863281 13.148438 22.964844 13.496094 C 22.984375 13.570312 23.050781 13.644531 23.105469 13.691406 C 23.335938 13.898438 23.59375 13.878906 23.878906 13.804688 Z M 35.304688 5.882812 C 35.09375 5.949219 34.871094 5.96875 34.695312 6.070312 C 34.429688 6.25 34.1875 6.472656 33.949219 6.6875 C 33.867188 6.765625 33.902344 6.828125 34.003906 6.867188 C 34.085938 6.894531 34.125 6.839844 34.171875 6.800781 C 34.308594 6.6875 34.4375 6.558594 34.59375 6.484375 C 34.816406 6.378906 35.066406 6.332031 35.296875 6.269531 C 35.304688 6.15625 35.304688 6.035156 35.304688 5.882812 Z M 35.140625 5.324219 C 34.734375 5.425781 34.363281 5.480469 34.1875 5.902344 C 34.160156 5.976562 34.105469 6.035156 34.058594 6.097656 C 34.003906 6.175781 33.949219 6.25 33.894531 6.324219 C 33.902344 6.332031 33.910156 6.351562 33.921875 6.363281 C 33.96875 6.34375 34.011719 6.332031 34.050781 6.296875 C 34.28125 6.082031 34.511719 5.867188 34.824219 5.773438 C 34.910156 5.753906 35.019531 5.714844 35.054688 5.648438 C 35.113281 5.585938 35.113281 5.464844 35.140625 5.324219 Z M 34.273438 5.359375 C 34.519531 5.265625 34.78125 5.164062 35.039062 5.070312 C 35.066406 4.910156 34.984375 4.828125 34.816406 4.875 C 34.660156 4.921875 34.511719 4.984375 34.363281 5.050781 C 34.261719 5.097656 34.226562 5.230469 34.273438 5.359375 Z M 33.332031 5.640625 C 33.257812 5.554688 33.191406 5.453125 33.101562 5.378906 C 33.0625 5.351562 32.96875 5.378906 32.914062 5.398438 C 32.898438 5.40625 32.871094 5.472656 32.878906 5.5 C 32.933594 5.613281 33 5.726562 33.054688 5.835938 C 33.171875 5.761719 33.265625 5.695312 33.332031 5.640625 Z M 33.332031 5.640625 "/></g></g></svg>