<svg xmlns="http://www.w3.org/2000/svg" xmlns:xlink="http://www.w3.org/1999/xlink" width="70" zoomAndPan="magnify" viewBox="0 0 52.5 52.499999" height="70" preserveAspectRatio="xMidYMid meet" version="1.2"><defs><clipPath id="8c0cd68e96"><path d="M 2.480469 5.199219 L 49.257812 5.199219 L 49.257812 47.546875 L 2.480469 47.546875 Z M 2.480469 5.199219 "/></clipPath></defs><g id="a2fbba98e2"><g clip-rule="nonzero" clip-path="url(#8c0cd68e96)"><path style=" stroke:none;fill-rule:nonzero;fill:#000000;fill-opacity:1;" d="M 48.671875 31.535156 C 48.574219 31.738281 48.429688 31.882812 48.207031 31.914062 C 47.960938 31.949219 47.710938 31.980469 47.464844 31.976562 C 45.429688 31.964844 43.394531 31.941406 41.359375 31.925781 C 40.203125 31.917969 39.042969 31.925781 37.882812 31.921875 C 37.792969 31.921875 37.699219 31.921875 37.574219 31.921875 C 37.796875 30.984375 37.769531 30.050781 37.820312 29.105469 C 37.941406 29.105469 38.039062 29.105469 38.136719 29.105469 C 40.789062 29.113281 43.441406 29.121094 46.09375 29.132812 C 46.542969 29.132812 46.996094 29.113281 47.441406 29.15625 C 47.714844 29.183594 47.988281 29.300781 48.25 29.402344 C 48.472656 29.488281 48.59375 29.699219 48.679688 29.90625 C 48.910156 30.445312 48.941406 30.992188 48.671875 31.535156 Z M 47.285156 32.671875 C 47.238281 33.15625 47.195312 33.640625 47.136719 34.121094 C 47.046875 34.855469 46.953125 35.585938 46.847656 36.316406 C 46.757812 36.925781 46.414062 37.339844 45.84375 37.5625 C 45.289062 37.773438 44.714844 37.859375 44.128906 37.871094 C 44.097656 37.875 44.066406 37.863281 44.023438 37.859375 C 44.019531 37.605469 44.035156 37.351562 43.855469 37.109375 C 43.652344 37.332031 43.683594 37.609375 43.632812 37.875 C 43.398438 37.875 43.164062 37.894531 42.933594 37.871094 C 42.355469 37.816406 41.777344 37.753906 41.199219 37.679688 C 40.625 37.609375 40.332031 37.238281 40.242188 36.699219 C 40.140625 36.078125 40.046875 35.453125 39.996094 34.828125 C 39.933594 34.109375 39.925781 33.386719 39.894531 32.667969 C 39.890625 32.585938 39.894531 32.503906 39.894531 32.40625 C 40.429688 32.40625 40.945312 32.40625 41.488281 32.40625 C 41.476562 32.507812 41.46875 32.574219 41.457031 32.636719 C 41.402344 32.945312 41.414062 33.257812 41.445312 33.566406 C 41.449219 33.613281 41.464844 33.664062 41.480469 33.710938 C 41.515625 33.796875 41.574219 33.851562 41.671875 33.847656 C 41.769531 33.84375 41.820312 33.777344 41.835938 33.6875 C 41.902344 33.355469 41.914062 33.019531 41.867188 32.6875 C 41.855469 32.605469 41.847656 32.523438 41.832031 32.421875 C 42.496094 32.421875 43.140625 32.421875 43.777344 32.421875 C 43.777344 32.632812 43.773438 32.820312 43.777344 33.011719 C 43.78125 33.296875 43.789062 33.582031 43.792969 33.863281 C 43.796875 33.898438 43.792969 33.941406 43.8125 33.960938 C 43.851562 34.011719 43.902344 34.085938 43.945312 34.085938 C 44.007812 34.082031 44.097656 34.035156 44.121094 33.984375 C 44.164062 33.886719 44.1875 33.773438 44.191406 33.667969 C 44.199219 33.265625 44.191406 32.863281 44.191406 32.425781 C 44.714844 32.394531 45.265625 32.417969 45.847656 32.40625 C 45.839844 32.558594 45.828125 32.691406 45.824219 32.820312 C 45.816406 33.046875 45.808594 33.273438 45.804688 33.5 C 45.804688 33.53125 45.8125 33.566406 45.820312 33.597656 C 45.839844 33.695312 45.875 33.78125 45.988281 33.785156 C 46.105469 33.789062 46.144531 33.703125 46.160156 33.605469 C 46.210938 33.308594 46.261719 33.011719 46.222656 32.707031 C 46.210938 32.625 46.203125 32.542969 46.191406 32.425781 C 46.566406 32.445312 46.921875 32.464844 47.285156 32.484375 C 47.285156 32.558594 47.289062 32.617188 47.285156 32.671875 Z M 37.019531 28.410156 C 36.9375 28.511719 36.855469 28.527344 36.742188 28.527344 C 35.375 28.515625 34.007812 28.503906 32.640625 28.492188 C 29.570312 28.46875 26.5 28.441406 23.429688 28.417969 C 20.59375 28.394531 17.757812 28.367188 14.921875 28.34375 C 14.890625 28.34375 14.855469 28.34375 14.816406 28.34375 C 14.511719 27.878906 14.25 27.875 13.914062 28.320312 C 13.59375 28.320312 13.269531 28.324219 12.945312 28.316406 C 12.886719 28.316406 12.820312 28.277344 12.769531 28.242188 C 12.675781 28.171875 12.585938 28.09375 12.507812 28.007812 C 11.953125 27.359375 11.402344 26.707031 10.84375 26.058594 C 10.746094 25.941406 10.71875 25.828125 10.742188 25.671875 C 10.917969 24.535156 10.273438 23.421875 9.210938 23.011719 C 9.0625 22.953125 8.984375 22.871094 8.925781 22.730469 C 8.304688 21.300781 8.066406 19.804688 8.203125 18.253906 C 8.339844 16.691406 9.035156 15.402344 10.167969 14.347656 C 10.25 14.269531 10.363281 14.214844 10.46875 14.179688 C 11.304688 13.921875 12.136719 13.648438 12.984375 13.425781 C 14.730469 12.972656 16.507812 12.707031 18.300781 12.503906 C 21.199219 12.175781 24.105469 12.050781 27.019531 12.125 C 28.402344 12.160156 29.785156 12.242188 31.164062 12.355469 C 32.390625 12.457031 33.621094 12.597656 34.839844 12.777344 C 37.042969 13.105469 39.207031 13.609375 41.320312 14.34375 C 41.773438 14.5 42.101562 14.753906 42.386719 15.117188 C 43.28125 16.269531 43.671875 17.582031 43.667969 19.035156 C 43.664062 20.304688 43.417969 21.519531 42.929688 22.683594 C 42.863281 22.84375 42.773438 22.9375 42.605469 23 C 41.539062 23.382812 40.878906 24.535156 41.074219 25.671875 C 41.101562 25.824219 41.082031 25.941406 40.984375 26.066406 C 40.433594 26.765625 39.855469 27.4375 39.210938 28.046875 C 39.074219 28.171875 38.949219 28.308594 38.828125 28.445312 C 38.761719 28.523438 38.6875 28.550781 38.585938 28.546875 C 38.371094 28.539062 38.152344 28.539062 37.9375 28.542969 C 37.828125 28.542969 37.757812 28.507812 37.683594 28.417969 C 37.484375 28.183594 37.207031 28.175781 37.019531 28.410156 Z M 36.820312 31.910156 C 36.75 31.914062 36.675781 31.921875 36.601562 31.921875 C 35.050781 31.917969 33.5 31.910156 31.949219 31.90625 C 31.8125 31.90625 31.722656 31.867188 31.640625 31.746094 C 31.007812 30.835938 30.199219 30.097656 29.273438 29.5 C 29.007812 29.328125 28.71875 29.199219 28.441406 29.046875 C 28.441406 29.039062 28.441406 29.027344 28.445312 29.019531 C 31.257812 29.046875 34.074219 29.078125 36.917969 29.105469 C 36.925781 30.042969 36.945312 30.96875 36.820312 31.910156 Z M 29.433594 31.882812 C 29.308594 30.789062 28.78125 29.9375 27.917969 29.285156 C 27.929688 29.269531 27.9375 29.253906 27.949219 29.242188 C 28.0625 29.285156 28.179688 29.320312 28.289062 29.371094 C 28.703125 29.558594 29.078125 29.808594 29.429688 30.089844 C 30.003906 30.554688 30.527344 31.066406 30.980469 31.652344 C 31.03125 31.71875 31.078125 31.785156 31.148438 31.882812 C 30.546875 31.882812 30.003906 31.882812 29.433594 31.882812 Z M 27.628906 31.875 C 27.667969 30.960938 27.6875 30.058594 27.234375 29.226562 C 28.078125 29.476562 29.039062 30.863281 29.066406 31.875 C 28.582031 31.875 28.117188 31.875 27.628906 31.875 Z M 27.207031 31.863281 C 26.621094 31.863281 26.039062 31.863281 25.417969 31.863281 C 25.464844 31.769531 25.5 31.691406 25.542969 31.617188 C 25.820312 31.105469 26.042969 30.574219 26.136719 29.996094 C 26.183594 29.710938 26.214844 29.417969 26.253906 29.105469 C 26.296875 29.105469 26.363281 29.109375 26.421875 29.097656 C 26.730469 29.03125 26.878906 29.207031 26.992188 29.457031 C 27.132812 29.777344 27.210938 30.105469 27.238281 30.453125 C 27.277344 30.921875 27.292969 31.386719 27.207031 31.863281 Z M 24.902344 31.859375 C 24.429688 31.859375 23.976562 31.859375 23.515625 31.859375 C 23.984375 31.050781 25.449219 29.089844 25.878906 29.007812 C 25.992188 29.472656 25.441406 31.078125 24.902344 31.859375 Z M 23.011719 31.699219 C 22.917969 31.832031 22.816406 31.875 22.65625 31.875 C 20.796875 31.863281 18.9375 31.859375 17.078125 31.851562 C 16.410156 31.851562 15.746094 31.847656 15.078125 31.84375 C 14.996094 31.84375 14.914062 31.835938 14.835938 31.832031 C 14.835938 30.84375 14.835938 29.886719 14.835938 28.9375 C 15.066406 28.882812 24.636719 28.949219 25.246094 29.007812 C 25.230469 29.039062 25.222656 29.070312 25.203125 29.089844 C 24.679688 29.539062 24.242188 30.066406 23.824219 30.613281 C 23.546875 30.972656 23.273438 31.332031 23.011719 31.699219 Z M 13.570312 31.839844 C 10.472656 31.835938 7.378906 31.828125 4.285156 31.824219 C 4.136719 31.824219 3.980469 31.835938 3.839844 31.792969 C 3.359375 31.65625 3.15625 31.277344 3.101562 30.816406 C 3.039062 30.304688 3.140625 29.816406 3.359375 29.347656 C 3.421875 29.21875 3.511719 29.132812 3.636719 29.074219 C 4.074219 28.859375 4.535156 28.773438 5.019531 28.78125 C 6.609375 28.804688 8.203125 28.824219 9.796875 28.84375 C 11.03125 28.859375 12.265625 28.871094 13.5 28.886719 C 13.589844 28.886719 13.679688 28.886719 13.785156 28.886719 C 13.6875 29.894531 13.789062 30.84375 13.839844 31.828125 C 13.746094 31.832031 13.65625 31.839844 13.570312 31.839844 Z M 11.742188 36.523438 C 11.703125 36.738281 11.628906 36.945312 11.546875 37.144531 C 11.457031 37.355469 11.292969 37.503906 11.070312 37.5625 C 10.789062 37.636719 10.503906 37.710938 10.21875 37.738281 C 9.65625 37.796875 9.089844 37.828125 8.523438 37.867188 C 8.457031 37.871094 8.394531 37.859375 8.308594 37.855469 C 8.289062 37.578125 8.300781 37.324219 8.117188 37.097656 C 7.898438 37.308594 7.953125 37.578125 7.929688 37.847656 C 7.730469 37.839844 7.539062 37.839844 7.351562 37.820312 C 6.910156 37.777344 6.480469 37.6875 6.066406 37.515625 C 5.558594 37.304688 5.226562 36.9375 5.132812 36.390625 C 5.023438 35.726562 4.933594 35.0625 4.851562 34.398438 C 4.769531 33.75 4.714844 33.097656 4.644531 32.445312 C 4.644531 32.414062 4.644531 32.382812 4.644531 32.339844 C 5.019531 32.339844 5.382812 32.339844 5.730469 32.339844 C 5.730469 32.554688 5.722656 32.753906 5.734375 32.953125 C 5.742188 33.152344 5.769531 33.355469 5.789062 33.554688 C 5.800781 33.660156 5.839844 33.753906 5.96875 33.757812 C 6.070312 33.761719 6.140625 33.683594 6.140625 33.523438 C 6.140625 33.207031 6.125 32.886719 6.113281 32.570312 C 6.113281 32.503906 6.101562 32.4375 6.089844 32.332031 C 6.664062 32.324219 7.222656 32.328125 7.796875 32.332031 C 7.777344 32.648438 7.753906 32.941406 7.75 33.230469 C 7.75 33.429688 7.773438 33.632812 7.792969 33.832031 C 7.796875 33.878906 7.8125 33.9375 7.84375 33.972656 C 7.882812 34.015625 7.957031 34.078125 8 34.066406 C 8.058594 34.050781 8.136719 33.980469 8.140625 33.925781 C 8.171875 33.660156 8.191406 33.390625 8.191406 33.125 C 8.191406 32.871094 8.164062 32.621094 8.144531 32.371094 C 8.316406 32.320312 9.742188 32.304688 10.125 32.355469 C 10.113281 32.46875 10.109375 32.582031 10.085938 32.695312 C 10.027344 32.980469 10.066406 33.261719 10.097656 33.546875 C 10.117188 33.734375 10.183594 33.824219 10.292969 33.828125 C 10.398438 33.832031 10.488281 33.742188 10.5 33.5625 C 10.519531 33.28125 10.511719 32.996094 10.507812 32.710938 C 10.507812 32.597656 10.480469 32.480469 10.464844 32.347656 C 10.988281 32.347656 11.5 32.347656 12.03125 32.347656 C 12.039062 32.398438 12.054688 32.445312 12.054688 32.492188 C 12.0625 33.84375 11.996094 35.191406 11.742188 36.523438 Z M 8.394531 23.152344 C 9.542969 23.179688 10.429688 24.109375 10.40625 25.253906 C 10.414062 26.328125 9.507812 27.386719 8.238281 27.339844 C 7.113281 27.296875 6.214844 26.34375 6.242188 25.179688 C 6.269531 24.039062 7.238281 23.125 8.394531 23.152344 Z M 3.804688 24.050781 C 3.933594 23.398438 4.089844 22.753906 4.335938 22.136719 C 4.691406 21.234375 5.214844 20.464844 6.035156 19.921875 C 6.433594 19.660156 6.855469 19.472656 7.34375 19.472656 C 7.398438 19.472656 7.457031 19.472656 7.546875 19.472656 C 7.601562 20.628906 7.820312 21.742188 8.261719 22.824219 C 6.773438 22.980469 6.074219 24.019531 5.957031 25.011719 C 5.839844 25.976562 6.328125 26.988281 7.308594 27.472656 C 8.117188 27.875 9.425781 27.902344 10.417969 26.613281 C 10.894531 27.160156 11.371094 27.707031 11.84375 28.246094 C 11.835938 28.269531 11.832031 28.277344 11.828125 28.285156 C 11.824219 28.289062 11.816406 28.296875 11.808594 28.296875 C 9.132812 28.289062 6.457031 28.285156 3.777344 28.277344 C 3.738281 28.277344 3.699219 28.261719 3.632812 28.25 C 3.601562 27.953125 3.558594 27.652344 3.535156 27.351562 C 3.449219 26.238281 3.585938 25.140625 3.804688 24.050781 Z M 12.984375 12.773438 C 14.191406 12.378906 15.425781 12.085938 16.683594 11.90625 C 18.050781 11.710938 19.425781 11.535156 20.800781 11.371094 C 21.453125 11.292969 22.113281 11.25 22.769531 11.210938 C 23.71875 11.160156 24.667969 11.101562 25.617188 11.085938 C 26.835938 11.0625 28.054688 11.113281 29.265625 11.234375 C 29.964844 11.300781 30.664062 11.328125 31.359375 11.40625 C 32.578125 11.550781 33.792969 11.707031 35.007812 11.878906 C 36.082031 12.027344 37.140625 12.273438 38.183594 12.566406 C 39.109375 12.828125 40.011719 13.15625 40.824219 13.6875 C 40.890625 13.734375 40.957031 13.78125 41.007812 13.863281 C 40.863281 13.8125 40.714844 13.765625 40.566406 13.71875 C 38.835938 13.140625 37.0625 12.746094 35.265625 12.46875 C 33.988281 12.273438 32.707031 12.097656 31.421875 11.972656 C 28.878906 11.71875 26.328125 11.632812 23.773438 11.703125 C 22.5625 11.738281 21.351562 11.78125 20.148438 11.871094 C 18.03125 12.027344 15.933594 12.308594 13.863281 12.769531 C 13.234375 12.90625 12.617188 13.078125 11.992188 13.234375 C 11.941406 13.246094 11.890625 13.253906 11.835938 13.265625 C 11.832031 13.25 11.828125 13.230469 11.820312 13.214844 C 12.207031 13.066406 12.589844 12.902344 12.984375 12.773438 Z M 37.828125 11.808594 C 37.507812 11.738281 37.203125 11.664062 36.898438 11.59375 C 35.796875 11.347656 34.6875 11.175781 33.566406 11.042969 C 32.816406 10.957031 32.0625 10.855469 31.308594 10.792969 C 30.335938 10.710938 29.359375 10.664062 28.386719 10.597656 C 27.8125 10.5625 27.238281 10.53125 26.664062 10.484375 C 25.878906 10.417969 25.097656 10.453125 24.316406 10.511719 C 23.183594 10.589844 22.050781 10.660156 20.921875 10.753906 C 20.117188 10.824219 19.3125 10.90625 18.511719 11.011719 C 17.542969 11.144531 16.578125 11.277344 15.621094 11.460938 C 14.808594 11.613281 14.015625 11.839844 13.214844 12.039062 C 13.117188 12.0625 13.023438 12.089844 12.894531 12.125 C 13.101562 10.695312 13.382812 9.308594 13.742188 7.9375 C 14.332031 7.847656 14.910156 7.757812 15.488281 7.675781 C 16.328125 7.5625 17.171875 7.441406 18.015625 7.351562 C 18.9375 7.257812 19.859375 7.179688 20.78125 7.125 C 22.171875 7.042969 23.5625 6.980469 24.957031 6.929688 C 26.390625 6.878906 27.824219 6.882812 29.257812 6.957031 C 30.84375 7.039062 32.410156 7.257812 33.960938 7.589844 C 35.050781 7.828125 36.144531 8.058594 37.238281 8.292969 C 37.308594 8.308594 37.382812 8.328125 37.484375 8.355469 C 37.609375 9.507812 37.820312 10.636719 37.828125 11.808594 Z M 13.070312 7.242188 C 13.878906 7.019531 14.691406 6.777344 15.515625 6.574219 C 16.691406 6.28125 17.886719 6.09375 19.085938 5.949219 C 20.496094 5.777344 21.90625 5.679688 23.324219 5.632812 C 24.785156 5.582031 26.246094 5.597656 27.703125 5.667969 C 29.695312 5.757812 31.679688 5.957031 33.648438 6.265625 C 35.191406 6.507812 36.714844 6.824219 38.222656 7.226562 C 38.289062 7.242188 38.351562 7.261719 38.433594 7.289062 C 38.550781 8.082031 38.695312 8.875 38.738281 9.675781 C 38.78125 10.46875 38.796875 11.261719 38.824219 12.09375 C 38.574219 12.019531 38.363281 11.957031 38.191406 11.90625 C 38.144531 11.320312 38.113281 10.769531 38.058594 10.21875 C 38.015625 9.753906 37.953125 9.285156 37.882812 8.820312 C 37.851562 8.617188 37.773438 8.417969 37.722656 8.214844 C 37.6875 8.078125 37.601562 8.007812 37.46875 7.972656 C 37.078125 7.878906 36.695312 7.765625 36.304688 7.683594 C 35.054688 7.429688 33.804688 7.171875 32.550781 6.941406 C 31.492188 6.75 30.417969 6.648438 29.34375 6.59375 C 27.960938 6.515625 26.578125 6.484375 25.191406 6.550781 C 23.882812 6.609375 22.574219 6.644531 21.265625 6.722656 C 19.660156 6.816406 18.054688 6.945312 16.464844 7.207031 C 15.542969 7.359375 14.625 7.515625 13.703125 7.664062 C 13.601562 7.679688 13.558594 7.742188 13.53125 7.820312 C 13.402344 8.183594 13.25 8.539062 13.15625 8.914062 C 12.878906 10.003906 12.644531 11.101562 12.546875 12.253906 C 12.320312 12.339844 12.105469 12.425781 11.867188 12.519531 C 12.171875 10.734375 12.644531 9.011719 13.070312 7.242188 Z M 41.339844 25.183594 C 41.363281 24.042969 42.332031 23.125 43.488281 23.152344 C 44.636719 23.179688 45.527344 24.105469 45.5 25.25 C 45.511719 26.328125 44.605469 27.386719 43.335938 27.339844 C 42.214844 27.296875 41.316406 26.347656 41.339844 25.183594 Z M 44.285156 19.480469 C 44.640625 19.460938 44.972656 19.5 45.289062 19.644531 C 46.09375 20.011719 46.691406 20.601562 47.128906 21.363281 C 47.511719 22.03125 47.738281 22.757812 47.910156 23.507812 C 48.144531 24.523438 48.324219 25.546875 48.316406 26.59375 C 48.3125 27.113281 48.246094 27.632812 48.207031 28.148438 C 48.1875 28.433594 48.011719 28.585938 47.765625 28.664062 C 47.664062 28.699219 47.550781 28.714844 47.445312 28.714844 C 45.078125 28.664062 42.707031 28.613281 40.339844 28.5625 C 40.164062 28.558594 39.992188 28.558594 39.816406 28.558594 C 39.804688 28.539062 39.789062 28.519531 39.777344 28.5 C 40.316406 27.875 40.859375 27.253906 41.414062 26.613281 C 41.472656 26.683594 41.53125 26.75 41.585938 26.816406 C 42.625 28.085938 44.566406 27.992188 45.476562 26.625 C 46.328125 25.347656 45.738281 23.535156 44.285156 23.003906 C 44.070312 22.921875 43.839844 22.878906 43.578125 22.808594 C 44.003906 21.753906 44.234375 20.648438 44.285156 19.480469 Z M 41.25 41.65625 C 41.480469 41.613281 41.707031 41.570312 41.9375 41.527344 C 42.007812 41.515625 42.082031 41.507812 42.15625 41.5 C 41.90625 41.753906 41.707031 42.007812 41.589844 42.316406 C 41.542969 42.441406 41.441406 42.441406 41.347656 42.453125 C 40.859375 42.523438 40.375 42.589844 39.890625 42.660156 C 39.605469 42.703125 39.320312 42.753906 39.011719 42.800781 C 39.03125 42.507812 39.15625 42.265625 39.339844 42.058594 C 39.390625 42 39.496094 41.96875 39.582031 41.953125 C 40.136719 41.851562 40.695312 41.753906 41.25 41.65625 Z M 43.785156 41.949219 C 44.011719 42.273438 44.082031 42.511719 44.097656 43.035156 C 44.140625 43.441406 43.953125 43.824219 43.597656 44.117188 C 43.214844 44.425781 42.835938 44.46875 42.445312 44.140625 C 41.890625 43.671875 41.550781 42.75 42.191406 41.910156 C 42.640625 41.320312 43.363281 41.339844 43.785156 41.949219 Z M 42.195312 44.515625 C 41.398438 44.554688 40.597656 44.597656 39.800781 44.636719 C 39.789062 44.636719 39.78125 44.636719 39.773438 44.636719 C 39.386719 44.636719 39.320312 44.585938 39.183594 44.183594 C 40.03125 44.019531 40.886719 44 41.714844 43.882812 C 41.910156 44.089844 42.089844 44.28125 42.28125 44.480469 C 42.25 44.492188 42.222656 44.511719 42.195312 44.515625 Z M 39.0625 43.949219 C 38.910156 43.671875 38.890625 43.382812 38.949219 43.089844 C 39.796875 42.953125 40.632812 42.820312 41.453125 42.691406 C 41.503906 43.011719 41.554688 43.339844 41.613281 43.683594 C 40.769531 43.722656 39.914062 43.746094 39.0625 43.949219 Z M 33.164062 42.785156 C 33.222656 42.847656 33.28125 42.914062 33.355469 42.945312 C 33.414062 42.96875 33.507812 42.964844 33.558594 42.929688 C 33.628906 42.886719 33.621094 42.796875 33.570312 42.726562 C 33.507812 42.636719 33.4375 42.554688 33.371094 42.46875 C 33.257812 42.328125 33.144531 42.183594 33.011719 42.023438 C 33.136719 41.960938 33.238281 41.90625 33.34375 41.855469 C 33.515625 42.113281 33.671875 42.363281 33.84375 42.597656 C 34.015625 42.832031 34.207031 43.054688 34.398438 43.296875 C 34.042969 43.421875 33.769531 43.617188 33.574219 43.929688 C 33.167969 43.46875 32.78125 43.03125 32.378906 42.574219 C 32.472656 42.476562 32.566406 42.375 32.675781 42.261719 C 32.847656 42.449219 33.003906 42.617188 33.164062 42.785156 Z M 33.949219 41.890625 C 34.269531 42.265625 34.597656 42.636719 34.917969 43.007812 C 34.972656 43.070312 35.023438 43.136719 35.101562 43.238281 C 34.929688 43.238281 34.816406 43.238281 34.679688 43.238281 C 34.296875 42.777344 33.90625 42.304688 33.511719 41.824219 C 33.785156 41.699219 33.785156 41.703125 33.949219 41.890625 Z M 35.695312 44.894531 C 35.542969 45.136719 35.335938 45.304688 35.082031 45.429688 C 34.398438 45.757812 33.613281 45.128906 33.667969 44.5 C 33.648438 44.292969 33.730469 44.113281 33.847656 43.945312 C 34.105469 43.5625 34.496094 43.421875 34.929688 43.425781 C 35.578125 43.433594 36.09375 44.269531 35.695312 44.894531 Z M 33.390625 44.785156 C 32.917969 44.195312 32.480469 43.652344 32.03125 43.097656 C 32.113281 42.960938 32.191406 42.835938 32.277344 42.691406 C 32.683594 43.183594 33.070312 43.65625 33.457031 44.128906 C 33.4375 44.324219 33.417969 44.527344 33.390625 44.785156 Z M 28.3125 43.980469 C 28.550781 43.957031 28.730469 44.011719 28.890625 44.195312 C 29.011719 44.332031 29.121094 44.472656 29.1875 44.648438 C 28.667969 44.710938 28.167969 44.769531 27.664062 44.832031 C 27.375 44.863281 27.085938 44.902344 26.796875 44.929688 C 26.730469 44.933594 26.632812 44.921875 26.597656 44.878906 C 26.378906 44.609375 26.121094 44.390625 25.808594 44.21875 C 25.894531 44.207031 25.984375 44.191406 26.074219 44.183594 C 26.820312 44.117188 27.566406 44.058594 28.3125 43.980469 Z M 29.324219 44.917969 C 29.453125 45.171875 29.496094 45.453125 29.445312 45.773438 C 28.582031 45.808594 27.738281 45.988281 26.875 46.199219 C 26.875 46.019531 26.886719 45.855469 26.871094 45.695312 C 26.855469 45.53125 26.808594 45.367188 26.773438 45.191406 C 27.613281 45.101562 28.449219 45.011719 29.324219 44.917969 Z M 29.261719 46.46875 C 29.226562 46.527344 29.132812 46.570312 29.058594 46.589844 C 28.726562 46.675781 28.394531 46.757812 28.0625 46.832031 C 27.582031 46.933594 27.101562 47.027344 26.617188 47.125 C 26.566406 47.136719 26.507812 47.136719 26.449219 47.144531 C 26.585938 46.898438 26.710938 46.667969 26.855469 46.40625 C 27.664062 46.28125 28.507812 46.148438 29.375 46.011719 C 29.386719 46.203125 29.332031 46.34375 29.261719 46.46875 Z M 26.195312 46.867188 C 25.929688 47.214844 25.609375 47.324219 25.203125 47.167969 C 24.773438 47.003906 24.46875 46.71875 24.34375 46.253906 C 24.230469 45.839844 24.203125 45.429688 24.371094 45.023438 C 24.480469 44.765625 24.648438 44.566406 24.90625 44.453125 C 25.214844 44.316406 25.507812 44.382812 25.765625 44.546875 C 26.238281 44.847656 26.511719 45.28125 26.523438 45.847656 C 26.511719 46.226562 26.421875 46.570312 26.195312 46.867188 Z M 18.96875 43.023438 C 18.960938 43.039062 18.953125 43.050781 18.945312 43.0625 C 18.800781 43.007812 18.65625 42.953125 18.5 42.894531 C 18.535156 42.820312 18.566406 42.753906 18.597656 42.6875 C 18.617188 42.640625 18.640625 42.597656 18.683594 42.519531 C 18.789062 42.707031 18.878906 42.867188 18.96875 43.023438 Z M 19.257812 44.351562 C 19.257812 45.0625 18.640625 45.746094 17.992188 45.726562 C 17.195312 45.699219 16.628906 45.03125 16.640625 44.410156 C 16.652344 43.808594 17.152344 43.113281 17.96875 43.117188 C 18.675781 43.121094 19.257812 43.675781 19.257812 44.351562 Z M 15.789062 41.734375 C 15.90625 41.652344 16.03125 41.566406 16.160156 41.472656 C 16.363281 42.117188 16.558594 42.734375 16.765625 43.390625 C 16.664062 43.53125 16.550781 43.691406 16.421875 43.875 C 16.207031 43.152344 16.003906 42.457031 15.789062 41.734375 Z M 17.105469 41.109375 C 17.273438 41.691406 17.441406 42.273438 17.609375 42.867188 C 17.402344 42.96875 17.1875 43.070312 16.972656 43.175781 C 16.773438 42.574219 16.574219 41.972656 16.371094 41.367188 C 16.589844 41.21875 16.824219 41.148438 17.105469 41.109375 Z M 18.042969 41.25 C 18.070312 41.257812 18.09375 41.289062 18.113281 41.3125 C 18.132812 41.339844 18.140625 41.375 18.152344 41.40625 C 18.234375 41.597656 18.375 41.785156 18.382812 41.980469 C 18.394531 42.175781 18.273438 42.375 18.210938 42.574219 C 18.183594 42.660156 18.160156 42.746094 18.128906 42.851562 C 18.050781 42.851562 17.972656 42.851562 17.917969 42.851562 C 17.707031 42.265625 17.503906 41.695312 17.296875 41.113281 C 17.574219 41.082031 17.804688 41.183594 18.042969 41.25 Z M 13.660156 42.320312 C 13.894531 42.296875 14.078125 42.339844 14.238281 42.523438 C 14.363281 42.664062 14.46875 42.804688 14.546875 42.984375 C 13.808594 43.074219 13.097656 43.15625 12.386719 43.242188 C 12.289062 43.253906 12.1875 43.269531 12.089844 43.269531 C 12.039062 43.269531 11.972656 43.246094 11.941406 43.207031 C 11.730469 42.929688 11.464844 42.726562 11.09375 42.5625 C 11.25 42.542969 11.347656 42.527344 11.445312 42.515625 C 12.183594 42.453125 12.921875 42.394531 13.660156 42.320312 Z M 14.675781 43.253906 C 14.816406 43.503906 14.839844 43.789062 14.796875 44.109375 C 13.929688 44.144531 13.082031 44.332031 12.257812 44.527344 C 12.222656 44.183594 12.191406 43.863281 12.15625 43.523438 C 12.972656 43.4375 13.816406 43.34375 14.675781 43.253906 Z M 14.738281 44.429688 C 14.714844 44.757812 14.546875 44.925781 14.21875 44.988281 C 13.441406 45.136719 12.671875 45.3125 11.898438 45.476562 C 11.875 45.484375 11.847656 45.480469 11.808594 45.480469 C 11.941406 45.234375 12.070312 45 12.207031 44.746094 C 13.03125 44.640625 13.863281 44.4375 14.734375 44.371094 C 14.738281 44.414062 14.742188 44.421875 14.738281 44.429688 Z M 11.410156 45.367188 C 11.273438 45.507812 11.105469 45.566406 10.910156 45.5625 C 10.445312 45.542969 10.066406 45.328125 9.84375 44.925781 C 9.570312 44.429688 9.507812 43.890625 9.734375 43.347656 C 9.835938 43.109375 9.992188 42.921875 10.226562 42.804688 C 10.546875 42.648438 10.855469 42.710938 11.132812 42.886719 C 12.097656 43.511719 12.0625 44.691406 11.410156 45.367188 Z M 49.222656 30.476562 C 49.128906 29.980469 48.984375 29.5 48.683594 29.082031 C 48.632812 29.011719 48.609375 28.945312 48.640625 28.851562 C 48.890625 28.054688 48.945312 27.238281 48.921875 26.410156 C 48.894531 25.449219 48.742188 24.507812 48.535156 23.570312 C 48.359375 22.773438 48.132812 21.992188 47.738281 21.273438 C 47.28125 20.4375 46.664062 19.757812 45.828125 19.292969 C 45.375 19.042969 44.898438 18.925781 44.382812 19.054688 C 44.363281 19.0625 44.335938 19.054688 44.285156 19.050781 C 44.285156 18.917969 44.289062 18.78125 44.28125 18.648438 C 44.277344 18.515625 44.261719 18.382812 44.253906 18.25 C 44.109375 16.515625 43.367188 15.082031 42.113281 13.90625 C 41.335938 13.175781 40.417969 12.671875 39.417969 12.308594 C 39.332031 12.277344 39.25 12.242188 39.179688 12.214844 C 39.195312 11.890625 39.222656 11.589844 39.226562 11.289062 C 39.234375 10.488281 39.167969 9.695312 39.070312 8.902344 C 38.996094 8.289062 38.898438 7.675781 38.71875 7.078125 C 38.695312 7.007812 38.628906 6.941406 38.566406 6.898438 C 38.507812 6.855469 38.425781 6.847656 38.355469 6.828125 C 36.957031 6.472656 35.542969 6.183594 34.121094 5.945312 C 32.523438 5.679688 30.917969 5.488281 29.304688 5.367188 C 27.429688 5.222656 25.554688 5.15625 23.675781 5.234375 C 22.753906 5.273438 21.828125 5.324219 20.90625 5.398438 C 20.140625 5.460938 19.378906 5.570312 18.617188 5.660156 C 17.441406 5.800781 16.269531 5.964844 15.121094 6.257812 C 14.480469 6.417969 13.847656 6.597656 13.230469 6.835938 C 12.960938 6.9375 12.8125 7.109375 12.738281 7.375 C 12.507812 8.207031 12.242188 9.03125 12.042969 9.871094 C 11.828125 10.769531 11.667969 11.675781 11.492188 12.582031 C 11.46875 12.691406 11.410156 12.734375 11.328125 12.78125 C 11.035156 12.957031 10.734375 13.121094 10.453125 13.320312 C 8.78125 14.519531 7.785156 16.128906 7.585938 18.207031 C 7.558594 18.488281 7.546875 18.773438 7.527344 19.0625 C 7.414062 19.046875 7.316406 19.03125 7.21875 19.015625 C 6.746094 18.949219 6.328125 19.105469 5.929688 19.335938 C 5.058594 19.84375 4.433594 20.582031 3.988281 21.480469 C 3.628906 22.210938 3.417969 22.984375 3.253906 23.777344 C 2.933594 25.316406 2.75 26.859375 3.074219 28.421875 C 3.097656 28.542969 3.066406 28.625 2.980469 28.714844 C 2.730469 28.96875 2.550781 29.273438 2.507812 29.636719 C 2.441406 30.238281 2.476562 30.839844 2.710938 31.394531 C 2.941406 31.9375 3.339844 32.300781 3.976562 32.300781 C 4.074219 32.300781 4.171875 32.316406 4.289062 32.328125 C 4.289062 32.453125 4.28125 32.570312 4.289062 32.683594 C 4.339844 33.488281 4.378906 34.292969 4.453125 35.09375 C 4.5 35.578125 4.589844 36.058594 4.691406 36.535156 C 4.832031 37.175781 5.199219 37.667969 5.808594 37.929688 C 6.140625 38.074219 6.496094 38.183594 6.847656 38.273438 C 7.386719 38.410156 7.941406 38.40625 8.492188 38.414062 C 9.335938 38.425781 10.171875 38.347656 10.992188 38.136719 C 11.609375 37.976562 11.984375 37.585938 12.15625 36.976562 C 12.410156 36.070312 12.496094 35.144531 12.535156 34.214844 C 12.558594 33.667969 12.539062 33.121094 12.539062 32.574219 C 12.539062 32.503906 12.546875 32.429688 12.550781 32.371094 C 15.859375 32.371094 19.148438 32.371094 22.476562 32.371094 C 22.414062 32.460938 22.382812 32.507812 22.347656 32.550781 C 21.777344 33.285156 21.210938 34.023438 20.632812 34.75 C 20.117188 35.402344 19.542969 36 18.949219 36.578125 C 18.023438 37.472656 17.003906 38.246094 15.976562 39.007812 C 14.953125 39.769531 13.992188 40.597656 13.21875 41.621094 C 13.105469 41.769531 13.007812 41.949219 12.859375 42.03125 C 12.707031 42.113281 12.5 42.082031 12.320312 42.113281 C 11.679688 42.226562 11.035156 42.320312 10.402344 42.464844 C 9.902344 42.578125 9.585938 42.90625 9.433594 43.414062 C 9.289062 43.894531 9.355469 44.355469 9.488281 44.824219 C 9.648438 45.378906 10.390625 45.929688 11.015625 45.878906 C 11.238281 45.863281 11.464844 45.851562 11.6875 45.808594 C 12.351562 45.6875 13.011719 45.558594 13.675781 45.425781 C 13.976562 45.367188 14.277344 45.300781 14.574219 45.214844 C 14.695312 45.175781 14.839844 45.101562 14.894531 45 C 15.121094 44.582031 15.261719 44.128906 15.21875 43.648438 C 15.164062 43.027344 14.835938 42.546875 14.359375 42.167969 C 14.183594 42.03125 13.976562 41.976562 13.75 41.996094 C 13.65625 42.003906 13.554688 42.027344 13.453125 41.964844 C 13.636719 41.773438 13.808594 41.585938 13.984375 41.410156 C 14.402344 41 14.792969 40.558594 15.242188 40.1875 C 15.953125 39.601562 16.703125 39.066406 17.429688 38.503906 C 18.734375 37.503906 19.933594 36.386719 20.972656 35.105469 C 21.652344 34.265625 22.308594 33.40625 22.960938 32.546875 C 23.066406 32.410156 23.175781 32.359375 23.339844 32.363281 C 23.699219 32.375 24.054688 32.367188 24.414062 32.371094 C 24.46875 32.371094 24.519531 32.382812 24.589844 32.394531 C 24.535156 32.492188 24.496094 32.566406 24.449219 32.632812 C 24.136719 33.097656 23.832031 33.570312 23.5 34.023438 C 22.554688 35.304688 21.582031 36.566406 20.644531 37.851562 C 19.816406 38.984375 19.132812 40.203125 18.59375 41.503906 C 18.578125 41.535156 18.554688 41.5625 18.511719 41.625 C 18.449219 41.476562 18.410156 41.355469 18.347656 41.25 C 18.300781 41.164062 18.242188 41.066406 18.164062 41.027344 C 17.433594 40.660156 16.417969 40.757812 15.78125 41.46875 C 15.621094 41.644531 15.566406 41.828125 15.632812 42.066406 C 15.777344 42.574219 15.898438 43.089844 16.035156 43.601562 C 16.148438 44.027344 16.265625 44.457031 16.390625 44.882812 C 16.65625 45.785156 17.582031 46.1875 18.230469 46.070312 C 19.078125 45.917969 19.722656 45.066406 19.59375 44.207031 C 19.519531 43.714844 19.421875 43.214844 19.167969 42.769531 C 19.082031 42.617188 19.007812 42.453125 18.917969 42.304688 C 18.855469 42.199219 18.855469 42.109375 18.910156 42 C 19.085938 41.636719 19.25 41.269531 19.421875 40.90625 C 20.144531 39.371094 21.082031 37.976562 22.085938 36.621094 C 23.09375 35.261719 24.15625 33.941406 25.039062 32.492188 C 25.101562 32.390625 25.179688 32.367188 25.285156 32.367188 C 25.835938 32.371094 26.386719 32.371094 26.9375 32.371094 C 26.996094 32.375 27.050781 32.382812 27.117188 32.390625 C 27.109375 32.457031 27.105469 32.515625 27.089844 32.570312 C 26.957031 33.109375 26.839844 33.648438 26.6875 34.183594 C 26.265625 35.648438 25.863281 37.117188 25.695312 38.644531 C 25.582031 39.691406 25.609375 40.722656 25.84375 41.75 C 25.988281 42.390625 26.28125 42.980469 26.535156 43.582031 C 26.566406 43.652344 26.59375 43.726562 26.632812 43.8125 C 26.488281 43.835938 26.371094 43.851562 26.257812 43.871094 C 25.847656 43.953125 25.4375 44.023438 25.035156 44.128906 C 24.535156 44.257812 24.21875 44.585938 24.074219 45.089844 C 23.933594 45.570312 24 46.03125 24.136719 46.5 C 24.296875 47.039062 25.023438 47.585938 25.648438 47.542969 C 25.882812 47.527344 26.117188 47.511719 26.34375 47.46875 C 27 47.351562 27.65625 47.222656 28.308594 47.09375 C 28.617188 47.03125 28.925781 46.953125 29.234375 46.875 C 29.421875 46.828125 29.558594 46.714844 29.621094 46.519531 C 29.671875 46.351562 29.738281 46.1875 29.785156 46.015625 C 30.007812 45.175781 29.710938 44.347656 29.015625 43.839844 C 28.839844 43.710938 28.648438 43.644531 28.429688 43.65625 C 28.136719 43.675781 27.847656 43.691406 27.554688 43.714844 C 27.367188 43.726562 27.175781 43.75 26.980469 43.765625 C 26.832031 43.328125 26.679688 42.902344 26.546875 42.472656 C 26.238281 41.480469 26.058594 40.46875 26.109375 39.421875 C 26.160156 38.34375 26.347656 37.289062 26.605469 36.242188 C 26.839844 35.273438 27.105469 34.3125 27.347656 33.34375 C 27.429688 33.03125 27.484375 32.707031 27.550781 32.394531 C 27.878906 32.347656 28.984375 32.363281 29.183594 32.425781 C 29.230469 33.160156 29.277344 33.90625 29.324219 34.652344 C 29.375 35.472656 29.441406 36.292969 29.625 37.097656 C 29.882812 38.25 30.289062 39.339844 30.992188 40.289062 C 31.417969 40.859375 31.90625 41.378906 32.367188 41.921875 C 32.421875 41.988281 32.484375 42.054688 32.539062 42.117188 C 32.3125 42.378906 32.082031 42.597656 31.964844 42.90625 C 31.910156 43.050781 31.914062 43.167969 32.007812 43.304688 C 32.5 44.035156 33.039062 44.730469 33.652344 45.359375 C 34.300781 46.023438 35.070312 45.933594 35.65625 45.449219 C 36.265625 44.945312 36.242188 44.210938 35.84375 43.722656 C 35.496094 43.292969 35.117188 42.890625 34.746094 42.480469 C 34.492188 42.203125 34.222656 41.941406 33.96875 41.664062 C 33.867188 41.558594 33.753906 41.53125 33.628906 41.566406 C 33.375 41.644531 33.128906 41.734375 32.863281 41.828125 C 32.648438 41.570312 32.414062 41.296875 32.191406 41.015625 C 31.835938 40.570312 31.457031 40.140625 31.144531 39.667969 C 30.304688 38.402344 29.910156 36.980469 29.769531 35.476562 C 29.710938 34.867188 29.679688 34.257812 29.632812 33.644531 C 29.601562 33.234375 29.566406 32.828125 29.527344 32.375 C 29.628906 32.375 29.710938 32.375 29.789062 32.375 C 30.265625 32.375 30.742188 32.382812 31.21875 32.367188 C 31.414062 32.359375 31.523438 32.425781 31.605469 32.601562 C 31.960938 33.351562 32.328125 34.09375 32.679688 34.84375 C 33.003906 35.527344 33.351562 36.195312 33.785156 36.816406 C 34.53125 37.871094 35.460938 38.730469 36.496094 39.476562 C 37.53125 40.222656 38.632812 40.851562 39.777344 41.40625 C 39.828125 41.433594 39.878906 41.46875 39.964844 41.523438 C 39.773438 41.570312 39.625 41.589844 39.488281 41.644531 C 39.335938 41.703125 39.160156 41.765625 39.058594 41.878906 C 38.625 42.355469 38.4375 42.925781 38.515625 43.570312 C 38.566406 43.957031 38.78125 44.273438 38.976562 44.59375 C 39.152344 44.878906 39.394531 44.988281 39.710938 44.96875 C 39.753906 44.964844 39.796875 44.96875 39.835938 44.964844 C 40.347656 44.9375 40.855469 44.925781 41.363281 44.882812 C 41.941406 44.828125 42.523438 44.773438 43.097656 44.675781 C 43.746094 44.5625 44.160156 44.125 44.3125 43.507812 C 44.472656 42.875 44.351562 42.25 43.945312 41.71875 C 43.753906 41.464844 43.507812 41.273438 43.175781 41.25 C 42.894531 41.230469 42.613281 41.207031 42.332031 41.226562 C 41.910156 41.25 41.484375 41.296875 41.066406 41.359375 C 40.835938 41.394531 40.636719 41.359375 40.441406 41.246094 C 40.382812 41.214844 40.324219 41.1875 40.265625 41.152344 C 39.460938 40.675781 38.648438 40.210938 37.855469 39.71875 C 37.359375 39.410156 36.878906 39.070312 36.414062 38.714844 C 35.09375 37.710938 34.070312 36.457031 33.347656 34.953125 C 32.960938 34.144531 32.550781 33.347656 32.152344 32.542969 C 32.125 32.496094 32.109375 32.445312 32.089844 32.398438 C 34.539062 32.398438 36.972656 32.398438 39.414062 32.398438 C 39.417969 32.46875 39.425781 32.519531 39.425781 32.566406 C 39.417969 32.894531 39.390625 33.222656 39.40625 33.546875 C 39.441406 34.292969 39.476562 35.039062 39.554688 35.785156 C 39.605469 36.28125 39.703125 36.78125 39.890625 37.25 C 40.054688 37.667969 40.34375 37.953125 40.765625 38.09375 C 40.992188 38.167969 41.230469 38.226562 41.464844 38.273438 C 42.320312 38.453125 43.191406 38.449219 44.058594 38.425781 C 44.722656 38.40625 45.367188 38.292969 45.984375 38.039062 C 46.71875 37.738281 47.144531 37.199219 47.300781 36.417969 C 47.492188 35.445312 47.578125 34.460938 47.636719 33.472656 C 47.65625 33.15625 47.667969 32.839844 47.683594 32.503906 C 47.796875 32.492188 47.894531 32.476562 47.992188 32.480469 C 48.457031 32.507812 48.78125 32.28125 48.988281 31.890625 C 49.21875 31.449219 49.316406 30.972656 49.222656 30.476562 "/></g><path style=" stroke:none;fill-rule:nonzero;fill:#000000;fill-opacity:1;" d="M 32.992188 25.8125 C 32.832031 25.839844 32.664062 25.890625 32.472656 25.796875 C 32.472656 25.558594 32.464844 25.308594 32.476562 25.058594 C 32.484375 24.796875 32.507812 24.539062 32.53125 24.28125 C 32.578125 23.785156 32.589844 23.292969 32.496094 22.796875 C 33.195312 22.460938 33.863281 22.101562 34.59375 21.894531 C 34.835938 21.828125 35.074219 21.75 35.3125 21.671875 C 35.515625 21.609375 35.566406 21.535156 35.519531 21.320312 C 35.480469 21.140625 35.421875 20.964844 35.375 20.785156 C 35.367188 20.75 35.363281 20.707031 35.351562 20.660156 C 36.085938 20.753906 36.777344 20.609375 37.46875 20.457031 C 38.175781 20.300781 38.878906 20.117188 39.582031 19.941406 C 39.722656 19.90625 39.863281 19.859375 40.027344 19.851562 C 39.957031 19.941406 39.886719 20.03125 39.808594 20.117188 C 39.378906 20.597656 38.9375 21.066406 38.523438 21.558594 C 38.308594 21.8125 38.136719 22.105469 37.957031 22.382812 C 37.910156 22.453125 37.882812 22.535156 37.859375 22.613281 C 37.785156 22.867188 37.859375 23.0625 38.078125 23.199219 C 38.199219 23.269531 38.328125 23.332031 38.457031 23.390625 C 38.894531 23.597656 39.332031 23.804688 39.769531 24.011719 C 39.835938 24.042969 39.898438 24.082031 39.964844 24.113281 C 39.964844 24.132812 39.960938 24.152344 39.960938 24.171875 C 39.382812 24.351562 38.804688 24.535156 38.222656 24.710938 C 37.101562 25.050781 35.960938 25.289062 34.8125 25.496094 C 34.207031 25.605469 33.601562 25.714844 32.992188 25.8125 Z M 31.09375 21.90625 C 30.152344 22.085938 29.199219 22.09375 28.253906 21.960938 C 27.246094 21.816406 26.246094 21.632812 25.246094 21.457031 C 24.050781 21.253906 22.855469 21.082031 21.640625 21.101562 C 20.457031 21.121094 19.273438 21.203125 18.117188 21.488281 C 17.664062 21.597656 17.226562 21.757812 16.757812 21.902344 C 16.800781 21.207031 16.871094 20.53125 17.023438 19.867188 C 17.253906 18.851562 17.617188 17.878906 17.925781 16.882812 C 18.027344 16.558594 18.195312 16.40625 18.507812 16.292969 C 19.730469 15.84375 20.996094 15.613281 22.277344 15.4375 C 23.355469 15.289062 24.433594 15.183594 25.519531 15.234375 C 26.414062 15.273438 27.292969 15.429688 28.152344 15.675781 C 29.574219 16.085938 31.015625 16.222656 32.484375 16.082031 C 33.003906 16.035156 33.523438 15.9375 34.042969 15.863281 C 34.097656 15.855469 34.152344 15.851562 34.21875 15.847656 C 34.367188 17.667969 34.621094 19.457031 35.125 21.222656 C 35.050781 21.230469 34.988281 21.242188 34.929688 21.242188 C 34.414062 21.226562 33.917969 21.304688 33.417969 21.417969 C 32.644531 21.59375 31.871094 21.757812 31.09375 21.90625 Z M 17.917969 25.183594 C 16.546875 25.574219 13.523438 25.652344 12.773438 25.304688 C 12.84375 25.234375 12.902344 25.171875 12.964844 25.109375 C 13.269531 24.789062 13.585938 24.480469 13.878906 24.144531 C 14 24.003906 14.089844 23.824219 14.15625 23.644531 C 14.25 23.394531 14.179688 23.175781 13.957031 23.027344 C 13.785156 22.914062 13.589844 22.828125 13.398438 22.75 C 12.855469 22.53125 12.285156 22.414062 11.703125 22.320312 C 13.351562 21.859375 14.941406 21.253906 16.503906 20.472656 C 16.476562 20.699219 16.441406 20.902344 16.429688 21.105469 C 16.410156 21.449219 16.382812 21.789062 16.398438 22.132812 C 16.40625 22.367188 16.445312 22.355469 16.679688 22.375 C 17.140625 22.410156 17.613281 22.34375 18.097656 22.476562 C 17.835938 23.367188 17.867188 24.277344 17.917969 25.183594 Z M 40.082031 24.523438 C 40.234375 24.476562 40.378906 24.40625 40.515625 24.324219 C 40.664062 24.238281 40.683594 24.082031 40.5625 23.972656 C 40.492188 23.90625 40.398438 23.851562 40.308594 23.8125 C 39.710938 23.539062 39.109375 23.265625 38.507812 22.996094 C 38.136719 22.832031 38.125 22.789062 38.308594 22.421875 C 38.5 22.046875 38.773438 21.746094 39.046875 21.4375 C 39.40625 21.03125 39.757812 20.617188 40.105469 20.199219 C 40.195312 20.089844 40.269531 19.964844 40.335938 19.835938 C 40.449219 19.625 40.382812 19.503906 40.144531 19.476562 C 40.019531 19.464844 39.890625 19.46875 39.773438 19.496094 C 39.324219 19.605469 38.886719 19.734375 38.4375 19.835938 C 37.636719 20.019531 36.832031 20.203125 36.019531 20.359375 C 35.789062 20.40625 35.542969 20.367188 35.285156 20.367188 C 35.261719 20.289062 35.238281 20.21875 35.226562 20.148438 C 35.027344 19.125 34.839844 18.105469 34.765625 17.0625 C 34.738281 16.636719 34.660156 16.214844 34.582031 15.796875 C 34.53125 15.53125 34.445312 15.476562 34.179688 15.484375 C 33.78125 15.5 33.378906 15.511719 32.980469 15.554688 C 31.335938 15.738281 29.722656 15.632812 28.125 15.175781 C 27.203125 14.910156 26.253906 14.75 25.289062 14.730469 C 24.605469 14.714844 23.921875 14.753906 23.242188 14.828125 C 22.230469 14.9375 21.226562 15.09375 20.242188 15.367188 C 19.527344 15.570312 18.820312 15.789062 18.109375 16.003906 C 17.921875 16.058594 17.800781 16.183594 17.734375 16.371094 C 17.316406 17.550781 16.871094 18.71875 16.613281 19.945312 C 16.589844 20.0625 16.535156 20.117188 16.429688 20.152344 C 16.226562 20.222656 16.019531 20.296875 15.820312 20.378906 C 14.667969 20.839844 13.515625 21.300781 12.332031 21.683594 C 11.96875 21.800781 11.613281 21.949219 11.257812 22.09375 C 11.164062 22.128906 11.074219 22.179688 10.996094 22.242188 C 10.878906 22.347656 10.914062 22.507812 11.058594 22.558594 C 11.128906 22.582031 11.207031 22.582031 11.28125 22.597656 C 11.429688 22.621094 11.582031 22.632812 11.722656 22.675781 C 12.140625 22.796875 12.554688 22.925781 12.964844 23.0625 C 13.203125 23.140625 13.433594 23.230469 13.664062 23.332031 C 13.828125 23.402344 13.855469 23.464844 13.773438 23.625 C 13.691406 23.789062 13.59375 23.949219 13.472656 24.082031 C 13.171875 24.410156 12.851562 24.71875 12.542969 25.039062 C 12.472656 25.109375 12.402344 25.183594 12.351562 25.269531 C 12.269531 25.402344 12.296875 25.511719 12.429688 25.589844 C 12.53125 25.644531 12.640625 25.6875 12.753906 25.71875 C 13.222656 25.839844 13.699219 25.90625 14.183594 25.9375 C 15.535156 26.023438 16.863281 25.878906 18.1875 25.636719 C 18.425781 25.59375 18.425781 25.589844 18.417969 25.34375 C 18.40625 25.015625 18.378906 24.6875 18.398438 24.363281 C 18.449219 23.488281 18.625 22.636719 18.957031 21.796875 C 19.785156 21.648438 20.617188 21.59375 21.453125 21.597656 C 22.714844 21.609375 23.960938 21.78125 25.199219 22.015625 C 26.28125 22.21875 27.355469 22.460938 28.453125 22.570312 C 29.3125 22.65625 30.167969 22.652344 31.023438 22.515625 C 31.367188 22.460938 31.707031 22.390625 32.074219 22.320312 C 32.089844 22.441406 32.109375 22.554688 32.121094 22.671875 C 32.203125 23.519531 32.09375 24.363281 32.050781 25.210938 C 32.042969 25.433594 32.0625 25.664062 32.113281 25.882812 C 32.171875 26.128906 32.316406 26.222656 32.570312 26.226562 C 32.71875 26.226562 32.871094 26.214844 33.019531 26.191406 C 33.535156 26.105469 34.050781 26.003906 34.570312 25.929688 C 35.765625 25.75 36.957031 25.542969 38.113281 25.171875 C 38.769531 24.960938 39.429688 24.746094 40.082031 24.523438 "/><path style=" stroke:none;fill-rule:nonzero;fill:#000000;fill-opacity:1;" d="M 8.230469 34.917969 C 8.207031 34.863281 8.128906 34.804688 8.070312 34.796875 C 8.03125 34.789062 7.953125 34.859375 7.933594 34.910156 C 7.785156 35.34375 7.828125 35.769531 8.023438 36.179688 C 8.050781 36.234375 8.140625 36.285156 8.199219 36.285156 C 8.292969 36.289062 8.335938 36.203125 8.339844 36.109375 C 8.34375 35.976562 8.339844 35.839844 8.339844 35.707031 C 8.363281 35.4375 8.339844 35.167969 8.230469 34.917969 "/><path style=" stroke:none;fill-rule:nonzero;fill:#000000;fill-opacity:1;" d="M 10.25 34.6875 C 10.191406 34.703125 10.113281 34.761719 10.09375 34.820312 C 10.039062 34.992188 10.007812 35.175781 9.972656 35.332031 C 10 35.5 10.015625 35.640625 10.046875 35.78125 C 10.066406 35.878906 10.136719 35.941406 10.238281 35.949219 C 10.339844 35.957031 10.417969 35.898438 10.449219 35.800781 C 10.550781 35.472656 10.554688 35.144531 10.4375 34.816406 C 10.40625 34.734375 10.347656 34.660156 10.25 34.6875 "/><path style=" stroke:none;fill-rule:nonzero;fill:#000000;fill-opacity:1;" d="M 5.949219 34.609375 C 5.90625 34.605469 5.835938 34.675781 5.820312 34.726562 C 5.71875 35.113281 5.71875 35.503906 5.832031 35.890625 C 5.859375 35.988281 5.921875 36.058594 6.027344 36.042969 C 6.136719 36.027344 6.171875 35.941406 6.179688 35.84375 C 6.1875 35.734375 6.191406 35.625 6.195312 35.515625 C 6.207031 35.515625 6.21875 35.511719 6.230469 35.511719 C 6.183594 35.25 6.140625 34.984375 6.085938 34.726562 C 6.074219 34.675781 5.996094 34.609375 5.949219 34.609375 "/><path style=" stroke:none;fill-rule:nonzero;fill:#000000;fill-opacity:1;" d="M 43.988281 34.867188 C 43.933594 34.785156 43.839844 34.78125 43.777344 34.859375 C 43.738281 34.910156 43.703125 34.972656 43.691406 35.035156 C 43.644531 35.273438 43.609375 35.511719 43.570312 35.75 C 43.578125 35.753906 43.585938 35.753906 43.59375 35.757812 C 43.605469 35.898438 43.609375 36.042969 43.632812 36.179688 C 43.640625 36.226562 43.695312 36.296875 43.734375 36.300781 C 43.789062 36.308594 43.859375 36.277344 43.910156 36.242188 C 43.945312 36.214844 43.964844 36.160156 43.984375 36.113281 C 44.113281 35.777344 44.132812 35.429688 44.070312 35.074219 C 44.058594 35.003906 44.027344 34.929688 43.988281 34.867188 "/><path style=" stroke:none;fill-rule:nonzero;fill:#000000;fill-opacity:1;" d="M 41.691406 34.707031 C 41.625 34.726562 41.542969 34.792969 41.519531 34.859375 C 41.46875 35.015625 41.449219 35.183594 41.417969 35.339844 C 41.445312 35.5 41.464844 35.652344 41.496094 35.796875 C 41.523438 35.90625 41.597656 35.972656 41.714844 35.96875 C 41.820312 35.96875 41.890625 35.902344 41.914062 35.808594 C 41.996094 35.484375 41.992188 35.160156 41.871094 34.84375 C 41.839844 34.765625 41.785156 34.675781 41.691406 34.707031 "/><path style=" stroke:none;fill-rule:nonzero;fill:#000000;fill-opacity:1;" d="M 46.007812 34.625 C 45.957031 34.675781 45.902344 34.722656 45.859375 34.773438 C 45.839844 34.796875 45.84375 34.839844 45.835938 34.871094 C 45.753906 35.199219 45.734375 35.527344 45.78125 35.863281 C 45.796875 35.960938 45.8125 36.050781 45.925781 36.0625 C 46.050781 36.078125 46.113281 36 46.132812 35.890625 C 46.167969 35.703125 46.191406 35.515625 46.21875 35.332031 C 46.195312 35.140625 46.179688 34.957031 46.140625 34.777344 C 46.128906 34.71875 46.054688 34.675781 46.007812 34.625 "/><path style=" stroke:none;fill-rule:nonzero;fill:#000000;fill-opacity:1;" d="M 8.285156 23.722656 C 9.125 23.722656 9.792969 24.410156 9.792969 25.273438 C 9.789062 26.121094 9.121094 26.789062 8.277344 26.789062 C 7.441406 26.785156 6.753906 26.082031 6.761719 25.238281 C 6.773438 24.402344 7.457031 23.722656 8.285156 23.722656 Z M 8.3125 27.054688 C 9.28125 27.054688 10.082031 26.261719 10.09375 25.285156 C 10.101562 24.320312 9.292969 23.507812 8.320312 23.503906 C 7.34375 23.503906 6.546875 24.300781 6.546875 25.277344 C 6.546875 26.265625 7.324219 27.050781 8.3125 27.054688 "/><path style=" stroke:none;fill-rule:nonzero;fill:#000000;fill-opacity:1;" d="M 43.390625 23.722656 C 44.234375 23.730469 44.894531 24.417969 44.890625 25.28125 C 44.886719 26.125 44.210938 26.792969 43.367188 26.789062 C 42.542969 26.78125 41.863281 26.09375 41.859375 25.257812 C 41.855469 24.417969 42.558594 23.714844 43.390625 23.722656 Z M 43.410156 27.054688 C 44.378906 27.054688 45.179688 26.257812 45.191406 25.28125 C 45.199219 24.320312 44.390625 23.503906 43.417969 23.503906 C 42.441406 23.503906 41.644531 24.300781 41.644531 25.277344 C 41.644531 26.265625 42.421875 27.050781 43.410156 27.054688 "/><path style=" stroke:none;fill-rule:nonzero;fill:#000000;fill-opacity:1;" d="M 25.691406 46.324219 C 25.515625 46.503906 25.265625 46.496094 25.097656 46.3125 C 24.808594 45.992188 24.824219 45.445312 25.132812 45.148438 C 25.378906 44.917969 25.664062 44.976562 25.789062 45.285156 C 25.820312 45.355469 25.84375 45.425781 25.859375 45.5 C 25.875 45.582031 25.878906 45.664062 25.886719 45.714844 C 25.890625 45.964844 25.847656 46.164062 25.691406 46.324219 Z M 26 45.035156 C 25.730469 44.671875 25.242188 44.667969 24.953125 45.007812 C 24.605469 45.417969 24.578125 45.871094 24.769531 46.347656 C 24.96875 46.839844 25.539062 46.949219 25.917969 46.582031 C 26.140625 46.367188 26.234375 46.097656 26.230469 45.789062 C 26.230469 45.511719 26.164062 45.257812 26 45.035156 "/><path style=" stroke:none;fill-rule:nonzero;fill:#000000;fill-opacity:1;" d="M 11.058594 44.648438 C 10.882812 44.839844 10.617188 44.835938 10.449219 44.640625 C 10.160156 44.316406 10.183594 43.777344 10.496094 43.480469 C 10.742188 43.25 11.023438 43.3125 11.148438 43.628906 C 11.179688 43.714844 11.207031 43.804688 11.226562 43.894531 C 11.242188 43.964844 11.242188 44.042969 11.246094 44.078125 C 11.246094 44.316406 11.195312 44.5 11.058594 44.648438 Z M 11.339844 43.351562 C 11.074219 43.007812 10.585938 43.011719 10.308594 43.34375 C 9.972656 43.746094 9.925781 44.183594 10.113281 44.660156 C 10.320312 45.1875 10.917969 45.296875 11.308594 44.882812 C 11.507812 44.671875 11.585938 44.410156 11.59375 44.097656 C 11.582031 43.84375 11.515625 43.578125 11.339844 43.351562 "/><path style=" stroke:none;fill-rule:nonzero;fill:#000000;fill-opacity:1;" d="M 42.457031 42.496094 C 42.503906 42.1875 42.75 42.070312 43.03125 42.210938 C 43.324219 42.359375 43.449219 42.582031 43.460938 42.945312 C 43.445312 43.050781 43.445312 43.164062 43.410156 43.265625 C 43.316406 43.5625 43.023438 43.660156 42.777344 43.472656 C 42.6875 43.402344 42.605469 43.308594 42.554688 43.207031 C 42.441406 42.984375 42.414062 42.742188 42.457031 42.496094 Z M 42.191406 43.242188 C 42.285156 43.503906 42.449219 43.707031 42.703125 43.832031 C 43.132812 44.039062 43.582031 43.824219 43.695312 43.363281 C 43.71875 43.273438 43.722656 43.179688 43.738281 43.089844 C 43.75 42.589844 43.511719 42.238281 43.109375 41.988281 C 43.015625 41.929688 42.890625 41.890625 42.78125 41.898438 C 42.460938 41.917969 42.210938 42.152344 42.140625 42.472656 C 42.085938 42.734375 42.097656 42.992188 42.191406 43.242188 "/><path style=" stroke:none;fill-rule:nonzero;fill:#000000;fill-opacity:1;" d="M 18.082031 45.152344 C 17.628906 45.234375 17.257812 44.914062 17.261719 44.402344 C 17.308594 44.144531 17.320312 43.832031 17.609375 43.625 C 18.019531 43.335938 18.570312 43.511719 18.71875 43.996094 C 18.886719 44.523438 18.589844 45.0625 18.082031 45.152344 Z M 17.929688 43.273438 C 17.8125 43.285156 17.6875 43.332031 17.589844 43.398438 C 17.285156 43.597656 17.152344 43.910156 17.085938 44.261719 C 17.015625 44.644531 17.152344 45.070312 17.457031 45.257812 C 17.789062 45.464844 18.144531 45.441406 18.476562 45.253906 C 18.851562 45.039062 18.960938 44.679688 18.972656 44.183594 C 19.011719 43.59375 18.472656 43.21875 17.929688 43.273438 "/><path style=" stroke:none;fill-rule:nonzero;fill:#000000;fill-opacity:1;" d="M 35.128906 43.8125 C 35.320312 43.914062 35.386719 44.089844 35.382812 44.296875 C 35.382812 44.597656 35.003906 45.011719 34.703125 45.03125 C 34.621094 45.035156 34.515625 45.007812 34.453125 44.953125 C 34.066406 44.625 34.113281 44.105469 34.511719 43.820312 C 34.691406 43.695312 34.925781 43.707031 35.128906 43.8125 Z M 33.988281 44.449219 C 34.039062 44.613281 34.070312 44.789062 34.148438 44.941406 C 34.261719 45.164062 34.457031 45.292969 34.714844 45.269531 C 35.074219 45.238281 35.464844 44.890625 35.558594 44.539062 C 35.664062 44.125 35.453125 43.699219 35.082031 43.625 C 34.957031 43.601562 34.816406 43.625 34.6875 43.644531 C 34.253906 43.71875 34.019531 44 33.988281 44.449219 "/><path style=" stroke:none;fill-rule:nonzero;fill:#000000;fill-opacity:1;" d="M 22.085938 18.074219 C 21.957031 18.019531 21.839844 18.066406 21.742188 18.160156 C 21.585938 18.316406 21.429688 18.480469 21.277344 18.648438 C 21.210938 18.722656 21.148438 18.808594 21.0625 18.921875 C 21.019531 18.769531 20.992188 18.667969 20.957031 18.566406 C 20.910156 18.421875 20.875 18.273438 20.804688 18.140625 C 20.695312 17.925781 20.457031 17.929688 20.335938 18.140625 C 20.300781 18.199219 20.28125 18.261719 20.257812 18.328125 C 20.039062 18.933594 19.820312 19.539062 19.605469 20.144531 C 19.585938 20.199219 19.558594 20.253906 19.558594 20.3125 C 19.558594 20.453125 19.683594 20.519531 19.800781 20.441406 C 19.835938 20.417969 19.859375 20.382812 19.886719 20.355469 C 20.132812 20.09375 20.289062 19.78125 20.417969 19.453125 C 20.464844 19.339844 20.511719 19.226562 20.574219 19.085938 C 20.632812 19.246094 20.664062 19.367188 20.71875 19.480469 C 20.824219 19.695312 21.027344 19.714844 21.179688 19.53125 C 21.234375 19.464844 21.273438 19.390625 21.320312 19.324219 C 21.441406 19.15625 21.566406 18.996094 21.691406 18.828125 C 21.703125 18.839844 21.71875 18.851562 21.730469 18.863281 C 21.695312 19.179688 21.644531 19.492188 21.625 19.808594 C 21.617188 19.964844 21.65625 20.125 21.691406 20.277344 C 21.714844 20.367188 21.792969 20.429688 21.898438 20.429688 C 22.007812 20.425781 22.070312 20.355469 22.09375 20.261719 C 22.125 20.148438 22.148438 20.035156 22.160156 19.917969 C 22.183594 19.558594 22.199219 19.199219 22.222656 18.839844 C 22.230469 18.695312 22.246094 18.554688 22.253906 18.414062 C 22.261719 18.269531 22.230469 18.136719 22.085938 18.074219 "/><path style=" stroke:none;fill-rule:nonzero;fill:#000000;fill-opacity:1;" d="M 32.871094 19.613281 C 32.804688 20.128906 32.519531 20.386719 31.953125 20.40625 C 31.96875 19.90625 31.984375 19.410156 31.996094 18.925781 C 32.527344 18.769531 32.933594 19.109375 32.871094 19.613281 Z M 32.140625 18.464844 C 32.03125 18.476562 31.921875 18.476562 31.769531 18.484375 C 31.75 18.539062 31.695312 18.628906 31.683594 18.722656 C 31.628906 19.335938 31.582031 19.953125 31.535156 20.570312 C 31.53125 20.621094 31.527344 20.671875 31.539062 20.722656 C 31.574219 20.867188 31.71875 20.933594 31.820312 20.832031 C 31.910156 20.738281 31.992188 20.765625 32.089844 20.777344 C 32.179688 20.785156 32.273438 20.789062 32.363281 20.773438 C 32.808594 20.691406 33.117188 20.445312 33.246094 19.996094 C 33.386719 19.519531 33.285156 19.101562 32.933594 18.753906 C 32.714844 18.539062 32.449219 18.433594 32.140625 18.464844 "/><path style=" stroke:none;fill-rule:nonzero;fill:#000000;fill-opacity:1;" d="M 27.195312 18.984375 C 27.074219 19.066406 26.941406 19.128906 26.78125 19.109375 C 26.78125 18.898438 26.78125 18.691406 26.78125 18.441406 C 26.9375 18.492188 27.0625 18.511719 27.171875 18.566406 C 27.359375 18.660156 27.371094 18.863281 27.195312 18.984375 Z M 27.492188 18.359375 C 27.273438 18.179688 27.027344 18.117188 26.746094 18.1875 C 26.492188 18.25 26.492188 18.242188 26.457031 18.492188 C 26.386719 19.023438 26.308594 19.554688 26.25 20.085938 C 26.230469 20.242188 26.253906 20.40625 26.285156 20.558594 C 26.296875 20.613281 26.382812 20.671875 26.441406 20.683594 C 26.476562 20.691406 26.554688 20.613281 26.566406 20.5625 C 26.613281 20.402344 26.632812 20.234375 26.664062 20.070312 C 26.679688 20.003906 26.691406 19.9375 26.714844 19.824219 C 26.886719 20.082031 27.027344 20.289062 27.167969 20.496094 C 27.222656 20.570312 27.277344 20.644531 27.339844 20.710938 C 27.410156 20.777344 27.5 20.800781 27.589844 20.738281 C 27.683594 20.679688 27.707031 20.589844 27.671875 20.496094 C 27.636719 20.40625 27.589844 20.3125 27.527344 20.234375 C 27.335938 19.984375 27.132812 19.742188 26.925781 19.480469 C 27.089844 19.421875 27.246094 19.382812 27.382812 19.3125 C 27.78125 19.109375 27.832031 18.648438 27.492188 18.359375 "/><path style=" stroke:none;fill-rule:nonzero;fill:#000000;fill-opacity:1;" d="M 25.410156 18.863281 C 25.289062 18.941406 25.144531 18.976562 24.964844 19.046875 C 24.984375 18.824219 25.003906 18.65625 25.023438 18.4375 C 25.167969 18.46875 25.289062 18.46875 25.386719 18.515625 C 25.558594 18.59375 25.570312 18.769531 25.410156 18.863281 Z M 25.773438 18.964844 C 26.027344 18.621094 25.855469 18.164062 25.433594 18.101562 C 25.296875 18.082031 25.152344 18.136719 25.011719 18.125 C 24.8125 18.105469 24.746094 18.222656 24.707031 18.382812 C 24.59375 18.878906 24.476562 19.375 24.371094 19.875 C 24.34375 20.019531 24.355469 20.175781 24.355469 20.328125 C 24.355469 20.425781 24.394531 20.511719 24.503906 20.527344 C 24.617188 20.542969 24.667969 20.464844 24.703125 20.371094 C 24.71875 20.324219 24.738281 20.277344 24.75 20.226562 C 24.792969 20.035156 24.835938 19.84375 24.886719 19.613281 C 24.941406 19.691406 24.976562 19.742188 25.011719 19.796875 C 25.183594 20.042969 25.355469 20.289062 25.527344 20.535156 C 25.566406 20.585938 25.617188 20.644531 25.675781 20.667969 C 25.730469 20.6875 25.808594 20.679688 25.855469 20.652344 C 25.886719 20.632812 25.890625 20.542969 25.878906 20.496094 C 25.855469 20.417969 25.8125 20.34375 25.765625 20.273438 C 25.570312 19.972656 25.367188 19.679688 25.15625 19.359375 C 25.394531 19.261719 25.621094 19.167969 25.773438 18.964844 "/><path style=" stroke:none;fill-rule:nonzero;fill:#000000;fill-opacity:1;" d="M 23.507812 19.058594 C 23.421875 19.058594 23.351562 19.058594 23.265625 19.058594 C 23.289062 18.882812 23.367188 18.753906 23.507812 18.632812 C 23.507812 18.792969 23.507812 18.925781 23.507812 19.058594 Z M 23.898438 18.542969 C 23.890625 18.429688 23.839844 18.3125 23.785156 18.210938 C 23.675781 18 23.484375 17.972656 23.316406 18.136719 C 23.246094 18.207031 23.179688 18.285156 23.128906 18.371094 C 22.816406 18.925781 22.570312 19.511719 22.4375 20.140625 C 22.421875 20.210938 22.421875 20.292969 22.441406 20.363281 C 22.453125 20.410156 22.511719 20.472656 22.550781 20.476562 C 22.605469 20.476562 22.6875 20.445312 22.714844 20.398438 C 22.761719 20.316406 22.785156 20.214844 22.816406 20.117188 C 22.902344 19.867188 22.984375 19.617188 23.074219 19.359375 C 23.238281 19.382812 23.367188 19.398438 23.515625 19.417969 C 23.515625 19.652344 23.515625 19.863281 23.519531 20.070312 C 23.519531 20.144531 23.523438 20.222656 23.542969 20.292969 C 23.570312 20.390625 23.640625 20.457031 23.742188 20.460938 C 23.851562 20.464844 23.933594 20.402344 23.960938 20.292969 C 23.984375 20.210938 24.003906 20.125 23.996094 20.046875 C 23.96875 19.542969 23.941406 19.042969 23.898438 18.542969 "/><path style=" stroke:none;fill-rule:nonzero;fill:#000000;fill-opacity:1;" d="M 30.898438 18.46875 C 30.632812 18.445312 30.367188 18.421875 30.105469 18.417969 C 29.980469 18.414062 29.882812 18.484375 29.855469 18.621094 C 29.828125 18.761719 29.789062 18.898438 29.769531 19.039062 C 29.734375 19.328125 29.710938 19.621094 29.679688 19.910156 C 29.65625 20.160156 29.621094 20.410156 29.609375 20.660156 C 29.597656 20.886719 29.699219 20.976562 29.925781 20.988281 C 30.039062 20.996094 30.15625 21.015625 30.269531 21.011719 C 30.417969 21 30.566406 20.980469 30.710938 20.941406 C 30.816406 20.914062 30.878906 20.828125 30.863281 20.710938 C 30.84375 20.589844 30.753906 20.554688 30.644531 20.550781 C 30.601562 20.546875 30.558594 20.558594 30.519531 20.558594 C 30.375 20.554688 30.226562 20.550781 30.074219 20.546875 C 30.09375 20.269531 30.113281 20.03125 30.128906 19.777344 C 30.324219 19.777344 30.507812 19.777344 30.6875 19.777344 C 30.804688 19.777344 30.90625 19.753906 30.933594 19.617188 C 30.953125 19.503906 30.875 19.414062 30.726562 19.378906 C 30.675781 19.367188 30.625 19.367188 30.578125 19.359375 C 30.433594 19.335938 30.289062 19.3125 30.140625 19.285156 C 30.152344 19.109375 30.164062 18.953125 30.175781 18.785156 C 30.230469 18.78125 30.28125 18.773438 30.328125 18.773438 C 30.511719 18.769531 30.695312 18.769531 30.878906 18.765625 C 30.972656 18.761719 31.039062 18.71875 31.039062 18.613281 C 31.039062 18.527344 30.984375 18.472656 30.898438 18.46875 "/><path style=" stroke:none;fill-rule:nonzero;fill:#000000;fill-opacity:1;" d="M 24.707031 15.796875 C 24.710938 15.792969 24.710938 15.792969 24.714844 15.789062 C 24.710938 15.789062 24.707031 15.789062 24.707031 15.789062 C 24.707031 15.792969 24.707031 15.792969 24.707031 15.796875 "/><path style=" stroke:none;fill-rule:nonzero;fill:#000000;fill-opacity:1;" d="M 24.660156 16.863281 C 24.660156 16.96875 24.683594 17.082031 24.71875 17.183594 C 24.820312 17.472656 25.082031 17.554688 25.308594 17.355469 C 25.429688 17.246094 25.546875 17.109375 25.601562 16.960938 C 25.699219 16.703125 25.75 16.429688 25.816406 16.160156 C 25.835938 16.0625 25.855469 15.960938 25.84375 15.863281 C 25.835938 15.800781 25.789062 15.71875 25.734375 15.691406 C 25.660156 15.648438 25.589844 15.710938 25.5625 15.789062 C 25.519531 15.894531 25.492188 16.007812 25.460938 16.121094 C 25.394531 16.335938 25.339844 16.554688 25.265625 16.769531 C 25.242188 16.847656 25.222656 16.972656 25.101562 16.953125 C 24.972656 16.933594 24.988281 16.800781 24.980469 16.707031 C 24.972656 16.566406 24.984375 16.425781 24.988281 16.28125 C 24.996094 16.15625 25.015625 16.03125 25.019531 15.90625 C 25.019531 15.804688 25.066406 15.671875 24.921875 15.628906 C 24.792969 15.589844 24.777344 15.726562 24.714844 15.789062 C 24.710938 15.832031 24.710938 15.871094 24.710938 15.914062 C 24.691406 16.230469 24.667969 16.546875 24.660156 16.863281 "/><path style=" stroke:none;fill-rule:nonzero;fill:#000000;fill-opacity:1;" d="M 25.769531 17.0625 C 25.757812 17.132812 25.769531 17.21875 25.808594 17.273438 C 25.925781 17.4375 26.082031 17.539062 26.296875 17.523438 C 26.546875 17.503906 26.765625 17.410156 26.941406 17.230469 C 27.144531 17.019531 27.148438 16.714844 26.933594 16.515625 C 26.839844 16.425781 26.714844 16.363281 26.605469 16.292969 C 26.53125 16.25 26.453125 16.210938 26.335938 16.152344 C 26.441406 16.070312 26.511719 16.019531 26.589844 15.957031 C 26.671875 16.050781 26.726562 16.136719 26.804688 16.195312 C 26.847656 16.230469 26.9375 16.25 26.976562 16.230469 C 27.023438 16.207031 27.0625 16.113281 27.050781 16.066406 C 27.03125 15.980469 26.988281 15.886719 26.925781 15.828125 C 26.691406 15.601562 26.421875 15.621094 26.207031 15.867188 C 25.984375 16.125 26.023438 16.359375 26.324219 16.523438 C 26.410156 16.570312 26.507812 16.601562 26.589844 16.660156 C 26.746094 16.773438 26.75 16.949219 26.585938 17.050781 C 26.480469 17.117188 26.359375 17.175781 26.242188 17.175781 C 26.167969 17.179688 26.089844 17.070312 26.015625 17.011719 C 26 17.003906 25.988281 16.988281 25.976562 16.980469 C 25.886719 16.921875 25.78125 16.957031 25.769531 17.0625 "/><path style=" stroke:none;fill-rule:nonzero;fill:#000000;fill-opacity:1;" d="M 28.941406 20.226562 C 28.847656 20.292969 28.753906 20.359375 28.621094 20.453125 C 28.597656 20.28125 28.558594 20.152344 28.566406 20.027344 C 28.582031 19.742188 28.625 19.460938 28.648438 19.175781 C 28.664062 19.054688 28.675781 18.925781 28.664062 18.804688 C 28.660156 18.753906 28.597656 18.6875 28.546875 18.667969 C 28.472656 18.636719 28.398438 18.671875 28.367188 18.753906 C 28.328125 18.847656 28.289062 18.941406 28.273438 19.039062 C 28.21875 19.417969 28.171875 19.800781 28.132812 20.183594 C 28.121094 20.28125 28.121094 20.386719 28.140625 20.484375 C 28.207031 20.839844 28.472656 20.972656 28.789062 20.796875 C 28.925781 20.722656 29.046875 20.617188 29.167969 20.515625 C 29.292969 20.40625 29.3125 20.296875 29.25 20.210938 C 29.179688 20.125 29.082031 20.128906 28.941406 20.226562 "/><path style=" stroke:none;fill-rule:nonzero;fill:#000000;fill-opacity:1;" d="M 24.515625 15.582031 C 24.144531 15.609375 23.769531 15.652344 23.398438 15.695312 C 23.359375 15.699219 23.320312 15.71875 23.289062 15.742188 C 23.21875 15.796875 23.230469 15.894531 23.3125 15.925781 C 23.363281 15.941406 23.425781 15.941406 23.484375 15.941406 C 23.621094 15.945312 23.757812 15.945312 23.925781 15.945312 C 23.855469 16.226562 23.8125 16.472656 23.734375 16.710938 C 23.636719 16.996094 23.527344 17.035156 23.25 16.910156 C 23.234375 16.902344 23.21875 16.890625 23.203125 16.890625 C 23.15625 16.894531 23.089844 16.890625 23.066406 16.917969 C 23.039062 16.953125 23.015625 17.03125 23.03125 17.070312 C 23.089844 17.203125 23.175781 17.3125 23.324219 17.359375 C 23.570312 17.433594 23.855469 17.335938 23.984375 17.085938 C 24.074219 16.917969 24.125 16.726562 24.160156 16.542969 C 24.203125 16.339844 24.207031 16.132812 24.226562 15.945312 C 24.398438 15.886719 24.550781 15.839844 24.707031 15.789062 C 24.683594 15.601562 24.667969 15.570312 24.515625 15.582031 "/><path style=" stroke:none;fill-rule:nonzero;fill:#000000;fill-opacity:1;" d="M 28.167969 17.074219 C 28.1875 16.78125 28.203125 16.492188 28.21875 16.195312 C 28.378906 16.175781 28.519531 16.160156 28.660156 16.148438 C 28.746094 16.140625 28.816406 16.101562 28.808594 16.015625 C 28.800781 15.964844 28.734375 15.917969 28.691406 15.875 C 28.683594 15.863281 28.664062 15.855469 28.648438 15.851562 C 28.277344 15.765625 27.90625 15.78125 27.53125 15.832031 C 27.4375 15.84375 27.371094 15.910156 27.390625 16 C 27.402344 16.058594 27.476562 16.121094 27.535156 16.144531 C 27.628906 16.175781 27.730469 16.175781 27.859375 16.195312 C 27.851562 16.261719 27.84375 16.308594 27.84375 16.359375 C 27.820312 16.691406 27.789062 17.027344 27.773438 17.359375 C 27.769531 17.5 27.84375 17.59375 27.949219 17.589844 C 28.070312 17.585938 28.125 17.507812 28.140625 17.398438 C 28.15625 17.289062 28.164062 17.179688 28.167969 17.074219 "/><path style=" stroke:none;fill-rule:nonzero;fill:#000000;fill-opacity:1;" d="M 28.289062 18.308594 C 28.285156 18.4375 28.398438 18.550781 28.523438 18.550781 C 28.648438 18.550781 28.765625 18.4375 28.769531 18.3125 C 28.773438 18.183594 28.664062 18.070312 28.53125 18.070312 C 28.410156 18.070312 28.292969 18.183594 28.289062 18.308594 "/><path style=" stroke:none;fill-rule:nonzero;fill:#000000;fill-opacity:1;" d="M 17.261719 20.847656 C 17.144531 20.855469 17.046875 20.964844 17.054688 21.085938 C 17.066406 21.210938 17.171875 21.300781 17.292969 21.285156 C 17.40625 21.273438 17.496094 21.175781 17.492188 21.066406 C 17.492188 20.945312 17.378906 20.839844 17.261719 20.847656 "/><path style=" stroke:none;fill-rule:nonzero;fill:#000000;fill-opacity:1;" d="M 34.378906 20.863281 C 34.496094 20.871094 34.605469 20.765625 34.609375 20.648438 C 34.609375 20.527344 34.507812 20.425781 34.386719 20.429688 C 34.273438 20.429688 34.179688 20.515625 34.171875 20.628906 C 34.164062 20.753906 34.257812 20.859375 34.378906 20.863281 "/><path style=" stroke:none;fill-rule:nonzero;fill:#000000;fill-opacity:1;" d="M 33.71875 16.636719 C 33.835938 16.636719 33.9375 16.535156 33.933594 16.414062 C 33.933594 16.296875 33.84375 16.207031 33.734375 16.203125 C 33.617188 16.203125 33.515625 16.304688 33.515625 16.425781 C 33.519531 16.539062 33.609375 16.632812 33.71875 16.636719 "/><path style=" stroke:none;fill-rule:nonzero;fill:#000000;fill-opacity:1;" d="M 18.359375 16.664062 C 18.273438 16.644531 18.195312 16.742188 18.199219 16.839844 C 18.207031 16.9375 18.261719 16.992188 18.359375 16.996094 C 18.449219 17 18.523438 16.914062 18.515625 16.769531 C 18.480469 16.742188 18.425781 16.679688 18.359375 16.664062 "/></g></svg>