<svg xmlns="http://www.w3.org/2000/svg" xmlns:xlink="http://www.w3.org/1999/xlink" width="200" zoomAndPan="magnify" viewBox="0 0 150 30.000001" height="40" preserveAspectRatio="xMidYMid meet" version="1.0"><defs><clipPath id="1de295f9e2"><path d="M 19.609375 10.222656 L 29 10.222656 L 29 18.933594 L 19.609375 18.933594 Z M 19.609375 10.222656 " clip-rule="nonzero"/></clipPath><clipPath id="6b9f9b802a"><path d="M 36 10.222656 L 46 10.222656 L 46 18.933594 L 36 18.933594 Z M 36 10.222656 " clip-rule="nonzero"/></clipPath><clipPath id="9c763c6325"><path d="M 53 10.222656 L 63 10.222656 L 63 18.933594 L 53 18.933594 Z M 53 10.222656 " clip-rule="nonzero"/></clipPath><clipPath id="2d3074e4b8"><path d="M 70 10.222656 L 80 10.222656 L 80 18.933594 L 70 18.933594 Z M 70 10.222656 " clip-rule="nonzero"/></clipPath><clipPath id="735c09a514"><path d="M 87 10.222656 L 97 10.222656 L 97 18.933594 L 87 18.933594 Z M 87 10.222656 " clip-rule="nonzero"/></clipPath><clipPath id="c3b07b7f16"><path d="M 105 10.222656 L 114 10.222656 L 114 18.933594 L 105 18.933594 Z M 105 10.222656 " clip-rule="nonzero"/></clipPath><clipPath id="d8e2ccc879"><path d="M 122 10.222656 L 130.65625 10.222656 L 130.65625 18.933594 L 122 18.933594 Z M 122 10.222656 " clip-rule="nonzero"/></clipPath></defs><g clip-path="url(#1de295f9e2)"><path fill="#f43525" d="M 28.148438 14.578125 C 28.148438 14.863281 28.121094 15.144531 28.066406 15.421875 C 28.011719 15.699219 27.933594 15.972656 27.824219 16.234375 C 27.71875 16.496094 27.585938 16.746094 27.429688 16.980469 C 27.273438 17.21875 27.097656 17.433594 26.898438 17.636719 C 26.699219 17.835938 26.484375 18.015625 26.253906 18.171875 C 26.019531 18.332031 25.773438 18.464844 25.511719 18.574219 C 25.253906 18.679688 24.988281 18.761719 24.710938 18.820312 C 24.4375 18.875 24.160156 18.902344 23.878906 18.902344 C 23.597656 18.902344 23.320312 18.875 23.046875 18.820312 C 22.769531 18.761719 22.503906 18.679688 22.246094 18.574219 C 21.984375 18.464844 21.738281 18.332031 21.507812 18.171875 C 21.273438 18.015625 21.058594 17.835938 20.859375 17.636719 C 20.660156 17.433594 20.484375 17.21875 20.328125 16.980469 C 20.171875 16.746094 20.039062 16.496094 19.933594 16.234375 C 19.824219 15.972656 19.746094 15.699219 19.691406 15.421875 C 19.636719 15.144531 19.609375 14.863281 19.609375 14.578125 C 19.609375 14.296875 19.636719 14.015625 19.691406 13.734375 C 19.746094 13.457031 19.824219 13.1875 19.933594 12.925781 C 20.039062 12.664062 20.171875 12.414062 20.328125 12.179688 C 20.484375 11.941406 20.660156 11.722656 20.859375 11.523438 C 21.058594 11.320312 21.273438 11.144531 21.507812 10.984375 C 21.738281 10.828125 21.984375 10.695312 22.246094 10.585938 C 22.503906 10.476562 22.769531 10.394531 23.046875 10.339844 C 23.320312 10.285156 23.597656 10.257812 23.878906 10.257812 C 24.160156 10.257812 24.4375 10.285156 24.710938 10.339844 C 24.988281 10.394531 25.253906 10.476562 25.511719 10.585938 C 25.773438 10.695312 26.019531 10.828125 26.253906 10.984375 C 26.484375 11.144531 26.699219 11.320312 26.898438 11.523438 C 27.097656 11.722656 27.273438 11.941406 27.429688 12.179688 C 27.585938 12.414062 27.71875 12.664062 27.824219 12.925781 C 27.933594 13.1875 28.011719 13.457031 28.066406 13.734375 C 28.121094 14.015625 28.148438 14.296875 28.148438 14.578125 Z M 28.148438 14.578125 " fill-opacity="1" fill-rule="nonzero"/></g><g clip-path="url(#6b9f9b802a)"><path fill="#ff8901" d="M 45.234375 14.578125 C 45.234375 14.863281 45.207031 15.144531 45.152344 15.421875 C 45.097656 15.699219 45.015625 15.972656 44.910156 16.234375 C 44.800781 16.496094 44.671875 16.746094 44.515625 16.980469 C 44.359375 17.21875 44.183594 17.433594 43.984375 17.636719 C 43.785156 17.835938 43.570312 18.015625 43.335938 18.171875 C 43.101562 18.332031 42.855469 18.464844 42.597656 18.574219 C 42.339844 18.679688 42.070312 18.761719 41.796875 18.820312 C 41.523438 18.875 41.242188 18.902344 40.964844 18.902344 C 40.683594 18.902344 40.40625 18.875 40.128906 18.820312 C 39.855469 18.761719 39.589844 18.679688 39.328125 18.574219 C 39.070312 18.464844 38.824219 18.332031 38.589844 18.171875 C 38.355469 18.015625 38.140625 17.835938 37.941406 17.636719 C 37.746094 17.433594 37.566406 17.21875 37.414062 16.980469 C 37.257812 16.746094 37.125 16.496094 37.015625 16.234375 C 36.910156 15.972656 36.828125 15.699219 36.773438 15.421875 C 36.71875 15.144531 36.691406 14.863281 36.691406 14.578125 C 36.691406 14.296875 36.71875 14.015625 36.773438 13.734375 C 36.828125 13.457031 36.910156 13.1875 37.015625 12.925781 C 37.125 12.664062 37.257812 12.414062 37.414062 12.179688 C 37.566406 11.941406 37.746094 11.722656 37.941406 11.523438 C 38.140625 11.320312 38.355469 11.144531 38.589844 10.984375 C 38.824219 10.828125 39.070312 10.695312 39.328125 10.585938 C 39.589844 10.476562 39.855469 10.394531 40.128906 10.339844 C 40.40625 10.285156 40.683594 10.257812 40.964844 10.257812 C 41.242188 10.257812 41.523438 10.285156 41.796875 10.339844 C 42.070312 10.394531 42.339844 10.476562 42.597656 10.585938 C 42.855469 10.695312 43.101562 10.828125 43.335938 10.984375 C 43.570312 11.144531 43.785156 11.320312 43.984375 11.523438 C 44.183594 11.722656 44.359375 11.941406 44.515625 12.179688 C 44.671875 12.414062 44.800781 12.664062 44.910156 12.925781 C 45.015625 13.1875 45.097656 13.457031 45.152344 13.734375 C 45.207031 14.015625 45.234375 14.296875 45.234375 14.578125 Z M 45.234375 14.578125 " fill-opacity="1" fill-rule="nonzero"/></g><g clip-path="url(#9c763c6325)"><path fill="#fad717" d="M 62.320312 14.578125 C 62.320312 14.863281 62.292969 15.144531 62.238281 15.421875 C 62.183594 15.699219 62.101562 15.972656 61.992188 16.234375 C 61.886719 16.496094 61.753906 16.746094 61.597656 16.980469 C 61.441406 17.21875 61.265625 17.433594 61.066406 17.636719 C 60.871094 17.835938 60.652344 18.015625 60.421875 18.171875 C 60.1875 18.332031 59.941406 18.464844 59.683594 18.574219 C 59.421875 18.679688 59.15625 18.761719 58.882812 18.820312 C 58.605469 18.875 58.328125 18.902344 58.046875 18.902344 C 57.765625 18.902344 57.488281 18.875 57.214844 18.820312 C 56.941406 18.761719 56.671875 18.679688 56.414062 18.574219 C 56.152344 18.464844 55.90625 18.332031 55.675781 18.171875 C 55.441406 18.015625 55.226562 17.835938 55.027344 17.636719 C 54.828125 17.433594 54.652344 17.21875 54.496094 16.980469 C 54.339844 16.746094 54.210938 16.496094 54.101562 16.234375 C 53.996094 15.972656 53.914062 15.699219 53.859375 15.421875 C 53.804688 15.144531 53.777344 14.863281 53.777344 14.578125 C 53.777344 14.296875 53.804688 14.015625 53.859375 13.734375 C 53.914062 13.457031 53.996094 13.1875 54.101562 12.925781 C 54.210938 12.664062 54.339844 12.414062 54.496094 12.179688 C 54.652344 11.941406 54.828125 11.722656 55.027344 11.523438 C 55.226562 11.320312 55.441406 11.144531 55.675781 10.984375 C 55.90625 10.828125 56.152344 10.695312 56.414062 10.585938 C 56.671875 10.476562 56.941406 10.394531 57.214844 10.339844 C 57.488281 10.285156 57.765625 10.257812 58.046875 10.257812 C 58.328125 10.257812 58.605469 10.285156 58.882812 10.339844 C 59.15625 10.394531 59.421875 10.476562 59.683594 10.585938 C 59.941406 10.695312 60.1875 10.828125 60.421875 10.984375 C 60.652344 11.144531 60.871094 11.320312 61.066406 11.523438 C 61.265625 11.722656 61.441406 11.941406 61.597656 12.179688 C 61.753906 12.414062 61.886719 12.664062 61.992188 12.925781 C 62.101562 13.1875 62.183594 13.457031 62.238281 13.734375 C 62.292969 14.015625 62.320312 14.296875 62.320312 14.578125 Z M 62.320312 14.578125 " fill-opacity="1" fill-rule="nonzero"/></g><g clip-path="url(#2d3074e4b8)"><path fill="#00ba71" d="M 79.402344 14.578125 C 79.402344 14.863281 79.375 15.144531 79.320312 15.421875 C 79.265625 15.699219 79.183594 15.972656 79.078125 16.234375 C 78.972656 16.496094 78.839844 16.746094 78.683594 16.980469 C 78.527344 17.21875 78.351562 17.433594 78.152344 17.636719 C 77.953125 17.835938 77.738281 18.015625 77.503906 18.171875 C 77.273438 18.332031 77.027344 18.464844 76.765625 18.574219 C 76.507812 18.679688 76.242188 18.761719 75.964844 18.820312 C 75.691406 18.875 75.414062 18.902344 75.132812 18.902344 C 74.851562 18.902344 74.574219 18.875 74.300781 18.820312 C 74.023438 18.761719 73.757812 18.679688 73.496094 18.574219 C 73.238281 18.464844 72.992188 18.332031 72.757812 18.171875 C 72.527344 18.015625 72.308594 17.835938 72.113281 17.636719 C 71.914062 17.433594 71.738281 17.21875 71.582031 16.980469 C 71.425781 16.746094 71.292969 16.496094 71.1875 16.234375 C 71.078125 15.972656 70.996094 15.699219 70.941406 15.421875 C 70.886719 15.144531 70.859375 14.863281 70.859375 14.578125 C 70.859375 14.296875 70.886719 14.015625 70.941406 13.734375 C 70.996094 13.457031 71.078125 13.1875 71.1875 12.925781 C 71.292969 12.664062 71.425781 12.414062 71.582031 12.179688 C 71.738281 11.941406 71.914062 11.722656 72.113281 11.523438 C 72.308594 11.320312 72.527344 11.144531 72.757812 10.984375 C 72.992188 10.828125 73.238281 10.695312 73.496094 10.585938 C 73.757812 10.476562 74.023438 10.394531 74.300781 10.339844 C 74.574219 10.285156 74.851562 10.257812 75.132812 10.257812 C 75.414062 10.257812 75.691406 10.285156 75.964844 10.339844 C 76.242188 10.394531 76.507812 10.476562 76.765625 10.585938 C 77.027344 10.695312 77.273438 10.828125 77.503906 10.984375 C 77.738281 11.144531 77.953125 11.320312 78.152344 11.523438 C 78.351562 11.722656 78.527344 11.941406 78.683594 12.179688 C 78.839844 12.414062 78.972656 12.664062 79.078125 12.925781 C 79.183594 13.1875 79.265625 13.457031 79.320312 13.734375 C 79.375 14.015625 79.402344 14.296875 79.402344 14.578125 Z M 79.402344 14.578125 " fill-opacity="1" fill-rule="nonzero"/></g><g clip-path="url(#735c09a514)"><path fill="#00c2de" d="M 96.488281 14.578125 C 96.488281 14.863281 96.460938 15.144531 96.40625 15.421875 C 96.351562 15.699219 96.269531 15.972656 96.164062 16.234375 C 96.054688 16.496094 95.921875 16.746094 95.769531 16.980469 C 95.613281 17.21875 95.433594 17.433594 95.238281 17.636719 C 95.039062 17.835938 94.824219 18.015625 94.589844 18.171875 C 94.355469 18.332031 94.109375 18.464844 93.851562 18.574219 C 93.59375 18.679688 93.324219 18.761719 93.050781 18.820312 C 92.773438 18.875 92.496094 18.902344 92.214844 18.902344 C 91.9375 18.902344 91.660156 18.875 91.382812 18.820312 C 91.109375 18.761719 90.839844 18.679688 90.582031 18.574219 C 90.324219 18.464844 90.078125 18.332031 89.84375 18.171875 C 89.609375 18.015625 89.394531 17.835938 89.195312 17.636719 C 88.996094 17.433594 88.820312 17.21875 88.664062 16.980469 C 88.507812 16.746094 88.378906 16.496094 88.269531 16.234375 C 88.164062 15.972656 88.082031 15.699219 88.027344 15.421875 C 87.972656 15.144531 87.945312 14.863281 87.945312 14.578125 C 87.945312 14.296875 87.972656 14.015625 88.027344 13.734375 C 88.082031 13.457031 88.164062 13.1875 88.269531 12.925781 C 88.378906 12.664062 88.507812 12.414062 88.664062 12.179688 C 88.820312 11.941406 88.996094 11.722656 89.195312 11.523438 C 89.394531 11.320312 89.609375 11.144531 89.84375 10.984375 C 90.078125 10.828125 90.324219 10.695312 90.582031 10.585938 C 90.839844 10.476562 91.109375 10.394531 91.382812 10.339844 C 91.660156 10.285156 91.9375 10.257812 92.214844 10.257812 C 92.496094 10.257812 92.773438 10.285156 93.050781 10.339844 C 93.324219 10.394531 93.59375 10.476562 93.851562 10.585938 C 94.109375 10.695312 94.355469 10.828125 94.589844 10.984375 C 94.824219 11.144531 95.039062 11.320312 95.238281 11.523438 C 95.433594 11.722656 95.613281 11.941406 95.769531 12.179688 C 95.921875 12.414062 96.054688 12.664062 96.164062 12.925781 C 96.269531 13.1875 96.351562 13.457031 96.40625 13.734375 C 96.460938 14.015625 96.488281 14.296875 96.488281 14.578125 Z M 96.488281 14.578125 " fill-opacity="1" fill-rule="nonzero"/></g><g clip-path="url(#c3b07b7f16)"><path fill="#00418d" d="M 113.570312 14.578125 C 113.570312 14.863281 113.542969 15.144531 113.488281 15.421875 C 113.433594 15.699219 113.355469 15.972656 113.246094 16.234375 C 113.140625 16.496094 113.007812 16.746094 112.851562 16.980469 C 112.695312 17.21875 112.519531 17.433594 112.320312 17.636719 C 112.121094 17.835938 111.90625 18.015625 111.671875 18.171875 C 111.441406 18.332031 111.195312 18.464844 110.933594 18.574219 C 110.675781 18.679688 110.410156 18.761719 110.132812 18.820312 C 109.859375 18.875 109.582031 18.902344 109.300781 18.902344 C 109.019531 18.902344 108.742188 18.875 108.46875 18.820312 C 108.191406 18.761719 107.925781 18.679688 107.667969 18.574219 C 107.40625 18.464844 107.160156 18.332031 106.929688 18.171875 C 106.695312 18.015625 106.480469 17.835938 106.28125 17.636719 C 106.082031 17.433594 105.90625 17.21875 105.75 16.980469 C 105.59375 16.746094 105.460938 16.496094 105.355469 16.234375 C 105.246094 15.972656 105.167969 15.699219 105.113281 15.421875 C 105.058594 15.144531 105.03125 14.863281 105.03125 14.578125 C 105.03125 14.296875 105.058594 14.015625 105.113281 13.734375 C 105.167969 13.457031 105.246094 13.1875 105.355469 12.925781 C 105.460938 12.664062 105.59375 12.414062 105.75 12.179688 C 105.90625 11.941406 106.082031 11.722656 106.28125 11.523438 C 106.480469 11.320312 106.695312 11.144531 106.929688 10.984375 C 107.160156 10.828125 107.40625 10.695312 107.667969 10.585938 C 107.925781 10.476562 108.191406 10.394531 108.46875 10.339844 C 108.742188 10.285156 109.019531 10.257812 109.300781 10.257812 C 109.582031 10.257812 109.859375 10.285156 110.132812 10.339844 C 110.410156 10.394531 110.675781 10.476562 110.933594 10.585938 C 111.195312 10.695312 111.441406 10.828125 111.671875 10.984375 C 111.90625 11.144531 112.121094 11.320312 112.320312 11.523438 C 112.519531 11.722656 112.695312 11.941406 112.851562 12.179688 C 113.007812 12.414062 113.140625 12.664062 113.246094 12.925781 C 113.355469 13.1875 113.433594 13.457031 113.488281 13.734375 C 113.542969 14.015625 113.570312 14.296875 113.570312 14.578125 Z M 113.570312 14.578125 " fill-opacity="1" fill-rule="nonzero"/></g><g clip-path="url(#d8e2ccc879)"><path fill="#5f2879" d="M 130.65625 14.578125 C 130.65625 14.863281 130.628906 15.144531 130.574219 15.421875 C 130.519531 15.699219 130.4375 15.972656 130.332031 16.234375 C 130.222656 16.496094 130.09375 16.746094 129.9375 16.980469 C 129.78125 17.21875 129.605469 17.433594 129.40625 17.636719 C 129.207031 17.835938 128.992188 18.015625 128.757812 18.171875 C 128.523438 18.332031 128.277344 18.464844 128.019531 18.574219 C 127.761719 18.679688 127.492188 18.761719 127.21875 18.820312 C 126.945312 18.875 126.664062 18.902344 126.386719 18.902344 C 126.105469 18.902344 125.828125 18.875 125.550781 18.820312 C 125.277344 18.761719 125.011719 18.679688 124.75 18.574219 C 124.492188 18.464844 124.246094 18.332031 124.011719 18.171875 C 123.777344 18.015625 123.5625 17.835938 123.363281 17.636719 C 123.167969 17.433594 122.988281 17.21875 122.832031 16.980469 C 122.679688 16.746094 122.546875 16.496094 122.4375 16.234375 C 122.332031 15.972656 122.25 15.699219 122.195312 15.421875 C 122.140625 15.144531 122.113281 14.863281 122.113281 14.578125 C 122.113281 14.296875 122.140625 14.015625 122.195312 13.734375 C 122.25 13.457031 122.332031 13.1875 122.4375 12.925781 C 122.546875 12.664062 122.679688 12.414062 122.832031 12.179688 C 122.988281 11.941406 123.167969 11.722656 123.363281 11.523438 C 123.5625 11.320312 123.777344 11.144531 124.011719 10.984375 C 124.246094 10.828125 124.492188 10.695312 124.75 10.585938 C 125.011719 10.476562 125.277344 10.394531 125.550781 10.339844 C 125.828125 10.285156 126.105469 10.257812 126.386719 10.257812 C 126.664062 10.257812 126.945312 10.285156 127.21875 10.339844 C 127.492188 10.394531 127.761719 10.476562 128.019531 10.585938 C 128.277344 10.695312 128.523438 10.828125 128.757812 10.984375 C 128.992188 11.144531 129.207031 11.320312 129.40625 11.523438 C 129.605469 11.722656 129.78125 11.941406 129.9375 12.179688 C 130.09375 12.414062 130.222656 12.664062 130.332031 12.925781 C 130.4375 13.1875 130.519531 13.457031 130.574219 13.734375 C 130.628906 14.015625 130.65625 14.296875 130.65625 14.578125 Z M 130.65625 14.578125 " fill-opacity="1" fill-rule="nonzero"/></g></svg>