<svg xmlns="http://www.w3.org/2000/svg" xmlns:xlink="http://www.w3.org/1999/xlink" width="70" zoomAndPan="magnify" viewBox="0 0 52.5 52.499999" height="70" preserveAspectRatio="xMidYMid meet" version="1.0"><defs><clipPath id="3ebcf7d7a4"><path d="M 8.714844 2.230469 L 43 2.230469 L 43 49.777344 L 8.714844 49.777344 Z M 8.714844 2.230469 " clip-rule="nonzero"/></clipPath><clipPath id="60b270e5d5"><path d="M 8.714844 13 L 43 13 L 43 44 L 8.714844 44 Z M 8.714844 13 " clip-rule="nonzero"/></clipPath></defs><g clip-path="url(#3ebcf7d7a4)"><path fill="#f4eadc" d="M 39.054688 21.859375 L 42.496094 19.839844 L 42.554688 19.867188 C 42.566406 19.871094 42.582031 19.875 42.59375 19.875 C 42.628906 19.875 42.664062 19.855469 42.679688 19.820312 C 42.703125 19.773438 42.683594 19.71875 42.636719 19.695312 L 42.550781 19.65625 L 41.53125 16.828125 L 41.566406 16.804688 C 41.609375 16.773438 41.621094 16.714844 41.589844 16.671875 C 41.558594 16.628906 41.5 16.617188 41.457031 16.648438 L 41.410156 16.679688 L 39.191406 15.648438 L 39.1875 15.59375 C 39.183594 15.554688 39.15625 15.523438 39.121094 15.511719 C 39.085938 15.492188 39.046875 15.492188 39.011719 15.515625 L 38.96875 15.546875 L 36.746094 14.515625 L 36.742188 14.460938 C 36.738281 14.40625 36.691406 14.367188 36.640625 14.371094 C 36.585938 14.378906 36.546875 14.421875 36.550781 14.476562 L 36.554688 14.5 L 33.6875 15.542969 L 33.601562 15.5 C 33.554688 15.480469 33.496094 15.5 33.472656 15.546875 C 33.453125 15.59375 33.472656 15.652344 33.519531 15.671875 L 33.578125 15.699219 L 34.210938 19.609375 C 33.902344 20.269531 33.886719 20.988281 34.113281 21.625 C 32.945312 21.304688 31.753906 21.183594 30.582031 21.242188 C 29.160156 16.742188 24.917969 13.472656 19.902344 13.472656 C 13.722656 13.472656 8.714844 18.433594 8.714844 24.550781 C 8.714844 30.671875 13.722656 35.632812 19.902344 35.632812 C 20.097656 35.632812 20.289062 35.628906 20.480469 35.617188 C 21.382812 38.476562 23.449219 40.964844 26.40625 42.339844 C 32 44.9375 38.664062 42.550781 41.285156 37.007812 C 43.632812 32.050781 41.945312 26.246094 37.554688 23.21875 C 38.191406 22.988281 38.742188 22.515625 39.054688 21.859375 M 20.035156 33.539062 C 19.992188 33.539062 19.945312 33.539062 19.902344 33.539062 C 14.898438 33.539062 10.824219 29.507812 10.824219 24.550781 C 10.824219 19.597656 14.898438 15.5625 19.902344 15.5625 C 23.847656 15.5625 27.210938 18.070312 28.460938 21.554688 C 25.304688 22.332031 22.511719 24.460938 21.023438 27.605469 C 20.117188 29.527344 19.8125 31.574219 20.035156 33.539062 Z M 22.9375 28.492188 C 24.136719 25.957031 26.382812 24.238281 28.929688 23.597656 C 28.960938 23.910156 28.980469 24.230469 28.980469 24.550781 C 28.980469 28.746094 26.0625 32.277344 22.132812 33.265625 C 21.957031 31.683594 22.207031 30.035156 22.9375 28.492188 Z M 39.375 36.121094 C 37.25 40.609375 31.835938 42.546875 27.304688 40.445312 C 25.015625 39.382812 23.386719 37.496094 22.605469 35.304688 C 27.476562 34.109375 31.089844 29.75 31.089844 24.550781 C 31.089844 24.136719 31.066406 23.726562 31.023438 23.320312 C 32.359375 23.296875 33.71875 23.570312 35.007812 24.167969 C 39.539062 26.273438 41.5 31.632812 39.375 36.121094 Z M 30.644531 11.726562 L 32.960938 12.15625 L 30.644531 12.585938 L 30.210938 14.882812 L 29.777344 12.585938 L 27.460938 12.15625 L 29.777344 11.726562 L 30.210938 9.433594 Z M 34.359375 7.234375 L 30.734375 6.5625 L 34.359375 5.894531 L 35.035156 2.304688 L 35.714844 5.894531 L 39.335938 6.5625 L 35.714844 7.234375 L 35.035156 10.824219 Z M 14.21875 40.664062 L 11.898438 41.09375 L 11.464844 43.390625 L 11.03125 41.09375 L 8.714844 40.664062 L 11.03125 40.234375 L 11.464844 37.941406 L 11.898438 40.234375 Z M 17.792969 44.769531 L 21.414062 45.441406 L 17.792969 46.113281 L 17.113281 49.699219 L 16.4375 46.113281 L 12.8125 45.441406 L 16.4375 44.769531 L 17.113281 41.183594 Z M 17.792969 44.769531 " fill-opacity="1" fill-rule="nonzero"/></g><g clip-path="url(#60b270e5d5)"><path fill="#d59f35" d="M 37.554688 23.21875 C 38.191406 22.988281 38.742188 22.515625 39.054688 21.859375 L 37.542969 21.15625 L 37.535156 21.167969 C 37.515625 21.195312 37.488281 21.210938 37.453125 21.210938 C 37.4375 21.210938 37.417969 21.207031 37.402344 21.195312 C 37.363281 21.171875 37.351562 21.121094 37.371094 21.078125 L 35.898438 20.394531 C 35.882812 20.425781 35.847656 20.449219 35.8125 20.449219 C 35.800781 20.449219 35.792969 20.445312 35.78125 20.445312 C 35.730469 20.429688 35.703125 20.375 35.71875 20.324219 L 35.722656 20.3125 L 35.351562 20.140625 L 34.210938 19.609375 C 33.902344 20.269531 33.886719 20.988281 34.113281 21.625 C 32.945312 21.304688 31.753906 21.183594 30.582031 21.242188 C 29.160156 16.742188 24.917969 13.472656 19.902344 13.472656 C 13.722656 13.472656 8.714844 18.433594 8.714844 24.550781 C 8.714844 30.671875 13.722656 35.632812 19.902344 35.632812 C 20.097656 35.632812 20.289062 35.628906 20.480469 35.617188 C 21.382812 38.476562 23.449219 40.964844 26.40625 42.339844 C 32 44.9375 38.664062 42.550781 41.285156 37.007812 C 43.632812 32.050781 41.945312 26.246094 37.554688 23.21875 Z M 20.035156 33.539062 C 19.992188 33.539062 19.945312 33.539062 19.902344 33.539062 C 14.898438 33.539062 10.824219 29.507812 10.824219 24.550781 C 10.824219 19.597656 14.898438 15.5625 19.902344 15.5625 C 23.847656 15.5625 27.210938 18.070312 28.460938 21.554688 C 25.304688 22.332031 22.511719 24.460938 21.023438 27.605469 C 20.117188 29.527344 19.8125 31.574219 20.035156 33.539062 Z M 22.9375 28.492188 C 24.136719 25.957031 26.382812 24.238281 28.929688 23.597656 C 28.960938 23.910156 28.980469 24.230469 28.980469 24.550781 C 28.980469 28.746094 26.0625 32.277344 22.132812 33.265625 C 21.957031 31.683594 22.207031 30.035156 22.9375 28.492188 Z M 39.375 36.121094 C 37.25 40.609375 31.835938 42.546875 27.304688 40.445312 C 25.015625 39.382812 23.386719 37.496094 22.605469 35.304688 C 27.476562 34.109375 31.089844 29.75 31.089844 24.550781 C 31.089844 24.136719 31.066406 23.726562 31.023438 23.320312 C 32.359375 23.296875 33.71875 23.570312 35.007812 24.167969 C 39.539062 26.273438 41.5 31.632812 39.375 36.121094 Z M 39.375 36.121094 " fill-opacity="1" fill-rule="nonzero"/></g><path fill="#dd855f" d="M 42.636719 19.695312 L 42.550781 19.65625 L 39.5 18.238281 L 41.53125 16.828125 L 41.566406 16.804688 C 41.609375 16.773438 41.621094 16.714844 41.589844 16.671875 C 41.558594 16.628906 41.5 16.617188 41.457031 16.648438 L 41.410156 16.679688 L 39.390625 18.082031 L 39.191406 15.648438 L 39.1875 15.59375 C 39.183594 15.554688 39.15625 15.523438 39.121094 15.511719 C 39.085938 15.492188 39.046875 15.492188 39.011719 15.515625 L 38.96875 15.546875 L 36.949219 16.949219 L 36.746094 14.515625 L 36.742188 14.460938 C 36.738281 14.40625 36.691406 14.367188 36.640625 14.371094 C 36.585938 14.378906 36.546875 14.421875 36.550781 14.476562 L 36.554688 14.5 L 36.757812 16.964844 L 33.6875 15.542969 L 33.601562 15.5 C 33.554688 15.480469 33.496094 15.5 33.472656 15.546875 C 33.453125 15.59375 33.472656 15.652344 33.519531 15.671875 L 33.578125 15.699219 L 36.730469 17.164062 L 35.722656 20.3125 L 35.71875 20.324219 C 35.703125 20.375 35.730469 20.429688 35.78125 20.445312 C 35.792969 20.445312 35.800781 20.449219 35.8125 20.449219 C 35.847656 20.449219 35.882812 20.425781 35.898438 20.394531 C 35.898438 20.390625 35.902344 20.386719 35.902344 20.382812 L 36.902344 17.242188 L 39.171875 18.296875 L 37.375 21.066406 C 37.371094 21.070312 37.371094 21.074219 37.371094 21.078125 C 37.351562 21.117188 37.363281 21.171875 37.402344 21.195312 C 37.417969 21.207031 37.4375 21.210938 37.453125 21.210938 C 37.488281 21.210938 37.515625 21.195312 37.535156 21.167969 L 37.542969 21.15625 L 39.34375 18.378906 L 42.496094 19.839844 L 42.554688 19.867188 C 42.566406 19.871094 42.582031 19.875 42.59375 19.875 C 42.628906 19.875 42.664062 19.855469 42.679688 19.820312 C 42.703125 19.773438 42.683594 19.714844 42.636719 19.695312 Z M 37.058594 17.105469 L 39.007812 15.75 L 39.199219 18.101562 Z M 37.058594 17.105469 " fill-opacity="1" fill-rule="nonzero"/></svg>