<svg xmlns="http://www.w3.org/2000/svg" xmlns:xlink="http://www.w3.org/1999/xlink" width="70" zoomAndPan="magnify" viewBox="0 0 52.5 52.499999" height="70" preserveAspectRatio="xMidYMid meet" version="1.0"><defs><clipPath id="148d5fd357"><path d="M 4.53125 8 L 47.621094 8 L 47.621094 44 L 4.53125 44 Z M 4.53125 8 " clip-rule="nonzero"/></clipPath><clipPath id="c4b693d209"><path d="M 33 44 L 36 44 L 36 47.011719 L 33 47.011719 Z M 33 44 " clip-rule="nonzero"/></clipPath><clipPath id="472c2f1eb4"><path d="M 14 4.664062 L 17 4.664062 L 17 8 L 14 8 Z M 14 4.664062 " clip-rule="nonzero"/></clipPath></defs><path fill="#8fa892" d="M 34.414062 27.398438 C 33.703125 25.097656 31.347656 23.722656 28.996094 24.242188 C 28.214844 24.410156 27.492188 24.78125 26.898438 25.3125 L 25.902344 26.203125 C 25.6875 26.398438 25.378906 26.453125 25.109375 26.34375 L 23.871094 25.847656 C 23.128906 25.550781 22.324219 25.449219 21.535156 25.554688 C 19.148438 25.875 17.402344 27.96875 17.519531 30.375 C 17.605469 32.078125 18.363281 33.683594 19.628906 34.824219 C 22.125 37.070312 24.679688 38.917969 27.308594 40.292969 C 27.742188 40.519531 28.277344 40.425781 28.609375 40.0625 C 30.609375 37.871094 32.378906 35.261719 33.957031 32.300781 C 34.757812 30.792969 34.917969 29.027344 34.414062 27.398438 Z M 24.792969 36.304688 C 24.742188 36.414062 24.632812 36.480469 24.515625 36.480469 C 24.472656 36.480469 24.425781 36.46875 24.382812 36.449219 C 24.230469 36.375 24.167969 36.191406 24.242188 36.035156 L 29.015625 26.242188 C 29.089844 26.089844 29.273438 26.023438 29.425781 26.101562 C 29.578125 26.175781 29.644531 26.359375 29.566406 26.511719 Z M 32.21875 28.183594 L 29.027344 34.726562 C 28.972656 34.835938 28.863281 34.898438 28.75 34.898438 C 28.707031 34.898438 28.660156 34.890625 28.617188 34.867188 C 28.464844 34.792969 28.398438 34.609375 28.476562 34.457031 L 31.664062 27.910156 C 31.738281 27.757812 31.921875 27.695312 32.074219 27.769531 C 32.226562 27.84375 32.292969 28.027344 32.21875 28.183594 Z M 32.21875 28.183594 " fill-opacity="1" fill-rule="nonzero"/><path fill="#8fa892" d="M 26.210938 11.898438 L 19.929688 13.003906 C 19.8125 13.027344 19.75 13.167969 19.792969 13.304688 L 20.636719 15.816406 C 20.671875 15.917969 20.765625 15.984375 20.855469 15.96875 L 26.355469 15 C 26.445312 14.984375 26.507812 14.890625 26.503906 14.78125 L 26.4375 12.132812 C 26.4375 11.988281 26.324219 11.878906 26.210938 11.898438 Z M 26.210938 11.898438 " fill-opacity="1" fill-rule="nonzero"/><g clip-path="url(#148d5fd357)"><path fill="#8fa892" d="M 47.375 34.421875 L 44.253906 16.730469 C 44.0625 15.621094 43 14.878906 41.890625 15.074219 L 19.230469 19.066406 L 16.730469 12.683594 C 16.605469 12.363281 16.632812 12.011719 16.796875 11.714844 C 16.964844 11.414062 17.253906 11.210938 17.589844 11.152344 L 27.769531 9.355469 C 28.140625 9.289062 28.480469 9.375 28.730469 9.589844 C 28.980469 9.800781 29.109375 10.128906 29.101562 10.5 L 28.972656 15.871094 C 28.96875 16.042969 29.101562 16.183594 29.273438 16.1875 C 29.277344 16.1875 29.277344 16.1875 29.28125 16.1875 C 29.449219 16.1875 29.585938 16.054688 29.589844 15.886719 L 29.71875 10.515625 C 29.730469 9.953125 29.523438 9.457031 29.132812 9.121094 C 28.738281 8.785156 28.21875 8.652344 27.664062 8.75 L 17.484375 10.542969 C 16.96875 10.636719 16.519531 10.953125 16.261719 11.410156 C 16.003906 11.871094 15.96875 12.417969 16.160156 12.90625 L 18.613281 19.175781 L 13.972656 19.996094 L 13.789062 18.964844 C 13.640625 18.128906 12.84375 17.570312 12.007812 17.714844 L 8.53125 18.328125 C 7.695312 18.476562 7.136719 19.277344 7.285156 20.109375 L 7.464844 21.140625 L 6.277344 21.351562 C 5.742188 21.445312 5.273438 21.742188 4.960938 22.191406 C 4.648438 22.636719 4.527344 23.179688 4.621094 23.714844 L 7.742188 41.40625 C 7.917969 42.398438 8.78125 43.09375 9.753906 43.09375 C 9.871094 43.09375 9.988281 43.085938 10.109375 43.0625 L 17.777344 41.710938 C 17.945312 41.683594 18.054688 41.523438 18.027344 41.355469 C 17.996094 41.1875 17.835938 41.078125 17.671875 41.105469 L 10 42.457031 C 9.226562 42.59375 8.484375 42.074219 8.347656 41.300781 L 6.105469 28.582031 L 12.507812 27.453125 C 12.675781 27.425781 12.789062 27.265625 12.757812 27.097656 C 12.730469 26.929688 12.570312 26.820312 12.402344 26.847656 L 6 27.976562 L 5.230469 23.609375 C 5.164062 23.234375 5.246094 22.855469 5.464844 22.542969 C 5.6875 22.230469 6.011719 22.023438 6.386719 21.957031 L 42 15.679688 C 42.773438 15.542969 43.515625 16.0625 43.652344 16.835938 L 44.421875 21.203125 L 37.992188 22.335938 C 37.824219 22.367188 37.714844 22.527344 37.742188 22.695312 C 37.769531 22.84375 37.898438 22.949219 38.046875 22.949219 C 38.0625 22.949219 38.082031 22.945312 38.097656 22.945312 L 44.527344 21.808594 L 46.769531 34.527344 C 46.835938 34.902344 46.753906 35.28125 46.535156 35.59375 C 46.316406 35.90625 45.988281 36.113281 45.613281 36.179688 L 35.859375 37.898438 C 37.242188 35.921875 37.96875 33.566406 37.925781 31.105469 C 37.816406 24.8125 32.664062 19.769531 26.398438 19.769531 C 26.332031 19.769531 26.261719 19.769531 26.195312 19.769531 C 23.117188 19.824219 20.242188 21.074219 18.101562 23.289062 C 15.960938 25.503906 14.808594 28.421875 14.863281 31.5 C 14.972656 37.792969 20.125 42.835938 26.390625 42.835938 C 26.457031 42.835938 26.527344 42.835938 26.59375 42.835938 C 29.671875 42.78125 32.546875 41.535156 34.6875 39.316406 C 34.90625 39.09375 35.113281 38.859375 35.3125 38.621094 L 45.71875 36.785156 C 46.257812 36.6875 46.726562 36.390625 47.039062 35.945312 C 47.351562 35.5 47.472656 34.957031 47.375 34.421875 Z M 8.074219 21.035156 L 7.890625 20.003906 C 7.800781 19.503906 8.140625 19.023438 8.640625 18.933594 L 12.117188 18.324219 C 12.617188 18.234375 13.097656 18.570312 13.183594 19.070312 L 13.367188 20.101562 Z M 34.246094 38.890625 C 32.21875 40.988281 29.496094 42.171875 26.582031 42.222656 C 26.519531 42.222656 26.457031 42.222656 26.390625 42.222656 C 20.457031 42.222656 15.582031 37.449219 15.476562 31.492188 C 15.429688 28.574219 16.515625 25.816406 18.542969 23.71875 C 20.570312 21.621094 23.292969 20.4375 26.207031 20.386719 C 26.269531 20.386719 26.332031 20.386719 26.394531 20.386719 C 32.328125 20.386719 37.207031 25.160156 37.308594 31.117188 C 37.359375 34.035156 36.273438 36.792969 34.246094 38.890625 Z M 34.246094 38.890625 " fill-opacity="1" fill-rule="nonzero"/></g><path fill="#8fa892" d="M 42.1875 42.136719 L 40.089844 41.21875 C 39.933594 41.148438 39.753906 41.21875 39.683594 41.375 C 39.617188 41.53125 39.6875 41.710938 39.84375 41.78125 L 41.941406 42.699219 C 41.980469 42.714844 42.023438 42.722656 42.0625 42.722656 C 42.183594 42.722656 42.296875 42.65625 42.347656 42.539062 C 42.414062 42.382812 42.34375 42.203125 42.1875 42.136719 Z M 42.1875 42.136719 " fill-opacity="1" fill-rule="nonzero"/><g clip-path="url(#c4b693d209)"><path fill="#8fa892" d="M 34.519531 44.714844 C 34.476562 44.546875 34.3125 44.449219 34.144531 44.488281 C 33.980469 44.527344 33.878906 44.695312 33.921875 44.863281 L 34.46875 47.082031 C 34.503906 47.222656 34.628906 47.316406 34.769531 47.316406 C 34.792969 47.316406 34.816406 47.316406 34.84375 47.308594 C 35.007812 47.269531 35.109375 47.101562 35.066406 46.9375 Z M 34.519531 44.714844 " fill-opacity="1" fill-rule="nonzero"/></g><path fill="#8fa892" d="M 8.304688 10.558594 L 10.476562 11.28125 C 10.511719 11.292969 10.542969 11.296875 10.574219 11.296875 C 10.703125 11.296875 10.824219 11.214844 10.867188 11.089844 C 10.921875 10.925781 10.835938 10.753906 10.671875 10.699219 L 8.5 9.972656 C 8.339844 9.917969 8.164062 10.007812 8.113281 10.167969 C 8.058594 10.328125 8.144531 10.503906 8.304688 10.558594 Z M 8.304688 10.558594 " fill-opacity="1" fill-rule="nonzero"/><g clip-path="url(#472c2f1eb4)"><path fill="#8fa892" d="M 15.714844 7.296875 C 15.757812 7.425781 15.878906 7.507812 16.003906 7.507812 C 16.039062 7.507812 16.070312 7.5 16.105469 7.488281 C 16.265625 7.433594 16.351562 7.257812 16.292969 7.097656 L 15.546875 4.933594 C 15.492188 4.773438 15.316406 4.6875 15.15625 4.746094 C 14.996094 4.800781 14.910156 4.976562 14.964844 5.136719 Z M 15.714844 7.296875 " fill-opacity="1" fill-rule="nonzero"/></g></svg>