<svg xmlns="http://www.w3.org/2000/svg" xmlns:xlink="http://www.w3.org/1999/xlink" width="70" zoomAndPan="magnify" viewBox="0 0 52.5 52.499999" height="70" preserveAspectRatio="xMidYMid meet" version="1.0"><defs><clipPath id="a1c40cf0ba"><path d="M 0.988281 0.796875 L 50.761719 0.796875 L 50.761719 50.570312 L 0.988281 50.570312 Z M 0.988281 0.796875 " clip-rule="nonzero"/></clipPath><clipPath id="2ecb9d71ab"><path d="M 9.953125 5.199219 L 41.898438 5.199219 L 41.898438 38.632812 L 9.953125 38.632812 Z M 9.953125 5.199219 " clip-rule="nonzero"/></clipPath></defs><g clip-path="url(#a1c40cf0ba)"><path fill="#f0f0f0" d="M 51.007812 25.804688 C 51.007812 26.625 50.964844 27.441406 50.886719 28.257812 C 50.804688 29.070312 50.683594 29.882812 50.523438 30.683594 C 50.367188 31.488281 50.167969 32.28125 49.929688 33.066406 C 49.691406 33.847656 49.414062 34.621094 49.101562 35.375 C 48.789062 36.132812 48.4375 36.871094 48.054688 37.59375 C 47.667969 38.316406 47.246094 39.019531 46.789062 39.699219 C 46.335938 40.382812 45.847656 41.039062 45.328125 41.671875 C 44.808594 42.304688 44.261719 42.910156 43.679688 43.488281 C 43.101562 44.070312 42.496094 44.617188 41.863281 45.136719 C 41.230469 45.65625 40.570312 46.144531 39.890625 46.601562 C 39.210938 47.054688 38.507812 47.476562 37.785156 47.863281 C 37.0625 48.25 36.324219 48.597656 35.566406 48.910156 C 34.808594 49.226562 34.039062 49.5 33.257812 49.738281 C 32.472656 49.976562 31.679688 50.175781 30.875 50.335938 C 30.070312 50.496094 29.261719 50.613281 28.449219 50.695312 C 27.632812 50.773438 26.816406 50.816406 25.996094 50.816406 C 25.175781 50.816406 24.359375 50.773438 23.546875 50.695312 C 22.730469 50.613281 21.921875 50.496094 21.117188 50.335938 C 20.3125 50.175781 19.519531 49.976562 18.738281 49.738281 C 17.953125 49.5 17.183594 49.226562 16.425781 48.910156 C 15.667969 48.597656 14.929688 48.25 14.207031 47.863281 C 13.484375 47.476562 12.78125 47.054688 12.101562 46.601562 C 11.421875 46.144531 10.765625 45.65625 10.128906 45.136719 C 9.496094 44.617188 8.890625 44.070312 8.3125 43.488281 C 7.734375 42.910156 7.183594 42.304688 6.664062 41.671875 C 6.144531 41.039062 5.65625 40.382812 5.203125 39.699219 C 4.746094 39.019531 4.324219 38.316406 3.941406 37.59375 C 3.554688 36.871094 3.203125 36.132812 2.890625 35.375 C 2.578125 34.621094 2.300781 33.847656 2.0625 33.066406 C 1.824219 32.28125 1.628906 31.488281 1.46875 30.683594 C 1.308594 29.882812 1.1875 29.070312 1.105469 28.257812 C 1.027344 27.441406 0.988281 26.625 0.988281 25.804688 C 0.988281 24.988281 1.027344 24.167969 1.105469 23.355469 C 1.1875 22.539062 1.308594 21.730469 1.46875 20.925781 C 1.628906 20.125 1.824219 19.328125 2.0625 18.546875 C 2.300781 17.761719 2.578125 16.992188 2.890625 16.234375 C 3.203125 15.476562 3.554688 14.738281 3.941406 14.015625 C 4.324219 13.292969 4.746094 12.59375 5.203125 11.910156 C 5.65625 11.230469 6.144531 10.574219 6.664062 9.941406 C 7.183594 9.304688 7.734375 8.699219 8.3125 8.121094 C 8.890625 7.542969 9.496094 6.992188 10.128906 6.472656 C 10.765625 5.953125 11.421875 5.464844 12.101562 5.011719 C 12.78125 4.554688 13.484375 4.136719 14.207031 3.75 C 14.929688 3.363281 15.667969 3.011719 16.425781 2.699219 C 17.183594 2.386719 17.953125 2.109375 18.738281 1.871094 C 19.519531 1.636719 20.3125 1.4375 21.117188 1.277344 C 21.921875 1.117188 22.730469 0.996094 23.546875 0.917969 C 24.359375 0.835938 25.175781 0.796875 25.996094 0.796875 C 26.816406 0.796875 27.632812 0.835938 28.449219 0.917969 C 29.261719 0.996094 30.070312 1.117188 30.875 1.277344 C 31.679688 1.4375 32.472656 1.636719 33.257812 1.871094 C 34.039062 2.109375 34.808594 2.386719 35.566406 2.699219 C 36.324219 3.011719 37.0625 3.363281 37.785156 3.75 C 38.507812 4.136719 39.210938 4.554688 39.890625 5.011719 C 40.570312 5.464844 41.230469 5.953125 41.863281 6.472656 C 42.496094 6.992188 43.101562 7.542969 43.679688 8.121094 C 44.261719 8.699219 44.808594 9.304688 45.328125 9.941406 C 45.847656 10.574219 46.335938 11.230469 46.789062 11.910156 C 47.246094 12.59375 47.667969 13.292969 48.054688 14.015625 C 48.4375 14.738281 48.789062 15.476562 49.101562 16.234375 C 49.414062 16.992188 49.691406 17.761719 49.929688 18.546875 C 50.167969 19.328125 50.367188 20.125 50.523438 20.925781 C 50.683594 21.730469 50.804688 22.539062 50.886719 23.355469 C 50.964844 24.167969 51.007812 24.988281 51.007812 25.804688 Z M 51.007812 25.804688 " fill-opacity="1" fill-rule="nonzero"/></g><path fill="#691121" d="M 34.570312 34.304688 L 34.570312 35.941406 C 34.570312 36.082031 34.683594 36.195312 34.824219 36.195312 L 37.339844 36.195312 C 37.480469 36.195312 37.59375 36.082031 37.59375 35.941406 L 37.59375 34.304688 C 37.59375 33.53125 36.960938 32.902344 36.1875 32.902344 L 35.972656 32.902344 C 35.199219 32.902344 34.570312 33.53125 34.570312 34.304688 Z M 35.074219 34.304688 C 35.074219 33.808594 35.476562 33.40625 35.972656 33.40625 L 36.1875 33.40625 C 36.683594 33.40625 37.085938 33.808594 37.085938 34.304688 L 37.085938 35.691406 L 35.074219 35.691406 Z M 35.074219 34.304688 " fill-opacity="1" fill-rule="nonzero"/><path fill="#691121" d="M 15.953125 32.902344 L 15.742188 32.902344 C 14.964844 32.902344 14.335938 33.53125 14.335938 34.304688 L 14.335938 35.941406 C 14.335938 36.082031 14.449219 36.195312 14.589844 36.195312 L 17.105469 36.195312 C 17.246094 36.195312 17.359375 36.082031 17.359375 35.941406 L 17.359375 34.304688 C 17.359375 33.53125 16.730469 32.902344 15.953125 32.902344 Z M 16.851562 35.691406 L 14.839844 35.691406 L 14.839844 34.304688 C 14.839844 33.808594 15.246094 33.40625 15.742188 33.40625 L 15.953125 33.40625 C 16.449219 33.40625 16.851562 33.808594 16.851562 34.304688 Z M 16.851562 35.691406 " fill-opacity="1" fill-rule="nonzero"/><g clip-path="url(#2ecb9d71ab)"><path fill="#691121" d="M 10.378906 26.910156 L 12.351562 25.730469 L 12.351562 38.160156 C 12.351562 38.296875 12.464844 38.410156 12.605469 38.410156 L 39.285156 38.410156 C 39.425781 38.410156 39.539062 38.296875 39.539062 38.160156 L 39.539062 25.675781 L 41.617188 26.910156 C 41.660156 26.933594 41.703125 26.945312 41.746094 26.945312 C 41.832031 26.945312 41.917969 26.902344 41.964844 26.820312 C 42.035156 26.699219 41.996094 26.546875 41.875 26.476562 L 31.640625 20.398438 L 31.640625 14.476562 L 33.753906 15.800781 C 33.796875 15.824219 33.84375 15.835938 33.886719 15.835938 C 33.972656 15.835938 34.054688 15.796875 34.101562 15.71875 C 34.175781 15.601562 34.140625 15.445312 34.023438 15.371094 L 31.523438 13.808594 L 30.457031 13.136719 L 26.210938 10.484375 L 26.210938 7.402344 L 27.773438 7.402344 C 27.914062 7.402344 28.027344 7.289062 28.027344 7.148438 C 28.027344 7.007812 27.914062 6.894531 27.773438 6.894531 L 26.210938 6.894531 L 26.210938 5.453125 C 26.210938 5.3125 26.101562 5.199219 25.960938 5.199219 C 25.820312 5.199219 25.707031 5.3125 25.707031 5.453125 L 25.707031 6.894531 L 24.144531 6.894531 C 24.007812 6.894531 23.894531 7.007812 23.894531 7.148438 C 23.894531 7.289062 24.007812 7.402344 24.144531 7.402344 L 25.707031 7.402344 L 25.707031 10.515625 L 17.917969 15.316406 C 17.796875 15.390625 17.761719 15.546875 17.835938 15.664062 C 17.90625 15.78125 18.0625 15.820312 18.183594 15.746094 L 20.25 14.472656 L 20.25 20.417969 L 10.121094 26.476562 C 10 26.546875 9.960938 26.703125 10.03125 26.820312 C 10.105469 26.941406 10.257812 26.980469 10.378906 26.910156 Z M 25.734375 37.90625 L 23.472656 37.90625 L 23.472656 35.546875 C 23.472656 34.292969 24.488281 33.277344 25.734375 33.265625 Z M 28.503906 37.90625 L 26.242188 37.90625 L 26.242188 33.265625 C 27.488281 33.277344 28.503906 34.292969 28.503906 35.546875 Z M 31.640625 21.007812 L 39.035156 25.429688 L 39.035156 37.90625 L 33.121094 37.90625 L 33.121094 26.605469 L 34.878906 27.65625 C 34.921875 27.679688 34.964844 27.691406 35.007812 27.691406 C 35.09375 27.691406 35.179688 27.648438 35.226562 27.570312 C 35.296875 27.449219 35.257812 27.292969 35.140625 27.222656 L 33 25.941406 L 31.640625 25.132812 Z M 20.753906 14.160156 L 25.863281 11.015625 L 25.988281 10.9375 L 30.417969 13.710938 L 31.136719 14.160156 L 31.136719 24.828125 L 26.074219 21.800781 C 25.996094 21.753906 25.894531 21.753906 25.816406 21.800781 L 20.753906 24.828125 Z M 22.875 24.148438 L 25.945312 22.3125 L 29.015625 24.148438 L 32.617188 26.300781 L 32.617188 37.90625 L 29.007812 37.90625 L 29.007812 35.546875 C 29.007812 34.011719 27.757812 32.761719 26.222656 32.761719 L 25.753906 32.761719 C 24.21875 32.761719 22.96875 34.011719 22.96875 35.546875 L 22.96875 37.90625 L 19.273438 37.90625 L 19.273438 26.300781 Z M 12.859375 25.429688 L 20.25 21.007812 L 20.25 25.132812 L 18.894531 25.941406 L 16.753906 27.222656 C 16.632812 27.292969 16.59375 27.449219 16.664062 27.570312 C 16.738281 27.6875 16.890625 27.726562 17.011719 27.65625 L 18.769531 26.605469 L 18.769531 37.90625 L 12.859375 37.90625 Z M 12.859375 25.429688 " fill-opacity="1" fill-rule="nonzero"/></g><path fill="#691121" d="M 24.648438 26.90625 L 25.707031 26.90625 L 25.707031 29.179688 C 25.707031 29.316406 25.820312 29.429688 25.960938 29.429688 C 26.101562 29.429688 26.210938 29.316406 26.210938 29.179688 L 26.210938 26.90625 L 27.269531 26.90625 C 27.410156 26.90625 27.523438 26.792969 27.523438 26.652344 C 27.523438 26.515625 27.410156 26.402344 27.269531 26.402344 L 26.210938 26.402344 L 26.210938 25.429688 C 26.210938 25.289062 26.101562 25.175781 25.960938 25.175781 C 25.820312 25.175781 25.707031 25.289062 25.707031 25.429688 L 25.707031 26.402344 L 24.648438 26.402344 C 24.511719 26.402344 24.398438 26.515625 24.398438 26.652344 C 24.398438 26.792969 24.511719 26.90625 24.648438 26.90625 Z M 24.648438 26.90625 " fill-opacity="1" fill-rule="nonzero"/><path fill="#691121" d="M 25.953125 20.011719 C 26.027344 20.007812 26.101562 19.992188 26.171875 19.964844 C 26.292969 19.914062 26.410156 19.855469 26.550781 19.777344 C 26.714844 19.6875 26.878906 19.585938 27.03125 19.472656 C 27.984375 18.769531 28.445312 17.972656 28.363281 17.160156 C 28.300781 16.511719 27.773438 16 27.140625 15.972656 C 26.855469 15.957031 26.5625 16.058594 26.292969 16.261719 C 26.164062 16.359375 26.046875 16.46875 25.945312 16.585938 C 25.847656 16.46875 25.730469 16.359375 25.601562 16.261719 C 25.332031 16.058594 25.035156 15.957031 24.75 15.972656 C 24.117188 16 23.59375 16.511719 23.527344 17.160156 C 23.445312 17.972656 23.90625 18.769531 24.863281 19.472656 C 25.015625 19.585938 25.175781 19.6875 25.339844 19.777344 C 25.480469 19.855469 25.597656 19.914062 25.71875 19.964844 C 25.792969 19.996094 25.867188 20.011719 25.945312 20.011719 C 25.949219 20.011719 25.953125 20.011719 25.953125 20.011719 Z M 25.585938 19.335938 C 25.4375 19.253906 25.296875 19.164062 25.160156 19.066406 C 24.601562 18.652344 23.953125 17.996094 24.03125 17.210938 C 24.070312 16.816406 24.394531 16.492188 24.773438 16.476562 C 24.785156 16.476562 24.792969 16.476562 24.800781 16.476562 C 25 16.476562 25.179688 16.578125 25.296875 16.664062 C 25.433594 16.765625 25.550781 16.886719 25.640625 17.011719 C 25.710938 17.113281 25.824219 17.171875 25.945312 17.171875 C 26.070312 17.171875 26.183594 17.109375 26.253906 17.011719 C 26.339844 16.886719 26.457031 16.765625 26.59375 16.664062 C 26.714844 16.574219 26.90625 16.464844 27.117188 16.476562 C 27.496094 16.492188 27.824219 16.816406 27.863281 17.210938 C 27.941406 17.996094 27.289062 18.652344 26.730469 19.066406 C 26.597656 19.164062 26.453125 19.253906 26.304688 19.335938 C 26.179688 19.40625 26.078125 19.457031 25.976562 19.5 C 25.96875 19.503906 25.957031 19.503906 25.945312 19.503906 C 25.9375 19.503906 25.925781 19.503906 25.914062 19.5 C 25.8125 19.457031 25.710938 19.40625 25.585938 19.335938 Z M 25.585938 19.335938 " fill-opacity="1" fill-rule="nonzero"/></svg>