<svg xmlns="http://www.w3.org/2000/svg" xmlns:xlink="http://www.w3.org/1999/xlink" width="70" zoomAndPan="magnify" viewBox="0 0 52.5 52.499999" height="70" preserveAspectRatio="xMidYMid meet" version="1.0"><defs><clipPath id="98a3f4702b"><path d="M 10.832031 3.4375 L 43 3.4375 L 43 48.753906 L 10.832031 48.753906 Z M 10.832031 3.4375 " clip-rule="nonzero"/></clipPath><clipPath id="422d687b35"><path d="M 10.832031 14 L 43 14 L 43 43 L 10.832031 43 Z M 10.832031 14 " clip-rule="nonzero"/></clipPath></defs><g clip-path="url(#98a3f4702b)"><path fill="#f4eadc" d="M 39.347656 22.0625 L 42.582031 20.144531 L 42.636719 20.171875 C 42.648438 20.175781 42.664062 20.179688 42.675781 20.179688 C 42.707031 20.179688 42.742188 20.160156 42.757812 20.128906 C 42.777344 20.082031 42.757812 20.027344 42.714844 20.007812 L 42.632812 19.96875 L 41.675781 17.289062 L 41.707031 17.265625 C 41.75 17.234375 41.757812 17.179688 41.730469 17.136719 C 41.703125 17.097656 41.644531 17.089844 41.605469 17.117188 L 41.5625 17.144531 L 39.476562 16.167969 L 39.472656 16.117188 C 39.46875 16.078125 39.441406 16.046875 39.410156 16.039062 C 39.378906 16.019531 39.339844 16.019531 39.308594 16.039062 L 39.265625 16.070312 L 37.179688 15.089844 L 37.175781 15.039062 C 37.171875 14.992188 37.128906 14.953125 37.078125 14.957031 C 37.027344 14.960938 36.992188 15.003906 36.996094 15.054688 L 36.996094 15.078125 L 34.304688 16.066406 L 34.222656 16.027344 C 34.179688 16.007812 34.125 16.027344 34.105469 16.070312 C 34.082031 16.117188 34.101562 16.171875 34.148438 16.191406 L 34.203125 16.21875 L 34.796875 19.929688 C 34.503906 20.554688 34.492188 21.238281 34.707031 21.839844 C 33.605469 21.535156 32.488281 21.421875 31.386719 21.476562 C 30.050781 17.203125 26.0625 14.101562 21.347656 14.101562 C 15.542969 14.101562 10.832031 18.8125 10.832031 24.617188 C 10.832031 30.425781 15.542969 35.132812 21.347656 35.132812 C 21.53125 35.132812 21.710938 35.128906 21.890625 35.121094 C 22.742188 37.832031 24.683594 40.195312 27.460938 41.5 C 32.71875 43.964844 38.980469 41.699219 41.445312 36.441406 C 43.652344 31.734375 42.066406 26.226562 37.9375 23.355469 C 38.539062 23.132812 39.054688 22.6875 39.347656 22.0625 M 21.472656 33.148438 C 21.433594 33.148438 21.390625 33.148438 21.347656 33.148438 C 16.644531 33.148438 12.816406 29.320312 12.816406 24.617188 C 12.816406 19.914062 16.644531 16.085938 21.347656 16.085938 C 25.054688 16.085938 28.21875 18.464844 29.390625 21.773438 C 26.425781 22.511719 23.800781 24.53125 22.402344 27.515625 C 21.546875 29.339844 21.261719 31.28125 21.472656 33.148438 Z M 24.199219 28.355469 C 25.328125 25.953125 27.4375 24.320312 29.832031 23.710938 C 29.863281 24.011719 29.878906 24.3125 29.878906 24.617188 C 29.878906 28.597656 27.136719 31.953125 23.445312 32.886719 C 23.28125 31.386719 23.511719 29.824219 24.199219 28.355469 Z M 39.648438 35.597656 C 37.652344 39.859375 32.5625 41.699219 28.304688 39.703125 C 26.15625 38.695312 24.625 36.902344 23.886719 34.824219 C 28.46875 33.6875 31.863281 29.550781 31.863281 24.617188 C 31.863281 24.222656 31.839844 23.832031 31.796875 23.449219 C 33.054688 23.429688 34.332031 23.6875 35.546875 24.253906 C 39.804688 26.25 41.644531 31.339844 39.648438 35.597656 Z M 31.445312 12.445312 L 33.621094 12.855469 L 31.445312 13.261719 L 31.035156 15.441406 L 30.628906 13.261719 L 28.453125 12.855469 L 30.628906 12.445312 L 31.035156 10.269531 Z M 34.933594 8.183594 L 31.53125 7.546875 L 34.933594 6.910156 L 35.570312 3.503906 L 36.207031 6.910156 L 39.613281 7.546875 L 36.207031 8.183594 L 35.570312 11.585938 Z M 16.003906 39.910156 L 13.828125 40.316406 L 13.417969 42.496094 L 13.011719 40.316406 L 10.832031 39.910156 L 13.011719 39.503906 L 13.417969 37.324219 L 13.828125 39.503906 Z M 19.363281 43.808594 L 22.769531 44.445312 L 19.363281 45.082031 L 18.726562 48.484375 L 18.089844 45.082031 L 14.6875 44.445312 L 18.089844 43.808594 L 18.726562 40.402344 Z M 19.363281 43.808594 " fill-opacity="1" fill-rule="nonzero"/></g><g clip-path="url(#422d687b35)"><path fill="#e2ba6a" d="M 37.9375 23.355469 C 38.539062 23.132812 39.054688 22.6875 39.347656 22.0625 L 37.925781 21.394531 L 37.921875 21.40625 C 37.902344 21.433594 37.875 21.449219 37.84375 21.449219 C 37.828125 21.449219 37.8125 21.441406 37.796875 21.433594 C 37.757812 21.410156 37.746094 21.359375 37.765625 21.320312 L 36.382812 20.671875 C 36.367188 20.703125 36.335938 20.722656 36.300781 20.722656 C 36.292969 20.722656 36.28125 20.722656 36.273438 20.71875 C 36.226562 20.703125 36.199219 20.652344 36.214844 20.605469 L 36.21875 20.59375 L 35.867188 20.429688 L 34.796875 19.929688 C 34.503906 20.554688 34.492188 21.238281 34.707031 21.839844 C 33.605469 21.535156 32.488281 21.421875 31.386719 21.476562 C 30.050781 17.203125 26.0625 14.101562 21.347656 14.101562 C 15.542969 14.101562 10.832031 18.8125 10.832031 24.617188 C 10.832031 30.425781 15.542969 35.132812 21.347656 35.132812 C 21.53125 35.132812 21.710938 35.128906 21.890625 35.121094 C 22.742188 37.832031 24.683594 40.195312 27.460938 41.5 C 32.71875 43.964844 38.980469 41.699219 41.445312 36.441406 C 43.652344 31.734375 42.066406 26.226562 37.9375 23.355469 Z M 21.472656 33.148438 C 21.433594 33.148438 21.390625 33.148438 21.347656 33.148438 C 16.644531 33.148438 12.816406 29.320312 12.816406 24.617188 C 12.816406 19.914062 16.644531 16.085938 21.347656 16.085938 C 25.054688 16.085938 28.21875 18.464844 29.390625 21.773438 C 26.425781 22.511719 23.800781 24.53125 22.402344 27.515625 C 21.546875 29.339844 21.261719 31.28125 21.472656 33.148438 Z M 24.199219 28.355469 C 25.328125 25.953125 27.4375 24.320312 29.832031 23.710938 C 29.863281 24.011719 29.878906 24.3125 29.878906 24.617188 C 29.878906 28.597656 27.136719 31.953125 23.445312 32.886719 C 23.28125 31.386719 23.511719 29.824219 24.199219 28.355469 Z M 39.648438 35.597656 C 37.652344 39.859375 32.5625 41.699219 28.304688 39.703125 C 26.15625 38.695312 24.625 36.902344 23.886719 34.824219 C 28.46875 33.6875 31.863281 29.550781 31.863281 24.617188 C 31.863281 24.222656 31.839844 23.832031 31.796875 23.449219 C 33.054688 23.429688 34.332031 23.6875 35.546875 24.253906 C 39.804688 26.25 41.644531 31.339844 39.648438 35.597656 Z M 39.648438 35.597656 " fill-opacity="1" fill-rule="nonzero"/></g><path fill="#e5a5a6" d="M 42.714844 20.007812 L 42.632812 19.96875 L 39.765625 18.628906 L 41.675781 17.289062 L 41.707031 17.265625 C 41.75 17.234375 41.757812 17.179688 41.730469 17.136719 C 41.703125 17.097656 41.644531 17.089844 41.605469 17.117188 L 41.5625 17.144531 L 39.664062 18.480469 L 39.476562 16.167969 L 39.472656 16.117188 C 39.46875 16.078125 39.441406 16.046875 39.410156 16.039062 C 39.378906 16.019531 39.339844 16.019531 39.308594 16.039062 L 39.265625 16.070312 L 37.371094 17.402344 L 37.179688 15.089844 L 37.175781 15.039062 C 37.171875 14.992188 37.128906 14.953125 37.078125 14.957031 C 37.027344 14.960938 36.992188 15.003906 36.996094 15.054688 L 36.996094 15.078125 L 37.191406 17.417969 L 34.304688 16.066406 L 34.222656 16.027344 C 34.179688 16.007812 34.125 16.027344 34.105469 16.070312 C 34.082031 16.117188 34.101562 16.171875 34.148438 16.191406 L 34.203125 16.21875 L 37.164062 17.605469 L 36.21875 20.59375 L 36.214844 20.605469 C 36.199219 20.652344 36.226562 20.703125 36.273438 20.71875 C 36.28125 20.722656 36.292969 20.722656 36.300781 20.722656 C 36.335938 20.722656 36.367188 20.703125 36.382812 20.671875 C 36.382812 20.667969 36.386719 20.664062 36.386719 20.660156 L 37.328125 17.683594 L 39.457031 18.679688 L 37.769531 21.308594 C 37.765625 21.3125 37.765625 21.316406 37.765625 21.320312 C 37.746094 21.359375 37.757812 21.410156 37.796875 21.433594 C 37.8125 21.441406 37.828125 21.449219 37.84375 21.449219 C 37.875 21.449219 37.902344 21.433594 37.921875 21.40625 L 37.925781 21.394531 L 39.621094 18.757812 L 42.582031 20.144531 L 42.636719 20.171875 C 42.648438 20.175781 42.664062 20.179688 42.675781 20.179688 C 42.707031 20.179688 42.742188 20.160156 42.757812 20.128906 C 42.777344 20.082031 42.757812 20.027344 42.714844 20.007812 Z M 37.472656 17.550781 L 39.304688 16.265625 L 39.484375 18.496094 Z M 37.472656 17.550781 " fill-opacity="1" fill-rule="nonzero"/></svg>