<svg xmlns="http://www.w3.org/2000/svg" xmlns:xlink="http://www.w3.org/1999/xlink" width="70" zoomAndPan="magnify" viewBox="0 0 52.5 52.499999" height="70" preserveAspectRatio="xMidYMid meet" version="1.0"><defs><clipPath id="aed4f01f9e"><path d="M 27 11 L 41.8125 11 L 41.8125 46 L 27 46 Z M 27 11 " clip-rule="nonzero"/></clipPath><clipPath id="92c772e8e0"><path d="M 13.582031 14 L 28 14 L 28 48.5 L 13.582031 48.5 Z M 13.582031 14 " clip-rule="nonzero"/></clipPath><clipPath id="a10045d07f"><path d="M 24 6.152344 L 31 6.152344 L 31 13 L 24 13 Z M 24 6.152344 " clip-rule="nonzero"/></clipPath></defs><g clip-path="url(#aed4f01f9e)"><path fill="#f4eadc" d="M 38.429688 42.238281 C 38 42.203125 37.46875 41.894531 37.324219 41.082031 L 35.5 31.425781 C 36.101562 30.871094 37 29.945312 37.539062 28.949219 C 37.828125 28.472656 37.988281 27.957031 37.992188 27.441406 C 37.996094 27.351562 37.992188 27.261719 37.980469 27.171875 C 37.976562 27.117188 37.96875 27.0625 37.960938 27.003906 C 37.695312 25.402344 33.574219 12.5625 33.175781 11.316406 C 33.195312 11.292969 33.207031 11.277344 33.210938 11.273438 C 33.238281 11.234375 33.234375 11.183594 33.199219 11.152344 C 33.160156 11.125 33.109375 11.128906 33.078125 11.167969 C 33.078125 11.167969 33.050781 11.199219 33.007812 11.25 L 30.308594 11.863281 L 30.230469 11.882812 L 27.539062 12.492188 C 27.476562 12.464844 27.4375 12.449219 27.4375 12.449219 C 27.394531 12.425781 27.34375 12.445312 27.324219 12.488281 C 27.304688 12.53125 27.320312 12.582031 27.363281 12.601562 C 27.367188 12.601562 27.386719 12.609375 27.410156 12.621094 C 27.585938 13.898438 29.421875 27.28125 29.871094 28.84375 C 29.886719 28.898438 29.90625 28.949219 29.925781 29.003906 C 29.953125 29.085938 29.988281 29.167969 30.03125 29.25 C 30.257812 29.714844 30.625 30.109375 31.089844 30.410156 C 32.015625 31.085938 33.230469 31.53125 34.015625 31.769531 L 36.539062 41.257812 C 36.714844 41.890625 36.535156 42.339844 36.265625 42.609375 C 35.199219 43.195312 33.425781 44.289062 33.492188 45.050781 L 41.566406 43.214844 C 41.328125 42.578125 39.648438 42.335938 38.429688 42.238281 Z M 38.429688 42.238281 " fill-opacity="1" fill-rule="nonzero"/></g><g clip-path="url(#92c772e8e0)"><path fill="#f4eadc" d="M 27.824219 15.859375 C 27.804688 15.816406 27.753906 15.796875 27.710938 15.820312 C 27.710938 15.820312 27.671875 15.835938 27.609375 15.863281 L 24.917969 15.253906 L 24.839844 15.234375 L 22.144531 14.621094 C 22.117188 14.589844 22.070312 14.539062 22.070312 14.539062 C 22.039062 14.5 21.988281 14.496094 21.949219 14.523438 C 21.914062 14.554688 21.910156 14.605469 21.9375 14.644531 C 21.941406 14.648438 21.953125 14.664062 21.972656 14.6875 C 21.976562 14.6875 21.976562 14.6875 21.976562 14.6875 C 21.976562 14.6875 21.972656 14.6875 21.972656 14.6875 C 21.964844 14.714844 21.953125 14.75 21.941406 14.785156 C 21.398438 16.484375 17.449219 28.808594 17.1875 30.375 C 17.179688 30.433594 17.171875 30.488281 17.167969 30.542969 C 17.15625 30.632812 17.152344 30.722656 17.15625 30.8125 C 17.160156 31.328125 17.320312 31.84375 17.609375 32.320312 C 18.148438 33.316406 19.046875 34.238281 19.648438 34.796875 L 17.824219 44.453125 C 17.679688 45.265625 17.148438 45.574219 16.71875 45.609375 C 15.5 45.703125 13.820312 45.949219 13.582031 46.585938 L 21.65625 48.421875 C 21.722656 47.660156 19.949219 46.566406 18.882812 45.980469 C 18.613281 45.710938 18.433594 45.261719 18.609375 44.628906 L 21.132812 35.140625 C 21.917969 34.902344 23.132812 34.457031 24.058594 33.78125 C 24.523438 33.480469 24.890625 33.085938 25.117188 32.621094 C 25.160156 32.539062 25.195312 32.457031 25.222656 32.375 C 25.242188 32.320312 25.261719 32.269531 25.277344 32.214844 C 25.710938 30.71875 27.414062 18.351562 27.707031 16.214844 L 27.707031 16.210938 C 27.71875 16.121094 27.730469 16.046875 27.738281 15.992188 C 27.761719 15.980469 27.78125 15.972656 27.785156 15.972656 C 27.828125 15.953125 27.84375 15.902344 27.824219 15.859375 Z M 27.824219 15.859375 " fill-opacity="1" fill-rule="nonzero"/></g><path fill="#e5a5a6" d="M 24.761719 20.972656 C 23.199219 21.015625 21.039062 19.722656 20.855469 19.613281 C 18.890625 25.832031 17.742188 29.675781 17.613281 30.449219 C 17.605469 30.492188 17.597656 30.539062 17.59375 30.59375 C 17.585938 30.660156 17.582031 30.734375 17.585938 30.8125 C 17.589844 31.246094 17.726562 31.695312 17.980469 32.117188 L 17.984375 32.125 L 17.992188 32.132812 C 18.492188 33.066406 19.332031 33.9375 19.953125 34.507812 C 20.089844 34.640625 20.273438 34.738281 20.472656 34.78125 C 20.667969 34.824219 20.867188 34.820312 21.042969 34.761719 C 21.84375 34.515625 22.984375 34.089844 23.847656 33.464844 L 23.855469 33.457031 L 23.863281 33.453125 C 24.273438 33.183594 24.59375 32.835938 24.785156 32.445312 C 24.820312 32.378906 24.847656 32.3125 24.871094 32.242188 C 24.890625 32.195312 24.902344 32.148438 24.914062 32.109375 C 25.132812 31.355469 25.945312 26.09375 26.859375 19.652344 C 26.738281 19.878906 26.109375 20.9375 24.761719 20.972656 Z M 19.523438 29.035156 C 19.277344 29.035156 19.277344 28.652344 19.523438 28.652344 C 19.769531 28.652344 19.769531 29.035156 19.523438 29.035156 Z M 19.75 28.175781 C 19.503906 28.175781 19.503906 27.792969 19.75 27.792969 C 19.996094 27.792969 19.996094 28.175781 19.75 28.175781 Z M 20.191406 26.308594 C 19.945312 26.308594 19.945312 25.925781 20.191406 25.925781 C 20.4375 25.925781 20.4375 26.308594 20.191406 26.308594 Z M 20.765625 31.695312 C 20.523438 31.695312 20.523438 31.316406 20.765625 31.316406 C 21.011719 31.316406 21.011719 31.695312 20.765625 31.695312 Z M 20.964844 31 C 20.71875 31 20.71875 30.617188 20.964844 30.617188 C 21.210938 30.617188 21.210938 31 20.964844 31 Z M 24.984375 24.449219 L 23.183594 32.488281 C 23.175781 32.527344 23.140625 32.554688 23.101562 32.554688 C 23.09375 32.554688 23.089844 32.554688 23.082031 32.554688 C 23.035156 32.542969 23.007812 32.5 23.019531 32.453125 L 24.820312 24.414062 C 24.828125 24.367188 24.875 24.339844 24.917969 24.347656 C 24.964844 24.359375 24.996094 24.40625 24.984375 24.449219 Z M 26.867188 19.609375 C 26.863281 19.609375 26.863281 19.609375 26.863281 19.609375 L 23.855469 19.609375 Z M 37.15625 28.761719 L 37.164062 28.753906 L 37.167969 28.746094 C 37.421875 28.324219 37.558594 27.875 37.5625 27.441406 C 37.566406 27.363281 37.5625 27.289062 37.554688 27.222656 C 37.550781 27.167969 37.542969 27.121094 37.535156 27.078125 C 37.40625 26.304688 36.257812 22.460938 34.292969 16.242188 C 34.109375 16.351562 31.949219 17.644531 30.386719 17.601562 C 29.039062 17.566406 28.410156 16.507812 28.289062 16.28125 C 29.203125 22.722656 30.015625 27.984375 30.230469 28.738281 C 30.246094 28.777344 30.257812 28.824219 30.277344 28.871094 C 30.300781 28.941406 30.328125 29.007812 30.363281 29.074219 C 30.554688 29.464844 30.875 29.8125 31.285156 30.082031 L 31.292969 30.085938 L 31.300781 30.09375 C 32.164062 30.71875 33.300781 31.144531 34.105469 31.390625 C 34.28125 31.449219 34.480469 31.453125 34.675781 31.410156 C 34.875 31.367188 35.058594 31.269531 35.195312 31.136719 C 35.816406 30.566406 36.65625 29.695312 37.15625 28.761719 Z M 30.523438 22.808594 C 30.277344 22.808594 30.277344 22.425781 30.523438 22.425781 C 30.769531 22.425781 30.769531 22.808594 30.523438 22.808594 Z M 30.949219 24.355469 C 31.195312 24.355469 31.195312 24.738281 30.949219 24.738281 C 30.703125 24.738281 30.703125 24.355469 30.949219 24.355469 Z M 31.121094 25.636719 C 30.875 25.636719 30.875 25.253906 31.121094 25.253906 C 31.367188 25.253906 31.367188 25.636719 31.121094 25.636719 Z M 33.328125 26.441406 C 33.574219 26.441406 33.574219 26.820312 33.328125 26.820312 C 33.085938 26.820312 33.085938 26.441406 33.328125 26.441406 Z M 33.457031 27.554688 C 33.214844 27.554688 33.214844 27.175781 33.457031 27.175781 C 33.703125 27.175781 33.703125 27.554688 33.457031 27.554688 Z M 34.039062 18.980469 C 34.03125 18.9375 34.058594 18.890625 34.105469 18.878906 C 34.148438 18.867188 34.195312 18.898438 34.207031 18.941406 L 36.128906 27.207031 C 36.136719 27.253906 36.109375 27.300781 36.0625 27.308594 C 36.058594 27.3125 36.050781 27.3125 36.042969 27.3125 C 36.003906 27.3125 35.972656 27.285156 35.960938 27.246094 Z M 31.292969 16.238281 L 28.285156 16.238281 C 28.285156 16.238281 28.285156 16.238281 28.28125 16.238281 Z M 31.292969 16.238281 " fill-opacity="1" fill-rule="nonzero"/><path fill="#e2c6c2" d="M 23.855469 19.609375 L 26.878906 19.609375 C 26.878906 19.609375 26.871094 19.625 26.859375 19.652344 C 26.738281 19.878906 26.109375 20.9375 24.761719 20.972656 C 23.199219 21.015625 21.039062 19.722656 20.855469 19.613281 C 20.847656 19.609375 20.84375 19.605469 20.84375 19.605469 Z M 27.710938 15.820312 C 27.710938 15.820312 27.671875 15.835938 27.609375 15.863281 C 27.230469 16.027344 25.839844 16.566406 24.636719 16.292969 C 23.433594 16.019531 22.414062 14.933594 22.140625 14.621094 C 22.097656 14.570312 22.070312 14.539062 22.070312 14.539062 C 22.039062 14.5 21.988281 14.496094 21.949219 14.523438 C 21.914062 14.554688 21.910156 14.605469 21.9375 14.644531 C 21.941406 14.648438 21.953125 14.664062 21.972656 14.6875 C 22.1875 14.941406 23.265625 16.15625 24.601562 16.460938 C 24.851562 16.515625 25.113281 16.539062 25.367188 16.539062 C 26.46875 16.539062 27.503906 16.101562 27.738281 15.992188 C 27.761719 15.980469 27.78125 15.972656 27.785156 15.972656 C 27.828125 15.953125 27.84375 15.902344 27.824219 15.859375 C 27.804688 15.816406 27.753906 15.796875 27.710938 15.820312 Z M 30.386719 17.601562 C 31.953125 17.644531 34.109375 16.351562 34.292969 16.242188 C 34.300781 16.238281 34.304688 16.234375 34.304688 16.234375 L 31.292969 16.238281 L 28.269531 16.238281 C 28.269531 16.238281 28.277344 16.257812 28.289062 16.28125 C 28.410156 16.507812 29.039062 17.566406 30.386719 17.601562 Z M 30.546875 13.089844 C 31.882812 12.785156 32.960938 11.570312 33.175781 11.316406 C 33.195312 11.292969 33.207031 11.277344 33.210938 11.273438 C 33.238281 11.234375 33.234375 11.183594 33.199219 11.152344 C 33.160156 11.125 33.109375 11.128906 33.078125 11.167969 C 33.078125 11.167969 33.050781 11.199219 33.007812 11.25 C 32.734375 11.5625 31.714844 12.648438 30.511719 12.921875 C 29.308594 13.195312 27.917969 12.65625 27.539062 12.492188 C 27.476562 12.464844 27.4375 12.449219 27.4375 12.449219 C 27.394531 12.425781 27.34375 12.445312 27.324219 12.488281 C 27.304688 12.53125 27.320312 12.582031 27.363281 12.601562 C 27.367188 12.601562 27.386719 12.609375 27.410156 12.621094 C 27.644531 12.730469 28.679688 13.167969 29.78125 13.167969 C 30.035156 13.167969 30.296875 13.144531 30.546875 13.089844 Z M 30.546875 13.089844 " fill-opacity="1" fill-rule="nonzero"/><g clip-path="url(#a10045d07f)"><path fill="#e2c6c2" d="M 25.269531 11.4375 L 24.097656 11.21875 L 25.269531 11 L 25.488281 9.828125 L 25.707031 11 L 26.878906 11.21875 L 25.707031 11.4375 L 25.488281 12.609375 Z M 27.929688 10.539062 L 28.273438 8.707031 L 30.105469 8.363281 L 28.273438 8.019531 L 27.929688 6.1875 L 27.585938 8.019531 L 25.753906 8.363281 L 27.585938 8.707031 Z M 27.929688 10.539062 " fill-opacity="1" fill-rule="nonzero"/></g></svg>