<svg xmlns="http://www.w3.org/2000/svg" xmlns:xlink="http://www.w3.org/1999/xlink" width="70" zoomAndPan="magnify" viewBox="0 0 52.5 52.499999" height="70" preserveAspectRatio="xMidYMid meet" version="1.0"><defs><clipPath id="d575814791"><path d="M 2.5625 4.664062 L 49.363281 4.664062 L 49.363281 46.804688 L 2.5625 46.804688 Z M 2.5625 4.664062 " clip-rule="nonzero"/></clipPath></defs><g clip-path="url(#d575814791)"><path fill="#2f3e55" d="M 48.84375 30.871094 C 48.742188 31.074219 48.597656 31.21875 48.375 31.246094 C 48.128906 31.28125 47.878906 31.3125 47.632812 31.308594 C 45.59375 31.296875 43.554688 31.273438 41.519531 31.257812 C 40.355469 31.25 39.195312 31.257812 38.035156 31.257812 C 37.941406 31.257812 37.851562 31.257812 37.722656 31.257812 C 37.949219 30.320312 37.917969 29.394531 37.972656 28.453125 C 38.089844 28.453125 38.191406 28.453125 38.289062 28.453125 C 40.945312 28.460938 43.601562 28.46875 46.257812 28.480469 C 46.707031 28.480469 47.164062 28.460938 47.609375 28.503906 C 47.882812 28.53125 48.15625 28.648438 48.417969 28.75 C 48.640625 28.835938 48.761719 29.042969 48.851562 29.25 C 49.082031 29.789062 49.113281 30.332031 48.84375 30.871094 Z M 47.453125 32 C 47.402344 32.484375 47.363281 32.964844 47.304688 33.445312 C 47.214844 34.175781 47.121094 34.902344 47.011719 35.628906 C 46.921875 36.234375 46.582031 36.648438 46.007812 36.867188 C 45.453125 37.078125 44.878906 37.164062 44.289062 37.175781 C 44.257812 37.179688 44.226562 37.167969 44.1875 37.164062 C 44.183594 36.910156 44.199219 36.660156 44.015625 36.414062 C 43.8125 36.640625 43.84375 36.914062 43.792969 37.179688 C 43.558594 37.179688 43.324219 37.195312 43.09375 37.175781 C 42.511719 37.121094 41.933594 37.058594 41.355469 36.984375 C 40.78125 36.914062 40.488281 36.542969 40.398438 36.007812 C 40.296875 35.390625 40.203125 34.769531 40.148438 34.148438 C 40.089844 33.433594 40.078125 32.714844 40.046875 31.996094 C 40.042969 31.914062 40.046875 31.835938 40.046875 31.738281 C 40.585938 31.738281 41.101562 31.738281 41.644531 31.738281 C 41.632812 31.839844 41.625 31.902344 41.613281 31.96875 C 41.558594 32.273438 41.570312 32.582031 41.601562 32.890625 C 41.609375 32.941406 41.621094 32.988281 41.640625 33.035156 C 41.671875 33.121094 41.730469 33.175781 41.828125 33.171875 C 41.925781 33.167969 41.976562 33.101562 41.996094 33.011719 C 42.058594 32.683594 42.070312 32.351562 42.027344 32.015625 C 42.015625 31.933594 42.003906 31.851562 41.992188 31.753906 C 42.65625 31.753906 43.300781 31.753906 43.9375 31.753906 C 43.9375 31.960938 43.933594 32.152344 43.9375 32.339844 C 43.941406 32.625 43.949219 32.90625 43.957031 33.1875 C 43.957031 33.222656 43.953125 33.261719 43.972656 33.285156 C 44.011719 33.335938 44.0625 33.410156 44.105469 33.410156 C 44.167969 33.40625 44.257812 33.359375 44.28125 33.304688 C 44.328125 33.210938 44.351562 33.097656 44.351562 32.992188 C 44.359375 32.59375 44.355469 32.191406 44.355469 31.757812 C 44.875 31.726562 45.429688 31.75 46.011719 31.738281 C 46.003906 31.890625 45.992188 32.019531 45.988281 32.148438 C 45.980469 32.375 45.972656 32.597656 45.96875 32.824219 C 45.96875 32.855469 45.976562 32.890625 45.984375 32.921875 C 46.003906 33.019531 46.039062 33.105469 46.152344 33.109375 C 46.269531 33.113281 46.308594 33.027344 46.328125 32.929688 C 46.378906 32.636719 46.429688 32.339844 46.386719 32.035156 C 46.375 31.957031 46.371094 31.875 46.359375 31.753906 C 46.734375 31.777344 47.085938 31.792969 47.453125 31.816406 C 47.453125 31.890625 47.457031 31.945312 47.453125 32 Z M 37.167969 27.761719 C 37.085938 27.863281 37.003906 27.878906 36.890625 27.875 C 35.519531 27.863281 34.152344 27.855469 32.78125 27.84375 C 29.703125 27.820312 26.628906 27.792969 23.554688 27.769531 C 20.714844 27.742188 17.871094 27.71875 15.03125 27.695312 C 14.996094 27.695312 14.964844 27.695312 14.921875 27.695312 C 14.617188 27.230469 14.359375 27.230469 14.019531 27.671875 C 13.699219 27.671875 13.375 27.675781 13.050781 27.667969 C 12.988281 27.667969 12.921875 27.628906 12.871094 27.59375 C 12.78125 27.523438 12.6875 27.445312 12.613281 27.359375 C 12.054688 26.714844 11.503906 26.066406 10.945312 25.421875 C 10.84375 25.304688 10.820312 25.191406 10.84375 25.035156 C 11.019531 23.90625 10.375 22.796875 9.308594 22.390625 C 9.160156 22.332031 9.082031 22.246094 9.023438 22.109375 C 8.398438 20.683594 8.160156 19.199219 8.296875 17.652344 C 8.433594 16.101562 9.132812 14.820312 10.265625 13.765625 C 10.347656 13.691406 10.460938 13.632812 10.570312 13.601562 C 11.40625 13.34375 12.238281 13.070312 13.085938 12.851562 C 14.835938 12.402344 16.621094 12.132812 18.414062 11.933594 C 21.316406 11.605469 24.230469 11.480469 27.148438 11.554688 C 28.535156 11.589844 29.917969 11.675781 31.300781 11.789062 C 32.53125 11.886719 33.761719 12.027344 34.984375 12.207031 C 37.191406 12.53125 39.359375 13.035156 41.476562 13.765625 C 41.929688 13.921875 42.257812 14.171875 42.542969 14.535156 C 43.441406 15.679688 43.832031 16.988281 43.828125 18.429688 C 43.824219 19.695312 43.578125 20.902344 43.085938 22.066406 C 43.019531 22.222656 42.933594 22.316406 42.765625 22.375 C 41.695312 22.757812 41.035156 23.90625 41.230469 25.035156 C 41.257812 25.1875 41.238281 25.304688 41.140625 25.429688 C 40.585938 26.121094 40.007812 26.792969 39.363281 27.398438 C 39.226562 27.527344 39.101562 27.660156 38.980469 27.796875 C 38.914062 27.871094 38.839844 27.902344 38.738281 27.898438 C 38.519531 27.890625 38.304688 27.890625 38.085938 27.894531 C 37.976562 27.894531 37.90625 27.855469 37.835938 27.769531 C 37.632812 27.535156 37.355469 27.527344 37.167969 27.761719 Z M 36.96875 31.242188 C 36.898438 31.25 36.824219 31.257812 36.75 31.257812 C 35.195312 31.25 33.644531 31.242188 32.089844 31.242188 C 31.949219 31.242188 31.863281 31.199219 31.78125 31.082031 C 31.144531 30.171875 30.335938 29.441406 29.40625 28.84375 C 29.140625 28.675781 28.851562 28.546875 28.574219 28.398438 C 28.574219 28.386719 28.574219 28.375 28.574219 28.367188 C 31.394531 28.394531 34.214844 28.425781 37.066406 28.453125 C 37.074219 29.386719 37.09375 30.308594 36.96875 31.242188 Z M 29.566406 31.21875 C 29.441406 30.128906 28.914062 29.277344 28.046875 28.632812 C 28.058594 28.617188 28.070312 28.601562 28.082031 28.585938 C 28.195312 28.628906 28.3125 28.667969 28.421875 28.71875 C 28.835938 28.902344 29.210938 29.152344 29.5625 29.433594 C 30.140625 29.894531 30.664062 30.40625 31.117188 30.988281 C 31.167969 31.050781 31.214844 31.121094 31.285156 31.21875 C 30.683594 31.21875 30.136719 31.21875 29.566406 31.21875 Z M 27.757812 31.207031 C 27.800781 30.296875 27.816406 29.402344 27.363281 28.574219 C 28.210938 28.824219 29.171875 30.203125 29.199219 31.207031 C 28.714844 31.207031 28.25 31.207031 27.757812 31.207031 Z M 27.339844 31.199219 C 26.75 31.199219 26.167969 31.199219 25.546875 31.199219 C 25.59375 31.105469 25.628906 31.027344 25.671875 30.953125 C 25.949219 30.445312 26.171875 29.914062 26.265625 29.339844 C 26.3125 29.054688 26.339844 28.765625 26.382812 28.453125 C 26.425781 28.453125 26.492188 28.457031 26.550781 28.445312 C 26.859375 28.382812 27.011719 28.554688 27.121094 28.804688 C 27.261719 29.121094 27.339844 29.449219 27.371094 29.792969 C 27.410156 30.257812 27.421875 30.722656 27.339844 31.199219 Z M 25.027344 31.195312 C 24.558594 31.195312 24.101562 31.195312 23.636719 31.195312 C 24.105469 30.390625 25.578125 28.4375 26.007812 28.355469 C 26.121094 28.816406 25.570312 30.414062 25.027344 31.195312 Z M 23.132812 31.035156 C 23.039062 31.164062 22.9375 31.207031 22.78125 31.207031 C 20.917969 31.195312 19.054688 31.191406 17.191406 31.1875 C 16.523438 31.183594 15.855469 31.183594 15.183594 31.179688 C 15.105469 31.179688 15.023438 31.171875 14.945312 31.167969 C 14.945312 30.183594 14.945312 29.230469 14.945312 28.285156 C 15.175781 28.230469 24.765625 28.296875 25.371094 28.355469 C 25.355469 28.386719 25.351562 28.417969 25.328125 28.4375 C 24.804688 28.882812 24.367188 29.410156 23.949219 29.953125 C 23.671875 30.308594 23.398438 30.667969 23.132812 31.035156 Z M 13.675781 31.171875 C 10.574219 31.167969 7.472656 31.164062 4.371094 31.15625 C 4.222656 31.15625 4.066406 31.167969 3.925781 31.128906 C 3.445312 30.988281 3.242188 30.613281 3.1875 30.15625 C 3.125 29.648438 3.226562 29.160156 3.445312 28.695312 C 3.507812 28.566406 3.597656 28.480469 3.722656 28.421875 C 4.160156 28.210938 4.625 28.125 5.105469 28.128906 C 6.703125 28.152344 8.300781 28.171875 9.894531 28.191406 C 11.132812 28.207031 12.371094 28.222656 13.605469 28.234375 C 13.695312 28.234375 13.785156 28.234375 13.894531 28.234375 C 13.792969 29.238281 13.894531 30.183594 13.945312 31.160156 C 13.851562 31.164062 13.761719 31.171875 13.675781 31.171875 Z M 11.847656 35.835938 C 11.804688 36.046875 11.730469 36.253906 11.648438 36.453125 C 11.558594 36.660156 11.394531 36.8125 11.171875 36.867188 C 10.890625 36.941406 10.605469 37.015625 10.316406 37.042969 C 9.753906 37.101562 9.1875 37.132812 8.621094 37.171875 C 8.554688 37.175781 8.488281 37.164062 8.402344 37.160156 C 8.386719 36.882812 8.394531 36.628906 8.210938 36.402344 C 7.992188 36.613281 8.046875 36.882812 8.027344 37.152344 C 7.824219 37.144531 7.632812 37.144531 7.445312 37.125 C 7.003906 37.082031 6.570312 36.992188 6.160156 36.820312 C 5.648438 36.613281 5.316406 36.246094 5.222656 35.699219 C 5.113281 35.042969 5.023438 34.382812 4.941406 33.71875 C 4.859375 33.074219 4.800781 32.425781 4.734375 31.777344 C 4.730469 31.746094 4.734375 31.714844 4.734375 31.671875 C 5.109375 31.671875 5.472656 31.671875 5.820312 31.671875 C 5.820312 31.886719 5.8125 32.082031 5.824219 32.28125 C 5.832031 32.480469 5.859375 32.679688 5.878906 32.878906 C 5.894531 32.984375 5.929688 33.078125 6.058594 33.082031 C 6.160156 33.085938 6.230469 33.007812 6.230469 32.851562 C 6.234375 32.535156 6.21875 32.214844 6.207031 31.898438 C 6.203125 31.832031 6.195312 31.769531 6.183594 31.664062 C 6.757812 31.65625 7.316406 31.660156 7.890625 31.660156 C 7.875 31.980469 7.847656 32.269531 7.84375 32.558594 C 7.84375 32.757812 7.867188 32.957031 7.886719 33.15625 C 7.894531 33.203125 7.90625 33.261719 7.9375 33.292969 C 7.980469 33.339844 8.050781 33.398438 8.09375 33.390625 C 8.152344 33.375 8.230469 33.304688 8.238281 33.25 C 8.265625 32.984375 8.289062 32.71875 8.289062 32.453125 C 8.289062 32.203125 8.257812 31.953125 8.242188 31.703125 C 8.410156 31.652344 9.839844 31.636719 10.222656 31.6875 C 10.210938 31.796875 10.207031 31.914062 10.1875 32.023438 C 10.128906 32.308594 10.167969 32.589844 10.199219 32.871094 C 10.21875 33.058594 10.285156 33.148438 10.390625 33.152344 C 10.5 33.15625 10.589844 33.066406 10.601562 32.886719 C 10.617188 32.605469 10.613281 32.324219 10.609375 32.042969 C 10.605469 31.925781 10.582031 31.8125 10.5625 31.679688 C 11.089844 31.679688 11.601562 31.679688 12.132812 31.679688 C 12.140625 31.730469 12.15625 31.777344 12.15625 31.820312 C 12.164062 33.167969 12.097656 34.511719 11.847656 35.835938 Z M 8.492188 22.53125 C 9.640625 22.558594 10.53125 23.484375 10.503906 24.621094 C 10.515625 25.691406 9.605469 26.742188 8.332031 26.695312 C 7.207031 26.652344 6.308594 25.703125 6.332031 24.546875 C 6.359375 23.410156 7.332031 22.5 8.492188 22.53125 Z M 3.890625 23.421875 C 4.023438 22.773438 4.179688 22.132812 4.421875 21.519531 C 4.777344 20.621094 5.304688 19.851562 6.128906 19.316406 C 6.523438 19.054688 6.949219 18.867188 7.4375 18.867188 C 7.492188 18.867188 7.550781 18.867188 7.640625 18.867188 C 7.695312 20.019531 7.914062 21.125 8.355469 22.203125 C 6.867188 22.359375 6.164062 23.394531 6.046875 24.378906 C 5.929688 25.339844 6.417969 26.34375 7.402344 26.828125 C 8.214844 27.230469 9.523438 27.257812 10.515625 25.972656 C 10.996094 26.519531 11.472656 27.0625 11.945312 27.601562 C 11.9375 27.621094 11.933594 27.628906 11.929688 27.636719 C 11.925781 27.640625 11.917969 27.648438 11.914062 27.648438 C 9.230469 27.644531 6.546875 27.636719 3.867188 27.628906 C 3.824219 27.628906 3.785156 27.613281 3.71875 27.601562 C 3.6875 27.304688 3.648438 27.007812 3.621094 26.710938 C 3.535156 25.597656 3.671875 24.507812 3.890625 23.421875 Z M 13.089844 12.199219 C 14.296875 11.808594 15.535156 11.515625 16.792969 11.339844 C 18.164062 11.144531 19.542969 10.96875 20.917969 10.804688 C 21.574219 10.726562 22.234375 10.6875 22.890625 10.648438 C 23.84375 10.59375 24.792969 10.539062 25.746094 10.523438 C 26.964844 10.5 28.183594 10.550781 29.402344 10.667969 C 30.101562 10.734375 30.800781 10.761719 31.5 10.84375 C 32.71875 10.984375 33.9375 11.140625 35.152344 11.3125 C 36.230469 11.460938 37.289062 11.703125 38.335938 11.996094 C 39.261719 12.253906 40.164062 12.582031 40.980469 13.109375 C 41.046875 13.15625 41.113281 13.203125 41.164062 13.285156 C 41.015625 13.238281 40.871094 13.191406 40.722656 13.140625 C 38.988281 12.566406 37.210938 12.175781 35.410156 11.898438 C 34.132812 11.707031 32.847656 11.53125 31.558594 11.402344 C 29.011719 11.152344 26.453125 11.066406 23.894531 11.136719 C 22.683594 11.171875 21.472656 11.214844 20.265625 11.304688 C 18.148438 11.460938 16.042969 11.738281 13.96875 12.195312 C 13.339844 12.335938 12.71875 12.503906 12.097656 12.660156 C 12.042969 12.671875 11.992188 12.679688 11.9375 12.691406 C 11.933594 12.675781 11.929688 12.660156 11.921875 12.640625 C 12.3125 12.492188 12.695312 12.328125 13.089844 12.199219 Z M 37.976562 11.242188 C 37.65625 11.167969 37.351562 11.097656 37.046875 11.03125 C 35.945312 10.785156 34.832031 10.609375 33.710938 10.480469 C 32.957031 10.394531 32.203125 10.292969 31.445312 10.230469 C 30.472656 10.148438 29.496094 10.101562 28.519531 10.039062 C 27.945312 10 27.367188 9.96875 26.792969 9.921875 C 26.007812 9.859375 25.222656 9.894531 24.441406 9.949219 C 23.308594 10.03125 22.171875 10.097656 21.039062 10.191406 C 20.234375 10.261719 19.425781 10.34375 18.625 10.449219 C 17.65625 10.578125 16.6875 10.710938 15.726562 10.894531 C 14.917969 11.046875 14.121094 11.273438 13.316406 11.46875 C 13.222656 11.492188 13.128906 11.519531 13 11.558594 C 13.207031 10.132812 13.488281 8.753906 13.847656 7.390625 C 14.441406 7.300781 15.015625 7.210938 15.59375 7.132812 C 16.4375 7.015625 17.28125 6.894531 18.128906 6.808594 C 19.050781 6.710938 19.976562 6.632812 20.902344 6.582031 C 22.292969 6.5 23.6875 6.4375 25.082031 6.386719 C 26.519531 6.335938 27.953125 6.339844 29.390625 6.414062 C 30.980469 6.496094 32.550781 6.710938 34.105469 7.046875 C 35.199219 7.277344 36.292969 7.511719 37.386719 7.742188 C 37.457031 7.757812 37.53125 7.78125 37.632812 7.804688 C 37.757812 8.949219 37.96875 10.074219 37.976562 11.242188 Z M 13.171875 6.695312 C 13.984375 6.476562 14.800781 6.234375 15.625 6.03125 C 16.800781 5.742188 18 5.554688 19.203125 5.410156 C 20.613281 5.242188 22.027344 5.144531 23.449219 5.097656 C 24.910156 5.046875 26.375 5.0625 27.835938 5.128906 C 29.832031 5.222656 31.816406 5.417969 33.792969 5.726562 C 35.335938 5.96875 36.863281 6.285156 38.375 6.679688 C 38.4375 6.695312 38.5 6.71875 38.585938 6.742188 C 38.703125 7.535156 38.847656 8.320312 38.890625 9.121094 C 38.933594 9.910156 38.949219 10.699219 38.976562 11.527344 C 38.726562 11.453125 38.515625 11.390625 38.339844 11.339844 C 38.296875 10.757812 38.261719 10.207031 38.210938 9.660156 C 38.164062 9.195312 38.105469 8.730469 38.03125 8.269531 C 38 8.066406 37.925781 7.867188 37.875 7.667969 C 37.839844 7.527344 37.75 7.457031 37.617188 7.425781 C 37.226562 7.332031 36.84375 7.21875 36.449219 7.136719 C 35.199219 6.882812 33.945312 6.628906 32.691406 6.398438 C 31.628906 6.207031 30.554688 6.109375 29.476562 6.050781 C 28.09375 5.976562 26.707031 5.945312 25.316406 6.007812 C 24.007812 6.070312 22.695312 6.105469 21.386719 6.179688 C 19.777344 6.273438 18.167969 6.402344 16.574219 6.660156 C 15.652344 6.8125 14.730469 6.96875 13.808594 7.117188 C 13.703125 7.132812 13.664062 7.195312 13.636719 7.273438 C 13.507812 7.632812 13.355469 7.988281 13.261719 8.359375 C 12.984375 9.445312 12.75 10.539062 12.652344 11.683594 C 12.425781 11.769531 12.207031 11.855469 11.96875 11.949219 C 12.273438 10.171875 12.75 8.457031 13.171875 6.695312 Z M 41.496094 24.550781 C 41.519531 23.414062 42.488281 22.503906 43.648438 22.53125 C 44.796875 22.554688 45.691406 23.480469 45.664062 24.617188 C 45.675781 25.691406 44.769531 26.742188 43.496094 26.695312 C 42.371094 26.65625 41.472656 25.707031 41.496094 24.550781 Z M 44.445312 18.875 C 44.804688 18.855469 45.136719 18.894531 45.453125 19.039062 C 46.257812 19.402344 46.859375 19.992188 47.296875 20.75 C 47.679688 21.414062 47.90625 22.136719 48.078125 22.882812 C 48.3125 23.894531 48.496094 24.914062 48.488281 25.953125 C 48.484375 26.46875 48.414062 26.984375 48.375 27.503906 C 48.355469 27.78125 48.179688 27.933594 47.933594 28.015625 C 47.832031 28.046875 47.71875 28.066406 47.613281 28.0625 C 45.238281 28.015625 42.867188 27.960938 40.496094 27.910156 C 40.320312 27.90625 40.144531 27.910156 39.96875 27.910156 C 39.957031 27.890625 39.945312 27.871094 39.933594 27.847656 C 40.472656 27.230469 41.011719 26.609375 41.570312 25.972656 C 41.628906 26.042969 41.6875 26.109375 41.742188 26.175781 C 42.78125 27.441406 44.730469 27.34375 45.640625 25.984375 C 46.496094 24.710938 45.902344 22.910156 44.449219 22.378906 C 44.230469 22.300781 44 22.257812 43.738281 22.1875 C 44.164062 21.140625 44.398438 20.035156 44.445312 18.875 Z M 41.40625 40.941406 C 41.636719 40.898438 41.863281 40.855469 42.09375 40.8125 C 42.167969 40.800781 42.238281 40.792969 42.3125 40.785156 C 42.0625 41.039062 41.867188 41.292969 41.746094 41.601562 C 41.699219 41.722656 41.597656 41.722656 41.503906 41.738281 C 41.015625 41.804688 40.53125 41.871094 40.042969 41.941406 C 39.757812 41.984375 39.472656 42.03125 39.164062 42.082031 C 39.183594 41.789062 39.308594 41.546875 39.492188 41.34375 C 39.542969 41.28125 39.648438 41.253906 39.734375 41.238281 C 40.292969 41.136719 40.847656 41.039062 41.40625 40.941406 Z M 43.949219 41.234375 C 44.171875 41.554688 44.246094 41.792969 44.261719 42.3125 C 44.304688 42.71875 44.117188 43.101562 43.757812 43.390625 C 43.375 43.699219 42.992188 43.738281 42.601562 43.414062 C 42.046875 42.949219 41.707031 42.03125 42.347656 41.195312 C 42.800781 40.605469 43.523438 40.625 43.949219 41.234375 Z M 42.355469 43.785156 C 41.554688 43.828125 40.753906 43.867188 39.953125 43.90625 C 39.945312 43.910156 39.933594 43.90625 39.925781 43.90625 C 39.542969 43.90625 39.476562 43.859375 39.335938 43.457031 C 40.183594 43.292969 41.042969 43.273438 41.871094 43.160156 C 42.066406 43.363281 42.25 43.554688 42.441406 43.753906 C 42.410156 43.765625 42.382812 43.785156 42.355469 43.785156 Z M 39.214844 43.222656 C 39.0625 42.945312 39.042969 42.660156 39.101562 42.367188 C 39.953125 42.234375 40.789062 42.101562 41.609375 41.972656 C 41.660156 42.289062 41.710938 42.617188 41.769531 42.960938 C 40.925781 43 40.066406 43.019531 39.214844 43.222656 Z M 33.304688 42.066406 C 33.363281 42.125 33.421875 42.195312 33.496094 42.226562 C 33.554688 42.25 33.648438 42.242188 33.699219 42.210938 C 33.769531 42.164062 33.761719 42.074219 33.714844 42.007812 C 33.652344 41.917969 33.582031 41.835938 33.511719 41.75 C 33.398438 41.609375 33.285156 41.46875 33.152344 41.304688 C 33.277344 41.242188 33.378906 41.191406 33.484375 41.140625 C 33.660156 41.398438 33.816406 41.644531 33.988281 41.878906 C 34.160156 42.113281 34.347656 42.332031 34.539062 42.574219 C 34.1875 42.699219 33.910156 42.894531 33.71875 43.207031 C 33.308594 42.746094 32.921875 42.308594 32.519531 41.855469 C 32.613281 41.757812 32.707031 41.660156 32.816406 41.542969 C 32.988281 41.730469 33.144531 41.898438 33.304688 42.066406 Z M 34.089844 41.175781 C 34.414062 41.550781 34.738281 41.917969 35.0625 42.289062 C 35.117188 42.347656 35.167969 42.414062 35.25 42.515625 C 35.074219 42.515625 34.960938 42.515625 34.820312 42.515625 C 34.441406 42.058594 34.050781 41.585938 33.652344 41.109375 C 33.925781 40.984375 33.929688 40.988281 34.089844 41.175781 Z M 35.84375 44.164062 C 35.6875 44.402344 35.480469 44.574219 35.226562 44.695312 C 34.542969 45.023438 33.757812 44.398438 33.8125 43.769531 C 33.789062 43.566406 33.875 43.386719 33.988281 43.21875 C 34.25 42.839844 34.640625 42.699219 35.074219 42.703125 C 35.726562 42.710938 36.242188 43.542969 35.84375 44.164062 Z M 33.535156 44.054688 C 33.058594 43.46875 32.621094 42.925781 32.171875 42.375 C 32.253906 42.242188 32.328125 42.117188 32.417969 41.972656 C 32.824219 42.460938 33.210938 42.933594 33.597656 43.402344 C 33.578125 43.597656 33.558594 43.796875 33.535156 44.054688 Z M 28.445312 43.257812 C 28.683594 43.234375 28.863281 43.289062 29.023438 43.46875 C 29.144531 43.605469 29.253906 43.746094 29.324219 43.917969 C 28.800781 43.980469 28.296875 44.042969 27.796875 44.101562 C 27.503906 44.132812 27.214844 44.171875 26.925781 44.199219 C 26.859375 44.203125 26.761719 44.191406 26.726562 44.148438 C 26.507812 43.878906 26.25 43.664062 25.9375 43.492188 C 26.023438 43.480469 26.113281 43.464844 26.203125 43.457031 C 26.949219 43.390625 27.699219 43.332031 28.445312 43.257812 Z M 29.457031 44.1875 C 29.589844 44.4375 29.628906 44.71875 29.582031 45.039062 C 28.714844 45.074219 27.871094 45.253906 27.003906 45.460938 C 27.003906 45.285156 27.015625 45.121094 27 44.960938 C 26.984375 44.796875 26.9375 44.636719 26.902344 44.460938 C 27.742188 44.371094 28.582031 44.28125 29.457031 44.1875 Z M 29.398438 45.730469 C 29.363281 45.789062 29.265625 45.832031 29.191406 45.851562 C 28.859375 45.9375 28.527344 46.019531 28.195312 46.089844 C 27.714844 46.195312 27.230469 46.289062 26.746094 46.382812 C 26.695312 46.394531 26.636719 46.398438 26.578125 46.402344 C 26.714844 46.160156 26.84375 45.929688 26.984375 45.671875 C 27.796875 45.542969 28.640625 45.410156 29.511719 45.273438 C 29.523438 45.464844 29.46875 45.605469 29.398438 45.730469 Z M 26.320312 46.128906 C 26.058594 46.472656 25.738281 46.582031 25.328125 46.425781 C 24.902344 46.261719 24.59375 45.980469 24.46875 45.519531 C 24.355469 45.105469 24.328125 44.695312 24.5 44.292969 C 24.605469 44.035156 24.773438 43.835938 25.035156 43.722656 C 25.339844 43.589844 25.632812 43.652344 25.894531 43.816406 C 26.367188 44.117188 26.640625 44.546875 26.652344 45.113281 C 26.640625 45.492188 26.550781 45.832031 26.320312 46.128906 Z M 19.082031 42.304688 C 19.074219 42.316406 19.066406 42.328125 19.058594 42.339844 C 18.914062 42.289062 18.769531 42.234375 18.613281 42.175781 C 18.648438 42.097656 18.679688 42.03125 18.710938 41.964844 C 18.734375 41.921875 18.757812 41.878906 18.796875 41.800781 C 18.902344 41.984375 18.992188 42.144531 19.082031 42.304688 Z M 19.375 43.625 C 19.375 44.332031 18.753906 45.011719 18.105469 44.992188 C 17.308594 44.964844 16.742188 44.300781 16.75 43.679688 C 16.761719 43.082031 17.265625 42.390625 18.082031 42.394531 C 18.789062 42.398438 19.375 42.953125 19.375 43.625 Z M 15.898438 41.019531 C 16.015625 40.9375 16.140625 40.851562 16.273438 40.757812 C 16.476562 41.398438 16.671875 42.015625 16.875 42.667969 C 16.773438 42.808594 16.660156 42.96875 16.53125 43.148438 C 16.316406 42.433594 16.113281 41.738281 15.898438 41.019531 Z M 17.21875 40.398438 C 17.386719 40.976562 17.550781 41.554688 17.722656 42.148438 C 17.511719 42.246094 17.300781 42.351562 17.082031 42.457031 C 16.882812 41.855469 16.683594 41.257812 16.484375 40.652344 C 16.699219 40.507812 16.9375 40.4375 17.21875 40.398438 Z M 18.15625 40.539062 C 18.183594 40.546875 18.207031 40.574219 18.226562 40.601562 C 18.246094 40.628906 18.253906 40.660156 18.265625 40.691406 C 18.347656 40.882812 18.488281 41.070312 18.496094 41.265625 C 18.507812 41.457031 18.386719 41.65625 18.324219 41.855469 C 18.296875 41.941406 18.273438 42.027344 18.242188 42.128906 C 18.164062 42.128906 18.085938 42.128906 18.03125 42.128906 C 17.820312 41.546875 17.617188 40.980469 17.410156 40.402344 C 17.6875 40.371094 17.917969 40.472656 18.15625 40.539062 Z M 13.765625 41.601562 C 14 41.578125 14.1875 41.621094 14.347656 41.804688 C 14.46875 41.941406 14.574219 42.085938 14.65625 42.261719 C 13.914062 42.351562 13.203125 42.4375 12.492188 42.519531 C 12.390625 42.53125 12.292969 42.550781 12.191406 42.546875 C 12.140625 42.546875 12.074219 42.523438 12.042969 42.484375 C 11.832031 42.210938 11.566406 42.007812 11.195312 41.84375 C 11.351562 41.824219 11.449219 41.808594 11.546875 41.796875 C 12.285156 41.734375 13.027344 41.675781 13.765625 41.601562 Z M 14.785156 42.53125 C 14.925781 42.78125 14.945312 43.0625 14.90625 43.382812 C 14.035156 43.417969 13.1875 43.605469 12.359375 43.796875 C 12.324219 43.457031 12.292969 43.136719 12.261719 42.800781 C 13.078125 42.714844 13.925781 42.621094 14.785156 42.53125 Z M 14.847656 43.699219 C 14.820312 44.027344 14.65625 44.195312 14.324219 44.257812 C 13.546875 44.40625 12.773438 44.582031 12 44.746094 C 11.976562 44.75 11.949219 44.746094 11.910156 44.746094 C 12.042969 44.503906 12.171875 44.269531 12.308594 44.015625 C 13.136719 43.910156 13.96875 43.707031 14.84375 43.644531 C 14.847656 43.683594 14.847656 43.691406 14.847656 43.699219 Z M 11.511719 44.632812 C 11.375 44.773438 11.207031 44.835938 11.011719 44.828125 C 10.542969 44.808594 10.164062 44.597656 9.941406 44.195312 C 9.667969 43.699219 9.605469 43.167969 9.832031 42.625 C 9.933594 42.386719 10.089844 42.199219 10.328125 42.085938 C 10.648438 41.925781 10.957031 41.992188 11.234375 42.167969 C 12.199219 42.789062 12.164062 43.964844 11.511719 44.632812 Z M 49.394531 29.816406 C 49.300781 29.324219 49.152344 28.84375 48.851562 28.429688 C 48.804688 28.359375 48.777344 28.296875 48.808594 28.199219 C 49.0625 27.410156 49.117188 26.59375 49.09375 25.773438 C 49.066406 24.816406 48.914062 23.875 48.707031 22.945312 C 48.53125 22.152344 48.300781 21.375 47.90625 20.660156 C 47.449219 19.828125 46.832031 19.152344 45.992188 18.691406 C 45.539062 18.4375 45.0625 18.324219 44.546875 18.453125 C 44.523438 18.457031 44.5 18.449219 44.445312 18.449219 C 44.445312 18.3125 44.449219 18.179688 44.445312 18.050781 C 44.4375 17.917969 44.425781 17.78125 44.414062 17.648438 C 44.273438 15.925781 43.527344 14.5 42.273438 13.332031 C 41.492188 12.601562 40.570312 12.101562 39.570312 11.738281 C 39.484375 11.707031 39.402344 11.671875 39.332031 11.644531 C 39.347656 11.320312 39.375 11.023438 39.378906 10.722656 C 39.386719 9.929688 39.320312 9.136719 39.222656 8.351562 C 39.148438 7.738281 39.050781 7.128906 38.867188 6.535156 C 38.847656 6.464844 38.78125 6.398438 38.71875 6.355469 C 38.660156 6.3125 38.578125 6.304688 38.503906 6.285156 C 37.105469 5.929688 35.691406 5.644531 34.265625 5.40625 C 32.664062 5.144531 31.054688 4.953125 29.4375 4.832031 C 27.5625 4.691406 25.683594 4.621094 23.800781 4.699219 C 22.875 4.738281 21.949219 4.789062 21.023438 4.863281 C 20.257812 4.925781 19.496094 5.03125 18.734375 5.121094 C 17.554688 5.261719 16.382812 5.425781 15.226562 5.71875 C 14.585938 5.878906 13.953125 6.058594 13.335938 6.292969 C 13.066406 6.394531 12.917969 6.566406 12.84375 6.832031 C 12.609375 7.660156 12.347656 8.480469 12.144531 9.3125 C 11.929688 10.207031 11.769531 11.109375 11.59375 12.011719 C 11.570312 12.121094 11.511719 12.160156 11.429688 12.210938 C 11.136719 12.382812 10.832031 12.546875 10.554688 12.746094 C 8.878906 13.9375 7.882812 15.539062 7.679688 17.609375 C 7.652344 17.890625 7.640625 18.171875 7.621094 18.460938 C 7.507812 18.445312 7.410156 18.429688 7.3125 18.414062 C 6.839844 18.347656 6.417969 18.5 6.023438 18.730469 C 5.148438 19.238281 4.523438 19.96875 4.074219 20.867188 C 3.714844 21.589844 3.503906 22.363281 3.339844 23.148438 C 3.015625 24.679688 2.835938 26.21875 3.160156 27.773438 C 3.183594 27.894531 3.152344 27.976562 3.066406 28.0625 C 2.816406 28.320312 2.636719 28.621094 2.59375 28.984375 C 2.527344 29.582031 2.5625 30.179688 2.796875 30.734375 C 3.027344 31.269531 3.425781 31.632812 4.0625 31.632812 C 4.164062 31.632812 4.261719 31.648438 4.375 31.65625 C 4.375 31.785156 4.371094 31.902344 4.378906 32.015625 C 4.429688 32.816406 4.464844 33.617188 4.542969 34.414062 C 4.589844 34.894531 4.679688 35.371094 4.78125 35.84375 C 4.921875 36.484375 5.289062 36.972656 5.898438 37.234375 C 6.234375 37.378906 6.585938 37.488281 6.941406 37.574219 C 7.480469 37.710938 8.035156 37.710938 8.585938 37.714844 C 9.433594 37.726562 10.269531 37.652344 11.09375 37.4375 C 11.710938 37.277344 12.085938 36.890625 12.257812 36.285156 C 12.515625 35.386719 12.601562 34.464844 12.640625 33.535156 C 12.664062 32.992188 12.640625 32.449219 12.644531 31.90625 C 12.644531 31.835938 12.652344 31.761719 12.65625 31.703125 C 15.96875 31.703125 19.261719 31.703125 22.597656 31.703125 C 22.535156 31.789062 22.503906 31.839844 22.46875 31.882812 C 21.898438 32.613281 21.328125 33.347656 20.75 34.070312 C 20.234375 34.71875 19.660156 35.316406 19.0625 35.890625 C 18.136719 36.777344 17.117188 37.546875 16.085938 38.304688 C 15.058594 39.0625 14.097656 39.886719 13.320312 40.910156 C 13.210938 41.054688 13.113281 41.234375 12.960938 41.316406 C 12.8125 41.398438 12.601562 41.367188 12.421875 41.398438 C 11.78125 41.507812 11.136719 41.605469 10.5 41.746094 C 10 41.859375 9.683594 42.1875 9.53125 42.691406 C 9.386719 43.171875 9.453125 43.625 9.585938 44.09375 C 9.746094 44.648438 10.488281 45.191406 11.117188 45.144531 C 11.339844 45.128906 11.566406 45.113281 11.789062 45.074219 C 12.453125 44.957031 13.117188 44.824219 13.78125 44.695312 C 14.082031 44.632812 14.386719 44.570312 14.679688 44.480469 C 14.800781 44.445312 14.949219 44.371094 15.003906 44.269531 C 15.226562 43.851562 15.371094 43.402344 15.328125 42.921875 C 15.273438 42.304688 14.945312 41.828125 14.464844 41.453125 C 14.289062 41.3125 14.082031 41.257812 13.855469 41.28125 C 13.761719 41.289062 13.660156 41.3125 13.558594 41.25 C 13.742188 41.058594 13.914062 40.875 14.089844 40.699219 C 14.507812 40.289062 14.902344 39.851562 15.351562 39.480469 C 16.0625 38.898438 16.8125 38.363281 17.542969 37.808594 C 18.847656 36.808594 20.050781 35.699219 21.09375 34.421875 C 21.773438 33.589844 22.429688 32.730469 23.085938 31.875 C 23.191406 31.738281 23.296875 31.691406 23.460938 31.695312 C 23.820312 31.703125 24.179688 31.699219 24.539062 31.699219 C 24.59375 31.703125 24.644531 31.714844 24.714844 31.726562 C 24.660156 31.824219 24.621094 31.894531 24.578125 31.964844 C 24.261719 32.425781 23.957031 32.898438 23.621094 33.347656 C 22.675781 34.621094 21.703125 35.875 20.761719 37.15625 C 19.933594 38.285156 19.246094 39.496094 18.707031 40.789062 C 18.695312 40.824219 18.667969 40.851562 18.628906 40.910156 C 18.5625 40.761719 18.523438 40.644531 18.464844 40.539062 C 18.414062 40.453125 18.355469 40.355469 18.277344 40.3125 C 17.546875 39.949219 16.527344 40.046875 15.890625 40.753906 C 15.730469 40.929688 15.675781 41.113281 15.742188 41.351562 C 15.886719 41.855469 16.007812 42.367188 16.144531 42.875 C 16.257812 43.300781 16.375 43.726562 16.5 44.152344 C 16.765625 45.050781 17.691406 45.453125 18.34375 45.335938 C 19.195312 45.183594 19.835938 44.335938 19.707031 43.480469 C 19.632812 42.992188 19.539062 42.492188 19.285156 42.050781 C 19.195312 41.898438 19.125 41.734375 19.035156 41.585938 C 18.972656 41.480469 18.972656 41.394531 19.023438 41.285156 C 19.199219 40.921875 19.367188 40.558594 19.539062 40.195312 C 20.261719 38.667969 21.203125 37.28125 22.207031 35.933594 C 23.214844 34.578125 24.28125 33.265625 25.164062 31.824219 C 25.226562 31.722656 25.304688 31.699219 25.414062 31.699219 C 25.964844 31.703125 26.515625 31.703125 27.066406 31.703125 C 27.125 31.703125 27.183594 31.714844 27.25 31.71875 C 27.238281 31.789062 27.234375 31.847656 27.21875 31.902344 C 27.089844 32.4375 26.96875 32.976562 26.816406 33.503906 C 26.394531 34.964844 25.988281 36.425781 25.824219 37.945312 C 25.710938 38.988281 25.738281 40.011719 25.972656 41.035156 C 26.117188 41.675781 26.410156 42.257812 26.664062 42.855469 C 26.695312 42.929688 26.722656 43 26.761719 43.089844 C 26.617188 43.109375 26.5 43.125 26.386719 43.148438 C 25.976562 43.230469 25.5625 43.296875 25.160156 43.402344 C 24.664062 43.53125 24.34375 43.855469 24.199219 44.359375 C 24.058594 44.835938 24.125 45.296875 24.261719 45.761719 C 24.421875 46.296875 25.152344 46.84375 25.777344 46.800781 C 26.007812 46.785156 26.246094 46.769531 26.472656 46.726562 C 27.128906 46.609375 27.785156 46.480469 28.441406 46.351562 C 28.75 46.289062 29.058594 46.214844 29.367188 46.136719 C 29.554688 46.089844 29.695312 45.976562 29.753906 45.78125 C 29.804688 45.613281 29.875 45.449219 29.917969 45.28125 C 30.140625 44.445312 29.847656 43.621094 29.148438 43.113281 C 28.972656 42.988281 28.78125 42.917969 28.5625 42.933594 C 28.269531 42.953125 27.976562 42.96875 27.6875 42.988281 C 27.496094 43.003906 27.308594 43.023438 27.113281 43.042969 C 26.964844 42.605469 26.808594 42.183594 26.675781 41.753906 C 26.367188 40.765625 26.1875 39.761719 26.234375 38.71875 C 26.289062 37.644531 26.476562 36.59375 26.734375 35.554688 C 26.96875 34.589844 27.234375 33.632812 27.480469 32.671875 C 27.558594 32.359375 27.617188 32.039062 27.683594 31.726562 C 28.011719 31.679688 29.117188 31.695312 29.316406 31.757812 C 29.363281 32.488281 29.414062 33.230469 29.457031 33.972656 C 29.507812 34.789062 29.578125 35.605469 29.757812 36.40625 C 30.015625 37.550781 30.425781 38.636719 31.132812 39.582031 C 31.554688 40.148438 32.046875 40.667969 32.507812 41.207031 C 32.5625 41.273438 32.625 41.339844 32.679688 41.398438 C 32.453125 41.660156 32.222656 41.878906 32.105469 42.1875 C 32.050781 42.332031 32.054688 42.449219 32.144531 42.582031 C 32.640625 43.308594 33.179688 44 33.796875 44.628906 C 34.445312 45.289062 35.21875 45.195312 35.800781 44.71875 C 36.414062 44.214844 36.386719 43.484375 35.988281 43 C 35.640625 42.570312 35.265625 42.167969 34.890625 41.761719 C 34.636719 41.488281 34.367188 41.226562 34.109375 40.949219 C 34.011719 40.84375 33.894531 40.816406 33.769531 40.855469 C 33.519531 40.929688 33.269531 41.019531 33.003906 41.109375 C 32.789062 40.855469 32.554688 40.585938 32.328125 40.304688 C 31.972656 39.863281 31.597656 39.433594 31.28125 38.960938 C 30.441406 37.703125 30.042969 36.289062 29.90625 34.792969 C 29.847656 34.1875 29.816406 33.578125 29.765625 32.96875 C 29.734375 32.5625 29.699219 32.15625 29.660156 31.707031 C 29.761719 31.707031 29.84375 31.707031 29.925781 31.707031 C 30.402344 31.707031 30.878906 31.714844 31.355469 31.699219 C 31.550781 31.691406 31.660156 31.753906 31.746094 31.929688 C 32.097656 32.675781 32.46875 33.417969 32.820312 34.164062 C 33.144531 34.84375 33.492188 35.507812 33.929688 36.125 C 34.671875 37.175781 35.605469 38.027344 36.644531 38.773438 C 37.679688 39.515625 38.78125 40.140625 39.929688 40.695312 C 39.984375 40.71875 40.03125 40.757812 40.117188 40.8125 C 39.925781 40.855469 39.777344 40.875 39.640625 40.929688 C 39.488281 40.988281 39.3125 41.050781 39.210938 41.164062 C 38.777344 41.636719 38.589844 42.207031 38.667969 42.847656 C 38.714844 43.230469 38.933594 43.542969 39.128906 43.867188 C 39.304688 44.148438 39.546875 44.257812 39.867188 44.238281 C 39.90625 44.234375 39.949219 44.238281 39.992188 44.234375 C 40.5 44.207031 41.011719 44.195312 41.519531 44.152344 C 42.097656 44.101562 42.683594 44.042969 43.257812 43.945312 C 43.910156 43.835938 44.320312 43.398438 44.476562 42.785156 C 44.632812 42.152344 44.511719 41.535156 44.105469 41.003906 C 43.914062 40.753906 43.667969 40.558594 43.335938 40.535156 C 43.054688 40.519531 42.769531 40.496094 42.492188 40.511719 C 42.066406 40.539062 41.640625 40.582031 41.21875 40.648438 C 40.992188 40.683594 40.792969 40.648438 40.597656 40.535156 C 40.539062 40.5 40.476562 40.476562 40.417969 40.441406 C 39.613281 39.96875 38.800781 39.503906 38.003906 39.011719 C 37.507812 38.707031 37.027344 38.371094 36.5625 38.015625 C 35.242188 37.015625 34.210938 35.769531 33.488281 34.273438 C 33.101562 33.46875 32.691406 32.671875 32.289062 31.875 C 32.265625 31.828125 32.246094 31.777344 32.226562 31.730469 C 34.683594 31.730469 37.121094 31.730469 39.566406 31.730469 C 39.570312 31.800781 39.578125 31.847656 39.578125 31.898438 C 39.570312 32.222656 39.542969 32.550781 39.558594 32.875 C 39.59375 33.617188 39.632812 34.359375 39.707031 35.097656 C 39.757812 35.59375 39.859375 36.089844 40.042969 36.558594 C 40.207031 36.972656 40.5 37.257812 40.921875 37.398438 C 41.148438 37.472656 41.386719 37.527344 41.621094 37.578125 C 42.480469 37.753906 43.351562 37.75 44.21875 37.726562 C 44.882812 37.707031 45.53125 37.59375 46.152344 37.34375 C 46.886719 37.042969 47.3125 36.503906 47.46875 35.730469 C 47.660156 34.761719 47.746094 33.78125 47.804688 32.800781 C 47.824219 32.484375 47.835938 32.167969 47.851562 31.832031 C 47.964844 31.824219 48.0625 31.808594 48.160156 31.8125 C 48.625 31.835938 48.949219 31.613281 49.15625 31.226562 C 49.390625 30.789062 49.488281 30.308594 49.394531 29.816406 " fill-opacity="1" fill-rule="nonzero"/></g><path fill="#2f3e55" d="M 33.132812 25.175781 C 32.972656 25.203125 32.804688 25.253906 32.613281 25.160156 C 32.613281 24.921875 32.605469 24.671875 32.613281 24.425781 C 32.625 24.167969 32.648438 23.910156 32.671875 23.652344 C 32.71875 23.160156 32.730469 22.667969 32.636719 22.175781 C 33.335938 21.84375 34.003906 21.484375 34.738281 21.277344 C 34.980469 21.210938 35.21875 21.132812 35.457031 21.058594 C 35.660156 20.992188 35.710938 20.917969 35.664062 20.707031 C 35.625 20.527344 35.570312 20.351562 35.519531 20.175781 C 35.511719 20.136719 35.507812 20.097656 35.5 20.046875 C 36.230469 20.144531 36.925781 20 37.617188 19.847656 C 38.324219 19.691406 39.027344 19.507812 39.734375 19.335938 C 39.875 19.300781 40.015625 19.253906 40.183594 19.246094 C 40.109375 19.332031 40.039062 19.425781 39.964844 19.507812 C 39.53125 19.984375 39.089844 20.453125 38.671875 20.941406 C 38.457031 21.195312 38.289062 21.484375 38.105469 21.765625 C 38.058594 21.832031 38.03125 21.914062 38.007812 21.992188 C 37.933594 22.242188 38.007812 22.441406 38.230469 22.574219 C 38.351562 22.648438 38.480469 22.707031 38.609375 22.769531 C 39.046875 22.972656 39.484375 23.175781 39.921875 23.382812 C 39.988281 23.414062 40.054688 23.453125 40.117188 23.488281 C 40.117188 23.503906 40.117188 23.523438 40.113281 23.542969 C 39.535156 23.722656 38.953125 23.90625 38.371094 24.082031 C 37.25 24.417969 36.109375 24.65625 34.957031 24.859375 C 34.351562 24.96875 33.742188 25.078125 33.132812 25.175781 Z M 31.230469 21.289062 C 30.285156 21.46875 29.332031 21.476562 28.386719 21.34375 C 27.378906 21.203125 26.375 21.015625 25.371094 20.84375 C 24.175781 20.636719 22.976562 20.46875 21.761719 20.488281 C 20.574219 20.507812 19.390625 20.589844 18.230469 20.871094 C 17.777344 20.980469 17.339844 21.140625 16.871094 21.285156 C 16.914062 20.59375 16.980469 19.921875 17.132812 19.261719 C 17.363281 18.25 17.730469 17.28125 18.039062 16.292969 C 18.140625 15.96875 18.308594 15.816406 18.621094 15.703125 C 19.847656 15.257812 21.117188 15.027344 22.402344 14.851562 C 23.476562 14.703125 24.558594 14.601562 25.648438 14.648438 C 26.542969 14.6875 27.421875 14.84375 28.285156 15.089844 C 29.707031 15.496094 31.152344 15.632812 32.625 15.496094 C 33.148438 15.445312 33.664062 15.351562 34.1875 15.277344 C 34.242188 15.269531 34.296875 15.265625 34.363281 15.257812 C 34.511719 17.070312 34.765625 18.851562 35.269531 20.609375 C 35.195312 20.617188 35.132812 20.628906 35.074219 20.625 C 34.558594 20.613281 34.058594 20.691406 33.558594 20.804688 C 32.785156 20.976562 32.007812 21.140625 31.230469 21.289062 Z M 18.03125 24.550781 C 16.660156 24.9375 13.628906 25.019531 12.878906 24.671875 C 12.945312 24.601562 13.007812 24.539062 13.066406 24.476562 C 13.375 24.160156 13.691406 23.851562 13.984375 23.519531 C 14.105469 23.378906 14.195312 23.195312 14.261719 23.019531 C 14.355469 22.769531 14.285156 22.554688 14.0625 22.40625 C 13.890625 22.292969 13.695312 22.203125 13.503906 22.128906 C 12.957031 21.914062 12.386719 21.796875 11.804688 21.703125 C 13.453125 21.242188 15.050781 20.640625 16.613281 19.859375 C 16.585938 20.089844 16.550781 20.289062 16.539062 20.492188 C 16.519531 20.832031 16.496094 21.175781 16.507812 21.515625 C 16.519531 21.75 16.554688 21.734375 16.789062 21.753906 C 17.253906 21.792969 17.722656 21.726562 18.210938 21.855469 C 17.949219 22.742188 17.980469 23.652344 18.03125 24.550781 Z M 40.238281 23.894531 C 40.386719 23.84375 40.53125 23.777344 40.667969 23.695312 C 40.820312 23.609375 40.839844 23.453125 40.71875 23.34375 C 40.644531 23.277344 40.554688 23.226562 40.464844 23.183594 C 39.863281 22.914062 39.261719 22.644531 38.660156 22.375 C 38.289062 22.210938 38.273438 22.167969 38.460938 21.800781 C 38.648438 21.429688 38.925781 21.128906 39.199219 20.824219 C 39.558594 20.417969 39.910156 20.003906 40.261719 19.589844 C 40.351562 19.480469 40.421875 19.355469 40.488281 19.230469 C 40.601562 19.019531 40.539062 18.898438 40.296875 18.871094 C 40.175781 18.859375 40.042969 18.863281 39.925781 18.894531 C 39.480469 19 39.039062 19.128906 38.589844 19.230469 C 37.785156 19.414062 36.976562 19.59375 36.167969 19.75 C 35.9375 19.796875 35.6875 19.757812 35.429688 19.757812 C 35.410156 19.679688 35.382812 19.609375 35.371094 19.539062 C 35.171875 18.523438 34.984375 17.507812 34.910156 16.46875 C 34.882812 16.046875 34.804688 15.625 34.722656 15.207031 C 34.675781 14.945312 34.589844 14.890625 34.324219 14.902344 C 33.921875 14.914062 33.519531 14.925781 33.121094 14.96875 C 31.476562 15.152344 29.855469 15.046875 28.257812 14.589844 C 27.332031 14.328125 26.382812 14.167969 25.417969 14.148438 C 24.730469 14.136719 24.046875 14.171875 23.367188 14.246094 C 22.351562 14.355469 21.34375 14.507812 20.359375 14.78125 C 19.644531 14.984375 18.9375 15.203125 18.222656 15.414062 C 18.035156 15.472656 17.914062 15.59375 17.847656 15.78125 C 17.429688 16.953125 16.980469 18.117188 16.726562 19.339844 C 16.699219 19.453125 16.644531 19.507812 16.539062 19.542969 C 16.335938 19.613281 16.128906 19.6875 15.929688 19.769531 C 14.773438 20.230469 13.621094 20.6875 12.433594 21.070312 C 12.070312 21.1875 11.714844 21.335938 11.355469 21.476562 C 11.265625 21.511719 11.171875 21.558594 11.097656 21.625 C 10.980469 21.726562 11.011719 21.890625 11.160156 21.9375 C 11.230469 21.964844 11.308594 21.964844 11.382812 21.976562 C 11.53125 22 11.683594 22.011719 11.824219 22.054688 C 12.242188 22.175781 12.65625 22.304688 13.070312 22.4375 C 13.304688 22.515625 13.539062 22.609375 13.769531 22.707031 C 13.9375 22.78125 13.960938 22.839844 13.878906 23 C 13.796875 23.164062 13.699219 23.324219 13.578125 23.457031 C 13.277344 23.78125 12.957031 24.089844 12.648438 24.40625 C 12.578125 24.476562 12.507812 24.550781 12.453125 24.632812 C 12.371094 24.765625 12.398438 24.875 12.53125 24.953125 C 12.632812 25.011719 12.746094 25.050781 12.855469 25.082031 C 13.328125 25.203125 13.804688 25.269531 14.289062 25.300781 C 15.640625 25.386719 16.976562 25.242188 18.300781 25.003906 C 18.539062 24.960938 18.539062 24.953125 18.53125 24.710938 C 18.519531 24.382812 18.492188 24.058594 18.511719 23.734375 C 18.5625 22.863281 18.738281 22.015625 19.074219 21.179688 C 19.902344 21.03125 20.734375 20.976562 21.570312 20.984375 C 22.835938 20.992188 24.085938 21.167969 25.328125 21.398438 C 26.410156 21.601562 27.488281 21.84375 28.585938 21.949219 C 29.445312 22.035156 30.304688 22.03125 31.160156 21.894531 C 31.503906 21.839844 31.847656 21.769531 32.214844 21.703125 C 32.230469 21.824219 32.25 21.9375 32.261719 22.050781 C 32.34375 22.894531 32.234375 23.734375 32.191406 24.578125 C 32.179688 24.796875 32.203125 25.027344 32.253906 25.246094 C 32.3125 25.492188 32.457031 25.585938 32.710938 25.589844 C 32.859375 25.589844 33.011719 25.578125 33.160156 25.550781 C 33.679688 25.46875 34.195312 25.367188 34.714844 25.292969 C 35.914062 25.113281 37.105469 24.90625 38.261719 24.539062 C 38.921875 24.328125 39.582031 24.113281 40.238281 23.894531 " fill-opacity="1" fill-rule="nonzero"/><path fill="#2f3e55" d="M 8.328125 34.238281 C 8.300781 34.179688 8.226562 34.125 8.164062 34.113281 C 8.125 34.109375 8.046875 34.179688 8.027344 34.230469 C 7.878906 34.660156 7.921875 35.085938 8.117188 35.492188 C 8.144531 35.546875 8.234375 35.597656 8.296875 35.597656 C 8.390625 35.601562 8.433594 35.515625 8.433594 35.421875 C 8.4375 35.289062 8.433594 35.15625 8.433594 35.023438 C 8.460938 34.753906 8.433594 34.488281 8.328125 34.238281 " fill-opacity="1" fill-rule="nonzero"/><path fill="#2f3e55" d="M 10.351562 34.007812 C 10.289062 34.023438 10.210938 34.082031 10.195312 34.136719 C 10.136719 34.3125 10.105469 34.492188 10.070312 34.648438 C 10.097656 34.816406 10.113281 34.957031 10.144531 35.09375 C 10.164062 35.191406 10.238281 35.253906 10.335938 35.261719 C 10.441406 35.269531 10.515625 35.210938 10.546875 35.117188 C 10.652344 34.789062 10.652344 34.460938 10.535156 34.136719 C 10.503906 34.054688 10.445312 33.980469 10.351562 34.007812 " fill-opacity="1" fill-rule="nonzero"/><path fill="#2f3e55" d="M 6.042969 33.929688 C 6 33.925781 5.925781 33.996094 5.914062 34.046875 C 5.8125 34.433594 5.808594 34.820312 5.921875 35.203125 C 5.953125 35.300781 6.011719 35.371094 6.121094 35.355469 C 6.226562 35.34375 6.265625 35.253906 6.273438 35.15625 C 6.28125 35.050781 6.28125 34.941406 6.289062 34.832031 C 6.300781 34.832031 6.308594 34.828125 6.320312 34.828125 C 6.273438 34.566406 6.234375 34.304688 6.175781 34.046875 C 6.164062 33.996094 6.089844 33.929688 6.042969 33.929688 " fill-opacity="1" fill-rule="nonzero"/><path fill="#2f3e55" d="M 44.148438 34.1875 C 44.09375 34.105469 44 34.101562 43.9375 34.175781 C 43.898438 34.226562 43.863281 34.292969 43.851562 34.355469 C 43.804688 34.589844 43.769531 34.828125 43.730469 35.066406 C 43.738281 35.066406 43.746094 35.070312 43.753906 35.070312 C 43.765625 35.210938 43.769531 35.355469 43.792969 35.496094 C 43.800781 35.539062 43.855469 35.609375 43.894531 35.613281 C 43.953125 35.621094 44.019531 35.589844 44.070312 35.554688 C 44.105469 35.527344 44.128906 35.472656 44.144531 35.425781 C 44.277344 35.089844 44.292969 34.746094 44.230469 34.394531 C 44.21875 34.320312 44.191406 34.246094 44.148438 34.1875 " fill-opacity="1" fill-rule="nonzero"/><path fill="#2f3e55" d="M 41.847656 34.027344 C 41.78125 34.046875 41.699219 34.113281 41.675781 34.179688 C 41.625 34.335938 41.605469 34.5 41.574219 34.65625 C 41.601562 34.816406 41.621094 34.964844 41.652344 35.113281 C 41.679688 35.21875 41.753906 35.285156 41.871094 35.285156 C 41.976562 35.28125 42.046875 35.21875 42.070312 35.121094 C 42.15625 34.800781 42.148438 34.480469 42.027344 34.164062 C 41.996094 34.085938 41.941406 33.996094 41.847656 34.027344 " fill-opacity="1" fill-rule="nonzero"/><path fill="#2f3e55" d="M 46.171875 33.945312 C 46.121094 33.996094 46.066406 34.039062 46.023438 34.09375 C 46.003906 34.117188 46.007812 34.15625 46 34.191406 C 45.917969 34.515625 45.898438 34.84375 45.949219 35.175781 C 45.960938 35.273438 45.976562 35.363281 46.09375 35.375 C 46.214844 35.390625 46.277344 35.3125 46.296875 35.207031 C 46.335938 35.019531 46.355469 34.832031 46.386719 34.648438 C 46.359375 34.457031 46.34375 34.273438 46.304688 34.097656 C 46.292969 34.039062 46.21875 33.996094 46.171875 33.945312 " fill-opacity="1" fill-rule="nonzero"/><path fill="#2f3e55" d="M 8.382812 23.097656 C 9.222656 23.097656 9.890625 23.78125 9.890625 24.640625 C 9.890625 25.484375 9.21875 26.148438 8.375 26.148438 C 7.535156 26.144531 6.84375 25.445312 6.855469 24.605469 C 6.867188 23.773438 7.554688 23.09375 8.382812 23.097656 Z M 8.40625 26.410156 C 9.378906 26.414062 10.179688 25.621094 10.191406 24.648438 C 10.203125 23.691406 9.390625 22.882812 8.417969 22.878906 C 7.4375 22.878906 6.640625 23.671875 6.640625 24.644531 C 6.640625 25.628906 7.417969 26.40625 8.40625 26.410156 " fill-opacity="1" fill-rule="nonzero"/><path fill="#2f3e55" d="M 43.550781 23.097656 C 44.394531 23.105469 45.054688 23.789062 45.050781 24.648438 C 45.046875 25.488281 44.371094 26.152344 43.527344 26.148438 C 42.699219 26.140625 42.019531 25.457031 42.015625 24.625 C 42.011719 23.789062 42.714844 23.089844 43.550781 23.097656 Z M 43.570312 26.410156 C 44.542969 26.414062 45.34375 25.621094 45.355469 24.648438 C 45.363281 23.691406 44.550781 22.882812 43.578125 22.878906 C 42.597656 22.878906 41.800781 23.671875 41.800781 24.644531 C 41.800781 25.628906 42.582031 26.40625 43.570312 26.410156 " fill-opacity="1" fill-rule="nonzero"/><path fill="#2f3e55" d="M 25.820312 45.589844 C 25.640625 45.765625 25.390625 45.757812 25.222656 45.574219 C 24.933594 45.257812 24.953125 44.710938 25.261719 44.417969 C 25.503906 44.1875 25.792969 44.246094 25.917969 44.554688 C 25.945312 44.621094 25.972656 44.695312 25.984375 44.765625 C 26.003906 44.847656 26.007812 44.933594 26.011719 44.980469 C 26.019531 45.230469 25.976562 45.429688 25.820312 45.589844 Z M 26.128906 44.304688 C 25.859375 43.945312 25.367188 43.941406 25.078125 44.277344 C 24.730469 44.6875 24.703125 45.136719 24.894531 45.609375 C 25.097656 46.101562 25.664062 46.210938 26.046875 45.84375 C 26.269531 45.628906 26.363281 45.359375 26.359375 45.054688 C 26.359375 44.78125 26.292969 44.523438 26.128906 44.304688 " fill-opacity="1" fill-rule="nonzero"/><path fill="#2f3e55" d="M 11.160156 43.917969 C 10.980469 44.109375 10.71875 44.105469 10.546875 43.914062 C 10.257812 43.585938 10.28125 43.050781 10.59375 42.757812 C 10.839844 42.527344 11.125 42.589844 11.25 42.90625 C 11.28125 42.988281 11.308594 43.078125 11.328125 43.167969 C 11.34375 43.238281 11.34375 43.316406 11.347656 43.351562 C 11.347656 43.589844 11.296875 43.769531 11.160156 43.917969 Z M 11.441406 42.628906 C 11.171875 42.289062 10.683594 42.292969 10.40625 42.621094 C 10.074219 43.019531 10.023438 43.457031 10.210938 43.929688 C 10.417969 44.457031 11.019531 44.566406 11.410156 44.152344 C 11.609375 43.941406 11.6875 43.683594 11.695312 43.375 C 11.683594 43.117188 11.617188 42.855469 11.441406 42.628906 " fill-opacity="1" fill-rule="nonzero"/><path fill="#2f3e55" d="M 42.613281 41.777344 C 42.664062 41.472656 42.910156 41.351562 43.191406 41.492188 C 43.484375 41.640625 43.609375 41.863281 43.621094 42.226562 C 43.605469 42.332031 43.605469 42.441406 43.570312 42.542969 C 43.476562 42.839844 43.179688 42.933594 42.933594 42.746094 C 42.84375 42.679688 42.765625 42.585938 42.714844 42.484375 C 42.597656 42.265625 42.574219 42.023438 42.613281 41.777344 Z M 42.347656 42.519531 C 42.445312 42.777344 42.609375 42.984375 42.863281 43.105469 C 43.292969 43.3125 43.742188 43.101562 43.855469 42.640625 C 43.878906 42.550781 43.882812 42.457031 43.898438 42.367188 C 43.914062 41.871094 43.671875 41.519531 43.269531 41.273438 C 43.175781 41.214844 43.050781 41.175781 42.941406 41.179688 C 42.617188 41.203125 42.371094 41.4375 42.300781 41.757812 C 42.242188 42.015625 42.253906 42.269531 42.347656 42.519531 " fill-opacity="1" fill-rule="nonzero"/><path fill="#2f3e55" d="M 18.195312 44.421875 C 17.742188 44.503906 17.371094 44.183594 17.375 43.675781 C 17.421875 43.417969 17.433594 43.105469 17.722656 42.902344 C 18.132812 42.613281 18.683594 42.789062 18.835938 43.269531 C 19.003906 43.792969 18.703125 44.332031 18.195312 44.421875 Z M 18.042969 42.550781 C 17.925781 42.5625 17.800781 42.609375 17.703125 42.675781 C 17.394531 42.875 17.261719 43.183594 17.199219 43.53125 C 17.125 43.914062 17.265625 44.335938 17.570312 44.527344 C 17.902344 44.730469 18.257812 44.710938 18.589844 44.523438 C 18.96875 44.308594 19.074219 43.949219 19.085938 43.457031 C 19.125 42.871094 18.585938 42.496094 18.042969 42.550781 " fill-opacity="1" fill-rule="nonzero"/><path fill="#2f3e55" d="M 35.273438 43.089844 C 35.464844 43.1875 35.53125 43.363281 35.527344 43.570312 C 35.527344 43.867188 35.148438 44.28125 34.847656 44.300781 C 34.765625 44.304688 34.65625 44.277344 34.597656 44.222656 C 34.210938 43.894531 34.253906 43.378906 34.65625 43.097656 C 34.835938 42.972656 35.070312 42.984375 35.273438 43.089844 Z M 34.128906 43.71875 C 34.183594 43.882812 34.214844 44.058594 34.292969 44.210938 C 34.40625 44.429688 34.597656 44.5625 34.859375 44.539062 C 35.21875 44.503906 35.613281 44.160156 35.703125 43.808594 C 35.8125 43.398438 35.597656 42.976562 35.226562 42.902344 C 35.101562 42.875 34.960938 42.898438 34.832031 42.921875 C 34.398438 42.992188 34.164062 43.273438 34.128906 43.71875 " fill-opacity="1" fill-rule="nonzero"/><path fill="#2f3e55" d="M 22.207031 17.476562 C 22.078125 17.421875 21.957031 17.46875 21.863281 17.5625 C 21.703125 17.71875 21.550781 17.882812 21.398438 18.046875 C 21.328125 18.121094 21.269531 18.207031 21.179688 18.320312 C 21.136719 18.167969 21.109375 18.066406 21.078125 17.964844 C 21.03125 17.824219 20.992188 17.675781 20.925781 17.542969 C 20.8125 17.328125 20.574219 17.332031 20.453125 17.542969 C 20.417969 17.601562 20.398438 17.664062 20.375 17.726562 C 20.15625 18.328125 19.9375 18.933594 19.722656 19.535156 C 19.703125 19.589844 19.675781 19.648438 19.675781 19.703125 C 19.671875 19.84375 19.800781 19.910156 19.917969 19.832031 C 19.949219 19.808594 19.976562 19.773438 20.003906 19.746094 C 20.25 19.484375 20.40625 19.175781 20.535156 18.847656 C 20.582031 18.734375 20.632812 18.625 20.691406 18.480469 C 20.75 18.640625 20.78125 18.765625 20.835938 18.875 C 20.941406 19.085938 21.148438 19.109375 21.300781 18.925781 C 21.351562 18.863281 21.390625 18.785156 21.441406 18.71875 C 21.5625 18.554688 21.6875 18.390625 21.8125 18.226562 C 21.824219 18.238281 21.835938 18.25 21.851562 18.261719 C 21.8125 18.574219 21.765625 18.886719 21.746094 19.203125 C 21.738281 19.355469 21.773438 19.515625 21.8125 19.667969 C 21.835938 19.757812 21.914062 19.820312 22.019531 19.816406 C 22.128906 19.816406 22.191406 19.746094 22.214844 19.652344 C 22.246094 19.542969 22.269531 19.425781 22.28125 19.3125 C 22.304688 18.953125 22.320312 18.59375 22.34375 18.238281 C 22.351562 18.09375 22.367188 17.953125 22.375 17.8125 C 22.382812 17.671875 22.351562 17.539062 22.207031 17.476562 " fill-opacity="1" fill-rule="nonzero"/><path fill="#2f3e55" d="M 33.011719 19.007812 C 32.945312 19.523438 32.660156 19.777344 32.09375 19.796875 C 32.109375 19.300781 32.121094 18.804688 32.136719 18.324219 C 32.667969 18.167969 33.074219 18.503906 33.011719 19.007812 Z M 32.277344 17.867188 C 32.167969 17.878906 32.058594 17.878906 31.910156 17.882812 C 31.886719 17.941406 31.832031 18.027344 31.824219 18.121094 C 31.769531 18.734375 31.722656 19.347656 31.671875 19.960938 C 31.667969 20.011719 31.667969 20.0625 31.679688 20.109375 C 31.710938 20.253906 31.855469 20.324219 31.957031 20.21875 C 32.050781 20.128906 32.128906 20.15625 32.226562 20.164062 C 32.316406 20.171875 32.414062 20.179688 32.5 20.164062 C 32.949219 20.078125 33.257812 19.832031 33.390625 19.386719 C 33.527344 18.914062 33.429688 18.496094 33.074219 18.152344 C 32.855469 17.941406 32.589844 17.835938 32.277344 17.867188 " fill-opacity="1" fill-rule="nonzero"/><path fill="#2f3e55" d="M 27.328125 18.378906 C 27.207031 18.460938 27.070312 18.527344 26.910156 18.507812 C 26.910156 18.296875 26.910156 18.089844 26.910156 17.84375 C 27.070312 17.890625 27.191406 17.910156 27.300781 17.964844 C 27.492188 18.0625 27.503906 18.261719 27.328125 18.378906 Z M 27.621094 17.761719 C 27.40625 17.578125 27.15625 17.519531 26.875 17.589844 C 26.621094 17.652344 26.621094 17.644531 26.585938 17.890625 C 26.515625 18.421875 26.4375 18.949219 26.378906 19.480469 C 26.359375 19.632812 26.382812 19.796875 26.414062 19.949219 C 26.425781 20 26.511719 20.0625 26.570312 20.074219 C 26.605469 20.082031 26.683594 20.003906 26.695312 19.949219 C 26.742188 19.792969 26.765625 19.625 26.796875 19.460938 C 26.808594 19.398438 26.820312 19.332031 26.84375 19.21875 C 27.019531 19.472656 27.15625 19.679688 27.300781 19.886719 C 27.351562 19.960938 27.40625 20.035156 27.472656 20.097656 C 27.542969 20.167969 27.628906 20.1875 27.722656 20.128906 C 27.8125 20.070312 27.835938 19.980469 27.804688 19.886719 C 27.769531 19.796875 27.71875 19.703125 27.660156 19.628906 C 27.464844 19.378906 27.265625 19.132812 27.054688 18.875 C 27.21875 18.816406 27.375 18.78125 27.515625 18.710938 C 27.914062 18.507812 27.964844 18.046875 27.621094 17.761719 " fill-opacity="1" fill-rule="nonzero"/><path fill="#2f3e55" d="M 25.539062 18.261719 C 25.414062 18.335938 25.269531 18.375 25.089844 18.445312 C 25.113281 18.222656 25.128906 18.054688 25.152344 17.839844 C 25.296875 17.867188 25.414062 17.871094 25.515625 17.917969 C 25.683594 17.996094 25.695312 18.167969 25.539062 18.261719 Z M 25.898438 18.359375 C 26.15625 18.019531 25.980469 17.566406 25.558594 17.503906 C 25.421875 17.484375 25.277344 17.539062 25.140625 17.527344 C 24.9375 17.507812 24.871094 17.621094 24.835938 17.78125 C 24.71875 18.277344 24.601562 18.769531 24.496094 19.269531 C 24.46875 19.414062 24.480469 19.566406 24.480469 19.71875 C 24.480469 19.816406 24.519531 19.902344 24.628906 19.917969 C 24.742188 19.929688 24.792969 19.855469 24.828125 19.761719 C 24.847656 19.714844 24.863281 19.667969 24.875 19.621094 C 24.917969 19.429688 24.960938 19.234375 25.011719 19.007812 C 25.066406 19.085938 25.105469 19.136719 25.140625 19.1875 C 25.3125 19.433594 25.480469 19.679688 25.65625 19.925781 C 25.695312 19.976562 25.746094 20.03125 25.804688 20.054688 C 25.855469 20.074219 25.9375 20.070312 25.984375 20.039062 C 26.015625 20.023438 26.019531 19.933594 26.003906 19.886719 C 25.980469 19.808594 25.941406 19.734375 25.894531 19.664062 C 25.695312 19.367188 25.496094 19.070312 25.28125 18.757812 C 25.523438 18.65625 25.746094 18.5625 25.898438 18.359375 " fill-opacity="1" fill-rule="nonzero"/><path fill="#2f3e55" d="M 23.632812 18.457031 C 23.546875 18.457031 23.476562 18.457031 23.386719 18.457031 C 23.414062 18.277344 23.492188 18.152344 23.632812 18.035156 C 23.632812 18.191406 23.632812 18.324219 23.632812 18.457031 Z M 24.023438 17.941406 C 24.011719 17.828125 23.964844 17.714844 23.910156 17.613281 C 23.800781 17.402344 23.609375 17.375 23.441406 17.539062 C 23.371094 17.609375 23.300781 17.6875 23.253906 17.773438 C 22.9375 18.324219 22.695312 18.90625 22.558594 19.53125 C 22.542969 19.601562 22.542969 19.683594 22.5625 19.753906 C 22.574219 19.800781 22.632812 19.863281 22.671875 19.867188 C 22.726562 19.867188 22.808594 19.832031 22.835938 19.789062 C 22.886719 19.707031 22.90625 19.605469 22.9375 19.511719 C 23.023438 19.261719 23.109375 19.011719 23.195312 18.753906 C 23.359375 18.777344 23.492188 18.792969 23.640625 18.816406 C 23.640625 19.046875 23.640625 19.257812 23.640625 19.464844 C 23.644531 19.539062 23.648438 19.613281 23.667969 19.683594 C 23.691406 19.78125 23.765625 19.847656 23.863281 19.851562 C 23.976562 19.855469 24.058594 19.792969 24.085938 19.683594 C 24.109375 19.605469 24.125 19.519531 24.121094 19.4375 C 24.09375 18.9375 24.066406 18.4375 24.023438 17.941406 " fill-opacity="1" fill-rule="nonzero"/><path fill="#2f3e55" d="M 31.035156 17.867188 C 30.769531 17.847656 30.503906 17.824219 30.238281 17.816406 C 30.117188 17.816406 30.019531 17.882812 29.992188 18.019531 C 29.964844 18.160156 29.921875 18.296875 29.90625 18.433594 C 29.871094 18.722656 29.84375 19.015625 29.816406 19.304688 C 29.789062 19.550781 29.753906 19.800781 29.746094 20.050781 C 29.734375 20.273438 29.835938 20.363281 30.058594 20.375 C 30.175781 20.382812 30.292969 20.40625 30.40625 20.398438 C 30.554688 20.386719 30.703125 20.367188 30.847656 20.332031 C 30.953125 20.304688 31.015625 20.21875 31 20.101562 C 30.980469 19.980469 30.890625 19.941406 30.78125 19.9375 C 30.738281 19.9375 30.695312 19.949219 30.65625 19.949219 C 30.507812 19.945312 30.363281 19.941406 30.207031 19.933594 C 30.230469 19.664062 30.246094 19.425781 30.265625 19.171875 C 30.460938 19.171875 30.644531 19.171875 30.824219 19.171875 C 30.941406 19.171875 31.046875 19.148438 31.070312 19.011719 C 31.089844 18.902344 31.011719 18.808594 30.863281 18.773438 C 30.8125 18.761719 30.761719 18.761719 30.714844 18.753906 C 30.570312 18.730469 30.425781 18.707031 30.273438 18.683594 C 30.289062 18.503906 30.296875 18.347656 30.308594 18.183594 C 30.367188 18.179688 30.414062 18.171875 30.464844 18.171875 C 30.648438 18.167969 30.832031 18.167969 31.015625 18.164062 C 31.109375 18.160156 31.175781 18.117188 31.175781 18.011719 C 31.175781 17.925781 31.121094 17.875 31.035156 17.867188 " fill-opacity="1" fill-rule="nonzero"/><path fill="#2f3e55" d="M 24.832031 15.210938 C 24.835938 15.207031 24.835938 15.207031 24.839844 15.203125 C 24.835938 15.203125 24.835938 15.203125 24.832031 15.203125 C 24.832031 15.207031 24.832031 15.207031 24.832031 15.210938 " fill-opacity="1" fill-rule="nonzero"/><path fill="#2f3e55" d="M 24.789062 16.269531 C 24.785156 16.378906 24.8125 16.488281 24.847656 16.589844 C 24.945312 16.875 25.210938 16.960938 25.4375 16.761719 C 25.558594 16.652344 25.675781 16.515625 25.730469 16.367188 C 25.828125 16.113281 25.878906 15.839844 25.941406 15.574219 C 25.964844 15.476562 25.984375 15.371094 25.972656 15.277344 C 25.964844 15.214844 25.917969 15.132812 25.863281 15.105469 C 25.785156 15.0625 25.71875 15.125 25.691406 15.199219 C 25.648438 15.308594 25.621094 15.421875 25.585938 15.53125 C 25.523438 15.746094 25.464844 15.964844 25.394531 16.175781 C 25.367188 16.257812 25.351562 16.382812 25.226562 16.363281 C 25.097656 16.339844 25.113281 16.210938 25.109375 16.117188 C 25.101562 15.976562 25.109375 15.835938 25.117188 15.691406 C 25.121094 15.566406 25.144531 15.445312 25.144531 15.320312 C 25.144531 15.21875 25.191406 15.085938 25.046875 15.042969 C 24.917969 15.003906 24.902344 15.140625 24.839844 15.203125 C 24.839844 15.246094 24.839844 15.285156 24.835938 15.324219 C 24.820312 15.640625 24.796875 15.957031 24.789062 16.269531 " fill-opacity="1" fill-rule="nonzero"/><path fill="#2f3e55" d="M 25.894531 16.472656 C 25.886719 16.539062 25.898438 16.625 25.9375 16.679688 C 26.054688 16.84375 26.210938 16.945312 26.425781 16.925781 C 26.675781 16.90625 26.894531 16.816406 27.070312 16.636719 C 27.277344 16.425781 27.277344 16.125 27.0625 15.925781 C 26.96875 15.835938 26.847656 15.773438 26.734375 15.707031 C 26.660156 15.660156 26.582031 15.625 26.464844 15.5625 C 26.570312 15.484375 26.640625 15.429688 26.722656 15.371094 C 26.800781 15.460938 26.855469 15.546875 26.933594 15.605469 C 26.976562 15.640625 27.066406 15.664062 27.109375 15.640625 C 27.152344 15.617188 27.191406 15.527344 27.179688 15.476562 C 27.164062 15.394531 27.117188 15.300781 27.058594 15.242188 C 26.820312 15.015625 26.550781 15.035156 26.335938 15.28125 C 26.113281 15.535156 26.152344 15.769531 26.453125 15.929688 C 26.539062 15.980469 26.636719 16.011719 26.71875 16.066406 C 26.878906 16.183594 26.878906 16.355469 26.714844 16.457031 C 26.613281 16.523438 26.488281 16.582031 26.371094 16.585938 C 26.296875 16.585938 26.21875 16.480469 26.140625 16.421875 C 26.128906 16.410156 26.117188 16.398438 26.105469 16.386719 C 26.011719 16.328125 25.910156 16.363281 25.894531 16.472656 " fill-opacity="1" fill-rule="nonzero"/><path fill="#2f3e55" d="M 29.074219 19.617188 C 28.980469 19.683594 28.886719 19.75 28.753906 19.84375 C 28.730469 19.671875 28.691406 19.542969 28.699219 19.417969 C 28.714844 19.136719 28.757812 18.855469 28.785156 18.574219 C 28.796875 18.449219 28.808594 18.324219 28.800781 18.203125 C 28.792969 18.152344 28.730469 18.085938 28.679688 18.066406 C 28.605469 18.035156 28.53125 18.074219 28.5 18.152344 C 28.460938 18.246094 28.421875 18.339844 28.40625 18.4375 C 28.351562 18.816406 28.304688 19.195312 28.261719 19.574219 C 28.253906 19.671875 28.253906 19.777344 28.273438 19.871094 C 28.339844 20.226562 28.605469 20.359375 28.921875 20.1875 C 29.058594 20.113281 29.179688 20.007812 29.300781 19.90625 C 29.425781 19.796875 29.449219 19.6875 29.382812 19.601562 C 29.3125 19.515625 29.214844 19.519531 29.074219 19.617188 " fill-opacity="1" fill-rule="nonzero"/><path fill="#2f3e55" d="M 24.640625 14.996094 C 24.265625 15.023438 23.894531 15.066406 23.523438 15.109375 C 23.484375 15.113281 23.441406 15.132812 23.410156 15.15625 C 23.34375 15.207031 23.355469 15.308594 23.433594 15.335938 C 23.488281 15.355469 23.550781 15.355469 23.605469 15.355469 C 23.746094 15.359375 23.882812 15.355469 24.046875 15.355469 C 23.980469 15.636719 23.9375 15.882812 23.859375 16.117188 C 23.761719 16.40625 23.648438 16.441406 23.371094 16.316406 C 23.355469 16.3125 23.339844 16.296875 23.328125 16.296875 C 23.28125 16.304688 23.214844 16.296875 23.191406 16.324219 C 23.160156 16.363281 23.136719 16.4375 23.15625 16.476562 C 23.214844 16.609375 23.300781 16.71875 23.449219 16.765625 C 23.695312 16.839844 23.976562 16.742188 24.109375 16.492188 C 24.199219 16.324219 24.25 16.136719 24.285156 15.949219 C 24.328125 15.75 24.332031 15.542969 24.351562 15.355469 C 24.523438 15.300781 24.679688 15.253906 24.832031 15.203125 C 24.808594 15.019531 24.792969 14.984375 24.640625 14.996094 " fill-opacity="1" fill-rule="nonzero"/><path fill="#2f3e55" d="M 28.300781 16.480469 C 28.320312 16.191406 28.335938 15.902344 28.351562 15.605469 C 28.511719 15.585938 28.652344 15.570312 28.792969 15.558594 C 28.878906 15.550781 28.949219 15.511719 28.941406 15.425781 C 28.933594 15.375 28.867188 15.332031 28.824219 15.285156 C 28.816406 15.273438 28.796875 15.269531 28.78125 15.265625 C 28.410156 15.179688 28.035156 15.191406 27.664062 15.242188 C 27.570312 15.257812 27.5 15.324219 27.519531 15.414062 C 27.535156 15.46875 27.605469 15.535156 27.667969 15.554688 C 27.757812 15.589844 27.863281 15.589844 27.992188 15.605469 C 27.984375 15.671875 27.976562 15.722656 27.972656 15.769531 C 27.949219 16.101562 27.921875 16.433594 27.90625 16.765625 C 27.898438 16.90625 27.976562 16.996094 28.082031 16.996094 C 28.199219 16.992188 28.257812 16.910156 28.273438 16.804688 C 28.289062 16.695312 28.296875 16.589844 28.300781 16.480469 " fill-opacity="1" fill-rule="nonzero"/><path fill="#2f3e55" d="M 28.421875 17.710938 C 28.417969 17.835938 28.53125 17.953125 28.65625 17.949219 C 28.78125 17.949219 28.898438 17.835938 28.902344 17.714844 C 28.90625 17.585938 28.796875 17.472656 28.664062 17.472656 C 28.542969 17.472656 28.425781 17.585938 28.421875 17.710938 " fill-opacity="1" fill-rule="nonzero"/><path fill="#2f3e55" d="M 17.375 20.234375 C 17.253906 20.242188 17.160156 20.351562 17.167969 20.472656 C 17.175781 20.597656 17.285156 20.6875 17.40625 20.671875 C 17.519531 20.660156 17.609375 20.5625 17.605469 20.453125 C 17.601562 20.335938 17.492188 20.230469 17.375 20.234375 " fill-opacity="1" fill-rule="nonzero"/><path fill="#2f3e55" d="M 34.519531 20.253906 C 34.636719 20.257812 34.75 20.15625 34.753906 20.039062 C 34.753906 19.917969 34.652344 19.816406 34.53125 19.820312 C 34.414062 19.820312 34.324219 19.90625 34.316406 20.019531 C 34.304688 20.140625 34.398438 20.246094 34.519531 20.253906 " fill-opacity="1" fill-rule="nonzero"/><path fill="#2f3e55" d="M 33.859375 16.042969 C 33.980469 16.046875 34.078125 15.945312 34.078125 15.824219 C 34.078125 15.707031 33.988281 15.617188 33.875 15.617188 C 33.757812 15.613281 33.65625 15.714844 33.660156 15.835938 C 33.660156 15.949219 33.75 16.042969 33.859375 16.042969 " fill-opacity="1" fill-rule="nonzero"/><path fill="#2f3e55" d="M 18.472656 16.074219 C 18.386719 16.050781 18.308594 16.152344 18.3125 16.25 C 18.320312 16.347656 18.375 16.398438 18.472656 16.402344 C 18.5625 16.40625 18.636719 16.320312 18.628906 16.175781 C 18.59375 16.152344 18.539062 16.089844 18.472656 16.074219 " fill-opacity="1" fill-rule="nonzero"/></svg>