<svg xmlns="http://www.w3.org/2000/svg" xmlns:xlink="http://www.w3.org/1999/xlink" width="70" zoomAndPan="magnify" viewBox="0 0 52.5 52.499999" height="70" preserveAspectRatio="xMidYMid meet" version="1.0"><defs><clipPath id="e62791b2e1"><path d="M 8.742188 1.300781 L 42.917969 1.300781 L 42.917969 51 L 8.742188 51 Z M 8.742188 1.300781 " clip-rule="nonzero"/></clipPath></defs><g clip-path="url(#e62791b2e1)"><path fill="#7d4248" d="M 31.914062 4.574219 C 29.71875 5.058594 27.476562 5.859375 25.28125 6.351562 C 25.253906 6.359375 25.226562 6.367188 25.203125 6.382812 C 25.160156 6.40625 25.121094 6.441406 25.09375 6.480469 C 25.066406 6.519531 25.050781 6.566406 25.046875 6.617188 L 25.046875 6.621094 C 25.042969 6.648438 25.042969 6.675781 25.050781 6.703125 L 25.054688 6.730469 C 25.144531 7.226562 25.230469 7.726562 25.3125 8.222656 C 25.382812 8.667969 25.453125 9.117188 25.523438 9.5625 L 25.523438 9.570312 C 23.480469 8.953125 21.28125 8.535156 19.253906 7.902344 C 19.226562 7.894531 19.199219 7.890625 19.171875 7.890625 L 19.167969 7.890625 C 19.121094 7.890625 19.070312 7.898438 19.027344 7.921875 C 18.984375 7.941406 18.945312 7.976562 18.917969 8.015625 L 18.914062 8.019531 C 18.902344 8.039062 18.886719 8.0625 18.878906 8.089844 C 17.09375 13.0625 14.875 17.753906 13.21875 22.804688 C 12.738281 24.269531 12.1875 26.066406 12.027344 27.675781 C 11.917969 28.796875 12.003906 29.828125 12.40625 30.621094 C 12.789062 31.363281 13.328125 31.910156 13.886719 32.316406 C 13.992188 32.398438 14.175781 32.507812 14.410156 32.632812 C 14.484375 35 13.976562 37.253906 13.460938 39.597656 C 12.863281 42.292969 12.210938 44.953125 11.429688 47.605469 C 10.675781 47.449219 10.011719 47.585938 9.542969 47.835938 C 9.140625 48.050781 8.878906 48.355469 8.789062 48.648438 C 8.785156 48.65625 8.785156 48.664062 8.78125 48.667969 C 8.738281 48.828125 8.832031 48.996094 8.992188 49.039062 C 10.992188 49.597656 13.015625 50.09375 15.019531 50.652344 C 15.179688 50.699219 15.34375 50.605469 15.390625 50.445312 C 15.390625 50.441406 15.390625 50.441406 15.390625 50.4375 C 15.394531 50.429688 15.394531 50.417969 15.398438 50.410156 C 15.507812 49.792969 15.285156 49.296875 14.820312 48.894531 C 14.4375 48.566406 13.882812 48.304688 13.21875 48.089844 C 13.414062 46.144531 14.078125 44.242188 14.613281 42.363281 C 15.46875 39.359375 16.226562 36.300781 17.597656 33.507812 C 17.90625 33.523438 18.15625 33.519531 18.308594 33.503906 C 18.992188 33.425781 19.734375 33.226562 20.4375 32.769531 C 21.179688 32.289062 21.773438 31.4375 22.238281 30.410156 C 22.90625 28.9375 23.324219 27.105469 23.640625 25.59375 C 24.621094 20.929688 25.0625 16.28125 25.824219 11.617188 C 26.324219 15.167969 26.757812 18.714844 27.503906 22.273438 C 27.824219 23.785156 28.242188 25.613281 28.910156 27.085938 C 29.375 28.113281 29.964844 28.964844 30.710938 29.449219 C 31.414062 29.902344 32.152344 30.105469 32.839844 30.179688 C 32.972656 30.195312 33.1875 30.199219 33.449219 30.191406 C 34.699219 32.203125 35.386719 34.410156 36.109375 36.695312 C 36.941406 39.332031 37.710938 41.960938 38.355469 44.648438 C 37.625 44.890625 37.117188 45.339844 36.839844 45.789062 C 36.597656 46.175781 36.523438 46.574219 36.589844 46.875 C 36.59375 46.878906 36.59375 46.886719 36.59375 46.890625 C 36.636719 47.054688 36.800781 47.152344 36.960938 47.109375 C 38.976562 46.589844 40.972656 46.007812 42.988281 45.492188 C 43.148438 45.449219 43.246094 45.285156 43.207031 45.125 C 43.203125 45.125 43.203125 45.121094 43.203125 45.121094 C 43.203125 45.109375 43.199219 45.101562 43.195312 45.089844 C 42.980469 44.5 42.542969 44.183594 41.9375 44.070312 C 41.445312 43.976562 40.828125 44.027344 40.144531 44.171875 C 39.347656 42.390625 38.96875 40.410156 38.492188 38.515625 C 37.734375 35.488281 36.859375 32.457031 36.648438 29.355469 C 36.925781 29.214844 37.140625 29.085938 37.261719 28.996094 C 37.816406 28.585938 38.355469 28.042969 38.738281 27.296875 C 39.144531 26.507812 39.226562 25.472656 39.117188 24.351562 C 38.960938 22.742188 38.40625 20.949219 37.925781 19.480469 C 36.273438 14.433594 34.050781 9.742188 32.269531 4.769531 C 32.261719 4.746094 32.25 4.726562 32.238281 4.707031 L 32.238281 4.703125 C 32.210938 4.664062 32.171875 4.628906 32.132812 4.605469 L 32.128906 4.605469 C 32.085938 4.582031 32.039062 4.566406 31.988281 4.566406 C 31.964844 4.566406 31.941406 4.570312 31.914062 4.574219 Z M 15.019531 32.921875 C 15.046875 35.226562 14.554688 37.433594 14.046875 39.726562 C 13.4375 42.484375 12.773438 45.203125 11.964844 47.914062 C 11.976562 47.964844 11.976562 48.015625 11.960938 48.070312 C 11.910156 48.226562 11.742188 48.316406 11.582031 48.265625 L 11.574219 48.265625 C 11.566406 48.261719 11.558594 48.261719 11.546875 48.257812 C 11.539062 48.253906 11.53125 48.253906 11.523438 48.25 C 10.84375 48.050781 10.238281 48.144531 9.828125 48.367188 C 9.71875 48.425781 9.621094 48.496094 9.542969 48.566406 C 11.292969 49.046875 13.058594 49.484375 14.808594 49.96875 C 14.765625 49.730469 14.628906 49.527344 14.425781 49.351562 C 14.070312 49.046875 13.535156 48.816406 12.90625 48.621094 C 12.859375 48.605469 12.816406 48.582031 12.785156 48.550781 C 12.664062 48.503906 12.585938 48.382812 12.597656 48.246094 C 12.769531 46.191406 13.46875 44.179688 14.035156 42.199219 C 14.878906 39.234375 15.632812 36.21875 16.957031 33.449219 C 16.644531 33.40625 16.3125 33.347656 15.984375 33.257812 C 15.648438 33.167969 15.316406 33.046875 15.019531 32.921875 Z M 36.066406 29.625 C 35.773438 29.742188 35.457031 29.859375 35.128906 29.945312 C 34.789062 30.035156 34.445312 30.097656 34.121094 30.136719 C 35.300781 32.117188 35.976562 34.277344 36.683594 36.515625 C 37.535156 39.207031 38.316406 41.898438 38.976562 44.644531 C 39.011719 44.683594 39.035156 44.730469 39.046875 44.785156 C 39.085938 44.945312 38.980469 45.109375 38.820312 45.144531 L 38.8125 45.144531 C 38.804688 45.148438 38.796875 45.152344 38.785156 45.152344 C 38.777344 45.15625 38.769531 45.15625 38.757812 45.160156 C 38.070312 45.328125 37.597656 45.710938 37.351562 46.105469 C 37.285156 46.214844 37.234375 46.320312 37.203125 46.421875 C 38.957031 45.964844 40.707031 45.460938 42.464844 45.003906 C 42.308594 44.820312 42.089844 44.710938 41.824219 44.664062 C 41.367188 44.574219 40.785156 44.644531 40.140625 44.789062 C 40.09375 44.800781 40.046875 44.800781 40.003906 44.789062 C 39.875 44.804688 39.746094 44.742188 39.6875 44.617188 C 38.8125 42.753906 38.410156 40.660156 37.90625 38.664062 C 37.15625 35.671875 36.300781 32.683594 36.066406 29.625 Z M 16.792969 15.066406 C 15.734375 17.671875 14.679688 20.28125 13.792969 22.992188 C 13.324219 24.417969 12.78125 26.167969 12.628906 27.734375 C 12.53125 28.726562 12.585938 29.644531 12.945312 30.34375 C 13.28125 30.996094 13.753906 31.472656 14.242188 31.832031 C 14.351562 31.910156 14.542969 32.027344 14.785156 32.148438 C 14.820312 32.160156 14.855469 32.175781 14.882812 32.199219 C 15.238281 32.371094 15.683594 32.550781 16.144531 32.675781 C 16.996094 32.90625 17.902344 32.941406 18.242188 32.902344 C 18.84375 32.835938 19.492188 32.664062 20.109375 32.265625 C 20.769531 31.835938 21.277344 31.070312 21.6875 30.160156 C 22.335938 28.726562 22.742188 26.941406 23.050781 25.472656 C 23.707031 22.34375 24.121094 19.222656 24.554688 16.101562 C 23.191406 15.949219 21.792969 16.023438 20.445312 15.820312 C 19.199219 15.628906 18.066406 15.101562 16.792969 15.066406 Z M 35.082031 13.542969 C 33.382812 13.535156 31.785156 13.871094 30.09375 13.96875 C 28.984375 14.03125 27.871094 13.914062 26.773438 14.074219 C 27.144531 16.761719 27.53125 19.453125 28.097656 22.148438 C 28.40625 23.621094 28.808594 25.40625 29.457031 26.835938 C 29.871094 27.746094 30.378906 28.515625 31.039062 28.941406 C 31.65625 29.339844 32.304688 29.515625 32.90625 29.582031 C 33.039062 29.597656 33.261719 29.601562 33.535156 29.585938 C 33.570312 29.574219 33.609375 29.574219 33.644531 29.578125 C 34.035156 29.550781 34.511719 29.484375 34.972656 29.363281 C 35.828125 29.132812 36.632812 28.710938 36.90625 28.507812 C 37.390625 28.152344 37.867188 27.675781 38.203125 27.023438 C 38.5625 26.324219 38.617188 25.402344 38.519531 24.410156 C 38.363281 22.84375 37.820312 21.097656 37.355469 19.667969 C 36.671875 17.582031 35.890625 15.554688 35.082031 13.542969 Z M 36.210938 27.183594 C 35.972656 27.382812 35.71875 27.542969 35.441406 27.679688 C 35.289062 27.75 35.226562 27.929688 35.296875 28.082031 C 35.367188 28.230469 35.550781 28.292969 35.699219 28.222656 C 36.023438 28.066406 36.316406 27.878906 36.59375 27.648438 C 36.722656 27.542969 36.742188 27.351562 36.632812 27.226562 C 36.527344 27.097656 36.339844 27.078125 36.210938 27.183594 Z M 36.316406 20.3125 C 36.914062 21.855469 37.617188 23.855469 37.097656 25.507812 C 37.046875 25.667969 37.136719 25.835938 37.292969 25.886719 C 37.453125 25.9375 37.621094 25.847656 37.671875 25.6875 C 38.230469 23.914062 37.519531 21.753906 36.878906 20.09375 C 36.820312 19.9375 36.644531 19.863281 36.492188 19.921875 C 36.335938 19.980469 36.257812 20.15625 36.316406 20.3125 Z M 14.113281 23.792969 C 13.976562 24.101562 13.839844 24.410156 13.722656 24.726562 C 13.664062 24.882812 13.746094 25.054688 13.902344 25.113281 C 14.058594 25.171875 14.230469 25.089844 14.289062 24.933594 C 14.402344 24.628906 14.53125 24.332031 14.664062 24.039062 C 14.730469 23.886719 14.664062 23.707031 14.511719 23.640625 C 14.359375 23.570312 14.179688 23.640625 14.113281 23.792969 Z M 15.882812 18.363281 C 15.484375 19.445312 15.105469 20.53125 14.742188 21.628906 C 14.6875 21.785156 14.773438 21.957031 14.933594 22.007812 C 15.089844 22.0625 15.261719 21.976562 15.3125 21.816406 C 15.675781 20.730469 16.050781 19.648438 16.449219 18.574219 C 16.507812 18.417969 16.425781 18.242188 16.269531 18.1875 C 16.113281 18.128906 15.941406 18.207031 15.882812 18.363281 Z M 19.339844 8.582031 C 19.046875 9.394531 18.742188 10.199219 18.425781 11.003906 C 17.988281 12.128906 17.535156 13.246094 17.078125 14.363281 L 17.035156 14.476562 C 18.242188 14.558594 19.339844 15.042969 20.535156 15.222656 C 21.878906 15.425781 23.273438 15.351562 24.636719 15.503906 L 24.652344 15.386719 C 24.789062 14.414062 24.925781 13.441406 25.078125 12.46875 C 25.195312 11.710938 25.320312 10.949219 25.453125 10.191406 L 25.457031 10.179688 C 23.472656 9.570312 21.335938 9.160156 19.347656 8.5625 Z M 31.792969 5.222656 C 29.769531 5.6875 27.710938 6.402344 25.695312 6.875 C 26.085938 9.078125 26.386719 11.277344 26.6875 13.476562 C 27.804688 13.320312 28.933594 13.429688 30.058594 13.367188 C 31.683594 13.273438 33.21875 12.964844 34.839844 12.941406 C 33.804688 10.382812 32.738281 7.839844 31.792969 5.222656 Z M 18.519531 5.785156 C 18.8125 5.914062 19.089844 6.066406 19.371094 6.214844 C 19.519531 6.292969 19.699219 6.238281 19.777344 6.089844 C 19.855469 5.941406 19.800781 5.761719 19.652344 5.683594 C 19.359375 5.527344 19.070312 5.371094 18.765625 5.234375 C 18.613281 5.167969 18.433594 5.234375 18.367188 5.386719 C 18.300781 5.539062 18.367188 5.71875 18.519531 5.785156 Z M 20.5625 3.035156 C 20.753906 3.320312 20.949219 3.609375 21.117188 3.910156 C 21.199219 4.054688 21.382812 4.105469 21.527344 4.027344 C 21.671875 3.945312 21.722656 3.761719 21.644531 3.617188 C 21.464844 3.300781 21.265625 2.996094 21.0625 2.699219 C 20.96875 2.558594 20.78125 2.523438 20.640625 2.617188 C 20.503906 2.710938 20.46875 2.898438 20.5625 3.035156 Z M 27.949219 2.214844 C 27.828125 2.5625 27.683594 2.90625 27.570312 3.261719 C 27.523438 3.421875 27.609375 3.589844 27.769531 3.640625 C 27.925781 3.691406 28.097656 3.601562 28.144531 3.441406 C 28.257812 3.09375 28.398438 2.757812 28.515625 2.414062 C 28.574219 2.253906 28.488281 2.082031 28.332031 2.027344 C 28.175781 1.972656 28.003906 2.058594 27.949219 2.214844 Z M 24.636719 1.617188 C 24.636719 1.992188 24.648438 2.363281 24.664062 2.738281 C 24.671875 2.90625 24.8125 3.035156 24.980469 3.027344 C 25.144531 3.019531 25.273438 2.878906 25.269531 2.710938 C 25.25 2.347656 25.238281 1.980469 25.238281 1.617188 C 25.238281 1.449219 25.105469 1.3125 24.9375 1.3125 C 24.773438 1.3125 24.636719 1.449219 24.636719 1.617188 Z M 24.636719 1.617188 " fill-opacity="1" fill-rule="evenodd"/></g></svg>