<svg xmlns="http://www.w3.org/2000/svg" xmlns:xlink="http://www.w3.org/1999/xlink" width="70" zoomAndPan="magnify" viewBox="0 0 52.5 52.499999" height="70" preserveAspectRatio="xMidYMid meet" version="1.0"><path fill="#7d4248" d="M 21.671875 47.179688 C 21.277344 46.875 20.808594 46.84375 20.390625 46.691406 C 19.824219 46.488281 19.261719 46.28125 18.753906 45.949219 C 18.703125 45.917969 18.648438 45.875 18.59375 45.867188 C 17.535156 45.734375 16.46875 45.605469 15.429688 45.902344 C 15.007812 46.019531 14.605469 46.078125 14.191406 46.015625 C 13.699219 45.941406 13.433594 45.570312 13.421875 45.003906 C 13.394531 43.976562 13.554688 42.96875 13.726562 41.960938 C 13.75 41.816406 13.808594 41.671875 13.738281 41.503906 C 13.53125 41.460938 13.421875 41.621094 13.300781 41.738281 C 12.765625 42.265625 12.234375 42.796875 11.695312 43.320312 C 11.566406 43.445312 11.496094 43.570312 11.492188 43.753906 C 11.484375 44.378906 11.566406 44.984375 11.921875 45.519531 C 12.097656 45.785156 12.160156 46.070312 12.121094 46.378906 C 12.066406 46.835938 11.59375 47.074219 11.226562 46.8125 C 10.273438 46.125 9.429688 45.347656 9.191406 44.113281 C 9.117188 43.726562 8.949219 43.390625 8.703125 43.066406 C 8.183594 42.386719 8.308594 41.910156 8.839844 41.242188 C 10.125 39.628906 11.535156 38.128906 12.839844 36.535156 C 13.363281 35.894531 13.875 35.230469 14.484375 34.679688 C 15.210938 34.023438 15.140625 33.292969 14.882812 32.507812 C 14.5625 31.523438 14.207031 30.546875 13.871094 29.566406 C 13.496094 28.484375 13.222656 27.382812 13.054688 26.25 C 13.003906 25.90625 12.929688 25.546875 12.695312 25.289062 C 12.054688 24.574219 12.078125 23.78125 12.292969 22.921875 C 12.625 21.589844 13.105469 20.3125 13.628906 19.050781 C 13.925781 18.339844 14.015625 17.605469 14.050781 16.851562 C 14.113281 15.40625 13.945312 13.964844 13.957031 12.519531 C 13.960938 11.769531 14.003906 11.023438 14.125 10.277344 C 14.179688 9.925781 14.195312 9.574219 13.964844 9.242188 C 13.730469 8.90625 13.765625 8.546875 14 8.1875 C 14.21875 7.851562 14.480469 7.53125 14.585938 7.128906 C 14.644531 6.902344 14.828125 6.820312 15.03125 6.8125 C 15.527344 6.789062 16.027344 6.753906 16.496094 6.972656 C 17 7.210938 17.53125 7.226562 18.035156 7.054688 C 18.675781 6.835938 18.945312 6.261719 19.003906 5.648438 C 19.101562 4.648438 19.464844 3.800781 20.136719 3.0625 C 20.644531 2.503906 21.277344 2.183594 22.003906 2.039062 C 22.597656 1.921875 23.132812 2.09375 23.617188 2.441406 C 24.332031 2.949219 25 3.507812 25.613281 4.132812 C 26.109375 4.636719 26.015625 5.101562 25.367188 5.40625 C 24.738281 5.703125 24.472656 6.234375 24.496094 6.886719 C 24.511719 7.308594 24.410156 7.597656 24.058594 7.835938 C 23.695312 8.082031 23.429688 8.421875 23.246094 8.835938 C 23.03125 9.328125 22.691406 9.410156 22.214844 9.144531 C 22.160156 9.117188 22.117188 9.074219 22.0625 9.050781 C 21.875 8.96875 21.660156 8.699219 21.488281 9.011719 C 21.339844 9.285156 21.25 9.640625 21.582031 9.863281 C 21.957031 10.109375 22.371094 10.296875 22.761719 10.527344 C 23.34375 10.867188 23.820312 11.292969 23.757812 12.050781 C 23.742188 12.257812 23.640625 12.453125 23.597656 12.660156 C 23.503906 13.128906 23.628906 13.242188 24.082031 13.117188 C 24.472656 13.007812 24.773438 12.851562 24.898438 12.394531 C 25.070312 11.761719 25.40625 11.21875 25.976562 10.835938 C 26.332031 10.597656 26.292969 10.164062 26.316406 9.800781 C 26.351562 9.25 26.433594 8.800781 26.882812 8.359375 C 27.175781 8.074219 27.417969 7.546875 27.265625 6.996094 C 27.078125 6.296875 27.25 5.644531 27.667969 5.449219 C 28.25 5.183594 28.742188 5.445312 29.1875 5.824219 C 29.367188 5.976562 29.511719 6.179688 29.78125 6.261719 C 29.980469 6.039062 30.203125 5.851562 30.507812 5.769531 C 31.070312 5.613281 31.625 5.460938 32.109375 5.953125 C 32.632812 6.484375 32.964844 7.070312 32.707031 7.855469 C 32.554688 8.3125 32.464844 8.785156 32.429688 9.269531 C 32.390625 9.867188 32.082031 10.289062 31.601562 10.644531 C 31.167969 10.964844 30.628906 11.117188 30.242188 11.511719 C 29.652344 12.109375 29.625 12.371094 30.097656 13.070312 C 30.132812 13.121094 30.171875 13.167969 30.207031 13.214844 C 30.488281 13.636719 30.792969 13.96875 31.375 13.683594 C 31.539062 13.601562 31.757812 13.613281 31.949219 13.605469 C 32.457031 13.578125 32.851562 13.890625 32.875 14.382812 C 32.90625 15 32.898438 15.621094 32.59375 16.1875 C 32.441406 16.46875 32.457031 16.714844 32.632812 16.984375 C 32.988281 17.542969 33.335938 18.113281 33.796875 18.589844 C 34.59375 19.414062 35.132812 20.398438 35.671875 21.390625 C 36.109375 22.195312 36.53125 23.011719 37.003906 23.800781 C 37.464844 24.574219 37.65625 25.4375 37.894531 26.289062 C 37.925781 26.40625 37.984375 26.570312 37.878906 26.628906 C 37.394531 26.890625 37.671875 27.214844 37.796875 27.507812 C 38.113281 28.253906 38.429688 29 38.691406 29.769531 C 38.964844 30.570312 39.578125 31.136719 40.25 31.589844 C 42.089844 32.835938 44.105469 33.597656 46.347656 33.710938 C 47.269531 33.753906 47.8125 34.417969 47.894531 35.324219 C 47.984375 36.332031 47.546875 37.140625 47.035156 37.921875 C 45.714844 39.933594 43.960938 41.484375 41.847656 42.632812 C 40.601562 43.3125 39.332031 43.925781 37.992188 44.378906 C 37.246094 44.632812 36.617188 45.109375 35.898438 45.421875 C 35.242188 45.707031 34.554688 45.835938 33.890625 46.054688 C 32.953125 46.367188 31.972656 46.546875 31.058594 46.9375 C 28.660156 47.960938 26.160156 48.449219 23.550781 48.375 C 23.296875 48.367188 23.039062 48.34375 22.792969 48.285156 C 22.398438 48.191406 22.050781 48.019531 21.945312 47.570312 C 21.90625 47.421875 21.808594 47.304688 21.671875 47.179688 M 31.074219 22.476562 C 31.351562 22.753906 31.613281 23.039062 31.828125 23.371094 C 31.984375 23.609375 32.183594 23.816406 32.453125 23.941406 C 32.90625 24.15625 33.273438 24.515625 33.433594 24.957031 C 33.761719 25.859375 34.574219 26.054688 35.296875 26.375 C 35.65625 26.535156 35.855469 26.359375 35.910156 25.964844 C 35.945312 25.683594 35.9375 25.386719 36.023438 25.121094 C 36.144531 24.734375 36.027344 24.445312 35.78125 24.171875 C 35.429688 23.785156 35.105469 23.359375 34.71875 23.011719 C 33.382812 21.800781 32.195312 20.488281 31.355469 18.875 C 30.980469 18.164062 30.773438 18.164062 30.074219 18.632812 C 30.066406 18.785156 30.183594 18.921875 30.144531 19.097656 C 30.011719 19.714844 29.90625 20.34375 29.625 20.910156 C 29.457031 21.242188 29.550781 21.394531 29.835938 21.546875 C 30.277344 21.785156 30.667969 22.085938 31.074219 22.476562 M 17.464844 40.21875 C 17.261719 41.25 17.070312 42.28125 16.855469 43.308594 C 16.789062 43.628906 16.910156 43.835938 17.15625 43.992188 C 17.402344 44.15625 17.6875 44.183594 17.980469 44.179688 C 18.238281 44.175781 18.347656 44.058594 18.386719 43.804688 C 18.800781 41.078125 19.222656 38.351562 19.636719 35.625 C 19.65625 35.480469 19.734375 35.300781 19.519531 35.140625 C 19.058594 35.734375 18.523438 36.265625 18.292969 37.007812 C 17.96875 38.039062 17.730469 39.09375 17.464844 40.21875 M 20.519531 24.742188 C 20.5625 25.039062 20.582031 25.339844 20.652344 25.628906 C 20.714844 25.878906 20.660156 26.054688 20.496094 26.242188 C 20.066406 26.722656 20.125 27.425781 20.613281 27.90625 C 20.855469 27.601562 20.800781 27.222656 20.859375 26.875 C 21.015625 25.945312 21.347656 25.042969 21.390625 24.09375 C 21.4375 23.097656 21.722656 22.210938 22.347656 21.433594 C 22.5 21.25 22.421875 21.101562 22.253906 20.980469 C 21.925781 20.742188 21.582031 20.523438 21.269531 20.265625 C 20.902344 19.96875 20.8125 19.992188 20.6875 20.453125 C 20.300781 21.84375 20.394531 23.25 20.519531 24.742188 M 24.3125 15.699219 C 24.257812 15.367188 24.0625 15.296875 23.757812 15.390625 C 23.449219 15.484375 23.28125 15.632812 23.316406 16 C 23.421875 17.035156 24.136719 17.691406 24.753906 18.414062 C 24.808594 18.476562 24.90625 18.507812 25.019531 18.433594 C 25.160156 18.019531 25.023438 17.628906 24.867188 17.238281 C 24.675781 16.753906 24.390625 16.300781 24.3125 15.699219 Z M 24.3125 15.699219 " fill-opacity="1" fill-rule="nonzero"/></svg>