<svg xmlns="http://www.w3.org/2000/svg" xmlns:xlink="http://www.w3.org/1999/xlink" width="70" zoomAndPan="magnify" viewBox="0 0 52.5 52.499999" height="70" preserveAspectRatio="xMidYMid meet" version="1.0"><defs><clipPath id="f5631361c1"><path d="M 2.632812 11.980469 L 49.4375 11.980469 L 49.4375 40.210938 L 2.632812 40.210938 Z M 2.632812 11.980469 " clip-rule="nonzero"/></clipPath></defs><g clip-path="url(#f5631361c1)"><path fill="#c9aaaf" d="M 48.621094 12.621094 C 48.175781 12.191406 47.644531 11.976562 47.027344 11.980469 L 4.976562 11.980469 C 4.367188 11.976562 3.84375 12.183594 3.402344 12.605469 C 2.894531 13.0625 2.640625 13.632812 2.640625 14.316406 L 2.640625 37.679688 C 2.640625 38.351562 2.886719 38.917969 3.378906 39.375 C 3.824219 39.804688 4.355469 40.015625 4.976562 40.015625 L 47.027344 40.015625 C 47.632812 40.019531 48.160156 39.8125 48.597656 39.390625 C 49.105469 38.933594 49.359375 38.363281 49.363281 37.679688 L 49.363281 14.316406 C 49.363281 13.644531 49.113281 13.078125 48.621094 12.621094 Z M 46.425781 13.539062 L 32.945312 24.6875 C 32.804688 24.25 32.585938 23.855469 32.292969 23.496094 C 31.554688 22.625 30.613281 22.160156 29.472656 22.105469 C 28.339844 22.066406 27.363281 22.445312 26.554688 23.242188 L 26 23.792969 L 25.449219 23.242188 C 25.257812 23.050781 25.046875 22.878906 24.820312 22.734375 C 24.59375 22.585938 24.355469 22.464844 24.105469 22.367188 C 23.851562 22.269531 23.59375 22.195312 23.324219 22.152344 C 23.058594 22.109375 22.792969 22.09375 22.519531 22.105469 C 22.25 22.117188 21.984375 22.15625 21.722656 22.226562 C 21.460938 22.292969 21.210938 22.386719 20.96875 22.503906 C 20.726562 22.625 20.5 22.769531 20.285156 22.9375 C 20.074219 23.101562 19.882812 23.289062 19.707031 23.496094 C 19.414062 23.851562 19.191406 24.25 19.046875 24.6875 L 5.574219 13.539062 Z M 4.195312 37.578125 L 4.195312 14.417969 L 18.191406 25.996094 Z M 5.574219 38.457031 L 19.085938 27.28125 C 19.285156 27.886719 19.609375 28.414062 20.058594 28.863281 L 24.902344 33.707031 C 25.046875 33.851562 25.214844 33.964844 25.40625 34.042969 C 25.597656 34.121094 25.792969 34.160156 26 34.160156 C 26.207031 34.160156 26.402344 34.121094 26.59375 34.042969 C 26.785156 33.964844 26.953125 33.851562 27.097656 33.707031 L 31.941406 28.863281 C 32.390625 28.414062 32.714844 27.886719 32.914062 27.28125 L 46.425781 38.457031 Z M 47.804688 37.578125 L 33.8125 25.996094 L 47.804688 14.417969 Z M 47.804688 37.578125 " fill-opacity="1" fill-rule="nonzero"/></g></svg>