<svg xmlns="http://www.w3.org/2000/svg" xmlns:xlink="http://www.w3.org/1999/xlink" width="200" zoomAndPan="magnify" viewBox="0 0 150 30.000001" height="40" preserveAspectRatio="xMidYMid meet" version="1.0"><defs><clipPath id="929d6ddc5e"><path d="M 24 5.5 L 115.355469 5.5 L 115.355469 23.648438 L 24 23.648438 Z M 24 5.5 " clip-rule="nonzero"/></clipPath></defs><path fill="#f8c8dc" d="M 70.378906 7.941406 C 70.53125 7.960938 70.671875 7.851562 70.691406 7.699219 C 70.710938 7.546875 70.605469 7.40625 70.449219 7.386719 C 70.296875 7.367188 70.15625 7.472656 70.136719 7.625 C 70.117188 7.78125 70.226562 7.917969 70.378906 7.941406 " fill-opacity="1" fill-rule="nonzero"/><path fill="#f8c8dc" d="M 69.34375 6.640625 C 69.5 6.660156 69.640625 6.550781 69.660156 6.398438 C 69.679688 6.246094 69.570312 6.105469 69.417969 6.085938 C 69.265625 6.066406 69.125 6.171875 69.105469 6.328125 C 69.085938 6.480469 69.191406 6.621094 69.34375 6.640625 " fill-opacity="1" fill-rule="nonzero"/><path fill="#f8c8dc" d="M 67.265625 9.910156 C 67.417969 9.929688 67.558594 9.820312 67.578125 9.667969 C 67.597656 9.515625 67.488281 9.375 67.335938 9.355469 C 67.183594 9.335938 67.042969 9.441406 67.023438 9.597656 C 67.003906 9.75 67.113281 9.890625 67.265625 9.910156 " fill-opacity="1" fill-rule="nonzero"/><g clip-path="url(#929d6ddc5e)"><path fill="#f8c8dc" d="M 115.066406 7.9375 C 114.511719 9.804688 112.75 11.046875 110.929688 12.109375 C 109.257812 13.085938 107.472656 13.667969 105.617188 13.867188 C 105.691406 13.84375 105.765625 13.808594 105.847656 13.785156 C 106.070312 13.71875 106.300781 13.648438 106.523438 13.523438 C 107.367188 13.050781 108.261719 12.542969 109.125 11.941406 C 109.960938 11.359375 111.128906 10.453125 111.957031 9.421875 C 111.972656 9.402344 111.96875 9.371094 111.949219 9.355469 C 111.929688 9.339844 111.902344 9.34375 111.886719 9.363281 C 111.066406 10.386719 109.902344 11.289062 109.074219 11.867188 C 108.210938 12.464844 107.320312 12.972656 106.476562 13.445312 C 106.265625 13.5625 106.039062 13.632812 105.820312 13.699219 C 105.710938 13.730469 105.597656 13.777344 105.484375 13.820312 C 107.046875 13.011719 108.53125 11.816406 109.546875 10.511719 C 109.902344 10.054688 110.222656 9.535156 110.53125 9.035156 C 111.105469 8.105469 111.699219 7.140625 112.574219 6.464844 C 113.0625 6.085938 113.539062 5.890625 113.953125 5.890625 C 114.191406 5.890625 114.410156 5.953125 114.597656 6.082031 C 115.101562 6.429688 115.292969 7.171875 115.066406 7.9375 Z M 107.019531 17.667969 C 107.464844 17.855469 107.957031 18.003906 108.433594 18.148438 C 109.316406 18.421875 110.230469 18.699219 110.9375 19.214844 C 111.5 19.625 111.730469 20.0625 111.589844 20.445312 C 111.425781 20.894531 110.777344 21.183594 110.019531 21.132812 C 108.332031 21.011719 107.011719 19.953125 105.835938 18.824219 C 104.730469 17.757812 103.953125 16.550781 103.523438 15.230469 C 103.609375 15.339844 103.734375 15.53125 103.816406 15.660156 C 103.859375 15.730469 103.898438 15.789062 103.929688 15.835938 C 104.332031 16.433594 104.972656 16.953125 105.535156 17.410156 L 105.722656 17.558594 C 106.34375 18.066406 107.292969 18.761719 108.300781 19.195312 C 108.308594 19.199219 108.3125 19.199219 108.320312 19.199219 C 108.335938 19.199219 108.351562 19.1875 108.359375 19.171875 C 108.371094 19.148438 108.359375 19.121094 108.335938 19.109375 C 107.339844 18.679688 106.398438 17.992188 105.78125 17.488281 L 105.59375 17.335938 C 105.035156 16.886719 104.402344 16.371094 104.003906 15.785156 C 103.972656 15.742188 103.933594 15.679688 103.894531 15.613281 C 103.875 15.585938 103.859375 15.5625 103.84375 15.535156 C 104.730469 16.414062 105.859375 17.1875 107.019531 17.667969 Z M 91.929688 12.136719 C 92.902344 10.730469 94.042969 9.363281 95.753906 8.890625 C 95.976562 8.832031 96.199219 8.800781 96.40625 8.800781 C 96.902344 8.800781 97.328125 8.972656 97.515625 9.277344 C 97.738281 9.640625 97.589844 10.136719 97.097656 10.675781 C 96.476562 11.355469 95.59375 11.832031 94.738281 12.292969 C 94.28125 12.539062 93.804688 12.796875 93.382812 13.078125 C 92.191406 13.878906 91.101562 15.027344 90.359375 16.222656 C 90.636719 15.191406 91.0625 14.339844 91.675781 13.648438 C 92.296875 12.9375 93.058594 12.328125 93.796875 11.738281 C 93.910156 11.652344 94.019531 11.5625 94.128906 11.472656 C 94.148438 11.457031 94.152344 11.425781 94.132812 11.40625 C 94.117188 11.386719 94.085938 11.382812 94.066406 11.398438 C 93.957031 11.488281 93.847656 11.574219 93.738281 11.664062 C 92.996094 12.257812 92.230469 12.871094 91.601562 13.585938 C 91.0625 14.199219 90.664062 14.9375 90.382812 15.808594 C 90.609375 14.539062 91.113281 13.304688 91.929688 12.136719 Z M 95.535156 17.171875 C 96.039062 18.429688 97.585938 19.972656 98.859375 20.464844 C 98.863281 20.464844 98.871094 20.464844 98.875 20.464844 C 98.894531 20.464844 98.910156 20.453125 98.917969 20.4375 C 98.929688 20.414062 98.917969 20.386719 98.894531 20.378906 C 97.707031 19.921875 96.289062 18.542969 95.714844 17.347656 C 96.601562 18.222656 97.722656 18.992188 98.875 19.46875 C 99.320312 19.652344 99.8125 19.804688 100.289062 19.949219 C 101.171875 20.21875 102.085938 20.5 102.796875 21.015625 C 103.355469 21.425781 103.589844 21.863281 103.449219 22.242188 C 103.28125 22.695312 102.625 22.980469 101.875 22.933594 C 100.191406 22.8125 98.867188 21.753906 97.691406 20.621094 C 96.582031 19.554688 95.804688 18.34375 95.375 17.019531 C 95.421875 17.070312 95.484375 17.121094 95.535156 17.171875 Z M 88.957031 19.84375 C 89.402344 20.027344 89.894531 20.179688 90.371094 20.324219 C 91.253906 20.59375 92.167969 20.875 92.875 21.390625 C 93.4375 21.800781 93.667969 22.238281 93.527344 22.621094 C 93.363281 23.070312 92.703125 23.359375 91.957031 23.308594 C 90.269531 23.1875 88.949219 22.128906 87.773438 21 C 86.78125 20.046875 86.070312 18.972656 85.621094 17.808594 C 86.453125 19.285156 87.445312 20.3125 88.582031 20.859375 C 88.589844 20.863281 88.59375 20.863281 88.601562 20.863281 C 88.621094 20.863281 88.636719 20.855469 88.644531 20.835938 C 88.65625 20.816406 88.644531 20.789062 88.621094 20.777344 C 87.429688 20.203125 86.390625 19.089844 85.535156 17.472656 C 86.457031 18.453125 87.691406 19.320312 88.957031 19.84375 Z M 85.457031 17.394531 C 85.472656 17.414062 85.496094 17.433594 85.515625 17.453125 C 85.503906 17.441406 85.492188 17.433594 85.472656 17.4375 C 85.46875 17.421875 85.460938 17.410156 85.457031 17.394531 Z M 82.5625 11.917969 C 83.539062 10.511719 84.679688 9.148438 86.390625 8.675781 C 86.613281 8.613281 86.832031 8.582031 87.042969 8.582031 C 87.539062 8.582031 87.964844 8.753906 88.152344 9.058594 C 88.375 9.421875 88.226562 9.917969 87.734375 10.457031 C 87.113281 11.136719 86.230469 11.613281 85.375 12.074219 C 84.914062 12.320312 84.4375 12.578125 84.019531 12.863281 C 82.875 13.628906 81.832031 14.71875 81.09375 15.863281 C 81.296875 15.050781 81.765625 14.34375 82.371094 13.542969 C 83.164062 12.484375 84.023438 11.6875 84.921875 11.167969 C 84.941406 11.15625 84.949219 11.128906 84.9375 11.105469 C 84.925781 11.082031 84.894531 11.074219 84.871094 11.085938 C 83.964844 11.609375 83.097656 12.417969 82.292969 13.484375 C 81.625 14.375 81.109375 15.144531 80.945312 16.078125 C 80.9375 16.089844 80.929688 16.097656 80.921875 16.109375 C 81.089844 14.65625 81.640625 13.25 82.5625 11.917969 Z M 75.136719 18.050781 C 74.949219 18.277344 74.679688 18.449219 74.421875 18.617188 C 73.023438 19.519531 71.613281 20.039062 70.132812 20.230469 C 72.070312 19.246094 73.90625 17.398438 75.015625 15.390625 C 75.03125 15.402344 75.046875 15.414062 75.066406 15.414062 C 75.445312 15.425781 75.734375 15.792969 75.785156 16.125 C 75.839844 16.5 75.695312 16.882812 75.5625 17.222656 C 75.453125 17.511719 75.335938 17.808594 75.136719 18.050781 Z M 63.59375 15.777344 C 63.472656 15.390625 63.382812 14.839844 63.636719 14.40625 C 63.742188 14.222656 63.90625 14.066406 64.0625 13.914062 C 64.441406 13.550781 64.871094 13.136719 65.421875 12.964844 C 65.449219 12.953125 65.496094 12.960938 65.527344 12.976562 C 65.519531 13.003906 65.523438 13.039062 65.539062 13.066406 C 65.574219 13.121094 65.644531 13.136719 65.695312 13.101562 C 65.703125 13.097656 65.703125 13.089844 65.710938 13.085938 C 65.707031 13.144531 65.6875 13.199219 65.6875 13.261719 C 65.65625 14.285156 66.035156 15.261719 66.363281 16 C 66.871094 17.132812 67.679688 18.4375 68.582031 19.574219 C 68.675781 19.691406 68.765625 19.792969 68.859375 19.878906 L 68.441406 19.644531 C 68.183594 19.503906 67.941406 19.292969 67.707031 19.09375 C 67.59375 18.996094 67.492188 18.90625 67.386719 18.824219 C 66.929688 18.464844 66.570312 17.988281 66.222656 17.527344 C 66.09375 17.355469 65.960938 17.175781 65.828125 17.011719 C 65.808594 16.992188 65.777344 16.984375 65.753906 17.003906 C 65.734375 17.019531 65.730469 17.050781 65.75 17.074219 C 65.882812 17.238281 66.015625 17.414062 66.144531 17.585938 C 66.496094 18.050781 66.855469 18.535156 67.324219 18.902344 C 67.425781 18.984375 67.53125 19.074219 67.640625 19.167969 C 67.882812 19.371094 68.128906 19.585938 68.390625 19.734375 L 68.636719 19.871094 C 67.796875 19.582031 66.992188 19.253906 66.1875 18.765625 C 66.035156 18.652344 65.855469 18.546875 65.6875 18.4375 C 64.636719 17.6875 63.902344 16.757812 63.59375 15.777344 Z M 67.089844 10.992188 C 67.753906 10.566406 68.605469 10.480469 69.421875 10.429688 C 69.601562 10.417969 69.78125 10.410156 69.960938 10.410156 C 70.375 10.410156 70.78125 10.457031 71.132812 10.640625 C 71.6875 10.933594 72.0625 11.527344 72.269531 12.457031 C 72.640625 14.117188 72.457031 15.910156 71.753906 17.5 L 71.71875 17.578125 C 71.347656 18.414062 70.746094 19.757812 69.992188 20.015625 C 70.039062 19.882812 70.105469 19.753906 70.175781 19.628906 C 70.238281 19.527344 70.300781 19.417969 70.347656 19.308594 C 70.496094 18.976562 70.574219 18.613281 70.652344 18.265625 C 70.675781 18.15625 70.699219 18.046875 70.726562 17.9375 C 71.027344 16.675781 71.171875 15.71875 71.203125 14.738281 C 71.203125 14.710938 71.175781 14.691406 71.152344 14.6875 C 71.125 14.6875 71.105469 14.707031 71.101562 14.734375 C 71.070312 15.707031 70.929688 16.65625 70.628906 17.914062 C 70.601562 18.023438 70.578125 18.132812 70.554688 18.242188 C 70.476562 18.589844 70.398438 18.945312 70.257812 19.269531 C 70.210938 19.371094 70.148438 19.476562 70.089844 19.578125 C 70.003906 19.730469 69.925781 19.890625 69.878906 20.054688 C 69.863281 20.054688 69.851562 20.066406 69.835938 20.066406 C 69.800781 20.070312 69.769531 20.0625 69.734375 20.0625 C 69.371094 19.546875 69.160156 18.921875 68.960938 18.316406 C 68.933594 18.230469 68.902344 18.144531 68.875 18.058594 C 68.765625 17.738281 68.703125 17.378906 68.636719 17.03125 C 68.558594 16.601562 68.476562 16.160156 68.316406 15.773438 C 68.304688 15.75 68.277344 15.738281 68.25 15.746094 C 68.226562 15.757812 68.214844 15.785156 68.226562 15.8125 C 68.382812 16.1875 68.464844 16.625 68.539062 17.046875 C 68.605469 17.398438 68.671875 17.761719 68.78125 18.09375 C 68.808594 18.175781 68.835938 18.261719 68.867188 18.347656 C 69.058594 18.9375 69.265625 19.539062 69.613281 20.054688 C 69.339844 20.003906 69.046875 19.796875 68.757812 19.433594 C 67.867188 18.308594 67.070312 17.023438 66.570312 15.910156 C 66.09375 14.847656 65.890625 14.03125 65.910156 13.265625 C 65.9375 12.296875 66.378906 11.449219 67.089844 10.992188 Z M 73.519531 11.648438 C 73.824219 11.804688 74.140625 11.964844 74.453125 12.023438 C 74.820312 12.089844 75.242188 12.335938 75.503906 12.632812 C 75.804688 12.980469 75.679688 13.308594 75.527344 13.726562 L 75.472656 13.875 C 74.710938 16.023438 72.933594 18.183594 70.945312 19.496094 C 71.359375 18.9375 71.6875 18.203125 71.925781 17.671875 L 71.960938 17.589844 C 72.15625 17.148438 72.308594 16.6875 72.425781 16.222656 C 72.777344 16.066406 73.117188 15.15625 73.40625 14.269531 C 73.425781 14.214844 73.441406 14.167969 73.453125 14.128906 C 73.460938 14.101562 73.449219 14.074219 73.421875 14.066406 C 73.394531 14.054688 73.367188 14.070312 73.359375 14.097656 C 73.347656 14.136719 73.332031 14.183594 73.3125 14.238281 C 73.164062 14.6875 72.796875 15.808594 72.457031 16.082031 C 72.738281 14.871094 72.757812 13.605469 72.492188 12.40625 C 72.394531 11.972656 72.253906 11.621094 72.085938 11.316406 C 72.554688 11.171875 73.023438 11.398438 73.519531 11.648438 Z M 51.699219 21 C 50.523438 22.128906 49.203125 23.1875 47.515625 23.308594 C 46.765625 23.359375 46.109375 23.070312 45.945312 22.621094 C 45.804688 22.238281 46.035156 21.800781 46.597656 21.390625 C 47.304688 20.875 48.21875 20.59375 49.101562 20.324219 C 49.578125 20.179688 50.070312 20.027344 50.515625 19.84375 C 51.78125 19.320312 53.019531 18.453125 53.9375 17.472656 C 53.082031 19.089844 52.046875 20.203125 50.851562 20.777344 C 50.828125 20.789062 50.820312 20.816406 50.832031 20.835938 C 50.839844 20.855469 50.855469 20.863281 50.871094 20.863281 C 50.878906 20.863281 50.886719 20.863281 50.890625 20.859375 C 52.027344 20.3125 53.019531 19.285156 53.851562 17.808594 C 53.402344 18.972656 52.691406 20.042969 51.699219 21 Z M 54 17.4375 C 53.984375 17.433594 53.96875 17.441406 53.957031 17.453125 C 53.976562 17.433594 54 17.414062 54.019531 17.394531 C 54.011719 17.410156 54.003906 17.421875 54 17.4375 Z M 41.78125 20.621094 C 40.605469 21.753906 39.285156 22.8125 37.597656 22.933594 C 36.847656 22.984375 36.191406 22.695312 36.027344 22.242188 C 35.886719 21.863281 36.117188 21.425781 36.679688 21.015625 C 37.386719 20.5 38.300781 20.21875 39.183594 19.949219 C 39.660156 19.804688 40.152344 19.652344 40.597656 19.46875 C 41.75 18.992188 42.875 18.222656 43.761719 17.347656 C 43.1875 18.542969 41.765625 19.921875 40.582031 20.378906 C 40.558594 20.386719 40.546875 20.414062 40.554688 20.4375 C 40.5625 20.453125 40.578125 20.464844 40.597656 20.464844 C 40.601562 20.464844 40.609375 20.464844 40.613281 20.464844 C 41.886719 19.972656 43.433594 18.429688 43.941406 17.171875 C 43.992188 17.121094 44.050781 17.070312 44.097656 17.019531 C 43.667969 18.34375 42.890625 19.554688 41.78125 20.621094 Z M 24.40625 7.9375 C 24.179688 7.171875 24.371094 6.429688 24.875 6.082031 C 25.066406 5.953125 25.28125 5.890625 25.519531 5.890625 C 25.933594 5.890625 26.410156 6.085938 26.898438 6.464844 C 27.773438 7.140625 28.367188 8.105469 28.941406 9.035156 C 29.25 9.539062 29.570312 10.054688 29.925781 10.511719 C 30.941406 11.820312 32.425781 13.011719 33.988281 13.820312 C 33.875 13.777344 33.761719 13.730469 33.652344 13.699219 C 33.433594 13.632812 33.207031 13.5625 32.996094 13.445312 C 32.117188 12.953125 31.257812 12.460938 30.402344 11.867188 C 29.570312 11.289062 28.410156 10.386719 27.589844 9.363281 C 27.574219 9.34375 27.542969 9.339844 27.523438 9.355469 C 27.503906 9.371094 27.5 9.402344 27.519531 9.421875 C 28.34375 10.453125 29.515625 11.359375 30.351562 11.941406 C 31.210938 12.539062 32.070312 13.03125 32.949219 13.523438 C 33.171875 13.648438 33.402344 13.71875 33.625 13.785156 C 33.707031 13.808594 33.78125 13.84375 33.859375 13.867188 C 32 13.667969 30.214844 13.085938 28.542969 12.109375 C 26.722656 11.046875 24.960938 9.800781 24.40625 7.9375 Z M 33.636719 18.824219 C 32.460938 19.953125 31.140625 21.011719 29.453125 21.132812 C 28.707031 21.183594 28.050781 20.894531 27.882812 20.445312 C 27.742188 20.0625 27.972656 19.625 28.535156 19.214844 C 29.242188 18.699219 30.15625 18.417969 31.039062 18.148438 C 31.515625 18.003906 32.011719 17.855469 32.457031 17.667969 C 33.613281 17.1875 34.742188 16.414062 35.632812 15.53125 C 35.613281 15.558594 35.597656 15.582031 35.582031 15.609375 C 35.539062 15.679688 35.5 15.738281 35.46875 15.785156 C 35.074219 16.371094 34.445312 16.882812 33.886719 17.332031 L 33.691406 17.488281 C 33.078125 17.992188 32.132812 18.679688 31.136719 19.109375 C 31.113281 19.121094 31.101562 19.148438 31.113281 19.171875 C 31.121094 19.1875 31.136719 19.199219 31.15625 19.199219 C 31.160156 19.199219 31.167969 19.199219 31.171875 19.195312 C 32.179688 18.761719 33.128906 18.066406 33.75 17.558594 L 33.945312 17.402344 C 34.507812 16.949219 35.144531 16.433594 35.546875 15.835938 C 35.578125 15.789062 35.617188 15.730469 35.660156 15.660156 C 35.742188 15.53125 35.863281 15.339844 35.949219 15.230469 C 35.523438 16.550781 34.746094 17.757812 33.636719 18.824219 Z M 37.246094 12.164062 C 36.824219 11.878906 36.347656 11.625 35.890625 11.375 C 35.035156 10.914062 34.152344 10.4375 33.53125 9.757812 C 33.039062 9.222656 32.890625 8.722656 33.113281 8.359375 C 33.296875 8.054688 33.722656 7.886719 34.222656 7.886719 C 34.429688 7.886719 34.652344 7.914062 34.871094 7.976562 C 36.585938 8.449219 37.722656 9.8125 38.699219 11.21875 C 39.402344 12.230469 39.882812 13.285156 40.148438 14.367188 C 39.671875 13.402344 38.875 12.671875 38.09375 11.964844 C 37.574219 11.496094 37.039062 11.007812 36.605469 10.457031 C 36.585938 10.433594 36.554688 10.429688 36.53125 10.449219 C 36.507812 10.464844 36.503906 10.5 36.523438 10.523438 C 36.960938 11.078125 37.5 11.570312 38.023438 12.042969 C 38.898438 12.835938 39.796875 13.652344 40.230469 14.808594 C 40.269531 15.007812 40.316406 15.207031 40.339844 15.410156 C 39.597656 14.175781 38.46875 12.984375 37.246094 12.164062 Z M 46.089844 13.078125 C 45.671875 12.796875 45.195312 12.539062 44.734375 12.292969 C 43.878906 11.832031 42.996094 11.355469 42.375 10.675781 C 41.882812 10.136719 41.734375 9.640625 41.957031 9.277344 C 42.144531 8.972656 42.570312 8.800781 43.066406 8.800781 C 43.277344 8.800781 43.496094 8.832031 43.71875 8.890625 C 45.429688 9.363281 46.570312 10.730469 47.546875 12.136719 C 48.359375 13.308594 48.863281 14.539062 49.09375 15.8125 C 48.808594 14.9375 48.414062 14.199219 47.871094 13.585938 C 47.242188 12.871094 46.480469 12.261719 45.742188 11.667969 C 45.628906 11.578125 45.515625 11.488281 45.40625 11.398438 C 45.386719 11.382812 45.355469 11.386719 45.339844 11.40625 C 45.324219 11.425781 45.324219 11.457031 45.347656 11.472656 C 45.457031 11.5625 45.570312 11.652344 45.679688 11.742188 C 46.417969 12.332031 47.175781 12.941406 47.800781 13.648438 C 48.410156 14.339844 48.835938 15.1875 49.113281 16.222656 C 48.371094 15.027344 47.28125 13.878906 46.089844 13.078125 Z M 55.457031 12.863281 C 55.035156 12.578125 54.558594 12.320312 54.097656 12.074219 C 53.246094 11.613281 52.363281 11.136719 51.738281 10.457031 C 51.25 9.917969 51.097656 9.421875 51.324219 9.058594 C 51.507812 8.753906 51.933594 8.582031 52.433594 8.582031 C 52.640625 8.582031 52.863281 8.613281 53.082031 8.675781 C 54.796875 9.148438 55.933594 10.511719 56.910156 11.917969 C 57.832031 13.246094 58.382812 14.65625 58.550781 16.109375 C 58.546875 16.105469 58.542969 16.101562 58.539062 16.09375 C 58.363281 15.0625 57.714844 14.191406 57.183594 13.484375 C 56.378906 12.417969 55.507812 11.609375 54.601562 11.085938 C 54.578125 11.074219 54.550781 11.082031 54.535156 11.105469 C 54.523438 11.128906 54.53125 11.15625 54.554688 11.167969 C 55.449219 11.6875 56.308594 12.484375 57.105469 13.542969 C 57.707031 14.34375 58.179688 15.050781 58.382812 15.863281 C 57.640625 14.71875 56.597656 13.628906 55.457031 12.863281 Z M 100.773438 11.21875 C 101.75 9.8125 102.886719 8.449219 104.601562 7.976562 C 104.824219 7.914062 105.042969 7.886719 105.25 7.886719 C 105.75 7.886719 106.175781 8.054688 106.359375 8.359375 C 106.585938 8.726562 106.4375 9.222656 105.945312 9.757812 C 105.320312 10.4375 104.4375 10.914062 103.585938 11.375 C 103.125 11.625 102.648438 11.878906 102.230469 12.164062 C 101.003906 12.988281 99.875 14.175781 99.132812 15.410156 C 99.15625 15.207031 99.207031 15.007812 99.242188 14.808594 C 99.675781 13.652344 100.574219 12.835938 101.449219 12.042969 C 101.972656 11.570312 102.515625 11.078125 102.953125 10.523438 C 102.96875 10.5 102.964844 10.464844 102.941406 10.449219 C 102.921875 10.429688 102.886719 10.433594 102.867188 10.457031 C 102.4375 11.007812 101.898438 11.496094 101.378906 11.964844 C 100.601562 12.671875 99.804688 13.402344 99.324219 14.367188 C 99.589844 13.285156 100.074219 12.230469 100.773438 11.21875 Z M 114.714844 5.910156 C 114.117188 5.503906 113.289062 5.644531 112.445312 6.300781 C 111.542969 7 110.941406 7.980469 110.355469 8.925781 C 110.035156 9.445312 109.734375 9.9375 109.382812 10.386719 C 108.246094 11.847656 106.507812 13.183594 104.738281 13.953125 C 104.707031 13.96875 104.691406 13.996094 104.6875 14.027344 C 103.097656 14.707031 101.492188 15.128906 99.996094 15.480469 C 99.757812 15.539062 99.515625 15.582031 99.277344 15.632812 C 100 14.386719 101.117188 13.175781 102.351562 12.34375 C 102.761719 12.066406 103.210938 11.824219 103.6875 11.566406 C 104.558594 11.097656 105.457031 10.613281 106.105469 9.90625 C 106.863281 9.074219 106.707031 8.507812 106.546875 8.246094 C 106.226562 7.726562 105.402344 7.527344 104.542969 7.765625 C 102.761719 8.257812 101.59375 9.65625 100.59375 11.09375 C 99.582031 12.554688 99.019531 14.105469 98.898438 15.714844 C 96.082031 16.3125 93.179688 16.707031 90.242188 16.855469 C 90.949219 15.5 92.167969 14.160156 93.503906 13.261719 C 93.914062 12.984375 94.367188 12.742188 94.84375 12.484375 C 95.710938 12.011719 96.609375 11.527344 97.257812 10.824219 C 98.019531 9.992188 97.863281 9.425781 97.699219 9.164062 C 97.382812 8.640625 96.558594 8.445312 95.695312 8.683594 C 93.917969 9.171875 92.75 10.574219 91.75 12.011719 C 90.699219 13.523438 90.117188 15.140625 90.03125 16.8125 C 90.027344 16.828125 90.035156 16.84375 90.042969 16.859375 C 88.496094 16.933594 86.902344 16.945312 85.300781 16.894531 C 85.265625 16.863281 85.21875 16.847656 85.175781 16.871094 C 85.167969 16.875 85.164062 16.882812 85.160156 16.890625 C 84.496094 16.867188 83.824219 16.796875 83.171875 16.726562 C 82.433594 16.648438 81.675781 16.574219 80.925781 16.558594 C 81.636719 15.234375 82.828125 13.921875 84.140625 13.042969 C 84.550781 12.765625 85 12.523438 85.480469 12.265625 C 86.347656 11.796875 87.246094 11.308594 87.894531 10.605469 C 88.65625 9.773438 88.496094 9.207031 88.335938 8.945312 C 88.015625 8.425781 87.195312 8.226562 86.332031 8.464844 C 84.554688 8.957031 83.382812 10.355469 82.382812 11.792969 C 81.34375 13.296875 80.769531 14.894531 80.671875 16.550781 C 80.667969 16.550781 80.664062 16.550781 80.660156 16.550781 C 80.507812 16.546875 80.347656 16.546875 80.191406 16.546875 C 79.707031 16.539062 79.203125 16.53125 78.726562 16.601562 C 77.75 16.742188 76.726562 17.054688 75.683594 17.519531 C 75.714844 17.449219 75.75 17.371094 75.777344 17.300781 C 75.90625 16.957031 76.074219 16.527344 76.007812 16.09375 C 75.941406 15.675781 75.59375 15.242188 75.121094 15.199219 C 75.339844 14.785156 75.535156 14.371094 75.683594 13.953125 L 75.738281 13.804688 C 75.898438 13.375 76.0625 12.933594 75.671875 12.484375 C 75.378906 12.152344 74.90625 11.875 74.496094 11.800781 C 74.214844 11.746094 73.925781 11.601562 73.625 11.445312 C 73.089844 11.175781 72.539062 10.902344 71.960938 11.109375 C 71.761719 10.816406 71.523438 10.589844 71.238281 10.441406 C 70.679688 10.148438 70.027344 10.164062 69.40625 10.203125 C 68.601562 10.253906 67.679688 10.347656 66.96875 10.800781 C 66.292969 11.230469 65.863281 11.992188 65.738281 12.863281 C 65.667969 12.765625 65.484375 12.707031 65.351562 12.746094 C 64.753906 12.9375 64.300781 13.371094 63.90625 13.75 C 63.746094 13.90625 63.5625 14.082031 63.441406 14.292969 C 63.207031 14.691406 63.183594 15.230469 63.378906 15.84375 C 63.601562 16.550781 64.035156 17.230469 64.636719 17.839844 C 63.847656 17.445312 62.988281 17.113281 62.109375 16.890625 C 61.03125 16.617188 59.917969 16.566406 58.808594 16.597656 C 58.808594 16.597656 58.808594 16.597656 58.808594 16.59375 C 58.71875 14.921875 58.140625 13.308594 57.089844 11.792969 C 56.089844 10.355469 54.921875 8.957031 53.140625 8.464844 C 52.28125 8.226562 51.457031 8.425781 51.136719 8.945312 C 50.976562 9.207031 50.820312 9.773438 51.582031 10.605469 C 52.226562 11.308594 53.125 11.796875 53.996094 12.265625 C 54.472656 12.523438 54.921875 12.765625 55.332031 13.042969 C 56.660156 13.933594 57.867188 15.261719 58.578125 16.605469 C 57.902344 16.632812 57.230469 16.6875 56.5625 16.746094 C 55.890625 16.800781 55.199219 16.859375 54.53125 16.882812 C 54.457031 16.886719 54.386719 16.886719 54.3125 16.886719 C 54.308594 16.882812 54.304688 16.875 54.296875 16.871094 C 54.257812 16.851562 54.214844 16.863281 54.183594 16.890625 C 52.582031 16.941406 50.988281 16.9375 49.445312 16.867188 C 49.4375 16.863281 49.433594 16.863281 49.429688 16.863281 C 49.4375 16.847656 49.445312 16.832031 49.445312 16.8125 C 49.355469 15.140625 48.773438 13.523438 47.726562 12.011719 C 46.726562 10.574219 45.554688 9.171875 43.777344 8.683594 C 42.914062 8.445312 42.09375 8.644531 41.773438 9.164062 C 41.613281 9.425781 41.453125 9.992188 42.214844 10.824219 C 42.863281 11.527344 43.761719 12.011719 44.628906 12.480469 C 45.105469 12.738281 45.558594 12.984375 45.96875 13.261719 C 47.304688 14.15625 48.519531 15.5 49.230469 16.851562 C 46.292969 16.703125 43.390625 16.3125 40.574219 15.710938 C 40.453125 14.109375 39.890625 12.554688 38.878906 11.09375 C 37.878906 9.65625 36.707031 8.257812 34.929688 7.765625 C 34.070312 7.527344 33.246094 7.726562 32.925781 8.246094 C 32.765625 8.507812 32.609375 9.074219 33.371094 9.90625 C 34.015625 10.613281 34.914062 11.097656 35.785156 11.566406 C 36.261719 11.824219 36.710938 12.066406 37.121094 12.34375 C 38.359375 13.175781 39.472656 14.386719 40.199219 15.632812 C 39.957031 15.582031 39.714844 15.539062 39.476562 15.480469 C 37.980469 15.128906 36.375 14.707031 34.789062 14.027344 C 34.78125 13.996094 34.765625 13.96875 34.734375 13.953125 C 32.964844 13.183594 31.226562 11.847656 30.089844 10.386719 C 29.742188 9.9375 29.4375 9.445312 29.117188 8.929688 C 28.535156 7.980469 27.929688 7 27.027344 6.300781 C 26.183594 5.644531 25.355469 5.503906 24.757812 5.910156 C 24.179688 6.308594 23.957031 7.144531 24.210938 7.996094 C 24.785156 9.929688 26.582031 11.203125 28.441406 12.289062 C 30.363281 13.414062 32.4375 14.035156 34.601562 14.144531 C 34.609375 14.175781 34.628906 14.207031 34.664062 14.222656 C 35.132812 14.425781 35.601562 14.597656 36.074219 14.761719 C 35.15625 15.878906 33.78125 16.894531 32.375 17.476562 C 31.9375 17.660156 31.472656 17.800781 30.980469 17.953125 C 30.078125 18.226562 29.148438 18.511719 28.414062 19.046875 C 27.546875 19.679688 27.585938 20.238281 27.6875 20.515625 C 27.875 21.019531 28.511719 21.347656 29.277344 21.347656 C 29.339844 21.347656 29.402344 21.34375 29.46875 21.339844 C 31.222656 21.214844 32.578125 20.128906 33.78125 18.972656 C 35.042969 17.761719 35.882812 16.367188 36.285156 14.828125 C 37.355469 15.1875 38.414062 15.464844 39.425781 15.703125 C 39.734375 15.773438 40.050781 15.832031 40.359375 15.898438 C 40.371094 15.917969 40.382812 15.933594 40.394531 15.953125 C 40.414062 15.988281 40.449219 16.011719 40.488281 16.011719 C 40.5 16.011719 40.507812 16.007812 40.519531 16.007812 C 40.550781 15.996094 40.570312 15.972656 40.582031 15.945312 C 41.769531 16.199219 42.96875 16.421875 44.1875 16.59375 C 43.269531 17.699219 41.910156 18.699219 40.519531 19.277344 C 40.082031 19.457031 39.617188 19.601562 39.125 19.75 C 38.222656 20.027344 37.292969 20.3125 36.554688 20.847656 C 35.691406 21.480469 35.730469 22.039062 35.832031 22.316406 C 36.015625 22.820312 36.652344 23.148438 37.417969 23.148438 C 37.484375 23.148438 37.546875 23.144531 37.613281 23.140625 C 39.363281 23.015625 40.71875 21.929688 41.921875 20.773438 C 43.183594 19.5625 44.027344 18.167969 44.425781 16.628906 C 46.078125 16.855469 47.75 17.011719 49.433594 17.089844 C 50.910156 17.160156 52.433594 17.164062 53.964844 17.121094 C 53.050781 18.164062 51.765625 19.101562 50.4375 19.652344 C 50.003906 19.832031 49.535156 19.976562 49.042969 20.125 C 48.144531 20.402344 47.210938 20.6875 46.476562 21.222656 C 45.609375 21.855469 45.648438 22.414062 45.75 22.691406 C 45.933594 23.195312 46.574219 23.523438 47.339844 23.523438 C 47.402344 23.523438 47.464844 23.519531 47.53125 23.515625 C 49.285156 23.390625 50.640625 22.304688 51.84375 21.148438 C 53.074219 19.964844 53.898438 18.605469 54.308594 17.113281 C 54.386719 17.113281 54.460938 17.113281 54.539062 17.109375 C 55.214844 17.085938 55.910156 17.027344 56.582031 16.96875 C 58.402344 16.816406 60.28125 16.660156 62.054688 17.109375 C 63.324219 17.429688 64.558594 17.976562 65.5625 18.625 C 65.707031 18.726562 65.859375 18.828125 66.019531 18.925781 C 66.03125 18.933594 66.046875 18.941406 66.0625 18.953125 C 66.066406 18.953125 66.066406 18.957031 66.070312 18.957031 C 67.292969 19.699219 68.503906 20.089844 69.84375 20.492188 C 69.855469 20.496094 69.867188 20.5 69.875 20.5 C 69.878906 20.5 69.882812 20.5 69.886719 20.496094 C 71.503906 20.335938 73.027344 19.785156 74.542969 18.804688 C 74.816406 18.628906 75.101562 18.449219 75.3125 18.195312 C 75.40625 18.082031 75.476562 17.957031 75.539062 17.828125 C 76.648438 17.3125 77.730469 16.972656 78.757812 16.824219 C 79.21875 16.757812 79.710938 16.765625 80.1875 16.773438 C 80.347656 16.773438 80.503906 16.777344 80.660156 16.773438 C 81.492188 16.769531 82.328125 16.863281 83.148438 16.949219 C 83.808594 17.019531 84.492188 17.09375 85.167969 17.117188 C 85.578125 18.609375 86.402344 19.96875 87.632812 21.148438 C 88.835938 22.304688 90.191406 23.390625 91.941406 23.515625 C 92.007812 23.519531 92.070312 23.523438 92.136719 23.523438 C 92.902344 23.523438 93.539062 23.195312 93.722656 22.691406 C 93.824219 22.414062 93.863281 21.855469 93 21.222656 C 92.261719 20.6875 91.332031 20.402344 90.429688 20.125 C 89.9375 19.976562 89.472656 19.832031 89.035156 19.652344 C 87.710938 19.105469 86.425781 18.167969 85.515625 17.125 C 87.105469 17.167969 88.691406 17.160156 90.226562 17.082031 C 91.84375 17 93.453125 16.847656 95.046875 16.628906 C 95.445312 18.167969 96.289062 19.5625 97.550781 20.773438 C 98.753906 21.929688 100.109375 23.015625 101.863281 23.140625 C 101.925781 23.144531 101.992188 23.148438 102.054688 23.148438 C 102.820312 23.148438 103.457031 22.820312 103.644531 22.316406 C 103.742188 22.039062 103.785156 21.480469 102.917969 20.847656 C 102.179688 20.3125 101.25 20.027344 100.351562 19.75 C 99.855469 19.601562 99.390625 19.457031 98.953125 19.277344 C 97.5625 18.699219 96.203125 17.699219 95.289062 16.59375 C 96.503906 16.421875 97.703125 16.199219 98.890625 15.945312 C 98.902344 15.972656 98.921875 15.996094 98.957031 16.007812 C 98.964844 16.007812 98.972656 16.011719 98.984375 16.011719 C 99.023438 16.011719 99.0625 15.988281 99.082031 15.953125 C 99.089844 15.933594 99.101562 15.917969 99.113281 15.898438 C 99.425781 15.832031 99.738281 15.773438 100.046875 15.703125 C 101.058594 15.464844 102.117188 15.1875 103.191406 14.828125 C 103.589844 16.367188 104.429688 17.761719 105.691406 18.972656 C 106.894531 20.128906 108.25 21.214844 110.003906 21.339844 C 110.070312 21.34375 110.132812 21.347656 110.195312 21.347656 C 110.960938 21.347656 111.601562 21.019531 111.785156 20.515625 C 111.886719 20.238281 111.925781 19.679688 111.058594 19.046875 C 110.324219 18.511719 109.394531 18.226562 108.496094 17.953125 C 108 17.800781 107.535156 17.660156 107.097656 17.476562 C 105.691406 16.894531 104.316406 15.878906 103.402344 14.761719 C 103.871094 14.597656 104.339844 14.425781 104.8125 14.222656 C 104.847656 14.207031 104.863281 14.175781 104.871094 14.144531 C 107.035156 14.035156 109.109375 13.414062 111.035156 12.289062 C 112.890625 11.203125 114.6875 9.929688 115.261719 7.996094 C 115.515625 7.144531 115.296875 6.308594 114.714844 5.910156 " fill-opacity="1" fill-rule="nonzero"/></g></svg>