<svg xmlns="http://www.w3.org/2000/svg" xmlns:xlink="http://www.w3.org/1999/xlink" width="70" zoomAndPan="magnify" viewBox="0 0 52.5 52.499999" height="70" preserveAspectRatio="xMidYMid meet" version="1.0"><defs><clipPath id="8f903a78ae"><path d="M 4.429688 10.039062 L 47.515625 10.039062 L 47.515625 41.984375 L 4.429688 41.984375 Z M 4.429688 10.039062 " clip-rule="nonzero"/></clipPath></defs><path fill="#cc142a" d="M 10.542969 25.527344 L 9.699219 24.070312 L 8.851562 25.527344 L 9.699219 26.941406 Z M 10.542969 25.527344 " fill-opacity="1" fill-rule="nonzero"/><path fill="#cc142a" d="M 20.144531 22.046875 L 19.34375 20.585938 L 18.496094 22.046875 L 19.34375 23.457031 Z M 20.144531 22.046875 " fill-opacity="1" fill-rule="nonzero"/><path fill="#cc142a" d="M 43.152344 25.527344 L 42.304688 24.070312 L 41.457031 25.527344 L 42.304688 26.941406 Z M 43.152344 25.527344 " fill-opacity="1" fill-rule="nonzero"/><path fill="#cc142a" d="M 33.507812 22.046875 L 32.660156 20.585938 L 31.859375 22.046875 L 32.660156 23.457031 Z M 33.507812 22.046875 " fill-opacity="1" fill-rule="nonzero"/><g clip-path="url(#8f903a78ae)"><path fill="#cc142a" d="M 41.082031 31.550781 L 38.023438 21.433594 L 32.234375 29.011719 L 26.777344 18.1875 L 28.425781 14.894531 L 26.023438 10.09375 L 23.578125 14.894531 L 25.226562 18.1875 L 19.765625 28.960938 L 14.074219 21.433594 L 11.015625 31.597656 L 4.429688 24.023438 L 8.945312 38.328125 L 8.992188 38.421875 L 8.992188 41.902344 L 43.011719 41.902344 L 43.011719 38.421875 L 43.105469 38.183594 L 47.574219 24.023438 Z M 41.410156 37.621094 L 37.695312 37.621094 L 40.46875 34.421875 Z M 37.460938 24.492188 L 40 32.820312 L 36.328125 37.054688 L 32.988281 30.421875 Z M 35.011719 37.621094 L 27.484375 37.621094 L 32 31.691406 Z M 25.132812 14.894531 L 25.976562 13.246094 L 26.824219 14.894531 L 25.976562 16.585938 Z M 26.023438 19.742188 L 31.296875 30.234375 L 26.023438 37.195312 L 20.753906 30.1875 Z M 11.578125 34.46875 L 14.308594 37.621094 L 10.640625 37.621094 Z M 24.566406 37.621094 L 16.992188 37.621094 L 20.003906 31.597656 Z M 14.636719 24.492188 L 19.0625 30.328125 L 15.71875 37.054688 L 12.097656 32.867188 Z M 7.816406 30.140625 L 10.496094 33.199219 L 9.652344 35.925781 Z M 41.601562 40.492188 L 10.402344 40.492188 L 10.402344 39.03125 L 41.601562 39.03125 Z M 42.351562 35.832031 L 41.550781 33.152344 L 44.1875 30.140625 Z M 42.351562 35.832031 " fill-opacity="1" fill-rule="nonzero"/></g></svg>