<svg xmlns="http://www.w3.org/2000/svg" xmlns:xlink="http://www.w3.org/1999/xlink" width="70" zoomAndPan="magnify" viewBox="0 0 52.5 52.499999" height="70" preserveAspectRatio="xMidYMid meet" version="1.0"><defs><clipPath id="0c8acb808d"><path d="M 1.550781 38 L 50.449219 38 L 50.449219 42.546875 L 1.550781 42.546875 Z M 1.550781 38 " clip-rule="nonzero"/></clipPath><clipPath id="0d337f5acd"><path d="M 22 9.117188 L 30 9.117188 L 30 16 L 22 16 Z M 22 9.117188 " clip-rule="nonzero"/></clipPath></defs><g clip-path="url(#0c8acb808d)"><path fill="#cc142a" d="M 48.5 41.925781 L 3.492188 41.925781 C 2.949219 41.925781 2.507812 41.484375 2.507812 40.941406 L 2.507812 39.960938 C 2.507812 39.417969 2.949219 38.976562 3.492188 38.976562 C 3.515625 38.976562 3.535156 38.976562 3.554688 38.972656 C 3.597656 38.976562 3.675781 38.972656 3.722656 38.972656 C 3.738281 38.972656 3.757812 38.972656 3.773438 38.972656 L 48.449219 38.972656 C 48.464844 38.976562 48.484375 38.976562 48.5 38.976562 C 49.042969 38.976562 49.484375 39.417969 49.484375 39.960938 L 49.484375 40.941406 C 49.484375 40.957031 49.488281 40.96875 49.488281 40.984375 C 49.464844 41.507812 49.03125 41.925781 48.5 41.925781 Z M 50.445312 40.890625 L 50.445312 39.960938 C 50.445312 38.910156 49.605469 38.050781 48.5625 38.019531 C 48.542969 38.015625 48.519531 38.015625 48.5 38.015625 L 3.773438 38.015625 C 3.761719 38.015625 3.746094 38.015625 3.730469 38.015625 C 3.644531 38.011719 3.566406 38.011719 3.492188 38.019531 C 2.421875 38.019531 1.550781 38.890625 1.550781 39.960938 L 1.550781 40.941406 C 1.550781 42.011719 2.421875 42.882812 3.492188 42.882812 L 48.5 42.882812 C 49.574219 42.882812 50.449219 42.011719 50.449219 40.941406 C 50.449219 40.921875 50.445312 40.90625 50.445312 40.890625 " fill-opacity="1" fill-rule="nonzero"/></g><path fill="#cc142a" d="M 30.523438 27.082031 L 26 31.917969 L 21.46875 27.082031 C 21.082031 26.667969 20.867188 26.109375 20.867188 25.507812 C 20.867188 24.304688 21.753906 23.324219 22.839844 23.324219 C 23.695312 23.324219 24.214844 23.902344 24.816406 24.566406 L 25.09375 24.871094 C 25.300781 25.140625 25.609375 25.300781 25.941406 25.316406 C 26.285156 25.328125 26.597656 25.203125 26.828125 24.960938 C 26.828125 24.960938 26.828125 24.957031 26.828125 24.957031 L 27.582031 24.148438 C 27.796875 23.917969 27.8125 23.894531 27.878906 23.835938 C 28.234375 23.503906 28.683594 23.324219 29.152344 23.324219 C 29.925781 23.324219 30.589844 23.785156 30.925781 24.554688 C 31.300781 25.425781 31.144531 26.417969 30.523438 27.082031 Z M 29.152344 22.363281 C 28.441406 22.363281 27.757812 22.640625 27.226562 23.132812 C 27.152344 23.203125 27.128906 23.226562 26.878906 23.496094 L 26.128906 24.304688 C 26.078125 24.355469 26.015625 24.359375 25.988281 24.359375 C 25.957031 24.359375 25.898438 24.347656 25.824219 24.253906 L 25.527344 23.925781 C 24.871094 23.195312 24.125 22.363281 22.839844 22.363281 C 21.226562 22.363281 19.910156 23.773438 19.910156 25.507812 C 19.910156 26.355469 20.214844 27.144531 20.769531 27.738281 L 25.648438 32.945312 C 25.738281 33.042969 25.867188 33.097656 26 33.097656 C 26.132812 33.097656 26.257812 33.042969 26.347656 32.945312 L 31.226562 27.738281 C 32.105469 26.792969 32.332031 25.394531 31.804688 24.171875 C 31.320312 23.058594 30.304688 22.363281 29.152344 22.363281 " fill-opacity="1" fill-rule="nonzero"/><g clip-path="url(#0d337f5acd)"><path fill="#cc142a" d="M 25.996094 10.074219 C 27.226562 10.074219 28.230469 11.074219 28.230469 12.308594 C 28.230469 13.539062 27.226562 14.539062 25.996094 14.539062 C 24.765625 14.539062 23.761719 13.539062 23.761719 12.308594 C 23.761719 11.074219 24.765625 10.074219 25.996094 10.074219 Z M 25.996094 15.5 C 27.757812 15.496094 29.1875 14.066406 29.1875 12.308594 C 29.1875 10.546875 27.757812 9.117188 25.996094 9.117188 C 24.238281 9.117188 22.804688 10.546875 22.804688 12.308594 C 22.804688 14.066406 24.238281 15.5 25.996094 15.5 " fill-opacity="1" fill-rule="nonzero"/></g><path fill="#cc142a" d="M 11.128906 22.96875 C 19.328125 14.773438 32.667969 14.773438 40.867188 22.96875 C 44.554688 26.660156 46.71875 31.519531 46.996094 36.707031 L 5 36.707031 C 5.273438 31.519531 7.441406 26.660156 11.128906 22.96875 Z M 4.5 37.664062 L 47.496094 37.664062 C 47.625 37.664062 47.75 37.613281 47.839844 37.519531 C 47.929688 37.425781 47.976562 37.300781 47.972656 37.171875 C 47.804688 31.554688 45.523438 26.269531 41.542969 22.292969 C 32.972656 13.71875 19.023438 13.71875 10.449219 22.292969 C 6.472656 26.269531 4.1875 31.554688 4.019531 37.171875 C 4.015625 37.300781 4.066406 37.425781 4.15625 37.519531 C 4.246094 37.613281 4.371094 37.664062 4.5 37.664062 " fill-opacity="1" fill-rule="nonzero"/><path fill="#cc142a" d="M 31.476562 27.972656 C 30.925781 28.5625 30.34375 29.207031 29.75 29.867188 C 28.539062 31.214844 27.28125 32.613281 26.117188 33.703125 C 26.046875 33.769531 25.933594 33.765625 25.867188 33.691406 L 20.515625 27.972656 C 19.894531 27.308594 19.554688 26.433594 19.554688 25.503906 C 19.554688 23.578125 21.027344 22.007812 22.839844 22.007812 C 23.636719 22.007812 24.40625 22.316406 25.003906 22.878906 C 25.105469 22.972656 25.160156 23.035156 25.320312 23.203125 L 25.648438 23.554688 C 25.738281 23.648438 25.863281 23.703125 25.996094 23.703125 C 26.128906 23.703125 26.253906 23.652344 26.34375 23.554688 L 26.671875 23.203125 C 26.832031 23.03125 26.890625 22.972656 26.988281 22.878906 C 27.585938 22.316406 28.359375 22.007812 29.152344 22.007812 C 30.964844 22.007812 32.441406 23.578125 32.441406 25.503906 C 32.441406 26.433594 32.097656 27.3125 31.476562 27.972656 Z M 29.152344 21.050781 C 28.113281 21.050781 27.113281 21.449219 26.332031 22.179688 C 26.226562 22.28125 26.160156 22.347656 25.996094 22.523438 C 25.835938 22.347656 25.769531 22.28125 25.660156 22.179688 C 24.882812 21.449219 23.882812 21.050781 22.839844 21.050781 C 20.5 21.050781 18.59375 23.050781 18.59375 25.503906 C 18.59375 26.679688 19.027344 27.785156 19.816406 28.628906 L 25.167969 34.347656 C 25.390625 34.585938 25.695312 34.707031 25.996094 34.707031 C 26.273438 34.707031 26.554688 34.605469 26.773438 34.402344 C 27.964844 33.285156 29.234375 31.871094 30.464844 30.507812 C 31.054688 29.855469 31.628906 29.210938 32.179688 28.628906 C 32.964844 27.785156 33.398438 26.679688 33.398438 25.503906 C 33.398438 23.050781 31.496094 21.050781 29.152344 21.050781 " fill-opacity="1" fill-rule="nonzero"/></svg>