<svg xmlns="http://www.w3.org/2000/svg" xmlns:xlink="http://www.w3.org/1999/xlink" width="70" zoomAndPan="magnify" viewBox="0 0 52.5 52.499999" height="70" preserveAspectRatio="xMidYMid meet" version="1.0"><defs><clipPath id="6dc1bda209"><path d="M 5.199219 5.199219 L 46.804688 5.199219 L 46.804688 46.804688 L 5.199219 46.804688 Z M 5.199219 5.199219 " clip-rule="nonzero"/></clipPath><clipPath id="657cdc7462"><path d="M 46.804688 26.003906 C 46.804688 37.492188 37.492188 46.804688 26.003906 46.804688 C 14.515625 46.804688 5.199219 37.492188 5.199219 26.003906 C 5.199219 14.511719 14.515625 5.199219 26.003906 5.199219 C 37.492188 5.199219 46.804688 14.511719 46.804688 26.003906 Z M 46.804688 26.003906 " clip-rule="nonzero"/></clipPath><clipPath id="dcf55bf549"><path d="M 46.804688 26.003906 C 46.804688 37.492188 37.492188 46.804688 26.003906 46.804688 C 14.515625 46.804688 5.199219 37.492188 5.199219 26.003906 C 5.199219 14.511719 14.515625 5.199219 26.003906 5.199219 C 37.492188 5.199219 46.804688 14.511719 46.804688 26.003906 " clip-rule="nonzero"/></clipPath><clipPath id="ebeafeb2c5"><path d="M -15.601562 26.003906 L 26.003906 67.605469 L 67.605469 26.003906 L 26.003906 -15.601562 Z M -15.601562 26.003906 " clip-rule="nonzero"/></clipPath><linearGradient x1="-0.20711" gradientTransform="matrix(29.418026, -29.418026, 29.418026, 29.418026, 11.293137, 40.711375)" y1="0" x2="1.207117" gradientUnits="userSpaceOnUse" y2="0" id="2fa11e0d6e"><stop stop-opacity="1" stop-color="rgb(70.599365%, 42.698669%, 44.699097%)" offset="0"/><stop stop-opacity="1" stop-color="rgb(70.599365%, 42.698669%, 44.699097%)" offset="0.125"/><stop stop-opacity="1" stop-color="rgb(70.599365%, 42.698669%, 44.699097%)" offset="0.140625"/><stop stop-opacity="1" stop-color="rgb(70.799255%, 42.698669%, 44.699097%)" offset="0.144531"/><stop stop-opacity="1" stop-color="rgb(70.999146%, 42.698669%, 44.699097%)" offset="0.148438"/><stop stop-opacity="1" stop-color="rgb(71.398926%, 43.09845%, 45.098877%)" offset="0.152344"/><stop stop-opacity="1" stop-color="rgb(71.798706%, 43.499756%, 45.500183%)" offset="0.15625"/><stop stop-opacity="1" stop-color="rgb(72.148132%, 44.099426%, 46.099854%)" offset="0.160156"/><stop stop-opacity="1" stop-color="rgb(72.499084%, 44.700623%, 46.699524%)" offset="0.164063"/><stop stop-opacity="1" stop-color="rgb(72.898865%, 45.298767%, 47.24884%)" offset="0.167969"/><stop stop-opacity="1" stop-color="rgb(73.298645%, 45.898438%, 47.798157%)" offset="0.171875"/><stop stop-opacity="1" stop-color="rgb(73.698425%, 46.498108%, 48.197937%)" offset="0.175781"/><stop stop-opacity="1" stop-color="rgb(74.099731%, 47.099304%, 48.599243%)" offset="0.179688"/><stop stop-opacity="1" stop-color="rgb(74.699402%, 47.648621%, 49.198914%)" offset="0.183594"/><stop stop-opacity="1" stop-color="rgb(75.299072%, 48.199463%, 49.80011%)" offset="0.1875"/><stop stop-opacity="1" stop-color="rgb(75.498962%, 48.799133%, 50.19989%)" offset="0.191406"/><stop stop-opacity="1" stop-color="rgb(75.700378%, 49.40033%, 50.59967%)" offset="0.195312"/><stop stop-opacity="1" stop-color="rgb(76.300049%, 50%, 51.199341%)" offset="0.199219"/><stop stop-opacity="1" stop-color="rgb(76.899719%, 50.601196%, 51.800537%)" offset="0.203125"/><stop stop-opacity="1" stop-color="rgb(77.249146%, 51.199341%, 52.149963%)" offset="0.207031"/><stop stop-opacity="1" stop-color="rgb(77.598572%, 51.799011%, 52.49939%)" offset="0.210938"/><stop stop-opacity="1" stop-color="rgb(78.198242%, 52.549744%, 53.29895%)" offset="0.214844"/><stop stop-opacity="1" stop-color="rgb(78.799438%, 53.300476%, 54.100037%)" offset="0.21875"/><stop stop-opacity="1" stop-color="rgb(79.199219%, 53.900146%, 54.699707%)" offset="0.222656"/><stop stop-opacity="1" stop-color="rgb(79.600525%, 54.499817%, 55.299377%)" offset="0.226562"/><stop stop-opacity="1" stop-color="rgb(80.198669%, 55.299377%, 55.899048%)" offset="0.230469"/><stop stop-opacity="1" stop-color="rgb(80.79834%, 56.098938%, 56.498718%)" offset="0.234375"/><stop stop-opacity="1" stop-color="rgb(81.39801%, 56.848145%, 57.048035%)" offset="0.238281"/><stop stop-opacity="1" stop-color="rgb(81.999207%, 57.598877%, 57.598877%)" offset="0.242188"/><stop stop-opacity="1" stop-color="rgb(82.548523%, 58.398438%, 58.198547%)" offset="0.246094"/><stop stop-opacity="1" stop-color="rgb(83.099365%, 59.199524%, 58.799744%)" offset="0.25"/><stop stop-opacity="1" stop-color="rgb(83.699036%, 59.799194%, 59.599304%)" offset="0.253906"/><stop stop-opacity="1" stop-color="rgb(84.300232%, 60.400391%, 60.400391%)" offset="0.257812"/><stop stop-opacity="1" stop-color="rgb(84.899902%, 61.000061%, 60.800171%)" offset="0.261719"/><stop stop-opacity="1" stop-color="rgb(85.499573%, 61.601257%, 61.201477%)" offset="0.265625"/><stop stop-opacity="1" stop-color="rgb(86.099243%, 62.150574%, 61.950684%)" offset="0.269531"/><stop stop-opacity="1" stop-color="rgb(86.698914%, 62.69989%, 62.69989%)" offset="0.273438"/><stop stop-opacity="1" stop-color="rgb(87.098694%, 63.499451%, 63.299561%)" offset="0.277344"/><stop stop-opacity="1" stop-color="rgb(87.5%, 64.300537%, 63.899231%)" offset="0.28125"/><stop stop-opacity="1" stop-color="rgb(88.049316%, 65.100098%, 64.698792%)" offset="0.285156"/><stop stop-opacity="1" stop-color="rgb(88.600159%, 65.901184%, 65.499878%)" offset="0.289062"/><stop stop-opacity="1" stop-color="rgb(89.199829%, 66.699219%, 66.299438%)" offset="0.292969"/><stop stop-opacity="1" stop-color="rgb(89.7995%, 67.498779%, 67.098999%)" offset="0.296875"/><stop stop-opacity="1" stop-color="rgb(90.39917%, 68.048096%, 67.448425%)" offset="0.300781"/><stop stop-opacity="1" stop-color="rgb(90.99884%, 68.598938%, 67.799377%)" offset="0.304688"/><stop stop-opacity="1" stop-color="rgb(91.398621%, 69.398499%, 68.598938%)" offset="0.308594"/><stop stop-opacity="1" stop-color="rgb(91.799927%, 70.199585%, 69.400024%)" offset="0.3125"/><stop stop-opacity="1" stop-color="rgb(92.349243%, 70.799255%, 69.999695%)" offset="0.316406"/><stop stop-opacity="1" stop-color="rgb(92.900085%, 71.400452%, 70.600891%)" offset="0.320312"/><stop stop-opacity="1" stop-color="rgb(93.499756%, 72.149658%, 71.549988%)" offset="0.324219"/><stop stop-opacity="1" stop-color="rgb(94.100952%, 72.900391%, 72.50061%)" offset="0.328125"/><stop stop-opacity="1" stop-color="rgb(94.699097%, 73.899841%, 73.300171%)" offset="0.332031"/><stop stop-opacity="1" stop-color="rgb(95.298767%, 74.899292%, 74.099731%)" offset="0.335938"/><stop stop-opacity="1" stop-color="rgb(95.698547%, 75.498962%, 74.699402%)" offset="0.339844"/><stop stop-opacity="1" stop-color="rgb(96.099854%, 76.098633%, 75.299072%)" offset="0.34375"/><stop stop-opacity="1" stop-color="rgb(96.298218%, 76.098633%, 75.299072%)" offset="0.347656"/><stop stop-opacity="1" stop-color="rgb(96.498108%, 76.098633%, 75.299072%)" offset="0.351562"/><stop stop-opacity="1" stop-color="rgb(96.098328%, 75.898743%, 74.899292%)" offset="0.355469"/><stop stop-opacity="1" stop-color="rgb(95.698547%, 75.698853%, 74.499512%)" offset="0.359375"/><stop stop-opacity="1" stop-color="rgb(95.298767%, 75.099182%, 74.098206%)" offset="0.363281"/><stop stop-opacity="1" stop-color="rgb(94.898987%, 74.499512%, 73.698425%)" offset="0.367188"/><stop stop-opacity="1" stop-color="rgb(94.699097%, 74.098206%, 73.298645%)" offset="0.371094"/><stop stop-opacity="1" stop-color="rgb(94.499207%, 73.698425%, 72.898865%)" offset="0.375"/><stop stop-opacity="1" stop-color="rgb(94.0979%, 73.298645%, 72.547913%)" offset="0.378906"/><stop stop-opacity="1" stop-color="rgb(93.69812%, 72.898865%, 72.198486%)" offset="0.382812"/><stop stop-opacity="1" stop-color="rgb(93.29834%, 72.547913%, 71.59729%)" offset="0.386719"/><stop stop-opacity="1" stop-color="rgb(92.89856%, 72.198486%, 70.99762%)" offset="0.390625"/><stop stop-opacity="1" stop-color="rgb(92.549133%, 71.598816%, 70.597839%)" offset="0.394531"/><stop stop-opacity="1" stop-color="rgb(92.199707%, 70.999146%, 70.199585%)" offset="0.398438"/><stop stop-opacity="1" stop-color="rgb(91.798401%, 70.597839%, 69.798279%)" offset="0.402344"/><stop stop-opacity="1" stop-color="rgb(91.398621%, 70.198059%, 69.398499%)" offset="0.40625"/><stop stop-opacity="1" stop-color="rgb(91.19873%, 69.998169%, 68.998718%)" offset="0.410156"/><stop stop-opacity="1" stop-color="rgb(90.99884%, 69.798279%, 68.598938%)" offset="0.414062"/><stop stop-opacity="1" stop-color="rgb(90.59906%, 69.398499%, 68.199158%)" offset="0.417969"/><stop stop-opacity="1" stop-color="rgb(90.19928%, 68.998718%, 67.799377%)" offset="0.421875"/><stop stop-opacity="1" stop-color="rgb(89.7995%, 68.399048%, 67.448425%)" offset="0.425781"/><stop stop-opacity="1" stop-color="rgb(89.399719%, 67.799377%, 67.098999%)" offset="0.429688"/><stop stop-opacity="1" stop-color="rgb(88.998413%, 67.648315%, 66.699219%)" offset="0.433594"/><stop stop-opacity="1" stop-color="rgb(88.598633%, 67.498779%, 66.299438%)" offset="0.4375"/><stop stop-opacity="1" stop-color="rgb(88.198853%, 66.897583%, 65.698242%)" offset="0.441406"/><stop stop-opacity="1" stop-color="rgb(87.799072%, 66.297913%, 65.098572%)" offset="0.445312"/><stop stop-opacity="1" stop-color="rgb(87.44812%, 65.898132%, 64.697266%)" offset="0.449219"/><stop stop-opacity="1" stop-color="rgb(87.098694%, 65.498352%, 64.297485%)" offset="0.453125"/><stop stop-opacity="1" stop-color="rgb(86.898804%, 65.098572%, 63.897705%)" offset="0.457031"/><stop stop-opacity="1" stop-color="rgb(86.698914%, 64.698792%, 63.499451%)" offset="0.460938"/><stop stop-opacity="1" stop-color="rgb(86.299133%, 64.299011%, 63.098145%)" offset="0.464844"/><stop stop-opacity="1" stop-color="rgb(85.899353%, 63.899231%, 62.698364%)" offset="0.46875"/><stop stop-opacity="1" stop-color="rgb(85.498047%, 63.497925%, 62.347412%)" offset="0.472656"/><stop stop-opacity="1" stop-color="rgb(85.098267%, 63.098145%, 61.997986%)" offset="0.476562"/><stop stop-opacity="1" stop-color="rgb(84.698486%, 62.548828%, 61.598206%)" offset="0.480469"/><stop stop-opacity="1" stop-color="rgb(84.298706%, 61.999512%, 61.198425%)" offset="0.484375"/><stop stop-opacity="1" stop-color="rgb(83.898926%, 61.798096%, 60.998535%)" offset="0.488281"/><stop stop-opacity="1" stop-color="rgb(83.499146%, 61.598206%, 60.798645%)" offset="0.492188"/><stop stop-opacity="1" stop-color="rgb(83.097839%, 61.198425%, 60.398865%)" offset="0.496094"/><stop stop-opacity="1" stop-color="rgb(82.698059%, 60.798645%, 59.999084%)" offset="0.5"/><stop stop-opacity="1" stop-color="rgb(82.546997%, 60.397339%, 59.597778%)" offset="0.503906"/><stop stop-opacity="1" stop-color="rgb(82.397461%, 59.997559%, 59.197998%)" offset="0.507812"/><stop stop-opacity="1" stop-color="rgb(81.797791%, 59.397888%, 58.598328%)" offset="0.511719"/><stop stop-opacity="1" stop-color="rgb(81.19812%, 58.798218%, 57.998657%)" offset="0.515625"/><stop stop-opacity="1" stop-color="rgb(80.79834%, 58.398438%, 57.798767%)" offset="0.519531"/><stop stop-opacity="1" stop-color="rgb(80.39856%, 57.998657%, 57.598877%)" offset="0.523438"/><stop stop-opacity="1" stop-color="rgb(79.998779%, 57.447815%, 57.048035%)" offset="0.527344"/><stop stop-opacity="1" stop-color="rgb(79.598999%, 56.898499%, 56.498718%)" offset="0.53125"/><stop stop-opacity="1" stop-color="rgb(79.197693%, 56.498718%, 56.097412%)" offset="0.535156"/><stop stop-opacity="1" stop-color="rgb(78.797913%, 56.098938%, 55.697632%)" offset="0.539063"/><stop stop-opacity="1" stop-color="rgb(78.398132%, 55.699158%, 55.297852%)" offset="0.542969"/><stop stop-opacity="1" stop-color="rgb(77.998352%, 55.299377%, 54.899597%)" offset="0.546875"/><stop stop-opacity="1" stop-color="rgb(77.648926%, 54.698181%, 54.498291%)" offset="0.550781"/><stop stop-opacity="1" stop-color="rgb(77.2995%, 54.098511%, 54.098511%)" offset="0.554688"/><stop stop-opacity="1" stop-color="rgb(76.898193%, 53.69873%, 53.69873%)" offset="0.558594"/><stop stop-opacity="1" stop-color="rgb(76.498413%, 53.29895%, 53.29895%)" offset="0.5625"/><stop stop-opacity="1" stop-color="rgb(76.098633%, 53.097534%, 52.897644%)" offset="0.566406"/><stop stop-opacity="1" stop-color="rgb(75.698853%, 52.897644%, 52.497864%)" offset="0.570313"/><stop stop-opacity="1" stop-color="rgb(75.299072%, 52.346802%, 52.146912%)" offset="0.574219"/><stop stop-opacity="1" stop-color="rgb(74.899292%, 51.797485%, 51.797485%)" offset="0.578125"/><stop stop-opacity="1" stop-color="rgb(74.699402%, 51.397705%, 51.397705%)" offset="0.582031"/><stop stop-opacity="1" stop-color="rgb(74.499512%, 50.999451%, 50.999451%)" offset="0.585938"/><stop stop-opacity="1" stop-color="rgb(74.098206%, 50.798035%, 50.598145%)" offset="0.589844"/><stop stop-opacity="1" stop-color="rgb(73.698425%, 50.598145%, 50.198364%)" offset="0.59375"/><stop stop-opacity="1" stop-color="rgb(73.298645%, 49.998474%, 49.798584%)" offset="0.597656"/><stop stop-opacity="1" stop-color="rgb(72.898865%, 49.398804%, 49.398804%)" offset="0.601563"/><stop stop-opacity="1" stop-color="rgb(72.547913%, 48.999023%, 49.198914%)" offset="0.605469"/><stop stop-opacity="1" stop-color="rgb(72.198486%, 48.599243%, 48.999023%)" offset="0.609375"/><stop stop-opacity="1" stop-color="rgb(71.798706%, 48.197937%, 48.599243%)" offset="0.613281"/><stop stop-opacity="1" stop-color="rgb(71.398926%, 47.798157%, 48.199463%)" offset="0.617188"/><stop stop-opacity="1" stop-color="rgb(71.199036%, 47.447205%, 47.848511%)" offset="0.621094"/><stop stop-opacity="1" stop-color="rgb(70.999146%, 47.097778%, 47.499084%)" offset="0.625"/><stop stop-opacity="1" stop-color="rgb(70.597839%, 46.697998%, 47.097778%)" offset="0.628906"/><stop stop-opacity="1" stop-color="rgb(70.198059%, 46.298218%, 46.697998%)" offset="0.632812"/><stop stop-opacity="1" stop-color="rgb(69.798279%, 45.697021%, 46.298218%)" offset="0.636719"/><stop stop-opacity="1" stop-color="rgb(69.398499%, 45.097351%, 45.898438%)" offset="0.640625"/><stop stop-opacity="1" stop-color="rgb(69.198608%, 44.697571%, 45.498657%)" offset="0.644531"/><stop stop-opacity="1" stop-color="rgb(68.998718%, 44.299316%, 45.098877%)" offset="0.648438"/><stop stop-opacity="1" stop-color="rgb(68.399048%, 43.89801%, 44.697571%)" offset="0.652344"/><stop stop-opacity="1" stop-color="rgb(67.799377%, 43.49823%, 44.297791%)" offset="0.65625"/><stop stop-opacity="1" stop-color="rgb(67.448425%, 43.09845%, 43.89801%)" offset="0.660156"/><stop stop-opacity="1" stop-color="rgb(67.097473%, 42.698669%, 43.49823%)" offset="0.664062"/><stop stop-opacity="1" stop-color="rgb(66.697693%, 42.347717%, 43.09845%)" offset="0.667969"/><stop stop-opacity="1" stop-color="rgb(66.299438%, 41.998291%, 42.698669%)" offset="0.671875"/><stop stop-opacity="1" stop-color="rgb(66.098022%, 41.598511%, 42.347717%)" offset="0.675781"/><stop stop-opacity="1" stop-color="rgb(65.898132%, 41.19873%, 41.998291%)" offset="0.679688"/><stop stop-opacity="1" stop-color="rgb(65.498352%, 40.597534%, 41.398621%)" offset="0.683594"/><stop stop-opacity="1" stop-color="rgb(65.098572%, 39.997864%, 40.79895%)" offset="0.6875"/><stop stop-opacity="1" stop-color="rgb(64.697266%, 39.598083%, 40.397644%)" offset="0.691406"/><stop stop-opacity="1" stop-color="rgb(64.297485%, 39.198303%, 39.997864%)" offset="0.695312"/><stop stop-opacity="1" stop-color="rgb(63.897705%, 38.796997%, 39.598083%)" offset="0.699219"/><stop stop-opacity="1" stop-color="rgb(63.497925%, 38.397217%, 39.199829%)" offset="0.703125"/><stop stop-opacity="1" stop-color="rgb(63.098145%, 37.8479%, 38.998413%)" offset="0.707031"/><stop stop-opacity="1" stop-color="rgb(62.698364%, 37.298584%, 38.798523%)" offset="0.710938"/><stop stop-opacity="1" stop-color="rgb(62.547302%, 36.898804%, 38.198853%)" offset="0.714844"/><stop stop-opacity="1" stop-color="rgb(62.397766%, 36.499023%, 37.599182%)" offset="0.71875"/><stop stop-opacity="1" stop-color="rgb(61.997986%, 36.097717%, 37.24823%)" offset="0.722656"/><stop stop-opacity="1" stop-color="rgb(61.598206%, 35.697937%, 36.898804%)" offset="0.726562"/><stop stop-opacity="1" stop-color="rgb(61.198425%, 35.298157%, 36.499023%)" offset="0.730469"/><stop stop-opacity="1" stop-color="rgb(60.798645%, 34.898376%, 36.099243%)" offset="0.734375"/><stop stop-opacity="1" stop-color="rgb(60.398865%, 34.498596%, 35.697937%)" offset="0.738281"/><stop stop-opacity="1" stop-color="rgb(59.999084%, 34.098816%, 35.298157%)" offset="0.742188"/><stop stop-opacity="1" stop-color="rgb(59.597778%, 33.69751%, 34.898376%)" offset="0.746094"/><stop stop-opacity="1" stop-color="rgb(59.197998%, 33.297729%, 34.498596%)" offset="0.75"/><stop stop-opacity="1" stop-color="rgb(58.798218%, 32.748413%, 34.09729%)" offset="0.753906"/><stop stop-opacity="1" stop-color="rgb(58.398438%, 32.199097%, 33.69751%)" offset="0.757812"/><stop stop-opacity="1" stop-color="rgb(57.847595%, 31.997681%, 33.297729%)" offset="0.761719"/><stop stop-opacity="1" stop-color="rgb(57.298279%, 31.796265%, 32.897949%)" offset="0.765625"/><stop stop-opacity="1" stop-color="rgb(56.898499%, 31.196594%, 32.548523%)" offset="0.769531"/><stop stop-opacity="1" stop-color="rgb(56.498718%, 30.59845%, 32.199097%)" offset="0.773438"/><stop stop-opacity="1" stop-color="rgb(56.097412%, 30.198669%, 31.797791%)" offset="0.777344"/><stop stop-opacity="1" stop-color="rgb(55.697632%, 29.798889%, 31.39801%)" offset="0.78125"/><stop stop-opacity="1" stop-color="rgb(55.297852%, 29.397583%, 30.99823%)" offset="0.785156"/><stop stop-opacity="1" stop-color="rgb(54.899597%, 28.997803%, 30.59845%)" offset="0.789062"/><stop stop-opacity="1" stop-color="rgb(54.698181%, 28.797913%, 30.198669%)" offset="0.792969"/><stop stop-opacity="1" stop-color="rgb(54.498291%, 28.598022%, 29.798889%)" offset="0.796875"/><stop stop-opacity="1" stop-color="rgb(54.098511%, 28.04718%, 29.397583%)" offset="0.800781"/><stop stop-opacity="1" stop-color="rgb(53.69873%, 27.497864%, 28.997803%)" offset="0.804688"/><stop stop-opacity="1" stop-color="rgb(53.297424%, 27.098083%, 28.598022%)" offset="0.808594"/><stop stop-opacity="1" stop-color="rgb(52.897644%, 26.698303%, 28.198242%)" offset="0.8125"/><stop stop-opacity="1" stop-color="rgb(52.697754%, 26.296997%, 27.84729%)" offset="0.816406"/><stop stop-opacity="1" stop-color="rgb(52.497864%, 25.897217%, 27.497864%)" offset="0.820312"/><stop stop-opacity="1" stop-color="rgb(52.146912%, 25.497437%, 27.098083%)" offset="0.824219"/><stop stop-opacity="1" stop-color="rgb(51.797485%, 25.099182%, 26.698303%)" offset="0.828125"/><stop stop-opacity="1" stop-color="rgb(51.397705%, 24.897766%, 26.498413%)" offset="0.832031"/><stop stop-opacity="1" stop-color="rgb(50.997925%, 24.697876%, 26.298523%)" offset="0.835938"/><stop stop-opacity="1" stop-color="rgb(50.598145%, 24.298096%, 25.897217%)" offset="0.839844"/><stop stop-opacity="1" stop-color="rgb(50.198364%, 23.898315%, 25.497437%)" offset="0.84375"/><stop stop-opacity="1" stop-color="rgb(49.798584%, 23.498535%, 25.097656%)" offset="0.847656"/><stop stop-opacity="1" stop-color="rgb(49.398804%, 23.098755%, 24.697876%)" offset="0.851562"/><stop stop-opacity="1" stop-color="rgb(49.398804%, 22.898865%, 24.497986%)" offset="0.855469"/><stop stop-opacity="1" stop-color="rgb(49.398804%, 22.698975%, 24.299622%)" offset="0.859375"/><stop stop-opacity="1" stop-color="rgb(49.398804%, 22.698975%, 24.299622%)" offset="0.875"/><stop stop-opacity="1" stop-color="rgb(49.398804%, 22.698975%, 24.299622%)" offset="1"/></linearGradient><clipPath id="a9e8522f3f"><path d="M 10.710938 29.777344 L 41.152344 29.777344 L 41.152344 32.539062 L 10.710938 32.539062 Z M 10.710938 29.777344 " clip-rule="nonzero"/></clipPath><clipPath id="d3628e07f3"><path d="M 24 11.738281 L 28 11.738281 L 28 16 L 24 16 Z M 24 11.738281 " clip-rule="nonzero"/></clipPath></defs><g clip-path="url(#6dc1bda209)"><g clip-path="url(#657cdc7462)"><g clip-path="url(#dcf55bf549)"><g clip-path="url(#ebeafeb2c5)"><path fill="url(#2fa11e0d6e)" d="M -15.601562 26.003906 L 26.003906 67.605469 L 67.605469 26.003906 L 26.003906 -15.601562 Z M -15.601562 26.003906 " fill-rule="nonzero"/></g></g></g></g><g clip-path="url(#a9e8522f3f)"><path fill="#ffffff" d="M 40.070312 32.253906 L 11.925781 32.253906 C 11.585938 32.253906 11.3125 31.976562 11.3125 31.636719 L 11.3125 31.027344 C 11.3125 30.6875 11.585938 30.410156 11.925781 30.410156 C 11.941406 30.410156 11.953125 30.410156 11.964844 30.40625 C 11.992188 30.410156 12.039062 30.40625 12.070312 30.410156 C 12.082031 30.40625 12.089844 30.40625 12.101562 30.40625 L 40.035156 30.410156 C 40.046875 30.410156 40.058594 30.410156 40.070312 30.410156 C 40.410156 30.410156 40.683594 30.6875 40.683594 31.027344 L 40.683594 31.636719 C 40.683594 31.648438 40.6875 31.65625 40.6875 31.664062 C 40.671875 31.992188 40.402344 32.253906 40.070312 32.253906 Z M 41.285156 31.605469 L 41.285156 31.027344 C 41.285156 30.367188 40.761719 29.832031 40.105469 29.8125 C 40.09375 29.808594 40.082031 29.808594 40.070312 29.808594 L 12.101562 29.808594 C 12.09375 29.808594 12.085938 29.808594 12.074219 29.808594 C 12.019531 29.808594 11.972656 29.808594 11.925781 29.8125 C 11.257812 29.8125 10.710938 30.355469 10.710938 31.027344 L 10.710938 31.636719 C 10.710938 32.308594 11.257812 32.855469 11.925781 32.855469 L 40.070312 32.855469 C 40.742188 32.855469 41.285156 32.308594 41.285156 31.636719 C 41.285156 31.628906 41.285156 31.617188 41.285156 31.605469 " fill-opacity="1" fill-rule="nonzero"/></g><path fill="#ffffff" d="M 28.828125 22.972656 L 26 25.996094 L 23.167969 22.972656 C 22.925781 22.714844 22.792969 22.363281 22.792969 21.988281 C 22.792969 21.234375 23.34375 20.621094 24.023438 20.621094 C 24.558594 20.621094 24.882812 20.984375 25.257812 21.402344 L 25.433594 21.589844 C 25.5625 21.757812 25.753906 21.859375 25.964844 21.867188 C 26.179688 21.875 26.375 21.796875 26.515625 21.644531 L 26.988281 21.136719 C 27.121094 20.996094 27.132812 20.980469 27.175781 20.941406 C 27.394531 20.734375 27.679688 20.621094 27.972656 20.621094 C 28.457031 20.621094 28.871094 20.910156 29.078125 21.390625 C 29.316406 21.9375 29.21875 22.558594 28.828125 22.972656 Z M 27.972656 20.023438 C 27.527344 20.023438 27.097656 20.195312 26.765625 20.503906 C 26.71875 20.546875 26.707031 20.5625 26.550781 20.730469 L 26.078125 21.234375 C 26.046875 21.269531 26.011719 21.269531 25.992188 21.269531 C 25.972656 21.269531 25.9375 21.261719 25.890625 21.203125 L 25.707031 21 C 25.292969 20.542969 24.828125 20.023438 24.023438 20.023438 C 23.015625 20.023438 22.191406 20.902344 22.191406 21.988281 C 22.191406 22.515625 22.382812 23.011719 22.730469 23.382812 L 25.78125 26.640625 C 25.835938 26.699219 25.914062 26.734375 26 26.734375 C 26.082031 26.734375 26.160156 26.699219 26.21875 26.640625 L 29.265625 23.382812 C 29.820312 22.792969 29.960938 21.917969 29.628906 21.152344 C 29.328125 20.457031 28.691406 20.023438 27.972656 20.023438 " fill-opacity="1" fill-rule="nonzero"/><g clip-path="url(#d3628e07f3)"><path fill="#ffffff" d="M 25.996094 12.335938 C 26.765625 12.335938 27.394531 12.964844 27.394531 13.734375 C 27.394531 14.503906 26.765625 15.128906 25.996094 15.128906 C 25.226562 15.128906 24.601562 14.503906 24.601562 13.734375 C 24.601562 12.964844 25.226562 12.335938 25.996094 12.335938 Z M 25.996094 15.730469 C 27.097656 15.730469 27.992188 14.832031 27.992188 13.734375 C 27.992188 12.632812 27.097656 11.738281 25.996094 11.738281 C 24.898438 11.738281 24 12.632812 24 13.734375 C 24 14.835938 24.898438 15.730469 25.996094 15.730469 " fill-opacity="1" fill-rule="nonzero"/></g><path fill="#ffffff" d="M 16.699219 20.402344 C 21.828125 15.273438 30.167969 15.277344 35.296875 20.402344 C 37.601562 22.707031 38.957031 25.746094 39.128906 28.988281 L 12.867188 28.988281 C 13.039062 25.746094 14.394531 22.707031 16.699219 20.402344 Z M 12.554688 29.589844 L 39.441406 29.589844 C 39.519531 29.589844 39.597656 29.554688 39.65625 29.5 C 39.710938 29.441406 39.742188 29.363281 39.738281 29.28125 C 39.636719 25.769531 38.207031 22.464844 35.71875 19.976562 C 30.359375 14.617188 21.636719 14.617188 16.277344 19.976562 C 13.789062 22.464844 12.359375 25.769531 12.253906 29.28125 C 12.253906 29.363281 12.285156 29.441406 12.339844 29.5 C 12.398438 29.554688 12.472656 29.589844 12.554688 29.589844 " fill-opacity="1" fill-rule="nonzero"/><path fill="#ffffff" d="M 29.425781 23.527344 C 29.082031 23.898438 28.714844 24.300781 28.34375 24.714844 C 27.585938 25.558594 26.800781 26.429688 26.074219 27.113281 C 26.027344 27.152344 25.957031 27.152344 25.917969 27.105469 L 22.570312 23.527344 C 22.183594 23.113281 21.96875 22.566406 21.96875 21.988281 C 21.96875 20.78125 22.890625 19.800781 24.023438 19.800781 C 24.523438 19.800781 25.003906 19.992188 25.378906 20.34375 C 25.4375 20.402344 25.476562 20.441406 25.574219 20.546875 L 25.78125 20.765625 C 25.835938 20.824219 25.914062 20.859375 25.996094 20.859375 C 26.082031 20.859375 26.160156 20.828125 26.214844 20.765625 L 26.421875 20.546875 C 26.519531 20.441406 26.554688 20.402344 26.617188 20.34375 C 26.992188 19.992188 27.472656 19.800781 27.972656 19.800781 C 29.105469 19.800781 30.027344 20.78125 30.027344 21.988281 C 30.027344 22.566406 29.8125 23.117188 29.425781 23.527344 Z M 27.972656 19.199219 C 27.320312 19.199219 26.695312 19.453125 26.207031 19.90625 C 26.140625 19.96875 26.101562 20.011719 25.996094 20.121094 C 25.894531 20.011719 25.855469 19.96875 25.789062 19.90625 C 25.300781 19.453125 24.675781 19.199219 24.023438 19.199219 C 22.558594 19.199219 21.371094 20.449219 21.371094 21.988281 C 21.371094 22.71875 21.640625 23.414062 22.132812 23.9375 L 25.480469 27.515625 C 25.617188 27.664062 25.808594 27.742188 25.996094 27.742188 C 26.171875 27.742188 26.347656 27.675781 26.484375 27.550781 C 27.230469 26.851562 28.023438 25.96875 28.792969 25.113281 C 29.160156 24.707031 29.519531 24.304688 29.863281 23.9375 C 30.355469 23.414062 30.625 22.71875 30.625 21.988281 C 30.625 20.449219 29.433594 19.199219 27.972656 19.199219 " fill-opacity="1" fill-rule="nonzero"/></svg>