<svg xmlns="http://www.w3.org/2000/svg" xmlns:xlink="http://www.w3.org/1999/xlink" width="70" zoomAndPan="magnify" viewBox="0 0 52.5 52.499999" height="70" preserveAspectRatio="xMidYMid meet" version="1.0"><defs><clipPath id="3e5d1a7a5b"><path d="M 6.699219 9 L 46.816406 9 L 46.816406 43 L 6.699219 43 Z M 6.699219 9 " clip-rule="nonzero"/></clipPath><clipPath id="4c4cc30d08"><path d="M 34 43 L 36 43 L 36 46.195312 L 34 46.195312 Z M 34 43 " clip-rule="nonzero"/></clipPath><clipPath id="bda8f12175"><path d="M 16 6.074219 L 18 6.074219 L 18 9 L 16 9 Z M 16 6.074219 " clip-rule="nonzero"/></clipPath></defs><path fill="#000000" d="M 34.621094 27.445312 C 33.957031 25.285156 31.753906 23.992188 29.558594 24.480469 C 28.828125 24.640625 28.152344 24.988281 27.597656 25.488281 L 26.667969 26.328125 C 26.46875 26.507812 26.179688 26.558594 25.929688 26.457031 L 24.769531 25.988281 C 24.078125 25.710938 23.328125 25.617188 22.585938 25.714844 C 20.355469 26.015625 18.726562 27.984375 18.835938 30.246094 C 18.914062 31.847656 19.621094 33.359375 20.808594 34.429688 C 23.136719 36.539062 25.527344 38.277344 27.980469 39.570312 C 28.386719 39.78125 28.886719 39.691406 29.195312 39.351562 C 31.066406 37.292969 32.71875 34.839844 34.191406 32.054688 C 34.941406 30.640625 35.089844 28.980469 34.621094 27.445312 Z M 25.632812 35.820312 C 25.582031 35.925781 25.480469 35.984375 25.375 35.984375 C 25.332031 35.984375 25.289062 35.976562 25.25 35.957031 C 25.105469 35.886719 25.046875 35.714844 25.117188 35.570312 L 29.578125 26.359375 C 29.644531 26.21875 29.816406 26.15625 29.960938 26.226562 C 30.105469 26.296875 30.164062 26.472656 30.09375 26.613281 Z M 32.566406 28.183594 L 29.589844 34.335938 C 29.539062 34.441406 29.4375 34.5 29.328125 34.5 C 29.289062 34.5 29.242188 34.492188 29.203125 34.472656 C 29.0625 34.402344 29 34.226562 29.070312 34.085938 L 32.050781 27.929688 C 32.121094 27.789062 32.292969 27.726562 32.4375 27.796875 C 32.578125 27.867188 32.636719 28.042969 32.566406 28.183594 Z M 32.566406 28.183594 " fill-opacity="1" fill-rule="nonzero"/><path fill="#000000" d="M 26.957031 12.878906 L 21.089844 13.917969 C 20.980469 13.9375 20.917969 14.074219 20.960938 14.199219 L 21.75 16.558594 C 21.78125 16.660156 21.867188 16.71875 21.953125 16.703125 L 27.089844 15.792969 C 27.175781 15.777344 27.234375 15.691406 27.230469 15.589844 L 27.167969 13.097656 C 27.167969 12.964844 27.0625 12.859375 26.957031 12.878906 Z M 26.957031 12.878906 " fill-opacity="1" fill-rule="nonzero"/><g clip-path="url(#3e5d1a7a5b)"><path fill="#000000" d="M 46.730469 34.050781 L 43.816406 17.417969 C 43.632812 16.375 42.640625 15.679688 41.605469 15.863281 L 20.433594 19.617188 L 18.101562 13.617188 C 17.984375 13.316406 18.007812 12.984375 18.164062 12.703125 C 18.316406 12.425781 18.589844 12.230469 18.902344 12.175781 L 28.414062 10.488281 C 28.757812 10.425781 29.078125 10.503906 29.308594 10.707031 C 29.542969 10.910156 29.667969 11.214844 29.65625 11.566406 L 29.539062 16.613281 C 29.53125 16.773438 29.660156 16.90625 29.816406 16.910156 C 29.820312 16.910156 29.824219 16.910156 29.824219 16.910156 C 29.980469 16.910156 30.109375 16.785156 30.113281 16.628906 L 30.234375 11.578125 C 30.246094 11.050781 30.050781 10.582031 29.683594 10.265625 C 29.320312 9.949219 28.832031 9.828125 28.3125 9.917969 L 18.804688 11.605469 C 18.320312 11.691406 17.902344 11.988281 17.660156 12.421875 C 17.421875 12.851562 17.386719 13.367188 17.566406 13.828125 L 19.859375 19.71875 L 15.519531 20.488281 L 15.351562 19.519531 C 15.214844 18.734375 14.464844 18.210938 13.6875 18.347656 L 10.4375 18.921875 C 9.660156 19.0625 9.136719 19.8125 9.273438 20.597656 L 9.441406 21.566406 L 8.332031 21.761719 C 7.832031 21.851562 7.394531 22.132812 7.101562 22.554688 C 6.808594 22.972656 6.699219 23.480469 6.785156 23.988281 L 9.703125 40.617188 C 9.863281 41.546875 10.671875 42.203125 11.578125 42.203125 C 11.6875 42.203125 11.800781 42.195312 11.910156 42.175781 L 19.078125 40.902344 C 19.234375 40.875 19.335938 40.726562 19.308594 40.570312 C 19.28125 40.414062 19.132812 40.304688 18.976562 40.335938 L 11.8125 41.605469 C 11.089844 41.734375 10.394531 41.246094 10.269531 40.519531 L 8.171875 28.5625 L 14.15625 27.5 C 14.3125 27.472656 14.414062 27.324219 14.386719 27.167969 C 14.359375 27.011719 14.210938 26.90625 14.054688 26.933594 L 8.074219 27.992188 L 7.355469 23.886719 C 7.292969 23.535156 7.371094 23.179688 7.574219 22.886719 C 7.78125 22.59375 8.085938 22.398438 8.433594 22.335938 L 41.707031 16.433594 C 42.433594 16.304688 43.125 16.792969 43.25 17.519531 L 43.972656 21.625 L 37.964844 22.691406 C 37.808594 22.71875 37.703125 22.871094 37.730469 23.027344 C 37.753906 23.167969 37.878906 23.265625 38.011719 23.265625 C 38.03125 23.265625 38.046875 23.261719 38.0625 23.261719 L 44.070312 22.195312 L 46.164062 34.148438 C 46.226562 34.503906 46.148438 34.859375 45.945312 35.152344 C 45.742188 35.445312 45.4375 35.640625 45.085938 35.703125 L 35.96875 37.320312 C 37.261719 35.460938 37.941406 33.246094 37.902344 30.933594 C 37.800781 25.019531 32.988281 20.277344 27.128906 20.277344 C 27.066406 20.277344 27.003906 20.277344 26.941406 20.277344 C 24.066406 20.328125 21.378906 21.503906 19.378906 23.585938 C 17.378906 25.667969 16.304688 28.410156 16.355469 31.304688 C 16.457031 37.21875 21.269531 41.960938 27.125 41.960938 C 27.1875 41.960938 27.25 41.960938 27.3125 41.960938 C 30.191406 41.910156 32.878906 40.734375 34.878906 38.652344 C 35.082031 38.441406 35.273438 38.222656 35.457031 37.996094 L 45.183594 36.269531 C 45.6875 36.183594 46.125 35.902344 46.414062 35.480469 C 46.707031 35.0625 46.820312 34.554688 46.730469 34.050781 Z M 10.011719 21.46875 L 9.839844 20.5 C 9.757812 20.027344 10.070312 19.574219 10.539062 19.492188 L 13.789062 18.917969 C 14.253906 18.832031 14.703125 19.148438 14.785156 19.621094 L 14.957031 20.589844 Z M 34.464844 38.253906 C 32.570312 40.222656 30.027344 41.335938 27.304688 41.382812 C 27.242188 41.382812 27.183594 41.386719 27.125 41.386719 C 21.582031 41.386719 17.023438 36.894531 16.929688 31.296875 C 16.882812 28.554688 17.898438 25.960938 19.792969 23.988281 C 21.683594 22.015625 24.226562 20.90625 26.953125 20.859375 C 27.011719 20.855469 27.070312 20.855469 27.128906 20.855469 C 32.671875 20.855469 37.230469 25.34375 37.328125 30.945312 C 37.375 33.6875 36.355469 36.28125 34.464844 38.253906 Z M 34.464844 38.253906 " fill-opacity="1" fill-rule="nonzero"/></g><path fill="#000000" d="M 41.882812 41.300781 L 39.925781 40.4375 C 39.777344 40.375 39.609375 40.441406 39.546875 40.585938 C 39.480469 40.734375 39.546875 40.902344 39.691406 40.96875 L 41.652344 41.832031 C 41.691406 41.847656 41.730469 41.855469 41.769531 41.855469 C 41.878906 41.855469 41.984375 41.789062 42.03125 41.679688 C 42.097656 41.535156 42.027344 41.363281 41.882812 41.300781 Z M 41.882812 41.300781 " fill-opacity="1" fill-rule="nonzero"/><g clip-path="url(#4c4cc30d08)"><path fill="#000000" d="M 34.71875 43.726562 C 34.679688 43.570312 34.523438 43.476562 34.371094 43.515625 C 34.214844 43.550781 34.121094 43.707031 34.160156 43.863281 L 34.671875 45.953125 C 34.707031 46.085938 34.824219 46.171875 34.953125 46.171875 C 34.976562 46.171875 34.996094 46.171875 35.019531 46.164062 C 35.175781 46.128906 35.269531 45.96875 35.230469 45.816406 Z M 34.71875 43.726562 " fill-opacity="1" fill-rule="nonzero"/></g><path fill="#000000" d="M 10.226562 11.617188 L 12.257812 12.300781 C 12.289062 12.308594 12.316406 12.3125 12.347656 12.3125 C 12.46875 12.3125 12.582031 12.238281 12.621094 12.117188 C 12.671875 11.964844 12.589844 11.800781 12.4375 11.75 L 10.410156 11.070312 C 10.257812 11.019531 10.097656 11.101562 10.046875 11.25 C 9.996094 11.402344 10.078125 11.566406 10.226562 11.617188 Z M 10.226562 11.617188 " fill-opacity="1" fill-rule="nonzero"/><g clip-path="url(#bda8f12175)"><path fill="#000000" d="M 17.148438 8.554688 C 17.191406 8.675781 17.300781 8.75 17.421875 8.75 C 17.453125 8.75 17.484375 8.746094 17.515625 8.734375 C 17.664062 8.683594 17.742188 8.515625 17.691406 8.367188 L 16.992188 6.332031 C 16.941406 6.179688 16.777344 6.101562 16.628906 6.152344 C 16.476562 6.207031 16.398438 6.371094 16.449219 6.523438 Z M 17.148438 8.554688 " fill-opacity="1" fill-rule="nonzero"/></g></svg>