<svg xmlns="http://www.w3.org/2000/svg" xmlns:xlink="http://www.w3.org/1999/xlink" width="70" zoomAndPan="magnify" viewBox="0 0 52.5 52.499999" height="70" preserveAspectRatio="xMidYMid meet" version="1.0"><defs><clipPath id="0da1fdd98b"><path d="M 9.515625 3.273438 L 42.203125 3.273438 L 42.203125 48.578125 L 9.515625 48.578125 Z M 9.515625 3.273438 " clip-rule="nonzero"/></clipPath></defs><g clip-path="url(#0da1fdd98b)"><path fill="#000000" d="M 12.636719 47.777344 L 39.363281 47.777344 C 40.558594 47.777344 41.527344 46.808594 41.527344 45.613281 L 41.527344 6.394531 C 41.527344 5.199219 40.558594 4.230469 39.363281 4.230469 L 12.636719 4.230469 C 11.441406 4.230469 10.472656 5.199219 10.472656 6.394531 L 10.472656 45.613281 C 10.472656 46.808594 11.441406 47.777344 12.636719 47.777344 Z M 40.320312 48.734375 L 11.679688 48.734375 C 10.484375 48.734375 9.515625 47.765625 9.515625 46.570312 L 9.515625 5.4375 C 9.515625 4.242188 10.484375 3.273438 11.679688 3.273438 L 40.320312 3.273438 C 41.511719 3.273438 42.480469 4.242188 42.480469 5.4375 L 42.480469 46.570312 C 42.480469 47.765625 41.511719 48.734375 40.320312 48.734375 " fill-opacity="1" fill-rule="nonzero"/></g><path fill="#000000" d="M 14.007812 21.132812 L 12.914062 19.730469 C 12.808594 19.597656 12.820312 19.40625 12.9375 19.28125 C 13.078125 19.140625 13.269531 18.953125 13.402344 19.105469 L 14 19.777344 C 14.140625 19.9375 14.390625 19.929688 14.523438 19.761719 L 15.722656 18.234375 C 15.816406 18.117188 15.988281 18.105469 16.09375 18.210938 L 16.4375 18.554688 C 16.566406 18.683594 16.570312 18.894531 16.449219 19.027344 L 14.53125 21.152344 C 14.386719 21.308594 14.136719 21.300781 14.007812 21.132812 " fill-opacity="1" fill-rule="nonzero"/><path fill="#000000" d="M 14.007812 27.929688 L 12.914062 26.527344 C 12.808594 26.394531 12.820312 26.203125 12.9375 26.078125 C 13.078125 25.9375 13.269531 25.75 13.402344 25.902344 L 14 26.574219 C 14.140625 26.734375 14.390625 26.726562 14.523438 26.558594 L 15.566406 25.230469 C 15.742188 25.007812 16.074219 24.988281 16.273438 25.1875 L 16.4375 25.351562 C 16.566406 25.480469 16.570312 25.6875 16.449219 25.824219 L 14.53125 27.949219 C 14.386719 28.105469 14.136719 28.097656 14.007812 27.929688 " fill-opacity="1" fill-rule="nonzero"/><path fill="#000000" d="M 14.007812 35.410156 L 12.914062 34.007812 C 12.808594 33.875 12.820312 33.683594 12.9375 33.558594 C 13.078125 33.417969 13.269531 33.230469 13.402344 33.382812 L 14 34.054688 C 14.140625 34.214844 14.390625 34.207031 14.523438 34.039062 L 15.566406 32.710938 C 15.742188 32.488281 16.074219 32.46875 16.273438 32.671875 L 16.4375 32.835938 C 16.566406 32.964844 16.570312 33.171875 16.449219 33.304688 L 14.53125 35.429688 C 14.386719 35.585938 14.136719 35.578125 14.007812 35.410156 " fill-opacity="1" fill-rule="nonzero"/><path fill="#000000" d="M 25.414062 12.429688 C 24.898438 12.9375 24.085938 13.546875 23.617188 13.511719 C 22.863281 13.449219 21.886719 12.433594 21.886719 12.433594 C 21.886719 12.433594 19.558594 10.765625 20.960938 9.140625 C 21.960938 7.976562 23.617188 9.84375 23.617188 9.84375 C 23.617188 9.84375 25.167969 7.867188 26.378906 8.542969 C 27.839844 9.359375 26.3125 11.539062 25.414062 12.429688 Z M 27.078125 7.648438 C 25.320312 6.664062 23.625 8.519531 23.625 8.519531 C 22.984375 8.015625 22.113281 7.605469 21.292969 7.609375 C 19.949219 7.609375 18.945312 9.011719 19.144531 10.304688 C 19.371094 11.792969 20.902344 13.023438 22.011719 13.878906 C 22.351562 14.144531 22.707031 14.40625 23.117188 14.550781 C 24.339844 14.984375 25.433594 13.851562 26.226562 13.070312 C 27.527344 11.78125 29.191406 8.828125 27.078125 7.648438 " fill-opacity="1" fill-rule="nonzero"/><path fill="#000000" d="M 30.238281 13.914062 C 29.726562 14.421875 28.910156 15.03125 28.445312 14.996094 C 27.691406 14.933594 26.714844 13.917969 26.714844 13.917969 C 26.714844 13.917969 24.089844 12.25 25.488281 10.625 C 26.488281 9.460938 28.445312 11.328125 28.445312 11.328125 C 28.445312 11.328125 29.617188 9.492188 30.828125 10.171875 C 32.289062 10.988281 31.136719 13.023438 30.238281 13.914062 Z M 31.902344 9.132812 C 30.148438 8.148438 28.457031 10.253906 28.457031 10.253906 C 27.820312 9.75 26.941406 9.09375 26.117188 9.09375 C 24.773438 9.09375 23.773438 10.5 23.96875 11.789062 C 24.199219 13.277344 25.726562 14.507812 26.835938 15.363281 C 27.179688 15.628906 27.535156 15.890625 27.941406 16.035156 C 29.164062 16.46875 30.261719 15.335938 31.050781 14.554688 C 32.355469 13.265625 34.019531 10.3125 31.902344 9.132812 " fill-opacity="1" fill-rule="nonzero"/><path fill="#000000" d="M 37.796875 19.683594 L 18.738281 19.683594 C 18.398438 19.683594 18.121094 19.40625 18.121094 19.066406 C 18.121094 18.726562 18.398438 18.449219 18.738281 18.449219 L 37.796875 18.449219 C 38.136719 18.449219 38.414062 18.726562 38.414062 19.066406 C 38.414062 19.40625 38.136719 19.683594 37.796875 19.683594 " fill-opacity="1" fill-rule="nonzero"/><path fill="#000000" d="M 37.796875 23.570312 L 18.738281 23.570312 C 18.398438 23.570312 18.121094 23.296875 18.121094 22.957031 C 18.121094 22.617188 18.398438 22.339844 18.738281 22.339844 L 37.796875 22.339844 C 38.136719 22.339844 38.414062 22.617188 38.414062 22.957031 C 38.414062 23.296875 38.136719 23.570312 37.796875 23.570312 " fill-opacity="1" fill-rule="nonzero"/><path fill="#000000" d="M 37.796875 27.460938 L 18.738281 27.460938 C 18.398438 27.460938 18.121094 27.1875 18.121094 26.847656 C 18.121094 26.503906 18.398438 26.230469 18.738281 26.230469 L 37.796875 26.230469 C 38.136719 26.230469 38.414062 26.503906 38.414062 26.847656 C 38.414062 27.1875 38.136719 27.460938 37.796875 27.460938 " fill-opacity="1" fill-rule="nonzero"/><path fill="#000000" d="M 37.796875 31.351562 L 18.738281 31.351562 C 18.398438 31.351562 18.121094 31.074219 18.121094 30.734375 C 18.121094 30.394531 18.398438 30.121094 18.738281 30.121094 L 37.796875 30.121094 C 38.136719 30.121094 38.414062 30.394531 38.414062 30.734375 C 38.414062 31.074219 38.136719 31.351562 37.796875 31.351562 " fill-opacity="1" fill-rule="nonzero"/><path fill="#000000" d="M 37.796875 35.242188 L 18.738281 35.242188 C 18.398438 35.242188 18.121094 34.964844 18.121094 34.625 C 18.121094 34.285156 18.398438 34.007812 18.738281 34.007812 L 37.796875 34.007812 C 38.136719 34.007812 38.414062 34.285156 38.414062 34.625 C 38.414062 34.964844 38.136719 35.242188 37.796875 35.242188 " fill-opacity="1" fill-rule="nonzero"/><path fill="#000000" d="M 24.441406 43.320312 L 18.972656 43.320312 C 18.648438 43.320312 18.386719 43.054688 18.386719 42.730469 C 18.386719 42.40625 18.648438 42.144531 18.972656 42.144531 L 24.441406 42.144531 C 24.765625 42.144531 25.03125 42.40625 25.03125 42.730469 C 25.03125 43.054688 24.765625 43.320312 24.441406 43.320312 " fill-opacity="1" fill-rule="nonzero"/><path fill="#000000" d="M 34.722656 37.890625 C 32.441406 37.648438 30.523438 39.566406 30.765625 41.847656 C 30.941406 43.511719 32.28125 44.851562 33.945312 45.027344 C 36.226562 45.269531 38.144531 43.351562 37.902344 41.070312 C 37.726562 39.40625 36.386719 38.066406 34.722656 37.890625 Z M 34.746094 45.976562 C 31.921875 46.230469 29.5625 43.871094 29.8125 41.042969 C 30.007812 38.878906 31.753906 37.132812 33.917969 36.941406 C 36.746094 36.6875 39.105469 39.046875 38.851562 41.875 C 38.660156 44.039062 36.914062 45.785156 34.746094 45.976562 " fill-opacity="1" fill-rule="nonzero"/><path fill="#000000" d="M 36.640625 41.90625 C 36.445312 41.84375 36.328125 41.648438 36.328125 41.445312 C 36.320312 40.355469 35.4375 39.472656 34.347656 39.464844 C 34.144531 39.464844 33.949219 39.347656 33.886719 39.152344 C 33.777344 38.820312 34.019531 38.515625 34.332031 38.515625 C 35.957031 38.515625 37.277344 39.835938 37.277344 41.457031 C 37.277344 41.773438 36.972656 42.015625 36.640625 41.90625 " fill-opacity="1" fill-rule="nonzero"/><path fill="#000000" d="M 34.332031 44.402344 C 32.714844 44.402344 31.398438 43.089844 31.390625 41.472656 C 31.390625 41.242188 31.546875 41.035156 31.773438 40.992188 C 32.078125 40.9375 32.339844 41.167969 32.339844 41.457031 C 32.339844 42.554688 33.230469 43.449219 34.328125 43.453125 C 34.566406 43.453125 34.78125 43.636719 34.804688 43.875 C 34.835938 44.160156 34.613281 44.402344 34.332031 44.402344 " fill-opacity="1" fill-rule="nonzero"/></svg>