<svg xmlns="http://www.w3.org/2000/svg" xmlns:xlink="http://www.w3.org/1999/xlink" width="70" zoomAndPan="magnify" viewBox="0 0 52.5 52.499999" height="70" preserveAspectRatio="xMidYMid meet" version="1.0"><defs><clipPath id="2369498692"><path d="M 2.5625 4.664062 L 49.359375 4.664062 L 49.359375 47.011719 L 2.5625 47.011719 Z M 2.5625 4.664062 " clip-rule="nonzero"/></clipPath></defs><g clip-path="url(#2369498692)"><path fill="#000000" d="M 48.773438 31.003906 C 48.675781 31.203125 48.53125 31.347656 48.308594 31.378906 C 48.0625 31.414062 47.8125 31.445312 47.566406 31.441406 C 45.53125 31.429688 43.496094 31.40625 41.460938 31.390625 C 40.300781 31.382812 39.140625 31.390625 37.980469 31.390625 C 37.890625 31.390625 37.796875 31.390625 37.671875 31.390625 C 37.894531 30.449219 37.867188 29.515625 37.917969 28.570312 C 38.039062 28.570312 38.136719 28.570312 38.234375 28.570312 C 40.886719 28.578125 43.539062 28.585938 46.195312 28.597656 C 46.644531 28.597656 47.097656 28.578125 47.542969 28.625 C 47.816406 28.648438 48.085938 28.765625 48.347656 28.867188 C 48.574219 28.953125 48.695312 29.164062 48.78125 29.371094 C 49.011719 29.910156 49.042969 30.457031 48.773438 31.003906 Z M 47.386719 32.136719 C 47.335938 32.621094 47.296875 33.105469 47.238281 33.589844 C 47.148438 34.320312 47.054688 35.054688 46.945312 35.78125 C 46.855469 36.390625 46.515625 36.804688 45.941406 37.027344 C 45.390625 37.238281 44.816406 37.324219 44.230469 37.339844 C 44.195312 37.339844 44.164062 37.332031 44.125 37.324219 C 44.121094 37.070312 44.136719 36.816406 43.953125 36.574219 C 43.75 36.800781 43.78125 37.074219 43.730469 37.339844 C 43.496094 37.339844 43.265625 37.359375 43.035156 37.335938 C 42.453125 37.285156 41.875 37.21875 41.296875 37.144531 C 40.726562 37.074219 40.429688 36.703125 40.339844 36.164062 C 40.238281 35.542969 40.144531 34.921875 40.09375 34.296875 C 40.035156 33.578125 40.023438 32.855469 39.992188 32.132812 C 39.988281 32.050781 39.992188 31.96875 39.992188 31.871094 C 40.53125 31.871094 41.042969 31.871094 41.585938 31.871094 C 41.574219 31.972656 41.566406 32.039062 41.554688 32.101562 C 41.5 32.410156 41.511719 32.722656 41.542969 33.03125 C 41.550781 33.082031 41.5625 33.128906 41.582031 33.175781 C 41.613281 33.261719 41.671875 33.316406 41.769531 33.3125 C 41.867188 33.308594 41.917969 33.242188 41.9375 33.152344 C 42 32.820312 42.011719 32.488281 41.96875 32.152344 C 41.957031 32.070312 41.945312 31.988281 41.933594 31.886719 C 42.597656 31.886719 43.242188 31.886719 43.875 31.886719 C 43.875 32.097656 43.875 32.289062 43.875 32.476562 C 43.878906 32.761719 43.886719 33.046875 43.894531 33.332031 C 43.894531 33.363281 43.894531 33.40625 43.910156 33.429688 C 43.949219 33.476562 44 33.550781 44.046875 33.550781 C 44.105469 33.550781 44.195312 33.5 44.21875 33.449219 C 44.265625 33.351562 44.289062 33.238281 44.289062 33.132812 C 44.296875 32.730469 44.292969 32.328125 44.292969 31.894531 C 44.8125 31.859375 45.367188 31.882812 45.949219 31.871094 C 45.941406 32.023438 45.929688 32.15625 45.925781 32.285156 C 45.917969 32.511719 45.910156 32.738281 45.90625 32.964844 C 45.902344 32.996094 45.914062 33.03125 45.917969 33.0625 C 45.9375 33.160156 45.972656 33.246094 46.089844 33.25 C 46.203125 33.253906 46.246094 33.167969 46.261719 33.070312 C 46.3125 32.773438 46.363281 32.476562 46.320312 32.171875 C 46.3125 32.089844 46.304688 32.007812 46.292969 31.890625 C 46.667969 31.910156 47.023438 31.929688 47.386719 31.949219 C 47.386719 32.023438 47.390625 32.082031 47.386719 32.136719 Z M 37.117188 27.875 C 37.035156 27.976562 36.953125 27.992188 36.839844 27.992188 C 35.472656 27.980469 34.105469 27.96875 32.734375 27.960938 C 29.664062 27.933594 26.59375 27.910156 23.523438 27.882812 C 20.6875 27.859375 17.847656 27.832031 15.011719 27.808594 C 14.980469 27.808594 14.945312 27.808594 14.902344 27.808594 C 14.601562 27.34375 14.339844 27.339844 14 27.785156 C 13.683594 27.785156 13.359375 27.789062 13.035156 27.78125 C 12.972656 27.78125 12.90625 27.746094 12.859375 27.707031 C 12.765625 27.636719 12.671875 27.558594 12.597656 27.472656 C 12.039062 26.824219 11.488281 26.171875 10.933594 25.523438 C 10.832031 25.40625 10.808594 25.292969 10.832031 25.136719 C 11.003906 24 10.363281 22.886719 9.300781 22.476562 C 9.148438 22.421875 9.074219 22.335938 9.011719 22.195312 C 8.390625 20.765625 8.152344 19.269531 8.289062 17.71875 C 8.425781 16.15625 9.121094 14.871094 10.253906 13.8125 C 10.335938 13.734375 10.449219 13.679688 10.558594 13.644531 C 11.394531 13.386719 12.226562 13.113281 13.070312 12.894531 C 14.820312 12.441406 16.597656 12.171875 18.390625 11.96875 C 21.289062 11.640625 24.195312 11.515625 27.113281 11.589844 C 28.496094 11.625 29.878906 11.710938 31.257812 11.824219 C 32.488281 11.921875 33.714844 12.0625 34.9375 12.242188 C 37.140625 12.570312 39.304688 13.078125 41.417969 13.808594 C 41.871094 13.96875 42.199219 14.21875 42.484375 14.582031 C 43.378906 15.734375 43.769531 17.046875 43.765625 18.5 C 43.765625 19.769531 43.519531 20.984375 43.027344 22.152344 C 42.960938 22.308594 42.871094 22.40625 42.707031 22.464844 C 41.636719 22.847656 40.976562 24.003906 41.171875 25.136719 C 41.199219 25.289062 41.179688 25.40625 41.082031 25.53125 C 40.53125 26.230469 39.953125 26.902344 39.308594 27.511719 C 39.171875 27.640625 39.046875 27.773438 38.925781 27.910156 C 38.859375 27.988281 38.785156 28.015625 38.683594 28.011719 C 38.46875 28.003906 38.25 28.003906 38.035156 28.007812 C 37.925781 28.011719 37.855469 27.972656 37.78125 27.886719 C 37.582031 27.648438 37.304688 27.640625 37.117188 27.875 Z M 36.917969 31.375 C 36.84375 31.378906 36.773438 31.386719 36.699219 31.386719 C 35.148438 31.382812 33.597656 31.375 32.046875 31.371094 C 31.90625 31.371094 31.820312 31.332031 31.738281 31.214844 C 31.101562 30.300781 30.296875 29.566406 29.367188 28.964844 C 29.101562 28.796875 28.8125 28.664062 28.535156 28.515625 C 28.535156 28.503906 28.539062 28.492188 28.539062 28.484375 C 31.355469 28.511719 34.167969 28.542969 37.015625 28.570312 C 37.023438 29.507812 37.042969 30.433594 36.917969 31.375 Z M 29.527344 31.347656 C 29.402344 30.253906 28.875 29.402344 28.011719 28.75 C 28.023438 28.734375 28.03125 28.722656 28.042969 28.707031 C 28.15625 28.75 28.273438 28.785156 28.386719 28.835938 C 28.796875 29.023438 29.171875 29.273438 29.523438 29.558594 C 30.097656 30.019531 30.625 30.53125 31.074219 31.117188 C 31.125 31.183594 31.171875 31.25 31.242188 31.347656 C 30.644531 31.347656 30.097656 31.347656 29.527344 31.347656 Z M 27.722656 31.339844 C 27.761719 30.425781 27.78125 29.523438 27.328125 28.691406 C 28.171875 28.941406 29.132812 30.328125 29.160156 31.339844 C 28.675781 31.339844 28.210938 31.339844 27.722656 31.339844 Z M 27.300781 31.332031 C 26.714844 31.332031 26.132812 31.332031 25.511719 31.332031 C 25.558594 31.238281 25.59375 31.15625 25.636719 31.082031 C 25.914062 30.570312 26.136719 30.039062 26.230469 29.460938 C 26.277344 29.175781 26.304688 28.882812 26.347656 28.570312 C 26.390625 28.570312 26.453125 28.574219 26.515625 28.5625 C 26.824219 28.5 26.972656 28.675781 27.085938 28.925781 C 27.226562 29.242188 27.304688 29.574219 27.332031 29.917969 C 27.371094 30.386719 27.386719 30.851562 27.300781 31.332031 Z M 24.992188 31.328125 C 24.523438 31.328125 24.070312 31.328125 23.605469 31.328125 C 24.074219 30.515625 25.542969 28.554688 25.972656 28.472656 C 26.085938 28.9375 25.535156 30.542969 24.992188 31.328125 Z M 23.105469 31.164062 C 23.011719 31.296875 22.910156 31.339844 22.75 31.339844 C 20.890625 31.328125 19.027344 31.324219 17.167969 31.320312 C 16.5 31.316406 15.835938 31.3125 15.167969 31.308594 C 15.085938 31.308594 15.003906 31.304688 14.925781 31.300781 C 14.925781 30.308594 14.925781 29.355469 14.925781 28.402344 C 15.15625 28.347656 24.730469 28.414062 25.339844 28.472656 C 25.324219 28.503906 25.316406 28.535156 25.296875 28.554688 C 24.773438 29.003906 24.335938 29.53125 23.914062 30.078125 C 23.640625 30.4375 23.367188 30.796875 23.105469 31.164062 Z M 13.65625 31.304688 C 10.5625 31.300781 7.464844 31.296875 4.367188 31.289062 C 4.21875 31.289062 4.0625 31.300781 3.925781 31.257812 C 3.445312 31.121094 3.242188 30.742188 3.183594 30.28125 C 3.121094 29.769531 3.226562 29.28125 3.445312 28.8125 C 3.503906 28.683594 3.597656 28.597656 3.722656 28.539062 C 4.15625 28.324219 4.621094 28.242188 5.101562 28.246094 C 6.695312 28.269531 8.292969 28.289062 9.886719 28.308594 C 11.121094 28.324219 12.355469 28.335938 13.589844 28.351562 C 13.679688 28.351562 13.769531 28.351562 13.875 28.351562 C 13.777344 29.359375 13.875 30.308594 13.929688 31.292969 C 13.832031 31.296875 13.746094 31.304688 13.65625 31.304688 Z M 11.832031 35.992188 C 11.792969 36.203125 11.71875 36.410156 11.632812 36.609375 C 11.546875 36.820312 11.378906 36.96875 11.160156 37.027344 C 10.878906 37.101562 10.59375 37.175781 10.304688 37.203125 C 9.742188 37.261719 9.175781 37.292969 8.609375 37.332031 C 8.546875 37.335938 8.480469 37.324219 8.394531 37.320312 C 8.378906 37.042969 8.386719 36.789062 8.203125 36.5625 C 7.984375 36.773438 8.039062 37.042969 8.019531 37.3125 C 7.816406 37.304688 7.625 37.304688 7.4375 37.285156 C 6.996094 37.242188 6.566406 37.152344 6.152344 36.980469 C 5.644531 36.773438 5.3125 36.402344 5.21875 35.855469 C 5.109375 35.195312 5.019531 34.527344 4.9375 33.863281 C 4.855469 33.214844 4.796875 32.5625 4.730469 31.910156 C 4.730469 31.878906 4.730469 31.847656 4.730469 31.804688 C 5.105469 31.804688 5.46875 31.804688 5.816406 31.804688 C 5.816406 32.019531 5.808594 32.21875 5.820312 32.417969 C 5.828125 32.621094 5.855469 32.820312 5.875 33.019531 C 5.886719 33.125 5.925781 33.21875 6.054688 33.222656 C 6.15625 33.226562 6.226562 33.148438 6.226562 32.988281 C 6.226562 32.671875 6.210938 32.351562 6.199219 32.035156 C 6.199219 31.96875 6.1875 31.902344 6.175781 31.800781 C 6.75 31.789062 7.3125 31.792969 7.882812 31.796875 C 7.867188 32.113281 7.839844 32.40625 7.835938 32.695312 C 7.835938 32.898438 7.859375 33.097656 7.878906 33.296875 C 7.882812 33.34375 7.898438 33.402344 7.929688 33.4375 C 7.972656 33.480469 8.042969 33.542969 8.085938 33.53125 C 8.144531 33.519531 8.222656 33.445312 8.226562 33.390625 C 8.257812 33.125 8.277344 32.855469 8.277344 32.589844 C 8.28125 32.339844 8.25 32.085938 8.234375 31.835938 C 8.402344 31.785156 9.828125 31.769531 10.210938 31.820312 C 10.199219 31.933594 10.199219 32.046875 10.175781 32.160156 C 10.117188 32.445312 10.15625 32.726562 10.1875 33.011719 C 10.207031 33.199219 10.273438 33.289062 10.378906 33.292969 C 10.488281 33.296875 10.578125 33.207031 10.589844 33.027344 C 10.605469 32.746094 10.601562 32.460938 10.597656 32.175781 C 10.59375 32.0625 10.570312 31.945312 10.550781 31.8125 C 11.074219 31.8125 11.589844 31.8125 12.117188 31.8125 C 12.128906 31.863281 12.144531 31.910156 12.144531 31.957031 C 12.152344 33.308594 12.082031 34.65625 11.832031 35.992188 Z M 8.480469 22.617188 C 9.628906 22.648438 10.519531 23.574219 10.492188 24.71875 C 10.5 25.792969 9.597656 26.851562 8.324219 26.804688 C 7.199219 26.761719 6.300781 25.808594 6.328125 24.648438 C 6.355469 23.503906 7.324219 22.589844 8.480469 22.617188 Z M 3.886719 23.515625 C 4.019531 22.863281 4.175781 22.222656 4.417969 21.601562 C 4.777344 20.699219 5.300781 19.929688 6.121094 19.386719 C 6.519531 19.125 6.941406 18.9375 7.429688 18.9375 C 7.484375 18.9375 7.542969 18.9375 7.632812 18.9375 C 7.6875 20.09375 7.90625 21.207031 8.347656 22.289062 C 6.859375 22.449219 6.160156 23.488281 6.042969 24.476562 C 5.925781 25.441406 6.414062 26.453125 7.394531 26.9375 C 8.203125 27.339844 9.515625 27.367188 10.503906 26.078125 C 10.980469 26.625 11.457031 27.171875 11.929688 27.714844 C 11.921875 27.734375 11.921875 27.742188 11.917969 27.75 C 11.910156 27.753906 11.90625 27.761719 11.898438 27.761719 C 9.21875 27.757812 6.542969 27.75 3.863281 27.742188 C 3.824219 27.742188 3.78125 27.726562 3.71875 27.714844 C 3.6875 27.417969 3.644531 27.117188 3.621094 26.820312 C 3.53125 25.703125 3.667969 24.605469 3.886719 23.515625 Z M 13.074219 12.238281 C 14.28125 11.84375 15.515625 11.550781 16.773438 11.371094 C 18.140625 11.175781 19.515625 11 20.890625 10.835938 C 21.542969 10.757812 22.203125 10.714844 22.859375 10.679688 C 23.808594 10.625 24.761719 10.566406 25.710938 10.550781 C 26.929688 10.53125 28.148438 10.582031 29.363281 10.699219 C 30.058594 10.765625 30.761719 10.792969 31.457031 10.875 C 32.675781 11.015625 33.890625 11.175781 35.105469 11.34375 C 36.179688 11.492188 37.238281 11.738281 38.28125 12.03125 C 39.207031 12.292969 40.109375 12.621094 40.921875 13.152344 C 40.988281 13.199219 41.058594 13.246094 41.105469 13.328125 C 40.960938 13.28125 40.8125 13.230469 40.664062 13.183594 C 38.933594 12.605469 37.160156 12.210938 35.363281 11.9375 C 34.085938 11.742188 32.800781 11.5625 31.515625 11.4375 C 28.972656 11.1875 26.417969 11.097656 23.863281 11.167969 C 22.65625 11.203125 21.445312 11.246094 20.238281 11.335938 C 18.125 11.492188 16.023438 11.773438 13.949219 12.234375 C 13.324219 12.371094 12.703125 12.542969 12.082031 12.699219 C 12.03125 12.710938 11.976562 12.71875 11.925781 12.730469 C 11.917969 12.714844 11.914062 12.699219 11.910156 12.683594 C 12.296875 12.53125 12.679688 12.367188 13.074219 12.238281 Z M 37.925781 11.277344 C 37.605469 11.203125 37.300781 11.128906 36.996094 11.0625 C 35.894531 10.816406 34.78125 10.640625 33.664062 10.511719 C 32.910156 10.421875 32.15625 10.320312 31.402344 10.257812 C 30.429688 10.175781 29.453125 10.128906 28.480469 10.066406 C 27.90625 10.027344 27.332031 9.996094 26.757812 9.949219 C 25.972656 9.882812 25.191406 9.921875 24.40625 9.976562 C 23.277344 10.054688 22.144531 10.125 21.011719 10.21875 C 20.207031 10.289062 19.402344 10.371094 18.601562 10.480469 C 17.632812 10.609375 16.667969 10.742188 15.707031 10.925781 C 14.898438 11.078125 14.105469 11.308594 13.300781 11.503906 C 13.207031 11.527344 13.113281 11.554688 12.984375 11.589844 C 13.191406 10.160156 13.472656 8.773438 13.832031 7.402344 C 14.421875 7.316406 15 7.222656 15.574219 7.144531 C 16.417969 7.027344 17.261719 6.90625 18.105469 6.816406 C 19.027344 6.722656 19.949219 6.644531 20.875 6.589844 C 22.265625 6.511719 23.65625 6.445312 25.046875 6.394531 C 26.484375 6.34375 27.917969 6.347656 29.351562 6.421875 C 30.9375 6.503906 32.503906 6.722656 34.058594 7.058594 C 35.148438 7.292969 36.242188 7.523438 37.335938 7.757812 C 37.40625 7.773438 37.480469 7.796875 37.578125 7.820312 C 37.707031 8.972656 37.917969 10.101562 37.925781 11.277344 Z M 13.15625 6.707031 C 13.964844 6.484375 14.78125 6.242188 15.605469 6.039062 C 16.78125 5.746094 17.976562 5.558594 19.175781 5.414062 C 20.585938 5.246094 22 5.148438 23.417969 5.097656 C 24.878906 5.046875 26.339844 5.0625 27.796875 5.132812 C 29.789062 5.222656 31.773438 5.421875 33.746094 5.730469 C 35.285156 5.972656 36.8125 6.292969 38.320312 6.691406 C 38.386719 6.707031 38.449219 6.726562 38.53125 6.753906 C 38.648438 7.546875 38.792969 8.339844 38.835938 9.144531 C 38.878906 9.933594 38.894531 10.730469 38.921875 11.558594 C 38.671875 11.488281 38.460938 11.421875 38.289062 11.371094 C 38.242188 10.785156 38.210938 10.234375 38.15625 9.6875 C 38.113281 9.21875 38.050781 8.75 37.980469 8.289062 C 37.949219 8.082031 37.871094 7.882812 37.820312 7.683594 C 37.785156 7.542969 37.699219 7.472656 37.566406 7.4375 C 37.175781 7.34375 36.792969 7.230469 36.398438 7.148438 C 35.148438 6.894531 33.898438 6.636719 32.644531 6.40625 C 31.585938 6.214844 30.511719 6.113281 29.4375 6.058594 C 28.054688 5.984375 26.667969 5.949219 25.285156 6.015625 C 23.976562 6.074219 22.664062 6.109375 21.359375 6.1875 C 19.75 6.28125 18.144531 6.410156 16.554688 6.671875 C 15.632812 6.824219 14.714844 6.980469 13.792969 7.128906 C 13.6875 7.144531 13.648438 7.207031 13.617188 7.285156 C 13.488281 7.648438 13.339844 8.007812 13.246094 8.378906 C 12.96875 9.46875 12.734375 10.566406 12.636719 11.71875 C 12.410156 11.804688 12.195312 11.890625 11.957031 11.984375 C 12.261719 10.199219 12.734375 8.476562 13.15625 6.707031 Z M 41.4375 24.652344 C 41.460938 23.507812 42.429688 22.59375 43.585938 22.617188 C 44.734375 22.644531 45.625 23.574219 45.601562 24.714844 C 45.613281 25.792969 44.703125 26.851562 43.4375 26.804688 C 42.3125 26.765625 41.414062 25.8125 41.4375 24.652344 Z M 44.382812 18.945312 C 44.738281 18.925781 45.074219 18.964844 45.390625 19.109375 C 46.191406 19.476562 46.792969 20.066406 47.230469 20.828125 C 47.613281 21.496094 47.839844 22.222656 48.011719 22.972656 C 48.246094 23.988281 48.425781 25.011719 48.417969 26.058594 C 48.414062 26.578125 48.347656 27.097656 48.308594 27.617188 C 48.285156 27.898438 48.113281 28.050781 47.863281 28.128906 C 47.761719 28.164062 47.652344 28.179688 47.546875 28.179688 C 45.175781 28.128906 42.808594 28.078125 40.4375 28.027344 C 40.265625 28.023438 40.089844 28.027344 39.914062 28.027344 C 39.902344 28.003906 39.890625 27.984375 39.875 27.964844 C 40.417969 27.339844 40.957031 26.71875 41.511719 26.078125 C 41.570312 26.148438 41.628906 26.214844 41.683594 26.28125 C 42.722656 27.554688 44.667969 27.457031 45.578125 26.09375 C 46.429688 24.8125 45.835938 23 44.386719 22.46875 C 44.167969 22.386719 43.9375 22.34375 43.679688 22.273438 C 44.101562 21.222656 44.335938 20.113281 44.382812 18.945312 Z M 41.347656 41.121094 C 41.578125 41.078125 41.804688 41.035156 42.035156 40.992188 C 42.105469 40.980469 42.179688 40.972656 42.253906 40.964844 C 42.003906 41.21875 41.808594 41.472656 41.6875 41.78125 C 41.640625 41.90625 41.539062 41.90625 41.445312 41.921875 C 40.960938 41.992188 40.472656 42.054688 39.988281 42.125 C 39.703125 42.167969 39.417969 42.21875 39.109375 42.269531 C 39.128906 41.972656 39.253906 41.730469 39.4375 41.523438 C 39.488281 41.464844 39.59375 41.4375 39.679688 41.421875 C 40.234375 41.316406 40.792969 41.21875 41.347656 41.121094 Z M 43.886719 41.417969 C 44.109375 41.738281 44.183594 41.976562 44.199219 42.5 C 44.242188 42.910156 44.054688 43.289062 43.695312 43.582031 C 43.3125 43.894531 42.933594 43.933594 42.542969 43.605469 C 41.988281 43.136719 41.648438 42.21875 42.289062 41.375 C 42.738281 40.785156 43.460938 40.804688 43.886719 41.417969 Z M 42.292969 43.980469 C 41.496094 44.023438 40.695312 44.0625 39.898438 44.101562 C 39.886719 44.101562 39.878906 44.101562 39.871094 44.101562 C 39.484375 44.101562 39.417969 44.050781 39.28125 43.648438 C 40.128906 43.484375 40.988281 43.464844 41.8125 43.351562 C 42.007812 43.554688 42.1875 43.746094 42.378906 43.949219 C 42.351562 43.960938 42.324219 43.976562 42.292969 43.980469 Z M 39.160156 43.414062 C 39.007812 43.136719 38.988281 42.847656 39.046875 42.554688 C 39.894531 42.421875 40.730469 42.289062 41.550781 42.15625 C 41.601562 42.476562 41.65625 42.804688 41.710938 43.148438 C 40.867188 43.1875 40.011719 43.210938 39.160156 43.414062 Z M 33.261719 42.25 C 33.320312 42.3125 33.378906 42.382812 33.449219 42.410156 C 33.507812 42.4375 33.601562 42.429688 33.65625 42.394531 C 33.722656 42.351562 33.714844 42.261719 33.667969 42.191406 C 33.605469 42.105469 33.535156 42.019531 33.464844 41.933594 C 33.351562 41.792969 33.238281 41.648438 33.109375 41.488281 C 33.230469 41.425781 33.332031 41.375 33.4375 41.320312 C 33.613281 41.578125 33.769531 41.828125 33.941406 42.0625 C 34.113281 42.296875 34.300781 42.519531 34.492188 42.761719 C 34.136719 42.886719 33.867188 43.085938 33.671875 43.398438 C 33.261719 42.933594 32.878906 42.496094 32.476562 42.039062 C 32.566406 41.941406 32.660156 41.84375 32.769531 41.726562 C 32.945312 41.914062 33.101562 42.085938 33.261719 42.25 Z M 34.042969 41.359375 C 34.367188 41.730469 34.691406 42.101562 35.015625 42.472656 C 35.070312 42.535156 35.117188 42.601562 35.199219 42.703125 C 35.027344 42.703125 34.914062 42.703125 34.773438 42.703125 C 34.394531 42.246094 34.003906 41.769531 33.605469 41.289062 C 33.878906 41.164062 33.882812 41.171875 34.042969 41.359375 Z M 35.792969 44.359375 C 35.640625 44.601562 35.433594 44.773438 35.179688 44.894531 C 34.496094 45.222656 33.710938 44.59375 33.765625 43.964844 C 33.742188 43.757812 33.828125 43.578125 33.941406 43.410156 C 34.203125 43.027344 34.59375 42.886719 35.023438 42.890625 C 35.675781 42.898438 36.191406 43.734375 35.792969 44.359375 Z M 33.488281 44.25 C 33.011719 43.660156 32.574219 43.117188 32.128906 42.5625 C 32.207031 42.425781 32.285156 42.300781 32.375 42.15625 C 32.777344 42.648438 33.164062 43.125 33.554688 43.597656 C 33.535156 43.789062 33.511719 43.992188 33.488281 44.25 Z M 28.40625 43.449219 C 28.644531 43.421875 28.824219 43.480469 28.984375 43.660156 C 29.105469 43.796875 29.214844 43.9375 29.28125 44.113281 C 28.761719 44.175781 28.261719 44.234375 27.757812 44.296875 C 27.46875 44.332031 27.179688 44.367188 26.890625 44.394531 C 26.824219 44.402344 26.722656 44.386719 26.6875 44.34375 C 26.472656 44.074219 26.214844 43.855469 25.902344 43.683594 C 25.988281 43.671875 26.078125 43.65625 26.167969 43.648438 C 26.914062 43.582031 27.660156 43.523438 28.40625 43.449219 Z M 29.417969 44.382812 C 29.546875 44.636719 29.589844 44.917969 29.542969 45.238281 C 28.675781 45.277344 27.832031 45.453125 26.96875 45.664062 C 26.96875 45.484375 26.980469 45.324219 26.964844 45.160156 C 26.945312 44.996094 26.902344 44.835938 26.867188 44.65625 C 27.707031 44.566406 28.546875 44.476562 29.417969 44.382812 Z M 29.355469 45.933594 C 29.320312 45.992188 29.226562 46.035156 29.152344 46.054688 C 28.820312 46.140625 28.488281 46.226562 28.15625 46.296875 C 27.675781 46.402344 27.195312 46.492188 26.710938 46.589844 C 26.65625 46.601562 26.601562 46.605469 26.542969 46.609375 C 26.679688 46.367188 26.804688 46.132812 26.949219 45.875 C 27.757812 45.746094 28.605469 45.613281 29.472656 45.476562 C 29.480469 45.667969 29.425781 45.808594 29.355469 45.933594 Z M 26.285156 46.335938 C 26.023438 46.679688 25.703125 46.789062 25.292969 46.632812 C 24.867188 46.46875 24.558594 46.183594 24.433594 45.722656 C 24.324219 45.304688 24.296875 44.894531 24.464844 44.488281 C 24.574219 44.230469 24.738281 44.03125 25 43.917969 C 25.308594 43.78125 25.601562 43.847656 25.859375 44.011719 C 26.332031 44.3125 26.605469 44.746094 26.617188 45.3125 C 26.605469 45.695312 26.515625 46.035156 26.285156 46.335938 Z M 19.058594 42.492188 C 19.050781 42.503906 19.042969 42.515625 19.035156 42.527344 C 18.890625 42.472656 18.746094 42.417969 18.589844 42.359375 C 18.625 42.285156 18.65625 42.21875 18.6875 42.152344 C 18.707031 42.105469 18.734375 42.066406 18.773438 41.988281 C 18.878906 42.171875 18.96875 42.332031 19.058594 42.492188 Z M 19.351562 43.816406 C 19.351562 44.527344 18.730469 45.210938 18.085938 45.191406 C 17.285156 45.164062 16.71875 44.496094 16.730469 43.875 C 16.742188 43.273438 17.242188 42.578125 18.058594 42.582031 C 18.765625 42.585938 19.351562 43.144531 19.351562 43.816406 Z M 15.878906 41.199219 C 15.992188 41.117188 16.121094 41.03125 16.25 40.9375 C 16.453125 41.582031 16.648438 42.199219 16.855469 42.855469 C 16.753906 43 16.640625 43.160156 16.511719 43.339844 C 16.296875 42.617188 16.089844 41.921875 15.878906 41.199219 Z M 17.195312 40.574219 C 17.363281 41.15625 17.53125 41.738281 17.699219 42.332031 C 17.492188 42.433594 17.277344 42.539062 17.0625 42.640625 C 16.863281 42.039062 16.664062 41.4375 16.460938 40.832031 C 16.679688 40.683594 16.914062 40.617188 17.195312 40.574219 Z M 18.132812 40.714844 C 18.160156 40.722656 18.183594 40.753906 18.203125 40.78125 C 18.222656 40.804688 18.230469 40.839844 18.242188 40.871094 C 18.324219 41.0625 18.464844 41.25 18.472656 41.445312 C 18.484375 41.640625 18.363281 41.839844 18.300781 42.039062 C 18.273438 42.125 18.25 42.214844 18.21875 42.316406 C 18.140625 42.316406 18.0625 42.316406 18.007812 42.316406 C 17.796875 41.730469 17.59375 41.160156 17.386719 40.578125 C 17.664062 40.550781 17.894531 40.652344 18.132812 40.714844 Z M 13.75 41.785156 C 13.984375 41.761719 14.167969 41.804688 14.328125 41.988281 C 14.453125 42.128906 14.558594 42.269531 14.636719 42.449219 C 13.898438 42.539062 13.1875 42.625 12.476562 42.707031 C 12.375 42.71875 12.277344 42.738281 12.175781 42.734375 C 12.128906 42.734375 12.058594 42.710938 12.03125 42.671875 C 11.816406 42.398438 11.550781 42.191406 11.183594 42.027344 C 11.339844 42.007812 11.4375 41.992188 11.535156 41.984375 C 12.273438 41.917969 13.011719 41.859375 13.75 41.785156 Z M 14.765625 42.71875 C 14.90625 42.96875 14.925781 43.253906 14.886719 43.574219 C 14.019531 43.609375 13.171875 43.796875 12.34375 43.992188 C 12.3125 43.648438 12.28125 43.328125 12.246094 42.992188 C 13.0625 42.902344 13.90625 42.808594 14.765625 42.71875 Z M 14.828125 43.894531 C 14.804688 44.222656 14.636719 44.390625 14.308594 44.453125 C 13.53125 44.601562 12.757812 44.777344 11.984375 44.945312 C 11.960938 44.949219 11.9375 44.945312 11.898438 44.945312 C 12.03125 44.699219 12.15625 44.464844 12.292969 44.210938 C 13.121094 44.105469 13.953125 43.902344 14.824219 43.835938 C 14.828125 43.878906 14.828125 43.886719 14.828125 43.894531 Z M 11.5 44.832031 C 11.359375 44.972656 11.195312 45.035156 11 45.027344 C 10.53125 45.007812 10.152344 44.792969 9.929688 44.390625 C 9.65625 43.894531 9.59375 43.359375 9.820312 42.8125 C 9.921875 42.574219 10.078125 42.386719 10.316406 42.269531 C 10.636719 42.113281 10.945312 42.175781 11.21875 42.355469 C 12.1875 42.976562 12.152344 44.15625 11.5 44.832031 Z M 49.324219 29.941406 C 49.230469 29.445312 49.085938 28.964844 48.785156 28.546875 C 48.734375 28.476562 48.710938 28.414062 48.742188 28.316406 C 48.992188 27.523438 49.046875 26.703125 49.023438 25.875 C 48.996094 24.914062 48.84375 23.972656 48.636719 23.035156 C 48.460938 22.238281 48.234375 21.457031 47.839844 20.738281 C 47.382812 19.902344 46.765625 19.226562 45.929688 18.761719 C 45.472656 18.507812 45 18.390625 44.484375 18.523438 C 44.460938 18.527344 44.4375 18.519531 44.382812 18.515625 C 44.382812 18.382812 44.386719 18.25 44.382812 18.117188 C 44.375 17.980469 44.363281 17.847656 44.351562 17.714844 C 44.210938 15.984375 43.464844 14.546875 42.214844 13.375 C 41.433594 12.640625 40.515625 12.136719 39.515625 11.773438 C 39.429688 11.742188 39.347656 11.707031 39.277344 11.679688 C 39.292969 11.355469 39.320312 11.054688 39.324219 10.753906 C 39.332031 9.953125 39.265625 9.160156 39.167969 8.367188 C 39.09375 7.753906 38.996094 7.140625 38.816406 6.546875 C 38.792969 6.476562 38.726562 6.40625 38.664062 6.363281 C 38.605469 6.324219 38.523438 6.3125 38.453125 6.292969 C 37.054688 5.9375 35.640625 5.648438 34.214844 5.410156 C 32.617188 5.144531 31.011719 4.953125 29.398438 4.832031 C 27.523438 4.691406 25.648438 4.621094 23.769531 4.699219 C 22.84375 4.738281 21.917969 4.789062 20.996094 4.863281 C 20.230469 4.929688 19.472656 5.035156 18.710938 5.125 C 17.53125 5.265625 16.359375 5.429688 15.210938 5.722656 C 14.570312 5.886719 13.9375 6.066406 13.320312 6.300781 C 13.050781 6.402344 12.902344 6.574219 12.828125 6.84375 C 12.597656 7.675781 12.332031 8.496094 12.128906 9.335938 C 11.914062 10.234375 11.753906 11.140625 11.578125 12.046875 C 11.558594 12.15625 11.5 12.199219 11.417969 12.246094 C 11.125 12.421875 10.820312 12.585938 10.542969 12.785156 C 8.867188 13.984375 7.875 15.59375 7.671875 17.671875 C 7.644531 17.953125 7.632812 18.238281 7.613281 18.53125 C 7.5 18.511719 7.402344 18.496094 7.304688 18.480469 C 6.832031 18.414062 6.414062 18.570312 6.015625 18.800781 C 5.144531 19.308594 4.519531 20.046875 4.074219 20.949219 C 3.710938 21.675781 3.503906 22.453125 3.335938 23.242188 C 3.015625 24.78125 2.835938 26.324219 3.160156 27.886719 C 3.183594 28.007812 3.152344 28.089844 3.066406 28.179688 C 2.816406 28.4375 2.636719 28.738281 2.59375 29.101562 C 2.527344 29.703125 2.5625 30.304688 2.796875 30.863281 C 3.027344 31.402344 3.425781 31.769531 4.0625 31.765625 C 4.160156 31.765625 4.257812 31.78125 4.375 31.792969 C 4.375 31.917969 4.367188 32.035156 4.375 32.152344 C 4.425781 32.953125 4.464844 33.757812 4.539062 34.558594 C 4.585938 35.042969 4.675781 35.523438 4.777344 36 C 4.917969 36.644531 5.285156 37.132812 5.894531 37.394531 C 6.226562 37.539062 6.582031 37.648438 6.9375 37.738281 C 7.472656 37.875 8.027344 37.875 8.578125 37.878906 C 9.421875 37.890625 10.257812 37.816406 11.082031 37.601562 C 11.699219 37.441406 12.070312 37.050781 12.246094 36.441406 C 12.5 35.539062 12.585938 34.609375 12.625 33.679688 C 12.648438 33.132812 12.628906 32.585938 12.628906 32.042969 C 12.628906 31.96875 12.636719 31.898438 12.640625 31.835938 C 15.949219 31.835938 19.238281 31.835938 22.566406 31.835938 C 22.503906 31.925781 22.476562 31.972656 22.441406 32.019531 C 21.867188 32.75 21.300781 33.488281 20.722656 34.21875 C 20.207031 34.867188 19.636719 35.46875 19.039062 36.042969 C 18.113281 36.9375 17.09375 37.710938 16.066406 38.472656 C 15.042969 39.234375 14.082031 40.0625 13.304688 41.089844 C 13.195312 41.234375 13.097656 41.417969 12.945312 41.496094 C 12.796875 41.578125 12.585938 41.546875 12.40625 41.578125 C 11.765625 41.691406 11.125 41.789062 10.488281 41.929688 C 9.992188 42.042969 9.671875 42.371094 9.519531 42.878906 C 9.375 43.363281 9.441406 43.820312 9.578125 44.289062 C 9.734375 44.84375 10.476562 45.394531 11.101562 45.347656 C 11.328125 45.328125 11.554688 45.316406 11.773438 45.277344 C 12.4375 45.15625 13.101562 45.023438 13.761719 44.890625 C 14.066406 44.832031 14.367188 44.765625 14.664062 44.679688 C 14.78125 44.644531 14.929688 44.566406 14.984375 44.464844 C 15.210938 44.046875 15.351562 43.59375 15.308594 43.113281 C 15.253906 42.492188 14.925781 42.011719 14.449219 41.636719 C 14.273438 41.496094 14.066406 41.441406 13.835938 41.460938 C 13.742188 41.472656 13.644531 41.492188 13.539062 41.429688 C 13.726562 41.238281 13.894531 41.054688 14.074219 40.875 C 14.488281 40.464844 14.882812 40.023438 15.332031 39.652344 C 16.042969 39.070312 16.792969 38.53125 17.519531 37.972656 C 18.824219 36.96875 20.023438 35.851562 21.066406 34.570312 C 21.746094 33.730469 22.398438 32.871094 23.054688 32.011719 C 23.160156 31.875 23.265625 31.824219 23.429688 31.828125 C 23.789062 31.839844 24.148438 31.832031 24.507812 31.835938 C 24.558594 31.835938 24.613281 31.851562 24.683594 31.859375 C 24.628906 31.957031 24.589844 32.03125 24.542969 32.097656 C 24.226562 32.5625 23.925781 33.039062 23.589844 33.488281 C 22.644531 34.769531 21.675781 36.03125 20.734375 37.316406 C 19.910156 38.449219 19.222656 39.667969 18.683594 40.96875 C 18.671875 41.003906 18.644531 41.027344 18.605469 41.089844 C 18.539062 40.941406 18.5 40.824219 18.4375 40.714844 C 18.390625 40.632812 18.332031 40.53125 18.253906 40.492188 C 17.523438 40.125 16.503906 40.222656 15.867188 40.933594 C 15.710938 41.109375 15.65625 41.292969 15.722656 41.53125 C 15.867188 42.039062 15.988281 42.554688 16.125 43.066406 C 16.238281 43.492188 16.355469 43.921875 16.480469 44.347656 C 16.746094 45.253906 17.671875 45.652344 18.320312 45.535156 C 19.171875 45.382812 19.8125 44.53125 19.683594 43.671875 C 19.609375 43.179688 19.511719 42.679688 19.257812 42.234375 C 19.171875 42.082031 19.101562 41.921875 19.011719 41.769531 C 18.949219 41.664062 18.945312 41.574219 19 41.464844 C 19.175781 41.101562 19.34375 40.738281 19.511719 40.371094 C 20.234375 38.839844 21.171875 37.441406 22.179688 36.085938 C 23.1875 34.726562 24.25 33.40625 25.132812 31.957031 C 25.195312 31.855469 25.273438 31.832031 25.378906 31.832031 C 25.929688 31.835938 26.480469 31.835938 27.03125 31.839844 C 27.089844 31.839844 27.144531 31.847656 27.210938 31.855469 C 27.203125 31.921875 27.199219 31.980469 27.183594 32.035156 C 27.050781 32.574219 26.933594 33.117188 26.78125 33.648438 C 26.359375 35.113281 25.953125 36.582031 25.789062 38.109375 C 25.675781 39.15625 25.703125 40.1875 25.9375 41.214844 C 26.082031 41.859375 26.371094 42.445312 26.628906 43.046875 C 26.660156 43.117188 26.6875 43.191406 26.722656 43.277344 C 26.578125 43.300781 26.464844 43.316406 26.351562 43.339844 C 25.941406 43.421875 25.53125 43.488281 25.125 43.59375 C 24.628906 43.722656 24.308594 44.050781 24.164062 44.554688 C 24.027344 45.035156 24.089844 45.496094 24.230469 45.964844 C 24.390625 46.503906 25.117188 47.050781 25.742188 47.011719 C 25.976562 46.992188 26.210938 46.976562 26.4375 46.9375 C 27.09375 46.816406 27.75 46.6875 28.402344 46.558594 C 28.710938 46.496094 29.019531 46.421875 29.328125 46.34375 C 29.515625 46.292969 29.652344 46.179688 29.714844 45.984375 C 29.765625 45.816406 29.832031 45.652344 29.878906 45.484375 C 30.101562 44.640625 29.804688 43.8125 29.109375 43.304688 C 28.933594 43.175781 28.742188 43.109375 28.523438 43.125 C 28.230469 43.144531 27.941406 43.160156 27.648438 43.179688 C 27.460938 43.191406 27.269531 43.214844 27.074219 43.234375 C 26.925781 42.792969 26.773438 42.367188 26.640625 41.9375 C 26.332031 40.945312 26.152344 39.933594 26.199219 38.886719 C 26.253906 37.808594 26.441406 36.753906 26.695312 35.710938 C 26.933594 34.738281 27.199219 33.777344 27.441406 32.808594 C 27.523438 32.496094 27.578125 32.175781 27.644531 31.863281 C 27.972656 31.8125 29.078125 31.832031 29.277344 31.890625 C 29.324219 32.625 29.371094 33.371094 29.417969 34.117188 C 29.46875 34.9375 29.535156 35.757812 29.71875 36.5625 C 29.976562 37.714844 30.386719 38.804688 31.089844 39.753906 C 31.511719 40.324219 32 40.84375 32.460938 41.386719 C 32.519531 41.453125 32.578125 41.519531 32.632812 41.582031 C 32.40625 41.84375 32.175781 42.066406 32.0625 42.371094 C 32.007812 42.515625 32.007812 42.636719 32.101562 42.773438 C 32.597656 43.5 33.132812 44.195312 33.75 44.828125 C 34.398438 45.488281 35.167969 45.398438 35.753906 44.917969 C 36.363281 44.414062 36.335938 43.679688 35.941406 43.1875 C 35.59375 42.757812 35.214844 42.355469 34.84375 41.949219 C 34.589844 41.667969 34.320312 41.40625 34.0625 41.132812 C 33.964844 41.023438 33.847656 40.996094 33.722656 41.035156 C 33.472656 41.109375 33.226562 41.199219 32.960938 41.292969 C 32.746094 41.035156 32.507812 40.761719 32.285156 40.480469 C 31.929688 40.035156 31.554688 39.605469 31.238281 39.132812 C 30.398438 37.867188 30.003906 36.445312 29.863281 34.945312 C 29.808594 34.332031 29.773438 33.722656 29.726562 33.109375 C 29.695312 32.699219 29.660156 32.292969 29.621094 31.839844 C 29.722656 31.839844 29.804688 31.839844 29.886719 31.839844 C 30.359375 31.839844 30.835938 31.847656 31.3125 31.832031 C 31.507812 31.824219 31.617188 31.890625 31.699219 32.066406 C 32.054688 32.816406 32.425781 33.558594 32.777344 34.308594 C 33.097656 34.992188 33.445312 35.660156 33.882812 36.28125 C 34.625 37.335938 35.558594 38.195312 36.59375 38.945312 C 37.625 39.6875 38.730469 40.316406 39.875 40.871094 C 39.929688 40.898438 39.976562 40.9375 40.0625 40.992188 C 39.871094 41.035156 39.722656 41.054688 39.585938 41.109375 C 39.433594 41.167969 39.261719 41.230469 39.15625 41.34375 C 38.722656 41.820312 38.535156 42.394531 38.613281 43.039062 C 38.664062 43.421875 38.878906 43.738281 39.074219 44.058594 C 39.25 44.34375 39.492188 44.453125 39.808594 44.433594 C 39.851562 44.429688 39.894531 44.433594 39.9375 44.429688 C 40.445312 44.40625 40.953125 44.390625 41.460938 44.347656 C 42.039062 44.296875 42.625 44.238281 43.199219 44.140625 C 43.847656 44.027344 44.261719 43.589844 44.414062 42.972656 C 44.570312 42.339844 44.453125 41.71875 44.042969 41.183594 C 43.851562 40.933594 43.609375 40.738281 43.273438 40.714844 C 42.996094 40.695312 42.710938 40.675781 42.429688 40.691406 C 42.007812 40.71875 41.582031 40.761719 41.164062 40.824219 C 40.933594 40.859375 40.734375 40.824219 40.539062 40.710938 C 40.484375 40.679688 40.421875 40.652344 40.363281 40.617188 C 39.558594 40.140625 38.746094 39.679688 37.949219 39.183594 C 37.457031 38.875 36.976562 38.535156 36.511719 38.183594 C 35.191406 37.175781 34.164062 35.921875 33.445312 34.417969 C 33.054688 33.609375 32.644531 32.8125 32.246094 32.007812 C 32.222656 31.960938 32.203125 31.910156 32.183594 31.863281 C 34.632812 31.863281 37.066406 31.863281 39.511719 31.863281 C 39.515625 31.933594 39.523438 31.984375 39.523438 32.03125 C 39.515625 32.359375 39.488281 32.6875 39.503906 33.015625 C 39.539062 33.757812 39.574219 34.507812 39.652344 35.25 C 39.703125 35.75 39.804688 36.246094 39.988281 36.71875 C 40.152344 37.132812 40.441406 37.417969 40.863281 37.558594 C 41.09375 37.636719 41.328125 37.691406 41.566406 37.738281 C 42.421875 37.917969 43.289062 37.914062 44.15625 37.890625 C 44.820312 37.871094 45.464844 37.757812 46.085938 37.503906 C 46.820312 37.207031 47.246094 36.664062 47.402344 35.886719 C 47.59375 34.910156 47.679688 33.925781 47.738281 32.9375 C 47.753906 32.621094 47.765625 32.304688 47.785156 31.96875 C 47.898438 31.960938 47.996094 31.941406 48.09375 31.949219 C 48.554688 31.972656 48.882812 31.746094 49.089844 31.355469 C 49.320312 30.917969 49.417969 30.4375 49.324219 29.941406 " fill-opacity="1" fill-rule="nonzero"/></g><path fill="#000000" d="M 33.089844 25.277344 C 32.929688 25.304688 32.761719 25.355469 32.570312 25.261719 C 32.570312 25.023438 32.5625 24.773438 32.570312 24.523438 C 32.582031 24.265625 32.601562 24.003906 32.628906 23.746094 C 32.671875 23.25 32.683594 22.757812 32.59375 22.261719 C 33.289062 21.925781 33.957031 21.566406 34.691406 21.359375 C 34.929688 21.292969 35.167969 21.214844 35.40625 21.140625 C 35.613281 21.074219 35.664062 21 35.617188 20.785156 C 35.578125 20.605469 35.519531 20.429688 35.472656 20.25 C 35.460938 20.214844 35.457031 20.175781 35.449219 20.125 C 36.179688 20.222656 36.875 20.074219 37.566406 19.921875 C 38.273438 19.765625 38.976562 19.582031 39.679688 19.410156 C 39.820312 19.375 39.960938 19.328125 40.125 19.316406 C 40.054688 19.40625 39.984375 19.496094 39.90625 19.582031 C 39.476562 20.0625 39.035156 20.53125 38.617188 21.023438 C 38.40625 21.277344 38.234375 21.570312 38.050781 21.847656 C 38.007812 21.917969 37.976562 22 37.957031 22.078125 C 37.882812 22.332031 37.957031 22.527344 38.175781 22.664062 C 38.296875 22.738281 38.425781 22.796875 38.554688 22.859375 C 38.992188 23.066406 39.429688 23.269531 39.867188 23.476562 C 39.933594 23.507812 39.996094 23.546875 40.0625 23.582031 C 40.0625 23.597656 40.058594 23.617188 40.058594 23.636719 C 39.480469 23.816406 38.902344 24 38.320312 24.175781 C 37.199219 24.515625 36.058594 24.753906 34.910156 24.960938 C 34.304688 25.070312 33.695312 25.179688 33.089844 25.277344 Z M 31.1875 21.371094 C 30.246094 21.550781 29.292969 21.558594 28.347656 21.425781 C 27.339844 21.285156 26.339844 21.097656 25.335938 20.921875 C 24.144531 20.71875 22.945312 20.546875 21.730469 20.566406 C 20.546875 20.585938 19.363281 20.667969 18.207031 20.953125 C 17.757812 21.0625 17.316406 21.222656 16.847656 21.367188 C 16.890625 20.671875 16.960938 20 17.113281 19.332031 C 17.34375 18.316406 17.710938 17.34375 18.015625 16.351562 C 18.117188 16.023438 18.285156 15.871094 18.597656 15.757812 C 19.820312 15.308594 21.089844 15.078125 22.371094 14.902344 C 23.445312 14.753906 24.523438 14.652344 25.613281 14.699219 C 26.507812 14.738281 27.386719 14.894531 28.246094 15.140625 C 29.667969 15.550781 31.109375 15.6875 32.578125 15.550781 C 33.101562 15.5 33.621094 15.402344 34.140625 15.328125 C 34.195312 15.320312 34.25 15.320312 34.3125 15.3125 C 34.464844 17.132812 34.71875 18.921875 35.222656 20.6875 C 35.148438 20.695312 35.085938 20.707031 35.023438 20.707031 C 34.511719 20.691406 34.011719 20.769531 33.511719 20.882812 C 32.742188 21.058594 31.964844 21.222656 31.1875 21.371094 Z M 18.007812 24.648438 C 16.636719 25.039062 13.613281 25.121094 12.863281 24.769531 C 12.929688 24.699219 12.992188 24.640625 13.050781 24.578125 C 13.359375 24.257812 13.675781 23.945312 13.964844 23.609375 C 14.089844 23.46875 14.175781 23.289062 14.242188 23.109375 C 14.339844 22.859375 14.269531 22.640625 14.042969 22.496094 C 13.871094 22.378906 13.679688 22.292969 13.488281 22.214844 C 12.941406 22 12.371094 21.882812 11.789062 21.785156 C 13.4375 21.324219 15.03125 20.722656 16.59375 19.9375 C 16.566406 20.164062 16.53125 20.367188 16.519531 20.570312 C 16.5 20.914062 16.472656 21.257812 16.488281 21.597656 C 16.496094 21.835938 16.535156 21.820312 16.769531 21.839844 C 17.230469 21.875 17.703125 21.808594 18.1875 21.941406 C 17.925781 22.832031 17.957031 23.746094 18.007812 24.648438 Z M 40.179688 23.992188 C 40.332031 23.941406 40.476562 23.871094 40.613281 23.792969 C 40.761719 23.703125 40.78125 23.546875 40.660156 23.4375 C 40.589844 23.371094 40.5 23.320312 40.40625 23.277344 C 39.808594 23.003906 39.207031 22.730469 38.605469 22.464844 C 38.234375 22.296875 38.222656 22.253906 38.40625 21.886719 C 38.597656 21.515625 38.871094 21.210938 39.144531 20.902344 C 39.503906 20.496094 39.855469 20.082031 40.203125 19.664062 C 40.296875 19.554688 40.367188 19.429688 40.433594 19.304688 C 40.546875 19.089844 40.484375 18.96875 40.242188 18.941406 C 40.117188 18.929688 39.988281 18.933594 39.871094 18.964844 C 39.421875 19.070312 38.984375 19.199219 38.535156 19.300781 C 37.730469 19.484375 36.925781 19.667969 36.117188 19.824219 C 35.886719 19.871094 35.640625 19.832031 35.382812 19.832031 C 35.359375 19.753906 35.335938 19.683594 35.320312 19.613281 C 35.121094 18.59375 34.9375 17.570312 34.863281 16.527344 C 34.832031 16.105469 34.757812 15.679688 34.675781 15.261719 C 34.625 14.996094 34.542969 14.941406 34.277344 14.953125 C 33.875 14.96875 33.472656 14.976562 33.078125 15.019531 C 31.433594 15.207031 29.816406 15.097656 28.21875 14.640625 C 27.292969 14.375 26.347656 14.214844 25.382812 14.195312 C 24.699219 14.183594 24.015625 14.21875 23.335938 14.292969 C 22.320312 14.40625 21.316406 14.558594 20.332031 14.832031 C 19.621094 15.035156 18.910156 15.253906 18.199219 15.46875 C 18.011719 15.523438 17.890625 15.648438 17.824219 15.835938 C 17.40625 17.015625 16.960938 18.183594 16.703125 19.410156 C 16.679688 19.527344 16.625 19.582031 16.519531 19.617188 C 16.3125 19.6875 16.109375 19.761719 15.910156 19.84375 C 14.757812 20.304688 13.601562 20.765625 12.417969 21.148438 C 12.054688 21.269531 11.699219 21.417969 11.34375 21.558594 C 11.253906 21.59375 11.160156 21.644531 11.085938 21.707031 C 10.964844 21.8125 11 21.976562 11.148438 22.023438 C 11.21875 22.046875 11.296875 22.050781 11.371094 22.0625 C 11.515625 22.085938 11.667969 22.097656 11.8125 22.140625 C 12.226562 22.261719 12.640625 22.390625 13.054688 22.527344 C 13.289062 22.605469 13.523438 22.699219 13.753906 22.796875 C 13.917969 22.871094 13.945312 22.929688 13.863281 23.089844 C 13.78125 23.253906 13.683594 23.414062 13.558594 23.550781 C 13.257812 23.875 12.941406 24.183594 12.632812 24.503906 C 12.5625 24.574219 12.492188 24.648438 12.441406 24.734375 C 12.359375 24.867188 12.382812 24.976562 12.519531 25.054688 C 12.617188 25.109375 12.730469 25.152344 12.84375 25.183594 C 13.3125 25.304688 13.785156 25.371094 14.273438 25.402344 C 15.621094 25.488281 16.953125 25.34375 18.277344 25.105469 C 18.515625 25.058594 18.515625 25.054688 18.507812 24.808594 C 18.496094 24.484375 18.46875 24.152344 18.488281 23.828125 C 18.539062 22.953125 18.714844 22.101562 19.050781 21.261719 C 19.875 21.113281 20.707031 21.058594 21.542969 21.066406 C 22.808594 21.074219 24.054688 21.246094 25.292969 21.480469 C 26.375 21.6875 27.449219 21.925781 28.546875 22.035156 C 29.40625 22.121094 30.265625 22.117188 31.117188 21.980469 C 31.460938 21.925781 31.804688 21.855469 32.167969 21.789062 C 32.183594 21.90625 32.203125 22.019531 32.214844 22.136719 C 32.300781 22.984375 32.191406 23.828125 32.148438 24.675781 C 32.136719 24.898438 32.160156 25.128906 32.210938 25.347656 C 32.265625 25.59375 32.414062 25.691406 32.664062 25.691406 C 32.816406 25.691406 32.964844 25.679688 33.113281 25.65625 C 33.632812 25.570312 34.148438 25.472656 34.667969 25.394531 C 35.863281 25.214844 37.054688 25.007812 38.210938 24.636719 C 38.867188 24.425781 39.527344 24.210938 40.179688 23.992188 " fill-opacity="1" fill-rule="nonzero"/><path fill="#000000" d="M 8.316406 34.382812 C 8.292969 34.328125 8.214844 34.269531 8.15625 34.261719 C 8.117188 34.253906 8.039062 34.324219 8.019531 34.378906 C 7.871094 34.8125 7.914062 35.234375 8.109375 35.644531 C 8.136719 35.699219 8.226562 35.75 8.285156 35.75 C 8.382812 35.753906 8.421875 35.667969 8.425781 35.574219 C 8.429688 35.441406 8.425781 35.308594 8.425781 35.171875 C 8.449219 34.902344 8.425781 34.632812 8.316406 34.382812 " fill-opacity="1" fill-rule="nonzero"/><path fill="#000000" d="M 10.339844 34.152344 C 10.277344 34.167969 10.199219 34.226562 10.183594 34.285156 C 10.125 34.457031 10.09375 34.640625 10.058594 34.796875 C 10.085938 34.964844 10.105469 35.105469 10.132812 35.246094 C 10.152344 35.34375 10.226562 35.40625 10.324219 35.414062 C 10.429688 35.421875 10.503906 35.363281 10.535156 35.269531 C 10.640625 34.941406 10.640625 34.609375 10.523438 34.285156 C 10.492188 34.199219 10.433594 34.125 10.339844 34.152344 " fill-opacity="1" fill-rule="nonzero"/><path fill="#000000" d="M 6.035156 34.074219 C 5.992188 34.070312 5.921875 34.140625 5.90625 34.191406 C 5.804688 34.578125 5.804688 34.96875 5.917969 35.355469 C 5.945312 35.453125 6.007812 35.523438 6.113281 35.507812 C 6.222656 35.496094 6.257812 35.40625 6.265625 35.308594 C 6.273438 35.199219 6.277344 35.089844 6.28125 34.980469 C 6.292969 34.980469 6.304688 34.976562 6.316406 34.976562 C 6.269531 34.714844 6.226562 34.453125 6.171875 34.191406 C 6.160156 34.140625 6.085938 34.074219 6.035156 34.074219 " fill-opacity="1" fill-rule="nonzero"/><path fill="#000000" d="M 44.085938 34.332031 C 44.03125 34.25 43.9375 34.246094 43.875 34.324219 C 43.835938 34.375 43.800781 34.4375 43.789062 34.5 C 43.746094 34.738281 43.710938 34.976562 43.667969 35.214844 C 43.679688 35.21875 43.6875 35.21875 43.695312 35.222656 C 43.707031 35.363281 43.710938 35.507812 43.734375 35.648438 C 43.742188 35.695312 43.792969 35.761719 43.835938 35.765625 C 43.890625 35.773438 43.960938 35.742188 44.007812 35.707031 C 44.046875 35.683594 44.066406 35.625 44.082031 35.578125 C 44.214844 35.242188 44.234375 34.894531 44.171875 34.539062 C 44.15625 34.46875 44.128906 34.394531 44.085938 34.332031 " fill-opacity="1" fill-rule="nonzero"/><path fill="#000000" d="M 41.789062 34.171875 C 41.722656 34.191406 41.640625 34.261719 41.621094 34.324219 C 41.566406 34.480469 41.546875 34.648438 41.515625 34.804688 C 41.542969 34.96875 41.5625 35.117188 41.597656 35.261719 C 41.621094 35.371094 41.695312 35.4375 41.8125 35.4375 C 41.917969 35.433594 41.988281 35.371094 42.011719 35.273438 C 42.097656 34.949219 42.089844 34.625 41.96875 34.3125 C 41.9375 34.230469 41.882812 34.144531 41.789062 34.171875 " fill-opacity="1" fill-rule="nonzero"/><path fill="#000000" d="M 46.109375 34.089844 C 46.058594 34.140625 46.003906 34.1875 45.960938 34.242188 C 45.941406 34.265625 45.941406 34.304688 45.933594 34.335938 C 45.855469 34.664062 45.835938 34.992188 45.882812 35.328125 C 45.898438 35.425781 45.910156 35.515625 46.027344 35.527344 C 46.152344 35.542969 46.214844 35.464844 46.234375 35.355469 C 46.269531 35.167969 46.292969 34.980469 46.320312 34.796875 C 46.292969 34.605469 46.28125 34.421875 46.242188 34.242188 C 46.230469 34.183594 46.152344 34.140625 46.109375 34.089844 " fill-opacity="1" fill-rule="nonzero"/><path fill="#000000" d="M 8.375 23.1875 C 9.214844 23.1875 9.882812 23.875 9.878906 24.742188 C 9.878906 25.585938 9.207031 26.257812 8.367188 26.253906 C 7.527344 26.253906 6.839844 25.546875 6.847656 24.703125 C 6.859375 23.867188 7.546875 23.1875 8.375 23.1875 Z M 8.398438 26.519531 C 9.367188 26.523438 10.171875 25.726562 10.179688 24.75 C 10.191406 23.785156 9.378906 22.972656 8.40625 22.96875 C 7.429688 22.96875 6.636719 23.765625 6.632812 24.742188 C 6.632812 25.730469 7.410156 26.515625 8.398438 26.519531 " fill-opacity="1" fill-rule="nonzero"/><path fill="#000000" d="M 43.488281 23.1875 C 44.332031 23.195312 44.992188 23.882812 44.988281 24.746094 C 44.984375 25.589844 44.308594 26.261719 43.46875 26.253906 C 42.640625 26.25 41.960938 25.558594 41.957031 24.722656 C 41.953125 23.882812 42.65625 23.179688 43.488281 23.1875 Z M 43.507812 26.519531 C 44.480469 26.519531 45.28125 25.726562 45.289062 24.746094 C 45.300781 23.785156 44.488281 22.972656 43.515625 22.96875 C 42.539062 22.96875 41.746094 23.765625 41.742188 24.742188 C 41.742188 25.734375 42.519531 26.515625 43.507812 26.519531 " fill-opacity="1" fill-rule="nonzero"/><path fill="#000000" d="M 25.785156 45.789062 C 25.609375 45.96875 25.359375 45.960938 25.191406 45.777344 C 24.902344 45.457031 24.917969 44.910156 25.226562 44.613281 C 25.46875 44.382812 25.757812 44.441406 25.882812 44.75 C 25.910156 44.820312 25.9375 44.890625 25.953125 44.964844 C 25.96875 45.046875 25.972656 45.132812 25.976562 45.179688 C 25.984375 45.429688 25.941406 45.632812 25.785156 45.789062 Z M 26.09375 44.5 C 25.824219 44.136719 25.335938 44.132812 25.046875 44.472656 C 24.695312 44.882812 24.667969 45.339844 24.863281 45.8125 C 25.0625 46.304688 25.628906 46.414062 26.011719 46.046875 C 26.234375 45.832031 26.328125 45.5625 26.324219 45.253906 C 26.324219 44.980469 26.257812 44.722656 26.09375 44.5 " fill-opacity="1" fill-rule="nonzero"/><path fill="#000000" d="M 11.148438 44.113281 C 10.96875 44.304688 10.707031 44.300781 10.535156 44.109375 C 10.246094 43.78125 10.269531 43.242188 10.582031 42.945312 C 10.828125 42.714844 11.109375 42.777344 11.234375 43.09375 C 11.269531 43.179688 11.296875 43.269531 11.316406 43.359375 C 11.332031 43.429688 11.328125 43.507812 11.332031 43.542969 C 11.335938 43.78125 11.285156 43.964844 11.148438 44.113281 Z M 11.429688 42.816406 C 11.160156 42.476562 10.671875 42.476562 10.394531 42.808594 C 10.0625 43.210938 10.011719 43.652344 10.199219 44.125 C 10.40625 44.652344 11.007812 44.765625 11.398438 44.347656 C 11.597656 44.136719 11.671875 43.878906 11.683594 43.566406 C 11.667969 43.308594 11.605469 43.042969 11.429688 42.816406 " fill-opacity="1" fill-rule="nonzero"/><path fill="#000000" d="M 42.554688 41.964844 C 42.605469 41.65625 42.851562 41.535156 43.128906 41.675781 C 43.421875 41.824219 43.550781 42.046875 43.5625 42.410156 C 43.546875 42.519531 43.542969 42.628906 43.511719 42.730469 C 43.414062 43.027344 43.121094 43.125 42.875 42.9375 C 42.785156 42.867188 42.703125 42.773438 42.652344 42.671875 C 42.539062 42.449219 42.515625 42.207031 42.554688 41.964844 Z M 42.289062 42.707031 C 42.386719 42.96875 42.546875 43.171875 42.800781 43.296875 C 43.230469 43.503906 43.683594 43.292969 43.796875 42.828125 C 43.816406 42.738281 43.824219 42.644531 43.835938 42.554688 C 43.851562 42.054688 43.613281 41.703125 43.207031 41.453125 C 43.113281 41.398438 42.988281 41.355469 42.882812 41.363281 C 42.558594 41.382812 42.3125 41.617188 42.242188 41.941406 C 42.183594 42.199219 42.195312 42.457031 42.289062 42.707031 " fill-opacity="1" fill-rule="nonzero"/><path fill="#000000" d="M 18.171875 44.621094 C 17.71875 44.699219 17.347656 44.378906 17.351562 43.867188 C 17.398438 43.609375 17.410156 43.296875 17.703125 43.089844 C 18.109375 42.800781 18.660156 42.980469 18.8125 43.460938 C 18.976562 43.988281 18.679688 44.53125 18.171875 44.621094 Z M 18.023438 42.738281 C 17.902344 42.75 17.777344 42.796875 17.679688 42.863281 C 17.375 43.066406 17.242188 43.375 17.175781 43.726562 C 17.105469 44.109375 17.242188 44.535156 17.546875 44.722656 C 17.878906 44.929688 18.234375 44.90625 18.566406 44.71875 C 18.945312 44.507812 19.050781 44.144531 19.0625 43.648438 C 19.101562 43.0625 18.5625 42.683594 18.023438 42.738281 " fill-opacity="1" fill-rule="nonzero"/><path fill="#000000" d="M 35.226562 43.28125 C 35.414062 43.378906 35.480469 43.554688 35.480469 43.761719 C 35.476562 44.0625 35.101562 44.476562 34.796875 44.496094 C 34.714844 44.503906 34.609375 44.472656 34.546875 44.421875 C 34.164062 44.089844 34.207031 43.570312 34.609375 43.289062 C 34.785156 43.160156 35.023438 43.171875 35.226562 43.28125 Z M 34.082031 43.914062 C 34.132812 44.078125 34.167969 44.253906 34.246094 44.40625 C 34.359375 44.628906 34.550781 44.761719 34.8125 44.734375 C 35.171875 44.703125 35.5625 44.355469 35.652344 44.003906 C 35.761719 43.589844 35.546875 43.164062 35.175781 43.089844 C 35.050781 43.066406 34.914062 43.089844 34.785156 43.109375 C 34.351562 43.183594 34.117188 43.464844 34.082031 43.914062 " fill-opacity="1" fill-rule="nonzero"/><path fill="#000000" d="M 22.179688 17.542969 C 22.050781 17.484375 21.929688 17.53125 21.835938 17.625 C 21.675781 17.78125 21.523438 17.949219 21.371094 18.113281 C 21.300781 18.191406 21.242188 18.273438 21.152344 18.390625 C 21.109375 18.238281 21.082031 18.132812 21.050781 18.03125 C 21.003906 17.890625 20.964844 17.738281 20.898438 17.605469 C 20.785156 17.390625 20.546875 17.394531 20.425781 17.605469 C 20.394531 17.664062 20.371094 17.730469 20.351562 17.792969 C 20.132812 18.398438 19.914062 19.003906 19.695312 19.609375 C 19.675781 19.664062 19.648438 19.722656 19.648438 19.777344 C 19.648438 19.917969 19.777344 19.984375 19.890625 19.90625 C 19.925781 19.886719 19.949219 19.851562 19.980469 19.820312 C 20.222656 19.558594 20.382812 19.246094 20.511719 18.917969 C 20.554688 18.804688 20.605469 18.691406 20.664062 18.550781 C 20.722656 18.710938 20.753906 18.832031 20.808594 18.945312 C 20.914062 19.160156 21.121094 19.179688 21.269531 18.996094 C 21.324219 18.933594 21.363281 18.855469 21.414062 18.789062 C 21.535156 18.625 21.660156 18.460938 21.78125 18.292969 C 21.796875 18.304688 21.808594 18.316406 21.820312 18.328125 C 21.785156 18.644531 21.734375 18.957031 21.71875 19.273438 C 21.707031 19.429688 21.746094 19.589844 21.785156 19.742188 C 21.808594 19.832031 21.882812 19.894531 21.992188 19.894531 C 22.097656 19.890625 22.160156 19.820312 22.1875 19.726562 C 22.21875 19.617188 22.242188 19.5 22.25 19.382812 C 22.277344 19.023438 22.292969 18.664062 22.3125 18.304688 C 22.324219 18.160156 22.339844 18.019531 22.347656 17.878906 C 22.351562 17.734375 22.320312 17.601562 22.179688 17.542969 " fill-opacity="1" fill-rule="nonzero"/><path fill="#000000" d="M 32.964844 19.078125 C 32.902344 19.597656 32.617188 19.851562 32.050781 19.871094 C 32.0625 19.375 32.078125 18.875 32.09375 18.390625 C 32.625 18.234375 33.027344 18.574219 32.964844 19.078125 Z M 32.234375 17.933594 C 32.125 17.945312 32.015625 17.941406 31.867188 17.949219 C 31.84375 18.007812 31.789062 18.09375 31.78125 18.1875 C 31.722656 18.804688 31.679688 19.421875 31.628906 20.039062 C 31.625 20.085938 31.625 20.140625 31.636719 20.1875 C 31.667969 20.332031 31.8125 20.398438 31.914062 20.296875 C 32.007812 20.207031 32.085938 20.234375 32.183594 20.242188 C 32.273438 20.25 32.367188 20.253906 32.457031 20.238281 C 32.902344 20.15625 33.210938 19.910156 33.34375 19.460938 C 33.484375 18.984375 33.382812 18.566406 33.027344 18.21875 C 32.808594 18.003906 32.546875 17.898438 32.234375 17.933594 " fill-opacity="1" fill-rule="nonzero"/><path fill="#000000" d="M 27.289062 18.449219 C 27.167969 18.53125 27.03125 18.59375 26.871094 18.574219 C 26.871094 18.363281 26.871094 18.15625 26.871094 17.90625 C 27.03125 17.957031 27.15625 17.976562 27.265625 18.03125 C 27.453125 18.128906 27.464844 18.328125 27.289062 18.449219 Z M 27.585938 17.828125 C 27.367188 17.644531 27.121094 17.582031 26.839844 17.652344 C 26.585938 17.714844 26.582031 17.707031 26.550781 17.957031 C 26.480469 18.488281 26.402344 19.019531 26.34375 19.554688 C 26.324219 19.707031 26.347656 19.871094 26.378906 20.023438 C 26.390625 20.078125 26.476562 20.136719 26.535156 20.152344 C 26.570312 20.15625 26.648438 20.078125 26.660156 20.027344 C 26.707031 19.867188 26.726562 19.699219 26.757812 19.535156 C 26.773438 19.46875 26.785156 19.402344 26.808594 19.289062 C 26.980469 19.546875 27.121094 19.753906 27.261719 19.960938 C 27.316406 20.035156 27.367188 20.109375 27.433594 20.175781 C 27.503906 20.242188 27.59375 20.265625 27.683594 20.203125 C 27.777344 20.144531 27.800781 20.054688 27.765625 19.960938 C 27.730469 19.871094 27.683594 19.78125 27.621094 19.703125 C 27.429688 19.449219 27.226562 19.207031 27.019531 18.945312 C 27.183594 18.886719 27.339844 18.851562 27.476562 18.777344 C 27.875 18.574219 27.925781 18.113281 27.585938 17.828125 " fill-opacity="1" fill-rule="nonzero"/><path fill="#000000" d="M 25.503906 18.332031 C 25.378906 18.40625 25.234375 18.441406 25.054688 18.511719 C 25.078125 18.289062 25.09375 18.121094 25.117188 17.90625 C 25.261719 17.933594 25.382812 17.9375 25.480469 17.980469 C 25.648438 18.0625 25.664062 18.234375 25.503906 18.332031 Z M 25.863281 18.429688 C 26.121094 18.085938 25.949219 17.632812 25.523438 17.566406 C 25.390625 17.546875 25.246094 17.601562 25.105469 17.589844 C 24.90625 17.570312 24.839844 17.6875 24.800781 17.847656 C 24.6875 18.34375 24.566406 18.839844 24.464844 19.339844 C 24.433594 19.488281 24.449219 19.640625 24.449219 19.792969 C 24.449219 19.894531 24.484375 19.976562 24.597656 19.992188 C 24.710938 20.007812 24.761719 19.929688 24.796875 19.835938 C 24.8125 19.789062 24.832031 19.742188 24.839844 19.695312 C 24.886719 19.5 24.929688 19.308594 24.980469 19.078125 C 25.035156 19.15625 25.070312 19.207031 25.105469 19.261719 C 25.277344 19.507812 25.445312 19.753906 25.621094 20 C 25.660156 20.054688 25.710938 20.109375 25.769531 20.132812 C 25.824219 20.152344 25.902344 20.144531 25.949219 20.117188 C 25.980469 20.097656 25.984375 20.011719 25.96875 19.960938 C 25.945312 19.882812 25.90625 19.808594 25.859375 19.738281 C 25.664062 19.441406 25.460938 19.144531 25.246094 18.828125 C 25.488281 18.726562 25.714844 18.632812 25.863281 18.429688 " fill-opacity="1" fill-rule="nonzero"/><path fill="#000000" d="M 23.601562 18.523438 C 23.515625 18.523438 23.445312 18.523438 23.355469 18.523438 C 23.382812 18.347656 23.460938 18.21875 23.601562 18.101562 C 23.601562 18.261719 23.601562 18.390625 23.601562 18.523438 Z M 23.992188 18.007812 C 23.980469 17.894531 23.933594 17.777344 23.878906 17.675781 C 23.769531 17.464844 23.578125 17.4375 23.410156 17.601562 C 23.339844 17.671875 23.269531 17.75 23.222656 17.835938 C 22.90625 18.394531 22.664062 18.976562 22.53125 19.605469 C 22.515625 19.675781 22.515625 19.757812 22.53125 19.828125 C 22.546875 19.875 22.601562 19.9375 22.644531 19.941406 C 22.699219 19.945312 22.777344 19.910156 22.804688 19.863281 C 22.855469 19.78125 22.875 19.679688 22.90625 19.582031 C 22.992188 19.332031 23.078125 19.082031 23.164062 18.824219 C 23.328125 18.847656 23.460938 18.863281 23.609375 18.886719 C 23.609375 19.121094 23.609375 19.328125 23.609375 19.535156 C 23.613281 19.613281 23.617188 19.6875 23.636719 19.757812 C 23.660156 19.855469 23.734375 19.921875 23.832031 19.925781 C 23.945312 19.929688 24.023438 19.867188 24.054688 19.757812 C 24.074219 19.679688 24.09375 19.59375 24.089844 19.511719 C 24.0625 19.007812 24.03125 18.507812 23.992188 18.007812 " fill-opacity="1" fill-rule="nonzero"/><path fill="#000000" d="M 30.992188 17.933594 C 30.726562 17.914062 30.464844 17.886719 30.199219 17.882812 C 30.074219 17.878906 29.976562 17.949219 29.949219 18.085938 C 29.921875 18.226562 29.882812 18.363281 29.863281 18.503906 C 29.828125 18.792969 29.804688 19.085938 29.773438 19.375 C 29.75 19.625 29.714844 19.875 29.703125 20.125 C 29.695312 20.351562 29.796875 20.441406 30.019531 20.453125 C 30.132812 20.460938 30.25 20.484375 30.367188 20.476562 C 30.511719 20.464844 30.664062 20.445312 30.804688 20.40625 C 30.910156 20.382812 30.972656 20.292969 30.957031 20.179688 C 30.9375 20.058594 30.847656 20.019531 30.738281 20.015625 C 30.695312 20.011719 30.65625 20.023438 30.613281 20.023438 C 30.46875 20.019531 30.324219 20.015625 30.167969 20.011719 C 30.1875 19.738281 30.207031 19.496094 30.226562 19.242188 C 30.421875 19.242188 30.601562 19.246094 30.785156 19.242188 C 30.898438 19.242188 31.003906 19.21875 31.027344 19.082031 C 31.046875 18.972656 30.96875 18.878906 30.820312 18.84375 C 30.773438 18.832031 30.722656 18.832031 30.671875 18.824219 C 30.527344 18.800781 30.382812 18.777344 30.234375 18.75 C 30.246094 18.574219 30.257812 18.417969 30.269531 18.25 C 30.324219 18.246094 30.375 18.238281 30.421875 18.238281 C 30.605469 18.234375 30.789062 18.234375 30.972656 18.230469 C 31.066406 18.226562 31.132812 18.183594 31.132812 18.078125 C 31.132812 17.992188 31.078125 17.9375 30.992188 17.933594 " fill-opacity="1" fill-rule="nonzero"/><path fill="#000000" d="M 24.800781 15.261719 C 24.800781 15.261719 24.804688 15.257812 24.804688 15.253906 C 24.804688 15.253906 24.800781 15.253906 24.796875 15.257812 C 24.800781 15.257812 24.800781 15.261719 24.800781 15.261719 " fill-opacity="1" fill-rule="nonzero"/><path fill="#000000" d="M 24.753906 16.328125 C 24.753906 16.433594 24.777344 16.546875 24.8125 16.648438 C 24.914062 16.9375 25.175781 17.019531 25.402344 16.820312 C 25.523438 16.714844 25.640625 16.574219 25.695312 16.425781 C 25.792969 16.167969 25.84375 15.894531 25.90625 15.628906 C 25.929688 15.53125 25.949219 15.425781 25.9375 15.328125 C 25.929688 15.265625 25.882812 15.183594 25.828125 15.15625 C 25.75 15.113281 25.683594 15.175781 25.65625 15.253906 C 25.613281 15.363281 25.585938 15.476562 25.550781 15.585938 C 25.488281 15.804688 25.429688 16.019531 25.359375 16.234375 C 25.332031 16.3125 25.316406 16.441406 25.195312 16.417969 C 25.0625 16.398438 25.078125 16.269531 25.074219 16.175781 C 25.066406 16.03125 25.074219 15.890625 25.082031 15.746094 C 25.089844 15.621094 25.109375 15.496094 25.109375 15.371094 C 25.113281 15.269531 25.160156 15.136719 25.015625 15.09375 C 24.882812 15.054688 24.871094 15.191406 24.804688 15.253906 C 24.804688 15.296875 24.804688 15.335938 24.804688 15.378906 C 24.785156 15.695312 24.761719 16.011719 24.753906 16.328125 " fill-opacity="1" fill-rule="nonzero"/><path fill="#000000" d="M 25.859375 16.53125 C 25.851562 16.597656 25.863281 16.6875 25.902344 16.738281 C 26.019531 16.902344 26.175781 17.003906 26.390625 16.988281 C 26.640625 16.96875 26.855469 16.875 27.035156 16.695312 C 27.238281 16.484375 27.242188 16.179688 27.027344 15.980469 C 26.933594 15.890625 26.808594 15.828125 26.699219 15.761719 C 26.625 15.714844 26.546875 15.679688 26.429688 15.617188 C 26.535156 15.535156 26.605469 15.484375 26.683594 15.421875 C 26.765625 15.515625 26.820312 15.601562 26.898438 15.660156 C 26.941406 15.695312 27.03125 15.71875 27.070312 15.695312 C 27.117188 15.671875 27.15625 15.582031 27.144531 15.53125 C 27.125 15.445312 27.082031 15.351562 27.019531 15.292969 C 26.785156 15.066406 26.515625 15.085938 26.300781 15.332031 C 26.078125 15.589844 26.117188 15.824219 26.417969 15.988281 C 26.503906 16.035156 26.601562 16.066406 26.683594 16.125 C 26.839844 16.238281 26.84375 16.414062 26.679688 16.515625 C 26.574219 16.582031 26.449219 16.640625 26.335938 16.644531 C 26.261719 16.644531 26.183594 16.539062 26.105469 16.480469 C 26.09375 16.46875 26.082031 16.457031 26.070312 16.445312 C 25.980469 16.386719 25.875 16.421875 25.859375 16.53125 " fill-opacity="1" fill-rule="nonzero"/><path fill="#000000" d="M 29.035156 19.691406 C 28.941406 19.757812 28.847656 19.824219 28.714844 19.917969 C 28.691406 19.746094 28.652344 19.617188 28.660156 19.492188 C 28.675781 19.207031 28.71875 18.925781 28.746094 18.644531 C 28.757812 18.519531 28.769531 18.390625 28.761719 18.269531 C 28.753906 18.21875 28.695312 18.152344 28.640625 18.132812 C 28.566406 18.101562 28.492188 18.140625 28.460938 18.21875 C 28.421875 18.3125 28.382812 18.40625 28.367188 18.503906 C 28.3125 18.886719 28.265625 19.265625 28.226562 19.648438 C 28.214844 19.746094 28.214844 19.851562 28.234375 19.949219 C 28.300781 20.304688 28.566406 20.4375 28.882812 20.265625 C 29.019531 20.1875 29.140625 20.082031 29.261719 19.980469 C 29.386719 19.871094 29.40625 19.761719 29.34375 19.675781 C 29.273438 19.589844 29.175781 19.59375 29.035156 19.691406 " fill-opacity="1" fill-rule="nonzero"/><path fill="#000000" d="M 24.609375 15.046875 C 24.234375 15.074219 23.863281 15.117188 23.492188 15.160156 C 23.453125 15.164062 23.410156 15.183594 23.378906 15.207031 C 23.3125 15.261719 23.324219 15.359375 23.40625 15.390625 C 23.457031 15.410156 23.519531 15.40625 23.574219 15.410156 C 23.710938 15.410156 23.851562 15.410156 24.015625 15.410156 C 23.949219 15.691406 23.90625 15.941406 23.828125 16.175781 C 23.730469 16.464844 23.617188 16.5 23.339844 16.375 C 23.324219 16.367188 23.308594 16.355469 23.296875 16.355469 C 23.25 16.359375 23.183594 16.355469 23.160156 16.382812 C 23.128906 16.421875 23.105469 16.496094 23.125 16.535156 C 23.183594 16.667969 23.269531 16.777344 23.417969 16.824219 C 23.664062 16.898438 23.945312 16.800781 24.078125 16.550781 C 24.167969 16.382812 24.21875 16.191406 24.253906 16.007812 C 24.296875 15.804688 24.300781 15.597656 24.320312 15.410156 C 24.492188 15.355469 24.644531 15.304688 24.796875 15.257812 C 24.777344 15.070312 24.757812 15.035156 24.609375 15.046875 " fill-opacity="1" fill-rule="nonzero"/><path fill="#000000" d="M 28.265625 16.539062 C 28.28125 16.25 28.296875 15.957031 28.3125 15.660156 C 28.476562 15.640625 28.613281 15.625 28.753906 15.613281 C 28.839844 15.605469 28.910156 15.566406 28.902344 15.480469 C 28.894531 15.429688 28.828125 15.382812 28.785156 15.339844 C 28.777344 15.328125 28.757812 15.324219 28.742188 15.320312 C 28.371094 15.234375 28 15.246094 27.625 15.296875 C 27.53125 15.308594 27.464844 15.378906 27.484375 15.46875 C 27.496094 15.523438 27.570312 15.585938 27.628906 15.609375 C 27.722656 15.640625 27.824219 15.640625 27.953125 15.660156 C 27.945312 15.726562 27.9375 15.777344 27.9375 15.824219 C 27.914062 16.15625 27.882812 16.492188 27.867188 16.824219 C 27.863281 16.964844 27.9375 17.058594 28.042969 17.054688 C 28.164062 17.054688 28.21875 16.972656 28.234375 16.863281 C 28.25 16.753906 28.257812 16.648438 28.265625 16.539062 " fill-opacity="1" fill-rule="nonzero"/><path fill="#000000" d="M 28.382812 17.773438 C 28.378906 17.902344 28.492188 18.019531 28.617188 18.015625 C 28.742188 18.015625 28.859375 17.902344 28.863281 17.777344 C 28.867188 17.648438 28.757812 17.535156 28.628906 17.535156 C 28.503906 17.535156 28.386719 17.648438 28.382812 17.773438 " fill-opacity="1" fill-rule="nonzero"/><path fill="#000000" d="M 17.355469 20.3125 C 17.234375 20.320312 17.136719 20.429688 17.144531 20.550781 C 17.15625 20.675781 17.261719 20.765625 17.386719 20.75 C 17.496094 20.738281 17.585938 20.640625 17.582031 20.53125 C 17.582031 20.414062 17.46875 20.304688 17.355469 20.3125 " fill-opacity="1" fill-rule="nonzero"/><path fill="#000000" d="M 34.472656 20.332031 C 34.589844 20.335938 34.703125 20.230469 34.703125 20.113281 C 34.707031 19.996094 34.605469 19.894531 34.480469 19.894531 C 34.367188 19.894531 34.277344 19.980469 34.269531 20.09375 C 34.257812 20.21875 34.351562 20.324219 34.472656 20.332031 " fill-opacity="1" fill-rule="nonzero"/><path fill="#000000" d="M 33.8125 16.101562 C 33.933594 16.101562 34.03125 16 34.03125 15.878906 C 34.03125 15.765625 33.941406 15.671875 33.832031 15.667969 C 33.710938 15.667969 33.609375 15.769531 33.613281 15.890625 C 33.613281 16.003906 33.703125 16.097656 33.8125 16.101562 " fill-opacity="1" fill-rule="nonzero"/><path fill="#000000" d="M 18.449219 16.128906 C 18.363281 16.109375 18.285156 16.210938 18.289062 16.304688 C 18.296875 16.40625 18.351562 16.457031 18.449219 16.460938 C 18.539062 16.464844 18.613281 16.378906 18.605469 16.234375 C 18.570312 16.207031 18.515625 16.144531 18.449219 16.128906 " fill-opacity="1" fill-rule="nonzero"/></svg>