<svg xmlns="http://www.w3.org/2000/svg" xmlns:xlink="http://www.w3.org/1999/xlink" width="70" zoomAndPan="magnify" viewBox="0 0 52.5 52.499999" height="70" preserveAspectRatio="xMidYMid meet" version="1.0"><defs><clipPath id="abfed6cc0c"><path d="M 0 0 L 52.003906 0 L 52.003906 52.003906 L 0 52.003906 Z M 0 0 " clip-rule="nonzero"/></clipPath></defs><g clip-path="url(#abfed6cc0c)"><path fill="#ffffff" d="M 0 0 L 52.003906 0 L 52.003906 52.003906 L 0 52.003906 Z M 0 0 " fill-opacity="1" fill-rule="nonzero"/><path fill="#ffffff" d="M 0 0 L 52.003906 0 L 52.003906 52.003906 L 0 52.003906 Z M 0 0 " fill-opacity="1" fill-rule="nonzero"/></g><path fill="#f6a5b6" d="M 21.820312 48.734375 C 21.4375 48.441406 20.988281 48.410156 20.582031 48.265625 C 20.035156 48.066406 19.492188 47.867188 19.003906 47.546875 C 18.953125 47.515625 18.902344 47.476562 18.847656 47.46875 C 17.828125 47.339844 16.800781 47.21875 15.792969 47.5 C 15.390625 47.617188 15 47.671875 14.597656 47.613281 C 14.125 47.539062 13.867188 47.183594 13.855469 46.636719 C 13.832031 45.644531 13.984375 44.671875 14.152344 43.699219 C 14.175781 43.558594 14.230469 43.421875 14.164062 43.253906 C 13.964844 43.214844 13.859375 43.371094 13.742188 43.484375 C 13.222656 43.992188 12.710938 44.507812 12.191406 45.011719 C 12.066406 45.128906 12 45.253906 11.996094 45.429688 C 11.988281 46.035156 12.066406 46.617188 12.410156 47.132812 C 12.582031 47.390625 12.636719 47.664062 12.601562 47.960938 C 12.550781 48.402344 12.09375 48.636719 11.738281 48.378906 C 10.816406 47.71875 10.003906 46.96875 9.773438 45.777344 C 9.703125 45.402344 9.542969 45.078125 9.304688 44.765625 C 8.800781 44.109375 8.921875 43.648438 9.433594 43.003906 C 10.675781 41.449219 12.039062 40 13.292969 38.460938 C 13.800781 37.839844 14.296875 37.203125 14.882812 36.671875 C 15.585938 36.035156 15.515625 35.332031 15.269531 34.574219 C 14.957031 33.625 14.613281 32.683594 14.289062 31.734375 C 13.929688 30.691406 13.664062 29.625 13.503906 28.53125 C 13.457031 28.203125 13.382812 27.855469 13.15625 27.605469 C 12.539062 26.917969 12.558594 26.152344 12.769531 25.320312 C 13.089844 24.035156 13.550781 22.800781 14.058594 21.585938 C 14.34375 20.898438 14.429688 20.1875 14.460938 19.460938 C 14.523438 18.066406 14.363281 16.679688 14.375 15.285156 C 14.378906 14.558594 14.421875 13.835938 14.535156 13.121094 C 14.589844 12.78125 14.605469 12.441406 14.378906 12.117188 C 14.152344 11.792969 14.1875 11.449219 14.414062 11.101562 C 14.628906 10.777344 14.878906 10.46875 14.980469 10.078125 C 15.035156 9.859375 15.214844 9.78125 15.410156 9.773438 C 15.886719 9.75 16.371094 9.714844 16.824219 9.929688 C 17.308594 10.15625 17.824219 10.175781 18.308594 10.007812 C 18.929688 9.796875 19.1875 9.242188 19.246094 8.652344 C 19.339844 7.6875 19.6875 6.867188 20.339844 6.152344 C 20.828125 5.613281 21.441406 5.308594 22.140625 5.167969 C 22.714844 5.054688 23.230469 5.21875 23.699219 5.554688 C 24.386719 6.042969 25.03125 6.585938 25.625 7.1875 C 26.105469 7.675781 26.011719 8.121094 25.386719 8.414062 C 24.777344 8.703125 24.523438 9.214844 24.546875 9.847656 C 24.558594 10.25 24.460938 10.53125 24.121094 10.761719 C 23.773438 11 23.515625 11.328125 23.339844 11.726562 C 23.132812 12.203125 22.804688 12.28125 22.34375 12.023438 C 22.292969 11.996094 22.25 11.957031 22.195312 11.933594 C 22.015625 11.855469 21.808594 11.597656 21.644531 11.898438 C 21.5 12.160156 21.414062 12.503906 21.734375 12.71875 C 22.09375 12.957031 22.496094 13.136719 22.871094 13.359375 C 23.433594 13.6875 23.894531 14.101562 23.835938 14.832031 C 23.820312 15.027344 23.71875 15.21875 23.679688 15.417969 C 23.585938 15.871094 23.707031 15.976562 24.144531 15.859375 C 24.523438 15.753906 24.816406 15.605469 24.933594 15.160156 C 25.097656 14.550781 25.425781 14.027344 25.976562 13.65625 C 26.316406 13.425781 26.28125 13.007812 26.304688 12.65625 C 26.339844 12.125 26.417969 11.691406 26.851562 11.269531 C 27.132812 10.992188 27.363281 10.484375 27.21875 9.949219 C 27.039062 9.277344 27.203125 8.644531 27.609375 8.460938 C 28.171875 8.203125 28.644531 8.453125 29.074219 8.820312 C 29.25 8.964844 29.386719 9.164062 29.648438 9.242188 C 29.839844 9.027344 30.054688 8.847656 30.347656 8.765625 C 30.890625 8.617188 31.425781 8.46875 31.894531 8.945312 C 32.398438 9.457031 32.71875 10.023438 32.46875 10.78125 C 32.324219 11.222656 32.238281 11.679688 32.203125 12.144531 C 32.164062 12.722656 31.867188 13.128906 31.40625 13.46875 C 30.984375 13.78125 30.464844 13.925781 30.089844 14.308594 C 29.523438 14.886719 29.496094 15.136719 29.953125 15.816406 C 29.984375 15.863281 30.023438 15.90625 30.054688 15.953125 C 30.328125 16.363281 30.625 16.679688 31.183594 16.402344 C 31.34375 16.324219 31.554688 16.339844 31.742188 16.328125 C 32.230469 16.304688 32.609375 16.605469 32.632812 17.082031 C 32.664062 17.675781 32.65625 18.277344 32.363281 18.820312 C 32.214844 19.09375 32.230469 19.332031 32.398438 19.589844 C 32.742188 20.128906 33.078125 20.679688 33.523438 21.140625 C 34.292969 21.9375 34.8125 22.886719 35.332031 23.84375 C 35.753906 24.621094 36.164062 25.410156 36.617188 26.167969 C 37.0625 26.917969 37.25 27.75 37.476562 28.570312 C 37.507812 28.683594 37.5625 28.84375 37.460938 28.898438 C 36.996094 29.152344 37.261719 29.46875 37.382812 29.746094 C 37.691406 30.46875 37.992188 31.1875 38.246094 31.929688 C 38.511719 32.707031 39.105469 33.25 39.753906 33.691406 C 41.527344 34.890625 43.472656 35.625 45.636719 35.734375 C 46.527344 35.777344 47.050781 36.417969 47.128906 37.289062 C 47.214844 38.265625 46.796875 39.046875 46.300781 39.800781 C 45.023438 41.742188 43.332031 43.238281 41.292969 44.347656 C 40.09375 45 38.867188 45.59375 37.570312 46.035156 C 36.851562 46.277344 36.242188 46.738281 35.550781 47.039062 C 34.917969 47.3125 34.253906 47.4375 33.613281 47.652344 C 32.707031 47.953125 31.761719 48.125 30.878906 48.503906 C 28.566406 49.488281 26.152344 49.960938 23.632812 49.890625 C 23.386719 49.882812 23.140625 49.855469 22.902344 49.800781 C 22.519531 49.710938 22.1875 49.542969 22.082031 49.113281 C 22.046875 48.96875 21.949219 48.859375 21.820312 48.734375 M 30.894531 24.894531 C 31.160156 25.160156 31.414062 25.4375 31.625 25.753906 C 31.773438 25.984375 31.964844 26.1875 32.222656 26.308594 C 32.664062 26.515625 33.019531 26.859375 33.171875 27.285156 C 33.488281 28.15625 34.273438 28.34375 34.972656 28.65625 C 35.316406 28.808594 35.511719 28.640625 35.5625 28.257812 C 35.597656 27.988281 35.589844 27.699219 35.671875 27.445312 C 35.789062 27.074219 35.675781 26.792969 35.4375 26.53125 C 35.097656 26.152344 34.785156 25.746094 34.410156 25.40625 C 33.125 24.242188 31.976562 22.976562 31.164062 21.417969 C 30.804688 20.730469 30.605469 20.730469 29.929688 21.179688 C 29.921875 21.332031 30.035156 21.460938 29.996094 21.632812 C 29.871094 22.226562 29.765625 22.832031 29.496094 23.378906 C 29.335938 23.699219 29.425781 23.847656 29.703125 23.996094 C 30.125 24.222656 30.503906 24.515625 30.894531 24.894531 M 17.757812 42.015625 C 17.566406 43.011719 17.378906 44.007812 17.171875 44.996094 C 17.109375 45.308594 17.222656 45.507812 17.460938 45.660156 C 17.699219 45.816406 17.972656 45.84375 18.253906 45.839844 C 18.503906 45.835938 18.613281 45.722656 18.648438 45.476562 C 19.050781 42.84375 19.457031 40.214844 19.855469 37.582031 C 19.875 37.441406 19.949219 37.269531 19.742188 37.117188 C 19.296875 37.691406 18.78125 38.199219 18.558594 38.917969 C 18.246094 39.914062 18.015625 40.929688 17.757812 42.015625 M 20.710938 27.078125 C 20.75 27.363281 20.765625 27.65625 20.835938 27.9375 C 20.898438 28.175781 20.84375 28.34375 20.683594 28.527344 C 20.269531 28.988281 20.324219 29.667969 20.800781 30.132812 C 21.03125 29.835938 20.980469 29.472656 21.035156 29.140625 C 21.183594 28.238281 21.507812 27.367188 21.550781 26.453125 C 21.597656 25.492188 21.867188 24.636719 22.472656 23.886719 C 22.617188 23.707031 22.542969 23.566406 22.382812 23.445312 C 22.0625 23.21875 21.734375 23.007812 21.429688 22.761719 C 21.078125 22.46875 20.992188 22.496094 20.867188 22.9375 C 20.496094 24.28125 20.589844 25.636719 20.710938 27.078125 M 24.371094 18.351562 C 24.316406 18.03125 24.128906 17.960938 23.832031 18.050781 C 23.535156 18.144531 23.371094 18.285156 23.410156 18.640625 C 23.507812 19.640625 24.199219 20.273438 24.792969 20.96875 C 24.847656 21.03125 24.941406 21.0625 25.050781 20.988281 C 25.1875 20.59375 25.054688 20.214844 24.90625 19.835938 C 24.71875 19.367188 24.445312 18.933594 24.371094 18.351562 Z M 24.371094 18.351562 " fill-opacity="1" fill-rule="nonzero"/></svg>