<svg xmlns="http://www.w3.org/2000/svg" xmlns:xlink="http://www.w3.org/1999/xlink" width="70" zoomAndPan="magnify" viewBox="0 0 52.5 52.499999" height="70" preserveAspectRatio="xMidYMid meet" version="1.0"><defs><clipPath id="fde6145b29"><path d="M 24 2.597656 L 27 2.597656 L 27 7 L 24 7 Z M 24 2.597656 " clip-rule="nonzero"/></clipPath><clipPath id="94da201beb"><path d="M 26 8 L 46 8 L 46 48.65625 L 26 48.65625 Z M 26 8 " clip-rule="nonzero"/></clipPath><clipPath id="2e2ed47382"><path d="M 5.199219 8 L 25 8 L 25 48.65625 L 5.199219 48.65625 Z M 5.199219 8 " clip-rule="nonzero"/></clipPath></defs><g clip-path="url(#fde6145b29)"><path fill="#475b42" d="M 24.925781 3.160156 L 24.925781 6.042969 C 24.925781 6.378906 25.152344 6.605469 25.488281 6.605469 C 25.773438 6.605469 26.054688 6.378906 26.054688 6.042969 L 26.109375 3.160156 C 26.109375 2.824219 25.886719 2.597656 25.546875 2.597656 C 25.207031 2.597656 24.980469 2.878906 24.925781 3.160156 Z M 24.925781 3.160156 " fill-opacity="1" fill-rule="nonzero"/></g><path fill="#475b42" d="M 29.046875 5.136719 L 26.957031 7.113281 C 26.730469 7.339844 26.730469 7.679688 26.957031 7.90625 C 27.070312 8.019531 27.242188 8.074219 27.351562 8.074219 C 27.464844 8.074219 27.636719 8.019531 27.75 7.90625 L 29.839844 5.929688 C 30.0625 5.703125 30.0625 5.363281 29.839844 5.136719 C 29.667969 4.96875 29.273438 4.96875 29.046875 5.136719 Z M 29.046875 5.136719 " fill-opacity="1" fill-rule="nonzero"/><path fill="#475b42" d="M 21.140625 5.195312 C 20.914062 5.421875 20.914062 5.757812 21.140625 5.984375 L 23.230469 7.960938 C 23.34375 8.074219 23.457031 8.132812 23.625 8.132812 C 23.796875 8.132812 23.910156 8.074219 24.019531 7.960938 C 24.246094 7.734375 24.246094 7.398438 24.019531 7.171875 L 21.933594 5.195312 C 21.707031 4.96875 21.3125 4.96875 21.140625 5.195312 Z M 21.140625 5.195312 " fill-opacity="1" fill-rule="nonzero"/><g clip-path="url(#94da201beb)"><path fill="#475b42" d="M 45.027344 45.460938 L 41.472656 46.304688 L 38.367188 33.601562 C 41.527344 32.1875 42.601562 25.808594 40.792969 18.578125 C 40.230469 16.375 38.648438 11.011719 37.6875 8.976562 C 37.574219 8.753906 37.292969 8.640625 37.066406 8.695312 L 26.902344 11.179688 C 26.621094 11.238281 26.449219 11.460938 26.449219 11.746094 C 26.507812 14.003906 27.578125 19.480469 28.144531 21.683594 C 29.894531 28.800781 33.679688 33.882812 37.066406 33.882812 C 37.121094 33.882812 37.179688 33.882812 37.292969 33.882812 L 40.398438 46.589844 L 36.839844 47.4375 C 36.558594 47.492188 36.332031 47.832031 36.445312 48.113281 C 36.5 48.394531 36.726562 48.566406 37.011719 48.566406 C 37.066406 48.566406 37.121094 48.566406 37.121094 48.566406 L 45.3125 46.589844 C 45.59375 46.53125 45.820312 46.191406 45.707031 45.910156 C 45.648438 45.570312 45.3125 45.402344 45.027344 45.460938 Z M 36.839844 9.824219 C 37.234375 10.730469 37.6875 12.027344 38.140625 13.382812 L 28.085938 15.753906 C 27.863281 14.34375 27.636719 13.042969 27.578125 12.082031 Z M 29.21875 21.34375 C 28.992188 20.328125 28.59375 18.632812 28.257812 16.882812 L 38.421875 14.457031 C 38.929688 16.148438 39.382812 17.789062 39.609375 18.746094 C 41.300781 25.582031 40.285156 31.90625 37.460938 32.582031 C 34.695312 33.375 30.910156 28.179688 29.21875 21.34375 Z M 29.21875 21.34375 " fill-opacity="1" fill-rule="nonzero"/></g><path fill="#475b42" d="M 38.195312 29.082031 C 38.816406 27.613281 39.042969 23.207031 37.746094 17.902344 C 37.6875 17.617188 37.347656 17.390625 37.066406 17.503906 C 36.785156 17.5625 36.558594 17.902344 36.671875 18.183594 C 37.914062 23.152344 37.6875 27.386719 37.179688 28.628906 C 37.066406 28.914062 37.179688 29.25 37.460938 29.363281 C 37.519531 29.421875 37.632812 29.421875 37.6875 29.421875 C 37.914062 29.476562 38.082031 29.308594 38.195312 29.082031 Z M 38.195312 29.082031 " fill-opacity="1" fill-rule="nonzero"/><g clip-path="url(#2e2ed47382)"><path fill="#475b42" d="M 24.753906 11.6875 C 24.753906 11.40625 24.585938 11.179688 24.304688 11.125 L 14.140625 8.640625 C 13.855469 8.582031 13.628906 8.695312 13.519531 8.921875 C 12.558594 10.953125 10.976562 16.320312 10.410156 18.523438 C 9.507812 22.078125 9.339844 25.636719 9.847656 28.460938 C 10.296875 31.113281 11.371094 32.921875 12.894531 33.601562 L 9.789062 46.363281 L 6.175781 45.460938 C 5.894531 45.402344 5.554688 45.570312 5.5 45.855469 C 5.441406 46.136719 5.613281 46.476562 5.894531 46.53125 L 14.082031 48.507812 C 14.140625 48.507812 14.195312 48.507812 14.195312 48.507812 C 14.476562 48.507812 14.703125 48.339844 14.761719 48.058594 C 14.816406 47.773438 14.648438 47.4375 14.363281 47.378906 L 10.863281 46.589844 L 13.96875 33.824219 C 14.027344 33.824219 14.140625 33.824219 14.195312 33.824219 C 15.777344 33.824219 17.46875 32.753906 18.996094 30.664062 C 20.746094 28.40625 22.15625 25.183594 23.0625 21.570312 C 23.625 19.425781 24.699219 13.949219 24.753906 11.6875 Z M 14.363281 9.824219 L 23.625 12.082031 C 23.570312 13.042969 23.34375 14.398438 23.117188 15.753906 L 13.066406 13.382812 C 13.519531 12.027344 13.96875 10.730469 14.363281 9.824219 Z M 18.09375 30.042969 C 16.566406 32.019531 14.929688 32.980469 13.628906 32.695312 C 12.332031 32.359375 11.371094 30.777344 10.917969 28.292969 C 10.46875 25.636719 10.636719 22.25 11.484375 18.804688 C 11.710938 17.789062 12.164062 16.148438 12.671875 14.511719 L 22.835938 16.941406 C 22.496094 18.691406 22.15625 20.386719 21.875 21.402344 C 21.140625 24.789062 19.785156 27.894531 18.09375 30.042969 Z M 18.09375 30.042969 " fill-opacity="1" fill-rule="nonzero"/></g><path fill="#475b42" d="M 14.140625 17.503906 C 13.855469 17.449219 13.519531 17.617188 13.460938 17.902344 C 12.164062 23.207031 12.445312 27.613281 13.007812 29.082031 C 13.121094 29.308594 13.292969 29.421875 13.519531 29.421875 C 13.574219 29.421875 13.6875 29.421875 13.742188 29.363281 C 14.027344 29.25 14.195312 28.914062 14.027344 28.628906 C 13.519531 27.332031 13.292969 23.152344 14.535156 18.183594 C 14.648438 17.902344 14.476562 17.617188 14.140625 17.503906 Z M 14.140625 17.503906 " fill-opacity="1" fill-rule="nonzero"/><path fill="#475b42" d="M 28.484375 32.753906 C 27.351562 32.300781 26.167969 32.640625 25.265625 33.601562 C 24.417969 32.640625 23.230469 32.300781 22.042969 32.753906 C 20.691406 33.261719 19.558594 34.898438 20.011719 37.042969 C 20.746094 40.546875 24.8125 42.351562 24.980469 42.410156 C 25.039062 42.464844 25.152344 42.464844 25.207031 42.464844 C 25.265625 42.464844 25.375 42.464844 25.433594 42.410156 C 25.601562 42.351562 29.667969 40.546875 30.402344 37.042969 C 30.96875 34.898438 29.839844 33.261719 28.484375 32.753906 Z M 29.386719 36.761719 C 28.820312 39.246094 26.109375 40.828125 25.265625 41.222656 C 24.472656 40.828125 21.707031 39.246094 21.140625 36.761719 C 20.800781 35.179688 21.59375 34.109375 22.496094 33.769531 C 22.722656 33.710938 22.890625 33.65625 23.117188 33.65625 C 23.738281 33.65625 24.359375 34.050781 24.8125 34.785156 C 25.039062 35.125 25.601562 35.125 25.773438 34.785156 C 26.335938 33.824219 27.183594 33.429688 28.085938 33.769531 C 28.933594 34.109375 29.726562 35.179688 29.386719 36.761719 Z M 29.386719 36.761719 " fill-opacity="1" fill-rule="nonzero"/></svg>