<svg xmlns="http://www.w3.org/2000/svg" xmlns:xlink="http://www.w3.org/1999/xlink" width="200" zoomAndPan="magnify" viewBox="0 0 150 30.000001" height="40" preserveAspectRatio="xMidYMid meet" version="1.0"><defs><clipPath id="94ca0ddb39"><path d="M 18 6 L 132.578125 6 L 132.578125 25 L 18 25 Z M 18 6 " clip-rule="nonzero"/></clipPath></defs><g clip-path="url(#94ca0ddb39)"><path fill="#eee7e8" d="M 131.371094 16.433594 C 130.210938 16.582031 130.0625 17.355469 129.675781 19.316406 C 129.144531 22.019531 124.839844 22.175781 122.078125 22.171875 C 110.566406 22.203125 96.4375 12.003906 81.105469 21.675781 C 85.71875 16.265625 90.449219 14.246094 90.601562 10.195312 C 90.632812 9.429688 90.46875 8.707031 90.109375 8.03125 C 88.121094 4.355469 82.710938 6.242188 81.367188 10.511719 C 77.953125 2.242188 68.25 8.085938 74.613281 15.683594 C 75.296875 16.472656 75.949219 17.257812 76.570312 18.082031 C 76.671875 18.210938 76.757812 18.347656 76.855469 18.476562 C 72.488281 15.371094 66.105469 14.753906 61.035156 15.566406 C 53.445312 16.71875 31.449219 25.847656 23.472656 19.382812 C 21.117188 17.472656 20.863281 15.242188 19.015625 15.625 C 17.167969 16.007812 18.539062 18.171875 19.84375 19.03125 C 29.195312 25.191406 39.699219 21.96875 57.53125 17.125 C 59.363281 16.632812 61.335938 16.015625 64.835938 15.964844 C 67.300781 15.933594 69.785156 16.222656 72.132812 16.957031 C 74.914062 17.828125 77.066406 19.28125 78.332031 20.707031 C 78.46875 20.855469 78.621094 20.875 78.789062 20.761719 C 78.957031 20.648438 79 20.503906 78.917969 20.316406 C 78.082031 18.472656 76.609375 16.625 75.308594 15.097656 C 72.828125 12.175781 72.734375 8.886719 75.140625 7.660156 C 77.878906 6.175781 80.710938 9.6875 81.089844 12.1875 C 81.101562 12.277344 81.140625 12.351562 81.210938 12.414062 C 81.277344 12.472656 81.359375 12.5 81.449219 12.5 C 81.539062 12.5 81.617188 12.46875 81.683594 12.40625 C 81.753906 12.34375 81.789062 12.269531 81.800781 12.179688 C 83.371094 6.605469 87.839844 5.96875 89.21875 8.511719 C 91.6875 12.964844 83.082031 16.445312 78.660156 23.488281 C 78.582031 23.542969 78.535156 23.617188 78.515625 23.710938 C 78.5 23.804688 78.515625 23.890625 78.570312 23.96875 C 78.621094 24.046875 78.695312 24.09375 78.789062 24.113281 C 78.882812 24.132812 78.96875 24.113281 79.046875 24.0625 L 79.179688 23.972656 C 98.785156 10.695312 113.757812 26.785156 127.550781 22.351562 C 129.835938 21.867188 131.382812 20.746094 132.054688 19.210938 C 132.828125 17.441406 132.53125 16.285156 131.371094 16.433594 Z M 131.371094 16.433594 " fill-opacity="1" fill-rule="nonzero"/></g></svg>