<svg xmlns="http://www.w3.org/2000/svg" xmlns:xlink="http://www.w3.org/1999/xlink" width="70" zoomAndPan="magnify" viewBox="0 0 52.5 52.499999" height="70" preserveAspectRatio="xMidYMid meet" version="1.0"><defs><clipPath id="cb66b8b140"><path d="M 4.058594 9.230469 L 47 9.230469 L 47 41 L 4.058594 41 Z M 4.058594 9.230469 " clip-rule="nonzero"/></clipPath></defs><path fill="#c41e29" d="M 10.117188 24.574219 L 9.277344 23.128906 L 8.441406 24.574219 L 9.277344 25.972656 Z M 10.117188 24.574219 " fill-opacity="1" fill-rule="nonzero"/><path fill="#c41e29" d="M 19.625 21.125 L 18.832031 19.679688 L 17.996094 21.125 L 18.832031 22.523438 Z M 19.625 21.125 " fill-opacity="1" fill-rule="nonzero"/><path fill="#c41e29" d="M 42.417969 24.574219 L 41.578125 23.128906 L 40.742188 24.574219 L 41.578125 25.972656 Z M 42.417969 24.574219 " fill-opacity="1" fill-rule="nonzero"/><path fill="#c41e29" d="M 32.863281 21.125 L 32.023438 19.679688 L 31.230469 21.125 L 32.023438 22.523438 Z M 32.863281 21.125 " fill-opacity="1" fill-rule="nonzero"/><g clip-path="url(#cb66b8b140)"><path fill="#c41e29" d="M 40.367188 30.539062 L 37.335938 20.519531 L 31.605469 28.023438 L 26.199219 17.300781 L 27.828125 14.039062 L 25.453125 9.285156 L 23.027344 14.039062 L 24.660156 17.300781 L 19.253906 27.976562 L 13.613281 20.519531 L 10.582031 30.585938 L 4.058594 23.082031 L 8.53125 37.25 L 8.578125 37.34375 L 8.578125 40.792969 L 42.277344 40.792969 L 42.277344 37.34375 L 42.371094 37.109375 L 46.800781 23.082031 Z M 40.695312 36.550781 L 37.011719 36.550781 L 39.761719 33.382812 Z M 36.777344 23.546875 L 39.296875 31.796875 L 35.660156 35.992188 L 32.351562 29.421875 Z M 34.355469 36.550781 L 26.898438 36.550781 L 31.371094 30.679688 Z M 24.566406 14.039062 L 25.40625 12.40625 L 26.246094 14.039062 L 25.40625 15.71875 Z M 25.453125 18.839844 L 30.671875 29.234375 L 25.453125 36.132812 L 20.230469 29.1875 Z M 11.144531 33.429688 L 13.847656 36.550781 L 10.210938 36.550781 Z M 24.007812 36.550781 L 16.503906 36.550781 L 19.484375 30.585938 Z M 14.171875 23.546875 L 18.554688 29.328125 L 15.246094 35.992188 L 11.65625 31.84375 Z M 7.414062 29.140625 L 10.070312 32.171875 L 9.230469 34.875 Z M 40.878906 39.394531 L 9.976562 39.394531 L 9.976562 37.949219 L 40.878906 37.949219 Z M 41.625 34.78125 L 40.832031 32.125 L 43.445312 29.140625 Z M 41.625 34.78125 " fill-opacity="1" fill-rule="nonzero"/></g></svg>