<svg xmlns="http://www.w3.org/2000/svg" xmlns:xlink="http://www.w3.org/1999/xlink" width="70" zoomAndPan="magnify" viewBox="0 0 52.5 52.499999" height="70" preserveAspectRatio="xMidYMid meet" version="1.0"><defs><clipPath id="87ebd25574"><path d="M 14 48 L 16 48 L 16 49.496094 L 14 49.496094 Z M 14 48 " clip-rule="nonzero"/></clipPath><clipPath id="1d7abdb88d"><path d="M 25 2.691406 L 27 2.691406 L 27 13 L 25 13 Z M 25 2.691406 " clip-rule="nonzero"/></clipPath><clipPath id="7c1c06a108"><path d="M 1.878906 18 L 5 18 L 5 22 L 1.878906 22 Z M 1.878906 18 " clip-rule="nonzero"/></clipPath><clipPath id="1ece290b2d"><path d="M 1.878906 20 L 5 20 L 5 24 L 1.878906 24 Z M 1.878906 20 " clip-rule="nonzero"/></clipPath><clipPath id="af298cbc37"><path d="M 38 45 L 42 45 L 42 49.496094 L 38 49.496094 Z M 38 45 " clip-rule="nonzero"/></clipPath><clipPath id="376dba84a4"><path d="M 47 36 L 50.167969 36 L 50.167969 38 L 47 38 Z M 47 36 " clip-rule="nonzero"/></clipPath></defs><path fill="#6d3c11" d="M 6.875 8.707031 C 6.667969 8.707031 6.496094 8.539062 6.496094 8.332031 C 6.496094 8.121094 6.660156 7.953125 6.867188 7.953125 L 6.875 7.953125 C 7.082031 7.953125 7.253906 8.121094 7.253906 8.332031 C 7.253906 8.539062 7.082031 8.707031 6.875 8.707031 Z M 6.875 8.707031 " fill-opacity="1" fill-rule="nonzero"/><path fill="#6d3c11" d="M 42.214844 41.039062 C 42.007812 41.039062 41.835938 40.871094 41.835938 40.664062 C 41.835938 40.453125 42 40.285156 42.207031 40.285156 L 42.214844 40.285156 C 42.421875 40.285156 42.589844 40.453125 42.589844 40.664062 C 42.589844 40.871094 42.421875 41.039062 42.214844 41.039062 Z M 42.214844 41.039062 " fill-opacity="1" fill-rule="nonzero"/><g clip-path="url(#87ebd25574)"><path fill="#6d3c11" d="M 15.148438 49.308594 C 14.9375 49.308594 14.765625 49.140625 14.765625 48.933594 C 14.765625 48.726562 14.933594 48.558594 15.140625 48.558594 L 15.148438 48.558594 C 15.355469 48.558594 15.523438 48.726562 15.523438 48.933594 C 15.523438 49.140625 15.355469 49.308594 15.148438 49.308594 Z M 15.148438 49.308594 " fill-opacity="1" fill-rule="nonzero"/></g><path fill="#6d3c11" d="M 6.875 38.03125 C 6.667969 38.03125 6.496094 37.863281 6.496094 37.65625 C 6.496094 37.445312 6.660156 37.277344 6.867188 37.277344 L 6.875 37.277344 C 7.082031 37.277344 7.253906 37.445312 7.253906 37.65625 C 7.253906 37.863281 7.082031 38.03125 6.875 38.03125 Z M 6.875 38.03125 " fill-opacity="1" fill-rule="nonzero"/><path fill="#6d3c11" d="M 48.230469 14.003906 C 48.023438 14.003906 47.851562 13.835938 47.851562 13.628906 C 47.851562 13.421875 48.015625 13.253906 48.222656 13.253906 L 48.230469 13.253906 C 48.4375 13.253906 48.605469 13.421875 48.605469 13.628906 C 48.605469 13.835938 48.4375 14.003906 48.230469 14.003906 Z M 48.230469 14.003906 " fill-opacity="1" fill-rule="nonzero"/><path fill="#6d3c11" d="M 26.027344 46.300781 C 16.90625 46.300781 9.484375 38.882812 9.484375 29.761719 C 9.484375 20.640625 16.90625 13.21875 26.027344 13.21875 C 30.566406 13.21875 34.800781 15.019531 37.949219 18.292969 C 38.09375 18.441406 38.085938 18.679688 37.9375 18.824219 C 37.789062 18.96875 37.550781 18.964844 37.40625 18.8125 C 34.402344 15.691406 30.359375 13.96875 26.027344 13.96875 C 17.320312 13.96875 10.238281 21.054688 10.238281 29.761719 C 10.238281 38.464844 17.320312 45.550781 26.027344 45.550781 C 34.734375 45.550781 41.816406 38.464844 41.816406 29.761719 C 41.816406 27.589844 41.386719 25.488281 40.535156 23.515625 C 40.453125 23.324219 40.539062 23.101562 40.730469 23.019531 C 40.917969 22.9375 41.140625 23.027344 41.222656 23.21875 C 42.117188 25.285156 42.570312 27.488281 42.570312 29.761719 C 42.570312 38.882812 35.148438 46.300781 26.027344 46.300781 Z M 26.027344 46.300781 " fill-opacity="1" fill-rule="nonzero"/><path fill="#6d3c11" d="M 29.859375 44.484375 C 29.832031 44.484375 29.808594 44.484375 29.78125 44.476562 C 29.578125 44.4375 29.449219 44.238281 29.488281 44.035156 C 29.503906 43.960938 30.984375 36.488281 30.984375 29.761719 C 30.984375 23.03125 29.503906 15.558594 29.488281 15.484375 C 29.449219 15.28125 29.578125 15.082031 29.78125 15.042969 C 29.984375 15 30.183594 15.132812 30.226562 15.335938 C 30.242188 15.414062 31.738281 22.957031 31.738281 29.761719 C 31.738281 36.566406 30.242188 44.105469 30.226562 44.183594 C 30.191406 44.363281 30.035156 44.484375 29.859375 44.484375 Z M 29.859375 44.484375 " fill-opacity="1" fill-rule="nonzero"/><path fill="#6d3c11" d="M 33.617188 42.980469 C 33.574219 42.980469 33.53125 42.972656 33.492188 42.960938 C 33.296875 42.890625 33.191406 42.675781 33.261719 42.480469 C 33.285156 42.417969 35.496094 36.085938 35.496094 29.761719 C 35.496094 23.433594 33.285156 17.105469 33.261719 17.039062 C 33.191406 16.84375 33.296875 16.628906 33.492188 16.5625 C 33.6875 16.492188 33.902344 16.59375 33.972656 16.789062 C 33.992188 16.855469 36.25 23.304688 36.25 29.761719 C 36.25 36.214844 33.992188 42.664062 33.972656 42.730469 C 33.917969 42.882812 33.773438 42.980469 33.617188 42.980469 Z M 33.617188 42.980469 " fill-opacity="1" fill-rule="nonzero"/><path fill="#6d3c11" d="M 37.375 39.988281 C 37.324219 39.988281 37.269531 39.976562 37.21875 39.953125 C 37.03125 39.867188 36.949219 39.644531 37.035156 39.457031 C 37.058594 39.40625 39.257812 34.578125 39.257812 29.761719 C 39.257812 28.289062 39.050781 26.671875 38.652344 24.960938 C 38.605469 24.757812 38.730469 24.554688 38.933594 24.507812 C 39.140625 24.460938 39.335938 24.585938 39.382812 24.789062 C 39.796875 26.558594 40.007812 28.230469 40.007812 29.761719 C 40.007812 34.746094 37.8125 39.566406 37.71875 39.769531 C 37.65625 39.90625 37.519531 39.988281 37.375 39.988281 Z M 37.375 39.988281 " fill-opacity="1" fill-rule="nonzero"/><path fill="#6d3c11" d="M 20.941406 26.753906 C 20.933594 26.753906 20.925781 26.753906 20.917969 26.75 C 20.710938 26.738281 20.554688 26.5625 20.566406 26.355469 C 20.910156 20.671875 21.960938 15.390625 21.96875 15.335938 C 22.011719 15.132812 22.210938 15.003906 22.414062 15.042969 C 22.617188 15.085938 22.746094 15.28125 22.707031 15.484375 C 22.695312 15.539062 21.65625 20.773438 21.316406 26.398438 C 21.304688 26.597656 21.140625 26.753906 20.941406 26.753906 Z M 20.941406 26.753906 " fill-opacity="1" fill-rule="nonzero"/><path fill="#6d3c11" d="M 22.335938 44.484375 C 22.160156 44.484375 22.003906 44.363281 21.96875 44.183594 C 21.960938 44.128906 20.910156 38.847656 20.566406 33.167969 C 20.554688 32.960938 20.710938 32.78125 20.917969 32.769531 C 21.148438 32.75 21.304688 32.914062 21.316406 33.121094 C 21.65625 38.75 22.695312 43.984375 22.707031 44.035156 C 22.746094 44.238281 22.617188 44.4375 22.410156 44.476562 C 22.386719 44.484375 22.363281 44.484375 22.335938 44.484375 Z M 22.335938 44.484375 " fill-opacity="1" fill-rule="nonzero"/><path fill="#6d3c11" d="M 18.578125 42.980469 C 18.421875 42.980469 18.277344 42.882812 18.222656 42.730469 C 18.199219 42.664062 15.945312 36.214844 15.945312 29.761719 C 15.945312 23.304688 18.199219 16.855469 18.222656 16.789062 C 18.292969 16.59375 18.507812 16.492188 18.703125 16.558594 C 18.898438 16.628906 19.003906 16.84375 18.933594 17.039062 C 18.910156 17.105469 16.699219 23.4375 16.699219 29.761719 C 16.699219 36.085938 18.910156 42.417969 18.933594 42.480469 C 19.003906 42.675781 18.898438 42.890625 18.703125 42.960938 C 18.664062 42.972656 18.621094 42.980469 18.578125 42.980469 Z M 18.578125 42.980469 " fill-opacity="1" fill-rule="nonzero"/><path fill="#6d3c11" d="M 14.820312 39.988281 C 14.675781 39.988281 14.539062 39.90625 14.476562 39.769531 C 14.382812 39.566406 12.1875 34.746094 12.1875 29.761719 C 12.1875 24.773438 14.382812 19.953125 14.476562 19.75 C 14.5625 19.5625 14.789062 19.480469 14.976562 19.566406 C 15.164062 19.652344 15.246094 19.875 15.160156 20.066406 C 15.136719 20.113281 12.9375 24.941406 12.9375 29.761719 C 12.9375 34.578125 15.136719 39.40625 15.160156 39.457031 C 15.246094 39.644531 15.164062 39.867188 14.976562 39.953125 C 14.925781 39.976562 14.871094 39.988281 14.820312 39.988281 Z M 14.820312 39.988281 " fill-opacity="1" fill-rule="nonzero"/><path fill="#6d3c11" d="M 18.132812 30.136719 L 10.996094 30.136719 C 10.789062 30.136719 10.621094 29.96875 10.621094 29.761719 C 10.621094 29.550781 10.789062 29.382812 10.996094 29.382812 L 18.132812 29.382812 C 18.339844 29.382812 18.507812 29.550781 18.507812 29.761719 C 18.507812 29.96875 18.339844 30.136719 18.132812 30.136719 Z M 18.132812 30.136719 " fill-opacity="1" fill-rule="nonzero"/><path fill="#6d3c11" d="M 41.199219 30.136719 L 23.394531 30.136719 C 23.1875 30.136719 23.019531 29.96875 23.019531 29.761719 C 23.019531 29.550781 23.1875 29.382812 23.394531 29.382812 L 41.199219 29.382812 C 41.40625 29.382812 41.574219 29.550781 41.574219 29.761719 C 41.574219 29.96875 41.40625 30.136719 41.199219 30.136719 Z M 41.199219 30.136719 " fill-opacity="1" fill-rule="nonzero"/><path fill="#6d3c11" d="M 26.035156 35.335938 C 19.230469 35.335938 11.6875 33.839844 11.613281 33.824219 C 11.410156 33.785156 11.277344 33.585938 11.316406 33.382812 C 11.359375 33.179688 11.5625 33.046875 11.761719 33.089844 C 11.835938 33.101562 19.308594 34.585938 26.035156 34.585938 C 32.765625 34.585938 40.234375 33.101562 40.308594 33.089844 C 40.511719 33.046875 40.710938 33.179688 40.753906 33.382812 C 40.792969 33.585938 40.660156 33.785156 40.457031 33.824219 C 40.382812 33.839844 32.839844 35.335938 26.035156 35.335938 Z M 26.035156 35.335938 " fill-opacity="1" fill-rule="nonzero"/><path fill="#6d3c11" d="M 26.035156 39.847656 C 19.578125 39.847656 13.128906 37.59375 13.066406 37.570312 C 12.871094 37.5 12.765625 37.289062 12.835938 37.089844 C 12.90625 36.894531 13.121094 36.792969 13.316406 36.863281 C 13.378906 36.882812 19.710938 39.097656 26.035156 39.097656 C 32.359375 39.097656 38.691406 36.882812 38.753906 36.863281 C 38.949219 36.792969 39.164062 36.894531 39.234375 37.089844 C 39.304688 37.289062 39.199219 37.5 39.003906 37.570312 C 38.941406 37.59375 32.492188 39.847656 26.035156 39.847656 Z M 26.035156 39.847656 " fill-opacity="1" fill-rule="nonzero"/><path fill="#6d3c11" d="M 26.035156 43.609375 C 21.050781 43.609375 16.226562 41.410156 16.023438 41.316406 C 15.835938 41.230469 15.753906 41.007812 15.839844 40.820312 C 15.925781 40.628906 16.152344 40.550781 16.339844 40.636719 C 16.386719 40.65625 21.21875 42.855469 26.035156 42.855469 C 30.851562 42.855469 35.683594 40.65625 35.730469 40.636719 C 35.917969 40.550781 36.144531 40.628906 36.230469 40.820312 C 36.316406 41.007812 36.234375 41.230469 36.046875 41.316406 C 35.84375 41.410156 31.019531 43.609375 26.035156 43.609375 Z M 26.035156 43.609375 " fill-opacity="1" fill-rule="nonzero"/><path fill="#6d3c11" d="M 11.6875 26.3125 C 11.511719 26.3125 11.355469 26.191406 11.316406 26.011719 C 11.277344 25.808594 11.410156 25.609375 11.613281 25.570312 C 11.6875 25.554688 19.230469 24.058594 26.035156 24.058594 C 32.839844 24.058594 40.382812 25.554688 40.457031 25.570312 C 40.660156 25.609375 40.792969 25.808594 40.753906 26.011719 C 40.710938 26.214844 40.511719 26.347656 40.308594 26.308594 C 40.234375 26.292969 32.761719 24.808594 26.035156 24.808594 C 19.304688 24.808594 11.835938 26.292969 11.761719 26.308594 C 11.734375 26.3125 11.710938 26.3125 11.6875 26.3125 Z M 11.6875 26.3125 " fill-opacity="1" fill-rule="nonzero"/><path fill="#6d3c11" d="M 13.191406 22.554688 C 13.035156 22.554688 12.890625 22.457031 12.835938 22.304688 C 12.765625 22.109375 12.871094 21.894531 13.066406 21.824219 C 13.128906 21.800781 19.578125 19.546875 26.035156 19.546875 C 29.9375 19.546875 33.796875 20.351562 36.347656 21.03125 C 36.550781 21.082031 36.667969 21.289062 36.617188 21.488281 C 36.5625 21.691406 36.359375 21.8125 36.15625 21.757812 C 33.648438 21.089844 29.855469 20.296875 26.035156 20.296875 C 19.710938 20.296875 13.378906 22.511719 13.316406 22.53125 C 13.273438 22.546875 13.230469 22.554688 13.191406 22.554688 Z M 13.191406 22.554688 " fill-opacity="1" fill-rule="nonzero"/><path fill="#6d3c11" d="M 16.183594 18.796875 C 16.039062 18.796875 15.902344 18.714844 15.839844 18.574219 C 15.753906 18.386719 15.835938 18.164062 16.023438 18.078125 C 16.226562 17.984375 21.050781 15.789062 26.035156 15.789062 C 31.019531 15.789062 35.84375 17.984375 36.046875 18.078125 C 36.234375 18.164062 36.316406 18.386719 36.230469 18.574219 C 36.144531 18.765625 35.917969 18.847656 35.730469 18.761719 C 35.683594 18.738281 30.851562 16.539062 26.035156 16.539062 C 21.21875 16.539062 16.386719 18.738281 16.339844 18.761719 C 16.289062 18.785156 16.234375 18.796875 16.183594 18.796875 Z M 16.183594 18.796875 " fill-opacity="1" fill-rule="nonzero"/><path fill="#6d3c11" d="M 26.035156 45.175781 C 25.828125 45.175781 25.660156 45.007812 25.660156 44.796875 L 25.660156 14.597656 C 25.660156 14.390625 25.828125 14.222656 26.035156 14.222656 C 26.242188 14.222656 26.410156 14.390625 26.410156 14.597656 L 26.410156 44.796875 C 26.410156 45.007812 26.242188 45.175781 26.035156 45.175781 Z M 26.035156 45.175781 " fill-opacity="1" fill-rule="nonzero"/><g clip-path="url(#1d7abdb88d)"><path fill="#6d3c11" d="M 26.027344 12.464844 C 25.820312 12.464844 25.652344 12.296875 25.652344 12.089844 L 25.652344 3.066406 C 25.652344 2.859375 25.820312 2.691406 26.027344 2.691406 C 26.234375 2.691406 26.402344 2.859375 26.402344 3.066406 L 26.402344 12.089844 C 26.402344 12.296875 26.234375 12.464844 26.027344 12.464844 Z M 26.027344 12.464844 " fill-opacity="1" fill-rule="nonzero"/></g><path fill="#6d3c11" d="M 3.847656 23.746094 C 3.636719 23.746094 3.46875 23.578125 3.46875 23.367188 C 3.46875 21.621094 5.117188 20.808594 5.1875 20.773438 C 5.375 20.683594 5.597656 20.761719 5.6875 20.949219 C 5.777344 21.136719 5.699219 21.359375 5.515625 21.449219 C 5.460938 21.476562 4.222656 22.101562 4.222656 23.367188 C 4.222656 23.578125 4.054688 23.746094 3.847656 23.746094 Z M 3.847656 23.746094 " fill-opacity="1" fill-rule="nonzero"/><path fill="#6d3c11" d="M 5.347656 21.488281 C 5.292969 21.488281 5.238281 21.476562 5.1875 21.453125 C 5.117188 21.417969 3.46875 20.605469 3.46875 18.859375 C 3.46875 18.648438 3.636719 18.480469 3.847656 18.480469 C 4.054688 18.480469 4.222656 18.648438 4.222656 18.859375 C 4.222656 20.136719 5.5 20.769531 5.511719 20.773438 C 5.699219 20.863281 5.777344 21.089844 5.6875 21.277344 C 5.625 21.410156 5.488281 21.488281 5.347656 21.488281 Z M 5.347656 21.488281 " fill-opacity="1" fill-rule="nonzero"/><g clip-path="url(#7c1c06a108)"><path fill="#6d3c11" d="M 2.34375 21.488281 C 2.203125 21.488281 2.070312 21.410156 2.003906 21.277344 C 1.914062 21.089844 1.992188 20.867188 2.175781 20.773438 C 2.230469 20.75 3.46875 20.125 3.46875 18.855469 C 3.46875 18.648438 3.636719 18.480469 3.847656 18.480469 C 4.054688 18.480469 4.222656 18.648438 4.222656 18.855469 C 4.222656 20.601562 2.574219 21.417969 2.503906 21.453125 C 2.453125 21.476562 2.398438 21.488281 2.34375 21.488281 Z M 2.34375 21.488281 " fill-opacity="1" fill-rule="nonzero"/></g><g clip-path="url(#1ece290b2d)"><path fill="#6d3c11" d="M 3.847656 23.746094 C 3.636719 23.746094 3.46875 23.578125 3.46875 23.367188 C 3.46875 22.089844 2.191406 21.457031 2.179688 21.453125 C 1.992188 21.363281 1.914062 21.136719 2.003906 20.949219 C 2.09375 20.761719 2.320312 20.683594 2.503906 20.773438 C 2.574219 20.808594 4.222656 21.621094 4.222656 23.367188 C 4.222656 23.578125 4.054688 23.746094 3.847656 23.746094 Z M 3.847656 23.746094 " fill-opacity="1" fill-rule="nonzero"/></g><path fill="#6d3c11" d="M 39.183594 23.746094 C 38.976562 23.746094 38.808594 23.578125 38.808594 23.367188 C 38.808594 21.621094 40.457031 20.808594 40.527344 20.773438 C 40.710938 20.683594 40.9375 20.761719 41.027344 20.949219 C 41.117188 21.136719 41.039062 21.359375 40.855469 21.449219 C 40.800781 21.476562 39.5625 22.101562 39.5625 23.367188 C 39.5625 23.578125 39.394531 23.746094 39.183594 23.746094 Z M 39.183594 23.746094 " fill-opacity="1" fill-rule="nonzero"/><path fill="#6d3c11" d="M 40.6875 21.488281 C 40.632812 21.488281 40.578125 21.476562 40.527344 21.453125 C 40.457031 21.417969 38.808594 20.605469 38.808594 18.859375 C 38.808594 18.648438 38.976562 18.480469 39.183594 18.480469 C 39.394531 18.480469 39.5625 18.648438 39.5625 18.859375 C 39.5625 20.136719 40.839844 20.769531 40.851562 20.773438 C 41.039062 20.863281 41.117188 21.089844 41.027344 21.277344 C 40.964844 21.410156 40.828125 21.488281 40.6875 21.488281 Z M 40.6875 21.488281 " fill-opacity="1" fill-rule="nonzero"/><path fill="#6d3c11" d="M 37.683594 21.488281 C 37.542969 21.488281 37.410156 21.410156 37.34375 21.277344 C 37.253906 21.089844 37.332031 20.867188 37.515625 20.773438 C 37.570312 20.75 38.808594 20.125 38.808594 18.855469 C 38.808594 18.648438 38.976562 18.480469 39.183594 18.480469 C 39.394531 18.480469 39.5625 18.648438 39.5625 18.855469 C 39.5625 20.601562 37.914062 21.417969 37.84375 21.453125 C 37.792969 21.476562 37.738281 21.488281 37.683594 21.488281 Z M 37.683594 21.488281 " fill-opacity="1" fill-rule="nonzero"/><path fill="#6d3c11" d="M 39.183594 23.746094 C 38.976562 23.746094 38.808594 23.578125 38.808594 23.367188 C 38.808594 22.089844 37.53125 21.457031 37.519531 21.453125 C 37.332031 21.363281 37.253906 21.136719 37.34375 20.949219 C 37.433594 20.761719 37.660156 20.683594 37.84375 20.773438 C 37.914062 20.808594 39.5625 21.621094 39.5625 23.367188 C 39.5625 23.578125 39.394531 23.746094 39.183594 23.746094 Z M 39.183594 23.746094 " fill-opacity="1" fill-rule="nonzero"/><path fill="#6d3c11" d="M 20.765625 32.328125 C 20.554688 32.328125 20.386719 32.160156 20.386719 31.953125 C 20.386719 30.207031 22.035156 29.390625 22.105469 29.359375 C 22.292969 29.265625 22.515625 29.347656 22.605469 29.53125 C 22.695312 29.71875 22.617188 29.945312 22.433594 30.035156 C 22.378906 30.0625 21.140625 30.683594 21.140625 31.953125 C 21.140625 32.160156 20.972656 32.328125 20.765625 32.328125 Z M 20.765625 32.328125 " fill-opacity="1" fill-rule="nonzero"/><path fill="#6d3c11" d="M 22.265625 30.074219 C 22.210938 30.074219 22.15625 30.0625 22.105469 30.035156 C 22.035156 30 20.386719 29.1875 20.386719 27.441406 C 20.386719 27.234375 20.554688 27.066406 20.765625 27.066406 C 20.972656 27.066406 21.140625 27.234375 21.140625 27.441406 C 21.140625 28.71875 22.417969 29.351562 22.429688 29.359375 C 22.617188 29.449219 22.695312 29.671875 22.605469 29.859375 C 22.542969 29.996094 22.40625 30.074219 22.265625 30.074219 Z M 22.265625 30.074219 " fill-opacity="1" fill-rule="nonzero"/><path fill="#6d3c11" d="M 19.261719 30.074219 C 19.121094 30.074219 18.988281 29.996094 18.921875 29.863281 C 18.832031 29.675781 18.910156 29.449219 19.09375 29.359375 C 19.148438 29.332031 20.386719 28.710938 20.386719 27.441406 C 20.386719 27.234375 20.554688 27.066406 20.765625 27.066406 C 20.972656 27.066406 21.140625 27.234375 21.140625 27.441406 C 21.140625 29.1875 19.492188 30 19.421875 30.035156 C 19.371094 30.0625 19.316406 30.074219 19.261719 30.074219 Z M 19.261719 30.074219 " fill-opacity="1" fill-rule="nonzero"/><path fill="#6d3c11" d="M 20.765625 32.328125 C 20.554688 32.328125 20.386719 32.160156 20.386719 31.953125 C 20.386719 30.671875 19.109375 30.042969 19.097656 30.035156 C 18.910156 29.945312 18.832031 29.71875 18.921875 29.535156 C 19.011719 29.347656 19.238281 29.265625 19.421875 29.359375 C 19.492188 29.390625 21.140625 30.207031 21.140625 31.953125 C 21.140625 32.160156 20.972656 32.328125 20.765625 32.328125 Z M 20.765625 32.328125 " fill-opacity="1" fill-rule="nonzero"/><path fill="#6d3c11" d="M 19.8125 10.136719 C 19.753906 10.136719 19.695312 10.125 19.640625 10.09375 L 18.882812 9.695312 L 18.128906 10.09375 C 18.003906 10.160156 17.847656 10.148438 17.734375 10.066406 C 17.617188 9.980469 17.558594 9.839844 17.582031 9.695312 L 17.726562 8.855469 L 17.117188 8.261719 C 17.015625 8.164062 16.976562 8.011719 17.023438 7.875 C 17.066406 7.742188 17.183594 7.640625 17.324219 7.621094 L 18.167969 7.496094 L 18.546875 6.734375 C 18.671875 6.476562 19.09375 6.476562 19.222656 6.734375 L 19.597656 7.496094 L 20.441406 7.621094 C 20.582031 7.640625 20.703125 7.742188 20.746094 7.875 C 20.789062 8.011719 20.753906 8.164062 20.648438 8.261719 L 20.039062 8.855469 L 20.183594 9.695312 C 20.207031 9.839844 20.152344 9.980469 20.035156 10.066406 C 19.96875 10.113281 19.890625 10.136719 19.8125 10.136719 Z M 18.882812 8.894531 C 18.945312 8.894531 19.003906 8.910156 19.058594 8.941406 L 19.3125 9.074219 L 19.265625 8.789062 C 19.246094 8.667969 19.285156 8.542969 19.375 8.457031 L 19.578125 8.253906 L 19.292969 8.214844 C 19.171875 8.195312 19.066406 8.121094 19.011719 8.007812 L 18.882812 7.75 L 18.757812 8.007812 C 18.703125 8.121094 18.59375 8.195312 18.472656 8.214844 L 18.1875 8.253906 L 18.394531 8.457031 C 18.484375 8.542969 18.523438 8.667969 18.503906 8.789062 L 18.453125 9.074219 L 18.710938 8.941406 C 18.761719 8.910156 18.824219 8.894531 18.882812 8.894531 Z M 18.882812 8.894531 " fill-opacity="1" fill-rule="nonzero"/><g clip-path="url(#af298cbc37)"><path fill="#6d3c11" d="M 40.867188 49.234375 C 40.808594 49.234375 40.746094 49.222656 40.691406 49.191406 L 39.9375 48.796875 L 39.183594 49.191406 C 39.058594 49.261719 38.902344 49.25 38.789062 49.164062 C 38.671875 49.082031 38.613281 48.9375 38.636719 48.796875 L 38.78125 47.957031 L 38.171875 47.363281 C 38.070312 47.261719 38.03125 47.113281 38.074219 46.976562 C 38.121094 46.839844 38.238281 46.742188 38.378906 46.71875 L 39.222656 46.597656 L 39.601562 45.832031 C 39.664062 45.703125 39.792969 45.625 39.9375 45.625 C 40.082031 45.625 40.210938 45.703125 40.273438 45.832031 L 40.652344 46.597656 L 41.496094 46.71875 C 41.636719 46.742188 41.753906 46.839844 41.796875 46.976562 C 41.84375 47.113281 41.804688 47.261719 41.703125 47.363281 L 41.09375 47.957031 L 41.238281 48.796875 C 41.261719 48.9375 41.203125 49.082031 41.085938 49.164062 C 41.023438 49.210938 40.945312 49.234375 40.867188 49.234375 Z M 39.9375 47.996094 C 39.996094 47.996094 40.058594 48.011719 40.113281 48.039062 L 40.367188 48.171875 L 40.320312 47.890625 C 40.296875 47.765625 40.339844 47.640625 40.425781 47.554688 L 40.632812 47.355469 L 40.347656 47.3125 C 40.226562 47.296875 40.121094 47.21875 40.066406 47.109375 L 39.9375 46.847656 L 39.808594 47.109375 C 39.757812 47.21875 39.648438 47.296875 39.527344 47.3125 L 39.242188 47.355469 L 39.449219 47.554688 C 39.535156 47.640625 39.578125 47.765625 39.554688 47.886719 L 39.507812 48.171875 L 39.761719 48.039062 C 39.816406 48.011719 39.878906 47.996094 39.9375 47.996094 Z M 39.9375 47.996094 " fill-opacity="1" fill-rule="nonzero"/></g><path fill="#6d3c11" d="M 48.960938 38.78125 C 48.753906 38.78125 48.585938 38.613281 48.585938 38.40625 L 48.585938 35.398438 C 48.585938 35.191406 48.753906 35.023438 48.960938 35.023438 C 49.167969 35.023438 49.335938 35.191406 49.335938 35.398438 L 49.335938 38.40625 C 49.335938 38.613281 49.167969 38.78125 48.960938 38.78125 Z M 48.960938 38.78125 " fill-opacity="1" fill-rule="nonzero"/><g clip-path="url(#376dba84a4)"><path fill="#6d3c11" d="M 49.710938 37.277344 L 48.207031 37.277344 C 48 37.277344 47.832031 37.109375 47.832031 36.902344 C 47.832031 36.695312 48 36.527344 48.207031 36.527344 L 49.710938 36.527344 C 49.921875 36.527344 50.089844 36.695312 50.089844 36.902344 C 50.089844 37.109375 49.921875 37.277344 49.710938 37.277344 Z M 49.710938 37.277344 " fill-opacity="1" fill-rule="nonzero"/></g><path fill="#6d3c11" d="M 5.347656 47.804688 C 5.140625 47.804688 4.972656 47.636719 4.972656 47.429688 L 4.972656 44.421875 C 4.972656 44.214844 5.140625 44.046875 5.347656 44.046875 C 5.558594 44.046875 5.726562 44.214844 5.726562 44.421875 L 5.726562 47.429688 C 5.726562 47.636719 5.558594 47.804688 5.347656 47.804688 Z M 5.347656 47.804688 " fill-opacity="1" fill-rule="nonzero"/><path fill="#6d3c11" d="M 6.101562 46.300781 L 4.597656 46.300781 C 4.390625 46.300781 4.222656 46.132812 4.222656 45.925781 C 4.222656 45.71875 4.390625 45.550781 4.597656 45.550781 L 6.101562 45.550781 C 6.308594 45.550781 6.476562 45.71875 6.476562 45.925781 C 6.476562 46.132812 6.308594 46.300781 6.101562 46.300781 Z M 6.101562 46.300781 " fill-opacity="1" fill-rule="nonzero"/><path fill="#6d3c11" d="M 38.433594 13.21875 C 38.226562 13.21875 38.058594 13.050781 38.058594 12.84375 L 38.058594 9.835938 C 38.058594 9.625 38.226562 9.457031 38.433594 9.457031 C 38.640625 9.457031 38.808594 9.625 38.808594 9.835938 L 38.808594 12.84375 C 38.808594 13.050781 38.640625 13.21875 38.433594 13.21875 Z M 38.433594 13.21875 " fill-opacity="1" fill-rule="nonzero"/><path fill="#6d3c11" d="M 39.183594 11.714844 L 37.683594 11.714844 C 37.472656 11.714844 37.304688 11.546875 37.304688 11.339844 C 37.304688 11.128906 37.472656 10.960938 37.683594 10.960938 L 39.183594 10.960938 C 39.394531 10.960938 39.5625 11.128906 39.5625 11.339844 C 39.5625 11.546875 39.394531 11.714844 39.183594 11.714844 Z M 39.183594 11.714844 " fill-opacity="1" fill-rule="nonzero"/></svg>