<svg xmlns="http://www.w3.org/2000/svg" xmlns:xlink="http://www.w3.org/1999/xlink" width="70" zoomAndPan="magnify" viewBox="0 0 52.5 52.499999" height="70" preserveAspectRatio="xMidYMid meet" version="1.0"><defs><clipPath id="b34313bf6c"><path d="M 10.382812 2.832031 L 41.585938 2.832031 L 41.585938 45.90625 L 10.382812 45.90625 Z M 10.382812 2.832031 " clip-rule="nonzero"/></clipPath></defs><g clip-path="url(#b34313bf6c)"><path fill="#000000" d="M 13.339844 45 L 38.664062 45 C 39.796875 45 40.714844 44.082031 40.714844 42.953125 L 40.714844 5.789062 C 40.714844 4.65625 39.796875 3.738281 38.664062 3.738281 L 13.339844 3.738281 C 12.207031 3.738281 11.289062 4.65625 11.289062 5.789062 L 11.289062 42.953125 C 11.289062 44.082031 12.207031 45 13.339844 45 Z M 39.570312 45.90625 L 12.433594 45.90625 C 11.300781 45.90625 10.382812 44.992188 10.382812 43.859375 L 10.382812 4.882812 C 10.382812 3.75 11.300781 2.832031 12.433594 2.832031 L 39.570312 2.832031 C 40.703125 2.832031 41.621094 3.75 41.621094 4.882812 L 41.621094 43.859375 C 41.621094 44.992188 40.703125 45.90625 39.570312 45.90625 " fill-opacity="1" fill-rule="nonzero"/></g><path fill="#000000" d="M 14.636719 19.753906 L 13.601562 18.425781 C 13.503906 18.296875 13.511719 18.117188 13.625 18 C 13.757812 17.867188 13.941406 17.691406 14.066406 17.832031 L 14.632812 18.472656 C 14.765625 18.621094 15.003906 18.617188 15.128906 18.457031 L 16.265625 17.007812 C 16.351562 16.898438 16.515625 16.886719 16.613281 16.984375 L 16.941406 17.3125 C 17.0625 17.433594 17.070312 17.632812 16.953125 17.761719 L 15.132812 19.773438 C 15 19.921875 14.761719 19.914062 14.636719 19.753906 " fill-opacity="1" fill-rule="nonzero"/><path fill="#000000" d="M 14.636719 26.195312 L 13.601562 24.867188 C 13.503906 24.738281 13.511719 24.558594 13.625 24.441406 C 13.757812 24.304688 13.941406 24.132812 14.066406 24.273438 L 14.632812 24.910156 C 14.765625 25.0625 15.003906 25.054688 15.128906 24.898438 L 16.117188 23.636719 C 16.28125 23.425781 16.597656 23.40625 16.785156 23.597656 L 16.941406 23.753906 C 17.0625 23.875 17.070312 24.070312 16.953125 24.199219 L 15.132812 26.214844 C 15 26.363281 14.761719 26.355469 14.636719 26.195312 " fill-opacity="1" fill-rule="nonzero"/><path fill="#000000" d="M 14.636719 33.28125 L 13.601562 31.953125 C 13.503906 31.828125 13.511719 31.644531 13.625 31.53125 C 13.757812 31.394531 13.941406 31.21875 14.066406 31.359375 L 14.632812 32 C 14.765625 32.152344 15.003906 32.144531 15.128906 31.984375 L 16.117188 30.726562 C 16.28125 30.515625 16.597656 30.496094 16.785156 30.6875 L 16.941406 30.84375 C 17.0625 30.964844 17.070312 31.160156 16.953125 31.289062 L 15.132812 33.300781 C 15 33.449219 14.761719 33.441406 14.636719 33.28125 " fill-opacity="1" fill-rule="nonzero"/><path fill="#000000" d="M 25.445312 11.507812 C 24.960938 11.988281 24.1875 12.566406 23.746094 12.53125 C 23.03125 12.476562 22.105469 11.511719 22.105469 11.511719 C 22.105469 11.511719 19.902344 9.933594 21.226562 8.390625 C 22.175781 7.289062 23.746094 9.054688 23.746094 9.054688 C 23.746094 9.054688 25.210938 7.183594 26.363281 7.828125 C 27.746094 8.601562 26.296875 10.664062 25.445312 11.507812 Z M 27.023438 6.976562 C 25.359375 6.046875 23.75 7.800781 23.75 7.800781 C 23.144531 7.324219 22.320312 6.9375 21.542969 6.941406 C 20.269531 6.941406 19.316406 8.269531 19.503906 9.492188 C 19.722656 10.90625 21.171875 12.070312 22.222656 12.878906 C 22.546875 13.132812 22.882812 13.378906 23.269531 13.519531 C 24.429688 13.929688 25.46875 12.855469 26.214844 12.113281 C 27.449219 10.894531 29.027344 8.097656 27.023438 6.976562 " fill-opacity="1" fill-rule="nonzero"/><path fill="#000000" d="M 30.019531 12.914062 C 29.53125 13.394531 28.761719 13.976562 28.320312 13.941406 C 27.605469 13.882812 26.679688 12.917969 26.679688 12.917969 C 26.679688 12.917969 24.191406 11.335938 25.515625 9.796875 C 26.464844 8.695312 28.320312 10.464844 28.320312 10.464844 C 28.320312 10.464844 29.429688 8.726562 30.578125 9.367188 C 31.960938 10.140625 30.871094 12.070312 30.019531 12.914062 Z M 31.597656 8.382812 C 29.933594 7.453125 28.332031 9.445312 28.332031 9.445312 C 27.726562 8.96875 26.894531 8.34375 26.113281 8.347656 C 24.84375 8.347656 23.890625 9.679688 24.078125 10.902344 C 24.296875 12.3125 25.746094 13.476562 26.796875 14.289062 C 27.121094 14.539062 27.457031 14.789062 27.84375 14.925781 C 29.003906 15.335938 30.042969 14.261719 30.789062 13.519531 C 32.023438 12.300781 33.601562 9.503906 31.597656 8.382812 " fill-opacity="1" fill-rule="nonzero"/><path fill="#000000" d="M 37.179688 18.378906 L 19.121094 18.378906 C 18.800781 18.378906 18.539062 18.117188 18.539062 17.796875 C 18.539062 17.472656 18.800781 17.214844 19.121094 17.214844 L 37.179688 17.214844 C 37.503906 17.214844 37.761719 17.472656 37.761719 17.796875 C 37.761719 18.117188 37.503906 18.378906 37.179688 18.378906 " fill-opacity="1" fill-rule="nonzero"/><path fill="#000000" d="M 37.179688 22.066406 L 19.121094 22.066406 C 18.800781 22.066406 18.539062 21.804688 18.539062 21.480469 C 18.539062 21.160156 18.800781 20.898438 19.121094 20.898438 L 37.179688 20.898438 C 37.503906 20.898438 37.761719 21.160156 37.761719 21.480469 C 37.761719 21.804688 37.503906 22.066406 37.179688 22.066406 " fill-opacity="1" fill-rule="nonzero"/><path fill="#000000" d="M 37.179688 25.75 L 19.121094 25.75 C 18.800781 25.75 18.539062 25.488281 18.539062 25.167969 C 18.539062 24.84375 18.800781 24.585938 19.121094 24.585938 L 37.179688 24.585938 C 37.503906 24.585938 37.761719 24.84375 37.761719 25.167969 C 37.761719 25.488281 37.503906 25.75 37.179688 25.75 " fill-opacity="1" fill-rule="nonzero"/><path fill="#000000" d="M 37.179688 29.4375 L 19.121094 29.4375 C 18.800781 29.4375 18.539062 29.175781 18.539062 28.851562 C 18.539062 28.53125 18.800781 28.269531 19.121094 28.269531 L 37.179688 28.269531 C 37.503906 28.269531 37.761719 28.53125 37.761719 28.851562 C 37.761719 29.175781 37.503906 29.4375 37.179688 29.4375 " fill-opacity="1" fill-rule="nonzero"/><path fill="#000000" d="M 37.179688 33.121094 L 19.121094 33.121094 C 18.800781 33.121094 18.539062 32.859375 18.539062 32.539062 C 18.539062 32.214844 18.800781 31.957031 19.121094 31.957031 L 37.179688 31.957031 C 37.503906 31.957031 37.761719 32.214844 37.761719 32.539062 C 37.761719 32.859375 37.503906 33.121094 37.179688 33.121094 " fill-opacity="1" fill-rule="nonzero"/><path fill="#000000" d="M 24.527344 40.777344 L 19.34375 40.777344 C 19.035156 40.777344 18.789062 40.527344 18.789062 40.21875 C 18.789062 39.910156 19.035156 39.664062 19.34375 39.664062 L 24.527344 39.664062 C 24.835938 39.664062 25.082031 39.910156 25.082031 40.21875 C 25.082031 40.527344 24.835938 40.777344 24.527344 40.777344 " fill-opacity="1" fill-rule="nonzero"/><path fill="#000000" d="M 34.269531 35.632812 C 32.105469 35.40625 30.289062 37.21875 30.519531 39.382812 C 30.683594 40.960938 31.953125 42.226562 33.53125 42.394531 C 35.695312 42.625 37.507812 40.808594 37.28125 38.644531 C 37.113281 37.066406 35.84375 35.800781 34.269531 35.632812 Z M 34.292969 43.296875 C 31.613281 43.535156 29.378906 41.300781 29.617188 38.621094 C 29.800781 36.570312 31.453125 34.914062 33.507812 34.730469 C 36.183594 34.492188 38.417969 36.726562 38.179688 39.40625 C 37.996094 41.460938 36.34375 43.113281 34.292969 43.296875 " fill-opacity="1" fill-rule="nonzero"/><path fill="#000000" d="M 36.085938 39.4375 C 35.902344 39.378906 35.789062 39.195312 35.789062 39 C 35.78125 37.96875 34.945312 37.132812 33.914062 37.125 C 33.71875 37.125 33.535156 37.011719 33.472656 36.828125 C 33.371094 36.515625 33.601562 36.226562 33.898438 36.226562 C 35.4375 36.226562 36.6875 37.476562 36.6875 39.015625 C 36.6875 39.3125 36.398438 39.542969 36.085938 39.4375 " fill-opacity="1" fill-rule="nonzero"/><path fill="#000000" d="M 33.898438 41.804688 C 32.367188 41.804688 31.117188 40.558594 31.109375 39.027344 C 31.109375 38.808594 31.261719 38.613281 31.472656 38.574219 C 31.761719 38.519531 32.011719 38.738281 32.011719 39.015625 C 32.011719 40.054688 32.855469 40.898438 33.890625 40.902344 C 34.121094 40.902344 34.320312 41.078125 34.34375 41.304688 C 34.375 41.574219 34.164062 41.804688 33.898438 41.804688 " fill-opacity="1" fill-rule="nonzero"/></svg>