<svg xmlns="http://www.w3.org/2000/svg" xmlns:xlink="http://www.w3.org/1999/xlink" width="70" zoomAndPan="magnify" viewBox="0 0 52.5 52.499999" height="70" preserveAspectRatio="xMidYMid meet" version="1.0"><defs><clipPath id="2f563de59b"><path d="M 3.738281 41.734375 L 48.253906 41.734375 L 48.253906 46.445312 L 3.738281 46.445312 Z M 3.738281 41.734375 " clip-rule="nonzero"/></clipPath><clipPath id="0752be0dfe"><path d="M 25 6.328125 L 27 6.328125 L 27 15 L 25 15 Z M 25 6.328125 " clip-rule="nonzero"/></clipPath></defs><path fill="#c41e29" d="M 8.394531 39.304688 C 8.816406 29.921875 16.558594 22.441406 26.050781 22.441406 C 35.539062 22.441406 43.285156 29.921875 43.707031 39.304688 Z M 24.832031 20.21875 C 24.832031 19.582031 25.359375 19.050781 25.996094 19.050781 C 26.632812 19.050781 27.167969 19.582031 27.167969 20.21875 C 27.167969 20.484375 27.054688 20.695312 26.953125 20.910156 L 25.042969 20.910156 C 24.886719 20.695312 24.832031 20.433594 24.832031 20.21875 Z M 28.648438 21.011719 C 28.753906 20.746094 28.808594 20.484375 28.808594 20.167969 C 28.808594 18.625 27.539062 17.410156 26.050781 17.410156 C 24.515625 17.410156 23.292969 18.679688 23.292969 20.167969 C 23.292969 20.484375 23.34375 20.746094 23.453125 21.011719 C 14.066406 22.285156 6.859375 30.347656 6.859375 40.046875 L 6.859375 40.84375 L 45.351562 40.84375 L 45.351562 40.046875 C 45.246094 30.398438 38.035156 22.339844 28.648438 21.011719 " fill-opacity="1" fill-rule="nonzero"/><path fill="#c41e29" d="M 10.9375 37.609375 L 10.777344 37.609375 C 10.355469 37.503906 10.140625 37.132812 10.25 36.710938 C 11.46875 31.5625 15.394531 27.160156 20.855469 24.886719 C 21.222656 24.722656 21.648438 24.886719 21.808594 25.308594 C 21.964844 25.679688 21.808594 26.101562 21.386719 26.261719 C 16.402344 28.332031 12.742188 32.359375 11.628906 37.023438 C 11.574219 37.34375 11.257812 37.609375 10.9375 37.609375 " fill-opacity="1" fill-rule="nonzero"/><g clip-path="url(#2f563de59b)"><path fill="#c41e29" d="M 7.28125 45.246094 L 44.714844 45.246094 L 46.199219 43.285156 L 5.796875 43.285156 Z M 44.765625 46.78125 L 7.226562 46.78125 C 6.804688 46.78125 6.375 46.574219 6.109375 46.253906 L 3.9375 43.441406 C 3.726562 43.121094 3.671875 42.75 3.832031 42.378906 C 3.992188 42.0625 4.363281 41.851562 4.734375 41.851562 L 47.261719 41.851562 C 47.632812 41.851562 48.003906 42.0625 48.15625 42.382812 C 48.320312 42.699219 48.269531 43.121094 48.054688 43.441406 L 45.882812 46.253906 C 45.617188 46.574219 45.191406 46.78125 44.765625 46.78125 " fill-opacity="1" fill-rule="nonzero"/></g><g clip-path="url(#0752be0dfe)"><path fill="#c41e29" d="M 25.839844 14.707031 C 25.410156 14.707031 25.09375 14.386719 25.09375 13.960938 L 25.09375 7.066406 C 25.09375 6.644531 25.410156 6.328125 25.839844 6.328125 C 26.261719 6.328125 26.582031 6.644531 26.582031 7.015625 L 26.582031 13.90625 C 26.582031 14.335938 26.210938 14.707031 25.839844 14.707031 " fill-opacity="1" fill-rule="nonzero"/></g><path fill="#c41e29" d="M 16.929688 16.878906 C 16.667969 16.878906 16.402344 16.71875 16.296875 16.507812 L 12.847656 10.515625 C 12.636719 10.144531 12.742188 9.71875 13.113281 9.507812 C 13.484375 9.296875 13.90625 9.402344 14.121094 9.773438 L 17.566406 15.765625 C 17.78125 16.136719 17.675781 16.558594 17.300781 16.773438 C 17.195312 16.824219 17.089844 16.878906 16.929688 16.878906 " fill-opacity="1" fill-rule="nonzero"/><path fill="#c41e29" d="M 34.691406 16.878906 C 34.585938 16.878906 34.429688 16.824219 34.324219 16.773438 C 33.953125 16.558594 33.84375 16.136719 34.058594 15.765625 L 37.503906 9.773438 C 37.71875 9.402344 38.140625 9.296875 38.511719 9.507812 C 38.878906 9.71875 38.988281 10.144531 38.777344 10.515625 L 35.328125 16.507812 C 35.222656 16.71875 34.960938 16.878906 34.691406 16.878906 " fill-opacity="1" fill-rule="nonzero"/></svg>