<svg xmlns="http://www.w3.org/2000/svg" xmlns:xlink="http://www.w3.org/1999/xlink" width="200" zoomAndPan="magnify" viewBox="0 0 150 149.999998" height="200" preserveAspectRatio="xMidYMid meet" version="1.0"><defs><clipPath id="3395d89614"><path d="M 20.886719 24.964844 L 59.886719 24.964844 L 59.886719 135.214844 L 20.886719 135.214844 Z M 20.886719 24.964844 " clip-rule="nonzero"/></clipPath><clipPath id="2b4f0e68e4"><path d="M 98 24.96875 L 107 24.96875 L 107 27 L 98 27 Z M 98 24.96875 " clip-rule="nonzero"/></clipPath><clipPath id="1b4cd66a52"><path d="M 74.851562 26 L 128.851562 26 L 128.851562 135.214844 L 74.851562 135.214844 Z M 74.851562 26 " clip-rule="nonzero"/></clipPath></defs><g clip-path="url(#3395d89614)"><path fill="#000000" d="M 52.496094 118.097656 C 51.789062 116.910156 51.386719 115.777344 51.53125 114.375 C 52.566406 104.359375 53.507812 94.332031 54.582031 84.316406 C 55.132812 79.167969 55.25 74.066406 54.171875 68.96875 C 53.578125 66.152344 52.792969 63.398438 52.492188 60.488281 C 51.972656 55.421875 52.09375 50.453125 53.179688 45.484375 C 53.328125 44.816406 53.617188 44.550781 54.210938 44.328125 C 56.070312 43.632812 57.902344 42.867188 59.839844 42.09375 C 58.625 37.789062 57.457031 33.601562 56.257812 29.425781 C 55.421875 26.507812 53.332031 25.199219 50.488281 24.964844 C 48.800781 32.554688 44.996094 38.960938 40.019531 44.914062 C 37.164062 42.105469 35.101562 38.988281 33.234375 35.746094 C 31.378906 32.515625 29.542969 29.261719 28.664062 25.589844 C 25.90625 26.023438 24.070312 27.425781 23.515625 30.339844 C 22.710938 34.582031 21.796875 38.804688 20.984375 43.042969 C 20.933594 43.304688 21.269531 43.820312 21.542969 43.929688 C 22.660156 44.375 23.808594 44.773438 24.976562 45.070312 C 25.320312 45.160156 25.628906 45.402344 25.867188 45.679688 C 26.132812 46.121094 26.285156 46.628906 26.414062 47.140625 C 26.46875 47.589844 26.53125 48.042969 26.609375 48.421875 C 27.097656 50.796875 27.671875 53.140625 27.273438 55.621094 C 26.757812 58.855469 26.351562 62.113281 25.953125 65.371094 C 25.796875 66.675781 26.046875 68.078125 25.667969 69.296875 C 24.15625 74.171875 24.59375 79.011719 25.429688 83.921875 C 27.179688 94.199219 28.804688 104.496094 30.484375 114.785156 C 30.8125 116.796875 30.679688 118.71875 29.808594 120.628906 C 28.941406 122.539062 28.324219 124.5625 27.570312 126.527344 C 27.277344 127.28125 27.371094 127.882812 28.132812 128.210938 C 29.597656 128.835938 31.039062 129.601562 32.570312 129.949219 C 33.882812 130.242188 34.507812 130.746094 34.433594 132.085938 C 34.402344 132.683594 34.632812 133.175781 35.273438 133.257812 C 37.273438 133.503906 39.277344 133.707031 41.28125 133.925781 C 41.375 133.9375 41.472656 133.945312 41.566406 133.953125 C 41.648438 134.292969 41.726562 134.59375 41.804688 134.914062 C 44.289062 135.21875 46.664062 134.894531 48.988281 134.121094 C 49.964844 133.796875 50.589844 133.234375 50.53125 132.109375 C 50.476562 131.171875 50.957031 130.671875 51.796875 130.25 C 53.34375 129.46875 54.808594 128.519531 56.300781 127.628906 C 57.074219 127.164062 57.195312 126.5625 56.746094 125.757812 C 55.320312 123.210938 53.988281 120.605469 52.496094 118.097656 Z M 31.535156 55.863281 C 29.6875 58.960938 27.996094 62.128906 26.816406 65.554688 C 26.632812 66.085938 26.472656 66.625 26.085938 67.121094 C 26.285156 65.132812 26.445312 63.136719 26.691406 61.15625 C 26.925781 59.246094 27.214844 57.339844 27.539062 55.441406 C 28.058594 52.40625 27.125 49.347656 26.402344 46.464844 C 26.394531 46.429688 26.394531 46.398438 26.386719 46.363281 C 26.382812 46.328125 26.375 46.292969 26.367188 46.253906 C 26.351562 46.042969 26.332031 45.792969 26.328125 45.59375 C 27.3125 45.78125 28.222656 45.894531 29.089844 46.152344 C 29.378906 46.238281 29.671875 46.65625 29.777344 46.984375 C 30.503906 49.296875 31.238281 51.609375 31.84375 53.957031 C 31.992188 54.535156 31.847656 55.339844 31.535156 55.863281 Z M 48.257812 55.28125 C 48.046875 54.90625 48.121094 54.300781 48.21875 53.832031 C 48.679688 51.601562 49.238281 49.390625 49.664062 47.152344 C 49.863281 46.09375 50.355469 45.507812 51.40625 45.339844 C 51.855469 45.269531 52.28125 45.082031 53.144531 44.820312 C 51.433594 50.695312 51.699219 56.390625 52.246094 62.128906 C 50.90625 59.851562 49.539062 57.589844 48.257812 55.28125 Z M 48.257812 55.28125 " fill-opacity="1" fill-rule="nonzero"/></g><g clip-path="url(#2b4f0e68e4)"><path stroke-linecap="butt" transform="matrix(0.093913, 0, 0, 0.0945524, 74.850422, 24.967651)" fill="none" stroke-linejoin="miter" d="M 275.241842 0.0116255 L 305.27295 0.0116255 C 314.215731 2.986168 322.992135 6.952225 330.187955 13.149189 C 330.978247 14.140703 331.768539 15.132217 332.558832 16.123731 C 322.659381 12.942623 313.34225 7.943739 303.110045 5.712832 C 285.931585 2.159906 267.838051 6.373842 252.489743 14.347268 C 251.824233 14.058077 251.200318 13.727572 250.534809 13.43838 C 258.104977 7.861113 265.924712 2.201219 275.241842 0.0116255 Z M 275.241842 0.0116255 " stroke="#010101" stroke-width="0.1" stroke-opacity="1" stroke-miterlimit="10"/><path fill="#010101" d="M 100.699219 24.96875 L 103.519531 24.96875 C 104.359375 25.25 105.183594 25.625 105.859375 26.210938 C 105.933594 26.304688 106.007812 26.398438 106.082031 26.492188 C 105.152344 26.191406 104.277344 25.71875 103.316406 25.507812 C 101.703125 25.171875 100.003906 25.570312 98.5625 26.324219 C 98.5 26.296875 98.441406 26.265625 98.378906 26.238281 C 99.089844 25.710938 99.824219 25.175781 100.699219 24.96875 " fill-opacity="1" fill-rule="nonzero"/></g><g clip-path="url(#1b4cd66a52)"><path stroke-linecap="butt" transform="matrix(0.093913, 0, 0, 0.0945524, 74.850422, 24.967651)" fill="none" stroke-linejoin="miter" d="M 268.545155 19.594031 C 277.071993 16.660801 286.181151 18.272012 294.957556 17.858881 C 307.893393 16.784741 319.664589 23.394835 330.603898 29.385233 C 333.099558 30.831192 335.636812 28.600285 337.841312 27.650084 C 336.551887 24.592915 335.179275 21.577059 334.014633 18.478577 C 337.841312 20.048475 338.839576 24.303723 340.628132 27.608771 C 333.59869 36.656338 322.700975 40.994212 313.092684 46.57148 C 306.312808 49.587335 299.616121 52.933696 292.461896 54.958037 C 299.699309 64.666614 306.978317 74.499129 311.969637 85.612351 C 316.212259 95.238301 320.82923 104.822938 323.283296 115.109898 C 315.921099 106.18627 311.137751 95.279614 302.735696 87.182248 C 300.240036 89.289216 296.621329 91.230931 296.454951 94.907797 C 296.662923 101.393952 298.617857 107.632229 300.115253 113.911819 C 302.569318 125.231606 305.813676 136.427453 307.602232 147.912493 C 310.097892 163.074397 313.550222 178.277615 313.508628 193.728711 C 315.297184 204.470115 313.34225 215.376771 315.130807 226.118175 C 315.380373 241.032201 315.130807 255.946227 315.25559 270.901566 C 320.371692 266.687631 324.822286 261.688747 328.191427 255.98754 C 338.59001 239.090486 344.496405 219.921211 349.737291 200.958502 C 357.764997 169.106109 362.548345 136.51008 364.336901 103.748798 C 363.796175 91.850628 365.751109 79.621953 362.173996 68.054287 C 361.134138 62.435707 352.856866 61.444192 353.480781 55.081976 C 352.399328 49.835214 356.059629 45.084208 355.186148 40.002698 C 351.733819 31.161696 341.66799 27.154327 337.799717 18.51989 C 350.319611 21.122615 359.969496 30.128869 369.952136 37.523913 C 378.894917 44.795017 389.210312 50.620162 396.19816 59.998234 C 408.385299 73.920746 426.603616 79.498013 443.906858 84.00114 C 469.487372 90.40467 495.525424 95.816685 521.937825 96.766886 C 533.667427 100.732942 541.487161 112.920304 541.986293 125.107666 C 543.941227 147.912493 547.643122 170.552067 550.263565 193.31558 C 551.17864 198.644969 550.845886 204.056984 550.762697 209.427686 C 554.797347 211.121523 559.039969 212.650107 562.076355 215.955154 C 559.164752 220.747473 554.589376 224.754843 553.466329 230.414736 C 552.800819 234.091602 555.837206 236.776952 558.249677 239.007859 C 560.329393 240.61907 560.745337 243.263108 561.494035 245.659267 C 558.998375 246.609468 556.544309 247.642296 554.090244 248.675123 C 556.294743 256.111479 560.662148 262.845513 561.826789 270.653687 C 565.903034 292.673565 565.029553 315.271826 569.147392 337.333017 C 571.310297 354.106132 572.474938 370.961873 573.514797 387.817615 C 574.637844 393.10569 573.473202 398.641645 574.970598 403.888407 L 574.970598 435.368983 C 573.015665 445.779882 572.142184 456.356033 570.436816 466.808246 C 561.202874 474.244602 553.09198 483.085604 542.859774 489.158628 C 535.996709 493.537816 529.341616 498.206195 522.520146 502.668009 C 505.258498 514.359614 486.790615 524.06819 469.404184 535.594543 C 471.359117 541.006558 470.028099 546.831704 471.067957 552.367658 C 474.853041 607.561948 478.430154 662.714925 482.298427 717.867902 C 473.39724 723.114665 462.749091 723.651735 452.724857 724.477997 C 452.641668 742.69707 449.189338 760.750891 448.814989 778.969964 C 448.066291 794.049243 445.0715 808.880643 444.156424 823.918608 C 442.991783 844.864345 438.291623 865.355639 435.795964 886.136124 C 430.887832 921.210938 420.489249 955.211613 413.792562 989.955922 C 412.627921 998.755611 414.125317 1007.720552 412.877487 1016.561553 C 412.0456 1028.129219 413.251836 1039.738198 412.253572 1051.26455 C 411.08893 1057.420201 412.087194 1063.741104 411.296902 1069.938067 C 409.383563 1083.612701 407.886167 1097.452586 409.633129 1111.209846 C 410.090666 1150.044152 417.452863 1188.465327 418.076778 1227.25832 C 419.740551 1236.471139 418.118372 1245.849211 419.366202 1255.103343 C 420.1149 1265.472929 418.825476 1275.883828 420.489249 1286.212101 C 419.698957 1303.646226 424.149551 1320.667219 427.352314 1337.6469 C 429.681597 1351.156281 434.7977 1364.583036 443.82367 1375.035248 C 445.820198 1378.13373 449.854848 1376.853024 452.891234 1377.100902 C 459.255167 1378.629487 460.461402 1386.107156 465.868666 1388.999073 C 470.23607 1391.725737 474.686664 1394.328461 478.804503 1397.468256 C 482.215238 1401.351687 484.294955 1406.144006 484.170172 1411.432081 C 485.917134 1412.836726 487.622501 1414.282685 489.327869 1415.811269 C 489.286274 1418.248741 489.286274 1420.686214 489.327869 1423.164999 C 483.338285 1425.561158 477.390296 1427.998631 471.400712 1430.39479 C 459.130384 1435.269735 445.570632 1437.004885 432.468417 1435.104483 C 425.688541 1434.112968 418.700693 1434.526099 412.004006 1432.832263 C 406.097611 1429.361963 398.943385 1428.246509 393.619311 1423.826009 C 387.920887 1417.95955 384.510152 1409.696931 377.023172 1405.730875 C 374.153164 1403.913099 370.908806 1405.276431 367.914014 1405.854814 C 366.541401 1407.342085 365.127194 1408.829356 363.796175 1410.357941 C 356.309195 1410.440567 349.15497 1408.085721 342.208717 1405.606935 C 334.971303 1402.549767 326.943597 1399.988355 321.577928 1393.91533 C 320.870824 1387.181297 320.413287 1380.447263 320.454881 1373.671916 C 319.331834 1366.813942 319.789372 1359.873343 319.207051 1352.974057 C 316.960957 1352.602239 314.756458 1352.230421 312.551958 1351.899916 C 312.011232 1349.297192 311.636883 1346.611841 311.262534 1343.967803 C 310.056298 1334.548418 304.357875 1326.120547 305.023384 1316.370658 C 305.231356 1306.662081 306.770346 1296.994818 306.936723 1287.286241 C 303.900337 1263.696466 300.032064 1240.106691 299.116989 1216.269037 C 299.616121 1202.016021 297.661187 1187.84563 296.039008 1173.716553 C 294.624801 1162.148888 295.248716 1150.457283 293.044216 1139.013556 C 287.096227 1100.468442 280.149973 1062.047267 273.536475 1023.626092 C 266.423844 981.032295 258.562515 938.521124 253.072063 895.638135 C 252.323365 915.013975 252.905686 934.389814 252.739309 953.765654 C 252.780903 1002.473789 252.65612 1051.223237 252.780903 1099.972685 C 254.070327 1108.689747 252.864092 1117.530749 254.278299 1126.247811 C 254.777431 1131.701139 254.028733 1137.19578 254.943808 1142.649108 C 257.148308 1165.206056 252.905686 1187.639065 250.326837 1209.989447 C 248.579875 1222.424688 249.286979 1234.983868 249.162196 1247.501734 C 249.411762 1273.281103 247.6648 1299.514917 239.512311 1324.178832 C 237.141434 1330.83024 233.564322 1337.729526 235.394472 1344.959317 C 236.725491 1361.897685 233.314756 1378.753426 233.023595 1395.691793 C 227.616332 1401.764818 219.671815 1404.408856 212.060052 1406.47451 C 204.531478 1408.292286 196.753338 1410.316628 188.975198 1408.994609 C 184.982142 1406.722389 180.947492 1404.450169 176.288926 1403.954412 C 173.335729 1404.698047 170.216154 1405.111178 167.595711 1406.763702 C 159.526411 1411.67996 154.784657 1420.686214 146.257819 1425.024088 C 140.808961 1427.833379 134.569811 1428.205196 128.996171 1430.601356 C 121.051654 1434.360847 112.108872 1434.195595 103.665223 1435.972058 C 97.883611 1437.583268 91.977216 1435.889431 86.154009 1435.848118 C 69.641059 1434.526099 54.209562 1427.998631 38.237339 1424.073887 C 38.320527 1421.016718 38.653282 1417.95955 39.651546 1415.108946 C 41.523291 1414.200058 43.43663 1413.29117 45.349969 1412.423595 C 45.765913 1407.13552 47.720846 1401.723505 52.296223 1398.625023 C 58.826533 1394.493714 66.18873 1391.76705 72.885417 1387.924932 C 76.587313 1385.694025 78.999784 1381.934534 82.452114 1379.331809 C 86.486764 1377.142215 91.311706 1378.257669 95.679111 1378.092416 C 103.374063 1373.382724 107.907845 1365.409297 112.649599 1358.09688 C 117.640918 1348.429617 122.299484 1337.522961 120.011795 1326.451052 C 119.346286 1315.172578 117.890484 1304.018043 116.809032 1292.822196 C 118.930343 1291.169672 123.672097 1291.045733 123.256153 1287.53412 C 122.049918 1265.059798 117.599324 1242.50285 120.427739 1219.945902 C 121.093248 1195.695118 126.334134 1171.816151 127.124426 1147.565366 C 128.538633 1139.220122 126.999643 1130.750938 128.247473 1122.405694 C 129.328926 1106.913284 127.457181 1091.296936 129.245737 1075.887153 C 127.415586 1046.554858 122.008323 1017.635694 116.3099 988.881782 C 114.1054 969.588568 108.82292 950.791112 106.867986 931.456585 C 104.746675 912.245997 104.247543 892.828844 101.003186 873.700883 C 97.01013 848.871715 95.138385 823.753356 92.143593 798.800248 C 91.06214 779.961479 94.348092 761.287961 96.303026 742.614444 C 97.426073 735.425966 96.843752 728.072236 98.424337 721.007697 C 98.715497 720.305375 99.256224 718.942043 99.50579 718.281033 C 92.601131 715.099925 84.989368 713.653967 78.00152 710.638111 C 75.173105 709.811849 72.303097 707.746195 69.26671 708.779022 C 70.306569 705.928419 70.680918 702.87125 71.055267 699.896707 C 77.876737 644.991609 84.947773 590.127824 91.769244 535.222725 C 90.895763 531.587173 91.769244 527.373238 89.606339 524.19213 C 84.739802 519.441124 79.041378 515.64032 73.426143 511.839515 C 64.150607 505.394673 56.039713 497.462559 47.346497 490.315395 C 41.148942 485.564389 36.864726 478.912981 31.748623 473.170462 C 24.13686 463.503198 16.441909 453.877248 9.911599 443.425036 C 6.043326 436.897567 1.75911 430.328786 0.677657 422.644551 C -0.819739 415.580012 0.885629 408.432847 0.927223 401.326996 C 1.800704 378.728735 7.083184 356.584918 8.28942 334.02797 C 9.911599 316.759098 12.656824 299.655478 15.776399 282.634484 C 18.480031 268.794598 21.765983 255.119965 23.554539 241.15614 C 23.970483 236.281195 28.670642 233.182714 28.753831 228.266456 C 25.842228 226.98575 21.100474 224.424338 23.221785 220.582221 C 25.717445 217.731617 29.668906 216.574851 32.746887 214.385257 C 33.204424 212.897986 33.620368 211.410714 34.077905 209.923443 C 32.330944 207.733849 30.417604 205.461629 29.585718 202.693652 C 28.545859 196.455375 31.748623 190.754169 32.87167 184.76377 C 36.656754 165.016113 40.982565 145.351081 46.556205 126.016554 C 48.927082 118.456259 49.550997 110.400206 52.337817 102.963849 C 54.126373 97.345269 59.533637 93.709717 64.982494 92.222446 C 81.828199 87.884571 99.173035 86.27336 116.185117 82.803061 C 130.576756 79.621953 145.467526 77.762864 158.985684 71.607213 C 166.888607 68.178226 175.373851 65.327623 181.737784 59.295912 C 185.356491 55.329855 188.268094 50.620162 192.760282 47.562994 C 203.283648 40.002698 215.054844 34.590683 225.827776 27.526144 C 224.080814 33.268664 221.709937 38.804618 219.838192 44.505825 C 217.758475 50.868041 218.798334 57.93258 222.12588 63.675099 C 221.002833 71.524587 217.217749 78.754378 214.638901 86.232047 C 210.396279 97.427895 209.231637 109.532631 208.690911 121.389488 C 207.068732 131.387256 208.857288 141.426337 209.647581 151.382792 C 214.098174 178.649433 222.666607 205.502942 236.600708 229.464535 C 245.585083 246.031085 254.777431 262.721574 266.756598 277.387721 C 267.172542 277.181156 268.046023 276.768025 268.461966 276.56146 L 266.881381 274.206613 C 267.130947 257.764003 266.715004 241.321393 267.089353 224.920095 C 268.794721 215.789902 267.006164 206.453143 268.545155 197.32295 C 269.252258 182.863368 269.626607 168.445099 270.749654 154.02683 C 273.827635 133.57685 282.853605 114.490202 284.683756 93.792343 C 282.354473 90.8178 279.650841 88.173763 277.030398 85.447099 C 273.910824 87.016996 270.832843 88.834772 269.002692 91.891941 C 263.803401 98.171531 260.267883 105.814453 254.111922 111.267781 C 256.69077 100.815569 262.763543 91.768002 266.715004 81.85286 C 271.706324 72.557414 274.74271 61.485506 283.893463 55.247229 C 277.945474 51.611677 271.415164 49.174204 265.217608 46.034409 C 254.319893 40.870273 242.590292 36.325833 233.897076 27.774023 C 232.607652 22.444634 238.430858 21.659685 242.299131 22.196756 C 241.092896 23.229583 239.969849 24.26241 238.846802 25.377864 C 240.136226 27.402205 241.716811 29.219981 243.172612 31.120383 C 251.325101 26.658569 259.519185 22.114129 268.545155 19.594031 Z M 268.545155 19.594031 " stroke="#010101" stroke-width="0.1" stroke-opacity="1" stroke-miterlimit="10"/><path fill="#010101" d="M 100.070312 26.820312 C 100.871094 26.542969 101.726562 26.695312 102.550781 26.65625 C 103.765625 26.554688 104.871094 27.179688 105.898438 27.746094 C 106.132812 27.882812 106.371094 27.671875 106.578125 27.582031 C 106.457031 27.292969 106.328125 27.007812 106.21875 26.714844 C 106.578125 26.863281 106.671875 27.265625 106.839844 27.578125 C 106.179688 28.433594 105.15625 28.84375 104.253906 29.371094 C 103.617188 29.65625 102.988281 29.972656 102.316406 30.164062 C 102.996094 31.082031 103.679688 32.011719 104.148438 33.0625 C 104.546875 33.972656 104.980469 34.878906 105.210938 35.851562 C 104.519531 35.007812 104.070312 33.976562 103.28125 33.210938 C 103.046875 33.410156 102.707031 33.59375 102.691406 33.941406 C 102.710938 34.554688 102.894531 35.144531 103.035156 35.738281 C 103.265625 36.808594 103.570312 37.867188 103.738281 38.953125 C 103.972656 40.386719 104.296875 41.824219 104.292969 43.285156 C 104.460938 44.300781 104.277344 45.332031 104.445312 46.347656 C 104.46875 47.757812 104.445312 49.167969 104.457031 50.582031 C 104.9375 50.183594 105.355469 49.710938 105.671875 49.171875 C 106.648438 47.574219 107.203125 45.761719 107.695312 43.96875 C 108.449219 40.957031 108.898438 37.875 109.066406 34.777344 C 109.015625 33.652344 109.199219 32.496094 108.863281 31.402344 C 108.765625 30.871094 107.988281 30.777344 108.046875 30.175781 C 107.945312 29.679688 108.289062 29.230469 108.207031 28.75 C 107.882812 27.914062 106.9375 27.535156 106.574219 26.71875 C 107.75 26.964844 108.65625 27.816406 109.59375 28.515625 C 110.433594 29.203125 111.402344 29.753906 112.058594 30.640625 C 113.203125 31.957031 114.914062 32.484375 116.539062 32.910156 C 118.941406 33.515625 121.386719 34.027344 123.867188 34.117188 C 124.96875 34.492188 125.703125 35.644531 125.75 36.796875 C 125.933594 38.953125 126.28125 41.09375 126.527344 43.246094 C 126.613281 43.75 126.582031 44.261719 126.574219 44.769531 C 126.953125 44.929688 127.351562 45.074219 127.636719 45.386719 C 127.363281 45.839844 126.933594 46.21875 126.828125 46.753906 C 126.765625 47.101562 127.050781 47.355469 127.277344 47.566406 C 127.472656 47.71875 127.511719 47.96875 127.582031 48.195312 C 127.347656 48.285156 127.117188 48.382812 126.886719 48.480469 C 127.09375 49.183594 127.503906 49.820312 127.613281 50.558594 C 127.996094 52.640625 127.914062 54.777344 128.300781 56.863281 C 128.503906 58.449219 128.613281 60.042969 128.710938 61.636719 C 128.816406 62.136719 128.707031 62.660156 128.847656 63.15625 L 128.847656 66.132812 C 128.664062 67.117188 128.582031 68.117188 128.421875 69.105469 C 127.554688 69.808594 126.792969 70.644531 125.832031 71.21875 C 125.1875 71.632812 124.5625 72.074219 123.921875 72.496094 C 122.300781 73.601562 120.566406 74.519531 118.933594 75.609375 C 119.117188 76.121094 118.992188 76.671875 119.089844 77.195312 C 119.445312 82.414062 119.78125 87.628906 120.144531 92.84375 C 119.308594 93.339844 118.308594 93.390625 117.367188 93.46875 C 117.359375 95.191406 117.035156 96.898438 117 98.621094 C 116.929688 100.046875 116.648438 101.449219 116.5625 102.871094 C 116.453125 104.851562 116.011719 106.789062 115.777344 108.753906 C 115.316406 112.070312 114.339844 115.285156 113.710938 118.570312 C 113.601562 119.402344 113.742188 120.25 113.625 121.085938 C 113.546875 122.179688 113.660156 123.277344 113.566406 124.367188 C 113.457031 124.949219 113.550781 125.546875 113.476562 126.132812 C 113.296875 127.425781 113.15625 128.734375 113.320312 130.035156 C 113.363281 133.707031 114.054688 137.339844 114.113281 141.007812 C 114.269531 141.878906 114.117188 142.765625 114.234375 143.640625 C 114.304688 144.621094 114.183594 145.605469 114.339844 146.582031 C 114.265625 148.230469 114.683594 149.839844 114.984375 151.445312 C 115.203125 152.722656 115.683594 153.992188 116.53125 154.980469 C 116.71875 155.273438 117.097656 155.152344 117.382812 155.175781 C 117.980469 155.320312 118.09375 156.027344 118.601562 156.300781 C 119.011719 156.558594 119.429688 156.804688 119.816406 157.101562 C 120.136719 157.46875 120.332031 157.921875 120.320312 158.421875 C 120.484375 158.554688 120.644531 158.691406 120.804688 158.835938 C 120.800781 159.066406 120.800781 159.296875 120.804688 159.53125 C 120.242188 159.757812 119.683594 159.988281 119.121094 160.214844 C 117.96875 160.675781 116.695312 160.839844 115.464844 160.660156 C 114.828125 160.566406 114.171875 160.605469 113.542969 160.445312 C 112.988281 160.117188 112.316406 160.011719 111.816406 159.59375 C 111.28125 159.039062 110.960938 158.257812 110.257812 157.882812 C 109.988281 157.710938 109.683594 157.839844 109.402344 157.894531 C 109.273438 158.035156 109.140625 158.175781 109.015625 158.320312 C 108.3125 158.328125 107.640625 158.105469 106.988281 157.871094 C 106.308594 157.582031 105.554688 157.339844 105.050781 156.765625 C 104.984375 156.128906 104.941406 155.492188 104.945312 154.851562 C 104.839844 154.203125 104.882812 153.546875 104.828125 152.894531 C 104.617188 152.859375 104.410156 152.824219 104.203125 152.792969 C 104.152344 152.546875 104.117188 152.292969 104.082031 152.042969 C 103.96875 151.152344 103.433594 150.355469 103.496094 149.433594 C 103.515625 148.515625 103.660156 147.601562 103.675781 146.683594 C 103.390625 144.453125 103.027344 142.222656 102.941406 139.96875 C 102.988281 138.621094 102.804688 137.28125 102.652344 135.945312 C 102.519531 134.851562 102.578125 133.746094 102.371094 132.664062 C 101.8125 129.019531 101.160156 125.386719 100.539062 121.753906 C 99.871094 117.726562 99.132812 113.707031 98.617188 109.652344 C 98.546875 111.484375 98.601562 113.316406 98.585938 115.148438 C 98.589844 119.753906 98.578125 124.363281 98.589844 128.972656 C 98.710938 129.796875 98.597656 130.632812 98.730469 131.457031 C 98.777344 131.972656 98.707031 132.492188 98.792969 133.007812 C 99 135.140625 98.601562 137.261719 98.359375 139.375 C 98.195312 140.550781 98.261719 141.738281 98.25 142.921875 C 98.273438 145.359375 98.109375 147.839844 97.34375 150.171875 C 97.121094 150.800781 96.785156 151.453125 96.957031 152.136719 C 97.082031 153.738281 96.761719 155.332031 96.734375 156.933594 C 96.226562 157.507812 95.480469 157.757812 94.765625 157.953125 C 94.058594 158.125 93.328125 158.316406 92.597656 158.191406 C 92.222656 157.976562 91.84375 157.761719 91.40625 157.714844 C 91.128906 157.785156 90.835938 157.824219 90.589844 157.980469 C 89.832031 158.445312 89.386719 159.296875 88.585938 159.707031 C 88.074219 159.972656 87.488281 160.007812 86.964844 160.234375 C 86.21875 160.589844 85.378906 160.574219 84.585938 160.742188 C 84.042969 160.894531 83.488281 160.734375 82.941406 160.730469 C 81.390625 160.605469 79.941406 159.988281 78.441406 159.617188 C 78.449219 159.328125 78.480469 159.039062 78.574219 158.769531 C 78.75 158.683594 78.929688 158.597656 79.109375 158.515625 C 79.148438 158.015625 79.332031 157.503906 79.761719 157.210938 C 80.375 156.820312 81.066406 156.5625 81.695312 156.199219 C 82.042969 155.988281 82.269531 155.632812 82.59375 155.386719 C 82.972656 155.179688 83.425781 155.285156 83.835938 155.269531 C 84.558594 154.824219 84.984375 154.070312 85.429688 153.378906 C 85.898438 152.464844 86.335938 151.433594 86.121094 150.386719 C 86.058594 149.320312 85.921875 148.265625 85.820312 147.207031 C 86.019531 147.050781 86.464844 147.039062 86.425781 146.707031 C 86.3125 144.582031 85.894531 142.449219 86.160156 140.316406 C 86.222656 138.023438 86.714844 135.765625 86.789062 133.472656 C 86.921875 132.683594 86.777344 131.882812 86.894531 131.09375 C 86.996094 129.628906 86.820312 128.152344 86.988281 126.695312 C 86.816406 123.921875 86.308594 121.1875 85.773438 118.46875 C 85.566406 116.644531 85.070312 114.867188 84.886719 113.039062 C 84.6875 111.222656 84.640625 109.386719 84.335938 107.578125 C 83.960938 105.230469 83.785156 102.855469 83.503906 100.496094 C 83.402344 98.714844 83.710938 96.949219 83.894531 95.183594 C 84 94.503906 83.945312 93.808594 84.09375 93.140625 C 84.121094 93.074219 84.171875 92.945312 84.195312 92.882812 C 83.546875 92.582031 82.832031 92.445312 82.175781 92.160156 C 81.910156 92.082031 81.640625 91.886719 81.355469 91.984375 C 81.453125 91.714844 81.488281 91.425781 81.523438 91.144531 C 82.164062 85.953125 82.828125 80.765625 83.46875 75.574219 C 83.386719 75.230469 83.46875 74.832031 83.265625 74.53125 C 82.808594 74.082031 82.273438 73.722656 81.746094 73.363281 C 80.875 72.753906 80.113281 72.003906 79.296875 71.328125 C 78.714844 70.878906 78.3125 70.25 77.832031 69.707031 C 77.117188 68.792969 76.394531 67.882812 75.78125 66.894531 C 75.417969 66.277344 75.015625 65.65625 74.914062 64.929688 C 74.773438 64.261719 74.933594 63.585938 74.9375 62.914062 C 75.019531 60.777344 75.515625 58.683594 75.628906 56.550781 C 75.78125 54.917969 76.039062 53.300781 76.332031 51.691406 C 76.585938 50.382812 76.894531 49.089844 77.0625 47.769531 C 77.101562 47.308594 77.542969 47.015625 77.550781 46.550781 C 77.277344 46.429688 76.832031 46.1875 77.03125 45.824219 C 77.265625 45.554688 77.636719 45.445312 77.925781 45.238281 C 77.96875 45.097656 78.007812 44.957031 78.050781 44.816406 C 77.886719 44.609375 77.707031 44.394531 77.628906 44.132812 C 77.53125 43.542969 77.832031 43.003906 77.9375 42.4375 C 78.292969 40.570312 78.699219 38.710938 79.222656 36.882812 C 79.445312 36.167969 79.503906 35.40625 79.765625 34.703125 C 79.933594 34.171875 80.441406 33.828125 80.953125 33.6875 C 82.535156 33.277344 84.164062 33.125 85.761719 32.796875 C 87.113281 32.496094 88.511719 32.320312 89.78125 31.738281 C 90.523438 31.414062 91.320312 31.144531 91.917969 30.574219 C 92.257812 30.199219 92.53125 29.753906 92.953125 29.464844 C 93.941406 28.75 95.046875 28.238281 96.058594 27.570312 C 95.894531 28.113281 95.671875 28.636719 95.496094 29.175781 C 95.300781 29.777344 95.398438 30.445312 95.710938 30.988281 C 95.605469 31.730469 95.25 32.414062 95.007812 33.121094 C 94.609375 34.179688 94.5 35.324219 94.449219 36.445312 C 94.296875 37.390625 94.464844 38.339844 94.539062 39.28125 C 94.957031 41.859375 95.761719 44.398438 97.070312 46.664062 C 97.914062 48.230469 98.777344 49.808594 99.902344 51.195312 C 99.941406 51.175781 100.023438 51.136719 100.0625 51.117188 L 99.914062 50.894531 C 99.9375 49.339844 99.898438 47.785156 99.933594 46.234375 C 100.09375 45.371094 99.925781 44.488281 100.070312 43.625 C 100.136719 42.257812 100.171875 40.894531 100.277344 39.53125 C 100.566406 37.597656 101.414062 35.792969 101.585938 33.835938 C 101.367188 33.554688 101.113281 33.304688 100.867188 33.046875 C 100.574219 33.195312 100.285156 33.367188 100.113281 33.65625 C 99.625 34.25 99.292969 34.972656 98.714844 35.488281 C 98.957031 34.5 99.527344 33.644531 99.898438 32.707031 C 100.367188 31.828125 100.652344 30.78125 101.511719 30.191406 C 100.953125 29.847656 100.339844 29.617188 99.757812 29.320312 C 98.734375 28.832031 97.632812 28.402344 96.816406 27.59375 C 96.695312 27.089844 97.242188 27.015625 97.605469 27.066406 C 97.492188 27.164062 97.386719 27.261719 97.28125 27.367188 C 97.402344 27.558594 97.550781 27.730469 97.6875 27.910156 C 98.453125 27.488281 99.222656 27.058594 100.070312 26.820312 " fill-opacity="1" fill-rule="nonzero"/></g></svg>