<svg xmlns="http://www.w3.org/2000/svg" xmlns:xlink="http://www.w3.org/1999/xlink" width="70" zoomAndPan="magnify" viewBox="0 0 52.5 52.499999" height="70" preserveAspectRatio="xMidYMid meet" version="1.0"><defs><clipPath id="0fc46d7f2f"><path d="M 8.832031 2.328125 L 42.261719 2.328125 L 42.261719 48.765625 L 8.832031 48.765625 Z M 8.832031 2.328125 " clip-rule="nonzero"/></clipPath></defs><g clip-path="url(#0fc46d7f2f)"><path fill="#eb9c96" d="M 12.015625 47.789062 L 39.320312 47.789062 C 40.539062 47.789062 41.527344 46.800781 41.527344 45.578125 L 41.527344 5.515625 C 41.527344 4.296875 40.539062 3.304688 39.320312 3.304688 L 12.015625 3.304688 C 10.796875 3.304688 9.808594 4.296875 9.808594 5.515625 L 9.808594 45.578125 C 9.808594 46.800781 10.796875 47.789062 12.015625 47.789062 Z M 40.296875 48.765625 L 11.039062 48.765625 C 9.820312 48.765625 8.832031 47.777344 8.832031 46.554688 L 8.832031 4.539062 C 8.832031 3.320312 9.820312 2.328125 11.039062 2.328125 L 40.296875 2.328125 C 41.515625 2.328125 42.507812 3.320312 42.507812 4.539062 L 42.507812 46.554688 C 42.507812 47.777344 41.515625 48.765625 40.296875 48.765625 " fill-opacity="1" fill-rule="nonzero"/></g><path fill="#eb9c96" d="M 13.417969 20.570312 L 12.300781 19.140625 C 12.195312 19.003906 12.207031 18.808594 12.328125 18.683594 C 12.46875 18.535156 12.664062 18.347656 12.800781 18.5 L 13.410156 19.1875 C 13.554688 19.351562 13.8125 19.34375 13.949219 19.171875 L 15.171875 17.609375 C 15.265625 17.492188 15.441406 17.480469 15.550781 17.585938 L 15.902344 17.941406 C 16.035156 18.070312 16.039062 18.285156 15.914062 18.421875 L 13.953125 20.589844 C 13.808594 20.753906 13.550781 20.742188 13.417969 20.570312 " fill-opacity="1" fill-rule="nonzero"/><path fill="#eb9c96" d="M 13.417969 27.515625 L 12.300781 26.082031 C 12.195312 25.945312 12.207031 25.75 12.328125 25.625 C 12.46875 25.480469 12.664062 25.289062 12.800781 25.441406 L 13.410156 26.132812 C 13.554688 26.292969 13.8125 26.285156 13.949219 26.113281 L 15.011719 24.757812 C 15.191406 24.53125 15.53125 24.511719 15.734375 24.714844 L 15.902344 24.882812 C 16.035156 25.015625 16.039062 25.226562 15.914062 25.363281 L 13.953125 27.535156 C 13.808594 27.695312 13.550781 27.6875 13.417969 27.515625 " fill-opacity="1" fill-rule="nonzero"/><path fill="#eb9c96" d="M 13.417969 35.15625 L 12.300781 33.722656 C 12.195312 33.585938 12.207031 33.390625 12.328125 33.265625 C 12.46875 33.121094 12.664062 32.929688 12.800781 33.082031 L 13.410156 33.773438 C 13.554688 33.9375 13.8125 33.929688 13.949219 33.757812 L 15.011719 32.398438 C 15.191406 32.171875 15.53125 32.152344 15.734375 32.355469 L 15.902344 32.523438 C 16.035156 32.65625 16.039062 32.867188 15.914062 33.003906 L 13.953125 35.175781 C 13.808594 35.335938 13.550781 35.328125 13.417969 35.15625 " fill-opacity="1" fill-rule="nonzero"/><path fill="#eb9c96" d="M 25.070312 11.679688 C 24.542969 12.199219 23.710938 12.824219 23.238281 12.785156 C 22.464844 12.722656 21.46875 11.683594 21.46875 11.683594 C 21.46875 11.683594 19.089844 9.984375 20.519531 8.320312 C 21.542969 7.132812 23.238281 9.039062 23.238281 9.039062 C 23.238281 9.039062 24.816406 7.019531 26.058594 7.714844 C 27.546875 8.546875 25.988281 10.769531 25.070312 11.679688 Z M 26.769531 6.796875 C 24.976562 5.792969 23.242188 7.6875 23.242188 7.6875 C 22.589844 7.171875 21.699219 6.753906 20.859375 6.757812 C 19.488281 6.757812 18.464844 8.191406 18.664062 9.511719 C 18.898438 11.03125 20.460938 12.289062 21.59375 13.160156 C 21.945312 13.429688 22.304688 13.699219 22.722656 13.847656 C 23.972656 14.292969 25.09375 13.132812 25.898438 12.335938 C 27.230469 11.019531 28.929688 8.003906 26.769531 6.796875 " fill-opacity="1" fill-rule="nonzero"/><path fill="#eb9c96" d="M 30 13.195312 C 29.476562 13.71875 28.644531 14.339844 28.167969 14.304688 C 27.398438 14.242188 26.398438 13.203125 26.398438 13.203125 C 26.398438 13.203125 23.71875 11.496094 25.148438 9.835938 C 26.167969 8.648438 28.167969 10.554688 28.167969 10.554688 C 28.167969 10.554688 29.363281 8.683594 30.601562 9.375 C 32.09375 10.207031 30.917969 12.289062 30 13.195312 Z M 31.699219 8.3125 C 29.90625 7.308594 28.179688 9.457031 28.179688 9.457031 C 27.527344 8.941406 26.632812 8.273438 25.792969 8.273438 C 24.417969 8.273438 23.394531 9.710938 23.597656 11.027344 C 23.828125 12.546875 25.390625 13.804688 26.523438 14.679688 C 26.875 14.949219 27.238281 15.21875 27.65625 15.367188 C 28.902344 15.808594 30.023438 14.648438 30.832031 13.851562 C 32.160156 12.535156 33.859375 9.519531 31.699219 8.3125 " fill-opacity="1" fill-rule="nonzero"/><path fill="#eb9c96" d="M 37.71875 19.089844 L 18.253906 19.089844 C 17.90625 19.089844 17.625 18.808594 17.625 18.460938 C 17.625 18.113281 17.90625 17.832031 18.253906 17.832031 L 37.71875 17.832031 C 38.066406 17.832031 38.347656 18.113281 38.347656 18.460938 C 38.347656 18.808594 38.066406 19.089844 37.71875 19.089844 " fill-opacity="1" fill-rule="nonzero"/><path fill="#eb9c96" d="M 37.71875 23.0625 L 18.253906 23.0625 C 17.90625 23.0625 17.625 22.78125 17.625 22.433594 C 17.625 22.085938 17.90625 21.804688 18.253906 21.804688 L 37.71875 21.804688 C 38.066406 21.804688 38.347656 22.085938 38.347656 22.433594 C 38.347656 22.78125 38.066406 23.0625 37.71875 23.0625 " fill-opacity="1" fill-rule="nonzero"/><path fill="#eb9c96" d="M 37.71875 27.035156 L 18.253906 27.035156 C 17.90625 27.035156 17.625 26.753906 17.625 26.40625 C 17.625 26.058594 17.90625 25.777344 18.253906 25.777344 L 37.71875 25.777344 C 38.066406 25.777344 38.347656 26.058594 38.347656 26.40625 C 38.347656 26.753906 38.066406 27.035156 37.71875 27.035156 " fill-opacity="1" fill-rule="nonzero"/><path fill="#eb9c96" d="M 37.71875 31.007812 L 18.253906 31.007812 C 17.90625 31.007812 17.625 30.726562 17.625 30.378906 C 17.625 30.03125 17.90625 29.75 18.253906 29.75 L 37.71875 29.75 C 38.066406 29.75 38.347656 30.03125 38.347656 30.378906 C 38.347656 30.726562 38.066406 31.007812 37.71875 31.007812 " fill-opacity="1" fill-rule="nonzero"/><path fill="#eb9c96" d="M 37.71875 34.984375 L 18.253906 34.984375 C 17.90625 34.984375 17.625 34.703125 17.625 34.355469 C 17.625 34.007812 17.90625 33.726562 18.253906 33.726562 L 37.71875 33.726562 C 38.066406 33.726562 38.347656 34.007812 38.347656 34.355469 C 38.347656 34.703125 38.066406 34.984375 37.71875 34.984375 " fill-opacity="1" fill-rule="nonzero"/><path fill="#eb9c96" d="M 24.078125 43.234375 L 18.492188 43.234375 C 18.160156 43.234375 17.890625 42.964844 17.890625 42.632812 C 17.890625 42.300781 18.160156 42.03125 18.492188 42.03125 L 24.078125 42.03125 C 24.410156 42.03125 24.679688 42.300781 24.679688 42.632812 C 24.679688 42.964844 24.410156 43.234375 24.078125 43.234375 " fill-opacity="1" fill-rule="nonzero"/><path fill="#eb9c96" d="M 34.582031 37.691406 C 32.246094 37.441406 30.289062 39.398438 30.539062 41.730469 C 30.71875 43.433594 32.085938 44.796875 33.785156 44.980469 C 36.117188 45.226562 38.074219 43.269531 37.828125 40.9375 C 37.644531 39.238281 36.28125 37.871094 34.582031 37.691406 Z M 34.605469 45.949219 C 31.71875 46.207031 29.308594 43.800781 29.566406 40.910156 C 29.761719 38.699219 31.546875 36.914062 33.757812 36.71875 C 36.648438 36.460938 39.054688 38.871094 38.796875 41.757812 C 38.601562 43.972656 36.820312 45.753906 34.605469 45.949219 " fill-opacity="1" fill-rule="nonzero"/><path fill="#eb9c96" d="M 36.539062 41.792969 C 36.339844 41.726562 36.21875 41.527344 36.21875 41.320312 C 36.210938 40.207031 35.308594 39.304688 34.199219 39.296875 C 33.988281 39.296875 33.789062 39.175781 33.722656 38.976562 C 33.613281 38.640625 33.859375 38.328125 34.183594 38.328125 C 35.839844 38.328125 37.1875 39.675781 37.1875 41.335938 C 37.1875 41.65625 36.875 41.902344 36.539062 41.792969 " fill-opacity="1" fill-rule="nonzero"/><path fill="#eb9c96" d="M 34.183594 44.339844 C 32.53125 44.339844 31.183594 43 31.175781 41.347656 C 31.175781 41.113281 31.335938 40.902344 31.566406 40.859375 C 31.875 40.800781 32.144531 41.035156 32.144531 41.335938 C 32.144531 42.453125 33.054688 43.367188 34.175781 43.371094 C 34.421875 43.371094 34.636719 43.558594 34.664062 43.800781 C 34.695312 44.09375 34.46875 44.339844 34.183594 44.339844 " fill-opacity="1" fill-rule="nonzero"/></svg>