<svg xmlns="http://www.w3.org/2000/svg" xmlns:xlink="http://www.w3.org/1999/xlink" width="70" zoomAndPan="magnify" viewBox="0 0 52.5 52.499999" height="70" preserveAspectRatio="xMidYMid meet" version="1.0"><defs><clipPath id="3f8e15eb8e"><path d="M 5.199219 5.199219 L 46.804688 5.199219 L 46.804688 48.289062 L 5.199219 48.289062 Z M 5.199219 5.199219 " clip-rule="nonzero"/></clipPath></defs><path fill="#eb9c96" d="M 37.113281 42.933594 L 37.113281 45.054688 C 37.113281 45.234375 37.257812 45.382812 37.4375 45.382812 L 40.703125 45.382812 C 40.882812 45.382812 41.03125 45.234375 41.03125 45.054688 L 41.03125 42.933594 C 41.03125 41.929688 40.214844 41.113281 39.210938 41.113281 L 38.933594 41.113281 C 37.929688 41.113281 37.113281 41.929688 37.113281 42.933594 Z M 37.765625 42.933594 C 37.765625 42.289062 38.289062 41.765625 38.933594 41.765625 L 39.210938 41.765625 C 39.851562 41.765625 40.375 42.289062 40.375 42.933594 L 40.375 44.726562 L 37.765625 44.726562 Z M 37.765625 42.933594 " fill-opacity="1" fill-rule="nonzero"/><path fill="#eb9c96" d="M 12.980469 41.113281 L 12.703125 41.113281 C 11.699219 41.113281 10.882812 41.929688 10.882812 42.933594 L 10.882812 45.054688 C 10.882812 45.234375 11.027344 45.382812 11.207031 45.382812 L 14.472656 45.382812 C 14.652344 45.382812 14.800781 45.234375 14.800781 45.054688 L 14.800781 42.933594 C 14.800781 41.929688 13.984375 41.113281 12.980469 41.113281 Z M 14.144531 44.726562 L 11.535156 44.726562 L 11.535156 42.933594 C 11.535156 42.289062 12.058594 41.765625 12.703125 41.765625 L 12.980469 41.765625 C 13.621094 41.765625 14.144531 42.289062 14.144531 42.933594 Z M 14.144531 44.726562 " fill-opacity="1" fill-rule="nonzero"/><g clip-path="url(#3f8e15eb8e)"><path fill="#eb9c96" d="M 5.75 33.34375 L 8.308594 31.8125 L 8.308594 47.929688 C 8.308594 48.109375 8.457031 48.253906 8.636719 48.253906 L 43.226562 48.253906 C 43.40625 48.253906 43.554688 48.109375 43.554688 47.929688 L 43.554688 31.742188 L 46.25 33.34375 C 46.300781 33.375 46.359375 33.390625 46.417969 33.390625 C 46.527344 33.390625 46.636719 33.332031 46.699219 33.230469 C 46.792969 33.074219 46.738281 32.871094 46.585938 32.78125 L 33.316406 24.902344 L 33.316406 17.226562 L 36.054688 18.941406 C 36.109375 18.972656 36.167969 18.992188 36.226562 18.992188 C 36.335938 18.992188 36.445312 18.9375 36.503906 18.835938 C 36.601562 18.683594 36.554688 18.480469 36.402344 18.386719 L 33.164062 16.359375 L 31.777344 15.492188 L 26.277344 12.046875 L 26.277344 8.054688 L 28.300781 8.054688 C 28.484375 8.054688 28.628906 7.90625 28.628906 7.726562 C 28.628906 7.542969 28.484375 7.398438 28.300781 7.398438 L 26.277344 7.398438 L 26.277344 5.527344 C 26.277344 5.347656 26.132812 5.199219 25.949219 5.199219 C 25.769531 5.199219 25.621094 5.347656 25.621094 5.527344 L 25.621094 7.398438 L 23.597656 7.398438 C 23.417969 7.398438 23.269531 7.542969 23.269531 7.726562 C 23.269531 7.90625 23.417969 8.054688 23.597656 8.054688 L 25.621094 8.054688 L 25.621094 12.09375 L 15.523438 18.316406 C 15.371094 18.410156 15.320312 18.613281 15.417969 18.765625 C 15.511719 18.917969 15.714844 18.96875 15.867188 18.871094 L 18.546875 17.222656 L 18.546875 24.929688 L 5.414062 32.78125 C 5.257812 32.875 5.207031 33.074219 5.300781 33.230469 C 5.394531 33.386719 5.59375 33.4375 5.75 33.34375 Z M 25.660156 47.601562 L 22.726562 47.601562 L 22.726562 44.539062 C 22.726562 42.917969 24.039062 41.597656 25.660156 41.585938 Z M 29.246094 47.601562 L 26.3125 47.601562 L 26.3125 41.585938 C 27.933594 41.597656 29.246094 42.917969 29.246094 44.539062 Z M 33.316406 25.695312 L 42.898438 31.425781 L 42.898438 47.601562 L 35.234375 47.601562 L 35.234375 32.949219 L 37.515625 34.3125 C 37.566406 34.34375 37.625 34.359375 37.683594 34.359375 C 37.792969 34.359375 37.902344 34.300781 37.964844 34.199219 C 38.054688 34.042969 38.003906 33.84375 37.851562 33.75 L 35.074219 32.089844 L 33.316406 31.039062 Z M 19.203125 16.816406 L 25.824219 12.738281 L 25.984375 12.636719 L 31.730469 16.234375 L 32.660156 16.816406 L 32.660156 30.648438 L 26.101562 26.722656 C 25.996094 26.660156 25.867188 26.660156 25.765625 26.722656 L 19.203125 30.648438 Z M 21.953125 29.765625 L 25.933594 27.382812 L 29.910156 29.765625 L 34.578125 32.558594 L 34.578125 47.601562 L 29.902344 47.601562 L 29.902344 44.539062 C 29.902344 42.550781 28.28125 40.929688 26.292969 40.929688 L 25.679688 40.929688 C 23.691406 40.929688 22.074219 42.550781 22.074219 44.539062 L 22.074219 47.601562 L 17.285156 47.601562 L 17.285156 32.558594 Z M 8.964844 31.425781 L 18.546875 25.695312 L 18.546875 31.039062 L 16.789062 32.089844 L 14.011719 33.75 C 13.859375 33.84375 13.808594 34.042969 13.898438 34.199219 C 13.992188 34.355469 14.195312 34.40625 14.347656 34.3125 L 16.628906 32.949219 L 16.628906 47.601562 L 8.964844 47.601562 Z M 8.964844 31.425781 " fill-opacity="1" fill-rule="nonzero"/></g><path fill="#eb9c96" d="M 24.25 33.339844 L 25.621094 33.339844 L 25.621094 36.285156 C 25.621094 36.464844 25.769531 36.613281 25.949219 36.613281 C 26.132812 36.613281 26.277344 36.464844 26.277344 36.285156 L 26.277344 33.339844 L 27.648438 33.339844 C 27.832031 33.339844 27.976562 33.195312 27.976562 33.011719 C 27.976562 32.832031 27.832031 32.6875 27.648438 32.6875 L 26.277344 32.6875 L 26.277344 31.425781 C 26.277344 31.242188 26.132812 31.097656 25.949219 31.097656 C 25.769531 31.097656 25.621094 31.242188 25.621094 31.425781 L 25.621094 32.6875 L 24.25 32.6875 C 24.070312 32.6875 23.921875 32.832031 23.921875 33.011719 C 23.921875 33.195312 24.070312 33.339844 24.25 33.339844 Z M 24.25 33.339844 " fill-opacity="1" fill-rule="nonzero"/><path fill="#eb9c96" d="M 25.941406 24.398438 C 26.039062 24.398438 26.136719 24.378906 26.226562 24.339844 C 26.382812 24.273438 26.535156 24.199219 26.714844 24.097656 C 26.929688 23.980469 27.140625 23.847656 27.335938 23.703125 C 28.574219 22.792969 29.171875 21.757812 29.066406 20.707031 C 28.984375 19.867188 28.300781 19.203125 27.480469 19.164062 C 27.109375 19.148438 26.730469 19.277344 26.378906 19.539062 C 26.214844 19.664062 26.0625 19.808594 25.933594 19.957031 C 25.800781 19.808594 25.652344 19.664062 25.484375 19.539062 C 25.132812 19.277344 24.753906 19.148438 24.382812 19.164062 C 23.5625 19.203125 22.878906 19.863281 22.796875 20.707031 C 22.691406 21.757812 23.289062 22.792969 24.527344 23.703125 C 24.722656 23.847656 24.933594 23.980469 25.148438 24.097656 C 25.332031 24.199219 25.480469 24.273438 25.640625 24.339844 C 25.730469 24.378906 25.832031 24.398438 25.929688 24.398438 C 25.933594 24.398438 25.9375 24.398438 25.941406 24.398438 Z M 25.464844 23.523438 C 25.273438 23.421875 25.089844 23.300781 24.914062 23.175781 C 24.191406 22.640625 23.347656 21.792969 23.449219 20.773438 C 23.5 20.257812 23.921875 19.839844 24.414062 19.816406 C 24.425781 19.816406 24.4375 19.816406 24.449219 19.816406 C 24.707031 19.816406 24.9375 19.949219 25.089844 20.0625 C 25.265625 20.195312 25.417969 20.351562 25.535156 20.515625 C 25.625 20.640625 25.773438 20.71875 25.933594 20.71875 C 26.089844 20.71875 26.238281 20.640625 26.328125 20.511719 C 26.445312 20.351562 26.597656 20.195312 26.773438 20.0625 C 26.929688 19.945312 27.175781 19.804688 27.449219 19.816406 C 27.941406 19.839844 28.363281 20.257812 28.414062 20.773438 C 28.515625 21.792969 27.675781 22.640625 26.949219 23.175781 C 26.773438 23.300781 26.589844 23.421875 26.398438 23.527344 C 26.234375 23.617188 26.105469 23.679688 25.972656 23.738281 C 25.960938 23.742188 25.945312 23.746094 25.933594 23.746094 C 25.917969 23.746094 25.90625 23.742188 25.890625 23.738281 C 25.757812 23.679688 25.628906 23.617188 25.464844 23.523438 Z M 25.464844 23.523438 " fill-opacity="1" fill-rule="nonzero"/></svg>