<svg xmlns="http://www.w3.org/2000/svg" xmlns:xlink="http://www.w3.org/1999/xlink" width="70" zoomAndPan="magnify" viewBox="0 0 52.5 52.499999" height="70" preserveAspectRatio="xMidYMid meet" version="1.0"><defs><clipPath id="de849e3505"><path d="M 19 2.191406 L 26 2.191406 L 26 10 L 19 10 Z M 19 2.191406 " clip-rule="nonzero"/></clipPath><clipPath id="77b3d423c8"><path d="M 15 21 L 42 21 L 42 49.738281 L 15 49.738281 Z M 15 21 " clip-rule="nonzero"/></clipPath><clipPath id="5cd02b5a0d"><path d="M 9.570312 8 L 24 8 L 24 49.738281 L 9.570312 49.738281 Z M 9.570312 8 " clip-rule="nonzero"/></clipPath><clipPath id="9ea3231518"><path d="M 34 5 L 42.261719 5 L 42.261719 18 L 34 18 Z M 34 5 " clip-rule="nonzero"/></clipPath></defs><g clip-path="url(#de849e3505)"><path fill="#eb9c96" d="M 22.097656 3.042969 C 21.363281 3.042969 20.714844 3.492188 20.351562 4.253906 C 20.171875 4.632812 20.0625 5.410156 20.578125 6.980469 C 20.75 7.511719 21.179688 8.476562 22.089844 8.945312 C 22.828125 9.328125 23.753906 9.21875 24.246094 8.695312 C 24.570312 8.34375 24.75 7.804688 24.792969 7.046875 C 24.855469 6 24.664062 5.074219 24.234375 4.367188 C 23.753906 3.570312 22.917969 3.050781 22.113281 3.042969 C 22.105469 3.042969 22.101562 3.042969 22.097656 3.042969 Z M 23.03125 9.988281 C 22.585938 9.988281 22.132812 9.886719 21.714844 9.671875 C 20.847656 9.222656 20.171875 8.359375 19.800781 7.234375 C 19.316406 5.75 19.253906 4.660156 19.613281 3.90625 C 20.117188 2.851562 21.042969 2.226562 22.097656 2.226562 C 22.101562 2.226562 22.113281 2.226562 22.121094 2.226562 C 23.21875 2.238281 24.296875 2.894531 24.933594 3.945312 C 25.445312 4.789062 25.679688 5.878906 25.609375 7.09375 C 25.554688 8.050781 25.300781 8.757812 24.839844 9.25 C 24.386719 9.734375 23.722656 9.988281 23.03125 9.988281 " fill-opacity="1" fill-rule="nonzero"/></g><path fill="#eb9c96" d="M 33.5625 22.15625 C 33.359375 22.15625 33.15625 22.136719 32.953125 22.09375 L 33.011719 21.6875 L 32.921875 22.085938 C 30.375 21.523438 27.878906 20.589844 25.71875 19.394531 C 25.523438 19.285156 25.453125 19.035156 25.558594 18.839844 C 25.667969 18.640625 25.917969 18.570312 26.113281 18.679688 C 28.210938 19.839844 30.625 20.742188 33.097656 21.289062 L 33.039062 21.695312 L 33.125 21.296875 C 33.703125 21.421875 34.300781 21.292969 34.792969 20.9375 C 35.3125 20.566406 35.652344 19.988281 35.726562 19.351562 C 35.785156 18.84375 35.667969 18.632812 35.382812 18.121094 L 35.320312 18.011719 C 35.210938 17.8125 35.28125 17.566406 35.476562 17.457031 C 35.675781 17.347656 35.925781 17.417969 36.035156 17.617188 L 36.09375 17.722656 C 36.402344 18.273438 36.628906 18.675781 36.535156 19.445312 C 36.433594 20.308594 35.972656 21.09375 35.269531 21.601562 C 34.753906 21.96875 34.167969 22.15625 33.5625 22.15625 " fill-opacity="1" fill-rule="nonzero"/><path fill="#eb9c96" d="M 31.492188 12.871094 C 31.402344 12.871094 31.3125 12.867188 31.226562 12.863281 C 29.992188 12.785156 28.816406 12.296875 27.777344 11.867188 L 25.265625 10.828125 C 25.058594 10.742188 24.957031 10.503906 25.046875 10.292969 C 25.128906 10.085938 25.367188 9.988281 25.578125 10.074219 L 28.089844 11.117188 C 29.117188 11.539062 30.179688 11.980469 31.277344 12.046875 C 32.363281 12.113281 33.761719 11.671875 34.339844 10.6875 C 34.453125 10.492188 34.699219 10.425781 34.894531 10.539062 C 35.089844 10.652344 35.15625 10.902344 35.042969 11.097656 C 34.316406 12.335938 32.75 12.871094 31.492188 12.871094 " fill-opacity="1" fill-rule="nonzero"/><g clip-path="url(#77b3d423c8)"><path fill="#eb9c96" d="M 28.605469 49.617188 C 24.265625 49.617188 18.71875 48.949219 16.003906 47.070312 C 15.816406 46.941406 15.769531 46.6875 15.898438 46.5 C 16.027344 46.316406 16.28125 46.269531 16.46875 46.398438 C 18.636719 47.898438 23.34375 48.816406 28.746094 48.800781 C 33.808594 48.785156 38.21875 47.917969 40.148438 46.578125 C 39.625 45.25 38.921875 43.371094 38.179688 41.386719 C 36.582031 37.109375 34.59375 31.785156 33.421875 29.390625 C 32.648438 27.816406 32.085938 26.464844 31.84375 25.003906 C 31.628906 23.722656 31.71875 23.277344 31.910156 22.296875 C 31.957031 22.066406 32.003906 21.804688 32.0625 21.492188 C 32.101562 21.269531 32.3125 21.121094 32.53125 21.160156 C 32.753906 21.199219 32.902344 21.410156 32.863281 21.632812 C 32.808594 21.953125 32.753906 22.21875 32.710938 22.453125 C 32.527344 23.386719 32.457031 23.738281 32.644531 24.867188 C 32.875 26.234375 33.414062 27.519531 34.152344 29.03125 C 35.34375 31.464844 37.253906 36.582031 38.945312 41.101562 C 39.738281 43.226562 40.492188 45.238281 41.019531 46.566406 C 41.085938 46.730469 41.035156 46.921875 40.898438 47.035156 C 38.570312 48.917969 33.09375 49.605469 28.75 49.617188 C 28.699219 49.617188 28.652344 49.617188 28.605469 49.617188 " fill-opacity="1" fill-rule="nonzero"/></g><path fill="#eb9c96" d="M 34.011719 18.867188 C 33.941406 18.867188 33.875 18.867188 33.816406 18.867188 C 33.808594 18.867188 33.800781 18.867188 33.792969 18.863281 C 33.558594 18.847656 28.007812 18.410156 22.253906 13.929688 C 22.074219 13.792969 22.042969 13.535156 22.179688 13.355469 C 22.320312 13.179688 22.578125 13.148438 22.753906 13.285156 C 28.1875 17.515625 33.570312 18.027344 33.839844 18.050781 C 34.667969 18.0625 35.214844 17.964844 35.398438 17.457031 C 35.472656 17.257812 35.460938 17.019531 35.367188 16.789062 C 35.328125 16.699219 35.292969 16.601562 35.253906 16.5 C 35.179688 16.316406 35.101562 16.113281 35.015625 15.902344 C 34.65625 15.070312 34.648438 14.128906 34.988281 13.320312 C 35.21875 12.769531 35.5625 12.265625 36 11.820312 C 36.160156 11.660156 36.417969 11.65625 36.578125 11.816406 C 36.738281 11.972656 36.742188 12.230469 36.582031 12.390625 C 36.214844 12.761719 35.929688 13.183594 35.738281 13.640625 C 35.484375 14.242188 35.492188 14.953125 35.765625 15.582031 C 35.855469 15.800781 35.9375 16.011719 36.011719 16.207031 C 36.050781 16.304688 36.085938 16.398438 36.121094 16.484375 C 36.289062 16.902344 36.304688 17.347656 36.164062 17.734375 C 35.789062 18.785156 34.683594 18.867188 34.011719 18.867188 " fill-opacity="1" fill-rule="nonzero"/><g clip-path="url(#5cd02b5a0d)"><path fill="#eb9c96" d="M 11.839844 49.769531 C 11.828125 49.769531 11.820312 49.769531 11.808594 49.769531 C 11.058594 49.757812 10.375 49.367188 9.984375 48.726562 C 9.59375 48.085938 9.5625 47.300781 9.898438 46.628906 C 12.859375 40.675781 15.707031 34.835938 17.957031 28.824219 C 19.039062 25.648438 19.46875 21.980469 19.175781 20.683594 L 18.265625 16.640625 C 18.011719 15.511719 17.691406 14.101562 18.203125 12.816406 C 18.496094 12.074219 19.085938 11.429688 19.65625 10.808594 C 20.269531 10.140625 20.847656 9.503906 20.949219 8.871094 C 20.988281 8.648438 21.195312 8.5 21.417969 8.535156 C 21.640625 8.570312 21.792969 8.78125 21.757812 9.003906 C 21.613281 9.875 20.925781 10.628906 20.253906 11.359375 C 19.738281 11.925781 19.199219 12.515625 18.960938 13.117188 C 18.574219 14.089844 18.777344 15.207031 19.058594 16.460938 L 19.972656 20.503906 C 20.332031 22.113281 19.761719 26.046875 18.726562 29.101562 C 16.453125 35.15625 13.597656 41.019531 10.625 46.992188 C 10.417969 47.414062 10.4375 47.902344 10.683594 48.300781 C 10.925781 48.703125 11.351562 48.945312 11.820312 48.953125 C 11.828125 48.953125 11.835938 48.953125 11.839844 48.953125 C 12.332031 48.953125 12.78125 48.691406 13.023438 48.265625 C 15.996094 42.996094 19.460938 36.691406 22.644531 29.921875 C 22.742188 29.71875 22.984375 29.628906 23.1875 29.726562 C 23.390625 29.820312 23.480469 30.066406 23.382812 30.269531 C 20.1875 37.066406 16.710938 43.382812 13.734375 48.664062 C 13.347656 49.347656 12.625 49.769531 11.839844 49.769531 " fill-opacity="1" fill-rule="nonzero"/></g><path fill="#eb9c96" d="M 23.011719 30.503906 C 22.957031 30.503906 22.898438 30.492188 22.84375 30.464844 C 22.640625 30.375 22.550781 30.128906 22.644531 29.925781 C 24.355469 26.1875 25.707031 23.230469 26.800781 19.78125 C 26.871094 19.566406 27.101562 19.449219 27.3125 19.515625 C 27.53125 19.582031 27.648438 19.8125 27.578125 20.03125 C 26.46875 23.523438 25.109375 26.5 23.386719 30.265625 C 23.316406 30.414062 23.167969 30.503906 23.011719 30.503906 " fill-opacity="1" fill-rule="nonzero"/><path fill="#eb9c96" d="M 31.386719 15.410156 C 31.367188 15.410156 31.347656 15.410156 31.324219 15.40625 C 29.445312 15.121094 27.617188 14.574219 25.890625 13.78125 L 25.660156 13.675781 C 25.128906 13.425781 24.628906 13.191406 24.101562 13.121094 C 23.601562 13.058594 22.96875 13.1875 22.679688 13.621094 C 22.554688 13.808594 22.300781 13.859375 22.113281 13.734375 C 21.925781 13.613281 21.875 13.359375 22 13.171875 C 22.425781 12.53125 23.292969 12.195312 24.203125 12.3125 C 24.859375 12.398438 25.441406 12.671875 26.007812 12.9375 L 26.230469 13.039062 C 27.886719 13.800781 29.644531 14.328125 31.449219 14.597656 C 31.671875 14.632812 31.824219 14.839844 31.789062 15.0625 C 31.761719 15.265625 31.585938 15.410156 31.386719 15.410156 " fill-opacity="1" fill-rule="nonzero"/><g clip-path="url(#9ea3231518)"><path fill="#eb9c96" d="M 37.804688 11.386719 C 37.902344 11.386719 38 11.421875 38.078125 11.488281 C 38.195312 11.597656 38.242188 11.765625 38.191406 11.921875 C 37.699219 13.40625 38.101562 15.050781 39.128906 16.035156 C 39.207031 15.066406 39.390625 14.070312 39.886719 13.109375 C 39.964844 12.957031 40.042969 12.804688 40.121094 12.65625 C 40.609375 11.734375 41.105469 10.78125 41.339844 9.78125 C 41.589844 8.699219 41.464844 7.628906 41.003906 6.917969 C 40.679688 6.414062 40.191406 6.097656 39.558594 5.972656 C 38.675781 5.800781 38.054688 6.320312 36.730469 7.507812 L 36.566406 7.65625 C 35.632812 8.417969 35 9.660156 35.109375 10.5 C 35.171875 10.996094 35.378906 11.34375 35.71875 11.535156 C 36.1875 11.796875 36.90625 11.753906 37.636719 11.421875 C 37.691406 11.394531 37.746094 11.386719 37.804688 11.386719 Z M 39.488281 17.234375 C 39.417969 17.234375 39.34375 17.210938 39.28125 17.175781 C 37.734375 16.25 36.925781 14.300781 37.230469 12.417969 C 36.519531 12.589844 35.839844 12.535156 35.320312 12.246094 C 34.921875 12.027344 34.421875 11.5625 34.300781 10.605469 C 34.152344 9.476562 34.882812 7.976562 36.035156 7.035156 L 36.1875 6.898438 C 37.515625 5.703125 38.398438 4.914062 39.714844 5.171875 C 40.5625 5.339844 41.246094 5.789062 41.691406 6.476562 C 42.269531 7.367188 42.433594 8.671875 42.132812 9.964844 C 41.878906 11.066406 41.351562 12.066406 40.84375 13.035156 C 40.765625 13.183594 40.6875 13.332031 40.609375 13.484375 C 40.054688 14.558594 39.9375 15.730469 39.898438 16.839844 C 39.890625 16.984375 39.8125 17.113281 39.683594 17.183594 C 39.625 17.214844 39.554688 17.234375 39.488281 17.234375 " fill-opacity="1" fill-rule="nonzero"/></g></svg>