<svg xmlns="http://www.w3.org/2000/svg" xmlns:xlink="http://www.w3.org/1999/xlink" width="70" zoomAndPan="magnify" viewBox="0 0 52.5 52.499999" height="70" preserveAspectRatio="xMidYMid meet" version="1.0"><defs><clipPath id="243574065d"><path d="M 2.621094 36 L 49.382812 36 L 49.382812 40.351562 L 2.621094 40.351562 Z M 2.621094 36 " clip-rule="nonzero"/></clipPath><clipPath id="d4f5b8f520"><path d="M 22 8.40625 L 30 8.40625 L 30 15 L 22 15 Z M 22 8.40625 " clip-rule="nonzero"/></clipPath></defs><g clip-path="url(#243574065d)"><path fill="#eb9c96" d="M 47.523438 39.785156 L 4.480469 39.785156 C 3.960938 39.785156 3.539062 39.363281 3.539062 38.84375 L 3.539062 37.90625 C 3.539062 37.386719 3.960938 36.964844 4.480469 36.964844 C 4.5 36.964844 4.519531 36.964844 4.539062 36.960938 C 4.582031 36.964844 4.652344 36.960938 4.699219 36.960938 C 4.714844 36.960938 4.730469 36.960938 4.75 36.960938 L 47.472656 36.960938 C 47.488281 36.964844 47.503906 36.964844 47.523438 36.964844 C 48.042969 36.964844 48.464844 37.386719 48.464844 37.90625 L 48.464844 38.84375 C 48.464844 38.855469 48.464844 38.871094 48.464844 38.882812 C 48.445312 39.386719 48.027344 39.785156 47.523438 39.785156 Z M 49.382812 38.792969 L 49.382812 37.90625 C 49.382812 36.898438 48.578125 36.078125 47.578125 36.050781 C 47.558594 36.046875 47.542969 36.046875 47.523438 36.046875 L 4.75 36.046875 C 4.734375 36.046875 4.722656 36.046875 4.707031 36.046875 C 4.621094 36.042969 4.546875 36.042969 4.480469 36.046875 C 3.453125 36.046875 2.621094 36.882812 2.621094 37.90625 L 2.621094 38.84375 C 2.621094 39.867188 3.453125 40.703125 4.480469 40.703125 L 47.523438 40.703125 C 48.546875 40.703125 49.382812 39.867188 49.382812 38.84375 C 49.382812 38.828125 49.382812 38.808594 49.382812 38.792969 " fill-opacity="1" fill-rule="nonzero"/></g><path fill="#eb9c96" d="M 30.332031 25.589844 L 26.003906 30.210938 L 21.671875 25.589844 C 21.300781 25.191406 21.097656 24.660156 21.097656 24.082031 C 21.097656 22.933594 21.941406 21.996094 22.984375 21.996094 C 23.800781 21.996094 24.296875 22.546875 24.871094 23.183594 L 25.136719 23.476562 C 25.332031 23.730469 25.628906 23.886719 25.949219 23.902344 C 26.277344 23.914062 26.574219 23.792969 26.792969 23.558594 L 27.515625 22.78125 C 27.71875 22.5625 27.738281 22.542969 27.800781 22.484375 C 28.140625 22.167969 28.570312 21.996094 29.019531 21.996094 C 29.757812 21.996094 30.390625 22.433594 30.710938 23.171875 C 31.074219 24.003906 30.925781 24.953125 30.332031 25.589844 Z M 29.019531 21.078125 C 28.335938 21.078125 27.683594 21.339844 27.175781 21.8125 C 27.105469 21.878906 27.082031 21.902344 26.84375 22.160156 L 26.125 22.933594 C 26.078125 22.980469 26.019531 22.984375 25.992188 22.984375 C 25.964844 22.984375 25.90625 22.972656 25.835938 22.882812 L 25.554688 22.574219 C 24.921875 21.871094 24.210938 21.078125 22.984375 21.078125 C 21.4375 21.078125 20.179688 22.425781 20.179688 24.082031 C 20.179688 24.894531 20.472656 25.648438 21.003906 26.214844 L 25.667969 31.195312 C 25.753906 31.289062 25.875 31.339844 26.003906 31.339844 C 26.128906 31.339844 26.25 31.289062 26.335938 31.195312 L 31 26.214844 C 31.84375 25.3125 32.0625 23.976562 31.554688 22.804688 C 31.089844 21.738281 30.121094 21.078125 29.019531 21.078125 " fill-opacity="1" fill-rule="nonzero"/><g clip-path="url(#d4f5b8f520)"><path fill="#eb9c96" d="M 26 9.324219 C 27.175781 9.324219 28.136719 10.28125 28.136719 11.460938 C 28.136719 12.636719 27.175781 13.59375 26 13.59375 C 24.824219 13.59375 23.863281 12.636719 23.863281 11.460938 C 23.863281 10.28125 24.824219 9.324219 26 9.324219 Z M 26 14.511719 C 27.683594 14.511719 29.050781 13.140625 29.050781 11.460938 C 29.050781 9.777344 27.683594 8.40625 26 8.40625 C 24.316406 8.40625 22.949219 9.777344 22.949219 11.460938 C 22.949219 13.140625 24.316406 14.511719 26 14.511719 " fill-opacity="1" fill-rule="nonzero"/></g><path fill="#eb9c96" d="M 11.78125 21.65625 C 19.621094 13.816406 32.378906 13.816406 40.21875 21.65625 C 43.746094 25.183594 45.816406 29.832031 46.082031 34.792969 L 5.917969 34.792969 C 6.183594 29.832031 8.253906 25.183594 11.78125 21.65625 Z M 5.441406 35.710938 L 46.558594 35.710938 C 46.683594 35.710938 46.800781 35.660156 46.886719 35.570312 C 46.976562 35.480469 47.019531 35.359375 47.019531 35.238281 C 46.859375 29.867188 44.671875 24.8125 40.867188 21.007812 C 32.671875 12.8125 19.328125 12.808594 11.132812 21.007812 C 7.328125 24.8125 5.144531 29.867188 4.984375 35.238281 C 4.980469 35.359375 5.027344 35.480469 5.113281 35.570312 C 5.199219 35.660156 5.316406 35.710938 5.441406 35.710938 " fill-opacity="1" fill-rule="nonzero"/><path fill="#eb9c96" d="M 31.242188 26.441406 C 30.714844 27.003906 30.160156 27.621094 29.589844 28.253906 C 28.429688 29.542969 27.226562 30.878906 26.117188 31.921875 C 26.046875 31.984375 25.941406 31.980469 25.875 31.910156 L 20.757812 26.441406 C 20.164062 25.808594 19.839844 24.96875 19.839844 24.082031 C 19.839844 22.238281 21.25 20.738281 22.980469 20.738281 C 23.742188 20.738281 24.480469 21.035156 25.050781 21.570312 C 25.144531 21.660156 25.203125 21.71875 25.355469 21.882812 L 25.667969 22.214844 C 25.753906 22.308594 25.875 22.359375 26 22.359375 C 26.125 22.359375 26.246094 22.308594 26.332031 22.214844 L 26.648438 21.882812 C 26.800781 21.714844 26.855469 21.65625 26.949219 21.570312 C 27.523438 21.035156 28.257812 20.738281 29.019531 20.738281 C 30.75 20.738281 32.160156 22.238281 32.160156 24.082031 C 32.160156 24.96875 31.835938 25.808594 31.242188 26.441406 Z M 29.019531 19.820312 C 28.023438 19.820312 27.066406 20.203125 26.320312 20.902344 C 26.21875 20.996094 26.15625 21.0625 26 21.230469 C 25.84375 21.0625 25.78125 20.996094 25.679688 20.902344 C 24.9375 20.203125 23.976562 19.820312 22.980469 19.820312 C 20.742188 19.820312 18.921875 21.734375 18.921875 24.082031 C 18.921875 25.203125 19.335938 26.261719 20.089844 27.066406 L 25.207031 32.539062 C 25.421875 32.765625 25.710938 32.882812 26 32.882812 C 26.265625 32.882812 26.53125 32.785156 26.742188 32.589844 C 27.882812 31.519531 29.097656 30.171875 30.273438 28.867188 C 30.835938 28.238281 31.386719 27.625 31.910156 27.066406 C 32.664062 26.261719 33.078125 25.203125 33.078125 24.082031 C 33.078125 21.734375 31.257812 19.820312 29.019531 19.820312 " fill-opacity="1" fill-rule="nonzero"/></svg>