<svg xmlns="http://www.w3.org/2000/svg" xmlns:xlink="http://www.w3.org/1999/xlink" width="70" zoomAndPan="magnify" viewBox="0 0 52.5 52.499999" height="70" preserveAspectRatio="xMidYMid meet" version="1.0"><defs><clipPath id="18435bca4a"><path d="M 5.199219 3.785156 L 45.320312 3.785156 L 45.320312 46.875 L 5.199219 46.875 Z M 5.199219 3.785156 " clip-rule="nonzero"/></clipPath></defs><g clip-path="url(#18435bca4a)"><path fill="#eb9c96" d="M 45.417969 14.402344 C 44.9375 13.332031 44.109375 12.238281 43.144531 11.410156 C 42.289062 10.675781 41.363281 10.171875 40.457031 9.949219 C 40.425781 9.78125 40.363281 9.621094 40.28125 9.464844 C 40.550781 9.066406 41.066406 8.140625 40.722656 7.308594 C 40.375 6.480469 39.386719 6.164062 38.941406 6.058594 C 38.890625 5.914062 38.824219 5.769531 38.742188 5.636719 C 38.179688 4.730469 36.96875 4.664062 36.429688 4.683594 C 36.375 4.574219 36.316406 4.476562 36.242188 4.390625 C 35.96875 4.074219 35.625 3.902344 35.21875 3.878906 C 34.398438 3.832031 33.554688 4.4375 33.214844 4.710938 C 32.609375 4.535156 31.847656 4.515625 31.0625 4.675781 C 30.226562 4.847656 29.527344 5.191406 29.058594 5.648438 C 28.578125 5.121094 27.679688 4.609375 26.464844 5.105469 C 26.390625 5.136719 26.316406 5.171875 26.242188 5.214844 C 25.976562 4.882812 25.476562 4.433594 24.753906 4.535156 C 24.554688 4.5625 24.363281 4.652344 24.179688 4.78125 C 23.789062 4.558594 22.957031 4.179688 22.210938 4.550781 C 21.476562 4.921875 21.316406 5.78125 21.289062 6.238281 C 20.402344 6.496094 19.984375 7.308594 19.847656 7.882812 C 19.003906 8.058594 18.492188 8.484375 18.246094 8.746094 C 18.242188 8.746094 18.238281 8.742188 18.234375 8.742188 C 17.757812 8.636719 17.265625 8.835938 16.757812 9.335938 C 16.308594 8.859375 15.328125 8.035156 14.066406 8.304688 C 12.703125 8.59375 12.363281 10.015625 12.277344 10.6875 C 11.882812 10.675781 11.527344 10.722656 11.253906 10.859375 C 10.230469 11.382812 10.253906 12.5625 10.324219 13.097656 C 9.105469 13.785156 9.023438 15.082031 9.191406 15.894531 C 7.691406 16.609375 6.28125 18.066406 6.257812 19.46875 C 6.25 19.816406 6.292969 20.121094 6.371094 20.390625 C 6.09375 20.664062 5.589844 21.277344 5.425781 22.269531 C 5.199219 23.613281 6.8125 27.363281 8.339844 27.859375 C 8.4375 27.890625 8.535156 27.914062 8.632812 27.933594 C 7.929688 29.457031 7.917969 31.179688 8.613281 32.722656 C 8.667969 32.847656 8.792969 32.925781 8.921875 32.925781 C 8.960938 32.925781 9 32.917969 9.039062 32.902344 C 11.308594 32.070312 12.761719 30.640625 13.671875 29.339844 C 13.625 29.894531 13.628906 30.449219 13.683594 30.996094 C 13.800781 32.222656 14.164062 33.453125 14.765625 34.652344 C 14.8125 34.746094 14.898438 34.8125 15 34.832031 C 15.023438 34.835938 15.046875 34.839844 15.066406 34.839844 C 15.148438 34.839844 15.226562 34.8125 15.289062 34.757812 C 18.554688 31.976562 20.515625 29.414062 21.28125 26.929688 C 21.351562 26.699219 21.410156 26.464844 21.453125 26.230469 C 22.488281 26.324219 23.5 26.707031 24.460938 27.378906 C 25.675781 29.066406 27.210938 30.453125 29.082031 31.550781 C 28.777344 32.0625 28.753906 32.714844 29.042969 33.257812 L 30.984375 36.859375 C 31.1875 37.242188 31.515625 37.511719 31.894531 37.65625 C 32.082031 38.820312 33.027344 44.324219 34.144531 45.757812 C 34.644531 46.394531 35.3125 46.609375 35.964844 46.609375 C 36.574219 46.609375 37.167969 46.421875 37.597656 46.21875 C 37.945312 46.550781 38.285156 46.730469 38.621094 46.75 C 38.679688 46.753906 38.734375 46.753906 38.792969 46.753906 C 40.09375 46.753906 40.761719 45.773438 41.300781 44.980469 C 41.53125 44.640625 41.75 44.320312 41.984375 44.125 C 42.242188 43.90625 42.609375 43.710938 42.996094 43.503906 C 43.855469 43.046875 44.828125 42.527344 44.925781 41.550781 C 45.027344 40.53125 43.847656 39.015625 41.320312 36.921875 C 39.847656 35.707031 38.347656 34.65625 37.832031 34.300781 C 37.875 33.960938 37.816406 33.601562 37.640625 33.277344 L 35.699219 29.675781 C 35.480469 29.265625 35.117188 28.96875 34.671875 28.835938 C 34.363281 28.742188 34.042969 28.738281 33.738281 28.820312 C 33.105469 26.558594 33 24.28125 33.421875 22.03125 C 33.648438 22.082031 33.882812 22.128906 34.125 22.164062 C 34.613281 22.234375 35.144531 22.269531 35.714844 22.269531 C 37.195312 22.269531 38.964844 22.03125 41.070312 21.554688 C 41.167969 21.53125 41.246094 21.472656 41.292969 21.386719 C 41.339844 21.300781 41.351562 21.203125 41.320312 21.109375 C 40.894531 19.878906 40.304688 18.84375 39.558594 18.03125 C 38.855469 17.269531 37.996094 16.679688 37 16.28125 C 37.257812 15.789062 37.367188 15.253906 37.390625 14.789062 C 37.878906 15.074219 38.652344 15.402344 39.644531 15.429688 C 39.683594 15.433594 39.726562 15.433594 39.765625 15.433594 C 40.449219 15.433594 41.15625 15.277344 41.902344 15.113281 C 42.949219 14.882812 44.03125 14.644531 45.03125 14.871094 C 45.15625 14.902344 45.289062 14.855469 45.371094 14.757812 C 45.453125 14.65625 45.46875 14.519531 45.417969 14.402344 Z M 39.078125 6.804688 C 39.464844 6.933594 39.929688 7.175781 40.09375 7.570312 C 40.265625 7.980469 40.058594 8.507812 39.847656 8.878906 C 39.585938 8.605469 39.265625 8.355469 38.925781 8.132812 C 39.003906 7.839844 39.105469 7.339844 39.078125 6.804688 Z M 36.621094 5.363281 C 37.078125 5.371094 37.835938 5.464844 38.164062 5.996094 C 38.503906 6.542969 38.414062 7.304688 38.3125 7.765625 C 37.644531 7.402344 36.988281 7.136719 36.621094 7 C 36.679688 6.421875 36.691406 5.847656 36.621094 5.363281 Z M 35.179688 4.558594 C 35.398438 4.570312 35.578125 4.660156 35.726562 4.835938 C 36.195312 5.382812 35.980469 7.207031 35.632812 8.773438 C 35.480469 8.484375 35.285156 8.246094 35.0625 8.046875 C 35.113281 7.539062 35.136719 6.199219 34.144531 5.21875 C 34.074219 5.152344 34 5.09375 33.917969 5.035156 C 34.269531 4.792969 34.761719 4.53125 35.179688 4.558594 Z M 31.148438 13.597656 C 30.519531 13.359375 30.054688 12.910156 29.757812 12.253906 C 29.230469 11.089844 29.375 9.875 30.179688 8.636719 C 30.402344 8.292969 30.652344 7.992188 30.875 7.75 C 30.753906 8.65625 30.699219 9.996094 31.171875 11.125 C 31.695312 12.371094 33.109375 13.140625 34.066406 13.53125 C 33.28125 13.757812 32.113281 13.960938 31.148438 13.597656 Z M 34.671875 16.054688 C 35.425781 16.007812 36.082031 15.664062 36.667969 15.113281 C 36.5625 15.808594 36.199219 16.695312 35.082031 17.070312 C 34.703125 17.195312 34.347656 17.25 34.023438 17.25 C 32.855469 17.25 32.066406 16.582031 31.828125 16.351562 C 31.792969 15.949219 31.726562 15.527344 31.628906 15.109375 C 31.921875 14.960938 32.15625 14.800781 32.328125 14.664062 C 32.683594 15.183594 33.457031 16.054688 34.671875 16.054688 Z M 31.5 9.546875 C 32.015625 9.488281 32.976562 9.464844 33.230469 10.039062 C 33.488281 10.628906 33.007812 11.46875 32.65625 11.941406 C 32.289062 11.640625 31.976562 11.28125 31.800781 10.863281 C 31.628906 10.449219 31.535156 9.996094 31.5 9.546875 Z M 33.949219 12.734375 C 33.710938 12.625 33.457031 12.492188 33.207031 12.335938 C 33.597656 11.8125 34.265625 10.707031 33.851562 9.765625 C 33.433594 8.808594 32.164062 8.792969 31.476562 8.863281 C 31.480469 8.496094 31.511719 8.148438 31.550781 7.851562 C 32.285156 7.789062 34.453125 7.742188 35.101562 9.238281 C 35.757812 10.753906 34.417969 12.269531 33.949219 12.734375 Z M 29.171875 6.644531 C 29.414062 6.046875 30.191406 5.546875 31.199219 5.339844 C 32.222656 5.132812 33.238281 5.28125 33.664062 5.703125 C 34.265625 6.296875 34.390625 7.089844 34.398438 7.605469 C 33.445312 7.132812 32.300781 7.117188 31.671875 7.160156 C 31.707031 6.988281 31.734375 6.886719 31.734375 6.878906 C 31.773438 6.742188 31.71875 6.589844 31.597656 6.507812 C 31.480469 6.425781 31.320312 6.429688 31.203125 6.519531 C 31.167969 6.546875 30.308594 7.195312 29.621094 8.25 C 29.46875 8.476562 29.339844 8.710938 29.230469 8.941406 C 29.015625 8.359375 28.828125 7.484375 29.171875 6.644531 Z M 29.136719 12.53125 C 29.511719 13.359375 30.109375 13.933594 30.910156 14.234375 C 31.105469 14.308594 31.308594 14.359375 31.511719 14.398438 C 30.972656 14.710938 30.140625 15 29.132812 14.667969 C 28.234375 14.234375 27.644531 13.46875 27.25 12.488281 C 26.839844 11.410156 26.734375 10.191406 27.015625 9.453125 C 27.347656 8.570312 27.941406 8.203125 28.320312 8.054688 C 28.40625 8.890625 28.742188 9.574219 28.894531 9.851562 C 28.667969 10.761719 28.746094 11.667969 29.136719 12.53125 Z M 33.109375 29.097656 L 31.753906 29.828125 C 31.476562 26.566406 30.578125 23.703125 29.066406 21.292969 C 29.246094 20.9375 29.324219 20.578125 29.335938 20.238281 C 29.539062 20.175781 29.832031 20.074219 30.148438 19.914062 C 30.761719 20.8125 31.636719 21.457031 32.765625 21.84375 C 32.304688 24.25 32.417969 26.6875 33.109375 29.097656 Z M 18.199219 17.402344 C 18.148438 16.644531 18.203125 15.996094 18.34375 15.691406 C 18.609375 15.117188 18.976562 14.773438 19.25 14.582031 C 19.386719 15.03125 19.632812 15.371094 19.867188 15.585938 C 19.65625 16.167969 19.558594 16.808594 19.609375 17.4375 C 19.695312 18.507812 20.171875 19.375 20.953125 19.878906 C 21.035156 19.933594 21.117188 19.976562 21.199219 20.019531 C 21.238281 20.371094 21.355469 20.824219 21.601562 21.273438 C 21.113281 21.367188 20.308594 21.445312 19.640625 21.125 C 19.640625 21.113281 19.640625 21.101562 19.640625 21.089844 C 19.617188 20.0625 19.03125 18.558594 18.199219 17.402344 Z M 25.3125 16.265625 C 25.253906 15.488281 24.617188 15.09375 24.066406 14.898438 C 24.472656 14.679688 24.855469 14.550781 25.015625 14.5 C 25.347656 14.59375 26.585938 15.03125 26.621094 16.300781 C 26.65625 17.59375 25.121094 18.230469 24.769531 18.359375 C 24.640625 18.335938 24.355469 18.273438 24.039062 18.144531 C 24.613281 17.78125 25.378906 17.128906 25.3125 16.265625 Z M 23.347656 17.757812 C 23.011719 17.496094 22.75 17.125 22.746094 16.609375 C 22.738281 16.121094 22.992188 15.722656 23.328125 15.410156 C 23.679688 15.46875 24.585938 15.6875 24.632812 16.316406 C 24.679688 16.929688 23.839844 17.503906 23.347656 17.757812 Z M 24.980469 19.007812 C 25.410156 18.855469 27.351562 18.070312 27.300781 16.285156 C 27.257812 14.730469 25.875 14 25.117188 13.824219 C 25.011719 13.777344 24.664062 13.636719 24.195312 13.523438 C 24.617188 13.210938 25.308594 12.867188 26.214844 12.984375 C 26.40625 13.011719 26.597656 13.0625 26.785156 13.140625 C 26.796875 13.164062 26.808594 13.191406 26.820312 13.21875 C 27.257812 14.128906 27.859375 14.804688 28.546875 15.15625 C 28.730469 15.722656 28.789062 16.332031 28.710938 16.9375 C 28.453125 18.867188 27.347656 20.113281 25.828125 20.183594 C 24.9375 20.226562 24.355469 19.945312 24.035156 19.714844 C 24.503906 19.4375 24.847656 19.132812 24.980469 19.007812 Z M 26.304688 12.3125 C 24.738281 12.101562 23.683594 13.011719 23.328125 13.375 C 22.519531 13.304688 21.585938 13.417969 20.859375 14.066406 C 20.59375 14.300781 20.367188 14.59375 20.175781 14.917969 C 19.933594 14.609375 19.660156 14.027344 19.925781 13.121094 C 20.371094 11.613281 23.1875 10.53125 24.6875 10.964844 C 25.539062 11.210938 26.078125 11.835938 26.386719 12.324219 C 26.359375 12.320312 26.332031 12.316406 26.304688 12.3125 Z M 19.273438 12.929688 C 19.199219 13.179688 19.160156 13.414062 19.144531 13.632812 C 18.894531 13.582031 18.558594 13.511719 18.160156 13.4375 C 18.394531 12.914062 18.765625 11.996094 18.957031 11.109375 L 19.882812 11.894531 C 19.597656 12.210938 19.382812 12.558594 19.273438 12.929688 Z M 18.425781 14.390625 C 18.179688 14.640625 17.925781 14.972656 17.726562 15.40625 C 17.578125 15.71875 17.519531 16.160156 17.503906 16.585938 C 17.042969 16.132812 16.542969 15.820312 16.039062 15.738281 C 14.789062 15.535156 13.820312 16.253906 13.339844 16.726562 C 13.148438 16.441406 12.835938 16.078125 12.367188 15.8125 C 12.945312 15.480469 13.910156 14.992188 14.972656 14.734375 C 16.019531 14.476562 17.457031 14.40625 18.425781 14.390625 Z M 12.960938 17.671875 C 13.699219 17.570312 14.5 17.839844 15.152344 18.410156 C 15.839844 19.015625 16.289062 19.867188 16.421875 20.8125 C 16.6875 22.742188 15.957031 24.238281 14.511719 24.710938 C 13.660156 24.992188 13.027344 24.875 12.65625 24.738281 C 13.03125 24.34375 13.28125 23.960938 13.378906 23.800781 C 13.753906 23.542969 15.414062 22.265625 14.890625 20.558594 C 14.429688 19.070312 12.902344 18.738281 12.125 18.769531 C 12.011719 18.753906 11.640625 18.710938 11.15625 18.726562 C 11.480469 18.316406 12.054688 17.796875 12.960938 17.671875 Z M 12.96875 21.070312 C 12.703125 20.339844 11.984375 20.128906 11.402344 20.085938 C 11.734375 19.769531 12.066406 19.542969 12.210938 19.449219 C 12.554688 19.453125 13.863281 19.542969 14.238281 20.757812 C 14.617188 21.992188 13.304688 23.015625 13.003906 23.234375 C 12.871094 23.246094 12.582031 23.261719 12.242188 23.226562 C 12.695312 22.722656 13.261719 21.886719 12.96875 21.070312 Z M 12.328125 21.300781 C 12.535156 21.882812 11.875 22.660156 11.472656 23.039062 C 11.078125 22.875 10.730469 22.585938 10.585938 22.089844 C 10.449219 21.617188 10.585938 21.167969 10.828125 20.777344 C 11.183594 20.742188 12.113281 20.707031 12.328125 21.300781 Z M 9.929688 22.277344 C 10.289062 23.507812 11.503906 23.886719 12.457031 23.929688 C 11.96875 24.539062 11.042969 25.414062 9.933594 25.070312 C 9.253906 24.855469 8.71875 24.296875 8.425781 23.492188 C 8.054688 22.480469 8.148438 21.308594 8.664062 20.507812 C 9.210938 19.652344 10.324219 19.441406 11.128906 19.410156 C 10.425781 20.023438 9.578125 21.054688 9.929688 22.277344 Z M 12.101562 25.230469 C 12.367188 25.371094 12.851562 25.5625 13.511719 25.5625 C 13.867188 25.5625 14.273438 25.507812 14.722656 25.359375 C 15.761719 25.015625 16.511719 24.238281 16.886719 23.191406 C 17.15625 23.601562 17.429688 24.238281 17.21875 24.933594 C 16.832031 26.203125 14.8125 27.238281 12.898438 27.152344 C 11.65625 27.09375 11.039062 26.3125 10.769531 25.808594 C 11.277344 25.742188 11.722656 25.511719 12.101562 25.230469 Z M 17.09375 22.347656 C 17.171875 21.839844 17.175781 21.292969 17.09375 20.71875 C 16.941406 19.613281 16.410156 18.609375 15.601562 17.898438 C 15.117188 17.472656 14.558594 17.1875 13.988281 17.054688 C 14.410156 16.695312 15.097656 16.273438 15.929688 16.410156 C 17.261719 16.625 18.921875 19.476562 18.960938 21.105469 C 18.984375 22.136719 18.132812 22.851562 17.660156 23.171875 C 17.46875 22.792969 17.234375 22.503906 17.09375 22.347656 Z M 21.320312 19.304688 C 20.722656 18.921875 20.355469 18.238281 20.289062 17.382812 C 20.203125 16.308594 20.605469 15.207031 21.316406 14.570312 C 21.765625 14.167969 22.347656 14.039062 22.910156 14.039062 C 23.292969 14.039062 23.667969 14.097656 23.984375 14.175781 C 23.144531 14.574219 22.050781 15.34375 22.066406 16.617188 C 22.078125 17.898438 23.148438 18.585938 24.058594 18.882812 C 23.421875 19.339844 22.296875 19.933594 21.320312 19.304688 Z M 23.371094 20.042969 C 23.6875 20.34375 24.421875 20.871094 25.652344 20.871094 C 26.9375 20.765625 27.832031 20.1875 28.523438 19.355469 C 28.671875 19.824219 28.765625 20.515625 28.382812 21.121094 C 27.667969 22.242188 25.445312 22.699219 23.621094 22.105469 C 22.441406 21.71875 22.054688 20.800781 21.929688 20.246094 C 22.5625 20.261719 23.050781 20.199219 23.371094 20.042969 Z M 28.632812 21.886719 C 30.203125 24.488281 31.03125 27.527344 31.148438 31.128906 L 26.246094 22.976562 C 27.214844 22.824219 28.078125 22.449219 28.632812 21.886719 Z M 29.273438 19.539062 C 29.191406 19.125 29.042969 18.785156 28.949219 18.597656 C 29.160156 18.128906 29.308594 17.601562 29.386719 17.027344 C 29.457031 16.488281 29.433594 15.945312 29.320312 15.421875 C 29.570312 15.472656 29.808594 15.496094 30.035156 15.496094 C 30.378906 15.496094 30.699219 15.445312 30.988281 15.359375 C 31.199219 16.308594 31.234375 17.273438 31.078125 17.894531 C 30.824219 18.898438 29.816406 19.359375 29.273438 19.539062 Z M 26.722656 5.734375 C 27.773438 5.308594 28.394531 5.890625 28.632812 6.199219 C 28.597656 6.261719 28.566406 6.324219 28.542969 6.390625 C 28.410156 6.707031 28.339844 7.027344 28.3125 7.339844 C 27.828125 7.476562 26.871094 7.910156 26.378906 9.214844 C 26.1875 9.710938 26.136719 10.363281 26.210938 11.058594 C 25.863281 10.746094 25.421875 10.46875 24.875 10.308594 C 24.648438 10.246094 24.394531 10.207031 24.132812 10.195312 C 24.585938 8.792969 25.636719 6.179688 26.722656 5.734375 Z M 24.847656 5.210938 C 25.242188 5.15625 25.542969 5.429688 25.710938 5.640625 C 25.289062 6.066406 24.910156 6.660156 24.585938 7.285156 C 24.332031 7.105469 23.960938 6.859375 23.535156 6.640625 C 23.886719 6.003906 24.4375 5.265625 24.847656 5.210938 Z M 22.515625 5.160156 C 22.867188 4.984375 23.324219 5.117188 23.652344 5.269531 C 23.324219 5.648438 23.066406 6.085938 22.910156 6.367188 C 22.605469 6.257812 22.285156 6.179688 21.976562 6.160156 C 22.015625 5.832031 22.136719 5.351562 22.515625 5.160156 Z M 21.667969 6.851562 C 22.503906 6.734375 23.691406 7.464844 24.285156 7.90625 C 24.121094 8.261719 23.976562 8.613281 23.851562 8.9375 C 23.164062 8.59375 21.671875 7.914062 20.574219 7.832031 C 20.707031 7.460938 21.007812 6.941406 21.667969 6.851562 Z M 20.183594 8.515625 C 21.03125 8.398438 22.757812 9.148438 23.617188 9.582031 C 23.527344 9.84375 23.457031 10.0625 23.410156 10.21875 C 22.359375 10.335938 21.21875 10.777344 20.386719 11.429688 L 19.078125 10.320312 C 19.105469 9.929688 19.070312 9.574219 18.941406 9.304688 C 18.910156 9.242188 18.871094 9.179688 18.832031 9.125 C 19.054688 8.917969 19.492188 8.609375 20.183594 8.515625 Z M 18.085938 9.40625 C 18.203125 9.433594 18.273438 9.492188 18.328125 9.601562 C 18.648438 10.265625 18.011719 12.128906 17.472656 13.308594 C 16.851562 13.195312 16.140625 13.078125 15.414062 12.976562 C 16.09375 11.269531 17.269531 9.222656 18.085938 9.40625 Z M 16.308594 9.859375 L 15.550781 11.074219 L 14.636719 8.9375 C 15.414062 8.976562 16.03125 9.550781 16.308594 9.859375 Z M 13.945312 9.054688 L 14.898438 11.273438 C 14.371094 11.089844 13.648438 10.867188 12.957031 10.757812 C 13.019531 10.28125 13.234375 9.378906 13.945312 9.054688 Z M 11.5625 11.46875 C 12.191406 11.144531 13.921875 11.621094 15.070312 12.0625 C 14.914062 12.402344 14.796875 12.691406 14.71875 12.886719 C 13.285156 12.71875 11.863281 12.648438 10.980469 12.84375 C 10.953125 12.425781 11.003906 11.753906 11.5625 11.46875 Z M 10.839844 13.597656 C 11.71875 13.207031 14.210938 13.46875 16.390625 13.816406 C 15.839844 13.871094 15.289062 13.953125 14.808594 14.070312 C 13.269531 14.449219 11.960938 15.246094 11.554688 15.511719 C 11.371094 15.476562 11.171875 15.453125 10.957031 15.449219 C 10.949219 15.449219 10.9375 15.449219 10.929688 15.449219 C 10.585938 15.449219 10.214844 15.515625 9.839844 15.636719 C 9.757812 15.101562 9.761719 14.078125 10.839844 13.597656 Z M 10.929688 16.128906 C 10.9375 16.128906 10.941406 16.128906 10.949219 16.128906 C 11.894531 16.140625 12.4375 16.644531 12.714844 17.023438 C 11.25 17.289062 10.519531 18.386719 10.285156 18.816406 C 9.484375 18.964844 8.613281 19.324219 8.089844 20.140625 C 7.898438 20.441406 7.753906 20.78125 7.65625 21.144531 C 7.339844 20.910156 6.921875 20.425781 6.9375 19.480469 C 6.964844 17.917969 9.367188 16.128906 10.929688 16.128906 Z M 8.550781 27.210938 C 7.375 26.828125 5.925781 23.410156 6.097656 22.378906 C 6.199219 21.757812 6.464844 21.324219 6.671875 21.066406 C 6.925781 21.464844 7.253906 21.726562 7.535156 21.871094 C 7.488281 22.488281 7.566406 23.132812 7.785156 23.726562 C 8.152344 24.734375 8.84375 25.441406 9.730469 25.71875 C 9.824219 25.746094 9.914062 25.769531 10.007812 25.785156 C 10.132812 26.117188 10.371094 26.523438 10.726562 26.886719 C 10.234375 27.136719 9.351562 27.46875 8.550781 27.210938 Z M 8.894531 31.410156 C 8.644531 30.257812 8.804688 29.054688 9.371094 27.980469 C 9.761719 27.953125 10.136719 27.859375 10.457031 27.746094 C 9.796875 28.957031 9.273438 30.183594 8.894531 31.410156 Z M 9.425781 32.011719 C 9.859375 30.476562 10.53125 28.9375 11.417969 27.421875 C 12.101562 27.703125 12.882812 27.847656 13.800781 27.796875 C 13.140625 29.101562 11.835938 30.925781 9.425781 32.011719 Z M 14.777344 32.90625 C 14.566406 32.25 14.421875 31.589844 14.359375 30.933594 C 14.257812 29.851562 14.355469 28.746094 14.65625 27.640625 C 15.136719 27.515625 15.59375 27.339844 16.007812 27.117188 C 15.378906 28.832031 14.972656 30.742188 14.777344 32.90625 Z M 20.632812 26.726562 C 19.949219 28.945312 18.230469 31.253906 15.394531 33.765625 C 15.578125 30.90625 16.113281 28.492188 17.023438 26.402344 C 17.433594 26.023438 17.730469 25.589844 17.871094 25.128906 C 18.015625 24.660156 17.996094 24.21875 17.902344 23.828125 C 18.351562 23.550781 19.257812 22.878906 19.546875 21.828125 C 19.792969 21.921875 20.042969 21.976562 20.292969 22.007812 C 20.953125 23.773438 21.066406 25.320312 20.632812 26.726562 Z M 21.546875 25.554688 C 21.636719 24.460938 21.464844 23.292969 21.023438 22.03125 C 21.375 22.011719 21.683594 21.957031 21.90625 21.902344 C 22.34375 23.460938 22.921875 24.871094 23.65625 26.132812 C 22.96875 25.816406 22.265625 25.625 21.546875 25.554688 Z M 22.789062 22.476562 C 23.5625 22.898438 24.460938 23.089844 25.492188 23.042969 L 30.644531 31.613281 C 26.746094 29.730469 24.164062 26.726562 22.789062 22.476562 Z M 29.644531 32.933594 C 29.464844 32.601562 29.480469 32.195312 29.675781 31.882812 C 30.015625 32.066406 30.371094 32.238281 30.734375 32.40625 L 29.667969 32.980469 Z M 34.683594 45.339844 C 33.816406 44.234375 32.945312 39.839844 32.601562 37.769531 C 32.847656 37.753906 33.097656 37.691406 33.332031 37.5625 L 33.730469 37.347656 C 33.953125 38.132812 34.480469 39.917969 35.152344 41.699219 C 35.847656 43.523438 36.5 44.847656 37.125 45.679688 C 36.539062 45.921875 35.382812 46.234375 34.683594 45.339844 Z M 37.609375 34.972656 C 40.382812 36.875 44.382812 40.128906 44.25 41.484375 C 44.1875 42.097656 43.417969 42.507812 42.675781 42.902344 C 42.273438 43.117188 41.859375 43.339844 41.546875 43.601562 C 41.242188 43.859375 40.996094 44.21875 40.738281 44.597656 C 40.199219 45.390625 39.691406 46.136719 38.664062 46.070312 C 38.316406 46.050781 37.34375 45.554688 35.792969 41.460938 C 35.078125 39.582031 34.535156 37.691406 34.347656 37.019531 L 35.835938 36.214844 L 38.6875 40.113281 C 38.753906 40.207031 38.855469 40.253906 38.960938 40.253906 C 39.03125 40.253906 39.101562 40.234375 39.164062 40.1875 C 39.3125 40.078125 39.347656 39.863281 39.238281 39.714844 L 36.441406 35.890625 L 36.933594 35.625 C 37.226562 35.46875 37.453125 35.238281 37.609375 34.972656 Z M 37.039062 33.597656 C 37.316406 34.109375 37.121094 34.75 36.613281 35.027344 L 33.007812 36.964844 C 32.496094 37.242188 31.855469 37.046875 31.582031 36.535156 L 31.558594 36.492188 L 37.015625 33.554688 Z M 35.449219 30.640625 L 36.691406 32.957031 L 31.234375 35.890625 L 29.992188 33.578125 Z M 33.675781 29.570312 C 33.921875 29.433594 34.207031 29.40625 34.476562 29.488281 C 34.746094 29.566406 34.96875 29.75 35.101562 29.996094 L 35.125 30.042969 L 31.84375 31.808594 C 31.839844 31.390625 31.824219 30.980469 31.804688 30.574219 Z M 34.222656 21.488281 C 32.609375 21.257812 31.460938 20.621094 30.726562 19.550781 C 31.167969 19.210938 31.570312 18.730469 31.738281 18.0625 C 31.800781 17.820312 31.835938 17.542969 31.847656 17.238281 C 32.292969 17.542969 32.96875 17.878906 33.824219 17.925781 C 36.324219 18.710938 38.46875 19.757812 40.210938 21.042969 C 37.714844 21.5625 35.75 21.710938 34.222656 21.488281 Z M 39.054688 18.492188 C 39.5 18.976562 39.882812 19.550781 40.207031 20.203125 C 38.800781 19.226562 37.160156 18.390625 35.304688 17.710938 C 35.875 17.519531 36.296875 17.214844 36.609375 16.859375 C 37.566406 17.222656 38.390625 17.769531 39.054688 18.492188 Z M 36.371094 14.433594 C 35.121094 15.683594 33.859375 15.460938 33.011719 14.4375 C 34.199219 14.308594 35.175781 13.867188 35.238281 13.839844 C 35.367188 13.777344 35.449219 13.644531 35.4375 13.5 C 35.421875 13.355469 35.324219 13.238281 35.183594 13.199219 C 35.175781 13.199219 34.953125 13.140625 34.625 13.019531 C 35.074219 12.535156 35.765625 11.636719 35.929688 10.566406 C 36.351562 10.65625 37.074219 10.953125 37.210938 11.941406 C 37.320312 12.738281 37 13.695312 36.371094 14.433594 Z M 36.058594 9.894531 C 36.1875 9.410156 36.394531 8.578125 36.53125 7.695312 C 37.941406 8.234375 39.816406 9.273438 39.800781 10.21875 C 39.796875 10.492188 39.703125 10.707031 39.519531 10.871094 C 39.085938 11.257812 38.234375 11.320312 37.75 11.304688 C 37.421875 10.402344 36.660156 10.015625 36.058594 9.894531 Z M 41.757812 14.449219 C 41.007812 14.613281 40.300781 14.769531 39.664062 14.75 C 38.585938 14.722656 37.804688 14.269531 37.457031 14.023438 C 37.785156 13.386719 37.945312 12.695312 37.90625 12.058594 C 39.960938 12.484375 41.898438 13.175781 43.683594 14.117188 C 43.035156 14.167969 42.390625 14.308594 41.757812 14.449219 Z M 39.414062 11.71875 C 39.617188 11.636719 39.808594 11.527344 39.96875 11.382812 C 40.199219 11.179688 40.347656 10.929688 40.425781 10.644531 C 41.1875 10.859375 41.96875 11.296875 42.699219 11.925781 C 43.273438 12.417969 43.792969 13.007812 44.207031 13.625 C 42.707031 12.816406 41.105469 12.175781 39.414062 11.71875 Z M 39.414062 11.71875 " fill-opacity="1" fill-rule="nonzero"/></g></svg>