<svg xmlns="http://www.w3.org/2000/svg" xmlns:xlink="http://www.w3.org/1999/xlink" width="70" zoomAndPan="magnify" viewBox="0 0 52.5 52.499999" height="70" preserveAspectRatio="xMidYMid meet" version="1.0"><defs><clipPath id="4779f7fe1f"><path d="M 10.167969 2.898438 L 42.417969 2.898438 L 42.417969 47.121094 L 10.167969 47.121094 Z M 10.167969 2.898438 " clip-rule="nonzero"/></clipPath></defs><g clip-path="url(#4779f7fe1f)"><path fill="#0e6655" d="M 13.21875 46.191406 L 39.363281 46.191406 C 40.535156 46.191406 41.480469 45.25 41.480469 44.085938 L 41.480469 5.933594 C 41.480469 4.769531 40.535156 3.828125 39.363281 3.828125 L 13.21875 3.828125 C 12.050781 3.828125 11.101562 4.769531 11.101562 5.933594 L 11.101562 44.085938 C 11.101562 45.25 12.050781 46.191406 13.21875 46.191406 Z M 40.300781 47.121094 L 12.28125 47.121094 C 11.113281 47.121094 10.167969 46.179688 10.167969 45.019531 L 10.167969 5.003906 C 10.167969 3.839844 11.113281 2.898438 12.28125 2.898438 L 40.300781 2.898438 C 41.46875 2.898438 42.417969 3.839844 42.417969 5.003906 L 42.417969 45.019531 C 42.417969 46.179688 41.46875 47.121094 40.300781 47.121094 " fill-opacity="1" fill-rule="nonzero"/></g><path fill="#0e6655" d="M 14.558594 20.269531 L 13.492188 18.90625 C 13.390625 18.777344 13.398438 18.589844 13.515625 18.472656 C 13.652344 18.332031 13.839844 18.152344 13.96875 18.296875 L 14.554688 18.953125 C 14.691406 19.109375 14.9375 19.101562 15.066406 18.9375 L 16.242188 17.449219 C 16.332031 17.335938 16.5 17.328125 16.601562 17.429688 L 16.9375 17.765625 C 17.066406 17.890625 17.070312 18.089844 16.949219 18.222656 L 15.074219 20.289062 C 14.933594 20.441406 14.6875 20.433594 14.558594 20.269531 " fill-opacity="1" fill-rule="nonzero"/><path fill="#0e6655" d="M 14.558594 26.882812 L 13.492188 25.519531 C 13.390625 25.390625 13.398438 25.203125 13.515625 25.082031 C 13.652344 24.945312 13.839844 24.765625 13.96875 24.910156 L 14.554688 25.566406 C 14.691406 25.722656 14.9375 25.714844 15.066406 25.550781 L 16.085938 24.257812 C 16.257812 24.042969 16.582031 24.023438 16.777344 24.21875 L 16.9375 24.378906 C 17.066406 24.503906 17.070312 24.703125 16.949219 24.835938 L 15.074219 26.902344 C 14.933594 27.054688 14.6875 27.046875 14.558594 26.882812 " fill-opacity="1" fill-rule="nonzero"/><path fill="#0e6655" d="M 14.558594 34.160156 L 13.492188 32.796875 C 13.390625 32.664062 13.398438 32.480469 13.515625 32.359375 C 13.652344 32.222656 13.839844 32.042969 13.96875 32.1875 L 14.554688 32.84375 C 14.691406 33 14.9375 32.992188 15.066406 32.828125 L 16.085938 31.535156 C 16.257812 31.320312 16.582031 31.300781 16.777344 31.496094 L 16.9375 31.65625 C 17.066406 31.78125 17.070312 31.980469 16.949219 32.113281 L 15.074219 34.179688 C 14.933594 34.332031 14.6875 34.324219 14.558594 34.160156 " fill-opacity="1" fill-rule="nonzero"/><path fill="#0e6655" d="M 25.71875 11.804688 C 25.214844 12.296875 24.417969 12.890625 23.964844 12.855469 C 23.226562 12.796875 22.269531 11.808594 22.269531 11.808594 C 22.269531 11.808594 19.992188 10.1875 21.363281 8.605469 C 22.339844 7.472656 23.964844 9.285156 23.964844 9.285156 C 23.964844 9.285156 25.476562 7.367188 26.664062 8.023438 C 28.089844 8.820312 26.597656 10.9375 25.71875 11.804688 Z M 27.347656 7.152344 C 25.628906 6.195312 23.96875 8 23.96875 8 C 23.34375 7.507812 22.492188 7.113281 21.6875 7.113281 C 20.375 7.117188 19.390625 8.480469 19.585938 9.738281 C 19.808594 11.183594 21.304688 12.382812 22.390625 13.214844 C 22.726562 13.472656 23.074219 13.726562 23.472656 13.867188 C 24.667969 14.289062 25.742188 13.1875 26.511719 12.425781 C 27.789062 11.171875 29.414062 8.300781 27.347656 7.152344 " fill-opacity="1" fill-rule="nonzero"/><path fill="#0e6655" d="M 30.441406 13.246094 C 29.9375 13.742188 29.140625 14.335938 28.683594 14.300781 C 27.945312 14.242188 26.992188 13.253906 26.992188 13.253906 C 26.992188 13.253906 24.421875 11.628906 25.792969 10.046875 C 26.769531 8.917969 28.683594 10.730469 28.683594 10.730469 C 28.683594 10.730469 29.828125 8.949219 31.015625 9.605469 C 32.445312 10.402344 31.320312 12.382812 30.441406 13.246094 Z M 32.070312 8.597656 C 30.351562 7.640625 28.699219 9.6875 28.699219 9.6875 C 28.074219 9.195312 27.214844 8.558594 26.410156 8.558594 C 25.09375 8.558594 24.113281 9.925781 24.308594 11.179688 C 24.53125 12.628906 26.027344 13.824219 27.113281 14.65625 C 27.449219 14.914062 27.792969 15.171875 28.195312 15.3125 C 29.390625 15.734375 30.460938 14.632812 31.234375 13.871094 C 32.507812 12.617188 34.136719 9.746094 32.070312 8.597656 " fill-opacity="1" fill-rule="nonzero"/><path fill="#0e6655" d="M 37.832031 18.859375 L 19.191406 18.859375 C 18.855469 18.859375 18.585938 18.589844 18.585938 18.261719 C 18.585938 17.929688 18.855469 17.660156 19.191406 17.660156 L 37.832031 17.660156 C 38.164062 17.660156 38.433594 17.929688 38.433594 18.261719 C 38.433594 18.589844 38.164062 18.859375 37.832031 18.859375 " fill-opacity="1" fill-rule="nonzero"/><path fill="#0e6655" d="M 37.832031 22.644531 L 19.191406 22.644531 C 18.855469 22.644531 18.585938 22.375 18.585938 22.042969 C 18.585938 21.714844 18.855469 21.445312 19.191406 21.445312 L 37.832031 21.445312 C 38.164062 21.445312 38.433594 21.714844 38.433594 22.042969 C 38.433594 22.375 38.164062 22.644531 37.832031 22.644531 " fill-opacity="1" fill-rule="nonzero"/><path fill="#0e6655" d="M 37.832031 26.429688 L 19.191406 26.429688 C 18.855469 26.429688 18.585938 26.160156 18.585938 25.828125 C 18.585938 25.496094 18.855469 25.230469 19.191406 25.230469 L 37.832031 25.230469 C 38.164062 25.230469 38.433594 25.496094 38.433594 25.828125 C 38.433594 26.160156 38.164062 26.429688 37.832031 26.429688 " fill-opacity="1" fill-rule="nonzero"/><path fill="#0e6655" d="M 37.832031 30.210938 L 19.191406 30.210938 C 18.855469 30.210938 18.585938 29.945312 18.585938 29.613281 C 18.585938 29.28125 18.855469 29.011719 19.191406 29.011719 L 37.832031 29.011719 C 38.164062 29.011719 38.433594 29.28125 38.433594 29.613281 C 38.433594 29.945312 38.164062 30.210938 37.832031 30.210938 " fill-opacity="1" fill-rule="nonzero"/><path fill="#0e6655" d="M 37.832031 33.996094 L 19.191406 33.996094 C 18.855469 33.996094 18.585938 33.726562 18.585938 33.398438 C 18.585938 33.066406 18.855469 32.796875 19.191406 32.796875 L 37.832031 32.796875 C 38.164062 32.796875 38.433594 33.066406 38.433594 33.398438 C 38.433594 33.726562 38.164062 33.996094 37.832031 33.996094 " fill-opacity="1" fill-rule="nonzero"/><path fill="#0e6655" d="M 24.769531 41.855469 L 19.417969 41.855469 C 19.101562 41.855469 18.84375 41.597656 18.84375 41.28125 C 18.84375 40.964844 19.101562 40.710938 19.417969 40.710938 L 24.769531 40.710938 C 25.085938 40.710938 25.34375 40.964844 25.34375 41.28125 C 25.34375 41.597656 25.085938 41.855469 24.769531 41.855469 " fill-opacity="1" fill-rule="nonzero"/><path fill="#0e6655" d="M 34.828125 36.574219 C 32.59375 36.339844 30.71875 38.203125 30.957031 40.421875 C 31.128906 42.042969 32.4375 43.34375 34.0625 43.515625 C 36.296875 43.75 38.171875 41.886719 37.933594 39.664062 C 37.761719 38.046875 36.453125 36.746094 34.828125 36.574219 Z M 34.851562 44.441406 C 32.085938 44.6875 29.777344 42.390625 30.023438 39.640625 C 30.214844 37.535156 31.921875 35.835938 34.039062 35.648438 C 36.804688 35.402344 39.113281 37.699219 38.867188 40.449219 C 38.675781 42.554688 36.96875 44.253906 34.851562 44.441406 " fill-opacity="1" fill-rule="nonzero"/><path fill="#0e6655" d="M 36.703125 40.480469 C 36.511719 40.417969 36.398438 40.230469 36.394531 40.03125 C 36.386719 38.972656 35.523438 38.113281 34.460938 38.105469 C 34.257812 38.105469 34.070312 37.988281 34.007812 37.800781 C 33.902344 37.480469 34.136719 37.183594 34.445312 37.183594 C 36.03125 37.183594 37.324219 38.464844 37.324219 40.042969 C 37.324219 40.351562 37.027344 40.585938 36.703125 40.480469 " fill-opacity="1" fill-rule="nonzero"/><path fill="#0e6655" d="M 34.445312 42.90625 C 32.863281 42.90625 31.574219 41.628906 31.566406 40.058594 C 31.566406 39.835938 31.722656 39.632812 31.941406 39.589844 C 32.238281 39.535156 32.496094 39.761719 32.496094 40.042969 C 32.496094 41.113281 33.367188 41.980469 34.4375 41.984375 C 34.671875 41.984375 34.882812 42.160156 34.90625 42.394531 C 34.9375 42.671875 34.71875 42.90625 34.445312 42.90625 " fill-opacity="1" fill-rule="nonzero"/></svg>