<svg xmlns="http://www.w3.org/2000/svg" xmlns:xlink="http://www.w3.org/1999/xlink" width="70" zoomAndPan="magnify" viewBox="0 0 52.5 52.499999" height="70" preserveAspectRatio="xMidYMid meet" version="1.0"><defs><clipPath id="1dd5f1faf1"><path d="M 23 10 L 49.320312 10 L 49.320312 43.738281 L 23 43.738281 Z M 23 10 " clip-rule="nonzero"/></clipPath><clipPath id="9d61885ece"><path d="M 10 9.238281 L 14 9.238281 L 14 15 L 10 15 Z M 10 9.238281 " clip-rule="nonzero"/></clipPath><clipPath id="2b4504b0f9"><path d="M 3.570312 23 L 6 23 L 6 26 L 3.570312 26 Z M 3.570312 23 " clip-rule="nonzero"/></clipPath></defs><g clip-path="url(#1dd5f1faf1)"><path fill="#0e6655" d="M 44.84375 38.449219 C 44.78125 38.476562 44.753906 38.484375 44.734375 38.503906 C 42.890625 40.210938 40.652344 41.0625 38.246094 41.523438 C 37.1875 41.730469 36.109375 41.804688 35.039062 41.941406 C 34.929688 41.960938 34.808594 41.980469 34.652344 41.996094 C 34.726562 42.257812 34.800781 42.480469 34.863281 42.710938 C 34.964844 43.054688 34.863281 43.296875 34.503906 43.546875 C 34.21875 43.738281 33.933594 43.730469 33.648438 43.5 C 33.378906 43.277344 33.324219 43.046875 33.464844 42.691406 C 33.535156 42.507812 33.574219 42.304688 33.648438 42.070312 C 32.496094 42.109375 31.425781 41.980469 30.414062 41.523438 C 29.390625 41.0625 28.585938 40.347656 28.070312 39.328125 C 27.867188 39.496094 27.703125 39.652344 27.519531 39.792969 C 27.1875 40.042969 26.835938 40.070312 26.449219 39.867188 C 25.609375 39.429688 25.003906 38.753906 24.496094 37.976562 C 23.859375 36.992188 23.398438 35.9375 23.105469 34.796875 C 23.003906 34.417969 23.066406 34.113281 23.351562 33.871094 C 23.925781 33.390625 24.496094 32.90625 25.09375 32.453125 C 26.625 31.304688 28.199219 30.191406 29.710938 29.015625 C 30.789062 28.171875 31.738281 27.179688 32.484375 26.023438 C 33.160156 24.992188 33.574219 23.882812 33.445312 22.621094 C 33.335938 21.5 33.058594 20.414062 32.625 19.367188 C 32.46875 18.988281 32.347656 18.609375 32.671875 18.183594 C 32.136719 18.257812 31.65625 18.292969 31.195312 18.394531 C 30.0625 18.644531 28.957031 18.507812 27.839844 18.292969 C 27.132812 18.164062 26.429688 18.035156 25.722656 17.90625 C 25.546875 17.867188 25.480469 17.921875 25.390625 18.082031 C 25.140625 18.488281 24.835938 18.878906 24.558594 19.265625 C 24.53125 19.257812 24.503906 19.25 24.476562 19.230469 C 24.53125 19.070312 24.597656 18.921875 24.652344 18.765625 C 24.226562 18.804688 24.035156 19.054688 24.070312 19.542969 C 24.320312 19.542969 24.570312 19.542969 24.835938 19.542969 C 24.882812 19.710938 24.789062 19.8125 24.617188 19.839844 C 24.46875 19.867188 24.3125 19.867188 24.109375 19.886719 C 24.457031 20.40625 25.167969 20.210938 25.480469 20.703125 C 25.390625 20.738281 25.324219 20.769531 25.242188 20.796875 C 25.324219 20.886719 25.398438 20.980469 25.5 21.101562 C 25.371094 21.148438 25.269531 21.222656 25.167969 21.222656 C 24.6875 21.203125 24.21875 21.15625 23.75 21.121094 C 23.695312 21.121094 23.636719 21.09375 23.582031 21.074219 C 23.132812 20.917969 23.105469 20.871094 23.1875 20.40625 C 23.222656 20.203125 23.289062 20.007812 23.296875 19.804688 C 23.308594 19.515625 23.4375 19.453125 23.695312 19.507812 C 23.730469 19.515625 23.769531 19.507812 23.777344 19.507812 C 23.777344 19.164062 23.777344 18.839844 23.777344 18.507812 C 23.648438 18.570312 23.480469 18.644531 23.296875 18.738281 C 23.308594 18.683594 23.308594 18.65625 23.316406 18.644531 C 24.273438 17.820312 25.308594 17.179688 26.632812 17.238281 C 27.40625 17.273438 28.191406 17.253906 28.964844 17.292969 C 30.199219 17.359375 31.378906 17.152344 32.523438 16.691406 C 33.148438 16.441406 33.804688 16.246094 34.449219 16.050781 C 34.617188 16.003906 34.652344 15.929688 34.625 15.78125 C 34.570312 15.375 34.53125 14.96875 34.457031 14.558594 C 34.449219 14.484375 34.320312 14.390625 34.238281 14.363281 C 34.0625 14.316406 33.867188 14.328125 33.683594 14.308594 C 33.453125 14.289062 33.425781 14.167969 33.480469 13.964844 C 33.546875 13.679688 33.582031 13.390625 33.609375 13.105469 C 33.621094 13.039062 33.507812 12.964844 33.464844 12.910156 C 33.472656 12.871094 33.472656 12.84375 33.480469 12.835938 C 33.777344 12.695312 33.925781 12.445312 34.042969 12.148438 C 34.125 11.9375 34.300781 11.761719 34.429688 11.566406 C 34.054688 11.230469 33.988281 10.917969 34.285156 10.675781 C 34.523438 10.480469 34.808594 10.507812 35.085938 10.582031 C 35.121094 10.59375 35.167969 10.601562 35.1875 10.628906 C 35.566406 11.019531 36.089844 11.128906 36.558594 11.34375 C 37.195312 11.640625 37.390625 12.195312 37.140625 12.855469 C 37.046875 13.105469 36.9375 13.335938 36.855469 13.585938 C 36.753906 13.910156 36.828125 14.011719 37.132812 14.152344 C 37.324219 14.234375 37.527344 14.335938 37.664062 14.476562 C 37.925781 14.746094 37.878906 15.03125 37.574219 15.261719 C 37.527344 15.300781 37.507812 15.355469 37.464844 15.394531 C 37.316406 15.503906 37.167969 15.617188 37.011719 15.707031 C 36.910156 15.773438 36.800781 15.820312 36.6875 15.875 C 36.6875 15.902344 36.6875 15.929688 36.699219 15.957031 C 36.800781 15.957031 36.910156 15.96875 37.011719 15.957031 C 37.453125 15.910156 37.8125 16.042969 38.164062 16.339844 C 38.882812 16.949219 39.636719 17.523438 40.355469 18.125 C 41.148438 18.792969 42.054688 19.191406 43.058594 19.425781 C 43.960938 19.628906 44.84375 19.933594 45.730469 20.238281 C 46.429688 20.480469 47.011719 20.90625 47.398438 21.582031 C 47.554688 21.859375 47.785156 22.101562 47.988281 22.351562 C 47.96875 22.371094 47.941406 22.390625 47.921875 22.40625 C 47.792969 22.289062 47.675781 22.167969 47.480469 21.980469 C 47.5625 22.425781 47.464844 22.742188 47.214844 23.011719 C 47.175781 23.046875 47.085938 23.039062 46.957031 23.058594 C 47.148438 22.59375 47.085938 22.242188 46.652344 21.992188 C 46.660156 22.1875 46.671875 22.363281 46.679688 22.539062 C 46.652344 22.546875 46.613281 22.546875 46.585938 22.554688 C 46.441406 22.046875 46.292969 21.535156 46.125 21.035156 C 46.097656 20.960938 45.960938 20.898438 45.859375 20.878906 C 44.550781 20.65625 43.234375 20.453125 41.925781 20.230469 C 41.214844 20.109375 40.613281 19.738281 40.023438 19.359375 C 39.628906 19.109375 39.25 18.832031 38.84375 18.597656 C 38.042969 18.144531 37.445312 18.339844 37.074219 19.175781 C 36.679688 20.0625 36.449219 21 36.429688 21.980469 C 36.429688 22.128906 36.457031 22.304688 36.542969 22.425781 C 37.492188 23.824219 38.402344 25.242188 39.417969 26.597656 C 40.652344 28.253906 42.300781 29.414062 44.191406 30.203125 C 45.824219 30.886719 47.480469 31.488281 49.132812 32.128906 C 49.1875 32.148438 49.242188 32.164062 49.289062 32.183594 C 49.234375 33.84375 47.675781 36.03125 45.390625 37.652344 C 45.609375 38.246094 46.023438 38.671875 46.53125 39.042969 C 47.066406 39.429688 47.601562 39.828125 48.082031 40.273438 C 48.3125 40.488281 48.449219 40.8125 48.578125 41.117188 C 48.714844 41.449219 48.625 41.535156 48.253906 41.480469 C 47.519531 41.367188 46.972656 40.960938 46.503906 40.402344 C 45.953125 39.78125 45.398438 39.117188 44.84375 38.449219 Z M 44.84375 38.449219 " fill-opacity="1" fill-rule="nonzero"/></g><path fill="#0e6655" d="M 23.140625 19.554688 C 22.964844 20.148438 22.800781 20.703125 22.625 21.285156 C 21.8125 21 21.019531 20.710938 20.230469 20.433594 C 20.007812 20.359375 19.796875 20.257812 19.566406 20.203125 C 17.695312 19.691406 16.238281 18.507812 14.847656 17.226562 C 14.773438 17.152344 14.691406 17.089844 14.550781 16.960938 C 14.285156 17.726562 13.980469 18.449219 13.785156 19.191406 C 13.628906 19.8125 13.539062 20.460938 13.527344 21.101562 C 13.519531 21.582031 13.648438 22.09375 13.796875 22.554688 C 14.164062 23.667969 14.625 24.742188 14.957031 25.863281 C 15.140625 26.476562 15.472656 26.976562 15.8125 27.476562 C 16.578125 28.597656 17.34375 29.71875 18.164062 30.792969 C 18.6875 31.488281 19.351562 32.089844 19.878906 32.785156 C 21.222656 34.566406 22.339844 36.492188 23.398438 38.449219 C 23.878906 39.328125 24.367188 40.210938 24.847656 41.089844 C 24.902344 41.191406 24.9375 41.304688 24.984375 41.414062 C 25.046875 41.589844 24.992188 41.691406 24.808594 41.730469 C 24.128906 41.867188 23.5 41.609375 23.105469 41.042969 C 22.773438 40.570312 22.421875 40.097656 22.082031 39.617188 C 21.960938 39.691406 21.851562 39.765625 21.769531 39.820312 C 19.621094 37.375 17.398438 35 15.480469 32.371094 C 14.53125 31.074219 13.445312 29.878906 12.394531 28.652344 C 12.117188 28.328125 11.777344 28.070312 11.410156 27.726562 C 11.269531 28.003906 11.152344 28.199219 11.078125 28.414062 C 10.589844 29.980469 10.375 31.554688 10.691406 33.203125 C 11.132812 35.558594 11.5 37.921875 11.859375 40.285156 C 11.914062 40.644531 11.648438 40.949219 11.308594 41.164062 C 11.324219 41.230469 11.34375 41.292969 11.371094 41.347656 C 11.464844 41.636719 11.398438 41.839844 11.132812 41.953125 C 10.890625 42.042969 10.632812 42.089844 10.375 42.136719 C 10.230469 42.164062 10.0625 42.175781 9.914062 42.164062 C 9.769531 42.15625 9.539062 42.136719 9.511719 42.054688 C 9.464844 41.914062 9.480469 41.703125 9.566406 41.5625 C 9.722656 41.273438 9.933594 41.015625 10.128906 40.738281 C 10.183594 40.664062 10.230469 40.578125 10.339844 40.421875 C 10.117188 40.476562 9.972656 40.515625 9.796875 40.5625 C 9.769531 40.46875 9.722656 40.375 9.695312 40.285156 C 9.269531 38.746094 8.847656 37.199219 8.414062 35.660156 C 8.210938 34.945312 7.988281 34.242188 7.785156 33.527344 C 7.464844 32.398438 7.492188 31.25 7.628906 30.097656 C 7.839844 28.273438 8.070312 26.457031 8.300781 24.632812 C 8.386719 24 8.496094 23.382812 8.589844 22.75 C 8.71875 21.917969 8.617188 21.09375 8.503906 20.265625 C 8.460938 19.898438 8.414062 19.535156 8.3125 19.15625 C 8.246094 19.320312 8.171875 19.480469 8.117188 19.648438 C 7.574219 21.109375 6.992188 22.566406 6.027344 23.808594 C 5.953125 23.898438 5.886719 23.992188 5.804688 24.085938 C 5.425781 24.519531 5.554688 24.558594 4.957031 24.253906 C 4.671875 24.105469 4.402344 23.910156 4.117188 23.722656 C 4.542969 22.964844 4.9375 22.230469 5.351562 21.519531 C 6.414062 19.691406 7.050781 17.71875 7.480469 15.660156 C 7.742188 14.457031 7.613281 14.714844 8.691406 14.375 C 9.207031 14.207031 9.742188 14.113281 10.3125 13.976562 C 10.191406 14.410156 10.101562 14.789062 9.988281 15.171875 C 9.8125 15.773438 9.878906 16.367188 9.972656 16.96875 C 10.082031 17.710938 10.171875 18.449219 10.3125 19.191406 C 11.214844 17.515625 11.871094 15.765625 12.273438 13.863281 C 13.050781 14.125 13.785156 14.390625 14.542969 14.625 C 15.140625 14.808594 15.628906 15.125 16.070312 15.578125 C 16.589844 16.117188 17.167969 16.597656 17.738281 17.089844 C 18.515625 17.746094 19.378906 18.230469 20.347656 18.554688 C 21.277344 18.839844 22.191406 19.203125 23.140625 19.554688 Z M 23.140625 19.554688 " fill-opacity="1" fill-rule="nonzero"/><g clip-path="url(#9d61885ece)"><path fill="#0e6655" d="M 11.160156 14.335938 C 10.992188 14.097656 10.820312 13.882812 10.691406 13.640625 C 10.625 13.519531 10.652344 13.34375 10.644531 13.195312 C 10.625 12.855469 10.597656 12.511719 10.578125 12.121094 C 10.285156 12.25 10.191406 12.132812 10.15625 11.925781 C 10.101562 11.640625 10 11.351562 10.347656 11.167969 C 10.386719 11.148438 10.375 11.039062 10.375 10.972656 C 10.402344 10.722656 10.414062 10.464844 10.441406 10.214844 C 10.46875 9.917969 10.625 9.730469 10.921875 9.667969 C 10.949219 9.65625 10.984375 9.675781 11.003906 9.65625 C 11.445312 9.238281 11.972656 9.425781 12.476562 9.433594 C 12.578125 9.433594 12.71875 9.519531 12.773438 9.601562 C 12.976562 9.878906 13.085938 10.167969 13.011719 10.554688 C 12.921875 11 12.992188 11.472656 12.910156 11.917969 C 12.835938 12.316406 12.679688 12.695312 12.515625 13.066406 C 12.257812 13.660156 11.710938 13.984375 11.160156 14.335938 Z M 11.160156 14.335938 " fill-opacity="1" fill-rule="nonzero"/></g><g clip-path="url(#2b4504b0f9)"><path fill="#0e6655" d="M 4.171875 25.835938 C 3.988281 25.523438 3.84375 25.28125 3.710938 25.050781 C 3.601562 24.855469 3.695312 24.296875 3.859375 24.105469 C 3.933594 24.019531 4 23.9375 4.074219 23.855469 C 4.300781 24.019531 4.503906 24.179688 4.707031 24.316406 C 4.910156 24.445312 5.132812 24.546875 5.398438 24.695312 C 5.316406 25.039062 5.222656 25.410156 5.121094 25.78125 C 4.929688 25.714844 4.929688 25.714844 4.875 25.199219 C 4.632812 25.410156 4.394531 25.632812 4.171875 25.835938 Z M 4.171875 25.835938 " fill-opacity="1" fill-rule="nonzero"/></g><path fill="#0e6655" d="M 10.375 15.335938 C 10.359375 14.96875 10.339844 14.671875 10.320312 14.390625 C 10.375 14.375 10.402344 14.355469 10.414062 14.355469 C 10.753906 14.578125 11.078125 14.570312 11.425781 14.328125 C 11.601562 14.207031 11.742188 14.316406 11.730469 14.550781 C 11.730469 14.625 11.710938 14.707031 11.695312 14.78125 C 11.601562 15.347656 11.601562 15.335938 11.085938 15.113281 C 11.003906 15.078125 10.882812 15.105469 10.792969 15.132812 C 10.679688 15.160156 10.570312 15.234375 10.375 15.335938 Z M 10.375 15.335938 " fill-opacity="1" fill-rule="nonzero"/></svg>