<svg xmlns="http://www.w3.org/2000/svg" xmlns:xlink="http://www.w3.org/1999/xlink" width="70" zoomAndPan="magnify" viewBox="0 0 52.5 52.499999" height="70" preserveAspectRatio="xMidYMid meet" version="1.0"><defs><clipPath id="a826acb45d"><path d="M 5.257812 42 L 49.492188 42 L 49.492188 46.90625 L 5.257812 46.90625 Z M 5.257812 42 " clip-rule="nonzero"/></clipPath><clipPath id="9f109422a3"><path d="M 26 7.167969 L 28 7.167969 L 28 16 L 26 16 Z M 26 7.167969 " clip-rule="nonzero"/></clipPath></defs><path fill="#0e6655" d="M 9.882812 39.558594 C 10.300781 30.339844 17.996094 22.996094 27.429688 22.996094 C 36.859375 22.996094 44.558594 30.339844 44.976562 39.558594 Z M 26.214844 20.8125 C 26.214844 20.1875 26.742188 19.664062 27.375 19.664062 C 28.007812 19.664062 28.539062 20.1875 28.539062 20.8125 C 28.539062 21.070312 28.425781 21.28125 28.324219 21.488281 L 26.429688 21.488281 C 26.269531 21.28125 26.214844 21.019531 26.214844 20.8125 Z M 30.011719 21.589844 C 30.117188 21.332031 30.171875 21.070312 30.171875 20.761719 C 30.171875 19.246094 28.90625 18.050781 27.429688 18.050781 C 25.902344 18.050781 24.6875 19.300781 24.6875 20.761719 C 24.6875 21.070312 24.738281 21.332031 24.847656 21.589844 C 15.519531 22.839844 8.355469 30.761719 8.355469 40.289062 L 8.355469 41.070312 L 46.613281 41.070312 L 46.613281 40.289062 C 46.503906 30.808594 39.335938 22.894531 30.011719 21.589844 " fill-opacity="1" fill-rule="nonzero"/><path fill="#0e6655" d="M 12.40625 37.894531 L 12.25 37.894531 C 11.832031 37.789062 11.617188 37.425781 11.722656 37.011719 C 12.9375 31.957031 16.835938 27.632812 22.265625 25.394531 C 22.628906 25.234375 23.054688 25.394531 23.210938 25.8125 C 23.367188 26.175781 23.210938 26.589844 22.792969 26.746094 C 17.839844 28.78125 14.203125 32.734375 13.09375 37.320312 C 13.039062 37.636719 12.726562 37.894531 12.40625 37.894531 " fill-opacity="1" fill-rule="nonzero"/><g clip-path="url(#a826acb45d)"><path fill="#0e6655" d="M 8.773438 45.394531 L 45.980469 45.394531 L 47.453125 43.46875 L 7.296875 43.46875 Z M 46.03125 46.90625 L 8.71875 46.90625 C 8.300781 46.90625 7.875 46.699219 7.613281 46.382812 L 5.453125 43.625 C 5.242188 43.308594 5.1875 42.945312 5.347656 42.582031 C 5.507812 42.269531 5.875 42.058594 6.246094 42.058594 L 48.507812 42.058594 C 48.878906 42.058594 49.246094 42.269531 49.398438 42.585938 C 49.5625 42.894531 49.511719 43.308594 49.296875 43.625 L 47.136719 46.382812 C 46.875 46.699219 46.449219 46.90625 46.03125 46.90625 " fill-opacity="1" fill-rule="nonzero"/></g><g clip-path="url(#9f109422a3)"><path fill="#0e6655" d="M 27.21875 15.394531 C 26.792969 15.394531 26.480469 15.082031 26.480469 14.664062 L 26.480469 7.890625 C 26.480469 7.476562 26.792969 7.167969 27.21875 7.167969 C 27.636719 7.167969 27.957031 7.476562 27.957031 7.839844 L 27.957031 14.613281 C 27.957031 15.03125 27.585938 15.394531 27.21875 15.394531 " fill-opacity="1" fill-rule="nonzero"/></g><path fill="#0e6655" d="M 18.367188 17.53125 C 18.101562 17.53125 17.839844 17.371094 17.734375 17.164062 L 14.308594 11.28125 C 14.097656 10.917969 14.203125 10.496094 14.570312 10.292969 C 14.941406 10.082031 15.359375 10.1875 15.574219 10.550781 L 18.996094 16.4375 C 19.210938 16.800781 19.105469 17.214844 18.734375 17.425781 C 18.628906 17.476562 18.523438 17.53125 18.367188 17.53125 " fill-opacity="1" fill-rule="nonzero"/><path fill="#0e6655" d="M 36.015625 17.53125 C 35.914062 17.53125 35.757812 17.476562 35.648438 17.425781 C 35.28125 17.214844 35.175781 16.800781 35.386719 16.4375 L 38.8125 10.550781 C 39.023438 10.1875 39.445312 10.082031 39.8125 10.292969 C 40.179688 10.496094 40.289062 10.917969 40.078125 11.28125 L 36.648438 17.164062 C 36.546875 17.371094 36.28125 17.53125 36.015625 17.53125 " fill-opacity="1" fill-rule="nonzero"/></svg>