<svg xmlns="http://www.w3.org/2000/svg" xmlns:xlink="http://www.w3.org/1999/xlink" width="70" zoomAndPan="magnify" viewBox="0 0 52.5 52.499999" height="70" preserveAspectRatio="xMidYMid meet" version="1.0"><defs><clipPath id="0c455e410a"><path d="M 0 0 L 52.003906 0 L 52.003906 52.003906 L 0 52.003906 Z M 0 0 " clip-rule="nonzero"/></clipPath><clipPath id="a9adeec5d0"><path d="M 17 3.683594 L 37 3.683594 L 37 26 L 17 26 Z M 17 3.683594 " clip-rule="nonzero"/></clipPath><clipPath id="dede24336d"><path d="M 9 29 L 23 29 L 23 48.257812 L 9 48.257812 Z M 9 29 " clip-rule="nonzero"/></clipPath><clipPath id="b8b7cb4c93"><path d="M 31 29 L 45 29 L 45 48.257812 L 31 48.257812 Z M 31 29 " clip-rule="nonzero"/></clipPath><clipPath id="a295218b01"><path d="M 5.199219 36 L 8 36 L 8 42 L 5.199219 42 Z M 5.199219 36 " clip-rule="nonzero"/></clipPath></defs><g clip-path="url(#0c455e410a)"><path fill="#ffffff" d="M 0 0 L 52.003906 0 L 52.003906 52.003906 L 0 52.003906 Z M 0 0 " fill-opacity="1" fill-rule="nonzero"/><path fill="#ffffff" d="M 0 0 L 52.003906 0 L 52.003906 52.003906 L 0 52.003906 Z M 0 0 " fill-opacity="1" fill-rule="nonzero"/></g><g clip-path="url(#a9adeec5d0)"><path fill="#f6a5b6" d="M 17.8125 16.429688 C 17.8125 18.066406 18.242188 19.601562 18.996094 20.933594 C 19 20.945312 19.011719 20.957031 19.015625 20.96875 C 20.285156 23.191406 22.457031 24.835938 25.027344 25.398438 C 25.039062 25.398438 25.046875 25.402344 25.058594 25.402344 C 25.683594 25.539062 26.328125 25.609375 26.992188 25.609375 C 30.402344 25.609375 33.382812 23.738281 34.964844 20.972656 C 34.972656 20.957031 34.984375 20.945312 34.988281 20.929688 C 35.742188 19.601562 36.171875 18.066406 36.171875 16.429688 C 36.171875 14.796875 35.742188 13.261719 34.988281 11.929688 C 34.984375 11.914062 34.972656 11.902344 34.964844 11.890625 C 33.433594 9.207031 30.589844 7.371094 27.3125 7.257812 L 27.304688 4.035156 C 27.304688 3.839844 27.148438 3.683594 26.953125 3.683594 C 26.953125 3.683594 26.953125 3.683594 26.949219 3.683594 C 26.753906 3.683594 26.597656 3.839844 26.597656 4.039062 L 26.605469 7.261719 C 26.074219 7.28125 25.558594 7.347656 25.054688 7.457031 C 25.050781 7.457031 25.042969 7.460938 25.039062 7.460938 C 22.460938 8.023438 20.289062 9.667969 19.015625 11.894531 C 19.007812 11.90625 19 11.914062 18.996094 11.929688 C 18.242188 13.261719 17.8125 14.796875 17.8125 16.429688 Z M 35.457031 16.078125 L 31.722656 16.078125 C 31.699219 14.851562 31.519531 13.628906 31.1875 12.414062 L 34.449219 12.414062 C 35.042969 13.511719 35.402344 14.753906 35.457031 16.078125 Z M 34.449219 20.449219 L 31.160156 20.449219 C 31.5 19.222656 31.6875 18.003906 31.722656 16.785156 L 35.457031 16.785156 C 35.402344 18.105469 35.042969 19.347656 34.449219 20.449219 Z M 27.347656 24.894531 L 27.339844 21.15625 L 30.191406 21.15625 C 29.785156 22.355469 29.234375 23.558594 28.523438 24.761719 C 28.136719 24.832031 27.746094 24.875 27.347656 24.894531 Z M 25.355469 24.742188 C 24.652344 23.546875 24.101562 22.351562 23.699219 21.15625 L 26.628906 21.15625 L 26.636719 24.894531 C 26.203125 24.875 25.773438 24.824219 25.355469 24.742188 Z M 18.53125 16.785156 L 22.167969 16.785156 C 22.203125 18.003906 22.390625 19.222656 22.726562 20.449219 L 19.535156 20.449219 C 18.941406 19.347656 18.585938 18.105469 18.53125 16.785156 Z M 22.894531 16.785156 L 26.621094 16.785156 L 26.628906 20.449219 L 23.472656 20.449219 C 23.117188 19.222656 22.929688 18.003906 22.894531 16.785156 Z M 27.335938 20.449219 L 27.332031 16.785156 L 30.996094 16.785156 C 30.960938 18.003906 30.769531 19.222656 30.417969 20.449219 Z M 31 16.078125 L 27.328125 16.078125 L 27.320312 12.414062 L 30.441406 12.414062 C 30.789062 13.628906 30.976562 14.851562 31 16.078125 Z M 26.621094 16.078125 L 22.890625 16.078125 C 22.914062 14.851562 23.101562 13.628906 23.449219 12.414062 L 26.613281 12.414062 Z M 22.167969 16.078125 L 18.53125 16.078125 C 18.585938 14.753906 18.941406 13.511719 19.535156 12.414062 L 22.699219 12.414062 C 22.367188 13.628906 22.191406 14.851562 22.167969 16.078125 Z M 19.964844 21.15625 L 22.941406 21.15625 C 23.300781 22.269531 23.789062 23.382812 24.398438 24.496094 C 22.574219 23.90625 21.015625 22.714844 19.964844 21.15625 Z M 29.472656 24.53125 C 30.09375 23.40625 30.585938 22.28125 30.949219 21.15625 L 34.019531 21.15625 C 32.945312 22.75 31.347656 23.957031 29.472656 24.53125 Z M 34.019531 11.703125 L 30.976562 11.703125 C 30.613281 10.574219 30.113281 9.453125 29.484375 8.332031 C 31.351562 8.910156 32.949219 10.117188 34.019531 11.703125 Z M 28.523438 8.101562 C 29.25 9.292969 29.8125 10.496094 30.21875 11.703125 L 27.320312 11.703125 L 27.3125 7.964844 C 27.726562 7.980469 28.128906 8.027344 28.523438 8.101562 Z M 26.613281 11.703125 L 23.671875 11.703125 C 24.078125 10.503906 24.632812 9.308594 25.355469 8.117188 C 25.761719 8.039062 26.179688 7.988281 26.605469 7.96875 Z M 24.386719 8.371094 C 23.765625 9.476562 23.273438 10.589844 22.914062 11.707031 L 19.964844 11.707031 C 21.011719 10.148438 22.566406 8.960938 24.386719 8.371094 Z M 24.386719 8.371094 " fill-opacity="1" fill-rule="nonzero"/></g><g clip-path="url(#dede24336d)"><path fill="#f6a5b6" d="M 20.160156 29.78125 L 11.558594 29.78125 C 10.15625 29.78125 9.015625 30.921875 9.015625 32.324219 L 9.015625 45.773438 C 9.015625 47.175781 10.15625 48.316406 11.558594 48.316406 L 20.160156 48.316406 C 21.558594 48.316406 22.699219 47.175781 22.699219 45.773438 L 22.699219 32.324219 C 22.699219 30.921875 21.558594 29.78125 20.160156 29.78125 Z M 21.992188 45.773438 C 21.992188 46.785156 21.167969 47.605469 20.160156 47.605469 L 11.558594 47.605469 C 10.546875 47.605469 9.722656 46.785156 9.722656 45.773438 L 9.722656 32.324219 C 9.722656 31.3125 10.546875 30.488281 11.558594 30.488281 L 20.160156 30.488281 C 21.167969 30.488281 21.992188 31.3125 21.992188 32.324219 Z M 21.992188 45.773438 " fill-opacity="1" fill-rule="nonzero"/></g><path fill="#f6a5b6" d="M 13.105469 34.597656 L 18.609375 34.597656 C 19.386719 34.597656 20.019531 33.964844 20.019531 33.1875 C 20.019531 32.410156 19.386719 31.777344 18.609375 31.777344 L 13.105469 31.777344 C 12.328125 31.777344 11.695312 32.410156 11.695312 33.1875 C 11.695312 33.964844 12.328125 34.597656 13.105469 34.597656 Z M 13.105469 32.488281 L 18.609375 32.488281 C 18.996094 32.488281 19.3125 32.800781 19.3125 33.1875 C 19.3125 33.574219 18.996094 33.890625 18.609375 33.890625 L 13.105469 33.890625 C 12.71875 33.890625 12.40625 33.574219 12.40625 33.1875 C 12.40625 32.800781 12.71875 32.488281 13.105469 32.488281 Z M 13.105469 32.488281 " fill-opacity="1" fill-rule="nonzero"/><path fill="#f6a5b6" d="M 15.859375 37.847656 C 13.894531 37.847656 12.300781 39.445312 12.300781 41.410156 C 12.300781 43.371094 13.894531 44.96875 15.859375 44.96875 C 17.820312 44.96875 19.417969 43.371094 19.417969 41.410156 C 19.417969 39.445312 17.820312 37.847656 15.859375 37.847656 Z M 15.859375 44.257812 C 14.285156 44.257812 13.007812 42.980469 13.007812 41.410156 C 13.007812 39.835938 14.285156 38.558594 15.859375 38.558594 C 17.429688 38.558594 18.710938 39.835938 18.710938 41.410156 C 18.710938 42.980469 17.429688 44.257812 15.859375 44.257812 Z M 15.859375 44.257812 " fill-opacity="1" fill-rule="nonzero"/><path fill="#f6a5b6" d="M 15.859375 36.53125 C 13.167969 36.53125 10.980469 38.71875 10.980469 41.410156 C 10.980469 44.097656 13.167969 46.285156 15.859375 46.285156 C 18.546875 46.285156 20.738281 44.097656 20.738281 41.410156 C 20.738281 38.71875 18.546875 36.53125 15.859375 36.53125 Z M 15.859375 45.578125 C 13.558594 45.578125 11.6875 43.707031 11.6875 41.410156 C 11.6875 39.109375 13.558594 37.238281 15.859375 37.238281 C 18.15625 37.238281 20.027344 39.109375 20.027344 41.410156 C 20.027344 43.707031 18.15625 45.578125 15.859375 45.578125 Z M 15.859375 45.578125 " fill-opacity="1" fill-rule="nonzero"/><g clip-path="url(#b8b7cb4c93)"><path fill="#f6a5b6" d="M 42.34375 29.78125 L 33.746094 29.78125 C 32.34375 29.78125 31.203125 30.921875 31.203125 32.324219 L 31.203125 45.773438 C 31.203125 47.175781 32.34375 48.316406 33.746094 48.316406 L 42.34375 48.316406 C 43.746094 48.316406 44.886719 47.175781 44.886719 45.773438 L 44.886719 32.324219 C 44.886719 30.921875 43.746094 29.78125 42.34375 29.78125 Z M 44.179688 45.773438 C 44.179688 46.785156 43.355469 47.605469 42.34375 47.605469 L 33.746094 47.605469 C 32.734375 47.605469 31.910156 46.785156 31.910156 45.773438 L 31.910156 32.324219 C 31.910156 31.3125 32.734375 30.488281 33.746094 30.488281 L 42.34375 30.488281 C 43.355469 30.488281 44.179688 31.3125 44.179688 32.324219 Z M 44.179688 45.773438 " fill-opacity="1" fill-rule="nonzero"/></g><path fill="#f6a5b6" d="M 35.292969 34.597656 L 40.796875 34.597656 C 41.574219 34.597656 42.207031 33.964844 42.207031 33.1875 C 42.207031 32.410156 41.574219 31.777344 40.796875 31.777344 L 35.292969 31.777344 C 34.515625 31.777344 33.882812 32.410156 33.882812 33.1875 C 33.882812 33.964844 34.515625 34.597656 35.292969 34.597656 Z M 35.292969 32.488281 L 40.796875 32.488281 C 41.183594 32.488281 41.5 32.800781 41.5 33.1875 C 41.5 33.574219 41.183594 33.890625 40.796875 33.890625 L 35.292969 33.890625 C 34.90625 33.890625 34.589844 33.574219 34.589844 33.1875 C 34.589844 32.800781 34.90625 32.488281 35.292969 32.488281 Z M 35.292969 32.488281 " fill-opacity="1" fill-rule="nonzero"/><path fill="#f6a5b6" d="M 38.046875 37.847656 C 36.082031 37.847656 34.488281 39.445312 34.488281 41.410156 C 34.488281 43.371094 36.082031 44.96875 38.046875 44.96875 C 40.007812 44.96875 41.605469 43.371094 41.605469 41.410156 C 41.605469 39.445312 40.007812 37.847656 38.046875 37.847656 Z M 38.046875 44.257812 C 36.472656 44.257812 35.195312 42.980469 35.195312 41.410156 C 35.195312 39.835938 36.472656 38.558594 38.046875 38.558594 C 39.617188 38.558594 40.894531 39.835938 40.894531 41.410156 C 40.894531 42.980469 39.617188 44.257812 38.046875 44.257812 Z M 38.046875 44.257812 " fill-opacity="1" fill-rule="nonzero"/><path fill="#f6a5b6" d="M 38.046875 36.53125 C 35.355469 36.53125 33.167969 38.71875 33.167969 41.410156 C 33.167969 44.097656 35.355469 46.285156 38.046875 46.285156 C 40.734375 46.285156 42.925781 44.097656 42.925781 41.410156 C 42.925781 38.71875 40.734375 36.53125 38.046875 36.53125 Z M 38.046875 45.578125 C 35.746094 45.578125 33.875 43.707031 33.875 41.410156 C 33.875 39.109375 35.746094 37.238281 38.046875 37.238281 C 40.34375 37.238281 42.214844 39.109375 42.214844 41.410156 C 42.214844 43.707031 40.34375 45.578125 38.046875 45.578125 Z M 38.046875 45.578125 " fill-opacity="1" fill-rule="nonzero"/><path fill="#f6a5b6" d="M 10.457031 27.789062 C 10.671875 27.925781 10.933594 28 11.203125 28 C 11.253906 28 11.304688 27.996094 11.355469 27.992188 C 12.058594 27.921875 12.578125 27.375 12.519531 26.777344 C 12.519531 26.769531 12.515625 26.761719 12.515625 26.753906 C 12.511719 26.75 12.515625 26.746094 12.515625 26.742188 L 12.160156 25 C 12.539062 24.574219 13.066406 24.230469 13.734375 23.972656 C 13.863281 23.925781 13.949219 23.808594 13.960938 23.671875 C 13.972656 23.535156 13.902344 23.402344 13.785156 23.335938 C 12.980469 22.875 12.164062 22.789062 11.351562 23.078125 C 11.1875 23.136719 11.089844 23.308594 11.125 23.484375 L 11.429688 24.964844 C 11.429688 24.972656 11.429688 24.976562 11.433594 24.980469 L 11.609375 25.851562 C 11.460938 25.816406 11.300781 25.804688 11.136719 25.820312 C 10.4375 25.890625 9.917969 26.4375 9.976562 27.035156 C 10.007812 27.335938 10.183594 27.609375 10.457031 27.789062 Z M 12.722656 23.664062 C 12.453125 23.816406 12.207031 23.988281 11.988281 24.175781 L 11.886719 23.660156 C 12.164062 23.601562 12.441406 23.605469 12.722656 23.664062 Z M 11.210938 26.523438 C 11.234375 26.523438 11.261719 26.519531 11.285156 26.519531 C 11.539062 26.519531 11.757812 26.644531 11.804688 26.808594 L 11.8125 26.855469 C 11.828125 27.054688 11.585938 27.253906 11.285156 27.285156 C 11.125 27.300781 10.960938 27.265625 10.84375 27.191406 C 10.785156 27.15625 10.691406 27.078125 10.679688 26.960938 C 10.660156 26.757812 10.90625 26.554688 11.210938 26.523438 Z M 11.210938 26.523438 " fill-opacity="1" fill-rule="nonzero"/><path fill="#f6a5b6" d="M 37.449219 24.683594 C 37.460938 24.546875 37.390625 24.417969 37.273438 24.347656 C 36.46875 23.886719 35.652344 23.800781 34.839844 24.089844 C 34.675781 24.148438 34.578125 24.324219 34.613281 24.496094 L 34.917969 25.984375 C 34.917969 25.984375 34.917969 25.988281 34.917969 25.992188 L 35.097656 26.859375 C 34.945312 26.824219 34.785156 26.816406 34.625 26.832031 C 34.300781 26.867188 34.003906 27 33.785156 27.210938 C 33.550781 27.441406 33.433594 27.746094 33.464844 28.046875 C 33.496094 28.347656 33.671875 28.621094 33.945312 28.800781 C 34.160156 28.9375 34.421875 29.011719 34.691406 29.011719 C 34.742188 29.011719 34.792969 29.007812 34.84375 29.003906 C 35.167969 28.972656 35.46875 28.835938 35.683594 28.625 C 35.921875 28.394531 36.039062 28.089844 36.007812 27.789062 C 36.007812 27.78125 36.003906 27.773438 36 27.765625 C 36 27.761719 36.003906 27.757812 36 27.753906 L 35.644531 26.011719 C 36.023438 25.585938 36.554688 25.242188 37.222656 24.984375 C 37.351562 24.9375 37.4375 24.820312 37.449219 24.683594 Z M 34.773438 28.296875 C 34.613281 28.316406 34.449219 28.28125 34.332031 28.203125 C 34.277344 28.167969 34.179688 28.09375 34.167969 27.976562 C 34.15625 27.859375 34.234375 27.765625 34.28125 27.71875 C 34.382812 27.621094 34.535156 27.554688 34.699219 27.539062 C 34.722656 27.535156 34.75 27.535156 34.777344 27.535156 C 34.914062 27.535156 35.042969 27.566406 35.140625 27.632812 C 35.191406 27.664062 35.273438 27.734375 35.296875 27.835938 L 35.300781 27.867188 C 35.308594 27.980469 35.238281 28.070312 35.191406 28.117188 C 35.089844 28.214844 34.9375 28.28125 34.773438 28.296875 Z M 35.476562 25.1875 L 35.375 24.675781 C 35.652344 24.617188 35.929688 24.617188 36.210938 24.679688 C 35.941406 24.832031 35.695312 25 35.476562 25.1875 Z M 35.476562 25.1875 " fill-opacity="1" fill-rule="nonzero"/><path fill="#f6a5b6" d="M 45.023438 24.300781 C 44.832031 24.246094 44.636719 24.355469 44.585938 24.546875 L 43.941406 26.871094 C 43.824219 26.773438 43.683594 26.691406 43.535156 26.632812 C 42.878906 26.378906 42.167969 26.628906 41.949219 27.1875 C 41.730469 27.746094 42.085938 28.410156 42.746094 28.667969 C 42.917969 28.734375 43.097656 28.769531 43.269531 28.769531 C 43.746094 28.769531 44.171875 28.523438 44.332031 28.113281 C 44.332031 28.105469 44.332031 28.097656 44.335938 28.09375 C 44.339844 28.085938 44.339844 28.085938 44.34375 28.078125 L 45.269531 24.734375 C 45.320312 24.546875 45.210938 24.351562 45.023438 24.300781 Z M 43 28.007812 C 42.71875 27.898438 42.535156 27.632812 42.609375 27.445312 C 42.660156 27.316406 42.820312 27.242188 43.003906 27.242188 C 43.09375 27.242188 43.1875 27.257812 43.277344 27.292969 C 43.433594 27.355469 43.558594 27.457031 43.632812 27.578125 C 43.660156 27.632812 43.703125 27.730469 43.675781 27.832031 L 43.667969 27.863281 C 43.589844 28.046875 43.28125 28.117188 43 28.007812 Z M 43 28.007812 " fill-opacity="1" fill-rule="nonzero"/><path fill="#f6a5b6" d="M 48.410156 34.28125 C 48.222656 34.230469 48.027344 34.339844 47.976562 34.527344 L 47.328125 36.855469 C 47.210938 36.757812 47.078125 36.675781 46.925781 36.617188 C 46.621094 36.496094 46.292969 36.480469 46.003906 36.574219 C 45.691406 36.671875 45.449219 36.886719 45.335938 37.171875 C 45.121094 37.730469 45.476562 38.394531 46.132812 38.648438 C 46.308594 38.71875 46.488281 38.75 46.664062 38.75 C 46.800781 38.75 46.929688 38.734375 47.054688 38.695312 C 47.339844 38.605469 47.558594 38.414062 47.679688 38.171875 C 47.683594 38.167969 47.683594 38.164062 47.683594 38.164062 C 47.695312 38.140625 47.710938 38.121094 47.71875 38.097656 C 47.722656 38.089844 47.722656 38.082031 47.726562 38.074219 C 47.726562 38.070312 47.730469 38.066406 47.730469 38.0625 L 48.65625 34.71875 C 48.710938 34.527344 48.601562 34.332031 48.410156 34.28125 Z M 46.84375 38.015625 C 46.707031 38.058594 46.542969 38.050781 46.390625 37.988281 C 46.109375 37.878906 45.925781 37.617188 46 37.425781 C 46.039062 37.316406 46.152344 37.269531 46.214844 37.25 C 46.269531 37.230469 46.328125 37.222656 46.390625 37.222656 C 46.480469 37.222656 46.578125 37.242188 46.667969 37.277344 C 46.9375 37.382812 47.113281 37.621094 47.066406 37.808594 L 47.054688 37.84375 C 47.011719 37.949219 46.90625 37.996094 46.84375 38.015625 Z M 46.84375 38.015625 " fill-opacity="1" fill-rule="nonzero"/><path fill="#f6a5b6" d="M 37.710938 16.777344 C 37.710938 16.972656 37.871094 17.132812 38.066406 17.132812 C 38.859375 17.132812 39.410156 18.304688 39.410156 19.359375 C 39.410156 19.554688 39.570312 19.710938 39.765625 19.710938 C 39.960938 19.710938 40.121094 19.554688 40.121094 19.359375 C 40.121094 18.304688 40.671875 17.132812 41.46875 17.132812 C 41.664062 17.132812 41.820312 16.972656 41.820312 16.777344 C 41.820312 16.582031 41.664062 16.425781 41.46875 16.425781 C 40.582031 16.425781 40.121094 15.308594 40.121094 14.207031 C 40.121094 14.011719 39.960938 13.851562 39.765625 13.851562 C 39.570312 13.851562 39.410156 14.011719 39.410156 14.207031 C 39.410156 15.308594 38.949219 16.425781 38.066406 16.425781 C 37.871094 16.425781 37.710938 16.582031 37.710938 16.777344 Z M 39.765625 15.914062 C 39.941406 16.285156 40.179688 16.582031 40.460938 16.792969 C 40.175781 17.023438 39.941406 17.351562 39.765625 17.722656 C 39.59375 17.351562 39.359375 17.023438 39.074219 16.792969 C 39.351562 16.582031 39.589844 16.285156 39.765625 15.914062 Z M 39.765625 15.914062 " fill-opacity="1" fill-rule="nonzero"/><path fill="#f6a5b6" d="M 34.640625 7.675781 C 35.433594 7.675781 35.984375 8.847656 35.984375 9.898438 C 35.984375 10.097656 36.144531 10.253906 36.339844 10.253906 C 36.535156 10.253906 36.695312 10.097656 36.695312 9.898438 C 36.695312 8.847656 37.246094 7.675781 38.039062 7.675781 C 38.238281 7.675781 38.394531 7.515625 38.394531 7.320312 C 38.394531 7.125 38.238281 6.964844 38.039062 6.964844 C 37.15625 6.964844 36.695312 5.851562 36.695312 4.75 C 36.695312 4.554688 36.535156 4.394531 36.339844 4.394531 C 36.144531 4.394531 35.984375 4.554688 35.984375 4.75 C 35.984375 5.851562 35.523438 6.964844 34.640625 6.964844 C 34.441406 6.964844 34.285156 7.125 34.285156 7.320312 C 34.285156 7.515625 34.441406 7.675781 34.640625 7.675781 Z M 36.339844 6.457031 C 36.515625 6.828125 36.753906 7.125 37.035156 7.335938 C 36.746094 7.566406 36.511719 7.890625 36.339844 8.265625 C 36.164062 7.890625 35.933594 7.566406 35.644531 7.335938 C 35.925781 7.125 36.164062 6.828125 36.339844 6.457031 Z M 36.339844 6.457031 " fill-opacity="1" fill-rule="nonzero"/><path fill="#f6a5b6" d="M 16.464844 25.640625 C 16.269531 25.640625 16.109375 25.800781 16.109375 25.996094 C 16.109375 26.191406 16.269531 26.347656 16.464844 26.347656 C 17.257812 26.347656 17.8125 27.523438 17.8125 28.574219 C 17.8125 28.769531 17.96875 28.929688 18.167969 28.929688 C 18.363281 28.929688 18.519531 28.769531 18.519531 28.574219 C 18.519531 27.523438 19.074219 26.347656 19.867188 26.347656 C 20.0625 26.347656 20.222656 26.191406 20.222656 25.996094 C 20.222656 25.800781 20.0625 25.640625 19.867188 25.640625 C 18.984375 25.640625 18.519531 24.527344 18.519531 23.421875 C 18.519531 23.226562 18.363281 23.070312 18.167969 23.070312 C 17.96875 23.070312 17.8125 23.226562 17.8125 23.421875 C 17.8125 24.527344 17.347656 25.640625 16.464844 25.640625 Z M 18.167969 25.132812 C 18.34375 25.5 18.578125 25.800781 18.859375 26.011719 C 18.574219 26.242188 18.339844 26.566406 18.167969 26.941406 C 17.992188 26.566406 17.757812 26.242188 17.472656 26.011719 C 17.753906 25.800781 17.988281 25.5 18.167969 25.132812 Z M 18.167969 25.132812 " fill-opacity="1" fill-rule="nonzero"/><path fill="#f6a5b6" d="M 13.949219 10.976562 C 14.746094 10.976562 15.296875 12.148438 15.296875 13.203125 C 15.296875 13.398438 15.457031 13.554688 15.652344 13.554688 C 15.847656 13.554688 16.007812 13.398438 16.007812 13.203125 C 16.007812 12.148438 16.558594 10.976562 17.351562 10.976562 C 17.546875 10.976562 17.707031 10.816406 17.707031 10.621094 C 17.707031 10.425781 17.546875 10.269531 17.351562 10.269531 C 16.46875 10.269531 16.007812 9.152344 16.007812 8.050781 C 16.007812 7.855469 15.847656 7.695312 15.652344 7.695312 C 15.457031 7.695312 15.296875 7.855469 15.296875 8.050781 C 15.296875 9.152344 14.835938 10.269531 13.949219 10.269531 C 13.753906 10.269531 13.597656 10.425781 13.597656 10.621094 C 13.597656 10.816406 13.753906 10.976562 13.949219 10.976562 Z M 15.652344 9.757812 C 15.828125 10.128906 16.066406 10.425781 16.347656 10.636719 C 16.058594 10.867188 15.824219 11.195312 15.652344 11.566406 C 15.476562 11.195312 15.246094 10.867188 14.957031 10.636719 C 15.238281 10.425781 15.476562 10.128906 15.652344 9.757812 Z M 15.652344 9.757812 " fill-opacity="1" fill-rule="nonzero"/><path fill="#f6a5b6" d="M 29.351562 30.316406 L 26.742188 28.464844 C 26.652344 28.402344 26.539062 28.382812 26.433594 28.414062 C 26.328125 28.445312 26.246094 28.523438 26.207031 28.625 L 25.332031 30.875 C 25.222656 30.765625 25.09375 30.671875 24.949219 30.597656 C 24.660156 30.449219 24.335938 30.398438 24.039062 30.460938 C 23.714844 30.527344 23.453125 30.71875 23.316406 30.988281 C 23.042969 31.523438 23.332031 32.21875 23.957031 32.539062 C 24.167969 32.648438 24.394531 32.703125 24.613281 32.703125 C 24.699219 32.703125 24.785156 32.695312 24.871094 32.675781 C 25.191406 32.609375 25.457031 32.417969 25.59375 32.148438 C 25.597656 32.140625 25.597656 32.132812 25.601562 32.125 C 25.601562 32.121094 25.605469 32.121094 25.605469 32.117188 L 26.699219 29.304688 L 28.714844 30.734375 L 27.941406 32.722656 C 27.832031 32.613281 27.703125 32.519531 27.558594 32.445312 C 27.269531 32.300781 26.945312 32.25 26.648438 32.3125 C 26.328125 32.378906 26.0625 32.570312 25.925781 32.839844 C 25.652344 33.375 25.941406 34.070312 26.570312 34.390625 C 26.777344 34.496094 27.003906 34.550781 27.226562 34.550781 C 27.3125 34.550781 27.398438 34.542969 27.480469 34.527344 C 27.773438 34.46875 28.015625 34.296875 28.160156 34.066406 C 28.164062 34.058594 28.167969 34.050781 28.171875 34.042969 C 28.183594 34.027344 28.195312 34.015625 28.203125 34 C 28.207031 33.992188 28.207031 33.988281 28.210938 33.980469 C 28.210938 33.976562 28.214844 33.972656 28.21875 33.96875 L 29.476562 30.730469 C 29.535156 30.582031 29.484375 30.410156 29.351562 30.316406 Z M 24.726562 31.984375 C 24.589844 32.011719 24.425781 31.984375 24.28125 31.910156 C 24.011719 31.773438 23.855469 31.492188 23.945312 31.308594 C 24 31.207031 24.117188 31.167969 24.179688 31.15625 C 24.214844 31.148438 24.253906 31.144531 24.292969 31.144531 C 24.402344 31.144531 24.519531 31.171875 24.628906 31.226562 C 24.773438 31.304688 24.890625 31.417969 24.949219 31.546875 C 24.976562 31.601562 25.003906 31.703125 24.96875 31.800781 L 24.957031 31.832031 C 24.902344 31.933594 24.792969 31.96875 24.726562 31.984375 Z M 27.339844 33.832031 C 27.203125 33.859375 27.039062 33.835938 26.890625 33.761719 C 26.621094 33.621094 26.464844 33.34375 26.558594 33.160156 C 26.609375 33.058594 26.726562 33.019531 26.789062 33.007812 C 26.828125 33 26.863281 32.996094 26.902344 32.996094 C 27.011719 32.996094 27.128906 33.023438 27.238281 33.078125 C 27.386719 33.152344 27.503906 33.269531 27.5625 33.398438 C 27.585938 33.453125 27.617188 33.554688 27.578125 33.652344 L 27.566406 33.683594 C 27.511719 33.785156 27.402344 33.820312 27.339844 33.832031 Z M 27.339844 33.832031 " fill-opacity="1" fill-rule="nonzero"/><g clip-path="url(#a295218b01)"><path fill="#f6a5b6" d="M 7.851562 39.757812 L 7.160156 36.355469 C 7.121094 36.164062 6.933594 36.042969 6.742188 36.082031 C 6.546875 36.121094 6.425781 36.308594 6.464844 36.5 L 6.945312 38.863281 C 6.796875 38.828125 6.636719 38.820312 6.476562 38.835938 C 6.152344 38.867188 5.851562 39.003906 5.636719 39.214844 C 5.402344 39.445312 5.285156 39.75 5.3125 40.050781 C 5.34375 40.351562 5.519531 40.625 5.796875 40.804688 C 6.011719 40.941406 6.269531 41.015625 6.542969 41.015625 C 6.59375 41.015625 6.644531 41.011719 6.695312 41.007812 C 7.394531 40.9375 7.917969 40.390625 7.855469 39.792969 C 7.855469 39.785156 7.851562 39.777344 7.851562 39.769531 C 7.851562 39.765625 7.851562 39.761719 7.851562 39.757812 Z M 6.625 40.300781 C 6.460938 40.320312 6.300781 40.285156 6.179688 40.207031 C 6.125 40.171875 6.03125 40.09375 6.019531 39.980469 C 6.007812 39.863281 6.085938 39.769531 6.132812 39.722656 C 6.230469 39.625 6.382812 39.558594 6.546875 39.539062 C 6.574219 39.539062 6.601562 39.535156 6.628906 39.535156 C 6.761719 39.535156 6.890625 39.570312 6.992188 39.636719 C 7.042969 39.667969 7.125 39.738281 7.144531 39.839844 L 7.152344 39.871094 C 7.167969 40.070312 6.921875 40.273438 6.625 40.300781 Z M 6.625 40.300781 " fill-opacity="1" fill-rule="nonzero"/></g></svg>