<svg xmlns="http://www.w3.org/2000/svg" xmlns:xlink="http://www.w3.org/1999/xlink" width="70" zoomAndPan="magnify" viewBox="0 0 52.5 52.499999" height="70" preserveAspectRatio="xMidYMid meet" version="1.0"><defs><clipPath id="69bcefd312"><path d="M 0 0 L 52.003906 0 L 52.003906 52.003906 L 0 52.003906 Z M 0 0 " clip-rule="nonzero"/></clipPath><clipPath id="51f9792c62"><path d="M 3 3 L 48.144531 3 L 48.144531 48.089844 L 3 48.089844 Z M 3 3 " clip-rule="nonzero"/></clipPath></defs><g clip-path="url(#69bcefd312)"><path fill="#ffffff" d="M 0 0 L 52.003906 0 L 52.003906 52.003906 L 0 52.003906 Z M 0 0 " fill-opacity="1" fill-rule="nonzero"/><path fill="#ffffff" d="M 0 0 L 52.003906 0 L 52.003906 52.003906 L 0 52.003906 Z M 0 0 " fill-opacity="1" fill-rule="nonzero"/></g><g clip-path="url(#51f9792c62)"><path fill="#f6a5b6" d="M 6.734375 48.207031 C 6.082031 48.097656 5.328125 47.695312 4.761719 47.148438 C 3.195312 45.636719 2.832031 42.898438 3.792969 39.855469 C 4.5625 37.425781 6.179688 35.15625 8.488281 33.257812 C 8.75 33.042969 8.988281 32.84375 9.019531 32.8125 C 9.054688 32.785156 8.976562 32.648438 8.851562 32.515625 C 8.402344 32.035156 8.304688 31.753906 8.304688 30.949219 C 8.304688 30.238281 8.316406 30.199219 8.609375 29.597656 C 9.507812 27.773438 11.519531 26.316406 13.722656 25.90625 C 14.617188 25.738281 16.054688 25.785156 16.519531 25.996094 C 16.882812 26.160156 17.0625 26.335938 17.125 26.589844 C 17.183594 26.824219 17.046875 27.175781 16.859375 27.273438 C 16.773438 27.320312 16.300781 27.363281 15.792969 27.375 C 14.734375 27.390625 14.058594 27.546875 13.117188 27.988281 C 11.734375 28.632812 10.542969 29.753906 10.269531 30.667969 C 10.148438 31.074219 10.195312 31.1875 10.507812 31.246094 C 10.964844 31.332031 11.351562 31.230469 12.039062 30.847656 C 13.296875 30.136719 14.980469 29.523438 15.664062 29.523438 C 16.351562 29.523438 16.8125 29.925781 16.8125 30.527344 C 16.8125 31.128906 16.332031 31.546875 15.011719 32.097656 C 14.183594 32.445312 12.445312 33.03125 12.25 33.03125 C 12.105469 33.03125 11.042969 33.738281 10.273438 34.351562 C 9.027344 35.339844 7.808594 36.601562 7.113281 37.617188 C 6.289062 38.824219 5.640625 40.367188 5.417969 41.644531 C 5.300781 42.308594 5.296875 43.742188 5.410156 44.214844 C 5.597656 44.996094 6.09375 45.730469 6.617188 46.003906 C 7.367188 46.394531 8.578125 46.046875 9.910156 45.066406 C 10.617188 44.546875 12.417969 42.714844 13.132812 41.792969 C 14.839844 39.585938 17.609375 35.003906 18.265625 33.292969 C 18.386719 32.972656 18.550781 32.644531 18.628906 32.5625 C 18.707031 32.476562 18.921875 32.03125 19.109375 31.570312 C 19.777344 29.929688 20.15625 29.378906 20.617188 29.378906 C 21.039062 29.378906 21.40625 29.691406 21.410156 30.058594 C 21.410156 30.171875 21.203125 30.925781 20.945312 31.738281 C 20.6875 32.546875 20.324219 33.738281 20.136719 34.378906 C 19.953125 35.023438 19.78125 35.597656 19.761719 35.65625 C 19.6875 35.867188 19.816406 35.664062 20.46875 34.519531 C 22.207031 31.488281 23.570312 29.875 24.636719 29.589844 C 25.4375 29.375 26.152344 29.855469 26.277344 30.691406 C 26.347656 31.171875 26.199219 31.9375 25.71875 33.503906 C 25.132812 35.429688 24.871094 36.378906 24.699219 37.21875 C 24.503906 38.164062 24.507812 38.230469 24.742188 37.957031 C 24.84375 37.835938 25.101562 37.542969 25.316406 37.300781 C 26.144531 36.367188 26.3125 36.160156 27.363281 34.78125 C 28.597656 33.160156 29.730469 31.714844 29.851562 31.605469 C 29.898438 31.566406 30.125 31.269531 30.355469 30.949219 C 31.90625 28.792969 33.648438 28.03125 34.878906 28.96875 C 35.183594 29.199219 35.558594 29.929688 35.621094 30.414062 C 35.648438 30.613281 35.695312 30.75 35.726562 30.714844 C 35.757812 30.683594 36.25 29.882812 36.820312 28.941406 C 39.226562 24.960938 41.078125 22.230469 42.441406 20.652344 C 43.089844 19.902344 44.351562 18.644531 44.902344 18.203125 C 45.558594 17.675781 45.871094 17.601562 46.363281 17.851562 C 46.898438 18.128906 47.09375 18.679688 46.871094 19.285156 C 46.824219 19.414062 46.355469 20.019531 45.828125 20.632812 C 40.941406 26.324219 37.734375 31.527344 36.742188 35.367188 C 36.570312 36.03125 36.457031 36.824219 36.535156 36.824219 C 36.5625 36.824219 36.828125 36.632812 37.125 36.398438 C 37.71875 35.921875 38.394531 35.230469 39.480469 33.992188 C 40.4375 32.898438 40.679688 32.777344 41.128906 33.152344 C 41.34375 33.332031 41.359375 33.375 41.328125 33.71875 C 41.238281 34.804688 39.058594 37.996094 37.722656 39.003906 C 37.085938 39.480469 36.589844 39.671875 35.984375 39.671875 C 35.125 39.671875 34.484375 39.1875 34.160156 38.285156 L 33.992188 37.832031 L 33.410156 38.589844 C 32.667969 39.546875 31.804688 40.367188 31.195312 40.695312 C 30.765625 40.925781 30.664062 40.953125 30.136719 40.953125 C 29.632812 40.953125 29.507812 40.925781 29.210938 40.75 C 28.484375 40.324219 28.140625 39.640625 28.066406 38.472656 L 28.019531 37.75 L 27.734375 38.183594 C 26.488281 40.082031 25.078125 41.308594 24.039062 41.410156 C 23.257812 41.484375 22.539062 41.054688 22.207031 40.316406 C 22.054688 39.976562 22.035156 39.824219 22.042969 39.054688 C 22.050781 38.089844 22.222656 37.171875 22.683594 35.613281 C 22.824219 35.140625 22.925781 34.738281 22.914062 34.726562 C 22.875 34.6875 22.03125 36.191406 20.972656 38.179688 C 19.371094 41.183594 18.8125 41.863281 17.949219 41.863281 C 17.40625 41.863281 17.03125 41.597656 16.777344 41.03125 L 16.617188 40.675781 L 16.066406 41.46875 C 13.707031 44.875 11.121094 47.242188 8.941406 47.988281 C 8.480469 48.144531 7.660156 48.292969 7.320312 48.28125 C 7.21875 48.273438 6.957031 48.242188 6.734375 48.207031 Z M 31.019531 37.847656 C 31.640625 37.160156 32.792969 35.515625 33.929688 33.699219 C 34.339844 33.046875 34.351562 33.007812 34.277344 32.75 C 34.234375 32.601562 34.179688 32.203125 34.152344 31.863281 C 34.128906 31.503906 34.054688 31.117188 33.96875 30.929688 C 33.839844 30.632812 33.820312 30.617188 33.664062 30.699219 C 33.320312 30.886719 32.695312 31.558594 32.25 32.230469 C 31.222656 33.773438 30.507812 35.824219 30.351562 37.675781 C 30.324219 38.003906 30.324219 38.308594 30.351562 38.351562 C 30.414062 38.453125 30.605469 38.308594 31.019531 37.847656 Z M 19.597656 46.203125 C 18.320312 46.015625 17.171875 45.609375 16.476562 45.09375 C 15.933594 44.691406 15.816406 44.117188 16.203125 43.753906 C 16.429688 43.539062 16.820312 43.53125 17.046875 43.738281 C 17.496094 44.148438 18.460938 44.410156 19.738281 44.46875 C 21.535156 44.554688 22.527344 44.351562 30.136719 42.339844 C 33.1875 41.535156 34.527344 41.316406 36.378906 41.320312 C 37.535156 41.324219 37.816406 41.347656 38.316406 41.484375 C 38.988281 41.667969 39.945312 42.121094 40.363281 42.449219 C 41.210938 43.121094 41.296875 44.046875 40.53125 44.238281 C 40.425781 44.265625 40.273438 44.253906 40.199219 44.210938 C 40.125 44.171875 39.59375 44.097656 39.023438 44.046875 C 37.417969 43.90625 36.355469 44.027344 32.292969 44.8125 C 25.402344 46.136719 21.835938 46.527344 19.597656 46.203125 Z M 42.921875 35.382812 C 42.902344 35.3125 42.832031 34.898438 42.765625 34.460938 C 42.589844 33.238281 42.308594 32.648438 41.75 32.300781 C 41.378906 32.070312 41.410156 31.882812 41.867188 31.570312 C 42.074219 31.433594 42.46875 31.046875 42.746094 30.71875 C 43.050781 30.359375 43.292969 30.132812 43.351562 30.152344 C 43.402344 30.175781 43.519531 30.394531 43.609375 30.640625 C 43.820312 31.234375 44.171875 31.785156 44.390625 31.867188 C 44.488281 31.902344 44.664062 31.933594 44.78125 31.933594 C 44.996094 31.933594 45.175781 32.132812 45.082031 32.269531 C 45.054688 32.308594 44.910156 32.417969 44.761719 32.507812 C 44.125 32.894531 43.648438 33.707031 43.460938 34.714844 C 43.414062 34.972656 43.34375 35.257812 43.308594 35.347656 C 43.234375 35.542969 42.980469 35.566406 42.921875 35.382812 Z M 45.175781 34.238281 C 45.085938 34.101562 45.078125 34.027344 45.136719 33.914062 C 45.238281 33.726562 45.484375 33.648438 45.621094 33.761719 C 45.777344 33.890625 45.753906 34.25 45.585938 34.339844 C 45.375 34.453125 45.304688 34.433594 45.175781 34.238281 Z M 46.929688 30.660156 C 46.492188 30.222656 46.917969 29.304688 47.554688 29.304688 C 47.800781 29.304688 47.996094 29.445312 48.105469 29.707031 C 48.242188 30.03125 48.167969 30.355469 47.902344 30.625 C 47.617188 30.90625 47.191406 30.921875 46.929688 30.660156 Z M 45.742188 29.0625 C 45.703125 29.015625 45.617188 28.648438 45.550781 28.246094 C 45.398438 27.328125 45.199219 26.738281 44.859375 26.234375 C 44.648438 25.917969 44.496094 25.789062 44.089844 25.582031 C 43.292969 25.175781 43.257812 24.945312 43.964844 24.707031 C 44.558594 24.507812 44.710938 24.359375 45.085938 23.609375 C 45.277344 23.226562 45.476562 22.90625 45.53125 22.894531 C 45.589844 22.882812 45.742188 23.039062 45.871094 23.246094 C 46.160156 23.691406 46.558594 24.027344 47.167969 24.332031 C 47.695312 24.59375 47.75 24.753906 47.40625 25.007812 C 46.898438 25.382812 46.496094 26.382812 46.238281 27.917969 C 46.152344 28.421875 46.066406 28.886719 46.046875 28.953125 C 46.003906 29.109375 45.828125 29.171875 45.742188 29.0625 Z M 42.078125 28.664062 C 41.800781 28.382812 41.800781 28.277344 42.078125 28 C 42.472656 27.605469 43.113281 27.621094 43.214844 28.03125 C 43.308594 28.398438 43.015625 28.742188 42.53125 28.839844 C 42.339844 28.875 42.265625 28.847656 42.078125 28.664062 Z M 10.859375 25.964844 C 10.570312 24.152344 10.261719 23.65625 9.277344 23.398438 C 8.667969 23.238281 8.628906 23.082031 9.160156 22.925781 C 9.371094 22.863281 9.621094 22.761719 9.710938 22.695312 C 9.980469 22.507812 10.269531 21.925781 10.355469 21.417969 C 10.417969 21.023438 10.457031 20.945312 10.574219 20.945312 C 10.671875 20.945312 10.777344 21.066406 10.921875 21.347656 C 11.183594 21.855469 11.648438 22.347656 12.046875 22.527344 C 12.40625 22.6875 12.429688 22.796875 12.179688 23.125 C 11.910156 23.476562 11.652344 24.226562 11.445312 25.246094 C 11.34375 25.742188 11.261719 26.167969 11.261719 26.191406 C 11.261719 26.21875 11.183594 26.238281 11.082031 26.238281 C 10.933594 26.238281 10.898438 26.195312 10.859375 25.964844 Z M 17.761719 25.972656 C 17.269531 25.71875 16.933594 25.25 16.808594 24.648438 C 16.695312 24.113281 16.761719 22.453125 16.921875 21.71875 C 17.621094 18.542969 19.546875 14.246094 22.003906 10.375 C 22.28125 9.933594 22.503906 9.5625 22.492188 9.550781 C 22.480469 9.539062 21.78125 9.835938 20.9375 10.210938 C 18.414062 11.328125 17.265625 11.707031 16.414062 11.707031 C 15.351562 11.707031 14.714844 10.9375 15.011719 10 C 15.171875 9.488281 15.492188 9.132812 16.023438 8.867188 C 16.523438 8.617188 17.015625 8.570312 17.421875 8.742188 C 17.683594 8.851562 18.054688 9.25 18.054688 9.417969 C 18.054688 9.5 18.097656 9.515625 18.21875 9.476562 C 18.585938 9.367188 21.429688 8 24.769531 6.335938 C 29.265625 4.09375 30.019531 3.765625 31.433594 3.417969 C 34.074219 2.777344 35.835938 3.460938 36.167969 5.257812 C 36.320312 6.082031 35.90625 7.390625 35.332031 7.894531 C 34.980469 8.203125 34.566406 8.222656 34.289062 7.945312 C 34.082031 7.738281 34.078125 7.527344 34.257812 6.625 C 34.328125 6.289062 34.328125 6.109375 34.265625 5.871094 C 34.148438 5.445312 33.863281 5.324219 32.984375 5.332031 C 31.671875 5.347656 30.101562 5.914062 26.101562 7.820312 C 25.382812 8.160156 25.335938 8.195312 25.089844 8.605469 C 24.75 9.167969 23.183594 11.984375 22.472656 13.308594 C 20.65625 16.699219 19.242188 20.386719 18.890625 22.660156 C 18.769531 23.460938 18.757812 23.683594 18.847656 23.683594 C 19.070312 23.683594 21.019531 20.910156 22.261719 18.828125 C 22.917969 17.730469 23.152344 17.320312 25.027344 13.972656 C 27.824219 8.984375 28.59375 7.910156 29.371094 7.910156 C 30.140625 7.910156 30.628906 8.597656 30.394531 9.34375 C 30.34375 9.5 29.683594 10.828125 28.929688 12.292969 C 27.792969 14.496094 26.425781 17.332031 26.203125 17.945312 C 26.175781 18.023438 26.460938 17.789062 26.839844 17.421875 C 27.628906 16.660156 28.105469 16.382812 28.621094 16.382812 C 29.351562 16.386719 29.8125 16.886719 29.867188 17.734375 C 29.902344 18.257812 29.78125 18.898438 29.289062 20.832031 C 29.089844 21.609375 28.9375 22.300781 28.949219 22.363281 C 28.976562 22.503906 29.65625 21.421875 30.160156 20.433594 C 30.4375 19.886719 30.550781 19.566406 30.609375 19.15625 C 31.011719 16.402344 33.5 12.972656 35.914062 11.839844 C 37.089844 11.289062 38.089844 11.597656 38.421875 12.613281 C 38.5625 13.042969 38.480469 14.03125 38.242188 14.773438 C 37.988281 15.566406 37.398438 16.742188 36.8125 17.625 C 36.277344 18.433594 35.261719 19.472656 34.730469 19.757812 C 34.027344 20.132812 33.144531 20.261719 32.636719 20.066406 C 32.523438 20.023438 32.511719 20.066406 32.511719 20.449219 C 32.511719 20.9375 32.671875 21.628906 32.847656 21.898438 C 33.171875 22.390625 34.042969 22.472656 35 22.097656 C 36.757812 21.410156 38.933594 19.230469 39.835938 17.25 C 40.457031 15.890625 40.792969 14.460938 40.796875 13.164062 C 40.800781 12.285156 40.789062 12.234375 40.597656 11.945312 C 40.339844 11.550781 40.289062 11.332031 40.394531 11.011719 C 40.554688 10.527344 41.09375 10.34375 41.617188 10.589844 C 42.476562 11 42.960938 12.105469 42.957031 13.667969 C 42.957031 14.636719 42.816406 15.457031 42.476562 16.480469 C 41.808594 18.5 40.832031 20.054688 39.269531 21.601562 C 36.847656 24 34.257812 24.921875 32.386719 24.050781 C 31.894531 23.824219 31.320312 23.335938 31.148438 23.003906 L 31.039062 22.796875 L 30.613281 23.515625 C 30.117188 24.359375 29.628906 24.925781 29.171875 25.191406 C 28.460938 25.609375 27.566406 25.34375 27.183594 24.597656 C 27.019531 24.28125 26.996094 24.125 26.972656 23.382812 C 26.945312 22.402344 27.039062 21.820312 27.460938 20.289062 C 27.617188 19.726562 27.738281 19.253906 27.726562 19.242188 C 27.648438 19.15625 26.316406 20.816406 25.679688 21.785156 C 24.980469 22.851562 24.136719 24.519531 24.003906 25.101562 C 23.855469 25.738281 23.808594 25.824219 23.503906 26.011719 C 23.15625 26.230469 22.832031 26.210938 22.589844 25.964844 C 22.4375 25.808594 22.371094 25.632812 22.292969 25.191406 C 22.179688 24.554688 22.238281 23.949219 22.515625 22.851562 C 22.59375 22.539062 22.648438 22.265625 22.632812 22.25 C 22.613281 22.234375 22.476562 22.410156 22.324219 22.640625 C 21.304688 24.175781 19.992188 25.636719 19.347656 25.941406 C 19.15625 26.03125 18.8125 26.121094 18.582031 26.140625 C 18.222656 26.171875 18.105469 26.148438 17.761719 25.972656 Z M 33.878906 18.164062 C 34.324219 17.855469 34.683594 17.445312 35.171875 16.6875 C 35.777344 15.75 36.578125 13.898438 36.378906 13.898438 C 36.34375 13.898438 36.066406 14.101562 35.757812 14.347656 C 34.726562 15.175781 33.671875 16.570312 33.128906 17.8125 C 32.996094 18.125 32.902344 18.410156 32.925781 18.449219 C 33.003906 18.574219 33.488281 18.429688 33.878906 18.164062 Z M 14.152344 23.714844 C 13.996094 23.558594 14.007812 23.421875 14.1875 23.242188 C 14.40625 23.023438 14.722656 23.074219 14.753906 23.328125 C 14.769531 23.464844 14.71875 23.5625 14.578125 23.675781 C 14.34375 23.859375 14.300781 23.863281 14.152344 23.714844 Z M 14.542969 21.132812 C 14.304688 20.894531 14.253906 20.46875 14.4375 20.226562 C 14.625 19.976562 15.199219 19.722656 15.464844 19.773438 C 15.925781 19.859375 16.082031 20.449219 15.769531 20.914062 C 15.445312 21.398438 14.902344 21.492188 14.542969 21.132812 Z M 12.769531 19.871094 C 12.75 19.78125 12.683594 19.253906 12.621094 18.707031 C 12.503906 17.679688 12.347656 17.125 12.070312 16.769531 C 11.828125 16.464844 11.316406 16.125 10.804688 15.9375 C 10.554688 15.847656 10.328125 15.738281 10.300781 15.695312 C 10.222656 15.582031 10.375 15.359375 10.527344 15.359375 C 10.769531 15.359375 11.945312 14.71875 12.332031 14.378906 C 12.539062 14.195312 12.863281 13.8125 13.050781 13.53125 C 13.234375 13.246094 13.441406 12.996094 13.503906 12.96875 C 13.667969 12.910156 13.804688 13.125 13.855469 13.527344 C 13.992188 14.570312 14.597656 15.167969 15.726562 15.378906 C 16.113281 15.449219 16.285156 15.574219 16.195312 15.722656 C 16.175781 15.753906 15.988281 15.800781 15.78125 15.828125 C 15.222656 15.902344 14.816406 16.128906 14.367188 16.609375 C 13.714844 17.316406 13.378906 18.15625 13.183594 19.558594 C 13.132812 19.933594 13.101562 20 12.964844 20.019531 C 12.84375 20.035156 12.792969 20 12.769531 19.871094 Z M 8.820312 19.570312 C 8.441406 19.1875 8.648438 18.730469 9.234375 18.664062 C 9.644531 18.621094 9.84375 18.808594 9.773438 19.179688 C 9.71875 19.476562 9.542969 19.648438 9.238281 19.710938 C 9.054688 19.746094 8.972656 19.71875 8.820312 19.570312 Z M 8.820312 19.570312 " fill-opacity="1" fill-rule="nonzero"/></g></svg>