<svg xmlns="http://www.w3.org/2000/svg" xmlns:xlink="http://www.w3.org/1999/xlink" width="80" zoomAndPan="magnify" viewBox="0 0 60 60" height="80" preserveAspectRatio="xMidYMid meet" version="1.0"><defs><clipPath id="5c93c0317a"><path d="M 2.410156 2.484375 L 57.160156 2.484375 L 57.160156 57.234375 L 2.410156 57.234375 Z M 2.410156 2.484375 " clip-rule="nonzero"/></clipPath></defs><g clip-path="url(#5c93c0317a)"><path fill="#ffffff" d="M 29.773438 7.421875 C 37.078125 7.421875 37.941406 7.445312 40.832031 7.578125 C 43.496094 7.699219 44.949219 8.140625 45.917969 8.527344 C 47.191406 9.015625 48.101562 9.617188 49.0625 10.578125 C 50.023438 11.535156 50.609375 12.449219 51.113281 13.71875 C 51.484375 14.679688 51.929688 16.132812 52.0625 18.804688 C 52.191406 21.699219 52.21875 22.5625 52.21875 29.867188 C 52.21875 37.171875 52.191406 38.035156 52.0625 40.925781 C 51.941406 43.589844 51.496094 45.042969 51.113281 46.011719 C 50.621094 47.285156 50.023438 48.195312 49.0625 49.15625 C 48.101562 50.117188 47.191406 50.703125 45.917969 51.207031 C 44.960938 51.578125 43.507812 52.023438 40.832031 52.15625 C 37.941406 52.289062 37.078125 52.3125 29.773438 52.3125 C 22.46875 52.3125 21.601562 52.289062 18.710938 52.15625 C 16.050781 52.035156 14.597656 51.589844 13.625 51.207031 C 12.355469 50.714844 11.441406 50.117188 10.484375 49.15625 C 9.523438 48.195312 8.933594 47.285156 8.429688 46.011719 C 8.058594 45.054688 7.617188 43.601562 7.484375 40.925781 C 7.351562 38.035156 7.328125 37.171875 7.328125 29.867188 C 7.328125 22.5625 7.351562 21.699219 7.484375 18.804688 C 7.605469 16.144531 8.046875 14.691406 8.429688 13.71875 C 8.921875 12.449219 9.523438 11.535156 10.484375 10.578125 C 11.441406 9.617188 12.355469 9.03125 13.625 8.527344 C 14.585938 8.152344 16.035156 7.710938 18.710938 7.578125 C 21.601562 7.445312 22.46875 7.421875 29.773438 7.421875 M 29.773438 2.492188 C 22.335938 2.492188 21.410156 2.527344 18.484375 2.660156 C 15.570312 2.792969 13.578125 3.257812 11.839844 3.929688 C 10.039062 4.625 8.515625 5.5625 6.992188 7.085938 C 5.480469 8.609375 4.542969 10.132812 3.847656 11.933594 C 3.175781 13.671875 2.710938 15.664062 2.578125 18.578125 C 2.445312 21.492188 2.410156 22.429688 2.410156 29.855469 C 2.410156 37.292969 2.445312 38.214844 2.578125 41.144531 C 2.710938 44.058594 3.175781 46.050781 3.847656 47.789062 C 4.542969 49.589844 5.480469 51.113281 7.003906 52.636719 C 8.527344 54.160156 10.050781 55.09375 11.851562 55.789062 C 13.589844 56.460938 15.582031 56.929688 18.496094 57.0625 C 21.410156 57.195312 22.347656 57.230469 29.785156 57.230469 C 37.222656 57.230469 38.144531 57.195312 41.074219 57.0625 C 43.988281 56.929688 45.980469 56.460938 47.71875 55.789062 C 49.519531 55.09375 51.042969 54.160156 52.566406 52.636719 C 54.089844 51.113281 55.023438 49.589844 55.71875 47.789062 C 56.390625 46.050781 56.859375 44.058594 56.992188 41.144531 C 57.125 38.226562 57.160156 37.292969 57.160156 29.855469 C 57.160156 22.417969 57.125 21.492188 56.992188 18.566406 C 56.859375 15.652344 56.390625 13.660156 55.71875 11.921875 C 55.023438 10.121094 54.089844 8.597656 52.566406 7.074219 C 51.042969 5.550781 49.519531 4.613281 47.71875 3.917969 C 45.980469 3.246094 43.988281 2.78125 41.074219 2.648438 C 38.144531 2.527344 37.210938 2.492188 29.773438 2.492188 " fill-opacity="1" fill-rule="nonzero"/></g><path fill="#ffffff" d="M 29.773438 15.808594 C 22.011719 15.808594 15.726562 22.09375 15.726562 29.855469 C 15.726562 37.617188 22.023438 43.914062 29.785156 43.914062 C 37.546875 43.914062 43.84375 37.628906 43.84375 29.855469 C 43.832031 22.09375 37.535156 15.808594 29.773438 15.808594 M 29.773438 38.984375 C 24.734375 38.984375 20.65625 34.90625 20.65625 29.867188 C 20.65625 24.828125 24.734375 20.75 29.773438 20.75 C 34.8125 20.75 38.890625 24.828125 38.890625 29.867188 C 38.902344 34.894531 34.8125 38.984375 29.773438 38.984375 " fill-opacity="1" fill-rule="nonzero"/><path fill="#ffffff" d="M 47.671875 15.253906 C 47.671875 17.066406 46.195312 18.542969 44.382812 18.542969 C 42.570312 18.542969 41.097656 17.066406 41.097656 15.253906 C 41.097656 13.445312 42.570312 11.96875 44.382812 11.96875 C 46.195312 11.96875 47.671875 13.433594 47.671875 15.253906 " fill-opacity="1" fill-rule="nonzero"/></svg>