<svg xmlns="http://www.w3.org/2000/svg" xmlns:xlink="http://www.w3.org/1999/xlink" width="300" zoomAndPan="magnify" viewBox="0 0 224.87999 225" height="300" preserveAspectRatio="xMidYMid meet" version="1.0"><defs><g/></defs><g fill="#f2eadd" fill-opacity="1"><g transform="translate(4.455574, 154.398354)"><g><path d="M 129.578125 -1.4375 L 131.875 -1.4375 L 131.875 0 L 100.640625 0 L 100.640625 -1.296875 L 102.796875 -1.296875 C 104.421875 -1.296875 105.8125 -1.941406 106.96875 -3.234375 C 108.125 -4.535156 108.601562 -5.953125 108.40625 -7.484375 L 101.9375 -79.90625 L 71.703125 -12.671875 C 69.015625 -6.816406 67.378906 -1.921875 66.796875 2.015625 L 65.359375 2.015625 L 28.5 -77.890625 L 22.3125 -7.484375 C 22.125 -5.953125 22.601562 -4.535156 23.75 -3.234375 C 24.90625 -1.941406 26.25 -1.296875 27.78125 -1.296875 L 30.09375 -1.296875 L 30.09375 0 L 2.15625 0 L 2.15625 -1.4375 L 4.46875 -1.4375 C 7.15625 -1.4375 9.476562 -2.25 11.4375 -3.875 C 13.40625 -5.507812 14.582031 -7.722656 14.96875 -10.515625 L 25.765625 -102.796875 L 27.203125 -102.796875 L 67.375 -15.984375 L 106.6875 -102.796875 L 107.984375 -102.796875 L 119.0625 -10.515625 C 119.539062 -6.671875 121.460938 -3.984375 124.828125 -2.453125 C 126.265625 -1.773438 127.847656 -1.4375 129.578125 -1.4375 Z M 129.578125 -1.4375 "/></g></g></g><g fill="#f2eadd" fill-opacity="1"><g transform="translate(139.500439, 154.398354)"><g><path d="M 10.515625 -1.4375 C 13.003906 -1.4375 15.132812 -2.320312 16.90625 -4.09375 C 18.6875 -5.875 19.625 -8.015625 19.71875 -10.515625 L 19.71875 -90.265625 C 19.625 -92.765625 18.6875 -94.898438 16.90625 -96.671875 C 15.132812 -98.453125 13.003906 -99.34375 10.515625 -99.34375 L 8.640625 -99.34375 L 8.640625 -100.78125 L 40.171875 -100.78125 L 40.171875 -99.34375 L 38.296875 -99.34375 C 34.835938 -99.34375 32.195312 -97.851562 30.375 -94.875 C 29.507812 -93.4375 29.078125 -91.898438 29.078125 -90.265625 L 29.078125 -4.46875 L 49.671875 -4.46875 C 56.773438 -4.46875 62.195312 -6.050781 65.9375 -9.21875 C 69.675781 -12.382812 72.796875 -17.085938 75.296875 -23.328125 L 76.734375 -23.328125 L 68.390625 0 L 8.640625 0 L 8.640625 -1.4375 Z M 10.515625 -1.4375 "/></g></g></g><g fill="#a41423" fill-opacity="1"><g transform="translate(15.034256, 117.266831)"><g><path d="M 16.648438 1.132812 C 16.648438 0.179688 16.421875 -0.496094 16.421875 -2.308594 C 16.421875 -5.472656 17.507812 -13.796875 16.511719 -15.519531 C 16.332031 -15.925781 15.925781 -16.152344 15.472656 -16.152344 C 15.15625 -16.152344 14.839844 -16.0625 14.566406 -15.878906 C 13.617188 -15.246094 12.757812 -13.480469 12.171875 -12.351562 C 8.957031 -5.835938 7.195312 2.804688 5.15625 10.222656 L 4.070312 13.480469 C 3.84375 13.980469 3.84375 14.207031 3.347656 14.339844 L 2.894531 12.125 C 1.675781 4.796875 2.714844 -7.285156 3.664062 -13.890625 C 4.480469 -19.363281 5.066406 -22.574219 6.46875 -27.734375 C 6.742188 -28.636719 7.464844 -30.3125 6.199219 -30.3125 C 4.386719 -30.3125 2.125 -16.46875 1.992188 -15.5625 C 1.582031 -12.757812 1.222656 -10 0.90625 -7.148438 L 0.453125 1.992188 C 0.453125 4.929688 0.722656 16.105469 3.347656 16.105469 C 4.253906 16.105469 4.523438 15.652344 4.929688 14.929688 C 5.746094 12.9375 6.425781 10.992188 6.921875 8.914062 C 7.691406 6.242188 8.371094 3.257812 9.09375 0.40625 C 10.042969 -3.484375 12.125 -10.632812 14.613281 -13.980469 C 14.929688 -14.386719 14.882812 -14.523438 15.425781 -14.660156 C 15.425781 -13.980469 15.519531 -13.574219 15.519531 -13.210938 L 14.839844 -4.164062 C 14.703125 -2.171875 14.703125 2.851562 16.648438 2.851562 C 19.046875 2.851562 21.671875 -7.375 22.441406 -9.410156 C 23.660156 -12.394531 24.339844 -14.929688 25.832031 -18.230469 C 27.28125 -21.488281 28.09375 -23.34375 29.949219 -26.375 C 30.628906 -27.550781 31.625 -29.089844 32.800781 -29.679688 C 33.839844 -27.417969 31.667969 -16.195312 31.261719 -13.664062 C 30.265625 -7.734375 29.859375 -3.753906 29.136719 1.945312 L 27.777344 22.125 C 27.824219 22.664062 27.824219 22.9375 27.867188 23.707031 C 27.914062 24.429688 28.320312 24.882812 28.683594 24.882812 C 29 24.882812 29.316406 24.519531 29.316406 23.707031 C 29.316406 22.03125 29.269531 19.953125 29.40625 18.324219 C 30.132812 11.808594 30.449219 5.519531 31.441406 -1.175781 L 34.246094 -19.859375 C 34.472656 -21.398438 36.328125 -31.308594 32.800781 -31.308594 C 29.632812 -31.308594 24.429688 -18.730469 23.480469 -16.332031 C 21.671875 -11.71875 20.402344 -7.464844 18.683594 -2.984375 C 18.324219 -1.855469 17.464844 0.632812 16.648438 1.132812 Z M 16.648438 1.132812 "/></g></g></g><g fill="#a41423" fill-opacity="1"><g transform="translate(49.635707, 117.266831)"><g><path d="M 0 -4.570312 C 0 -2.941406 0.136719 -2.171875 1.808594 -2.171875 C 3.121094 -2.171875 4.523438 -6.425781 5.382812 -7.011719 C 5.382812 -5.066406 6.832031 -2.714844 9.09375 -2.714844 C 9.863281 -2.714844 10.722656 -2.984375 11.628906 -3.621094 L 12.984375 -4.707031 C 15.292969 -6.921875 15.019531 -8.054688 14.339844 -8.054688 C 14.070312 -8.054688 13.753906 -7.917969 13.527344 -7.601562 C 12.894531 -6.921875 12.757812 -6.515625 11.898438 -5.746094 C 10.902344 -4.75 9.953125 -4.207031 9.09375 -4.207031 C 8.144531 -4.207031 7.328125 -4.929688 6.96875 -6.558594 C 6.558594 -8.277344 7.328125 -10.316406 5.746094 -10.316406 C 5.15625 -10.316406 3.300781 -6.46875 2.398438 -5.066406 L 2.035156 -4.523438 C 1.808594 -4.253906 1.945312 -4.433594 1.808594 -4.296875 C 1.808594 -5.789062 2.441406 -7.511719 3.03125 -8.460938 C 4.34375 -10.722656 5.246094 -11.355469 5.925781 -11.355469 C 6.785156 -11.355469 7.328125 -10.316406 7.960938 -10.316406 C 9.140625 -10.316406 7.960938 -12.894531 5.835938 -12.894531 C 2.667969 -12.894531 0 -7.148438 0 -4.570312 Z M 0 -4.570312 "/></g></g></g><g fill="#a41423" fill-opacity="1"><g transform="translate(62.752591, 117.266831)"><g><path d="M 0.632812 -0.179688 C 2.035156 -0.179688 1.492188 -1.71875 1.765625 -2.894531 C 1.945312 -3.980469 2.351562 -4.886719 2.804688 -5.65625 C 3.527344 -6.832031 3.753906 -6.832031 5.472656 -6.832031 C 5.972656 -6.832031 6.652344 -6.785156 7.238281 -6.785156 C 8.144531 -6.785156 8.867188 -6.875 8.867188 -7.511719 C 8.867188 -8.097656 7.464844 -8.1875 6.152344 -8.1875 C 5.382812 -8.1875 4.613281 -8.144531 4.207031 -8.144531 C 2.804688 -8.144531 2.535156 -7.285156 1.855469 -6.832031 C 1.855469 -7.417969 1.945312 -7.375 1.945312 -8.007812 C 1.945312 -8.460938 1.945312 -9.003906 1.992188 -9.457031 C 2.125 -10.722656 2.351562 -11.582031 1.132812 -11.582031 C 0.136719 -11.582031 0.046875 -6.875 0.046875 -6.0625 C 0.0898438 -4.929688 0.046875 -3.800781 0.0898438 -2.714844 C 0.0898438 -2.398438 -0.269531 -0.179688 0.632812 -0.179688 Z M 0.632812 -0.179688 "/></g></g></g><g fill="#a41423" fill-opacity="1"><g transform="translate(70.12518, 117.266831)"><g><path d="M 3.753906 0.179688 C 5.882812 0.179688 7.601562 -1.808594 8.6875 -2.941406 C 9.410156 -3.664062 12.125 -6.695312 12.125 -7.554688 C 12.125 -7.960938 11.988281 -8.097656 11.808594 -8.097656 C 10.949219 -8.097656 8.550781 -4.886719 8.371094 -4.660156 C 7.691406 -3.800781 5.339844 -1.402344 3.890625 -1.402344 C 2.667969 -1.402344 2.171875 -4.070312 2.171875 -5.429688 C 2.171875 -10.042969 3.980469 -12.078125 1.898438 -12.078125 C 0.996094 -12.078125 0.542969 -10.042969 0.40625 -9.09375 C -0.0898438 -6.785156 0 -3.664062 1.085938 -1.628906 C 1.582031 -0.769531 2.535156 0.179688 3.753906 0.179688 Z M 2.308594 -17.78125 C 2.308594 -16.785156 2.894531 -16.332031 3.527344 -16.332031 C 4.433594 -16.332031 5.382812 -17.328125 4.523438 -19 C 4.253906 -19.5 3.9375 -19.679688 3.621094 -19.679688 C 2.941406 -19.679688 2.308594 -18.820312 2.308594 -17.78125 Z M 2.308594 -17.78125 "/></g></g></g><g fill="#a41423" fill-opacity="1"><g transform="translate(80.437772, 117.266831)"><g><path d="M 0 -4.570312 C 0 -2.941406 0.136719 -2.171875 1.808594 -2.171875 C 3.121094 -2.171875 4.523438 -6.425781 5.382812 -7.011719 C 5.382812 -5.066406 6.832031 -2.714844 9.09375 -2.714844 C 9.863281 -2.714844 10.722656 -2.984375 11.628906 -3.621094 L 12.984375 -4.707031 C 15.292969 -6.921875 15.019531 -8.054688 14.339844 -8.054688 C 14.070312 -8.054688 13.753906 -7.917969 13.527344 -7.601562 C 12.894531 -6.921875 12.757812 -6.515625 11.898438 -5.746094 C 10.902344 -4.75 9.953125 -4.207031 9.09375 -4.207031 C 8.144531 -4.207031 7.328125 -4.929688 6.96875 -6.558594 C 6.558594 -8.277344 7.328125 -10.316406 5.746094 -10.316406 C 5.15625 -10.316406 3.300781 -6.46875 2.398438 -5.066406 L 2.035156 -4.523438 C 1.808594 -4.253906 1.945312 -4.433594 1.808594 -4.296875 C 1.808594 -5.789062 2.441406 -7.511719 3.03125 -8.460938 C 4.34375 -10.722656 5.246094 -11.355469 5.925781 -11.355469 C 6.785156 -11.355469 7.328125 -10.316406 7.960938 -10.316406 C 9.140625 -10.316406 7.960938 -12.894531 5.835938 -12.894531 C 2.667969 -12.894531 0 -7.148438 0 -4.570312 Z M 0 -4.570312 "/></g></g></g><g fill="#a41423" fill-opacity="1"><g transform="translate(93.554656, 117.266831)"><g><path d="M 1.265625 -2.351562 C 3.03125 -2.351562 4.839844 -8.144531 6.332031 -9.140625 C 6.742188 -8.277344 6.109375 -6.46875 7.011719 -3.753906 C 7.417969 -2.535156 8.1875 -1.3125 9.589844 -1.3125 C 9.863281 -1.3125 10.132812 -1.355469 10.449219 -1.449219 C 11.492188 -1.71875 12.9375 -3.527344 13.574219 -4.34375 C 13.84375 -4.707031 16.511719 -8.054688 14.75 -8.054688 C 13.933594 -8.054688 11.535156 -2.667969 9.726562 -2.667969 C 8.054688 -2.667969 7.960938 -6.695312 7.960938 -7.828125 L 7.691406 -10.359375 C 7.464844 -10.859375 7.148438 -11.085938 6.832031 -11.085938 C 5.746094 -11.085938 4.386719 -8.777344 4.117188 -8.277344 L 1.945312 -4.976562 C 1.945312 -8.503906 4.886719 -12.757812 2.894531 -12.757812 C 1.175781 -12.757812 -1.628906 -2.351562 1.265625 -2.351562 Z M 1.265625 -2.351562 "/></g></g></g><g fill="#a41423" fill-opacity="1"><g transform="translate(107.123852, 117.266831)"><g><path d="M 0 -4.570312 C 0 -2.941406 0.136719 -2.171875 1.808594 -2.171875 C 3.121094 -2.171875 4.523438 -6.425781 5.382812 -7.011719 C 5.382812 -5.066406 6.832031 -2.714844 9.09375 -2.714844 C 9.863281 -2.714844 10.722656 -2.984375 11.628906 -3.621094 L 12.984375 -4.707031 C 15.292969 -6.921875 15.019531 -8.054688 14.339844 -8.054688 C 14.070312 -8.054688 13.753906 -7.917969 13.527344 -7.601562 C 12.894531 -6.921875 12.757812 -6.515625 11.898438 -5.746094 C 10.902344 -4.75 9.953125 -4.207031 9.09375 -4.207031 C 8.144531 -4.207031 7.328125 -4.929688 6.96875 -6.558594 C 6.558594 -8.277344 7.328125 -10.316406 5.746094 -10.316406 C 5.15625 -10.316406 3.300781 -6.46875 2.398438 -5.066406 L 2.035156 -4.523438 C 1.808594 -4.253906 1.945312 -4.433594 1.808594 -4.296875 C 1.808594 -5.789062 2.441406 -7.511719 3.03125 -8.460938 C 4.34375 -10.722656 5.246094 -11.355469 5.925781 -11.355469 C 6.785156 -11.355469 7.328125 -10.316406 7.960938 -10.316406 C 9.140625 -10.316406 7.960938 -12.894531 5.835938 -12.894531 C 2.667969 -12.894531 0 -7.148438 0 -4.570312 Z M 0 -4.570312 "/></g></g></g><g fill="#a41423" fill-opacity="1"><g transform="translate(120.240735, 117.266831)"><g/></g></g><g fill="#a41423" fill-opacity="1"><g transform="translate(131.955467, 117.266831)"><g><path d="M 0 4.75 C 0 7.464844 0.269531 17.371094 4.296875 17.371094 C 6.832031 17.371094 9.140625 12.847656 10.132812 10.902344 L 16.46875 -0.679688 C 17.011719 -1.71875 19.90625 -6.695312 19.90625 -7.417969 C 19.90625 -7.78125 19.636719 -8.054688 19.273438 -8.054688 C 18.503906 -8.054688 16.152344 -3.257812 15.699219 -2.398438 C 15.472656 -1.945312 15.335938 -1.765625 15.109375 -1.402344 L 7.871094 11.71875 C 6.605469 14.070312 5.472656 15.652344 4.523438 15.652344 C 3.800781 15.652344 3.167969 14.613281 2.667969 12.261719 C 1.765625 7.828125 2.308594 6.558594 2.308594 3.394531 C 2.308594 0.859375 2.894531 -3.078125 3.257812 -5.566406 C 4.523438 -15.382812 7.148438 -25.152344 10.449219 -34.472656 C 10.992188 -35.875 10.449219 -36.511719 9.816406 -36.511719 C 9.410156 -36.511719 9.003906 -36.285156 8.730469 -35.921875 C 7.195312 -33.75 3.753906 -20.765625 3.03125 -17.644531 C 1.492188 -11.128906 0 -2.261719 0 4.75 Z M 0 4.75 "/></g></g></g><g fill="#a41423" fill-opacity="1"><g transform="translate(149.685877, 117.266831)"><g><path d="M 2.082031 -8.1875 C 2.398438 -9.320312 3.890625 -11.085938 5.113281 -11.308594 C 4.976562 -9.863281 3.210938 -8.777344 2.082031 -8.1875 Z M 0.046875 -7.101562 C 0.046875 -5.835938 0 -4.707031 1.085938 -3.621094 C 1.855469 -2.851562 2.757812 -2.535156 3.710938 -2.535156 C 6.46875 -2.535156 9.589844 -5.292969 11.265625 -6.96875 C 11.671875 -7.464844 11.671875 -7.511719 11.535156 -8.1875 C 10.179688 -8.1875 10.902344 -8.007812 9.046875 -6.558594 C 8.730469 -6.332031 8.597656 -6.152344 8.234375 -5.882812 C 7.328125 -5.203125 5.429688 -3.890625 3.84375 -3.890625 C 3.300781 -3.890625 2.757812 -4.070312 2.351562 -4.480469 C 1.582031 -5.246094 1.675781 -5.972656 1.675781 -6.921875 C 3.078125 -7.011719 4.707031 -8.324219 5.429688 -9.140625 C 6.832031 -10.902344 6.832031 -12.710938 4.839844 -12.710938 C 2.667969 -12.710938 0.046875 -9.363281 0.046875 -7.101562 Z M 0.046875 -7.101562 "/></g></g></g><g fill="#a41423" fill-opacity="1"><g transform="translate(159.500929, 117.266831)"><g><path d="M 0.632812 -0.179688 C 2.035156 -0.179688 1.492188 -1.71875 1.765625 -2.894531 C 1.945312 -3.980469 2.351562 -4.886719 2.804688 -5.65625 C 3.527344 -6.832031 3.753906 -6.832031 5.472656 -6.832031 C 5.972656 -6.832031 6.652344 -6.785156 7.238281 -6.785156 C 8.144531 -6.785156 8.867188 -6.875 8.867188 -7.511719 C 8.867188 -8.097656 7.464844 -8.1875 6.152344 -8.1875 C 5.382812 -8.1875 4.613281 -8.144531 4.207031 -8.144531 C 2.804688 -8.144531 2.535156 -7.285156 1.855469 -6.832031 C 1.855469 -7.417969 1.945312 -7.375 1.945312 -8.007812 C 1.945312 -8.460938 1.945312 -9.003906 1.992188 -9.457031 C 2.125 -10.722656 2.351562 -11.582031 1.132812 -11.582031 C 0.136719 -11.582031 0.046875 -6.875 0.046875 -6.0625 C 0.0898438 -4.929688 0.046875 -3.800781 0.0898438 -2.714844 C 0.0898438 -2.398438 -0.269531 -0.179688 0.632812 -0.179688 Z M 0.632812 -0.179688 "/></g></g></g><g fill="#a41423" fill-opacity="1"><g transform="translate(166.873518, 117.266831)"><g><path d="M 2.398438 -3.664062 L 2.488281 -3.664062 C 4.480469 -3.800781 6.199219 -10.222656 8.234375 -11.582031 C 8.234375 -10.222656 8.640625 -8.597656 10.042969 -8.597656 C 11.265625 -8.597656 12.894531 -10.949219 13.796875 -11.582031 C 13.796875 -8.957031 12.53125 -4.660156 13.84375 -1.355469 C 14.339844 -0.046875 15.15625 0.453125 16.015625 0.453125 C 17.507812 0.453125 19.226562 -0.996094 20.402344 -2.714844 C 20.71875 -3.167969 20.902344 -3.394531 21.171875 -3.753906 C 21.445312 -4.207031 21.582031 -4.480469 21.851562 -4.886719 C 22.167969 -5.382812 23.164062 -6.832031 23.164062 -7.375 C 23.164062 -7.691406 22.890625 -7.960938 22.710938 -7.960938 C 21.714844 -7.960938 21.488281 -7.101562 21.082031 -6.46875 C 19.90625 -4.523438 17.78125 -1.222656 16.46875 -1.222656 C 15.699219 -1.222656 15.199219 -2.21875 15.199219 -4.976562 C 15.199219 -7.511719 16.015625 -12.351562 15.199219 -13.300781 C 14.976562 -13.574219 14.703125 -13.664062 14.433594 -13.664062 C 14.160156 -13.664062 13.890625 -13.574219 13.617188 -13.4375 C 13.121094 -13.164062 12.847656 -12.804688 12.441406 -12.351562 C 11.628906 -11.628906 10.585938 -10.316406 9.90625 -10.222656 C 9.90625 -11.671875 9.589844 -13.4375 8.234375 -13.4375 C 7.148438 -13.4375 5.835938 -11.128906 5.339844 -10.269531 L 3.210938 -6.695312 C 3.121094 -6.605469 3.078125 -6.558594 2.984375 -6.46875 C 2.984375 -11.039062 5.15625 -13.074219 2.851562 -13.074219 C 1.222656 -13.074219 -0.769531 -3.664062 2.398438 -3.664062 Z M 2.398438 -3.664062 "/></g></g></g><g fill="#a41423" fill-opacity="1"><g transform="translate(187.99623, 117.266831)"><g><path d="M 0 -4.570312 C 0 -2.941406 0.136719 -2.171875 1.808594 -2.171875 C 3.121094 -2.171875 4.523438 -6.425781 5.382812 -7.011719 C 5.382812 -5.066406 6.832031 -2.714844 9.09375 -2.714844 C 9.863281 -2.714844 10.722656 -2.984375 11.628906 -3.621094 L 12.984375 -4.707031 C 15.292969 -6.921875 15.019531 -8.054688 14.339844 -8.054688 C 14.070312 -8.054688 13.753906 -7.917969 13.527344 -7.601562 C 12.894531 -6.921875 12.757812 -6.515625 11.898438 -5.746094 C 10.902344 -4.75 9.953125 -4.207031 9.09375 -4.207031 C 8.144531 -4.207031 7.328125 -4.929688 6.96875 -6.558594 C 6.558594 -8.277344 7.328125 -10.316406 5.746094 -10.316406 C 5.15625 -10.316406 3.300781 -6.46875 2.398438 -5.066406 L 2.035156 -4.523438 C 1.808594 -4.253906 1.945312 -4.433594 1.808594 -4.296875 C 1.808594 -5.789062 2.441406 -7.511719 3.03125 -8.460938 C 4.34375 -10.722656 5.246094 -11.355469 5.925781 -11.355469 C 6.785156 -11.355469 7.328125 -10.316406 7.960938 -10.316406 C 9.140625 -10.316406 7.960938 -12.894531 5.835938 -12.894531 C 2.667969 -12.894531 0 -7.148438 0 -4.570312 Z M 0 -4.570312 "/></g></g></g><g fill="#bdaa8c" fill-opacity="1"><g transform="translate(62.49108, 171.016246)"><g><path d="M 0.515625 -0.078125 C 0.648438 -0.078125 0.765625 -0.113281 0.859375 -0.1875 C 0.960938 -0.269531 1.015625 -0.367188 1.015625 -0.484375 L 1.015625 -4.03125 C 1.015625 -4.132812 0.960938 -4.226562 0.859375 -4.3125 C 0.765625 -4.394531 0.648438 -4.4375 0.515625 -4.4375 L 0.40625 -4.4375 L 0.40625 -4.515625 L 2.109375 -4.515625 L 2.109375 -4.4375 L 2.015625 -4.4375 C 1.878906 -4.4375 1.757812 -4.394531 1.65625 -4.3125 C 1.5625 -4.238281 1.507812 -4.148438 1.5 -4.046875 L 1.5 -0.46875 C 1.507812 -0.363281 1.5625 -0.269531 1.65625 -0.1875 C 1.757812 -0.113281 1.878906 -0.078125 2.015625 -0.078125 L 2.109375 -0.078125 L 2.125 0 L 0.40625 0 L 0.40625 -0.078125 Z M 0.515625 -0.078125 "/></g></g></g><g fill="#bdaa8c" fill-opacity="1"><g transform="translate(65.420258, 171.016246)"><g><path d="M 5.46875 -4.4375 C 5.351562 -4.4375 5.253906 -4.398438 5.171875 -4.328125 C 5.097656 -4.253906 5.054688 -4.164062 5.046875 -4.0625 L 5.046875 -0.859375 C 5.046875 -0.566406 5.066406 -0.289062 5.109375 -0.03125 L 5.125 0.109375 L 5.046875 0.109375 L 1.140625 -3.59375 L 1.140625 -0.46875 C 1.140625 -0.351562 1.179688 -0.257812 1.265625 -0.1875 C 1.347656 -0.113281 1.445312 -0.078125 1.5625 -0.078125 L 1.6875 -0.078125 L 1.6875 0 L 0.265625 0 L 0.265625 -0.078125 L 0.390625 -0.078125 C 0.503906 -0.078125 0.597656 -0.113281 0.671875 -0.1875 C 0.753906 -0.257812 0.796875 -0.351562 0.796875 -0.46875 L 0.796875 -3.6875 C 0.796875 -3.988281 0.78125 -4.257812 0.75 -4.5 L 0.734375 -4.625 L 0.8125 -4.609375 L 4.71875 -0.9375 L 4.71875 -4.0625 C 4.707031 -4.164062 4.660156 -4.253906 4.578125 -4.328125 C 4.503906 -4.398438 4.410156 -4.4375 4.296875 -4.4375 L 4.171875 -4.4375 L 4.171875 -4.515625 L 5.59375 -4.515625 L 5.59375 -4.4375 Z M 5.46875 -4.4375 "/></g></g></g><g fill="#bdaa8c" fill-opacity="1"><g transform="translate(71.676686, 171.016246)"><g><path d="M 5.015625 -4.4375 L 4.953125 -4.4375 C 4.847656 -4.4375 4.742188 -4.398438 4.640625 -4.328125 C 4.535156 -4.253906 4.441406 -4.144531 4.359375 -4 C 3.273438 -1.65625 2.707031 -0.425781 2.65625 -0.3125 C 2.570312 -0.101562 2.53125 0.0351562 2.53125 0.109375 L 2.453125 0.109375 L 0.59375 -3.984375 C 0.457031 -4.285156 0.265625 -4.4375 0.015625 -4.4375 L -0.03125 -4.4375 L -0.03125 -4.515625 L 1.5 -4.515625 L 1.5 -4.4375 L 1.4375 -4.4375 C 1.34375 -4.4375 1.269531 -4.398438 1.21875 -4.328125 C 1.175781 -4.265625 1.15625 -4.203125 1.15625 -4.140625 C 1.15625 -4.085938 1.164062 -4.03125 1.1875 -3.96875 L 2.53125 -0.703125 L 3.90625 -3.953125 C 3.9375 -4.023438 3.953125 -4.085938 3.953125 -4.140625 C 3.953125 -4.203125 3.925781 -4.265625 3.875 -4.328125 C 3.820312 -4.398438 3.742188 -4.4375 3.640625 -4.4375 L 3.59375 -4.4375 L 3.59375 -4.515625 L 5.015625 -4.515625 Z M 5.015625 -4.4375 "/></g></g></g><g fill="#bdaa8c" fill-opacity="1"><g transform="translate(77.061869, 171.016246)"><g><path d="M 0.515625 -0.078125 C 0.648438 -0.078125 0.765625 -0.113281 0.859375 -0.1875 C 0.960938 -0.269531 1.015625 -0.367188 1.015625 -0.484375 L 1.015625 -4.03125 C 1.015625 -4.132812 0.960938 -4.226562 0.859375 -4.3125 C 0.765625 -4.394531 0.648438 -4.4375 0.515625 -4.4375 L 0.40625 -4.4375 L 0.40625 -4.515625 L 2.109375 -4.515625 L 2.109375 -4.4375 L 2.015625 -4.4375 C 1.878906 -4.4375 1.757812 -4.394531 1.65625 -4.3125 C 1.5625 -4.238281 1.507812 -4.148438 1.5 -4.046875 L 1.5 -0.46875 C 1.507812 -0.363281 1.5625 -0.269531 1.65625 -0.1875 C 1.757812 -0.113281 1.878906 -0.078125 2.015625 -0.078125 L 2.109375 -0.078125 L 2.125 0 L 0.40625 0 L 0.40625 -0.078125 Z M 0.515625 -0.078125 "/></g></g></g><g fill="#bdaa8c" fill-opacity="1"><g transform="translate(79.991047, 171.016246)"><g><path d="M 2.421875 -4.296875 L 2.421875 -0.46875 C 2.421875 -0.3125 2.492188 -0.195312 2.640625 -0.125 C 2.710938 -0.09375 2.785156 -0.078125 2.859375 -0.078125 L 2.953125 -0.078125 L 2.953125 0 L 1.390625 0 L 1.390625 -0.078125 L 1.484375 -0.078125 C 1.609375 -0.078125 1.710938 -0.113281 1.796875 -0.1875 C 1.878906 -0.269531 1.925781 -0.367188 1.9375 -0.484375 L 1.9375 -4.296875 L 0.578125 -4.296875 C 0.453125 -4.296875 0.359375 -4.253906 0.296875 -4.171875 C 0.234375 -4.097656 0.203125 -4.007812 0.203125 -3.90625 L 0.203125 -3.78125 L 0.109375 -3.78125 L 0.109375 -4.640625 C 0.210938 -4.597656 0.351562 -4.566406 0.53125 -4.546875 C 0.71875 -4.523438 0.859375 -4.515625 0.953125 -4.515625 L 3.390625 -4.515625 C 3.753906 -4.515625 4.035156 -4.554688 4.234375 -4.640625 L 4.234375 -3.78125 L 4.15625 -3.78125 L 4.15625 -3.90625 C 4.15625 -4.007812 4.117188 -4.097656 4.046875 -4.171875 C 3.984375 -4.253906 3.894531 -4.296875 3.78125 -4.296875 Z M 2.421875 -4.296875 "/></g></g></g><g fill="#bdaa8c" fill-opacity="1"><g transform="translate(84.737819, 171.016246)"><g><path d="M 4.953125 -0.078125 L 5.015625 -0.078125 L 5.015625 0 L 3.484375 0 L 3.484375 -0.078125 L 3.546875 -0.078125 C 3.640625 -0.078125 3.707031 -0.109375 3.75 -0.171875 C 3.800781 -0.234375 3.828125 -0.289062 3.828125 -0.34375 C 3.828125 -0.40625 3.816406 -0.46875 3.796875 -0.53125 L 3.390625 -1.53125 L 1.484375 -1.53125 L 1.078125 -0.546875 C 1.046875 -0.484375 1.03125 -0.421875 1.03125 -0.359375 C 1.03125 -0.304688 1.054688 -0.242188 1.109375 -0.171875 C 1.160156 -0.109375 1.238281 -0.078125 1.34375 -0.078125 L 1.390625 -0.078125 L 1.390625 0 L -0.03125 0 L -0.03125 -0.078125 L 0.015625 -0.078125 C 0.128906 -0.078125 0.238281 -0.113281 0.34375 -0.1875 C 0.445312 -0.257812 0.535156 -0.367188 0.609375 -0.515625 C 1.703125 -2.859375 2.273438 -4.082031 2.328125 -4.1875 C 2.410156 -4.40625 2.453125 -4.546875 2.453125 -4.609375 L 2.53125 -4.609375 L 4.375 -0.515625 C 4.519531 -0.222656 4.710938 -0.078125 4.953125 -0.078125 Z M 1.578125 -1.75 L 3.296875 -1.75 L 2.453125 -3.8125 Z M 1.578125 -1.75 "/></g></g></g><g fill="#bdaa8c" fill-opacity="1"><g transform="translate(90.123001, 171.016246)"><g><path d="M 2.859375 0.109375 C 2.085938 0.0976562 1.476562 -0.113281 1.03125 -0.53125 C 0.59375 -0.957031 0.375 -1.535156 0.375 -2.265625 C 0.375 -2.992188 0.59375 -3.566406 1.03125 -3.984375 C 1.476562 -4.398438 2.085938 -4.609375 2.859375 -4.609375 C 3.171875 -4.609375 3.484375 -4.566406 3.796875 -4.484375 C 4.109375 -4.410156 4.378906 -4.300781 4.609375 -4.15625 L 4.78125 -3.09375 L 4.71875 -3.09375 C 4.5 -3.957031 3.875 -4.390625 2.84375 -4.390625 C 2.25 -4.390625 1.78125 -4.195312 1.4375 -3.8125 C 1.09375 -3.4375 0.921875 -2.914062 0.921875 -2.25 C 0.921875 -1.820312 1 -1.445312 1.15625 -1.125 C 1.3125 -0.8125 1.535156 -0.566406 1.828125 -0.390625 C 2.117188 -0.210938 2.457031 -0.125 2.84375 -0.125 C 3.238281 -0.125 3.582031 -0.179688 3.875 -0.296875 C 4.175781 -0.421875 4.421875 -0.617188 4.609375 -0.890625 C 4.804688 -1.160156 4.914062 -1.492188 4.9375 -1.890625 L 5 -1.890625 L 4.921875 -0.859375 C 4.722656 -0.554688 4.4375 -0.316406 4.0625 -0.140625 C 3.695312 0.0234375 3.296875 0.109375 2.859375 0.109375 Z M 2.859375 0.109375 "/></g></g></g><g fill="#bdaa8c" fill-opacity="1"><g transform="translate(95.82363, 171.016246)"><g><path d="M 0.515625 -0.078125 C 0.648438 -0.078125 0.765625 -0.113281 0.859375 -0.1875 C 0.960938 -0.269531 1.015625 -0.367188 1.015625 -0.484375 L 1.015625 -4.03125 C 1.015625 -4.132812 0.960938 -4.226562 0.859375 -4.3125 C 0.765625 -4.394531 0.648438 -4.4375 0.515625 -4.4375 L 0.40625 -4.4375 L 0.40625 -4.515625 L 2.109375 -4.515625 L 2.109375 -4.4375 L 2.015625 -4.4375 C 1.878906 -4.4375 1.757812 -4.394531 1.65625 -4.3125 C 1.5625 -4.238281 1.507812 -4.148438 1.5 -4.046875 L 1.5 -0.46875 C 1.507812 -0.363281 1.5625 -0.269531 1.65625 -0.1875 C 1.757812 -0.113281 1.878906 -0.078125 2.015625 -0.078125 L 2.109375 -0.078125 L 2.125 0 L 0.40625 0 L 0.40625 -0.078125 Z M 0.515625 -0.078125 "/></g></g></g><g fill="#bdaa8c" fill-opacity="1"><g transform="translate(98.752807, 171.016246)"><g><path d="M 1.640625 -4.3125 C 2.023438 -4.507812 2.445312 -4.609375 2.90625 -4.609375 C 3.375 -4.609375 3.800781 -4.507812 4.1875 -4.3125 C 4.570312 -4.113281 4.878906 -3.832031 5.109375 -3.46875 C 5.335938 -3.113281 5.453125 -2.707031 5.453125 -2.25 C 5.453125 -1.800781 5.335938 -1.394531 5.109375 -1.03125 C 4.878906 -0.664062 4.570312 -0.382812 4.1875 -0.1875 C 3.800781 0.0078125 3.40625 0.109375 3 0.109375 C 2.59375 0.109375 2.234375 0.0507812 1.921875 -0.0625 C 1.609375 -0.175781 1.335938 -0.335938 1.109375 -0.546875 C 0.890625 -0.753906 0.710938 -1.003906 0.578125 -1.296875 C 0.441406 -1.597656 0.375 -1.945312 0.375 -2.34375 C 0.375 -2.738281 0.488281 -3.113281 0.71875 -3.46875 C 0.945312 -3.832031 1.253906 -4.113281 1.640625 -4.3125 Z M 1.5 -0.71875 C 1.875 -0.320312 2.34375 -0.125 2.90625 -0.125 C 3.46875 -0.125 3.9375 -0.320312 4.3125 -0.71875 C 4.695312 -1.113281 4.890625 -1.625 4.890625 -2.25 C 4.890625 -2.875 4.695312 -3.382812 4.3125 -3.78125 C 3.9375 -4.1875 3.46875 -4.390625 2.90625 -4.390625 C 2.34375 -4.390625 1.875 -4.1875 1.5 -3.78125 C 1.125 -3.382812 0.9375 -2.875 0.9375 -2.25 C 0.9375 -1.625 1.125 -1.113281 1.5 -0.71875 Z M 1.5 -0.71875 "/></g></g></g><g fill="#bdaa8c" fill-opacity="1"><g transform="translate(104.971684, 171.016246)"><g><path d="M 5.46875 -4.4375 C 5.351562 -4.4375 5.253906 -4.398438 5.171875 -4.328125 C 5.097656 -4.253906 5.054688 -4.164062 5.046875 -4.0625 L 5.046875 -0.859375 C 5.046875 -0.566406 5.066406 -0.289062 5.109375 -0.03125 L 5.125 0.109375 L 5.046875 0.109375 L 1.140625 -3.59375 L 1.140625 -0.46875 C 1.140625 -0.351562 1.179688 -0.257812 1.265625 -0.1875 C 1.347656 -0.113281 1.445312 -0.078125 1.5625 -0.078125 L 1.6875 -0.078125 L 1.6875 0 L 0.265625 0 L 0.265625 -0.078125 L 0.390625 -0.078125 C 0.503906 -0.078125 0.597656 -0.113281 0.671875 -0.1875 C 0.753906 -0.257812 0.796875 -0.351562 0.796875 -0.46875 L 0.796875 -3.6875 C 0.796875 -3.988281 0.78125 -4.257812 0.75 -4.5 L 0.734375 -4.625 L 0.8125 -4.609375 L 4.71875 -0.9375 L 4.71875 -4.0625 C 4.707031 -4.164062 4.660156 -4.253906 4.578125 -4.328125 C 4.503906 -4.398438 4.410156 -4.4375 4.296875 -4.4375 L 4.171875 -4.4375 L 4.171875 -4.515625 L 5.59375 -4.515625 L 5.59375 -4.4375 Z M 5.46875 -4.4375 "/></g></g></g><g fill="#bdaa8c" fill-opacity="1"><g transform="translate(111.228114, 171.016246)"><g><path d="M 0.515625 -0.078125 C 0.640625 -0.078125 0.742188 -0.113281 0.828125 -0.1875 C 0.910156 -0.269531 0.953125 -0.363281 0.953125 -0.46875 L 0.953125 -4.046875 C 0.953125 -4.148438 0.910156 -4.238281 0.828125 -4.3125 C 0.742188 -4.394531 0.640625 -4.4375 0.515625 -4.4375 L 0.40625 -4.4375 L 0.40625 -4.515625 L 2.609375 -4.515625 C 2.816406 -4.515625 2.992188 -4.523438 3.140625 -4.546875 C 3.296875 -4.578125 3.398438 -4.601562 3.453125 -4.625 L 3.453125 -3.765625 L 3.359375 -3.78125 L 3.359375 -3.890625 C 3.359375 -3.992188 3.320312 -4.082031 3.25 -4.15625 C 3.1875 -4.238281 3.097656 -4.28125 2.984375 -4.28125 L 1.421875 -4.28125 L 1.421875 -2.375 L 2.71875 -2.375 C 2.8125 -2.375 2.882812 -2.398438 2.9375 -2.453125 C 2.988281 -2.515625 3.015625 -2.59375 3.015625 -2.6875 L 3.015625 -2.78125 L 3.109375 -2.78125 L 3.109375 -1.734375 L 3.015625 -1.734375 L 3.015625 -1.828125 C 3.015625 -1.960938 2.960938 -2.054688 2.859375 -2.109375 C 2.816406 -2.128906 2.773438 -2.140625 2.734375 -2.140625 L 1.421875 -2.140625 L 1.421875 -0.234375 L 2.609375 -0.234375 C 2.835938 -0.234375 3.03125 -0.269531 3.1875 -0.34375 C 3.34375 -0.425781 3.460938 -0.519531 3.546875 -0.625 C 3.628906 -0.738281 3.710938 -0.890625 3.796875 -1.078125 L 3.875 -1.078125 L 3.46875 0 L 0.40625 0 L 0.40625 -0.078125 Z M 0.515625 -0.078125 "/></g></g></g><g fill="#bdaa8c" fill-opacity="1"><g transform="translate(115.734546, 171.016246)"><g><path d="M 0.4375 -0.25 C 0.414062 -0.3125 0.40625 -0.429688 0.40625 -0.609375 C 0.40625 -0.796875 0.441406 -0.988281 0.515625 -1.1875 L 0.59375 -1.1875 C 0.59375 -1.132812 0.59375 -1.085938 0.59375 -1.046875 C 0.59375 -0.773438 0.679688 -0.550781 0.859375 -0.375 C 1.035156 -0.207031 1.28125 -0.125 1.59375 -0.125 C 1.925781 -0.125 2.1875 -0.195312 2.375 -0.34375 C 2.5625 -0.5 2.65625 -0.695312 2.65625 -0.9375 C 2.65625 -1.1875 2.5625 -1.390625 2.375 -1.546875 L 0.875 -2.703125 C 0.632812 -2.910156 0.515625 -3.1875 0.515625 -3.53125 C 0.515625 -3.726562 0.566406 -3.910156 0.671875 -4.078125 C 0.785156 -4.242188 0.9375 -4.375 1.125 -4.46875 C 1.320312 -4.5625 1.550781 -4.609375 1.8125 -4.609375 C 2.070312 -4.609375 2.300781 -4.585938 2.5 -4.546875 L 2.75 -4.546875 L 2.765625 -3.734375 L 2.6875 -3.734375 C 2.6875 -3.941406 2.613281 -4.101562 2.46875 -4.21875 C 2.320312 -4.332031 2.113281 -4.390625 1.84375 -4.390625 C 1.570312 -4.390625 1.347656 -4.316406 1.171875 -4.171875 C 0.992188 -4.035156 0.90625 -3.859375 0.90625 -3.640625 C 0.90625 -3.429688 1.003906 -3.242188 1.203125 -3.078125 L 2.71875 -1.90625 C 2.945312 -1.71875 3.0625 -1.453125 3.0625 -1.109375 C 3.0625 -0.765625 2.929688 -0.472656 2.671875 -0.234375 C 2.421875 -0.00390625 2.109375 0.109375 1.734375 0.109375 C 1.492188 0.109375 1.25 0.078125 1 0.015625 C 0.75 -0.046875 0.5625 -0.132812 0.4375 -0.25 Z M 0.4375 -0.25 "/></g></g></g><g fill="#bdaa8c" fill-opacity="1"><g transform="translate(119.610075, 171.016246)"><g/></g></g><g fill="#bdaa8c" fill-opacity="1"><g transform="translate(121.893329, 171.016246)"><g><path d="M 5.34375 -2.25 C 5.34375 -1.550781 5.125 -1 4.6875 -0.59375 C 4.25 -0.195312 3.660156 0 2.921875 0 L 0.40625 0 L 0.40625 -0.078125 L 0.515625 -0.078125 C 0.628906 -0.078125 0.726562 -0.113281 0.8125 -0.1875 C 0.894531 -0.269531 0.9375 -0.367188 0.9375 -0.484375 L 0.9375 -4.03125 C 0.9375 -4.144531 0.894531 -4.238281 0.8125 -4.3125 C 0.726562 -4.394531 0.625 -4.4375 0.5 -4.4375 L 0.40625 -4.4375 L 0.40625 -4.515625 L 2.921875 -4.515625 C 3.410156 -4.515625 3.835938 -4.421875 4.203125 -4.234375 C 4.566406 -4.054688 4.847656 -3.796875 5.046875 -3.453125 C 5.242188 -3.117188 5.34375 -2.71875 5.34375 -2.25 Z M 1.421875 -4.28125 L 1.421875 -0.21875 L 2.921875 -0.21875 C 3.492188 -0.21875 3.945312 -0.398438 4.28125 -0.765625 C 4.625 -1.128906 4.796875 -1.625 4.796875 -2.25 C 4.796875 -2.875 4.625 -3.367188 4.28125 -3.734375 C 3.945312 -4.097656 3.492188 -4.28125 2.921875 -4.28125 Z M 1.421875 -4.28125 "/></g></g></g><g fill="#bdaa8c" fill-opacity="1"><g transform="translate(128.007059, 171.016246)"><g><path d="M 0.515625 -0.078125 C 0.648438 -0.078125 0.765625 -0.113281 0.859375 -0.1875 C 0.960938 -0.269531 1.015625 -0.367188 1.015625 -0.484375 L 1.015625 -4.03125 C 1.015625 -4.132812 0.960938 -4.226562 0.859375 -4.3125 C 0.765625 -4.394531 0.648438 -4.4375 0.515625 -4.4375 L 0.40625 -4.4375 L 0.40625 -4.515625 L 2.109375 -4.515625 L 2.109375 -4.4375 L 2.015625 -4.4375 C 1.878906 -4.4375 1.757812 -4.394531 1.65625 -4.3125 C 1.5625 -4.238281 1.507812 -4.148438 1.5 -4.046875 L 1.5 -0.46875 C 1.507812 -0.363281 1.5625 -0.269531 1.65625 -0.1875 C 1.757812 -0.113281 1.878906 -0.078125 2.015625 -0.078125 L 2.109375 -0.078125 L 2.125 0 L 0.40625 0 L 0.40625 -0.078125 Z M 0.515625 -0.078125 "/></g></g></g><g fill="#bdaa8c" fill-opacity="1"><g transform="translate(130.936239, 171.016246)"><g><path d="M 2.84375 0.109375 C 2.09375 0.0976562 1.492188 -0.113281 1.046875 -0.53125 C 0.597656 -0.957031 0.375 -1.53125 0.375 -2.25 C 0.375 -2.976562 0.597656 -3.550781 1.046875 -3.96875 C 1.492188 -4.394531 2.070312 -4.609375 2.78125 -4.609375 C 3.488281 -4.609375 4.09375 -4.457031 4.59375 -4.15625 L 4.75 -3.09375 L 4.6875 -3.09375 C 4.582031 -3.539062 4.378906 -3.867188 4.078125 -4.078125 C 3.773438 -4.285156 3.347656 -4.390625 2.796875 -4.390625 C 2.242188 -4.390625 1.789062 -4.195312 1.4375 -3.8125 C 1.09375 -3.425781 0.921875 -2.90625 0.921875 -2.25 C 0.921875 -1.59375 1.09375 -1.070312 1.4375 -0.6875 C 1.789062 -0.3125 2.273438 -0.125 2.890625 -0.125 C 3.515625 -0.125 4.050781 -0.34375 4.5 -0.78125 L 4.5 -1.78125 C 4.507812 -1.863281 4.484375 -1.929688 4.421875 -1.984375 C 4.359375 -2.035156 4.269531 -2.0625 4.15625 -2.0625 L 4.046875 -2.0625 L 4.046875 -2.140625 L 5.421875 -2.140625 L 5.421875 -2.0625 L 5.328125 -2.0625 C 5.097656 -2.0625 4.984375 -1.960938 4.984375 -1.765625 L 4.984375 -0.859375 C 4.773438 -0.597656 4.484375 -0.367188 4.109375 -0.171875 C 3.742188 0.015625 3.320312 0.109375 2.84375 0.109375 Z M 2.84375 0.109375 "/></g></g></g><g fill="#bdaa8c" fill-opacity="1"><g transform="translate(136.914774, 171.016246)"><g><path d="M 0.515625 -0.078125 C 0.648438 -0.078125 0.765625 -0.113281 0.859375 -0.1875 C 0.960938 -0.269531 1.015625 -0.367188 1.015625 -0.484375 L 1.015625 -4.03125 C 1.015625 -4.132812 0.960938 -4.226562 0.859375 -4.3125 C 0.765625 -4.394531 0.648438 -4.4375 0.515625 -4.4375 L 0.40625 -4.4375 L 0.40625 -4.515625 L 2.109375 -4.515625 L 2.109375 -4.4375 L 2.015625 -4.4375 C 1.878906 -4.4375 1.757812 -4.394531 1.65625 -4.3125 C 1.5625 -4.238281 1.507812 -4.148438 1.5 -4.046875 L 1.5 -0.46875 C 1.507812 -0.363281 1.5625 -0.269531 1.65625 -0.1875 C 1.757812 -0.113281 1.878906 -0.078125 2.015625 -0.078125 L 2.109375 -0.078125 L 2.125 0 L 0.40625 0 L 0.40625 -0.078125 Z M 0.515625 -0.078125 "/></g></g></g><g fill="#bdaa8c" fill-opacity="1"><g transform="translate(139.843954, 171.016246)"><g><path d="M 2.421875 -4.296875 L 2.421875 -0.46875 C 2.421875 -0.3125 2.492188 -0.195312 2.640625 -0.125 C 2.710938 -0.09375 2.785156 -0.078125 2.859375 -0.078125 L 2.953125 -0.078125 L 2.953125 0 L 1.390625 0 L 1.390625 -0.078125 L 1.484375 -0.078125 C 1.609375 -0.078125 1.710938 -0.113281 1.796875 -0.1875 C 1.878906 -0.269531 1.925781 -0.367188 1.9375 -0.484375 L 1.9375 -4.296875 L 0.578125 -4.296875 C 0.453125 -4.296875 0.359375 -4.253906 0.296875 -4.171875 C 0.234375 -4.097656 0.203125 -4.007812 0.203125 -3.90625 L 0.203125 -3.78125 L 0.109375 -3.78125 L 0.109375 -4.640625 C 0.210938 -4.597656 0.351562 -4.566406 0.53125 -4.546875 C 0.71875 -4.523438 0.859375 -4.515625 0.953125 -4.515625 L 3.390625 -4.515625 C 3.753906 -4.515625 4.035156 -4.554688 4.234375 -4.640625 L 4.234375 -3.78125 L 4.15625 -3.78125 L 4.15625 -3.90625 C 4.15625 -4.007812 4.117188 -4.097656 4.046875 -4.171875 C 3.984375 -4.253906 3.894531 -4.296875 3.78125 -4.296875 Z M 2.421875 -4.296875 "/></g></g></g><g fill="#bdaa8c" fill-opacity="1"><g transform="translate(144.590729, 171.016246)"><g><path d="M 4.953125 -0.078125 L 5.015625 -0.078125 L 5.015625 0 L 3.484375 0 L 3.484375 -0.078125 L 3.546875 -0.078125 C 3.640625 -0.078125 3.707031 -0.109375 3.75 -0.171875 C 3.800781 -0.234375 3.828125 -0.289062 3.828125 -0.34375 C 3.828125 -0.40625 3.816406 -0.46875 3.796875 -0.53125 L 3.390625 -1.53125 L 1.484375 -1.53125 L 1.078125 -0.546875 C 1.046875 -0.484375 1.03125 -0.421875 1.03125 -0.359375 C 1.03125 -0.304688 1.054688 -0.242188 1.109375 -0.171875 C 1.160156 -0.109375 1.238281 -0.078125 1.34375 -0.078125 L 1.390625 -0.078125 L 1.390625 0 L -0.03125 0 L -0.03125 -0.078125 L 0.015625 -0.078125 C 0.128906 -0.078125 0.238281 -0.113281 0.34375 -0.1875 C 0.445312 -0.257812 0.535156 -0.367188 0.609375 -0.515625 C 1.703125 -2.859375 2.273438 -4.082031 2.328125 -4.1875 C 2.410156 -4.40625 2.453125 -4.546875 2.453125 -4.609375 L 2.53125 -4.609375 L 4.375 -0.515625 C 4.519531 -0.222656 4.710938 -0.078125 4.953125 -0.078125 Z M 1.578125 -1.75 L 3.296875 -1.75 L 2.453125 -3.8125 Z M 1.578125 -1.75 "/></g></g></g><g fill="#bdaa8c" fill-opacity="1"><g transform="translate(149.975909, 171.016246)"><g><path d="M 0.515625 -0.078125 C 0.640625 -0.078125 0.742188 -0.113281 0.828125 -0.1875 C 0.910156 -0.269531 0.953125 -0.363281 0.953125 -0.46875 L 0.953125 -4.03125 C 0.953125 -4.132812 0.90625 -4.226562 0.8125 -4.3125 C 0.726562 -4.394531 0.625 -4.4375 0.5 -4.4375 L 0.40625 -4.4375 L 0.40625 -4.515625 L 1.96875 -4.515625 L 1.96875 -4.4375 L 1.875 -4.4375 C 1.757812 -4.4375 1.65625 -4.394531 1.5625 -4.3125 C 1.476562 -4.226562 1.4375 -4.132812 1.4375 -4.03125 L 1.4375 -0.234375 L 2.609375 -0.234375 C 2.835938 -0.234375 3.03125 -0.269531 3.1875 -0.34375 C 3.351562 -0.425781 3.476562 -0.519531 3.5625 -0.625 C 3.644531 -0.738281 3.722656 -0.890625 3.796875 -1.078125 L 3.875 -1.078125 L 3.46875 0 L 0.40625 0 L 0.40625 -0.078125 Z M 0.515625 -0.078125 "/></g></g></g><g fill="#bdaa8c" fill-opacity="1"><g transform="translate(154.407232, 171.016246)"><g><path d="M 0.515625 -0.078125 C 0.640625 -0.078125 0.742188 -0.113281 0.828125 -0.1875 C 0.910156 -0.269531 0.953125 -0.363281 0.953125 -0.46875 L 0.953125 -4.046875 C 0.953125 -4.148438 0.910156 -4.238281 0.828125 -4.3125 C 0.742188 -4.394531 0.640625 -4.4375 0.515625 -4.4375 L 0.40625 -4.4375 L 0.40625 -4.515625 L 2.609375 -4.515625 C 2.816406 -4.515625 2.992188 -4.523438 3.140625 -4.546875 C 3.296875 -4.578125 3.398438 -4.601562 3.453125 -4.625 L 3.453125 -3.765625 L 3.359375 -3.78125 L 3.359375 -3.890625 C 3.359375 -3.992188 3.320312 -4.082031 3.25 -4.15625 C 3.1875 -4.238281 3.097656 -4.28125 2.984375 -4.28125 L 1.421875 -4.28125 L 1.421875 -2.375 L 2.71875 -2.375 C 2.8125 -2.375 2.882812 -2.398438 2.9375 -2.453125 C 2.988281 -2.515625 3.015625 -2.59375 3.015625 -2.6875 L 3.015625 -2.78125 L 3.109375 -2.78125 L 3.109375 -1.734375 L 3.015625 -1.734375 L 3.015625 -1.828125 C 3.015625 -1.960938 2.960938 -2.054688 2.859375 -2.109375 C 2.816406 -2.128906 2.773438 -2.140625 2.734375 -2.140625 L 1.421875 -2.140625 L 1.421875 -0.234375 L 2.609375 -0.234375 C 2.835938 -0.234375 3.03125 -0.269531 3.1875 -0.34375 C 3.34375 -0.425781 3.460938 -0.519531 3.546875 -0.625 C 3.628906 -0.738281 3.710938 -0.890625 3.796875 -1.078125 L 3.875 -1.078125 L 3.46875 0 L 0.40625 0 L 0.40625 -0.078125 Z M 0.515625 -0.078125 "/></g></g></g><g fill="#bdaa8c" fill-opacity="1"><g transform="translate(158.91366, 171.016246)"><g><path d="M 0.4375 -0.25 C 0.414062 -0.3125 0.40625 -0.429688 0.40625 -0.609375 C 0.40625 -0.796875 0.441406 -0.988281 0.515625 -1.1875 L 0.59375 -1.1875 C 0.59375 -1.132812 0.59375 -1.085938 0.59375 -1.046875 C 0.59375 -0.773438 0.679688 -0.550781 0.859375 -0.375 C 1.035156 -0.207031 1.28125 -0.125 1.59375 -0.125 C 1.925781 -0.125 2.1875 -0.195312 2.375 -0.34375 C 2.5625 -0.5 2.65625 -0.695312 2.65625 -0.9375 C 2.65625 -1.1875 2.5625 -1.390625 2.375 -1.546875 L 0.875 -2.703125 C 0.632812 -2.910156 0.515625 -3.1875 0.515625 -3.53125 C 0.515625 -3.726562 0.566406 -3.910156 0.671875 -4.078125 C 0.785156 -4.242188 0.9375 -4.375 1.125 -4.46875 C 1.320312 -4.5625 1.550781 -4.609375 1.8125 -4.609375 C 2.070312 -4.609375 2.300781 -4.585938 2.5 -4.546875 L 2.75 -4.546875 L 2.765625 -3.734375 L 2.6875 -3.734375 C 2.6875 -3.941406 2.613281 -4.101562 2.46875 -4.21875 C 2.320312 -4.332031 2.113281 -4.390625 1.84375 -4.390625 C 1.570312 -4.390625 1.347656 -4.316406 1.171875 -4.171875 C 0.992188 -4.035156 0.90625 -3.859375 0.90625 -3.640625 C 0.90625 -3.429688 1.003906 -3.242188 1.203125 -3.078125 L 2.71875 -1.90625 C 2.945312 -1.71875 3.0625 -1.453125 3.0625 -1.109375 C 3.0625 -0.765625 2.929688 -0.472656 2.671875 -0.234375 C 2.421875 -0.00390625 2.109375 0.109375 1.734375 0.109375 C 1.492188 0.109375 1.25 0.078125 1 0.015625 C 0.75 -0.046875 0.5625 -0.132812 0.4375 -0.25 Z M 0.4375 -0.25 "/></g></g></g></svg>