<svg xmlns="http://www.w3.org/2000/svg" xmlns:xlink="http://www.w3.org/1999/xlink" width="80" zoomAndPan="magnify" viewBox="0 0 60 60" height="80" preserveAspectRatio="xMidYMid meet" version="1.0"><defs><clipPath id="1b49657299"><path d="M 1.558594 1.558594 L 58.558594 1.558594 L 58.558594 58.558594 L 1.558594 58.558594 Z M 1.558594 1.558594 " clip-rule="nonzero"/></clipPath></defs><g clip-path="url(#1b49657299)"><path fill="#ffffff" d="M 50.292969 9.851562 C 44.960938 4.492188 37.867188 1.558594 30.3125 1.558594 C 14.753906 1.558594 2.070312 14.238281 2.070312 29.800781 C 2.070312 34.789062 3.382812 39.632812 5.832031 43.90625 L 1.84375 58.558594 L 16.804688 54.625 C 20.9375 56.875 25.582031 58.074219 30.3125 58.074219 C 45.875 58.074219 58.558594 45.390625 58.558594 29.828125 C 58.558594 22.277344 55.621094 15.179688 50.292969 9.851562 Z M 30.3125 53.285156 C 26.09375 53.285156 21.964844 52.144531 18.34375 50.007812 L 17.488281 49.492188 L 8.597656 51.832031 L 10.960938 43.167969 L 10.390625 42.285156 C 8.054688 38.550781 6.800781 34.21875 6.800781 29.800781 C 6.800781 16.863281 17.347656 6.316406 30.285156 6.316406 C 36.554688 6.316406 42.453125 8.769531 46.871094 13.214844 C 51.316406 17.660156 53.742188 23.558594 53.742188 29.828125 C 53.796875 42.769531 43.253906 53.285156 30.3125 53.285156 Z M 43.195312 35.730469 C 42.484375 35.386719 39.007812 33.675781 38.378906 33.421875 C 37.722656 33.191406 37.269531 33.078125 36.78125 33.761719 C 36.296875 34.472656 34.960938 36.070312 34.558594 36.527344 C 34.160156 37.011719 33.734375 37.066406 33.019531 36.699219 C 32.308594 36.355469 30.027344 35.585938 27.347656 33.191406 C 25.242188 31.3125 23.84375 29.003906 23.417969 28.289062 C 23.019531 27.578125 23.359375 27.207031 23.730469 26.835938 C 24.042969 26.523438 24.441406 26.011719 24.785156 25.609375 C 25.125 25.210938 25.269531 24.898438 25.496094 24.441406 C 25.726562 23.957031 25.609375 23.558594 25.441406 23.21875 C 25.269531 22.875 23.84375 19.398438 23.273438 17.972656 C 22.703125 16.605469 22.105469 16.777344 21.679688 16.746094 C 21.25 16.746094 20.792969 16.746094 20.308594 16.746094 C 19.824219 16.746094 19.085938 16.917969 18.429688 17.632812 C 17.800781 18.34375 15.976562 20.054688 15.976562 23.53125 C 15.976562 27.007812 18.515625 30.371094 18.855469 30.828125 C 19.199219 31.3125 23.84375 38.4375 30.910156 41.484375 C 32.59375 42.226562 33.90625 42.652344 34.929688 42.96875 C 36.613281 43.507812 38.152344 43.421875 39.375 43.253906 C 40.746094 43.054688 43.566406 41.542969 44.136719 39.890625 C 44.734375 38.238281 44.734375 36.839844 44.535156 36.527344 C 44.335938 36.214844 43.90625 36.070312 43.195312 35.730469 Z M 43.195312 35.730469 " fill-opacity="1" fill-rule="nonzero"/></g></svg>