<svg xmlns="http://www.w3.org/2000/svg" xmlns:xlink="http://www.w3.org/1999/xlink" width="70" zoomAndPan="magnify" viewBox="0 0 52.5 52.499999" height="70" preserveAspectRatio="xMidYMid meet" version="1.0"><defs><clipPath id="4665a3c1a1"><path d="M 1.003906 1.003906 L 51 1.003906 L 51 51 L 1.003906 51 Z M 1.003906 1.003906 " clip-rule="nonzero"/></clipPath><clipPath id="18aefed4ac"><path d="M 26.003906 1.003906 C 12.195312 1.003906 1.003906 12.195312 1.003906 26.003906 C 1.003906 39.808594 12.195312 51 26.003906 51 C 39.808594 51 51 39.808594 51 26.003906 C 51 12.195312 39.808594 1.003906 26.003906 1.003906 Z M 26.003906 1.003906 " clip-rule="nonzero"/></clipPath><clipPath id="8c67618971"><path d="M 7.519531 5.199219 L 44.667969 5.199219 L 44.667969 41.605469 L 7.519531 41.605469 Z M 7.519531 5.199219 " clip-rule="nonzero"/></clipPath></defs><g clip-path="url(#4665a3c1a1)"><g clip-path="url(#18aefed4ac)"><path fill="#ffffff" d="M 1.003906 1.003906 L 51 1.003906 L 51 51 L 1.003906 51 Z M 1.003906 1.003906 " fill-opacity="1" fill-rule="nonzero"/></g></g><path fill="#5594d1" d="M 26.003906 19.890625 C 25.679688 19.890625 25.367188 19.953125 25.070312 20.078125 C 24.769531 20.199219 24.503906 20.378906 24.273438 20.605469 C 24.046875 20.835938 23.867188 21.101562 23.746094 21.402344 C 23.621094 21.699219 23.558594 22.011719 23.558594 22.335938 C 23.558594 22.660156 23.621094 22.972656 23.746094 23.273438 C 23.867188 23.574219 24.046875 23.839844 24.273438 24.066406 C 24.503906 24.296875 24.769531 24.472656 25.070312 24.597656 C 25.367188 24.722656 25.679688 24.785156 26.003906 24.785156 C 26.328125 24.785156 26.640625 24.722656 26.941406 24.597656 C 27.242188 24.472656 27.507812 24.296875 27.734375 24.066406 C 27.964844 23.839844 28.140625 23.574219 28.265625 23.273438 C 28.390625 22.972656 28.453125 22.660156 28.453125 22.335938 C 28.453125 22.011719 28.390625 21.699219 28.265625 21.402344 C 28.140625 21.101562 27.964844 20.835938 27.734375 20.609375 C 27.503906 20.378906 27.242188 20.203125 26.941406 20.078125 C 26.640625 19.953125 26.328125 19.890625 26.003906 19.890625 Z M 26.003906 23.5625 C 25.84375 23.5625 25.6875 23.53125 25.539062 23.46875 C 25.386719 23.40625 25.253906 23.316406 25.140625 23.203125 C 25.027344 23.085938 24.9375 22.957031 24.875 22.804688 C 24.8125 22.65625 24.78125 22.5 24.78125 22.335938 C 24.78125 22.175781 24.8125 22.019531 24.875 21.867188 C 24.9375 21.71875 25.027344 21.585938 25.140625 21.472656 C 25.253906 21.355469 25.386719 21.269531 25.539062 21.207031 C 25.6875 21.144531 25.84375 21.113281 26.003906 21.113281 C 26.167969 21.113281 26.324219 21.144531 26.472656 21.207031 C 26.625 21.269531 26.757812 21.355469 26.871094 21.472656 C 26.984375 21.585938 27.074219 21.71875 27.136719 21.867188 C 27.199219 22.019531 27.230469 22.175781 27.230469 22.335938 C 27.230469 22.5 27.199219 22.65625 27.136719 22.804688 C 27.074219 22.953125 26.984375 23.085938 26.871094 23.203125 C 26.753906 23.316406 26.625 23.40625 26.472656 23.46875 C 26.324219 23.53125 26.167969 23.5625 26.003906 23.5625 Z M 26.003906 23.5625 " fill-opacity="1" fill-rule="nonzero"/><g clip-path="url(#8c67618971)"><path fill="#5594d1" d="M 43.460938 29.460938 C 41.570312 28.164062 35.949219 24.199219 35.949219 24.199219 C 36.300781 24.265625 36.644531 24.230469 36.980469 24.097656 C 37.3125 23.960938 37.585938 23.746094 37.792969 23.453125 C 38.371094 22.652344 38.164062 21.445312 37.34375 20.894531 L 27.839844 14.242188 L 27.839844 12.242188 L 28.453125 12.242188 C 28.695312 12.242188 28.929688 12.195312 29.15625 12.101562 C 29.378906 12.007812 29.578125 11.878906 29.75 11.703125 C 29.921875 11.53125 30.054688 11.335938 30.148438 11.109375 C 30.242188 10.882812 30.289062 10.652344 30.289062 10.40625 C 30.289062 10.164062 30.242188 9.929688 30.148438 9.703125 C 30.054688 9.480469 29.921875 9.28125 29.75 9.109375 C 29.578125 8.9375 29.378906 8.804688 29.15625 8.710938 C 28.929688 8.617188 28.695312 8.570312 28.453125 8.570312 L 27.839844 8.570312 L 27.839844 7.042969 C 27.839844 6.796875 27.792969 6.566406 27.703125 6.339844 C 27.609375 6.113281 27.476562 5.917969 27.304688 5.746094 C 27.132812 5.570312 26.933594 5.441406 26.707031 5.347656 C 26.484375 5.253906 26.25 5.207031 26.003906 5.207031 C 25.761719 5.207031 25.527344 5.253906 25.304688 5.347656 C 25.078125 5.441406 24.878906 5.570312 24.707031 5.746094 C 24.535156 5.917969 24.402344 6.113281 24.308594 6.339844 C 24.214844 6.566406 24.171875 6.796875 24.171875 7.042969 L 24.171875 8.570312 L 23.558594 8.570312 C 23.316406 8.570312 23.082031 8.617188 22.855469 8.710938 C 22.632812 8.804688 22.433594 8.9375 22.261719 9.109375 C 22.089844 9.28125 21.957031 9.480469 21.863281 9.703125 C 21.769531 9.929688 21.722656 10.164062 21.722656 10.40625 C 21.722656 10.652344 21.769531 10.882812 21.863281 11.109375 C 21.957031 11.335938 22.089844 11.53125 22.261719 11.703125 C 22.433594 11.878906 22.632812 12.007812 22.855469 12.101562 C 23.082031 12.195312 23.316406 12.242188 23.558594 12.242188 L 24.171875 12.242188 L 24.171875 14.242188 L 14.667969 20.894531 C 13.847656 21.445312 13.640625 22.652344 14.21875 23.453125 C 14.425781 23.746094 14.699219 23.960938 15.03125 24.097656 C 15.363281 24.230469 15.710938 24.265625 16.0625 24.199219 C 16.0625 24.199219 10.441406 28.164062 8.550781 29.460938 C 7.734375 30.015625 7.523438 31.214844 8.097656 32.019531 C 8.242188 32.222656 8.421875 32.390625 8.632812 32.519531 C 8.84375 32.652344 9.070312 32.738281 9.316406 32.777344 C 9.5625 32.816406 9.808594 32.804688 10.050781 32.746094 C 10.289062 32.683594 10.511719 32.582031 10.710938 32.433594 L 10.710938 41.304688 C 10.710938 41.472656 10.769531 41.617188 10.890625 41.734375 C 11.007812 41.855469 11.152344 41.914062 11.324219 41.914062 L 40.6875 41.914062 C 40.859375 41.914062 41 41.855469 41.121094 41.734375 C 41.242188 41.617188 41.300781 41.472656 41.300781 41.304688 L 41.300781 32.433594 C 41.5 32.582031 41.71875 32.683594 41.960938 32.746094 C 42.203125 32.804688 42.449219 32.816406 42.691406 32.777344 C 42.9375 32.738281 43.167969 32.652344 43.378906 32.519531 C 43.589844 32.390625 43.769531 32.222656 43.910156 32.019531 C 44.488281 31.214844 44.277344 30.019531 43.460938 29.460938 Z M 23.558594 11.019531 C 23.390625 11.019531 23.246094 10.960938 23.125 10.839844 C 23.007812 10.71875 22.945312 10.574219 22.945312 10.40625 C 22.945312 10.238281 23.007812 10.09375 23.125 9.972656 C 23.246094 9.855469 23.390625 9.796875 23.558594 9.796875 L 24.78125 9.796875 C 24.949219 9.796875 25.09375 9.734375 25.214844 9.617188 C 25.335938 9.496094 25.394531 9.351562 25.394531 9.183594 L 25.394531 7.042969 C 25.394531 6.875 25.453125 6.730469 25.574219 6.609375 C 25.691406 6.488281 25.835938 6.429688 26.003906 6.429688 C 26.175781 6.429688 26.320312 6.488281 26.4375 6.609375 C 26.558594 6.730469 26.617188 6.875 26.617188 7.042969 L 26.617188 9.183594 C 26.617188 9.351562 26.675781 9.496094 26.796875 9.617188 C 26.914062 9.734375 27.058594 9.796875 27.230469 9.796875 L 28.453125 9.796875 C 28.621094 9.796875 28.765625 9.855469 28.886719 9.972656 C 29.003906 10.09375 29.066406 10.238281 29.066406 10.40625 C 29.066406 10.574219 29.003906 10.71875 28.886719 10.839844 C 28.765625 10.960938 28.621094 11.019531 28.453125 11.019531 L 27.230469 11.019531 C 27.058594 11.019531 26.914062 11.078125 26.796875 11.199219 C 26.675781 11.316406 26.617188 11.460938 26.617188 11.628906 L 26.617188 13.472656 C 26.210938 13.328125 25.800781 13.328125 25.394531 13.472656 L 25.394531 11.628906 C 25.394531 11.460938 25.335938 11.316406 25.214844 11.199219 C 25.09375 11.078125 24.949219 11.019531 24.78125 11.019531 Z M 15.21875 22.75 C 15.125 22.613281 15.089844 22.460938 15.121094 22.292969 C 15.148438 22.125 15.230469 21.996094 15.371094 21.898438 C 15.371094 21.898438 23.082031 16.496094 25.65625 14.695312 C 25.886719 14.535156 26.121094 14.535156 26.355469 14.695312 C 28.929688 16.496094 36.640625 21.898438 36.640625 21.898438 C 36.78125 21.992188 36.867188 22.125 36.898438 22.292969 C 36.925781 22.460938 36.894531 22.613281 36.796875 22.753906 C 36.695312 22.894531 36.566406 22.976562 36.398438 23.007812 C 36.230469 23.035156 36.074219 23 35.9375 22.902344 C 35.9375 22.902344 29.277344 18.238281 27.058594 16.679688 C 26.742188 16.460938 26.390625 16.351562 26.003906 16.351562 C 25.621094 16.351562 25.269531 16.460938 24.953125 16.679688 C 22.734375 18.238281 16.074219 22.902344 16.074219 22.902344 C 15.933594 22.996094 15.78125 23.03125 15.617188 23.003906 C 15.449219 22.972656 15.316406 22.890625 15.21875 22.75 Z M 16.828125 40.691406 L 15.300781 40.691406 L 15.300781 35.433594 C 15.300781 34.851562 16.03125 33.9375 16.828125 33.167969 Z M 16.828125 31.523438 C 16.039062 32.164062 14.074219 33.914062 14.074219 35.433594 L 14.074219 40.691406 L 11.933594 40.691406 L 11.933594 31.574219 L 16.828125 28.144531 Z M 16.828125 26.652344 C 16.828125 26.652344 11.679688 30.269531 9.957031 31.464844 C 9.296875 31.925781 8.597656 30.921875 9.25 30.460938 C 11.144531 29.132812 16.828125 25.15625 16.828125 25.15625 Z M 29.066406 40.691406 L 22.945312 40.691406 L 22.945312 32.972656 C 22.945312 31.761719 24.6875 29.8125 26.003906 28.648438 C 27.324219 29.8125 29.066406 31.761719 29.066406 32.972656 Z M 33.957031 40.691406 L 30.289062 40.691406 L 30.289062 32.972656 C 30.289062 30.625 26.792969 27.695312 26.394531 27.371094 C 26.28125 27.277344 26.152344 27.230469 26.003906 27.230469 C 25.859375 27.230469 25.730469 27.277344 25.617188 27.371094 C 25.21875 27.695312 21.722656 30.625 21.722656 32.972656 L 21.722656 40.691406 L 18.050781 40.691406 L 18.050781 23.007812 L 25.65625 17.683594 C 25.886719 17.519531 26.121094 17.519531 26.355469 17.683594 L 33.957031 23.007812 Z M 36.710938 40.691406 L 35.183594 40.691406 L 35.183594 33.167969 C 35.980469 33.9375 36.710938 34.851562 36.710938 35.433594 Z M 40.078125 40.691406 L 37.9375 40.691406 L 37.9375 35.433594 C 37.9375 33.914062 35.972656 32.164062 35.183594 31.523438 L 35.183594 28.144531 L 40.078125 31.574219 Z M 42.054688 31.464844 C 40.332031 30.269531 35.183594 26.652344 35.183594 26.652344 L 35.183594 25.15625 C 35.183594 25.15625 40.867188 29.132812 42.757812 30.460938 C 43.414062 30.921875 42.714844 31.925781 42.054688 31.464844 Z M 42.054688 31.464844 " fill-opacity="1" fill-rule="nonzero"/></g></svg>