<svg xmlns="http://www.w3.org/2000/svg" xmlns:xlink="http://www.w3.org/1999/xlink" width="70" zoomAndPan="magnify" viewBox="0 0 52.5 52.499999" height="70" preserveAspectRatio="xMidYMid meet" version="1.0"><defs><clipPath id="684c57b202"><path d="M 4.011719 12 L 19 12 L 19 40 L 4.011719 40 Z M 4.011719 12 " clip-rule="nonzero"/></clipPath><clipPath id="f303fac46d"><path d="M 6 10.113281 L 45 10.113281 L 45 29 L 6 29 Z M 6 10.113281 " clip-rule="nonzero"/></clipPath><clipPath id="a74605590a"><path d="M 6 26 L 45 26 L 45 41.316406 L 6 41.316406 Z M 6 26 " clip-rule="nonzero"/></clipPath></defs><g clip-path="url(#684c57b202)"><path fill="#7bd1e0" d="M 18.839844 25.574219 L 5.019531 12.128906 C 4.398438 12.960938 4.027344 13.996094 4.027344 15.113281 L 4.027344 36.03125 C 4.027344 37.148438 4.398438 38.183594 5.019531 39.019531 L 18.839844 25.574219 " fill-opacity="1" fill-rule="nonzero"/></g><g clip-path="url(#f303fac46d)"><path fill="#7bd1e0" d="M 22.945312 27.511719 C 24.324219 28.855469 26.484375 28.855469 27.863281 27.511719 L 44.742188 11.089844 C 43.914062 10.480469 42.886719 10.117188 41.78125 10.117188 L 9.027344 10.117188 C 7.917969 10.117188 6.894531 10.480469 6.066406 11.089844 L 22.945312 27.511719 " fill-opacity="1" fill-rule="nonzero"/></g><path fill="#7bd1e0" d="M 45.785156 12.128906 L 31.96875 25.574219 L 45.785156 39.019531 C 46.410156 38.183594 46.78125 37.148438 46.78125 36.03125 L 46.78125 15.113281 C 46.78125 13.996094 46.410156 12.960938 45.785156 12.128906 " fill-opacity="1" fill-rule="nonzero"/><g clip-path="url(#a74605590a)"><path fill="#7bd1e0" d="M 30.910156 26.601562 L 28.890625 28.566406 C 27.953125 29.480469 26.714844 29.984375 25.402344 29.984375 C 24.09375 29.984375 22.855469 29.480469 21.917969 28.566406 L 19.894531 26.601562 L 6.066406 40.054688 C 6.894531 40.667969 7.917969 41.03125 9.027344 41.03125 L 41.78125 41.03125 C 42.886719 41.03125 43.914062 40.667969 44.742188 40.054688 L 30.910156 26.601562 " fill-opacity="1" fill-rule="nonzero"/></g></svg>