<svg xmlns="http://www.w3.org/2000/svg" xmlns:xlink="http://www.w3.org/1999/xlink" width="200" zoomAndPan="magnify" viewBox="0 0 150 30.000001" height="40" preserveAspectRatio="xMidYMid meet" version="1.0"><defs><clipPath id="8278295905"><path d="M 15.550781 8 L 66 8 L 66 21.542969 L 15.550781 21.542969 Z M 15.550781 8 " clip-rule="nonzero"/></clipPath><clipPath id="f44fa72236"><path d="M 84 8 L 134.585938 8 L 134.585938 21.542969 L 84 21.542969 Z M 84 8 " clip-rule="nonzero"/></clipPath></defs><g clip-path="url(#8278295905)"><path fill="#dbbb68" d="M 61.878906 11.089844 C 59.617188 10.042969 56.851562 9.65625 53.425781 9.910156 C 48.371094 10.285156 43.679688 12.164062 39.144531 13.980469 C 34.933594 15.667969 30.578125 17.414062 25.988281 17.914062 C 23.957031 18.136719 19.050781 18.328125 17.328125 15.3125 C 16.675781 14.171875 16.683594 12.644531 17.34375 11.511719 C 18.363281 9.757812 21.019531 8.980469 22.808594 9.902344 C 23.640625 10.332031 24.238281 11.011719 24.59375 11.921875 L 25.589844 11.535156 C 25.144531 10.390625 24.351562 9.496094 23.300781 8.953125 C 21.003906 7.769531 17.726562 8.730469 16.421875 10.972656 C 15.5625 12.449219 15.554688 14.359375 16.402344 15.839844 C 16.5 16.015625 16.613281 16.183594 16.730469 16.347656 C 17.898438 19.109375 20.160156 20.726562 23.476562 21.148438 C 24.085938 21.226562 24.703125 21.261719 25.320312 21.261719 C 27.4375 21.261719 29.894531 20.863281 32.664062 20.078125 C 36.652344 18.941406 40.4375 17.144531 44.101562 15.410156 C 47.605469 13.746094 51.226562 12.03125 55.003906 10.90625 C 57.558594 10.863281 59.671875 11.246094 61.433594 12.0625 C 62.214844 12.421875 63.601562 13.25 64.140625 14.734375 C 64.679688 16.21875 63.949219 17.96875 62.515625 18.632812 C 61.355469 19.167969 60.121094 19.007812 59.292969 18.207031 C 58.5 17.433594 58.3125 16.304688 58.789062 15.179688 L 57.808594 14.761719 C 57.160156 16.285156 57.441406 17.898438 58.550781 18.972656 C 59.273438 19.675781 60.136719 20.023438 61.148438 20.019531 C 61.78125 20.011719 62.386719 19.875 62.960938 19.605469 C 64.886719 18.714844 65.867188 16.367188 65.144531 14.371094 C 64.644531 13 63.488281 11.835938 61.878906 11.089844 Z M 43.753906 14.683594 C 40.121094 16.40625 36.367188 18.1875 32.441406 19.304688 C 28.929688 20.304688 25.945312 20.65625 23.574219 20.355469 C 21.480469 20.085938 19.851562 19.300781 18.699219 18.007812 C 19.382812 18.359375 20.097656 18.617188 20.847656 18.777344 C 22.757812 19.207031 24.757812 19.125 26.101562 18.976562 C 30.839844 18.460938 35.261719 16.6875 39.539062 14.972656 C 43.453125 13.40625 47.484375 11.789062 51.71875 11.171875 C 48.984375 12.203125 46.339844 13.460938 43.753906 14.683594 Z M 43.753906 14.683594 " fill-opacity="1" fill-rule="nonzero"/></g><path fill="#dbbb68" d="M 74.996094 10.394531 C 74.828125 10.492188 74.671875 10.597656 74.519531 10.710938 C 74.371094 10.828125 74.226562 10.953125 74.089844 11.089844 C 73.957031 11.222656 73.832031 11.367188 73.714844 11.515625 C 73.601562 11.667969 73.492188 11.828125 73.398438 11.992188 C 73.304688 12.15625 73.21875 12.328125 73.148438 12.503906 C 73.074219 12.679688 73.011719 12.859375 72.964844 13.042969 C 72.914062 13.226562 72.875 13.414062 72.851562 13.601562 C 72.828125 13.792969 72.816406 13.980469 72.816406 14.171875 C 72.816406 14.363281 72.828125 14.550781 72.851562 14.742188 C 72.875 14.929688 72.914062 15.117188 72.964844 15.300781 C 73.011719 15.484375 73.074219 15.664062 73.148438 15.839844 C 73.21875 16.015625 73.304688 16.1875 73.398438 16.351562 C 73.492188 16.515625 73.601562 16.675781 73.714844 16.824219 C 73.832031 16.976562 73.957031 17.121094 74.089844 17.253906 C 74.226562 17.390625 74.371094 17.515625 74.519531 17.628906 C 74.671875 17.746094 74.828125 17.851562 74.996094 17.949219 C 75.160156 17.851562 75.316406 17.746094 75.46875 17.628906 C 75.621094 17.515625 75.761719 17.390625 75.898438 17.253906 C 76.03125 17.121094 76.15625 16.976562 76.273438 16.824219 C 76.390625 16.675781 76.496094 16.515625 76.589844 16.351562 C 76.683594 16.1875 76.769531 16.015625 76.84375 15.839844 C 76.914062 15.664062 76.976562 15.484375 77.027344 15.300781 C 77.074219 15.117188 77.113281 14.929688 77.136719 14.742188 C 77.160156 14.550781 77.175781 14.363281 77.175781 14.171875 C 77.175781 13.980469 77.160156 13.792969 77.136719 13.601562 C 77.113281 13.414062 77.074219 13.226562 77.027344 13.042969 C 76.976562 12.859375 76.914062 12.679688 76.84375 12.503906 C 76.769531 12.328125 76.683594 12.15625 76.589844 11.992188 C 76.496094 11.828125 76.390625 11.667969 76.273438 11.515625 C 76.15625 11.367188 76.03125 11.222656 75.898438 11.089844 C 75.761719 10.953125 75.621094 10.828125 75.46875 10.710938 C 75.316406 10.597656 75.160156 10.492188 74.996094 10.394531 Z M 74.996094 10.394531 " fill-opacity="1" fill-rule="nonzero"/><path fill="#dbbb68" d="M 68.914062 14.765625 C 68.808594 15.160156 68.808594 15.554688 68.914062 15.953125 C 69.019531 16.347656 69.214844 16.691406 69.507812 16.980469 C 69.796875 17.269531 70.136719 17.464844 70.535156 17.574219 C 70.929688 17.679688 71.324219 17.679688 71.71875 17.574219 C 71.824219 17.175781 71.824219 16.78125 71.71875 16.386719 C 71.613281 15.992188 71.417969 15.648438 71.125 15.359375 C 70.835938 15.070312 70.496094 14.871094 70.097656 14.765625 C 69.703125 14.660156 69.308594 14.660156 68.914062 14.765625 Z M 68.914062 14.765625 " fill-opacity="1" fill-rule="nonzero"/><path fill="#dbbb68" d="M 78.863281 15.359375 C 78.574219 15.648438 78.375 15.992188 78.269531 16.386719 C 78.164062 16.78125 78.164062 17.175781 78.269531 17.574219 C 78.664062 17.679688 79.058594 17.679688 79.457031 17.574219 C 79.851562 17.464844 80.195312 17.269531 80.484375 16.980469 C 80.773438 16.691406 80.96875 16.347656 81.074219 15.953125 C 81.183594 15.554688 81.183594 15.160156 81.074219 14.765625 C 80.679688 14.660156 80.285156 14.660156 79.890625 14.765625 C 79.492188 14.871094 79.152344 15.070312 78.863281 15.359375 Z M 78.863281 15.359375 " fill-opacity="1" fill-rule="nonzero"/><g clip-path="url(#f44fa72236)"><path fill="#dbbb68" d="M 133.566406 10.972656 C 132.261719 8.730469 128.980469 7.769531 126.6875 8.953125 C 125.636719 9.496094 124.84375 10.390625 124.398438 11.535156 L 125.394531 11.921875 C 125.75 11.011719 126.347656 10.332031 127.179688 9.902344 C 128.96875 8.980469 131.625 9.761719 132.644531 11.511719 C 133.304688 12.644531 133.3125 14.171875 132.660156 15.3125 C 130.9375 18.328125 126.03125 18.136719 124 17.914062 C 119.410156 17.414062 115.054688 15.667969 110.84375 13.980469 C 106.308594 12.167969 101.617188 10.285156 96.5625 9.910156 C 93.136719 9.65625 90.367188 10.042969 88.109375 11.089844 C 86.5 11.835938 85.34375 13 84.847656 14.371094 C 84.121094 16.363281 85.101562 18.710938 87.027344 19.601562 C 87.601562 19.875 88.207031 20.011719 88.84375 20.015625 C 89.851562 20.023438 90.71875 19.675781 91.441406 18.96875 C 92.546875 17.894531 92.832031 16.28125 92.183594 14.757812 L 91.199219 15.175781 C 91.683594 16.296875 91.492188 17.433594 90.695312 18.203125 C 89.871094 19.003906 88.636719 19.167969 87.476562 18.628906 C 86.039062 17.96875 85.3125 16.21875 85.847656 14.734375 C 86.386719 13.246094 87.777344 12.421875 88.554688 12.058594 C 90.316406 11.242188 92.429688 10.863281 94.984375 10.90625 C 98.765625 12.027344 102.382812 13.746094 105.890625 15.40625 C 109.550781 17.144531 113.335938 18.941406 117.324219 20.074219 C 120.09375 20.863281 122.554688 21.257812 124.667969 21.257812 C 125.289062 21.261719 125.902344 21.222656 126.515625 21.148438 C 129.828125 20.722656 132.09375 19.109375 133.257812 16.347656 C 133.378906 16.183594 133.488281 16.015625 133.585938 15.839844 C 134.4375 14.359375 134.425781 12.449219 133.566406 10.972656 Z M 126.414062 20.351562 C 124.042969 20.65625 121.058594 20.304688 117.546875 19.304688 C 113.621094 18.1875 109.867188 16.40625 106.234375 14.683594 C 103.648438 13.457031 101.003906 12.203125 98.269531 11.171875 C 102.503906 11.789062 106.535156 13.402344 110.449219 14.972656 C 114.726562 16.6875 119.148438 18.457031 123.886719 18.976562 C 125.230469 19.125 127.230469 19.207031 129.140625 18.777344 C 129.890625 18.617188 130.605469 18.359375 131.289062 18.007812 C 130.136719 19.300781 128.507812 20.085938 126.414062 20.351562 Z M 126.414062 20.351562 " fill-opacity="1" fill-rule="nonzero"/></g></svg>