<svg xmlns="http://www.w3.org/2000/svg" xmlns:xlink="http://www.w3.org/1999/xlink" width="70" zoomAndPan="magnify" viewBox="0 0 52.5 52.499999" height="70" preserveAspectRatio="xMidYMid meet" version="1.0"><defs><clipPath id="e05c58fc0a"><path d="M 2.066406 11.339844 L 49.613281 11.339844 L 49.613281 40.316406 L 2.066406 40.316406 Z M 2.066406 11.339844 " clip-rule="nonzero"/></clipPath></defs><g clip-path="url(#e05c58fc0a)"><path fill="#f1cbcd" d="M 49.648438 20.011719 C 49.46875 19.859375 49.257812 19.800781 49.023438 19.839844 L 45.292969 20.460938 L 45.292969 16.742188 C 45.292969 16.53125 45.21875 16.347656 45.066406 16.195312 C 44.914062 16.046875 44.734375 15.972656 44.519531 15.972656 L 40.800781 15.972656 L 41.421875 12.238281 C 41.441406 12.128906 41.4375 12.015625 41.40625 11.90625 C 41.375 11.796875 41.324219 11.699219 41.25 11.613281 C 41.179688 11.527344 41.089844 11.460938 40.988281 11.414062 C 40.882812 11.363281 40.777344 11.339844 40.664062 11.339844 L 29.859375 11.339844 C 29.746094 11.339844 29.636719 11.363281 29.535156 11.414062 C 29.433594 11.460938 29.34375 11.527344 29.269531 11.613281 C 29.199219 11.699219 29.144531 11.796875 29.117188 11.90625 C 29.085938 12.015625 29.082031 12.128906 29.097656 12.238281 L 29.722656 15.972656 L 22.28125 15.972656 L 22.902344 12.238281 C 22.921875 12.128906 22.917969 12.015625 22.886719 11.90625 C 22.855469 11.796875 22.804688 11.699219 22.730469 11.613281 C 22.660156 11.527344 22.570312 11.460938 22.46875 11.414062 C 22.363281 11.363281 22.257812 11.339844 22.144531 11.339844 L 11.339844 11.339844 C 11.226562 11.339844 11.117188 11.363281 11.015625 11.414062 C 10.914062 11.460938 10.824219 11.527344 10.75 11.613281 C 10.679688 11.699219 10.625 11.796875 10.597656 11.90625 C 10.566406 12.015625 10.5625 12.128906 10.578125 12.238281 L 11.203125 15.972656 L 7.480469 15.972656 C 7.269531 15.972656 7.085938 16.046875 6.9375 16.195312 C 6.785156 16.347656 6.710938 16.53125 6.710938 16.742188 L 6.710938 20.460938 L 2.980469 19.839844 C 2.867188 19.820312 2.757812 19.828125 2.648438 19.855469 C 2.539062 19.886719 2.441406 19.9375 2.355469 20.011719 C 2.265625 20.085938 2.199219 20.171875 2.152344 20.277344 C 2.105469 20.378906 2.082031 20.488281 2.082031 20.601562 L 2.082031 31.402344 C 2.082031 31.617188 2.15625 31.796875 2.308594 31.949219 C 2.457031 32.101562 2.640625 32.175781 2.851562 32.175781 C 2.894531 32.175781 2.9375 32.171875 2.980469 32.164062 L 6.710938 31.542969 L 6.710938 35.261719 C 6.710938 35.476562 6.785156 35.65625 6.9375 35.808594 C 7.085938 35.957031 7.269531 36.035156 7.480469 36.035156 L 11.203125 36.035156 L 10.578125 39.765625 C 10.5625 39.878906 10.566406 39.988281 10.597656 40.097656 C 10.628906 40.207031 10.679688 40.304688 10.753906 40.390625 C 10.824219 40.476562 10.914062 40.542969 11.015625 40.589844 C 11.117188 40.640625 11.226562 40.664062 11.339844 40.664062 L 22.144531 40.664062 C 22.257812 40.664062 22.363281 40.640625 22.46875 40.589844 C 22.570312 40.542969 22.660156 40.476562 22.730469 40.390625 C 22.804688 40.304688 22.855469 40.207031 22.886719 40.097656 C 22.917969 39.988281 22.921875 39.878906 22.902344 39.765625 L 22.28125 36.035156 L 29.722656 36.035156 L 29.097656 39.765625 C 29.082031 39.878906 29.085938 39.988281 29.117188 40.097656 C 29.144531 40.207031 29.199219 40.304688 29.269531 40.390625 C 29.34375 40.476562 29.433594 40.542969 29.535156 40.589844 C 29.636719 40.640625 29.746094 40.664062 29.859375 40.664062 L 40.664062 40.664062 C 40.777344 40.664062 40.882812 40.640625 40.988281 40.589844 C 41.089844 40.542969 41.179688 40.476562 41.25 40.390625 C 41.324219 40.304688 41.375 40.207031 41.40625 40.097656 C 41.4375 39.988281 41.441406 39.878906 41.421875 39.765625 L 40.800781 36.035156 L 44.519531 36.035156 C 44.734375 36.035156 44.914062 35.957031 45.066406 35.808594 C 45.21875 35.65625 45.292969 35.476562 45.292969 35.261719 L 45.292969 31.542969 L 49.023438 32.164062 C 49.066406 32.171875 49.109375 32.175781 49.152344 32.175781 C 49.363281 32.175781 49.546875 32.101562 49.695312 31.949219 C 49.847656 31.796875 49.921875 31.617188 49.921875 31.402344 L 49.921875 20.601562 C 49.921875 20.363281 49.832031 20.164062 49.648438 20.011719 Z M 30.769531 12.882812 L 39.75 12.882812 L 39.238281 15.972656 L 31.285156 15.972656 Z M 12.25 12.882812 L 21.230469 12.882812 L 20.71875 15.972656 L 12.765625 15.972656 Z M 3.625 30.492188 L 3.625 21.511719 L 6.710938 22.027344 L 6.710938 29.976562 Z M 21.230469 39.121094 L 12.25 39.121094 L 12.765625 36.035156 L 20.71875 36.035156 Z M 39.75 39.121094 L 30.769531 39.121094 L 31.285156 36.035156 L 39.238281 36.035156 Z M 43.75 34.488281 L 8.253906 34.488281 L 8.253906 17.515625 L 43.75 17.515625 Z M 48.378906 30.492188 L 45.292969 29.976562 L 45.292969 22.027344 L 48.378906 21.511719 Z M 48.378906 30.492188 " fill-opacity="1" fill-rule="nonzero"/></g></svg>