<svg xmlns="http://www.w3.org/2000/svg" xmlns:xlink="http://www.w3.org/1999/xlink" width="70" zoomAndPan="magnify" viewBox="0 0 52.5 52.499999" height="70" preserveAspectRatio="xMidYMid meet" version="1.0"><defs><clipPath id="e6039982ac"><path d="M 3.503906 2.65625 L 48.078125 2.65625 L 48.078125 48.714844 L 3.503906 48.714844 Z M 3.503906 2.65625 " clip-rule="nonzero"/></clipPath></defs><g clip-path="url(#e6039982ac)"><path fill="#f1cbcd" d="M 47.925781 40.449219 C 47.808594 40.226562 47.621094 40.019531 47.472656 39.816406 C 46.683594 38.71875 45.894531 37.621094 45.105469 36.523438 C 44.5 35.6875 43.898438 34.851562 43.296875 34.011719 C 42.976562 33.566406 42.417969 33.570312 42.09375 34.011719 C 40.988281 35.527344 39.882812 37.042969 38.777344 38.558594 L 38.777344 30.550781 C 39.132812 31.042969 39.488281 31.539062 39.847656 32.03125 C 39.933594 32.148438 40.019531 32.265625 40.105469 32.386719 C 40.328125 32.691406 40.707031 32.835938 41.058594 32.636719 C 41.359375 32.464844 41.527344 31.984375 41.308594 31.683594 C 39.644531 29.386719 37.980469 27.089844 36.316406 24.796875 C 33.65625 21.121094 30.996094 17.449219 28.332031 13.777344 L 26.527344 11.28125 L 26.527344 7.753906 L 28.5 7.753906 C 29.394531 7.753906 29.398438 6.363281 28.5 6.363281 L 26.527344 6.363281 L 26.527344 3.550781 C 26.527344 2.652344 25.132812 2.652344 25.132812 3.550781 L 25.132812 6.363281 L 23.160156 6.363281 C 22.261719 6.363281 22.261719 7.753906 23.160156 7.753906 L 25.132812 7.753906 L 25.132812 11.429688 C 23.832031 13.207031 22.535156 14.984375 21.234375 16.761719 C 20.332031 18 19.429688 19.234375 18.527344 20.472656 C 16.414062 23.339844 14.304688 26.207031 12.195312 29.074219 L 10.351562 31.578125 C 10.125 31.882812 10.300781 32.351562 10.601562 32.53125 C 10.953125 32.742188 11.332031 32.582031 11.554688 32.28125 C 11.640625 32.164062 11.726562 32.050781 11.8125 31.933594 L 12.882812 30.476562 L 12.882812 38.710938 C 12.359375 37.984375 11.832031 37.253906 11.308594 36.523438 C 10.707031 35.6875 10.105469 34.851562 9.5 34.011719 C 9.179688 33.566406 8.621094 33.570312 8.296875 34.011719 C 6.949219 35.859375 5.601562 37.703125 4.253906 39.546875 C 4.0625 39.8125 3.835938 40.070312 3.667969 40.351562 C 3.519531 40.601562 3.550781 40.894531 3.550781 41.171875 L 3.550781 48.222656 C 3.550781 48.601562 3.871094 48.917969 4.25 48.921875 L 12.378906 48.933594 L 13.53125 48.9375 C 13.625 48.9375 13.710938 48.921875 13.785156 48.894531 C 16.492188 48.898438 19.195312 48.902344 21.902344 48.90625 C 26.285156 48.914062 30.667969 48.921875 35.050781 48.929688 L 38.078125 48.9375 C 38.136719 48.9375 38.191406 48.929688 38.242188 48.921875 C 40.886719 48.925781 43.53125 48.929688 46.175781 48.933594 L 47.324219 48.9375 C 47.546875 48.9375 47.710938 48.855469 47.824219 48.726562 C 47.941406 48.617188 48.023438 48.453125 48.023438 48.242188 L 48.023438 41.449219 C 48.023438 41.136719 48.082031 40.730469 47.925781 40.449219 Z M 4.945312 40.953125 C 6.261719 39.152344 7.578125 37.347656 8.894531 35.546875 L 12.351562 40.347656 C 12.511719 40.570312 12.671875 40.792969 12.832031 41.019531 L 12.832031 47.542969 C 10.355469 47.539062 7.878906 47.535156 5.398438 47.527344 C 5.246094 47.527344 5.097656 47.527344 4.945312 47.527344 Z M 23.773438 31.976562 C 24.300781 31.496094 24.988281 31.214844 25.71875 31.191406 C 26.5625 31.179688 27.320312 31.480469 27.875 31.988281 C 28.46875 32.53125 28.835938 33.3125 28.839844 34.214844 C 28.84375 35.035156 28.839844 35.855469 28.839844 36.675781 L 28.839844 47.148438 C 27.882812 47.160156 26.925781 47.171875 25.96875 47.175781 C 25.132812 47.183594 24.296875 47.1875 23.457031 47.183594 C 23.246094 47.183594 23.03125 47.179688 22.816406 47.175781 L 22.816406 34.386719 C 22.816406 33.882812 22.863281 33.386719 23.078125 32.921875 C 23.25 32.554688 23.488281 32.234375 23.773438 31.976562 Z M 30.234375 47.53125 L 30.234375 41.316406 C 30.234375 38.9375 30.257812 36.558594 30.234375 34.183594 C 30.222656 33.378906 30.007812 32.636719 29.636719 31.996094 C 28.859375 30.652344 27.398438 29.773438 25.71875 29.800781 C 24.179688 29.847656 22.78125 30.65625 22.015625 31.96875 C 21.917969 32.136719 21.832031 32.3125 21.753906 32.496094 C 21.464844 33.199219 21.425781 33.917969 21.425781 34.664062 L 21.425781 46.667969 C 21.425781 46.945312 21.410156 47.230469 21.414062 47.511719 C 19.8125 47.511719 18.210938 47.507812 16.605469 47.503906 L 14.277344 47.5 L 14.277344 28.640625 C 15.628906 26.789062 16.976562 24.941406 18.328125 23.089844 C 18.796875 22.453125 19.261719 21.8125 19.726562 21.175781 C 21.464844 18.796875 23.203125 16.417969 24.941406 14.039062 C 25.246094 13.621094 25.550781 13.207031 25.851562 12.792969 L 25.875 12.824219 C 27.046875 14.453125 28.21875 16.082031 29.390625 17.710938 C 31.585938 20.761719 33.78125 23.8125 35.976562 26.863281 C 36.445312 27.511719 36.914062 28.164062 37.382812 28.816406 L 37.382812 40.546875 C 37.328125 40.746094 37.347656 40.964844 37.347656 41.171875 L 37.347656 47.542969 Z M 38.742188 47.527344 L 38.742188 40.953125 C 38.753906 40.9375 38.765625 40.921875 38.777344 40.90625 C 40.082031 39.121094 41.386719 37.332031 42.691406 35.546875 L 46.144531 40.347656 L 46.628906 41.019531 L 46.628906 47.542969 C 44.152344 47.539062 41.671875 47.535156 39.195312 47.527344 Z M 38.742188 47.527344 " fill-opacity="1" fill-rule="nonzero"/></g></svg>