<svg xmlns="http://www.w3.org/2000/svg" xmlns:xlink="http://www.w3.org/1999/xlink" width="70" zoomAndPan="magnify" viewBox="0 0 52.5 52.499999" height="70" preserveAspectRatio="xMidYMid meet" version="1.0"><defs><clipPath id="177d337de2"><path d="M 4 0 L 49 0 L 49 51.765625 L 4 51.765625 Z M 4 0 " clip-rule="nonzero"/></clipPath></defs><g clip-path="url(#177d337de2)"><path fill="#f1cbcd" d="M 18.957031 50.226562 C 18.515625 49.890625 18 49.855469 17.53125 49.6875 C 16.902344 49.460938 16.277344 49.230469 15.710938 48.863281 C 15.65625 48.824219 15.597656 48.777344 15.535156 48.769531 C 14.359375 48.621094 13.175781 48.480469 12.019531 48.808594 C 11.550781 48.941406 11.101562 49.003906 10.640625 48.933594 C 10.09375 48.855469 9.800781 48.441406 9.785156 47.8125 C 9.757812 46.671875 9.933594 45.550781 10.125 44.429688 C 10.152344 44.265625 10.21875 44.109375 10.140625 43.917969 C 9.910156 43.875 9.789062 44.050781 9.65625 44.183594 C 9.058594 44.765625 8.46875 45.359375 7.867188 45.941406 C 7.726562 46.078125 7.648438 46.21875 7.644531 46.421875 C 7.632812 47.117188 7.726562 47.789062 8.121094 48.382812 C 8.316406 48.679688 8.382812 48.996094 8.34375 49.339844 C 8.28125 49.847656 7.753906 50.113281 7.347656 49.820312 C 6.289062 49.058594 5.347656 48.191406 5.085938 46.824219 C 5 46.390625 4.816406 46.015625 4.542969 45.660156 C 3.964844 44.902344 4.101562 44.371094 4.695312 43.628906 C 6.125 41.839844 7.691406 40.167969 9.140625 38.398438 C 9.722656 37.683594 10.292969 36.949219 10.96875 36.335938 C 11.777344 35.605469 11.699219 34.796875 11.410156 33.921875 C 11.054688 32.828125 10.660156 31.746094 10.285156 30.65625 C 9.871094 29.453125 9.566406 28.226562 9.378906 26.96875 C 9.324219 26.585938 9.242188 26.1875 8.980469 25.898438 C 8.269531 25.105469 8.292969 24.226562 8.535156 23.269531 C 8.902344 21.789062 9.433594 20.367188 10.019531 18.964844 C 10.347656 18.175781 10.449219 17.359375 10.484375 16.523438 C 10.554688 14.917969 10.367188 13.316406 10.382812 11.710938 C 10.386719 10.875 10.4375 10.046875 10.566406 9.21875 C 10.628906 8.828125 10.648438 8.4375 10.390625 8.066406 C 10.128906 7.691406 10.167969 7.296875 10.429688 6.894531 C 10.675781 6.519531 10.964844 6.167969 11.082031 5.714844 C 11.144531 5.464844 11.347656 5.375 11.574219 5.363281 C 12.125 5.339844 12.683594 5.300781 13.203125 5.542969 C 13.761719 5.808594 14.355469 5.828125 14.914062 5.636719 C 15.625 5.394531 15.925781 4.753906 15.992188 4.074219 C 16.101562 2.960938 16.503906 2.015625 17.25 1.195312 C 17.816406 0.574219 18.519531 0.222656 19.324219 0.0625 C 19.984375 -0.0703125 20.578125 0.121094 21.121094 0.507812 C 21.910156 1.070312 22.652344 1.695312 23.335938 2.386719 C 23.890625 2.949219 23.785156 3.464844 23.0625 3.800781 C 22.363281 4.132812 22.070312 4.722656 22.09375 5.449219 C 22.109375 5.917969 21.996094 6.238281 21.609375 6.503906 C 21.203125 6.777344 20.910156 7.152344 20.707031 7.617188 C 20.464844 8.164062 20.089844 8.253906 19.558594 7.957031 C 19.5 7.925781 19.449219 7.878906 19.390625 7.851562 C 19.179688 7.761719 18.941406 7.464844 18.753906 7.8125 C 18.589844 8.117188 18.488281 8.507812 18.859375 8.753906 C 19.273438 9.03125 19.734375 9.238281 20.167969 9.492188 C 20.8125 9.875 21.34375 10.347656 21.277344 11.191406 C 21.257812 11.417969 21.144531 11.636719 21.097656 11.863281 C 20.992188 12.386719 21.128906 12.511719 21.632812 12.371094 C 22.070312 12.25 22.40625 12.078125 22.542969 11.570312 C 22.730469 10.867188 23.109375 10.265625 23.742188 9.835938 C 24.132812 9.570312 24.09375 9.089844 24.117188 8.6875 C 24.160156 8.074219 24.25 7.574219 24.75 7.085938 C 25.074219 6.769531 25.339844 6.183594 25.175781 5.570312 C 24.964844 4.792969 25.152344 4.066406 25.621094 3.851562 C 26.269531 3.554688 26.8125 3.847656 27.3125 4.269531 C 27.511719 4.4375 27.671875 4.664062 27.96875 4.75 C 28.191406 4.507812 28.4375 4.296875 28.773438 4.207031 C 29.402344 4.035156 30.015625 3.867188 30.554688 4.410156 C 31.140625 5 31.507812 5.652344 31.21875 6.527344 C 31.050781 7.035156 30.949219 7.558594 30.914062 8.09375 C 30.867188 8.761719 30.527344 9.230469 29.992188 9.621094 C 29.507812 9.980469 28.910156 10.148438 28.480469 10.585938 C 27.824219 11.253906 27.792969 11.542969 28.320312 12.320312 C 28.359375 12.378906 28.402344 12.429688 28.441406 12.484375 C 28.753906 12.953125 29.09375 13.320312 29.738281 13 C 29.921875 12.910156 30.164062 12.925781 30.378906 12.914062 C 30.941406 12.882812 31.378906 13.234375 31.40625 13.78125 C 31.441406 14.464844 31.433594 15.15625 31.09375 15.78125 C 30.925781 16.097656 30.945312 16.371094 31.136719 16.671875 C 31.535156 17.289062 31.921875 17.925781 32.429688 18.453125 C 33.316406 19.371094 33.917969 20.464844 34.515625 21.566406 C 35.003906 22.464844 35.472656 23.371094 35.992188 24.246094 C 36.507812 25.109375 36.722656 26.066406 36.984375 27.011719 C 37.019531 27.140625 37.085938 27.324219 36.96875 27.390625 C 36.429688 27.679688 36.738281 28.042969 36.875 28.367188 C 37.230469 29.195312 37.578125 30.023438 37.871094 30.878906 C 38.175781 31.769531 38.859375 32.398438 39.605469 32.90625 C 41.648438 34.289062 43.886719 35.132812 46.378906 35.257812 C 47.40625 35.308594 48.007812 36.042969 48.097656 37.050781 C 48.199219 38.175781 47.714844 39.074219 47.144531 39.941406 C 45.675781 42.175781 43.726562 43.898438 41.378906 45.175781 C 39.996094 45.929688 38.582031 46.609375 37.09375 47.117188 C 36.265625 47.402344 35.566406 47.929688 34.765625 48.277344 C 34.039062 48.589844 33.273438 48.734375 32.535156 48.980469 C 31.492188 49.328125 30.40625 49.527344 29.386719 49.960938 C 26.722656 51.097656 23.941406 51.640625 21.042969 51.558594 C 20.761719 51.550781 20.476562 51.519531 20.199219 51.457031 C 19.761719 51.351562 19.378906 51.160156 19.257812 50.664062 C 19.21875 50.496094 19.105469 50.371094 18.957031 50.226562 M 29.40625 22.777344 C 29.710938 23.082031 30.003906 23.402344 30.246094 23.765625 C 30.417969 24.035156 30.640625 24.265625 30.9375 24.40625 C 31.445312 24.640625 31.851562 25.039062 32.03125 25.53125 C 32.394531 26.535156 33.296875 26.75 34.101562 27.109375 C 34.5 27.285156 34.722656 27.089844 34.777344 26.652344 C 34.820312 26.335938 34.8125 26.007812 34.90625 25.710938 C 35.039062 25.285156 34.910156 24.964844 34.636719 24.660156 C 34.246094 24.226562 33.886719 23.757812 33.453125 23.367188 C 31.972656 22.023438 30.652344 20.566406 29.71875 18.773438 C 29.304688 17.980469 29.074219 17.980469 28.292969 18.5 C 28.285156 18.675781 28.414062 18.824219 28.371094 19.019531 C 28.226562 19.707031 28.105469 20.402344 27.792969 21.03125 C 27.609375 21.402344 27.714844 21.570312 28.03125 21.742188 C 28.519531 22.003906 28.957031 22.339844 29.40625 22.777344 M 14.277344 42.492188 C 14.054688 43.636719 13.84375 44.785156 13.605469 45.925781 C 13.53125 46.28125 13.664062 46.511719 13.9375 46.6875 C 14.214844 46.867188 14.527344 46.902344 14.851562 46.894531 C 15.136719 46.890625 15.261719 46.757812 15.304688 46.476562 C 15.765625 43.445312 16.234375 40.417969 16.695312 37.386719 C 16.71875 37.226562 16.800781 37.027344 16.566406 36.851562 C 16.050781 37.511719 15.457031 38.097656 15.199219 38.921875 C 14.84375 40.070312 14.574219 41.242188 14.277344 42.492188 M 17.675781 25.292969 C 17.722656 25.621094 17.742188 25.957031 17.824219 26.277344 C 17.894531 26.554688 17.832031 26.75 17.648438 26.957031 C 17.171875 27.492188 17.234375 28.273438 17.78125 28.8125 C 18.046875 28.46875 17.988281 28.050781 18.050781 27.664062 C 18.226562 26.628906 18.59375 25.625 18.644531 24.574219 C 18.699219 23.464844 19.011719 22.480469 19.707031 21.617188 C 19.875 21.410156 19.789062 21.246094 19.601562 21.109375 C 19.238281 20.847656 18.855469 20.605469 18.507812 20.320312 C 18.101562 19.984375 18 20.015625 17.859375 20.523438 C 17.433594 22.070312 17.539062 23.632812 17.675781 25.292969 M 21.890625 15.242188 C 21.828125 14.875 21.613281 14.792969 21.273438 14.898438 C 20.933594 15.003906 20.742188 15.167969 20.785156 15.578125 C 20.902344 16.726562 21.695312 17.457031 22.382812 18.257812 C 22.445312 18.332031 22.550781 18.363281 22.679688 18.28125 C 22.832031 17.824219 22.683594 17.386719 22.507812 16.953125 C 22.292969 16.414062 21.980469 15.914062 21.890625 15.242188 Z M 21.890625 15.242188 " fill-opacity="1" fill-rule="nonzero"/></g></svg>