<svg xmlns="http://www.w3.org/2000/svg" xmlns:xlink="http://www.w3.org/1999/xlink" width="70" zoomAndPan="magnify" viewBox="0 0 52.5 52.499999" height="70" preserveAspectRatio="xMidYMid meet" version="1.0"><defs><clipPath id="bd1f4f060e"><path d="M 4.078125 1.65625 L 44.921875 1.65625 L 44.921875 50.339844 L 4.078125 50.339844 Z M 4.078125 1.65625 " clip-rule="nonzero"/></clipPath></defs><g clip-path="url(#bd1f4f060e)"><path fill="#f1cbcd" d="M 31.007812 3.109375 C 30.832031 2.945312 30.535156 2.960938 30.375 3.132812 L 27.203125 6.585938 C 27.121094 6.675781 27.078125 6.789062 27.085938 6.910156 C 27.089844 7.03125 27.140625 7.140625 27.230469 7.222656 C 27.3125 7.296875 27.417969 7.339844 27.53125 7.339844 C 27.65625 7.339844 27.777344 7.285156 27.863281 7.195312 L 31.035156 3.742188 C 31.203125 3.558594 31.191406 3.273438 31.007812 3.109375 Z M 18.667969 3.132812 C 18.507812 2.960938 18.210938 2.945312 18.035156 3.109375 C 17.851562 3.273438 17.839844 3.558594 18.007812 3.742188 L 21.179688 7.195312 C 21.265625 7.285156 21.382812 7.339844 21.511719 7.339844 C 21.621094 7.339844 21.730469 7.296875 21.8125 7.222656 C 21.902344 7.140625 21.953125 7.03125 21.957031 6.910156 C 21.964844 6.789062 21.921875 6.675781 21.839844 6.585938 Z M 24.519531 1.65625 C 24.273438 1.65625 24.074219 1.855469 24.074219 2.101562 L 24.074219 6.070312 C 24.074219 6.316406 24.273438 6.515625 24.519531 6.515625 C 24.769531 6.515625 24.96875 6.316406 24.96875 6.070312 L 24.96875 2.101562 C 24.96875 1.855469 24.769531 1.65625 24.519531 1.65625 Z M 31.785156 21.535156 C 30.355469 21.417969 29.085938 21.015625 28.390625 20.757812 C 28.910156 23.226562 29.777344 25.238281 30.972656 26.734375 C 31.488281 27.378906 32.921875 28.980469 33.992188 28.722656 C 35.066406 28.460938 35.609375 26.324219 35.761719 25.570312 C 36.023438 24.273438 36.027344 22.824219 35.789062 21.253906 C 35.175781 21.367188 33.347656 21.667969 31.785156 21.535156 Z M 37.707031 45.046875 C 38.246094 46.882812 37.25 47.40625 36.375 47.867188 C 36.246094 47.9375 36.109375 48.007812 35.976562 48.085938 C 35.347656 48.441406 34.761719 48.6875 33.648438 49.054688 C 33.316406 49.167969 33.234375 49.316406 33.210938 49.421875 L 44.183594 46.757812 C 44.117188 46.675781 44.015625 46.617188 43.816406 46.617188 C 43.757812 46.617188 43.695312 46.621094 43.628906 46.632812 C 42.65625 46.785156 42.054688 46.84375 41.488281 46.84375 C 41.363281 46.84375 41.238281 46.839844 41.113281 46.835938 C 40.957031 46.828125 40.804688 46.828125 40.660156 46.828125 C 39.667969 46.820312 38.546875 46.808594 38.183594 44.929688 L 35.320312 33.15625 C 34.894531 31.40625 34.914062 30.160156 35.378906 29.34375 C 36.019531 28.214844 36.429688 27.441406 36.765625 25.769531 C 37.195312 23.640625 37.003906 21.171875 36.203125 18.4375 C 35 14.320312 33.449219 10.574219 32.96875 9.445312 L 26.054688 11.125 C 26.148438 12.347656 26.488281 16.386719 27.308594 20.597656 C 27.851562 23.398438 28.816406 25.675781 30.171875 27.375 C 31.238281 28.703125 31.957031 29.203125 33.046875 29.910156 C 33.832031 30.421875 34.421875 31.519531 34.84375 33.269531 Z M 33.140625 50.339844 C 32.90625 50.339844 32.683594 50.25 32.53125 50.089844 C 32.425781 49.980469 32.296875 49.785156 32.308594 49.484375 C 32.316406 49.136719 32.46875 48.503906 33.363281 48.203125 C 34.550781 47.808594 35.027344 47.589844 35.53125 47.304688 C 35.675781 47.222656 35.820312 47.148438 35.957031 47.074219 C 36.820312 46.617188 37.179688 46.429688 36.84375 45.289062 C 36.839844 45.285156 36.839844 45.277344 36.835938 45.269531 L 33.972656 33.480469 C 33.609375 31.984375 33.132812 31.039062 32.554688 30.664062 C 31.390625 29.902344 30.597656 29.339844 29.472656 27.933594 C 28.023438 26.121094 26.996094 23.710938 26.425781 20.769531 C 25.4375 15.6875 25.136719 10.855469 25.132812 10.808594 C 25.121094 10.589844 25.265625 10.394531 25.476562 10.34375 L 33.125 8.484375 C 33.335938 8.433594 33.554688 8.539062 33.644531 8.738281 C 33.664062 8.785156 35.609375 13.214844 37.066406 18.183594 C 37.910156 21.0625 38.105469 23.671875 37.648438 25.949219 C 37.292969 27.714844 36.847656 28.578125 36.15625 29.789062 C 35.816406 30.386719 35.828125 31.445312 36.191406 32.941406 L 39.058594 44.730469 C 39.058594 44.738281 39.058594 44.742188 39.0625 44.75 C 39.285156 45.917969 39.691406 45.921875 40.667969 45.929688 C 40.824219 45.929688 40.984375 45.933594 41.148438 45.9375 C 41.785156 45.964844 42.363281 45.921875 43.488281 45.746094 C 44.183594 45.636719 44.726562 45.875 45.015625 46.398438 C 45.148438 46.636719 45.164062 46.894531 45.0625 47.125 C 44.957031 47.363281 44.734375 47.546875 44.476562 47.609375 L 33.339844 50.316406 C 33.277344 50.332031 33.207031 50.339844 33.140625 50.339844 Z M 13.417969 21.253906 C 13.179688 22.824219 13.183594 24.273438 13.445312 25.570312 C 13.59375 26.324219 14.136719 28.460938 15.214844 28.722656 C 16.285156 28.980469 17.71875 27.378906 18.234375 26.734375 C 19.429688 25.238281 20.296875 23.226562 20.816406 20.757812 C 20.121094 21.015625 18.851562 21.417969 17.421875 21.535156 C 15.859375 21.667969 14.03125 21.367188 13.417969 21.253906 Z M 5.023438 46.757812 L 15.992188 49.421875 C 15.972656 49.3125 15.886719 49.167969 15.558594 49.054688 C 14.445312 48.6875 13.859375 48.441406 13.230469 48.085938 C 13.09375 48.007812 12.960938 47.9375 12.832031 47.867188 C 11.957031 47.40625 10.960938 46.882812 11.5 45.046875 L 14.363281 33.269531 C 14.785156 31.519531 15.375 30.421875 16.160156 29.910156 C 17.25 29.203125 17.96875 28.703125 19.035156 27.375 C 20.390625 25.675781 21.355469 23.398438 21.898438 20.597656 C 22.71875 16.386719 23.058594 12.347656 23.152344 11.125 L 16.238281 9.445312 C 15.757812 10.574219 14.207031 14.320312 13 18.4375 C 12.199219 21.171875 12.011719 23.640625 12.441406 25.769531 C 12.777344 27.441406 13.1875 28.214844 13.828125 29.34375 C 14.292969 30.160156 14.3125 31.40625 13.886719 33.15625 L 11.023438 44.929688 C 10.660156 46.808594 9.539062 46.820312 8.546875 46.828125 C 8.398438 46.828125 8.25 46.828125 8.09375 46.835938 C 7.394531 46.863281 6.765625 46.816406 5.578125 46.632812 C 5.511719 46.621094 5.449219 46.617188 5.390625 46.617188 C 5.1875 46.617188 5.085938 46.679688 5.023438 46.757812 Z M 16.066406 50.339844 C 16 50.339844 15.929688 50.332031 15.867188 50.316406 L 4.730469 47.609375 C 4.472656 47.546875 4.246094 47.363281 4.144531 47.125 C 4.042969 46.894531 4.058594 46.636719 4.191406 46.398438 C 4.480469 45.875 5.023438 45.636719 5.71875 45.746094 C 6.84375 45.921875 7.421875 45.964844 8.054688 45.9375 C 8.222656 45.933594 8.382812 45.929688 8.539062 45.929688 C 9.515625 45.921875 9.921875 45.917969 10.144531 44.75 C 10.148438 44.742188 10.148438 44.738281 10.148438 44.730469 L 13.011719 32.941406 C 13.378906 31.445312 13.390625 30.386719 13.046875 29.789062 C 12.359375 28.578125 11.914062 27.714844 11.558594 25.949219 C 11.101562 23.671875 11.296875 21.058594 12.140625 18.183594 C 13.597656 13.214844 15.542969 8.785156 15.5625 8.738281 C 15.652344 8.539062 15.871094 8.433594 16.082031 8.484375 L 23.730469 10.34375 C 23.941406 10.394531 24.085938 10.589844 24.074219 10.808594 C 24.070312 10.855469 23.765625 15.6875 22.78125 20.769531 C 22.210938 23.710938 21.183594 26.121094 19.734375 27.933594 C 18.609375 29.339844 17.816406 29.902344 16.648438 30.664062 C 16.074219 31.039062 15.597656 31.984375 15.234375 33.480469 L 12.371094 45.269531 C 12.367188 45.277344 12.367188 45.285156 12.363281 45.289062 C 12.027344 46.429688 12.386719 46.617188 13.25 47.074219 C 13.386719 47.148438 13.53125 47.222656 13.675781 47.304688 C 14.179688 47.589844 14.65625 47.808594 15.839844 48.203125 C 16.738281 48.503906 16.890625 49.136719 16.898438 49.484375 C 16.910156 49.785156 16.78125 49.980469 16.675781 50.089844 C 16.523438 50.25 16.300781 50.339844 16.066406 50.339844 " fill-opacity="1" fill-rule="nonzero"/></g></svg>