<svg xmlns="http://www.w3.org/2000/svg" xmlns:xlink="http://www.w3.org/1999/xlink" width="70" zoomAndPan="magnify" viewBox="0 0 52.5 52.499999" height="70" preserveAspectRatio="xMidYMid meet" version="1.0"><defs><clipPath id="99fb203721"><path d="M 1.125 33 L 50.902344 33 L 50.902344 39.816406 L 1.125 39.816406 Z M 1.125 33 " clip-rule="nonzero"/></clipPath><clipPath id="31daab294d"><path d="M 2 8.613281 L 50 8.613281 L 50 35 L 2 35 Z M 2 8.613281 " clip-rule="nonzero"/></clipPath></defs><g clip-path="url(#99fb203721)"><path fill="#ffffff" d="M 4.351562 39.292969 C 2.855469 39.292969 1.636719 38.078125 1.636719 36.582031 C 1.636719 35.085938 2.855469 33.871094 4.351562 33.871094 L 47.667969 33.871094 C 49.164062 33.871094 50.378906 35.085938 50.378906 36.582031 C 50.378906 38.078125 49.164062 39.292969 47.667969 39.292969 L 4.351562 39.292969 " fill-opacity="1" fill-rule="nonzero"/><path fill="#f1cbcd" d="M 47.667969 33.394531 L 4.351562 33.394531 C 2.59375 33.394531 1.160156 34.824219 1.160156 36.582031 C 1.160156 38.339844 2.59375 39.773438 4.351562 39.773438 L 47.667969 39.773438 C 49.425781 39.773438 50.855469 38.339844 50.855469 36.582031 C 50.855469 34.824219 49.425781 33.394531 47.667969 33.394531 Z M 47.667969 34.347656 C 48.902344 34.347656 49.902344 35.347656 49.902344 36.582031 C 49.902344 37.816406 48.902344 38.816406 47.667969 38.816406 L 4.351562 38.816406 C 3.117188 38.816406 2.117188 37.816406 2.117188 36.582031 C 2.117188 35.347656 3.117188 34.347656 4.351562 34.347656 L 47.667969 34.347656 " fill-opacity="1" fill-rule="nonzero"/></g><path fill="#ffffff" d="M 4.925781 34.4375 C 4.097656 34.4375 3.421875 33.765625 3.421875 32.9375 C 3.421875 32.394531 3.707031 31.90625 4.160156 31.640625 C 4.414062 26.976562 6.515625 22.550781 10.09375 19.148438 C 13.558594 15.851562 18.167969 13.734375 23.144531 13.148438 C 23.027344 12.824219 22.96875 12.480469 22.96875 12.128906 C 22.96875 10.453125 24.332031 9.089844 26.007812 9.089844 C 27.683594 9.089844 29.050781 10.453125 29.050781 12.128906 C 29.050781 12.480469 28.988281 12.824219 28.875 13.148438 C 33.839844 13.734375 38.449219 15.847656 41.914062 19.136719 C 45.480469 22.523438 47.582031 26.929688 47.855469 31.574219 C 48.375 31.8125 48.722656 32.335938 48.722656 32.9375 C 48.722656 33.765625 48.050781 34.4375 47.21875 34.4375 L 4.925781 34.4375 " fill-opacity="1" fill-rule="nonzero"/><g clip-path="url(#31daab294d)"><path fill="#f1cbcd" d="M 26.007812 8.613281 C 24.070312 8.613281 22.492188 10.191406 22.492188 12.128906 C 22.492188 12.339844 22.507812 12.542969 22.542969 12.746094 C 17.675781 13.429688 13.175781 15.554688 9.761719 18.800781 C 6.15625 22.230469 4.015625 26.679688 3.695312 31.378906 C 3.230469 31.746094 2.945312 32.3125 2.945312 32.9375 C 2.945312 34.027344 3.835938 34.914062 4.925781 34.914062 L 47.21875 34.914062 C 48.3125 34.914062 49.199219 34.027344 49.199219 32.9375 C 49.199219 32.25 48.851562 31.640625 48.3125 31.285156 C 47.972656 26.613281 45.828125 22.199219 42.242188 18.789062 C 38.832031 15.550781 34.335938 13.429688 29.472656 12.746094 C 29.507812 12.542969 29.527344 12.339844 29.527344 12.128906 C 29.527344 10.191406 27.949219 8.613281 26.007812 8.613281 Z M 26.007812 9.566406 C 27.425781 9.566406 28.570312 10.714844 28.570312 12.128906 C 28.570312 12.65625 28.414062 13.148438 28.140625 13.554688 C 38.703125 14.492188 47.011719 22.300781 47.394531 31.925781 C 47.875 32.007812 48.246094 32.429688 48.246094 32.9375 C 48.246094 33.503906 47.785156 33.960938 47.21875 33.960938 L 4.925781 33.960938 C 4.359375 33.960938 3.902344 33.503906 3.902344 32.9375 C 3.902344 32.476562 4.203125 32.085938 4.621094 31.957031 C 4.988281 22.320312 13.300781 14.492188 23.878906 13.554688 C 23.605469 13.148438 23.445312 12.65625 23.445312 12.128906 C 23.445312 10.714844 24.59375 9.566406 26.007812 9.566406 " fill-opacity="1" fill-rule="nonzero"/></g><path fill="#ffffff" d="M 23.445312 12.128906 C 23.445312 13.546875 24.59375 14.695312 26.007812 14.695312 C 27.425781 14.695312 28.570312 13.546875 28.570312 12.128906 C 28.570312 10.714844 27.425781 9.566406 26.007812 9.566406 C 24.59375 9.566406 23.445312 10.714844 23.445312 12.128906 " fill-opacity="1" fill-rule="nonzero"/><path fill="#f1cbcd" d="M 23.445312 12.128906 L 23.378906 12.128906 C 23.378906 13.582031 24.554688 14.761719 26.007812 14.761719 C 27.460938 14.761719 28.640625 13.582031 28.640625 12.128906 C 28.640625 10.675781 27.460938 9.5 26.007812 9.5 C 24.554688 9.5 23.378906 10.675781 23.378906 12.128906 L 23.511719 12.128906 C 23.511719 11.441406 23.792969 10.816406 24.242188 10.367188 C 24.695312 9.914062 25.320312 9.636719 26.007812 9.636719 C 26.699219 9.636719 27.320312 9.914062 27.773438 10.367188 C 28.222656 10.816406 28.503906 11.441406 28.503906 12.128906 C 28.503906 12.820312 28.222656 13.441406 27.773438 13.894531 C 27.320312 14.347656 26.699219 14.625 26.007812 14.625 C 25.320312 14.625 24.695312 14.347656 24.242188 13.894531 C 23.792969 13.441406 23.511719 12.820312 23.511719 12.128906 L 23.445312 12.128906 " fill-opacity="1" fill-rule="nonzero"/><path fill="#ffffff" d="M 27.90625 13.53125 L 24.113281 13.53125 C 13.207031 14.390625 4.648438 22.570312 4.609375 32.554688 L 47.410156 32.554688 C 47.371094 22.570312 38.8125 14.390625 27.90625 13.53125 " fill-opacity="1" fill-rule="nonzero"/><path fill="#f1cbcd" d="M 27.90625 13.53125 L 27.90625 13.464844 L 24.105469 13.464844 C 18.636719 13.894531 13.757812 16.160156 10.238281 19.574219 C 6.71875 22.984375 4.558594 27.542969 4.539062 32.554688 C 4.539062 32.570312 4.546875 32.589844 4.558594 32.601562 C 4.574219 32.613281 4.589844 32.621094 4.609375 32.621094 L 47.410156 32.621094 C 47.425781 32.621094 47.445312 32.613281 47.457031 32.601562 C 47.46875 32.589844 47.476562 32.570312 47.476562 32.554688 C 47.457031 27.542969 45.296875 22.984375 41.777344 19.574219 C 38.257812 16.160156 33.378906 13.894531 27.910156 13.464844 L 27.90625 13.464844 L 27.90625 13.53125 L 27.898438 13.601562 C 33.335938 14.027344 38.1875 16.28125 41.683594 19.671875 C 45.179688 23.058594 47.320312 27.582031 47.339844 32.554688 L 47.410156 32.554688 L 47.410156 32.484375 L 4.609375 32.484375 L 4.609375 32.554688 L 4.675781 32.554688 C 4.695312 27.582031 6.835938 23.058594 10.332031 19.671875 C 13.828125 16.28125 18.679688 14.027344 24.117188 13.601562 L 24.113281 13.53125 L 24.113281 13.601562 L 27.90625 13.601562 L 27.90625 13.53125 L 27.898438 13.601562 L 27.90625 13.53125 " fill-opacity="1" fill-rule="nonzero"/><path fill="#ffffff" d="M 49.902344 36.582031 C 49.902344 37.816406 48.902344 38.816406 47.667969 38.816406 L 4.351562 38.816406 C 3.117188 38.816406 2.117188 37.816406 2.117188 36.582031 C 2.117188 35.347656 3.117188 34.347656 4.351562 34.347656 L 47.667969 34.347656 C 48.902344 34.347656 49.902344 35.347656 49.902344 36.582031 " fill-opacity="1" fill-rule="nonzero"/><path fill="#f1cbcd" d="M 49.902344 36.582031 L 49.832031 36.582031 C 49.832031 37.179688 49.589844 37.722656 49.199219 38.113281 C 48.804688 38.507812 48.265625 38.75 47.667969 38.75 L 4.351562 38.75 C 3.75 38.75 3.210938 38.507812 2.816406 38.113281 C 2.425781 37.722656 2.183594 37.179688 2.183594 36.582031 C 2.183594 35.984375 2.425781 35.441406 2.816406 35.050781 C 3.210938 34.660156 3.75 34.414062 4.351562 34.414062 L 47.667969 34.414062 C 48.265625 34.414062 48.804688 34.660156 49.199219 35.050781 C 49.589844 35.441406 49.832031 35.984375 49.832031 36.582031 L 49.96875 36.582031 C 49.96875 35.308594 48.9375 34.28125 47.667969 34.28125 L 4.351562 34.28125 C 3.078125 34.28125 2.046875 35.308594 2.046875 36.582031 C 2.046875 37.855469 3.078125 38.886719 4.351562 38.886719 L 47.667969 38.886719 C 48.9375 38.886719 49.96875 37.855469 49.96875 36.582031 L 49.902344 36.582031 " fill-opacity="1" fill-rule="nonzero"/><path fill="#ffffff" d="M 3.902344 32.9375 C 3.902344 33.503906 4.359375 33.960938 4.925781 33.960938 L 47.21875 33.960938 C 47.785156 33.960938 48.246094 33.503906 48.246094 32.9375 C 48.246094 32.371094 47.785156 31.910156 47.21875 31.910156 L 4.925781 31.910156 C 4.359375 31.910156 3.902344 32.371094 3.902344 32.9375 " fill-opacity="1" fill-rule="nonzero"/><path fill="#f1cbcd" d="M 3.902344 32.9375 L 3.832031 32.9375 C 3.832031 33.539062 4.324219 34.027344 4.925781 34.027344 L 47.21875 34.027344 C 47.824219 34.027344 48.3125 33.539062 48.3125 32.9375 C 48.3125 32.332031 47.824219 31.84375 47.21875 31.84375 L 4.925781 31.84375 C 4.324219 31.84375 3.832031 32.332031 3.832031 32.9375 L 3.96875 32.9375 C 3.96875 32.671875 4.078125 32.433594 4.25 32.257812 C 4.421875 32.085938 4.660156 31.980469 4.925781 31.976562 L 47.21875 31.976562 C 47.484375 31.980469 47.722656 32.085938 47.898438 32.257812 C 48.070312 32.433594 48.175781 32.671875 48.175781 32.9375 C 48.175781 33.199219 48.070312 33.4375 47.898438 33.613281 C 47.722656 33.785156 47.484375 33.894531 47.21875 33.894531 L 4.925781 33.894531 C 4.660156 33.894531 4.421875 33.785156 4.25 33.613281 C 4.078125 33.4375 3.96875 33.199219 3.96875 32.9375 L 3.902344 32.9375 " fill-opacity="1" fill-rule="nonzero"/></svg>