<svg xmlns="http://www.w3.org/2000/svg" xmlns:xlink="http://www.w3.org/1999/xlink" width="200" zoomAndPan="magnify" viewBox="0 0 150 30.000001" height="40" preserveAspectRatio="xMidYMid meet" version="1.0"><defs><clipPath id="8c4504890d"><path d="M 7.96875 6.125 L 141.34375 6.125 L 141.34375 19.917969 L 7.96875 19.917969 Z M 7.96875 6.125 " clip-rule="nonzero"/></clipPath></defs><g clip-path="url(#8c4504890d)"><path fill="#eed0d2" d="M 11.035156 19.320312 C 12.410156 18.792969 14.671875 15.871094 14.851562 14.414062 C 14.925781 14.390625 15 14.351562 15.066406 14.292969 C 15.121094 14.246094 20.914062 9.257812 27.4375 9.136719 C 29.40625 9.101562 31.777344 9.703125 34.464844 10.585938 C 31.742188 10.433594 27.957031 10.585938 27.300781 12.261719 C 26.480469 14.363281 29.449219 15.851562 31.976562 14.464844 C 33.796875 13.460938 36.042969 12.164062 36.945312 11.441406 C 37.613281 11.679688 38.289062 11.925781 38.984375 12.175781 C 43.980469 13.988281 49.589844 16.019531 55.21875 16.5 C 52.714844 16.664062 50.554688 16.949219 50.554688 18.042969 C 50.554688 19.828125 55.78125 20.113281 56.871094 19.8125 C 59.339844 19.140625 61.28125 17.375 61.855469 16.417969 C 69.339844 15.644531 73.882812 12.796875 74.675781 12.265625 C 75.46875 12.796875 80.011719 15.644531 87.5 16.417969 C 88.074219 17.375 90.011719 19.140625 92.480469 19.8125 C 93.574219 20.113281 98.800781 19.828125 98.800781 18.042969 C 98.800781 16.949219 96.636719 16.664062 94.136719 16.5 C 99.765625 16.019531 105.371094 13.988281 110.367188 12.175781 C 111.0625 11.925781 111.742188 11.679688 112.40625 11.441406 C 113.3125 12.164062 115.554688 13.460938 117.375 14.464844 C 119.902344 15.851562 122.875 14.363281 122.050781 12.261719 C 121.394531 10.585938 117.617188 10.433594 114.890625 10.585938 C 117.578125 9.707031 119.949219 9.105469 121.914062 9.136719 C 128.425781 9.257812 134.230469 14.246094 134.289062 14.292969 C 134.34375 14.34375 134.40625 14.375 134.46875 14.402344 C 134.691406 15.871094 136.917969 18.734375 138.277344 19.257812 C 139.921875 19.890625 142.144531 17.78125 141.058594 15.558594 C 140.402344 14.21875 136.730469 13.144531 135.171875 13.449219 C 135.148438 13.421875 135.125 13.394531 135.097656 13.367188 C 134.949219 13.238281 132.761719 11.355469 129.535156 9.839844 C 130.136719 9.941406 130.625 10.015625 130.898438 10.039062 C 132.289062 10.167969 134.183594 8.902344 134.058594 7.261719 C 133.914062 5.371094 129.761719 5.996094 127.738281 6.753906 C 126.558594 7.195312 125.039062 7.722656 123.972656 8.085938 C 123.308594 7.984375 122.628906 7.921875 121.9375 7.910156 C 121.875 7.910156 121.808594 7.90625 121.746094 7.90625 C 118.539062 7.90625 114.550781 9.351562 109.949219 11.019531 C 107.800781 11.800781 105.53125 12.621094 103.207031 13.339844 C 104.507812 12.625 105.929688 11.769531 106.886719 11.050781 C 108.910156 9.535156 107.722656 6.105469 104.804688 7.722656 C 102.773438 8.84375 100.652344 12.671875 100.140625 14.203125 C 97.640625 14.835938 95.101562 15.28125 92.585938 15.367188 C 88.628906 15.5 85.25 14.976562 82.554688 14.253906 C 84.546875 14.210938 85.816406 13.722656 86.5 13.242188 C 87.574219 12.484375 87.851562 11.054688 86.414062 10.539062 C 85.234375 10.121094 83.804688 11.21875 81.78125 11.808594 C 80.136719 12.289062 77.171875 11.710938 76.050781 11.664062 C 75.554688 11.375 75.285156 11.191406 75.273438 11.183594 C 75.089844 11.054688 74.867188 11.039062 74.675781 11.121094 C 74.488281 11.039062 74.261719 11.054688 74.082031 11.183594 C 74.070312 11.191406 73.800781 11.375 73.304688 11.664062 C 72.183594 11.710938 69.21875 12.289062 67.570312 11.808594 C 65.550781 11.21875 64.117188 10.121094 62.9375 10.539062 C 61.5 11.054688 61.78125 12.484375 62.855469 13.242188 C 63.539062 13.722656 64.8125 14.210938 66.808594 14.257812 C 64.109375 14.976562 60.730469 15.503906 56.765625 15.367188 C 54.25 15.28125 51.710938 14.835938 49.210938 14.203125 C 48.699219 12.671875 46.578125 8.84375 44.550781 7.722656 C 41.632812 6.105469 40.445312 9.535156 42.464844 11.050781 C 43.425781 11.769531 44.847656 12.625 46.148438 13.339844 C 43.820312 12.621094 41.554688 11.800781 39.402344 11.019531 C 34.800781 9.351562 30.8125 7.90625 27.609375 7.90625 C 27.542969 7.90625 27.480469 7.910156 27.417969 7.910156 C 26.726562 7.921875 26.046875 7.984375 25.378906 8.085938 C 24.316406 7.722656 22.792969 7.195312 21.613281 6.753906 C 19.59375 5.996094 15.441406 5.371094 15.296875 7.261719 C 15.167969 8.902344 17.066406 10.167969 18.457031 10.039062 C 18.730469 10.015625 19.214844 9.941406 19.820312 9.839844 C 16.59375 11.355469 14.40625 13.238281 14.257812 13.367188 C 14.207031 13.410156 14.171875 13.460938 14.140625 13.511719 C 12.582031 13.210938 8.910156 14.28125 8.253906 15.621094 C 7.167969 17.84375 9.390625 19.953125 11.035156 19.320312 " fill-opacity="1" fill-rule="nonzero"/></g></svg>