<svg xmlns="http://www.w3.org/2000/svg" xmlns:xlink="http://www.w3.org/1999/xlink" width="70" zoomAndPan="magnify" viewBox="0 0 52.5 52.499999" height="70" preserveAspectRatio="xMidYMid meet" version="1.2"><defs><clipPath id="4edacf41ff"><path d="M 7.789062 5.199219 L 44.191406 5.199219 L 44.191406 44.574219 L 7.789062 44.574219 Z M 7.789062 5.199219 "/></clipPath></defs><g id="8adaa67794"><g clip-rule="nonzero" clip-path="url(#4edacf41ff)"><path style=" stroke:none;fill-rule:nonzero;fill:#ff9a00;fill-opacity:1;" d="M 25.695312 37.8125 C 25.851562 37.976562 26.125 37.976562 26.285156 37.8125 L 30.710938 33.398438 C 33.6875 30.152344 29.011719 25.839844 25.996094 29.058594 C 24.074219 26.824219 20.332031 28.179688 20.347656 31.140625 C 20.347656 32 20.683594 32.800781 21.289062 33.40625 Z M 21.863281 29.457031 C 22.75 28.539062 24.335938 28.539062 25.222656 29.457031 C 25.222656 29.457031 25.695312 29.933594 25.695312 29.933594 C 25.851562 30.09375 26.125 30.09375 26.277344 29.933594 C 26.828125 29.304688 27.554688 28.722656 28.4375 28.761719 C 30.511719 28.722656 31.621094 31.378906 30.121094 32.824219 C 30.121094 32.824219 25.988281 36.949219 25.988281 36.949219 L 21.863281 32.816406 C 20.929688 31.9375 20.929688 30.34375 21.863281 29.457031 Z M 43.757812 41.671875 L 41.453125 41.671875 L 41.453125 39.160156 C 41.851562 39.152344 42.609375 39.285156 42.59375 38.695312 L 41.507812 26.542969 C 41.875 26.550781 42.570312 26.71875 42.59375 26.152344 C 42.59375 26.152344 42.59375 17.023438 42.59375 17.023438 L 43.757812 17.023438 C 43.984375 17.023438 44.167969 16.839844 44.167969 16.609375 L 44.167969 14.246094 C 44.152344 14.09375 44.085938 13.945312 43.941406 13.878906 L 26.164062 5.253906 C 26.050781 5.199219 25.917969 5.199219 25.804688 5.253906 L 8.035156 13.886719 C 7.898438 13.953125 7.8125 14.101562 7.804688 14.253906 L 7.804688 16.617188 C 7.804688 16.847656 7.988281 17.03125 8.21875 17.03125 L 9.382812 17.03125 L 9.382812 26.160156 C 9.40625 26.726562 10.101562 26.550781 10.46875 26.550781 L 9.382812 38.703125 C 9.367188 39.289062 10.132812 39.160156 10.523438 39.167969 L 10.523438 41.679688 L 8.21875 41.679688 C 7.988281 41.679688 7.804688 41.863281 7.804688 42.089844 L 7.804688 43.835938 C 7.804688 44.066406 7.988281 44.25 8.21875 44.25 L 43.765625 44.25 C 43.992188 44.25 44.175781 44.066406 44.175781 43.835938 L 44.175781 42.089844 C 44.167969 41.855469 43.984375 41.671875 43.757812 41.671875 Z M 41.734375 38.351562 C 40.703125 38.371094 39.585938 38.105469 38.699219 37.578125 L 38.699219 25.945312 C 39.339844 26.175781 40 26.359375 40.671875 26.457031 Z M 40.632812 39.101562 L 40.632812 41.671875 L 39.839844 41.671875 L 39.839844 38.929688 C 40.097656 39.007812 40.367188 39.054688 40.632812 39.101562 Z M 14.097656 35.570312 C 14.839844 35.351562 15.542969 35.035156 16.183594 34.628906 C 16.628906 34.347656 17.042969 34.027344 17.433594 33.652344 C 17.523438 33.566406 17.570312 33.445312 17.5625 33.316406 L 17.242188 29.632812 C 18.273438 29.226562 19.628906 27.851562 19.734375 26.558594 C 19.734375 26.558594 18.601562 21.246094 18.601562 21.246094 C 19.285156 19.945312 19.675781 18.5 19.734375 17.03125 L 32.246094 17.03125 C 32.308594 18.5 32.691406 19.945312 33.378906 21.246094 L 32.246094 26.558594 C 32.355469 27.851562 33.707031 29.226562 34.742188 29.632812 L 34.421875 33.316406 C 34.414062 33.4375 34.457031 33.558594 34.550781 33.652344 C 35.5 34.5625 36.632812 35.195312 37.894531 35.570312 L 37.894531 37.804688 C 37.941406 38.289062 38.667969 38.425781 39.035156 38.640625 L 39.035156 41.671875 L 12.957031 41.671875 L 12.957031 38.640625 C 13.292969 38.441406 14.058594 38.28125 14.097656 37.804688 C 14.097656 37.804688 14.097656 35.570312 14.097656 35.570312 Z M 16.726562 33.191406 C 15.964844 33.882812 15.074219 34.394531 14.097656 34.722656 L 14.097656 25.59375 C 14.761719 25.28125 15.382812 24.882812 15.964844 24.429688 C 16.175781 26.894531 16.515625 30.710938 16.726562 33.191406 Z M 16.726562 23.757812 C 17.195312 23.304688 17.601562 22.800781 17.984375 22.28125 L 18.910156 26.625 C 18.671875 27.492188 17.90625 28.386719 17.164062 28.761719 C 17.066406 27.652344 16.820312 24.835938 16.726562 23.757812 Z M 35.214844 24.046875 L 34.804688 28.753906 C 34.074219 28.394531 33.296875 27.492188 33.058594 26.625 C 33.058594 26.625 33.984375 22.28125 33.984375 22.28125 C 34.367188 22.800781 34.773438 23.304688 35.238281 23.757812 Z M 35.574219 29.410156 C 35.574219 29.410156 35.980469 24.746094 35.980469 24.746094 L 36.011719 24.429688 C 36.59375 24.882812 37.214844 25.28125 37.878906 25.59375 L 37.878906 34.714844 C 36.898438 34.394531 36.011719 33.882812 35.246094 33.183594 Z M 41.773438 25.746094 C 37.183594 25.617188 33.179688 21.644531 33.058594 17.039062 L 36.464844 17.039062 C 36.570312 20.527344 38.675781 23.839844 41.773438 25.433594 Z M 41.773438 24.492188 C 39.148438 22.96875 37.390625 20.078125 37.28125 17.03125 L 41.773438 17.03125 Z M 25.988281 6.082031 L 41.972656 13.839844 L 10.003906 13.839844 Z M 8.625 16.210938 L 8.625 14.667969 L 43.34375 14.667969 L 43.34375 16.210938 Z M 14.691406 17.03125 C 14.578125 20.078125 12.832031 22.960938 10.203125 24.492188 L 10.203125 17.03125 Z M 10.203125 25.746094 L 10.203125 25.433594 C 13.308594 23.832031 15.40625 20.535156 15.511719 17.039062 L 18.917969 17.039062 C 18.792969 21.636719 14.792969 25.609375 10.203125 25.746094 Z M 10.238281 38.351562 L 11.296875 26.457031 C 11.96875 26.359375 12.632812 26.175781 13.277344 25.945312 C 13.277344 27.660156 13.277344 36.046875 13.277344 37.578125 C 12.351562 38.113281 11.3125 38.363281 10.238281 38.351562 Z M 12.128906 38.9375 L 12.128906 41.679688 L 11.339844 41.679688 L 11.339844 39.105469 C 11.609375 39.054688 11.878906 39.007812 12.128906 38.9375 Z M 43.351562 43.421875 L 8.625 43.421875 L 8.625 42.496094 L 43.34375 42.496094 L 43.34375 43.421875 Z M 33.21875 11.421875 L 26.171875 7.992188 C 26.054688 7.941406 25.925781 7.941406 25.8125 7.992188 L 18.765625 11.421875 C 18.382812 11.597656 18.519531 12.21875 18.941406 12.203125 C 18.941406 12.203125 33.042969 12.203125 33.042969 12.203125 C 33.457031 12.21875 33.609375 11.597656 33.21875 11.421875 Z M 20.722656 11.382812 L 25.988281 8.828125 L 31.253906 11.382812 Z M 20.722656 11.382812 "/></g></g></svg>