<svg xmlns="http://www.w3.org/2000/svg" xmlns:xlink="http://www.w3.org/1999/xlink" width="70" zoomAndPan="magnify" viewBox="0 0 52.5 52.499999" height="70" preserveAspectRatio="xMidYMid meet" version="1.2"><defs><clipPath id="ae973d97d1"><path d="M 2.710938 10.28125 L 49 10.28125 L 49 41.484375 L 2.710938 41.484375 Z M 2.710938 10.28125 "/></clipPath></defs><g id="6857429d6d"><g clip-rule="nonzero" clip-path="url(#ae973d97d1)"><path style=" stroke:none;fill-rule:nonzero;fill:#ff9a00;fill-opacity:1;" d="M 5.894531 41.484375 L 45.757812 41.484375 C 47.503906 41.484375 48.921875 40.066406 48.921875 38.324219 L 48.921875 17.613281 C 48.921875 15.867188 47.503906 14.449219 45.757812 14.449219 L 42.773438 14.449219 L 42.066406 12.414062 C 41.917969 11.980469 41.523438 11.699219 41.0625 11.699219 C 40.601562 11.699219 40.210938 11.980469 40.058594 12.414062 L 39.351562 14.449219 L 33.960938 14.449219 L 33.035156 11.726562 C 32.742188 10.863281 31.933594 10.28125 31.019531 10.28125 L 20.632812 10.28125 C 19.71875 10.28125 18.910156 10.863281 18.617188 11.726562 L 17.691406 14.449219 L 11.703125 14.449219 L 11.703125 13.117188 C 11.703125 12.351562 11.085938 11.734375 10.320312 11.734375 L 7.425781 11.734375 C 6.660156 11.734375 6.039062 12.351562 6.039062 13.117188 L 6.039062 14.449219 L 5.894531 14.449219 C 4.148438 14.449219 2.730469 15.867188 2.730469 17.613281 L 2.730469 38.324219 C 2.730469 40.066406 4.148438 41.484375 5.894531 41.484375 Z M 48.21875 35.917969 L 34.246094 35.917969 C 36.207031 33.839844 37.410156 31.042969 37.410156 27.96875 C 37.410156 24.957031 36.257812 22.210938 34.367188 20.148438 L 39.441406 20.148438 L 40.058594 21.925781 C 40.210938 22.359375 40.601562 22.640625 41.0625 22.640625 C 41.523438 22.640625 41.917969 22.359375 42.066406 21.925781 L 42.683594 20.148438 L 48.21875 20.148438 Z M 25.824219 38.851562 C 19.824219 38.851562 14.941406 33.96875 14.941406 27.96875 C 14.941406 21.96875 19.824219 17.085938 25.824219 17.085938 C 31.828125 17.085938 36.710938 21.96875 36.710938 27.96875 C 36.710938 33.96875 31.828125 38.851562 25.824219 38.851562 Z M 45.757812 15.152344 C 47.113281 15.152344 48.21875 16.257812 48.21875 17.613281 L 48.21875 19.445312 L 42.925781 19.445312 L 43.0625 19.054688 L 44.949219 18.125 C 45.316406 17.945312 45.542969 17.578125 45.542969 17.171875 C 45.542969 16.761719 45.316406 16.398438 44.949219 16.21875 L 43.0625 15.285156 L 43.015625 15.152344 Z M 39.503906 15.851562 C 39.585938 15.8125 39.648438 15.742188 39.679688 15.652344 L 40.722656 12.644531 C 40.800781 12.421875 41.003906 12.402344 41.0625 12.402344 C 41.121094 12.402344 41.324219 12.421875 41.402344 12.644531 L 42.445312 15.652344 C 42.476562 15.742188 42.539062 15.8125 42.621094 15.851562 L 44.636719 16.847656 C 44.765625 16.910156 44.839844 17.03125 44.839844 17.171875 C 44.839844 17.3125 44.765625 17.433594 44.636719 17.492188 L 42.621094 18.488281 C 42.539062 18.53125 42.476562 18.601562 42.445312 18.6875 L 41.402344 21.695312 C 41.324219 21.921875 41.121094 21.9375 41.0625 21.9375 C 41.003906 21.9375 40.800781 21.921875 40.722656 21.695312 L 39.679688 18.6875 C 39.648438 18.601562 39.585938 18.53125 39.503906 18.488281 L 37.488281 17.492188 C 37.363281 17.433594 37.285156 17.3125 37.285156 17.171875 C 37.285156 17.03125 37.363281 16.910156 37.488281 16.847656 Z M 19.28125 11.953125 C 19.476562 11.371094 20.019531 10.984375 20.632812 10.984375 L 31.019531 10.984375 C 31.628906 10.984375 32.175781 11.371094 32.371094 11.953125 L 33.21875 14.449219 L 18.433594 14.449219 Z M 6.742188 13.117188 C 6.742188 12.742188 7.050781 12.433594 7.425781 12.433594 L 10.320312 12.433594 C 10.695312 12.433594 11.003906 12.742188 11.003906 13.117188 L 11.003906 14.449219 L 6.742188 14.449219 Z M 3.433594 17.613281 C 3.433594 16.257812 4.535156 15.152344 5.894531 15.152344 L 39.109375 15.152344 L 39.0625 15.285156 L 37.175781 16.21875 C 36.8125 16.398438 36.585938 16.761719 36.585938 17.171875 C 36.585938 17.578125 36.8125 17.945312 37.175781 18.125 L 39.0625 19.054688 L 39.199219 19.445312 L 33.667969 19.445312 C 31.601562 17.546875 28.847656 16.382812 25.824219 16.382812 C 22.804688 16.382812 20.050781 17.546875 17.984375 19.445312 L 3.433594 19.445312 Z M 3.433594 20.148438 L 17.285156 20.148438 C 15.394531 22.210938 14.238281 24.957031 14.238281 27.96875 C 14.238281 31.042969 15.445312 33.839844 17.402344 35.917969 L 3.433594 35.917969 Z M 3.433594 36.617188 L 18.128906 36.617188 C 20.175781 38.441406 22.875 39.554688 25.824219 39.554688 C 28.777344 39.554688 31.476562 38.441406 33.523438 36.617188 L 48.21875 36.617188 L 48.21875 38.324219 C 48.21875 39.679688 47.113281 40.785156 45.757812 40.785156 L 5.894531 40.785156 C 4.535156 40.785156 3.433594 39.679688 3.433594 38.324219 Z M 3.433594 36.617188 "/></g><path style=" stroke:none;fill-rule:nonzero;fill:#ff9a00;fill-opacity:1;" d="M 25.824219 19.078125 C 20.921875 19.078125 16.933594 23.066406 16.933594 27.96875 C 16.933594 32.871094 20.921875 36.859375 25.824219 36.859375 C 30.730469 36.859375 34.71875 32.871094 34.71875 27.96875 C 34.71875 23.066406 30.730469 19.078125 25.824219 19.078125 Z M 25.824219 36.15625 C 21.308594 36.15625 17.636719 32.484375 17.636719 27.96875 C 17.636719 23.453125 21.308594 19.777344 25.824219 19.777344 C 30.339844 19.777344 34.015625 23.453125 34.015625 27.96875 C 34.015625 32.484375 30.339844 36.15625 25.824219 36.15625 Z M 25.824219 36.15625 "/><path style=" stroke:none;fill-rule:nonzero;fill:#ff9a00;fill-opacity:1;" d="M 28.566406 24.035156 C 27.921875 24.003906 27.257812 24.234375 26.640625 24.695312 C 26.242188 24.996094 25.890625 25.347656 25.621094 25.71875 C 25.347656 25.347656 24.996094 24.996094 24.597656 24.695312 C 23.984375 24.234375 23.316406 24.003906 22.671875 24.035156 C 21.242188 24.101562 20.050781 25.261719 19.902344 26.734375 C 19.664062 29.140625 21.507812 31.039062 23.097656 32.210938 C 23.464844 32.480469 23.855469 32.726562 24.253906 32.945312 C 24.59375 33.136719 24.875 33.277344 25.164062 33.398438 C 25.308594 33.457031 25.460938 33.488281 25.617188 33.488281 C 25.625 33.488281 25.628906 33.488281 25.636719 33.488281 C 25.785156 33.488281 25.933594 33.457031 26.074219 33.398438 C 26.363281 33.277344 26.644531 33.136719 26.984375 32.949219 C 27.382812 32.726562 27.773438 32.480469 28.140625 32.210938 C 29.730469 31.039062 31.578125 29.140625 31.335938 26.734375 C 31.1875 25.261719 30 24.101562 28.566406 24.035156 Z M 27.726562 31.644531 C 27.382812 31.894531 27.019531 32.125 26.644531 32.332031 C 26.324219 32.511719 26.066406 32.640625 25.800781 32.75 C 25.746094 32.773438 25.6875 32.785156 25.625 32.785156 C 25.5625 32.789062 25.496094 32.777344 25.4375 32.75 C 25.171875 32.640625 24.914062 32.511719 24.59375 32.332031 C 24.21875 32.125 23.855469 31.894531 23.515625 31.644531 C 22.070312 30.582031 20.394531 28.878906 20.601562 26.804688 C 20.710938 25.695312 21.636719 24.785156 22.707031 24.734375 C 22.730469 24.734375 22.757812 24.734375 22.785156 24.734375 C 23.355469 24.734375 23.855469 25.015625 24.175781 25.257812 C 24.535156 25.527344 24.847656 25.847656 25.085938 26.179688 C 25.210938 26.351562 25.40625 26.457031 25.621094 26.457031 C 25.832031 26.453125 26.03125 26.351562 26.15625 26.175781 C 26.390625 25.847656 26.703125 25.527344 27.0625 25.257812 C 27.398438 25.003906 27.929688 24.707031 28.535156 24.734375 C 29.601562 24.785156 30.527344 25.695312 30.636719 26.804688 C 30.84375 28.878906 29.167969 30.582031 27.726562 31.644531 Z M 27.726562 31.644531 "/></g></svg>