<svg xmlns="http://www.w3.org/2000/svg" xmlns:xlink="http://www.w3.org/1999/xlink" width="70" zoomAndPan="magnify" viewBox="0 0 52.5 52.499999" height="70" preserveAspectRatio="xMidYMid meet" version="1.0"><defs><clipPath id="61eb595f15"><path d="M 15 45 L 16 45 L 16 45.808594 L 15 45.808594 Z M 15 45 " clip-rule="nonzero"/></clipPath><clipPath id="6d6d96a1f4"><path d="M 24 4.207031 L 26 4.207031 L 26 13 L 24 13 Z M 24 4.207031 " clip-rule="nonzero"/></clipPath><clipPath id="f995a86c65"><path d="M 3.445312 18 L 6 18 L 6 22 L 3.445312 22 Z M 3.445312 18 " clip-rule="nonzero"/></clipPath><clipPath id="09d8bbaf57"><path d="M 3.445312 20 L 6 20 L 6 24 L 3.445312 24 Z M 3.445312 20 " clip-rule="nonzero"/></clipPath><clipPath id="c8ab839701"><path d="M 35 42 L 40 42 L 40 45.808594 L 35 45.808594 Z M 35 42 " clip-rule="nonzero"/></clipPath><clipPath id="628943c78b"><path d="M 45 33 L 46.535156 33 L 46.535156 37 L 45 37 Z M 45 33 " clip-rule="nonzero"/></clipPath><clipPath id="6aca1a946c"><path d="M 44 34 L 46.535156 34 L 46.535156 36 L 44 36 Z M 44 34 " clip-rule="nonzero"/></clipPath></defs><path fill="#d5b36f" d="M 7.9375 9.609375 C 7.75 9.609375 7.597656 9.460938 7.597656 9.273438 C 7.597656 9.085938 7.746094 8.933594 7.929688 8.933594 L 7.9375 8.933594 C 8.125 8.933594 8.277344 9.085938 8.277344 9.273438 C 8.277344 9.460938 8.125 9.609375 7.9375 9.609375 Z M 7.9375 9.609375 " fill-opacity="1" fill-rule="nonzero"/><path fill="#d5b36f" d="M 39.695312 38.667969 C 39.507812 38.667969 39.355469 38.515625 39.355469 38.328125 C 39.355469 38.140625 39.503906 37.992188 39.6875 37.992188 L 39.695312 37.992188 C 39.882812 37.992188 40.035156 38.140625 40.035156 38.328125 C 40.035156 38.515625 39.882812 38.667969 39.695312 38.667969 Z M 39.695312 38.667969 " fill-opacity="1" fill-rule="nonzero"/><g clip-path="url(#61eb595f15)"><path fill="#d5b36f" d="M 15.371094 46.097656 C 15.183594 46.097656 15.03125 45.949219 15.03125 45.761719 C 15.03125 45.574219 15.175781 45.421875 15.363281 45.421875 L 15.371094 45.421875 C 15.554688 45.421875 15.707031 45.574219 15.707031 45.761719 C 15.707031 45.949219 15.554688 46.097656 15.371094 46.097656 Z M 15.371094 46.097656 " fill-opacity="1" fill-rule="nonzero"/></g><path fill="#d5b36f" d="M 7.9375 35.964844 C 7.75 35.964844 7.597656 35.8125 7.597656 35.625 C 7.597656 35.4375 7.746094 35.289062 7.929688 35.289062 L 7.9375 35.289062 C 8.125 35.289062 8.277344 35.4375 8.277344 35.625 C 8.277344 35.8125 8.125 35.964844 7.9375 35.964844 Z M 7.9375 35.964844 " fill-opacity="1" fill-rule="nonzero"/><path fill="#d5b36f" d="M 45.101562 14.371094 C 44.914062 14.371094 44.761719 14.222656 44.761719 14.035156 C 44.761719 13.847656 44.910156 13.695312 45.09375 13.695312 L 45.101562 13.695312 C 45.289062 13.695312 45.4375 13.847656 45.4375 14.035156 C 45.4375 14.222656 45.289062 14.371094 45.101562 14.371094 Z M 45.101562 14.371094 " fill-opacity="1" fill-rule="nonzero"/><path fill="#d5b36f" d="M 25.148438 43.398438 C 16.949219 43.398438 10.28125 36.726562 10.28125 28.53125 C 10.28125 20.335938 16.949219 13.664062 25.148438 13.664062 C 29.226562 13.664062 33.03125 15.285156 35.859375 18.226562 C 35.988281 18.359375 35.984375 18.574219 35.851562 18.703125 C 35.71875 18.832031 35.503906 18.828125 35.375 18.695312 C 32.671875 15.886719 29.042969 14.339844 25.148438 14.339844 C 17.324219 14.339844 10.957031 20.707031 10.957031 28.53125 C 10.957031 36.355469 17.324219 42.722656 25.148438 42.722656 C 32.972656 42.722656 39.335938 36.355469 39.335938 28.53125 C 39.335938 26.582031 38.949219 24.691406 38.183594 22.917969 C 38.109375 22.746094 38.191406 22.546875 38.359375 22.476562 C 38.53125 22.398438 38.730469 22.480469 38.804688 22.652344 C 39.605469 24.511719 40.011719 26.488281 40.011719 28.53125 C 40.011719 36.726562 33.34375 43.398438 25.148438 43.398438 Z M 25.148438 43.398438 " fill-opacity="1" fill-rule="nonzero"/><path fill="#d5b36f" d="M 28.589844 41.761719 C 28.566406 41.761719 28.546875 41.761719 28.523438 41.757812 C 28.339844 41.71875 28.222656 41.542969 28.257812 41.359375 C 28.273438 41.292969 29.601562 34.578125 29.601562 28.53125 C 29.601562 22.484375 28.273438 15.769531 28.257812 15.703125 C 28.222656 15.519531 28.339844 15.34375 28.523438 15.304688 C 28.703125 15.269531 28.882812 15.386719 28.921875 15.570312 C 28.933594 15.636719 30.277344 22.414062 30.277344 28.53125 C 30.277344 34.644531 28.933594 41.425781 28.921875 41.492188 C 28.886719 41.652344 28.746094 41.761719 28.589844 41.761719 Z M 28.589844 41.761719 " fill-opacity="1" fill-rule="nonzero"/><path fill="#d5b36f" d="M 31.96875 40.410156 C 31.929688 40.410156 31.894531 40.40625 31.855469 40.394531 C 31.679688 40.328125 31.585938 40.136719 31.648438 39.960938 C 31.667969 39.90625 33.65625 34.214844 33.65625 28.53125 C 33.65625 22.847656 31.667969 17.15625 31.648438 17.101562 C 31.585938 16.925781 31.679688 16.730469 31.855469 16.667969 C 32.03125 16.605469 32.222656 16.699219 32.285156 16.875 C 32.308594 16.933594 34.332031 22.726562 34.332031 28.53125 C 34.332031 34.332031 32.308594 40.128906 32.285156 40.1875 C 32.238281 40.324219 32.105469 40.410156 31.96875 40.410156 Z M 31.96875 40.410156 " fill-opacity="1" fill-rule="nonzero"/><path fill="#d5b36f" d="M 35.347656 37.722656 C 35.300781 37.722656 35.25 37.714844 35.207031 37.691406 C 35.035156 37.613281 34.960938 37.414062 35.039062 37.242188 C 35.058594 37.199219 37.035156 32.859375 37.035156 28.53125 C 37.035156 27.207031 36.851562 25.757812 36.492188 24.21875 C 36.449219 24.035156 36.5625 23.855469 36.746094 23.8125 C 36.933594 23.769531 37.109375 23.882812 37.152344 24.0625 C 37.523438 25.652344 37.710938 27.15625 37.710938 28.53125 C 37.710938 33.011719 35.738281 37.34375 35.652344 37.527344 C 35.597656 37.648438 35.472656 37.722656 35.347656 37.722656 Z M 35.347656 37.722656 " fill-opacity="1" fill-rule="nonzero"/><path fill="#d5b36f" d="M 20.578125 25.828125 C 20.570312 25.828125 20.566406 25.828125 20.558594 25.828125 C 20.371094 25.816406 20.230469 25.65625 20.242188 25.46875 C 20.550781 20.363281 21.492188 15.617188 21.5 15.570312 C 21.539062 15.386719 21.71875 15.269531 21.898438 15.304688 C 22.082031 15.34375 22.199219 15.519531 22.164062 15.703125 C 22.15625 15.75 21.21875 20.453125 20.914062 25.511719 C 20.90625 25.691406 20.753906 25.828125 20.578125 25.828125 Z M 20.578125 25.828125 " fill-opacity="1" fill-rule="nonzero"/><path fill="#d5b36f" d="M 21.832031 41.761719 C 21.675781 41.761719 21.535156 41.652344 21.5 41.492188 C 21.492188 41.445312 20.550781 36.695312 20.242188 31.59375 C 20.230469 31.40625 20.371094 31.246094 20.558594 31.234375 C 20.765625 31.214844 20.90625 31.363281 20.914062 31.550781 C 21.222656 36.609375 22.15625 41.3125 22.164062 41.359375 C 22.199219 41.542969 22.082031 41.71875 21.898438 41.757812 C 21.875 41.761719 21.855469 41.761719 21.832031 41.761719 Z M 21.832031 41.761719 " fill-opacity="1" fill-rule="nonzero"/><path fill="#d5b36f" d="M 18.453125 40.410156 C 18.316406 40.410156 18.183594 40.324219 18.136719 40.1875 C 18.113281 40.128906 16.089844 34.332031 16.089844 28.53125 C 16.089844 22.730469 18.113281 16.933594 18.136719 16.875 C 18.199219 16.699219 18.390625 16.609375 18.566406 16.667969 C 18.742188 16.730469 18.835938 16.925781 18.773438 17.101562 C 18.753906 17.15625 16.765625 22.847656 16.765625 28.53125 C 16.765625 34.214844 18.753906 39.90625 18.773438 39.960938 C 18.835938 40.136719 18.742188 40.328125 18.566406 40.394531 C 18.527344 40.40625 18.492188 40.410156 18.453125 40.410156 Z M 18.453125 40.410156 " fill-opacity="1" fill-rule="nonzero"/><path fill="#d5b36f" d="M 15.074219 37.722656 C 14.949219 37.722656 14.824219 37.648438 14.769531 37.527344 C 14.683594 37.34375 12.710938 33.011719 12.710938 28.53125 C 12.710938 24.050781 14.683594 19.71875 14.769531 19.535156 C 14.847656 19.367188 15.050781 19.292969 15.214844 19.371094 C 15.386719 19.449219 15.460938 19.648438 15.382812 19.816406 C 15.363281 19.863281 13.386719 24.203125 13.386719 28.53125 C 13.386719 32.859375 15.363281 37.199219 15.382812 37.242188 C 15.460938 37.414062 15.386719 37.613281 15.214844 37.691406 C 15.171875 37.714844 15.121094 37.722656 15.074219 37.722656 Z M 15.074219 37.722656 " fill-opacity="1" fill-rule="nonzero"/><path fill="#d5b36f" d="M 18.054688 28.867188 L 11.640625 28.867188 C 11.453125 28.867188 11.304688 28.71875 11.304688 28.53125 C 11.304688 28.34375 11.453125 28.191406 11.640625 28.191406 L 18.054688 28.191406 C 18.238281 28.191406 18.390625 28.34375 18.390625 28.53125 C 18.390625 28.71875 18.238281 28.867188 18.054688 28.867188 Z M 18.054688 28.867188 " fill-opacity="1" fill-rule="nonzero"/><path fill="#d5b36f" d="M 38.78125 28.867188 L 22.78125 28.867188 C 22.597656 28.867188 22.445312 28.71875 22.445312 28.53125 C 22.445312 28.34375 22.597656 28.191406 22.78125 28.191406 L 38.78125 28.191406 C 38.96875 28.191406 39.121094 28.34375 39.121094 28.53125 C 39.121094 28.71875 38.96875 28.867188 38.78125 28.867188 Z M 38.78125 28.867188 " fill-opacity="1" fill-rule="nonzero"/><path fill="#d5b36f" d="M 25.15625 33.542969 C 19.039062 33.542969 12.261719 32.199219 12.195312 32.183594 C 12.011719 32.148438 11.890625 31.96875 11.929688 31.785156 C 11.964844 31.601562 12.148438 31.484375 12.328125 31.523438 C 12.394531 31.535156 19.109375 32.867188 25.15625 32.867188 C 31.203125 32.867188 37.917969 31.535156 37.984375 31.523438 C 38.164062 31.484375 38.34375 31.605469 38.378906 31.785156 C 38.417969 31.96875 38.300781 32.148438 38.117188 32.183594 C 38.046875 32.199219 31.269531 33.542969 25.15625 33.542969 Z M 25.15625 33.542969 " fill-opacity="1" fill-rule="nonzero"/><path fill="#d5b36f" d="M 25.15625 37.597656 C 19.351562 37.597656 13.558594 35.570312 13.5 35.550781 C 13.324219 35.488281 13.230469 35.296875 13.292969 35.117188 C 13.355469 34.941406 13.550781 34.851562 13.726562 34.914062 C 13.78125 34.933594 19.472656 36.921875 25.15625 36.921875 C 30.839844 36.921875 36.527344 34.933594 36.585938 34.914062 C 36.761719 34.851562 36.953125 34.941406 37.015625 35.117188 C 37.078125 35.296875 36.988281 35.488281 36.8125 35.550781 C 36.753906 35.570312 30.957031 37.597656 25.15625 37.597656 Z M 25.15625 37.597656 " fill-opacity="1" fill-rule="nonzero"/><path fill="#d5b36f" d="M 25.15625 40.976562 C 20.675781 40.976562 16.34375 39 16.160156 38.917969 C 15.988281 38.839844 15.917969 38.636719 15.992188 38.46875 C 16.070312 38.300781 16.273438 38.226562 16.441406 38.304688 C 16.484375 38.324219 20.828125 40.300781 25.15625 40.300781 C 29.484375 40.300781 33.824219 38.324219 33.867188 38.304688 C 34.035156 38.226562 34.238281 38.300781 34.316406 38.46875 C 34.394531 38.640625 34.320312 38.839844 34.152344 38.917969 C 33.96875 39 29.636719 40.976562 25.15625 40.976562 Z M 25.15625 40.976562 " fill-opacity="1" fill-rule="nonzero"/><path fill="#d5b36f" d="M 12.261719 25.433594 C 12.101562 25.433594 11.960938 25.324219 11.929688 25.164062 C 11.890625 24.980469 12.011719 24.800781 12.195312 24.765625 C 12.261719 24.75 19.039062 23.40625 25.15625 23.40625 C 31.269531 23.40625 38.046875 24.75 38.117188 24.765625 C 38.300781 24.800781 38.417969 24.980469 38.378906 25.164062 C 38.34375 25.347656 38.164062 25.464844 37.984375 25.425781 C 37.917969 25.414062 31.203125 24.082031 25.15625 24.082031 C 19.105469 24.082031 12.394531 25.414062 12.328125 25.425781 C 12.304688 25.433594 12.28125 25.433594 12.261719 25.433594 Z M 12.261719 25.433594 " fill-opacity="1" fill-rule="nonzero"/><path fill="#d5b36f" d="M 13.613281 22.054688 C 13.472656 22.054688 13.34375 21.96875 13.292969 21.832031 C 13.230469 21.65625 13.324219 21.460938 13.5 21.398438 C 13.558594 21.378906 19.351562 19.351562 25.15625 19.351562 C 28.660156 19.351562 32.132812 20.078125 34.421875 20.683594 C 34.605469 20.734375 34.710938 20.917969 34.664062 21.097656 C 34.617188 21.277344 34.433594 21.390625 34.25 21.339844 C 31.996094 20.742188 28.589844 20.027344 25.15625 20.027344 C 19.472656 20.027344 13.78125 22.015625 13.726562 22.035156 C 13.6875 22.050781 13.648438 22.054688 13.613281 22.054688 Z M 13.613281 22.054688 " fill-opacity="1" fill-rule="nonzero"/><path fill="#d5b36f" d="M 16.300781 18.675781 C 16.171875 18.675781 16.050781 18.605469 15.992188 18.480469 C 15.917969 18.3125 15.988281 18.109375 16.160156 18.03125 C 16.339844 17.949219 20.675781 15.972656 25.15625 15.972656 C 29.636719 15.972656 33.96875 17.949219 34.152344 18.03125 C 34.320312 18.109375 34.394531 18.3125 34.316406 18.480469 C 34.238281 18.652344 34.035156 18.722656 33.867188 18.644531 C 33.824219 18.625 29.484375 16.648438 25.15625 16.648438 C 20.828125 16.648438 16.484375 18.625 16.441406 18.644531 C 16.398438 18.667969 16.347656 18.675781 16.300781 18.675781 Z M 16.300781 18.675781 " fill-opacity="1" fill-rule="nonzero"/><path fill="#d5b36f" d="M 25.15625 42.382812 C 24.96875 42.382812 24.816406 42.230469 24.816406 42.046875 L 24.816406 14.90625 C 24.816406 14.71875 24.96875 14.566406 25.15625 14.566406 C 25.339844 14.566406 25.492188 14.71875 25.492188 14.90625 L 25.492188 42.046875 C 25.492188 42.230469 25.339844 42.382812 25.15625 42.382812 Z M 25.15625 42.382812 " fill-opacity="1" fill-rule="nonzero"/><g clip-path="url(#6d6d96a1f4)"><path fill="#d5b36f" d="M 25.148438 12.988281 C 24.960938 12.988281 24.808594 12.839844 24.808594 12.652344 L 24.808594 4.542969 C 24.808594 4.355469 24.960938 4.207031 25.148438 4.207031 C 25.335938 4.207031 25.484375 4.355469 25.484375 4.542969 L 25.484375 12.652344 C 25.484375 12.839844 25.335938 12.988281 25.148438 12.988281 Z M 25.148438 12.988281 " fill-opacity="1" fill-rule="nonzero"/></g><path fill="#d5b36f" d="M 5.214844 23.125 C 5.027344 23.125 4.875 22.972656 4.875 22.789062 C 4.875 21.21875 6.355469 20.488281 6.417969 20.457031 C 6.585938 20.375 6.789062 20.445312 6.871094 20.613281 C 6.949219 20.78125 6.878906 20.980469 6.714844 21.0625 C 6.667969 21.085938 5.550781 21.648438 5.550781 22.789062 C 5.550781 22.972656 5.402344 23.125 5.214844 23.125 Z M 5.214844 23.125 " fill-opacity="1" fill-rule="nonzero"/><path fill="#d5b36f" d="M 6.566406 21.097656 C 6.515625 21.097656 6.464844 21.085938 6.417969 21.066406 C 6.355469 21.035156 4.875 20.300781 4.875 18.734375 C 4.875 18.546875 5.027344 18.394531 5.214844 18.394531 C 5.402344 18.394531 5.550781 18.546875 5.550781 18.734375 C 5.550781 19.882812 6.699219 20.449219 6.710938 20.457031 C 6.878906 20.539062 6.953125 20.738281 6.871094 20.90625 C 6.8125 21.027344 6.691406 21.097656 6.566406 21.097656 Z M 6.566406 21.097656 " fill-opacity="1" fill-rule="nonzero"/><g clip-path="url(#f995a86c65)"><path fill="#d5b36f" d="M 3.863281 21.097656 C 3.738281 21.097656 3.617188 21.027344 3.558594 20.90625 C 3.476562 20.742188 3.546875 20.539062 3.714844 20.457031 C 3.761719 20.433594 4.875 19.875 4.875 18.734375 C 4.875 18.546875 5.027344 18.394531 5.214844 18.394531 C 5.402344 18.394531 5.550781 18.546875 5.550781 18.734375 C 5.550781 20.300781 4.074219 21.035156 4.007812 21.066406 C 3.960938 21.085938 3.914062 21.097656 3.863281 21.097656 Z M 3.863281 21.097656 " fill-opacity="1" fill-rule="nonzero"/></g><g clip-path="url(#09d8bbaf57)"><path fill="#d5b36f" d="M 5.214844 23.125 C 5.027344 23.125 4.875 22.972656 4.875 22.789062 C 4.875 21.636719 3.726562 21.070312 3.714844 21.066406 C 3.546875 20.984375 3.476562 20.78125 3.558594 20.613281 C 3.640625 20.445312 3.84375 20.375 4.007812 20.457031 C 4.074219 20.488281 5.550781 21.21875 5.550781 22.789062 C 5.550781 22.972656 5.402344 23.125 5.214844 23.125 Z M 5.214844 23.125 " fill-opacity="1" fill-rule="nonzero"/></g><path fill="#d5b36f" d="M 36.972656 23.125 C 36.785156 23.125 36.632812 22.972656 36.632812 22.789062 C 36.632812 21.21875 38.113281 20.488281 38.175781 20.457031 C 38.34375 20.375 38.546875 20.445312 38.628906 20.613281 C 38.707031 20.78125 38.640625 20.980469 38.472656 21.0625 C 38.425781 21.085938 37.308594 21.648438 37.308594 22.789062 C 37.308594 22.972656 37.160156 23.125 36.972656 23.125 Z M 36.972656 23.125 " fill-opacity="1" fill-rule="nonzero"/><path fill="#d5b36f" d="M 38.324219 21.097656 C 38.273438 21.097656 38.222656 21.085938 38.175781 21.066406 C 38.113281 21.035156 36.632812 20.300781 36.632812 18.734375 C 36.632812 18.546875 36.785156 18.394531 36.972656 18.394531 C 37.160156 18.394531 37.308594 18.546875 37.308594 18.734375 C 37.308594 19.882812 38.460938 20.449219 38.46875 20.457031 C 38.640625 20.539062 38.710938 20.738281 38.628906 20.90625 C 38.570312 21.027344 38.449219 21.097656 38.324219 21.097656 Z M 38.324219 21.097656 " fill-opacity="1" fill-rule="nonzero"/><path fill="#d5b36f" d="M 35.621094 21.097656 C 35.496094 21.097656 35.375 21.027344 35.316406 20.90625 C 35.238281 20.742188 35.304688 20.539062 35.472656 20.457031 C 35.519531 20.433594 36.632812 19.875 36.632812 18.734375 C 36.632812 18.546875 36.785156 18.394531 36.972656 18.394531 C 37.160156 18.394531 37.308594 18.546875 37.308594 18.734375 C 37.308594 20.300781 35.832031 21.035156 35.769531 21.066406 C 35.722656 21.085938 35.671875 21.097656 35.621094 21.097656 Z M 35.621094 21.097656 " fill-opacity="1" fill-rule="nonzero"/><path fill="#d5b36f" d="M 36.972656 23.125 C 36.785156 23.125 36.632812 22.972656 36.632812 22.789062 C 36.632812 21.636719 35.484375 21.070312 35.476562 21.066406 C 35.304688 20.984375 35.234375 20.78125 35.316406 20.613281 C 35.398438 20.445312 35.601562 20.375 35.769531 20.457031 C 35.832031 20.488281 37.308594 21.21875 37.308594 22.789062 C 37.308594 22.972656 37.160156 23.125 36.972656 23.125 Z M 36.972656 23.125 " fill-opacity="1" fill-rule="nonzero"/><path fill="#d5b36f" d="M 20.417969 30.839844 C 20.230469 30.839844 20.078125 30.6875 20.078125 30.5 C 20.078125 28.933594 21.558594 28.199219 21.621094 28.171875 C 21.792969 28.089844 21.992188 28.160156 22.074219 28.328125 C 22.152344 28.492188 22.085938 28.695312 21.917969 28.777344 C 21.871094 28.800781 20.753906 29.359375 20.753906 30.5 C 20.753906 30.6875 20.605469 30.839844 20.417969 30.839844 Z M 20.417969 30.839844 " fill-opacity="1" fill-rule="nonzero"/><path fill="#d5b36f" d="M 21.769531 28.8125 C 21.71875 28.8125 21.667969 28.800781 21.621094 28.777344 C 21.558594 28.75 20.078125 28.015625 20.078125 26.445312 C 20.078125 26.261719 20.230469 26.109375 20.417969 26.109375 C 20.605469 26.109375 20.753906 26.261719 20.753906 26.445312 C 20.753906 27.597656 21.90625 28.164062 21.914062 28.171875 C 22.082031 28.25 22.15625 28.453125 22.074219 28.621094 C 22.015625 28.742188 21.894531 28.8125 21.769531 28.8125 Z M 21.769531 28.8125 " fill-opacity="1" fill-rule="nonzero"/><path fill="#d5b36f" d="M 19.066406 28.8125 C 18.941406 28.8125 18.820312 28.742188 18.761719 28.621094 C 18.683594 28.453125 18.75 28.253906 18.917969 28.171875 C 18.964844 28.148438 20.078125 27.585938 20.078125 26.445312 C 20.078125 26.261719 20.230469 26.109375 20.417969 26.109375 C 20.605469 26.109375 20.753906 26.261719 20.753906 26.445312 C 20.753906 28.015625 19.277344 28.75 19.210938 28.777344 C 19.167969 28.800781 19.117188 28.8125 19.066406 28.8125 Z M 19.066406 28.8125 " fill-opacity="1" fill-rule="nonzero"/><path fill="#d5b36f" d="M 20.417969 30.839844 C 20.230469 30.839844 20.078125 30.6875 20.078125 30.5 C 20.078125 29.351562 18.929688 28.785156 18.921875 28.777344 C 18.75 28.699219 18.679688 28.496094 18.761719 28.328125 C 18.84375 28.160156 19.046875 28.089844 19.210938 28.171875 C 19.277344 28.199219 20.753906 28.933594 20.753906 30.5 C 20.753906 30.6875 20.605469 30.839844 20.417969 30.839844 Z M 20.417969 30.839844 " fill-opacity="1" fill-rule="nonzero"/><path fill="#d5b36f" d="M 19.5625 10.898438 C 19.511719 10.898438 19.457031 10.882812 19.40625 10.859375 L 18.730469 10.5 L 18.050781 10.859375 C 17.9375 10.917969 17.796875 10.90625 17.695312 10.832031 C 17.589844 10.757812 17.539062 10.628906 17.558594 10.5 L 17.691406 9.746094 L 17.140625 9.210938 C 17.050781 9.121094 17.015625 8.988281 17.054688 8.867188 C 17.09375 8.742188 17.199219 8.652344 17.328125 8.636719 L 18.085938 8.523438 L 18.425781 7.839844 C 18.539062 7.609375 18.917969 7.609375 19.03125 7.839844 L 19.371094 8.523438 L 20.128906 8.636719 C 20.257812 8.652344 20.363281 8.742188 20.402344 8.867188 C 20.441406 8.988281 20.40625 9.121094 20.316406 9.210938 L 19.765625 9.746094 L 19.898438 10.5 C 19.917969 10.628906 19.867188 10.757812 19.761719 10.832031 C 19.703125 10.875 19.632812 10.898438 19.5625 10.898438 Z M 18.730469 9.78125 C 18.78125 9.78125 18.835938 9.792969 18.886719 9.820312 L 19.113281 9.941406 L 19.070312 9.6875 C 19.050781 9.574219 19.089844 9.464844 19.167969 9.386719 L 19.355469 9.207031 L 19.097656 9.167969 C 18.988281 9.152344 18.890625 9.082031 18.84375 8.984375 L 18.730469 8.75 L 18.613281 8.984375 C 18.566406 9.082031 18.46875 9.152344 18.359375 9.167969 L 18.101562 9.207031 L 18.289062 9.386719 C 18.367188 9.464844 18.40625 9.574219 18.386719 9.6875 L 18.34375 9.941406 L 18.570312 9.820312 C 18.621094 9.792969 18.675781 9.78125 18.730469 9.78125 Z M 18.730469 9.78125 " fill-opacity="1" fill-rule="nonzero"/><g clip-path="url(#c8ab839701)"><path fill="#d5b36f" d="M 38.484375 46.035156 C 38.429688 46.035156 38.375 46.019531 38.328125 45.996094 L 37.648438 45.636719 L 36.972656 45.996094 C 36.859375 46.054688 36.71875 46.046875 36.613281 45.96875 C 36.511719 45.894531 36.457031 45.765625 36.480469 45.640625 L 36.609375 44.882812 L 36.0625 44.347656 C 35.96875 44.257812 35.9375 44.125 35.976562 44.003906 C 36.015625 43.878906 36.121094 43.789062 36.25 43.773438 L 37.007812 43.664062 L 37.34375 42.976562 C 37.402344 42.859375 37.519531 42.785156 37.648438 42.785156 C 37.777344 42.785156 37.894531 42.859375 37.953125 42.976562 L 38.289062 43.664062 L 39.046875 43.773438 C 39.175781 43.789062 39.28125 43.878906 39.320312 44.003906 C 39.359375 44.125 39.328125 44.257812 39.234375 44.347656 L 38.6875 44.882812 L 38.816406 45.636719 C 38.839844 45.765625 38.785156 45.894531 38.683594 45.96875 C 38.625 46.011719 38.554688 46.035156 38.484375 46.035156 Z M 37.648438 44.917969 C 37.703125 44.917969 37.757812 44.929688 37.804688 44.957031 L 38.035156 45.078125 L 37.992188 44.824219 C 37.972656 44.710938 38.007812 44.601562 38.089844 44.523438 L 38.273438 44.34375 L 38.019531 44.304688 C 37.910156 44.289062 37.8125 44.222656 37.765625 44.121094 L 37.648438 43.886719 L 37.535156 44.121094 C 37.484375 44.222656 37.390625 44.289062 37.28125 44.304688 L 37.023438 44.34375 L 37.207031 44.523438 C 37.289062 44.601562 37.324219 44.710938 37.304688 44.820312 L 37.261719 45.078125 L 37.492188 44.957031 C 37.539062 44.929688 37.59375 44.917969 37.648438 44.917969 Z M 37.648438 44.917969 " fill-opacity="1" fill-rule="nonzero"/></g><g clip-path="url(#628943c78b)"><path fill="#d5b36f" d="M 45.757812 36.640625 C 45.570312 36.640625 45.417969 36.488281 45.417969 36.300781 L 45.417969 33.597656 C 45.417969 33.410156 45.570312 33.261719 45.757812 33.261719 C 45.945312 33.261719 46.09375 33.410156 46.09375 33.597656 L 46.09375 36.300781 C 46.09375 36.488281 45.945312 36.640625 45.757812 36.640625 Z M 45.757812 36.640625 " fill-opacity="1" fill-rule="nonzero"/></g><g clip-path="url(#6aca1a946c)"><path fill="#d5b36f" d="M 46.433594 35.289062 L 45.082031 35.289062 C 44.894531 35.289062 44.742188 35.136719 44.742188 34.949219 C 44.742188 34.761719 44.894531 34.613281 45.082031 34.613281 L 46.433594 34.613281 C 46.621094 34.613281 46.769531 34.761719 46.769531 34.949219 C 46.769531 35.136719 46.621094 35.289062 46.433594 35.289062 Z M 46.433594 35.289062 " fill-opacity="1" fill-rule="nonzero"/></g><path fill="#d5b36f" d="M 6.566406 44.746094 C 6.378906 44.746094 6.226562 44.597656 6.226562 44.410156 L 6.226562 41.707031 C 6.226562 41.519531 6.378906 41.371094 6.566406 41.371094 C 6.753906 41.371094 6.902344 41.519531 6.902344 41.707031 L 6.902344 44.410156 C 6.902344 44.597656 6.753906 44.746094 6.566406 44.746094 Z M 6.566406 44.746094 " fill-opacity="1" fill-rule="nonzero"/><path fill="#d5b36f" d="M 7.242188 43.398438 L 5.890625 43.398438 C 5.703125 43.398438 5.550781 43.246094 5.550781 43.058594 C 5.550781 42.871094 5.703125 42.722656 5.890625 42.722656 L 7.242188 42.722656 C 7.429688 42.722656 7.578125 42.871094 7.578125 43.058594 C 7.578125 43.246094 7.429688 43.398438 7.242188 43.398438 Z M 7.242188 43.398438 " fill-opacity="1" fill-rule="nonzero"/><path fill="#d5b36f" d="M 36.296875 13.664062 C 36.109375 13.664062 35.960938 13.515625 35.960938 13.328125 L 35.960938 10.625 C 35.960938 10.4375 36.109375 10.285156 36.296875 10.285156 C 36.484375 10.285156 36.632812 10.4375 36.632812 10.625 L 36.632812 13.328125 C 36.632812 13.515625 36.484375 13.664062 36.296875 13.664062 Z M 36.296875 13.664062 " fill-opacity="1" fill-rule="nonzero"/><path fill="#d5b36f" d="M 36.972656 12.3125 L 35.621094 12.3125 C 35.433594 12.3125 35.285156 12.164062 35.285156 11.976562 C 35.285156 11.789062 35.433594 11.636719 35.621094 11.636719 L 36.972656 11.636719 C 37.160156 11.636719 37.308594 11.789062 37.308594 11.976562 C 37.308594 12.164062 37.160156 12.3125 36.972656 12.3125 Z M 36.972656 12.3125 " fill-opacity="1" fill-rule="nonzero"/></svg>