<svg xmlns="http://www.w3.org/2000/svg" xmlns:xlink="http://www.w3.org/1999/xlink" width="70" zoomAndPan="magnify" viewBox="0 0 52.5 52.499999" height="70" preserveAspectRatio="xMidYMid meet" version="1.0"><defs><clipPath id="1c9b94c33a"><path d="M 2.980469 5.199219 L 49.019531 5.199219 L 49.019531 46.59375 L 2.980469 46.59375 Z M 2.980469 5.199219 " clip-rule="nonzero"/></clipPath></defs><g clip-path="url(#1c9b94c33a)"><path fill="#d5b36f" d="M 48.441406 30.945312 C 48.34375 31.140625 48.203125 31.28125 47.984375 31.3125 C 47.742188 31.347656 47.496094 31.375 47.253906 31.375 C 45.25 31.363281 43.25 31.339844 41.246094 31.324219 C 40.105469 31.316406 38.964844 31.324219 37.824219 31.324219 C 37.734375 31.324219 37.644531 31.324219 37.519531 31.324219 C 37.738281 30.40625 37.710938 29.492188 37.761719 28.570312 C 37.878906 28.570312 37.976562 28.570312 38.074219 28.570312 C 40.683594 28.578125 43.292969 28.585938 45.902344 28.59375 C 46.347656 28.59375 46.792969 28.574219 47.230469 28.621094 C 47.5 28.644531 47.765625 28.757812 48.023438 28.859375 C 48.242188 28.941406 48.363281 29.148438 48.449219 29.351562 C 48.675781 29.878906 48.707031 30.414062 48.441406 30.945312 Z M 47.074219 32.054688 C 47.027344 32.527344 46.988281 33 46.929688 33.472656 C 46.84375 34.1875 46.75 34.90625 46.644531 35.617188 C 46.554688 36.210938 46.21875 36.617188 45.65625 36.832031 C 45.113281 37.039062 44.546875 37.125 43.96875 37.136719 C 43.9375 37.140625 43.90625 37.128906 43.867188 37.125 C 43.863281 36.875 43.878906 36.628906 43.699219 36.390625 C 43.5 36.609375 43.53125 36.882812 43.480469 37.140625 C 43.25 37.140625 43.019531 37.15625 42.796875 37.136719 C 42.222656 37.085938 41.652344 37.023438 41.085938 36.949219 C 40.523438 36.878906 40.234375 36.515625 40.144531 35.992188 C 40.046875 35.382812 39.953125 34.773438 39.902344 34.164062 C 39.84375 33.460938 39.832031 32.753906 39.800781 32.050781 C 39.796875 31.96875 39.800781 31.890625 39.800781 31.792969 C 40.332031 31.792969 40.835938 31.792969 41.371094 31.792969 C 41.359375 31.894531 41.351562 31.957031 41.339844 32.019531 C 41.289062 32.324219 41.296875 32.625 41.328125 32.929688 C 41.335938 32.976562 41.347656 33.023438 41.367188 33.070312 C 41.398438 33.15625 41.457031 33.207031 41.550781 33.203125 C 41.648438 33.199219 41.699219 33.132812 41.714844 33.046875 C 41.777344 32.722656 41.789062 32.394531 41.746094 32.066406 C 41.734375 31.988281 41.722656 31.90625 41.710938 31.808594 C 42.363281 31.808594 43 31.808594 43.625 31.808594 C 43.625 32.015625 43.621094 32.199219 43.625 32.386719 C 43.628906 32.664062 43.632812 32.941406 43.640625 33.21875 C 43.640625 33.253906 43.640625 33.292969 43.65625 33.316406 C 43.695312 33.363281 43.746094 33.4375 43.789062 33.4375 C 43.851562 33.433594 43.9375 33.386719 43.960938 33.335938 C 44.003906 33.242188 44.027344 33.132812 44.03125 33.027344 C 44.039062 32.632812 44.035156 32.242188 44.035156 31.816406 C 44.546875 31.78125 45.089844 31.804688 45.664062 31.796875 C 45.652344 31.945312 45.644531 32.070312 45.636719 32.199219 C 45.628906 32.421875 45.625 32.640625 45.621094 32.863281 C 45.617188 32.894531 45.628906 32.925781 45.632812 32.960938 C 45.652344 33.054688 45.6875 33.136719 45.800781 33.140625 C 45.914062 33.144531 45.953125 33.0625 45.96875 32.96875 C 46.019531 32.675781 46.070312 32.386719 46.03125 32.089844 C 46.019531 32.007812 46.011719 31.929688 46 31.8125 C 46.371094 31.832031 46.71875 31.851562 47.078125 31.871094 C 47.078125 31.945312 47.082031 32 47.074219 32.054688 Z M 36.976562 27.886719 C 36.894531 27.988281 36.8125 28.003906 36.703125 28 C 35.355469 27.988281 34.007812 27.980469 32.664062 27.96875 C 29.640625 27.945312 26.621094 27.921875 23.597656 27.894531 C 20.808594 27.871094 18.015625 27.847656 15.226562 27.824219 C 15.195312 27.824219 15.160156 27.824219 15.121094 27.824219 C 14.820312 27.367188 14.566406 27.367188 14.230469 27.800781 C 13.917969 27.800781 13.597656 27.804688 13.28125 27.796875 C 13.222656 27.796875 13.15625 27.761719 13.105469 27.722656 C 13.015625 27.652344 12.925781 27.578125 12.851562 27.492188 C 12.300781 26.859375 11.761719 26.222656 11.210938 25.589844 C 11.113281 25.476562 11.089844 25.363281 11.113281 25.210938 C 11.285156 24.101562 10.652344 23.011719 9.605469 22.613281 C 9.457031 22.554688 9.382812 22.472656 9.324219 22.335938 C 8.710938 20.9375 8.476562 19.476562 8.613281 17.960938 C 8.746094 16.433594 9.429688 15.175781 10.546875 14.140625 C 10.625 14.066406 10.738281 14.011719 10.84375 13.976562 C 11.667969 13.726562 12.484375 13.457031 13.316406 13.242188 C 15.035156 12.800781 16.789062 12.539062 18.550781 12.339844 C 21.402344 12.019531 24.261719 11.894531 27.128906 11.96875 C 28.492188 12.003906 29.851562 12.085938 31.210938 12.195312 C 32.417969 12.296875 33.628906 12.429688 34.828125 12.609375 C 36.996094 12.929688 39.128906 13.421875 41.207031 14.136719 C 41.652344 14.292969 41.972656 14.539062 42.253906 14.894531 C 43.136719 16.019531 43.519531 17.304688 43.515625 18.722656 C 43.515625 19.964844 43.269531 21.152344 42.789062 22.292969 C 42.722656 22.445312 42.636719 22.539062 42.472656 22.597656 C 41.421875 22.972656 40.769531 24.101562 40.964844 25.210938 C 40.988281 25.359375 40.972656 25.476562 40.875 25.597656 C 40.332031 26.277344 39.765625 26.9375 39.128906 27.535156 C 38.996094 27.65625 38.875 27.789062 38.753906 27.921875 C 38.6875 27.996094 38.613281 28.027344 38.515625 28.023438 C 38.304688 28.015625 38.089844 28.015625 37.875 28.019531 C 37.769531 28.019531 37.699219 27.984375 37.628906 27.898438 C 37.429688 27.664062 37.15625 27.660156 36.976562 27.886719 Z M 36.777344 31.308594 C 36.707031 31.3125 36.636719 31.320312 36.5625 31.320312 C 35.039062 31.316406 33.511719 31.308594 31.984375 31.304688 C 31.847656 31.304688 31.761719 31.265625 31.679688 31.152344 C 31.054688 30.257812 30.261719 29.539062 29.347656 28.953125 C 29.089844 28.785156 28.804688 28.660156 28.53125 28.511719 C 28.53125 28.503906 28.53125 28.492188 28.53125 28.480469 C 31.304688 28.511719 34.074219 28.539062 36.871094 28.570312 C 36.882812 29.484375 36.902344 30.390625 36.777344 31.308594 Z M 29.507812 31.285156 C 29.382812 30.214844 28.867188 29.378906 28.015625 28.742188 C 28.027344 28.730469 28.035156 28.714844 28.046875 28.699219 C 28.160156 28.742188 28.273438 28.777344 28.382812 28.828125 C 28.789062 29.011719 29.15625 29.253906 29.503906 29.53125 C 30.070312 29.984375 30.585938 30.484375 31.03125 31.058594 C 31.078125 31.121094 31.125 31.1875 31.195312 31.285156 C 30.605469 31.285156 30.066406 31.285156 29.507812 31.285156 Z M 27.730469 31.273438 C 27.769531 30.382812 27.789062 29.5 27.34375 28.683594 C 28.171875 28.929688 29.117188 30.285156 29.144531 31.273438 C 28.667969 31.273438 28.210938 31.273438 27.730469 31.273438 Z M 27.316406 31.265625 C 26.738281 31.265625 26.167969 31.265625 25.554688 31.265625 C 25.601562 31.171875 25.636719 31.097656 25.679688 31.023438 C 25.949219 30.523438 26.171875 30.003906 26.261719 29.441406 C 26.308594 29.160156 26.335938 28.875 26.378906 28.570312 C 26.421875 28.566406 26.484375 28.570312 26.542969 28.558594 C 26.847656 28.496094 26.996094 28.667969 27.105469 28.914062 C 27.242188 29.222656 27.320312 29.546875 27.347656 29.886719 C 27.386719 30.34375 27.402344 30.800781 27.316406 31.265625 Z M 25.046875 31.261719 C 24.585938 31.261719 24.136719 31.261719 23.679688 31.261719 C 24.144531 30.46875 25.585938 28.554688 26.011719 28.472656 C 26.121094 28.925781 25.578125 30.496094 25.046875 31.261719 Z M 23.1875 31.101562 C 23.09375 31.230469 22.996094 31.273438 22.839844 31.273438 C 21.007812 31.261719 19.179688 31.257812 17.347656 31.253906 C 16.691406 31.25 16.035156 31.25 15.378906 31.246094 C 15.296875 31.246094 15.21875 31.238281 15.140625 31.234375 C 15.140625 30.265625 15.140625 29.332031 15.140625 28.40625 C 15.367188 28.351562 24.789062 28.414062 25.386719 28.472656 C 25.371094 28.503906 25.363281 28.535156 25.34375 28.550781 C 24.828125 28.992188 24.398438 29.507812 23.984375 30.039062 C 23.714844 30.390625 23.445312 30.742188 23.1875 31.101562 Z M 13.894531 31.238281 C 10.847656 31.234375 7.800781 31.230469 4.753906 31.226562 C 4.609375 31.226562 4.453125 31.234375 4.316406 31.195312 C 3.84375 31.058594 3.644531 30.691406 3.589844 30.242188 C 3.527344 29.742188 3.632812 29.261719 3.847656 28.804688 C 3.90625 28.679688 3.996094 28.59375 4.117188 28.535156 C 4.546875 28.328125 5.003906 28.246094 5.476562 28.25 C 7.046875 28.273438 8.613281 28.292969 10.183594 28.3125 C 11.398438 28.328125 12.613281 28.339844 13.828125 28.351562 C 13.914062 28.355469 14.003906 28.351562 14.109375 28.351562 C 14.011719 29.335938 14.109375 30.269531 14.160156 31.226562 C 14.066406 31.230469 13.980469 31.238281 13.894531 31.238281 Z M 12.097656 35.820312 C 12.058594 36.027344 11.984375 36.230469 11.902344 36.425781 C 11.816406 36.632812 11.652344 36.777344 11.4375 36.835938 C 11.160156 36.90625 10.878906 36.980469 10.59375 37.007812 C 10.042969 37.066406 9.484375 37.09375 8.929688 37.132812 C 8.863281 37.136719 8.800781 37.125 8.714844 37.121094 C 8.699219 36.851562 8.707031 36.601562 8.527344 36.378906 C 8.3125 36.585938 8.367188 36.851562 8.34375 37.113281 C 8.148438 37.105469 7.960938 37.105469 7.777344 37.085938 C 7.339844 37.042969 6.917969 36.957031 6.511719 36.789062 C 6.011719 36.585938 5.683594 36.222656 5.59375 35.6875 C 5.480469 35.042969 5.394531 34.390625 5.3125 33.742188 C 5.234375 33.105469 5.179688 32.46875 5.113281 31.832031 C 5.109375 31.800781 5.113281 31.769531 5.113281 31.730469 C 5.480469 31.730469 5.835938 31.730469 6.179688 31.730469 C 6.179688 31.941406 6.171875 32.136719 6.183594 32.328125 C 6.191406 32.527344 6.214844 32.722656 6.238281 32.914062 C 6.25 33.019531 6.285156 33.113281 6.410156 33.117188 C 6.511719 33.121094 6.582031 33.042969 6.582031 32.886719 C 6.582031 32.578125 6.566406 32.265625 6.558594 31.953125 C 6.554688 31.890625 6.542969 31.824219 6.535156 31.722656 C 7.097656 31.714844 7.648438 31.71875 8.210938 31.71875 C 8.195312 32.03125 8.171875 32.316406 8.167969 32.601562 C 8.164062 32.796875 8.191406 32.992188 8.210938 33.1875 C 8.214844 33.234375 8.226562 33.292969 8.257812 33.324219 C 8.300781 33.367188 8.371094 33.429688 8.414062 33.417969 C 8.46875 33.402344 8.546875 33.332031 8.550781 33.28125 C 8.582031 33.019531 8.601562 32.757812 8.601562 32.496094 C 8.601562 32.25 8.574219 32.007812 8.558594 31.761719 C 8.722656 31.710938 10.128906 31.695312 10.503906 31.746094 C 10.492188 31.855469 10.488281 31.96875 10.46875 32.074219 C 10.410156 32.355469 10.449219 32.632812 10.476562 32.90625 C 10.5 33.09375 10.5625 33.183594 10.667969 33.183594 C 10.773438 33.1875 10.863281 33.101562 10.875 32.925781 C 10.890625 32.648438 10.886719 32.371094 10.882812 32.09375 C 10.878906 31.980469 10.855469 31.867188 10.835938 31.738281 C 11.355469 31.738281 11.859375 31.738281 12.378906 31.738281 C 12.386719 31.785156 12.402344 31.832031 12.402344 31.878906 C 12.410156 33.199219 12.34375 34.519531 12.097656 35.820312 Z M 8.800781 22.75 C 9.929688 22.777344 10.804688 23.683594 10.777344 24.804688 C 10.789062 25.855469 9.898438 26.890625 8.644531 26.84375 C 7.539062 26.800781 6.65625 25.867188 6.683594 24.730469 C 6.707031 23.613281 7.664062 22.722656 8.800781 22.75 Z M 4.28125 23.625 C 4.410156 22.988281 4.566406 22.359375 4.804688 21.757812 C 5.15625 20.871094 5.671875 20.121094 6.480469 19.589844 C 6.871094 19.335938 7.285156 19.152344 7.765625 19.152344 C 7.820312 19.152344 7.878906 19.152344 7.964844 19.152344 C 8.019531 20.28125 8.234375 21.367188 8.671875 22.429688 C 7.207031 22.582031 6.519531 23.597656 6.398438 24.566406 C 6.285156 25.511719 6.765625 26.496094 7.730469 26.972656 C 8.527344 27.367188 9.816406 27.390625 10.792969 26.132812 C 11.261719 26.667969 11.730469 27.199219 12.195312 27.730469 C 12.1875 27.75 12.183594 27.757812 12.179688 27.765625 C 12.175781 27.769531 12.167969 27.777344 12.164062 27.777344 C 9.527344 27.773438 6.894531 27.765625 4.257812 27.757812 C 4.21875 27.757812 4.179688 27.742188 4.113281 27.730469 C 4.082031 27.441406 4.042969 27.148438 4.019531 26.855469 C 3.933594 25.765625 4.066406 24.691406 4.28125 23.625 Z M 13.320312 12.601562 C 14.507812 12.21875 15.722656 11.929688 16.957031 11.753906 C 18.304688 11.5625 19.65625 11.390625 21.007812 11.230469 C 21.652344 11.15625 22.300781 11.113281 22.949219 11.078125 C 23.882812 11.023438 24.816406 10.96875 25.753906 10.953125 C 26.953125 10.933594 28.148438 10.980469 29.34375 11.097656 C 30.03125 11.164062 30.71875 11.1875 31.402344 11.269531 C 32.601562 11.40625 33.800781 11.5625 34.992188 11.726562 C 36.050781 11.875 37.089844 12.113281 38.117188 12.402344 C 39.03125 12.65625 39.917969 12.976562 40.714844 13.496094 C 40.785156 13.539062 40.851562 13.585938 40.898438 13.667969 C 40.753906 13.621094 40.609375 13.574219 40.464844 13.527344 C 38.761719 12.960938 37.015625 12.578125 35.246094 12.308594 C 33.988281 12.117188 32.726562 11.945312 31.464844 11.820312 C 28.960938 11.574219 26.449219 11.488281 23.933594 11.558594 C 22.746094 11.589844 21.554688 11.632812 20.367188 11.71875 C 18.289062 11.875 16.222656 12.148438 14.183594 12.597656 C 13.566406 12.734375 12.957031 12.902344 12.34375 13.050781 C 12.292969 13.066406 12.242188 13.074219 12.1875 13.082031 C 12.183594 13.066406 12.179688 13.050781 12.171875 13.035156 C 12.554688 12.890625 12.929688 12.726562 13.320312 12.601562 Z M 37.769531 11.660156 C 37.453125 11.589844 37.152344 11.519531 36.851562 11.453125 C 35.769531 11.210938 34.675781 11.039062 33.578125 10.914062 C 32.835938 10.828125 32.09375 10.730469 31.351562 10.667969 C 30.394531 10.589844 29.433594 10.539062 28.476562 10.476562 C 27.910156 10.441406 27.347656 10.410156 26.78125 10.363281 C 26.007812 10.300781 25.238281 10.335938 24.46875 10.390625 C 23.355469 10.46875 22.242188 10.539062 21.128906 10.628906 C 20.335938 10.695312 19.546875 10.777344 18.757812 10.882812 C 17.804688 11.007812 16.851562 11.140625 15.910156 11.320312 C 15.117188 11.46875 14.332031 11.691406 13.542969 11.882812 C 13.449219 11.90625 13.359375 11.933594 13.230469 11.96875 C 13.433594 10.570312 13.710938 9.21875 14.0625 7.875 C 14.644531 7.789062 15.210938 7.699219 15.78125 7.621094 C 16.609375 7.507812 17.4375 7.390625 18.269531 7.304688 C 19.175781 7.210938 20.082031 7.132812 20.992188 7.082031 C 22.359375 7.003906 23.730469 6.941406 25.101562 6.890625 C 26.511719 6.839844 27.921875 6.84375 29.335938 6.917969 C 30.894531 6.996094 32.4375 7.210938 33.964844 7.539062 C 35.039062 7.765625 36.113281 7.996094 37.1875 8.222656 C 37.257812 8.238281 37.328125 8.257812 37.429688 8.285156 C 37.550781 9.410156 37.761719 10.515625 37.769531 11.660156 Z M 13.402344 7.195312 C 14.199219 6.976562 15 6.742188 15.808594 6.542969 C 16.964844 6.257812 18.140625 6.074219 19.324219 5.933594 C 20.710938 5.765625 22.101562 5.671875 23.496094 5.625 C 24.933594 5.574219 26.371094 5.589844 27.804688 5.65625 C 29.765625 5.746094 31.71875 5.941406 33.65625 6.242188 C 35.171875 6.480469 36.675781 6.789062 38.160156 7.179688 C 38.222656 7.195312 38.285156 7.214844 38.367188 7.242188 C 38.480469 8.015625 38.621094 8.792969 38.664062 9.578125 C 38.707031 10.351562 38.722656 11.125 38.75 11.9375 C 38.503906 11.867188 38.296875 11.804688 38.125 11.757812 C 38.082031 11.183594 38.050781 10.644531 37.996094 10.109375 C 37.953125 9.652344 37.894531 9.195312 37.824219 8.738281 C 37.792969 8.539062 37.71875 8.347656 37.667969 8.148438 C 37.632812 8.011719 37.546875 7.941406 37.414062 7.910156 C 37.03125 7.816406 36.652344 7.707031 36.269531 7.628906 C 35.039062 7.378906 33.808594 7.128906 32.574219 6.902344 C 31.53125 6.714844 30.476562 6.617188 29.417969 6.558594 C 28.058594 6.488281 26.695312 6.457031 25.332031 6.519531 C 24.042969 6.578125 22.757812 6.613281 21.46875 6.6875 C 19.886719 6.78125 18.308594 6.90625 16.742188 7.160156 C 15.835938 7.308594 14.933594 7.464844 14.023438 7.609375 C 13.925781 7.625 13.882812 7.683594 13.855469 7.761719 C 13.730469 8.117188 13.582031 8.464844 13.488281 8.828125 C 13.214844 9.894531 12.984375 10.96875 12.890625 12.09375 C 12.667969 12.179688 12.453125 12.265625 12.21875 12.355469 C 12.519531 10.609375 12.984375 8.925781 13.402344 7.195312 Z M 41.222656 24.734375 C 41.246094 23.617188 42.199219 22.722656 43.339844 22.75 C 44.46875 22.773438 45.34375 23.683594 45.320312 24.800781 C 45.332031 25.855469 44.4375 26.886719 43.191406 26.84375 C 42.085938 26.800781 41.199219 25.871094 41.222656 24.734375 Z M 44.121094 19.160156 C 44.472656 19.140625 44.800781 19.179688 45.113281 19.320312 C 45.902344 19.679688 46.492188 20.253906 46.921875 21 C 47.300781 21.652344 47.523438 22.363281 47.691406 23.09375 C 47.921875 24.089844 48.101562 25.089844 48.09375 26.113281 C 48.089844 26.621094 48.023438 27.128906 47.984375 27.632812 C 47.964844 27.910156 47.792969 28.058594 47.546875 28.136719 C 47.449219 28.167969 47.335938 28.1875 47.234375 28.183594 C 44.902344 28.136719 42.570312 28.085938 40.242188 28.035156 C 40.070312 28.03125 39.898438 28.035156 39.726562 28.035156 C 39.714844 28.015625 39.699219 27.996094 39.6875 27.976562 C 40.21875 27.367188 40.75 26.757812 41.296875 26.128906 C 41.355469 26.199219 41.414062 26.265625 41.46875 26.332031 C 42.488281 27.574219 44.402344 27.480469 45.296875 26.144531 C 46.136719 24.894531 45.550781 23.121094 44.125 22.601562 C 43.910156 22.523438 43.683594 22.480469 43.429688 22.414062 C 43.84375 21.382812 44.074219 20.300781 44.121094 19.160156 Z M 41.136719 40.835938 C 41.363281 40.796875 41.585938 40.75 41.8125 40.710938 C 41.882812 40.699219 41.957031 40.691406 42.027344 40.683594 C 41.78125 40.929688 41.589844 41.179688 41.46875 41.484375 C 41.425781 41.601562 41.324219 41.605469 41.230469 41.617188 C 40.753906 41.6875 40.277344 41.75 39.796875 41.820312 C 39.515625 41.859375 39.238281 41.910156 38.933594 41.957031 C 38.953125 41.667969 39.078125 41.433594 39.253906 41.230469 C 39.308594 41.171875 39.410156 41.144531 39.496094 41.128906 C 40.042969 41.027344 40.589844 40.933594 41.136719 40.835938 Z M 43.632812 41.125 C 43.855469 41.441406 43.925781 41.671875 43.941406 42.183594 C 43.984375 42.582031 43.796875 42.957031 43.445312 43.242188 C 43.070312 43.546875 42.695312 43.585938 42.3125 43.265625 C 41.765625 42.808594 41.429688 41.90625 42.0625 41.085938 C 42.503906 40.507812 43.214844 40.527344 43.632812 41.125 Z M 42.066406 43.628906 C 41.28125 43.671875 40.496094 43.710938 39.707031 43.75 C 39.699219 43.75 39.691406 43.75 39.683594 43.75 C 39.304688 43.75 39.238281 43.703125 39.105469 43.304688 C 39.9375 43.144531 40.78125 43.128906 41.59375 43.015625 C 41.785156 43.214844 41.964844 43.402344 42.152344 43.597656 C 42.121094 43.609375 42.09375 43.628906 42.066406 43.628906 Z M 38.984375 43.078125 C 38.835938 42.804688 38.816406 42.523438 38.871094 42.238281 C 39.707031 42.105469 40.53125 41.976562 41.335938 41.847656 C 41.386719 42.160156 41.4375 42.480469 41.492188 42.820312 C 40.664062 42.859375 39.820312 42.878906 38.984375 43.078125 Z M 33.179688 41.941406 C 33.238281 42 33.292969 42.066406 33.367188 42.097656 C 33.421875 42.121094 33.515625 42.113281 33.566406 42.082031 C 33.636719 42.039062 33.628906 41.949219 33.582031 41.882812 C 33.519531 41.796875 33.449219 41.714844 33.382812 41.632812 C 33.269531 41.492188 33.15625 41.351562 33.03125 41.195312 C 33.152344 41.132812 33.25 41.082031 33.355469 41.03125 C 33.527344 41.285156 33.679688 41.527344 33.847656 41.757812 C 34.019531 41.988281 34.203125 42.203125 34.390625 42.4375 C 34.042969 42.5625 33.773438 42.753906 33.582031 43.058594 C 33.183594 42.609375 32.800781 42.179688 32.40625 41.734375 C 32.496094 41.640625 32.589844 41.542969 32.695312 41.429688 C 32.867188 41.609375 33.023438 41.777344 33.179688 41.941406 Z M 33.949219 41.066406 C 34.265625 41.433594 34.589844 41.792969 34.90625 42.160156 C 34.960938 42.21875 35.007812 42.28125 35.085938 42.382812 C 34.917969 42.382812 34.804688 42.382812 34.667969 42.382812 C 34.296875 41.933594 33.910156 41.46875 33.519531 41 C 33.789062 40.878906 33.792969 40.882812 33.949219 41.066406 Z M 35.671875 44 C 35.519531 44.238281 35.316406 44.40625 35.066406 44.523438 C 34.394531 44.847656 33.621094 44.234375 33.675781 43.617188 C 33.652344 43.414062 33.738281 43.238281 33.851562 43.074219 C 34.105469 42.703125 34.492188 42.5625 34.914062 42.566406 C 35.554688 42.574219 36.0625 43.390625 35.671875 44 Z M 33.402344 43.894531 C 32.9375 43.320312 32.503906 42.789062 32.0625 42.246094 C 32.144531 42.113281 32.21875 41.988281 32.308594 41.847656 C 32.703125 42.332031 33.085938 42.792969 33.46875 43.253906 C 33.449219 43.445312 33.429688 43.640625 33.402344 43.894531 Z M 28.402344 43.109375 C 28.636719 43.085938 28.816406 43.140625 28.972656 43.316406 C 29.09375 43.453125 29.199219 43.589844 29.265625 43.761719 C 28.753906 43.824219 28.261719 43.882812 27.765625 43.941406 C 27.480469 43.972656 27.195312 44.011719 26.910156 44.035156 C 26.847656 44.042969 26.75 44.027344 26.714844 43.988281 C 26.5 43.722656 26.246094 43.511719 25.9375 43.339844 C 26.027344 43.328125 26.113281 43.3125 26.199219 43.304688 C 26.933594 43.242188 27.671875 43.183594 28.402344 43.109375 Z M 29.398438 44.023438 C 29.527344 44.273438 29.566406 44.546875 29.519531 44.859375 C 28.667969 44.898438 27.839844 45.070312 26.988281 45.277344 C 26.988281 45.101562 27 44.941406 26.984375 44.785156 C 26.96875 44.625 26.925781 44.464844 26.890625 44.292969 C 27.714844 44.203125 28.539062 44.117188 29.398438 44.023438 Z M 29.339844 45.539062 C 29.304688 45.597656 29.210938 45.640625 29.136719 45.660156 C 28.8125 45.742188 28.484375 45.824219 28.15625 45.894531 C 27.683594 45.996094 27.210938 46.089844 26.738281 46.183594 C 26.683594 46.191406 26.628906 46.195312 26.570312 46.203125 C 26.703125 45.960938 26.828125 45.734375 26.96875 45.480469 C 27.769531 45.355469 28.597656 45.226562 29.453125 45.09375 C 29.460938 45.28125 29.410156 45.417969 29.339844 45.539062 Z M 26.320312 45.933594 C 26.058594 46.269531 25.742188 46.375 25.34375 46.222656 C 24.921875 46.0625 24.621094 45.785156 24.496094 45.332031 C 24.386719 44.925781 24.359375 44.523438 24.527344 44.128906 C 24.632812 43.875 24.796875 43.683594 25.050781 43.570312 C 25.355469 43.4375 25.644531 43.5 25.898438 43.660156 C 26.363281 43.953125 26.632812 44.378906 26.644531 44.933594 C 26.632812 45.304688 26.542969 45.640625 26.320312 45.933594 Z M 19.207031 42.175781 C 19.199219 42.1875 19.191406 42.199219 19.183594 42.210938 C 19.042969 42.160156 18.898438 42.105469 18.746094 42.046875 C 18.78125 41.972656 18.8125 41.90625 18.84375 41.84375 C 18.863281 41.800781 18.886719 41.757812 18.925781 41.683594 C 19.03125 41.863281 19.117188 42.019531 19.207031 42.175781 Z M 19.492188 43.472656 C 19.492188 44.167969 18.882812 44.835938 18.25 44.816406 C 17.460938 44.789062 16.90625 44.136719 16.917969 43.527344 C 16.929688 42.9375 17.417969 42.261719 18.222656 42.265625 C 18.921875 42.269531 19.492188 42.8125 19.492188 43.472656 Z M 16.078125 40.914062 C 16.191406 40.832031 16.316406 40.746094 16.445312 40.65625 C 16.644531 41.285156 16.835938 41.890625 17.039062 42.53125 C 16.941406 42.671875 16.828125 42.828125 16.699219 43.003906 C 16.492188 42.300781 16.289062 41.621094 16.078125 40.914062 Z M 17.375 40.300781 C 17.539062 40.871094 17.703125 41.441406 17.871094 42.019531 C 17.664062 42.121094 17.457031 42.21875 17.242188 42.324219 C 17.046875 41.734375 16.851562 41.148438 16.652344 40.554688 C 16.867188 40.410156 17.097656 40.34375 17.375 40.300781 Z M 18.296875 40.441406 C 18.324219 40.449219 18.347656 40.476562 18.363281 40.503906 C 18.382812 40.527344 18.394531 40.5625 18.40625 40.589844 C 18.484375 40.777344 18.621094 40.960938 18.632812 41.152344 C 18.640625 41.34375 18.523438 41.539062 18.460938 41.734375 C 18.4375 41.820312 18.410156 41.902344 18.378906 42.003906 C 18.304688 42.003906 18.226562 42.003906 18.171875 42.003906 C 17.96875 41.433594 17.769531 40.875 17.5625 40.304688 C 17.835938 40.277344 18.0625 40.375 18.296875 40.441406 Z M 13.984375 41.484375 C 14.214844 41.464844 14.394531 41.503906 14.554688 41.683594 C 14.675781 41.820312 14.777344 41.960938 14.859375 42.132812 C 14.128906 42.222656 13.429688 42.304688 12.730469 42.386719 C 12.632812 42.398438 12.535156 42.414062 12.4375 42.414062 C 12.386719 42.414062 12.320312 42.390625 12.292969 42.351562 C 12.082031 42.082031 11.824219 41.882812 11.457031 41.722656 C 11.613281 41.703125 11.707031 41.6875 11.804688 41.679688 C 12.53125 41.613281 13.257812 41.558594 13.984375 41.484375 Z M 14.984375 42.398438 C 15.121094 42.640625 15.144531 42.921875 15.101562 43.234375 C 14.246094 43.269531 13.414062 43.453125 12.601562 43.640625 C 12.570312 43.308594 12.539062 42.996094 12.503906 42.664062 C 13.308594 42.578125 14.140625 42.488281 14.984375 42.398438 Z M 15.046875 43.546875 C 15.019531 43.867188 14.855469 44.03125 14.53125 44.09375 C 13.769531 44.238281 13.011719 44.410156 12.25 44.574219 C 12.226562 44.578125 12.199219 44.574219 12.160156 44.574219 C 12.292969 44.335938 12.417969 44.105469 12.550781 43.855469 C 13.363281 43.753906 14.183594 43.554688 15.042969 43.492188 C 15.046875 43.53125 15.046875 43.539062 15.046875 43.546875 Z M 11.769531 44.464844 C 11.632812 44.601562 11.472656 44.660156 11.277344 44.652344 C 10.816406 44.632812 10.445312 44.425781 10.226562 44.03125 C 9.957031 43.546875 9.898438 43.023438 10.121094 42.492188 C 10.21875 42.253906 10.371094 42.074219 10.605469 41.960938 C 10.921875 41.804688 11.226562 41.867188 11.496094 42.039062 C 12.445312 42.648438 12.410156 43.804688 11.769531 44.464844 Z M 48.984375 29.90625 C 48.890625 29.421875 48.75 28.953125 48.453125 28.542969 C 48.402344 28.476562 48.378906 28.414062 48.410156 28.316406 C 48.65625 27.542969 48.710938 26.742188 48.6875 25.933594 C 48.660156 24.996094 48.511719 24.074219 48.308594 23.15625 C 48.136719 22.378906 47.910156 21.617188 47.523438 20.910156 C 47.074219 20.097656 46.464844 19.433594 45.644531 18.976562 C 45.195312 18.730469 44.730469 18.617188 44.222656 18.746094 C 44.199219 18.75 44.175781 18.742188 44.121094 18.738281 C 44.121094 18.609375 44.125 18.476562 44.121094 18.347656 C 44.117188 18.21875 44.101562 18.085938 44.089844 17.957031 C 43.953125 16.261719 43.21875 14.859375 41.988281 13.710938 C 41.21875 12.996094 40.316406 12.503906 39.332031 12.148438 C 39.25 12.117188 39.167969 12.082031 39.097656 12.054688 C 39.113281 11.738281 39.140625 11.445312 39.144531 11.152344 C 39.152344 10.371094 39.089844 9.59375 38.992188 8.820312 C 38.917969 8.21875 38.824219 7.617188 38.644531 7.039062 C 38.621094 6.96875 38.558594 6.902344 38.496094 6.859375 C 38.4375 6.820312 38.359375 6.808594 38.285156 6.789062 C 36.910156 6.441406 35.519531 6.160156 34.121094 5.929688 C 32.546875 5.667969 30.96875 5.480469 29.378906 5.363281 C 27.535156 5.222656 25.691406 5.15625 23.839844 5.234375 C 22.929688 5.269531 22.019531 5.320312 21.113281 5.394531 C 20.363281 5.457031 19.613281 5.558594 18.863281 5.648438 C 17.707031 5.785156 16.554688 5.949219 15.421875 6.234375 C 14.792969 6.390625 14.167969 6.566406 13.5625 6.796875 C 13.296875 6.898438 13.152344 7.066406 13.078125 7.328125 C 12.847656 8.140625 12.589844 8.945312 12.390625 9.765625 C 12.179688 10.640625 12.019531 11.53125 11.847656 12.417969 C 11.828125 12.523438 11.769531 12.5625 11.691406 12.609375 C 11.402344 12.78125 11.101562 12.941406 10.828125 13.136719 C 9.183594 14.308594 8.203125 15.882812 8.003906 17.914062 C 7.976562 18.191406 7.964844 18.46875 7.945312 18.753906 C 7.835938 18.734375 7.738281 18.71875 7.644531 18.707031 C 7.179688 18.640625 6.765625 18.792969 6.375 19.019531 C 5.519531 19.515625 4.902344 20.234375 4.464844 21.117188 C 4.109375 21.828125 3.902344 22.585938 3.742188 23.359375 C 3.425781 24.863281 3.246094 26.371094 3.566406 27.902344 C 3.589844 28.019531 3.558594 28.097656 3.472656 28.183594 C 3.226562 28.4375 3.050781 28.734375 3.007812 29.089844 C 2.941406 29.675781 2.976562 30.265625 3.210938 30.808594 C 3.433594 31.335938 3.828125 31.691406 4.453125 31.691406 C 4.550781 31.691406 4.644531 31.707031 4.757812 31.714844 C 4.757812 31.839844 4.753906 31.953125 4.761719 32.066406 C 4.8125 32.851562 4.847656 33.640625 4.921875 34.421875 C 4.96875 34.894531 5.054688 35.363281 5.15625 35.828125 C 5.296875 36.457031 5.65625 36.9375 6.253906 37.195312 C 6.585938 37.335938 6.933594 37.441406 7.28125 37.53125 C 7.808594 37.664062 8.355469 37.660156 8.894531 37.667969 C 9.726562 37.675781 10.550781 37.605469 11.359375 37.394531 C 11.964844 37.238281 12.332031 36.859375 12.503906 36.261719 C 12.753906 35.378906 12.839844 34.472656 12.878906 33.5625 C 12.898438 33.027344 12.878906 32.496094 12.878906 31.960938 C 12.878906 31.890625 12.890625 31.820312 12.894531 31.761719 C 16.148438 31.761719 19.382812 31.761719 22.660156 31.761719 C 22.597656 31.847656 22.570312 31.894531 22.535156 31.9375 C 21.972656 32.65625 21.414062 33.375 20.84375 34.085938 C 20.335938 34.722656 19.773438 35.308594 19.1875 35.875 C 18.277344 36.746094 17.273438 37.5 16.265625 38.246094 C 15.253906 38.992188 14.3125 39.800781 13.546875 40.804688 C 13.4375 40.945312 13.339844 41.125 13.195312 41.203125 C 13.046875 41.285156 12.839844 41.253906 12.664062 41.285156 C 12.035156 41.394531 11.398438 41.488281 10.777344 41.628906 C 10.285156 41.738281 9.972656 42.058594 9.824219 42.554688 C 9.679688 43.027344 9.746094 43.472656 9.878906 43.933594 C 10.035156 44.476562 10.765625 45.011719 11.378906 44.964844 C 11.601562 44.949219 11.824219 44.9375 12.039062 44.898438 C 12.695312 44.78125 13.347656 44.652344 13.996094 44.523438 C 14.292969 44.464844 14.59375 44.398438 14.882812 44.3125 C 15 44.277344 15.144531 44.203125 15.199219 44.105469 C 15.421875 43.695312 15.558594 43.253906 15.519531 42.78125 C 15.464844 42.175781 15.140625 41.707031 14.671875 41.339844 C 14.496094 41.203125 14.292969 41.148438 14.070312 41.167969 C 13.976562 41.179688 13.882812 41.199219 13.777344 41.140625 C 13.960938 40.949219 14.128906 40.769531 14.304688 40.597656 C 14.710938 40.195312 15.101562 39.765625 15.542969 39.402344 C 16.238281 38.828125 16.976562 38.304688 17.695312 37.757812 C 18.976562 36.777344 20.15625 35.683594 21.179688 34.433594 C 21.851562 33.613281 22.492188 32.769531 23.140625 31.929688 C 23.242188 31.796875 23.347656 31.75 23.507812 31.753906 C 23.863281 31.761719 24.214844 31.757812 24.566406 31.757812 C 24.621094 31.757812 24.671875 31.773438 24.742188 31.785156 C 24.6875 31.878906 24.648438 31.949219 24.605469 32.015625 C 24.292969 32.472656 23.996094 32.933594 23.667969 33.375 C 22.734375 34.625 21.78125 35.859375 20.855469 37.117188 C 20.042969 38.226562 19.367188 39.417969 18.839844 40.6875 C 18.824219 40.71875 18.800781 40.746094 18.761719 40.804688 C 18.699219 40.660156 18.65625 40.542969 18.597656 40.4375 C 18.550781 40.355469 18.492188 40.257812 18.414062 40.21875 C 17.699219 39.863281 16.695312 39.957031 16.070312 40.652344 C 15.914062 40.824219 15.859375 41.003906 15.925781 41.238281 C 16.070312 41.734375 16.1875 42.238281 16.320312 42.738281 C 16.433594 43.15625 16.546875 43.574219 16.671875 43.988281 C 16.929688 44.875 17.839844 45.265625 18.480469 45.152344 C 19.316406 45.003906 19.949219 44.171875 19.820312 43.332031 C 19.75 42.847656 19.65625 42.359375 19.40625 41.925781 C 19.320312 41.777344 19.25 41.617188 19.160156 41.46875 C 19.097656 41.367188 19.097656 41.28125 19.148438 41.171875 C 19.324219 40.820312 19.484375 40.460938 19.65625 40.105469 C 20.363281 38.605469 21.289062 37.238281 22.277344 35.914062 C 23.269531 34.585938 24.3125 33.296875 25.183594 31.878906 C 25.242188 31.777344 25.320312 31.757812 25.425781 31.757812 C 25.96875 31.761719 26.507812 31.761719 27.050781 31.761719 C 27.109375 31.761719 27.164062 31.773438 27.230469 31.777344 C 27.21875 31.84375 27.214844 31.902344 27.203125 31.957031 C 27.070312 32.480469 26.953125 33.011719 26.804688 33.53125 C 26.390625 34.964844 25.992188 36.402344 25.828125 37.894531 C 25.714844 38.917969 25.746094 39.921875 25.972656 40.925781 C 26.117188 41.554688 26.402344 42.128906 26.65625 42.71875 C 26.683594 42.789062 26.714844 42.859375 26.75 42.945312 C 26.605469 42.96875 26.492188 42.980469 26.382812 43.003906 C 25.980469 43.082031 25.574219 43.152344 25.175781 43.253906 C 24.6875 43.378906 24.375 43.699219 24.230469 44.191406 C 24.09375 44.664062 24.160156 45.113281 24.296875 45.570312 C 24.453125 46.097656 25.167969 46.632812 25.78125 46.59375 C 26.011719 46.578125 26.242188 46.5625 26.46875 46.519531 C 27.113281 46.40625 27.757812 46.277344 28.398438 46.152344 C 28.703125 46.089844 29.007812 46.015625 29.308594 45.941406 C 29.496094 45.894531 29.632812 45.78125 29.691406 45.589844 C 29.742188 45.425781 29.808594 45.265625 29.851562 45.101562 C 30.070312 44.277344 29.78125 43.46875 29.09375 42.96875 C 28.921875 42.84375 28.734375 42.78125 28.519531 42.792969 C 28.230469 42.8125 27.945312 42.828125 27.660156 42.847656 C 27.472656 42.863281 27.285156 42.882812 27.09375 42.898438 C 26.949219 42.472656 26.796875 42.054688 26.664062 41.632812 C 26.363281 40.664062 26.183594 39.675781 26.234375 38.652344 C 26.285156 37.597656 26.472656 36.566406 26.722656 35.546875 C 26.953125 34.597656 27.214844 33.65625 27.457031 32.710938 C 27.535156 32.402344 27.589844 32.089844 27.65625 31.785156 C 27.976562 31.738281 29.0625 31.753906 29.261719 31.816406 C 29.304688 32.53125 29.355469 33.261719 29.398438 33.988281 C 29.449219 34.792969 29.515625 35.59375 29.695312 36.382812 C 29.949219 37.503906 30.351562 38.570312 31.042969 39.5 C 31.457031 40.058594 31.941406 40.566406 32.394531 41.097656 C 32.449219 41.164062 32.507812 41.226562 32.5625 41.285156 C 32.339844 41.542969 32.113281 41.757812 32 42.058594 C 31.945312 42.199219 31.949219 42.316406 32.039062 42.449219 C 32.527344 43.164062 33.054688 43.84375 33.660156 44.457031 C 34.296875 45.105469 35.058594 45.015625 35.632812 44.546875 C 36.234375 44.054688 36.207031 43.335938 35.816406 42.855469 C 35.472656 42.4375 35.101562 42.042969 34.738281 41.644531 C 34.488281 41.371094 34.21875 41.117188 33.96875 40.847656 C 33.871094 40.742188 33.757812 40.714844 33.636719 40.75 C 33.386719 40.824219 33.144531 40.914062 32.882812 41.003906 C 32.671875 40.75 32.441406 40.484375 32.21875 40.210938 C 31.871094 39.777344 31.5 39.355469 31.191406 38.890625 C 30.363281 37.65625 29.976562 36.265625 29.835938 34.796875 C 29.78125 34.203125 29.75 33.601562 29.703125 33.003906 C 29.671875 32.605469 29.636719 32.207031 29.597656 31.765625 C 29.699219 31.765625 29.777344 31.765625 29.859375 31.765625 C 30.328125 31.761719 30.796875 31.773438 31.261719 31.757812 C 31.457031 31.75 31.5625 31.8125 31.644531 31.984375 C 31.992188 32.71875 32.355469 33.445312 32.703125 34.179688 C 33.019531 34.847656 33.363281 35.5 33.792969 36.105469 C 34.523438 37.136719 35.4375 37.976562 36.460938 38.707031 C 37.476562 39.4375 38.558594 40.050781 39.6875 40.59375 C 39.738281 40.617188 39.785156 40.65625 39.871094 40.707031 C 39.683594 40.753906 39.535156 40.769531 39.402344 40.824219 C 39.253906 40.882812 39.082031 40.941406 38.980469 41.054688 C 38.554688 41.519531 38.367188 42.078125 38.449219 42.710938 C 38.496094 43.085938 38.707031 43.394531 38.902344 43.710938 C 39.074219 43.988281 39.3125 44.09375 39.625 44.074219 C 39.664062 44.070312 39.707031 44.074219 39.746094 44.070312 C 40.246094 44.046875 40.746094 44.035156 41.246094 43.988281 C 41.816406 43.9375 42.390625 43.882812 42.957031 43.789062 C 43.59375 43.679688 44 43.25 44.152344 42.648438 C 44.304688 42.027344 44.1875 41.417969 43.789062 40.898438 C 43.601562 40.652344 43.359375 40.460938 43.03125 40.4375 C 42.757812 40.421875 42.476562 40.398438 42.203125 40.414062 C 41.785156 40.441406 41.367188 40.484375 40.953125 40.546875 C 40.726562 40.582031 40.53125 40.546875 40.339844 40.4375 C 40.285156 40.402344 40.222656 40.378906 40.167969 40.34375 C 39.375 39.878906 38.574219 39.425781 37.792969 38.941406 C 37.304688 38.640625 36.835938 38.308594 36.378906 37.964844 C 35.078125 36.980469 34.070312 35.753906 33.359375 34.285156 C 32.980469 33.492188 32.574219 32.714844 32.179688 31.929688 C 32.15625 31.882812 32.140625 31.832031 32.121094 31.785156 C 34.53125 31.785156 36.925781 31.785156 39.328125 31.785156 C 39.335938 31.855469 39.34375 31.902344 39.339844 31.953125 C 39.335938 32.269531 39.304688 32.59375 39.320312 32.910156 C 39.355469 33.640625 39.394531 34.371094 39.46875 35.097656 C 39.515625 35.585938 39.617188 36.070312 39.796875 36.53125 C 39.960938 36.9375 40.246094 37.21875 40.660156 37.355469 C 40.882812 37.429688 41.117188 37.484375 41.347656 37.53125 C 42.191406 37.707031 43.046875 37.703125 43.902344 37.679688 C 44.550781 37.660156 45.1875 37.546875 45.796875 37.300781 C 46.519531 37.007812 46.941406 36.480469 47.089844 35.71875 C 47.28125 34.765625 47.367188 33.804688 47.421875 32.835938 C 47.441406 32.527344 47.453125 32.21875 47.46875 31.886719 C 47.582031 31.878906 47.675781 31.863281 47.773438 31.867188 C 48.226562 31.890625 48.546875 31.671875 48.75 31.289062 C 48.980469 30.859375 49.078125 30.390625 48.984375 29.90625 " fill-opacity="1" fill-rule="nonzero"/></g><path fill="#d5b36f" d="M 33.011719 25.351562 C 32.851562 25.375 32.6875 25.425781 32.5 25.332031 C 32.5 25.097656 32.492188 24.855469 32.5 24.613281 C 32.511719 24.359375 32.53125 24.105469 32.554688 23.851562 C 32.601562 23.367188 32.613281 22.886719 32.523438 22.402344 C 33.207031 22.074219 33.867188 21.722656 34.585938 21.519531 C 34.824219 21.453125 35.058594 21.375 35.292969 21.304688 C 35.492188 21.238281 35.542969 21.167969 35.496094 20.957031 C 35.457031 20.78125 35.402344 20.609375 35.355469 20.4375 C 35.34375 20.398438 35.339844 20.359375 35.332031 20.3125 C 36.050781 20.40625 36.734375 20.265625 37.414062 20.113281 C 38.109375 19.960938 38.800781 19.78125 39.492188 19.613281 C 39.632812 19.578125 39.773438 19.53125 39.933594 19.523438 C 39.863281 19.609375 39.792969 19.699219 39.71875 19.78125 C 39.296875 20.25 38.859375 20.707031 38.453125 21.191406 C 38.242188 21.4375 38.074219 21.722656 37.894531 21.996094 C 37.851562 22.0625 37.820312 22.144531 37.796875 22.222656 C 37.726562 22.46875 37.796875 22.660156 38.015625 22.792969 C 38.136719 22.863281 38.261719 22.921875 38.386719 22.984375 C 38.816406 23.1875 39.25 23.386719 39.679688 23.589844 C 39.746094 23.617188 39.808594 23.65625 39.871094 23.691406 C 39.871094 23.707031 39.871094 23.726562 39.867188 23.742188 C 39.296875 23.921875 38.726562 24.101562 38.15625 24.273438 C 37.054688 24.601562 35.933594 24.839844 34.800781 25.039062 C 34.207031 25.144531 33.609375 25.253906 33.011719 25.351562 Z M 31.140625 21.53125 C 30.214844 21.707031 29.277344 21.714844 28.34375 21.582031 C 27.355469 21.445312 26.371094 21.261719 25.382812 21.09375 C 24.210938 20.890625 23.03125 20.722656 21.835938 20.742188 C 20.671875 20.761719 19.507812 20.84375 18.371094 21.121094 C 17.925781 21.230469 17.492188 21.386719 17.03125 21.527344 C 17.074219 20.847656 17.144531 20.1875 17.292969 19.539062 C 17.519531 18.542969 17.878906 17.59375 18.179688 16.621094 C 18.28125 16.304688 18.449219 16.15625 18.753906 16.042969 C 19.957031 15.605469 21.203125 15.378906 22.464844 15.207031 C 23.523438 15.0625 24.585938 14.960938 25.65625 15.007812 C 26.539062 15.046875 27.402344 15.199219 28.246094 15.441406 C 29.644531 15.839844 31.066406 15.972656 32.507812 15.839844 C 33.023438 15.792969 33.53125 15.699219 34.042969 15.625 C 34.097656 15.617188 34.152344 15.613281 34.214844 15.605469 C 34.363281 17.386719 34.613281 19.136719 35.109375 20.863281 C 35.035156 20.871094 34.976562 20.882812 34.914062 20.878906 C 34.410156 20.867188 33.917969 20.941406 33.429688 21.054688 C 32.667969 21.222656 31.90625 21.386719 31.140625 21.53125 Z M 18.171875 24.734375 C 16.828125 25.113281 13.847656 25.195312 13.113281 24.851562 C 13.179688 24.785156 13.238281 24.722656 13.296875 24.664062 C 13.601562 24.351562 13.910156 24.046875 14.199219 23.71875 C 14.316406 23.582031 14.40625 23.40625 14.46875 23.230469 C 14.5625 22.984375 14.496094 22.773438 14.273438 22.628906 C 14.105469 22.515625 13.914062 22.429688 13.726562 22.355469 C 13.191406 22.144531 12.628906 22.027344 12.054688 21.9375 C 13.679688 21.484375 15.246094 20.894531 16.78125 20.128906 C 16.753906 20.351562 16.722656 20.550781 16.710938 20.75 C 16.691406 21.082031 16.664062 21.417969 16.679688 21.75 C 16.6875 21.984375 16.722656 21.96875 16.953125 21.988281 C 17.410156 22.023438 17.871094 21.957031 18.351562 22.085938 C 18.09375 22.960938 18.125 23.851562 18.171875 24.734375 Z M 39.988281 24.089844 C 40.136719 24.042969 40.277344 23.972656 40.414062 23.894531 C 40.558594 23.8125 40.578125 23.65625 40.460938 23.550781 C 40.390625 23.484375 40.300781 23.433594 40.210938 23.394531 C 39.621094 23.125 39.03125 22.859375 38.4375 22.597656 C 38.074219 22.4375 38.058594 22.394531 38.242188 22.03125 C 38.429688 21.667969 38.699219 21.375 38.96875 21.074219 C 39.324219 20.675781 39.667969 20.269531 40.011719 19.859375 C 40.101562 19.753906 40.171875 19.632812 40.238281 19.507812 C 40.347656 19.300781 40.285156 19.179688 40.046875 19.15625 C 39.925781 19.144531 39.800781 19.148438 39.683594 19.175781 C 39.242188 19.28125 38.808594 19.40625 38.371094 19.507812 C 37.578125 19.6875 36.785156 19.863281 35.992188 20.019531 C 35.761719 20.0625 35.519531 20.027344 35.265625 20.027344 C 35.246094 19.949219 35.222656 19.882812 35.207031 19.8125 C 35.011719 18.8125 34.828125 17.816406 34.757812 16.796875 C 34.726562 16.382812 34.652344 15.96875 34.574219 15.558594 C 34.523438 15.296875 34.441406 15.246094 34.179688 15.253906 C 33.785156 15.269531 33.390625 15.277344 33 15.324219 C 31.382812 15.503906 29.789062 15.398438 28.21875 14.949219 C 27.308594 14.691406 26.378906 14.535156 25.429688 14.515625 C 24.753906 14.503906 24.085938 14.539062 23.414062 14.613281 C 22.417969 14.71875 21.429688 14.871094 20.460938 15.140625 C 19.757812 15.335938 19.0625 15.550781 18.363281 15.757812 C 18.175781 15.816406 18.058594 15.933594 17.992188 16.121094 C 17.582031 17.269531 17.144531 18.414062 16.890625 19.613281 C 16.867188 19.726562 16.8125 19.78125 16.710938 19.816406 C 16.507812 19.882812 16.308594 19.957031 16.109375 20.035156 C 14.976562 20.488281 13.839844 20.941406 12.675781 21.3125 C 12.316406 21.429688 11.96875 21.574219 11.617188 21.710938 C 11.527344 21.75 11.4375 21.796875 11.363281 21.859375 C 11.246094 21.960938 11.28125 22.121094 11.425781 22.167969 C 11.492188 22.191406 11.570312 22.191406 11.640625 22.203125 C 11.789062 22.230469 11.9375 22.242188 12.078125 22.28125 C 12.484375 22.402344 12.894531 22.527344 13.296875 22.660156 C 13.53125 22.738281 13.761719 22.828125 13.988281 22.925781 C 14.152344 22.996094 14.175781 23.054688 14.097656 23.210938 C 14.015625 23.371094 13.917969 23.527344 13.796875 23.660156 C 13.503906 23.976562 13.1875 24.28125 12.882812 24.589844 C 12.816406 24.660156 12.746094 24.734375 12.695312 24.816406 C 12.617188 24.945312 12.640625 25.054688 12.773438 25.128906 C 12.871094 25.1875 12.980469 25.226562 13.089844 25.257812 C 13.550781 25.375 14.019531 25.441406 14.496094 25.472656 C 15.828125 25.554688 17.136719 25.414062 18.441406 25.179688 C 18.675781 25.136719 18.671875 25.132812 18.664062 24.890625 C 18.65625 24.570312 18.625 24.25 18.644531 23.933594 C 18.699219 23.078125 18.867188 22.246094 19.199219 21.421875 C 20.011719 21.277344 20.832031 21.222656 21.652344 21.230469 C 22.894531 21.242188 24.121094 21.410156 25.339844 21.636719 C 26.40625 21.835938 27.464844 22.074219 28.542969 22.179688 C 29.386719 22.261719 30.230469 22.257812 31.070312 22.125 C 31.410156 22.070312 31.746094 22.003906 32.105469 21.9375 C 32.121094 22.054688 32.140625 22.164062 32.152344 22.277344 C 32.234375 23.109375 32.125 23.933594 32.085938 24.761719 C 32.074219 24.976562 32.09375 25.203125 32.144531 25.417969 C 32.203125 25.660156 32.347656 25.75 32.59375 25.753906 C 32.742188 25.753906 32.890625 25.742188 33.035156 25.71875 C 33.546875 25.636719 34.050781 25.539062 34.5625 25.460938 C 35.742188 25.289062 36.910156 25.085938 38.046875 24.722656 C 38.695312 24.515625 39.34375 24.304688 39.988281 24.089844 " fill-opacity="1" fill-rule="nonzero"/><path fill="#d5b36f" d="M 8.640625 34.25 C 8.617188 34.195312 8.539062 34.140625 8.480469 34.128906 C 8.441406 34.125 8.363281 34.195312 8.347656 34.246094 C 8.199219 34.667969 8.242188 35.082031 8.4375 35.480469 C 8.460938 35.535156 8.550781 35.585938 8.609375 35.585938 C 8.703125 35.589844 8.746094 35.503906 8.746094 35.414062 C 8.75 35.285156 8.746094 35.152344 8.746094 35.019531 C 8.769531 34.757812 8.746094 34.496094 8.640625 34.25 " fill-opacity="1" fill-rule="nonzero"/><path fill="#d5b36f" d="M 10.628906 34.023438 C 10.566406 34.042969 10.492188 34.097656 10.472656 34.152344 C 10.417969 34.324219 10.390625 34.5 10.355469 34.652344 C 10.378906 34.820312 10.398438 34.957031 10.425781 35.09375 C 10.445312 35.191406 10.515625 35.25 10.617188 35.257812 C 10.71875 35.265625 10.792969 35.207031 10.820312 35.113281 C 10.921875 34.792969 10.925781 34.472656 10.808594 34.152344 C 10.78125 34.070312 10.722656 33.996094 10.628906 34.023438 " fill-opacity="1" fill-rule="nonzero"/><path fill="#d5b36f" d="M 6.394531 33.945312 C 6.351562 33.945312 6.28125 34.015625 6.269531 34.0625 C 6.167969 34.441406 6.167969 34.824219 6.277344 35.199219 C 6.308594 35.296875 6.367188 35.363281 6.472656 35.351562 C 6.578125 35.335938 6.613281 35.25 6.621094 35.152344 C 6.628906 35.046875 6.632812 34.941406 6.636719 34.835938 C 6.648438 34.832031 6.660156 34.832031 6.667969 34.828125 C 6.625 34.574219 6.582031 34.316406 6.527344 34.0625 C 6.515625 34.015625 6.441406 33.949219 6.394531 33.945312 " fill-opacity="1" fill-rule="nonzero"/><path fill="#d5b36f" d="M 43.832031 34.199219 C 43.777344 34.121094 43.683594 34.117188 43.625 34.191406 C 43.582031 34.242188 43.550781 34.304688 43.539062 34.367188 C 43.496094 34.597656 43.460938 34.832031 43.421875 35.0625 C 43.429688 35.066406 43.4375 35.066406 43.445312 35.070312 C 43.457031 35.207031 43.460938 35.347656 43.480469 35.484375 C 43.488281 35.53125 43.542969 35.597656 43.582031 35.601562 C 43.636719 35.609375 43.707031 35.578125 43.753906 35.542969 C 43.789062 35.519531 43.808594 35.464844 43.828125 35.417969 C 43.957031 35.089844 43.972656 34.75 43.914062 34.402344 C 43.898438 34.332031 43.871094 34.261719 43.832031 34.199219 " fill-opacity="1" fill-rule="nonzero"/><path fill="#d5b36f" d="M 41.570312 34.042969 C 41.503906 34.0625 41.425781 34.128906 41.402344 34.191406 C 41.351562 34.347656 41.332031 34.507812 41.300781 34.660156 C 41.328125 34.820312 41.347656 34.964844 41.378906 35.109375 C 41.40625 35.214844 41.480469 35.28125 41.59375 35.277344 C 41.695312 35.277344 41.765625 35.214844 41.789062 35.121094 C 41.871094 34.804688 41.867188 34.488281 41.746094 34.179688 C 41.71875 34.101562 41.664062 34.015625 41.570312 34.042969 " fill-opacity="1" fill-rule="nonzero"/><path fill="#d5b36f" d="M 45.820312 33.964844 C 45.769531 34.011719 45.714844 34.058594 45.671875 34.109375 C 45.652344 34.132812 45.65625 34.171875 45.648438 34.203125 C 45.570312 34.523438 45.550781 34.847656 45.597656 35.171875 C 45.613281 35.269531 45.625 35.355469 45.738281 35.371094 C 45.863281 35.382812 45.921875 35.304688 45.941406 35.203125 C 45.976562 35.019531 46 34.832031 46.027344 34.652344 C 46.003906 34.464844 45.988281 34.289062 45.949219 34.113281 C 45.9375 34.054688 45.863281 34.011719 45.820312 33.964844 " fill-opacity="1" fill-rule="nonzero"/><path fill="#d5b36f" d="M 8.695312 23.304688 C 9.523438 23.304688 10.179688 23.980469 10.175781 24.824219 C 10.175781 25.652344 9.515625 26.304688 8.6875 26.304688 C 7.863281 26.300781 7.183594 25.613281 7.195312 24.789062 C 7.207031 23.972656 7.878906 23.304688 8.695312 23.304688 Z M 8.71875 26.5625 C 9.675781 26.566406 10.460938 25.785156 10.472656 24.832031 C 10.484375 23.890625 9.683594 23.09375 8.730469 23.09375 C 7.769531 23.09375 6.984375 23.871094 6.984375 24.824219 C 6.984375 25.792969 7.746094 26.558594 8.71875 26.5625 " fill-opacity="1" fill-rule="nonzero"/><path fill="#d5b36f" d="M 43.242188 23.304688 C 44.074219 23.3125 44.722656 23.984375 44.71875 24.832031 C 44.714844 25.65625 44.050781 26.308594 43.222656 26.304688 C 42.40625 26.296875 41.742188 25.625 41.738281 24.804688 C 41.734375 23.984375 42.421875 23.296875 43.242188 23.304688 Z M 43.261719 26.5625 C 44.21875 26.566406 45.003906 25.785156 45.015625 24.832031 C 45.023438 23.890625 44.226562 23.09375 43.269531 23.09375 C 42.308594 23.09375 41.527344 23.871094 41.523438 24.828125 C 41.523438 25.792969 42.289062 26.558594 43.261719 26.5625 " fill-opacity="1" fill-rule="nonzero"/><path fill="#d5b36f" d="M 25.824219 45.402344 C 25.652344 45.574219 25.40625 45.566406 25.238281 45.386719 C 24.957031 45.074219 24.972656 44.539062 25.277344 44.25 C 25.515625 44.023438 25.796875 44.082031 25.921875 44.382812 C 25.949219 44.453125 25.972656 44.523438 25.988281 44.59375 C 26.003906 44.675781 26.007812 44.757812 26.015625 44.804688 C 26.019531 45.050781 25.980469 45.246094 25.824219 45.402344 Z M 26.128906 44.140625 C 25.863281 43.785156 25.382812 43.78125 25.097656 44.113281 C 24.753906 44.515625 24.726562 44.957031 24.917969 45.421875 C 25.113281 45.90625 25.671875 46.011719 26.046875 45.652344 C 26.269531 45.441406 26.359375 45.175781 26.355469 44.875 C 26.355469 44.605469 26.289062 44.355469 26.128906 44.140625 " fill-opacity="1" fill-rule="nonzero"/><path fill="#d5b36f" d="M 11.421875 43.761719 C 11.25 43.949219 10.988281 43.945312 10.820312 43.753906 C 10.539062 43.4375 10.558594 42.910156 10.867188 42.621094 C 11.109375 42.394531 11.386719 42.457031 11.511719 42.765625 C 11.542969 42.847656 11.570312 42.9375 11.589844 43.023438 C 11.605469 43.09375 11.601562 43.167969 11.605469 43.203125 C 11.609375 43.4375 11.558594 43.613281 11.421875 43.761719 Z M 11.699219 42.496094 C 11.4375 42.160156 10.957031 42.164062 10.683594 42.484375 C 10.355469 42.878906 10.308594 43.308594 10.492188 43.773438 C 10.695312 44.289062 11.285156 44.398438 11.667969 43.992188 C 11.867188 43.785156 11.941406 43.53125 11.953125 43.226562 C 11.9375 42.976562 11.875 42.714844 11.699219 42.496094 " fill-opacity="1" fill-rule="nonzero"/><path fill="#d5b36f" d="M 42.324219 41.660156 C 42.371094 41.359375 42.613281 41.242188 42.890625 41.378906 C 43.175781 41.523438 43.304688 41.742188 43.3125 42.097656 C 43.296875 42.203125 43.296875 42.3125 43.265625 42.410156 C 43.167969 42.699219 42.882812 42.792969 42.636719 42.609375 C 42.550781 42.542969 42.472656 42.449219 42.421875 42.351562 C 42.308594 42.136719 42.285156 41.898438 42.324219 41.660156 Z M 42.0625 42.386719 C 42.15625 42.640625 42.316406 42.84375 42.566406 42.960938 C 42.988281 43.164062 43.433594 42.957031 43.542969 42.503906 C 43.566406 42.417969 43.570312 42.328125 43.585938 42.238281 C 43.597656 41.75 43.363281 41.40625 42.964844 41.164062 C 42.875 41.105469 42.75 41.066406 42.644531 41.070312 C 42.328125 41.09375 42.082031 41.320312 42.015625 41.636719 C 41.960938 41.890625 41.96875 42.140625 42.0625 42.386719 " fill-opacity="1" fill-rule="nonzero"/><path fill="#d5b36f" d="M 18.335938 44.257812 C 17.890625 44.335938 17.523438 44.019531 17.527344 43.519531 C 17.574219 43.269531 17.585938 42.964844 17.871094 42.761719 C 18.273438 42.480469 18.8125 42.652344 18.964844 43.125 C 19.128906 43.640625 18.835938 44.167969 18.335938 44.257812 Z M 18.1875 42.417969 C 18.070312 42.429688 17.949219 42.476562 17.851562 42.539062 C 17.550781 42.738281 17.417969 43.039062 17.355469 43.382812 C 17.285156 43.757812 17.421875 44.171875 17.722656 44.359375 C 18.046875 44.558594 18.394531 44.539062 18.722656 44.351562 C 19.09375 44.144531 19.199219 43.792969 19.210938 43.308594 C 19.25 42.730469 18.71875 42.363281 18.1875 42.417969 " fill-opacity="1" fill-rule="nonzero"/><path fill="#d5b36f" d="M 35.113281 42.945312 C 35.300781 43.042969 35.363281 43.214844 35.363281 43.417969 C 35.359375 43.710938 34.988281 44.117188 34.691406 44.136719 C 34.613281 44.140625 34.507812 44.113281 34.445312 44.0625 C 34.066406 43.738281 34.113281 43.230469 34.507812 42.953125 C 34.679688 42.832031 34.914062 42.84375 35.113281 42.945312 Z M 33.988281 43.566406 C 34.039062 43.726562 34.070312 43.898438 34.148438 44.046875 C 34.257812 44.265625 34.449219 44.394531 34.707031 44.371094 C 35.058594 44.335938 35.445312 43.996094 35.535156 43.652344 C 35.640625 43.25 35.429688 42.835938 35.066406 42.761719 C 34.941406 42.738281 34.804688 42.761719 34.679688 42.78125 C 34.253906 42.851562 34.023438 43.128906 33.988281 43.566406 " fill-opacity="1" fill-rule="nonzero"/><path fill="#d5b36f" d="M 22.277344 17.785156 C 22.152344 17.730469 22.03125 17.777344 21.9375 17.867188 C 21.78125 18.023438 21.628906 18.183594 21.480469 18.347656 C 21.414062 18.421875 21.355469 18.503906 21.265625 18.613281 C 21.226562 18.464844 21.199219 18.363281 21.164062 18.265625 C 21.121094 18.125 21.082031 17.980469 21.015625 17.851562 C 20.90625 17.636719 20.671875 17.640625 20.550781 17.851562 C 20.519531 17.90625 20.5 17.96875 20.476562 18.03125 C 20.261719 18.625 20.046875 19.214844 19.832031 19.808594 C 19.816406 19.863281 19.789062 19.917969 19.789062 19.972656 C 19.789062 20.109375 19.914062 20.175781 20.027344 20.101562 C 20.058594 20.078125 20.085938 20.042969 20.113281 20.015625 C 20.355469 19.757812 20.507812 19.453125 20.636719 19.132812 C 20.679688 19.019531 20.726562 18.914062 20.789062 18.773438 C 20.84375 18.929688 20.875 19.050781 20.929688 19.160156 C 21.035156 19.367188 21.234375 19.386719 21.382812 19.207031 C 21.4375 19.144531 21.472656 19.070312 21.523438 19.007812 C 21.644531 18.84375 21.765625 18.683594 21.886719 18.523438 C 21.898438 18.535156 21.914062 18.542969 21.925781 18.554688 C 21.890625 18.863281 21.839844 19.171875 21.824219 19.480469 C 21.8125 19.632812 21.851562 19.789062 21.890625 19.9375 C 21.910156 20.027344 21.988281 20.089844 22.09375 20.085938 C 22.199219 20.082031 22.257812 20.015625 22.285156 19.925781 C 22.316406 19.8125 22.339844 19.699219 22.347656 19.585938 C 22.371094 19.234375 22.390625 18.882812 22.410156 18.53125 C 22.417969 18.394531 22.433594 18.253906 22.441406 18.117188 C 22.449219 17.976562 22.417969 17.847656 22.277344 17.785156 " fill-opacity="1" fill-rule="nonzero"/><path fill="#d5b36f" d="M 32.890625 19.289062 C 32.824219 19.792969 32.546875 20.042969 31.988281 20.066406 C 32 19.578125 32.015625 19.089844 32.03125 18.617188 C 32.554688 18.464844 32.953125 18.796875 32.890625 19.289062 Z M 32.167969 18.167969 C 32.0625 18.179688 31.957031 18.179688 31.808594 18.1875 C 31.785156 18.242188 31.730469 18.328125 31.722656 18.417969 C 31.667969 19.019531 31.621094 19.621094 31.574219 20.226562 C 31.570312 20.273438 31.570312 20.324219 31.582031 20.371094 C 31.613281 20.515625 31.753906 20.582031 31.855469 20.480469 C 31.945312 20.390625 32.023438 20.417969 32.121094 20.425781 C 32.207031 20.433594 32.300781 20.441406 32.390625 20.421875 C 32.828125 20.339844 33.132812 20.101562 33.261719 19.664062 C 33.398438 19.195312 33.300781 18.789062 32.949219 18.449219 C 32.734375 18.242188 32.476562 18.136719 32.167969 18.167969 " fill-opacity="1" fill-rule="nonzero"/><path fill="#d5b36f" d="M 27.304688 18.671875 C 27.1875 18.753906 27.050781 18.816406 26.894531 18.796875 C 26.894531 18.589844 26.894531 18.386719 26.894531 18.144531 C 27.050781 18.191406 27.175781 18.210938 27.28125 18.265625 C 27.46875 18.359375 27.480469 18.554688 27.304688 18.671875 Z M 27.597656 18.066406 C 27.382812 17.886719 27.140625 17.828125 26.863281 17.894531 C 26.613281 17.957031 26.609375 17.949219 26.578125 18.195312 C 26.507812 18.714844 26.433594 19.230469 26.375 19.753906 C 26.355469 19.902344 26.378906 20.0625 26.410156 20.214844 C 26.417969 20.265625 26.503906 20.324219 26.5625 20.335938 C 26.597656 20.34375 26.671875 20.265625 26.6875 20.214844 C 26.730469 20.058594 26.753906 19.894531 26.785156 19.734375 C 26.796875 19.671875 26.808594 19.605469 26.832031 19.496094 C 27.003906 19.746094 27.136719 19.949219 27.277344 20.152344 C 27.328125 20.226562 27.382812 20.296875 27.449219 20.359375 C 27.515625 20.425781 27.605469 20.449219 27.695312 20.390625 C 27.785156 20.332031 27.808594 20.242188 27.773438 20.152344 C 27.742188 20.0625 27.691406 19.972656 27.632812 19.898438 C 27.441406 19.652344 27.242188 19.414062 27.039062 19.160156 C 27.199219 19.101562 27.351562 19.066406 27.488281 18.996094 C 27.882812 18.796875 27.929688 18.347656 27.597656 18.066406 " fill-opacity="1" fill-rule="nonzero"/><path fill="#d5b36f" d="M 25.546875 18.558594 C 25.425781 18.628906 25.285156 18.667969 25.109375 18.734375 C 25.128906 18.519531 25.144531 18.355469 25.167969 18.140625 C 25.308594 18.171875 25.425781 18.171875 25.527344 18.21875 C 25.691406 18.292969 25.703125 18.464844 25.546875 18.558594 Z M 25.902344 18.652344 C 26.15625 18.320312 25.984375 17.875 25.570312 17.8125 C 25.4375 17.792969 25.292969 17.84375 25.15625 17.832031 C 24.960938 17.816406 24.894531 17.929688 24.855469 18.085938 C 24.746094 18.570312 24.628906 19.058594 24.527344 19.546875 C 24.496094 19.6875 24.511719 19.839844 24.511719 19.988281 C 24.511719 20.085938 24.546875 20.167969 24.65625 20.183594 C 24.769531 20.195312 24.816406 20.121094 24.851562 20.03125 C 24.867188 19.984375 24.886719 19.9375 24.898438 19.890625 C 24.941406 19.703125 24.980469 19.511719 25.03125 19.289062 C 25.085938 19.367188 25.121094 19.417969 25.15625 19.46875 C 25.324219 19.707031 25.492188 19.949219 25.664062 20.191406 C 25.703125 20.242188 25.753906 20.296875 25.808594 20.320312 C 25.863281 20.339844 25.941406 20.332031 25.988281 20.304688 C 26.015625 20.285156 26.019531 20.199219 26.007812 20.152344 C 25.984375 20.074219 25.941406 20.003906 25.898438 19.933594 C 25.703125 19.640625 25.507812 19.351562 25.296875 19.042969 C 25.535156 18.945312 25.753906 18.851562 25.902344 18.652344 " fill-opacity="1" fill-rule="nonzero"/><path fill="#d5b36f" d="M 23.675781 18.746094 C 23.59375 18.746094 23.519531 18.746094 23.433594 18.746094 C 23.460938 18.574219 23.539062 18.449219 23.675781 18.332031 C 23.675781 18.488281 23.675781 18.617188 23.675781 18.746094 Z M 24.058594 18.242188 C 24.050781 18.132812 24.003906 18.019531 23.949219 17.917969 C 23.84375 17.710938 23.652344 17.683594 23.488281 17.847656 C 23.417969 17.914062 23.351562 17.992188 23.304688 18.074219 C 22.992188 18.617188 22.753906 19.191406 22.621094 19.804688 C 22.605469 19.875 22.605469 19.953125 22.625 20.019531 C 22.636719 20.066406 22.695312 20.128906 22.734375 20.132812 C 22.789062 20.136719 22.867188 20.101562 22.894531 20.058594 C 22.941406 19.976562 22.960938 19.875 22.996094 19.78125 C 23.078125 19.539062 23.160156 19.292969 23.246094 19.039062 C 23.410156 19.0625 23.535156 19.078125 23.683594 19.101562 C 23.683594 19.328125 23.683594 19.535156 23.6875 19.738281 C 23.6875 19.808594 23.691406 19.886719 23.710938 19.953125 C 23.734375 20.050781 23.808594 20.113281 23.90625 20.117188 C 24.015625 20.121094 24.09375 20.058594 24.121094 19.953125 C 24.144531 19.875 24.160156 19.792969 24.15625 19.710938 C 24.128906 19.222656 24.101562 18.730469 24.058594 18.242188 " fill-opacity="1" fill-rule="nonzero"/><path fill="#d5b36f" d="M 30.949219 18.167969 C 30.6875 18.148438 30.425781 18.125 30.167969 18.121094 C 30.046875 18.117188 29.949219 18.183594 29.921875 18.320312 C 29.894531 18.457031 29.855469 18.589844 29.839844 18.726562 C 29.804688 19.011719 29.777344 19.296875 29.75 19.582031 C 29.726562 19.824219 29.691406 20.066406 29.679688 20.3125 C 29.671875 20.53125 29.769531 20.621094 29.988281 20.632812 C 30.105469 20.640625 30.21875 20.660156 30.332031 20.65625 C 30.476562 20.644531 30.625 20.625 30.765625 20.589844 C 30.867188 20.5625 30.929688 20.476562 30.914062 20.363281 C 30.894531 20.246094 30.804688 20.207031 30.699219 20.203125 C 30.65625 20.203125 30.617188 20.214844 30.574219 20.210938 C 30.433594 20.210938 30.289062 20.203125 30.136719 20.199219 C 30.15625 19.933594 30.175781 19.699219 30.191406 19.449219 C 30.386719 19.449219 30.5625 19.453125 30.742188 19.449219 C 30.855469 19.449219 30.957031 19.425781 30.984375 19.292969 C 31.003906 19.183594 30.925781 19.09375 30.777344 19.058594 C 30.730469 19.046875 30.679688 19.046875 30.632812 19.039062 C 30.492188 19.019531 30.347656 18.992188 30.203125 18.96875 C 30.214844 18.796875 30.226562 18.644531 30.234375 18.480469 C 30.292969 18.476562 30.339844 18.46875 30.386719 18.46875 C 30.566406 18.464844 30.75 18.464844 30.929688 18.460938 C 31.023438 18.457031 31.085938 18.414062 31.085938 18.3125 C 31.085938 18.226562 31.03125 18.175781 30.949219 18.167969 " fill-opacity="1" fill-rule="nonzero"/><path fill="#d5b36f" d="M 24.855469 15.558594 C 24.859375 15.554688 24.859375 15.554688 24.863281 15.550781 C 24.859375 15.550781 24.855469 15.550781 24.855469 15.550781 C 24.855469 15.554688 24.855469 15.554688 24.855469 15.558594 " fill-opacity="1" fill-rule="nonzero"/><path fill="#d5b36f" d="M 24.8125 16.601562 C 24.808594 16.703125 24.835938 16.8125 24.867188 16.914062 C 24.96875 17.195312 25.226562 17.277344 25.449219 17.082031 C 25.566406 16.976562 25.683594 16.839844 25.738281 16.695312 C 25.832031 16.445312 25.882812 16.175781 25.945312 15.914062 C 25.96875 15.820312 25.984375 15.71875 25.976562 15.625 C 25.96875 15.5625 25.921875 15.480469 25.867188 15.453125 C 25.792969 15.414062 25.726562 15.476562 25.695312 15.550781 C 25.65625 15.65625 25.628906 15.765625 25.597656 15.875 C 25.535156 16.085938 25.476562 16.300781 25.40625 16.507812 C 25.378906 16.585938 25.363281 16.710938 25.242188 16.691406 C 25.117188 16.667969 25.132812 16.542969 25.125 16.449219 C 25.117188 16.3125 25.128906 16.171875 25.132812 16.03125 C 25.140625 15.910156 25.160156 15.789062 25.160156 15.664062 C 25.164062 15.566406 25.210938 15.4375 25.066406 15.394531 C 24.9375 15.355469 24.925781 15.492188 24.863281 15.550781 C 24.859375 15.59375 24.859375 15.632812 24.859375 15.671875 C 24.84375 15.980469 24.820312 16.292969 24.8125 16.601562 " fill-opacity="1" fill-rule="nonzero"/><path fill="#d5b36f" d="M 25.898438 16.796875 C 25.890625 16.863281 25.902344 16.949219 25.941406 17.003906 C 26.054688 17.164062 26.210938 17.261719 26.417969 17.246094 C 26.664062 17.226562 26.878906 17.136719 27.054688 16.957031 C 27.253906 16.753906 27.257812 16.457031 27.046875 16.261719 C 26.953125 16.171875 26.832031 16.113281 26.722656 16.046875 C 26.648438 16 26.574219 15.964844 26.460938 15.90625 C 26.5625 15.828125 26.628906 15.777344 26.710938 15.714844 C 26.789062 15.804688 26.84375 15.890625 26.917969 15.949219 C 26.960938 15.980469 27.050781 16.003906 27.089844 15.980469 C 27.132812 15.957031 27.171875 15.871094 27.164062 15.820312 C 27.144531 15.738281 27.101562 15.648438 27.039062 15.589844 C 26.808594 15.367188 26.542969 15.386719 26.332031 15.628906 C 26.113281 15.878906 26.152344 16.109375 26.445312 16.265625 C 26.53125 16.3125 26.628906 16.34375 26.707031 16.402344 C 26.863281 16.511719 26.863281 16.683594 26.703125 16.785156 C 26.601562 16.847656 26.480469 16.90625 26.367188 16.910156 C 26.292969 16.910156 26.214844 16.804688 26.140625 16.746094 C 26.128906 16.738281 26.117188 16.726562 26.105469 16.714844 C 26.015625 16.65625 25.914062 16.691406 25.898438 16.796875 " fill-opacity="1" fill-rule="nonzero"/><path fill="#d5b36f" d="M 29.023438 19.890625 C 28.929688 19.953125 28.839844 20.019531 28.707031 20.109375 C 28.683594 19.941406 28.648438 19.816406 28.652344 19.691406 C 28.671875 19.414062 28.710938 19.140625 28.738281 18.863281 C 28.75 18.742188 28.761719 18.617188 28.75 18.496094 C 28.746094 18.449219 28.6875 18.382812 28.636719 18.363281 C 28.5625 18.332031 28.488281 18.371094 28.457031 18.449219 C 28.421875 18.539062 28.378906 18.632812 28.367188 18.726562 C 28.3125 19.101562 28.265625 19.472656 28.226562 19.847656 C 28.214844 19.941406 28.21875 20.042969 28.234375 20.140625 C 28.300781 20.488281 28.5625 20.617188 28.871094 20.449219 C 29.007812 20.375 29.128906 20.273438 29.246094 20.171875 C 29.367188 20.0625 29.390625 19.957031 29.324219 19.875 C 29.257812 19.789062 29.160156 19.792969 29.023438 19.890625 " fill-opacity="1" fill-rule="nonzero"/><path fill="#d5b36f" d="M 24.667969 15.347656 C 24.300781 15.375 23.933594 15.417969 23.570312 15.457031 C 23.53125 15.460938 23.488281 15.480469 23.457031 15.507812 C 23.390625 15.558594 23.402344 15.65625 23.484375 15.683594 C 23.535156 15.703125 23.59375 15.699219 23.652344 15.703125 C 23.785156 15.703125 23.921875 15.703125 24.085938 15.703125 C 24.019531 15.976562 23.976562 16.21875 23.898438 16.449219 C 23.804688 16.734375 23.691406 16.769531 23.421875 16.648438 C 23.40625 16.640625 23.390625 16.625 23.375 16.628906 C 23.328125 16.632812 23.265625 16.625 23.242188 16.652344 C 23.210938 16.691406 23.1875 16.765625 23.207031 16.804688 C 23.265625 16.933594 23.347656 17.039062 23.496094 17.085938 C 23.738281 17.160156 24.015625 17.0625 24.144531 16.816406 C 24.230469 16.65625 24.28125 16.46875 24.320312 16.285156 C 24.359375 16.089844 24.363281 15.886719 24.382812 15.703125 C 24.550781 15.648438 24.703125 15.601562 24.855469 15.550781 C 24.832031 15.371094 24.816406 15.335938 24.667969 15.347656 " fill-opacity="1" fill-rule="nonzero"/><path fill="#d5b36f" d="M 28.261719 16.804688 C 28.28125 16.523438 28.296875 16.238281 28.3125 15.945312 C 28.472656 15.929688 28.609375 15.914062 28.746094 15.902344 C 28.828125 15.894531 28.898438 15.855469 28.890625 15.773438 C 28.886719 15.722656 28.820312 15.679688 28.777344 15.632812 C 28.769531 15.621094 28.75 15.617188 28.734375 15.613281 C 28.371094 15.53125 28.003906 15.542969 27.636719 15.589844 C 27.542969 15.605469 27.476562 15.671875 27.496094 15.757812 C 27.507812 15.8125 27.582031 15.875 27.640625 15.898438 C 27.730469 15.929688 27.832031 15.929688 27.957031 15.949219 C 27.953125 16.011719 27.945312 16.0625 27.941406 16.109375 C 27.917969 16.433594 27.890625 16.757812 27.875 17.085938 C 27.867188 17.222656 27.945312 17.3125 28.046875 17.3125 C 28.164062 17.308594 28.21875 17.230469 28.234375 17.125 C 28.25 17.019531 28.257812 16.914062 28.261719 16.804688 " fill-opacity="1" fill-rule="nonzero"/><path fill="#d5b36f" d="M 28.378906 18.011719 C 28.378906 18.140625 28.488281 18.253906 28.613281 18.25 C 28.734375 18.25 28.847656 18.140625 28.851562 18.019531 C 28.855469 17.890625 28.75 17.78125 28.621094 17.78125 C 28.5 17.78125 28.382812 17.890625 28.378906 18.011719 " fill-opacity="1" fill-rule="nonzero"/><path fill="#d5b36f" d="M 17.53125 20.496094 C 17.410156 20.503906 17.316406 20.609375 17.324219 20.726562 C 17.335938 20.851562 17.441406 20.9375 17.5625 20.925781 C 17.667969 20.914062 17.757812 20.816406 17.757812 20.707031 C 17.753906 20.59375 17.644531 20.488281 17.53125 20.496094 " fill-opacity="1" fill-rule="nonzero"/><path fill="#d5b36f" d="M 34.375 20.511719 C 34.488281 20.515625 34.597656 20.414062 34.601562 20.300781 C 34.601562 20.183594 34.5 20.085938 34.382812 20.085938 C 34.269531 20.085938 34.179688 20.171875 34.171875 20.28125 C 34.164062 20.402344 34.253906 20.507812 34.375 20.511719 " fill-opacity="1" fill-rule="nonzero"/><path fill="#d5b36f" d="M 33.722656 16.378906 C 33.839844 16.378906 33.9375 16.28125 33.9375 16.160156 C 33.9375 16.046875 33.847656 15.957031 33.738281 15.957031 C 33.625 15.953125 33.523438 16.054688 33.527344 16.171875 C 33.527344 16.285156 33.617188 16.375 33.722656 16.378906 " fill-opacity="1" fill-rule="nonzero"/><path fill="#d5b36f" d="M 18.605469 16.40625 C 18.523438 16.386719 18.445312 16.484375 18.453125 16.578125 C 18.457031 16.675781 18.511719 16.726562 18.605469 16.730469 C 18.699219 16.734375 18.769531 16.648438 18.761719 16.507812 C 18.726562 16.484375 18.671875 16.421875 18.605469 16.40625 " fill-opacity="1" fill-rule="nonzero"/></svg>