<svg xmlns="http://www.w3.org/2000/svg" xmlns:xlink="http://www.w3.org/1999/xlink" width="70" zoomAndPan="magnify" viewBox="0 0 52.5 52.499999" height="70" preserveAspectRatio="xMidYMid meet" version="1.0"><defs><clipPath id="95387f09f0"><path d="M 4.605469 5.199219 L 46.953125 5.199219 L 46.953125 47.546875 L 4.605469 47.546875 Z M 4.605469 5.199219 " clip-rule="nonzero"/></clipPath></defs><g clip-path="url(#95387f09f0)"><path fill="#000000" d="M 36.675781 47.546875 L 14.996094 47.546875 C 9.269531 47.546875 4.664062 42.941406 4.664062 37.214844 L 4.664062 15.535156 C 4.664062 9.804688 9.269531 5.199219 14.996094 5.199219 L 36.5625 5.199219 C 42.292969 5.199219 46.898438 9.804688 46.898438 15.535156 L 46.898438 37.101562 C 46.898438 42.828125 42.292969 47.433594 36.5625 47.433594 Z M 14.996094 8.570312 C 11.175781 8.570312 8.03125 11.714844 8.03125 15.535156 L 8.03125 37.101562 C 8.03125 40.921875 11.175781 44.066406 14.996094 44.066406 L 36.5625 44.066406 C 40.382812 44.066406 43.527344 40.921875 43.527344 37.101562 L 43.527344 15.535156 C 43.527344 11.714844 40.382812 8.570312 36.5625 8.570312 Z M 14.996094 8.570312 " fill-opacity="1" fill-rule="nonzero"/></g><path fill="#000000" d="M 25.890625 40.019531 C 18.476562 40.019531 12.523438 34.066406 12.523438 26.65625 C 12.523438 19.242188 18.476562 13.289062 25.890625 13.289062 C 33.304688 13.289062 39.257812 19.242188 39.257812 26.65625 C 39.257812 34.066406 33.304688 40.019531 25.890625 40.019531 Z M 25.890625 16.546875 C 20.277344 16.546875 15.78125 21.039062 15.78125 26.65625 C 15.78125 32.269531 20.277344 36.765625 25.890625 36.765625 C 31.507812 36.765625 36 32.269531 36 26.65625 C 36 21.039062 31.507812 16.546875 25.890625 16.546875 Z M 25.890625 16.546875 " fill-opacity="1" fill-rule="nonzero"/><path fill="#000000" d="M 25.890625 32.71875 C 22.523438 32.71875 19.828125 30.023438 19.828125 26.65625 C 19.828125 23.285156 22.523438 20.589844 25.890625 20.589844 C 29.261719 20.589844 31.957031 23.285156 31.957031 26.65625 C 31.957031 30.023438 29.261719 32.71875 25.890625 32.71875 Z M 25.890625 23.957031 C 24.429688 23.957031 23.195312 25.195312 23.195312 26.65625 C 23.195312 28.113281 24.429688 29.351562 25.890625 29.351562 C 27.351562 29.351562 28.585938 28.113281 28.585938 26.65625 C 28.585938 25.195312 27.351562 23.957031 25.890625 23.957031 Z M 25.890625 23.957031 " fill-opacity="1" fill-rule="nonzero"/><path fill="#000000" d="M 40.382812 14.074219 C 40.382812 14.371094 40.324219 14.660156 40.210938 14.933594 C 40.097656 15.210938 39.933594 15.453125 39.722656 15.664062 C 39.511719 15.875 39.269531 16.035156 38.996094 16.148438 C 38.71875 16.265625 38.433594 16.320312 38.136719 16.320312 C 37.835938 16.320312 37.550781 16.265625 37.277344 16.148438 C 37 16.035156 36.757812 15.875 36.546875 15.664062 C 36.335938 15.453125 36.171875 15.210938 36.058594 14.933594 C 35.945312 14.660156 35.890625 14.371094 35.890625 14.074219 C 35.890625 13.777344 35.945312 13.488281 36.058594 13.214844 C 36.171875 12.9375 36.335938 12.695312 36.546875 12.484375 C 36.757812 12.273438 37 12.113281 37.277344 12 C 37.550781 11.882812 37.835938 11.828125 38.136719 11.828125 C 38.433594 11.828125 38.71875 11.882812 38.996094 12 C 39.269531 12.113281 39.511719 12.273438 39.722656 12.484375 C 39.933594 12.695312 40.097656 12.9375 40.210938 13.214844 C 40.324219 13.488281 40.382812 13.777344 40.382812 14.074219 Z M 40.382812 14.074219 " fill-opacity="1" fill-rule="nonzero"/></svg>