<svg xmlns="http://www.w3.org/2000/svg" xmlns:xlink="http://www.w3.org/1999/xlink" width="50" zoomAndPan="magnify" viewBox="0 0 37.5 37.499999" height="50" preserveAspectRatio="xMidYMid meet" version="1.0"><defs><clipPath id="b8ebc6e885"><path d="M 5.664062 0 L 31.972656 0 L 31.972656 36.289062 L 5.664062 36.289062 Z M 5.664062 0 " clip-rule="nonzero"/></clipPath></defs><path fill="#000000" d="M 22.40625 12.496094 C 23.066406 12.496094 23.601562 11.960938 23.601562 11.304688 C 23.601562 10.648438 23.066406 10.117188 22.40625 10.117188 C 21.742188 10.117188 21.210938 10.648438 21.210938 11.304688 C 21.210938 11.960938 21.742188 12.496094 22.40625 12.496094 " fill-opacity="1" fill-rule="nonzero"/><path fill="#000000" d="M 18.640625 14.453125 L 17.871094 13.6875 L 18.640625 12.914062 L 17.796875 12.074219 L 16.601562 13.261719 C 16.367188 13.496094 16.367188 13.871094 16.601562 14.105469 L 17.796875 15.292969 L 18.640625 14.453125 " fill-opacity="1" fill-rule="nonzero"/><path fill="#000000" d="M 18.082031 16.0625 L 17.621094 16.0625 L 17.621094 17.25 L 18.082031 17.25 C 19.042969 17.25 20.015625 17.027344 20.878906 16.597656 L 20.339844 15.53125 C 19.644531 15.878906 18.863281 16.0625 18.082031 16.0625 " fill-opacity="1" fill-rule="nonzero"/><g clip-path="url(#b8ebc6e885)"><path fill="#000000" d="M 9.453125 9.53125 C 9.539062 8.730469 9.742188 7.96875 10.015625 7.242188 C 9.90625 7.789062 9.847656 8.347656 9.847656 8.925781 L 9.847656 23.929688 C 9.828125 23.933594 9.808594 23.941406 9.792969 23.949219 C 9.742188 23.960938 9.6875 23.972656 9.632812 23.988281 C 9.519531 24.019531 9.414062 24.050781 9.304688 24.085938 C 9.28125 24.097656 9.257812 24.105469 9.238281 24.109375 C 8.695312 24.304688 8.1875 24.585938 7.738281 24.925781 C 7.738281 24.929688 7.734375 24.9375 7.734375 24.9375 Z M 29.902344 24.9375 C 29.902344 24.9375 29.898438 24.929688 29.890625 24.925781 C 29.449219 24.585938 28.941406 24.304688 28.398438 24.109375 C 28.375 24.105469 28.355469 24.097656 28.328125 24.085938 C 28.222656 24.050781 28.109375 24.019531 28.003906 23.988281 C 27.949219 23.972656 27.894531 23.960938 27.839844 23.949219 C 27.828125 23.941406 27.808594 23.933594 27.789062 23.929688 L 27.789062 8.925781 C 27.789062 8.347656 27.722656 7.789062 27.621094 7.242188 C 27.894531 7.96875 28.09375 8.730469 28.183594 9.53125 Z M 11.042969 14.644531 C 11.0625 14.652344 11.082031 14.667969 11.101562 14.675781 L 12.421875 15.332031 C 12.808594 17.167969 13.792969 18.808594 15.230469 20.019531 L 15.230469 22.605469 C 15.230469 23.261719 14.691406 23.792969 14.03125 23.792969 L 11.042969 23.792969 Z M 26.589844 8.925781 L 26.589844 10.398438 C 26.269531 10.222656 25.902344 10.117188 25.507812 10.117188 L 24.976562 10.117188 C 23.257812 9.042969 22.035156 7.382812 21.542969 5.417969 L 21.191406 4.023438 C 21.128906 3.769531 20.898438 3.582031 20.632812 3.574219 C 20.375 3.558594 20.125 3.730469 20.042969 3.980469 C 19.003906 7.085938 16.363281 9.433594 13.144531 10.121094 L 12.710938 10.214844 L 11.644531 10.4375 C 11.429688 10.488281 11.230469 10.570312 11.042969 10.667969 L 11.042969 8.925781 C 11.042969 4.664062 14.53125 1.195312 18.816406 1.195312 C 23.105469 1.195312 26.589844 4.664062 26.589844 8.925781 Z M 22.40625 20.019531 C 23.984375 18.6875 25.023438 16.824219 25.3125 14.765625 L 26.058594 14.574219 C 26.25 14.53125 26.425781 14.453125 26.589844 14.363281 L 26.589844 23.792969 L 23.601562 23.792969 C 22.945312 23.792969 22.40625 23.261719 22.40625 22.605469 Z M 25.507812 11.304688 C 26.109375 11.304688 26.589844 11.785156 26.589844 12.382812 C 26.589844 12.875 26.253906 13.304688 25.769531 13.421875 L 25.394531 13.515625 L 25.394531 11.304688 Z M 12.242188 13.578125 L 12.242188 13.910156 L 11.640625 13.613281 C 11.273438 13.433594 11.042969 13.0625 11.042969 12.652344 C 11.042969 12.152344 11.402344 11.707031 11.898438 11.605469 L 12.242188 11.53125 Z M 20.761719 19.742188 C 20.5625 19.867188 20.359375 19.980469 20.15625 20.085938 C 19.761719 20.28125 19.332031 20.386719 18.894531 20.394531 C 18.867188 20.394531 18.84375 20.398438 18.816406 20.398438 C 18.777344 20.398438 18.738281 20.394531 18.699219 20.390625 C 18.28125 20.375 17.867188 20.277344 17.480469 20.085938 C 17.273438 19.980469 17.074219 19.867188 16.875 19.742188 C 16.839844 19.722656 16.804688 19.695312 16.765625 19.675781 C 16.570312 19.550781 16.382812 19.417969 16.199219 19.273438 C 16.195312 19.265625 16.1875 19.265625 16.179688 19.261719 C 14.457031 17.898438 13.4375 15.828125 13.4375 13.578125 L 13.4375 11.273438 C 13.648438 11.230469 13.847656 11.160156 14.058594 11.101562 C 14.042969 11.171875 14.03125 11.238281 14.03125 11.304688 C 14.03125 11.960938 14.570312 12.496094 15.230469 12.496094 C 15.894531 12.496094 16.425781 11.960938 16.425781 11.304688 C 16.425781 10.917969 16.238281 10.582031 15.953125 10.367188 C 17.855469 9.398438 19.441406 7.886719 20.464844 6.003906 C 21.0625 8.085938 22.371094 9.859375 24.199219 11.039062 L 24.199219 13.578125 C 24.199219 15.828125 23.179688 17.898438 21.453125 19.261719 C 21.449219 19.265625 21.441406 19.265625 21.433594 19.273438 C 21.253906 19.417969 21.0625 19.550781 20.863281 19.675781 C 20.828125 19.695312 20.796875 19.722656 20.761719 19.742188 Z M 30.777344 35.097656 L 28.5625 35.097656 C 28.613281 33.554688 28.148438 32.015625 27.1875 30.742188 L 27.1875 27.957031 L 25.992188 27.957031 L 25.992188 30.523438 L 18.816406 33.269531 L 11.640625 30.523438 L 11.640625 27.957031 L 10.445312 27.957031 L 10.445312 30.742188 C 9.488281 32.015625 9.023438 33.554688 9.070312 35.097656 L 6.859375 35.097656 L 6.859375 29.144531 C 6.859375 28.367188 7.078125 27.636719 7.460938 27.011719 C 7.546875 26.863281 7.640625 26.722656 7.75 26.589844 C 7.75 26.585938 7.753906 26.582031 7.757812 26.578125 C 7.976562 26.296875 8.238281 26.042969 8.519531 25.835938 C 8.523438 25.828125 8.53125 25.828125 8.535156 25.824219 C 8.953125 25.511719 9.429688 25.277344 9.941406 25.136719 C 9.960938 25.132812 9.984375 25.121094 10.007812 25.117188 C 10.144531 25.082031 10.289062 25.058594 10.429688 25.035156 C 10.464844 25.027344 10.496094 25.023438 10.535156 25.019531 C 10.707031 25 10.875 24.984375 11.042969 24.984375 L 14.03125 24.984375 C 15.355469 24.984375 16.425781 23.914062 16.425781 22.605469 L 16.425781 20.867188 C 16.597656 20.964844 16.765625 21.0625 16.941406 21.148438 C 17.527344 21.441406 18.171875 21.585938 18.816406 21.585938 C 19.457031 21.585938 20.105469 21.441406 20.691406 21.148438 C 20.863281 21.0625 21.039062 20.964844 21.210938 20.867188 L 21.210938 22.605469 C 21.210938 23.914062 22.28125 24.984375 23.601562 24.984375 L 26.589844 24.984375 C 26.761719 24.984375 26.929688 25 27.097656 25.019531 C 27.132812 25.023438 27.171875 25.027344 27.207031 25.035156 C 27.347656 25.058594 27.488281 25.082031 27.625 25.117188 C 27.652344 25.121094 27.671875 25.132812 27.695312 25.136719 C 28.207031 25.277344 28.679688 25.511719 29.105469 25.824219 C 29.105469 25.828125 29.109375 25.828125 29.117188 25.835938 C 29.398438 26.042969 29.65625 26.296875 29.878906 26.578125 C 29.882812 26.582031 29.882812 26.585938 29.886719 26.589844 C 29.988281 26.722656 30.085938 26.863281 30.175781 27.011719 C 30.554688 27.636719 30.777344 28.367188 30.777344 29.144531 Z M 10.253906 35.097656 C 10.210938 33.882812 10.546875 32.675781 11.25 31.648438 L 18.601562 34.460938 C 18.738281 34.511719 18.894531 34.511719 19.03125 34.460938 L 26.382812 31.648438 C 27.089844 32.675781 27.425781 33.882812 27.382812 35.097656 Z M 5.664062 35.6875 C 5.664062 36.015625 5.933594 36.285156 6.257812 36.285156 L 31.375 36.285156 C 31.703125 36.285156 31.972656 36.015625 31.972656 35.6875 L 31.972656 29.144531 C 31.972656 28.199219 31.722656 27.3125 31.285156 26.539062 L 29.375 9.398438 C 28.773438 4.046875 24.238281 0.00390625 18.816406 0.00390625 C 13.398438 0.00390625 8.863281 4.046875 8.261719 9.398438 L 6.347656 26.539062 C 5.914062 27.3125 5.664062 28.199219 5.664062 29.144531 L 5.664062 35.6875 " fill-opacity="1" fill-rule="nonzero"/></g></svg>