<svg xmlns="http://www.w3.org/2000/svg" xmlns:xlink="http://www.w3.org/1999/xlink" width="70" zoomAndPan="magnify" viewBox="0 0 52.5 52.499999" height="70" preserveAspectRatio="xMidYMid meet" version="1.0"><defs><clipPath id="ffae90b08a"><path d="M 6.472656 4.40625 L 46.589844 4.40625 L 46.589844 46.753906 L 6.472656 46.753906 Z M 6.472656 4.40625 " clip-rule="nonzero"/></clipPath></defs><g clip-path="url(#ffae90b08a)"><path fill="#100f0d" d="M 38.757812 13.445312 L 38.664062 13.542969 C 38.539062 13.613281 38.441406 13.714844 38.378906 13.84375 L 37.386719 14.875 C 37.292969 14.910156 37.203125 14.960938 37.125 15.035156 C 37.046875 15.117188 36.996094 15.21875 36.964844 15.320312 L 24.6875 28.160156 C 24.5625 28.292969 24.496094 28.460938 24.496094 28.644531 L 24.496094 43.339844 C 24.496094 43.703125 24.78125 44.011719 25.148438 44.027344 L 35.191406 44.589844 C 35.390625 44.601562 35.542969 44.765625 35.542969 44.964844 C 35.542969 45.171875 35.375 45.339844 35.167969 45.339844 L 12.441406 45.339844 C 12.234375 45.339844 12.066406 45.171875 12.066406 44.964844 C 12.066406 44.765625 12.21875 44.601562 12.421875 44.589844 L 22.460938 44.027344 C 22.828125 44.011719 23.113281 43.703125 23.113281 43.339844 L 23.113281 28.644531 C 23.113281 28.460938 23.046875 28.292969 22.921875 28.160156 L 8.855469 13.445312 Z M 36.925781 5.820312 C 41.492188 5.820312 45.210938 9.550781 45.210938 14.140625 C 45.210938 18.726562 41.492188 22.460938 36.925781 22.460938 C 35.546875 22.460938 34.203125 22.117188 33.003906 21.46875 L 33.511719 20.933594 C 34.566406 21.472656 35.734375 21.765625 36.925781 21.765625 C 41.113281 21.765625 44.519531 18.347656 44.519531 14.140625 C 44.519531 9.933594 41.113281 6.511719 36.925781 6.511719 C 33.519531 6.511719 30.535156 8.816406 29.617188 12.058594 L 28.902344 12.058594 C 29.832031 8.453125 33.148438 5.820312 36.925781 5.820312 Z M 36.234375 20.335938 C 35.640625 20.269531 35.0625 20.121094 34.511719 19.890625 L 36.234375 18.089844 Z M 40.402344 19.308594 C 39.589844 19.863281 38.640625 20.226562 37.613281 20.339844 L 37.613281 16.914062 C 37.613281 16.835938 37.59375 16.761719 37.570312 16.691406 L 37.683594 16.574219 Z M 39.347656 14.832031 L 43.097656 14.832031 C 42.945312 16.207031 42.347656 17.441406 41.453125 18.398438 L 38.636719 15.574219 Z M 41.464844 9.894531 C 42.351562 10.851562 42.949219 12.082031 43.097656 13.445312 L 40.671875 13.445312 L 40.875 13.234375 C 41.066406 13.03125 41.121094 12.738281 41.011719 12.484375 C 40.902344 12.226562 40.65625 12.058594 40.378906 12.058594 L 39.742188 12.058594 Z M 32.074219 10.25 L 33.875 12.058594 L 31.070312 12.058594 C 31.304688 11.394531 31.644531 10.789062 32.074219 10.25 Z M 35.828125 12.058594 L 33.050781 9.269531 C 33.949219 8.546875 35.046875 8.078125 36.234375 7.945312 L 36.234375 12.058594 Z M 37.613281 12.058594 L 37.613281 7.941406 C 38.648438 8.058594 39.605469 8.425781 40.421875 8.984375 L 37.972656 12.058594 Z M 21.734375 28.921875 L 21.734375 42.679688 L 12.34375 43.207031 C 11.414062 43.257812 10.6875 44.027344 10.6875 44.964844 C 10.6875 45.9375 11.472656 46.726562 12.441406 46.726562 L 35.167969 46.726562 C 36.136719 46.726562 36.925781 45.9375 36.925781 44.964844 C 36.925781 44.027344 36.195312 43.257812 35.265625 43.207031 L 25.875 42.679688 L 25.875 28.921875 L 32.019531 22.496094 C 33.5 23.378906 35.1875 23.847656 36.925781 23.847656 C 42.253906 23.847656 46.589844 19.492188 46.589844 14.140625 C 46.589844 8.789062 42.253906 4.433594 36.925781 4.433594 C 32.398438 4.433594 28.449219 7.675781 27.488281 12.058594 L 7.234375 12.058594 C 6.957031 12.058594 6.707031 12.226562 6.597656 12.484375 C 6.488281 12.738281 6.542969 13.03125 6.734375 13.234375 L 21.734375 28.921875 " fill-opacity="1" fill-rule="nonzero"/></g><path fill="#100f0d" d="M 23.804688 25.941406 C 24.824219 25.941406 25.847656 25.550781 26.625 24.769531 L 27.054688 24.335938 C 27.324219 24.066406 27.324219 23.628906 27.054688 23.355469 C 26.785156 23.085938 26.347656 23.085938 26.078125 23.355469 L 25.648438 23.789062 C 24.628906 24.8125 22.980469 24.8125 21.960938 23.789062 L 15.804688 17.605469 L 32.78125 17.605469 C 33.160156 17.605469 33.472656 17.296875 33.472656 16.914062 C 33.472656 16.53125 33.160156 16.21875 32.78125 16.21875 L 14.425781 16.21875 L 13.246094 15.035156 C 12.976562 14.765625 12.539062 14.765625 12.269531 15.035156 C 12 15.308594 12 15.746094 12.269531 16.015625 L 20.988281 24.769531 C 21.761719 25.550781 22.785156 25.941406 23.804688 25.941406 " fill-opacity="1" fill-rule="nonzero"/></svg>