<svg xmlns="http://www.w3.org/2000/svg" xmlns:xlink="http://www.w3.org/1999/xlink" width="70" zoomAndPan="magnify" viewBox="0 0 52.5 52.499999" height="70" preserveAspectRatio="xMidYMid meet" version="1.0"><defs><clipPath id="3223c84667"><path d="M 9.910156 2.972656 L 41.855469 2.972656 L 41.855469 49.03125 L 9.910156 49.03125 Z M 9.910156 2.972656 " clip-rule="nonzero"/></clipPath></defs><g clip-path="url(#3223c84667)"><path fill="#000000" d="M 31.359375 6.019531 C 29.328125 6.46875 27.25 7.214844 25.21875 7.675781 C 25.195312 7.683594 25.171875 7.691406 25.148438 7.703125 L 25.144531 7.703125 C 25.105469 7.726562 25.070312 7.757812 25.046875 7.796875 C 25.023438 7.832031 25.007812 7.878906 25.003906 7.921875 L 25.003906 7.925781 C 25 7.953125 25 7.976562 25.003906 8.003906 L 25.011719 8.03125 C 25.09375 8.492188 25.171875 8.957031 25.246094 9.421875 C 25.316406 9.835938 25.378906 10.253906 25.445312 10.667969 L 25.445312 10.675781 C 23.550781 10.101562 21.515625 9.710938 19.640625 9.125 C 19.613281 9.117188 19.589844 9.109375 19.566406 9.109375 L 19.5625 9.109375 C 19.515625 9.109375 19.472656 9.121094 19.429688 9.140625 C 19.390625 9.160156 19.355469 9.191406 19.328125 9.226562 L 19.328125 9.230469 C 19.3125 9.25 19.300781 9.273438 19.292969 9.296875 C 17.640625 13.933594 15.585938 18.3125 14.054688 23.019531 C 13.609375 24.386719 13.097656 26.0625 12.953125 27.5625 C 12.851562 28.609375 12.929688 29.570312 13.304688 30.308594 C 13.65625 31.003906 14.15625 31.511719 14.671875 31.894531 C 14.769531 31.964844 14.941406 32.070312 15.15625 32.1875 C 15.226562 34.394531 14.753906 36.496094 14.277344 38.679688 C 13.726562 41.199219 13.121094 43.679688 12.398438 46.148438 C 11.699219 46.003906 11.085938 46.128906 10.652344 46.363281 C 10.28125 46.566406 10.039062 46.851562 9.953125 47.125 C 9.949219 47.128906 9.949219 47.136719 9.949219 47.140625 C 9.90625 47.292969 9.992188 47.445312 10.140625 47.488281 C 11.996094 48.007812 13.867188 48.46875 15.71875 48.992188 C 15.867188 49.035156 16.023438 48.945312 16.0625 48.796875 C 16.0625 48.796875 16.066406 48.792969 16.066406 48.792969 C 16.066406 48.78125 16.070312 48.773438 16.070312 48.765625 C 16.171875 48.1875 15.96875 47.726562 15.535156 47.351562 C 15.183594 47.046875 14.667969 46.800781 14.054688 46.601562 C 14.238281 44.789062 14.847656 43.011719 15.34375 41.261719 C 16.136719 38.460938 16.839844 35.605469 18.109375 33.003906 C 18.394531 33.019531 18.625 33.011719 18.765625 32.996094 C 19.398438 32.925781 20.082031 32.738281 20.734375 32.316406 C 21.425781 31.867188 21.972656 31.070312 22.402344 30.113281 C 23.019531 28.738281 23.40625 27.03125 23.703125 25.621094 C 24.609375 21.269531 25.015625 16.9375 25.722656 12.585938 C 26.1875 15.898438 26.585938 19.207031 27.277344 22.523438 C 27.574219 23.933594 27.960938 25.640625 28.578125 27.011719 C 29.007812 27.972656 29.554688 28.765625 30.246094 29.214844 C 30.898438 29.640625 31.582031 29.828125 32.214844 29.898438 C 32.339844 29.914062 32.539062 29.917969 32.78125 29.910156 C 33.9375 31.785156 34.574219 33.84375 35.242188 35.976562 C 36.015625 38.433594 36.722656 40.886719 37.324219 43.390625 C 36.644531 43.617188 36.175781 44.035156 35.917969 44.457031 C 35.695312 44.816406 35.628906 45.1875 35.6875 45.46875 C 35.691406 45.472656 35.691406 45.476562 35.691406 45.484375 C 35.730469 45.636719 35.882812 45.726562 36.03125 45.6875 C 37.894531 45.203125 39.746094 44.660156 41.609375 44.179688 C 41.757812 44.140625 41.851562 43.988281 41.8125 43.835938 C 41.8125 43.835938 41.8125 43.832031 41.808594 43.832031 C 41.808594 43.824219 41.804688 43.8125 41.800781 43.804688 C 41.605469 43.253906 41.195312 42.960938 40.636719 42.851562 C 40.179688 42.765625 39.613281 42.8125 38.980469 42.949219 C 38.238281 41.285156 37.890625 39.4375 37.449219 37.671875 C 36.746094 34.847656 35.9375 32.023438 35.742188 29.128906 C 36 29 36.199219 28.878906 36.308594 28.792969 C 36.824219 28.414062 37.324219 27.90625 37.675781 27.210938 C 38.050781 26.472656 38.128906 25.507812 38.027344 24.460938 C 37.882812 22.960938 37.371094 21.289062 36.925781 19.917969 C 35.394531 15.214844 33.339844 10.835938 31.6875 6.199219 C 31.679688 6.179688 31.671875 6.160156 31.660156 6.140625 C 31.632812 6.101562 31.601562 6.070312 31.5625 6.046875 L 31.558594 6.046875 C 31.519531 6.023438 31.476562 6.011719 31.429688 6.011719 L 31.425781 6.011719 C 31.40625 6.011719 31.382812 6.011719 31.359375 6.019531 Z M 15.71875 32.453125 C 15.746094 34.605469 15.289062 36.664062 14.820312 38.800781 C 14.257812 41.375 13.640625 43.910156 12.894531 46.4375 C 12.90625 46.484375 12.902344 46.535156 12.886719 46.582031 C 12.84375 46.730469 12.6875 46.8125 12.539062 46.765625 L 12.53125 46.765625 C 12.523438 46.761719 12.515625 46.761719 12.507812 46.757812 C 12.5 46.757812 12.492188 46.753906 12.484375 46.75 C 11.855469 46.566406 11.296875 46.65625 10.914062 46.859375 C 10.8125 46.914062 10.722656 46.980469 10.652344 47.046875 C 12.273438 47.496094 13.902344 47.902344 15.523438 48.355469 C 15.488281 48.132812 15.359375 47.945312 15.171875 47.78125 C 14.84375 47.496094 14.347656 47.28125 13.761719 47.097656 C 13.71875 47.085938 13.683594 47.0625 13.652344 47.03125 C 13.542969 46.988281 13.46875 46.875 13.480469 46.746094 C 13.640625 44.832031 14.285156 42.957031 14.808594 41.105469 C 15.589844 38.34375 16.289062 35.527344 17.515625 32.945312 C 17.226562 32.910156 16.917969 32.851562 16.617188 32.769531 C 16.300781 32.683594 15.996094 32.574219 15.71875 32.453125 Z M 35.203125 29.378906 C 34.933594 29.492188 34.636719 29.597656 34.335938 29.679688 C 34.023438 29.761719 33.703125 29.820312 33.402344 29.855469 C 34.492188 31.707031 35.121094 33.71875 35.777344 35.804688 C 36.5625 38.320312 37.289062 40.824219 37.894531 43.390625 C 37.929688 43.425781 37.953125 43.46875 37.960938 43.519531 C 37.996094 43.671875 37.902344 43.820312 37.75 43.855469 L 37.746094 43.855469 C 37.738281 43.859375 37.730469 43.859375 37.71875 43.863281 C 37.710938 43.863281 37.703125 43.867188 37.695312 43.867188 C 37.058594 44.027344 36.621094 44.382812 36.390625 44.753906 C 36.332031 44.851562 36.285156 44.953125 36.253906 45.046875 C 37.878906 44.617188 39.496094 44.152344 41.125 43.726562 C 40.980469 43.550781 40.777344 43.453125 40.535156 43.40625 C 40.109375 43.324219 39.570312 43.386719 38.976562 43.523438 C 38.933594 43.535156 38.886719 43.53125 38.847656 43.523438 C 38.730469 43.539062 38.609375 43.476562 38.554688 43.363281 C 37.746094 41.625 37.371094 39.675781 36.90625 37.808594 C 36.214844 35.023438 35.421875 32.234375 35.203125 29.378906 Z M 17.363281 15.804688 C 16.382812 18.234375 15.40625 20.664062 14.585938 23.195312 C 14.152344 24.527344 13.652344 26.15625 13.507812 27.617188 C 13.417969 28.542969 13.46875 29.398438 13.800781 30.050781 C 14.109375 30.660156 14.550781 31.105469 15 31.441406 C 15.101562 31.511719 15.277344 31.621094 15.503906 31.734375 C 15.539062 31.746094 15.570312 31.761719 15.59375 31.78125 C 15.921875 31.941406 16.335938 32.113281 16.761719 32.226562 C 17.550781 32.441406 18.390625 32.472656 18.703125 32.4375 C 19.257812 32.375 19.859375 32.214844 20.433594 31.84375 C 21.042969 31.445312 21.511719 30.726562 21.894531 29.878906 C 22.496094 28.542969 22.871094 26.878906 23.15625 25.507812 C 23.761719 22.589844 24.148438 19.679688 24.546875 16.765625 C 23.285156 16.625 21.992188 16.695312 20.742188 16.503906 C 19.589844 16.328125 18.542969 15.835938 17.363281 15.804688 Z M 34.292969 14.382812 C 32.71875 14.375 31.242188 14.6875 29.675781 14.777344 C 28.648438 14.839844 27.617188 14.730469 26.597656 14.875 C 26.945312 17.386719 27.300781 19.894531 27.824219 22.410156 C 28.113281 23.78125 28.484375 25.445312 29.085938 26.78125 C 29.46875 27.628906 29.9375 28.347656 30.546875 28.742188 C 31.121094 29.117188 31.722656 29.277344 32.277344 29.339844 C 32.402344 29.355469 32.609375 29.355469 32.859375 29.34375 C 32.894531 29.335938 32.929688 29.332031 32.960938 29.335938 C 33.324219 29.3125 33.765625 29.25 34.191406 29.136719 C 34.984375 28.921875 35.726562 28.527344 35.980469 28.339844 C 36.429688 28.007812 36.871094 27.5625 37.179688 26.953125 C 37.511719 26.300781 37.5625 25.445312 37.472656 24.515625 C 37.328125 23.058594 36.828125 21.425781 36.394531 20.09375 C 35.761719 18.148438 35.039062 16.257812 34.292969 14.382812 Z M 35.335938 27.105469 C 35.113281 27.289062 34.882812 27.441406 34.621094 27.566406 C 34.484375 27.632812 34.425781 27.800781 34.492188 27.941406 C 34.558594 28.082031 34.722656 28.140625 34.863281 28.074219 C 35.164062 27.929688 35.433594 27.753906 35.691406 27.539062 C 35.8125 27.4375 35.828125 27.261719 35.730469 27.140625 C 35.632812 27.023438 35.453125 27.007812 35.335938 27.105469 Z M 35.4375 20.695312 C 35.988281 22.132812 36.636719 24 36.15625 25.542969 C 36.109375 25.6875 36.191406 25.847656 36.339844 25.894531 C 36.484375 25.941406 36.644531 25.859375 36.6875 25.710938 C 37.207031 24.054688 36.550781 22.039062 35.957031 20.492188 C 35.902344 20.347656 35.738281 20.273438 35.597656 20.332031 C 35.453125 20.386719 35.378906 20.550781 35.4375 20.695312 Z M 14.882812 23.941406 C 14.753906 24.226562 14.628906 24.515625 14.519531 24.8125 C 14.46875 24.957031 14.542969 25.121094 14.6875 25.171875 C 14.832031 25.226562 14.992188 25.152344 15.046875 25.007812 C 15.148438 24.722656 15.269531 24.445312 15.390625 24.167969 C 15.453125 24.027344 15.390625 23.863281 15.25 23.796875 C 15.109375 23.734375 14.945312 23.800781 14.882812 23.941406 Z M 16.519531 18.878906 C 16.152344 19.890625 15.800781 20.902344 15.464844 21.921875 C 15.414062 22.070312 15.492188 22.230469 15.640625 22.277344 C 15.785156 22.328125 15.945312 22.246094 15.992188 22.101562 C 16.328125 21.085938 16.675781 20.078125 17.042969 19.074219 C 17.097656 18.929688 17.023438 18.765625 16.878906 18.710938 C 16.734375 18.660156 16.574219 18.734375 16.519531 18.878906 Z M 19.722656 9.757812 C 19.449219 10.511719 19.164062 11.265625 18.875 12.015625 C 18.46875 13.0625 18.046875 14.105469 17.628906 15.148438 L 17.585938 15.25 C 18.707031 15.332031 19.71875 15.78125 20.824219 15.949219 C 22.070312 16.140625 23.363281 16.066406 24.625 16.210938 L 24.636719 16.101562 C 24.765625 15.195312 24.890625 14.289062 25.03125 13.382812 C 25.140625 12.671875 25.253906 11.964844 25.378906 11.253906 L 25.382812 11.246094 C 23.546875 10.679688 21.566406 10.296875 19.726562 9.738281 Z M 31.246094 6.621094 C 29.375 7.054688 27.46875 7.722656 25.601562 8.164062 C 25.964844 10.21875 26.242188 12.269531 26.523438 14.320312 C 27.554688 14.171875 28.601562 14.277344 29.644531 14.21875 C 31.144531 14.128906 32.566406 13.84375 34.066406 13.824219 C 33.109375 11.433594 32.125 9.0625 31.246094 6.621094 Z M 18.960938 7.148438 C 19.230469 7.269531 19.488281 7.410156 19.75 7.550781 C 19.886719 7.621094 20.054688 7.570312 20.125 7.433594 C 20.199219 7.292969 20.144531 7.125 20.007812 7.050781 C 19.738281 6.90625 19.46875 6.761719 19.1875 6.632812 C 19.046875 6.570312 18.882812 6.632812 18.820312 6.777344 C 18.757812 6.917969 18.820312 7.082031 18.960938 7.148438 Z M 20.851562 4.585938 C 21.03125 4.851562 21.210938 5.117188 21.363281 5.398438 C 21.441406 5.535156 21.609375 5.582031 21.746094 5.507812 C 21.878906 5.429688 21.925781 5.257812 21.851562 5.125 C 21.6875 4.828125 21.5 4.546875 21.3125 4.269531 C 21.226562 4.140625 21.054688 4.105469 20.925781 4.195312 C 20.796875 4.28125 20.765625 4.457031 20.851562 4.585938 Z M 27.6875 3.816406 C 27.574219 4.144531 27.441406 4.464844 27.339844 4.792969 C 27.292969 4.941406 27.375 5.097656 27.523438 5.144531 C 27.667969 5.191406 27.824219 5.109375 27.871094 4.960938 C 27.972656 4.636719 28.105469 4.324219 28.214844 4 C 28.265625 3.855469 28.1875 3.695312 28.042969 3.644531 C 27.898438 3.59375 27.738281 3.671875 27.6875 3.816406 Z M 24.625 3.257812 C 24.625 3.609375 24.632812 3.957031 24.648438 4.308594 C 24.65625 4.460938 24.789062 4.582031 24.941406 4.574219 C 25.09375 4.570312 25.214844 4.4375 25.207031 4.28125 C 25.191406 3.941406 25.179688 3.601562 25.179688 3.257812 C 25.179688 3.101562 25.054688 2.976562 24.902344 2.976562 C 24.75 2.976562 24.625 3.101562 24.625 3.257812 Z M 24.625 3.257812 " fill-opacity="1" fill-rule="evenodd"/></g></svg>