<svg xmlns="http://www.w3.org/2000/svg" xmlns:xlink="http://www.w3.org/1999/xlink" width="200" zoomAndPan="magnify" viewBox="0 0 150 30.000001" height="40" preserveAspectRatio="xMidYMid meet" version="1.0"><defs><clipPath id="7dee0c1461"><path d="M 121.34375 27 L 124 27 L 124 29 L 121.34375 29 Z M 121.34375 27 " clip-rule="nonzero"/></clipPath><clipPath id="49fcf21358"><path d="M 146 6 L 147.472656 6 L 147.472656 8 L 146 8 Z M 146 6 " clip-rule="nonzero"/></clipPath><clipPath id="65fd8d7c2c"><path d="M 146 3 L 147.472656 3 L 147.472656 5 L 146 5 Z M 146 3 " clip-rule="nonzero"/></clipPath></defs><path fill="#4287cf" d="M 124.453125 25.445312 C 124.214844 25.335938 123.933594 25.394531 123.699219 25.480469 C 123.714844 25.46875 123.71875 25.445312 123.734375 25.441406 C 123.753906 25.433594 123.757812 25.414062 123.777344 25.421875 C 123.9375 25.425781 124.089844 25.332031 124.214844 25.25 C 124.128906 25.269531 124.027344 25.398438 123.835938 25.414062 C 123.808594 25.414062 123.765625 25.429688 123.75 25.394531 C 123.710938 25.386719 123.71875 25.34375 123.710938 25.3125 C 123.699219 25.167969 123.734375 25.046875 123.792969 24.921875 C 123.792969 24.914062 123.789062 24.90625 123.785156 24.90625 C 123.730469 25.050781 123.675781 25.21875 123.71875 25.375 C 123.726562 25.394531 123.710938 25.402344 123.710938 25.417969 C 123.707031 25.4375 123.6875 25.445312 123.679688 25.464844 C 123.707031 25.21875 123.699219 24.929688 123.535156 24.722656 C 123.328125 24.394531 123.144531 24.65625 123.222656 24.933594 C 123.222656 24.941406 123.21875 24.945312 123.214844 24.941406 C 123.15625 24.925781 123.105469 24.964844 123.085938 25.023438 C 123.085938 25.292969 123.40625 25.414062 123.578125 25.574219 C 123.585938 25.59375 123.53125 25.539062 123.523438 25.539062 C 122.605469 24.683594 122.714844 26.507812 123.523438 25.664062 C 123.449219 25.765625 123.332031 25.851562 123.292969 25.972656 C 123.402344 25.910156 123.460938 25.773438 123.542969 25.679688 C 122.910156 26.664062 124.703125 26.339844 123.664062 25.648438 C 123.65625 25.640625 123.597656 25.601562 123.617188 25.605469 C 123.808594 25.730469 124.027344 26.050781 124.285156 25.941406 C 124.324219 25.90625 124.339844 25.863281 124.3125 25.8125 C 124.308594 25.808594 124.3125 25.804688 124.316406 25.804688 C 124.605469 25.8125 124.816406 25.574219 124.453125 25.445312 " fill-opacity="1" fill-rule="nonzero"/><g clip-path="url(#7dee0c1461)"><path fill="#4287cf" d="M 123.160156 28.023438 C 122.925781 27.855469 122.601562 27.929688 122.363281 28.046875 C 122.378906 28.035156 122.378906 28.015625 122.394531 28.007812 C 122.40625 28 122.410156 27.984375 122.425781 27.988281 C 122.566406 27.980469 122.691406 27.886719 122.796875 27.804688 C 122.710938 27.835938 122.640625 27.949219 122.480469 27.976562 C 122.453125 27.980469 122.417969 27.996094 122.402344 27.96875 C 122.367188 27.964844 122.367188 27.921875 122.359375 27.898438 C 122.324219 27.738281 122.394531 27.628906 122.394531 27.539062 C 122.359375 27.667969 122.324219 27.820312 122.371094 27.953125 C 122.382812 27.96875 122.367188 27.976562 122.367188 27.992188 C 122.367188 28.007812 122.351562 28.015625 122.34375 28.03125 C 122.351562 27.816406 122.320312 27.5625 122.164062 27.394531 C 121.957031 27.125 121.816406 27.367188 121.902344 27.605469 C 121.90625 27.613281 121.902344 27.613281 121.898438 27.613281 C 121.851562 27.605469 121.816406 27.628906 121.796875 27.671875 C 121.777344 27.921875 122.105469 28.011719 122.265625 28.136719 C 122.273438 28.152344 122.222656 28.113281 122.214844 28.109375 C 121.347656 27.433594 121.582031 29.023438 122.222656 28.21875 C 122.167969 28.316406 122.070312 28.398438 122.046875 28.507812 C 122.136719 28.445312 122.175781 28.320312 122.242188 28.230469 C 122.152344 28.398438 122.0625 28.6875 122.3125 28.757812 C 122.394531 28.789062 122.472656 28.757812 122.546875 28.71875 C 122.640625 28.679688 122.707031 28.582031 122.660156 28.484375 C 122.605469 28.328125 122.398438 28.253906 122.300781 28.164062 C 122.480469 28.261719 122.671875 28.496094 122.894531 28.417969 C 122.9375 28.386719 122.957031 28.332031 122.925781 28.289062 C 122.921875 28.285156 122.921875 28.28125 122.929688 28.28125 C 123.039062 28.269531 123.183594 28.226562 123.207031 28.105469 C 123.214844 28.070312 123.183594 28.042969 123.160156 28.023438 " fill-opacity="1" fill-rule="nonzero"/></g><path fill="#4287cf" d="M 124.804688 21.78125 C 124.324219 21.628906 123.832031 21.925781 123.503906 22.242188 C 123.519531 22.214844 123.507812 22.183594 123.527344 22.164062 C 123.550781 22.144531 123.542969 22.121094 123.574219 22.117188 C 123.804688 22.023438 123.957031 21.804688 124.085938 21.613281 C 124.082031 21.605469 124.066406 21.605469 124.058594 21.617188 C 123.957031 21.800781 123.84375 21.949219 123.65625 22.066406 C 123.613281 22.085938 123.570312 22.132812 123.523438 22.09375 C 123.460938 22.105469 123.449219 22.042969 123.421875 22.003906 C 123.316406 21.804688 123.296875 21.617188 123.300781 21.410156 C 123.300781 21.394531 123.289062 21.386719 123.28125 21.390625 C 123.292969 21.621094 123.3125 21.890625 123.464844 22.085938 C 123.492188 22.105469 123.472656 22.125 123.480469 22.148438 C 123.488281 22.179688 123.464844 22.199219 123.464844 22.230469 C 123.339844 21.789062 123.066406 21.285156 122.578125 21.171875 C 122.238281 21.121094 122.371094 21.609375 122.511719 21.765625 C 122.519531 21.773438 122.515625 21.777344 122.503906 21.78125 C 122.410156 21.789062 122.363281 21.878906 122.375 21.964844 C 122.53125 22.347656 123.050781 22.328125 123.386719 22.449219 C 123.394531 22.449219 123.394531 22.457031 123.386719 22.453125 C 123.355469 22.449219 123.324219 22.433594 123.289062 22.425781 C 123 22.371094 122.597656 22.175781 122.390625 22.492188 C 122.316406 22.699219 122.410156 23.003906 122.605469 23.121094 C 122.980469 23.363281 123.25 22.910156 123.363281 22.601562 C 123.320312 22.789062 123.207031 22.984375 123.226562 23.175781 C 123.339844 23.019531 123.339844 22.796875 123.402344 22.613281 C 123.152344 24.023438 124.613281 23.328125 124.21875 22.804688 C 124.050781 22.574219 123.667969 22.566406 123.457031 22.46875 C 123.808594 22.535156 124.246094 22.816406 124.574219 22.570312 C 124.625 22.5 124.632812 22.402344 124.554688 22.34375 C 124.546875 22.339844 124.546875 22.332031 124.558594 22.328125 C 124.757812 22.265625 125.121094 21.914062 124.804688 21.78125 " fill-opacity="1" fill-rule="nonzero"/><path fill="#4287cf" d="M 130.09375 18.097656 C 129.796875 17.945312 129.433594 18.011719 129.136719 18.109375 C 129.15625 18.09375 129.160156 18.066406 129.183594 18.058594 C 129.203125 18.050781 129.210938 18.03125 129.234375 18.039062 C 129.441406 18.050781 129.636719 17.9375 129.800781 17.835938 C 129.800781 17.832031 129.789062 17.824219 129.777344 17.832031 C 129.636719 17.933594 129.5 18.007812 129.3125 18.03125 C 129.273438 18.03125 129.222656 18.050781 129.203125 18.003906 C 129.152344 17.992188 129.164062 17.9375 129.15625 17.898438 C 129.148438 17.710938 129.199219 17.5625 129.277344 17.40625 C 129.28125 17.394531 129.273438 17.382812 129.265625 17.382812 C 129.195312 17.5625 129.117188 17.777344 129.164062 17.976562 C 129.175781 18 129.15625 18.007812 129.152344 18.03125 C 129.148438 18.054688 129.121094 18.0625 129.109375 18.085938 C 129.15625 17.777344 129.160156 17.40625 128.960938 17.136719 C 128.710938 16.710938 128.464844 17.035156 128.550781 17.394531 C 128.554688 17.402344 128.546875 17.40625 128.539062 17.402344 C 128.464844 17.378906 128.398438 17.429688 128.375 17.5 C 128.359375 17.84375 128.761719 18.011719 128.976562 18.222656 C 128.988281 18.25 128.917969 18.179688 128.910156 18.175781 C 127.773438 17.046875 127.839844 19.375 128.902344 18.332031 C 128.804688 18.460938 128.652344 18.566406 128.597656 18.71875 C 128.738281 18.640625 128.816406 18.472656 128.929688 18.355469 C 128.078125 19.578125 130.378906 19.257812 129.082031 18.320312 C 129.074219 18.308594 128.996094 18.257812 129.023438 18.265625 C 129.261719 18.429688 129.535156 18.855469 129.859375 18.722656 C 129.910156 18.679688 129.929688 18.621094 129.898438 18.558594 C 129.894531 18.554688 129.898438 18.546875 129.90625 18.546875 C 130.273438 18.574219 130.550781 18.277344 130.09375 18.097656 " fill-opacity="1" fill-rule="nonzero"/><path fill="#4287cf" d="M 128.632812 22.058594 C 128.234375 21.773438 127.703125 21.785156 127.246094 21.859375 C 127.28125 21.839844 127.292969 21.800781 127.328125 21.796875 C 127.363281 21.789062 127.371094 21.761719 127.410156 21.777344 C 127.703125 21.84375 128.007812 21.722656 128.265625 21.617188 C 128.265625 21.605469 128.25 21.597656 128.238281 21.605469 C 128.011719 21.71875 127.792969 21.792969 127.523438 21.785156 C 127.464844 21.773438 127.390625 21.796875 127.371094 21.71875 C 127.296875 21.683594 127.328125 21.621094 127.328125 21.558594 C 127.355469 21.285156 127.460938 21.082031 127.609375 20.875 C 127.617188 20.859375 127.609375 20.84375 127.601562 20.84375 C 127.457031 21.085938 127.296875 21.371094 127.316406 21.671875 C 127.328125 21.714844 127.296875 21.714844 127.289062 21.75 C 127.277344 21.78125 127.238281 21.789062 127.214844 21.820312 C 127.394531 21.285156 127.453125 20.585938 127.035156 20.136719 C 126.988281 20.09375 126.925781 20.039062 126.855469 20.066406 C 126.605469 20.148438 126.558594 20.460938 126.566406 20.695312 C 126.566406 20.707031 126.558594 20.710938 126.550781 20.707031 C 126.449219 20.652344 126.339844 20.710938 126.292969 20.808594 C 126.191406 21.300781 126.734375 21.636719 126.992188 21.988281 C 127.007812 22.027344 126.917969 21.90625 126.90625 21.898438 C 126.652344 21.644531 126.375 21.167969 125.953125 21.347656 C 125.738281 21.503906 125.621094 21.890625 125.742188 22.132812 C 125.957031 22.636719 126.539062 22.363281 126.863281 22.128906 C 126.691406 22.289062 126.449219 22.40625 126.335938 22.617188 C 126.558594 22.535156 126.707031 22.308594 126.894531 22.164062 C 126.613281 22.453125 126.257812 22.988281 126.726562 23.277344 C 126.945312 23.433594 127.34375 23.371094 127.527344 23.183594 C 127.765625 22.785156 127.339844 22.445312 127.125 22.152344 C 127.101562 22.117188 127.066406 22.09375 127.042969 22.0625 C 127.039062 22.050781 127.042969 22.046875 127.050781 22.058594 C 127.335938 22.335938 127.679688 23.039062 128.152344 22.90625 C 128.238281 22.855469 128.28125 22.777344 128.25 22.679688 C 128.246094 22.667969 128.25 22.664062 128.261719 22.664062 C 128.785156 22.78125 129.253906 22.425781 128.632812 22.058594 " fill-opacity="1" fill-rule="nonzero"/><path fill="#4287cf" d="M 134.039062 19.894531 C 133.722656 19.484375 133.179688 19.335938 132.695312 19.273438 C 132.738281 19.265625 132.761719 19.230469 132.796875 19.234375 C 132.832031 19.242188 132.847656 19.210938 132.882812 19.242188 C 133.160156 19.394531 133.503906 19.363281 133.800781 19.335938 C 133.804688 19.324219 133.789062 19.308594 133.773438 19.3125 C 133.511719 19.363281 133.269531 19.371094 132.996094 19.28125 C 132.96875 19.265625 132.898438 19.25 132.871094 19.222656 C 132.863281 19.210938 132.871094 19.183594 132.863281 19.167969 C 132.855469 19.152344 132.832031 19.144531 132.828125 19.128906 C 132.824219 19.089844 132.859375 19.023438 132.867188 18.996094 C 132.976562 18.726562 133.144531 18.550781 133.355469 18.386719 C 133.367188 18.375 133.363281 18.355469 133.355469 18.351562 C 133.136719 18.554688 132.890625 18.796875 132.820312 19.105469 C 132.820312 19.152344 132.789062 19.144531 132.769531 19.175781 C 132.75 19.207031 132.707031 19.199219 132.675781 19.226562 C 133.011719 18.734375 133.28125 18.046875 132.992188 17.46875 C 132.953125 17.410156 132.90625 17.332031 132.828125 17.339844 C 132.550781 17.351562 132.414062 17.652344 132.351562 17.894531 C 132.347656 17.90625 132.339844 17.90625 132.328125 17.898438 C 132.242188 17.8125 132.117188 17.839844 132.039062 17.921875 C 131.792969 18.390625 132.242188 18.894531 132.398438 19.328125 C 132.402344 19.339844 132.398438 19.34375 132.390625 19.332031 C 132.371094 19.296875 132.359375 19.25 132.339844 19.214844 C 132.15625 18.878906 132.015625 18.316406 131.535156 18.371094 C 131.269531 18.464844 131.039062 18.820312 131.089844 19.105469 C 131.160156 19.679688 131.828125 19.574219 132.226562 19.433594 C 132.007812 19.546875 131.722656 19.59375 131.546875 19.769531 C 131.796875 19.753906 132.015625 19.570312 132.246094 19.480469 C 131.878906 19.6875 131.359375 20.125 131.746094 20.554688 C 131.925781 20.777344 132.347656 20.835938 132.589844 20.699219 C 132.949219 20.371094 132.613281 19.894531 132.484375 19.535156 C 132.472656 19.496094 132.441406 19.457031 132.429688 19.417969 C 132.425781 19.40625 132.433594 19.40625 132.4375 19.417969 C 132.644531 19.785156 132.785156 20.597656 133.304688 20.605469 C 133.402344 20.578125 133.46875 20.515625 133.46875 20.40625 C 133.46875 20.394531 133.476562 20.390625 133.484375 20.394531 C 133.984375 20.667969 134.5625 20.449219 134.039062 19.894531 " fill-opacity="1" fill-rule="nonzero"/><path fill="#4287cf" d="M 126.011719 19.417969 C 126.332031 19.304688 126.570312 18.808594 126.5 18.480469 C 126.25 17.9375 125.570312 18.148438 125.097656 18.167969 C 125.046875 18.167969 124.992188 18.1875 124.945312 18.1875 C 124.929688 18.1875 124.929688 18.179688 124.945312 18.175781 C 125.484375 18.070312 126.332031 18.214844 126.648438 17.664062 C 126.683594 17.527344 126.632812 17.378906 126.488281 17.339844 C 126.472656 17.335938 126.46875 17.324219 126.480469 17.3125 C 126.691406 17.09375 126.925781 16.757812 126.757812 16.457031 C 126.714844 16.367188 126.605469 16.367188 126.519531 16.363281 C 125.726562 16.425781 125.175781 17.148438 124.875 17.816406 C 124.882812 17.769531 124.847656 17.726562 124.867188 17.6875 C 124.886719 17.644531 124.855469 17.617188 124.90625 17.585938 C 125.191406 17.316406 125.285156 16.902344 125.363281 16.539062 C 125.351562 16.535156 125.328125 16.542969 125.328125 16.5625 C 125.285156 16.894531 125.207031 17.183594 124.996094 17.46875 C 124.96875 17.496094 124.921875 17.574219 124.882812 17.589844 C 124.863281 17.597656 124.835938 17.578125 124.816406 17.585938 C 124.792969 17.585938 124.773438 17.609375 124.753906 17.605469 C 124.707031 17.597656 124.644531 17.53125 124.613281 17.515625 C 124.34375 17.28125 124.199219 17.019531 124.085938 16.710938 C 124.078125 16.691406 124.054688 16.683594 124.046875 16.695312 C 124.199219 17.027344 124.390625 17.410156 124.726562 17.609375 C 124.78125 17.625 124.757812 17.660156 124.785156 17.695312 C 124.816406 17.730469 124.792969 17.777344 124.808594 17.824219 C 124.367188 17.242188 123.664062 16.664062 122.878906 16.789062 C 122.796875 16.8125 122.6875 16.835938 122.667969 16.933594 C 122.574219 17.261719 122.875 17.539062 123.132812 17.703125 C 123.144531 17.710938 123.144531 17.722656 123.132812 17.730469 C 123 17.800781 122.980469 17.957031 123.050781 18.082031 C 123.492188 18.546875 124.265625 18.210938 124.824219 18.191406 C 124.882812 18.203125 124.683594 18.210938 124.671875 18.214844 C 124.210938 18.308594 123.5 18.257812 123.382812 18.84375 C 123.386719 19.179688 123.730469 19.605469 124.070312 19.644531 C 124.769531 19.78125 124.898438 18.953125 124.882812 18.433594 C 124.933594 18.734375 124.878906 19.082031 125.019531 19.355469 C 125.09375 19.058594 124.964844 18.730469 124.945312 18.425781 C 125.046875 18.9375 125.363281 19.710938 126.011719 19.417969 " fill-opacity="1" fill-rule="nonzero"/><path fill="#4287cf" d="M 135.507812 13.421875 C 134.777344 12.894531 133.796875 12.921875 132.957031 13.054688 C 133.023438 13.027344 133.042969 12.953125 133.105469 12.945312 C 133.136719 12.945312 133.15625 12.917969 133.175781 12.90625 C 133.195312 12.894531 133.230469 12.902344 133.253906 12.910156 C 133.777344 13.035156 134.28125 12.804688 134.765625 12.644531 C 134.789062 12.640625 134.832031 12.628906 134.832031 12.609375 C 134.832031 12.589844 134.804688 12.570312 134.777344 12.585938 C 134.363281 12.796875 133.960938 12.9375 133.460938 12.921875 C 133.410156 12.910156 133.28125 12.917969 133.226562 12.882812 C 133.203125 12.867188 133.203125 12.820312 133.179688 12.800781 C 133.164062 12.777344 133.121094 12.769531 133.105469 12.746094 C 133.078125 12.6875 133.105469 12.558594 133.101562 12.507812 C 133.15625 12.003906 133.347656 11.628906 133.617188 11.242188 C 133.632812 11.21875 133.621094 11.1875 133.601562 11.1875 C 133.578125 11.183594 133.5625 11.226562 133.554688 11.246094 C 133.328125 11.707031 133.035156 12.175781 133.082031 12.714844 C 133.085938 12.734375 133.09375 12.773438 133.078125 12.789062 C 133.0625 12.808594 133.035156 12.824219 133.03125 12.855469 C 133.011719 12.917969 132.9375 12.929688 132.898438 12.988281 C 133.007812 12.558594 133.171875 12.046875 133.148438 11.578125 C 133.144531 10.984375 132.980469 10.328125 132.558594 9.890625 C 132.464844 9.8125 132.351562 9.710938 132.222656 9.761719 C 131.761719 9.917969 131.683594 10.488281 131.699219 10.921875 C 131.699219 10.945312 131.683594 10.953125 131.664062 10.941406 C 131.476562 10.84375 131.28125 10.949219 131.1875 11.128906 C 130.976562 11.957031 132.039062 12.703125 132.484375 13.296875 C 132.5 13.3125 132.492188 13.320312 132.476562 13.308594 C 132.425781 13.257812 132.386719 13.1875 132.332031 13.136719 C 131.859375 12.671875 131.347656 11.792969 130.566406 12.128906 C 130.1875 12.386719 129.957031 13.160156 130.1875 13.574219 C 130.589844 14.5 131.652344 13.992188 132.246094 13.554688 C 131.9375 13.855469 131.488281 14.074219 131.285156 14.457031 C 131.691406 14.308594 131.96875 13.890625 132.308594 13.625 C 131.796875 14.152344 131.144531 15.144531 132.003906 15.671875 C 132.378906 15.957031 133.179688 15.832031 133.484375 15.492188 C 133.921875 14.765625 133.128906 14.136719 132.730469 13.597656 C 132.691406 13.539062 132.625 13.488281 132.585938 13.433594 C 132.574219 13.414062 132.582031 13.410156 132.597656 13.425781 C 133.082031 13.910156 133.824219 15.257812 134.628906 14.980469 C 134.785156 14.882812 134.863281 14.746094 134.804688 14.566406 C 134.796875 14.542969 134.808594 14.53125 134.828125 14.535156 C 135.796875 14.742188 136.65625 14.101562 135.507812 13.421875 " fill-opacity="1" fill-rule="nonzero"/><path fill="#4287cf" d="M 126.828125 13.585938 C 126.726562 13.597656 126.679688 13.695312 126.691406 13.792969 C 126.875 14.207031 127.445312 14.171875 127.816406 14.292969 C 127.828125 14.296875 127.828125 14.300781 127.816406 14.300781 C 127.78125 14.296875 127.746094 14.277344 127.710938 14.273438 C 127.390625 14.21875 126.941406 14.015625 126.722656 14.371094 C 126.648438 14.601562 126.761719 14.9375 126.976562 15.054688 C 127.398438 15.3125 127.679688 14.804688 127.796875 14.464844 C 127.757812 14.671875 127.636719 14.886719 127.664062 15.097656 C 127.785156 14.921875 127.777344 14.675781 127.839844 14.476562 C 127.785156 14.832031 127.800781 15.410156 128.292969 15.378906 C 128.539062 15.375 128.792969 15.128906 128.832031 14.890625 C 128.804688 14.472656 128.308594 14.449219 128 14.34375 C 127.96875 14.332031 127.929688 14.332031 127.894531 14.320312 C 127.886719 14.316406 127.886719 14.3125 127.898438 14.3125 C 128.261719 14.371094 128.863281 14.707031 129.148438 14.359375 C 129.183594 14.277344 129.175781 14.199219 129.101562 14.144531 C 129.09375 14.136719 129.09375 14.128906 129.101562 14.125 C 129.332031 14.046875 129.703125 13.648438 129.355469 13.519531 C 128.828125 13.367188 128.292969 13.703125 127.941406 14.0625 C 127.957031 14.035156 127.945312 14 127.96875 13.976562 C 127.988281 13.957031 127.980469 13.929688 128.015625 13.921875 C 128.265625 13.816406 128.425781 13.570312 128.5625 13.355469 C 128.558594 13.347656 128.539062 13.347656 128.535156 13.359375 C 128.429688 13.5625 128.308594 13.730469 128.101562 13.867188 C 128.054688 13.890625 128.011719 13.945312 127.957031 13.898438 C 127.886719 13.914062 127.875 13.84375 127.84375 13.804688 C 127.722656 13.589844 127.695312 13.382812 127.691406 13.152344 C 127.691406 13.140625 127.679688 13.132812 127.671875 13.136719 C 127.691406 13.390625 127.722656 13.683594 127.894531 13.890625 C 127.925781 13.914062 127.902344 13.933594 127.914062 13.964844 C 127.921875 13.992188 127.894531 14.019531 127.898438 14.054688 C 127.769531 13.660156 127.558594 13.222656 127.167969 13.023438 C 126.621094 12.671875 126.527344 13.191406 126.835938 13.566406 C 126.84375 13.578125 126.839844 13.582031 126.828125 13.585938 " fill-opacity="1" fill-rule="nonzero"/><path fill="#4287cf" d="M 140.289062 16.140625 C 139.78125 15.769531 139.097656 15.78125 138.515625 15.875 C 138.558594 15.851562 138.574219 15.800781 138.617188 15.796875 C 138.660156 15.789062 138.667969 15.75 138.722656 15.773438 C 139.09375 15.855469 139.488281 15.707031 139.824219 15.570312 C 139.824219 15.554688 139.804688 15.542969 139.785156 15.550781 C 139.492188 15.699219 139.214844 15.792969 138.863281 15.78125 C 138.828125 15.773438 138.738281 15.777344 138.703125 15.753906 C 138.683594 15.742188 138.6875 15.710938 138.671875 15.695312 C 138.660156 15.679688 138.628906 15.675781 138.617188 15.65625 C 138.601562 15.617188 138.617188 15.527344 138.617188 15.492188 C 138.65625 15.140625 138.792969 14.878906 138.980469 14.613281 C 138.992188 14.59375 138.984375 14.574219 138.96875 14.570312 C 138.785156 14.882812 138.578125 15.25 138.601562 15.636719 C 138.617188 15.691406 138.578125 15.691406 138.566406 15.734375 C 138.550781 15.777344 138.5 15.785156 138.472656 15.824219 C 138.703125 15.136719 138.785156 14.242188 138.25 13.664062 C 138.183594 13.609375 138.105469 13.539062 138.015625 13.574219 C 137.695312 13.679688 137.636719 14.078125 137.644531 14.378906 C 137.644531 14.394531 137.636719 14.402344 137.621094 14.394531 C 137.492188 14.324219 137.355469 14.398438 137.289062 14.523438 C 137.152344 15.136719 137.859375 15.597656 138.183594 16.039062 C 138.203125 16.09375 138.089844 15.933594 138.078125 15.929688 C 137.75 15.601562 137.394531 14.988281 136.851562 15.214844 C 136.582031 15.40625 136.421875 15.921875 136.578125 16.222656 C 136.855469 16.871094 137.601562 16.519531 138.015625 16.21875 C 137.800781 16.425781 137.484375 16.578125 137.339844 16.84375 C 137.625 16.742188 137.820312 16.453125 138.058594 16.265625 C 137.699219 16.632812 137.242188 17.320312 137.835938 17.691406 C 138.113281 17.894531 138.640625 17.816406 138.871094 17.574219 C 139.175781 17.070312 138.628906 16.625 138.355469 16.25 C 138.324219 16.207031 138.28125 16.175781 138.253906 16.132812 C 138.246094 16.121094 138.25 16.117188 138.261719 16.128906 C 138.613281 16.480469 139.085938 17.402344 139.671875 17.222656 C 139.78125 17.15625 139.835938 17.058594 139.796875 16.933594 C 139.789062 16.917969 139.796875 16.910156 139.8125 16.914062 C 140.484375 17.066406 141.085938 16.613281 140.289062 16.140625 " fill-opacity="1" fill-rule="nonzero"/><path fill="#4287cf" d="M 136.910156 10.484375 C 137.082031 10.3125 137.109375 10.046875 136.910156 9.878906 C 136.679688 9.652344 136.320312 9.667969 136.027344 9.570312 C 136 9.566406 135.972656 9.566406 135.949219 9.554688 C 136.351562 9.578125 136.988281 9.9375 137.375 9.585938 C 137.433594 9.492188 137.433594 9.367188 137.332031 9.300781 C 137.320312 9.292969 137.324219 9.285156 137.332031 9.277344 C 137.550781 9.167969 137.808594 8.96875 137.757812 8.695312 C 137.746094 8.621094 137.664062 8.59375 137.601562 8.566406 C 136.984375 8.414062 136.382812 8.824219 135.988281 9.257812 C 136.007812 9.222656 135.992188 9.183594 136.015625 9.15625 C 136.039062 9.132812 136.027344 9.101562 136.070312 9.089844 C 136.351562 8.957031 136.53125 8.667969 136.675781 8.414062 C 136.667969 8.402344 136.652344 8.40625 136.644531 8.421875 C 136.53125 8.660156 136.398438 8.859375 136.167969 9.023438 C 136.140625 9.039062 136.085938 9.085938 136.050781 9.089844 C 136.035156 9.089844 136.019531 9.066406 136 9.066406 C 135.984375 9.0625 135.964844 9.074219 135.949219 9.066406 C 135.917969 9.050781 135.886719 8.984375 135.863281 8.960938 C 135.71875 8.71875 135.675781 8.484375 135.664062 8.21875 C 135.664062 8.203125 135.648438 8.191406 135.636719 8.199219 C 135.671875 8.492188 135.722656 8.828125 135.929688 9.0625 C 135.964844 9.089844 135.941406 9.109375 135.953125 9.144531 C 135.964844 9.179688 135.9375 9.207031 135.9375 9.25 C 135.746094 8.695312 135.355469 8.078125 134.730469 7.976562 C 134.660156 7.972656 134.574219 7.964844 134.535156 8.03125 C 134.378906 8.261719 134.539062 8.546875 134.695312 8.734375 C 134.703125 8.746094 134.699219 8.753906 134.6875 8.753906 C 134.570312 8.777344 134.515625 8.890625 134.535156 9.003906 C 134.765625 9.472656 135.425781 9.402344 135.859375 9.53125 C 135.871094 9.53125 135.871094 9.539062 135.859375 9.539062 C 135.820312 9.535156 135.777344 9.515625 135.734375 9.511719 C 135.363281 9.464844 134.835938 9.246094 134.597656 9.664062 C 134.523438 9.929688 134.667969 10.320312 134.921875 10.445312 C 135.417969 10.722656 135.722656 10.125 135.839844 9.726562 C 135.804688 9.96875 135.675781 10.222656 135.714844 10.464844 C 135.847656 10.257812 135.828125 9.972656 135.890625 9.738281 C 135.84375 10.152344 135.886719 10.820312 136.453125 10.761719 C 136.652344 10.757812 136.789062 10.628906 136.910156 10.484375 " fill-opacity="1" fill-rule="nonzero"/><path fill="#4287cf" d="M 139.246094 7.523438 C 139.277344 7.5 139.300781 7.472656 139.328125 7.445312 C 139.214844 7.605469 139.03125 7.738281 138.972656 7.925781 C 139.140625 7.824219 139.230469 7.617188 139.359375 7.472656 C 139.175781 7.75 138.96875 8.238281 139.390625 8.402344 C 139.597656 8.492188 139.90625 8.386719 140.03125 8.203125 C 140.164062 7.84375 139.761719 7.632812 139.542969 7.425781 C 139.519531 7.402344 139.488281 7.386719 139.464844 7.363281 C 139.457031 7.355469 139.460938 7.355469 139.46875 7.359375 C 139.753906 7.550781 140.117188 8.054688 140.496094 7.882812 C 140.554688 7.828125 140.578125 7.757812 140.539062 7.683594 C 140.535156 7.675781 140.539062 7.667969 140.546875 7.667969 C 140.992188 7.6875 141.316406 7.320312 140.757812 7.121094 C 140.390625 6.949219 139.957031 7.039062 139.601562 7.167969 C 139.625 7.148438 139.628906 7.113281 139.65625 7.105469 C 139.683594 7.097656 139.6875 7.070312 139.71875 7.078125 C 139.964844 7.085938 140.195312 6.945312 140.390625 6.816406 C 140.390625 6.808594 140.375 6.800781 140.367188 6.808594 C 140.199219 6.9375 140.035156 7.035156 139.8125 7.066406 C 139.761719 7.066406 139.707031 7.09375 139.679688 7.035156 C 139.613281 7.023438 139.628906 6.960938 139.617188 6.914062 C 139.601562 6.6875 139.65625 6.503906 139.742188 6.3125 C 139.75 6.300781 139.742188 6.289062 139.734375 6.289062 C 139.652344 6.507812 139.566406 6.765625 139.628906 7.007812 C 139.644531 7.035156 139.621094 7.046875 139.617188 7.074219 C 139.613281 7.101562 139.582031 7.113281 139.566406 7.140625 C 139.613281 6.765625 139.605469 6.320312 139.355469 6 C 139.039062 5.5 138.753906 5.894531 138.871094 6.328125 C 138.871094 6.335938 138.867188 6.34375 138.855469 6.339844 C 138.765625 6.3125 138.6875 6.375 138.660156 6.460938 C 138.65625 6.875 139.148438 7.066406 139.410156 7.3125 C 139.417969 7.320312 139.417969 7.324219 139.40625 7.316406 C 139.378906 7.300781 139.359375 7.273438 139.328125 7.253906 C 139.082031 7.085938 138.785156 6.742188 138.46875 6.953125 C 138.316406 7.117188 138.28125 7.441406 138.417969 7.625 C 138.640625 7.960938 139.023438 7.742188 139.246094 7.523438 " fill-opacity="1" fill-rule="nonzero"/><path fill="#4287cf" d="M 144.941406 9.386719 C 144.449219 9.023438 143.789062 9.03125 143.222656 9.113281 C 143.265625 9.09375 143.277344 9.042969 143.320312 9.039062 C 143.367188 9.03125 143.371094 8.992188 143.421875 9.015625 C 143.785156 9.101562 144.164062 8.960938 144.492188 8.828125 C 144.492188 8.816406 144.472656 8.804688 144.457031 8.8125 C 144.171875 8.953125 143.902344 9.042969 143.5625 9.027344 C 143.527344 9.019531 143.441406 9.023438 143.402344 9 C 143.386719 8.988281 143.390625 8.957031 143.375 8.941406 C 143.363281 8.925781 143.332031 8.921875 143.324219 8.902344 C 143.308594 8.863281 143.324219 8.777344 143.324219 8.742188 C 143.363281 8.40625 143.5 8.152344 143.683594 7.894531 C 143.695312 7.878906 143.6875 7.859375 143.675781 7.855469 C 143.492188 8.15625 143.289062 8.511719 143.308594 8.882812 C 143.324219 8.9375 143.285156 8.9375 143.273438 8.980469 C 143.257812 9.019531 143.207031 9.027344 143.179688 9.066406 C 143.410156 8.402344 143.496094 7.535156 142.984375 6.96875 C 142.921875 6.917969 142.847656 6.84375 142.761719 6.878906 C 142.445312 6.976562 142.386719 7.367188 142.394531 7.65625 C 142.394531 7.671875 142.382812 7.679688 142.371094 7.671875 C 142.242188 7.601562 142.113281 7.671875 142.046875 7.792969 C 141.90625 8.382812 142.589844 8.839844 142.898438 9.269531 C 142.917969 9.324219 142.808594 9.167969 142.796875 9.160156 C 142.480469 8.839844 142.144531 8.242188 141.617188 8.460938 C 141.351562 8.644531 141.195312 9.136719 141.34375 9.433594 C 141.605469 10.0625 142.332031 9.730469 142.734375 9.441406 C 142.523438 9.640625 142.21875 9.785156 142.074219 10.042969 C 142.351562 9.945312 142.542969 9.664062 142.777344 9.488281 C 142.425781 9.84375 141.972656 10.503906 142.546875 10.871094 C 142.8125 11.066406 143.324219 10.996094 143.550781 10.765625 C 143.851562 10.277344 143.324219 9.84375 143.0625 9.476562 C 143.035156 9.4375 142.992188 9.402344 142.964844 9.363281 C 142.957031 9.351562 142.960938 9.347656 142.972656 9.359375 C 143.3125 9.703125 143.761719 10.597656 144.328125 10.429688 C 144.433594 10.367188 144.488281 10.273438 144.453125 10.152344 C 144.449219 10.136719 144.457031 10.128906 144.46875 10.132812 C 145.121094 10.285156 145.707031 9.851562 144.941406 9.386719 " fill-opacity="1" fill-rule="nonzero"/><path fill="#4287cf" d="M 141.421875 12.363281 C 141.191406 12.054688 140.785156 11.941406 140.429688 11.890625 C 140.460938 11.886719 140.476562 11.859375 140.503906 11.863281 C 140.53125 11.867188 140.546875 11.847656 140.566406 11.867188 C 140.773438 11.984375 141.03125 11.964844 141.25 11.945312 C 141.253906 11.9375 141.242188 11.929688 141.230469 11.929688 C 141.035156 11.964844 140.855469 11.96875 140.652344 11.898438 C 140.609375 11.878906 140.550781 11.875 140.550781 11.816406 C 140.507812 11.777344 140.546875 11.730469 140.558594 11.683594 C 140.640625 11.488281 140.769531 11.359375 140.925781 11.238281 C 140.9375 11.230469 140.933594 11.214844 140.925781 11.210938 C 140.765625 11.359375 140.578125 11.539062 140.523438 11.765625 C 140.523438 11.800781 140.5 11.796875 140.484375 11.820312 C 140.46875 11.839844 140.4375 11.835938 140.414062 11.855469 C 140.617188 11.558594 140.808594 11.179688 140.738281 10.800781 C 140.691406 10.238281 140.277344 10.445312 140.1875 10.859375 C 140.183594 10.871094 140.175781 10.871094 140.167969 10.863281 C 140.105469 10.800781 140.011719 10.820312 139.953125 10.878906 C 139.765625 11.226562 140.09375 11.605469 140.207031 11.929688 C 140.210938 11.9375 140.207031 11.9375 140.203125 11.929688 C 140.1875 11.90625 140.179688 11.871094 140.164062 11.84375 C 140.03125 11.59375 139.933594 11.171875 139.574219 11.207031 C 139.371094 11.285156 139.203125 11.53125 139.234375 11.75 C 139.28125 12.175781 139.78125 12.105469 140.078125 12.003906 C 139.914062 12.085938 139.703125 12.117188 139.570312 12.25 C 139.753906 12.238281 139.921875 12.105469 140.09375 12.039062 C 139.816406 12.191406 139.425781 12.511719 139.710938 12.835938 C 139.851562 13.003906 140.144531 13.046875 140.335938 12.949219 C 140.605469 12.707031 140.363281 12.351562 140.269531 12.082031 C 140.257812 12.054688 140.238281 12.023438 140.230469 11.996094 C 140.226562 11.988281 140.230469 11.984375 140.234375 11.996094 C 140.390625 12.28125 140.472656 12.867188 140.867188 12.886719 C 140.941406 12.867188 140.992188 12.820312 140.992188 12.742188 C 140.992188 12.730469 140.996094 12.726562 141.003906 12.730469 C 141.371094 12.941406 141.804688 12.777344 141.421875 12.363281 " fill-opacity="1" fill-rule="nonzero"/><path fill="#4287cf" d="M 142.699219 6.003906 C 142.980469 6.226562 143.226562 5.890625 143.339844 5.65625 C 143.296875 5.800781 143.191406 5.945312 143.191406 6.097656 C 143.292969 5.984375 143.308594 5.804688 143.371094 5.667969 C 142.992188 7.035156 144.953125 6.019531 143.5 5.589844 C 143.488281 5.582031 143.402344 5.558594 143.429688 5.554688 C 143.699219 5.636719 144.023438 5.894531 144.304688 5.726562 C 144.351562 5.675781 144.363281 5.597656 144.308594 5.546875 C 144.300781 5.539062 144.304688 5.535156 144.308594 5.53125 C 144.648438 5.4375 144.804688 5.085938 144.339844 5.070312 C 144.023438 5.027344 143.71875 5.199219 143.480469 5.382812 C 143.496094 5.359375 143.492188 5.335938 143.507812 5.320312 C 143.523438 5.308594 143.523438 5.285156 143.550781 5.285156 C 143.738281 5.234375 143.875 5.070312 143.992188 4.929688 C 143.988281 4.921875 143.976562 4.921875 143.972656 4.929688 C 143.875 5.066406 143.773438 5.175781 143.617188 5.253906 C 143.582031 5.265625 143.542969 5.300781 143.507812 5.265625 C 143.460938 5.269531 143.453125 5.21875 143.433594 5.183594 C 143.367188 5.019531 143.367188 4.871094 143.386719 4.707031 C 143.386719 4.695312 143.378906 4.6875 143.375 4.691406 C 143.363281 4.871094 143.359375 5.089844 143.464844 5.253906 C 143.484375 5.269531 143.46875 5.285156 143.472656 5.308594 C 143.476562 5.328125 143.453125 5.34375 143.449219 5.371094 C 143.394531 5.074219 143.285156 4.742188 143.023438 4.5625 C 142.664062 4.261719 142.546875 4.628906 142.734375 4.925781 C 142.738281 4.929688 142.734375 4.9375 142.726562 4.9375 C 142.652344 4.9375 142.609375 5.003906 142.609375 5.074219 C 142.703125 5.386719 143.117188 5.414062 143.375 5.535156 C 143.390625 5.554688 143.308594 5.511719 143.300781 5.511719 C 143.074219 5.445312 142.769531 5.253906 142.582031 5.488281 C 142.507812 5.652344 142.554688 5.894531 142.699219 6.003906 " fill-opacity="1" fill-rule="nonzero"/><path fill="#4287cf" d="M 144.308594 0.6875 C 144.3125 0.6875 144.3125 0.691406 144.308594 0.695312 C 144.285156 0.722656 144.292969 0.757812 144.320312 0.785156 C 144.464844 0.855469 144.613281 0.714844 144.746094 0.667969 C 144.757812 0.667969 144.714844 0.679688 144.710938 0.683594 C 144.007812 0.949219 145.015625 1.382812 144.777344 0.71875 C 144.816406 0.785156 144.828125 0.871094 144.882812 0.925781 C 144.878906 0.847656 144.820312 0.78125 144.792969 0.710938 C 145.160156 1.320312 145.460938 0.25 144.796875 0.644531 C 144.789062 0.648438 144.765625 0.660156 144.773438 0.652344 C 144.890625 0.582031 145.121094 0.550781 145.132812 0.382812 C 145.117188 0.324219 145.078125 0.34375 145.066406 0.328125 C 145.148438 0.175781 145.074219 -0.00390625 144.910156 0.160156 C 144.785156 0.257812 144.746094 0.425781 144.726562 0.574219 C 144.726562 0.5625 144.714844 0.554688 144.714844 0.542969 C 144.714844 0.535156 144.707031 0.527344 144.71875 0.515625 C 144.761719 0.429688 144.75 0.324219 144.742188 0.234375 C 144.734375 0.308594 144.765625 0.398438 144.730469 0.484375 C 144.722656 0.496094 144.71875 0.527344 144.695312 0.523438 C 144.683594 0.542969 144.65625 0.527344 144.640625 0.523438 C 144.554688 0.496094 144.503906 0.417969 144.441406 0.375 C 144.507812 0.449219 144.589844 0.519531 144.6875 0.542969 C 144.707031 0.566406 144.699219 0.550781 144.714844 0.582031 C 144.589844 0.5 144.433594 0.425781 144.277344 0.460938 C 144.050781 0.484375 144.136719 0.65625 144.308594 0.6875 " fill-opacity="1" fill-rule="nonzero"/><path fill="#4287cf" d="M 145.367188 2.578125 C 145.300781 2.511719 145.183594 2.574219 145.113281 2.609375 C 144.886719 2.71875 144.761719 2.964844 144.683594 3.1875 C 144.683594 3.167969 144.667969 3.152344 144.675781 3.136719 C 144.679688 3.121094 144.671875 3.105469 144.6875 3.09375 C 144.789062 2.980469 144.808594 2.8125 144.824219 2.667969 C 144.785156 2.742188 144.820312 2.894531 144.71875 3.046875 C 144.699219 3.066406 144.6875 3.109375 144.652344 3.097656 C 144.621094 3.121094 144.59375 3.089844 144.570312 3.078125 C 144.425781 2.992188 144.394531 2.859375 144.316406 2.78125 C 144.390625 2.914062 144.492188 3.054688 144.636719 3.121094 C 144.652344 3.167969 144.644531 3.121094 144.660156 3.191406 C 144.496094 3.023438 144.28125 2.855469 144.03125 2.847656 C 143.667969 2.808594 143.746094 3.097656 143.996094 3.210938 C 144.003906 3.214844 144.003906 3.21875 143.996094 3.222656 C 143.949219 3.253906 143.949219 3.316406 143.980469 3.363281 C 144.175781 3.527344 144.457031 3.363281 144.679688 3.335938 C 144.699219 3.339844 144.625 3.347656 144.621094 3.351562 C 143.441406 3.507812 144.84375 4.535156 144.710938 3.425781 C 144.742188 3.542969 144.734375 3.683594 144.800781 3.785156 C 144.820312 3.664062 144.753906 3.539062 144.734375 3.421875 C 144.796875 3.617188 144.949219 3.910156 145.191406 3.769531 C 145.320312 3.703125 145.382812 3.519531 145.34375 3.382812 C 145.214844 3.15625 144.898438 3.316406 144.726562 3.324219 C 144.933594 3.257812 145.300781 3.289062 145.375 3.035156 C 145.371094 2.984375 145.347656 2.945312 145.296875 2.9375 C 145.289062 2.933594 145.289062 2.929688 145.292969 2.925781 C 145.367188 2.832031 145.445312 2.691406 145.367188 2.578125 " fill-opacity="1" fill-rule="nonzero"/><g clip-path="url(#49fcf21358)"><path fill="#4287cf" d="M 147.382812 7.15625 C 147.375 7.078125 147.269531 7.054688 147.203125 7.042969 C 147.003906 6.996094 146.796875 7.089844 146.632812 7.191406 C 146.644531 7.175781 146.644531 7.160156 146.65625 7.152344 C 146.667969 7.144531 146.667969 7.132812 146.683594 7.132812 C 146.808594 7.109375 146.90625 7.015625 146.988281 6.929688 C 146.910156 6.980469 146.847656 7.082031 146.726562 7.117188 C 146.707031 7.121094 146.675781 7.140625 146.660156 7.117188 C 146.628906 7.117188 146.625 7.082031 146.617188 7.0625 C 146.570312 6.941406 146.613281 6.835938 146.605469 6.738281 C 146.589844 6.855469 146.574219 6.992188 146.628906 7.105469 C 146.640625 7.117188 146.632812 7.128906 146.632812 7.140625 C 146.632812 7.15625 146.617188 7.164062 146.617188 7.179688 C 146.597656 6.988281 146.546875 6.769531 146.390625 6.636719 C 146.183594 6.421875 146.078125 6.648438 146.183594 6.851562 C 146.1875 6.855469 146.183594 6.855469 146.179688 6.855469 C 146.136719 6.855469 146.109375 6.878906 146.097656 6.917969 C 146.105469 7.140625 146.402344 7.183594 146.554688 7.28125 C 146.566406 7.292969 146.515625 7.261719 146.507812 7.261719 C 145.675781 6.753906 146.042969 8.132812 146.527344 7.355469 C 146.488281 7.445312 146.414062 7.53125 146.402344 7.632812 C 146.476562 7.5625 146.496094 7.453125 146.546875 7.367188 C 146.484375 7.523438 146.433594 7.789062 146.660156 7.824219 C 146.773438 7.847656 146.910156 7.761719 146.957031 7.65625 C 146.988281 7.445312 146.707031 7.382812 146.589844 7.296875 C 146.757812 7.363281 146.972656 7.574219 147.152344 7.449219 C 147.175781 7.414062 147.179688 7.378906 147.152344 7.347656 C 147.148438 7.34375 147.152344 7.339844 147.15625 7.335938 C 147.253906 7.316406 147.375 7.265625 147.382812 7.15625 " fill-opacity="1" fill-rule="nonzero"/></g><path fill="#4287cf" d="M 146.046875 1.621094 C 145.894531 2.042969 146.542969 1.761719 146.066406 1.589844 C 146.121094 1.613281 146.378906 1.773438 146.34375 1.605469 C 146.449219 1.59375 146.503906 1.480469 146.363281 1.464844 C 146.269531 1.441406 146.167969 1.488281 146.089844 1.535156 C 146.097656 1.523438 146.097656 1.519531 146.105469 1.511719 C 146.167969 1.5 146.21875 1.457031 146.261719 1.410156 C 146.222656 1.4375 146.191406 1.484375 146.136719 1.5 C 146.125 1.503906 146.109375 1.511719 146.101562 1.5 C 146.089844 1.5 146.085938 1.484375 146.082031 1.472656 C 146.058594 1.421875 146.082031 1.367188 146.078125 1.320312 C 146.066406 1.378906 146.0625 1.445312 146.089844 1.503906 C 146.089844 1.515625 146.089844 1.519531 146.082031 1.53125 C 146.074219 1.4375 146.046875 1.332031 145.972656 1.269531 C 145.875 1.167969 145.820312 1.277344 145.875 1.371094 C 145.722656 1.441406 146 1.550781 146.050781 1.582031 C 145.628906 1.308594 145.796875 1.996094 146.039062 1.617188 C 146.019531 1.660156 145.984375 1.703125 145.980469 1.75 C 146.015625 1.714844 146.023438 1.664062 146.046875 1.621094 " fill-opacity="1" fill-rule="nonzero"/><g clip-path="url(#65fd8d7c2c)"><path fill="#4287cf" d="M 146.484375 4.113281 C 146.320312 4.25 146.695312 4.300781 146.78125 4.316406 C 146.789062 4.320312 146.753906 4.308594 146.75 4.3125 C 146.164062 4.140625 146.609375 4.914062 146.777344 4.367188 C 146.769531 4.425781 146.738281 4.492188 146.746094 4.550781 C 146.78125 4.5 146.773438 4.429688 146.789062 4.367188 C 146.734375 4.945312 147.449219 4.390625 146.824219 4.324219 C 146.820312 4.324219 146.796875 4.324219 146.804688 4.320312 C 146.890625 4.339844 147.253906 4.441406 147.15625 4.25 C 147.285156 4.191406 147.320312 4.039062 147.136719 4.066406 C 147.007812 4.070312 146.898438 4.160156 146.816406 4.246094 C 146.820312 4.230469 146.820312 4.210938 146.835938 4.203125 C 146.90625 4.171875 146.953125 4.097656 146.988281 4.03125 C 146.949219 4.074219 146.925781 4.148438 146.859375 4.1875 C 146.847656 4.195312 146.832031 4.210938 146.816406 4.199219 C 146.800781 4.203125 146.792969 4.183594 146.78125 4.171875 C 146.738281 4.113281 146.746094 4.035156 146.726562 3.976562 C 146.734375 4.050781 146.746094 4.136719 146.800781 4.195312 C 146.8125 4.207031 146.804688 4.230469 146.800781 4.242188 C 146.761719 4.128906 146.691406 4.003906 146.574219 3.953125 C 146.414062 3.855469 146.390625 4.011719 146.484375 4.113281 " fill-opacity="1" fill-rule="nonzero"/></g></svg>