<svg xmlns="http://www.w3.org/2000/svg" xmlns:xlink="http://www.w3.org/1999/xlink" width="200" zoomAndPan="magnify" viewBox="0 0 150 30.000001" height="40" preserveAspectRatio="xMidYMid meet" version="1.0"><defs><clipPath id="f8e0c68387"><path d="M 2.417969 27 L 5 27 L 5 29 L 2.417969 29 Z M 2.417969 27 " clip-rule="nonzero"/></clipPath><clipPath id="45b141760c"><path d="M 27 6 L 28.546875 6 L 28.546875 8 L 27 8 Z M 27 6 " clip-rule="nonzero"/></clipPath><clipPath id="a1858cc82e"><path d="M 27 3 L 28.546875 3 L 28.546875 5 L 27 5 Z M 27 3 " clip-rule="nonzero"/></clipPath></defs><path fill="#4287cf" d="M 5.527344 25.445312 C 5.289062 25.335938 5.007812 25.394531 4.777344 25.480469 C 4.792969 25.46875 4.792969 25.445312 4.8125 25.441406 C 4.828125 25.433594 4.832031 25.414062 4.855469 25.421875 C 5.015625 25.425781 5.164062 25.332031 5.289062 25.25 C 5.203125 25.269531 5.105469 25.398438 4.914062 25.414062 C 4.882812 25.414062 4.84375 25.429688 4.828125 25.394531 C 4.789062 25.386719 4.792969 25.34375 4.789062 25.3125 C 4.777344 25.167969 4.8125 25.046875 4.867188 24.921875 C 4.871094 24.914062 4.867188 24.90625 4.859375 24.90625 C 4.808594 25.050781 4.753906 25.21875 4.792969 25.375 C 4.804688 25.394531 4.789062 25.402344 4.785156 25.417969 C 4.785156 25.4375 4.765625 25.445312 4.753906 25.464844 C 4.785156 25.21875 4.777344 24.929688 4.613281 24.722656 C 4.40625 24.394531 4.222656 24.65625 4.300781 24.933594 C 4.300781 24.941406 4.296875 24.945312 4.289062 24.941406 C 4.230469 24.925781 4.179688 24.964844 4.164062 25.023438 C 4.160156 25.292969 4.480469 25.414062 4.652344 25.574219 C 4.664062 25.59375 4.609375 25.539062 4.601562 25.539062 C 3.683594 24.683594 3.792969 26.507812 4.597656 25.664062 C 4.527344 25.765625 4.410156 25.851562 4.371094 25.972656 C 4.480469 25.910156 4.535156 25.773438 4.621094 25.679688 C 3.988281 26.664062 5.78125 26.339844 4.742188 25.648438 C 4.734375 25.640625 4.671875 25.601562 4.691406 25.605469 C 4.886719 25.730469 5.101562 26.050781 5.359375 25.941406 C 5.398438 25.90625 5.414062 25.863281 5.386719 25.8125 C 5.386719 25.808594 5.386719 25.804688 5.394531 25.804688 C 5.683594 25.8125 5.890625 25.574219 5.527344 25.445312 " fill-opacity="1" fill-rule="nonzero"/><g clip-path="url(#f8e0c68387)"><path fill="#4287cf" d="M 4.238281 28.023438 C 4 27.855469 3.679688 27.929688 3.441406 28.046875 C 3.453125 28.035156 3.453125 28.015625 3.46875 28.007812 C 3.484375 28 3.484375 27.984375 3.503906 27.988281 C 3.644531 27.980469 3.769531 27.886719 3.871094 27.804688 C 3.789062 27.835938 3.714844 27.949219 3.554688 27.976562 C 3.53125 27.980469 3.492188 27.996094 3.476562 27.96875 C 3.445312 27.964844 3.445312 27.921875 3.4375 27.898438 C 3.402344 27.738281 3.472656 27.628906 3.46875 27.539062 C 3.433594 27.667969 3.398438 27.820312 3.449219 27.953125 C 3.457031 27.96875 3.445312 27.976562 3.445312 27.992188 C 3.445312 28.007812 3.425781 28.015625 3.421875 28.03125 C 3.425781 27.816406 3.398438 27.5625 3.238281 27.394531 C 3.03125 27.125 2.890625 27.367188 2.980469 27.605469 C 2.984375 27.613281 2.980469 27.613281 2.972656 27.613281 C 2.925781 27.605469 2.894531 27.628906 2.875 27.671875 C 2.855469 27.921875 3.179688 28.011719 3.339844 28.136719 C 3.351562 28.152344 3.296875 28.113281 3.292969 28.109375 C 2.425781 27.433594 2.660156 29.023438 3.300781 28.21875 C 3.246094 28.316406 3.148438 28.398438 3.125 28.507812 C 3.214844 28.445312 3.253906 28.320312 3.320312 28.230469 C 3.230469 28.398438 3.136719 28.6875 3.386719 28.757812 C 3.472656 28.789062 3.550781 28.757812 3.625 28.71875 C 3.714844 28.679688 3.78125 28.582031 3.734375 28.484375 C 3.683594 28.328125 3.472656 28.253906 3.375 28.164062 C 3.558594 28.261719 3.75 28.496094 3.972656 28.417969 C 4.015625 28.386719 4.035156 28.332031 4 28.289062 C 4 28.285156 4 28.28125 4.007812 28.28125 C 4.117188 28.269531 4.257812 28.226562 4.28125 28.105469 C 4.289062 28.070312 4.261719 28.042969 4.238281 28.023438 " fill-opacity="1" fill-rule="nonzero"/></g><path fill="#4287cf" d="M 5.878906 21.78125 C 5.402344 21.628906 4.910156 21.925781 4.578125 22.242188 C 4.59375 22.214844 4.585938 22.183594 4.605469 22.164062 C 4.625 22.144531 4.617188 22.121094 4.652344 22.117188 C 4.878906 22.023438 5.035156 21.804688 5.160156 21.613281 C 5.15625 21.605469 5.140625 21.605469 5.136719 21.617188 C 5.035156 21.800781 4.921875 21.949219 4.730469 22.066406 C 4.6875 22.085938 4.648438 22.132812 4.597656 22.09375 C 4.535156 22.105469 4.523438 22.042969 4.496094 22.003906 C 4.394531 21.804688 4.371094 21.617188 4.378906 21.410156 C 4.378906 21.394531 4.363281 21.386719 4.355469 21.390625 C 4.371094 21.621094 4.390625 21.890625 4.542969 22.085938 C 4.566406 22.105469 4.546875 22.125 4.554688 22.148438 C 4.566406 22.179688 4.539062 22.199219 4.539062 22.230469 C 4.417969 21.789062 4.140625 21.285156 3.652344 21.171875 C 3.316406 21.121094 3.445312 21.609375 3.589844 21.765625 C 3.59375 21.773438 3.589844 21.777344 3.582031 21.78125 C 3.488281 21.789062 3.441406 21.878906 3.453125 21.964844 C 3.609375 22.347656 4.128906 22.328125 4.460938 22.449219 C 4.472656 22.449219 4.472656 22.457031 4.460938 22.453125 C 4.429688 22.449219 4.398438 22.433594 4.367188 22.425781 C 4.078125 22.371094 3.671875 22.175781 3.464844 22.492188 C 3.394531 22.699219 3.488281 23.003906 3.679688 23.121094 C 4.058594 23.363281 4.328125 22.910156 4.4375 22.601562 C 4.398438 22.789062 4.285156 22.984375 4.304688 23.175781 C 4.417969 23.019531 4.417969 22.796875 4.476562 22.613281 C 4.230469 24.023438 5.691406 23.328125 5.296875 22.804688 C 5.128906 22.574219 4.742188 22.566406 4.535156 22.46875 C 4.882812 22.535156 5.324219 22.816406 5.652344 22.570312 C 5.703125 22.5 5.707031 22.402344 5.632812 22.34375 C 5.625 22.339844 5.625 22.332031 5.636719 22.328125 C 5.832031 22.265625 6.195312 21.914062 5.878906 21.78125 " fill-opacity="1" fill-rule="nonzero"/><path fill="#4287cf" d="M 11.171875 18.097656 C 10.871094 17.945312 10.511719 18.011719 10.210938 18.109375 C 10.234375 18.09375 10.238281 18.066406 10.261719 18.058594 C 10.28125 18.050781 10.289062 18.03125 10.3125 18.039062 C 10.515625 18.050781 10.714844 17.9375 10.878906 17.835938 C 10.875 17.832031 10.863281 17.824219 10.855469 17.832031 C 10.714844 17.933594 10.574219 18.007812 10.390625 18.03125 C 10.351562 18.03125 10.300781 18.050781 10.28125 18.003906 C 10.230469 17.992188 10.242188 17.9375 10.234375 17.898438 C 10.226562 17.710938 10.273438 17.5625 10.351562 17.40625 C 10.355469 17.394531 10.351562 17.382812 10.34375 17.382812 C 10.273438 17.5625 10.191406 17.777344 10.238281 17.976562 C 10.253906 18 10.230469 18.007812 10.226562 18.03125 C 10.222656 18.054688 10.195312 18.0625 10.1875 18.085938 C 10.234375 17.777344 10.238281 17.40625 10.039062 17.136719 C 9.789062 16.710938 9.542969 17.035156 9.628906 17.394531 C 9.628906 17.402344 9.625 17.40625 9.617188 17.402344 C 9.542969 17.378906 9.476562 17.429688 9.453125 17.5 C 9.4375 17.84375 9.839844 18.011719 10.050781 18.222656 C 10.066406 18.25 9.996094 18.179688 9.984375 18.175781 C 8.851562 17.046875 8.914062 19.375 9.980469 18.332031 C 9.882812 18.460938 9.726562 18.566406 9.675781 18.71875 C 9.816406 18.640625 9.894531 18.472656 10.003906 18.355469 C 9.15625 19.578125 11.453125 19.257812 10.160156 18.320312 C 10.152344 18.308594 10.074219 18.257812 10.097656 18.265625 C 10.335938 18.429688 10.609375 18.855469 10.933594 18.722656 C 10.988281 18.679688 11.007812 18.621094 10.976562 18.558594 C 10.972656 18.554688 10.976562 18.546875 10.984375 18.546875 C 11.351562 18.574219 11.628906 18.277344 11.171875 18.097656 " fill-opacity="1" fill-rule="nonzero"/><path fill="#4287cf" d="M 9.710938 22.058594 C 9.3125 21.773438 8.78125 21.785156 8.324219 21.859375 C 8.359375 21.839844 8.371094 21.800781 8.40625 21.796875 C 8.4375 21.789062 8.445312 21.761719 8.484375 21.777344 C 8.777344 21.84375 9.082031 21.722656 9.34375 21.617188 C 9.34375 21.605469 9.328125 21.597656 9.3125 21.605469 C 9.085938 21.71875 8.871094 21.792969 8.597656 21.785156 C 8.539062 21.773438 8.46875 21.796875 8.445312 21.71875 C 8.375 21.683594 8.40625 21.621094 8.402344 21.558594 C 8.433594 21.285156 8.539062 21.082031 8.683594 20.875 C 8.695312 20.859375 8.6875 20.84375 8.675781 20.84375 C 8.535156 21.085938 8.371094 21.371094 8.394531 21.671875 C 8.40625 21.714844 8.375 21.714844 8.363281 21.75 C 8.355469 21.78125 8.3125 21.789062 8.292969 21.820312 C 8.46875 21.285156 8.53125 20.585938 8.113281 20.136719 C 8.0625 20.09375 8 20.039062 7.933594 20.066406 C 7.679688 20.148438 7.636719 20.460938 7.644531 20.695312 C 7.644531 20.707031 7.636719 20.710938 7.625 20.707031 C 7.523438 20.652344 7.417969 20.710938 7.367188 20.808594 C 7.269531 21.300781 7.808594 21.636719 8.066406 21.988281 C 8.082031 22.027344 7.996094 21.90625 7.984375 21.898438 C 7.726562 21.644531 7.453125 21.167969 7.027344 21.347656 C 6.816406 21.503906 6.699219 21.890625 6.820312 22.132812 C 7.035156 22.636719 7.613281 22.363281 7.9375 22.128906 C 7.769531 22.289062 7.523438 22.40625 7.414062 22.617188 C 7.632812 22.535156 7.785156 22.308594 7.96875 22.164062 C 7.691406 22.453125 7.335938 22.988281 7.800781 23.277344 C 8.023438 23.433594 8.421875 23.371094 8.605469 23.183594 C 8.84375 22.785156 8.414062 22.445312 8.199219 22.152344 C 8.179688 22.117188 8.140625 22.09375 8.121094 22.0625 C 8.113281 22.050781 8.121094 22.046875 8.128906 22.058594 C 8.414062 22.335938 8.757812 23.039062 9.230469 22.90625 C 9.3125 22.855469 9.355469 22.777344 9.324219 22.679688 C 9.320312 22.667969 9.328125 22.664062 9.339844 22.664062 C 9.863281 22.78125 10.332031 22.425781 9.710938 22.058594 " fill-opacity="1" fill-rule="nonzero"/><path fill="#4287cf" d="M 15.117188 19.894531 C 14.800781 19.484375 14.257812 19.335938 13.773438 19.273438 C 13.8125 19.265625 13.835938 19.230469 13.875 19.234375 C 13.910156 19.242188 13.925781 19.210938 13.960938 19.242188 C 14.238281 19.394531 14.582031 19.363281 14.878906 19.335938 C 14.878906 19.324219 14.867188 19.308594 14.851562 19.3125 C 14.589844 19.363281 14.34375 19.371094 14.070312 19.28125 C 14.046875 19.265625 13.972656 19.25 13.949219 19.222656 C 13.9375 19.210938 13.949219 19.183594 13.9375 19.167969 C 13.933594 19.152344 13.910156 19.144531 13.90625 19.128906 C 13.902344 19.089844 13.9375 19.023438 13.941406 18.996094 C 14.054688 18.726562 14.21875 18.550781 14.429688 18.386719 C 14.441406 18.375 14.441406 18.355469 14.429688 18.351562 C 14.214844 18.554688 13.964844 18.796875 13.898438 19.105469 C 13.898438 19.152344 13.867188 19.144531 13.847656 19.175781 C 13.824219 19.207031 13.785156 19.199219 13.753906 19.226562 C 14.089844 18.734375 14.359375 18.046875 14.070312 17.46875 C 14.03125 17.410156 13.984375 17.332031 13.90625 17.339844 C 13.628906 17.351562 13.488281 17.652344 13.429688 17.894531 C 13.425781 17.90625 13.414062 17.90625 13.40625 17.898438 C 13.320312 17.8125 13.195312 17.839844 13.113281 17.921875 C 12.867188 18.390625 13.316406 18.894531 13.472656 19.328125 C 13.480469 19.339844 13.476562 19.34375 13.46875 19.332031 C 13.445312 19.296875 13.4375 19.25 13.414062 19.214844 C 13.230469 18.878906 13.09375 18.316406 12.609375 18.371094 C 12.347656 18.464844 12.113281 18.820312 12.164062 19.105469 C 12.234375 19.679688 12.90625 19.574219 13.300781 19.433594 C 13.082031 19.546875 12.800781 19.59375 12.625 19.769531 C 12.875 19.753906 13.09375 19.570312 13.324219 19.480469 C 12.957031 19.6875 12.4375 20.125 12.824219 20.554688 C 13 20.777344 13.425781 20.835938 13.667969 20.699219 C 14.023438 20.371094 13.691406 19.894531 13.5625 19.535156 C 13.546875 19.496094 13.519531 19.457031 13.507812 19.417969 C 13.503906 19.40625 13.507812 19.40625 13.515625 19.417969 C 13.722656 19.785156 13.863281 20.597656 14.378906 20.605469 C 14.480469 20.578125 14.546875 20.515625 14.542969 20.40625 C 14.542969 20.394531 14.550781 20.390625 14.5625 20.394531 C 15.058594 20.667969 15.636719 20.449219 15.117188 19.894531 " fill-opacity="1" fill-rule="nonzero"/><path fill="#4287cf" d="M 7.089844 19.417969 C 7.410156 19.304688 7.648438 18.808594 7.574219 18.480469 C 7.328125 17.9375 6.644531 18.148438 6.175781 18.167969 C 6.125 18.167969 6.070312 18.1875 6.019531 18.1875 C 6.003906 18.1875 6.003906 18.179688 6.019531 18.175781 C 6.5625 18.070312 7.40625 18.214844 7.726562 17.664062 C 7.761719 17.527344 7.710938 17.378906 7.566406 17.339844 C 7.550781 17.335938 7.546875 17.324219 7.558594 17.3125 C 7.769531 17.09375 8 16.757812 7.832031 16.457031 C 7.789062 16.367188 7.683594 16.367188 7.597656 16.363281 C 6.804688 16.425781 6.25 17.148438 5.953125 17.816406 C 5.957031 17.769531 5.925781 17.726562 5.945312 17.6875 C 5.964844 17.644531 5.933594 17.617188 5.984375 17.585938 C 6.265625 17.316406 6.363281 16.902344 6.4375 16.539062 C 6.425781 16.535156 6.40625 16.542969 6.402344 16.5625 C 6.363281 16.894531 6.28125 17.183594 6.074219 17.46875 C 6.046875 17.496094 6 17.574219 5.957031 17.589844 C 5.9375 17.597656 5.914062 17.578125 5.890625 17.585938 C 5.871094 17.585938 5.851562 17.609375 5.828125 17.605469 C 5.785156 17.597656 5.722656 17.53125 5.6875 17.515625 C 5.417969 17.28125 5.277344 17.019531 5.160156 16.710938 C 5.152344 16.691406 5.128906 16.683594 5.121094 16.695312 C 5.277344 17.027344 5.464844 17.410156 5.800781 17.609375 C 5.859375 17.625 5.835938 17.660156 5.863281 17.695312 C 5.890625 17.730469 5.867188 17.777344 5.886719 17.824219 C 5.441406 17.242188 4.738281 16.664062 3.953125 16.789062 C 3.871094 16.8125 3.765625 16.835938 3.746094 16.933594 C 3.648438 17.261719 3.953125 17.539062 4.207031 17.703125 C 4.222656 17.710938 4.222656 17.722656 4.207031 17.730469 C 4.074219 17.800781 4.058594 17.957031 4.125 18.082031 C 4.570312 18.546875 5.34375 18.210938 5.902344 18.191406 C 5.957031 18.203125 5.761719 18.210938 5.75 18.214844 C 5.289062 18.308594 4.574219 18.257812 4.457031 18.84375 C 4.460938 19.179688 4.804688 19.605469 5.144531 19.644531 C 5.84375 19.78125 5.972656 18.953125 5.957031 18.433594 C 6.007812 18.734375 5.957031 19.082031 6.097656 19.355469 C 6.171875 19.058594 6.039062 18.730469 6.019531 18.425781 C 6.125 18.9375 6.4375 19.710938 7.089844 19.417969 " fill-opacity="1" fill-rule="nonzero"/><path fill="#4287cf" d="M 16.585938 13.421875 C 15.851562 12.894531 14.871094 12.921875 14.035156 13.054688 C 14.097656 13.027344 14.117188 12.953125 14.183594 12.945312 C 14.214844 12.945312 14.234375 12.917969 14.253906 12.90625 C 14.273438 12.894531 14.308594 12.902344 14.328125 12.910156 C 14.855469 13.035156 15.359375 12.804688 15.84375 12.644531 C 15.867188 12.640625 15.910156 12.628906 15.910156 12.609375 C 15.910156 12.589844 15.878906 12.570312 15.855469 12.585938 C 15.4375 12.796875 15.039062 12.9375 14.539062 12.921875 C 14.484375 12.910156 14.355469 12.917969 14.300781 12.882812 C 14.277344 12.867188 14.28125 12.820312 14.257812 12.800781 C 14.242188 12.777344 14.195312 12.769531 14.183594 12.746094 C 14.15625 12.6875 14.183594 12.558594 14.179688 12.507812 C 14.230469 12.003906 14.425781 11.628906 14.691406 11.242188 C 14.707031 11.21875 14.695312 11.1875 14.675781 11.1875 C 14.65625 11.183594 14.640625 11.226562 14.632812 11.246094 C 14.40625 11.707031 14.109375 12.175781 14.160156 12.714844 C 14.164062 12.734375 14.167969 12.773438 14.152344 12.789062 C 14.136719 12.808594 14.109375 12.824219 14.105469 12.855469 C 14.089844 12.917969 14.015625 12.929688 13.976562 12.988281 C 14.085938 12.558594 14.25 12.046875 14.226562 11.578125 C 14.222656 10.984375 14.054688 10.328125 13.636719 9.890625 C 13.542969 9.8125 13.425781 9.710938 13.300781 9.761719 C 12.839844 9.917969 12.761719 10.488281 12.773438 10.921875 C 12.777344 10.945312 12.761719 10.953125 12.742188 10.941406 C 12.554688 10.84375 12.359375 10.949219 12.265625 11.128906 C 12.054688 11.957031 13.117188 12.703125 13.5625 13.296875 C 13.574219 13.3125 13.570312 13.320312 13.550781 13.308594 C 13.5 13.257812 13.460938 13.1875 13.410156 13.136719 C 12.933594 12.671875 12.421875 11.792969 11.644531 12.128906 C 11.265625 12.386719 11.035156 13.160156 11.261719 13.574219 C 11.664062 14.5 12.730469 13.992188 13.324219 13.554688 C 13.015625 13.855469 12.566406 14.074219 12.359375 14.457031 C 12.765625 14.308594 13.042969 13.890625 13.382812 13.625 C 12.871094 14.152344 12.222656 15.144531 13.082031 15.671875 C 13.453125 15.957031 14.253906 15.832031 14.558594 15.492188 C 14.996094 14.765625 14.203125 14.136719 13.808594 13.597656 C 13.765625 13.539062 13.699219 13.488281 13.660156 13.433594 C 13.648438 13.414062 13.65625 13.410156 13.671875 13.425781 C 14.160156 13.910156 14.898438 15.257812 15.707031 14.980469 C 15.859375 14.882812 15.9375 14.746094 15.882812 14.566406 C 15.875 14.542969 15.882812 14.53125 15.90625 14.535156 C 16.875 14.742188 17.730469 14.101562 16.585938 13.421875 " fill-opacity="1" fill-rule="nonzero"/><path fill="#4287cf" d="M 7.90625 13.585938 C 7.804688 13.597656 7.753906 13.695312 7.769531 13.792969 C 7.949219 14.207031 8.523438 14.171875 8.894531 14.292969 C 8.90625 14.296875 8.90625 14.300781 8.894531 14.300781 C 8.859375 14.296875 8.824219 14.277344 8.789062 14.273438 C 8.46875 14.21875 8.019531 14.015625 7.800781 14.371094 C 7.726562 14.601562 7.835938 14.9375 8.054688 15.054688 C 8.476562 15.3125 8.757812 14.804688 8.871094 14.464844 C 8.832031 14.671875 8.714844 14.886719 8.742188 15.097656 C 8.859375 14.921875 8.855469 14.675781 8.914062 14.476562 C 8.859375 14.832031 8.878906 15.410156 9.367188 15.378906 C 9.617188 15.375 9.871094 15.128906 9.910156 14.890625 C 9.878906 14.472656 9.386719 14.449219 9.078125 14.34375 C 9.042969 14.332031 9.003906 14.332031 8.972656 14.320312 C 8.960938 14.316406 8.964844 14.3125 8.976562 14.3125 C 9.335938 14.371094 9.9375 14.707031 10.222656 14.359375 C 10.257812 14.277344 10.25 14.199219 10.179688 14.144531 C 10.167969 14.136719 10.167969 14.128906 10.179688 14.125 C 10.410156 14.046875 10.78125 13.648438 10.433594 13.519531 C 9.902344 13.367188 9.371094 13.703125 9.015625 14.0625 C 9.03125 14.035156 9.019531 14 9.042969 13.976562 C 9.066406 13.957031 9.054688 13.929688 9.09375 13.921875 C 9.339844 13.816406 9.503906 13.570312 9.640625 13.355469 C 9.632812 13.347656 9.617188 13.347656 9.609375 13.359375 C 9.503906 13.5625 9.382812 13.730469 9.179688 13.867188 C 9.128906 13.890625 9.089844 13.945312 9.035156 13.898438 C 8.964844 13.914062 8.949219 13.84375 8.917969 13.804688 C 8.800781 13.589844 8.769531 13.382812 8.769531 13.152344 C 8.769531 13.140625 8.757812 13.132812 8.746094 13.136719 C 8.769531 13.390625 8.800781 13.683594 8.96875 13.890625 C 9 13.914062 8.980469 13.933594 8.988281 13.964844 C 9 13.992188 8.972656 14.019531 8.972656 14.054688 C 8.84375 13.660156 8.636719 13.222656 8.242188 13.023438 C 7.699219 12.671875 7.605469 13.191406 7.914062 13.566406 C 7.921875 13.578125 7.917969 13.582031 7.90625 13.585938 " fill-opacity="1" fill-rule="nonzero"/><path fill="#4287cf" d="M 21.367188 16.140625 C 20.859375 15.769531 20.175781 15.78125 19.589844 15.875 C 19.636719 15.851562 19.648438 15.800781 19.695312 15.796875 C 19.738281 15.789062 19.746094 15.75 19.796875 15.773438 C 20.171875 15.855469 20.5625 15.707031 20.898438 15.570312 C 20.898438 15.554688 20.878906 15.542969 20.863281 15.550781 C 20.570312 15.699219 20.292969 15.792969 19.941406 15.78125 C 19.90625 15.773438 19.816406 15.777344 19.777344 15.753906 C 19.761719 15.742188 19.761719 15.710938 19.746094 15.695312 C 19.734375 15.679688 19.703125 15.675781 19.695312 15.65625 C 19.675781 15.617188 19.695312 15.527344 19.691406 15.492188 C 19.730469 15.140625 19.867188 14.878906 20.058594 14.613281 C 20.070312 14.59375 20.058594 14.574219 20.046875 14.570312 C 19.859375 14.882812 19.652344 15.25 19.679688 15.636719 C 19.695312 15.691406 19.65625 15.691406 19.640625 15.734375 C 19.628906 15.777344 19.578125 15.785156 19.550781 15.824219 C 19.777344 15.136719 19.859375 14.242188 19.324219 13.664062 C 19.261719 13.609375 19.179688 13.539062 19.09375 13.574219 C 18.769531 13.679688 18.710938 14.078125 18.722656 14.378906 C 18.722656 14.394531 18.710938 14.402344 18.699219 14.394531 C 18.566406 14.324219 18.429688 14.398438 18.367188 14.523438 C 18.226562 15.136719 18.9375 15.597656 19.257812 16.039062 C 19.28125 16.09375 19.167969 15.933594 19.152344 15.929688 C 18.824219 15.601562 18.472656 14.988281 17.929688 15.214844 C 17.660156 15.40625 17.5 15.921875 17.65625 16.222656 C 17.933594 16.871094 18.675781 16.519531 19.09375 16.21875 C 18.875 16.425781 18.5625 16.578125 18.417969 16.84375 C 18.703125 16.742188 18.898438 16.453125 19.132812 16.265625 C 18.777344 16.632812 18.316406 17.320312 18.914062 17.691406 C 19.191406 17.894531 19.714844 17.816406 19.945312 17.574219 C 20.253906 17.070312 19.703125 16.625 19.429688 16.25 C 19.402344 16.207031 19.355469 16.175781 19.328125 16.132812 C 19.320312 16.121094 19.328125 16.117188 19.335938 16.128906 C 19.691406 16.480469 20.160156 17.402344 20.746094 17.222656 C 20.855469 17.15625 20.910156 17.058594 20.871094 16.933594 C 20.867188 16.917969 20.875 16.910156 20.890625 16.914062 C 21.5625 17.066406 22.164062 16.613281 21.367188 16.140625 " fill-opacity="1" fill-rule="nonzero"/><path fill="#4287cf" d="M 17.984375 10.484375 C 18.160156 10.3125 18.1875 10.046875 17.988281 9.878906 C 17.757812 9.652344 17.398438 9.667969 17.105469 9.570312 C 17.078125 9.566406 17.050781 9.566406 17.027344 9.554688 C 17.429688 9.578125 18.066406 9.9375 18.449219 9.585938 C 18.511719 9.492188 18.507812 9.367188 18.410156 9.300781 C 18.398438 9.292969 18.398438 9.285156 18.410156 9.277344 C 18.625 9.167969 18.886719 8.96875 18.832031 8.695312 C 18.824219 8.621094 18.742188 8.59375 18.675781 8.566406 C 18.058594 8.414062 17.460938 8.824219 17.066406 9.257812 C 17.082031 9.222656 17.066406 9.183594 17.09375 9.15625 C 17.117188 9.132812 17.105469 9.101562 17.148438 9.089844 C 17.429688 8.957031 17.605469 8.667969 17.753906 8.414062 C 17.746094 8.402344 17.726562 8.40625 17.71875 8.421875 C 17.605469 8.660156 17.476562 8.859375 17.246094 9.023438 C 17.21875 9.039062 17.164062 9.085938 17.125 9.089844 C 17.109375 9.089844 17.09375 9.066406 17.078125 9.066406 C 17.0625 9.0625 17.039062 9.074219 17.023438 9.066406 C 16.992188 9.050781 16.960938 8.984375 16.941406 8.960938 C 16.792969 8.71875 16.753906 8.484375 16.742188 8.21875 C 16.742188 8.203125 16.722656 8.191406 16.714844 8.199219 C 16.75 8.492188 16.796875 8.828125 17.003906 9.0625 C 17.042969 9.089844 17.015625 9.109375 17.027344 9.144531 C 17.042969 9.179688 17.011719 9.207031 17.015625 9.25 C 16.824219 8.695312 16.433594 8.078125 15.804688 7.976562 C 15.738281 7.972656 15.648438 7.964844 15.609375 8.03125 C 15.457031 8.261719 15.617188 8.546875 15.769531 8.734375 C 15.777344 8.746094 15.773438 8.753906 15.761719 8.753906 C 15.644531 8.777344 15.59375 8.890625 15.613281 9.003906 C 15.84375 9.472656 16.5 9.402344 16.933594 9.53125 C 16.945312 9.53125 16.945312 9.539062 16.933594 9.539062 C 16.894531 9.535156 16.851562 9.515625 16.8125 9.511719 C 16.4375 9.464844 15.910156 9.246094 15.675781 9.664062 C 15.597656 9.929688 15.746094 10.320312 16 10.445312 C 16.496094 10.722656 16.800781 10.125 16.917969 9.726562 C 16.878906 9.96875 16.753906 10.222656 16.792969 10.464844 C 16.921875 10.257812 16.90625 9.972656 16.96875 9.738281 C 16.917969 10.152344 16.964844 10.820312 17.53125 10.761719 C 17.726562 10.757812 17.863281 10.628906 17.984375 10.484375 " fill-opacity="1" fill-rule="nonzero"/><path fill="#4287cf" d="M 20.324219 7.523438 C 20.351562 7.5 20.378906 7.472656 20.402344 7.445312 C 20.289062 7.605469 20.109375 7.738281 20.050781 7.925781 C 20.21875 7.824219 20.304688 7.617188 20.433594 7.472656 C 20.253906 7.75 20.042969 8.238281 20.46875 8.402344 C 20.675781 8.492188 20.980469 8.386719 21.105469 8.203125 C 21.242188 7.84375 20.839844 7.632812 20.621094 7.425781 C 20.597656 7.402344 20.5625 7.386719 20.542969 7.363281 C 20.535156 7.355469 20.539062 7.355469 20.546875 7.359375 C 20.832031 7.550781 21.191406 8.054688 21.570312 7.882812 C 21.632812 7.828125 21.65625 7.757812 21.617188 7.683594 C 21.609375 7.675781 21.613281 7.667969 21.625 7.667969 C 22.066406 7.6875 22.394531 7.320312 21.832031 7.121094 C 21.46875 6.949219 21.035156 7.039062 20.675781 7.167969 C 20.703125 7.148438 20.707031 7.113281 20.734375 7.105469 C 20.757812 7.097656 20.761719 7.070312 20.796875 7.078125 C 21.042969 7.085938 21.273438 6.945312 21.46875 6.816406 C 21.46875 6.808594 21.453125 6.800781 21.441406 6.808594 C 21.277344 6.9375 21.109375 7.035156 20.886719 7.066406 C 20.839844 7.066406 20.78125 7.09375 20.753906 7.035156 C 20.691406 7.023438 20.707031 6.960938 20.695312 6.914062 C 20.679688 6.6875 20.734375 6.503906 20.820312 6.3125 C 20.824219 6.300781 20.816406 6.289062 20.808594 6.289062 C 20.730469 6.507812 20.640625 6.765625 20.703125 7.007812 C 20.722656 7.035156 20.695312 7.046875 20.691406 7.074219 C 20.691406 7.101562 20.65625 7.113281 20.644531 7.140625 C 20.691406 6.765625 20.683594 6.320312 20.433594 6 C 20.113281 5.5 19.832031 5.894531 19.945312 6.328125 C 19.949219 6.335938 19.941406 6.34375 19.933594 6.339844 C 19.84375 6.3125 19.765625 6.375 19.738281 6.460938 C 19.734375 6.875 20.226562 7.066406 20.488281 7.3125 C 20.496094 7.320312 20.492188 7.324219 20.484375 7.316406 C 20.457031 7.300781 20.433594 7.273438 20.40625 7.253906 C 20.160156 7.085938 19.863281 6.742188 19.542969 6.953125 C 19.394531 7.117188 19.359375 7.441406 19.492188 7.625 C 19.714844 7.960938 20.097656 7.742188 20.324219 7.523438 " fill-opacity="1" fill-rule="nonzero"/><path fill="#4287cf" d="M 26.015625 9.386719 C 25.527344 9.023438 24.863281 9.03125 24.296875 9.113281 C 24.339844 9.09375 24.355469 9.042969 24.398438 9.039062 C 24.441406 9.03125 24.449219 8.992188 24.5 9.015625 C 24.859375 9.101562 25.242188 8.960938 25.570312 8.828125 C 25.570312 8.816406 25.550781 8.804688 25.53125 8.8125 C 25.25 8.953125 24.976562 9.042969 24.640625 9.027344 C 24.601562 9.019531 24.515625 9.023438 24.480469 9 C 24.464844 8.988281 24.464844 8.957031 24.449219 8.941406 C 24.441406 8.925781 24.410156 8.921875 24.402344 8.902344 C 24.382812 8.863281 24.402344 8.777344 24.402344 8.742188 C 24.441406 8.40625 24.574219 8.152344 24.761719 7.894531 C 24.773438 7.878906 24.765625 7.859375 24.753906 7.855469 C 24.570312 8.15625 24.363281 8.511719 24.386719 8.882812 C 24.402344 8.9375 24.363281 8.9375 24.347656 8.980469 C 24.335938 9.019531 24.285156 9.027344 24.257812 9.066406 C 24.488281 8.402344 24.574219 7.535156 24.0625 6.96875 C 24 6.917969 23.921875 6.84375 23.835938 6.878906 C 23.523438 6.976562 23.464844 7.367188 23.46875 7.65625 C 23.46875 7.671875 23.460938 7.679688 23.445312 7.671875 C 23.320312 7.601562 23.1875 7.671875 23.125 7.792969 C 22.984375 8.382812 23.667969 8.839844 23.976562 9.269531 C 23.992188 9.324219 23.886719 9.167969 23.875 9.160156 C 23.558594 8.839844 23.222656 8.242188 22.691406 8.460938 C 22.429688 8.644531 22.273438 9.136719 22.417969 9.433594 C 22.679688 10.0625 23.40625 9.730469 23.8125 9.441406 C 23.601562 9.640625 23.292969 9.785156 23.152344 10.042969 C 23.429688 9.945312 23.621094 9.664062 23.851562 9.488281 C 23.5 9.84375 23.050781 10.503906 23.625 10.871094 C 23.890625 11.066406 24.402344 10.996094 24.625 10.765625 C 24.929688 10.277344 24.402344 9.84375 24.140625 9.476562 C 24.113281 9.4375 24.066406 9.402344 24.042969 9.363281 C 24.035156 9.351562 24.039062 9.347656 24.050781 9.359375 C 24.386719 9.703125 24.835938 10.597656 25.40625 10.429688 C 25.511719 10.367188 25.566406 10.273438 25.527344 10.152344 C 25.523438 10.136719 25.53125 10.128906 25.546875 10.132812 C 26.195312 10.285156 26.785156 9.851562 26.015625 9.386719 " fill-opacity="1" fill-rule="nonzero"/><path fill="#4287cf" d="M 22.5 12.363281 C 22.265625 12.054688 21.863281 11.941406 21.507812 11.890625 C 21.535156 11.886719 21.554688 11.859375 21.582031 11.863281 C 21.605469 11.867188 21.621094 11.847656 21.644531 11.867188 C 21.847656 11.984375 22.109375 11.964844 22.328125 11.945312 C 22.328125 11.9375 22.320312 11.929688 22.308594 11.929688 C 22.109375 11.964844 21.929688 11.96875 21.726562 11.898438 C 21.6875 11.878906 21.628906 11.875 21.628906 11.816406 C 21.582031 11.777344 21.621094 11.730469 21.632812 11.683594 C 21.71875 11.488281 21.84375 11.359375 22.003906 11.238281 C 22.011719 11.230469 22.011719 11.214844 22.003906 11.210938 C 21.839844 11.359375 21.652344 11.539062 21.601562 11.765625 C 21.601562 11.800781 21.574219 11.796875 21.558594 11.820312 C 21.546875 11.839844 21.515625 11.835938 21.492188 11.855469 C 21.695312 11.558594 21.882812 11.179688 21.8125 10.800781 C 21.769531 10.238281 21.355469 10.445312 21.261719 10.859375 C 21.261719 10.871094 21.253906 10.871094 21.246094 10.863281 C 21.183594 10.800781 21.089844 10.820312 21.03125 10.878906 C 20.839844 11.226562 21.171875 11.605469 21.28125 11.929688 C 21.285156 11.9375 21.28125 11.9375 21.277344 11.929688 C 21.261719 11.90625 21.257812 11.871094 21.242188 11.84375 C 21.105469 11.59375 21.007812 11.171875 20.648438 11.207031 C 20.449219 11.285156 20.28125 11.53125 20.3125 11.75 C 20.359375 12.175781 20.859375 12.105469 21.152344 12.003906 C 20.988281 12.085938 20.78125 12.117188 20.648438 12.25 C 20.832031 12.238281 20.996094 12.105469 21.167969 12.039062 C 20.894531 12.191406 20.503906 12.511719 20.789062 12.835938 C 20.925781 13.003906 21.222656 13.046875 21.414062 12.949219 C 21.683594 12.707031 21.4375 12.351562 21.34375 12.082031 C 21.335938 12.054688 21.316406 12.023438 21.308594 11.996094 C 21.304688 11.988281 21.308594 11.984375 21.3125 11.996094 C 21.46875 12.28125 21.546875 12.867188 21.945312 12.886719 C 22.019531 12.867188 22.070312 12.820312 22.066406 12.742188 C 22.066406 12.730469 22.074219 12.726562 22.082031 12.730469 C 22.445312 12.941406 22.878906 12.777344 22.5 12.363281 " fill-opacity="1" fill-rule="nonzero"/><path fill="#4287cf" d="M 23.777344 6.003906 C 24.054688 6.226562 24.304688 5.890625 24.417969 5.65625 C 24.371094 5.800781 24.265625 5.945312 24.265625 6.097656 C 24.367188 5.984375 24.386719 5.804688 24.449219 5.667969 C 24.070312 7.035156 26.027344 6.019531 24.578125 5.589844 C 24.566406 5.582031 24.480469 5.558594 24.503906 5.554688 C 24.777344 5.636719 25.101562 5.894531 25.378906 5.726562 C 25.429688 5.675781 25.4375 5.597656 25.382812 5.546875 C 25.378906 5.539062 25.378906 5.535156 25.386719 5.53125 C 25.722656 5.4375 25.878906 5.085938 25.414062 5.070312 C 25.097656 5.027344 24.796875 5.199219 24.558594 5.382812 C 24.574219 5.359375 24.566406 5.335938 24.585938 5.320312 C 24.601562 5.308594 24.601562 5.285156 24.625 5.285156 C 24.8125 5.234375 24.953125 5.070312 25.070312 4.929688 C 25.066406 4.921875 25.054688 4.921875 25.046875 4.929688 C 24.953125 5.066406 24.851562 5.175781 24.691406 5.253906 C 24.65625 5.265625 24.617188 5.300781 24.585938 5.265625 C 24.535156 5.269531 24.53125 5.21875 24.511719 5.183594 C 24.445312 5.019531 24.441406 4.871094 24.464844 4.707031 C 24.464844 4.695312 24.457031 4.6875 24.449219 4.691406 C 24.441406 4.871094 24.4375 5.089844 24.539062 5.253906 C 24.558594 5.269531 24.542969 5.285156 24.546875 5.308594 C 24.550781 5.328125 24.53125 5.34375 24.527344 5.371094 C 24.472656 5.074219 24.359375 4.742188 24.097656 4.5625 C 23.742188 4.261719 23.621094 4.628906 23.8125 4.925781 C 23.816406 4.929688 23.8125 4.9375 23.804688 4.9375 C 23.730469 4.9375 23.6875 5.003906 23.6875 5.074219 C 23.78125 5.386719 24.195312 5.414062 24.449219 5.535156 C 24.46875 5.554688 24.386719 5.511719 24.375 5.511719 C 24.148438 5.445312 23.847656 5.253906 23.65625 5.488281 C 23.585938 5.652344 23.632812 5.894531 23.777344 6.003906 " fill-opacity="1" fill-rule="nonzero"/><path fill="#4287cf" d="M 25.386719 0.6875 C 25.386719 0.6875 25.390625 0.691406 25.386719 0.695312 C 25.363281 0.722656 25.371094 0.757812 25.394531 0.785156 C 25.539062 0.855469 25.691406 0.714844 25.824219 0.667969 C 25.835938 0.667969 25.792969 0.679688 25.789062 0.683594 C 25.085938 0.949219 26.09375 1.382812 25.855469 0.71875 C 25.890625 0.785156 25.90625 0.871094 25.960938 0.925781 C 25.953125 0.847656 25.898438 0.78125 25.871094 0.710938 C 26.234375 1.320312 26.535156 0.25 25.871094 0.644531 C 25.867188 0.648438 25.84375 0.660156 25.847656 0.652344 C 25.96875 0.582031 26.199219 0.550781 26.207031 0.382812 C 26.191406 0.324219 26.15625 0.34375 26.140625 0.328125 C 26.226562 0.175781 26.148438 -0.00390625 25.988281 0.160156 C 25.863281 0.257812 25.820312 0.425781 25.804688 0.574219 C 25.800781 0.5625 25.789062 0.554688 25.792969 0.542969 C 25.792969 0.535156 25.785156 0.527344 25.792969 0.515625 C 25.839844 0.429688 25.828125 0.324219 25.816406 0.234375 C 25.8125 0.308594 25.839844 0.398438 25.804688 0.484375 C 25.796875 0.496094 25.796875 0.527344 25.773438 0.523438 C 25.757812 0.542969 25.734375 0.527344 25.71875 0.523438 C 25.628906 0.496094 25.582031 0.417969 25.519531 0.375 C 25.585938 0.449219 25.667969 0.519531 25.765625 0.542969 C 25.785156 0.566406 25.773438 0.550781 25.789062 0.582031 C 25.664062 0.5 25.507812 0.425781 25.351562 0.460938 C 25.125 0.484375 25.214844 0.65625 25.386719 0.6875 " fill-opacity="1" fill-rule="nonzero"/><path fill="#4287cf" d="M 26.445312 2.578125 C 26.375 2.511719 26.257812 2.574219 26.1875 2.609375 C 25.964844 2.71875 25.839844 2.964844 25.761719 3.1875 C 25.761719 3.167969 25.746094 3.152344 25.753906 3.136719 C 25.757812 3.121094 25.746094 3.105469 25.765625 3.09375 C 25.863281 2.980469 25.886719 2.8125 25.902344 2.667969 C 25.863281 2.742188 25.894531 2.894531 25.792969 3.046875 C 25.777344 3.066406 25.765625 3.109375 25.726562 3.097656 C 25.699219 3.121094 25.671875 3.089844 25.644531 3.078125 C 25.5 2.992188 25.46875 2.859375 25.390625 2.78125 C 25.464844 2.914062 25.566406 3.054688 25.710938 3.121094 C 25.730469 3.167969 25.722656 3.121094 25.734375 3.191406 C 25.574219 3.023438 25.355469 2.855469 25.105469 2.847656 C 24.742188 2.808594 24.824219 3.097656 25.074219 3.210938 C 25.078125 3.214844 25.078125 3.21875 25.074219 3.222656 C 25.027344 3.253906 25.027344 3.316406 25.054688 3.363281 C 25.253906 3.527344 25.535156 3.363281 25.753906 3.335938 C 25.773438 3.339844 25.703125 3.347656 25.695312 3.351562 C 24.519531 3.507812 25.921875 4.535156 25.785156 3.425781 C 25.820312 3.542969 25.8125 3.683594 25.878906 3.785156 C 25.894531 3.664062 25.832031 3.539062 25.8125 3.421875 C 25.871094 3.617188 26.027344 3.910156 26.269531 3.769531 C 26.394531 3.703125 26.460938 3.519531 26.421875 3.382812 C 26.292969 3.15625 25.976562 3.316406 25.800781 3.324219 C 26.011719 3.257812 26.375 3.289062 26.449219 3.035156 C 26.449219 2.984375 26.425781 2.945312 26.375 2.9375 C 26.367188 2.933594 26.367188 2.929688 26.371094 2.925781 C 26.445312 2.832031 26.519531 2.691406 26.445312 2.578125 " fill-opacity="1" fill-rule="nonzero"/><g clip-path="url(#45b141760c)"><path fill="#4287cf" d="M 28.457031 7.15625 C 28.449219 7.078125 28.34375 7.054688 28.28125 7.042969 C 28.078125 6.996094 27.875 7.089844 27.710938 7.191406 C 27.722656 7.175781 27.71875 7.160156 27.730469 7.152344 C 27.742188 7.144531 27.742188 7.132812 27.761719 7.132812 C 27.882812 7.109375 27.984375 7.015625 28.066406 6.929688 C 27.984375 6.980469 27.925781 7.082031 27.804688 7.117188 C 27.785156 7.121094 27.753906 7.140625 27.734375 7.117188 C 27.707031 7.117188 27.703125 7.082031 27.691406 7.0625 C 27.648438 6.941406 27.691406 6.835938 27.683594 6.738281 C 27.667969 6.855469 27.652344 6.992188 27.707031 7.105469 C 27.71875 7.117188 27.707031 7.128906 27.707031 7.140625 C 27.710938 7.15625 27.695312 7.164062 27.691406 7.179688 C 27.675781 6.988281 27.625 6.769531 27.464844 6.636719 C 27.261719 6.421875 27.15625 6.648438 27.261719 6.851562 C 27.261719 6.855469 27.261719 6.855469 27.253906 6.855469 C 27.210938 6.855469 27.1875 6.878906 27.175781 6.917969 C 27.183594 7.140625 27.476562 7.183594 27.632812 7.28125 C 27.640625 7.292969 27.59375 7.261719 27.585938 7.261719 C 26.753906 6.753906 27.121094 8.132812 27.605469 7.355469 C 27.566406 7.445312 27.488281 7.53125 27.480469 7.632812 C 27.550781 7.5625 27.574219 7.453125 27.621094 7.367188 C 27.5625 7.523438 27.507812 7.789062 27.738281 7.824219 C 27.851562 7.847656 27.988281 7.761719 28.03125 7.65625 C 28.066406 7.445312 27.78125 7.382812 27.667969 7.296875 C 27.835938 7.363281 28.050781 7.574219 28.230469 7.449219 C 28.253906 7.414062 28.257812 7.378906 28.230469 7.347656 C 28.226562 7.34375 28.226562 7.339844 28.234375 7.335938 C 28.328125 7.316406 28.449219 7.265625 28.457031 7.15625 " fill-opacity="1" fill-rule="nonzero"/></g><path fill="#4287cf" d="M 27.125 1.621094 C 26.96875 2.042969 27.617188 1.761719 27.144531 1.589844 C 27.199219 1.613281 27.453125 1.773438 27.417969 1.605469 C 27.527344 1.59375 27.582031 1.480469 27.441406 1.464844 C 27.34375 1.441406 27.246094 1.488281 27.167969 1.535156 C 27.171875 1.523438 27.175781 1.519531 27.183594 1.511719 C 27.246094 1.5 27.296875 1.457031 27.339844 1.410156 C 27.300781 1.4375 27.269531 1.484375 27.210938 1.5 C 27.203125 1.503906 27.1875 1.511719 27.179688 1.5 C 27.164062 1.5 27.164062 1.484375 27.160156 1.472656 C 27.136719 1.421875 27.15625 1.367188 27.152344 1.320312 C 27.144531 1.378906 27.140625 1.445312 27.167969 1.503906 C 27.164062 1.515625 27.164062 1.519531 27.15625 1.53125 C 27.148438 1.4375 27.125 1.332031 27.050781 1.269531 C 26.953125 1.167969 26.898438 1.277344 26.949219 1.371094 C 26.796875 1.441406 27.078125 1.550781 27.128906 1.582031 C 26.707031 1.308594 26.871094 1.996094 27.117188 1.617188 C 27.097656 1.660156 27.058594 1.703125 27.054688 1.75 C 27.089844 1.714844 27.101562 1.664062 27.125 1.621094 " fill-opacity="1" fill-rule="nonzero"/><g clip-path="url(#a1858cc82e)"><path fill="#4287cf" d="M 27.5625 4.113281 C 27.398438 4.25 27.773438 4.300781 27.859375 4.316406 C 27.863281 4.320312 27.832031 4.308594 27.828125 4.3125 C 27.238281 4.140625 27.6875 4.914062 27.855469 4.367188 C 27.84375 4.425781 27.8125 4.492188 27.824219 4.550781 C 27.855469 4.5 27.851562 4.429688 27.867188 4.367188 C 27.8125 4.945312 28.527344 4.390625 27.902344 4.324219 C 27.894531 4.324219 27.875 4.324219 27.882812 4.320312 C 27.96875 4.339844 28.332031 4.441406 28.230469 4.25 C 28.359375 4.191406 28.398438 4.039062 28.210938 4.066406 C 28.082031 4.070312 27.972656 4.160156 27.890625 4.246094 C 27.894531 4.230469 27.898438 4.210938 27.910156 4.203125 C 27.984375 4.171875 28.027344 4.097656 28.066406 4.03125 C 28.023438 4.074219 28 4.148438 27.9375 4.1875 C 27.925781 4.195312 27.910156 4.210938 27.894531 4.199219 C 27.875 4.203125 27.867188 4.183594 27.859375 4.171875 C 27.816406 4.113281 27.820312 4.035156 27.800781 3.976562 C 27.8125 4.050781 27.824219 4.136719 27.875 4.195312 C 27.886719 4.207031 27.878906 4.230469 27.878906 4.242188 C 27.835938 4.128906 27.769531 4.003906 27.652344 3.953125 C 27.492188 3.855469 27.464844 4.011719 27.5625 4.113281 " fill-opacity="1" fill-rule="nonzero"/></g></svg>