<svg xmlns="http://www.w3.org/2000/svg" xmlns:xlink="http://www.w3.org/1999/xlink" width="70" zoomAndPan="magnify" viewBox="0 0 52.5 52.499999" height="70" preserveAspectRatio="xMidYMid meet" version="1.0"><defs><clipPath id="bb155a86e4"><path d="M 6.242188 2 L 41.902344 2 L 41.902344 47.988281 L 6.242188 47.988281 Z M 6.242188 2 " clip-rule="nonzero"/></clipPath></defs><g clip-path="url(#bb155a86e4)"><path fill="#bb9c87" d="M 25.859375 2.167969 C 25.808594 2.257812 25.816406 2.300781 25.898438 2.390625 C 26.007812 2.511719 26.398438 2.765625 26.804688 2.980469 C 26.949219 3.054688 27.183594 3.207031 27.324219 3.316406 C 27.898438 3.765625 27.996094 3.824219 28.085938 3.765625 C 28.132812 3.734375 28.183594 3.675781 28.199219 3.636719 C 28.222656 3.558594 27.484375 2.835938 27.007812 2.472656 C 26.457031 2.050781 25.984375 1.925781 25.859375 2.167969 M 24.953125 2.5 C 24.542969 2.789062 24.433594 2.929688 24.398438 3.230469 C 24.367188 3.527344 24.488281 3.746094 24.6875 3.746094 C 24.839844 3.746094 24.933594 3.578125 24.933594 3.300781 C 24.933594 3.128906 25.109375 2.921875 25.363281 2.800781 C 25.535156 2.71875 25.574219 2.515625 25.445312 2.375 C 25.394531 2.316406 25.335938 2.269531 25.316406 2.269531 C 25.296875 2.269531 25.136719 2.375 24.953125 2.5 M 26.363281 2.9375 C 26.25 3.050781 26.285156 3.121094 26.707031 3.625 C 27.113281 4.113281 27.28125 4.230469 27.386719 4.101562 C 27.492188 3.972656 27.269531 3.621094 26.773438 3.128906 C 26.492188 2.851562 26.460938 2.835938 26.363281 2.9375 M 25.65625 3.050781 C 25.558594 3.167969 25.484375 3.621094 25.550781 3.6875 C 25.65625 3.792969 25.753906 3.746094 25.832031 3.5625 C 25.96875 3.234375 25.828125 2.832031 25.65625 3.050781 M 36.132812 3.507812 C 35.867188 3.800781 35.847656 3.8125 35.753906 3.726562 C 35.398438 3.40625 34.867188 3.703125 34.867188 4.222656 C 34.867188 4.382812 34.789062 4.417969 34.582031 4.34375 C 34.300781 4.242188 33.863281 4.414062 33.652344 4.707031 C 33.425781 5.027344 33.390625 5.367188 33.5625 5.609375 C 33.683594 5.777344 33.691406 5.839844 33.683594 6.417969 C 33.675781 6.929688 33.648438 7.132812 33.53125 7.503906 C 33.363281 8.03125 33.378906 8.167969 33.625 8.425781 C 33.960938 8.773438 34.238281 8.566406 34.097656 8.070312 C 34.054688 7.90625 34.042969 7.609375 34.070312 7.113281 C 34.089844 6.71875 34.109375 6.257812 34.117188 6.09375 L 34.128906 5.796875 L 34.445312 5.71875 C 34.617188 5.679688 34.792969 5.65625 34.832031 5.671875 C 34.875 5.6875 34.917969 5.832031 34.941406 6.035156 C 34.992188 6.546875 35.199219 6.855469 35.480469 6.855469 C 35.65625 6.855469 35.984375 6.570312 36.121094 6.296875 C 36.175781 6.191406 36.222656 6.15625 36.285156 6.179688 C 36.496094 6.273438 36.667969 6.265625 36.828125 6.152344 C 36.914062 6.089844 37.003906 6.058594 37.019531 6.085938 C 37.050781 6.132812 37.066406 6.375 37.128906 7.527344 C 37.15625 8.042969 37.25 8.222656 37.496094 8.222656 C 37.726562 8.222656 38.042969 7.890625 38.191406 7.492188 C 38.570312 6.476562 38.53125 4.351562 38.125 3.917969 C 37.902344 3.675781 37.75 3.628906 37.402344 3.699219 C 37.089844 3.761719 37.089844 3.761719 36.964844 3.605469 C 36.71875 3.289062 36.617188 3.199219 36.515625 3.199219 C 36.460938 3.199219 36.289062 3.339844 36.132812 3.507812 M 25.96875 4.113281 C 25.96875 4.21875 26.589844 4.796875 26.808594 4.898438 C 26.929688 4.953125 26.96875 4.949219 27.0625 4.863281 C 27.121094 4.808594 27.171875 4.738281 27.171875 4.703125 C 27.171875 4.628906 26.941406 4.398438 26.875 4.398438 C 26.847656 4.398438 26.6875 4.3125 26.515625 4.207031 C 26.167969 3.996094 25.96875 3.960938 25.96875 4.113281 M 28.285156 4.199219 C 28.058594 4.285156 27.53125 4.609375 27.300781 4.800781 C 27.109375 4.960938 27.0625 5.144531 27.179688 5.261719 C 27.269531 5.351562 27.496094 5.34375 27.53125 5.253906 C 27.578125 5.128906 28.410156 4.5625 28.546875 4.5625 C 29.007812 4.5625 28.816406 5.167969 28.226562 5.574219 C 28.050781 5.695312 27.898438 5.835938 27.890625 5.890625 C 27.84375 6.121094 28.25 6.050781 28.683594 5.753906 C 28.960938 5.566406 29.132812 5.253906 29.171875 4.871094 C 29.195312 4.636719 29.179688 4.566406 29.078125 4.433594 C 28.957031 4.28125 28.664062 4.121094 28.523438 4.132812 C 28.484375 4.132812 28.375 4.164062 28.285156 4.199219 M 36.105469 4.589844 C 35.957031 4.78125 35.734375 4.847656 35.660156 4.726562 C 35.613281 4.652344 35.375 4.660156 35.328125 4.738281 C 35.304688 4.769531 35.269531 4.875 35.253906 4.96875 C 35.222656 5.101562 35.238281 5.148438 35.328125 5.191406 C 35.449219 5.253906 35.554688 5.4375 35.609375 5.683594 L 35.644531 5.847656 L 35.757812 5.613281 C 35.882812 5.363281 36.007812 5.320312 36.203125 5.464844 C 36.359375 5.585938 36.496094 5.5625 36.722656 5.382812 C 36.835938 5.292969 36.980469 5.21875 37.042969 5.21875 C 37.171875 5.21875 37.492188 5.585938 37.613281 5.875 L 37.695312 6.066406 L 37.664062 5.820312 C 37.613281 5.371094 37.445312 4.671875 37.355469 4.535156 C 37.25 4.375 37.074219 4.359375 36.847656 4.492188 C 36.699219 4.574219 36.675781 4.574219 36.507812 4.492188 C 36.40625 4.441406 36.308594 4.398438 36.292969 4.398438 C 36.273438 4.398438 36.191406 4.484375 36.105469 4.589844 M 24.792969 4.53125 C 24.660156 4.628906 24.679688 4.871094 24.839844 5.207031 C 24.929688 5.390625 24.953125 5.5 24.917969 5.539062 C 24.84375 5.613281 24.914062 5.875 25.007812 5.875 C 25.171875 5.875 25.21875 5.71875 25.195312 5.234375 C 25.164062 4.617188 25.019531 4.367188 24.792969 4.53125 M 29.5 5.335938 C 29.425781 5.378906 29.410156 5.429688 29.433594 5.539062 C 29.480469 5.726562 29.609375 5.886719 30.253906 6.582031 C 30.667969 7.03125 30.832031 7.253906 30.992188 7.59375 C 31.234375 8.105469 31.289062 8.164062 31.757812 8.375 C 31.953125 8.464844 32.183594 8.613281 32.269531 8.707031 C 32.382812 8.824219 32.480469 8.875 32.601562 8.875 C 32.695312 8.875 32.914062 8.925781 33.09375 8.988281 C 33.664062 9.191406 33.867188 8.945312 33.421875 8.582031 C 33.257812 8.445312 33.160156 8.3125 33.121094 8.171875 C 33.058594 7.941406 32.96875 7.878906 32.492188 7.738281 C 32.136719 7.632812 32.175781 7.679688 31.570312 6.710938 C 31.203125 6.128906 30.558594 5.492188 30.199219 5.367188 C 29.890625 5.261719 29.648438 5.25 29.5 5.335938 M 26.019531 5.445312 C 25.929688 5.609375 25.984375 6.101562 26.183594 6.992188 C 26.515625 8.453125 26.539062 8.652344 26.441406 9.214844 C 26.339844 9.816406 26.15625 10.210938 25.511719 11.1875 C 24.746094 12.34375 24.675781 12.535156 25.015625 12.535156 C 25.117188 12.535156 25.203125 12.511719 25.203125 12.484375 C 25.203125 12.457031 25.359375 12.203125 25.546875 11.921875 C 26.238281 10.90625 26.605469 10.1875 26.734375 9.609375 C 26.949219 8.652344 26.738281 6.339844 26.378906 5.65625 C 26.335938 5.582031 26.292969 5.476562 26.277344 5.421875 C 26.234375 5.292969 26.09375 5.304688 26.019531 5.445312 M 27.480469 5.964844 C 27.460938 5.984375 27.441406 6.03125 27.441406 6.070312 C 27.441406 6.164062 27.988281 6.957031 28.394531 7.453125 C 28.695312 7.820312 28.847656 7.992188 29.464844 8.6875 C 29.652344 8.902344 30.230469 9.453125 30.855469 10.019531 C 31.234375 10.359375 31.625 10.621094 32.039062 10.804688 C 32.199219 10.875 32.40625 11 32.503906 11.082031 L 32.679688 11.230469 L 32.441406 11.605469 C 31.828125 12.558594 31.558594 13.324219 31.125 15.34375 C 30.9375 16.222656 30.789062 16.890625 30.660156 17.421875 C 30.601562 17.660156 30.492188 18.277344 30.421875 18.792969 C 30.269531 19.871094 30.296875 20.335938 30.527344 20.8125 C 30.6875 21.140625 30.867188 21.273438 31.183594 21.308594 C 31.496094 21.34375 31.78125 21.1875 32.160156 20.769531 C 32.472656 20.421875 32.558594 20.25 32.496094 20.089844 C 32.457031 19.984375 32.183594 20.011719 31.910156 20.148438 C 31.816406 20.195312 31.667969 20.230469 31.582031 20.230469 C 31.429688 20.230469 31.429688 20.230469 31.429688 19.890625 C 31.429688 19.703125 31.5 19.035156 31.585938 18.402344 C 31.675781 17.773438 31.761719 17.046875 31.777344 16.792969 C 31.84375 15.878906 31.871094 15.613281 31.933594 15.34375 C 31.96875 15.195312 32 15.058594 32.003906 15.046875 C 32.007812 15.03125 32.054688 14.871094 32.109375 14.695312 C 32.183594 14.441406 32.214844 14.390625 32.257812 14.464844 C 32.363281 14.652344 32.496094 14.550781 32.886719 13.964844 C 33.574219 12.945312 34.308594 11.269531 34.15625 11.082031 C 33.996094 10.890625 33.898438 10.992188 33.476562 11.792969 C 32.785156 13.101562 32.773438 12.976562 33.453125 11.5625 C 33.828125 10.785156 33.859375 10.671875 33.777344 10.519531 C 33.691406 10.355469 33.339844 10.363281 33.140625 10.535156 L 32.988281 10.664062 L 32.769531 10.488281 C 32.648438 10.386719 32.351562 10.199219 32.109375 10.066406 C 31.363281 9.652344 31.195312 9.527344 30.71875 9.023438 C 29.96875 8.230469 27.824219 6.128906 27.664062 6.023438 C 27.582031 5.972656 27.5 5.945312 27.480469 5.964844 M 24.933594 6.195312 C 24.890625 6.277344 24.902344 6.328125 24.980469 6.421875 C 25.09375 6.566406 25.203125 6.527344 25.203125 6.347656 C 25.203125 6.226562 25.113281 6.09375 25.03125 6.09375 C 25.007812 6.09375 24.964844 6.140625 24.933594 6.195312 M 22.160156 6.335938 C 21.710938 6.550781 21.460938 6.757812 21.207031 7.136719 C 21.097656 7.300781 20.988281 7.402344 20.917969 7.402344 C 20.761719 7.40625 20.714844 7.449219 20.519531 7.796875 C 20.304688 8.1875 20.296875 8.398438 20.492188 8.578125 C 20.570312 8.652344 20.660156 8.710938 20.6875 8.710938 C 20.722656 8.710938 20.730469 8.8125 20.710938 8.960938 C 20.667969 9.265625 20.753906 9.492188 21.027344 9.796875 C 21.289062 10.085938 21.464844 10.136719 22.132812 10.109375 C 22.75 10.085938 22.851562 10.042969 23.074219 9.710938 C 23.152344 9.601562 23.277344 9.496094 23.355469 9.472656 C 23.433594 9.453125 23.59375 9.371094 23.710938 9.292969 C 23.824219 9.214844 23.9375 9.148438 23.953125 9.148438 C 23.972656 9.148438 24.019531 9.257812 24.058594 9.394531 C 24.144531 9.699219 24.09375 10.058594 23.910156 10.472656 C 23.796875 10.730469 23.785156 10.800781 23.839844 10.867188 C 23.945312 10.996094 24.039062 10.96875 24.183594 10.773438 C 24.488281 10.367188 24.664062 9.363281 24.488281 9.066406 C 24.414062 8.949219 24.382812 8.667969 24.4375 8.632812 C 24.46875 8.613281 24.519531 8.496094 24.554688 8.371094 C 24.589844 8.242188 24.699219 8.023438 24.804688 7.882812 C 25.003906 7.609375 25.015625 7.402344 24.832031 7.402344 C 24.703125 7.40625 23.761719 7.753906 23.59375 7.859375 C 23.4375 7.964844 23.425781 8.019531 23.542969 8.136719 C 23.597656 8.191406 23.675781 8.210938 23.761719 8.1875 L 23.894531 8.15625 L 23.777344 8.421875 C 23.640625 8.734375 23.539062 8.828125 23.164062 8.957031 C 22.988281 9.019531 22.785156 9.152344 22.609375 9.320312 C 22.390625 9.53125 22.296875 9.585938 22.152344 9.585938 C 21.949219 9.585938 21.285156 9.246094 21.238281 9.117188 C 21.222656 9.074219 21.25 8.878906 21.304688 8.6875 C 21.371094 8.433594 21.390625 8.238281 21.363281 8.003906 L 21.332031 7.675781 L 21.519531 7.550781 C 21.625 7.484375 21.746094 7.34375 21.789062 7.230469 C 21.851562 7.074219 21.917969 7.015625 22.078125 6.964844 C 22.304688 6.890625 22.703125 6.613281 22.800781 6.457031 C 22.890625 6.316406 22.820312 6.148438 22.675781 6.148438 C 22.609375 6.148438 22.378906 6.230469 22.160156 6.335938 M 23.402344 6.589844 C 23.269531 6.648438 23.101562 6.75 23.035156 6.816406 C 22.933594 6.910156 22.910156 6.914062 22.910156 6.84375 C 22.910156 6.714844 22.710938 6.667969 22.566406 6.761719 C 22.335938 6.914062 22.09375 7.207031 22.09375 7.332031 C 22.09375 7.535156 22.285156 7.484375 22.597656 7.199219 C 22.828125 6.988281 22.863281 6.96875 22.777344 7.101562 C 22.71875 7.191406 22.601562 7.414062 22.511719 7.59375 C 22.402344 7.820312 22.21875 8.050781 21.917969 8.339844 C 21.480469 8.761719 21.433594 8.875 21.691406 8.875 C 21.960938 8.875 22.65625 8.257812 22.886719 7.8125 C 23.226562 7.160156 23.273438 7.101562 23.511719 6.984375 C 23.8125 6.839844 24.339844 6.773438 24.5 6.859375 C 24.59375 6.910156 24.632812 6.90625 24.707031 6.832031 C 24.789062 6.75 24.785156 6.734375 24.660156 6.640625 C 24.398438 6.441406 23.785156 6.414062 23.402344 6.589844 M 36.105469 6.621094 C 36.035156 6.6875 36.070312 6.792969 36.207031 6.957031 C 36.285156 7.050781 36.339844 7.1875 36.339844 7.289062 C 36.339844 7.414062 36.367188 7.457031 36.441406 7.457031 C 36.59375 7.457031 36.667969 7.34375 36.667969 7.109375 C 36.667969 6.945312 36.632812 6.851562 36.523438 6.738281 C 36.386719 6.59375 36.1875 6.539062 36.105469 6.621094 M 25.214844 7.25 C 25.121094 7.347656 25.136719 7.445312 25.257812 7.511719 C 25.347656 7.558594 25.367188 7.625 25.367188 7.871094 C 25.367188 8.191406 25.457031 8.296875 25.636719 8.183594 C 25.734375 8.121094 25.757812 7.699219 25.675781 7.441406 C 25.609375 7.230469 25.34375 7.121094 25.214844 7.25 M 34.214844 8.492188 C 34.144531 8.535156 34.144531 8.574219 34.199219 8.714844 C 34.25 8.859375 34.25 8.902344 34.183594 8.96875 C 34.078125 9.074219 34.078125 9.363281 34.183594 9.402344 C 34.234375 9.421875 34.265625 9.503906 34.265625 9.613281 C 34.265625 9.746094 34.316406 9.84375 34.433594 9.964844 C 34.617188 10.148438 34.757812 10.167969 35.113281 10.070312 C 35.398438 9.996094 35.523438 9.878906 35.523438 9.691406 C 35.523438 9.5625 35.484375 9.527344 35.214844 9.417969 C 34.964844 9.316406 34.894531 9.257812 34.828125 9.097656 C 34.746094 8.898438 34.398438 8.4375 34.332031 8.441406 C 34.3125 8.441406 34.257812 8.464844 34.214844 8.492188 M 25.148438 8.90625 C 25.113281 9 25.121094 9.136719 25.179688 9.351562 C 25.226562 9.535156 25.246094 9.789062 25.230469 9.992188 C 25.152344 10.996094 25.085938 11.15625 24.695312 11.304688 C 24.460938 11.394531 24.378906 11.5 24.425781 11.648438 C 24.4375 11.683594 24.484375 11.714844 24.527344 11.714844 C 24.679688 11.714844 25.148438 11.378906 25.269531 11.179688 C 25.417969 10.941406 25.613281 10.402344 25.667969 10.089844 C 25.703125 9.867188 25.574219 9.0625 25.46875 8.863281 C 25.394531 8.71875 25.210938 8.746094 25.148438 8.90625 M 37.222656 9.003906 C 37.15625 9.078125 36.960938 9.230469 36.789062 9.34375 C 36.308594 9.667969 35.527344 10.296875 35.46875 10.40625 C 35.4375 10.460938 35.429688 10.703125 35.449219 10.957031 C 35.488281 11.46875 35.59375 11.660156 35.847656 11.660156 C 36.007812 11.660156 36.101562 11.609375 36.554688 11.292969 L 36.882812 11.0625 L 36.578125 11.566406 C 36.207031 12.175781 36.089844 12.433594 35.710938 13.46875 C 35.382812 14.378906 35.289062 14.691406 35.140625 15.425781 C 35.007812 16.054688 35.003906 16.183594 35.117188 16.226562 C 35.214844 16.265625 35.414062 16.101562 35.414062 15.984375 C 35.414062 15.875 35.945312 14.496094 36.523438 13.105469 C 36.65625 12.792969 36.667969 12.78125 36.84375 12.792969 C 37.042969 12.808594 37.207031 12.683594 37.542969 12.257812 C 38.28125 11.328125 38.65625 10.484375 38.449219 10.214844 C 38.386719 10.128906 38.347656 10.117188 38.273438 10.164062 C 38.160156 10.230469 38.1875 10.1875 37.761719 11.058594 C 37.460938 11.675781 36.863281 12.582031 36.796875 12.515625 C 36.78125 12.503906 36.820312 12.394531 36.878906 12.28125 C 37.046875 11.949219 37.15625 11.515625 37.125 11.316406 C 37.101562 11.167969 37.113281 11.125 37.195312 11.101562 C 37.253906 11.085938 37.515625 10.710938 37.808594 10.21875 C 38.289062 9.417969 38.316406 9.355469 38.234375 9.269531 C 38.164062 9.199219 38.117188 9.191406 38.046875 9.238281 C 37.921875 9.3125 37.421875 9.972656 37.21875 10.332031 C 37.09375 10.546875 37.015625 10.621094 36.890625 10.648438 C 36.726562 10.6875 36.269531 10.910156 36.136719 11.019531 C 36.050781 11.089844 36.023438 11.066406 35.960938 10.851562 C 35.890625 10.59375 36.121094 10.316406 36.792969 9.867188 C 37.347656 9.492188 37.761719 9.140625 37.761719 9.035156 C 37.761719 8.980469 37.53125 8.875 37.414062 8.875 C 37.375 8.875 37.289062 8.933594 37.222656 9.003906 M 31.828125 9.453125 C 31.808594 9.503906 31.894531 9.644531 32.0625 9.828125 C 32.335938 10.128906 32.476562 10.21875 32.574219 10.160156 C 32.695312 10.085938 32.617188 9.894531 32.359375 9.636719 C 32.085938 9.367188 31.890625 9.296875 31.828125 9.453125 M 20.378906 9.738281 C 20.304688 9.847656 20.226562 10.03125 20.207031 10.144531 C 20.175781 10.324219 20.191406 10.367188 20.335938 10.511719 C 20.523438 10.703125 20.699219 10.722656 20.980469 10.589844 C 21.136719 10.515625 21.167969 10.472656 21.15625 10.355469 C 21.140625 10.230469 21.109375 10.210938 20.910156 10.199219 C 20.640625 10.179688 20.558594 10.042969 20.699219 9.847656 C 20.828125 9.660156 20.808594 9.53125 20.648438 9.53125 C 20.550781 9.53125 20.472656 9.589844 20.378906 9.738281 M 38.394531 9.683594 C 38.335938 9.863281 38.539062 10.296875 39.1875 11.398438 C 39.621094 12.132812 39.859375 12.492188 40.125 12.820312 C 40.230469 12.949219 40.351562 13.128906 40.398438 13.21875 C 40.527344 13.472656 40.695312 14.191406 40.792969 14.882812 C 40.882812 15.527344 40.949219 15.710938 41.140625 15.886719 C 41.265625 16 41.335938 16.222656 41.390625 16.695312 L 41.425781 17.011719 L 41.234375 17.011719 C 41.011719 17.011719 40.90625 17.148438 40.917969 17.425781 C 40.921875 17.523438 40.886719 17.632812 40.839844 17.667969 C 40.691406 17.792969 40.644531 17.929688 40.714844 18.054688 C 40.8125 18.238281 41.042969 18.421875 41.269531 18.492188 C 41.445312 18.546875 41.488281 18.542969 41.582031 18.457031 C 41.722656 18.332031 41.800781 18.039062 41.792969 17.683594 C 41.789062 17.476562 41.816406 17.367188 41.910156 17.238281 C 42.027344 17.082031 42.035156 17.035156 42.003906 16.507812 C 41.984375 16.199219 41.894531 15.566406 41.808594 15.101562 C 41.71875 14.632812 41.628906 14.148438 41.609375 14.019531 C 41.554688 13.640625 41.164062 12.09375 41.039062 11.761719 C 40.957031 11.539062 40.835938 11.375 40.601562 11.148438 C 40.425781 10.980469 40.257812 10.84375 40.226562 10.84375 C 40.125 10.84375 39.261719 10.175781 39.015625 9.910156 C 38.734375 9.601562 38.453125 9.496094 38.394531 9.683594 M 22.964844 9.976562 C 22.914062 10.066406 22.917969 10.109375 22.988281 10.175781 C 23.070312 10.257812 23.082031 10.257812 23.164062 10.175781 C 23.234375 10.109375 23.238281 10.066406 23.1875 9.976562 C 23.15625 9.910156 23.105469 9.859375 23.074219 9.859375 C 23.046875 9.859375 22.996094 9.910156 22.964844 9.976562 M 21.5625 10.253906 C 21.539062 10.292969 21.519531 10.417969 21.515625 10.53125 C 21.515625 10.691406 21.472656 10.773438 21.339844 10.894531 C 21.242188 10.984375 21.164062 11.09375 21.164062 11.136719 C 21.164062 11.207031 21.125 11.203125 20.917969 11.101562 C 20.710938 11.003906 20.660156 10.996094 20.621094 11.058594 C 20.550781 11.167969 20.601562 11.253906 20.835938 11.414062 C 21.109375 11.601562 21.320312 11.585938 21.4375 11.363281 C 21.480469 11.273438 21.546875 11.171875 21.582031 11.144531 C 21.820312 10.921875 21.90625 10.445312 21.734375 10.273438 C 21.632812 10.167969 21.621094 10.167969 21.5625 10.253906 M 21.957031 10.28125 C 21.898438 10.429688 21.824219 11.0625 21.859375 11.148438 C 21.875 11.191406 21.945312 11.222656 22.015625 11.222656 C 22.167969 11.222656 22.21875 11.039062 22.191406 10.542969 C 22.179688 10.292969 22.152344 10.210938 22.085938 10.199219 C 22.039062 10.1875 21.980469 10.226562 21.957031 10.28125 M 22.933594 10.597656 C 22.914062 10.644531 22.921875 10.710938 22.957031 10.742188 C 23.039062 10.828125 23.195312 10.75 23.175781 10.636719 C 23.152344 10.511719 22.976562 10.480469 22.933594 10.597656 M 34.882812 10.554688 C 34.808594 10.578125 34.789062 10.773438 34.847656 10.917969 C 34.886719 11.027344 35.078125 11.03125 35.121094 10.921875 C 35.195312 10.726562 35.046875 10.496094 34.882812 10.554688 M 20.15625 10.828125 C 19.9375 10.988281 19.867188 11.636719 20.035156 11.898438 C 20.15625 12.085938 20.363281 12.136719 20.539062 12.019531 C 20.703125 11.910156 20.710938 11.808594 20.558594 11.597656 C 20.492188 11.507812 20.414062 11.296875 20.378906 11.128906 C 20.320312 10.828125 20.261719 10.75 20.15625 10.828125 M 22.894531 11.097656 C 22.816406 11.175781 22.859375 11.332031 22.960938 11.332031 C 23.066406 11.332031 23.152344 11.195312 23.101562 11.109375 C 23.0625 11.050781 22.945312 11.042969 22.894531 11.097656 M 21.671875 11.320312 C 21.632812 11.332031 21.601562 11.390625 21.601562 11.449219 C 21.601562 11.511719 21.546875 11.574219 21.464844 11.605469 C 21.324219 11.660156 21.269531 11.875 21.398438 11.886719 C 21.722656 11.914062 21.902344 11.746094 21.882812 11.433594 C 21.875 11.335938 21.777344 11.28125 21.671875 11.320312 M 23.726562 11.882812 C 23.648438 12.035156 23.644531 12.480469 23.722656 12.628906 C 23.757812 12.691406 23.78125 12.824219 23.777344 12.929688 C 23.765625 13.160156 23.8125 13.242188 23.949219 13.242188 C 24.121094 13.242188 24.183594 13.046875 24.148438 12.621094 C 24.089844 11.9375 23.890625 11.582031 23.726562 11.882812 M 34.480469 11.890625 C 34.371094 12.089844 33.910156 13.765625 33.757812 14.5 C 33.496094 15.753906 33.28125 17.210938 33.261719 17.867188 C 33.234375 18.621094 33.355469 19.851562 33.492188 20.214844 C 33.617188 20.550781 33.734375 20.625 33.894531 20.464844 C 34.007812 20.351562 34.015625 20.304688 33.996094 19.78125 C 33.941406 18.410156 33.976562 16.75 34.070312 15.972656 C 34.214844 14.773438 34.421875 13.527344 34.664062 12.40625 C 34.761719 11.949219 34.765625 11.863281 34.699219 11.820312 C 34.582031 11.746094 34.550781 11.757812 34.480469 11.890625 M 20.171875 12.5625 C 19.507812 13.261719 19.039062 14.058594 18.738281 14.992188 C 18.488281 15.753906 18.316406 15.984375 17.492188 16.621094 C 17.125 16.90625 16.390625 17.648438 16.132812 17.992188 C 16.035156 18.128906 15.78125 18.496094 15.574219 18.8125 C 15.125 19.492188 14.589844 20.035156 13.953125 20.460938 C 13.277344 20.90625 13.046875 21.203125 13.09375 21.550781 C 13.117188 21.71875 13.449219 21.832031 13.855469 21.800781 L 14.160156 21.78125 L 13.75 21.988281 C 13.207031 22.257812 12.933594 22.539062 12.652344 23.105469 C 12.414062 23.582031 12.1875 23.84375 10.960938 25.089844 C 9.722656 26.34375 9.253906 26.992188 9.070312 27.707031 C 8.941406 28.207031 8.796875 28.601562 8.574219 29.054688 C 8.367188 29.476562 8.351562 29.695312 8.527344 29.714844 C 8.726562 29.738281 9.039062 29.355469 9.226562 28.855469 C 9.378906 28.445312 9.9375 27.488281 10.277344 27.050781 C 11.472656 25.515625 11.992188 24.9375 13.113281 23.878906 C 13.296875 23.707031 13.539062 23.433594 13.660156 23.269531 C 13.78125 23.105469 13.996094 22.890625 14.140625 22.789062 C 14.402344 22.613281 14.644531 22.367188 14.808594 22.121094 C 14.976562 21.859375 14.714844 21.59375 14.40625 21.710938 C 14.269531 21.765625 14.269531 21.761719 14.359375 21.664062 C 14.488281 21.515625 14.472656 21.347656 14.3125 21.222656 L 14.175781 21.117188 L 14.714844 20.734375 C 15.367188 20.265625 15.699219 19.910156 16.257812 19.078125 C 16.707031 18.402344 17.128906 17.863281 17.3125 17.710938 C 17.375 17.664062 17.488281 17.570312 17.5625 17.503906 C 17.636719 17.4375 18.011719 17.171875 18.398438 16.917969 C 19.28125 16.328125 19.261719 16.359375 19.808594 14.828125 C 19.976562 14.359375 20.082031 14.125 20.492188 13.324219 C 20.742188 12.839844 20.816406 12.535156 20.730469 12.371094 C 20.632812 12.191406 20.472656 12.246094 20.171875 12.5625 M 38.851562 12.730469 C 38.4375 13.285156 38.441406 13.265625 38.453125 14.453125 C 38.464844 15.359375 38.636719 17.71875 38.71875 18.074219 C 38.734375 18.136719 38.789062 18.578125 38.847656 19.0625 C 38.964844 20.0625 38.941406 20.308594 38.6875 21.058594 C 38.4375 21.789062 38.480469 22.117188 38.8125 21.980469 C 39.074219 21.871094 39.304688 21.589844 39.402344 21.261719 C 39.644531 20.449219 39.738281 19.210938 39.625 18.265625 C 39.59375 18.011719 39.539062 17.554688 39.507812 17.257812 C 39.472656 16.957031 39.386719 16.390625 39.308594 16 C 39.0625 14.726562 39.050781 13.335938 39.285156 12.734375 C 39.355469 12.546875 39.324219 12.480469 39.160156 12.480469 C 39.078125 12.480469 38.976562 12.5625 38.851562 12.730469 M 24.25 13.796875 C 23.988281 13.898438 23.066406 14.527344 22.6875 14.867188 C 21.722656 15.738281 21.226562 16.339844 21.074219 16.824219 L 20.980469 17.125 L 20.851562 16.984375 C 20.699219 16.820312 20.664062 16.816406 20.546875 16.945312 C 20.476562 17.023438 20.46875 17.097656 20.503906 17.324219 C 20.554688 17.652344 20.65625 17.820312 20.921875 18.03125 C 21.03125 18.117188 21.152344 18.269531 21.195312 18.371094 C 21.320312 18.660156 21.644531 19.960938 21.6875 20.328125 C 21.734375 20.742188 21.769531 20.800781 21.953125 20.757812 C 22.128906 20.710938 22.203125 20.535156 22.136719 20.3125 C 22.089844 20.148438 22.03125 19.78125 21.921875 18.894531 C 21.847656 18.3125 21.734375 18.027344 21.464844 17.726562 L 21.261719 17.503906 L 21.882812 16.839844 C 22.96875 15.675781 23.953125 14.855469 24.441406 14.710938 C 24.636719 14.652344 24.667969 14.660156 24.910156 14.820312 C 25.203125 15.011719 25.445312 15.074219 25.746094 15.023438 C 26.097656 14.96875 26.109375 15.007812 26.09375 16.300781 C 26.078125 17.355469 26.085938 17.4375 26.183594 17.523438 C 26.28125 17.617188 26.292969 17.613281 26.398438 17.507812 C 26.542969 17.363281 26.601562 17.128906 26.703125 16.300781 C 26.808594 15.449219 26.808594 15.324219 26.699219 14.949219 C 26.597656 14.59375 26.445312 14.421875 26.164062 14.34375 C 26.054688 14.3125 25.867188 14.203125 25.75 14.097656 C 25.636719 13.992188 25.445312 13.878906 25.332031 13.847656 C 25.003906 13.757812 24.429688 13.730469 24.25 13.796875 M 21.453125 14.386719 C 21.269531 14.582031 20.40625 16.183594 20.402344 16.335938 C 20.402344 16.371094 20.433594 16.421875 20.472656 16.457031 C 20.632812 16.589844 21.273438 16.007812 21.695312 15.34375 C 21.882812 15.046875 21.972656 14.84375 22.042969 14.558594 C 22.144531 14.125 21.796875 14.023438 21.453125 14.386719 M 19.660156 16.917969 C 19.210938 17.175781 18.566406 17.945312 18.140625 18.71875 C 17.839844 19.265625 17.605469 19.464844 16.785156 19.871094 C 15.964844 20.277344 15.542969 20.597656 15.542969 20.816406 C 15.542969 20.945312 15.554688 20.953125 15.75 20.929688 C 15.863281 20.914062 16.0625 20.847656 16.195312 20.785156 C 16.328125 20.71875 16.457031 20.667969 16.480469 20.667969 C 16.503906 20.667969 16.683594 20.59375 16.878906 20.503906 C 17.078125 20.414062 17.25 20.339844 17.261719 20.339844 C 17.359375 20.339844 18.132812 19.933594 18.359375 19.761719 C 18.90625 19.34375 19.136719 19.003906 19.738281 17.714844 C 20.011719 17.125 20.058594 16.960938 19.957031 16.898438 C 19.859375 16.832031 19.796875 16.835938 19.660156 16.917969 M 24.425781 16.988281 C 24.101562 17.09375 24.003906 17.148438 24.003906 17.222656 C 24.003906 17.363281 24.316406 17.425781 24.441406 17.3125 C 24.488281 17.265625 24.628906 17.230469 24.75 17.230469 C 24.992188 17.230469 25.320312 17.132812 25.378906 17.046875 C 25.53125 16.816406 25.058594 16.785156 24.425781 16.988281 M 23.863281 18.109375 C 23.816406 18.183594 23.894531 19.507812 23.953125 19.671875 C 24.015625 19.835938 24.15625 19.828125 24.222656 19.660156 C 24.277344 19.515625 24.191406 18.398438 24.105469 18.171875 C 24.058594 18.042969 23.925781 18.007812 23.863281 18.109375 M 26.273438 18.140625 C 26.238281 18.234375 26.273438 19.484375 26.328125 19.980469 C 26.390625 20.554688 26.617188 20.785156 26.820312 20.476562 C 26.984375 20.226562 26.933594 19.558594 26.6875 18.757812 C 26.628906 18.5625 26.5625 18.324219 26.542969 18.226562 C 26.503906 18.03125 26.335938 17.976562 26.273438 18.140625 M 34.359375 18.253906 C 34.324219 18.527344 34.367188 19.816406 34.433594 20.394531 C 34.460938 20.652344 34.511719 21.085938 34.539062 21.363281 C 34.625 22.15625 34.953125 23.550781 35.089844 23.695312 C 35.117188 23.722656 35.140625 23.785156 35.140625 23.832031 C 35.140625 23.921875 35.566406 24.59375 35.757812 24.804688 C 35.820312 24.871094 35.925781 24.925781 35.996094 24.925781 C 36.199219 24.925781 36.15625 24.6875 35.847656 24.054688 C 35.4375 23.214844 35.25 22.375 35.117188 20.785156 C 35.101562 20.628906 35.078125 20.394531 35.0625 20.269531 C 35.046875 20.144531 35.019531 19.882812 35.003906 19.6875 C 34.960938 19.203125 34.816406 18.441406 34.730469 18.226562 C 34.675781 18.09375 34.621094 18.046875 34.523438 18.046875 C 34.410156 18.046875 34.382812 18.078125 34.359375 18.253906 M 23.238281 18.183594 C 23.121094 18.328125 23.246094 19.792969 23.390625 19.9375 C 23.464844 20.011719 23.484375 20.011719 23.558594 19.9375 C 23.632812 19.863281 23.632812 19.777344 23.570312 19.183594 C 23.527344 18.8125 23.492188 18.449219 23.484375 18.371094 C 23.46875 18.113281 23.363281 18.035156 23.238281 18.183594 M 41.265625 18.828125 C 41.230469 18.871094 41.179688 19.128906 41.148438 19.402344 C 41.09375 19.953125 41.015625 20.164062 40.605469 20.855469 C 40.246094 21.460938 40.082031 21.871094 40 22.355469 C 39.964844 22.570312 39.894531 22.796875 39.839844 22.859375 L 39.746094 22.976562 L 39.382812 22.851562 C 39.023438 22.730469 38.898438 22.644531 38.644531 22.339844 C 38.527344 22.199219 38.507812 22.195312 38.398438 22.265625 C 38.332031 22.308594 38.273438 22.398438 38.261719 22.460938 C 38.21875 22.753906 38.867188 23.480469 39.304688 23.628906 C 39.609375 23.734375 40.132812 23.699219 40.355469 23.5625 C 40.570312 23.429688 40.65625 23.246094 40.65625 22.914062 C 40.65625 22.71875 40.714844 22.53125 40.890625 22.164062 C 41.390625 21.140625 41.554688 20.445312 41.554688 19.386719 C 41.554688 18.816406 41.550781 18.785156 41.441406 18.769531 C 41.378906 18.757812 41.300781 18.785156 41.265625 18.828125 M 35.46875 19.792969 C 35.382812 19.953125 35.570312 21.792969 35.765625 22.699219 C 35.875 23.21875 36.027344 23.820312 36.058594 23.863281 C 36.078125 23.894531 36.175781 23.960938 36.269531 24.011719 C 36.441406 24.109375 36.445312 24.105469 36.550781 23.996094 C 36.769531 23.761719 36.679688 22.613281 36.375 21.734375 C 36.0625 20.824219 35.847656 20.1875 35.785156 19.960938 C 35.707031 19.6875 35.566406 19.613281 35.46875 19.792969 M 20.832031 20.757812 C 20.347656 21.164062 19.640625 21.9375 19.339844 22.390625 C 19.078125 22.785156 18.445312 23.984375 18.148438 24.652344 C 17.089844 27.027344 15.992188 29.132812 15.410156 29.90625 C 15.347656 29.988281 15.222656 30.15625 15.132812 30.277344 C 14.867188 30.640625 14.203125 31.441406 14.078125 31.554688 C 13.953125 31.664062 13.921875 31.828125 14.011719 31.886719 C 14.121094 31.953125 14.539062 31.707031 14.808594 31.417969 C 15.175781 31.023438 15.707031 30.207031 16.226562 29.238281 C 16.457031 28.804688 16.839844 28.117188 17.070312 27.710938 C 17.621094 26.75 17.722656 26.546875 18.351562 25.117188 C 18.640625 24.457031 18.953125 23.757812 19.042969 23.566406 C 19.3125 22.980469 19.773438 22.351562 20.328125 21.808594 C 21.222656 20.941406 21.273438 20.882812 21.273438 20.714844 C 21.273438 20.496094 21.125 20.511719 20.832031 20.757812 M 11.246094 20.90625 C 10.726562 21.144531 10.46875 21.328125 10.082031 21.746094 C 9.429688 22.441406 8.972656 23.71875 8.972656 24.84375 C 8.972656 25.304688 9 25.464844 9.132812 25.855469 C 9.273438 26.265625 9.304688 26.320312 9.425781 26.320312 C 9.585938 26.320312 9.613281 26.234375 9.730469 25.3125 C 9.9375 23.730469 10.210938 23.152344 11.316406 21.980469 C 12.035156 21.21875 12.15625 20.996094 11.941406 20.824219 C 11.773438 20.6875 11.703125 20.695312 11.246094 20.90625 M 25.871094 21.171875 C 25.742188 21.335938 25.691406 21.757812 25.648438 23.042969 C 25.570312 25.398438 25.605469 26.675781 25.773438 27.628906 C 26.109375 29.519531 26.101562 29.441406 26.101562 31.230469 C 26.097656 32.351562 26.066406 33.292969 26.003906 34.015625 C 25.953125 34.617188 25.886719 35.402344 25.859375 35.761719 C 25.796875 36.527344 25.773438 36.726562 25.65625 37.429688 C 25.5625 38.011719 25.59375 38.433594 25.734375 38.488281 C 25.878906 38.542969 26.082031 38.363281 26.21875 38.0625 C 26.542969 37.355469 26.949219 35.222656 27.144531 33.195312 C 27.160156 33.046875 27.179688 32.222656 27.191406 31.367188 C 27.21875 29.476562 27.207031 29.371094 26.703125 27.300781 C 26.386719 26 26.390625 26.050781 26.523438 24.265625 C 26.628906 22.847656 26.515625 21.484375 26.265625 21.210938 C 26.15625 21.089844 25.953125 21.070312 25.871094 21.171875 M 27.046875 21.21875 C 26.886719 21.3125 26.9375 21.425781 27.324219 21.890625 C 27.53125 22.132812 27.855469 22.5625 28.050781 22.847656 C 28.242188 23.128906 28.484375 23.484375 28.589844 23.636719 C 29.101562 24.378906 29.367188 24.867188 29.625 25.515625 C 30.363281 27.394531 30.789062 29.160156 30.992188 31.167969 C 31.019531 31.472656 31.058594 31.808594 31.074219 31.914062 C 31.089844 32.019531 31.125 32.277344 31.15625 32.488281 C 31.207031 32.859375 31.285156 33.363281 31.453125 34.429688 C 31.550781 35.054688 31.691406 35.527344 31.945312 36.085938 C 32.050781 36.3125 32.25 36.777344 32.386719 37.113281 C 32.523438 37.453125 32.710938 37.851562 32.800781 38 C 32.980469 38.300781 33.3125 38.585938 33.445312 38.5625 C 33.636719 38.527344 33.570312 38.214844 33.214844 37.429688 C 32.636719 36.148438 32.085938 34.019531 31.644531 31.367188 C 31.417969 29.976562 31.3125 29.367188 31.238281 28.992188 C 31.195312 28.785156 31.144531 28.488281 31.128906 28.339844 C 30.9375 26.75 30.820312 26.160156 30.570312 25.554688 C 30.417969 25.183594 29.882812 24.253906 29.714844 24.066406 C 29.65625 24 29.554688 23.859375 29.492188 23.757812 C 28.859375 22.707031 28.035156 21.722656 27.460938 21.320312 C 27.210938 21.144531 27.1875 21.136719 27.046875 21.21875 M 33.628906 21.390625 C 33.535156 21.503906 33.234375 23.148438 33.152344 24 C 33.03125 25.199219 32.992188 26.753906 33.0625 27.742188 C 33.140625 28.890625 33.175781 29.175781 33.511719 31.257812 C 33.703125 32.460938 33.78125 32.859375 33.964844 33.5625 C 34.136719 34.226562 34.234375 34.476562 34.492188 34.898438 C 34.605469 35.085938 34.757812 35.359375 34.832031 35.503906 C 35.007812 35.847656 35.109375 35.9375 35.222656 35.84375 C 35.402344 35.695312 35.308594 35.3125 34.859375 34.371094 C 34.542969 33.707031 34.449219 33.273438 34.351562 32.015625 C 34.304688 31.40625 34.242188 30.71875 34.214844 30.496094 C 34.183594 30.269531 34.148438 29.976562 34.136719 29.839844 C 34.121094 29.703125 34.042969 29.140625 33.960938 28.585938 C 33.847656 27.824219 33.8125 27.351562 33.808594 26.671875 C 33.800781 25.496094 33.863281 24.1875 33.96875 23.371094 C 34.050781 22.707031 34.066406 21.730469 34 21.488281 C 33.957031 21.332031 33.722656 21.269531 33.628906 21.390625 M 21.933594 21.777344 C 21.847656 21.964844 21.761719 22.179688 21.738281 22.253906 C 21.632812 22.585938 20.921875 23.917969 20.738281 24.125 C 20.480469 24.410156 20.238281 24.789062 20.238281 24.898438 C 20.238281 25.03125 20.484375 24.996094 20.679688 24.832031 C 21.332031 24.285156 21.707031 23.582031 22.175781 22.019531 C 22.253906 21.757812 22.304688 21.519531 22.285156 21.488281 C 22.203125 21.351562 22.078125 21.453125 21.933594 21.777344 M 22.953125 22.363281 C 22.902344 22.394531 22.859375 22.464844 22.859375 22.515625 C 22.859375 22.980469 22.097656 24.617188 21.300781 25.855469 C 21.234375 25.960938 20.984375 26.371094 20.75 26.769531 C 20.511719 27.167969 20.28125 27.550781 20.238281 27.625 C 20.191406 27.695312 20.074219 27.898438 19.972656 28.074219 C 19.394531 29.070312 18.417969 30.335938 17.453125 31.332031 C 16.789062 32.019531 16.398438 32.339844 15.789062 32.703125 C 15.546875 32.847656 15.28125 33.003906 15.199219 33.050781 C 14.992188 33.175781 15.011719 33.390625 15.242188 33.457031 C 15.5 33.53125 15.859375 33.457031 16.304688 33.242188 C 16.65625 33.070312 16.824219 32.933594 17.464844 32.285156 C 17.878906 31.867188 18.21875 31.503906 18.21875 31.476562 C 18.21875 31.445312 18.296875 31.332031 18.398438 31.21875 C 18.496094 31.105469 18.667969 30.878906 18.78125 30.714844 C 18.898438 30.546875 19.074219 30.300781 19.171875 30.167969 C 19.472656 29.765625 20.152344 28.742188 20.335938 28.414062 C 20.433594 28.242188 20.546875 28.074219 20.59375 28.039062 C 20.636719 28 20.671875 27.945312 20.671875 27.917969 C 20.671875 27.851562 21.082031 27.226562 21.484375 26.675781 C 21.648438 26.453125 21.898438 26.011719 22.039062 25.695312 C 22.183594 25.378906 22.386719 24.941406 22.496094 24.726562 C 22.605469 24.511719 22.695312 24.320312 22.695312 24.300781 C 22.695312 24.285156 22.792969 24.058594 22.910156 23.804688 C 23.273438 23.023438 23.34375 22.746094 23.261719 22.429688 C 23.226562 22.296875 23.109375 22.273438 22.953125 22.363281 M 15.90625 22.8125 C 15.816406 22.878906 15.820312 22.90625 15.980469 23.230469 C 16.28125 23.832031 16.214844 24.308594 15.691406 25.390625 C 15.371094 26.058594 15.128906 26.832031 15.074219 27.382812 C 15.042969 27.679688 15.054688 27.773438 15.144531 27.929688 C 15.203125 28.035156 15.289062 28.128906 15.339844 28.136719 C 15.445312 28.15625 15.503906 27.964844 15.625 27.1875 C 15.722656 26.554688 15.839844 26.222656 16.171875 25.605469 C 16.511719 24.984375 16.582031 24.753906 16.589844 24.21875 C 16.597656 23.699219 16.585938 23.632812 16.347656 23.113281 C 16.175781 22.730469 16.09375 22.675781 15.90625 22.8125 M 37.910156 23.410156 C 37.589844 23.75 36.769531 24.871094 36.636719 25.148438 C 36.488281 25.453125 36.46875 25.753906 36.585938 25.855469 C 36.640625 25.898438 36.746094 25.910156 36.867188 25.890625 C 37.0625 25.859375 37.0625 25.859375 37.03125 26.035156 C 36.933594 26.566406 36.929688 26.6875 37 26.8125 C 37.101562 27.003906 37.285156 26.980469 37.546875 26.746094 L 37.765625 26.546875 L 37.753906 26.832031 C 37.738281 27.191406 37.859375 27.332031 38.179688 27.339844 C 38.714844 27.34375 38.808594 27.253906 39.464844 26.074219 C 39.542969 25.9375 39.695312 25.667969 39.804688 25.472656 C 40.132812 24.902344 40.28125 24.542969 40.261719 24.359375 C 40.246094 24.210938 40.222656 24.191406 40.082031 24.191406 C 39.945312 24.191406 39.875 24.25 39.621094 24.582031 C 39.453125 24.800781 39.15625 25.273438 38.960938 25.636719 C 38.632812 26.246094 38.238281 26.84375 38.328125 26.589844 C 38.617188 25.792969 38.679688 25.339844 38.511719 25.234375 C 38.398438 25.164062 38.261719 25.234375 37.941406 25.53125 C 37.632812 25.816406 37.621094 25.816406 37.644531 25.574219 C 37.667969 25.328125 37.59375 25.214844 37.375 25.160156 L 37.222656 25.117188 L 37.632812 24.570312 C 38.136719 23.90625 38.355469 23.488281 38.273438 23.359375 C 38.175781 23.203125 38.089844 23.214844 37.910156 23.410156 M 24.863281 24.402344 C 24.820312 24.445312 24.765625 24.636719 24.746094 24.828125 C 24.519531 26.867188 24.5 27.539062 24.640625 28.246094 C 24.734375 28.714844 24.816406 28.832031 24.960938 28.6875 C 25.023438 28.625 25.046875 28.199219 25.074219 26.535156 C 25.105469 24.707031 25.101562 24.453125 25.027344 24.390625 C 24.957031 24.335938 24.929688 24.335938 24.863281 24.402344 M 28 25.0625 C 27.933594 25.207031 27.945312 25.296875 28.15625 26.074219 C 28.210938 26.269531 28.269531 26.515625 28.289062 26.617188 C 28.3125 26.722656 28.433594 27.253906 28.5625 27.792969 C 28.691406 28.332031 28.835938 28.996094 28.882812 29.265625 C 28.988281 29.851562 29.378906 32.074219 29.457031 32.542969 C 29.488281 32.722656 29.539062 33.015625 29.570312 33.195312 C 29.632812 33.558594 29.765625 34.457031 29.84375 35.058594 C 29.871094 35.269531 29.960938 35.699219 30.039062 36.011719 C 30.117188 36.324219 30.195312 36.644531 30.207031 36.71875 C 30.222656 36.792969 30.433594 37.253906 30.671875 37.742188 C 31.011719 38.433594 31.132812 38.628906 31.214844 38.628906 C 31.378906 38.628906 31.347656 38.382812 31.074219 37.574219 C 30.816406 36.816406 30.679688 36.082031 30.527344 34.699219 C 30.480469 34.261719 30.382812 33.5 30.308594 33.007812 C 30.238281 32.511719 30.160156 31.871094 30.140625 31.585938 C 30.097656 30.914062 29.921875 29.597656 29.8125 29.074219 C 29.6875 28.492188 29.472656 27.773438 29.058594 26.566406 C 28.621094 25.28125 28.429688 24.925781 28.179688 24.925781 C 28.105469 24.925781 28.039062 24.976562 28 25.0625 M 12.566406 25.703125 C 12.109375 26.027344 11.25 27.046875 10.984375 27.574219 C 10.921875 27.695312 10.859375 27.804688 10.84375 27.820312 C 10.824219 27.835938 10.652344 28.167969 10.457031 28.558594 C 9.972656 29.527344 9.320312 31.324219 9.152344 32.160156 C 9.085938 32.488281 9.074219 33.308594 9.128906 34.015625 C 9.167969 34.527344 9.195312 34.597656 9.335938 34.578125 C 9.4375 34.5625 9.464844 34.484375 9.574219 33.851562 C 9.640625 33.460938 9.71875 33.054688 9.75 32.953125 C 9.78125 32.847656 9.902344 32.382812 10.023438 31.925781 C 10.144531 31.464844 10.308594 30.910156 10.386719 30.695312 C 10.519531 30.320312 11.195312 28.933594 11.636719 28.121094 C 11.886719 27.660156 12.625 26.535156 12.796875 26.347656 C 12.984375 26.144531 13.164062 25.773438 13.125 25.671875 C 13.074219 25.542969 12.765625 25.558594 12.566406 25.703125 M 34.988281 26.355469 C 34.941406 26.402344 34.921875 26.660156 34.921875 27.160156 C 34.921875 28.070312 35.058594 31.15625 35.113281 31.496094 C 35.125 31.5625 35.160156 31.847656 35.195312 32.132812 C 35.285156 32.929688 35.402344 33.589844 35.46875 33.714844 C 35.546875 33.859375 35.664062 33.855469 35.753906 33.703125 C 35.898438 33.449219 35.808594 29.808594 35.632812 28.828125 C 35.5625 28.4375 35.53125 28.210938 35.4375 27.355469 C 35.394531 26.933594 35.328125 26.523438 35.296875 26.441406 C 35.234375 26.285156 35.097656 26.246094 34.988281 26.355469 M 38.902344 28.460938 C 38.71875 28.882812 38.527344 29.503906 38.414062 30.03125 C 38.316406 30.480469 38.3125 30.703125 38.332031 32.570312 C 38.355469 34.828125 38.417969 35.792969 38.59375 36.773438 C 38.660156 37.121094 38.679688 38.726562 38.644531 40.292969 C 38.632812 40.714844 38.644531 41.277344 38.664062 41.546875 C 38.703125 42.007812 38.699219 42.03125 38.601562 41.992188 C 38.488281 41.945312 38.304688 41.921875 37.71875 41.878906 C 37.160156 41.835938 36.957031 41.742188 36.917969 41.511719 C 36.902344 41.414062 36.878906 40.644531 36.871094 39.804688 C 36.851562 38.503906 36.832031 38.183594 36.730469 37.671875 C 36.605469 37.058594 36.539062 36.707031 36.445312 36.15625 C 36.355469 35.628906 36.128906 34.980469 36.015625 34.917969 C 35.929688 34.871094 35.890625 34.886719 35.820312 34.996094 C 35.648438 35.257812 35.800781 36.496094 36.265625 38.628906 C 36.355469 39.042969 36.355469 39.535156 36.253906 41.285156 C 36.234375 41.617188 36.234375 41.953125 36.253906 42.035156 C 36.296875 42.207031 36.492188 42.3125 36.914062 42.390625 C 37.09375 42.421875 37.390625 42.523438 37.570312 42.613281 C 37.871094 42.761719 37.953125 42.777344 38.59375 42.796875 C 39.414062 42.820312 39.464844 42.796875 39.566406 42.386719 C 39.644531 42.046875 39.609375 40.867188 39.484375 39.832031 C 39.382812 38.945312 39.351562 38.503906 39.316406 37.210938 C 39.269531 35.480469 39.191406 34.613281 39.027344 33.878906 C 38.957031 33.5625 38.941406 33.242188 38.949219 32.460938 C 38.957031 31.527344 38.976562 31.371094 39.171875 30.414062 C 39.414062 29.230469 39.445312 28.609375 39.273438 28.351562 C 39.132812 28.136719 39.027344 28.167969 38.902344 28.460938 M 8.039062 31.113281 C 7.855469 31.246094 7.078125 32.753906 6.84375 33.429688 C 6.695312 33.851562 6.507812 34.710938 6.460938 35.164062 C 6.445312 35.316406 6.40625 35.507812 6.375 35.589844 C 6.246094 35.929688 6.371094 37.011719 6.617188 37.699219 C 6.839844 38.320312 7.460938 39.507812 7.65625 39.695312 C 7.6875 39.722656 7.78125 39.839844 7.863281 39.953125 C 8.105469 40.28125 8.460938 40.609375 8.890625 40.898438 C 9.113281 41.042969 9.457031 41.316406 9.65625 41.507812 C 10.070312 41.890625 10.257812 41.949219 10.367188 41.714844 C 10.542969 41.324219 9.921875 40.4375 8.765625 39.414062 C 8.148438 38.871094 7.730469 37.996094 7.492188 36.746094 C 7.394531 36.234375 7.375 34.921875 7.460938 34.480469 C 7.492188 34.316406 7.53125 34.105469 7.546875 34.015625 C 7.625 33.578125 7.796875 32.988281 7.96875 32.570312 C 8.238281 31.914062 8.402344 31.390625 8.382812 31.253906 C 8.359375 31.105469 8.160156 31.023438 8.039062 31.113281 M 27.96875 31.175781 C 27.839844 31.308594 27.628906 32.039062 27.550781 32.625 C 27.476562 33.164062 27.460938 35.113281 27.519531 36.082031 C 27.539062 36.386719 27.566406 36.882812 27.582031 37.183594 C 27.742188 40.152344 27.996094 41.324219 28.863281 43.082031 C 29.132812 43.621094 29.359375 44.125 29.367188 44.199219 C 29.382812 44.359375 29.320312 44.363281 28.835938 44.230469 C 28.660156 44.183594 28.40625 44.144531 28.28125 44.144531 C 27.824219 44.144531 27.160156 44.484375 26.898438 44.851562 C 26.734375 45.082031 26.691406 45.40625 26.8125 45.523438 C 26.957031 45.671875 27.085938 45.636719 27.398438 45.363281 C 27.558594 45.226562 27.773438 45.078125 27.878906 45.03125 C 28.136719 44.921875 28.582031 44.964844 29.011719 45.144531 C 29.199219 45.226562 29.414062 45.289062 29.492188 45.289062 C 29.699219 45.289062 30.148438 45.042969 30.28125 44.851562 C 30.523438 44.515625 30.328125 43.875 29.414062 42.007812 C 28.617188 40.371094 28.390625 39.125 28.464844 36.722656 C 28.542969 34.191406 28.515625 33.253906 28.304688 31.734375 C 28.234375 31.199219 28.125 31.019531 27.96875 31.175781 M 8.070312 33.921875 C 8.042969 33.972656 8.003906 34.152344 7.980469 34.316406 C 7.960938 34.480469 7.898438 34.835938 7.839844 35.109375 C 7.644531 36.0625 7.65625 36.832031 7.867188 36.875 C 8.019531 36.902344 8.0625 36.785156 8.0625 36.335938 C 8.0625 36.109375 8.136719 35.492188 8.226562 34.957031 C 8.316406 34.425781 8.375 33.953125 8.355469 33.90625 C 8.3125 33.796875 8.132812 33.804688 8.070312 33.921875 M 13.515625 35.242188 C 13.289062 35.363281 12.90625 35.703125 12.179688 36.425781 C 11.667969 36.933594 10.898438 37.53125 10.191406 37.972656 C 9.765625 38.242188 9.636719 38.390625 9.785156 38.445312 C 9.90625 38.492188 11.355469 37.945312 11.722656 37.714844 C 12.328125 37.332031 12.683594 37 13.386719 36.160156 C 13.917969 35.523438 14.003906 35.382812 13.921875 35.253906 C 13.84375 35.125 13.742188 35.121094 13.515625 35.242188 M 35.046875 36.566406 C 34.988281 36.640625 34.941406 37.207031 34.894531 38.4375 C 34.859375 39.308594 34.769531 40.71875 34.722656 41.085938 C 34.667969 41.546875 34.683594 42.0625 34.757812 42.152344 C 34.863281 42.277344 35.136719 42.234375 35.257812 42.070312 C 35.351562 41.933594 35.378906 41.84375 35.441406 41.390625 C 35.5 40.957031 35.515625 39.6875 35.464844 39.09375 C 35.4375 38.761719 35.402344 38.285156 35.386719 38.027344 C 35.371094 37.773438 35.34375 37.371094 35.328125 37.132812 C 35.292969 36.578125 35.191406 36.382812 35.046875 36.566406 M 7.847656 37.257812 C 7.683594 37.367188 8.003906 37.996094 8.167969 37.894531 C 8.277344 37.828125 8.230469 37.5625 8.078125 37.382812 C 7.96875 37.257812 7.90625 37.222656 7.847656 37.257812 M 11.503906 41.820312 C 11.421875 41.921875 11.460938 42.109375 11.707031 42.777344 C 12.136719 43.941406 12.347656 44.292969 13.003906 44.941406 C 13.757812 45.6875 14.558594 45.996094 16.632812 46.359375 C 16.917969 46.40625 17.507812 46.53125 17.945312 46.632812 C 18.378906 46.734375 18.90625 46.855469 19.117188 46.90625 C 19.574219 47.007812 19.910156 47.117188 20.671875 47.402344 C 21.457031 47.699219 21.832031 47.769531 22.410156 47.730469 C 23.3125 47.671875 24.386719 47.367188 24.800781 47.050781 C 25.515625 46.503906 25.859375 44.570312 25.542969 42.875 C 25.476562 42.523438 25.398438 42.175781 25.371094 42.097656 C 25.296875 41.90625 25.128906 41.921875 24.976562 42.136719 C 24.851562 42.3125 24.851562 42.316406 24.867188 43.902344 C 24.886719 45.699219 24.882812 45.726562 24.496094 46.101562 C 23.949219 46.632812 23.292969 46.925781 22.65625 46.925781 C 22.089844 46.925781 21.25 46.734375 20.265625 46.378906 C 20.023438 46.292969 19.582031 46.132812 19.28125 46.027344 C 18.441406 45.726562 17.570312 45.527344 16.550781 45.402344 C 14.613281 45.164062 14.578125 45.15625 14.160156 44.867188 C 14.046875 44.789062 13.796875 44.535156 13.605469 44.304688 C 13.414062 44.070312 13.15625 43.777344 13.03125 43.644531 C 12.726562 43.320312 12.375 42.824219 12.152344 42.402344 C 11.960938 42.046875 11.71875 41.742188 11.625 41.742188 C 11.59375 41.742188 11.539062 41.777344 11.503906 41.820312 M 34.597656 42.984375 C 34.40625 43.277344 34.140625 43.648438 34 43.8125 C 32.683594 45.363281 32.355469 45.84375 32.355469 46.207031 C 32.355469 46.457031 32.550781 46.644531 32.902344 46.738281 C 33.351562 46.855469 33.507812 46.839844 34.007812 46.628906 C 34.074219 46.601562 34.101562 46.613281 34.101562 46.667969 C 34.101562 46.710938 34.160156 46.796875 34.226562 46.859375 C 34.371094 46.996094 35.03125 47.117188 35.382812 47.074219 C 35.847656 47.019531 38.335938 45.679688 38.804688 45.234375 C 39.117188 44.9375 39.148438 44.726562 38.992188 44.035156 C 38.820312 43.28125 38.773438 43.160156 38.636719 43.160156 C 38.507812 43.160156 38.40625 43.335938 38.28125 43.789062 C 37.964844 44.917969 37.703125 45.292969 37.226562 45.289062 C 36.910156 45.285156 36.902344 45.203125 37.183594 44.941406 C 37.449219 44.695312 37.472656 44.605469 37.308594 44.503906 C 37.214844 44.441406 37.027344 44.519531 36.464844 44.855469 C 36.308594 44.949219 36.179688 45.015625 36.179688 45 C 36.179688 44.988281 36.253906 44.882812 36.347656 44.765625 C 36.738281 44.273438 36.855469 43.851562 36.710938 43.449219 C 36.644531 43.257812 36.558594 43.222656 36.441406 43.34375 C 35.894531 43.894531 34.859375 45.019531 34.691406 45.246094 C 34.511719 45.484375 34.425781 45.550781 34.191406 45.621094 C 33.871094 45.71875 33.734375 45.707031 33.835938 45.585938 C 33.871094 45.542969 33.929688 45.507812 33.972656 45.507812 C 34.011719 45.507812 34.253906 45.296875 34.511719 45.042969 C 34.96875 44.589844 35.304688 44.066406 35.304688 43.800781 C 35.304688 43.648438 35.148438 43.625 34.972656 43.753906 C 34.886719 43.820312 34.8125 43.863281 34.8125 43.851562 C 34.8125 43.835938 34.890625 43.660156 34.984375 43.457031 C 35.253906 42.886719 35.261719 42.453125 35 42.453125 C 34.96875 42.449219 34.785156 42.691406 34.597656 42.984375 M 13.015625 42.574219 C 12.972656 42.6875 13.707031 43.828125 14.078125 44.226562 C 14.402344 44.570312 14.65625 44.726562 14.804688 44.667969 C 14.996094 44.59375 14.886719 44.390625 14.402344 43.925781 C 14.132812 43.671875 13.773438 43.257812 13.601562 43.011719 C 13.425781 42.761719 13.265625 42.558594 13.246094 42.558594 C 13.222656 42.558594 13.167969 42.546875 13.125 42.527344 C 13.082031 42.511719 13.03125 42.535156 13.015625 42.574219 M 13.945312 42.574219 C 13.917969 42.652344 14.328125 43.269531 14.4375 43.308594 C 14.539062 43.347656 14.667969 43.21875 14.628906 43.117188 C 14.609375 43.066406 14.507812 42.90625 14.40625 42.765625 C 14.222656 42.503906 14 42.414062 13.945312 42.574219 " fill-opacity="1" fill-rule="evenodd"/></g></svg>