<svg xmlns="http://www.w3.org/2000/svg" xmlns:xlink="http://www.w3.org/1999/xlink" width="70" zoomAndPan="magnify" viewBox="0 0 52.5 52.499999" height="70" preserveAspectRatio="xMidYMid meet" version="1.0"><defs><clipPath id="fadb1102d1"><path d="M 2.871094 2.0625 L 48.933594 2.0625 L 48.933594 49.613281 L 2.871094 49.613281 Z M 2.871094 2.0625 " clip-rule="nonzero"/></clipPath></defs><path fill="#000000" d="M 38.203125 43.734375 L 38.203125 46.078125 C 38.203125 46.277344 38.363281 46.4375 38.566406 46.4375 L 42.179688 46.4375 C 42.378906 46.4375 42.539062 46.277344 42.539062 46.078125 L 42.539062 43.734375 C 42.539062 42.625 41.636719 41.722656 40.523438 41.722656 L 40.21875 41.722656 C 39.105469 41.722656 38.203125 42.625 38.203125 43.734375 Z M 38.929688 43.734375 C 38.929688 43.023438 39.507812 42.445312 40.21875 42.445312 L 40.523438 42.445312 C 41.238281 42.445312 41.816406 43.023438 41.816406 43.734375 L 41.816406 45.714844 L 38.929688 45.714844 Z M 38.929688 43.734375 " fill-opacity="1" fill-rule="nonzero"/><path fill="#000000" d="M 11.484375 41.722656 L 11.175781 41.722656 C 10.066406 41.722656 9.160156 42.625 9.160156 43.734375 L 9.160156 46.078125 C 9.160156 46.277344 9.324219 46.4375 9.523438 46.4375 L 13.136719 46.4375 C 13.335938 46.4375 13.5 46.277344 13.5 46.078125 L 13.5 43.734375 C 13.5 42.625 12.59375 41.722656 11.484375 41.722656 Z M 12.773438 45.714844 L 9.886719 45.714844 L 9.886719 43.734375 C 9.886719 43.023438 10.464844 42.445312 11.175781 42.445312 L 11.484375 42.445312 C 12.195312 42.445312 12.773438 43.023438 12.773438 43.734375 Z M 12.773438 45.714844 " fill-opacity="1" fill-rule="nonzero"/><g clip-path="url(#fadb1102d1)"><path fill="#000000" d="M 3.480469 33.144531 L 6.3125 31.453125 L 6.3125 49.25 C 6.3125 49.449219 6.476562 49.613281 6.675781 49.613281 L 44.972656 49.613281 C 45.171875 49.613281 45.335938 49.449219 45.335938 49.25 L 45.335938 31.375 L 48.320312 33.144531 C 48.378906 33.179688 48.441406 33.195312 48.503906 33.195312 C 48.628906 33.195312 48.75 33.132812 48.816406 33.019531 C 48.917969 32.847656 48.863281 32.625 48.691406 32.523438 L 34 23.820312 L 34 15.34375 L 37.03125 17.238281 C 37.09375 17.273438 37.160156 17.292969 37.222656 17.292969 C 37.34375 17.292969 37.464844 17.234375 37.53125 17.125 C 37.636719 16.953125 37.585938 16.730469 37.417969 16.625 L 33.832031 14.386719 L 32.296875 13.429688 L 26.207031 9.628906 L 26.207031 5.214844 L 28.449219 5.214844 C 28.648438 5.214844 28.8125 5.054688 28.8125 4.851562 C 28.8125 4.652344 28.648438 4.492188 28.449219 4.492188 L 26.207031 4.492188 L 26.207031 2.425781 C 26.207031 2.226562 26.046875 2.0625 25.84375 2.0625 C 25.644531 2.0625 25.484375 2.226562 25.484375 2.425781 L 25.484375 4.492188 L 23.242188 4.492188 C 23.042969 4.492188 22.878906 4.652344 22.878906 4.851562 C 22.878906 5.050781 23.042969 5.214844 23.242188 5.214844 L 25.484375 5.214844 L 25.484375 9.675781 L 14.300781 16.546875 C 14.132812 16.652344 14.078125 16.875 14.183594 17.046875 C 14.289062 17.214844 14.511719 17.269531 14.683594 17.164062 L 17.648438 15.339844 L 17.648438 23.851562 L 3.109375 32.523438 C 2.9375 32.625 2.882812 32.847656 2.984375 33.019531 C 3.085938 33.191406 3.308594 33.246094 3.480469 33.144531 Z M 25.523438 48.886719 L 22.277344 48.886719 L 22.277344 45.507812 C 22.277344 43.71875 23.730469 42.257812 25.523438 42.246094 Z M 29.496094 48.886719 L 26.25 48.886719 L 26.25 42.246094 C 28.039062 42.257812 29.496094 43.71875 29.496094 45.507812 Z M 34 24.695312 L 44.609375 31.027344 L 44.609375 48.886719 L 36.125 48.886719 L 36.125 32.707031 L 38.648438 34.214844 C 38.707031 34.25 38.769531 34.265625 38.832031 34.265625 C 38.957031 34.265625 39.078125 34.203125 39.144531 34.089844 C 39.25 33.917969 39.191406 33.695312 39.019531 33.59375 L 35.949219 31.761719 L 34 30.597656 Z M 18.375 14.894531 L 25.707031 10.386719 L 25.882812 10.277344 L 32.242188 14.246094 L 33.277344 14.894531 L 33.277344 30.164062 L 26.011719 25.832031 C 25.894531 25.761719 25.753906 25.761719 25.640625 25.832031 L 18.375 30.164062 Z M 21.417969 29.191406 L 25.824219 26.5625 L 30.230469 29.191406 L 35.398438 32.277344 L 35.398438 48.886719 L 30.21875 48.886719 L 30.21875 45.507812 C 30.21875 43.308594 28.425781 41.523438 26.222656 41.523438 L 25.546875 41.523438 C 23.34375 41.523438 21.550781 43.308594 21.550781 45.507812 L 21.550781 48.886719 L 16.25 48.886719 L 16.25 32.277344 Z M 7.039062 31.027344 L 17.648438 24.695312 L 17.648438 30.597656 L 15.703125 31.761719 L 12.628906 33.59375 C 12.457031 33.695312 12.402344 33.917969 12.503906 34.089844 C 12.605469 34.261719 12.828125 34.316406 13 34.214844 L 15.523438 32.707031 L 15.523438 48.886719 L 7.039062 48.886719 Z M 7.039062 31.027344 " fill-opacity="1" fill-rule="nonzero"/></g><path fill="#000000" d="M 23.964844 33.140625 L 25.484375 33.140625 L 25.484375 36.390625 C 25.484375 36.589844 25.644531 36.753906 25.84375 36.753906 C 26.046875 36.753906 26.207031 36.589844 26.207031 36.390625 L 26.207031 33.140625 L 27.726562 33.140625 C 27.925781 33.140625 28.089844 32.980469 28.089844 32.777344 C 28.089844 32.578125 27.925781 32.417969 27.726562 32.417969 L 26.207031 32.417969 L 26.207031 31.023438 C 26.207031 30.824219 26.046875 30.664062 25.84375 30.664062 C 25.644531 30.664062 25.484375 30.824219 25.484375 31.023438 L 25.484375 32.417969 L 23.964844 32.417969 C 23.761719 32.417969 23.601562 32.578125 23.601562 32.777344 C 23.601562 32.980469 23.761719 33.140625 23.964844 33.140625 Z M 23.964844 33.140625 " fill-opacity="1" fill-rule="nonzero"/><path fill="#000000" d="M 25.835938 23.265625 C 25.945312 23.265625 26.050781 23.242188 26.148438 23.203125 C 26.324219 23.128906 26.492188 23.046875 26.691406 22.933594 C 26.929688 22.804688 27.160156 22.65625 27.378906 22.496094 C 28.75 21.492188 29.410156 20.347656 29.296875 19.1875 C 29.203125 18.257812 28.449219 17.527344 27.539062 17.484375 C 27.128906 17.464844 26.707031 17.609375 26.320312 17.898438 C 26.136719 18.039062 25.96875 18.195312 25.824219 18.363281 C 25.679688 18.195312 25.511719 18.039062 25.328125 17.898438 C 24.941406 17.609375 24.519531 17.464844 24.109375 17.484375 C 23.203125 17.527344 22.445312 18.257812 22.351562 19.1875 C 22.238281 20.347656 22.898438 21.492188 24.269531 22.496094 C 24.488281 22.65625 24.71875 22.804688 24.957031 22.933594 C 25.160156 23.046875 25.328125 23.128906 25.5 23.203125 C 25.605469 23.246094 25.710938 23.265625 25.824219 23.265625 C 25.828125 23.265625 25.832031 23.265625 25.835938 23.265625 Z M 25.304688 22.300781 C 25.097656 22.183594 24.890625 22.054688 24.699219 21.914062 C 23.894531 21.324219 22.960938 20.386719 23.074219 19.261719 C 23.132812 18.695312 23.601562 18.230469 24.144531 18.207031 C 24.15625 18.207031 24.167969 18.207031 24.183594 18.207031 C 24.46875 18.207031 24.726562 18.351562 24.894531 18.476562 C 25.089844 18.625 25.257812 18.796875 25.386719 18.976562 C 25.488281 19.117188 25.652344 19.203125 25.824219 19.203125 C 25.824219 19.203125 25.824219 19.203125 25.828125 19.203125 C 26 19.199219 26.164062 19.117188 26.265625 18.972656 C 26.390625 18.796875 26.5625 18.625 26.753906 18.476562 C 26.929688 18.347656 27.203125 18.191406 27.507812 18.207031 C 28.046875 18.230469 28.519531 18.695312 28.574219 19.261719 C 28.6875 20.386719 27.753906 21.324219 26.949219 21.914062 C 26.757812 22.054688 26.554688 22.183594 26.339844 22.300781 C 26.160156 22.402344 26.015625 22.472656 25.867188 22.535156 C 25.855469 22.539062 25.839844 22.542969 25.828125 22.542969 C 25.8125 22.542969 25.796875 22.542969 25.78125 22.535156 C 25.632812 22.472656 25.488281 22.402344 25.304688 22.300781 Z M 25.304688 22.300781 " fill-opacity="1" fill-rule="nonzero"/></svg>