<svg xmlns="http://www.w3.org/2000/svg" xmlns:xlink="http://www.w3.org/1999/xlink" width="70" zoomAndPan="magnify" viewBox="0 0 52.5 52.499999" height="70" preserveAspectRatio="xMidYMid meet" version="1.0"><defs><clipPath id="7ebd1a8257"><path d="M 4.097656 4.648438 L 46.441406 4.648438 L 46.441406 46.996094 L 4.097656 46.996094 Z M 4.097656 4.648438 " clip-rule="nonzero"/></clipPath></defs><g clip-path="url(#7ebd1a8257)"><path fill="#ad7b56" d="M 36.851562 47.355469 L 14.046875 47.355469 C 8.558594 47.355469 4.097656 42.890625 4.097656 37.40625 L 4.097656 14.597656 C 4.097656 9.113281 8.558594 4.648438 14.046875 4.648438 L 36.851562 4.648438 C 42.339844 4.648438 46.804688 9.113281 46.804688 14.597656 L 46.804688 37.40625 C 46.804688 42.890625 42.339844 47.355469 36.851562 47.355469 Z M 14.046875 6.292969 C 9.46875 6.292969 5.742188 10.019531 5.742188 14.597656 L 5.742188 37.40625 C 5.742188 41.984375 9.46875 45.710938 14.046875 45.710938 L 36.851562 45.710938 C 41.429688 45.710938 45.15625 41.984375 45.15625 37.40625 L 45.15625 14.597656 C 45.15625 10.019531 41.429688 6.292969 36.851562 6.292969 Z M 14.046875 6.292969 " fill-opacity="1" fill-rule="nonzero"/></g><path fill="#ad7b56" d="M 25.449219 35.332031 C 19.851562 35.332031 15.296875 30.777344 15.296875 25.179688 C 15.296875 19.582031 19.851562 15.027344 25.449219 15.027344 C 31.046875 15.027344 35.601562 19.582031 35.601562 25.179688 C 35.601562 30.777344 31.046875 35.332031 25.449219 35.332031 Z M 25.449219 16.671875 C 20.757812 16.671875 16.941406 20.488281 16.941406 25.179688 C 16.941406 29.871094 20.757812 33.6875 25.449219 33.6875 C 30.140625 33.6875 33.957031 29.871094 33.957031 25.179688 C 33.957031 20.488281 30.140625 16.671875 25.449219 16.671875 Z M 25.449219 16.671875 " fill-opacity="1" fill-rule="nonzero"/><path fill="#ad7b56" d="M 20.910156 25.179688 L 19.265625 25.179688 C 19.265625 21.769531 22.039062 18.996094 25.449219 18.996094 L 25.449219 20.640625 C 22.949219 20.640625 20.910156 22.675781 20.910156 25.179688 Z M 20.910156 25.179688 " fill-opacity="1" fill-rule="nonzero"/><path fill="#ad7b56" d="M 38.984375 15.257812 C 37.40625 15.257812 36.125 13.976562 36.125 12.398438 C 36.125 10.824219 37.40625 9.539062 38.984375 9.539062 C 40.558594 9.539062 41.839844 10.824219 41.839844 12.398438 C 41.839844 13.976562 40.558594 15.257812 38.984375 15.257812 Z M 38.984375 11.1875 C 38.316406 11.1875 37.769531 11.730469 37.769531 12.398438 C 37.769531 13.066406 38.316406 13.609375 38.984375 13.609375 C 39.652344 13.609375 40.195312 13.066406 40.195312 12.398438 C 40.195312 11.730469 39.652344 11.1875 38.984375 11.1875 Z M 38.984375 11.1875 " fill-opacity="1" fill-rule="nonzero"/></svg>