<svg xmlns="http://www.w3.org/2000/svg" xmlns:xlink="http://www.w3.org/1999/xlink" width="200" zoomAndPan="magnify" viewBox="0 0 150 30.000001" height="40" preserveAspectRatio="xMidYMid meet" version="1.0"><defs><clipPath id="c395049d4d"><path d="M 8 8.792969 L 142 8.792969 L 142 20.402344 L 8 20.402344 Z M 8 8.792969 " clip-rule="nonzero"/></clipPath><clipPath id="4461cba84b"><path d="M 75.273438 18.90625 L 74.554688 19.164062 C 74.09375 19.304688 73.621094 19.410156 73.144531 19.488281 C 72.480469 19.570312 71.816406 19.570312 71.15625 19.488281 C 70.328125 19.398438 69.527344 19.191406 68.761719 18.863281 C 67.84375 18.488281 67.019531 17.964844 66.289062 17.289062 C 65.875 16.90625 65.507812 16.488281 65.183594 16.027344 C 64.863281 15.511719 64.628906 14.960938 64.476562 14.375 C 64.390625 14.054688 64.351562 13.734375 64.355469 13.402344 C 64.359375 13.015625 64.46875 12.660156 64.6875 12.34375 C 64.796875 12.191406 64.925781 12.0625 65.074219 11.949219 C 65.226562 11.816406 65.398438 11.714844 65.59375 11.648438 C 65.808594 11.59375 66.027344 11.59375 66.242188 11.648438 C 66.457031 11.695312 66.652344 11.785156 66.828125 11.917969 C 67.132812 12.164062 67.359375 12.46875 67.511719 12.832031 C 67.664062 13.167969 67.757812 13.519531 67.800781 13.882812 C 67.890625 14.636719 67.792969 15.359375 67.5 16.058594 C 67.210938 16.78125 66.761719 17.386719 66.15625 17.871094 C 65.550781 18.347656 64.878906 18.703125 64.144531 18.929688 C 63.785156 19.042969 63.414062 19.132812 63.042969 19.199219 L 62.480469 19.289062 L 61.871094 19.289062 C 61.09375 19.34375 60.320312 19.308594 59.554688 19.175781 C 57.996094 18.886719 56.527344 18.359375 55.136719 17.589844 C 52.371094 15.945312 49.691406 14.160156 47.101562 12.242188 C 45.773438 11.320312 44.359375 10.578125 42.851562 10.007812 C 42.109375 9.75 41.347656 9.609375 40.566406 9.582031 C 40.175781 9.578125 39.792969 9.609375 39.40625 9.671875 L 39.121094 9.671875 L 38.832031 9.75 L 38.558594 9.90625 L 38.425781 9.90625 L 38.28125 9.964844 C 37.535156 10.253906 36.867188 10.671875 36.285156 11.226562 C 35.707031 11.792969 35.308594 12.472656 35.089844 13.257812 C 34.882812 14.046875 34.863281 14.835938 35.023438 15.636719 C 35.175781 16.445312 35.480469 17.191406 35.941406 17.871094 C 36.15625 18.203125 36.410156 18.503906 36.703125 18.773438 L 36.921875 18.976562 L 37.035156 19.0625 L 37.15625 19.152344 L 37.398438 19.320312 L 37.652344 19.488281 C 38 19.6875 38.367188 19.832031 38.757812 19.921875 C 39.125 20.015625 39.492188 20.015625 39.859375 19.921875 C 40.21875 19.835938 40.5 19.636719 40.699219 19.320312 C 40.890625 19.003906 40.929688 18.667969 40.820312 18.316406 C 40.773438 18.148438 40.695312 17.996094 40.589844 17.859375 C 40.539062 17.785156 40.484375 17.71875 40.421875 17.65625 L 40.234375 17.476562 C 39.957031 17.269531 39.65625 17.109375 39.328125 17 L 39.097656 16.929688 L 38.964844 16.929688 L 38.691406 16.796875 L 38.324219 16.796875 C 38.144531 16.71875 37.960938 16.65625 37.773438 16.605469 C 37.585938 16.605469 37.429688 16.605469 37.253906 16.605469 L 36.734375 16.550781 L 35.15625 16.550781 C 34.804688 16.550781 34.449219 16.550781 34.109375 16.652344 C 33.765625 16.753906 33.433594 16.753906 33.09375 16.832031 L 32.066406 17.03125 L 30.960938 17.300781 C 29.570312 17.65625 28.191406 17.949219 26.855469 18.183594 C 25.519531 18.417969 24.21875 18.605469 22.957031 18.71875 C 21.761719 18.824219 20.5625 18.863281 19.359375 18.839844 C 18.25 18.824219 17.144531 18.722656 16.046875 18.539062 C 15.105469 18.382812 14.191406 18.128906 13.300781 17.78125 C 12.503906 17.46875 11.769531 17.054688 11.09375 16.527344 C 10.542969 16.097656 10.078125 15.589844 9.699219 15 C 9.429688 14.574219 9.226562 14.113281 9.09375 13.625 C 8.992188 13.328125 8.921875 13.023438 8.882812 12.710938 L 8.882812 12.398438 C 8.875 12.292969 8.925781 12.238281 9.027344 12.230469 C 9.125 12.214844 9.179688 12.253906 9.191406 12.351562 L 9.191406 12.65625 C 9.191406 12.765625 9.191406 12.878906 9.28125 13.011719 C 9.371094 13.144531 9.4375 13.257812 9.492188 13.480469 C 9.664062 13.910156 9.890625 14.3125 10.164062 14.6875 C 10.542969 15.179688 10.988281 15.601562 11.5 15.949219 C 12.136719 16.378906 12.820312 16.710938 13.554688 16.941406 C 14.425781 17.226562 15.316406 17.417969 16.226562 17.511719 C 18.4375 17.734375 20.648438 17.683594 22.847656 17.355469 C 23.457031 17.289062 24.074219 17.175781 24.703125 17.085938 C 25.332031 17 25.972656 16.863281 26.625 16.730469 C 27.273438 16.597656 27.925781 16.449219 28.589844 16.292969 L 29.605469 16.050781 L 30.621094 15.792969 L 31.648438 15.492188 L 32.75 15.234375 C 33.125 15.144531 33.523438 15.089844 33.855469 15.023438 C 34.1875 14.953125 34.628906 14.921875 35.023438 14.886719 L 36.835938 14.886719 L 37.453125 14.964844 C 37.660156 15 37.863281 15.046875 38.058594 15.109375 L 38.371094 15.199219 C 38.46875 15.199219 38.566406 15.277344 38.667969 15.3125 L 38.964844 15.445312 L 39.097656 15.445312 L 39.351562 15.589844 L 39.484375 15.679688 L 39.773438 15.882812 C 40.132812 16.152344 40.445312 16.476562 40.699219 16.851562 C 40.964844 17.230469 41.128906 17.644531 41.195312 18.105469 C 41.230469 18.332031 41.230469 18.558594 41.195312 18.785156 C 41.148438 19.011719 41.0625 19.222656 40.941406 19.421875 C 40.671875 19.816406 40.300781 20.070312 39.835938 20.179688 C 39.410156 20.28125 38.984375 20.28125 38.558594 20.179688 C 38.148438 20.066406 37.761719 19.902344 37.398438 19.6875 L 37.132812 19.523438 L 36.878906 19.34375 L 36.746094 19.253906 L 36.625 19.152344 L 36.480469 19.007812 C 36.171875 18.71875 35.898438 18.398438 35.652344 18.046875 C 35.167969 17.335938 34.828125 16.558594 34.636719 15.714844 C 34.441406 14.855469 34.441406 13.996094 34.636719 13.132812 C 34.859375 12.257812 35.273438 11.492188 35.886719 10.835938 C 36.5 10.207031 37.207031 9.714844 38.003906 9.359375 L 38.148438 9.292969 L 38.304688 9.226562 L 38.625 9.113281 L 38.933594 9.015625 L 39.265625 8.9375 C 39.691406 8.84375 40.128906 8.792969 40.566406 8.792969 C 41.433594 8.796875 42.28125 8.933594 43.105469 9.203125 C 43.515625 9.339844 43.910156 9.496094 44.296875 9.660156 C 44.683594 9.828125 45.070312 10.019531 45.402344 10.21875 C 46.140625 10.621094 46.859375 11.058594 47.542969 11.503906 C 48.933594 12.421875 50.238281 13.378906 51.550781 14.296875 C 52.828125 15.203125 54.152344 16.03125 55.523438 16.785156 C 56.214844 17.148438 56.921875 17.460938 57.65625 17.722656 C 58.335938 17.980469 59.035156 18.175781 59.753906 18.304688 C 60.445312 18.421875 61.144531 18.464844 61.851562 18.425781 L 62.113281 18.425781 C 62.203125 18.433594 62.292969 18.433594 62.378906 18.425781 C 62.550781 18.417969 62.71875 18.394531 62.886719 18.359375 C 63.222656 18.304688 63.554688 18.226562 63.882812 18.125 C 64.507812 17.933594 65.082031 17.640625 65.601562 17.242188 C 66.09375 16.859375 66.460938 16.378906 66.707031 15.804688 C 66.953125 15.246094 67.039062 14.667969 66.972656 14.0625 C 66.941406 13.78125 66.871094 13.507812 66.761719 13.246094 C 66.667969 12.980469 66.511719 12.761719 66.289062 12.585938 C 66.144531 12.453125 65.976562 12.417969 65.789062 12.476562 C 65.574219 12.554688 65.398438 12.691406 65.261719 12.878906 C 65.132812 13.058594 65.070312 13.257812 65.074219 13.480469 C 65.0625 13.734375 65.085938 13.984375 65.152344 14.230469 C 65.296875 14.730469 65.511719 15.199219 65.789062 15.636719 C 66.066406 16.042969 66.382812 16.417969 66.738281 16.753906 C 67.964844 18 69.4375 18.742188 71.15625 18.984375 C 72.273438 19.136719 73.375 19.074219 74.46875 18.796875 C 74.808594 18.707031 75.074219 18.617188 75.261719 18.5625 C 75.449219 18.503906 75.714844 18.707031 76.058594 18.796875 C 77.148438 19.074219 78.253906 19.136719 79.367188 18.984375 C 81.089844 18.742188 82.5625 18 83.785156 16.753906 C 84.140625 16.414062 84.457031 16.042969 84.734375 15.636719 C 85.015625 15.199219 85.226562 14.730469 85.363281 14.230469 C 85.429688 13.984375 85.460938 13.734375 85.453125 13.480469 C 85.449219 13.261719 85.386719 13.058594 85.265625 12.878906 C 85.125 12.691406 84.949219 12.554688 84.734375 12.476562 C 84.546875 12.417969 84.382812 12.453125 84.238281 12.585938 C 84.042969 12.746094 83.898438 12.945312 83.808594 13.179688 C 83.699219 13.441406 83.628906 13.710938 83.597656 13.996094 C 83.53125 14.597656 83.617188 15.179688 83.851562 15.738281 C 84.101562 16.308594 84.46875 16.789062 84.953125 17.175781 C 85.476562 17.578125 86.050781 17.871094 86.675781 18.058594 C 87.003906 18.160156 87.332031 18.238281 87.671875 18.292969 C 87.839844 18.328125 88.007812 18.347656 88.179688 18.359375 C 88.265625 18.367188 88.355469 18.367188 88.441406 18.359375 L 88.695312 18.359375 C 89.40625 18.398438 90.105469 18.355469 90.804688 18.238281 C 91.515625 18.128906 92.210938 17.957031 92.890625 17.722656 C 93.613281 17.460938 94.3125 17.148438 94.988281 16.785156 C 96.359375 16.035156 97.679688 15.203125 98.953125 14.296875 C 100.265625 13.378906 101.578125 12.421875 102.96875 11.503906 C 103.65625 11.058594 104.371094 10.621094 105.113281 10.21875 C 105.488281 10.019531 105.863281 9.839844 106.214844 9.660156 C 106.570312 9.484375 107 9.339844 107.410156 9.203125 C 108.246094 8.929688 109.101562 8.792969 109.980469 8.792969 C 110.417969 8.792969 110.855469 8.84375 111.28125 8.9375 L 111.601562 9.015625 L 111.921875 9.113281 L 112.234375 9.226562 L 112.398438 9.292969 L 112.53125 9.359375 C 113.339844 9.707031 114.054688 10.199219 114.671875 10.835938 C 115.304688 11.484375 115.734375 12.253906 115.964844 13.132812 C 116.152344 13.996094 116.152344 14.855469 115.964844 15.714844 C 115.773438 16.558594 115.4375 17.335938 114.949219 18.046875 C 114.703125 18.398438 114.425781 18.71875 114.109375 19.007812 L 113.878906 19.21875 L 113.757812 19.320312 L 113.625 19.410156 L 113.371094 19.589844 L 113.105469 19.757812 C 112.757812 19.964844 112.390625 20.128906 112 20.246094 C 111.574219 20.351562 111.148438 20.351562 110.71875 20.246094 C 110.253906 20.136719 109.886719 19.886719 109.617188 19.488281 C 109.484375 19.289062 109.394531 19.074219 109.339844 18.839844 C 109.300781 18.613281 109.300781 18.386719 109.339844 18.160156 C 109.40625 17.703125 109.570312 17.285156 109.835938 16.910156 C 110.09375 16.53125 110.402344 16.207031 110.765625 15.9375 L 111.050781 15.738281 L 111.183594 15.648438 L 111.4375 15.5 L 111.492188 15.5 L 111.546875 15.492188 L 111.847656 15.355469 C 111.945312 15.355469 112.042969 15.265625 112.144531 15.246094 L 112.441406 15.15625 C 112.644531 15.09375 112.851562 15.042969 113.058594 15.011719 L 113.679688 14.933594 L 115.457031 14.933594 C 115.851562 14.933594 116.238281 15.011719 116.625 15.066406 C 117.011719 15.121094 117.410156 15.1875 117.785156 15.277344 L 118.890625 15.535156 L 119.914062 15.816406 L 120.929688 16.070312 L 121.9375 16.316406 C 122.609375 16.472656 123.261719 16.628906 123.910156 16.753906 C 124.5625 16.875 125.203125 17 125.832031 17.109375 C 126.460938 17.222656 127.082031 17.3125 127.6875 17.378906 C 129.890625 17.707031 132.097656 17.757812 134.3125 17.535156 C 135.222656 17.4375 136.109375 17.246094 136.980469 16.964844 C 137.714844 16.734375 138.398438 16.402344 139.035156 15.972656 C 139.550781 15.625 139.996094 15.203125 140.371094 14.710938 C 140.648438 14.339844 140.867188 13.9375 141.035156 13.503906 C 141.097656 13.351562 141.152344 13.191406 141.199219 13.035156 C 141.199219 12.898438 141.265625 12.789062 141.289062 12.675781 L 141.289062 12.375 C 141.300781 12.277344 141.355469 12.238281 141.453125 12.253906 C 141.554688 12.257812 141.605469 12.316406 141.597656 12.421875 L 141.597656 12.734375 C 141.570312 13.042969 141.511719 13.347656 141.421875 13.648438 C 141.285156 14.136719 141.082031 14.59375 140.8125 15.023438 C 140.441406 15.609375 139.984375 16.121094 139.445312 16.550781 C 138.769531 17.078125 138.03125 17.492188 137.234375 17.800781 C 136.324219 18.164062 135.386719 18.425781 134.421875 18.582031 C 133.324219 18.769531 132.222656 18.871094 131.109375 18.886719 C 129.894531 18.902344 128.6875 18.855469 127.476562 18.738281 C 126.21875 18.628906 124.917969 18.4375 123.582031 18.203125 C 122.246094 17.96875 120.863281 17.679688 119.472656 17.320312 L 118.371094 17.054688 L 117.332031 16.820312 C 116.992188 16.742188 116.660156 16.695312 116.316406 16.640625 C 115.976562 16.585938 115.621094 16.5625 115.214844 16.539062 L 114.859375 16.496094 L 113.8125 16.496094 L 113.292969 16.605469 C 113.117188 16.605469 112.949219 16.605469 112.773438 16.675781 C 112.601562 16.691406 112.433594 16.722656 112.265625 16.765625 L 111.902344 16.765625 L 111.613281 16.84375 L 111.492188 16.84375 L 111.261719 16.910156 C 110.933594 17.019531 110.632812 17.179688 110.355469 17.390625 C 110.277344 17.445312 110.234375 17.511719 110.167969 17.566406 C 110.105469 17.628906 110.050781 17.695312 110.003906 17.769531 C 109.898438 17.90625 109.820312 18.058594 109.769531 18.226562 C 109.660156 18.578125 109.703125 18.914062 109.890625 19.230469 C 110.089844 19.542969 110.367188 19.742188 110.71875 19.835938 C 111.089844 19.925781 111.457031 19.925781 111.824219 19.835938 C 112.210938 19.742188 112.582031 19.597656 112.929688 19.398438 L 113.183594 19.230469 L 113.425781 19.0625 L 113.546875 18.976562 L 113.65625 18.886719 L 113.878906 18.683594 C 114.167969 18.414062 114.421875 18.113281 114.640625 17.78125 C 115.097656 17.101562 115.402344 16.355469 115.554688 15.546875 C 115.691406 14.777344 115.660156 14.011719 115.457031 13.257812 C 115.230469 12.484375 114.828125 11.816406 114.253906 11.257812 C 113.671875 10.703125 113.011719 10.285156 112.265625 9.996094 L 112.121094 9.90625 L 111.988281 9.90625 L 111.714844 9.808594 L 111.425781 9.730469 L 111.140625 9.730469 C 110.773438 9.667969 110.40625 9.640625 110.035156 9.640625 C 109.25 9.671875 108.484375 9.820312 107.738281 10.085938 C 106.234375 10.65625 104.816406 11.398438 103.488281 12.320312 C 100.898438 14.242188 98.214844 16.023438 95.441406 17.667969 C 94.054688 18.4375 92.582031 18.964844 91.027344 19.253906 C 90.257812 19.386719 89.484375 19.421875 88.707031 19.367188 L 88.089844 19.367188 L 87.515625 19.277344 C 87.140625 19.210938 86.773438 19.121094 86.410156 19.007812 C 85.675781 18.78125 85.007812 18.425781 84.402344 17.949219 C 83.796875 17.464844 83.347656 16.859375 83.054688 16.136719 C 82.765625 15.4375 82.667969 14.714844 82.757812 13.960938 C 82.800781 13.597656 82.894531 13.246094 83.046875 12.910156 C 83.199219 12.546875 83.425781 12.242188 83.730469 11.996094 C 83.90625 11.863281 84.101562 11.773438 84.316406 11.726562 C 84.53125 11.671875 84.75 11.671875 84.964844 11.726562 C 85.160156 11.792969 85.332031 11.894531 85.484375 12.027344 C 85.628906 12.140625 85.753906 12.269531 85.859375 12.421875 C 86.085938 12.738281 86.199219 13.089844 86.203125 13.480469 C 86.210938 13.8125 86.167969 14.136719 86.070312 14.453125 C 85.902344 15.03125 85.648438 15.566406 85.308594 16.058594 C 84.988281 16.523438 84.621094 16.945312 84.203125 17.320312 C 83.480469 18 82.65625 18.53125 81.742188 18.90625 C 80.972656 19.234375 80.175781 19.445312 79.347656 19.53125 C 78.683594 19.613281 78.023438 19.613281 77.359375 19.53125 C 76.878906 19.453125 76.402344 19.347656 75.9375 19.210938 Z M 75.273438 18.90625 " clip-rule="nonzero"/></clipPath><linearGradient x1="-0.00692264" gradientTransform="matrix(1.103914, 0, 0, 1.116625, 8.884064, 8.791032)" y1="5.17" x2="120.226921" gradientUnits="userSpaceOnUse" y2="5.17" id="fba11fef2c"><stop stop-opacity="1" stop-color="rgb(91.398621%, 75.698853%, 33.699036%)" offset="0"/><stop stop-opacity="1" stop-color="rgb(90.901184%, 75.164795%, 33.439636%)" offset="0.00390625"/><stop stop-opacity="1" stop-color="rgb(90.405273%, 74.630737%, 33.181763%)" offset="0.0078125"/><stop stop-opacity="1" stop-color="rgb(89.903259%, 74.092102%, 32.920837%)" offset="0.0117188"/><stop stop-opacity="1" stop-color="rgb(89.402771%, 73.554993%, 32.659912%)" offset="0.015625"/><stop stop-opacity="1" stop-color="rgb(88.900757%, 73.016357%, 32.398987%)" offset="0.0195313"/><stop stop-opacity="1" stop-color="rgb(88.400269%, 72.479248%, 32.138062%)" offset="0.0234375"/><stop stop-opacity="1" stop-color="rgb(87.89978%, 71.940613%, 31.877136%)" offset="0.0273438"/><stop stop-opacity="1" stop-color="rgb(87.399292%, 71.401978%, 31.616211%)" offset="0.03125"/><stop stop-opacity="1" stop-color="rgb(86.897278%, 70.863342%, 31.35376%)" offset="0.0351562"/><stop stop-opacity="1" stop-color="rgb(86.39679%, 70.326233%, 31.092834%)" offset="0.0390625"/><stop stop-opacity="1" stop-color="rgb(85.896301%, 69.787598%, 30.831909%)" offset="0.0429688"/><stop stop-opacity="1" stop-color="rgb(85.395813%, 69.250488%, 30.570984%)" offset="0.046875"/><stop stop-opacity="1" stop-color="rgb(84.893799%, 68.711853%, 30.310059%)" offset="0.0507813"/><stop stop-opacity="1" stop-color="rgb(84.393311%, 68.173218%, 30.049133%)" offset="0.0546875"/><stop stop-opacity="1" stop-color="rgb(83.891296%, 67.634583%, 29.788208%)" offset="0.0585938"/><stop stop-opacity="1" stop-color="rgb(83.390808%, 67.097473%, 29.527283%)" offset="0.0625"/><stop stop-opacity="1" stop-color="rgb(82.89032%, 66.558838%, 29.266357%)" offset="0.0664062"/><stop stop-opacity="1" stop-color="rgb(82.389832%, 66.021729%, 29.005432%)" offset="0.0703125"/><stop stop-opacity="1" stop-color="rgb(81.887817%, 65.483093%, 28.744507%)" offset="0.0742188"/><stop stop-opacity="1" stop-color="rgb(81.387329%, 64.945984%, 28.483582%)" offset="0.078125"/><stop stop-opacity="1" stop-color="rgb(80.886841%, 64.407349%, 28.222656%)" offset="0.0820312"/><stop stop-opacity="1" stop-color="rgb(80.386353%, 63.868713%, 27.961731%)" offset="0.0859375"/><stop stop-opacity="1" stop-color="rgb(79.884338%, 63.330078%, 27.700806%)" offset="0.0898437"/><stop stop-opacity="1" stop-color="rgb(79.38385%, 62.792969%, 27.43988%)" offset="0.09375"/><stop stop-opacity="1" stop-color="rgb(78.881836%, 62.254333%, 27.178955%)" offset="0.0976562"/><stop stop-opacity="1" stop-color="rgb(78.381348%, 61.717224%, 26.91803%)" offset="0.101562"/><stop stop-opacity="1" stop-color="rgb(77.880859%, 61.178589%, 26.657104%)" offset="0.105469"/><stop stop-opacity="1" stop-color="rgb(77.380371%, 60.639954%, 26.396179%)" offset="0.109375"/><stop stop-opacity="1" stop-color="rgb(76.878357%, 60.101318%, 26.135254%)" offset="0.113281"/><stop stop-opacity="1" stop-color="rgb(76.377869%, 59.564209%, 25.874329%)" offset="0.117188"/><stop stop-opacity="1" stop-color="rgb(75.87738%, 59.025574%, 25.613403%)" offset="0.121094"/><stop stop-opacity="1" stop-color="rgb(75.376892%, 58.488464%, 25.352478%)" offset="0.125"/><stop stop-opacity="1" stop-color="rgb(74.874878%, 57.949829%, 25.091553%)" offset="0.128906"/><stop stop-opacity="1" stop-color="rgb(74.37439%, 57.41272%, 24.830627%)" offset="0.132812"/><stop stop-opacity="1" stop-color="rgb(73.872375%, 56.874084%, 24.569702%)" offset="0.136719"/><stop stop-opacity="1" stop-color="rgb(73.371887%, 56.335449%, 24.308777%)" offset="0.140625"/><stop stop-opacity="1" stop-color="rgb(72.871399%, 55.796814%, 24.047852%)" offset="0.144531"/><stop stop-opacity="1" stop-color="rgb(72.370911%, 55.259705%, 23.786926%)" offset="0.148438"/><stop stop-opacity="1" stop-color="rgb(71.868896%, 54.721069%, 23.526001%)" offset="0.152344"/><stop stop-opacity="1" stop-color="rgb(71.368408%, 54.18396%, 23.265076%)" offset="0.15625"/><stop stop-opacity="1" stop-color="rgb(70.86792%, 53.645325%, 23.00415%)" offset="0.160156"/><stop stop-opacity="1" stop-color="rgb(70.367432%, 53.106689%, 22.743225%)" offset="0.164062"/><stop stop-opacity="1" stop-color="rgb(69.865417%, 52.568054%, 22.4823%)" offset="0.167969"/><stop stop-opacity="1" stop-color="rgb(69.364929%, 52.030945%, 22.221375%)" offset="0.171875"/><stop stop-opacity="1" stop-color="rgb(68.862915%, 51.49231%, 21.960449%)" offset="0.175781"/><stop stop-opacity="1" stop-color="rgb(68.362427%, 50.9552%, 21.699524%)" offset="0.179688"/><stop stop-opacity="1" stop-color="rgb(67.861938%, 50.416565%, 21.438599%)" offset="0.183594"/><stop stop-opacity="1" stop-color="rgb(67.36145%, 49.87793%, 21.177673%)" offset="0.1875"/><stop stop-opacity="1" stop-color="rgb(66.859436%, 49.339294%, 20.916748%)" offset="0.191406"/><stop stop-opacity="1" stop-color="rgb(66.358948%, 48.802185%, 20.655823%)" offset="0.195313"/><stop stop-opacity="1" stop-color="rgb(65.856934%, 48.26355%, 20.394897%)" offset="0.199219"/><stop stop-opacity="1" stop-color="rgb(65.356445%, 47.72644%, 20.133972%)" offset="0.203125"/><stop stop-opacity="1" stop-color="rgb(64.855957%, 47.187805%, 19.873047%)" offset="0.207031"/><stop stop-opacity="1" stop-color="rgb(64.355469%, 46.650696%, 19.612122%)" offset="0.210938"/><stop stop-opacity="1" stop-color="rgb(63.853455%, 46.112061%, 19.351196%)" offset="0.214844"/><stop stop-opacity="1" stop-color="rgb(63.352966%, 45.573425%, 19.090271%)" offset="0.21875"/><stop stop-opacity="1" stop-color="rgb(62.852478%, 45.03479%, 18.829346%)" offset="0.222656"/><stop stop-opacity="1" stop-color="rgb(62.35199%, 44.497681%, 18.56842%)" offset="0.226563"/><stop stop-opacity="1" stop-color="rgb(61.849976%, 43.959045%, 18.307495%)" offset="0.230469"/><stop stop-opacity="1" stop-color="rgb(61.349487%, 43.421936%, 18.04657%)" offset="0.234375"/><stop stop-opacity="1" stop-color="rgb(60.847473%, 42.883301%, 17.785645%)" offset="0.238281"/><stop stop-opacity="1" stop-color="rgb(60.346985%, 42.344666%, 17.524719%)" offset="0.242188"/><stop stop-opacity="1" stop-color="rgb(59.846497%, 41.80603%, 17.263794%)" offset="0.246094"/><stop stop-opacity="1" stop-color="rgb(59.346008%, 41.268921%, 17.002869%)" offset="0.25"/><stop stop-opacity="1" stop-color="rgb(58.843994%, 40.730286%, 16.741943%)" offset="0.253906"/><stop stop-opacity="1" stop-color="rgb(58.343506%, 40.193176%, 16.481018%)" offset="0.257812"/><stop stop-opacity="1" stop-color="rgb(57.843018%, 39.654541%, 16.218567%)" offset="0.261719"/><stop stop-opacity="1" stop-color="rgb(57.342529%, 39.117432%, 15.957642%)" offset="0.265625"/><stop stop-opacity="1" stop-color="rgb(56.840515%, 38.578796%, 15.696716%)" offset="0.269531"/><stop stop-opacity="1" stop-color="rgb(56.340027%, 38.040161%, 15.435791%)" offset="0.273438"/><stop stop-opacity="1" stop-color="rgb(55.838013%, 37.501526%, 15.174866%)" offset="0.277344"/><stop stop-opacity="1" stop-color="rgb(55.337524%, 36.964417%, 14.91394%)" offset="0.28125"/><stop stop-opacity="1" stop-color="rgb(54.837036%, 36.425781%, 14.653015%)" offset="0.285156"/><stop stop-opacity="1" stop-color="rgb(54.336548%, 35.888672%, 14.39209%)" offset="0.289062"/><stop stop-opacity="1" stop-color="rgb(53.834534%, 35.350037%, 14.131165%)" offset="0.292969"/><stop stop-opacity="1" stop-color="rgb(53.334045%, 34.811401%, 13.870239%)" offset="0.296875"/><stop stop-opacity="1" stop-color="rgb(52.833557%, 34.272766%, 13.609314%)" offset="0.300781"/><stop stop-opacity="1" stop-color="rgb(52.333069%, 33.735657%, 13.348389%)" offset="0.304688"/><stop stop-opacity="1" stop-color="rgb(51.831055%, 33.197021%, 13.087463%)" offset="0.308594"/><stop stop-opacity="1" stop-color="rgb(51.330566%, 32.659912%, 12.826538%)" offset="0.3125"/><stop stop-opacity="1" stop-color="rgb(50.828552%, 32.121277%, 12.565613%)" offset="0.316406"/><stop stop-opacity="1" stop-color="rgb(50.328064%, 31.584167%, 12.304688%)" offset="0.320313"/><stop stop-opacity="1" stop-color="rgb(49.827576%, 31.045532%, 12.043762%)" offset="0.324219"/><stop stop-opacity="1" stop-color="rgb(49.327087%, 30.506897%, 11.782837%)" offset="0.328125"/><stop stop-opacity="1" stop-color="rgb(48.825073%, 29.968262%, 11.521912%)" offset="0.332031"/><stop stop-opacity="1" stop-color="rgb(48.324585%, 29.431152%, 11.260986%)" offset="0.335938"/><stop stop-opacity="1" stop-color="rgb(47.824097%, 28.892517%, 11.000061%)" offset="0.339844"/><stop stop-opacity="1" stop-color="rgb(47.323608%, 28.355408%, 10.739136%)" offset="0.34375"/><stop stop-opacity="1" stop-color="rgb(46.821594%, 27.816772%, 10.47821%)" offset="0.347656"/><stop stop-opacity="1" stop-color="rgb(46.321106%, 27.278137%, 10.217285%)" offset="0.351563"/><stop stop-opacity="1" stop-color="rgb(45.819092%, 26.739502%, 9.95636%)" offset="0.355469"/><stop stop-opacity="1" stop-color="rgb(45.318604%, 26.202393%, 9.695435%)" offset="0.359375"/><stop stop-opacity="1" stop-color="rgb(44.818115%, 25.663757%, 9.434509%)" offset="0.363281"/><stop stop-opacity="1" stop-color="rgb(44.317627%, 25.126648%, 9.173584%)" offset="0.367188"/><stop stop-opacity="1" stop-color="rgb(43.815613%, 24.588013%, 8.912659%)" offset="0.371094"/><stop stop-opacity="1" stop-color="rgb(43.315125%, 24.050903%, 8.651733%)" offset="0.375"/><stop stop-opacity="1" stop-color="rgb(42.814636%, 23.512268%, 8.390808%)" offset="0.378906"/><stop stop-opacity="1" stop-color="rgb(42.314148%, 22.973633%, 8.129883%)" offset="0.382813"/><stop stop-opacity="1" stop-color="rgb(41.812134%, 22.434998%, 7.868958%)" offset="0.386719"/><stop stop-opacity="1" stop-color="rgb(41.311646%, 21.897888%, 7.608032%)" offset="0.390625"/><stop stop-opacity="1" stop-color="rgb(40.809631%, 21.359253%, 7.347107%)" offset="0.394531"/><stop stop-opacity="1" stop-color="rgb(40.309143%, 20.822144%, 7.086182%)" offset="0.398438"/><stop stop-opacity="1" stop-color="rgb(39.808655%, 20.283508%, 6.825256%)" offset="0.402344"/><stop stop-opacity="1" stop-color="rgb(39.308167%, 19.744873%, 6.564331%)" offset="0.40625"/><stop stop-opacity="1" stop-color="rgb(39.279175%, 19.677734%, 6.503296%)" offset="0.410156"/><stop stop-opacity="1" stop-color="rgb(39.251709%, 19.612122%, 6.443787%)" offset="0.414062"/><stop stop-opacity="1" stop-color="rgb(39.709473%, 20.031738%, 6.590271%)" offset="0.417969"/><stop stop-opacity="1" stop-color="rgb(40.168762%, 20.452881%, 6.736755%)" offset="0.421875"/><stop stop-opacity="1" stop-color="rgb(40.626526%, 20.872498%, 6.88324%)" offset="0.425781"/><stop stop-opacity="1" stop-color="rgb(41.085815%, 21.292114%, 7.029724%)" offset="0.429688"/><stop stop-opacity="1" stop-color="rgb(41.545105%, 21.711731%, 7.176208%)" offset="0.433594"/><stop stop-opacity="1" stop-color="rgb(42.004395%, 22.131348%, 7.322693%)" offset="0.4375"/><stop stop-opacity="1" stop-color="rgb(42.462158%, 22.550964%, 7.467651%)" offset="0.441406"/><stop stop-opacity="1" stop-color="rgb(42.921448%, 22.970581%, 7.614136%)" offset="0.445312"/><stop stop-opacity="1" stop-color="rgb(43.551636%, 23.576355%, 7.821655%)" offset="0.449219"/><stop stop-opacity="1" stop-color="rgb(44.181824%, 24.182129%, 8.030701%)" offset="0.453125"/><stop stop-opacity="1" stop-color="rgb(45.103455%, 25.10376%, 8.34198%)" offset="0.457031"/><stop stop-opacity="1" stop-color="rgb(46.025085%, 26.025391%, 8.654785%)" offset="0.460938"/><stop stop-opacity="1" stop-color="rgb(46.946716%, 26.947021%, 8.96759%)" offset="0.464844"/><stop stop-opacity="1" stop-color="rgb(47.868347%, 27.868652%, 9.280396%)" offset="0.46875"/><stop stop-opacity="1" stop-color="rgb(48.789978%, 28.790283%, 9.591675%)" offset="0.472656"/><stop stop-opacity="1" stop-color="rgb(49.711609%, 29.711914%, 9.90448%)" offset="0.476563"/><stop stop-opacity="1" stop-color="rgb(50.63324%, 30.632019%, 10.217285%)" offset="0.480469"/><stop stop-opacity="1" stop-color="rgb(51.554871%, 31.55365%, 10.53009%)" offset="0.484375"/><stop stop-opacity="1" stop-color="rgb(52.474976%, 32.475281%, 10.84137%)" offset="0.488281"/><stop stop-opacity="1" stop-color="rgb(53.396606%, 33.396912%, 11.154175%)" offset="0.492188"/><stop stop-opacity="1" stop-color="rgb(54.318237%, 34.318542%, 11.46698%)" offset="0.496094"/><stop stop-opacity="1" stop-color="rgb(55.239868%, 35.240173%, 11.779785%)" offset="0.5"/><stop stop-opacity="1" stop-color="rgb(56.195068%, 36.157227%, 12.081909%)" offset="0.503906"/><stop stop-opacity="1" stop-color="rgb(57.151794%, 37.075806%, 12.385559%)" offset="0.507812"/><stop stop-opacity="1" stop-color="rgb(58.108521%, 37.992859%, 12.687683%)" offset="0.511719"/><stop stop-opacity="1" stop-color="rgb(59.065247%, 38.911438%, 12.989807%)" offset="0.515625"/><stop stop-opacity="1" stop-color="rgb(60.021973%, 39.828491%, 13.291931%)" offset="0.519531"/><stop stop-opacity="1" stop-color="rgb(60.978699%, 40.74707%, 13.595581%)" offset="0.523438"/><stop stop-opacity="1" stop-color="rgb(61.935425%, 41.664124%, 13.897705%)" offset="0.527344"/><stop stop-opacity="1" stop-color="rgb(62.892151%, 42.581177%, 14.201355%)" offset="0.53125"/><stop stop-opacity="1" stop-color="rgb(63.847351%, 43.49823%, 14.503479%)" offset="0.535156"/><stop stop-opacity="1" stop-color="rgb(64.804077%, 44.416809%, 14.805603%)" offset="0.539062"/><stop stop-opacity="1" stop-color="rgb(65.760803%, 45.333862%, 15.107727%)" offset="0.542969"/><stop stop-opacity="1" stop-color="rgb(66.717529%, 46.252441%, 15.411377%)" offset="0.546875"/><stop stop-opacity="1" stop-color="rgb(67.674255%, 47.169495%, 15.713501%)" offset="0.550781"/><stop stop-opacity="1" stop-color="rgb(68.630981%, 48.086548%, 16.017151%)" offset="0.554687"/><stop stop-opacity="1" stop-color="rgb(69.587708%, 49.003601%, 16.319275%)" offset="0.558594"/><stop stop-opacity="1" stop-color="rgb(70.544434%, 49.92218%, 16.621399%)" offset="0.5625"/><stop stop-opacity="1" stop-color="rgb(71.50116%, 50.839233%, 16.923523%)" offset="0.566406"/><stop stop-opacity="1" stop-color="rgb(72.457886%, 51.757812%, 17.227173%)" offset="0.570312"/><stop stop-opacity="1" stop-color="rgb(73.414612%, 52.674866%, 17.529297%)" offset="0.574219"/><stop stop-opacity="1" stop-color="rgb(74.371338%, 53.593445%, 17.832947%)" offset="0.578125"/><stop stop-opacity="1" stop-color="rgb(75.387573%, 54.580688%, 18.164062%)" offset="0.582031"/><stop stop-opacity="1" stop-color="rgb(76.403809%, 55.569458%, 18.496704%)" offset="0.585937"/><stop stop-opacity="1" stop-color="rgb(77.441406%, 56.584167%, 18.840027%)" offset="0.589844"/><stop stop-opacity="1" stop-color="rgb(78.48053%, 57.600403%, 19.184875%)" offset="0.59375"/><stop stop-opacity="1" stop-color="rgb(79.519653%, 58.615112%, 19.528198%)" offset="0.597656"/><stop stop-opacity="1" stop-color="rgb(80.558777%, 59.629822%, 19.871521%)" offset="0.601562"/><stop stop-opacity="1" stop-color="rgb(81.596375%, 60.644531%, 20.214844%)" offset="0.605469"/><stop stop-opacity="1" stop-color="rgb(82.635498%, 61.660767%, 20.558167%)" offset="0.609375"/><stop stop-opacity="1" stop-color="rgb(83.673096%, 62.675476%, 20.901489%)" offset="0.613281"/><stop stop-opacity="1" stop-color="rgb(84.712219%, 63.691711%, 21.246338%)" offset="0.617187"/><stop stop-opacity="1" stop-color="rgb(85.751343%, 64.706421%, 21.589661%)" offset="0.621094"/><stop stop-opacity="1" stop-color="rgb(86.790466%, 65.722656%, 21.932983%)" offset="0.625"/><stop stop-opacity="1" stop-color="rgb(88.015747%, 67.904663%, 24.169922%)" offset="0.628906"/><stop stop-opacity="1" stop-color="rgb(89.242554%, 70.088196%, 26.40686%)" offset="0.632812"/><stop stop-opacity="1" stop-color="rgb(89.624023%, 71.160889%, 27.82135%)" offset="0.636719"/><stop stop-opacity="1" stop-color="rgb(90.005493%, 72.235107%, 29.237366%)" offset="0.640625"/><stop stop-opacity="1" stop-color="rgb(90.385437%, 73.309326%, 30.653381%)" offset="0.644531"/><stop stop-opacity="1" stop-color="rgb(90.766907%, 74.383545%, 32.069397%)" offset="0.648437"/><stop stop-opacity="1" stop-color="rgb(91.146851%, 75.457764%, 33.485413%)" offset="0.652344"/><stop stop-opacity="1" stop-color="rgb(91.52832%, 76.531982%, 34.901428%)" offset="0.65625"/><stop stop-opacity="1" stop-color="rgb(91.908264%, 77.606201%, 36.317444%)" offset="0.660156"/><stop stop-opacity="1" stop-color="rgb(92.289734%, 78.68042%, 37.733459%)" offset="0.664062"/><stop stop-opacity="1" stop-color="rgb(92.655945%, 79.707336%, 39.096069%)" offset="0.667969"/><stop stop-opacity="1" stop-color="rgb(93.023682%, 80.734253%, 40.458679%)" offset="0.671875"/><stop stop-opacity="1" stop-color="rgb(93.336487%, 81.573486%, 41.610718%)" offset="0.675781"/><stop stop-opacity="1" stop-color="rgb(93.649292%, 82.414246%, 42.762756%)" offset="0.679688"/><stop stop-opacity="1" stop-color="rgb(93.960571%, 83.253479%, 43.914795%)" offset="0.683594"/><stop stop-opacity="1" stop-color="rgb(94.273376%, 84.092712%, 45.066833%)" offset="0.6875"/><stop stop-opacity="1" stop-color="rgb(94.586182%, 84.931946%, 46.218872%)" offset="0.691406"/><stop stop-opacity="1" stop-color="rgb(94.898987%, 85.771179%, 47.370911%)" offset="0.695313"/><stop stop-opacity="1" stop-color="rgb(95.210266%, 86.610413%, 48.522949%)" offset="0.699219"/><stop stop-opacity="1" stop-color="rgb(95.523071%, 87.451172%, 49.674988%)" offset="0.703125"/><stop stop-opacity="1" stop-color="rgb(95.828247%, 88.269043%, 50.799561%)" offset="0.707031"/><stop stop-opacity="1" stop-color="rgb(96.133423%, 89.08844%, 51.924133%)" offset="0.710938"/><stop stop-opacity="1" stop-color="rgb(96.357727%, 89.663696%, 52.723694%)" offset="0.714844"/><stop stop-opacity="1" stop-color="rgb(96.583557%, 90.240479%, 53.52478%)" offset="0.71875"/><stop stop-opacity="1" stop-color="rgb(96.807861%, 90.815735%, 54.324341%)" offset="0.722656"/><stop stop-opacity="1" stop-color="rgb(97.032166%, 91.392517%, 55.125427%)" offset="0.726563"/><stop stop-opacity="1" stop-color="rgb(97.25647%, 91.967773%, 55.924988%)" offset="0.730469"/><stop stop-opacity="1" stop-color="rgb(97.480774%, 92.544556%, 56.726074%)" offset="0.734375"/><stop stop-opacity="1" stop-color="rgb(97.705078%, 93.119812%, 57.527161%)" offset="0.738281"/><stop stop-opacity="1" stop-color="rgb(97.930908%, 93.696594%, 58.328247%)" offset="0.742188"/><stop stop-opacity="1" stop-color="rgb(98.155212%, 94.271851%, 59.127808%)" offset="0.746094"/><stop stop-opacity="1" stop-color="rgb(98.379517%, 94.848633%, 59.928894%)" offset="0.75"/><stop stop-opacity="1" stop-color="rgb(98.538208%, 95.358276%, 60.598755%)" offset="0.753906"/><stop stop-opacity="1" stop-color="rgb(98.698425%, 95.869446%, 61.268616%)" offset="0.757813"/><stop stop-opacity="1" stop-color="rgb(98.854065%, 96.376038%, 61.932373%)" offset="0.761719"/><stop stop-opacity="1" stop-color="rgb(99.009705%, 96.884155%, 62.59613%)" offset="0.765625"/><stop stop-opacity="1" stop-color="rgb(99.165344%, 97.392273%, 63.259888%)" offset="0.769531"/><stop stop-opacity="1" stop-color="rgb(99.32251%, 97.900391%, 63.923645%)" offset="0.773438"/><stop stop-opacity="1" stop-color="rgb(99.464417%, 98.362732%, 64.529419%)" offset="0.777344"/><stop stop-opacity="1" stop-color="rgb(99.607849%, 98.826599%, 65.135193%)" offset="0.78125"/><stop stop-opacity="1" stop-color="rgb(99.645996%, 98.942566%, 65.290833%)" offset="0.789063"/><stop stop-opacity="1" stop-color="rgb(99.725342%, 99.177551%, 65.603638%)" offset="0.796875"/><stop stop-opacity="1" stop-color="rgb(99.803162%, 99.411011%, 65.914917%)" offset="0.804688"/><stop stop-opacity="1" stop-color="rgb(99.880981%, 99.645996%, 66.227722%)" offset="0.8125"/><stop stop-opacity="1" stop-color="rgb(99.958801%, 99.879456%, 66.540527%)" offset="0.820313"/><stop stop-opacity="1" stop-color="rgb(99.894714%, 99.739075%, 66.33606%)" offset="0.824219"/><stop stop-opacity="1" stop-color="rgb(99.79248%, 99.482727%, 65.975952%)" offset="0.828125"/><stop stop-opacity="1" stop-color="rgb(99.688721%, 99.221802%, 65.611267%)" offset="0.832031"/><stop stop-opacity="1" stop-color="rgb(99.584961%, 98.962402%, 65.246582%)" offset="0.835938"/><stop stop-opacity="1" stop-color="rgb(99.479675%, 98.701477%, 64.881897%)" offset="0.839844"/><stop stop-opacity="1" stop-color="rgb(99.375916%, 98.442078%, 64.518738%)" offset="0.84375"/><stop stop-opacity="1" stop-color="rgb(99.264526%, 98.155212%, 64.122009%)" offset="0.847656"/><stop stop-opacity="1" stop-color="rgb(99.154663%, 97.869873%, 63.725281%)" offset="0.851563"/><stop stop-opacity="1" stop-color="rgb(99.005127%, 97.439575%, 63.146973%)" offset="0.855469"/><stop stop-opacity="1" stop-color="rgb(98.857117%, 97.010803%, 62.568665%)" offset="0.859375"/><stop stop-opacity="1" stop-color="rgb(98.709106%, 96.580505%, 61.990356%)" offset="0.863281"/><stop stop-opacity="1" stop-color="rgb(98.561096%, 96.151733%, 61.413574%)" offset="0.867188"/><stop stop-opacity="1" stop-color="rgb(98.41156%, 95.721436%, 60.835266%)" offset="0.871094"/><stop stop-opacity="1" stop-color="rgb(98.26355%, 95.292664%, 60.256958%)" offset="0.875"/><stop stop-opacity="1" stop-color="rgb(98.11554%, 94.862366%, 59.67865%)" offset="0.878906"/><stop stop-opacity="1" stop-color="rgb(97.967529%, 94.433594%, 59.101868%)" offset="0.882812"/><stop stop-opacity="1" stop-color="rgb(97.817993%, 94.003296%, 58.52356%)" offset="0.886719"/><stop stop-opacity="1" stop-color="rgb(97.669983%, 93.574524%, 57.945251%)" offset="0.890625"/><stop stop-opacity="1" stop-color="rgb(97.521973%, 93.144226%, 57.366943%)" offset="0.894531"/><stop stop-opacity="1" stop-color="rgb(97.373962%, 92.715454%, 56.790161%)" offset="0.898438"/><stop stop-opacity="1" stop-color="rgb(97.180176%, 92.169189%, 56.05011%)" offset="0.902344"/><stop stop-opacity="1" stop-color="rgb(96.987915%, 91.622925%, 55.311584%)" offset="0.90625"/><stop stop-opacity="1" stop-color="rgb(96.77887%, 91.036987%, 54.516602%)" offset="0.910156"/><stop stop-opacity="1" stop-color="rgb(96.57135%, 90.45105%, 53.723145%)" offset="0.914062"/><stop stop-opacity="1" stop-color="rgb(96.362305%, 89.865112%, 52.928162%)" offset="0.917969"/><stop stop-opacity="1" stop-color="rgb(96.154785%, 89.279175%, 52.134705%)" offset="0.921875"/><stop stop-opacity="1" stop-color="rgb(95.94574%, 88.693237%, 51.341248%)" offset="0.925781"/><stop stop-opacity="1" stop-color="rgb(95.73822%, 88.108826%, 50.547791%)" offset="0.929687"/><stop stop-opacity="1" stop-color="rgb(95.529175%, 87.522888%, 49.752808%)" offset="0.933594"/><stop stop-opacity="1" stop-color="rgb(95.321655%, 86.936951%, 48.959351%)" offset="0.9375"/><stop stop-opacity="1" stop-color="rgb(95.11261%, 86.351013%, 48.164368%)" offset="0.941406"/><stop stop-opacity="1" stop-color="rgb(94.90509%, 85.765076%, 47.370911%)" offset="0.945312"/><stop stop-opacity="1" stop-color="rgb(94.696045%, 85.179138%, 46.575928%)" offset="0.949219"/><stop stop-opacity="1" stop-color="rgb(94.488525%, 84.594727%, 45.782471%)" offset="0.953125"/><stop stop-opacity="1" stop-color="rgb(94.276428%, 83.996582%, 44.972229%)" offset="0.957031"/><stop stop-opacity="1" stop-color="rgb(94.064331%, 83.399963%, 44.163513%)" offset="0.960937"/><stop stop-opacity="1" stop-color="rgb(93.800354%, 82.63855%, 43.128967%)" offset="0.964844"/><stop stop-opacity="1" stop-color="rgb(93.537903%, 81.877136%, 42.094421%)" offset="0.96875"/><stop stop-opacity="1" stop-color="rgb(93.273926%, 81.115723%, 41.059875%)" offset="0.972656"/><stop stop-opacity="1" stop-color="rgb(93.009949%, 80.354309%, 40.02533%)" offset="0.976562"/><stop stop-opacity="1" stop-color="rgb(92.745972%, 79.592896%, 38.989258%)" offset="0.980469"/><stop stop-opacity="1" stop-color="rgb(92.483521%, 78.831482%, 37.954712%)" offset="0.984375"/><stop stop-opacity="1" stop-color="rgb(92.219543%, 78.070068%, 36.920166%)" offset="0.988281"/><stop stop-opacity="1" stop-color="rgb(91.955566%, 77.308655%, 35.88562%)" offset="0.992187"/><stop stop-opacity="1" stop-color="rgb(91.691589%, 76.547241%, 34.851074%)" offset="0.996094"/><stop stop-opacity="1" stop-color="rgb(91.429138%, 75.785828%, 33.816528%)" offset="1"/></linearGradient></defs><g clip-path="url(#c395049d4d)"><g clip-path="url(#4461cba84b)"><path fill="url(#fba11fef2c)" d="M 8.875 8.792969 L 8.875 20.351562 L 141.605469 20.351562 L 141.605469 8.792969 Z M 8.875 8.792969 " fill-rule="nonzero"/></g></g></svg>