<svg xmlns="http://www.w3.org/2000/svg" xmlns:xlink="http://www.w3.org/1999/xlink" width="200" zoomAndPan="magnify" viewBox="0 0 150 30.000001" height="40" preserveAspectRatio="xMidYMid meet" version="1.0"><defs><clipPath id="aa21fbfa2f"><path d="M 13.226562 9.496094 L 136.613281 9.496094 L 136.613281 19.660156 L 13.226562 19.660156 Z M 13.226562 9.496094 " clip-rule="nonzero"/></clipPath></defs><g clip-path="url(#aa21fbfa2f)"><path fill="#b20011" d="M 71.730469 17.757812 C 72.101562 18.03125 72.472656 18.300781 72.816406 18.621094 L 70.351562 17.414062 C 69.539062 16.992188 68.722656 16.597656 67.886719 16.253906 C 67.046875 15.910156 66.183594 15.613281 65.320312 15.339844 C 64.875 15.21875 64.457031 15.09375 64.011719 14.996094 C 63.570312 14.898438 63.125 14.773438 62.683594 14.699219 C 60.90625 14.378906 59.082031 14.183594 57.28125 14.132812 C 55.457031 14.109375 53.65625 14.15625 51.832031 14.332031 C 48.207031 14.652344 44.605469 15.339844 41.03125 16.105469 C 37.453125 16.945312 33.902344 17.832031 30.351562 18.695312 L 30.378906 18.695312 C 30.007812 18.792969 29.710938 18.84375 29.390625 18.917969 C 29.070312 18.964844 28.75 19.039062 28.429688 19.089844 C 27.789062 19.1875 27.121094 19.285156 26.480469 19.335938 C 25.175781 19.460938 23.867188 19.535156 22.558594 19.484375 C 21.253906 19.433594 19.921875 19.261719 18.640625 18.890625 C 18.320312 18.792969 18 18.71875 17.703125 18.570312 L 16.789062 18.175781 C 16.222656 17.832031 15.605469 17.511719 15.113281 17.042969 C 14.621094 16.597656 14.175781 16.054688 13.855469 15.464844 C 13.535156 14.871094 13.335938 14.15625 13.363281 13.46875 C 13.410156 12.777344 13.585938 12.085938 13.953125 11.496094 C 14.152344 11.199219 14.375 10.925781 14.644531 10.707031 C 14.914062 10.484375 15.210938 10.3125 15.53125 10.164062 C 16.863281 9.523438 18.714844 10.582031 18.640625 12.136719 C 18.640625 12.503906 18.515625 12.851562 18.367188 13.21875 C 18.292969 13.394531 18.171875 13.566406 18.046875 13.714844 C 17.898438 13.863281 17.726562 13.984375 17.53125 14.082031 C 17.136719 14.28125 16.59375 14.304688 16.199219 14.058594 C 15.804688 13.835938 15.582031 13.417969 15.703125 12.949219 C 16.171875 13.023438 16.421875 13.097656 16.617188 13.148438 C 16.816406 13.171875 16.960938 13.21875 17.183594 13.171875 C 17.382812 13.121094 17.628906 13 17.824219 12.824219 C 18.046875 12.652344 18.195312 12.382812 18.195312 12.085938 C 18.21875 11.519531 17.824219 11 17.332031 10.707031 C 16.839844 10.386719 16.222656 10.359375 15.679688 10.605469 C 15.457031 10.730469 15.1875 10.878906 14.964844 11.074219 C 14.71875 11.273438 14.519531 11.496094 14.375 11.742188 C 14.050781 12.257812 13.878906 12.875 13.855469 13.46875 C 13.832031 14.675781 14.546875 15.808594 15.457031 16.625 C 15.902344 17.042969 16.46875 17.339844 17.011719 17.660156 L 17.875 18.03125 C 18.171875 18.152344 18.46875 18.226562 18.789062 18.324219 C 20.019531 18.644531 21.277344 18.820312 22.558594 18.867188 C 23.84375 18.917969 25.125 18.84375 26.40625 18.71875 C 27.046875 18.644531 27.691406 18.570312 28.304688 18.449219 C 28.625 18.398438 28.945312 18.324219 29.242188 18.277344 C 29.539062 18.226562 29.910156 18.128906 30.15625 18.078125 L 30.179688 18.078125 C 33.730469 17.167969 37.28125 16.253906 40.882812 15.488281 C 44.457031 14.726562 48.082031 14.035156 51.757812 13.714844 C 53.582031 13.542969 55.433594 13.492188 57.28125 13.542969 C 59.128906 13.613281 60.957031 13.8125 62.78125 14.15625 C 63.222656 14.257812 63.667969 14.378906 64.136719 14.476562 C 64.582031 14.578125 65.023438 14.699219 65.46875 14.847656 C 66.355469 15.121094 67.21875 15.441406 68.082031 15.808594 C 68.921875 16.179688 69.757812 16.574219 70.574219 17.019531 C 70.992188 17.214844 71.363281 17.488281 71.730469 17.757812 Z M 74.914062 14.453125 C 74 11.496094 69.167969 14.675781 74.914062 18.03125 C 80.683594 14.675781 75.824219 11.496094 74.914062 14.453125 Z M 19.972656 17.414062 C 21.105469 17.734375 22.3125 17.90625 23.496094 17.929688 C 25.914062 17.90625 28.230469 17.363281 30.527344 16.820312 C 35.113281 15.734375 39.648438 14.378906 44.238281 13.441406 C 48.796875 12.503906 53.507812 12.160156 58.167969 12.605469 C 62.828125 13.023438 67.367188 14.453125 71.585938 16.574219 C 69.5625 15.367188 67.390625 14.40625 65.148438 13.613281 C 64.039062 13.21875 62.902344 12.898438 61.746094 12.605469 C 60.585938 12.332031 59.425781 12.136719 58.242188 11.988281 C 53.53125 11.371094 48.722656 11.59375 44.0625 12.53125 C 39.402344 13.492188 34.914062 14.921875 30.378906 16.15625 C 28.109375 16.746094 25.816406 17.363281 23.523438 17.4375 C 22.363281 17.460938 21.203125 17.3125 20.070312 17.066406 C 18.933594 16.84375 17.851562 16.378906 16.789062 15.859375 C 17.726562 16.574219 18.8125 17.117188 19.972656 17.414062 Z M 136.636719 13.441406 C 136.585938 12.753906 136.414062 12.0625 136.042969 11.46875 C 135.847656 11.175781 135.625 10.902344 135.355469 10.679688 C 135.082031 10.457031 134.789062 10.285156 134.464844 10.136719 C 133.136719 9.496094 131.285156 10.558594 131.359375 12.109375 C 131.359375 12.480469 131.484375 12.824219 131.628906 13.195312 C 131.703125 13.367188 131.828125 13.542969 131.953125 13.6875 C 132.097656 13.835938 132.273438 13.960938 132.46875 14.058594 C 132.863281 14.257812 133.40625 14.28125 133.800781 14.035156 C 134.195312 13.8125 134.417969 13.394531 134.292969 12.925781 C 133.824219 13 133.578125 13.074219 133.382812 13.121094 C 133.183594 13.148438 133.035156 13.195312 132.8125 13.148438 C 132.617188 13.097656 132.371094 12.972656 132.171875 12.800781 C 131.953125 12.628906 131.804688 12.359375 131.804688 12.0625 C 131.777344 11.496094 132.171875 10.976562 132.667969 10.679688 C 133.160156 10.359375 133.777344 10.335938 134.320312 10.582031 C 134.589844 10.707031 134.859375 10.851562 135.082031 11.050781 C 135.304688 11.222656 135.503906 11.46875 135.675781 11.714844 C 135.996094 12.234375 136.167969 12.851562 136.191406 13.441406 C 136.21875 14.652344 135.527344 15.785156 134.589844 16.597656 C 134.144531 17.019531 133.578125 17.3125 133.035156 17.636719 L 132.171875 18.003906 C 131.878906 18.128906 131.582031 18.203125 131.261719 18.300781 C 130.027344 18.621094 128.769531 18.792969 127.488281 18.84375 C 126.207031 18.890625 124.921875 18.820312 123.640625 18.695312 C 123 18.621094 122.359375 18.546875 121.742188 18.425781 C 121.421875 18.375 121.101562 18.300781 120.804688 18.25 C 120.507812 18.203125 120.140625 18.101562 119.894531 18.054688 L 119.867188 18.054688 C 116.316406 17.140625 112.765625 16.230469 109.164062 15.464844 C 105.589844 14.699219 101.964844 14.011719 98.289062 13.6875 C 96.464844 13.515625 94.617188 13.46875 92.765625 13.515625 C 90.917969 13.589844 89.09375 13.789062 87.269531 14.132812 C 86.824219 14.230469 86.378906 14.355469 85.910156 14.453125 C 85.46875 14.550781 85.023438 14.675781 84.578125 14.824219 C 83.691406 15.09375 82.828125 15.414062 81.964844 15.785156 C 81.128906 16.15625 80.289062 16.550781 79.476562 16.992188 C 79.082031 17.214844 78.6875 17.488281 78.316406 17.757812 C 77.945312 18.03125 77.578125 18.300781 77.230469 18.621094 L 79.695312 17.414062 C 80.511719 16.992188 81.324219 16.597656 82.164062 16.253906 C 83 15.910156 83.863281 15.613281 84.726562 15.339844 C 85.171875 15.21875 85.589844 15.09375 86.035156 14.996094 C 86.480469 14.898438 86.921875 14.773438 87.367188 14.699219 C 89.140625 14.378906 90.964844 14.183594 92.765625 14.132812 C 94.589844 14.109375 96.390625 14.15625 98.214844 14.332031 C 101.839844 14.652344 105.441406 15.339844 109.019531 16.105469 C 112.59375 16.894531 116.144531 17.78125 119.695312 18.671875 L 119.671875 18.671875 C 120.039062 18.769531 120.335938 18.820312 120.65625 18.890625 C 120.976562 18.941406 121.296875 19.015625 121.617188 19.066406 C 122.261719 19.164062 122.925781 19.261719 123.566406 19.3125 C 124.875 19.433594 126.179688 19.507812 127.488281 19.460938 C 128.792969 19.410156 130.125 19.238281 131.410156 18.867188 C 131.730469 18.769531 132.050781 18.695312 132.347656 18.546875 L 133.257812 18.152344 C 133.824219 17.808594 134.441406 17.488281 134.933594 17.019531 C 135.429688 16.574219 135.871094 16.03125 136.191406 15.441406 C 136.464844 14.847656 136.660156 14.132812 136.636719 13.441406 Z M 105.738281 13.441406 C 110.324219 14.378906 114.835938 15.734375 119.449219 16.820312 C 121.742188 17.339844 124.058594 17.90625 126.476562 17.929688 C 127.683594 17.90625 128.867188 17.734375 130.003906 17.414062 C 131.164062 17.117188 132.246094 16.574219 133.207031 15.910156 C 132.148438 16.425781 131.0625 16.894531 129.929688 17.117188 C 128.792969 17.363281 127.636719 17.488281 126.476562 17.488281 C 124.160156 17.414062 121.867188 16.796875 119.621094 16.203125 C 115.082031 14.972656 110.597656 13.542969 105.933594 12.578125 C 101.273438 11.640625 96.464844 11.421875 91.753906 12.035156 C 90.570312 12.183594 89.414062 12.382812 88.253906 12.652344 C 87.09375 12.925781 85.960938 13.269531 84.851562 13.664062 C 82.605469 14.429688 80.460938 15.414062 78.414062 16.625 C 82.605469 14.503906 87.167969 13.074219 91.828125 12.652344 C 96.464844 12.160156 101.152344 12.503906 105.738281 13.441406 Z M 105.738281 13.441406 " fill-opacity="1" fill-rule="nonzero"/></g></svg>