<svg xmlns="http://www.w3.org/2000/svg" xmlns:xlink="http://www.w3.org/1999/xlink" width="70" zoomAndPan="magnify" viewBox="0 0 52.5 52.499999" height="70" preserveAspectRatio="xMidYMid meet" version="1.0"><defs><clipPath id="289a8beb27"><path d="M 5.199219 3 L 44.574219 3 L 44.574219 46.773438 L 5.199219 46.773438 Z M 5.199219 3 " clip-rule="nonzero"/></clipPath></defs><g clip-path="url(#289a8beb27)"><path fill="#0833a2" d="M 42.9375 24.007812 L 28.308594 24.007812 L 28.308594 17.414062 L 42.9375 17.414062 Z M 40.246094 45.277344 L 28.308594 45.277344 L 28.308594 25.519531 L 40.246094 25.519531 Z M 22.847656 45.277344 L 22.847656 25.519531 L 26.796875 25.519531 L 26.796875 45.277344 Z M 9.398438 25.519531 L 21.339844 25.519531 L 21.339844 45.277344 L 9.398438 45.277344 Z M 6.707031 17.414062 L 21.339844 17.414062 L 21.339844 24.007812 L 6.707031 24.007812 Z M 11.363281 8.671875 C 11.207031 7.6875 12.34375 6.542969 13.171875 5.707031 C 13.949219 4.921875 14.628906 4.542969 15.316406 4.515625 C 16.175781 4.476562 17.160156 5.007812 18.25 6.082031 C 19.429688 7.253906 21.214844 9.449219 22.550781 11.714844 C 23.191406 12.808594 23.644531 13.78125 23.851562 14.53125 C 23.941406 14.847656 23.976562 15.097656 23.984375 15.292969 L 13.390625 10.632812 C 12.535156 10.191406 11.496094 9.496094 11.363281 8.671875 Z M 25.714844 14.53125 C 25.921875 13.78125 26.371094 12.808594 27.015625 11.714844 C 28.351562 9.449219 30.136719 7.253906 31.316406 6.082031 C 32.40625 5.007812 33.390625 4.480469 34.25 4.515625 C 34.9375 4.542969 35.617188 4.921875 36.394531 5.707031 C 37.222656 6.542969 38.359375 7.6875 38.203125 8.671875 C 38.070312 9.496094 37.03125 10.191406 36.175781 10.632812 L 25.582031 15.292969 C 25.589844 15.097656 25.625 14.847656 25.714844 14.53125 Z M 26.796875 24.007812 L 22.847656 24.007812 L 22.847656 17.414062 L 26.796875 17.414062 Z M 43.691406 15.90625 L 27.941406 15.90625 L 36.804688 12.003906 C 36.816406 12 36.832031 11.992188 36.84375 11.988281 C 38.574219 11.101562 39.503906 10.09375 39.695312 8.910156 C 39.972656 7.171875 38.523438 5.710938 37.46875 4.644531 C 36.421875 3.585938 35.390625 3.050781 34.3125 3.003906 C 33 2.949219 31.671875 3.605469 30.253906 5.011719 C 28.753906 6.496094 26.929688 8.886719 25.714844 10.949219 C 25.339844 11.585938 25.03125 12.175781 24.78125 12.726562 C 24.535156 12.175781 24.226562 11.585938 23.851562 10.949219 C 22.636719 8.886719 20.8125 6.496094 19.3125 5.011719 C 17.894531 3.605469 16.566406 2.949219 15.253906 3.003906 C 14.175781 3.050781 13.144531 3.585938 12.097656 4.644531 C 11.042969 5.710938 9.59375 7.171875 9.871094 8.910156 C 10.0625 10.09375 10.992188 11.101562 12.722656 11.988281 C 12.734375 11.992188 12.75 12 12.761719 12.003906 L 21.625 15.90625 L 5.953125 15.90625 C 5.535156 15.90625 5.199219 16.242188 5.199219 16.660156 L 5.199219 24.761719 C 5.199219 25.179688 5.535156 25.519531 5.953125 25.519531 L 7.890625 25.519531 L 7.890625 46.035156 C 7.890625 46.449219 8.226562 46.789062 8.644531 46.789062 L 41 46.789062 C 41.417969 46.789062 41.753906 46.449219 41.753906 46.035156 L 41.753906 25.519531 L 43.691406 25.519531 C 44.109375 25.519531 44.445312 25.179688 44.445312 24.761719 L 44.445312 16.660156 C 44.445312 16.242188 44.109375 15.90625 43.691406 15.90625 " fill-opacity="1" fill-rule="nonzero"/></g></svg>