<svg xmlns="http://www.w3.org/2000/svg" xmlns:xlink="http://www.w3.org/1999/xlink" width="70" zoomAndPan="magnify" viewBox="0 0 52.5 52.499999" height="70" preserveAspectRatio="xMidYMid meet" version="1.0"><defs><clipPath id="a3f7b98bbb"><path d="M 5.503906 2.929688 L 47 2.929688 L 47 48.992188 L 5.503906 48.992188 Z M 5.503906 2.929688 " clip-rule="nonzero"/></clipPath></defs><g clip-path="url(#a3f7b98bbb)"><path fill="#0833a2" d="M 45.203125 25.09375 L 29.8125 25.09375 L 29.8125 18.15625 L 45.203125 18.15625 Z M 42.371094 47.472656 L 29.8125 47.472656 L 29.8125 26.683594 L 42.371094 26.683594 Z M 24.070312 47.472656 L 24.070312 26.683594 L 28.222656 26.683594 L 28.222656 47.472656 Z M 9.921875 26.683594 L 22.480469 26.683594 L 22.480469 47.472656 L 9.921875 47.472656 Z M 7.089844 18.15625 L 22.480469 18.15625 L 22.480469 25.09375 L 7.089844 25.09375 Z M 11.988281 8.960938 C 11.820312 7.925781 13.015625 6.71875 13.886719 5.839844 C 14.707031 5.011719 15.421875 4.617188 16.148438 4.585938 C 17.050781 4.546875 18.085938 5.101562 19.230469 6.234375 C 20.472656 7.464844 22.351562 9.773438 23.757812 12.160156 C 24.433594 13.3125 24.90625 14.335938 25.125 15.125 C 25.21875 15.457031 25.257812 15.71875 25.265625 15.925781 L 14.121094 11.023438 C 13.21875 10.558594 12.125 9.824219 11.988281 8.960938 Z M 27.085938 15.125 C 27.304688 14.335938 27.777344 13.3125 28.453125 12.160156 C 29.855469 9.773438 31.738281 7.464844 32.980469 6.234375 C 34.125 5.101562 35.160156 4.546875 36.0625 4.585938 C 36.789062 4.617188 37.503906 5.011719 38.320312 5.839844 C 39.195312 6.71875 40.386719 7.925781 40.222656 8.960938 C 40.085938 9.824219 38.992188 10.558594 38.089844 11.023438 L 26.945312 15.925781 C 26.953125 15.71875 26.992188 15.457031 27.085938 15.125 Z M 28.222656 25.09375 L 24.070312 25.09375 L 24.070312 18.15625 L 28.222656 18.15625 Z M 45.996094 16.570312 L 29.425781 16.570312 L 38.75 12.464844 C 38.765625 12.460938 38.78125 12.453125 38.792969 12.445312 C 40.613281 11.515625 41.59375 10.457031 41.792969 9.210938 C 42.085938 7.378906 40.5625 5.84375 39.449219 4.71875 C 38.347656 3.609375 37.261719 3.046875 36.128906 2.996094 C 34.75 2.941406 33.355469 3.628906 31.863281 5.105469 C 30.28125 6.671875 28.363281 9.183594 27.085938 11.355469 C 26.691406 12.023438 26.367188 12.648438 26.105469 13.222656 C 25.84375 12.648438 25.519531 12.023438 25.125 11.355469 C 23.847656 9.183594 21.925781 6.671875 20.347656 5.105469 C 18.855469 3.628906 17.460938 2.941406 16.082031 2.996094 C 14.945312 3.046875 13.859375 3.609375 12.761719 4.71875 C 11.648438 5.84375 10.125 7.378906 10.417969 9.210938 C 10.617188 10.457031 11.597656 11.515625 13.414062 12.445312 C 13.429688 12.453125 13.445312 12.460938 13.457031 12.464844 L 22.785156 16.570312 L 6.296875 16.570312 C 5.855469 16.570312 5.5 16.925781 5.5 17.363281 L 5.5 25.886719 C 5.5 26.328125 5.855469 26.683594 6.296875 26.683594 L 8.332031 26.683594 L 8.332031 48.265625 C 8.332031 48.703125 8.6875 49.058594 9.125 49.058594 L 43.167969 49.058594 C 43.605469 49.058594 43.960938 48.703125 43.960938 48.265625 L 43.960938 26.683594 L 45.996094 26.683594 C 46.4375 26.683594 46.792969 26.328125 46.792969 25.886719 L 46.792969 17.363281 C 46.792969 16.925781 46.4375 16.570312 45.996094 16.570312 " fill-opacity="1" fill-rule="nonzero"/></g></svg>