<svg xmlns="http://www.w3.org/2000/svg" xmlns:xlink="http://www.w3.org/1999/xlink" width="70" zoomAndPan="magnify" viewBox="0 0 52.5 52.499999" height="70" preserveAspectRatio="xMidYMid meet" version="1.0"><defs><clipPath id="bb4205626e"><path d="M 5.199219 5.199219 L 46.804688 5.199219 L 46.804688 46.804688 L 5.199219 46.804688 Z M 5.199219 5.199219 " clip-rule="nonzero"/></clipPath><clipPath id="d3c8a55d79"><path d="M 46.804688 26.003906 C 46.804688 37.492188 37.492188 46.804688 26.003906 46.804688 C 14.515625 46.804688 5.199219 37.492188 5.199219 26.003906 C 5.199219 14.511719 14.515625 5.199219 26.003906 5.199219 C 37.492188 5.199219 46.804688 14.511719 46.804688 26.003906 Z M 46.804688 26.003906 " clip-rule="nonzero"/></clipPath><clipPath id="823bf986e9"><path d="M 46.804688 26.003906 C 46.804688 37.492188 37.492188 46.804688 26.003906 46.804688 C 14.515625 46.804688 5.199219 37.492188 5.199219 26.003906 C 5.199219 14.511719 14.515625 5.199219 26.003906 5.199219 C 37.492188 5.199219 46.804688 14.511719 46.804688 26.003906 " clip-rule="nonzero"/></clipPath><clipPath id="178561a7e1"><path d="M -15.601562 26.003906 L 26.003906 67.605469 L 67.605469 26.003906 L 26.003906 -15.601562 Z M -15.601562 26.003906 " clip-rule="nonzero"/></clipPath><linearGradient x1="-0.20711" gradientTransform="matrix(29.418026, -29.418026, 29.418026, 29.418026, 11.293137, 40.711375)" y1="0" x2="1.207117" gradientUnits="userSpaceOnUse" y2="0" id="8823e9aab1"><stop stop-opacity="1" stop-color="rgb(70.599365%, 42.698669%, 44.699097%)" offset="0"/><stop stop-opacity="1" stop-color="rgb(70.599365%, 42.698669%, 44.699097%)" offset="0.125"/><stop stop-opacity="1" stop-color="rgb(70.599365%, 42.698669%, 44.699097%)" offset="0.140625"/><stop stop-opacity="1" stop-color="rgb(70.799255%, 42.698669%, 44.699097%)" offset="0.144531"/><stop stop-opacity="1" stop-color="rgb(70.999146%, 42.698669%, 44.699097%)" offset="0.148438"/><stop stop-opacity="1" stop-color="rgb(71.398926%, 43.09845%, 45.098877%)" offset="0.152344"/><stop stop-opacity="1" stop-color="rgb(71.798706%, 43.499756%, 45.500183%)" offset="0.15625"/><stop stop-opacity="1" stop-color="rgb(72.148132%, 44.099426%, 46.099854%)" offset="0.160156"/><stop stop-opacity="1" stop-color="rgb(72.499084%, 44.700623%, 46.699524%)" offset="0.164063"/><stop stop-opacity="1" stop-color="rgb(72.898865%, 45.298767%, 47.24884%)" offset="0.167969"/><stop stop-opacity="1" stop-color="rgb(73.298645%, 45.898438%, 47.798157%)" offset="0.171875"/><stop stop-opacity="1" stop-color="rgb(73.698425%, 46.498108%, 48.197937%)" offset="0.175781"/><stop stop-opacity="1" stop-color="rgb(74.099731%, 47.099304%, 48.599243%)" offset="0.179688"/><stop stop-opacity="1" stop-color="rgb(74.699402%, 47.648621%, 49.198914%)" offset="0.183594"/><stop stop-opacity="1" stop-color="rgb(75.299072%, 48.199463%, 49.80011%)" offset="0.1875"/><stop stop-opacity="1" stop-color="rgb(75.498962%, 48.799133%, 50.19989%)" offset="0.191406"/><stop stop-opacity="1" stop-color="rgb(75.700378%, 49.40033%, 50.59967%)" offset="0.195312"/><stop stop-opacity="1" stop-color="rgb(76.300049%, 50%, 51.199341%)" offset="0.199219"/><stop stop-opacity="1" stop-color="rgb(76.899719%, 50.601196%, 51.800537%)" offset="0.203125"/><stop stop-opacity="1" stop-color="rgb(77.249146%, 51.199341%, 52.149963%)" offset="0.207031"/><stop stop-opacity="1" stop-color="rgb(77.598572%, 51.799011%, 52.49939%)" offset="0.210938"/><stop stop-opacity="1" stop-color="rgb(78.198242%, 52.549744%, 53.29895%)" offset="0.214844"/><stop stop-opacity="1" stop-color="rgb(78.799438%, 53.300476%, 54.100037%)" offset="0.21875"/><stop stop-opacity="1" stop-color="rgb(79.199219%, 53.900146%, 54.699707%)" offset="0.222656"/><stop stop-opacity="1" stop-color="rgb(79.600525%, 54.499817%, 55.299377%)" offset="0.226562"/><stop stop-opacity="1" stop-color="rgb(80.198669%, 55.299377%, 55.899048%)" offset="0.230469"/><stop stop-opacity="1" stop-color="rgb(80.79834%, 56.098938%, 56.498718%)" offset="0.234375"/><stop stop-opacity="1" stop-color="rgb(81.39801%, 56.848145%, 57.048035%)" offset="0.238281"/><stop stop-opacity="1" stop-color="rgb(81.999207%, 57.598877%, 57.598877%)" offset="0.242188"/><stop stop-opacity="1" stop-color="rgb(82.548523%, 58.398438%, 58.198547%)" offset="0.246094"/><stop stop-opacity="1" stop-color="rgb(83.099365%, 59.199524%, 58.799744%)" offset="0.25"/><stop stop-opacity="1" stop-color="rgb(83.699036%, 59.799194%, 59.599304%)" offset="0.253906"/><stop stop-opacity="1" stop-color="rgb(84.300232%, 60.400391%, 60.400391%)" offset="0.257812"/><stop stop-opacity="1" stop-color="rgb(84.899902%, 61.000061%, 60.800171%)" offset="0.261719"/><stop stop-opacity="1" stop-color="rgb(85.499573%, 61.601257%, 61.201477%)" offset="0.265625"/><stop stop-opacity="1" stop-color="rgb(86.099243%, 62.150574%, 61.950684%)" offset="0.269531"/><stop stop-opacity="1" stop-color="rgb(86.698914%, 62.69989%, 62.69989%)" offset="0.273438"/><stop stop-opacity="1" stop-color="rgb(87.098694%, 63.499451%, 63.299561%)" offset="0.277344"/><stop stop-opacity="1" stop-color="rgb(87.5%, 64.300537%, 63.899231%)" offset="0.28125"/><stop stop-opacity="1" stop-color="rgb(88.049316%, 65.100098%, 64.698792%)" offset="0.285156"/><stop stop-opacity="1" stop-color="rgb(88.600159%, 65.901184%, 65.499878%)" offset="0.289062"/><stop stop-opacity="1" stop-color="rgb(89.199829%, 66.699219%, 66.299438%)" offset="0.292969"/><stop stop-opacity="1" stop-color="rgb(89.7995%, 67.498779%, 67.098999%)" offset="0.296875"/><stop stop-opacity="1" stop-color="rgb(90.39917%, 68.048096%, 67.448425%)" offset="0.300781"/><stop stop-opacity="1" stop-color="rgb(90.99884%, 68.598938%, 67.799377%)" offset="0.304688"/><stop stop-opacity="1" stop-color="rgb(91.398621%, 69.398499%, 68.598938%)" offset="0.308594"/><stop stop-opacity="1" stop-color="rgb(91.799927%, 70.199585%, 69.400024%)" offset="0.3125"/><stop stop-opacity="1" stop-color="rgb(92.349243%, 70.799255%, 69.999695%)" offset="0.316406"/><stop stop-opacity="1" stop-color="rgb(92.900085%, 71.400452%, 70.600891%)" offset="0.320312"/><stop stop-opacity="1" stop-color="rgb(93.499756%, 72.149658%, 71.549988%)" offset="0.324219"/><stop stop-opacity="1" stop-color="rgb(94.100952%, 72.900391%, 72.50061%)" offset="0.328125"/><stop stop-opacity="1" stop-color="rgb(94.699097%, 73.899841%, 73.300171%)" offset="0.332031"/><stop stop-opacity="1" stop-color="rgb(95.298767%, 74.899292%, 74.099731%)" offset="0.335938"/><stop stop-opacity="1" stop-color="rgb(95.698547%, 75.498962%, 74.699402%)" offset="0.339844"/><stop stop-opacity="1" stop-color="rgb(96.099854%, 76.098633%, 75.299072%)" offset="0.34375"/><stop stop-opacity="1" stop-color="rgb(96.298218%, 76.098633%, 75.299072%)" offset="0.347656"/><stop stop-opacity="1" stop-color="rgb(96.498108%, 76.098633%, 75.299072%)" offset="0.351562"/><stop stop-opacity="1" stop-color="rgb(96.098328%, 75.898743%, 74.899292%)" offset="0.355469"/><stop stop-opacity="1" stop-color="rgb(95.698547%, 75.698853%, 74.499512%)" offset="0.359375"/><stop stop-opacity="1" stop-color="rgb(95.298767%, 75.099182%, 74.098206%)" offset="0.363281"/><stop stop-opacity="1" stop-color="rgb(94.898987%, 74.499512%, 73.698425%)" offset="0.367188"/><stop stop-opacity="1" stop-color="rgb(94.699097%, 74.098206%, 73.298645%)" offset="0.371094"/><stop stop-opacity="1" stop-color="rgb(94.499207%, 73.698425%, 72.898865%)" offset="0.375"/><stop stop-opacity="1" stop-color="rgb(94.0979%, 73.298645%, 72.547913%)" offset="0.378906"/><stop stop-opacity="1" stop-color="rgb(93.69812%, 72.898865%, 72.198486%)" offset="0.382812"/><stop stop-opacity="1" stop-color="rgb(93.29834%, 72.547913%, 71.59729%)" offset="0.386719"/><stop stop-opacity="1" stop-color="rgb(92.89856%, 72.198486%, 70.99762%)" offset="0.390625"/><stop stop-opacity="1" stop-color="rgb(92.549133%, 71.598816%, 70.597839%)" offset="0.394531"/><stop stop-opacity="1" stop-color="rgb(92.199707%, 70.999146%, 70.199585%)" offset="0.398438"/><stop stop-opacity="1" stop-color="rgb(91.798401%, 70.597839%, 69.798279%)" offset="0.402344"/><stop stop-opacity="1" stop-color="rgb(91.398621%, 70.198059%, 69.398499%)" offset="0.40625"/><stop stop-opacity="1" stop-color="rgb(91.19873%, 69.998169%, 68.998718%)" offset="0.410156"/><stop stop-opacity="1" stop-color="rgb(90.99884%, 69.798279%, 68.598938%)" offset="0.414062"/><stop stop-opacity="1" stop-color="rgb(90.59906%, 69.398499%, 68.199158%)" offset="0.417969"/><stop stop-opacity="1" stop-color="rgb(90.19928%, 68.998718%, 67.799377%)" offset="0.421875"/><stop stop-opacity="1" stop-color="rgb(89.7995%, 68.399048%, 67.448425%)" offset="0.425781"/><stop stop-opacity="1" stop-color="rgb(89.399719%, 67.799377%, 67.098999%)" offset="0.429688"/><stop stop-opacity="1" stop-color="rgb(88.998413%, 67.648315%, 66.699219%)" offset="0.433594"/><stop stop-opacity="1" stop-color="rgb(88.598633%, 67.498779%, 66.299438%)" offset="0.4375"/><stop stop-opacity="1" stop-color="rgb(88.198853%, 66.897583%, 65.698242%)" offset="0.441406"/><stop stop-opacity="1" stop-color="rgb(87.799072%, 66.297913%, 65.098572%)" offset="0.445312"/><stop stop-opacity="1" stop-color="rgb(87.44812%, 65.898132%, 64.697266%)" offset="0.449219"/><stop stop-opacity="1" stop-color="rgb(87.098694%, 65.498352%, 64.297485%)" offset="0.453125"/><stop stop-opacity="1" stop-color="rgb(86.898804%, 65.098572%, 63.897705%)" offset="0.457031"/><stop stop-opacity="1" stop-color="rgb(86.698914%, 64.698792%, 63.499451%)" offset="0.460938"/><stop stop-opacity="1" stop-color="rgb(86.299133%, 64.299011%, 63.098145%)" offset="0.464844"/><stop stop-opacity="1" stop-color="rgb(85.899353%, 63.899231%, 62.698364%)" offset="0.46875"/><stop stop-opacity="1" stop-color="rgb(85.498047%, 63.497925%, 62.347412%)" offset="0.472656"/><stop stop-opacity="1" stop-color="rgb(85.098267%, 63.098145%, 61.997986%)" offset="0.476562"/><stop stop-opacity="1" stop-color="rgb(84.698486%, 62.548828%, 61.598206%)" offset="0.480469"/><stop stop-opacity="1" stop-color="rgb(84.298706%, 61.999512%, 61.198425%)" offset="0.484375"/><stop stop-opacity="1" stop-color="rgb(83.898926%, 61.798096%, 60.998535%)" offset="0.488281"/><stop stop-opacity="1" stop-color="rgb(83.499146%, 61.598206%, 60.798645%)" offset="0.492188"/><stop stop-opacity="1" stop-color="rgb(83.097839%, 61.198425%, 60.398865%)" offset="0.496094"/><stop stop-opacity="1" stop-color="rgb(82.698059%, 60.798645%, 59.999084%)" offset="0.5"/><stop stop-opacity="1" stop-color="rgb(82.546997%, 60.397339%, 59.597778%)" offset="0.503906"/><stop stop-opacity="1" stop-color="rgb(82.397461%, 59.997559%, 59.197998%)" offset="0.507812"/><stop stop-opacity="1" stop-color="rgb(81.797791%, 59.397888%, 58.598328%)" offset="0.511719"/><stop stop-opacity="1" stop-color="rgb(81.19812%, 58.798218%, 57.998657%)" offset="0.515625"/><stop stop-opacity="1" stop-color="rgb(80.79834%, 58.398438%, 57.798767%)" offset="0.519531"/><stop stop-opacity="1" stop-color="rgb(80.39856%, 57.998657%, 57.598877%)" offset="0.523438"/><stop stop-opacity="1" stop-color="rgb(79.998779%, 57.447815%, 57.048035%)" offset="0.527344"/><stop stop-opacity="1" stop-color="rgb(79.598999%, 56.898499%, 56.498718%)" offset="0.53125"/><stop stop-opacity="1" stop-color="rgb(79.197693%, 56.498718%, 56.097412%)" offset="0.535156"/><stop stop-opacity="1" stop-color="rgb(78.797913%, 56.098938%, 55.697632%)" offset="0.539063"/><stop stop-opacity="1" stop-color="rgb(78.398132%, 55.699158%, 55.297852%)" offset="0.542969"/><stop stop-opacity="1" stop-color="rgb(77.998352%, 55.299377%, 54.899597%)" offset="0.546875"/><stop stop-opacity="1" stop-color="rgb(77.648926%, 54.698181%, 54.498291%)" offset="0.550781"/><stop stop-opacity="1" stop-color="rgb(77.2995%, 54.098511%, 54.098511%)" offset="0.554688"/><stop stop-opacity="1" stop-color="rgb(76.898193%, 53.69873%, 53.69873%)" offset="0.558594"/><stop stop-opacity="1" stop-color="rgb(76.498413%, 53.29895%, 53.29895%)" offset="0.5625"/><stop stop-opacity="1" stop-color="rgb(76.098633%, 53.097534%, 52.897644%)" offset="0.566406"/><stop stop-opacity="1" stop-color="rgb(75.698853%, 52.897644%, 52.497864%)" offset="0.570313"/><stop stop-opacity="1" stop-color="rgb(75.299072%, 52.346802%, 52.146912%)" offset="0.574219"/><stop stop-opacity="1" stop-color="rgb(74.899292%, 51.797485%, 51.797485%)" offset="0.578125"/><stop stop-opacity="1" stop-color="rgb(74.699402%, 51.397705%, 51.397705%)" offset="0.582031"/><stop stop-opacity="1" stop-color="rgb(74.499512%, 50.999451%, 50.999451%)" offset="0.585938"/><stop stop-opacity="1" stop-color="rgb(74.098206%, 50.798035%, 50.598145%)" offset="0.589844"/><stop stop-opacity="1" stop-color="rgb(73.698425%, 50.598145%, 50.198364%)" offset="0.59375"/><stop stop-opacity="1" stop-color="rgb(73.298645%, 49.998474%, 49.798584%)" offset="0.597656"/><stop stop-opacity="1" stop-color="rgb(72.898865%, 49.398804%, 49.398804%)" offset="0.601563"/><stop stop-opacity="1" stop-color="rgb(72.547913%, 48.999023%, 49.198914%)" offset="0.605469"/><stop stop-opacity="1" stop-color="rgb(72.198486%, 48.599243%, 48.999023%)" offset="0.609375"/><stop stop-opacity="1" stop-color="rgb(71.798706%, 48.197937%, 48.599243%)" offset="0.613281"/><stop stop-opacity="1" stop-color="rgb(71.398926%, 47.798157%, 48.199463%)" offset="0.617188"/><stop stop-opacity="1" stop-color="rgb(71.199036%, 47.447205%, 47.848511%)" offset="0.621094"/><stop stop-opacity="1" stop-color="rgb(70.999146%, 47.097778%, 47.499084%)" offset="0.625"/><stop stop-opacity="1" stop-color="rgb(70.597839%, 46.697998%, 47.097778%)" offset="0.628906"/><stop stop-opacity="1" stop-color="rgb(70.198059%, 46.298218%, 46.697998%)" offset="0.632812"/><stop stop-opacity="1" stop-color="rgb(69.798279%, 45.697021%, 46.298218%)" offset="0.636719"/><stop stop-opacity="1" stop-color="rgb(69.398499%, 45.097351%, 45.898438%)" offset="0.640625"/><stop stop-opacity="1" stop-color="rgb(69.198608%, 44.697571%, 45.498657%)" offset="0.644531"/><stop stop-opacity="1" stop-color="rgb(68.998718%, 44.299316%, 45.098877%)" offset="0.648438"/><stop stop-opacity="1" stop-color="rgb(68.399048%, 43.89801%, 44.697571%)" offset="0.652344"/><stop stop-opacity="1" stop-color="rgb(67.799377%, 43.49823%, 44.297791%)" offset="0.65625"/><stop stop-opacity="1" stop-color="rgb(67.448425%, 43.09845%, 43.89801%)" offset="0.660156"/><stop stop-opacity="1" stop-color="rgb(67.097473%, 42.698669%, 43.49823%)" offset="0.664062"/><stop stop-opacity="1" stop-color="rgb(66.697693%, 42.347717%, 43.09845%)" offset="0.667969"/><stop stop-opacity="1" stop-color="rgb(66.299438%, 41.998291%, 42.698669%)" offset="0.671875"/><stop stop-opacity="1" stop-color="rgb(66.098022%, 41.598511%, 42.347717%)" offset="0.675781"/><stop stop-opacity="1" stop-color="rgb(65.898132%, 41.19873%, 41.998291%)" offset="0.679688"/><stop stop-opacity="1" stop-color="rgb(65.498352%, 40.597534%, 41.398621%)" offset="0.683594"/><stop stop-opacity="1" stop-color="rgb(65.098572%, 39.997864%, 40.79895%)" offset="0.6875"/><stop stop-opacity="1" stop-color="rgb(64.697266%, 39.598083%, 40.397644%)" offset="0.691406"/><stop stop-opacity="1" stop-color="rgb(64.297485%, 39.198303%, 39.997864%)" offset="0.695312"/><stop stop-opacity="1" stop-color="rgb(63.897705%, 38.796997%, 39.598083%)" offset="0.699219"/><stop stop-opacity="1" stop-color="rgb(63.497925%, 38.397217%, 39.199829%)" offset="0.703125"/><stop stop-opacity="1" stop-color="rgb(63.098145%, 37.8479%, 38.998413%)" offset="0.707031"/><stop stop-opacity="1" stop-color="rgb(62.698364%, 37.298584%, 38.798523%)" offset="0.710938"/><stop stop-opacity="1" stop-color="rgb(62.547302%, 36.898804%, 38.198853%)" offset="0.714844"/><stop stop-opacity="1" stop-color="rgb(62.397766%, 36.499023%, 37.599182%)" offset="0.71875"/><stop stop-opacity="1" stop-color="rgb(61.997986%, 36.097717%, 37.24823%)" offset="0.722656"/><stop stop-opacity="1" stop-color="rgb(61.598206%, 35.697937%, 36.898804%)" offset="0.726562"/><stop stop-opacity="1" stop-color="rgb(61.198425%, 35.298157%, 36.499023%)" offset="0.730469"/><stop stop-opacity="1" stop-color="rgb(60.798645%, 34.898376%, 36.099243%)" offset="0.734375"/><stop stop-opacity="1" stop-color="rgb(60.398865%, 34.498596%, 35.697937%)" offset="0.738281"/><stop stop-opacity="1" stop-color="rgb(59.999084%, 34.098816%, 35.298157%)" offset="0.742188"/><stop stop-opacity="1" stop-color="rgb(59.597778%, 33.69751%, 34.898376%)" offset="0.746094"/><stop stop-opacity="1" stop-color="rgb(59.197998%, 33.297729%, 34.498596%)" offset="0.75"/><stop stop-opacity="1" stop-color="rgb(58.798218%, 32.748413%, 34.09729%)" offset="0.753906"/><stop stop-opacity="1" stop-color="rgb(58.398438%, 32.199097%, 33.69751%)" offset="0.757812"/><stop stop-opacity="1" stop-color="rgb(57.847595%, 31.997681%, 33.297729%)" offset="0.761719"/><stop stop-opacity="1" stop-color="rgb(57.298279%, 31.796265%, 32.897949%)" offset="0.765625"/><stop stop-opacity="1" stop-color="rgb(56.898499%, 31.196594%, 32.548523%)" offset="0.769531"/><stop stop-opacity="1" stop-color="rgb(56.498718%, 30.59845%, 32.199097%)" offset="0.773438"/><stop stop-opacity="1" stop-color="rgb(56.097412%, 30.198669%, 31.797791%)" offset="0.777344"/><stop stop-opacity="1" stop-color="rgb(55.697632%, 29.798889%, 31.39801%)" offset="0.78125"/><stop stop-opacity="1" stop-color="rgb(55.297852%, 29.397583%, 30.99823%)" offset="0.785156"/><stop stop-opacity="1" stop-color="rgb(54.899597%, 28.997803%, 30.59845%)" offset="0.789062"/><stop stop-opacity="1" stop-color="rgb(54.698181%, 28.797913%, 30.198669%)" offset="0.792969"/><stop stop-opacity="1" stop-color="rgb(54.498291%, 28.598022%, 29.798889%)" offset="0.796875"/><stop stop-opacity="1" stop-color="rgb(54.098511%, 28.04718%, 29.397583%)" offset="0.800781"/><stop stop-opacity="1" stop-color="rgb(53.69873%, 27.497864%, 28.997803%)" offset="0.804688"/><stop stop-opacity="1" stop-color="rgb(53.297424%, 27.098083%, 28.598022%)" offset="0.808594"/><stop stop-opacity="1" stop-color="rgb(52.897644%, 26.698303%, 28.198242%)" offset="0.8125"/><stop stop-opacity="1" stop-color="rgb(52.697754%, 26.296997%, 27.84729%)" offset="0.816406"/><stop stop-opacity="1" stop-color="rgb(52.497864%, 25.897217%, 27.497864%)" offset="0.820312"/><stop stop-opacity="1" stop-color="rgb(52.146912%, 25.497437%, 27.098083%)" offset="0.824219"/><stop stop-opacity="1" stop-color="rgb(51.797485%, 25.099182%, 26.698303%)" offset="0.828125"/><stop stop-opacity="1" stop-color="rgb(51.397705%, 24.897766%, 26.498413%)" offset="0.832031"/><stop stop-opacity="1" stop-color="rgb(50.997925%, 24.697876%, 26.298523%)" offset="0.835938"/><stop stop-opacity="1" stop-color="rgb(50.598145%, 24.298096%, 25.897217%)" offset="0.839844"/><stop stop-opacity="1" stop-color="rgb(50.198364%, 23.898315%, 25.497437%)" offset="0.84375"/><stop stop-opacity="1" stop-color="rgb(49.798584%, 23.498535%, 25.097656%)" offset="0.847656"/><stop stop-opacity="1" stop-color="rgb(49.398804%, 23.098755%, 24.697876%)" offset="0.851562"/><stop stop-opacity="1" stop-color="rgb(49.398804%, 22.898865%, 24.497986%)" offset="0.855469"/><stop stop-opacity="1" stop-color="rgb(49.398804%, 22.698975%, 24.299622%)" offset="0.859375"/><stop stop-opacity="1" stop-color="rgb(49.398804%, 22.698975%, 24.299622%)" offset="0.875"/><stop stop-opacity="1" stop-color="rgb(49.398804%, 22.698975%, 24.299622%)" offset="1"/></linearGradient><clipPath id="d98e761107"><path d="M 11.464844 9.175781 L 40.441406 9.175781 L 40.441406 38.894531 L 11.464844 38.894531 Z M 11.464844 9.175781 " clip-rule="nonzero"/></clipPath></defs><g clip-path="url(#bb4205626e)"><g clip-path="url(#d3c8a55d79)"><g clip-path="url(#823bf986e9)"><g clip-path="url(#178561a7e1)"><path fill="url(#8823e9aab1)" d="M -15.601562 26.003906 L 26.003906 67.605469 L 67.605469 26.003906 L 26.003906 -15.601562 Z M -15.601562 26.003906 " fill-rule="nonzero"/></g></g></g></g><path fill="#ffffff" d="M 33.644531 35.402344 L 33.644531 36.878906 C 33.644531 37.003906 33.75 37.105469 33.875 37.105469 L 36.140625 37.105469 C 36.265625 37.105469 36.371094 37.003906 36.371094 36.878906 L 36.371094 35.402344 C 36.371094 34.703125 35.800781 34.136719 35.105469 34.136719 L 34.910156 34.136719 C 34.214844 34.136719 33.644531 34.703125 33.644531 35.402344 Z M 34.101562 35.402344 C 34.101562 34.957031 34.464844 34.59375 34.910156 34.59375 L 35.105469 34.59375 C 35.550781 34.59375 35.914062 34.957031 35.914062 35.402344 L 35.914062 36.648438 L 34.101562 36.648438 Z M 34.101562 35.402344 " fill-opacity="1" fill-rule="nonzero"/><path fill="#ffffff" d="M 16.871094 34.136719 L 16.679688 34.136719 C 15.980469 34.136719 15.414062 34.703125 15.414062 35.402344 L 15.414062 36.878906 C 15.414062 37.003906 15.515625 37.105469 15.640625 37.105469 L 17.910156 37.105469 C 18.035156 37.105469 18.136719 37.003906 18.136719 36.878906 L 18.136719 35.402344 C 18.136719 34.703125 17.570312 34.136719 16.871094 34.136719 Z M 17.683594 36.648438 L 15.871094 36.648438 L 15.871094 35.402344 C 15.871094 34.957031 16.234375 34.59375 16.679688 34.59375 L 16.871094 34.59375 C 17.320312 34.59375 17.683594 34.957031 17.683594 35.402344 Z M 17.683594 36.648438 " fill-opacity="1" fill-rule="nonzero"/><g clip-path="url(#d98e761107)"><path fill="#ffffff" d="M 11.847656 28.738281 L 13.625 27.671875 L 13.625 38.875 C 13.625 39 13.730469 39.101562 13.855469 39.101562 L 37.894531 39.101562 C 38.023438 39.101562 38.125 39 38.125 38.875 L 38.125 27.625 L 39.996094 28.738281 C 40.035156 28.757812 40.074219 28.769531 40.113281 28.769531 C 40.191406 28.769531 40.265625 28.730469 40.308594 28.65625 C 40.375 28.550781 40.339844 28.410156 40.230469 28.347656 L 31.007812 22.867188 L 31.007812 17.535156 L 32.910156 18.726562 C 32.949219 18.75 32.992188 18.761719 33.03125 18.761719 C 33.109375 18.761719 33.183594 18.722656 33.226562 18.652344 C 33.292969 18.546875 33.257812 18.40625 33.152344 18.339844 L 30.902344 16.929688 L 29.9375 16.328125 L 26.117188 13.9375 L 26.117188 11.160156 L 27.523438 11.160156 C 27.648438 11.160156 27.75 11.058594 27.75 10.929688 C 27.75 10.804688 27.648438 10.703125 27.523438 10.703125 L 26.117188 10.703125 L 26.117188 9.402344 C 26.117188 9.277344 26.015625 9.175781 25.886719 9.175781 C 25.761719 9.175781 25.660156 9.277344 25.660156 9.402344 L 25.660156 10.703125 L 24.253906 10.703125 C 24.128906 10.703125 24.027344 10.804688 24.027344 10.929688 C 24.027344 11.058594 24.128906 11.160156 24.253906 11.160156 L 25.660156 11.160156 L 25.660156 13.964844 L 18.640625 18.292969 C 18.535156 18.359375 18.5 18.496094 18.566406 18.605469 C 18.632812 18.710938 18.773438 18.746094 18.878906 18.679688 L 20.742188 17.53125 L 20.742188 22.890625 L 11.613281 28.347656 C 11.507812 28.410156 11.472656 28.550781 11.535156 28.660156 C 11.601562 28.765625 11.742188 28.800781 11.847656 28.738281 Z M 25.6875 38.648438 L 23.648438 38.648438 L 23.648438 36.519531 C 23.648438 35.390625 24.5625 34.476562 25.6875 34.464844 Z M 28.179688 38.648438 L 26.140625 38.648438 L 26.140625 34.464844 C 27.265625 34.476562 28.179688 35.390625 28.179688 36.519531 Z M 31.007812 23.421875 L 37.667969 27.40625 L 37.667969 38.648438 L 32.339844 38.648438 L 32.339844 28.464844 L 33.925781 29.410156 C 33.960938 29.433594 34.003906 29.441406 34.042969 29.441406 C 34.121094 29.441406 34.195312 29.402344 34.238281 29.332031 C 34.300781 29.222656 34.265625 29.085938 34.160156 29.019531 L 32.230469 27.867188 L 31.007812 27.136719 Z M 21.199219 17.25 L 25.800781 14.414062 L 25.914062 14.347656 L 29.90625 16.84375 L 30.554688 17.25 L 30.554688 26.863281 L 25.992188 24.136719 C 25.921875 24.09375 25.832031 24.09375 25.757812 24.136719 L 21.199219 26.863281 Z M 23.109375 26.25 L 25.875 24.59375 L 28.640625 26.25 L 31.886719 28.191406 L 31.886719 38.648438 L 28.632812 38.648438 L 28.632812 36.519531 C 28.632812 35.136719 27.507812 34.011719 26.125 34.011719 L 25.703125 34.011719 C 24.320312 34.011719 23.191406 35.136719 23.191406 36.519531 L 23.191406 38.648438 L 19.863281 38.648438 L 19.863281 28.191406 Z M 14.082031 27.40625 L 20.742188 23.421875 L 20.742188 27.136719 L 19.519531 27.867188 L 17.589844 29.019531 C 17.484375 29.085938 17.449219 29.222656 17.511719 29.332031 C 17.578125 29.441406 17.71875 29.476562 17.824219 29.410156 L 19.410156 28.464844 L 19.410156 38.648438 L 14.082031 38.648438 Z M 14.082031 27.40625 " fill-opacity="1" fill-rule="nonzero"/></g><path fill="#ffffff" d="M 24.707031 28.734375 L 25.660156 28.734375 L 25.660156 30.78125 C 25.660156 30.90625 25.761719 31.007812 25.886719 31.007812 C 26.015625 31.007812 26.117188 30.90625 26.117188 30.78125 L 26.117188 28.734375 L 27.070312 28.734375 C 27.195312 28.734375 27.296875 28.632812 27.296875 28.507812 C 27.296875 28.382812 27.195312 28.28125 27.070312 28.28125 L 26.117188 28.28125 L 26.117188 27.402344 C 26.117188 27.277344 26.015625 27.175781 25.886719 27.175781 C 25.761719 27.175781 25.660156 27.277344 25.660156 27.402344 L 25.660156 28.28125 L 24.707031 28.28125 C 24.582031 28.28125 24.480469 28.382812 24.480469 28.507812 C 24.480469 28.632812 24.582031 28.734375 24.707031 28.734375 Z M 24.707031 28.734375 " fill-opacity="1" fill-rule="nonzero"/><path fill="#ffffff" d="M 25.882812 22.519531 C 25.949219 22.519531 26.015625 22.507812 26.078125 22.480469 C 26.1875 22.433594 26.292969 22.382812 26.417969 22.3125 C 26.570312 22.230469 26.714844 22.136719 26.851562 22.035156 C 27.710938 21.402344 28.128906 20.683594 28.054688 19.953125 C 27.996094 19.367188 27.523438 18.90625 26.953125 18.882812 C 26.695312 18.871094 26.429688 18.960938 26.1875 19.144531 C 26.070312 19.230469 25.964844 19.328125 25.875 19.433594 C 25.785156 19.328125 25.679688 19.230469 25.5625 19.144531 C 25.320312 18.960938 25.054688 18.871094 24.796875 18.882812 C 24.230469 18.90625 23.753906 19.367188 23.695312 19.953125 C 23.625 20.683594 24.039062 21.402344 24.898438 22.035156 C 25.035156 22.136719 25.179688 22.230469 25.328125 22.3125 C 25.457031 22.382812 25.5625 22.433594 25.671875 22.480469 C 25.738281 22.507812 25.804688 22.519531 25.875 22.519531 C 25.878906 22.519531 25.878906 22.519531 25.882812 22.519531 Z M 25.550781 21.914062 C 25.417969 21.839844 25.289062 21.757812 25.167969 21.667969 C 24.664062 21.296875 24.078125 20.707031 24.148438 20 C 24.183594 19.644531 24.480469 19.351562 24.820312 19.335938 C 24.828125 19.335938 24.835938 19.335938 24.84375 19.335938 C 25.023438 19.335938 25.1875 19.425781 25.289062 19.507812 C 25.414062 19.597656 25.519531 19.707031 25.601562 19.820312 C 25.664062 19.910156 25.765625 19.960938 25.875 19.960938 C 25.984375 19.960938 26.089844 19.90625 26.152344 19.820312 C 26.230469 19.707031 26.335938 19.597656 26.460938 19.507812 C 26.570312 19.425781 26.742188 19.328125 26.929688 19.335938 C 27.273438 19.351562 27.566406 19.644531 27.601562 20 C 27.671875 20.707031 27.085938 21.296875 26.582031 21.667969 C 26.460938 21.757812 26.332031 21.839844 26.199219 21.914062 C 26.085938 21.976562 25.996094 22.019531 25.902344 22.058594 C 25.894531 22.0625 25.886719 22.066406 25.875 22.066406 C 25.867188 22.066406 25.855469 22.0625 25.847656 22.058594 C 25.753906 22.019531 25.664062 21.976562 25.550781 21.914062 Z M 25.550781 21.914062 " fill-opacity="1" fill-rule="nonzero"/></svg>