<svg xmlns="http://www.w3.org/2000/svg" xmlns:xlink="http://www.w3.org/1999/xlink" width="70" zoomAndPan="magnify" viewBox="0 0 52.5 52.499999" height="70" preserveAspectRatio="xMidYMid meet" version="1.0"><defs><clipPath id="dc3ce62070"><path d="M 5.347656 5.347656 L 46.953125 5.347656 L 46.953125 46.953125 L 5.347656 46.953125 Z M 5.347656 5.347656 " clip-rule="nonzero"/></clipPath><clipPath id="7a92650ba8"><path d="M 46.953125 26.152344 C 46.953125 37.640625 37.640625 46.953125 26.152344 46.953125 C 14.664062 46.953125 5.347656 37.640625 5.347656 26.152344 C 5.347656 14.660156 14.664062 5.347656 26.152344 5.347656 C 37.640625 5.347656 46.953125 14.660156 46.953125 26.152344 Z M 46.953125 26.152344 " clip-rule="nonzero"/></clipPath><clipPath id="73480eb7c1"><path d="M 46.953125 26.152344 C 46.953125 37.640625 37.640625 46.953125 26.152344 46.953125 C 14.664062 46.953125 5.347656 37.640625 5.347656 26.152344 C 5.347656 14.660156 14.664062 5.347656 26.152344 5.347656 C 37.640625 5.347656 46.953125 14.660156 46.953125 26.152344 " clip-rule="nonzero"/></clipPath><clipPath id="5a09a6a6cd"><path d="M -15.453125 26.152344 L 26.152344 67.753906 L 67.753906 26.152344 L 26.152344 -15.453125 Z M -15.453125 26.152344 " clip-rule="nonzero"/></clipPath><linearGradient x1="-0.20711" gradientTransform="matrix(29.418026, -29.418026, 29.418026, 29.418026, 11.441721, 40.859961)" y1="0" x2="1.207117" gradientUnits="userSpaceOnUse" y2="0" id="981d96f4e1"><stop stop-opacity="1" stop-color="rgb(70.599365%, 42.698669%, 44.699097%)" offset="0"/><stop stop-opacity="1" stop-color="rgb(70.599365%, 42.698669%, 44.699097%)" offset="0.125"/><stop stop-opacity="1" stop-color="rgb(70.599365%, 42.698669%, 44.699097%)" offset="0.140625"/><stop stop-opacity="1" stop-color="rgb(70.799255%, 42.698669%, 44.699097%)" offset="0.144531"/><stop stop-opacity="1" stop-color="rgb(70.999146%, 42.698669%, 44.699097%)" offset="0.148437"/><stop stop-opacity="1" stop-color="rgb(71.398926%, 43.09845%, 45.098877%)" offset="0.152344"/><stop stop-opacity="1" stop-color="rgb(71.798706%, 43.499756%, 45.500183%)" offset="0.15625"/><stop stop-opacity="1" stop-color="rgb(72.148132%, 44.099426%, 46.099854%)" offset="0.160156"/><stop stop-opacity="1" stop-color="rgb(72.499084%, 44.700623%, 46.699524%)" offset="0.164062"/><stop stop-opacity="1" stop-color="rgb(72.898865%, 45.298767%, 47.24884%)" offset="0.167969"/><stop stop-opacity="1" stop-color="rgb(73.298645%, 45.898438%, 47.798157%)" offset="0.171875"/><stop stop-opacity="1" stop-color="rgb(73.698425%, 46.498108%, 48.197937%)" offset="0.175781"/><stop stop-opacity="1" stop-color="rgb(74.099731%, 47.099304%, 48.599243%)" offset="0.179687"/><stop stop-opacity="1" stop-color="rgb(74.699402%, 47.648621%, 49.198914%)" offset="0.183594"/><stop stop-opacity="1" stop-color="rgb(75.299072%, 48.199463%, 49.80011%)" offset="0.1875"/><stop stop-opacity="1" stop-color="rgb(75.498962%, 48.799133%, 50.19989%)" offset="0.191406"/><stop stop-opacity="1" stop-color="rgb(75.700378%, 49.40033%, 50.59967%)" offset="0.195312"/><stop stop-opacity="1" stop-color="rgb(76.300049%, 50%, 51.199341%)" offset="0.199219"/><stop stop-opacity="1" stop-color="rgb(76.899719%, 50.601196%, 51.800537%)" offset="0.203125"/><stop stop-opacity="1" stop-color="rgb(77.249146%, 51.199341%, 52.149963%)" offset="0.207031"/><stop stop-opacity="1" stop-color="rgb(77.598572%, 51.799011%, 52.49939%)" offset="0.210938"/><stop stop-opacity="1" stop-color="rgb(78.198242%, 52.549744%, 53.29895%)" offset="0.214844"/><stop stop-opacity="1" stop-color="rgb(78.799438%, 53.300476%, 54.100037%)" offset="0.21875"/><stop stop-opacity="1" stop-color="rgb(79.199219%, 53.900146%, 54.699707%)" offset="0.222656"/><stop stop-opacity="1" stop-color="rgb(79.600525%, 54.499817%, 55.299377%)" offset="0.226562"/><stop stop-opacity="1" stop-color="rgb(80.198669%, 55.299377%, 55.899048%)" offset="0.230469"/><stop stop-opacity="1" stop-color="rgb(80.79834%, 56.098938%, 56.498718%)" offset="0.234375"/><stop stop-opacity="1" stop-color="rgb(81.39801%, 56.848145%, 57.048035%)" offset="0.238281"/><stop stop-opacity="1" stop-color="rgb(81.999207%, 57.598877%, 57.598877%)" offset="0.242188"/><stop stop-opacity="1" stop-color="rgb(82.548523%, 58.398438%, 58.198547%)" offset="0.246094"/><stop stop-opacity="1" stop-color="rgb(83.099365%, 59.199524%, 58.799744%)" offset="0.25"/><stop stop-opacity="1" stop-color="rgb(83.699036%, 59.799194%, 59.599304%)" offset="0.253906"/><stop stop-opacity="1" stop-color="rgb(84.300232%, 60.400391%, 60.400391%)" offset="0.257813"/><stop stop-opacity="1" stop-color="rgb(84.899902%, 61.000061%, 60.800171%)" offset="0.261719"/><stop stop-opacity="1" stop-color="rgb(85.499573%, 61.601257%, 61.201477%)" offset="0.265625"/><stop stop-opacity="1" stop-color="rgb(86.099243%, 62.150574%, 61.950684%)" offset="0.269531"/><stop stop-opacity="1" stop-color="rgb(86.698914%, 62.69989%, 62.69989%)" offset="0.273438"/><stop stop-opacity="1" stop-color="rgb(87.098694%, 63.499451%, 63.299561%)" offset="0.277344"/><stop stop-opacity="1" stop-color="rgb(87.5%, 64.300537%, 63.899231%)" offset="0.28125"/><stop stop-opacity="1" stop-color="rgb(88.049316%, 65.100098%, 64.698792%)" offset="0.285156"/><stop stop-opacity="1" stop-color="rgb(88.600159%, 65.901184%, 65.499878%)" offset="0.289062"/><stop stop-opacity="1" stop-color="rgb(89.199829%, 66.699219%, 66.299438%)" offset="0.292969"/><stop stop-opacity="1" stop-color="rgb(89.7995%, 67.498779%, 67.098999%)" offset="0.296875"/><stop stop-opacity="1" stop-color="rgb(90.39917%, 68.048096%, 67.448425%)" offset="0.300781"/><stop stop-opacity="1" stop-color="rgb(90.99884%, 68.598938%, 67.799377%)" offset="0.304688"/><stop stop-opacity="1" stop-color="rgb(91.398621%, 69.398499%, 68.598938%)" offset="0.308594"/><stop stop-opacity="1" stop-color="rgb(91.799927%, 70.199585%, 69.400024%)" offset="0.3125"/><stop stop-opacity="1" stop-color="rgb(92.349243%, 70.799255%, 69.999695%)" offset="0.316406"/><stop stop-opacity="1" stop-color="rgb(92.900085%, 71.400452%, 70.600891%)" offset="0.320312"/><stop stop-opacity="1" stop-color="rgb(93.499756%, 72.149658%, 71.549988%)" offset="0.324219"/><stop stop-opacity="1" stop-color="rgb(94.100952%, 72.900391%, 72.50061%)" offset="0.328125"/><stop stop-opacity="1" stop-color="rgb(94.699097%, 73.899841%, 73.300171%)" offset="0.332031"/><stop stop-opacity="1" stop-color="rgb(95.298767%, 74.899292%, 74.099731%)" offset="0.335938"/><stop stop-opacity="1" stop-color="rgb(95.698547%, 75.498962%, 74.699402%)" offset="0.339844"/><stop stop-opacity="1" stop-color="rgb(96.099854%, 76.098633%, 75.299072%)" offset="0.34375"/><stop stop-opacity="1" stop-color="rgb(96.298218%, 76.098633%, 75.299072%)" offset="0.347656"/><stop stop-opacity="1" stop-color="rgb(96.498108%, 76.098633%, 75.299072%)" offset="0.351562"/><stop stop-opacity="1" stop-color="rgb(96.098328%, 75.898743%, 74.899292%)" offset="0.355469"/><stop stop-opacity="1" stop-color="rgb(95.698547%, 75.698853%, 74.499512%)" offset="0.359375"/><stop stop-opacity="1" stop-color="rgb(95.298767%, 75.099182%, 74.098206%)" offset="0.363281"/><stop stop-opacity="1" stop-color="rgb(94.898987%, 74.499512%, 73.698425%)" offset="0.367188"/><stop stop-opacity="1" stop-color="rgb(94.699097%, 74.098206%, 73.298645%)" offset="0.371094"/><stop stop-opacity="1" stop-color="rgb(94.499207%, 73.698425%, 72.898865%)" offset="0.375"/><stop stop-opacity="1" stop-color="rgb(94.0979%, 73.298645%, 72.547913%)" offset="0.378906"/><stop stop-opacity="1" stop-color="rgb(93.69812%, 72.898865%, 72.198486%)" offset="0.382812"/><stop stop-opacity="1" stop-color="rgb(93.29834%, 72.547913%, 71.59729%)" offset="0.386719"/><stop stop-opacity="1" stop-color="rgb(92.89856%, 72.198486%, 70.99762%)" offset="0.390625"/><stop stop-opacity="1" stop-color="rgb(92.549133%, 71.598816%, 70.597839%)" offset="0.394531"/><stop stop-opacity="1" stop-color="rgb(92.199707%, 70.999146%, 70.199585%)" offset="0.398438"/><stop stop-opacity="1" stop-color="rgb(91.798401%, 70.597839%, 69.798279%)" offset="0.402344"/><stop stop-opacity="1" stop-color="rgb(91.398621%, 70.198059%, 69.398499%)" offset="0.40625"/><stop stop-opacity="1" stop-color="rgb(91.19873%, 69.998169%, 68.998718%)" offset="0.410156"/><stop stop-opacity="1" stop-color="rgb(90.99884%, 69.798279%, 68.598938%)" offset="0.414062"/><stop stop-opacity="1" stop-color="rgb(90.59906%, 69.398499%, 68.199158%)" offset="0.417969"/><stop stop-opacity="1" stop-color="rgb(90.19928%, 68.998718%, 67.799377%)" offset="0.421875"/><stop stop-opacity="1" stop-color="rgb(89.7995%, 68.399048%, 67.448425%)" offset="0.425781"/><stop stop-opacity="1" stop-color="rgb(89.399719%, 67.799377%, 67.098999%)" offset="0.429688"/><stop stop-opacity="1" stop-color="rgb(88.998413%, 67.648315%, 66.699219%)" offset="0.433594"/><stop stop-opacity="1" stop-color="rgb(88.598633%, 67.498779%, 66.299438%)" offset="0.4375"/><stop stop-opacity="1" stop-color="rgb(88.198853%, 66.897583%, 65.698242%)" offset="0.441406"/><stop stop-opacity="1" stop-color="rgb(87.799072%, 66.297913%, 65.098572%)" offset="0.445312"/><stop stop-opacity="1" stop-color="rgb(87.44812%, 65.898132%, 64.697266%)" offset="0.449219"/><stop stop-opacity="1" stop-color="rgb(87.098694%, 65.498352%, 64.297485%)" offset="0.453125"/><stop stop-opacity="1" stop-color="rgb(86.898804%, 65.098572%, 63.897705%)" offset="0.457031"/><stop stop-opacity="1" stop-color="rgb(86.698914%, 64.698792%, 63.499451%)" offset="0.460938"/><stop stop-opacity="1" stop-color="rgb(86.299133%, 64.299011%, 63.098145%)" offset="0.464844"/><stop stop-opacity="1" stop-color="rgb(85.899353%, 63.899231%, 62.698364%)" offset="0.46875"/><stop stop-opacity="1" stop-color="rgb(85.498047%, 63.497925%, 62.347412%)" offset="0.472656"/><stop stop-opacity="1" stop-color="rgb(85.098267%, 63.098145%, 61.997986%)" offset="0.476562"/><stop stop-opacity="1" stop-color="rgb(84.698486%, 62.548828%, 61.598206%)" offset="0.480469"/><stop stop-opacity="1" stop-color="rgb(84.298706%, 61.999512%, 61.198425%)" offset="0.484375"/><stop stop-opacity="1" stop-color="rgb(83.898926%, 61.798096%, 60.998535%)" offset="0.488281"/><stop stop-opacity="1" stop-color="rgb(83.499146%, 61.598206%, 60.798645%)" offset="0.492188"/><stop stop-opacity="1" stop-color="rgb(83.097839%, 61.198425%, 60.398865%)" offset="0.496094"/><stop stop-opacity="1" stop-color="rgb(82.698059%, 60.798645%, 59.999084%)" offset="0.5"/><stop stop-opacity="1" stop-color="rgb(82.546997%, 60.397339%, 59.597778%)" offset="0.503906"/><stop stop-opacity="1" stop-color="rgb(82.397461%, 59.997559%, 59.197998%)" offset="0.507812"/><stop stop-opacity="1" stop-color="rgb(81.797791%, 59.397888%, 58.598328%)" offset="0.511719"/><stop stop-opacity="1" stop-color="rgb(81.19812%, 58.798218%, 57.998657%)" offset="0.515625"/><stop stop-opacity="1" stop-color="rgb(80.79834%, 58.398438%, 57.798767%)" offset="0.519531"/><stop stop-opacity="1" stop-color="rgb(80.39856%, 57.998657%, 57.598877%)" offset="0.523438"/><stop stop-opacity="1" stop-color="rgb(79.998779%, 57.447815%, 57.048035%)" offset="0.527344"/><stop stop-opacity="1" stop-color="rgb(79.598999%, 56.898499%, 56.498718%)" offset="0.53125"/><stop stop-opacity="1" stop-color="rgb(79.197693%, 56.498718%, 56.097412%)" offset="0.535156"/><stop stop-opacity="1" stop-color="rgb(78.797913%, 56.098938%, 55.697632%)" offset="0.539062"/><stop stop-opacity="1" stop-color="rgb(78.398132%, 55.699158%, 55.297852%)" offset="0.542969"/><stop stop-opacity="1" stop-color="rgb(77.998352%, 55.299377%, 54.899597%)" offset="0.546875"/><stop stop-opacity="1" stop-color="rgb(77.648926%, 54.698181%, 54.498291%)" offset="0.550781"/><stop stop-opacity="1" stop-color="rgb(77.2995%, 54.098511%, 54.098511%)" offset="0.554687"/><stop stop-opacity="1" stop-color="rgb(76.898193%, 53.69873%, 53.69873%)" offset="0.558594"/><stop stop-opacity="1" stop-color="rgb(76.498413%, 53.29895%, 53.29895%)" offset="0.5625"/><stop stop-opacity="1" stop-color="rgb(76.098633%, 53.097534%, 52.897644%)" offset="0.566406"/><stop stop-opacity="1" stop-color="rgb(75.698853%, 52.897644%, 52.497864%)" offset="0.570312"/><stop stop-opacity="1" stop-color="rgb(75.299072%, 52.346802%, 52.146912%)" offset="0.574219"/><stop stop-opacity="1" stop-color="rgb(74.899292%, 51.797485%, 51.797485%)" offset="0.578125"/><stop stop-opacity="1" stop-color="rgb(74.699402%, 51.397705%, 51.397705%)" offset="0.582031"/><stop stop-opacity="1" stop-color="rgb(74.499512%, 50.999451%, 50.999451%)" offset="0.585937"/><stop stop-opacity="1" stop-color="rgb(74.098206%, 50.798035%, 50.598145%)" offset="0.589844"/><stop stop-opacity="1" stop-color="rgb(73.698425%, 50.598145%, 50.198364%)" offset="0.59375"/><stop stop-opacity="1" stop-color="rgb(73.298645%, 49.998474%, 49.798584%)" offset="0.597656"/><stop stop-opacity="1" stop-color="rgb(72.898865%, 49.398804%, 49.398804%)" offset="0.601562"/><stop stop-opacity="1" stop-color="rgb(72.547913%, 48.999023%, 49.198914%)" offset="0.605469"/><stop stop-opacity="1" stop-color="rgb(72.198486%, 48.599243%, 48.999023%)" offset="0.609375"/><stop stop-opacity="1" stop-color="rgb(71.798706%, 48.197937%, 48.599243%)" offset="0.613281"/><stop stop-opacity="1" stop-color="rgb(71.398926%, 47.798157%, 48.199463%)" offset="0.617187"/><stop stop-opacity="1" stop-color="rgb(71.199036%, 47.447205%, 47.848511%)" offset="0.621094"/><stop stop-opacity="1" stop-color="rgb(70.999146%, 47.097778%, 47.499084%)" offset="0.625"/><stop stop-opacity="1" stop-color="rgb(70.597839%, 46.697998%, 47.097778%)" offset="0.628906"/><stop stop-opacity="1" stop-color="rgb(70.198059%, 46.298218%, 46.697998%)" offset="0.632812"/><stop stop-opacity="1" stop-color="rgb(69.798279%, 45.697021%, 46.298218%)" offset="0.636719"/><stop stop-opacity="1" stop-color="rgb(69.398499%, 45.097351%, 45.898438%)" offset="0.640625"/><stop stop-opacity="1" stop-color="rgb(69.198608%, 44.697571%, 45.498657%)" offset="0.644531"/><stop stop-opacity="1" stop-color="rgb(68.998718%, 44.299316%, 45.098877%)" offset="0.648438"/><stop stop-opacity="1" stop-color="rgb(68.399048%, 43.89801%, 44.697571%)" offset="0.652344"/><stop stop-opacity="1" stop-color="rgb(67.799377%, 43.49823%, 44.297791%)" offset="0.65625"/><stop stop-opacity="1" stop-color="rgb(67.448425%, 43.09845%, 43.89801%)" offset="0.660156"/><stop stop-opacity="1" stop-color="rgb(67.097473%, 42.698669%, 43.49823%)" offset="0.664062"/><stop stop-opacity="1" stop-color="rgb(66.697693%, 42.347717%, 43.09845%)" offset="0.667969"/><stop stop-opacity="1" stop-color="rgb(66.299438%, 41.998291%, 42.698669%)" offset="0.671875"/><stop stop-opacity="1" stop-color="rgb(66.098022%, 41.598511%, 42.347717%)" offset="0.675781"/><stop stop-opacity="1" stop-color="rgb(65.898132%, 41.19873%, 41.998291%)" offset="0.679688"/><stop stop-opacity="1" stop-color="rgb(65.498352%, 40.597534%, 41.398621%)" offset="0.683594"/><stop stop-opacity="1" stop-color="rgb(65.098572%, 39.997864%, 40.79895%)" offset="0.6875"/><stop stop-opacity="1" stop-color="rgb(64.697266%, 39.598083%, 40.397644%)" offset="0.691406"/><stop stop-opacity="1" stop-color="rgb(64.297485%, 39.198303%, 39.997864%)" offset="0.695312"/><stop stop-opacity="1" stop-color="rgb(63.897705%, 38.796997%, 39.598083%)" offset="0.699219"/><stop stop-opacity="1" stop-color="rgb(63.497925%, 38.397217%, 39.199829%)" offset="0.703125"/><stop stop-opacity="1" stop-color="rgb(63.098145%, 37.8479%, 38.998413%)" offset="0.707031"/><stop stop-opacity="1" stop-color="rgb(62.698364%, 37.298584%, 38.798523%)" offset="0.710938"/><stop stop-opacity="1" stop-color="rgb(62.547302%, 36.898804%, 38.198853%)" offset="0.714844"/><stop stop-opacity="1" stop-color="rgb(62.397766%, 36.499023%, 37.599182%)" offset="0.71875"/><stop stop-opacity="1" stop-color="rgb(61.997986%, 36.097717%, 37.24823%)" offset="0.722656"/><stop stop-opacity="1" stop-color="rgb(61.598206%, 35.697937%, 36.898804%)" offset="0.726562"/><stop stop-opacity="1" stop-color="rgb(61.198425%, 35.298157%, 36.499023%)" offset="0.730469"/><stop stop-opacity="1" stop-color="rgb(60.798645%, 34.898376%, 36.099243%)" offset="0.734375"/><stop stop-opacity="1" stop-color="rgb(60.398865%, 34.498596%, 35.697937%)" offset="0.738281"/><stop stop-opacity="1" stop-color="rgb(59.999084%, 34.098816%, 35.298157%)" offset="0.742188"/><stop stop-opacity="1" stop-color="rgb(59.597778%, 33.69751%, 34.898376%)" offset="0.746094"/><stop stop-opacity="1" stop-color="rgb(59.197998%, 33.297729%, 34.498596%)" offset="0.75"/><stop stop-opacity="1" stop-color="rgb(58.798218%, 32.748413%, 34.09729%)" offset="0.753906"/><stop stop-opacity="1" stop-color="rgb(58.398438%, 32.199097%, 33.69751%)" offset="0.757812"/><stop stop-opacity="1" stop-color="rgb(57.847595%, 31.997681%, 33.297729%)" offset="0.761719"/><stop stop-opacity="1" stop-color="rgb(57.298279%, 31.796265%, 32.897949%)" offset="0.765625"/><stop stop-opacity="1" stop-color="rgb(56.898499%, 31.196594%, 32.548523%)" offset="0.769531"/><stop stop-opacity="1" stop-color="rgb(56.498718%, 30.59845%, 32.199097%)" offset="0.773438"/><stop stop-opacity="1" stop-color="rgb(56.097412%, 30.198669%, 31.797791%)" offset="0.777344"/><stop stop-opacity="1" stop-color="rgb(55.697632%, 29.798889%, 31.39801%)" offset="0.78125"/><stop stop-opacity="1" stop-color="rgb(55.297852%, 29.397583%, 30.99823%)" offset="0.785156"/><stop stop-opacity="1" stop-color="rgb(54.899597%, 28.997803%, 30.59845%)" offset="0.789062"/><stop stop-opacity="1" stop-color="rgb(54.698181%, 28.797913%, 30.198669%)" offset="0.792969"/><stop stop-opacity="1" stop-color="rgb(54.498291%, 28.598022%, 29.798889%)" offset="0.796875"/><stop stop-opacity="1" stop-color="rgb(54.098511%, 28.04718%, 29.397583%)" offset="0.800781"/><stop stop-opacity="1" stop-color="rgb(53.69873%, 27.497864%, 28.997803%)" offset="0.804688"/><stop stop-opacity="1" stop-color="rgb(53.297424%, 27.098083%, 28.598022%)" offset="0.808594"/><stop stop-opacity="1" stop-color="rgb(52.897644%, 26.698303%, 28.198242%)" offset="0.8125"/><stop stop-opacity="1" stop-color="rgb(52.697754%, 26.296997%, 27.84729%)" offset="0.816406"/><stop stop-opacity="1" stop-color="rgb(52.497864%, 25.897217%, 27.497864%)" offset="0.820312"/><stop stop-opacity="1" stop-color="rgb(52.146912%, 25.497437%, 27.098083%)" offset="0.824219"/><stop stop-opacity="1" stop-color="rgb(51.797485%, 25.099182%, 26.698303%)" offset="0.828125"/><stop stop-opacity="1" stop-color="rgb(51.397705%, 24.897766%, 26.498413%)" offset="0.832031"/><stop stop-opacity="1" stop-color="rgb(50.997925%, 24.697876%, 26.298523%)" offset="0.835938"/><stop stop-opacity="1" stop-color="rgb(50.598145%, 24.298096%, 25.897217%)" offset="0.839844"/><stop stop-opacity="1" stop-color="rgb(50.198364%, 23.898315%, 25.497437%)" offset="0.84375"/><stop stop-opacity="1" stop-color="rgb(49.798584%, 23.498535%, 25.097656%)" offset="0.847656"/><stop stop-opacity="1" stop-color="rgb(49.398804%, 23.098755%, 24.697876%)" offset="0.851562"/><stop stop-opacity="1" stop-color="rgb(49.398804%, 22.898865%, 24.497986%)" offset="0.855469"/><stop stop-opacity="1" stop-color="rgb(49.398804%, 22.698975%, 24.299622%)" offset="0.859375"/><stop stop-opacity="1" stop-color="rgb(49.398804%, 22.698975%, 24.299622%)" offset="0.875"/><stop stop-opacity="1" stop-color="rgb(49.398804%, 22.698975%, 24.299622%)" offset="1"/></linearGradient><clipPath id="b98631c12a"><path d="M 15.738281 9.570312 L 36.539062 9.570312 L 36.539062 39.289062 L 15.738281 39.289062 Z M 15.738281 9.570312 " clip-rule="nonzero"/></clipPath></defs><g clip-path="url(#dc3ce62070)"><g clip-path="url(#7a92650ba8)"><g clip-path="url(#73480eb7c1)"><g clip-path="url(#5a09a6a6cd)"><path fill="url(#981d96f4e1)" d="M -15.453125 26.152344 L 26.152344 67.753906 L 67.753906 26.152344 L 26.152344 -15.453125 Z M -15.453125 26.152344 " fill-rule="nonzero"/></g></g></g></g><g clip-path="url(#b98631c12a)"><path fill="#ffffff" d="M 29.621094 11.53125 C 28.304688 11.820312 26.960938 12.296875 25.644531 12.59375 C 25.628906 12.597656 25.613281 12.605469 25.597656 12.613281 C 25.570312 12.625 25.550781 12.648438 25.535156 12.671875 C 25.519531 12.695312 25.507812 12.722656 25.503906 12.753906 C 25.503906 12.769531 25.503906 12.785156 25.507812 12.804688 L 25.511719 12.820312 C 25.5625 13.117188 25.613281 13.417969 25.664062 13.714844 C 25.707031 13.980469 25.75 14.25 25.789062 14.515625 L 25.789062 14.519531 C 24.566406 14.152344 23.246094 13.902344 22.035156 13.523438 C 22.019531 13.519531 22 13.515625 21.984375 13.515625 C 21.953125 13.515625 21.925781 13.519531 21.898438 13.535156 C 21.875 13.546875 21.851562 13.566406 21.832031 13.589844 C 21.824219 13.605469 21.816406 13.621094 21.808594 13.636719 C 20.742188 16.613281 19.410156 19.425781 18.421875 22.449219 C 18.132812 23.328125 17.800781 24.402344 17.707031 25.367188 C 17.640625 26.039062 17.691406 26.660156 17.933594 27.132812 C 18.164062 27.578125 18.484375 27.902344 18.816406 28.148438 C 18.882812 28.195312 18.992188 28.261719 19.132812 28.335938 C 19.179688 29.753906 18.875 31.105469 18.5625 32.507812 C 18.207031 34.125 17.816406 35.71875 17.347656 37.308594 C 16.894531 37.214844 16.496094 37.292969 16.21875 37.445312 C 15.976562 37.574219 15.820312 37.757812 15.765625 37.933594 C 15.761719 37.9375 15.761719 37.941406 15.761719 37.945312 C 15.734375 38.039062 15.789062 38.140625 15.886719 38.167969 C 17.085938 38.5 18.296875 38.796875 19.496094 39.132812 C 19.59375 39.160156 19.691406 39.101562 19.71875 39.007812 C 19.71875 39.007812 19.71875 39.003906 19.71875 39.003906 C 19.722656 39 19.722656 38.992188 19.726562 38.988281 C 19.789062 38.617188 19.65625 38.320312 19.378906 38.078125 C 19.148438 37.882812 18.816406 37.726562 18.417969 37.597656 C 18.539062 36.433594 18.933594 35.292969 19.253906 34.167969 C 19.769531 32.367188 20.222656 30.535156 21.042969 28.863281 C 21.226562 28.871094 21.378906 28.867188 21.46875 28.859375 C 21.878906 28.8125 22.320312 28.691406 22.742188 28.421875 C 23.1875 28.132812 23.542969 27.621094 23.820312 27.003906 C 24.222656 26.125 24.472656 25.027344 24.664062 24.121094 C 25.25 21.324219 25.515625 18.542969 25.96875 15.75 C 26.269531 17.875 26.53125 20 26.976562 22.132812 C 27.167969 23.035156 27.417969 24.132812 27.820312 25.015625 C 28.097656 25.628906 28.453125 26.140625 28.898438 26.429688 C 29.320312 26.703125 29.761719 26.824219 30.171875 26.867188 C 30.253906 26.878906 30.382812 26.878906 30.539062 26.875 C 31.289062 28.078125 31.699219 29.402344 32.132812 30.773438 C 32.632812 32.351562 33.089844 33.925781 33.476562 35.535156 C 33.039062 35.679688 32.734375 35.949219 32.570312 36.21875 C 32.425781 36.453125 32.378906 36.6875 32.421875 36.867188 C 32.421875 36.871094 32.421875 36.875 32.421875 36.878906 C 32.449219 36.976562 32.546875 37.035156 32.644531 37.007812 C 33.847656 36.699219 35.046875 36.351562 36.253906 36.042969 C 36.347656 36.015625 36.40625 35.917969 36.382812 35.820312 C 36.382812 35.820312 36.382812 35.820312 36.382812 35.816406 C 36.378906 35.8125 36.378906 35.804688 36.375 35.800781 C 36.25 35.449219 35.984375 35.257812 35.625 35.1875 C 35.328125 35.132812 34.960938 35.164062 34.550781 35.25 C 34.070312 34.183594 33.84375 32.996094 33.558594 31.863281 C 33.105469 30.046875 32.582031 28.234375 32.457031 26.375 C 32.621094 26.289062 32.75 26.210938 32.824219 26.160156 C 33.15625 25.914062 33.480469 25.585938 33.707031 25.140625 C 33.949219 24.667969 34 24.046875 33.933594 23.375 C 33.839844 22.414062 33.507812 21.335938 33.21875 20.457031 C 32.230469 17.433594 30.898438 14.625 29.832031 11.644531 C 29.828125 11.632812 29.820312 11.621094 29.8125 11.609375 L 29.8125 11.605469 C 29.796875 11.582031 29.773438 11.5625 29.75 11.546875 L 29.746094 11.546875 C 29.722656 11.53125 29.695312 11.523438 29.664062 11.523438 C 29.648438 11.523438 29.632812 11.527344 29.621094 11.53125 Z M 19.496094 28.511719 C 19.515625 29.890625 19.21875 31.214844 18.917969 32.585938 C 18.550781 34.238281 18.152344 35.867188 17.667969 37.492188 C 17.675781 37.519531 17.675781 37.554688 17.664062 37.585938 C 17.636719 37.679688 17.535156 37.734375 17.4375 37.703125 L 17.433594 37.703125 C 17.429688 37.699219 17.425781 37.699219 17.417969 37.699219 C 17.414062 37.695312 17.410156 37.695312 17.402344 37.691406 C 16.996094 37.574219 16.632812 37.632812 16.386719 37.761719 C 16.320312 37.800781 16.261719 37.839844 16.21875 37.882812 C 17.265625 38.171875 18.320312 38.433594 19.371094 38.722656 C 19.347656 38.582031 19.265625 38.460938 19.140625 38.355469 C 18.929688 38.171875 18.609375 38.03125 18.230469 37.914062 C 18.203125 37.90625 18.179688 37.890625 18.160156 37.875 C 18.089844 37.84375 18.039062 37.773438 18.046875 37.691406 C 18.152344 36.460938 18.570312 35.253906 18.90625 34.066406 C 19.414062 32.292969 19.867188 30.484375 20.660156 28.828125 C 20.472656 28.800781 20.273438 28.765625 20.078125 28.710938 C 19.875 28.65625 19.675781 28.585938 19.496094 28.511719 Z M 32.105469 26.535156 C 31.929688 26.605469 31.742188 26.675781 31.542969 26.726562 C 31.34375 26.78125 31.132812 26.816406 30.941406 26.839844 C 31.648438 28.03125 32.054688 29.324219 32.476562 30.664062 C 32.988281 32.277344 33.457031 33.886719 33.847656 35.535156 C 33.871094 35.554688 33.886719 35.585938 33.890625 35.617188 C 33.914062 35.714844 33.851562 35.8125 33.753906 35.832031 L 33.75 35.832031 C 33.746094 35.835938 33.742188 35.835938 33.734375 35.839844 C 33.730469 35.839844 33.722656 35.839844 33.71875 35.839844 C 33.308594 35.941406 33.023438 36.171875 32.875 36.410156 C 32.835938 36.472656 32.804688 36.539062 32.789062 36.597656 C 33.839844 36.324219 34.886719 36.023438 35.9375 35.75 C 35.847656 35.636719 35.714844 35.574219 35.554688 35.542969 C 35.28125 35.492188 34.933594 35.53125 34.546875 35.621094 C 34.519531 35.625 34.492188 35.625 34.464844 35.621094 C 34.386719 35.628906 34.3125 35.589844 34.277344 35.515625 C 33.75 34.398438 33.507812 33.148438 33.210938 31.949219 C 32.761719 30.160156 32.246094 28.367188 32.105469 26.535156 Z M 20.5625 17.8125 C 19.925781 19.375 19.296875 20.9375 18.761719 22.5625 C 18.484375 23.417969 18.15625 24.464844 18.066406 25.402344 C 18.007812 25.996094 18.039062 26.546875 18.253906 26.964844 C 18.457031 27.359375 18.742188 27.644531 19.03125 27.859375 C 19.097656 27.90625 19.210938 27.972656 19.359375 28.046875 C 19.378906 28.054688 19.398438 28.0625 19.417969 28.078125 C 19.628906 28.179688 19.894531 28.289062 20.171875 28.363281 C 20.683594 28.5 21.226562 28.523438 21.425781 28.5 C 21.789062 28.460938 22.175781 28.355469 22.546875 28.117188 C 22.941406 27.859375 23.246094 27.402344 23.492188 26.855469 C 23.882812 25.996094 24.125 24.929688 24.308594 24.046875 C 24.703125 22.171875 24.953125 20.304688 25.210938 18.433594 C 24.390625 18.34375 23.554688 18.386719 22.746094 18.265625 C 22.003906 18.152344 21.324219 17.835938 20.5625 17.8125 Z M 31.515625 16.902344 C 30.5 16.894531 29.542969 17.097656 28.527344 17.15625 C 27.863281 17.195312 27.195312 17.125 26.539062 17.21875 C 26.761719 18.832031 26.992188 20.441406 27.332031 22.058594 C 27.515625 22.9375 27.757812 24.007812 28.148438 24.867188 C 28.394531 25.410156 28.699219 25.871094 29.09375 26.125 C 29.464844 26.363281 29.851562 26.46875 30.214844 26.507812 C 30.292969 26.519531 30.425781 26.519531 30.589844 26.511719 C 30.613281 26.507812 30.632812 26.503906 30.65625 26.507812 C 30.890625 26.492188 31.175781 26.453125 31.453125 26.378906 C 31.964844 26.242188 32.445312 25.988281 32.609375 25.867188 C 32.898438 25.652344 33.183594 25.367188 33.386719 24.976562 C 33.601562 24.558594 33.632812 24.007812 33.574219 23.410156 C 33.484375 22.472656 33.15625 21.425781 32.878906 20.570312 C 32.46875 19.320312 32 18.105469 31.515625 16.902344 Z M 32.191406 25.074219 C 32.050781 25.191406 31.898438 25.289062 31.730469 25.371094 C 31.640625 25.414062 31.601562 25.519531 31.644531 25.609375 C 31.6875 25.699219 31.796875 25.738281 31.886719 25.695312 C 32.082031 25.601562 32.257812 25.488281 32.421875 25.351562 C 32.5 25.289062 32.511719 25.175781 32.445312 25.097656 C 32.382812 25.019531 32.269531 25.011719 32.191406 25.074219 Z M 32.257812 20.957031 C 32.613281 21.882812 33.035156 23.078125 32.722656 24.070312 C 32.695312 24.164062 32.746094 24.265625 32.839844 24.296875 C 32.9375 24.324219 33.039062 24.273438 33.066406 24.175781 C 33.402344 23.113281 32.976562 21.820312 32.59375 20.824219 C 32.558594 20.734375 32.453125 20.6875 32.359375 20.722656 C 32.265625 20.757812 32.222656 20.863281 32.257812 20.957031 Z M 18.953125 23.042969 C 18.871094 23.226562 18.792969 23.410156 18.722656 23.601562 C 18.6875 23.695312 18.734375 23.796875 18.828125 23.832031 C 18.921875 23.867188 19.027344 23.820312 19.058594 23.726562 C 19.128906 23.542969 19.207031 23.367188 19.285156 23.1875 C 19.324219 23.097656 19.285156 22.992188 19.195312 22.949219 C 19.101562 22.910156 18.996094 22.949219 18.953125 23.042969 Z M 20.015625 19.789062 C 19.777344 20.4375 19.550781 21.089844 19.332031 21.746094 C 19.300781 21.839844 19.351562 21.941406 19.445312 21.972656 C 19.539062 22.003906 19.640625 21.953125 19.675781 21.859375 C 19.890625 21.207031 20.117188 20.558594 20.355469 19.914062 C 20.390625 19.820312 20.339844 19.71875 20.246094 19.683594 C 20.152344 19.648438 20.050781 19.695312 20.015625 19.789062 Z M 22.085938 13.929688 C 21.910156 14.417969 21.726562 14.898438 21.539062 15.382812 C 21.277344 16.054688 21.003906 16.722656 20.730469 17.394531 L 20.703125 17.460938 C 21.429688 17.511719 22.085938 17.800781 22.800781 17.90625 C 23.609375 18.03125 24.445312 17.984375 25.257812 18.074219 L 25.269531 18.003906 C 25.351562 17.421875 25.433594 16.839844 25.523438 16.257812 C 25.59375 15.804688 25.667969 15.347656 25.75 14.894531 L 25.75 14.886719 C 24.5625 14.523438 23.28125 14.277344 22.089844 13.917969 Z M 29.546875 11.917969 C 28.332031 12.195312 27.101562 12.621094 25.890625 12.90625 C 26.125 14.226562 26.308594 15.542969 26.488281 16.859375 C 27.15625 16.765625 27.835938 16.835938 28.507812 16.796875 C 29.480469 16.738281 30.402344 16.554688 31.371094 16.542969 C 30.75 15.007812 30.113281 13.484375 29.546875 11.917969 Z M 21.59375 12.253906 C 21.769531 12.332031 21.9375 12.421875 22.105469 12.511719 C 22.191406 12.558594 22.300781 12.523438 22.347656 12.4375 C 22.394531 12.347656 22.359375 12.238281 22.273438 12.191406 C 22.097656 12.101562 21.921875 12.003906 21.742188 11.925781 C 21.652344 11.882812 21.542969 11.925781 21.503906 12.015625 C 21.460938 12.105469 21.503906 12.214844 21.59375 12.253906 Z M 22.816406 10.609375 C 22.933594 10.777344 23.050781 10.949219 23.152344 11.132812 C 23.199219 11.21875 23.308594 11.25 23.394531 11.199219 C 23.484375 11.152344 23.515625 11.042969 23.464844 10.953125 C 23.359375 10.765625 23.238281 10.585938 23.117188 10.40625 C 23.0625 10.324219 22.949219 10.300781 22.867188 10.355469 C 22.785156 10.414062 22.761719 10.523438 22.816406 10.609375 Z M 27.242188 10.113281 C 27.171875 10.324219 27.085938 10.53125 27.015625 10.742188 C 26.988281 10.835938 27.039062 10.9375 27.136719 10.96875 C 27.230469 11 27.332031 10.945312 27.363281 10.851562 C 27.425781 10.640625 27.511719 10.441406 27.585938 10.234375 C 27.617188 10.140625 27.566406 10.035156 27.472656 10.003906 C 27.378906 9.972656 27.277344 10.019531 27.242188 10.113281 Z M 25.257812 9.757812 C 25.257812 9.980469 25.265625 10.207031 25.277344 10.429688 C 25.28125 10.53125 25.367188 10.605469 25.464844 10.601562 C 25.566406 10.597656 25.640625 10.511719 25.636719 10.414062 C 25.628906 10.195312 25.621094 9.976562 25.621094 9.757812 C 25.621094 9.65625 25.539062 9.574219 25.441406 9.574219 C 25.339844 9.574219 25.257812 9.65625 25.257812 9.757812 Z M 25.257812 9.757812 " fill-opacity="1" fill-rule="evenodd"/></g></svg>