<svg xmlns="http://www.w3.org/2000/svg" xmlns:xlink="http://www.w3.org/1999/xlink" width="70" zoomAndPan="magnify" viewBox="0 0 52.5 52.499999" height="70" preserveAspectRatio="xMidYMid meet" version="1.0"><defs><clipPath id="a2c957cf70"><path d="M 5.199219 5.199219 L 46.804688 5.199219 L 46.804688 46.804688 L 5.199219 46.804688 Z M 5.199219 5.199219 " clip-rule="nonzero"/></clipPath><clipPath id="28ccb5173f"><path d="M 46.804688 26.003906 C 46.804688 37.492188 37.492188 46.804688 26.003906 46.804688 C 14.515625 46.804688 5.199219 37.492188 5.199219 26.003906 C 5.199219 14.511719 14.515625 5.199219 26.003906 5.199219 C 37.492188 5.199219 46.804688 14.511719 46.804688 26.003906 Z M 46.804688 26.003906 " clip-rule="nonzero"/></clipPath><clipPath id="a8bd549e22"><path d="M 46.804688 26.003906 C 46.804688 37.492188 37.492188 46.804688 26.003906 46.804688 C 14.515625 46.804688 5.199219 37.492188 5.199219 26.003906 C 5.199219 14.511719 14.515625 5.199219 26.003906 5.199219 C 37.492188 5.199219 46.804688 14.511719 46.804688 26.003906 " clip-rule="nonzero"/></clipPath><clipPath id="fb15507160"><path d="M -15.601562 26.003906 L 26.003906 67.605469 L 67.605469 26.003906 L 26.003906 -15.601562 Z M -15.601562 26.003906 " clip-rule="nonzero"/></clipPath><linearGradient x1="-0.20711" gradientTransform="matrix(29.418026, -29.418026, 29.418026, 29.418026, 11.293137, 40.711375)" y1="0" x2="1.207117" gradientUnits="userSpaceOnUse" y2="0" id="5bd033e12e"><stop stop-opacity="1" stop-color="rgb(70.599365%, 42.698669%, 44.699097%)" offset="0"/><stop stop-opacity="1" stop-color="rgb(70.599365%, 42.698669%, 44.699097%)" offset="0.125"/><stop stop-opacity="1" stop-color="rgb(70.599365%, 42.698669%, 44.699097%)" offset="0.140625"/><stop stop-opacity="1" stop-color="rgb(70.799255%, 42.698669%, 44.699097%)" offset="0.144531"/><stop stop-opacity="1" stop-color="rgb(70.999146%, 42.698669%, 44.699097%)" offset="0.148438"/><stop stop-opacity="1" stop-color="rgb(71.398926%, 43.09845%, 45.098877%)" offset="0.152344"/><stop stop-opacity="1" stop-color="rgb(71.798706%, 43.499756%, 45.500183%)" offset="0.15625"/><stop stop-opacity="1" stop-color="rgb(72.148132%, 44.099426%, 46.099854%)" offset="0.160156"/><stop stop-opacity="1" stop-color="rgb(72.499084%, 44.700623%, 46.699524%)" offset="0.164063"/><stop stop-opacity="1" stop-color="rgb(72.898865%, 45.298767%, 47.24884%)" offset="0.167969"/><stop stop-opacity="1" stop-color="rgb(73.298645%, 45.898438%, 47.798157%)" offset="0.171875"/><stop stop-opacity="1" stop-color="rgb(73.698425%, 46.498108%, 48.197937%)" offset="0.175781"/><stop stop-opacity="1" stop-color="rgb(74.099731%, 47.099304%, 48.599243%)" offset="0.179688"/><stop stop-opacity="1" stop-color="rgb(74.699402%, 47.648621%, 49.198914%)" offset="0.183594"/><stop stop-opacity="1" stop-color="rgb(75.299072%, 48.199463%, 49.80011%)" offset="0.1875"/><stop stop-opacity="1" stop-color="rgb(75.498962%, 48.799133%, 50.19989%)" offset="0.191406"/><stop stop-opacity="1" stop-color="rgb(75.700378%, 49.40033%, 50.59967%)" offset="0.195312"/><stop stop-opacity="1" stop-color="rgb(76.300049%, 50%, 51.199341%)" offset="0.199219"/><stop stop-opacity="1" stop-color="rgb(76.899719%, 50.601196%, 51.800537%)" offset="0.203125"/><stop stop-opacity="1" stop-color="rgb(77.249146%, 51.199341%, 52.149963%)" offset="0.207031"/><stop stop-opacity="1" stop-color="rgb(77.598572%, 51.799011%, 52.49939%)" offset="0.210938"/><stop stop-opacity="1" stop-color="rgb(78.198242%, 52.549744%, 53.29895%)" offset="0.214844"/><stop stop-opacity="1" stop-color="rgb(78.799438%, 53.300476%, 54.100037%)" offset="0.21875"/><stop stop-opacity="1" stop-color="rgb(79.199219%, 53.900146%, 54.699707%)" offset="0.222656"/><stop stop-opacity="1" stop-color="rgb(79.600525%, 54.499817%, 55.299377%)" offset="0.226562"/><stop stop-opacity="1" stop-color="rgb(80.198669%, 55.299377%, 55.899048%)" offset="0.230469"/><stop stop-opacity="1" stop-color="rgb(80.79834%, 56.098938%, 56.498718%)" offset="0.234375"/><stop stop-opacity="1" stop-color="rgb(81.39801%, 56.848145%, 57.048035%)" offset="0.238281"/><stop stop-opacity="1" stop-color="rgb(81.999207%, 57.598877%, 57.598877%)" offset="0.242188"/><stop stop-opacity="1" stop-color="rgb(82.548523%, 58.398438%, 58.198547%)" offset="0.246094"/><stop stop-opacity="1" stop-color="rgb(83.099365%, 59.199524%, 58.799744%)" offset="0.25"/><stop stop-opacity="1" stop-color="rgb(83.699036%, 59.799194%, 59.599304%)" offset="0.253906"/><stop stop-opacity="1" stop-color="rgb(84.300232%, 60.400391%, 60.400391%)" offset="0.257812"/><stop stop-opacity="1" stop-color="rgb(84.899902%, 61.000061%, 60.800171%)" offset="0.261719"/><stop stop-opacity="1" stop-color="rgb(85.499573%, 61.601257%, 61.201477%)" offset="0.265625"/><stop stop-opacity="1" stop-color="rgb(86.099243%, 62.150574%, 61.950684%)" offset="0.269531"/><stop stop-opacity="1" stop-color="rgb(86.698914%, 62.69989%, 62.69989%)" offset="0.273438"/><stop stop-opacity="1" stop-color="rgb(87.098694%, 63.499451%, 63.299561%)" offset="0.277344"/><stop stop-opacity="1" stop-color="rgb(87.5%, 64.300537%, 63.899231%)" offset="0.28125"/><stop stop-opacity="1" stop-color="rgb(88.049316%, 65.100098%, 64.698792%)" offset="0.285156"/><stop stop-opacity="1" stop-color="rgb(88.600159%, 65.901184%, 65.499878%)" offset="0.289062"/><stop stop-opacity="1" stop-color="rgb(89.199829%, 66.699219%, 66.299438%)" offset="0.292969"/><stop stop-opacity="1" stop-color="rgb(89.7995%, 67.498779%, 67.098999%)" offset="0.296875"/><stop stop-opacity="1" stop-color="rgb(90.39917%, 68.048096%, 67.448425%)" offset="0.300781"/><stop stop-opacity="1" stop-color="rgb(90.99884%, 68.598938%, 67.799377%)" offset="0.304688"/><stop stop-opacity="1" stop-color="rgb(91.398621%, 69.398499%, 68.598938%)" offset="0.308594"/><stop stop-opacity="1" stop-color="rgb(91.799927%, 70.199585%, 69.400024%)" offset="0.3125"/><stop stop-opacity="1" stop-color="rgb(92.349243%, 70.799255%, 69.999695%)" offset="0.316406"/><stop stop-opacity="1" stop-color="rgb(92.900085%, 71.400452%, 70.600891%)" offset="0.320312"/><stop stop-opacity="1" stop-color="rgb(93.499756%, 72.149658%, 71.549988%)" offset="0.324219"/><stop stop-opacity="1" stop-color="rgb(94.100952%, 72.900391%, 72.50061%)" offset="0.328125"/><stop stop-opacity="1" stop-color="rgb(94.699097%, 73.899841%, 73.300171%)" offset="0.332031"/><stop stop-opacity="1" stop-color="rgb(95.298767%, 74.899292%, 74.099731%)" offset="0.335938"/><stop stop-opacity="1" stop-color="rgb(95.698547%, 75.498962%, 74.699402%)" offset="0.339844"/><stop stop-opacity="1" stop-color="rgb(96.099854%, 76.098633%, 75.299072%)" offset="0.34375"/><stop stop-opacity="1" stop-color="rgb(96.298218%, 76.098633%, 75.299072%)" offset="0.347656"/><stop stop-opacity="1" stop-color="rgb(96.498108%, 76.098633%, 75.299072%)" offset="0.351562"/><stop stop-opacity="1" stop-color="rgb(96.098328%, 75.898743%, 74.899292%)" offset="0.355469"/><stop stop-opacity="1" stop-color="rgb(95.698547%, 75.698853%, 74.499512%)" offset="0.359375"/><stop stop-opacity="1" stop-color="rgb(95.298767%, 75.099182%, 74.098206%)" offset="0.363281"/><stop stop-opacity="1" stop-color="rgb(94.898987%, 74.499512%, 73.698425%)" offset="0.367188"/><stop stop-opacity="1" stop-color="rgb(94.699097%, 74.098206%, 73.298645%)" offset="0.371094"/><stop stop-opacity="1" stop-color="rgb(94.499207%, 73.698425%, 72.898865%)" offset="0.375"/><stop stop-opacity="1" stop-color="rgb(94.0979%, 73.298645%, 72.547913%)" offset="0.378906"/><stop stop-opacity="1" stop-color="rgb(93.69812%, 72.898865%, 72.198486%)" offset="0.382812"/><stop stop-opacity="1" stop-color="rgb(93.29834%, 72.547913%, 71.59729%)" offset="0.386719"/><stop stop-opacity="1" stop-color="rgb(92.89856%, 72.198486%, 70.99762%)" offset="0.390625"/><stop stop-opacity="1" stop-color="rgb(92.549133%, 71.598816%, 70.597839%)" offset="0.394531"/><stop stop-opacity="1" stop-color="rgb(92.199707%, 70.999146%, 70.199585%)" offset="0.398438"/><stop stop-opacity="1" stop-color="rgb(91.798401%, 70.597839%, 69.798279%)" offset="0.402344"/><stop stop-opacity="1" stop-color="rgb(91.398621%, 70.198059%, 69.398499%)" offset="0.40625"/><stop stop-opacity="1" stop-color="rgb(91.19873%, 69.998169%, 68.998718%)" offset="0.410156"/><stop stop-opacity="1" stop-color="rgb(90.99884%, 69.798279%, 68.598938%)" offset="0.414062"/><stop stop-opacity="1" stop-color="rgb(90.59906%, 69.398499%, 68.199158%)" offset="0.417969"/><stop stop-opacity="1" stop-color="rgb(90.19928%, 68.998718%, 67.799377%)" offset="0.421875"/><stop stop-opacity="1" stop-color="rgb(89.7995%, 68.399048%, 67.448425%)" offset="0.425781"/><stop stop-opacity="1" stop-color="rgb(89.399719%, 67.799377%, 67.098999%)" offset="0.429688"/><stop stop-opacity="1" stop-color="rgb(88.998413%, 67.648315%, 66.699219%)" offset="0.433594"/><stop stop-opacity="1" stop-color="rgb(88.598633%, 67.498779%, 66.299438%)" offset="0.4375"/><stop stop-opacity="1" stop-color="rgb(88.198853%, 66.897583%, 65.698242%)" offset="0.441406"/><stop stop-opacity="1" stop-color="rgb(87.799072%, 66.297913%, 65.098572%)" offset="0.445312"/><stop stop-opacity="1" stop-color="rgb(87.44812%, 65.898132%, 64.697266%)" offset="0.449219"/><stop stop-opacity="1" stop-color="rgb(87.098694%, 65.498352%, 64.297485%)" offset="0.453125"/><stop stop-opacity="1" stop-color="rgb(86.898804%, 65.098572%, 63.897705%)" offset="0.457031"/><stop stop-opacity="1" stop-color="rgb(86.698914%, 64.698792%, 63.499451%)" offset="0.460938"/><stop stop-opacity="1" stop-color="rgb(86.299133%, 64.299011%, 63.098145%)" offset="0.464844"/><stop stop-opacity="1" stop-color="rgb(85.899353%, 63.899231%, 62.698364%)" offset="0.46875"/><stop stop-opacity="1" stop-color="rgb(85.498047%, 63.497925%, 62.347412%)" offset="0.472656"/><stop stop-opacity="1" stop-color="rgb(85.098267%, 63.098145%, 61.997986%)" offset="0.476562"/><stop stop-opacity="1" stop-color="rgb(84.698486%, 62.548828%, 61.598206%)" offset="0.480469"/><stop stop-opacity="1" stop-color="rgb(84.298706%, 61.999512%, 61.198425%)" offset="0.484375"/><stop stop-opacity="1" stop-color="rgb(83.898926%, 61.798096%, 60.998535%)" offset="0.488281"/><stop stop-opacity="1" stop-color="rgb(83.499146%, 61.598206%, 60.798645%)" offset="0.492188"/><stop stop-opacity="1" stop-color="rgb(83.097839%, 61.198425%, 60.398865%)" offset="0.496094"/><stop stop-opacity="1" stop-color="rgb(82.698059%, 60.798645%, 59.999084%)" offset="0.5"/><stop stop-opacity="1" stop-color="rgb(82.546997%, 60.397339%, 59.597778%)" offset="0.503906"/><stop stop-opacity="1" stop-color="rgb(82.397461%, 59.997559%, 59.197998%)" offset="0.507812"/><stop stop-opacity="1" stop-color="rgb(81.797791%, 59.397888%, 58.598328%)" offset="0.511719"/><stop stop-opacity="1" stop-color="rgb(81.19812%, 58.798218%, 57.998657%)" offset="0.515625"/><stop stop-opacity="1" stop-color="rgb(80.79834%, 58.398438%, 57.798767%)" offset="0.519531"/><stop stop-opacity="1" stop-color="rgb(80.39856%, 57.998657%, 57.598877%)" offset="0.523438"/><stop stop-opacity="1" stop-color="rgb(79.998779%, 57.447815%, 57.048035%)" offset="0.527344"/><stop stop-opacity="1" stop-color="rgb(79.598999%, 56.898499%, 56.498718%)" offset="0.53125"/><stop stop-opacity="1" stop-color="rgb(79.197693%, 56.498718%, 56.097412%)" offset="0.535156"/><stop stop-opacity="1" stop-color="rgb(78.797913%, 56.098938%, 55.697632%)" offset="0.539063"/><stop stop-opacity="1" stop-color="rgb(78.398132%, 55.699158%, 55.297852%)" offset="0.542969"/><stop stop-opacity="1" stop-color="rgb(77.998352%, 55.299377%, 54.899597%)" offset="0.546875"/><stop stop-opacity="1" stop-color="rgb(77.648926%, 54.698181%, 54.498291%)" offset="0.550781"/><stop stop-opacity="1" stop-color="rgb(77.2995%, 54.098511%, 54.098511%)" offset="0.554688"/><stop stop-opacity="1" stop-color="rgb(76.898193%, 53.69873%, 53.69873%)" offset="0.558594"/><stop stop-opacity="1" stop-color="rgb(76.498413%, 53.29895%, 53.29895%)" offset="0.5625"/><stop stop-opacity="1" stop-color="rgb(76.098633%, 53.097534%, 52.897644%)" offset="0.566406"/><stop stop-opacity="1" stop-color="rgb(75.698853%, 52.897644%, 52.497864%)" offset="0.570313"/><stop stop-opacity="1" stop-color="rgb(75.299072%, 52.346802%, 52.146912%)" offset="0.574219"/><stop stop-opacity="1" stop-color="rgb(74.899292%, 51.797485%, 51.797485%)" offset="0.578125"/><stop stop-opacity="1" stop-color="rgb(74.699402%, 51.397705%, 51.397705%)" offset="0.582031"/><stop stop-opacity="1" stop-color="rgb(74.499512%, 50.999451%, 50.999451%)" offset="0.585938"/><stop stop-opacity="1" stop-color="rgb(74.098206%, 50.798035%, 50.598145%)" offset="0.589844"/><stop stop-opacity="1" stop-color="rgb(73.698425%, 50.598145%, 50.198364%)" offset="0.59375"/><stop stop-opacity="1" stop-color="rgb(73.298645%, 49.998474%, 49.798584%)" offset="0.597656"/><stop stop-opacity="1" stop-color="rgb(72.898865%, 49.398804%, 49.398804%)" offset="0.601563"/><stop stop-opacity="1" stop-color="rgb(72.547913%, 48.999023%, 49.198914%)" offset="0.605469"/><stop stop-opacity="1" stop-color="rgb(72.198486%, 48.599243%, 48.999023%)" offset="0.609375"/><stop stop-opacity="1" stop-color="rgb(71.798706%, 48.197937%, 48.599243%)" offset="0.613281"/><stop stop-opacity="1" stop-color="rgb(71.398926%, 47.798157%, 48.199463%)" offset="0.617188"/><stop stop-opacity="1" stop-color="rgb(71.199036%, 47.447205%, 47.848511%)" offset="0.621094"/><stop stop-opacity="1" stop-color="rgb(70.999146%, 47.097778%, 47.499084%)" offset="0.625"/><stop stop-opacity="1" stop-color="rgb(70.597839%, 46.697998%, 47.097778%)" offset="0.628906"/><stop stop-opacity="1" stop-color="rgb(70.198059%, 46.298218%, 46.697998%)" offset="0.632812"/><stop stop-opacity="1" stop-color="rgb(69.798279%, 45.697021%, 46.298218%)" offset="0.636719"/><stop stop-opacity="1" stop-color="rgb(69.398499%, 45.097351%, 45.898438%)" offset="0.640625"/><stop stop-opacity="1" stop-color="rgb(69.198608%, 44.697571%, 45.498657%)" offset="0.644531"/><stop stop-opacity="1" stop-color="rgb(68.998718%, 44.299316%, 45.098877%)" offset="0.648438"/><stop stop-opacity="1" stop-color="rgb(68.399048%, 43.89801%, 44.697571%)" offset="0.652344"/><stop stop-opacity="1" stop-color="rgb(67.799377%, 43.49823%, 44.297791%)" offset="0.65625"/><stop stop-opacity="1" stop-color="rgb(67.448425%, 43.09845%, 43.89801%)" offset="0.660156"/><stop stop-opacity="1" stop-color="rgb(67.097473%, 42.698669%, 43.49823%)" offset="0.664062"/><stop stop-opacity="1" stop-color="rgb(66.697693%, 42.347717%, 43.09845%)" offset="0.667969"/><stop stop-opacity="1" stop-color="rgb(66.299438%, 41.998291%, 42.698669%)" offset="0.671875"/><stop stop-opacity="1" stop-color="rgb(66.098022%, 41.598511%, 42.347717%)" offset="0.675781"/><stop stop-opacity="1" stop-color="rgb(65.898132%, 41.19873%, 41.998291%)" offset="0.679688"/><stop stop-opacity="1" stop-color="rgb(65.498352%, 40.597534%, 41.398621%)" offset="0.683594"/><stop stop-opacity="1" stop-color="rgb(65.098572%, 39.997864%, 40.79895%)" offset="0.6875"/><stop stop-opacity="1" stop-color="rgb(64.697266%, 39.598083%, 40.397644%)" offset="0.691406"/><stop stop-opacity="1" stop-color="rgb(64.297485%, 39.198303%, 39.997864%)" offset="0.695312"/><stop stop-opacity="1" stop-color="rgb(63.897705%, 38.796997%, 39.598083%)" offset="0.699219"/><stop stop-opacity="1" stop-color="rgb(63.497925%, 38.397217%, 39.199829%)" offset="0.703125"/><stop stop-opacity="1" stop-color="rgb(63.098145%, 37.8479%, 38.998413%)" offset="0.707031"/><stop stop-opacity="1" stop-color="rgb(62.698364%, 37.298584%, 38.798523%)" offset="0.710938"/><stop stop-opacity="1" stop-color="rgb(62.547302%, 36.898804%, 38.198853%)" offset="0.714844"/><stop stop-opacity="1" stop-color="rgb(62.397766%, 36.499023%, 37.599182%)" offset="0.71875"/><stop stop-opacity="1" stop-color="rgb(61.997986%, 36.097717%, 37.24823%)" offset="0.722656"/><stop stop-opacity="1" stop-color="rgb(61.598206%, 35.697937%, 36.898804%)" offset="0.726562"/><stop stop-opacity="1" stop-color="rgb(61.198425%, 35.298157%, 36.499023%)" offset="0.730469"/><stop stop-opacity="1" stop-color="rgb(60.798645%, 34.898376%, 36.099243%)" offset="0.734375"/><stop stop-opacity="1" stop-color="rgb(60.398865%, 34.498596%, 35.697937%)" offset="0.738281"/><stop stop-opacity="1" stop-color="rgb(59.999084%, 34.098816%, 35.298157%)" offset="0.742188"/><stop stop-opacity="1" stop-color="rgb(59.597778%, 33.69751%, 34.898376%)" offset="0.746094"/><stop stop-opacity="1" stop-color="rgb(59.197998%, 33.297729%, 34.498596%)" offset="0.75"/><stop stop-opacity="1" stop-color="rgb(58.798218%, 32.748413%, 34.09729%)" offset="0.753906"/><stop stop-opacity="1" stop-color="rgb(58.398438%, 32.199097%, 33.69751%)" offset="0.757812"/><stop stop-opacity="1" stop-color="rgb(57.847595%, 31.997681%, 33.297729%)" offset="0.761719"/><stop stop-opacity="1" stop-color="rgb(57.298279%, 31.796265%, 32.897949%)" offset="0.765625"/><stop stop-opacity="1" stop-color="rgb(56.898499%, 31.196594%, 32.548523%)" offset="0.769531"/><stop stop-opacity="1" stop-color="rgb(56.498718%, 30.59845%, 32.199097%)" offset="0.773438"/><stop stop-opacity="1" stop-color="rgb(56.097412%, 30.198669%, 31.797791%)" offset="0.777344"/><stop stop-opacity="1" stop-color="rgb(55.697632%, 29.798889%, 31.39801%)" offset="0.78125"/><stop stop-opacity="1" stop-color="rgb(55.297852%, 29.397583%, 30.99823%)" offset="0.785156"/><stop stop-opacity="1" stop-color="rgb(54.899597%, 28.997803%, 30.59845%)" offset="0.789062"/><stop stop-opacity="1" stop-color="rgb(54.698181%, 28.797913%, 30.198669%)" offset="0.792969"/><stop stop-opacity="1" stop-color="rgb(54.498291%, 28.598022%, 29.798889%)" offset="0.796875"/><stop stop-opacity="1" stop-color="rgb(54.098511%, 28.04718%, 29.397583%)" offset="0.800781"/><stop stop-opacity="1" stop-color="rgb(53.69873%, 27.497864%, 28.997803%)" offset="0.804688"/><stop stop-opacity="1" stop-color="rgb(53.297424%, 27.098083%, 28.598022%)" offset="0.808594"/><stop stop-opacity="1" stop-color="rgb(52.897644%, 26.698303%, 28.198242%)" offset="0.8125"/><stop stop-opacity="1" stop-color="rgb(52.697754%, 26.296997%, 27.84729%)" offset="0.816406"/><stop stop-opacity="1" stop-color="rgb(52.497864%, 25.897217%, 27.497864%)" offset="0.820312"/><stop stop-opacity="1" stop-color="rgb(52.146912%, 25.497437%, 27.098083%)" offset="0.824219"/><stop stop-opacity="1" stop-color="rgb(51.797485%, 25.099182%, 26.698303%)" offset="0.828125"/><stop stop-opacity="1" stop-color="rgb(51.397705%, 24.897766%, 26.498413%)" offset="0.832031"/><stop stop-opacity="1" stop-color="rgb(50.997925%, 24.697876%, 26.298523%)" offset="0.835938"/><stop stop-opacity="1" stop-color="rgb(50.598145%, 24.298096%, 25.897217%)" offset="0.839844"/><stop stop-opacity="1" stop-color="rgb(50.198364%, 23.898315%, 25.497437%)" offset="0.84375"/><stop stop-opacity="1" stop-color="rgb(49.798584%, 23.498535%, 25.097656%)" offset="0.847656"/><stop stop-opacity="1" stop-color="rgb(49.398804%, 23.098755%, 24.697876%)" offset="0.851562"/><stop stop-opacity="1" stop-color="rgb(49.398804%, 22.898865%, 24.497986%)" offset="0.855469"/><stop stop-opacity="1" stop-color="rgb(49.398804%, 22.698975%, 24.299622%)" offset="0.859375"/><stop stop-opacity="1" stop-color="rgb(49.398804%, 22.698975%, 24.299622%)" offset="0.875"/><stop stop-opacity="1" stop-color="rgb(49.398804%, 22.698975%, 24.299622%)" offset="1"/></linearGradient></defs><g clip-path="url(#a2c957cf70)"><g clip-path="url(#28ccb5173f)"><g clip-path="url(#a8bd549e22)"><g clip-path="url(#fb15507160)"><path fill="url(#5bd033e12e)" d="M -15.601562 26.003906 L 26.003906 67.605469 L 67.605469 26.003906 L 26.003906 -15.601562 Z M -15.601562 26.003906 " fill-rule="nonzero"/></g></g></g></g><path fill="#ffffff" d="M 24.59375 38.242188 C 24.351562 38.054688 24.0625 38.039062 23.804688 37.945312 C 23.457031 37.820312 23.113281 37.691406 22.804688 37.488281 C 22.773438 37.46875 22.738281 37.441406 22.707031 37.4375 C 22.058594 37.355469 21.40625 37.28125 20.765625 37.460938 C 20.507812 37.53125 20.261719 37.566406 20.007812 37.53125 C 19.707031 37.484375 19.542969 37.257812 19.535156 36.910156 C 19.519531 36.28125 19.617188 35.664062 19.722656 35.046875 C 19.738281 34.957031 19.773438 34.871094 19.730469 34.765625 C 19.605469 34.738281 19.539062 34.835938 19.464844 34.910156 C 19.132812 35.230469 18.808594 35.558594 18.480469 35.878906 C 18.402344 35.953125 18.355469 36.03125 18.355469 36.144531 C 18.347656 36.527344 18.402344 36.898438 18.617188 37.226562 C 18.726562 37.390625 18.761719 37.5625 18.738281 37.753906 C 18.707031 38.03125 18.417969 38.179688 18.191406 38.019531 C 17.605469 37.597656 17.089844 37.121094 16.945312 36.367188 C 16.898438 36.128906 16.796875 35.921875 16.644531 35.722656 C 16.324219 35.308594 16.402344 35.015625 16.730469 34.605469 C 17.519531 33.617188 18.382812 32.695312 19.179688 31.71875 C 19.5 31.328125 19.816406 30.921875 20.1875 30.582031 C 20.632812 30.179688 20.589844 29.734375 20.433594 29.253906 C 20.234375 28.648438 20.019531 28.050781 19.8125 27.453125 C 19.582031 26.789062 19.414062 26.113281 19.3125 25.417969 C 19.28125 25.207031 19.238281 24.988281 19.09375 24.828125 C 18.699219 24.394531 18.714844 23.90625 18.84375 23.378906 C 19.050781 22.5625 19.34375 21.78125 19.664062 21.007812 C 19.84375 20.570312 19.902344 20.121094 19.921875 19.660156 C 19.960938 18.773438 19.859375 17.890625 19.863281 17.007812 C 19.867188 16.546875 19.894531 16.089844 19.96875 15.632812 C 20 15.417969 20.011719 15.203125 19.867188 14.996094 C 19.726562 14.792969 19.746094 14.574219 19.890625 14.351562 C 20.027344 14.144531 20.1875 13.949219 20.25 13.703125 C 20.285156 13.566406 20.398438 13.515625 20.523438 13.507812 C 20.824219 13.496094 21.132812 13.472656 21.417969 13.609375 C 21.726562 13.753906 22.054688 13.765625 22.363281 13.660156 C 22.757812 13.523438 22.921875 13.171875 22.957031 12.796875 C 23.015625 12.183594 23.238281 11.664062 23.652344 11.210938 C 23.964844 10.867188 24.351562 10.675781 24.792969 10.585938 C 25.160156 10.511719 25.488281 10.617188 25.785156 10.832031 C 26.222656 11.140625 26.628906 11.484375 27.007812 11.867188 C 27.3125 12.175781 27.253906 12.460938 26.855469 12.648438 C 26.46875 12.828125 26.308594 13.15625 26.320312 13.554688 C 26.332031 13.8125 26.269531 13.992188 26.054688 14.136719 C 25.832031 14.289062 25.667969 14.496094 25.554688 14.75 C 25.425781 15.050781 25.21875 15.101562 24.925781 14.9375 C 24.890625 14.921875 24.863281 14.894531 24.832031 14.878906 C 24.714844 14.828125 24.582031 14.667969 24.480469 14.859375 C 24.390625 15.027344 24.335938 15.242188 24.539062 15.378906 C 24.765625 15.53125 25.019531 15.644531 25.257812 15.785156 C 25.617188 15.996094 25.90625 16.253906 25.871094 16.71875 C 25.859375 16.847656 25.796875 16.964844 25.773438 17.089844 C 25.714844 17.378906 25.789062 17.449219 26.070312 17.371094 C 26.308594 17.304688 26.492188 17.210938 26.570312 16.929688 C 26.671875 16.542969 26.882812 16.210938 27.230469 15.972656 C 27.445312 15.828125 27.421875 15.5625 27.4375 15.339844 C 27.460938 15.003906 27.511719 14.726562 27.785156 14.457031 C 27.964844 14.28125 28.113281 13.960938 28.019531 13.621094 C 27.90625 13.195312 28.007812 12.792969 28.265625 12.675781 C 28.625 12.511719 28.921875 12.671875 29.199219 12.902344 C 29.308594 12.996094 29.394531 13.121094 29.5625 13.171875 C 29.683594 13.035156 29.820312 12.921875 30.003906 12.871094 C 30.351562 12.777344 30.6875 12.683594 30.988281 12.984375 C 31.308594 13.308594 31.511719 13.667969 31.351562 14.148438 C 31.261719 14.429688 31.203125 14.71875 31.183594 15.015625 C 31.160156 15.382812 30.972656 15.640625 30.675781 15.855469 C 30.410156 16.054688 30.082031 16.144531 29.84375 16.386719 C 29.480469 16.757812 29.464844 16.914062 29.753906 17.34375 C 29.777344 17.375 29.800781 17.402344 29.820312 17.433594 C 29.992188 17.691406 30.179688 17.894531 30.535156 17.71875 C 30.636719 17.667969 30.769531 17.675781 30.890625 17.671875 C 31.199219 17.65625 31.441406 17.847656 31.457031 18.148438 C 31.476562 18.527344 31.46875 18.90625 31.285156 19.253906 C 31.191406 19.425781 31.199219 19.578125 31.308594 19.742188 C 31.527344 20.082031 31.738281 20.433594 32.019531 20.726562 C 32.507812 21.230469 32.839844 21.835938 33.171875 22.441406 C 33.4375 22.9375 33.699219 23.433594 33.984375 23.917969 C 34.269531 24.394531 34.386719 24.921875 34.53125 25.441406 C 34.550781 25.515625 34.585938 25.617188 34.523438 25.652344 C 34.226562 25.8125 34.394531 26.011719 34.472656 26.191406 C 34.667969 26.648438 34.859375 27.101562 35.019531 27.574219 C 35.1875 28.066406 35.5625 28.414062 35.976562 28.691406 C 37.101562 29.453125 38.335938 29.921875 39.710938 29.988281 C 40.277344 30.019531 40.609375 30.421875 40.660156 30.976562 C 40.714844 31.597656 40.445312 32.09375 40.132812 32.570312 C 39.324219 33.804688 38.25 34.753906 36.953125 35.457031 C 36.191406 35.871094 35.414062 36.25 34.589844 36.527344 C 34.136719 36.683594 33.75 36.976562 33.308594 37.167969 C 32.90625 37.339844 32.484375 37.417969 32.078125 37.554688 C 31.503906 37.746094 30.902344 37.855469 30.34375 38.09375 C 28.875 38.722656 27.339844 39.019531 25.742188 38.976562 C 25.585938 38.972656 25.429688 38.957031 25.277344 38.917969 C 25.035156 38.863281 24.824219 38.757812 24.757812 38.484375 C 24.738281 38.390625 24.675781 38.320312 24.59375 38.242188 M 30.351562 23.109375 C 30.523438 23.277344 30.683594 23.453125 30.816406 23.65625 C 30.910156 23.800781 31.03125 23.929688 31.195312 24.003906 C 31.476562 24.136719 31.703125 24.355469 31.800781 24.628906 C 32 25.179688 32.5 25.300781 32.941406 25.496094 C 33.160156 25.59375 33.285156 25.484375 33.316406 25.246094 C 33.335938 25.070312 33.332031 24.890625 33.382812 24.726562 C 33.460938 24.492188 33.386719 24.3125 33.238281 24.148438 C 33.019531 23.90625 32.824219 23.648438 32.585938 23.433594 C 31.769531 22.695312 31.039062 21.890625 30.523438 20.902344 C 30.296875 20.464844 30.167969 20.464844 29.738281 20.75 C 29.734375 20.847656 29.808594 20.929688 29.785156 21.039062 C 29.703125 21.414062 29.636719 21.800781 29.464844 22.148438 C 29.363281 22.351562 29.417969 22.445312 29.59375 22.539062 C 29.863281 22.683594 30.105469 22.867188 30.351562 23.109375 M 22.011719 33.976562 C 21.890625 34.609375 21.773438 35.242188 21.640625 35.871094 C 21.601562 36.066406 21.675781 36.195312 21.824219 36.292969 C 21.976562 36.390625 22.148438 36.40625 22.328125 36.40625 C 22.488281 36.402344 22.554688 36.328125 22.578125 36.175781 C 22.832031 34.503906 23.09375 32.835938 23.34375 31.164062 C 23.359375 31.074219 23.402344 30.964844 23.273438 30.867188 C 22.992188 31.230469 22.664062 31.554688 22.519531 32.011719 C 22.324219 32.644531 22.175781 33.289062 22.011719 33.976562 M 23.886719 24.496094 C 23.914062 24.675781 23.921875 24.863281 23.96875 25.039062 C 24.007812 25.191406 23.972656 25.296875 23.871094 25.414062 C 23.609375 25.707031 23.644531 26.140625 23.945312 26.433594 C 24.089844 26.246094 24.058594 26.015625 24.09375 25.804688 C 24.1875 25.230469 24.394531 24.679688 24.421875 24.097656 C 24.449219 23.488281 24.621094 22.945312 25.007812 22.46875 C 25.097656 22.355469 25.050781 22.265625 24.949219 22.191406 C 24.746094 22.042969 24.535156 21.910156 24.34375 21.753906 C 24.121094 21.570312 24.066406 21.585938 23.988281 21.867188 C 23.753906 22.71875 23.808594 23.582031 23.886719 24.496094 M 26.210938 18.957031 C 26.175781 18.75 26.058594 18.707031 25.871094 18.765625 C 25.683594 18.824219 25.578125 18.914062 25.601562 19.140625 C 25.664062 19.773438 26.101562 20.175781 26.480469 20.617188 C 26.515625 20.65625 26.574219 20.675781 26.644531 20.628906 C 26.730469 20.378906 26.644531 20.136719 26.550781 19.898438 C 26.433594 19.601562 26.257812 19.324219 26.210938 18.957031 Z M 26.210938 18.957031 " fill-opacity="1" fill-rule="nonzero"/></svg>