<svg xmlns="http://www.w3.org/2000/svg" xmlns:xlink="http://www.w3.org/1999/xlink" width="70" zoomAndPan="magnify" viewBox="0 0 52.5 52.499999" height="70" preserveAspectRatio="xMidYMid meet" version="1.0"><defs><clipPath id="88f3ce7e85"><path d="M 5.199219 5.199219 L 46.804688 5.199219 L 46.804688 46.804688 L 5.199219 46.804688 Z M 5.199219 5.199219 " clip-rule="nonzero"/></clipPath><clipPath id="3bf878d446"><path d="M 46.804688 26.003906 C 46.804688 37.492188 37.492188 46.804688 26.003906 46.804688 C 14.515625 46.804688 5.199219 37.492188 5.199219 26.003906 C 5.199219 14.511719 14.515625 5.199219 26.003906 5.199219 C 37.492188 5.199219 46.804688 14.511719 46.804688 26.003906 Z M 46.804688 26.003906 " clip-rule="nonzero"/></clipPath><clipPath id="633530c980"><path d="M 46.804688 26.003906 C 46.804688 37.492188 37.492188 46.804688 26.003906 46.804688 C 14.515625 46.804688 5.199219 37.492188 5.199219 26.003906 C 5.199219 14.511719 14.515625 5.199219 26.003906 5.199219 C 37.492188 5.199219 46.804688 14.511719 46.804688 26.003906 " clip-rule="nonzero"/></clipPath><clipPath id="b63e946166"><path d="M -15.601562 26.003906 L 26.003906 67.605469 L 67.605469 26.003906 L 26.003906 -15.601562 Z M -15.601562 26.003906 " clip-rule="nonzero"/></clipPath><linearGradient x1="-0.20711" gradientTransform="matrix(29.418026, -29.418026, 29.418026, 29.418026, 11.293137, 40.711375)" y1="0" x2="1.207117" gradientUnits="userSpaceOnUse" y2="0" id="5cbf316951"><stop stop-opacity="1" stop-color="rgb(70.599365%, 42.698669%, 44.699097%)" offset="0"/><stop stop-opacity="1" stop-color="rgb(70.599365%, 42.698669%, 44.699097%)" offset="0.125"/><stop stop-opacity="1" stop-color="rgb(70.599365%, 42.698669%, 44.699097%)" offset="0.140625"/><stop stop-opacity="1" stop-color="rgb(70.799255%, 42.698669%, 44.699097%)" offset="0.144531"/><stop stop-opacity="1" stop-color="rgb(70.999146%, 42.698669%, 44.699097%)" offset="0.148438"/><stop stop-opacity="1" stop-color="rgb(71.398926%, 43.09845%, 45.098877%)" offset="0.152344"/><stop stop-opacity="1" stop-color="rgb(71.798706%, 43.499756%, 45.500183%)" offset="0.15625"/><stop stop-opacity="1" stop-color="rgb(72.148132%, 44.099426%, 46.099854%)" offset="0.160156"/><stop stop-opacity="1" stop-color="rgb(72.499084%, 44.700623%, 46.699524%)" offset="0.164063"/><stop stop-opacity="1" stop-color="rgb(72.898865%, 45.298767%, 47.24884%)" offset="0.167969"/><stop stop-opacity="1" stop-color="rgb(73.298645%, 45.898438%, 47.798157%)" offset="0.171875"/><stop stop-opacity="1" stop-color="rgb(73.698425%, 46.498108%, 48.197937%)" offset="0.175781"/><stop stop-opacity="1" stop-color="rgb(74.099731%, 47.099304%, 48.599243%)" offset="0.179688"/><stop stop-opacity="1" stop-color="rgb(74.699402%, 47.648621%, 49.198914%)" offset="0.183594"/><stop stop-opacity="1" stop-color="rgb(75.299072%, 48.199463%, 49.80011%)" offset="0.1875"/><stop stop-opacity="1" stop-color="rgb(75.498962%, 48.799133%, 50.19989%)" offset="0.191406"/><stop stop-opacity="1" stop-color="rgb(75.700378%, 49.40033%, 50.59967%)" offset="0.195312"/><stop stop-opacity="1" stop-color="rgb(76.300049%, 50%, 51.199341%)" offset="0.199219"/><stop stop-opacity="1" stop-color="rgb(76.899719%, 50.601196%, 51.800537%)" offset="0.203125"/><stop stop-opacity="1" stop-color="rgb(77.249146%, 51.199341%, 52.149963%)" offset="0.207031"/><stop stop-opacity="1" stop-color="rgb(77.598572%, 51.799011%, 52.49939%)" offset="0.210938"/><stop stop-opacity="1" stop-color="rgb(78.198242%, 52.549744%, 53.29895%)" offset="0.214844"/><stop stop-opacity="1" stop-color="rgb(78.799438%, 53.300476%, 54.100037%)" offset="0.21875"/><stop stop-opacity="1" stop-color="rgb(79.199219%, 53.900146%, 54.699707%)" offset="0.222656"/><stop stop-opacity="1" stop-color="rgb(79.600525%, 54.499817%, 55.299377%)" offset="0.226562"/><stop stop-opacity="1" stop-color="rgb(80.198669%, 55.299377%, 55.899048%)" offset="0.230469"/><stop stop-opacity="1" stop-color="rgb(80.79834%, 56.098938%, 56.498718%)" offset="0.234375"/><stop stop-opacity="1" stop-color="rgb(81.39801%, 56.848145%, 57.048035%)" offset="0.238281"/><stop stop-opacity="1" stop-color="rgb(81.999207%, 57.598877%, 57.598877%)" offset="0.242188"/><stop stop-opacity="1" stop-color="rgb(82.548523%, 58.398438%, 58.198547%)" offset="0.246094"/><stop stop-opacity="1" stop-color="rgb(83.099365%, 59.199524%, 58.799744%)" offset="0.25"/><stop stop-opacity="1" stop-color="rgb(83.699036%, 59.799194%, 59.599304%)" offset="0.253906"/><stop stop-opacity="1" stop-color="rgb(84.300232%, 60.400391%, 60.400391%)" offset="0.257812"/><stop stop-opacity="1" stop-color="rgb(84.899902%, 61.000061%, 60.800171%)" offset="0.261719"/><stop stop-opacity="1" stop-color="rgb(85.499573%, 61.601257%, 61.201477%)" offset="0.265625"/><stop stop-opacity="1" stop-color="rgb(86.099243%, 62.150574%, 61.950684%)" offset="0.269531"/><stop stop-opacity="1" stop-color="rgb(86.698914%, 62.69989%, 62.69989%)" offset="0.273438"/><stop stop-opacity="1" stop-color="rgb(87.098694%, 63.499451%, 63.299561%)" offset="0.277344"/><stop stop-opacity="1" stop-color="rgb(87.5%, 64.300537%, 63.899231%)" offset="0.28125"/><stop stop-opacity="1" stop-color="rgb(88.049316%, 65.100098%, 64.698792%)" offset="0.285156"/><stop stop-opacity="1" stop-color="rgb(88.600159%, 65.901184%, 65.499878%)" offset="0.289062"/><stop stop-opacity="1" stop-color="rgb(89.199829%, 66.699219%, 66.299438%)" offset="0.292969"/><stop stop-opacity="1" stop-color="rgb(89.7995%, 67.498779%, 67.098999%)" offset="0.296875"/><stop stop-opacity="1" stop-color="rgb(90.39917%, 68.048096%, 67.448425%)" offset="0.300781"/><stop stop-opacity="1" stop-color="rgb(90.99884%, 68.598938%, 67.799377%)" offset="0.304688"/><stop stop-opacity="1" stop-color="rgb(91.398621%, 69.398499%, 68.598938%)" offset="0.308594"/><stop stop-opacity="1" stop-color="rgb(91.799927%, 70.199585%, 69.400024%)" offset="0.3125"/><stop stop-opacity="1" stop-color="rgb(92.349243%, 70.799255%, 69.999695%)" offset="0.316406"/><stop stop-opacity="1" stop-color="rgb(92.900085%, 71.400452%, 70.600891%)" offset="0.320312"/><stop stop-opacity="1" stop-color="rgb(93.499756%, 72.149658%, 71.549988%)" offset="0.324219"/><stop stop-opacity="1" stop-color="rgb(94.100952%, 72.900391%, 72.50061%)" offset="0.328125"/><stop stop-opacity="1" stop-color="rgb(94.699097%, 73.899841%, 73.300171%)" offset="0.332031"/><stop stop-opacity="1" stop-color="rgb(95.298767%, 74.899292%, 74.099731%)" offset="0.335938"/><stop stop-opacity="1" stop-color="rgb(95.698547%, 75.498962%, 74.699402%)" offset="0.339844"/><stop stop-opacity="1" stop-color="rgb(96.099854%, 76.098633%, 75.299072%)" offset="0.34375"/><stop stop-opacity="1" stop-color="rgb(96.298218%, 76.098633%, 75.299072%)" offset="0.347656"/><stop stop-opacity="1" stop-color="rgb(96.498108%, 76.098633%, 75.299072%)" offset="0.351562"/><stop stop-opacity="1" stop-color="rgb(96.098328%, 75.898743%, 74.899292%)" offset="0.355469"/><stop stop-opacity="1" stop-color="rgb(95.698547%, 75.698853%, 74.499512%)" offset="0.359375"/><stop stop-opacity="1" stop-color="rgb(95.298767%, 75.099182%, 74.098206%)" offset="0.363281"/><stop stop-opacity="1" stop-color="rgb(94.898987%, 74.499512%, 73.698425%)" offset="0.367188"/><stop stop-opacity="1" stop-color="rgb(94.699097%, 74.098206%, 73.298645%)" offset="0.371094"/><stop stop-opacity="1" stop-color="rgb(94.499207%, 73.698425%, 72.898865%)" offset="0.375"/><stop stop-opacity="1" stop-color="rgb(94.0979%, 73.298645%, 72.547913%)" offset="0.378906"/><stop stop-opacity="1" stop-color="rgb(93.69812%, 72.898865%, 72.198486%)" offset="0.382812"/><stop stop-opacity="1" stop-color="rgb(93.29834%, 72.547913%, 71.59729%)" offset="0.386719"/><stop stop-opacity="1" stop-color="rgb(92.89856%, 72.198486%, 70.99762%)" offset="0.390625"/><stop stop-opacity="1" stop-color="rgb(92.549133%, 71.598816%, 70.597839%)" offset="0.394531"/><stop stop-opacity="1" stop-color="rgb(92.199707%, 70.999146%, 70.199585%)" offset="0.398438"/><stop stop-opacity="1" stop-color="rgb(91.798401%, 70.597839%, 69.798279%)" offset="0.402344"/><stop stop-opacity="1" stop-color="rgb(91.398621%, 70.198059%, 69.398499%)" offset="0.40625"/><stop stop-opacity="1" stop-color="rgb(91.19873%, 69.998169%, 68.998718%)" offset="0.410156"/><stop stop-opacity="1" stop-color="rgb(90.99884%, 69.798279%, 68.598938%)" offset="0.414062"/><stop stop-opacity="1" stop-color="rgb(90.59906%, 69.398499%, 68.199158%)" offset="0.417969"/><stop stop-opacity="1" stop-color="rgb(90.19928%, 68.998718%, 67.799377%)" offset="0.421875"/><stop stop-opacity="1" stop-color="rgb(89.7995%, 68.399048%, 67.448425%)" offset="0.425781"/><stop stop-opacity="1" stop-color="rgb(89.399719%, 67.799377%, 67.098999%)" offset="0.429688"/><stop stop-opacity="1" stop-color="rgb(88.998413%, 67.648315%, 66.699219%)" offset="0.433594"/><stop stop-opacity="1" stop-color="rgb(88.598633%, 67.498779%, 66.299438%)" offset="0.4375"/><stop stop-opacity="1" stop-color="rgb(88.198853%, 66.897583%, 65.698242%)" offset="0.441406"/><stop stop-opacity="1" stop-color="rgb(87.799072%, 66.297913%, 65.098572%)" offset="0.445312"/><stop stop-opacity="1" stop-color="rgb(87.44812%, 65.898132%, 64.697266%)" offset="0.449219"/><stop stop-opacity="1" stop-color="rgb(87.098694%, 65.498352%, 64.297485%)" offset="0.453125"/><stop stop-opacity="1" stop-color="rgb(86.898804%, 65.098572%, 63.897705%)" offset="0.457031"/><stop stop-opacity="1" stop-color="rgb(86.698914%, 64.698792%, 63.499451%)" offset="0.460938"/><stop stop-opacity="1" stop-color="rgb(86.299133%, 64.299011%, 63.098145%)" offset="0.464844"/><stop stop-opacity="1" stop-color="rgb(85.899353%, 63.899231%, 62.698364%)" offset="0.46875"/><stop stop-opacity="1" stop-color="rgb(85.498047%, 63.497925%, 62.347412%)" offset="0.472656"/><stop stop-opacity="1" stop-color="rgb(85.098267%, 63.098145%, 61.997986%)" offset="0.476562"/><stop stop-opacity="1" stop-color="rgb(84.698486%, 62.548828%, 61.598206%)" offset="0.480469"/><stop stop-opacity="1" stop-color="rgb(84.298706%, 61.999512%, 61.198425%)" offset="0.484375"/><stop stop-opacity="1" stop-color="rgb(83.898926%, 61.798096%, 60.998535%)" offset="0.488281"/><stop stop-opacity="1" stop-color="rgb(83.499146%, 61.598206%, 60.798645%)" offset="0.492188"/><stop stop-opacity="1" stop-color="rgb(83.097839%, 61.198425%, 60.398865%)" offset="0.496094"/><stop stop-opacity="1" stop-color="rgb(82.698059%, 60.798645%, 59.999084%)" offset="0.5"/><stop stop-opacity="1" stop-color="rgb(82.546997%, 60.397339%, 59.597778%)" offset="0.503906"/><stop stop-opacity="1" stop-color="rgb(82.397461%, 59.997559%, 59.197998%)" offset="0.507812"/><stop stop-opacity="1" stop-color="rgb(81.797791%, 59.397888%, 58.598328%)" offset="0.511719"/><stop stop-opacity="1" stop-color="rgb(81.19812%, 58.798218%, 57.998657%)" offset="0.515625"/><stop stop-opacity="1" stop-color="rgb(80.79834%, 58.398438%, 57.798767%)" offset="0.519531"/><stop stop-opacity="1" stop-color="rgb(80.39856%, 57.998657%, 57.598877%)" offset="0.523438"/><stop stop-opacity="1" stop-color="rgb(79.998779%, 57.447815%, 57.048035%)" offset="0.527344"/><stop stop-opacity="1" stop-color="rgb(79.598999%, 56.898499%, 56.498718%)" offset="0.53125"/><stop stop-opacity="1" stop-color="rgb(79.197693%, 56.498718%, 56.097412%)" offset="0.535156"/><stop stop-opacity="1" stop-color="rgb(78.797913%, 56.098938%, 55.697632%)" offset="0.539063"/><stop stop-opacity="1" stop-color="rgb(78.398132%, 55.699158%, 55.297852%)" offset="0.542969"/><stop stop-opacity="1" stop-color="rgb(77.998352%, 55.299377%, 54.899597%)" offset="0.546875"/><stop stop-opacity="1" stop-color="rgb(77.648926%, 54.698181%, 54.498291%)" offset="0.550781"/><stop stop-opacity="1" stop-color="rgb(77.2995%, 54.098511%, 54.098511%)" offset="0.554688"/><stop stop-opacity="1" stop-color="rgb(76.898193%, 53.69873%, 53.69873%)" offset="0.558594"/><stop stop-opacity="1" stop-color="rgb(76.498413%, 53.29895%, 53.29895%)" offset="0.5625"/><stop stop-opacity="1" stop-color="rgb(76.098633%, 53.097534%, 52.897644%)" offset="0.566406"/><stop stop-opacity="1" stop-color="rgb(75.698853%, 52.897644%, 52.497864%)" offset="0.570313"/><stop stop-opacity="1" stop-color="rgb(75.299072%, 52.346802%, 52.146912%)" offset="0.574219"/><stop stop-opacity="1" stop-color="rgb(74.899292%, 51.797485%, 51.797485%)" offset="0.578125"/><stop stop-opacity="1" stop-color="rgb(74.699402%, 51.397705%, 51.397705%)" offset="0.582031"/><stop stop-opacity="1" stop-color="rgb(74.499512%, 50.999451%, 50.999451%)" offset="0.585938"/><stop stop-opacity="1" stop-color="rgb(74.098206%, 50.798035%, 50.598145%)" offset="0.589844"/><stop stop-opacity="1" stop-color="rgb(73.698425%, 50.598145%, 50.198364%)" offset="0.59375"/><stop stop-opacity="1" stop-color="rgb(73.298645%, 49.998474%, 49.798584%)" offset="0.597656"/><stop stop-opacity="1" stop-color="rgb(72.898865%, 49.398804%, 49.398804%)" offset="0.601563"/><stop stop-opacity="1" stop-color="rgb(72.547913%, 48.999023%, 49.198914%)" offset="0.605469"/><stop stop-opacity="1" stop-color="rgb(72.198486%, 48.599243%, 48.999023%)" offset="0.609375"/><stop stop-opacity="1" stop-color="rgb(71.798706%, 48.197937%, 48.599243%)" offset="0.613281"/><stop stop-opacity="1" stop-color="rgb(71.398926%, 47.798157%, 48.199463%)" offset="0.617188"/><stop stop-opacity="1" stop-color="rgb(71.199036%, 47.447205%, 47.848511%)" offset="0.621094"/><stop stop-opacity="1" stop-color="rgb(70.999146%, 47.097778%, 47.499084%)" offset="0.625"/><stop stop-opacity="1" stop-color="rgb(70.597839%, 46.697998%, 47.097778%)" offset="0.628906"/><stop stop-opacity="1" stop-color="rgb(70.198059%, 46.298218%, 46.697998%)" offset="0.632812"/><stop stop-opacity="1" stop-color="rgb(69.798279%, 45.697021%, 46.298218%)" offset="0.636719"/><stop stop-opacity="1" stop-color="rgb(69.398499%, 45.097351%, 45.898438%)" offset="0.640625"/><stop stop-opacity="1" stop-color="rgb(69.198608%, 44.697571%, 45.498657%)" offset="0.644531"/><stop stop-opacity="1" stop-color="rgb(68.998718%, 44.299316%, 45.098877%)" offset="0.648438"/><stop stop-opacity="1" stop-color="rgb(68.399048%, 43.89801%, 44.697571%)" offset="0.652344"/><stop stop-opacity="1" stop-color="rgb(67.799377%, 43.49823%, 44.297791%)" offset="0.65625"/><stop stop-opacity="1" stop-color="rgb(67.448425%, 43.09845%, 43.89801%)" offset="0.660156"/><stop stop-opacity="1" stop-color="rgb(67.097473%, 42.698669%, 43.49823%)" offset="0.664062"/><stop stop-opacity="1" stop-color="rgb(66.697693%, 42.347717%, 43.09845%)" offset="0.667969"/><stop stop-opacity="1" stop-color="rgb(66.299438%, 41.998291%, 42.698669%)" offset="0.671875"/><stop stop-opacity="1" stop-color="rgb(66.098022%, 41.598511%, 42.347717%)" offset="0.675781"/><stop stop-opacity="1" stop-color="rgb(65.898132%, 41.19873%, 41.998291%)" offset="0.679688"/><stop stop-opacity="1" stop-color="rgb(65.498352%, 40.597534%, 41.398621%)" offset="0.683594"/><stop stop-opacity="1" stop-color="rgb(65.098572%, 39.997864%, 40.79895%)" offset="0.6875"/><stop stop-opacity="1" stop-color="rgb(64.697266%, 39.598083%, 40.397644%)" offset="0.691406"/><stop stop-opacity="1" stop-color="rgb(64.297485%, 39.198303%, 39.997864%)" offset="0.695312"/><stop stop-opacity="1" stop-color="rgb(63.897705%, 38.796997%, 39.598083%)" offset="0.699219"/><stop stop-opacity="1" stop-color="rgb(63.497925%, 38.397217%, 39.199829%)" offset="0.703125"/><stop stop-opacity="1" stop-color="rgb(63.098145%, 37.8479%, 38.998413%)" offset="0.707031"/><stop stop-opacity="1" stop-color="rgb(62.698364%, 37.298584%, 38.798523%)" offset="0.710938"/><stop stop-opacity="1" stop-color="rgb(62.547302%, 36.898804%, 38.198853%)" offset="0.714844"/><stop stop-opacity="1" stop-color="rgb(62.397766%, 36.499023%, 37.599182%)" offset="0.71875"/><stop stop-opacity="1" stop-color="rgb(61.997986%, 36.097717%, 37.24823%)" offset="0.722656"/><stop stop-opacity="1" stop-color="rgb(61.598206%, 35.697937%, 36.898804%)" offset="0.726562"/><stop stop-opacity="1" stop-color="rgb(61.198425%, 35.298157%, 36.499023%)" offset="0.730469"/><stop stop-opacity="1" stop-color="rgb(60.798645%, 34.898376%, 36.099243%)" offset="0.734375"/><stop stop-opacity="1" stop-color="rgb(60.398865%, 34.498596%, 35.697937%)" offset="0.738281"/><stop stop-opacity="1" stop-color="rgb(59.999084%, 34.098816%, 35.298157%)" offset="0.742188"/><stop stop-opacity="1" stop-color="rgb(59.597778%, 33.69751%, 34.898376%)" offset="0.746094"/><stop stop-opacity="1" stop-color="rgb(59.197998%, 33.297729%, 34.498596%)" offset="0.75"/><stop stop-opacity="1" stop-color="rgb(58.798218%, 32.748413%, 34.09729%)" offset="0.753906"/><stop stop-opacity="1" stop-color="rgb(58.398438%, 32.199097%, 33.69751%)" offset="0.757812"/><stop stop-opacity="1" stop-color="rgb(57.847595%, 31.997681%, 33.297729%)" offset="0.761719"/><stop stop-opacity="1" stop-color="rgb(57.298279%, 31.796265%, 32.897949%)" offset="0.765625"/><stop stop-opacity="1" stop-color="rgb(56.898499%, 31.196594%, 32.548523%)" offset="0.769531"/><stop stop-opacity="1" stop-color="rgb(56.498718%, 30.59845%, 32.199097%)" offset="0.773438"/><stop stop-opacity="1" stop-color="rgb(56.097412%, 30.198669%, 31.797791%)" offset="0.777344"/><stop stop-opacity="1" stop-color="rgb(55.697632%, 29.798889%, 31.39801%)" offset="0.78125"/><stop stop-opacity="1" stop-color="rgb(55.297852%, 29.397583%, 30.99823%)" offset="0.785156"/><stop stop-opacity="1" stop-color="rgb(54.899597%, 28.997803%, 30.59845%)" offset="0.789062"/><stop stop-opacity="1" stop-color="rgb(54.698181%, 28.797913%, 30.198669%)" offset="0.792969"/><stop stop-opacity="1" stop-color="rgb(54.498291%, 28.598022%, 29.798889%)" offset="0.796875"/><stop stop-opacity="1" stop-color="rgb(54.098511%, 28.04718%, 29.397583%)" offset="0.800781"/><stop stop-opacity="1" stop-color="rgb(53.69873%, 27.497864%, 28.997803%)" offset="0.804688"/><stop stop-opacity="1" stop-color="rgb(53.297424%, 27.098083%, 28.598022%)" offset="0.808594"/><stop stop-opacity="1" stop-color="rgb(52.897644%, 26.698303%, 28.198242%)" offset="0.8125"/><stop stop-opacity="1" stop-color="rgb(52.697754%, 26.296997%, 27.84729%)" offset="0.816406"/><stop stop-opacity="1" stop-color="rgb(52.497864%, 25.897217%, 27.497864%)" offset="0.820312"/><stop stop-opacity="1" stop-color="rgb(52.146912%, 25.497437%, 27.098083%)" offset="0.824219"/><stop stop-opacity="1" stop-color="rgb(51.797485%, 25.099182%, 26.698303%)" offset="0.828125"/><stop stop-opacity="1" stop-color="rgb(51.397705%, 24.897766%, 26.498413%)" offset="0.832031"/><stop stop-opacity="1" stop-color="rgb(50.997925%, 24.697876%, 26.298523%)" offset="0.835938"/><stop stop-opacity="1" stop-color="rgb(50.598145%, 24.298096%, 25.897217%)" offset="0.839844"/><stop stop-opacity="1" stop-color="rgb(50.198364%, 23.898315%, 25.497437%)" offset="0.84375"/><stop stop-opacity="1" stop-color="rgb(49.798584%, 23.498535%, 25.097656%)" offset="0.847656"/><stop stop-opacity="1" stop-color="rgb(49.398804%, 23.098755%, 24.697876%)" offset="0.851562"/><stop stop-opacity="1" stop-color="rgb(49.398804%, 22.898865%, 24.497986%)" offset="0.855469"/><stop stop-opacity="1" stop-color="rgb(49.398804%, 22.698975%, 24.299622%)" offset="0.859375"/><stop stop-opacity="1" stop-color="rgb(49.398804%, 22.698975%, 24.299622%)" offset="0.875"/><stop stop-opacity="1" stop-color="rgb(49.398804%, 22.698975%, 24.299622%)" offset="1"/></linearGradient><clipPath id="baefc81cd3"><path d="M 8.175781 31.207031 L 43.820312 31.207031 L 43.820312 34.6875 L 8.175781 34.6875 Z M 8.175781 31.207031 " clip-rule="nonzero"/></clipPath><clipPath id="b84ff3d8ba"><path d="M 23 10.171875 L 29 10.171875 L 29 15 L 23 15 Z M 23 10.171875 " clip-rule="nonzero"/></clipPath></defs><g clip-path="url(#88f3ce7e85)"><g clip-path="url(#3bf878d446)"><g clip-path="url(#633530c980)"><g clip-path="url(#b63e946166)"><path fill="url(#5cbf316951)" d="M -15.601562 26.003906 L 26.003906 67.605469 L 67.605469 26.003906 L 26.003906 -15.601562 Z M -15.601562 26.003906 " fill-rule="nonzero"/></g></g></g></g><g clip-path="url(#baefc81cd3)"><path fill="#ffffff" d="M 42.40625 34.09375 L 9.59375 34.09375 C 9.195312 34.09375 8.875 33.773438 8.875 33.378906 L 8.875 32.664062 C 8.875 32.265625 9.195312 31.945312 9.59375 31.945312 C 9.609375 31.945312 9.621094 31.945312 9.636719 31.941406 C 9.667969 31.945312 9.722656 31.941406 9.757812 31.941406 C 9.773438 31.941406 9.785156 31.941406 9.796875 31.941406 L 42.371094 31.941406 C 42.382812 31.945312 42.394531 31.945312 42.40625 31.945312 C 42.804688 31.945312 43.125 32.265625 43.125 32.664062 L 43.125 33.378906 C 43.125 33.386719 43.125 33.398438 43.128906 33.410156 C 43.109375 33.789062 42.792969 34.09375 42.40625 34.09375 Z M 43.824219 33.339844 L 43.824219 32.664062 C 43.824219 31.894531 43.210938 31.269531 42.453125 31.246094 C 42.4375 31.246094 42.421875 31.242188 42.40625 31.242188 L 9.796875 31.242188 C 9.785156 31.242188 9.777344 31.246094 9.765625 31.246094 L 9.765625 31.242188 C 9.699219 31.242188 9.644531 31.242188 9.59375 31.246094 C 8.8125 31.246094 8.175781 31.882812 8.175781 32.664062 L 8.175781 33.378906 C 8.175781 34.160156 8.8125 34.792969 9.59375 34.792969 L 42.40625 34.792969 C 43.191406 34.792969 43.828125 34.160156 43.828125 33.378906 C 43.828125 33.363281 43.828125 33.351562 43.824219 33.339844 " fill-opacity="1" fill-rule="nonzero"/></g><path fill="#ffffff" d="M 29.300781 23.273438 L 26 26.796875 L 22.699219 23.273438 C 22.417969 22.96875 22.261719 22.5625 22.261719 22.125 C 22.261719 21.246094 22.90625 20.53125 23.699219 20.53125 C 24.324219 20.53125 24.699219 20.953125 25.140625 21.4375 L 25.34375 21.660156 C 25.492188 21.855469 25.714844 21.972656 25.960938 21.984375 C 26.210938 21.992188 26.4375 21.902344 26.605469 21.722656 L 27.15625 21.132812 C 27.3125 20.964844 27.324219 20.949219 27.371094 20.90625 C 27.628906 20.664062 27.960938 20.53125 28.300781 20.53125 C 28.867188 20.53125 29.347656 20.867188 29.59375 21.429688 C 29.867188 22.0625 29.753906 22.789062 29.300781 23.273438 Z M 28.300781 19.832031 C 27.78125 19.832031 27.28125 20.03125 26.894531 20.394531 C 26.839844 20.445312 26.824219 20.460938 26.644531 20.65625 L 26.09375 21.246094 C 26.058594 21.285156 26.015625 21.285156 25.996094 21.285156 C 25.972656 21.285156 25.929688 21.277344 25.875 21.210938 L 25.660156 20.972656 C 25.179688 20.4375 24.632812 19.832031 23.699219 19.832031 C 22.519531 19.832031 21.5625 20.859375 21.5625 22.125 C 21.5625 22.742188 21.785156 23.316406 22.191406 23.75 L 25.746094 27.546875 C 25.8125 27.617188 25.90625 27.65625 26 27.65625 C 26.097656 27.65625 26.191406 27.617188 26.257812 27.546875 L 29.8125 23.75 C 30.453125 23.0625 30.621094 22.042969 30.234375 21.148438 C 29.882812 20.335938 29.140625 19.832031 28.300781 19.832031 " fill-opacity="1" fill-rule="nonzero"/><g clip-path="url(#b84ff3d8ba)"><path fill="#ffffff" d="M 26 10.871094 C 26.898438 10.871094 27.628906 11.601562 27.628906 12.5 C 27.628906 13.398438 26.898438 14.128906 26 14.128906 C 25.101562 14.128906 24.371094 13.398438 24.371094 12.5 C 24.371094 11.601562 25.101562 10.871094 26 10.871094 Z M 26 14.828125 C 27.28125 14.824219 28.328125 13.78125 28.328125 12.5 C 28.328125 11.21875 27.28125 10.171875 26 10.171875 C 24.714844 10.171875 23.671875 11.21875 23.671875 12.5 C 23.671875 13.78125 24.714844 14.828125 26 14.828125 " fill-opacity="1" fill-rule="nonzero"/></g><path fill="#ffffff" d="M 15.15625 20.273438 C 21.136719 14.296875 30.863281 14.296875 36.839844 20.273438 C 39.53125 22.964844 41.109375 26.507812 41.308594 30.289062 L 10.691406 30.289062 C 10.890625 26.507812 12.46875 22.964844 15.15625 20.273438 Z M 10.324219 30.988281 L 41.675781 30.988281 C 41.769531 30.988281 41.859375 30.949219 41.925781 30.882812 C 41.992188 30.8125 42.027344 30.722656 42.023438 30.628906 C 41.902344 26.535156 40.238281 22.679688 37.335938 19.78125 C 31.085938 13.53125 20.914062 13.527344 14.664062 19.78125 C 11.761719 22.679688 10.097656 26.535156 9.976562 30.628906 C 9.972656 30.722656 10.007812 30.8125 10.074219 30.882812 C 10.140625 30.949219 10.230469 30.988281 10.324219 30.988281 " fill-opacity="1" fill-rule="nonzero"/><path fill="#ffffff" d="M 29.996094 23.921875 C 29.59375 24.351562 29.171875 24.820312 28.738281 25.300781 C 27.851562 26.285156 26.933594 27.304688 26.089844 28.097656 C 26.035156 28.148438 25.953125 28.144531 25.90625 28.09375 L 22.003906 23.921875 C 21.550781 23.4375 21.300781 22.800781 21.300781 22.121094 C 21.300781 20.71875 22.378906 19.574219 23.699219 19.574219 C 24.277344 19.574219 24.839844 19.800781 25.277344 20.207031 C 25.347656 20.277344 25.390625 20.320312 25.507812 20.445312 L 25.746094 20.699219 C 25.8125 20.769531 25.902344 20.808594 26 20.808594 C 26.097656 20.808594 26.1875 20.769531 26.253906 20.699219 L 26.492188 20.445312 C 26.609375 20.320312 26.652344 20.273438 26.722656 20.207031 C 27.160156 19.800781 27.722656 19.574219 28.300781 19.574219 C 29.621094 19.574219 30.699219 20.71875 30.699219 22.121094 C 30.699219 22.800781 30.449219 23.4375 29.996094 23.921875 Z M 28.300781 18.875 C 27.542969 18.875 26.8125 19.167969 26.246094 19.699219 C 26.167969 19.769531 26.121094 19.820312 26 19.949219 C 25.882812 19.820312 25.832031 19.773438 25.753906 19.699219 C 25.1875 19.167969 24.457031 18.875 23.699219 18.875 C 21.992188 18.875 20.601562 20.332031 20.601562 22.121094 C 20.601562 22.976562 20.917969 23.785156 21.492188 24.398438 L 25.394531 28.570312 C 25.558594 28.746094 25.777344 28.832031 26 28.832031 C 26.203125 28.832031 26.40625 28.757812 26.566406 28.609375 C 27.433594 27.792969 28.363281 26.765625 29.257812 25.769531 C 29.6875 25.292969 30.105469 24.824219 30.507812 24.398438 C 31.082031 23.785156 31.394531 22.976562 31.394531 22.121094 C 31.394531 20.332031 30.007812 18.875 28.300781 18.875 " fill-opacity="1" fill-rule="nonzero"/></svg>