<svg xmlns="http://www.w3.org/2000/svg" xmlns:xlink="http://www.w3.org/1999/xlink" width="70" zoomAndPan="magnify" viewBox="0 0 52.5 52.499999" height="70" preserveAspectRatio="xMidYMid meet" version="1.0"><defs><clipPath id="7817c2529f"><path d="M 5.199219 5.199219 L 46.804688 5.199219 L 46.804688 46.804688 L 5.199219 46.804688 Z M 5.199219 5.199219 " clip-rule="nonzero"/></clipPath><clipPath id="01f2833431"><path d="M 46.804688 26.003906 C 46.804688 37.492188 37.492188 46.804688 26.003906 46.804688 C 14.515625 46.804688 5.199219 37.492188 5.199219 26.003906 C 5.199219 14.511719 14.515625 5.199219 26.003906 5.199219 C 37.492188 5.199219 46.804688 14.511719 46.804688 26.003906 Z M 46.804688 26.003906 " clip-rule="nonzero"/></clipPath><clipPath id="f8205c51da"><path d="M 46.804688 26.003906 C 46.804688 37.492188 37.492188 46.804688 26.003906 46.804688 C 14.515625 46.804688 5.199219 37.492188 5.199219 26.003906 C 5.199219 14.511719 14.515625 5.199219 26.003906 5.199219 C 37.492188 5.199219 46.804688 14.511719 46.804688 26.003906 " clip-rule="nonzero"/></clipPath><clipPath id="6153c57e91"><path d="M -15.601562 26.003906 L 26.003906 67.605469 L 67.605469 26.003906 L 26.003906 -15.601562 Z M -15.601562 26.003906 " clip-rule="nonzero"/></clipPath><linearGradient x1="-0.20711" gradientTransform="matrix(29.418026, -29.418026, 29.418026, 29.418026, 11.293137, 40.711375)" y1="0" x2="1.207117" gradientUnits="userSpaceOnUse" y2="0" id="93bdd84fb4"><stop stop-opacity="1" stop-color="rgb(70.599365%, 42.698669%, 44.699097%)" offset="0"/><stop stop-opacity="1" stop-color="rgb(70.599365%, 42.698669%, 44.699097%)" offset="0.125"/><stop stop-opacity="1" stop-color="rgb(70.599365%, 42.698669%, 44.699097%)" offset="0.140625"/><stop stop-opacity="1" stop-color="rgb(70.799255%, 42.698669%, 44.699097%)" offset="0.144531"/><stop stop-opacity="1" stop-color="rgb(70.999146%, 42.698669%, 44.699097%)" offset="0.148438"/><stop stop-opacity="1" stop-color="rgb(71.398926%, 43.09845%, 45.098877%)" offset="0.152344"/><stop stop-opacity="1" stop-color="rgb(71.798706%, 43.499756%, 45.500183%)" offset="0.15625"/><stop stop-opacity="1" stop-color="rgb(72.148132%, 44.099426%, 46.099854%)" offset="0.160156"/><stop stop-opacity="1" stop-color="rgb(72.499084%, 44.700623%, 46.699524%)" offset="0.164063"/><stop stop-opacity="1" stop-color="rgb(72.898865%, 45.298767%, 47.24884%)" offset="0.167969"/><stop stop-opacity="1" stop-color="rgb(73.298645%, 45.898438%, 47.798157%)" offset="0.171875"/><stop stop-opacity="1" stop-color="rgb(73.698425%, 46.498108%, 48.197937%)" offset="0.175781"/><stop stop-opacity="1" stop-color="rgb(74.099731%, 47.099304%, 48.599243%)" offset="0.179688"/><stop stop-opacity="1" stop-color="rgb(74.699402%, 47.648621%, 49.198914%)" offset="0.183594"/><stop stop-opacity="1" stop-color="rgb(75.299072%, 48.199463%, 49.80011%)" offset="0.1875"/><stop stop-opacity="1" stop-color="rgb(75.498962%, 48.799133%, 50.19989%)" offset="0.191406"/><stop stop-opacity="1" stop-color="rgb(75.700378%, 49.40033%, 50.59967%)" offset="0.195312"/><stop stop-opacity="1" stop-color="rgb(76.300049%, 50%, 51.199341%)" offset="0.199219"/><stop stop-opacity="1" stop-color="rgb(76.899719%, 50.601196%, 51.800537%)" offset="0.203125"/><stop stop-opacity="1" stop-color="rgb(77.249146%, 51.199341%, 52.149963%)" offset="0.207031"/><stop stop-opacity="1" stop-color="rgb(77.598572%, 51.799011%, 52.49939%)" offset="0.210938"/><stop stop-opacity="1" stop-color="rgb(78.198242%, 52.549744%, 53.29895%)" offset="0.214844"/><stop stop-opacity="1" stop-color="rgb(78.799438%, 53.300476%, 54.100037%)" offset="0.21875"/><stop stop-opacity="1" stop-color="rgb(79.199219%, 53.900146%, 54.699707%)" offset="0.222656"/><stop stop-opacity="1" stop-color="rgb(79.600525%, 54.499817%, 55.299377%)" offset="0.226562"/><stop stop-opacity="1" stop-color="rgb(80.198669%, 55.299377%, 55.899048%)" offset="0.230469"/><stop stop-opacity="1" stop-color="rgb(80.79834%, 56.098938%, 56.498718%)" offset="0.234375"/><stop stop-opacity="1" stop-color="rgb(81.39801%, 56.848145%, 57.048035%)" offset="0.238281"/><stop stop-opacity="1" stop-color="rgb(81.999207%, 57.598877%, 57.598877%)" offset="0.242188"/><stop stop-opacity="1" stop-color="rgb(82.548523%, 58.398438%, 58.198547%)" offset="0.246094"/><stop stop-opacity="1" stop-color="rgb(83.099365%, 59.199524%, 58.799744%)" offset="0.25"/><stop stop-opacity="1" stop-color="rgb(83.699036%, 59.799194%, 59.599304%)" offset="0.253906"/><stop stop-opacity="1" stop-color="rgb(84.300232%, 60.400391%, 60.400391%)" offset="0.257812"/><stop stop-opacity="1" stop-color="rgb(84.899902%, 61.000061%, 60.800171%)" offset="0.261719"/><stop stop-opacity="1" stop-color="rgb(85.499573%, 61.601257%, 61.201477%)" offset="0.265625"/><stop stop-opacity="1" stop-color="rgb(86.099243%, 62.150574%, 61.950684%)" offset="0.269531"/><stop stop-opacity="1" stop-color="rgb(86.698914%, 62.69989%, 62.69989%)" offset="0.273438"/><stop stop-opacity="1" stop-color="rgb(87.098694%, 63.499451%, 63.299561%)" offset="0.277344"/><stop stop-opacity="1" stop-color="rgb(87.5%, 64.300537%, 63.899231%)" offset="0.28125"/><stop stop-opacity="1" stop-color="rgb(88.049316%, 65.100098%, 64.698792%)" offset="0.285156"/><stop stop-opacity="1" stop-color="rgb(88.600159%, 65.901184%, 65.499878%)" offset="0.289062"/><stop stop-opacity="1" stop-color="rgb(89.199829%, 66.699219%, 66.299438%)" offset="0.292969"/><stop stop-opacity="1" stop-color="rgb(89.7995%, 67.498779%, 67.098999%)" offset="0.296875"/><stop stop-opacity="1" stop-color="rgb(90.39917%, 68.048096%, 67.448425%)" offset="0.300781"/><stop stop-opacity="1" stop-color="rgb(90.99884%, 68.598938%, 67.799377%)" offset="0.304688"/><stop stop-opacity="1" stop-color="rgb(91.398621%, 69.398499%, 68.598938%)" offset="0.308594"/><stop stop-opacity="1" stop-color="rgb(91.799927%, 70.199585%, 69.400024%)" offset="0.3125"/><stop stop-opacity="1" stop-color="rgb(92.349243%, 70.799255%, 69.999695%)" offset="0.316406"/><stop stop-opacity="1" stop-color="rgb(92.900085%, 71.400452%, 70.600891%)" offset="0.320312"/><stop stop-opacity="1" stop-color="rgb(93.499756%, 72.149658%, 71.549988%)" offset="0.324219"/><stop stop-opacity="1" stop-color="rgb(94.100952%, 72.900391%, 72.50061%)" offset="0.328125"/><stop stop-opacity="1" stop-color="rgb(94.699097%, 73.899841%, 73.300171%)" offset="0.332031"/><stop stop-opacity="1" stop-color="rgb(95.298767%, 74.899292%, 74.099731%)" offset="0.335938"/><stop stop-opacity="1" stop-color="rgb(95.698547%, 75.498962%, 74.699402%)" offset="0.339844"/><stop stop-opacity="1" stop-color="rgb(96.099854%, 76.098633%, 75.299072%)" offset="0.34375"/><stop stop-opacity="1" stop-color="rgb(96.298218%, 76.098633%, 75.299072%)" offset="0.347656"/><stop stop-opacity="1" stop-color="rgb(96.498108%, 76.098633%, 75.299072%)" offset="0.351562"/><stop stop-opacity="1" stop-color="rgb(96.098328%, 75.898743%, 74.899292%)" offset="0.355469"/><stop stop-opacity="1" stop-color="rgb(95.698547%, 75.698853%, 74.499512%)" offset="0.359375"/><stop stop-opacity="1" stop-color="rgb(95.298767%, 75.099182%, 74.098206%)" offset="0.363281"/><stop stop-opacity="1" stop-color="rgb(94.898987%, 74.499512%, 73.698425%)" offset="0.367188"/><stop stop-opacity="1" stop-color="rgb(94.699097%, 74.098206%, 73.298645%)" offset="0.371094"/><stop stop-opacity="1" stop-color="rgb(94.499207%, 73.698425%, 72.898865%)" offset="0.375"/><stop stop-opacity="1" stop-color="rgb(94.0979%, 73.298645%, 72.547913%)" offset="0.378906"/><stop stop-opacity="1" stop-color="rgb(93.69812%, 72.898865%, 72.198486%)" offset="0.382812"/><stop stop-opacity="1" stop-color="rgb(93.29834%, 72.547913%, 71.59729%)" offset="0.386719"/><stop stop-opacity="1" stop-color="rgb(92.89856%, 72.198486%, 70.99762%)" offset="0.390625"/><stop stop-opacity="1" stop-color="rgb(92.549133%, 71.598816%, 70.597839%)" offset="0.394531"/><stop stop-opacity="1" stop-color="rgb(92.199707%, 70.999146%, 70.199585%)" offset="0.398438"/><stop stop-opacity="1" stop-color="rgb(91.798401%, 70.597839%, 69.798279%)" offset="0.402344"/><stop stop-opacity="1" stop-color="rgb(91.398621%, 70.198059%, 69.398499%)" offset="0.40625"/><stop stop-opacity="1" stop-color="rgb(91.19873%, 69.998169%, 68.998718%)" offset="0.410156"/><stop stop-opacity="1" stop-color="rgb(90.99884%, 69.798279%, 68.598938%)" offset="0.414062"/><stop stop-opacity="1" stop-color="rgb(90.59906%, 69.398499%, 68.199158%)" offset="0.417969"/><stop stop-opacity="1" stop-color="rgb(90.19928%, 68.998718%, 67.799377%)" offset="0.421875"/><stop stop-opacity="1" stop-color="rgb(89.7995%, 68.399048%, 67.448425%)" offset="0.425781"/><stop stop-opacity="1" stop-color="rgb(89.399719%, 67.799377%, 67.098999%)" offset="0.429688"/><stop stop-opacity="1" stop-color="rgb(88.998413%, 67.648315%, 66.699219%)" offset="0.433594"/><stop stop-opacity="1" stop-color="rgb(88.598633%, 67.498779%, 66.299438%)" offset="0.4375"/><stop stop-opacity="1" stop-color="rgb(88.198853%, 66.897583%, 65.698242%)" offset="0.441406"/><stop stop-opacity="1" stop-color="rgb(87.799072%, 66.297913%, 65.098572%)" offset="0.445312"/><stop stop-opacity="1" stop-color="rgb(87.44812%, 65.898132%, 64.697266%)" offset="0.449219"/><stop stop-opacity="1" stop-color="rgb(87.098694%, 65.498352%, 64.297485%)" offset="0.453125"/><stop stop-opacity="1" stop-color="rgb(86.898804%, 65.098572%, 63.897705%)" offset="0.457031"/><stop stop-opacity="1" stop-color="rgb(86.698914%, 64.698792%, 63.499451%)" offset="0.460938"/><stop stop-opacity="1" stop-color="rgb(86.299133%, 64.299011%, 63.098145%)" offset="0.464844"/><stop stop-opacity="1" stop-color="rgb(85.899353%, 63.899231%, 62.698364%)" offset="0.46875"/><stop stop-opacity="1" stop-color="rgb(85.498047%, 63.497925%, 62.347412%)" offset="0.472656"/><stop stop-opacity="1" stop-color="rgb(85.098267%, 63.098145%, 61.997986%)" offset="0.476562"/><stop stop-opacity="1" stop-color="rgb(84.698486%, 62.548828%, 61.598206%)" offset="0.480469"/><stop stop-opacity="1" stop-color="rgb(84.298706%, 61.999512%, 61.198425%)" offset="0.484375"/><stop stop-opacity="1" stop-color="rgb(83.898926%, 61.798096%, 60.998535%)" offset="0.488281"/><stop stop-opacity="1" stop-color="rgb(83.499146%, 61.598206%, 60.798645%)" offset="0.492188"/><stop stop-opacity="1" stop-color="rgb(83.097839%, 61.198425%, 60.398865%)" offset="0.496094"/><stop stop-opacity="1" stop-color="rgb(82.698059%, 60.798645%, 59.999084%)" offset="0.5"/><stop stop-opacity="1" stop-color="rgb(82.546997%, 60.397339%, 59.597778%)" offset="0.503906"/><stop stop-opacity="1" stop-color="rgb(82.397461%, 59.997559%, 59.197998%)" offset="0.507812"/><stop stop-opacity="1" stop-color="rgb(81.797791%, 59.397888%, 58.598328%)" offset="0.511719"/><stop stop-opacity="1" stop-color="rgb(81.19812%, 58.798218%, 57.998657%)" offset="0.515625"/><stop stop-opacity="1" stop-color="rgb(80.79834%, 58.398438%, 57.798767%)" offset="0.519531"/><stop stop-opacity="1" stop-color="rgb(80.39856%, 57.998657%, 57.598877%)" offset="0.523438"/><stop stop-opacity="1" stop-color="rgb(79.998779%, 57.447815%, 57.048035%)" offset="0.527344"/><stop stop-opacity="1" stop-color="rgb(79.598999%, 56.898499%, 56.498718%)" offset="0.53125"/><stop stop-opacity="1" stop-color="rgb(79.197693%, 56.498718%, 56.097412%)" offset="0.535156"/><stop stop-opacity="1" stop-color="rgb(78.797913%, 56.098938%, 55.697632%)" offset="0.539063"/><stop stop-opacity="1" stop-color="rgb(78.398132%, 55.699158%, 55.297852%)" offset="0.542969"/><stop stop-opacity="1" stop-color="rgb(77.998352%, 55.299377%, 54.899597%)" offset="0.546875"/><stop stop-opacity="1" stop-color="rgb(77.648926%, 54.698181%, 54.498291%)" offset="0.550781"/><stop stop-opacity="1" stop-color="rgb(77.2995%, 54.098511%, 54.098511%)" offset="0.554688"/><stop stop-opacity="1" stop-color="rgb(76.898193%, 53.69873%, 53.69873%)" offset="0.558594"/><stop stop-opacity="1" stop-color="rgb(76.498413%, 53.29895%, 53.29895%)" offset="0.5625"/><stop stop-opacity="1" stop-color="rgb(76.098633%, 53.097534%, 52.897644%)" offset="0.566406"/><stop stop-opacity="1" stop-color="rgb(75.698853%, 52.897644%, 52.497864%)" offset="0.570313"/><stop stop-opacity="1" stop-color="rgb(75.299072%, 52.346802%, 52.146912%)" offset="0.574219"/><stop stop-opacity="1" stop-color="rgb(74.899292%, 51.797485%, 51.797485%)" offset="0.578125"/><stop stop-opacity="1" stop-color="rgb(74.699402%, 51.397705%, 51.397705%)" offset="0.582031"/><stop stop-opacity="1" stop-color="rgb(74.499512%, 50.999451%, 50.999451%)" offset="0.585938"/><stop stop-opacity="1" stop-color="rgb(74.098206%, 50.798035%, 50.598145%)" offset="0.589844"/><stop stop-opacity="1" stop-color="rgb(73.698425%, 50.598145%, 50.198364%)" offset="0.59375"/><stop stop-opacity="1" stop-color="rgb(73.298645%, 49.998474%, 49.798584%)" offset="0.597656"/><stop stop-opacity="1" stop-color="rgb(72.898865%, 49.398804%, 49.398804%)" offset="0.601563"/><stop stop-opacity="1" stop-color="rgb(72.547913%, 48.999023%, 49.198914%)" offset="0.605469"/><stop stop-opacity="1" stop-color="rgb(72.198486%, 48.599243%, 48.999023%)" offset="0.609375"/><stop stop-opacity="1" stop-color="rgb(71.798706%, 48.197937%, 48.599243%)" offset="0.613281"/><stop stop-opacity="1" stop-color="rgb(71.398926%, 47.798157%, 48.199463%)" offset="0.617188"/><stop stop-opacity="1" stop-color="rgb(71.199036%, 47.447205%, 47.848511%)" offset="0.621094"/><stop stop-opacity="1" stop-color="rgb(70.999146%, 47.097778%, 47.499084%)" offset="0.625"/><stop stop-opacity="1" stop-color="rgb(70.597839%, 46.697998%, 47.097778%)" offset="0.628906"/><stop stop-opacity="1" stop-color="rgb(70.198059%, 46.298218%, 46.697998%)" offset="0.632812"/><stop stop-opacity="1" stop-color="rgb(69.798279%, 45.697021%, 46.298218%)" offset="0.636719"/><stop stop-opacity="1" stop-color="rgb(69.398499%, 45.097351%, 45.898438%)" offset="0.640625"/><stop stop-opacity="1" stop-color="rgb(69.198608%, 44.697571%, 45.498657%)" offset="0.644531"/><stop stop-opacity="1" stop-color="rgb(68.998718%, 44.299316%, 45.098877%)" offset="0.648438"/><stop stop-opacity="1" stop-color="rgb(68.399048%, 43.89801%, 44.697571%)" offset="0.652344"/><stop stop-opacity="1" stop-color="rgb(67.799377%, 43.49823%, 44.297791%)" offset="0.65625"/><stop stop-opacity="1" stop-color="rgb(67.448425%, 43.09845%, 43.89801%)" offset="0.660156"/><stop stop-opacity="1" stop-color="rgb(67.097473%, 42.698669%, 43.49823%)" offset="0.664062"/><stop stop-opacity="1" stop-color="rgb(66.697693%, 42.347717%, 43.09845%)" offset="0.667969"/><stop stop-opacity="1" stop-color="rgb(66.299438%, 41.998291%, 42.698669%)" offset="0.671875"/><stop stop-opacity="1" stop-color="rgb(66.098022%, 41.598511%, 42.347717%)" offset="0.675781"/><stop stop-opacity="1" stop-color="rgb(65.898132%, 41.19873%, 41.998291%)" offset="0.679688"/><stop stop-opacity="1" stop-color="rgb(65.498352%, 40.597534%, 41.398621%)" offset="0.683594"/><stop stop-opacity="1" stop-color="rgb(65.098572%, 39.997864%, 40.79895%)" offset="0.6875"/><stop stop-opacity="1" stop-color="rgb(64.697266%, 39.598083%, 40.397644%)" offset="0.691406"/><stop stop-opacity="1" stop-color="rgb(64.297485%, 39.198303%, 39.997864%)" offset="0.695312"/><stop stop-opacity="1" stop-color="rgb(63.897705%, 38.796997%, 39.598083%)" offset="0.699219"/><stop stop-opacity="1" stop-color="rgb(63.497925%, 38.397217%, 39.199829%)" offset="0.703125"/><stop stop-opacity="1" stop-color="rgb(63.098145%, 37.8479%, 38.998413%)" offset="0.707031"/><stop stop-opacity="1" stop-color="rgb(62.698364%, 37.298584%, 38.798523%)" offset="0.710938"/><stop stop-opacity="1" stop-color="rgb(62.547302%, 36.898804%, 38.198853%)" offset="0.714844"/><stop stop-opacity="1" stop-color="rgb(62.397766%, 36.499023%, 37.599182%)" offset="0.71875"/><stop stop-opacity="1" stop-color="rgb(61.997986%, 36.097717%, 37.24823%)" offset="0.722656"/><stop stop-opacity="1" stop-color="rgb(61.598206%, 35.697937%, 36.898804%)" offset="0.726562"/><stop stop-opacity="1" stop-color="rgb(61.198425%, 35.298157%, 36.499023%)" offset="0.730469"/><stop stop-opacity="1" stop-color="rgb(60.798645%, 34.898376%, 36.099243%)" offset="0.734375"/><stop stop-opacity="1" stop-color="rgb(60.398865%, 34.498596%, 35.697937%)" offset="0.738281"/><stop stop-opacity="1" stop-color="rgb(59.999084%, 34.098816%, 35.298157%)" offset="0.742188"/><stop stop-opacity="1" stop-color="rgb(59.597778%, 33.69751%, 34.898376%)" offset="0.746094"/><stop stop-opacity="1" stop-color="rgb(59.197998%, 33.297729%, 34.498596%)" offset="0.75"/><stop stop-opacity="1" stop-color="rgb(58.798218%, 32.748413%, 34.09729%)" offset="0.753906"/><stop stop-opacity="1" stop-color="rgb(58.398438%, 32.199097%, 33.69751%)" offset="0.757812"/><stop stop-opacity="1" stop-color="rgb(57.847595%, 31.997681%, 33.297729%)" offset="0.761719"/><stop stop-opacity="1" stop-color="rgb(57.298279%, 31.796265%, 32.897949%)" offset="0.765625"/><stop stop-opacity="1" stop-color="rgb(56.898499%, 31.196594%, 32.548523%)" offset="0.769531"/><stop stop-opacity="1" stop-color="rgb(56.498718%, 30.59845%, 32.199097%)" offset="0.773438"/><stop stop-opacity="1" stop-color="rgb(56.097412%, 30.198669%, 31.797791%)" offset="0.777344"/><stop stop-opacity="1" stop-color="rgb(55.697632%, 29.798889%, 31.39801%)" offset="0.78125"/><stop stop-opacity="1" stop-color="rgb(55.297852%, 29.397583%, 30.99823%)" offset="0.785156"/><stop stop-opacity="1" stop-color="rgb(54.899597%, 28.997803%, 30.59845%)" offset="0.789062"/><stop stop-opacity="1" stop-color="rgb(54.698181%, 28.797913%, 30.198669%)" offset="0.792969"/><stop stop-opacity="1" stop-color="rgb(54.498291%, 28.598022%, 29.798889%)" offset="0.796875"/><stop stop-opacity="1" stop-color="rgb(54.098511%, 28.04718%, 29.397583%)" offset="0.800781"/><stop stop-opacity="1" stop-color="rgb(53.69873%, 27.497864%, 28.997803%)" offset="0.804688"/><stop stop-opacity="1" stop-color="rgb(53.297424%, 27.098083%, 28.598022%)" offset="0.808594"/><stop stop-opacity="1" stop-color="rgb(52.897644%, 26.698303%, 28.198242%)" offset="0.8125"/><stop stop-opacity="1" stop-color="rgb(52.697754%, 26.296997%, 27.84729%)" offset="0.816406"/><stop stop-opacity="1" stop-color="rgb(52.497864%, 25.897217%, 27.497864%)" offset="0.820312"/><stop stop-opacity="1" stop-color="rgb(52.146912%, 25.497437%, 27.098083%)" offset="0.824219"/><stop stop-opacity="1" stop-color="rgb(51.797485%, 25.099182%, 26.698303%)" offset="0.828125"/><stop stop-opacity="1" stop-color="rgb(51.397705%, 24.897766%, 26.498413%)" offset="0.832031"/><stop stop-opacity="1" stop-color="rgb(50.997925%, 24.697876%, 26.298523%)" offset="0.835938"/><stop stop-opacity="1" stop-color="rgb(50.598145%, 24.298096%, 25.897217%)" offset="0.839844"/><stop stop-opacity="1" stop-color="rgb(50.198364%, 23.898315%, 25.497437%)" offset="0.84375"/><stop stop-opacity="1" stop-color="rgb(49.798584%, 23.498535%, 25.097656%)" offset="0.847656"/><stop stop-opacity="1" stop-color="rgb(49.398804%, 23.098755%, 24.697876%)" offset="0.851562"/><stop stop-opacity="1" stop-color="rgb(49.398804%, 22.898865%, 24.497986%)" offset="0.855469"/><stop stop-opacity="1" stop-color="rgb(49.398804%, 22.698975%, 24.299622%)" offset="0.859375"/><stop stop-opacity="1" stop-color="rgb(49.398804%, 22.698975%, 24.299622%)" offset="0.875"/><stop stop-opacity="1" stop-color="rgb(49.398804%, 22.698975%, 24.299622%)" offset="1"/></linearGradient><clipPath id="035e4785d0"><path d="M 11.386719 11.667969 L 40.359375 11.667969 L 40.359375 37.671875 L 11.386719 37.671875 Z M 11.386719 11.667969 " clip-rule="nonzero"/></clipPath><clipPath id="d324d3fd2e"><path d="M 25 36 L 27 36 L 27 37.671875 L 25 37.671875 Z M 25 36 " clip-rule="nonzero"/></clipPath></defs><g clip-path="url(#7817c2529f)"><g clip-path="url(#01f2833431)"><g clip-path="url(#f8205c51da)"><g clip-path="url(#6153c57e91)"><path fill="url(#93bdd84fb4)" d="M -15.601562 26.003906 L 26.003906 67.605469 L 67.605469 26.003906 L 26.003906 -15.601562 Z M -15.601562 26.003906 " fill-rule="nonzero"/></g></g></g></g><g clip-path="url(#035e4785d0)"><path fill="#ffffff" d="M 40.097656 27.925781 C 40.035156 28.050781 39.945312 28.140625 39.808594 28.160156 C 39.652344 28.179688 39.5 28.199219 39.34375 28.199219 C 38.082031 28.191406 36.816406 28.175781 35.550781 28.167969 C 34.832031 28.164062 34.109375 28.167969 33.390625 28.167969 C 33.332031 28.167969 33.277344 28.167969 33.199219 28.167969 C 33.335938 27.585938 33.320312 27.007812 33.351562 26.425781 C 33.425781 26.425781 33.488281 26.425781 33.546875 26.425781 C 35.195312 26.433594 36.84375 26.4375 38.492188 26.441406 C 38.773438 26.445312 39.054688 26.429688 39.332031 26.457031 C 39.5 26.476562 39.667969 26.546875 39.832031 26.609375 C 39.972656 26.664062 40.046875 26.792969 40.101562 26.921875 C 40.242188 27.253906 40.261719 27.589844 40.097656 27.925781 Z M 39.234375 28.628906 C 39.203125 28.925781 39.179688 29.226562 39.140625 29.523438 C 39.085938 29.976562 39.027344 30.429688 38.960938 30.878906 C 38.90625 31.253906 38.691406 31.511719 38.335938 31.644531 C 37.996094 31.777344 37.636719 31.832031 37.273438 31.839844 C 37.253906 31.839844 37.230469 31.832031 37.207031 31.832031 C 37.203125 31.671875 37.214844 31.515625 37.101562 31.367188 C 36.976562 31.503906 36.996094 31.675781 36.964844 31.839844 C 36.816406 31.839844 36.671875 31.851562 36.53125 31.839844 C 36.167969 31.804688 35.808594 31.765625 35.449219 31.71875 C 35.09375 31.675781 34.910156 31.445312 34.855469 31.113281 C 34.792969 30.730469 34.734375 30.347656 34.703125 29.960938 C 34.664062 29.515625 34.660156 29.070312 34.640625 28.625 C 34.636719 28.574219 34.640625 28.523438 34.640625 28.464844 C 34.972656 28.464844 35.292969 28.464844 35.632812 28.464844 C 35.621094 28.527344 35.617188 28.566406 35.613281 28.605469 C 35.578125 28.796875 35.585938 28.988281 35.605469 29.179688 C 35.609375 29.210938 35.617188 29.242188 35.628906 29.269531 C 35.648438 29.324219 35.683594 29.355469 35.742188 29.351562 C 35.804688 29.351562 35.835938 29.308594 35.847656 29.253906 C 35.886719 29.050781 35.894531 28.84375 35.867188 28.636719 C 35.859375 28.585938 35.855469 28.535156 35.84375 28.472656 C 36.257812 28.472656 36.660156 28.472656 37.054688 28.472656 C 37.054688 28.601562 37.050781 28.722656 37.054688 28.839844 C 37.054688 29.015625 37.058594 29.1875 37.0625 29.363281 C 37.066406 29.386719 37.0625 29.410156 37.074219 29.425781 C 37.097656 29.457031 37.128906 29.5 37.15625 29.5 C 37.195312 29.5 37.25 29.46875 37.265625 29.4375 C 37.292969 29.378906 37.308594 29.308594 37.308594 29.242188 C 37.316406 28.992188 37.3125 28.746094 37.3125 28.476562 C 37.636719 28.457031 37.980469 28.46875 38.339844 28.464844 C 38.335938 28.558594 38.328125 28.640625 38.324219 28.71875 C 38.320312 28.859375 38.316406 29 38.3125 29.136719 C 38.3125 29.160156 38.320312 29.179688 38.324219 29.199219 C 38.335938 29.257812 38.355469 29.3125 38.425781 29.316406 C 38.5 29.316406 38.523438 29.265625 38.535156 29.203125 C 38.566406 29.019531 38.597656 28.835938 38.574219 28.648438 C 38.566406 28.597656 38.5625 28.546875 38.554688 28.476562 C 38.789062 28.488281 39.007812 28.5 39.234375 28.511719 C 39.234375 28.558594 39.238281 28.59375 39.234375 28.628906 Z M 32.855469 25.996094 C 32.804688 26.0625 32.75 26.070312 32.683594 26.070312 C 31.832031 26.0625 30.980469 26.054688 30.132812 26.046875 C 28.222656 26.035156 26.316406 26.015625 24.40625 26 C 22.644531 25.988281 20.882812 25.972656 19.121094 25.957031 C 19.097656 25.957031 19.078125 25.957031 19.050781 25.957031 C 18.863281 25.667969 18.703125 25.667969 18.492188 25.941406 C 18.292969 25.941406 18.09375 25.945312 17.890625 25.941406 C 17.851562 25.9375 17.8125 25.917969 17.78125 25.894531 C 17.722656 25.847656 17.667969 25.800781 17.617188 25.746094 C 17.273438 25.347656 16.929688 24.945312 16.585938 24.546875 C 16.523438 24.472656 16.507812 24.402344 16.523438 24.304688 C 16.628906 23.605469 16.230469 22.917969 15.570312 22.664062 C 15.476562 22.628906 15.429688 22.578125 15.390625 22.492188 C 15.003906 21.609375 14.859375 20.683594 14.941406 19.726562 C 15.027344 18.761719 15.460938 17.96875 16.164062 17.316406 C 16.214844 17.269531 16.285156 17.234375 16.351562 17.210938 C 16.871094 17.054688 17.386719 16.882812 17.914062 16.75 C 19 16.46875 20.105469 16.300781 21.21875 16.175781 C 23.019531 15.976562 24.828125 15.898438 26.636719 15.945312 C 27.496094 15.964844 28.355469 16.015625 29.214844 16.085938 C 29.976562 16.148438 30.742188 16.234375 31.5 16.347656 C 32.867188 16.550781 34.214844 16.859375 35.527344 17.3125 C 35.808594 17.410156 36.011719 17.566406 36.1875 17.792969 C 36.746094 18.503906 36.988281 19.3125 36.984375 20.210938 C 36.984375 20.992188 36.832031 21.742188 36.527344 22.464844 C 36.484375 22.5625 36.429688 22.621094 36.328125 22.65625 C 35.660156 22.894531 35.25 23.605469 35.375 24.308594 C 35.390625 24.398438 35.378906 24.472656 35.316406 24.550781 C 34.976562 24.980469 34.617188 25.394531 34.214844 25.773438 C 34.132812 25.851562 34.054688 25.933594 33.976562 26.019531 C 33.933594 26.066406 33.890625 26.082031 33.828125 26.082031 C 33.691406 26.078125 33.558594 26.078125 33.421875 26.078125 C 33.355469 26.082031 33.3125 26.058594 33.265625 26.003906 C 33.140625 25.855469 32.96875 25.851562 32.855469 25.996094 Z M 32.730469 28.15625 C 32.683594 28.160156 32.640625 28.164062 32.59375 28.164062 C 31.628906 28.160156 30.667969 28.15625 29.703125 28.15625 C 29.617188 28.15625 29.5625 28.128906 29.511719 28.058594 C 29.117188 27.492188 28.617188 27.039062 28.039062 26.667969 C 27.875 26.566406 27.695312 26.484375 27.523438 26.390625 C 27.523438 26.386719 27.523438 26.378906 27.523438 26.371094 C 29.273438 26.390625 31.023438 26.410156 32.789062 26.425781 C 32.796875 27.003906 32.808594 27.578125 32.730469 28.15625 Z M 28.136719 28.140625 C 28.0625 27.464844 27.734375 26.9375 27.195312 26.535156 C 27.203125 26.527344 27.210938 26.519531 27.21875 26.511719 C 27.289062 26.535156 27.359375 26.558594 27.429688 26.589844 C 27.683594 26.707031 27.917969 26.859375 28.136719 27.035156 C 28.492188 27.320312 28.820312 27.636719 29.101562 28 C 29.132812 28.039062 29.160156 28.082031 29.203125 28.140625 C 28.832031 28.140625 28.492188 28.140625 28.136719 28.140625 Z M 27.015625 28.136719 C 27.042969 27.570312 27.050781 27.015625 26.773438 26.5 C 27.296875 26.65625 27.894531 27.511719 27.910156 28.136719 C 27.609375 28.136719 27.320312 28.136719 27.015625 28.136719 Z M 26.753906 28.128906 C 26.390625 28.128906 26.03125 28.128906 25.644531 28.128906 C 25.671875 28.070312 25.695312 28.023438 25.71875 27.976562 C 25.894531 27.660156 26.03125 27.332031 26.089844 26.976562 C 26.117188 26.800781 26.136719 26.621094 26.164062 26.425781 C 26.1875 26.425781 26.230469 26.429688 26.265625 26.421875 C 26.457031 26.382812 26.550781 26.492188 26.621094 26.644531 C 26.707031 26.839844 26.757812 27.046875 26.773438 27.257812 C 26.800781 27.546875 26.808594 27.835938 26.753906 28.128906 Z M 25.320312 28.128906 C 25.03125 28.128906 24.746094 28.128906 24.460938 28.128906 C 24.75 27.628906 25.660156 26.417969 25.929688 26.367188 C 26 26.652344 25.65625 27.644531 25.320312 28.128906 Z M 24.148438 28.027344 C 24.089844 28.109375 24.027344 28.136719 23.925781 28.136719 C 22.769531 28.128906 21.617188 28.125 20.460938 28.121094 C 20.046875 28.121094 19.628906 28.121094 19.214844 28.117188 C 19.164062 28.117188 19.113281 28.113281 19.066406 28.109375 C 19.066406 27.5 19.066406 26.910156 19.066406 26.324219 C 19.207031 26.289062 25.160156 26.328125 25.535156 26.367188 C 25.527344 26.386719 25.523438 26.40625 25.507812 26.414062 C 25.183594 26.695312 24.910156 27.019531 24.652344 27.355469 C 24.480469 27.578125 24.308594 27.800781 24.148438 28.027344 Z M 18.277344 28.113281 C 16.355469 28.109375 14.429688 28.109375 12.507812 28.105469 C 12.414062 28.105469 12.316406 28.109375 12.230469 28.085938 C 11.933594 28 11.808594 27.765625 11.773438 27.484375 C 11.734375 27.167969 11.796875 26.863281 11.933594 26.578125 C 11.96875 26.496094 12.027344 26.445312 12.105469 26.40625 C 12.375 26.273438 12.664062 26.222656 12.964844 26.226562 C 13.953125 26.238281 14.945312 26.253906 15.933594 26.265625 C 16.703125 26.273438 17.46875 26.28125 18.234375 26.289062 C 18.292969 26.292969 18.347656 26.289062 18.414062 26.289062 C 18.351562 26.914062 18.414062 27.5 18.445312 28.105469 C 18.386719 28.109375 18.332031 28.113281 18.277344 28.113281 Z M 17.144531 31.007812 C 17.121094 31.136719 17.074219 31.265625 17.019531 31.390625 C 16.964844 31.519531 16.863281 31.613281 16.726562 31.648438 C 16.550781 31.691406 16.375 31.738281 16.195312 31.757812 C 15.84375 31.792969 15.492188 31.808594 15.140625 31.835938 C 15.101562 31.835938 15.0625 31.832031 15.007812 31.828125 C 14.996094 31.65625 15.003906 31.5 14.890625 31.359375 C 14.753906 31.488281 14.789062 31.65625 14.773438 31.824219 C 14.648438 31.816406 14.53125 31.816406 14.414062 31.804688 C 14.140625 31.777344 13.871094 31.722656 13.617188 31.617188 C 13.300781 31.488281 13.09375 31.261719 13.035156 30.921875 C 12.964844 30.515625 12.910156 30.105469 12.859375 29.691406 C 12.808594 29.292969 12.773438 28.890625 12.734375 28.488281 C 12.730469 28.46875 12.730469 28.449219 12.730469 28.421875 C 12.964844 28.421875 13.191406 28.421875 13.40625 28.421875 C 13.40625 28.554688 13.402344 28.679688 13.40625 28.800781 C 13.414062 28.925781 13.429688 29.050781 13.441406 29.171875 C 13.449219 29.238281 13.472656 29.296875 13.554688 29.296875 C 13.617188 29.300781 13.660156 29.253906 13.660156 29.15625 C 13.660156 28.957031 13.652344 28.761719 13.644531 28.566406 C 13.644531 28.523438 13.636719 28.484375 13.628906 28.417969 C 13.988281 28.414062 14.335938 28.414062 14.691406 28.417969 C 14.679688 28.613281 14.664062 28.792969 14.660156 28.972656 C 14.660156 29.097656 14.675781 29.222656 14.6875 29.34375 C 14.691406 29.375 14.699219 29.410156 14.71875 29.429688 C 14.746094 29.457031 14.789062 29.496094 14.816406 29.488281 C 14.851562 29.480469 14.902344 29.4375 14.90625 29.402344 C 14.921875 29.238281 14.9375 29.070312 14.9375 28.90625 C 14.9375 28.753906 14.917969 28.597656 14.90625 28.441406 C 15.011719 28.410156 15.898438 28.402344 16.136719 28.433594 C 16.128906 28.5 16.128906 28.574219 16.113281 28.640625 C 16.078125 28.816406 16.101562 28.992188 16.121094 29.167969 C 16.132812 29.285156 16.175781 29.339844 16.242188 29.34375 C 16.308594 29.34375 16.363281 29.289062 16.371094 29.175781 C 16.382812 29.003906 16.378906 28.828125 16.375 28.652344 C 16.375 28.582031 16.359375 28.511719 16.347656 28.429688 C 16.675781 28.429688 16.992188 28.429688 17.320312 28.429688 C 17.328125 28.457031 17.335938 28.488281 17.335938 28.515625 C 17.34375 29.351562 17.300781 30.183594 17.144531 31.007812 Z M 15.0625 22.75 C 15.777344 22.769531 16.328125 23.34375 16.3125 24.050781 C 16.316406 24.710938 15.753906 25.367188 14.964844 25.335938 C 14.265625 25.308594 13.707031 24.722656 13.722656 24.003906 C 13.742188 23.296875 14.34375 22.734375 15.0625 22.75 Z M 12.207031 23.304688 C 12.289062 22.902344 12.386719 22.507812 12.539062 22.125 C 12.761719 21.566406 13.085938 21.089844 13.597656 20.757812 C 13.84375 20.597656 14.105469 20.480469 14.40625 20.480469 C 14.445312 20.480469 14.480469 20.480469 14.535156 20.480469 C 14.570312 21.191406 14.703125 21.878906 14.980469 22.550781 C 14.054688 22.644531 13.621094 23.289062 13.546875 23.898438 C 13.472656 24.496094 13.777344 25.117188 14.386719 25.417969 C 14.890625 25.667969 15.703125 25.683594 16.320312 24.886719 C 16.617188 25.226562 16.910156 25.5625 17.207031 25.898438 C 17.199219 25.910156 17.199219 25.914062 17.195312 25.917969 C 17.195312 25.921875 17.1875 25.925781 17.183594 25.925781 C 15.519531 25.921875 13.855469 25.917969 12.191406 25.914062 C 12.167969 25.914062 12.144531 25.90625 12.101562 25.898438 C 12.082031 25.714844 12.058594 25.53125 12.042969 25.34375 C 11.988281 24.65625 12.074219 23.976562 12.207031 23.304688 Z M 17.914062 16.34375 C 18.664062 16.101562 19.433594 15.917969 20.214844 15.808594 C 21.066406 15.6875 21.917969 15.578125 22.773438 15.476562 C 23.179688 15.429688 23.585938 15.402344 23.996094 15.382812 C 24.585938 15.347656 25.175781 15.3125 25.765625 15.300781 C 26.523438 15.289062 27.28125 15.320312 28.035156 15.394531 C 28.46875 15.433594 28.90625 15.449219 29.335938 15.5 C 30.09375 15.589844 30.847656 15.6875 31.601562 15.792969 C 32.269531 15.882812 32.929688 16.035156 33.578125 16.214844 C 34.152344 16.378906 34.710938 16.578125 35.21875 16.910156 C 35.261719 16.9375 35.300781 16.964844 35.332031 17.015625 C 35.242188 16.988281 35.148438 16.957031 35.058594 16.925781 C 33.984375 16.570312 32.878906 16.328125 31.761719 16.15625 C 30.96875 16.035156 30.171875 15.925781 29.375 15.847656 C 27.792969 15.695312 26.207031 15.640625 24.621094 15.683594 C 23.867188 15.703125 23.117188 15.730469 22.367188 15.785156 C 21.054688 15.882812 19.75 16.058594 18.460938 16.339844 C 18.070312 16.425781 17.6875 16.53125 17.300781 16.628906 C 17.265625 16.636719 17.234375 16.640625 17.203125 16.648438 C 17.199219 16.636719 17.195312 16.628906 17.191406 16.617188 C 17.433594 16.527344 17.671875 16.421875 17.914062 16.34375 Z M 33.355469 15.75 C 33.15625 15.703125 32.96875 15.660156 32.777344 15.617188 C 32.09375 15.464844 31.402344 15.355469 30.707031 15.277344 C 30.238281 15.222656 29.773438 15.160156 29.304688 15.121094 C 28.699219 15.070312 28.09375 15.042969 27.488281 15.003906 C 27.128906 14.980469 26.773438 14.960938 26.417969 14.929688 C 25.929688 14.890625 25.445312 14.914062 24.957031 14.945312 C 24.253906 14.996094 23.550781 15.039062 22.847656 15.097656 C 22.347656 15.140625 21.847656 15.191406 21.347656 15.257812 C 20.75 15.335938 20.148438 15.421875 19.550781 15.53125 C 19.050781 15.628906 18.554688 15.769531 18.058594 15.890625 C 18 15.902344 17.941406 15.921875 17.859375 15.945312 C 17.988281 15.058594 18.164062 14.207031 18.386719 13.359375 C 18.753906 13.304688 19.109375 13.246094 19.46875 13.199219 C 19.992188 13.128906 20.515625 13.050781 21.042969 12.996094 C 21.613281 12.9375 22.1875 12.890625 22.761719 12.855469 C 23.625 12.808594 24.492188 12.769531 25.355469 12.738281 C 26.246094 12.703125 27.136719 12.707031 28.027344 12.753906 C 29.015625 12.804688 29.988281 12.9375 30.953125 13.144531 C 31.632812 13.289062 32.308594 13.433594 32.988281 13.578125 C 33.035156 13.589844 33.078125 13.601562 33.140625 13.617188 C 33.21875 14.328125 33.351562 15.023438 33.355469 15.75 Z M 17.96875 12.929688 C 18.46875 12.792969 18.976562 12.644531 19.488281 12.515625 C 20.21875 12.335938 20.960938 12.222656 21.707031 12.132812 C 22.582031 12.027344 23.460938 11.964844 24.34375 11.9375 C 25.25 11.90625 26.15625 11.914062 27.0625 11.957031 C 28.300781 12.015625 29.535156 12.136719 30.757812 12.328125 C 31.714844 12.476562 32.664062 12.671875 33.601562 12.917969 C 33.640625 12.929688 33.679688 12.941406 33.734375 12.957031 C 33.804688 13.449219 33.894531 13.9375 33.921875 14.433594 C 33.949219 14.921875 33.957031 15.410156 33.976562 15.925781 C 33.820312 15.878906 33.6875 15.839844 33.582031 15.808594 C 33.554688 15.449219 33.53125 15.105469 33.5 14.769531 C 33.472656 14.480469 33.433594 14.191406 33.390625 13.90625 C 33.371094 13.777344 33.324219 13.65625 33.292969 13.53125 C 33.269531 13.445312 33.214844 13.402344 33.132812 13.382812 C 32.890625 13.320312 32.652344 13.253906 32.40625 13.203125 C 31.632812 13.042969 30.855469 12.886719 30.074219 12.746094 C 29.417969 12.625 28.75 12.5625 28.082031 12.527344 C 27.222656 12.480469 26.363281 12.460938 25.5 12.5 C 24.6875 12.539062 23.875 12.5625 23.0625 12.609375 C 22.0625 12.667969 21.066406 12.746094 20.078125 12.90625 C 19.503906 13 18.933594 13.097656 18.363281 13.191406 C 18.296875 13.199219 18.269531 13.238281 18.253906 13.285156 C 18.175781 13.511719 18.082031 13.730469 18.023438 13.960938 C 17.851562 14.632812 17.703125 15.3125 17.644531 16.023438 C 17.503906 16.078125 17.367188 16.128906 17.21875 16.1875 C 17.410156 15.085938 17.703125 14.023438 17.96875 12.929688 Z M 35.539062 24.007812 C 35.554688 23.300781 36.15625 22.734375 36.875 22.75 C 37.585938 22.769531 38.140625 23.339844 38.125 24.046875 C 38.132812 24.710938 37.566406 25.363281 36.78125 25.335938 C 36.082031 25.3125 35.523438 24.722656 35.539062 24.007812 Z M 37.367188 20.484375 C 37.589844 20.472656 37.796875 20.496094 37.992188 20.585938 C 38.492188 20.8125 38.863281 21.175781 39.136719 21.648438 C 39.375 22.058594 39.515625 22.507812 39.621094 22.96875 C 39.765625 23.597656 39.878906 24.230469 39.875 24.875 C 39.871094 25.195312 39.832031 25.515625 39.808594 25.835938 C 39.792969 26.011719 39.683594 26.105469 39.53125 26.15625 C 39.46875 26.175781 39.398438 26.1875 39.332031 26.183594 C 37.859375 26.15625 36.390625 26.121094 34.917969 26.089844 C 34.808594 26.085938 34.699219 26.089844 34.589844 26.089844 C 34.582031 26.078125 34.574219 26.066406 34.566406 26.050781 C 34.902344 25.667969 35.238281 25.28125 35.585938 24.886719 C 35.621094 24.929688 35.65625 24.972656 35.691406 25.015625 C 36.335938 25.796875 37.542969 25.738281 38.109375 24.894531 C 38.640625 24.105469 38.269531 22.988281 37.371094 22.660156 C 37.234375 22.609375 37.089844 22.582031 36.929688 22.539062 C 37.191406 21.890625 37.339844 21.207031 37.367188 20.484375 Z M 35.484375 34.171875 C 35.625 34.148438 35.765625 34.121094 35.910156 34.09375 C 35.953125 34.085938 36 34.082031 36.046875 34.078125 C 35.890625 34.234375 35.769531 34.390625 35.695312 34.582031 C 35.664062 34.660156 35.601562 34.660156 35.542969 34.667969 C 35.242188 34.710938 34.9375 34.75 34.636719 34.792969 C 34.460938 34.820312 34.28125 34.851562 34.09375 34.882812 C 34.105469 34.699219 34.183594 34.550781 34.292969 34.421875 C 34.328125 34.386719 34.394531 34.367188 34.445312 34.359375 C 34.792969 34.292969 35.136719 34.234375 35.484375 34.171875 Z M 37.058594 34.355469 C 37.199219 34.554688 37.242188 34.703125 37.253906 35.023438 C 37.28125 35.277344 37.164062 35.511719 36.941406 35.691406 C 36.703125 35.886719 36.46875 35.910156 36.226562 35.707031 C 35.878906 35.417969 35.667969 34.851562 36.066406 34.332031 C 36.347656 33.964844 36.796875 33.980469 37.058594 34.355469 Z M 36.070312 35.9375 C 35.574219 35.964844 35.078125 35.988281 34.582031 36.015625 C 34.574219 36.015625 34.570312 36.015625 34.566406 36.015625 C 34.324219 36.015625 34.285156 35.984375 34.199219 35.734375 C 34.726562 35.632812 35.257812 35.621094 35.773438 35.550781 C 35.890625 35.675781 36.003906 35.792969 36.125 35.917969 C 36.105469 35.925781 36.089844 35.9375 36.070312 35.9375 Z M 34.125 35.589844 C 34.027344 35.417969 34.015625 35.238281 34.054688 35.058594 C 34.582031 34.976562 35.097656 34.894531 35.609375 34.8125 C 35.640625 35.011719 35.671875 35.210938 35.707031 35.425781 C 35.183594 35.449219 34.652344 35.464844 34.125 35.589844 Z M 30.457031 34.871094 C 30.492188 34.910156 30.53125 34.953125 30.574219 34.96875 C 30.613281 34.984375 30.671875 34.980469 30.703125 34.960938 C 30.746094 34.933594 30.742188 34.878906 30.710938 34.835938 C 30.671875 34.78125 30.628906 34.730469 30.585938 34.675781 C 30.515625 34.589844 30.445312 34.5 30.363281 34.398438 C 30.441406 34.363281 30.503906 34.328125 30.570312 34.296875 C 30.675781 34.457031 30.773438 34.609375 30.878906 34.757812 C 30.988281 34.902344 31.105469 35.039062 31.222656 35.1875 C 31.003906 35.265625 30.832031 35.386719 30.710938 35.578125 C 30.460938 35.292969 30.21875 35.023438 29.96875 34.742188 C 30.027344 34.679688 30.085938 34.621094 30.152344 34.546875 C 30.261719 34.664062 30.359375 34.769531 30.457031 34.871094 Z M 30.945312 34.320312 C 31.144531 34.550781 31.347656 34.78125 31.546875 35.007812 C 31.582031 35.046875 31.613281 35.085938 31.664062 35.152344 C 31.554688 35.152344 31.484375 35.152344 31.398438 35.152344 C 31.160156 34.867188 30.917969 34.574219 30.671875 34.277344 C 30.84375 34.203125 30.84375 34.203125 30.945312 34.320312 Z M 32.03125 36.171875 C 31.933594 36.320312 31.808594 36.429688 31.648438 36.503906 C 31.226562 36.707031 30.738281 36.320312 30.769531 35.929688 C 30.757812 35.804688 30.808594 35.691406 30.882812 35.585938 C 31.042969 35.351562 31.285156 35.265625 31.554688 35.265625 C 31.957031 35.273438 32.277344 35.789062 32.03125 36.171875 Z M 30.597656 36.105469 C 30.304688 35.742188 30.03125 35.40625 29.753906 35.0625 C 29.804688 34.980469 29.851562 34.902344 29.90625 34.8125 C 30.15625 35.117188 30.398438 35.410156 30.640625 35.703125 C 30.628906 35.820312 30.613281 35.945312 30.597656 36.105469 Z M 27.441406 35.609375 C 27.589844 35.59375 27.703125 35.628906 27.800781 35.742188 C 27.875 35.828125 27.945312 35.914062 27.988281 36.023438 C 27.664062 36.058594 27.351562 36.097656 27.039062 36.132812 C 26.859375 36.15625 26.679688 36.179688 26.5 36.195312 C 26.457031 36.199219 26.398438 36.191406 26.375 36.164062 C 26.238281 35.996094 26.082031 35.863281 25.886719 35.757812 C 25.941406 35.75 25.996094 35.738281 26.050781 35.734375 C 26.515625 35.691406 26.976562 35.65625 27.441406 35.609375 Z M 28.070312 36.1875 C 28.152344 36.34375 28.175781 36.519531 28.148438 36.714844 C 27.609375 36.738281 27.085938 36.847656 26.546875 36.980469 C 26.546875 36.867188 26.554688 36.765625 26.546875 36.667969 C 26.535156 36.566406 26.507812 36.464844 26.484375 36.355469 C 27.007812 36.300781 27.527344 36.246094 28.070312 36.1875 Z M 28.03125 37.144531 C 28.011719 37.183594 27.953125 37.207031 27.90625 37.21875 C 27.699219 37.273438 27.492188 37.324219 27.285156 37.367188 C 26.988281 37.433594 26.6875 37.492188 26.390625 37.550781 C 26.355469 37.558594 26.320312 37.558594 26.285156 37.5625 C 26.367188 37.410156 26.449219 37.269531 26.535156 37.109375 C 27.039062 37.027344 27.5625 36.945312 28.101562 36.863281 C 28.109375 36.980469 28.078125 37.066406 28.03125 37.144531 Z M 26.125 37.390625 C 25.960938 37.605469 25.761719 37.671875 25.507812 37.574219 C 25.242188 37.476562 25.050781 37.300781 24.972656 37.011719 C 24.90625 36.757812 24.886719 36.503906 24.992188 36.253906 C 25.058594 36.09375 25.164062 35.972656 25.324219 35.898438 C 25.515625 35.816406 25.699219 35.855469 25.859375 35.957031 C 26.152344 36.144531 26.320312 36.410156 26.332031 36.761719 C 26.324219 36.996094 26.265625 37.207031 26.125 37.390625 Z M 21.632812 35.019531 C 21.628906 35.027344 21.625 35.035156 21.617188 35.042969 C 21.527344 35.007812 21.4375 34.976562 21.34375 34.9375 C 21.363281 34.890625 21.382812 34.851562 21.402344 34.808594 C 21.417969 34.78125 21.429688 34.757812 21.457031 34.707031 C 21.523438 34.820312 21.578125 34.921875 21.632812 35.019531 Z M 21.816406 35.839844 C 21.816406 36.277344 21.429688 36.699219 21.027344 36.6875 C 20.53125 36.671875 20.179688 36.257812 20.1875 35.875 C 20.195312 35.503906 20.503906 35.074219 21.011719 35.074219 C 21.453125 35.078125 21.816406 35.421875 21.816406 35.839844 Z M 19.65625 34.222656 C 19.730469 34.171875 19.808594 34.117188 19.890625 34.058594 C 20.015625 34.457031 20.136719 34.839844 20.265625 35.246094 C 20.203125 35.332031 20.128906 35.433594 20.050781 35.542969 C 19.917969 35.097656 19.789062 34.667969 19.65625 34.222656 Z M 20.476562 33.835938 C 20.582031 34.195312 20.683594 34.554688 20.789062 34.921875 C 20.660156 34.984375 20.527344 35.046875 20.394531 35.113281 C 20.269531 34.742188 20.144531 34.371094 20.019531 33.996094 C 20.15625 33.902344 20.300781 33.863281 20.476562 33.835938 Z M 21.058594 33.925781 C 21.074219 33.929688 21.089844 33.949219 21.101562 33.964844 C 21.113281 33.980469 21.121094 34 21.128906 34.019531 C 21.179688 34.136719 21.265625 34.253906 21.269531 34.375 C 21.277344 34.496094 21.203125 34.617188 21.164062 34.742188 C 21.148438 34.792969 21.128906 34.847656 21.113281 34.910156 C 21.0625 34.910156 21.015625 34.910156 20.980469 34.910156 C 20.851562 34.550781 20.726562 34.199219 20.59375 33.839844 C 20.769531 33.820312 20.910156 33.882812 21.058594 33.925781 Z M 18.335938 34.585938 C 18.480469 34.570312 18.59375 34.597656 18.695312 34.710938 C 18.769531 34.796875 18.835938 34.882812 18.886719 34.992188 C 18.425781 35.046875 17.984375 35.101562 17.542969 35.152344 C 17.480469 35.160156 17.421875 35.171875 17.359375 35.171875 C 17.328125 35.167969 17.285156 35.15625 17.265625 35.132812 C 17.136719 34.960938 16.96875 34.835938 16.742188 34.734375 C 16.835938 34.722656 16.898438 34.710938 16.957031 34.707031 C 17.417969 34.664062 17.875 34.628906 18.335938 34.585938 Z M 18.964844 35.160156 C 19.054688 35.316406 19.066406 35.492188 19.042969 35.6875 C 18.503906 35.710938 17.976562 35.824219 17.460938 35.945312 C 17.441406 35.734375 17.421875 35.535156 17.402344 35.328125 C 17.90625 35.273438 18.433594 35.21875 18.964844 35.160156 Z M 19.007812 35.886719 C 18.988281 36.085938 18.886719 36.191406 18.679688 36.230469 C 18.199219 36.324219 17.71875 36.433594 17.238281 36.535156 C 17.226562 36.535156 17.210938 36.535156 17.183594 36.535156 C 17.265625 36.382812 17.347656 36.238281 17.429688 36.082031 C 17.945312 36.015625 18.460938 35.890625 19.003906 35.851562 C 19.003906 35.875 19.007812 35.882812 19.007812 35.886719 Z M 16.9375 36.464844 C 16.851562 36.550781 16.75 36.589844 16.625 36.585938 C 16.335938 36.574219 16.101562 36.441406 15.960938 36.191406 C 15.792969 35.886719 15.753906 35.554688 15.894531 35.21875 C 15.957031 35.070312 16.054688 34.957031 16.203125 34.882812 C 16.402344 34.785156 16.59375 34.824219 16.761719 34.933594 C 17.363281 35.320312 17.34375 36.046875 16.9375 36.464844 Z M 40.4375 27.273438 C 40.378906 26.964844 40.289062 26.667969 40.101562 26.410156 C 40.070312 26.367188 40.054688 26.328125 40.074219 26.269531 C 40.234375 25.777344 40.265625 25.273438 40.25 24.761719 C 40.234375 24.171875 40.140625 23.585938 40.011719 23.007812 C 39.902344 22.515625 39.761719 22.035156 39.515625 21.589844 C 39.230469 21.078125 38.847656 20.65625 38.328125 20.371094 C 38.046875 20.214844 37.75 20.144531 37.429688 20.222656 C 37.417969 20.226562 37.402344 20.222656 37.367188 20.21875 C 37.367188 20.136719 37.371094 20.054688 37.367188 19.972656 C 37.363281 19.890625 37.355469 19.808594 37.347656 19.722656 C 37.261719 18.65625 36.796875 17.769531 36.019531 17.042969 C 35.535156 16.59375 34.964844 16.28125 34.34375 16.054688 C 34.292969 16.039062 34.238281 16.015625 34.195312 16 C 34.207031 15.796875 34.222656 15.613281 34.222656 15.425781 C 34.230469 14.933594 34.1875 14.445312 34.128906 13.953125 C 34.082031 13.574219 34.023438 13.195312 33.910156 12.828125 C 33.894531 12.785156 33.855469 12.746094 33.816406 12.71875 C 33.777344 12.691406 33.726562 12.683594 33.683594 12.671875 C 32.8125 12.453125 31.9375 12.277344 31.050781 12.128906 C 30.058594 11.964844 29.0625 11.847656 28.058594 11.773438 C 26.894531 11.683594 25.726562 11.640625 24.5625 11.691406 C 23.984375 11.714844 23.410156 11.746094 22.835938 11.792969 C 22.363281 11.832031 21.890625 11.898438 21.417969 11.953125 C 20.6875 12.039062 19.957031 12.140625 19.242188 12.320312 C 18.84375 12.421875 18.453125 12.53125 18.070312 12.679688 C 17.902344 12.742188 17.808594 12.847656 17.761719 13.011719 C 17.617188 13.527344 17.453125 14.035156 17.328125 14.550781 C 17.195312 15.105469 17.097656 15.667969 16.988281 16.226562 C 16.972656 16.292969 16.9375 16.320312 16.886719 16.347656 C 16.703125 16.457031 16.515625 16.558594 16.34375 16.679688 C 15.300781 17.421875 14.683594 18.414062 14.558594 19.699219 C 14.542969 19.871094 14.535156 20.046875 14.523438 20.226562 C 14.453125 20.21875 14.390625 20.207031 14.332031 20.199219 C 14.039062 20.15625 13.777344 20.253906 13.53125 20.394531 C 12.988281 20.707031 12.601562 21.164062 12.324219 21.71875 C 12.097656 22.167969 11.96875 22.648438 11.867188 23.136719 C 11.667969 24.085938 11.554688 25.039062 11.753906 26.003906 C 11.769531 26.078125 11.75 26.128906 11.699219 26.183594 C 11.542969 26.34375 11.429688 26.53125 11.40625 26.753906 C 11.363281 27.125 11.382812 27.496094 11.53125 27.839844 C 11.671875 28.175781 11.921875 28.398438 12.316406 28.398438 C 12.378906 28.398438 12.4375 28.410156 12.507812 28.414062 C 12.507812 28.492188 12.503906 28.566406 12.511719 28.636719 C 12.542969 29.132812 12.566406 29.628906 12.613281 30.125 C 12.640625 30.421875 12.695312 30.71875 12.761719 31.011719 C 12.847656 31.410156 13.074219 31.710938 13.453125 31.875 C 13.664062 31.964844 13.882812 32.03125 14.101562 32.085938 C 14.433594 32.171875 14.78125 32.167969 15.121094 32.171875 C 15.648438 32.179688 16.167969 32.132812 16.675781 32 C 17.058594 31.902344 17.292969 31.660156 17.398438 31.285156 C 17.558594 30.726562 17.613281 30.15625 17.636719 29.578125 C 17.652344 29.242188 17.636719 28.90625 17.636719 28.570312 C 17.636719 28.523438 17.644531 28.480469 17.648438 28.441406 C 19.703125 28.441406 21.746094 28.441406 23.8125 28.441406 C 23.777344 28.496094 23.757812 28.527344 23.734375 28.554688 C 23.378906 29.007812 23.027344 29.460938 22.667969 29.910156 C 22.347656 30.3125 21.992188 30.683594 21.621094 31.039062 C 21.046875 31.589844 20.414062 32.066406 19.773438 32.539062 C 19.136719 33.007812 18.542969 33.519531 18.058594 34.152344 C 17.992188 34.242188 17.929688 34.355469 17.835938 34.40625 C 17.742188 34.457031 17.613281 34.4375 17.5 34.457031 C 17.105469 34.527344 16.703125 34.585938 16.308594 34.671875 C 16 34.742188 15.800781 34.945312 15.707031 35.257812 C 15.617188 35.558594 15.660156 35.839844 15.742188 36.128906 C 15.839844 36.472656 16.300781 36.8125 16.691406 36.78125 C 16.832031 36.773438 16.972656 36.761719 17.109375 36.738281 C 17.519531 36.664062 17.933594 36.582031 18.34375 36.5 C 18.53125 36.464844 18.71875 36.425781 18.902344 36.371094 C 18.976562 36.347656 19.070312 36.300781 19.101562 36.238281 C 19.242188 35.980469 19.332031 35.699219 19.304688 35.402344 C 19.269531 35.019531 19.066406 34.722656 18.769531 34.492188 C 18.660156 34.40625 18.53125 34.371094 18.390625 34.382812 C 18.332031 34.390625 18.269531 34.402344 18.207031 34.363281 C 18.320312 34.246094 18.425781 34.132812 18.535156 34.023438 C 18.796875 33.769531 19.039062 33.496094 19.320312 33.269531 C 19.761719 32.90625 20.226562 32.574219 20.679688 32.230469 C 21.488281 31.609375 22.234375 30.921875 22.878906 30.128906 C 23.304688 29.613281 23.710938 29.082031 24.117188 28.550781 C 24.183594 28.464844 24.25 28.433594 24.351562 28.4375 C 24.574219 28.445312 24.796875 28.441406 25.019531 28.441406 C 25.050781 28.441406 25.085938 28.449219 25.128906 28.457031 C 25.09375 28.515625 25.070312 28.5625 25.042969 28.605469 C 24.847656 28.890625 24.65625 29.183594 24.449219 29.460938 C 23.863281 30.253906 23.257812 31.03125 22.675781 31.824219 C 22.160156 32.523438 21.734375 33.277344 21.402344 34.082031 C 21.390625 34.101562 21.375 34.117188 21.351562 34.15625 C 21.3125 34.0625 21.285156 33.988281 21.25 33.921875 C 21.21875 33.871094 21.183594 33.808594 21.132812 33.785156 C 20.679688 33.558594 20.046875 33.617188 19.652344 34.058594 C 19.554688 34.167969 19.519531 34.28125 19.5625 34.425781 C 19.652344 34.742188 19.726562 35.058594 19.8125 35.375 C 19.882812 35.640625 19.953125 35.902344 20.03125 36.164062 C 20.195312 36.722656 20.769531 36.972656 21.175781 36.898438 C 21.703125 36.804688 22.101562 36.28125 22.023438 35.75 C 21.976562 35.445312 21.917969 35.136719 21.757812 34.863281 C 21.703125 34.765625 21.660156 34.667969 21.605469 34.574219 C 21.566406 34.507812 21.5625 34.453125 21.597656 34.386719 C 21.707031 34.164062 21.808594 33.9375 21.917969 33.710938 C 22.363281 32.765625 22.949219 31.902344 23.570312 31.066406 C 24.199219 30.226562 24.859375 29.414062 25.40625 28.515625 C 25.445312 28.453125 25.492188 28.441406 25.5625 28.441406 C 25.902344 28.441406 26.246094 28.441406 26.585938 28.445312 C 26.625 28.445312 26.660156 28.449219 26.699219 28.453125 C 26.695312 28.496094 26.691406 28.53125 26.683594 28.566406 C 26.601562 28.898438 26.527344 29.230469 26.433594 29.558594 C 26.171875 30.464844 25.917969 31.371094 25.816406 32.316406 C 25.746094 32.960938 25.761719 33.597656 25.90625 34.230469 C 26 34.628906 26.179688 34.992188 26.335938 35.363281 C 26.355469 35.40625 26.375 35.453125 26.398438 35.507812 C 26.308594 35.519531 26.234375 35.527344 26.164062 35.542969 C 25.910156 35.59375 25.652344 35.636719 25.402344 35.699219 C 25.09375 35.78125 24.898438 35.980469 24.808594 36.292969 C 24.722656 36.589844 24.761719 36.875 24.847656 37.164062 C 24.945312 37.496094 25.398438 37.835938 25.785156 37.808594 C 25.929688 37.800781 26.078125 37.789062 26.21875 37.765625 C 26.625 37.691406 27.03125 37.609375 27.4375 37.53125 C 27.632812 37.492188 27.824219 37.445312 28.015625 37.398438 C 28.132812 37.367188 28.214844 37.296875 28.253906 37.175781 C 28.285156 37.070312 28.328125 36.972656 28.355469 36.867188 C 28.496094 36.347656 28.3125 35.835938 27.878906 35.523438 C 27.769531 35.441406 27.648438 35.402344 27.515625 35.410156 C 27.332031 35.421875 27.152344 35.429688 26.972656 35.445312 C 26.851562 35.453125 26.734375 35.464844 26.613281 35.476562 C 26.523438 35.207031 26.425781 34.945312 26.34375 34.679688 C 26.152344 34.066406 26.039062 33.441406 26.070312 32.796875 C 26.101562 32.128906 26.222656 31.476562 26.378906 30.832031 C 26.527344 30.234375 26.691406 29.640625 26.84375 29.042969 C 26.890625 28.847656 26.929688 28.652344 26.96875 28.457031 C 27.171875 28.429688 27.859375 28.4375 27.980469 28.476562 C 28.011719 28.929688 28.042969 29.390625 28.070312 29.851562 C 28.101562 30.355469 28.144531 30.863281 28.257812 31.359375 C 28.417969 32.070312 28.671875 32.742188 29.109375 33.328125 C 29.371094 33.683594 29.675781 34.003906 29.960938 34.339844 C 29.996094 34.378906 30.035156 34.421875 30.070312 34.457031 C 29.925781 34.621094 29.785156 34.757812 29.710938 34.945312 C 29.679688 35.035156 29.679688 35.109375 29.738281 35.191406 C 30.042969 35.644531 30.378906 36.070312 30.761719 36.460938 C 31.164062 36.871094 31.644531 36.8125 32.007812 36.515625 C 32.386719 36.207031 32.371094 35.753906 32.121094 35.449219 C 31.90625 35.183594 31.671875 34.9375 31.441406 34.683594 C 31.28125 34.511719 31.113281 34.351562 30.957031 34.179688 C 30.894531 34.113281 30.824219 34.097656 30.746094 34.121094 C 30.589844 34.167969 30.4375 34.222656 30.269531 34.28125 C 30.136719 34.121094 29.992188 33.953125 29.851562 33.78125 C 29.632812 33.503906 29.398438 33.238281 29.203125 32.945312 C 28.679688 32.164062 28.433594 31.285156 28.347656 30.359375 C 28.3125 29.984375 28.292969 29.605469 28.261719 29.230469 C 28.242188 28.976562 28.21875 28.722656 28.195312 28.445312 C 28.257812 28.445312 28.308594 28.445312 28.359375 28.445312 C 28.65625 28.445312 28.953125 28.449219 29.246094 28.441406 C 29.371094 28.4375 29.4375 28.476562 29.488281 28.582031 C 29.707031 29.046875 29.9375 29.503906 30.15625 29.96875 C 30.355469 30.390625 30.574219 30.804688 30.84375 31.1875 C 31.304688 31.835938 31.882812 32.367188 32.527344 32.828125 C 33.171875 33.289062 33.855469 33.679688 34.566406 34.019531 C 34.601562 34.035156 34.628906 34.058594 34.683594 34.09375 C 34.566406 34.121094 34.472656 34.132812 34.386719 34.167969 C 34.292969 34.203125 34.183594 34.242188 34.121094 34.3125 C 33.851562 34.605469 33.734375 34.957031 33.785156 35.355469 C 33.8125 35.59375 33.949219 35.789062 34.070312 35.988281 C 34.179688 36.164062 34.328125 36.230469 34.527344 36.21875 C 34.554688 36.21875 34.578125 36.21875 34.605469 36.21875 C 34.921875 36.199219 35.238281 36.195312 35.550781 36.164062 C 35.914062 36.132812 36.273438 36.097656 36.632812 36.039062 C 37.035156 35.96875 37.292969 35.699219 37.386719 35.316406 C 37.484375 34.925781 37.410156 34.542969 37.15625 34.210938 C 37.039062 34.058594 36.886719 33.9375 36.679688 33.921875 C 36.503906 33.910156 36.328125 33.898438 36.15625 33.910156 C 35.890625 33.925781 35.628906 33.953125 35.367188 33.992188 C 35.226562 34.011719 35.101562 33.992188 34.980469 33.921875 C 34.945312 33.902344 34.90625 33.882812 34.871094 33.863281 C 34.371094 33.570312 33.863281 33.28125 33.371094 32.976562 C 33.0625 32.789062 32.765625 32.578125 32.476562 32.359375 C 31.65625 31.738281 31.019531 30.964844 30.570312 30.035156 C 30.332031 29.539062 30.074219 29.042969 29.828125 28.550781 C 29.8125 28.519531 29.800781 28.488281 29.789062 28.457031 C 31.3125 28.457031 32.824219 28.457031 34.339844 28.457031 C 34.34375 28.503906 34.351562 28.53125 34.347656 28.5625 C 34.34375 28.765625 34.324219 28.96875 34.335938 29.167969 C 34.359375 29.628906 34.382812 30.089844 34.429688 30.550781 C 34.460938 30.855469 34.523438 31.164062 34.636719 31.457031 C 34.738281 31.710938 34.921875 31.890625 35.179688 31.976562 C 35.324219 32.023438 35.46875 32.054688 35.617188 32.085938 C 36.148438 32.195312 36.6875 32.195312 37.226562 32.179688 C 37.640625 32.167969 38.042969 32.097656 38.425781 31.941406 C 38.882812 31.757812 39.148438 31.421875 39.242188 30.941406 C 39.363281 30.339844 39.417969 29.734375 39.453125 29.121094 C 39.464844 28.925781 39.472656 28.730469 39.480469 28.523438 C 39.550781 28.519531 39.613281 28.507812 39.671875 28.511719 C 39.960938 28.527344 40.164062 28.386719 40.292969 28.144531 C 40.4375 27.875 40.496094 27.578125 40.4375 27.273438 " fill-opacity="1" fill-rule="nonzero"/></g><path fill="#ffffff" d="M 30.351562 24.394531 C 30.25 24.410156 30.148438 24.441406 30.027344 24.382812 C 30.027344 24.234375 30.023438 24.082031 30.027344 23.929688 C 30.035156 23.769531 30.050781 23.609375 30.0625 23.449219 C 30.09375 23.144531 30.097656 22.839844 30.042969 22.53125 C 30.476562 22.324219 30.890625 22.101562 31.347656 21.976562 C 31.496094 21.933594 31.644531 21.882812 31.792969 21.839844 C 31.917969 21.796875 31.949219 21.753906 31.921875 21.621094 C 31.898438 21.507812 31.859375 21.402344 31.832031 21.289062 C 31.824219 21.265625 31.824219 21.242188 31.816406 21.210938 C 32.273438 21.273438 32.703125 21.183594 33.132812 21.089844 C 33.570312 20.992188 34.007812 20.878906 34.445312 20.769531 C 34.535156 20.75 34.621094 20.71875 34.722656 20.714844 C 34.679688 20.769531 34.636719 20.824219 34.585938 20.878906 C 34.320312 21.171875 34.046875 21.464844 33.785156 21.765625 C 33.652344 21.921875 33.550781 22.105469 33.433594 22.277344 C 33.40625 22.320312 33.390625 22.371094 33.375 22.417969 C 33.328125 22.574219 33.375 22.695312 33.511719 22.777344 C 33.585938 22.824219 33.667969 22.863281 33.746094 22.898438 C 34.019531 23.027344 34.289062 23.152344 34.5625 23.28125 C 34.605469 23.300781 34.644531 23.324219 34.683594 23.34375 C 34.683594 23.355469 34.683594 23.367188 34.683594 23.378906 C 34.320312 23.492188 33.960938 23.605469 33.601562 23.714844 C 32.90625 23.921875 32.195312 24.070312 31.484375 24.199219 C 31.105469 24.265625 30.726562 24.332031 30.351562 24.394531 Z M 29.167969 21.984375 C 28.585938 22.09375 27.992188 22.097656 27.40625 22.015625 C 26.777344 21.925781 26.15625 21.8125 25.535156 21.707031 C 24.792969 21.578125 24.050781 21.472656 23.296875 21.484375 C 22.558594 21.496094 21.824219 21.546875 21.105469 21.722656 C 20.824219 21.792969 20.550781 21.890625 20.261719 21.980469 C 20.289062 21.550781 20.332031 21.132812 20.425781 20.722656 C 20.566406 20.097656 20.796875 19.496094 20.984375 18.882812 C 21.046875 18.679688 21.152344 18.585938 21.347656 18.515625 C 22.109375 18.242188 22.894531 18.097656 23.691406 17.988281 C 24.359375 17.898438 25.03125 17.832031 25.707031 17.863281 C 26.261719 17.886719 26.808594 17.984375 27.34375 18.136719 C 28.226562 18.386719 29.121094 18.472656 30.035156 18.386719 C 30.359375 18.359375 30.679688 18.296875 31.003906 18.253906 C 31.039062 18.246094 31.074219 18.246094 31.113281 18.242188 C 31.207031 19.363281 31.363281 20.46875 31.675781 21.558594 C 31.628906 21.566406 31.589844 21.570312 31.554688 21.570312 C 31.234375 21.5625 30.925781 21.609375 30.613281 21.679688 C 30.132812 21.789062 29.652344 21.890625 29.167969 21.984375 Z M 20.980469 24.003906 C 20.128906 24.246094 18.25 24.296875 17.785156 24.082031 C 17.828125 24.039062 17.863281 24 17.902344 23.960938 C 18.09375 23.761719 18.289062 23.570312 18.46875 23.363281 C 18.546875 23.277344 18.601562 23.164062 18.640625 23.054688 C 18.699219 22.902344 18.65625 22.765625 18.519531 22.675781 C 18.410156 22.605469 18.292969 22.550781 18.171875 22.503906 C 17.835938 22.367188 17.480469 22.296875 17.117188 22.238281 C 18.140625 21.953125 19.132812 21.582031 20.101562 21.097656 C 20.085938 21.238281 20.0625 21.363281 20.054688 21.488281 C 20.042969 21.699219 20.027344 21.910156 20.035156 22.121094 C 20.042969 22.269531 20.066406 22.257812 20.210938 22.269531 C 20.5 22.292969 20.789062 22.253906 21.09375 22.332031 C 20.929688 22.882812 20.949219 23.445312 20.980469 24.003906 Z M 34.757812 23.597656 C 34.851562 23.566406 34.941406 23.523438 35.027344 23.476562 C 35.117188 23.421875 35.132812 23.324219 35.054688 23.257812 C 35.011719 23.214844 34.953125 23.183594 34.898438 23.160156 C 34.527344 22.988281 34.152344 22.820312 33.78125 22.65625 C 33.546875 22.554688 33.539062 22.527344 33.65625 22.300781 C 33.773438 22.070312 33.945312 21.882812 34.113281 21.695312 C 34.335938 21.441406 34.554688 21.183594 34.773438 20.925781 C 34.828125 20.859375 34.875 20.78125 34.914062 20.707031 C 34.984375 20.574219 34.945312 20.5 34.792969 20.484375 C 34.71875 20.476562 34.636719 20.476562 34.5625 20.496094 C 34.285156 20.5625 34.011719 20.640625 33.734375 20.703125 C 33.234375 20.816406 32.734375 20.929688 32.234375 21.027344 C 32.089844 21.054688 31.933594 21.03125 31.777344 21.03125 C 31.761719 20.984375 31.746094 20.941406 31.738281 20.894531 C 31.613281 20.265625 31.5 19.636719 31.453125 18.992188 C 31.433594 18.730469 31.386719 18.46875 31.335938 18.210938 C 31.304688 18.046875 31.253906 18.011719 31.089844 18.019531 C 30.839844 18.027344 30.589844 18.035156 30.34375 18.0625 C 29.320312 18.175781 28.316406 18.109375 27.324219 17.828125 C 26.75 17.664062 26.164062 17.566406 25.5625 17.550781 C 25.136719 17.542969 24.714844 17.566406 24.289062 17.613281 C 23.660156 17.679688 23.035156 17.777344 22.425781 17.945312 C 21.984375 18.070312 21.542969 18.207031 21.101562 18.335938 C 20.984375 18.371094 20.910156 18.449219 20.867188 18.566406 C 20.605469 19.292969 20.332031 20.011719 20.171875 20.773438 C 20.15625 20.84375 20.121094 20.878906 20.054688 20.898438 C 19.929688 20.941406 19.800781 20.988281 19.675781 21.039062 C 18.960938 21.324219 18.246094 21.609375 17.507812 21.84375 C 17.28125 21.917969 17.0625 22.011719 16.839844 22.097656 C 16.785156 22.121094 16.726562 22.148438 16.679688 22.191406 C 16.605469 22.253906 16.628906 22.355469 16.71875 22.386719 C 16.761719 22.398438 16.8125 22.398438 16.855469 22.40625 C 16.949219 22.421875 17.042969 22.429688 17.132812 22.457031 C 17.390625 22.53125 17.648438 22.609375 17.902344 22.695312 C 18.050781 22.742188 18.195312 22.800781 18.335938 22.863281 C 18.441406 22.90625 18.457031 22.945312 18.40625 23.042969 C 18.355469 23.144531 18.292969 23.242188 18.21875 23.328125 C 18.03125 23.527344 17.832031 23.71875 17.640625 23.914062 C 17.597656 23.960938 17.554688 24.003906 17.523438 24.058594 C 17.472656 24.140625 17.488281 24.207031 17.570312 24.253906 C 17.632812 24.289062 17.703125 24.316406 17.769531 24.335938 C 18.0625 24.410156 18.359375 24.453125 18.660156 24.46875 C 19.5 24.523438 20.324219 24.433594 21.148438 24.285156 C 21.296875 24.257812 21.296875 24.253906 21.292969 24.105469 C 21.285156 23.902344 21.265625 23.699219 21.28125 23.5 C 21.3125 22.957031 21.417969 22.433594 21.628906 21.914062 C 22.140625 21.824219 22.660156 21.789062 23.175781 21.792969 C 23.960938 21.800781 24.738281 21.90625 25.507812 22.050781 C 26.179688 22.175781 26.847656 22.324219 27.53125 22.390625 C 28.0625 22.445312 28.597656 22.441406 29.125 22.359375 C 29.339844 22.324219 29.550781 22.28125 29.78125 22.238281 C 29.789062 22.3125 29.800781 22.382812 29.808594 22.453125 C 29.859375 22.976562 29.792969 23.5 29.765625 24.023438 C 29.757812 24.160156 29.773438 24.300781 29.804688 24.4375 C 29.839844 24.589844 29.929688 24.648438 30.089844 24.648438 C 30.179688 24.648438 30.273438 24.640625 30.367188 24.625 C 30.6875 24.574219 31.007812 24.511719 31.332031 24.464844 C 32.074219 24.355469 32.8125 24.226562 33.53125 23.996094 C 33.941406 23.867188 34.351562 23.734375 34.757812 23.597656 " fill-opacity="1" fill-rule="nonzero"/><path fill="#ffffff" d="M 14.960938 30.015625 C 14.945312 29.980469 14.898438 29.945312 14.859375 29.9375 C 14.835938 29.933594 14.785156 29.980469 14.777344 30.011719 C 14.683594 30.277344 14.707031 30.542969 14.832031 30.792969 C 14.847656 30.828125 14.902344 30.859375 14.941406 30.859375 C 15 30.859375 15.027344 30.808594 15.027344 30.75 C 15.03125 30.667969 15.027344 30.585938 15.027344 30.5 C 15.042969 30.335938 15.027344 30.167969 14.960938 30.015625 " fill-opacity="1" fill-rule="nonzero"/><path fill="#ffffff" d="M 16.214844 29.871094 C 16.179688 29.882812 16.128906 29.917969 16.117188 29.953125 C 16.085938 30.0625 16.066406 30.171875 16.042969 30.269531 C 16.058594 30.375 16.070312 30.460938 16.089844 30.546875 C 16.101562 30.609375 16.144531 30.648438 16.207031 30.652344 C 16.273438 30.65625 16.320312 30.621094 16.339844 30.5625 C 16.402344 30.359375 16.402344 30.152344 16.332031 29.953125 C 16.3125 29.902344 16.273438 29.855469 16.214844 29.871094 " fill-opacity="1" fill-rule="nonzero"/><path fill="#ffffff" d="M 13.542969 29.824219 C 13.515625 29.820312 13.472656 29.867188 13.464844 29.898438 C 13.398438 30.136719 13.398438 30.375 13.46875 30.613281 C 13.488281 30.675781 13.523438 30.71875 13.589844 30.710938 C 13.660156 30.699219 13.679688 30.644531 13.6875 30.585938 C 13.691406 30.519531 13.691406 30.453125 13.695312 30.382812 C 13.703125 30.382812 13.710938 30.382812 13.714844 30.378906 C 13.6875 30.21875 13.660156 30.054688 13.625 29.894531 C 13.621094 29.867188 13.574219 29.824219 13.542969 29.824219 " fill-opacity="1" fill-rule="nonzero"/><path fill="#ffffff" d="M 37.183594 29.984375 C 37.148438 29.933594 37.089844 29.929688 37.054688 29.976562 C 37.027344 30.007812 37.007812 30.046875 37 30.085938 C 36.972656 30.234375 36.949219 30.382812 36.925781 30.527344 C 36.929688 30.53125 36.933594 30.53125 36.941406 30.53125 C 36.945312 30.621094 36.949219 30.707031 36.964844 30.792969 C 36.96875 30.824219 37.003906 30.867188 37.027344 30.867188 C 37.0625 30.875 37.105469 30.855469 37.136719 30.832031 C 37.15625 30.816406 37.171875 30.78125 37.183594 30.753906 C 37.261719 30.542969 37.273438 30.328125 37.234375 30.113281 C 37.226562 30.066406 37.210938 30.019531 37.183594 29.984375 " fill-opacity="1" fill-rule="nonzero"/><path fill="#ffffff" d="M 35.757812 29.882812 C 35.714844 29.898438 35.664062 29.9375 35.652344 29.976562 C 35.617188 30.074219 35.605469 30.179688 35.585938 30.273438 C 35.605469 30.375 35.617188 30.46875 35.636719 30.558594 C 35.652344 30.625 35.699219 30.667969 35.769531 30.664062 C 35.835938 30.664062 35.878906 30.625 35.894531 30.5625 C 35.945312 30.363281 35.945312 30.164062 35.867188 29.96875 C 35.847656 29.921875 35.816406 29.867188 35.757812 29.882812 " fill-opacity="1" fill-rule="nonzero"/><path fill="#ffffff" d="M 38.441406 29.832031 C 38.410156 29.863281 38.375 29.894531 38.347656 29.925781 C 38.335938 29.941406 38.335938 29.964844 38.332031 29.984375 C 38.28125 30.1875 38.269531 30.390625 38.300781 30.597656 C 38.308594 30.65625 38.316406 30.714844 38.390625 30.722656 C 38.464844 30.730469 38.503906 30.683594 38.519531 30.617188 C 38.539062 30.5 38.554688 30.382812 38.570312 30.269531 C 38.554688 30.152344 38.546875 30.039062 38.523438 29.929688 C 38.515625 29.890625 38.46875 29.863281 38.441406 29.832031 " fill-opacity="1" fill-rule="nonzero"/><path fill="#ffffff" d="M 14.996094 23.101562 C 15.515625 23.105469 15.933594 23.527344 15.929688 24.0625 C 15.929688 24.585938 15.515625 24.996094 14.992188 24.996094 C 14.46875 24.996094 14.042969 24.558594 14.046875 24.039062 C 14.054688 23.523438 14.480469 23.101562 14.996094 23.101562 Z M 15.011719 25.160156 C 15.613281 25.160156 16.113281 24.671875 16.117188 24.066406 C 16.125 23.472656 15.621094 22.96875 15.015625 22.96875 C 14.410156 22.96875 13.914062 23.460938 13.914062 24.0625 C 13.914062 24.675781 14.398438 25.15625 15.011719 25.160156 " fill-opacity="1" fill-rule="nonzero"/><path fill="#ffffff" d="M 36.8125 23.101562 C 37.335938 23.109375 37.746094 23.53125 37.746094 24.066406 C 37.742188 24.585938 37.324219 25 36.800781 24.996094 C 36.285156 24.992188 35.863281 24.566406 35.863281 24.050781 C 35.859375 23.53125 36.296875 23.097656 36.8125 23.101562 Z M 36.824219 25.160156 C 37.429688 25.160156 37.925781 24.667969 37.933594 24.066406 C 37.9375 23.472656 37.433594 22.96875 36.828125 22.96875 C 36.222656 22.96875 35.730469 23.460938 35.726562 24.0625 C 35.726562 24.675781 36.210938 25.15625 36.824219 25.160156 " fill-opacity="1" fill-rule="nonzero"/><g clip-path="url(#d324d3fd2e)"><path fill="#ffffff" d="M 25.8125 37.058594 C 25.703125 37.167969 25.546875 37.160156 25.441406 37.046875 C 25.265625 36.851562 25.273438 36.511719 25.464844 36.332031 C 25.617188 36.1875 25.796875 36.222656 25.875 36.414062 C 25.890625 36.457031 25.90625 36.503906 25.917969 36.546875 C 25.925781 36.597656 25.929688 36.648438 25.933594 36.679688 C 25.9375 36.835938 25.910156 36.957031 25.8125 37.058594 Z M 26.003906 36.261719 C 25.835938 36.035156 25.53125 36.035156 25.351562 36.242188 C 25.136719 36.496094 25.121094 36.777344 25.238281 37.070312 C 25.363281 37.375 25.71875 37.441406 25.953125 37.214844 C 26.09375 37.082031 26.148438 36.914062 26.148438 36.726562 C 26.148438 36.554688 26.105469 36.398438 26.003906 36.261719 " fill-opacity="1" fill-rule="nonzero"/></g><path fill="#ffffff" d="M 16.71875 36.019531 C 16.609375 36.140625 16.445312 36.136719 16.339844 36.019531 C 16.160156 35.816406 16.171875 35.484375 16.367188 35.300781 C 16.519531 35.160156 16.695312 35.199219 16.773438 35.390625 C 16.792969 35.445312 16.8125 35.5 16.824219 35.554688 C 16.832031 35.601562 16.832031 35.648438 16.832031 35.667969 C 16.835938 35.816406 16.804688 35.929688 16.71875 36.019531 Z M 16.894531 35.222656 C 16.726562 35.007812 16.421875 35.011719 16.25 35.214844 C 16.042969 35.464844 16.015625 35.734375 16.128906 36.027344 C 16.257812 36.355469 16.632812 36.421875 16.875 36.167969 C 16.996094 36.035156 17.046875 35.875 17.050781 35.683594 C 17.042969 35.523438 17.003906 35.359375 16.894531 35.222656 " fill-opacity="1" fill-rule="nonzero"/><path fill="#ffffff" d="M 36.230469 34.695312 C 36.261719 34.503906 36.417969 34.429688 36.589844 34.515625 C 36.769531 34.609375 36.851562 34.746094 36.859375 34.96875 C 36.847656 35.035156 36.847656 35.105469 36.828125 35.167969 C 36.765625 35.351562 36.585938 35.410156 36.429688 35.292969 C 36.375 35.253906 36.324219 35.195312 36.292969 35.132812 C 36.222656 34.996094 36.207031 34.84375 36.230469 34.695312 Z M 36.066406 35.152344 C 36.128906 35.3125 36.226562 35.441406 36.386719 35.515625 C 36.652344 35.644531 36.933594 35.515625 37.003906 35.226562 C 37.015625 35.171875 37.019531 35.113281 37.027344 35.058594 C 37.039062 34.75 36.890625 34.535156 36.636719 34.378906 C 36.578125 34.34375 36.503906 34.320312 36.433594 34.324219 C 36.234375 34.335938 36.082031 34.480469 36.039062 34.679688 C 36.003906 34.839844 36.007812 35 36.066406 35.152344 " fill-opacity="1" fill-rule="nonzero"/><path fill="#ffffff" d="M 21.082031 36.332031 C 20.800781 36.382812 20.570312 36.183594 20.574219 35.871094 C 20.601562 35.710938 20.609375 35.515625 20.789062 35.390625 C 21.046875 35.210938 21.386719 35.320312 21.480469 35.617188 C 21.582031 35.945312 21.398438 36.277344 21.082031 36.332031 Z M 20.988281 35.171875 C 20.917969 35.179688 20.839844 35.210938 20.777344 35.25 C 20.585938 35.375 20.503906 35.566406 20.464844 35.78125 C 20.421875 36.019531 20.507812 36.28125 20.695312 36.398438 C 20.902344 36.527344 21.121094 36.511719 21.328125 36.394531 C 21.5625 36.261719 21.628906 36.039062 21.636719 35.734375 C 21.660156 35.371094 21.328125 35.140625 20.988281 35.171875 " fill-opacity="1" fill-rule="nonzero"/><path fill="#ffffff" d="M 31.679688 35.507812 C 31.796875 35.566406 31.835938 35.675781 31.835938 35.804688 C 31.835938 35.988281 31.601562 36.246094 31.414062 36.257812 C 31.363281 36.261719 31.296875 36.242188 31.257812 36.210938 C 31.019531 36.003906 31.046875 35.6875 31.296875 35.511719 C 31.40625 35.433594 31.554688 35.441406 31.679688 35.507812 Z M 30.96875 35.898438 C 31 36 31.019531 36.109375 31.070312 36.203125 C 31.140625 36.339844 31.261719 36.421875 31.421875 36.40625 C 31.644531 36.386719 31.886719 36.171875 31.945312 35.953125 C 32.011719 35.699219 31.878906 35.4375 31.648438 35.390625 C 31.570312 35.375 31.484375 35.390625 31.40625 35.402344 C 31.136719 35.445312 30.988281 35.621094 30.96875 35.898438 " fill-opacity="1" fill-rule="nonzero"/><path fill="#ffffff" d="M 23.574219 19.617188 C 23.492188 19.582031 23.417969 19.609375 23.359375 19.667969 C 23.261719 19.765625 23.164062 19.867188 23.070312 19.972656 C 23.027344 20.019531 22.992188 20.070312 22.933594 20.140625 C 22.90625 20.046875 22.890625 19.984375 22.871094 19.921875 C 22.839844 19.832031 22.820312 19.738281 22.777344 19.660156 C 22.707031 19.523438 22.558594 19.527344 22.484375 19.65625 C 22.464844 19.691406 22.449219 19.734375 22.4375 19.773438 C 22.300781 20.144531 22.164062 20.519531 22.03125 20.894531 C 22.015625 20.929688 22 20.964844 22 20.996094 C 22 21.085938 22.078125 21.125 22.152344 21.078125 C 22.171875 21.066406 22.1875 21.042969 22.207031 21.023438 C 22.359375 20.863281 22.457031 20.671875 22.535156 20.46875 C 22.5625 20.398438 22.59375 20.328125 22.632812 20.242188 C 22.667969 20.339844 22.6875 20.414062 22.722656 20.484375 C 22.789062 20.617188 22.914062 20.628906 23.007812 20.515625 C 23.042969 20.476562 23.066406 20.429688 23.097656 20.386719 C 23.171875 20.285156 23.25 20.183594 23.324219 20.082031 C 23.335938 20.089844 23.34375 20.097656 23.351562 20.101562 C 23.328125 20.296875 23.296875 20.492188 23.285156 20.6875 C 23.28125 20.78125 23.304688 20.882812 23.328125 20.976562 C 23.339844 21.03125 23.390625 21.070312 23.457031 21.070312 C 23.523438 21.066406 23.5625 21.023438 23.578125 20.96875 C 23.597656 20.898438 23.613281 20.828125 23.617188 20.753906 C 23.632812 20.53125 23.644531 20.308594 23.65625 20.089844 C 23.660156 20 23.671875 19.914062 23.675781 19.824219 C 23.679688 19.738281 23.660156 19.65625 23.574219 19.617188 " fill-opacity="1" fill-rule="nonzero"/><path fill="#ffffff" d="M 30.273438 20.566406 C 30.234375 20.886719 30.058594 21.042969 29.703125 21.054688 C 29.714844 20.75 29.722656 20.441406 29.730469 20.140625 C 30.0625 20.046875 30.3125 20.253906 30.273438 20.566406 Z M 29.820312 19.859375 C 29.753906 19.867188 29.683594 19.867188 29.589844 19.871094 C 29.578125 19.90625 29.542969 19.957031 29.539062 20.015625 C 29.503906 20.394531 29.472656 20.777344 29.445312 21.160156 C 29.441406 21.1875 29.441406 21.222656 29.449219 21.25 C 29.46875 21.339844 29.558594 21.382812 29.621094 21.320312 C 29.679688 21.261719 29.726562 21.277344 29.789062 21.285156 C 29.84375 21.289062 29.902344 21.292969 29.957031 21.28125 C 30.234375 21.230469 30.425781 21.078125 30.507812 20.800781 C 30.597656 20.507812 30.535156 20.25 30.3125 20.035156 C 30.175781 19.902344 30.011719 19.839844 29.820312 19.859375 " fill-opacity="1" fill-rule="nonzero"/><path fill="#ffffff" d="M 26.746094 20.175781 C 26.671875 20.226562 26.589844 20.269531 26.488281 20.257812 C 26.488281 20.125 26.488281 19.996094 26.488281 19.84375 C 26.585938 19.875 26.664062 19.886719 26.730469 19.921875 C 26.851562 19.980469 26.859375 20.105469 26.746094 20.175781 Z M 26.933594 19.792969 C 26.796875 19.679688 26.644531 19.644531 26.46875 19.6875 C 26.308594 19.726562 26.308594 19.71875 26.289062 19.875 C 26.246094 20.203125 26.195312 20.53125 26.160156 20.859375 C 26.148438 20.953125 26.164062 21.054688 26.179688 21.148438 C 26.1875 21.183594 26.242188 21.21875 26.28125 21.226562 C 26.300781 21.234375 26.347656 21.183594 26.359375 21.152344 C 26.382812 21.054688 26.398438 20.949219 26.417969 20.847656 C 26.425781 20.808594 26.433594 20.765625 26.449219 20.695312 C 26.558594 20.855469 26.644531 20.984375 26.730469 21.109375 C 26.761719 21.15625 26.796875 21.203125 26.835938 21.242188 C 26.882812 21.285156 26.9375 21.296875 26.992188 21.261719 C 27.050781 21.226562 27.066406 21.167969 27.042969 21.113281 C 27.023438 21.054688 26.992188 21 26.953125 20.949219 C 26.835938 20.796875 26.710938 20.644531 26.582031 20.484375 C 26.679688 20.449219 26.777344 20.425781 26.863281 20.382812 C 27.113281 20.257812 27.144531 19.972656 26.933594 19.792969 " fill-opacity="1" fill-rule="nonzero"/><path fill="#ffffff" d="M 25.636719 20.105469 C 25.5625 20.152344 25.472656 20.171875 25.359375 20.21875 C 25.375 20.082031 25.382812 19.976562 25.398438 19.84375 C 25.488281 19.859375 25.5625 19.859375 25.625 19.890625 C 25.730469 19.9375 25.738281 20.046875 25.636719 20.105469 Z M 25.863281 20.164062 C 26.023438 19.953125 25.914062 19.671875 25.652344 19.632812 C 25.566406 19.621094 25.476562 19.65625 25.390625 19.648438 C 25.265625 19.636719 25.226562 19.707031 25.203125 19.804688 C 25.128906 20.113281 25.058594 20.417969 24.992188 20.726562 C 24.972656 20.816406 24.984375 20.914062 24.984375 21.007812 C 24.984375 21.070312 25.007812 21.121094 25.074219 21.128906 C 25.144531 21.140625 25.175781 21.09375 25.199219 21.035156 C 25.210938 21.003906 25.21875 20.976562 25.226562 20.945312 C 25.253906 20.828125 25.28125 20.707031 25.3125 20.566406 C 25.347656 20.613281 25.367188 20.648438 25.390625 20.679688 C 25.496094 20.832031 25.601562 20.984375 25.710938 21.136719 C 25.734375 21.167969 25.769531 21.203125 25.804688 21.214844 C 25.835938 21.230469 25.886719 21.226562 25.914062 21.207031 C 25.933594 21.195312 25.9375 21.140625 25.929688 21.113281 C 25.914062 21.0625 25.886719 21.015625 25.859375 20.972656 C 25.738281 20.789062 25.613281 20.605469 25.480469 20.410156 C 25.628906 20.347656 25.769531 20.289062 25.863281 20.164062 " fill-opacity="1" fill-rule="nonzero"/><path fill="#ffffff" d="M 24.457031 20.222656 C 24.402344 20.222656 24.359375 20.222656 24.304688 20.222656 C 24.320312 20.113281 24.367188 20.035156 24.457031 19.960938 C 24.457031 20.0625 24.457031 20.140625 24.457031 20.222656 Z M 24.699219 19.90625 C 24.691406 19.835938 24.660156 19.765625 24.628906 19.699219 C 24.5625 19.570312 24.441406 19.554688 24.335938 19.65625 C 24.292969 19.699219 24.25 19.746094 24.21875 19.800781 C 24.023438 20.144531 23.875 20.503906 23.789062 20.890625 C 23.78125 20.9375 23.78125 20.984375 23.792969 21.027344 C 23.800781 21.058594 23.835938 21.097656 23.863281 21.097656 C 23.894531 21.101562 23.945312 21.078125 23.960938 21.050781 C 23.992188 21 24.003906 20.9375 24.027344 20.878906 C 24.078125 20.722656 24.132812 20.570312 24.1875 20.410156 C 24.285156 20.421875 24.367188 20.433594 24.460938 20.445312 C 24.460938 20.59375 24.460938 20.722656 24.460938 20.847656 C 24.460938 20.894531 24.464844 20.941406 24.476562 20.988281 C 24.492188 21.046875 24.539062 21.085938 24.601562 21.089844 C 24.667969 21.09375 24.71875 21.054688 24.738281 20.984375 C 24.75 20.9375 24.761719 20.882812 24.761719 20.832031 C 24.742188 20.523438 24.722656 20.214844 24.699219 19.90625 " fill-opacity="1" fill-rule="nonzero"/><path fill="#ffffff" d="M 29.046875 19.859375 C 28.882812 19.847656 28.71875 19.832031 28.554688 19.828125 C 28.476562 19.828125 28.417969 19.871094 28.402344 19.953125 C 28.382812 20.039062 28.359375 20.125 28.347656 20.210938 C 28.324219 20.390625 28.308594 20.570312 28.292969 20.75 C 28.277344 20.90625 28.253906 21.058594 28.246094 21.214844 C 28.242188 21.351562 28.304688 21.410156 28.445312 21.414062 C 28.515625 21.417969 28.585938 21.433594 28.660156 21.429688 C 28.75 21.421875 28.84375 21.410156 28.933594 21.386719 C 28.996094 21.371094 29.035156 21.316406 29.027344 21.246094 C 29.015625 21.171875 28.957031 21.148438 28.890625 21.144531 C 28.863281 21.144531 28.839844 21.148438 28.8125 21.148438 C 28.722656 21.148438 28.632812 21.144531 28.535156 21.140625 C 28.546875 20.972656 28.558594 20.824219 28.570312 20.667969 C 28.691406 20.667969 28.804688 20.667969 28.917969 20.667969 C 28.988281 20.667969 29.054688 20.652344 29.070312 20.570312 C 29.082031 20.5 29.035156 20.445312 28.941406 20.421875 C 28.910156 20.414062 28.878906 20.414062 28.847656 20.410156 C 28.757812 20.394531 28.671875 20.378906 28.578125 20.363281 C 28.585938 20.253906 28.589844 20.160156 28.597656 20.054688 C 28.632812 20.050781 28.664062 20.046875 28.695312 20.046875 C 28.808594 20.046875 28.921875 20.046875 29.035156 20.042969 C 29.09375 20.042969 29.136719 20.011719 29.136719 19.949219 C 29.136719 19.894531 29.101562 19.863281 29.046875 19.859375 " fill-opacity="1" fill-rule="nonzero"/><path fill="#ffffff" d="M 25.199219 18.210938 C 25.203125 18.210938 25.203125 18.207031 25.207031 18.207031 C 25.203125 18.207031 25.203125 18.207031 25.199219 18.207031 C 25.199219 18.207031 25.199219 18.210938 25.199219 18.210938 " fill-opacity="1" fill-rule="nonzero"/><path fill="#ffffff" d="M 25.171875 18.867188 C 25.171875 18.933594 25.1875 19.003906 25.210938 19.066406 C 25.273438 19.246094 25.433594 19.296875 25.574219 19.171875 C 25.652344 19.105469 25.722656 19.019531 25.757812 18.929688 C 25.816406 18.769531 25.851562 18.601562 25.890625 18.4375 C 25.902344 18.375 25.914062 18.3125 25.90625 18.25 C 25.902344 18.210938 25.875 18.164062 25.839844 18.144531 C 25.792969 18.117188 25.75 18.160156 25.730469 18.203125 C 25.707031 18.273438 25.6875 18.34375 25.667969 18.410156 C 25.628906 18.542969 25.59375 18.679688 25.550781 18.8125 C 25.53125 18.859375 25.523438 18.9375 25.445312 18.925781 C 25.363281 18.914062 25.375 18.832031 25.371094 18.773438 C 25.367188 18.6875 25.371094 18.597656 25.375 18.511719 C 25.378906 18.433594 25.394531 18.355469 25.394531 18.277344 C 25.394531 18.214844 25.425781 18.132812 25.335938 18.105469 C 25.253906 18.082031 25.246094 18.167969 25.207031 18.207031 C 25.203125 18.230469 25.203125 18.257812 25.203125 18.28125 C 25.191406 18.476562 25.175781 18.671875 25.171875 18.867188 " fill-opacity="1" fill-rule="nonzero"/><path fill="#ffffff" d="M 25.859375 18.992188 C 25.855469 19.035156 25.863281 19.089844 25.886719 19.121094 C 25.957031 19.222656 26.054688 19.285156 26.1875 19.277344 C 26.34375 19.265625 26.480469 19.207031 26.589844 19.09375 C 26.714844 18.964844 26.71875 18.777344 26.585938 18.652344 C 26.527344 18.597656 26.449219 18.5625 26.378906 18.519531 C 26.335938 18.488281 26.285156 18.46875 26.214844 18.429688 C 26.28125 18.378906 26.320312 18.347656 26.371094 18.308594 C 26.421875 18.367188 26.457031 18.417969 26.503906 18.457031 C 26.53125 18.476562 26.585938 18.492188 26.613281 18.476562 C 26.640625 18.464844 26.664062 18.40625 26.65625 18.375 C 26.644531 18.324219 26.617188 18.265625 26.582031 18.230469 C 26.433594 18.089844 26.265625 18.101562 26.132812 18.253906 C 25.996094 18.414062 26.019531 18.558594 26.207031 18.660156 C 26.261719 18.6875 26.320312 18.707031 26.371094 18.742188 C 26.46875 18.8125 26.46875 18.921875 26.367188 18.984375 C 26.304688 19.023438 26.226562 19.0625 26.15625 19.0625 C 26.109375 19.0625 26.058594 18.996094 26.011719 18.960938 C 26.003906 18.957031 26 18.945312 25.988281 18.941406 C 25.933594 18.90625 25.871094 18.925781 25.859375 18.992188 " fill-opacity="1" fill-rule="nonzero"/><path fill="#ffffff" d="M 27.832031 20.945312 C 27.773438 20.984375 27.714844 21.027344 27.632812 21.085938 C 27.617188 20.980469 27.59375 20.898438 27.601562 20.820312 C 27.609375 20.644531 27.636719 20.472656 27.652344 20.296875 C 27.660156 20.222656 27.667969 20.144531 27.660156 20.066406 C 27.660156 20.035156 27.621094 19.996094 27.589844 19.980469 C 27.542969 19.960938 27.496094 19.988281 27.476562 20.035156 C 27.453125 20.09375 27.425781 20.152344 27.417969 20.210938 C 27.382812 20.445312 27.355469 20.683594 27.328125 20.917969 C 27.320312 20.980469 27.324219 21.042969 27.335938 21.101562 C 27.378906 21.324219 27.542969 21.40625 27.738281 21.296875 C 27.824219 21.25 27.898438 21.1875 27.972656 21.125 C 28.050781 21.054688 28.0625 20.988281 28.023438 20.9375 C 27.980469 20.882812 27.917969 20.882812 27.832031 20.945312 " fill-opacity="1" fill-rule="nonzero"/><path fill="#ffffff" d="M 25.082031 18.078125 C 24.851562 18.09375 24.621094 18.121094 24.386719 18.148438 C 24.363281 18.148438 24.339844 18.164062 24.320312 18.175781 C 24.277344 18.210938 24.285156 18.269531 24.332031 18.289062 C 24.367188 18.300781 24.40625 18.300781 24.441406 18.300781 C 24.527344 18.300781 24.609375 18.300781 24.714844 18.300781 C 24.671875 18.476562 24.644531 18.628906 24.597656 18.773438 C 24.535156 18.953125 24.464844 18.972656 24.292969 18.898438 C 24.285156 18.894531 24.273438 18.886719 24.265625 18.886719 C 24.238281 18.890625 24.195312 18.886719 24.183594 18.902344 C 24.164062 18.925781 24.148438 18.972656 24.160156 18.996094 C 24.195312 19.078125 24.25 19.148438 24.34375 19.175781 C 24.496094 19.222656 24.671875 19.160156 24.753906 19.003906 C 24.808594 18.902344 24.839844 18.785156 24.863281 18.671875 C 24.886719 18.546875 24.890625 18.417969 24.902344 18.300781 C 25.007812 18.265625 25.105469 18.238281 25.199219 18.207031 C 25.1875 18.089844 25.175781 18.070312 25.082031 18.078125 " fill-opacity="1" fill-rule="nonzero"/><path fill="#ffffff" d="M 27.351562 19 C 27.363281 18.820312 27.371094 18.640625 27.382812 18.457031 C 27.484375 18.445312 27.570312 18.433594 27.65625 18.425781 C 27.710938 18.421875 27.753906 18.398438 27.75 18.34375 C 27.746094 18.3125 27.703125 18.285156 27.679688 18.257812 C 27.671875 18.25 27.660156 18.246094 27.648438 18.246094 C 27.421875 18.191406 27.1875 18.199219 26.957031 18.230469 C 26.898438 18.238281 26.855469 18.28125 26.867188 18.335938 C 26.875 18.371094 26.921875 18.410156 26.957031 18.425781 C 27.015625 18.445312 27.082031 18.445312 27.160156 18.457031 C 27.15625 18.496094 27.152344 18.527344 27.148438 18.558594 C 27.132812 18.761719 27.117188 18.96875 27.109375 19.175781 C 27.101562 19.261719 27.152344 19.320312 27.214844 19.316406 C 27.289062 19.316406 27.324219 19.265625 27.335938 19.199219 C 27.34375 19.132812 27.347656 19.066406 27.351562 19 " fill-opacity="1" fill-rule="nonzero"/><path fill="#ffffff" d="M 27.425781 19.761719 C 27.425781 19.839844 27.496094 19.910156 27.574219 19.910156 C 27.652344 19.910156 27.722656 19.839844 27.726562 19.765625 C 27.726562 19.683594 27.660156 19.613281 27.578125 19.613281 C 27.5 19.613281 27.429688 19.683594 27.425781 19.761719 " fill-opacity="1" fill-rule="nonzero"/><path fill="#ffffff" d="M 20.574219 21.328125 C 20.5 21.332031 20.441406 21.402344 20.445312 21.476562 C 20.453125 21.550781 20.519531 21.609375 20.59375 21.597656 C 20.664062 21.59375 20.71875 21.53125 20.71875 21.464844 C 20.714844 21.390625 20.644531 21.324219 20.574219 21.328125 " fill-opacity="1" fill-rule="nonzero"/><path fill="#ffffff" d="M 31.210938 21.339844 C 31.285156 21.34375 31.351562 21.277344 31.355469 21.207031 C 31.355469 21.132812 31.292969 21.070312 31.214844 21.070312 C 31.144531 21.070312 31.089844 21.125 31.085938 21.195312 C 31.078125 21.269531 31.136719 21.335938 31.210938 21.339844 " fill-opacity="1" fill-rule="nonzero"/><path fill="#ffffff" d="M 30.800781 18.726562 C 30.875 18.730469 30.9375 18.667969 30.9375 18.589844 C 30.9375 18.519531 30.878906 18.464844 30.8125 18.460938 C 30.738281 18.460938 30.675781 18.523438 30.675781 18.597656 C 30.675781 18.667969 30.734375 18.726562 30.800781 18.726562 " fill-opacity="1" fill-rule="nonzero"/><path fill="#ffffff" d="M 21.253906 18.746094 C 21.203125 18.734375 21.152344 18.796875 21.15625 18.855469 C 21.160156 18.914062 21.195312 18.949219 21.253906 18.949219 C 21.3125 18.953125 21.359375 18.898438 21.351562 18.8125 C 21.332031 18.796875 21.296875 18.757812 21.253906 18.746094 " fill-opacity="1" fill-rule="nonzero"/></svg>