<svg xmlns="http://www.w3.org/2000/svg" xmlns:xlink="http://www.w3.org/1999/xlink" width="70" zoomAndPan="magnify" viewBox="0 0 52.5 52.499999" height="70" preserveAspectRatio="xMidYMid meet" version="1.0"><defs><clipPath id="929288ec28"><path d="M 25 7 L 41.332031 7 L 41.332031 46 L 25 46 Z M 25 7 " clip-rule="nonzero"/></clipPath><clipPath id="d44b5a669c"><path d="M 10.875 11 L 27 11 L 27 49 L 10.875 49 Z M 10.875 11 " clip-rule="nonzero"/></clipPath><clipPath id="9494766656"><path d="M 22 2.308594 L 30 2.308594 L 30 10 L 22 10 Z M 22 2.308594 " clip-rule="nonzero"/></clipPath></defs><g clip-path="url(#929288ec28)"><path fill="#f4eadc" d="M 38.203125 42 C 37.730469 41.960938 37.148438 41.621094 36.988281 40.726562 L 34.984375 30.105469 C 35.648438 29.492188 36.632812 28.480469 37.226562 27.378906 C 37.542969 26.859375 37.71875 26.292969 37.726562 25.722656 C 37.726562 25.625 37.722656 25.527344 37.714844 25.429688 C 37.707031 25.367188 37.699219 25.304688 37.691406 25.242188 C 37.394531 23.484375 32.863281 9.355469 32.425781 7.988281 C 32.445312 7.960938 32.460938 7.945312 32.464844 7.9375 C 32.496094 7.898438 32.492188 7.839844 32.449219 7.808594 C 32.410156 7.773438 32.351562 7.78125 32.320312 7.820312 C 32.316406 7.824219 32.289062 7.859375 32.242188 7.914062 L 29.273438 8.589844 L 29.1875 8.609375 L 26.226562 9.28125 C 26.15625 9.25 26.117188 9.234375 26.113281 9.230469 C 26.066406 9.207031 26.011719 9.226562 25.988281 9.273438 C 25.96875 9.320312 25.988281 9.375 26.03125 9.398438 C 26.039062 9.402344 26.058594 9.410156 26.085938 9.421875 C 26.277344 10.828125 28.296875 25.546875 28.792969 27.265625 C 28.808594 27.324219 28.828125 27.382812 28.851562 27.441406 C 28.882812 27.535156 28.921875 27.625 28.96875 27.714844 C 29.21875 28.222656 29.621094 28.65625 30.132812 28.992188 C 31.148438 29.730469 32.488281 30.222656 33.351562 30.484375 L 36.128906 40.921875 C 36.320312 41.617188 36.121094 42.113281 35.824219 42.40625 C 34.652344 43.054688 32.703125 44.257812 32.773438 45.09375 L 41.65625 43.074219 C 41.390625 42.375 39.546875 42.105469 38.203125 42 Z M 38.203125 42 " fill-opacity="1" fill-rule="nonzero"/></g><g clip-path="url(#d44b5a669c)"><path fill="#f4eadc" d="M 26.539062 12.984375 C 26.519531 12.9375 26.464844 12.917969 26.417969 12.9375 C 26.414062 12.941406 26.375 12.960938 26.304688 12.988281 L 23.34375 12.316406 L 23.257812 12.296875 L 20.289062 11.621094 C 20.261719 11.589844 20.210938 11.53125 20.210938 11.53125 C 20.179688 11.488281 20.121094 11.484375 20.078125 11.515625 C 20.039062 11.546875 20.03125 11.605469 20.066406 11.644531 C 20.070312 11.652344 20.082031 11.667969 20.105469 11.695312 C 20.097656 11.726562 20.085938 11.761719 20.070312 11.804688 C 19.472656 13.671875 15.128906 27.230469 14.839844 28.953125 C 14.832031 29.011719 14.824219 29.074219 14.816406 29.136719 C 14.804688 29.234375 14.800781 29.332031 14.804688 29.429688 C 14.808594 30 14.988281 30.566406 15.304688 31.089844 C 15.898438 32.1875 16.882812 33.203125 17.546875 33.8125 L 15.539062 44.433594 C 15.382812 45.328125 14.800781 45.667969 14.328125 45.710938 C 12.980469 45.8125 11.136719 46.082031 10.875 46.78125 L 19.753906 48.800781 C 19.828125 47.964844 17.878906 46.761719 16.707031 46.117188 C 16.410156 45.820312 16.210938 45.324219 16.402344 44.628906 L 19.179688 34.195312 C 20.042969 33.929688 21.382812 33.4375 22.398438 32.699219 C 22.90625 32.363281 23.3125 31.929688 23.5625 31.421875 C 23.609375 31.332031 23.648438 31.242188 23.679688 31.148438 C 23.703125 31.089844 23.722656 31.03125 23.738281 30.972656 C 24.214844 29.328125 26.089844 15.726562 26.414062 13.371094 C 26.425781 13.269531 26.4375 13.1875 26.445312 13.132812 C 26.472656 13.117188 26.492188 13.109375 26.496094 13.105469 C 26.542969 13.085938 26.5625 13.027344 26.539062 12.984375 Z M 26.539062 12.984375 " fill-opacity="1" fill-rule="nonzero"/></g><path fill="#e5d1b3" d="M 23.171875 18.609375 C 21.449219 18.652344 19.074219 17.234375 18.875 17.113281 C 16.714844 23.953125 15.449219 28.179688 15.308594 29.03125 C 15.300781 29.078125 15.292969 29.128906 15.285156 29.191406 C 15.277344 29.265625 15.273438 29.34375 15.277344 29.433594 C 15.28125 29.90625 15.433594 30.402344 15.710938 30.863281 L 15.71875 30.875 L 15.722656 30.882812 C 16.277344 31.910156 17.199219 32.871094 17.878906 33.5 C 18.03125 33.640625 18.234375 33.746094 18.453125 33.796875 C 18.667969 33.847656 18.886719 33.839844 19.078125 33.777344 C 19.964844 33.503906 21.21875 33.039062 22.164062 32.347656 L 22.171875 32.339844 L 22.183594 32.335938 C 22.636719 32.039062 22.984375 31.65625 23.195312 31.226562 C 23.234375 31.152344 23.265625 31.078125 23.292969 31.003906 C 23.3125 30.953125 23.328125 30.902344 23.339844 30.855469 C 23.578125 30.03125 24.476562 24.242188 25.476562 17.15625 C 25.347656 17.40625 24.652344 18.570312 23.171875 18.609375 Z M 17.410156 27.476562 C 17.140625 27.476562 17.140625 27.054688 17.410156 27.054688 C 17.679688 27.054688 17.679688 27.476562 17.410156 27.476562 Z M 17.660156 26.53125 C 17.390625 26.53125 17.390625 26.113281 17.660156 26.113281 C 17.929688 26.113281 17.929688 26.53125 17.660156 26.53125 Z M 18.144531 24.476562 C 17.875 24.476562 17.875 24.058594 18.144531 24.058594 C 18.414062 24.058594 18.414062 24.476562 18.144531 24.476562 Z M 18.777344 30.402344 C 18.507812 30.402344 18.507812 29.984375 18.777344 29.984375 C 19.046875 29.984375 19.046875 30.402344 18.777344 30.402344 Z M 18.996094 29.636719 C 18.722656 29.636719 18.726562 29.21875 18.996094 29.21875 C 19.265625 29.21875 19.265625 29.636719 18.996094 29.636719 Z M 23.417969 22.433594 L 21.433594 31.277344 C 21.425781 31.320312 21.386719 31.347656 21.34375 31.347656 C 21.335938 31.347656 21.332031 31.347656 21.324219 31.347656 C 21.273438 31.335938 21.242188 31.285156 21.253906 31.234375 L 23.234375 22.394531 C 23.246094 22.34375 23.296875 22.3125 23.34375 22.324219 C 23.394531 22.332031 23.425781 22.382812 23.417969 22.433594 Z M 25.484375 17.105469 C 25.484375 17.109375 25.484375 17.109375 25.484375 17.109375 L 22.175781 17.109375 Z M 36.804688 27.175781 L 36.8125 27.167969 L 36.816406 27.15625 C 37.097656 26.695312 37.25 26.199219 37.253906 25.726562 C 37.253906 25.636719 37.253906 25.558594 37.242188 25.480469 C 37.238281 25.421875 37.230469 25.371094 37.222656 25.324219 C 37.082031 24.472656 35.816406 20.246094 33.652344 13.40625 C 33.453125 13.527344 31.078125 14.945312 29.359375 14.902344 C 27.878906 14.863281 27.183594 13.699219 27.050781 13.449219 C 28.054688 20.535156 28.949219 26.320312 29.1875 27.148438 C 29.203125 27.195312 29.21875 27.242188 29.238281 27.296875 C 29.265625 27.371094 29.296875 27.445312 29.332031 27.519531 C 29.542969 27.949219 29.894531 28.332031 30.347656 28.625 L 30.355469 28.632812 L 30.367188 28.640625 C 31.3125 29.328125 32.566406 29.796875 33.449219 30.066406 C 33.644531 30.132812 33.863281 30.136719 34.074219 30.089844 C 34.292969 30.039062 34.5 29.933594 34.648438 29.789062 C 35.332031 29.160156 36.253906 28.203125 36.804688 27.175781 Z M 29.511719 20.628906 C 29.238281 20.628906 29.238281 20.207031 29.511719 20.207031 C 29.78125 20.207031 29.78125 20.628906 29.511719 20.628906 Z M 29.976562 22.328125 C 30.246094 22.328125 30.246094 22.75 29.976562 22.75 C 29.707031 22.75 29.707031 22.328125 29.976562 22.328125 Z M 30.167969 23.738281 C 29.898438 23.738281 29.898438 23.316406 30.167969 23.316406 C 30.4375 23.316406 30.4375 23.738281 30.167969 23.738281 Z M 32.597656 24.621094 C 32.867188 24.621094 32.867188 25.042969 32.597656 25.042969 C 32.324219 25.042969 32.328125 24.621094 32.597656 24.621094 Z M 32.738281 25.851562 C 32.46875 25.851562 32.46875 25.429688 32.738281 25.429688 C 33.007812 25.429688 33.007812 25.851562 32.738281 25.851562 Z M 33.378906 16.417969 C 33.367188 16.367188 33.398438 16.316406 33.445312 16.304688 C 33.496094 16.292969 33.546875 16.324219 33.558594 16.375 L 35.671875 25.464844 C 35.683594 25.515625 35.652344 25.566406 35.601562 25.578125 C 35.597656 25.582031 35.589844 25.582031 35.582031 25.582031 C 35.539062 25.582031 35.5 25.550781 35.492188 25.507812 Z M 30.355469 13.398438 L 27.046875 13.402344 C 27.046875 13.402344 27.046875 13.398438 27.046875 13.398438 Z M 30.355469 13.398438 " fill-opacity="1" fill-rule="nonzero"/><path fill="#f7f7f7" d="M 22.175781 17.109375 L 25.503906 17.109375 C 25.503906 17.109375 25.492188 17.128906 25.476562 17.15625 C 25.347656 17.40625 24.652344 18.570312 23.171875 18.609375 C 21.449219 18.652344 19.074219 17.234375 18.875 17.113281 C 18.867188 17.109375 18.859375 17.105469 18.859375 17.105469 Z M 26.417969 12.9375 C 26.414062 12.941406 26.375 12.960938 26.304688 12.988281 C 25.886719 13.167969 24.359375 13.761719 23.035156 13.460938 C 21.710938 13.160156 20.589844 11.964844 20.289062 11.621094 C 20.242188 11.566406 20.210938 11.53125 20.210938 11.53125 C 20.179688 11.488281 20.121094 11.484375 20.078125 11.515625 C 20.039062 11.546875 20.03125 11.605469 20.066406 11.644531 C 20.070312 11.652344 20.085938 11.667969 20.105469 11.695312 C 20.339844 11.972656 21.527344 13.308594 22.992188 13.644531 C 23.273438 13.707031 23.558594 13.734375 23.839844 13.734375 C 25.046875 13.734375 26.1875 13.25 26.445312 13.132812 C 26.472656 13.117188 26.492188 13.109375 26.496094 13.105469 C 26.542969 13.085938 26.5625 13.027344 26.539062 12.984375 C 26.519531 12.9375 26.464844 12.917969 26.417969 12.9375 Z M 29.359375 14.902344 C 31.078125 14.945312 33.457031 13.527344 33.65625 13.40625 C 33.664062 13.402344 33.667969 13.398438 33.667969 13.398438 L 30.355469 13.398438 L 27.046875 13.402344 L 27.027344 13.402344 C 27.027344 13.402344 27.035156 13.421875 27.050781 13.449219 C 27.183594 13.699219 27.878906 14.863281 29.359375 14.902344 Z M 29.535156 9.933594 C 31.003906 9.601562 32.191406 8.265625 32.425781 7.988281 C 32.445312 7.960938 32.460938 7.945312 32.464844 7.9375 C 32.496094 7.898438 32.492188 7.839844 32.449219 7.808594 C 32.410156 7.773438 32.351562 7.78125 32.320312 7.820312 C 32.316406 7.824219 32.289062 7.859375 32.242188 7.914062 C 31.941406 8.257812 30.820312 9.453125 29.496094 9.753906 C 28.171875 10.054688 26.644531 9.460938 26.226562 9.28125 C 26.15625 9.25 26.117188 9.234375 26.113281 9.230469 C 26.066406 9.207031 26.011719 9.226562 25.988281 9.273438 C 25.96875 9.320312 25.988281 9.375 26.03125 9.398438 C 26.039062 9.402344 26.058594 9.410156 26.085938 9.421875 C 26.34375 9.539062 27.484375 10.023438 28.691406 10.023438 C 28.972656 10.023438 29.257812 10 29.535156 9.933594 Z M 29.535156 9.933594 " fill-opacity="1" fill-rule="nonzero"/><g clip-path="url(#9494766656)"><path fill="#f7f7f7" d="M 23.730469 8.121094 L 22.441406 7.878906 L 23.730469 7.636719 L 23.972656 6.347656 L 24.210938 7.636719 L 25.503906 7.878906 L 24.210938 8.121094 L 23.972656 9.410156 Z M 26.65625 7.128906 L 27.03125 5.113281 L 29.046875 4.738281 L 27.03125 4.359375 L 26.65625 2.34375 L 26.277344 4.359375 L 24.261719 4.738281 L 26.277344 5.113281 Z M 26.65625 7.128906 " fill-opacity="1" fill-rule="nonzero"/></g></svg>