<svg xmlns="http://www.w3.org/2000/svg" xmlns:xlink="http://www.w3.org/1999/xlink" width="70" zoomAndPan="magnify" viewBox="0 0 52.5 52.499999" height="70" preserveAspectRatio="xMidYMid meet" version="1.0"><defs><clipPath id="5830781282"><path d="M 2.601562 7 L 49.40625 7 L 49.40625 45 L 2.601562 45 Z M 2.601562 7 " clip-rule="nonzero"/></clipPath><clipPath id="5837bb1c10"><path d="M 34 46 L 36 46 L 36 49.550781 L 34 49.550781 Z M 34 46 " clip-rule="nonzero"/></clipPath><clipPath id="7d18884a27"><path d="M 13 2.746094 L 16 2.746094 L 16 6 L 13 6 Z M 13 2.746094 " clip-rule="nonzero"/></clipPath></defs><path fill="#081534" d="M 35.175781 27.519531 C 34.398438 25.011719 31.832031 23.515625 29.265625 24.078125 C 28.417969 24.265625 27.628906 24.667969 26.980469 25.25 L 25.898438 26.21875 C 25.664062 26.429688 25.328125 26.492188 25.035156 26.371094 L 23.683594 25.828125 C 22.875 25.507812 21.996094 25.398438 21.136719 25.511719 C 18.535156 25.859375 16.632812 28.144531 16.761719 30.765625 C 16.851562 32.625 17.675781 34.375 19.058594 35.617188 C 21.777344 38.0625 24.5625 40.078125 27.429688 41.574219 C 27.902344 41.824219 28.484375 41.71875 28.847656 41.324219 C 31.027344 38.9375 32.953125 36.089844 34.675781 32.863281 C 35.546875 31.222656 35.722656 29.296875 35.175781 27.519531 Z M 24.6875 37.230469 C 24.628906 37.351562 24.511719 37.417969 24.386719 37.417969 C 24.335938 37.417969 24.285156 37.410156 24.238281 37.386719 C 24.074219 37.304688 24.003906 37.105469 24.085938 36.9375 L 29.289062 26.261719 C 29.371094 26.09375 29.570312 26.023438 29.738281 26.105469 C 29.90625 26.1875 29.972656 26.386719 29.890625 26.554688 Z M 32.78125 28.375 L 29.304688 35.507812 C 29.246094 35.628906 29.125 35.699219 29 35.699219 C 28.953125 35.699219 28.902344 35.6875 28.855469 35.664062 C 28.6875 35.582031 28.617188 35.382812 28.699219 35.214844 L 32.175781 28.082031 C 32.257812 27.914062 32.457031 27.84375 32.625 27.925781 C 32.792969 28.007812 32.859375 28.207031 32.78125 28.375 Z M 32.78125 28.375 " fill-opacity="1" fill-rule="nonzero"/><path fill="#081534" d="M 26.230469 10.625 L 19.386719 11.832031 C 19.257812 11.855469 19.1875 12.011719 19.238281 12.160156 L 20.160156 14.894531 C 20.195312 15.007812 20.296875 15.078125 20.394531 15.0625 L 26.390625 14.003906 C 26.488281 13.988281 26.554688 13.886719 26.554688 13.769531 L 26.480469 10.882812 C 26.476562 10.726562 26.359375 10.601562 26.230469 10.625 Z M 26.230469 10.625 " fill-opacity="1" fill-rule="nonzero"/><g clip-path="url(#5830781282)"><path fill="#081534" d="M 49.304688 35.175781 L 45.902344 15.890625 C 45.6875 14.683594 44.53125 13.875 43.324219 14.085938 L 18.625 18.441406 L 15.898438 11.480469 C 15.765625 11.132812 15.789062 10.75 15.972656 10.425781 C 16.15625 10.097656 16.46875 9.875 16.835938 9.8125 L 27.933594 7.855469 C 28.335938 7.785156 28.707031 7.875 28.976562 8.109375 C 29.25 8.339844 29.394531 8.695312 29.382812 9.105469 L 29.242188 14.957031 C 29.238281 15.144531 29.386719 15.296875 29.570312 15.300781 C 29.574219 15.300781 29.578125 15.300781 29.578125 15.300781 C 29.761719 15.300781 29.910156 15.15625 29.914062 14.972656 L 30.054688 9.117188 C 30.070312 8.503906 29.84375 7.964844 29.414062 7.597656 C 28.988281 7.230469 28.421875 7.085938 27.816406 7.195312 L 16.722656 9.152344 C 16.15625 9.25 15.671875 9.59375 15.390625 10.09375 C 15.109375 10.597656 15.066406 11.191406 15.277344 11.726562 L 17.949219 18.558594 L 12.890625 19.453125 L 12.691406 18.328125 C 12.53125 17.417969 11.660156 16.808594 10.75 16.96875 L 6.960938 17.636719 C 6.050781 17.796875 5.441406 18.667969 5.601562 19.578125 L 5.800781 20.699219 L 4.503906 20.929688 C 3.917969 21.03125 3.410156 21.359375 3.070312 21.84375 C 2.726562 22.332031 2.597656 22.921875 2.699219 23.507812 L 6.101562 42.792969 C 6.292969 43.871094 7.234375 44.632812 8.292969 44.632812 C 8.421875 44.632812 8.550781 44.621094 8.679688 44.597656 L 17.039062 43.125 C 17.222656 43.089844 17.34375 42.917969 17.3125 42.734375 C 17.277344 42.554688 17.105469 42.429688 16.921875 42.464844 L 8.5625 43.9375 C 7.71875 44.085938 6.910156 43.519531 6.761719 42.675781 L 4.320312 28.8125 L 11.296875 27.582031 C 11.480469 27.550781 11.601562 27.375 11.570312 27.195312 C 11.535156 27.011719 11.363281 26.890625 11.179688 26.921875 L 4.203125 28.152344 L 3.363281 23.390625 C 3.292969 22.984375 3.382812 22.570312 3.621094 22.230469 C 3.859375 21.890625 4.214844 21.664062 4.625 21.589844 L 43.441406 14.746094 C 44.285156 14.597656 45.09375 15.164062 45.242188 16.007812 L 46.082031 20.769531 L 39.074219 22.003906 C 38.894531 22.039062 38.769531 22.210938 38.800781 22.394531 C 38.832031 22.554688 38.972656 22.671875 39.132812 22.671875 C 39.152344 22.671875 39.171875 22.667969 39.191406 22.664062 L 46.199219 21.429688 L 48.644531 35.292969 C 48.714844 35.699219 48.625 36.113281 48.386719 36.453125 C 48.148438 36.792969 47.792969 37.019531 47.382812 37.09375 L 36.75 38.964844 C 38.257812 36.8125 39.046875 34.242188 39 31.5625 C 38.882812 24.703125 33.269531 19.207031 26.433594 19.207031 C 26.363281 19.207031 26.289062 19.207031 26.21875 19.207031 C 22.859375 19.265625 19.726562 20.625 17.390625 23.042969 C 15.058594 25.457031 13.804688 28.636719 13.863281 31.992188 C 13.980469 38.851562 19.597656 44.351562 26.429688 44.351562 C 26.503906 44.351562 26.574219 44.347656 26.648438 44.347656 C 30.007812 44.292969 33.140625 42.929688 35.472656 40.515625 C 35.710938 40.269531 35.9375 40.015625 36.152344 39.753906 L 47.5 37.75 C 48.082031 37.648438 48.59375 37.324219 48.933594 36.835938 C 49.277344 36.351562 49.40625 35.761719 49.304688 35.175781 Z M 6.460938 20.585938 L 6.265625 19.460938 C 6.167969 18.914062 6.535156 18.390625 7.082031 18.296875 L 10.867188 17.628906 C 11.414062 17.53125 11.9375 17.898438 12.035156 18.445312 L 12.230469 19.570312 Z M 34.992188 40.050781 C 32.78125 42.335938 29.816406 43.625 26.636719 43.679688 C 26.566406 43.679688 26.5 43.679688 26.429688 43.679688 C 19.960938 43.679688 14.644531 38.476562 14.535156 31.984375 C 14.480469 28.804688 15.664062 25.796875 17.875 23.507812 C 20.082031 21.222656 23.050781 19.933594 26.226562 19.878906 C 26.296875 19.878906 26.367188 19.875 26.433594 19.875 C 32.902344 19.875 38.21875 25.082031 38.332031 31.574219 C 38.386719 34.753906 37.199219 37.761719 34.992188 40.050781 Z M 34.992188 40.050781 " fill-opacity="1" fill-rule="nonzero"/></g><path fill="#081534" d="M 43.648438 43.585938 L 41.359375 42.585938 C 41.191406 42.511719 40.996094 42.585938 40.917969 42.757812 C 40.84375 42.925781 40.921875 43.125 41.09375 43.199219 L 43.378906 44.199219 C 43.421875 44.21875 43.46875 44.226562 43.511719 44.226562 C 43.640625 44.226562 43.765625 44.152344 43.820312 44.027344 C 43.894531 43.855469 43.816406 43.660156 43.648438 43.585938 Z M 43.648438 43.585938 " fill-opacity="1" fill-rule="nonzero"/><g clip-path="url(#5837bb1c10)"><path fill="#081534" d="M 35.289062 46.394531 C 35.242188 46.214844 35.0625 46.105469 34.882812 46.148438 C 34.699219 46.195312 34.589844 46.375 34.636719 46.554688 L 35.234375 48.980469 C 35.273438 49.132812 35.410156 49.234375 35.5625 49.234375 C 35.585938 49.234375 35.613281 49.230469 35.640625 49.222656 C 35.820312 49.179688 35.929688 49 35.886719 48.816406 Z M 35.289062 46.394531 " fill-opacity="1" fill-rule="nonzero"/></g><path fill="#081534" d="M 6.714844 9.164062 L 9.082031 9.953125 C 9.117188 9.964844 9.152344 9.972656 9.191406 9.972656 C 9.328125 9.972656 9.460938 9.882812 9.507812 9.742188 C 9.566406 9.566406 9.472656 9.375 9.296875 9.316406 L 6.929688 8.527344 C 6.753906 8.46875 6.5625 8.5625 6.503906 8.738281 C 6.445312 8.914062 6.539062 9.105469 6.714844 9.164062 Z M 6.714844 9.164062 " fill-opacity="1" fill-rule="nonzero"/><g clip-path="url(#7d18884a27)"><path fill="#081534" d="M 14.789062 5.613281 C 14.839844 5.75 14.96875 5.839844 15.105469 5.839844 C 15.144531 5.839844 15.179688 5.832031 15.214844 5.820312 C 15.390625 5.761719 15.484375 5.570312 15.421875 5.394531 L 14.609375 3.035156 C 14.546875 2.859375 14.355469 2.765625 14.179688 2.828125 C 14.007812 2.890625 13.914062 3.078125 13.972656 3.253906 Z M 14.789062 5.613281 " fill-opacity="1" fill-rule="nonzero"/></g></svg>