<svg xmlns="http://www.w3.org/2000/svg" xmlns:xlink="http://www.w3.org/1999/xlink" width="200" zoomAndPan="magnify" viewBox="0 0 150 30.000001" height="40" preserveAspectRatio="xMidYMid meet" version="1.0"><defs><clipPath id="9ee1fae632"><path d="M 145 27 L 147.472656 27 L 147.472656 29 L 145 29 Z M 145 27 " clip-rule="nonzero"/></clipPath><clipPath id="dde8a94efa"><path d="M 121.445312 6 L 123 6 L 123 8 L 121.445312 8 Z M 121.445312 6 " clip-rule="nonzero"/></clipPath><clipPath id="d6944b166a"><path d="M 121.445312 3 L 123 3 L 123 5 L 121.445312 5 Z M 121.445312 3 " clip-rule="nonzero"/></clipPath></defs><path fill="#4287cf" d="M 144.464844 25.445312 C 144.703125 25.335938 144.984375 25.394531 145.214844 25.480469 C 145.199219 25.46875 145.199219 25.445312 145.179688 25.441406 C 145.164062 25.433594 145.160156 25.414062 145.140625 25.421875 C 144.980469 25.425781 144.828125 25.332031 144.703125 25.25 C 144.789062 25.269531 144.890625 25.398438 145.078125 25.414062 C 145.109375 25.414062 145.148438 25.429688 145.167969 25.394531 C 145.207031 25.386719 145.199219 25.34375 145.207031 25.3125 C 145.21875 25.167969 145.183594 25.046875 145.125 24.921875 C 145.121094 24.914062 145.128906 24.90625 145.132812 24.90625 C 145.183594 25.050781 145.242188 25.21875 145.199219 25.375 C 145.1875 25.394531 145.203125 25.402344 145.207031 25.417969 C 145.207031 25.4375 145.230469 25.445312 145.238281 25.464844 C 145.210938 25.21875 145.214844 24.929688 145.378906 24.722656 C 145.585938 24.394531 145.769531 24.65625 145.695312 24.933594 C 145.691406 24.941406 145.695312 24.945312 145.703125 24.941406 C 145.761719 24.925781 145.8125 24.964844 145.828125 25.023438 C 145.832031 25.292969 145.511719 25.414062 145.339844 25.574219 C 145.332031 25.59375 145.382812 25.539062 145.390625 25.539062 C 146.308594 24.683594 146.203125 26.507812 145.394531 25.664062 C 145.46875 25.765625 145.582031 25.851562 145.621094 25.972656 C 145.511719 25.910156 145.457031 25.773438 145.375 25.679688 C 146.007812 26.664062 144.210938 26.339844 145.253906 25.648438 C 145.261719 25.640625 145.320312 25.601562 145.300781 25.605469 C 145.105469 25.730469 144.890625 26.050781 144.632812 25.941406 C 144.59375 25.90625 144.578125 25.863281 144.605469 25.8125 C 144.609375 25.808594 144.605469 25.804688 144.597656 25.804688 C 144.3125 25.8125 144.101562 25.574219 144.464844 25.445312 " fill-opacity="1" fill-rule="nonzero"/><g clip-path="url(#9ee1fae632)"><path fill="#4287cf" d="M 145.757812 28.023438 C 145.992188 27.855469 146.316406 27.929688 146.550781 28.046875 C 146.539062 28.035156 146.539062 28.015625 146.523438 28.007812 C 146.511719 28 146.507812 27.984375 146.488281 27.988281 C 146.347656 27.980469 146.222656 27.886719 146.121094 27.804688 C 146.207031 27.835938 146.277344 27.949219 146.4375 27.976562 C 146.460938 27.980469 146.5 27.996094 146.515625 27.96875 C 146.550781 27.964844 146.546875 27.921875 146.554688 27.898438 C 146.59375 27.738281 146.519531 27.628906 146.523438 27.539062 C 146.558594 27.667969 146.59375 27.820312 146.546875 27.953125 C 146.535156 27.96875 146.546875 27.976562 146.546875 27.992188 C 146.546875 28.007812 146.566406 28.015625 146.570312 28.03125 C 146.566406 27.816406 146.59375 27.5625 146.753906 27.394531 C 146.960938 27.125 147.101562 27.367188 147.011719 27.605469 C 147.011719 27.613281 147.015625 27.613281 147.019531 27.613281 C 147.066406 27.605469 147.097656 27.628906 147.117188 27.671875 C 147.136719 27.921875 146.8125 28.011719 146.652344 28.136719 C 146.644531 28.152344 146.695312 28.113281 146.703125 28.109375 C 147.566406 27.433594 147.335938 29.023438 146.691406 28.21875 C 146.75 28.316406 146.84375 28.398438 146.867188 28.507812 C 146.777344 28.445312 146.738281 28.320312 146.671875 28.230469 C 146.761719 28.398438 146.855469 28.6875 146.605469 28.757812 C 146.523438 28.789062 146.441406 28.757812 146.367188 28.71875 C 146.277344 28.679688 146.210938 28.582031 146.257812 28.484375 C 146.308594 28.328125 146.519531 28.253906 146.617188 28.164062 C 146.4375 28.261719 146.246094 28.496094 146.019531 28.417969 C 145.980469 28.386719 145.960938 28.332031 145.992188 28.289062 C 145.996094 28.285156 145.992188 28.28125 145.988281 28.28125 C 145.875 28.269531 145.734375 28.226562 145.710938 28.105469 C 145.703125 28.070312 145.734375 28.042969 145.757812 28.023438 " fill-opacity="1" fill-rule="nonzero"/></g><path fill="#4287cf" d="M 144.113281 21.78125 C 144.589844 21.628906 145.085938 21.925781 145.414062 22.242188 C 145.398438 22.214844 145.410156 22.183594 145.386719 22.164062 C 145.367188 22.144531 145.375 22.121094 145.339844 22.117188 C 145.113281 22.023438 144.960938 21.804688 144.832031 21.613281 C 144.835938 21.605469 144.851562 21.605469 144.855469 21.617188 C 144.957031 21.800781 145.070312 21.949219 145.261719 22.066406 C 145.304688 22.085938 145.347656 22.132812 145.394531 22.09375 C 145.457031 22.105469 145.46875 22.042969 145.496094 22.003906 C 145.597656 21.804688 145.621094 21.617188 145.617188 21.410156 C 145.617188 21.394531 145.628906 21.386719 145.636719 21.390625 C 145.625 21.621094 145.601562 21.890625 145.453125 22.085938 C 145.425781 22.105469 145.445312 22.125 145.4375 22.148438 C 145.429688 22.179688 145.453125 22.199219 145.453125 22.230469 C 145.574219 21.789062 145.851562 21.285156 146.339844 21.171875 C 146.675781 21.121094 146.546875 21.609375 146.402344 21.765625 C 146.398438 21.773438 146.402344 21.777344 146.410156 21.78125 C 146.503906 21.789062 146.550781 21.878906 146.542969 21.964844 C 146.386719 22.347656 145.863281 22.328125 145.53125 22.449219 C 145.519531 22.449219 145.519531 22.457031 145.53125 22.453125 C 145.5625 22.449219 145.59375 22.433594 145.625 22.425781 C 145.917969 22.371094 146.320312 22.175781 146.527344 22.492188 C 146.597656 22.699219 146.507812 23.003906 146.3125 23.121094 C 145.9375 23.363281 145.667969 22.910156 145.554688 22.601562 C 145.59375 22.789062 145.707031 22.984375 145.6875 23.175781 C 145.574219 23.019531 145.574219 22.796875 145.515625 22.613281 C 145.765625 24.023438 144.300781 23.328125 144.695312 22.804688 C 144.867188 22.574219 145.25 22.566406 145.457031 22.46875 C 145.109375 22.535156 144.667969 22.816406 144.34375 22.570312 C 144.289062 22.5 144.285156 22.402344 144.359375 22.34375 C 144.367188 22.339844 144.367188 22.332031 144.359375 22.328125 C 144.160156 22.265625 143.796875 21.914062 144.113281 21.78125 " fill-opacity="1" fill-rule="nonzero"/><path fill="#4287cf" d="M 138.820312 18.097656 C 139.121094 17.945312 139.480469 18.011719 139.78125 18.109375 C 139.757812 18.09375 139.757812 18.066406 139.734375 18.058594 C 139.710938 18.050781 139.707031 18.03125 139.679688 18.039062 C 139.476562 18.050781 139.28125 17.9375 139.117188 17.835938 C 139.117188 17.832031 139.128906 17.824219 139.136719 17.832031 C 139.277344 17.933594 139.417969 18.007812 139.605469 18.03125 C 139.640625 18.03125 139.691406 18.050781 139.714844 18.003906 C 139.765625 17.992188 139.753906 17.9375 139.757812 17.898438 C 139.769531 17.710938 139.71875 17.5625 139.640625 17.40625 C 139.636719 17.394531 139.640625 17.382812 139.648438 17.382812 C 139.722656 17.5625 139.800781 17.777344 139.753906 17.976562 C 139.742188 18 139.761719 18.007812 139.765625 18.03125 C 139.769531 18.054688 139.796875 18.0625 139.808594 18.085938 C 139.761719 17.777344 139.757812 17.40625 139.957031 17.136719 C 140.203125 16.710938 140.449219 17.035156 140.363281 17.394531 C 140.363281 17.402344 140.367188 17.40625 140.375 17.402344 C 140.449219 17.378906 140.515625 17.429688 140.539062 17.5 C 140.554688 17.84375 140.152344 18.011719 139.941406 18.222656 C 139.929688 18.25 140 18.179688 140.007812 18.175781 C 141.140625 17.046875 141.078125 19.375 140.015625 18.332031 C 140.109375 18.460938 140.265625 18.566406 140.320312 18.71875 C 140.175781 18.640625 140.097656 18.472656 139.988281 18.355469 C 140.835938 19.578125 138.539062 19.257812 139.832031 18.320312 C 139.84375 18.308594 139.917969 18.257812 139.894531 18.265625 C 139.65625 18.429688 139.382812 18.855469 139.058594 18.722656 C 139.007812 18.679688 138.984375 18.621094 139.015625 18.558594 C 139.019531 18.554688 139.015625 18.546875 139.007812 18.546875 C 138.640625 18.574219 138.363281 18.277344 138.820312 18.097656 " fill-opacity="1" fill-rule="nonzero"/><path fill="#4287cf" d="M 140.285156 22.058594 C 140.679688 21.773438 141.214844 21.785156 141.667969 21.859375 C 141.632812 21.839844 141.621094 21.800781 141.589844 21.796875 C 141.554688 21.789062 141.546875 21.761719 141.507812 21.777344 C 141.214844 21.84375 140.910156 21.722656 140.648438 21.617188 C 140.648438 21.605469 140.664062 21.597656 140.679688 21.605469 C 140.90625 21.71875 141.121094 21.792969 141.394531 21.785156 C 141.453125 21.773438 141.523438 21.796875 141.546875 21.71875 C 141.621094 21.683594 141.585938 21.621094 141.589844 21.558594 C 141.558594 21.285156 141.453125 21.082031 141.308594 20.875 C 141.300781 20.859375 141.304688 20.84375 141.316406 20.84375 C 141.460938 21.085938 141.621094 21.371094 141.601562 21.671875 C 141.585938 21.714844 141.617188 21.714844 141.628906 21.75 C 141.640625 21.78125 141.679688 21.789062 141.699219 21.820312 C 141.523438 21.285156 141.460938 20.585938 141.878906 20.136719 C 141.929688 20.09375 141.992188 20.039062 142.0625 20.066406 C 142.3125 20.148438 142.355469 20.460938 142.347656 20.695312 C 142.347656 20.707031 142.355469 20.710938 142.367188 20.707031 C 142.46875 20.652344 142.574219 20.710938 142.625 20.808594 C 142.722656 21.300781 142.183594 21.636719 141.925781 21.988281 C 141.910156 22.027344 142 21.90625 142.007812 21.898438 C 142.265625 21.644531 142.542969 21.167969 142.964844 21.347656 C 143.179688 21.503906 143.296875 21.890625 143.175781 22.132812 C 142.957031 22.636719 142.378906 22.363281 142.054688 22.128906 C 142.222656 22.289062 142.46875 22.40625 142.582031 22.617188 C 142.359375 22.535156 142.207031 22.308594 142.023438 22.164062 C 142.300781 22.453125 142.65625 22.988281 142.191406 23.277344 C 141.96875 23.433594 141.570312 23.371094 141.386719 23.183594 C 141.148438 22.785156 141.578125 22.445312 141.792969 22.152344 C 141.816406 22.117188 141.851562 22.09375 141.871094 22.0625 C 141.878906 22.050781 141.875 22.046875 141.867188 22.058594 C 141.578125 22.335938 141.234375 23.039062 140.765625 22.90625 C 140.679688 22.855469 140.636719 22.777344 140.667969 22.679688 C 140.671875 22.667969 140.667969 22.664062 140.652344 22.664062 C 140.128906 22.78125 139.664062 22.425781 140.285156 22.058594 " fill-opacity="1" fill-rule="nonzero"/><path fill="#4287cf" d="M 134.875 19.894531 C 135.195312 19.484375 135.738281 19.335938 136.21875 19.273438 C 136.179688 19.265625 136.15625 19.230469 136.121094 19.234375 C 136.082031 19.242188 136.066406 19.210938 136.03125 19.242188 C 135.757812 19.394531 135.410156 19.363281 135.117188 19.335938 C 135.113281 19.324219 135.125 19.308594 135.140625 19.3125 C 135.40625 19.363281 135.648438 19.371094 135.921875 19.28125 C 135.949219 19.265625 136.019531 19.25 136.042969 19.222656 C 136.054688 19.210938 136.046875 19.183594 136.054688 19.167969 C 136.058594 19.152344 136.085938 19.144531 136.085938 19.128906 C 136.09375 19.089844 136.058594 19.023438 136.050781 18.996094 C 135.941406 18.726562 135.773438 18.550781 135.5625 18.386719 C 135.550781 18.375 135.550781 18.355469 135.5625 18.351562 C 135.78125 18.554688 136.027344 18.796875 136.09375 19.105469 C 136.09375 19.152344 136.128906 19.144531 136.148438 19.175781 C 136.167969 19.207031 136.210938 19.199219 136.242188 19.226562 C 135.902344 18.734375 135.632812 18.046875 135.925781 17.46875 C 135.960938 17.410156 136.007812 17.332031 136.085938 17.339844 C 136.367188 17.351562 136.503906 17.652344 136.566406 17.894531 C 136.566406 17.90625 136.578125 17.90625 136.585938 17.898438 C 136.675781 17.8125 136.796875 17.839844 136.878906 17.921875 C 137.125 18.390625 136.675781 18.894531 136.519531 19.328125 C 136.515625 19.339844 136.519531 19.34375 136.527344 19.332031 C 136.546875 19.296875 136.554688 19.25 136.578125 19.214844 C 136.761719 18.878906 136.902344 18.316406 137.382812 18.371094 C 137.644531 18.464844 137.878906 18.820312 137.828125 19.105469 C 137.757812 19.679688 137.089844 19.574219 136.691406 19.433594 C 136.910156 19.546875 137.195312 19.59375 137.367188 19.769531 C 137.121094 19.753906 136.898438 19.570312 136.667969 19.480469 C 137.039062 19.6875 137.554688 20.125 137.167969 20.554688 C 136.992188 20.777344 136.570312 20.835938 136.328125 20.699219 C 135.96875 20.371094 136.300781 19.894531 136.433594 19.535156 C 136.445312 19.496094 136.472656 19.457031 136.484375 19.417969 C 136.488281 19.40625 136.484375 19.40625 136.480469 19.417969 C 136.273438 19.785156 136.128906 20.597656 135.613281 20.605469 C 135.511719 20.578125 135.445312 20.515625 135.449219 20.40625 C 135.449219 20.394531 135.441406 20.390625 135.429688 20.394531 C 134.933594 20.667969 134.355469 20.449219 134.875 19.894531 " fill-opacity="1" fill-rule="nonzero"/><path fill="#4287cf" d="M 142.90625 19.417969 C 142.582031 19.304688 142.34375 18.808594 142.417969 18.480469 C 142.667969 17.9375 143.347656 18.148438 143.816406 18.167969 C 143.867188 18.167969 143.921875 18.1875 143.972656 18.1875 C 143.988281 18.1875 143.988281 18.179688 143.972656 18.175781 C 143.433594 18.070312 142.585938 18.214844 142.269531 17.664062 C 142.230469 17.527344 142.285156 17.378906 142.429688 17.339844 C 142.441406 17.335938 142.445312 17.324219 142.4375 17.3125 C 142.222656 17.09375 141.992188 16.757812 142.160156 16.457031 C 142.203125 16.367188 142.3125 16.367188 142.398438 16.363281 C 143.191406 16.425781 143.742188 17.148438 144.042969 17.816406 C 144.035156 17.769531 144.070312 17.726562 144.046875 17.6875 C 144.027344 17.644531 144.058594 17.617188 144.007812 17.585938 C 143.726562 17.316406 143.628906 16.902344 143.554688 16.539062 C 143.566406 16.535156 143.585938 16.542969 143.589844 16.5625 C 143.632812 16.894531 143.710938 17.183594 143.921875 17.46875 C 143.949219 17.496094 143.992188 17.574219 144.035156 17.589844 C 144.054688 17.597656 144.082031 17.578125 144.101562 17.585938 C 144.121094 17.585938 144.144531 17.609375 144.164062 17.605469 C 144.210938 17.597656 144.273438 17.53125 144.304688 17.515625 C 144.574219 17.28125 144.714844 17.019531 144.832031 16.710938 C 144.839844 16.691406 144.863281 16.683594 144.871094 16.695312 C 144.714844 17.027344 144.527344 17.410156 144.191406 17.609375 C 144.132812 17.625 144.15625 17.660156 144.128906 17.695312 C 144.101562 17.730469 144.125 17.777344 144.105469 17.824219 C 144.550781 17.242188 145.253906 16.664062 146.039062 16.789062 C 146.121094 16.8125 146.226562 16.835938 146.25 16.933594 C 146.34375 17.261719 146.039062 17.539062 145.785156 17.703125 C 145.769531 17.710938 145.773438 17.722656 145.785156 17.730469 C 145.917969 17.800781 145.933594 17.957031 145.867188 18.082031 C 145.421875 18.546875 144.648438 18.210938 144.089844 18.191406 C 144.035156 18.203125 144.230469 18.210938 144.246094 18.214844 C 144.707031 18.308594 145.417969 18.257812 145.535156 18.84375 C 145.53125 19.179688 145.1875 19.605469 144.847656 19.644531 C 144.148438 19.78125 144.019531 18.953125 144.035156 18.433594 C 143.984375 18.734375 144.039062 19.082031 143.894531 19.355469 C 143.820312 19.058594 143.953125 18.730469 143.972656 18.425781 C 143.867188 18.9375 143.554688 19.710938 142.90625 19.417969 " fill-opacity="1" fill-rule="nonzero"/><path fill="#4287cf" d="M 133.40625 13.421875 C 134.140625 12.894531 135.121094 12.921875 135.957031 13.054688 C 135.894531 13.027344 135.875 12.953125 135.8125 12.945312 C 135.777344 12.945312 135.761719 12.917969 135.738281 12.90625 C 135.722656 12.894531 135.683594 12.902344 135.664062 12.910156 C 135.140625 13.035156 134.636719 12.804688 134.148438 12.644531 C 134.128906 12.640625 134.082031 12.628906 134.082031 12.609375 C 134.085938 12.589844 134.113281 12.570312 134.140625 12.585938 C 134.554688 12.796875 134.953125 12.9375 135.457031 12.921875 C 135.507812 12.910156 135.636719 12.917969 135.691406 12.882812 C 135.714844 12.867188 135.714844 12.820312 135.734375 12.800781 C 135.75 12.777344 135.796875 12.769531 135.8125 12.746094 C 135.835938 12.6875 135.8125 12.558594 135.816406 12.507812 C 135.761719 12.003906 135.570312 11.628906 135.300781 11.242188 C 135.285156 11.21875 135.296875 11.1875 135.316406 11.1875 C 135.335938 11.183594 135.351562 11.226562 135.363281 11.246094 C 135.589844 11.707031 135.882812 12.175781 135.832031 12.714844 C 135.828125 12.734375 135.824219 12.773438 135.839844 12.789062 C 135.855469 12.808594 135.882812 12.824219 135.886719 12.855469 C 135.90625 12.917969 135.980469 12.929688 136.019531 12.988281 C 135.910156 12.558594 135.746094 12.046875 135.765625 11.578125 C 135.769531 10.984375 135.9375 10.328125 136.359375 9.890625 C 136.449219 9.8125 136.566406 9.710938 136.691406 9.761719 C 137.152344 9.917969 137.234375 10.488281 137.21875 10.921875 C 137.21875 10.945312 137.230469 10.953125 137.253906 10.941406 C 137.441406 10.84375 137.632812 10.949219 137.726562 11.128906 C 137.941406 11.957031 136.878906 12.703125 136.433594 13.296875 C 136.417969 13.3125 136.421875 13.320312 136.441406 13.308594 C 136.492188 13.257812 136.53125 13.1875 136.585938 13.136719 C 137.058594 12.671875 137.570312 11.792969 138.347656 12.128906 C 138.730469 12.386719 138.957031 13.160156 138.730469 13.574219 C 138.328125 14.5 137.261719 13.992188 136.667969 13.554688 C 136.976562 13.855469 137.429688 14.074219 137.632812 14.457031 C 137.226562 14.308594 136.949219 13.890625 136.609375 13.625 C 137.121094 14.152344 137.773438 15.144531 136.914062 15.671875 C 136.539062 15.957031 135.738281 15.832031 135.433594 15.492188 C 134.996094 14.765625 135.789062 14.136719 136.183594 13.597656 C 136.226562 13.539062 136.292969 13.488281 136.332031 13.433594 C 136.34375 13.414062 136.335938 13.410156 136.320312 13.425781 C 135.832031 13.910156 135.09375 15.257812 134.289062 14.980469 C 134.132812 14.882812 134.054688 14.746094 134.113281 14.566406 C 134.121094 14.542969 134.109375 14.53125 134.085938 14.535156 C 133.117188 14.742188 132.261719 14.101562 133.40625 13.421875 " fill-opacity="1" fill-rule="nonzero"/><path fill="#4287cf" d="M 142.085938 13.585938 C 142.191406 13.597656 142.238281 13.695312 142.226562 13.792969 C 142.042969 14.207031 141.46875 14.171875 141.097656 14.292969 C 141.089844 14.296875 141.089844 14.300781 141.097656 14.300781 C 141.132812 14.296875 141.167969 14.277344 141.203125 14.273438 C 141.523438 14.21875 141.976562 14.015625 142.191406 14.371094 C 142.265625 14.601562 142.15625 14.9375 141.9375 15.054688 C 141.519531 15.3125 141.234375 14.804688 141.121094 14.464844 C 141.160156 14.671875 141.277344 14.886719 141.253906 15.097656 C 141.132812 14.921875 141.136719 14.675781 141.078125 14.476562 C 141.132812 14.832031 141.117188 15.410156 140.625 15.378906 C 140.375 15.375 140.125 15.128906 140.082031 14.890625 C 140.113281 14.472656 140.605469 14.449219 140.914062 14.34375 C 140.949219 14.332031 140.988281 14.332031 141.019531 14.320312 C 141.03125 14.316406 141.027344 14.3125 141.019531 14.3125 C 140.65625 14.371094 140.054688 14.707031 139.769531 14.359375 C 139.734375 14.277344 139.742188 14.199219 139.816406 14.144531 C 139.824219 14.136719 139.824219 14.128906 139.8125 14.125 C 139.585938 14.046875 139.214844 13.648438 139.558594 13.519531 C 140.089844 13.367188 140.625 13.703125 140.976562 14.0625 C 140.960938 14.035156 140.972656 14 140.949219 13.976562 C 140.929688 13.957031 140.9375 13.929688 140.898438 13.921875 C 140.652344 13.816406 140.488281 13.570312 140.355469 13.355469 C 140.359375 13.347656 140.375 13.347656 140.382812 13.359375 C 140.488281 13.5625 140.609375 13.730469 140.8125 13.867188 C 140.863281 13.890625 140.902344 13.945312 140.960938 13.898438 C 141.027344 13.914062 141.042969 13.84375 141.074219 13.804688 C 141.191406 13.589844 141.222656 13.382812 141.222656 13.152344 C 141.222656 13.140625 141.238281 13.132812 141.246094 13.136719 C 141.222656 13.390625 141.195312 13.683594 141.023438 13.890625 C 140.992188 13.914062 141.011719 13.933594 141.003906 13.964844 C 140.992188 13.992188 141.019531 14.019531 141.019531 14.054688 C 141.148438 13.660156 141.355469 13.222656 141.75 13.023438 C 142.296875 12.671875 142.386719 13.191406 142.078125 13.566406 C 142.074219 13.578125 142.078125 13.582031 142.085938 13.585938 " fill-opacity="1" fill-rule="nonzero"/><path fill="#4287cf" d="M 128.625 16.140625 C 129.132812 15.769531 129.816406 15.78125 130.402344 15.875 C 130.359375 15.851562 130.34375 15.800781 130.296875 15.796875 C 130.253906 15.789062 130.25 15.75 130.195312 15.773438 C 129.820312 15.855469 129.429688 15.707031 129.09375 15.570312 C 129.09375 15.554688 129.113281 15.542969 129.132812 15.550781 C 129.421875 15.699219 129.703125 15.792969 130.050781 15.78125 C 130.085938 15.773438 130.175781 15.777344 130.214844 15.753906 C 130.230469 15.742188 130.230469 15.710938 130.246094 15.695312 C 130.257812 15.679688 130.289062 15.675781 130.296875 15.65625 C 130.316406 15.617188 130.296875 15.527344 130.300781 15.492188 C 130.261719 15.140625 130.125 14.878906 129.9375 14.613281 C 129.925781 14.59375 129.933594 14.574219 129.945312 14.570312 C 130.132812 14.882812 130.339844 15.25 130.3125 15.636719 C 130.296875 15.691406 130.339844 15.691406 130.351562 15.734375 C 130.363281 15.777344 130.417969 15.785156 130.445312 15.824219 C 130.214844 15.136719 130.132812 14.242188 130.667969 13.664062 C 130.730469 13.609375 130.8125 13.539062 130.902344 13.574219 C 131.222656 13.679688 131.28125 14.078125 131.273438 14.378906 C 131.273438 14.394531 131.28125 14.402344 131.296875 14.394531 C 131.425781 14.324219 131.5625 14.398438 131.628906 14.523438 C 131.765625 15.136719 131.054688 15.597656 130.734375 16.039062 C 130.714844 16.09375 130.828125 15.933594 130.839844 15.929688 C 131.167969 15.601562 131.519531 14.988281 132.066406 15.214844 C 132.335938 15.40625 132.492188 15.921875 132.335938 16.222656 C 132.0625 16.871094 131.316406 16.519531 130.898438 16.21875 C 131.117188 16.425781 131.429688 16.578125 131.578125 16.84375 C 131.292969 16.742188 131.097656 16.453125 130.859375 16.265625 C 131.21875 16.632812 131.675781 17.320312 131.078125 17.691406 C 130.800781 17.894531 130.277344 17.816406 130.046875 17.574219 C 129.738281 17.070312 130.289062 16.625 130.5625 16.25 C 130.589844 16.207031 130.636719 16.175781 130.664062 16.132812 C 130.671875 16.121094 130.667969 16.117188 130.65625 16.128906 C 130.304688 16.480469 129.832031 17.402344 129.246094 17.222656 C 129.136719 17.15625 129.082031 17.058594 129.121094 16.933594 C 129.125 16.917969 129.117188 16.910156 129.105469 16.914062 C 128.429688 17.066406 127.828125 16.613281 128.625 16.140625 " fill-opacity="1" fill-rule="nonzero"/><path fill="#4287cf" d="M 132.007812 10.484375 C 131.835938 10.3125 131.804688 10.046875 132.003906 9.878906 C 132.234375 9.652344 132.59375 9.667969 132.886719 9.570312 C 132.914062 9.566406 132.945312 9.566406 132.96875 9.554688 C 132.5625 9.578125 131.929688 9.9375 131.542969 9.585938 C 131.480469 9.492188 131.484375 9.367188 131.585938 9.300781 C 131.59375 9.292969 131.59375 9.285156 131.582031 9.277344 C 131.367188 9.167969 131.109375 8.96875 131.160156 8.695312 C 131.171875 8.621094 131.253906 8.59375 131.316406 8.566406 C 131.933594 8.414062 132.535156 8.824219 132.929688 9.257812 C 132.910156 9.222656 132.925781 9.183594 132.898438 9.15625 C 132.875 9.132812 132.890625 9.101562 132.84375 9.089844 C 132.5625 8.957031 132.386719 8.667969 132.238281 8.414062 C 132.246094 8.402344 132.265625 8.40625 132.273438 8.421875 C 132.386719 8.660156 132.519531 8.859375 132.75 9.023438 C 132.777344 9.039062 132.832031 9.085938 132.867188 9.089844 C 132.882812 9.089844 132.898438 9.066406 132.914062 9.066406 C 132.929688 9.0625 132.953125 9.074219 132.96875 9.066406 C 133 9.050781 133.03125 8.984375 133.050781 8.960938 C 133.199219 8.71875 133.242188 8.484375 133.25 8.21875 C 133.253906 8.203125 133.269531 8.191406 133.277344 8.199219 C 133.242188 8.492188 133.195312 8.828125 132.988281 9.0625 C 132.953125 9.089844 132.976562 9.109375 132.964844 9.144531 C 132.949219 9.179688 132.980469 9.207031 132.976562 9.25 C 133.171875 8.695312 133.5625 8.078125 134.1875 7.976562 C 134.257812 7.972656 134.34375 7.964844 134.382812 8.03125 C 134.535156 8.261719 134.375 8.546875 134.222656 8.734375 C 134.214844 8.746094 134.21875 8.753906 134.230469 8.753906 C 134.347656 8.777344 134.398438 8.890625 134.378906 9.003906 C 134.152344 9.472656 133.492188 9.402344 133.058594 9.53125 C 133.046875 9.53125 133.046875 9.539062 133.058594 9.539062 C 133.097656 9.535156 133.140625 9.515625 133.179688 9.511719 C 133.554688 9.464844 134.082031 9.246094 134.316406 9.664062 C 134.394531 9.929688 134.246094 10.320312 133.996094 10.445312 C 133.5 10.722656 133.195312 10.125 133.074219 9.726562 C 133.113281 9.96875 133.238281 10.222656 133.199219 10.464844 C 133.070312 10.257812 133.085938 9.972656 133.027344 9.738281 C 133.074219 10.152344 133.027344 10.820312 132.464844 10.761719 C 132.265625 10.757812 132.128906 10.628906 132.007812 10.484375 " fill-opacity="1" fill-rule="nonzero"/><path fill="#4287cf" d="M 129.667969 7.523438 C 129.640625 7.5 129.617188 7.472656 129.589844 7.445312 C 129.703125 7.605469 129.882812 7.738281 129.941406 7.925781 C 129.773438 7.824219 129.6875 7.617188 129.558594 7.472656 C 129.742188 7.75 129.949219 8.238281 129.527344 8.402344 C 129.316406 8.492188 129.011719 8.386719 128.886719 8.203125 C 128.753906 7.84375 129.152344 7.632812 129.371094 7.425781 C 129.394531 7.402344 129.429688 7.386719 129.449219 7.363281 C 129.457031 7.355469 129.453125 7.355469 129.445312 7.359375 C 129.160156 7.550781 128.800781 8.054688 128.421875 7.882812 C 128.359375 7.828125 128.335938 7.757812 128.378906 7.683594 C 128.382812 7.675781 128.378906 7.667969 128.367188 7.667969 C 127.925781 7.6875 127.601562 7.320312 128.160156 7.121094 C 128.527344 6.949219 128.960938 7.039062 129.316406 7.167969 C 129.289062 7.148438 129.289062 7.113281 129.261719 7.105469 C 129.234375 7.097656 129.230469 7.070312 129.199219 7.078125 C 128.949219 7.085938 128.71875 6.945312 128.523438 6.816406 C 128.527344 6.808594 128.539062 6.800781 128.550781 6.808594 C 128.71875 6.9375 128.882812 7.035156 129.105469 7.066406 C 129.152344 7.066406 129.210938 7.09375 129.238281 7.035156 C 129.300781 7.023438 129.289062 6.960938 129.296875 6.914062 C 129.316406 6.6875 129.261719 6.503906 129.171875 6.3125 C 129.167969 6.300781 129.175781 6.289062 129.183594 6.289062 C 129.265625 6.507812 129.351562 6.765625 129.289062 7.007812 C 129.273438 7.035156 129.296875 7.046875 129.300781 7.074219 C 129.304688 7.101562 129.335938 7.113281 129.347656 7.140625 C 129.304688 6.765625 129.3125 6.320312 129.5625 6 C 129.878906 5.5 130.164062 5.894531 130.046875 6.328125 C 130.042969 6.335938 130.050781 6.34375 130.058594 6.339844 C 130.152344 6.3125 130.226562 6.375 130.253906 6.460938 C 130.261719 6.875 129.769531 7.066406 129.507812 7.3125 C 129.5 7.320312 129.5 7.324219 129.507812 7.316406 C 129.535156 7.300781 129.558594 7.273438 129.585938 7.253906 C 129.835938 7.085938 130.132812 6.742188 130.449219 6.953125 C 130.597656 7.117188 130.636719 7.441406 130.5 7.625 C 130.277344 7.960938 129.894531 7.742188 129.667969 7.523438 " fill-opacity="1" fill-rule="nonzero"/><path fill="#4287cf" d="M 123.976562 9.386719 C 124.464844 9.023438 125.128906 9.03125 125.695312 9.113281 C 125.652344 9.09375 125.636719 9.042969 125.59375 9.039062 C 125.550781 9.03125 125.546875 8.992188 125.496094 9.015625 C 125.132812 9.101562 124.75 8.960938 124.425781 8.828125 C 124.425781 8.816406 124.445312 8.804688 124.460938 8.8125 C 124.746094 8.953125 125.015625 9.042969 125.355469 9.027344 C 125.390625 9.019531 125.476562 9.023438 125.511719 9 C 125.527344 8.988281 125.527344 8.957031 125.542969 8.941406 C 125.554688 8.925781 125.582031 8.921875 125.59375 8.902344 C 125.609375 8.863281 125.589844 8.777344 125.59375 8.742188 C 125.550781 8.40625 125.417969 8.152344 125.230469 7.894531 C 125.21875 7.878906 125.230469 7.859375 125.242188 7.855469 C 125.425781 8.15625 125.628906 8.511719 125.605469 8.882812 C 125.59375 8.9375 125.632812 8.9375 125.644531 8.980469 C 125.65625 9.019531 125.707031 9.027344 125.734375 9.066406 C 125.507812 8.402344 125.417969 7.535156 125.929688 6.96875 C 125.992188 6.917969 126.070312 6.84375 126.15625 6.878906 C 126.46875 6.976562 126.53125 7.367188 126.523438 7.65625 C 126.523438 7.671875 126.535156 7.679688 126.546875 7.671875 C 126.671875 7.601562 126.804688 7.671875 126.871094 7.792969 C 127.007812 8.382812 126.324219 8.839844 126.019531 9.269531 C 126 9.324219 126.105469 9.167969 126.121094 9.160156 C 126.433594 8.839844 126.769531 8.242188 127.300781 8.460938 C 127.566406 8.644531 127.722656 9.136719 127.574219 9.433594 C 127.3125 10.0625 126.585938 9.730469 126.179688 9.441406 C 126.394531 9.640625 126.699219 9.785156 126.84375 10.042969 C 126.566406 9.945312 126.375 9.664062 126.140625 9.488281 C 126.492188 9.84375 126.941406 10.503906 126.367188 10.871094 C 126.101562 11.066406 125.59375 10.996094 125.367188 10.765625 C 125.0625 10.277344 125.59375 9.84375 125.855469 9.476562 C 125.882812 9.4375 125.925781 9.402344 125.953125 9.363281 C 125.960938 9.351562 125.953125 9.347656 125.945312 9.359375 C 125.605469 9.703125 125.15625 10.597656 124.585938 10.429688 C 124.480469 10.367188 124.425781 10.273438 124.464844 10.152344 C 124.46875 10.136719 124.460938 10.128906 124.445312 10.132812 C 123.796875 10.285156 123.210938 9.851562 123.976562 9.386719 " fill-opacity="1" fill-rule="nonzero"/><path fill="#4287cf" d="M 127.496094 12.363281 C 127.726562 12.054688 128.132812 11.941406 128.488281 11.890625 C 128.457031 11.886719 128.441406 11.859375 128.414062 11.863281 C 128.386719 11.867188 128.371094 11.847656 128.347656 11.867188 C 128.144531 11.984375 127.886719 11.964844 127.667969 11.945312 C 127.664062 11.9375 127.675781 11.929688 127.6875 11.929688 C 127.882812 11.964844 128.0625 11.96875 128.265625 11.898438 C 128.304688 11.878906 128.367188 11.875 128.363281 11.816406 C 128.410156 11.777344 128.371094 11.730469 128.359375 11.683594 C 128.273438 11.488281 128.148438 11.359375 127.992188 11.238281 C 127.980469 11.230469 127.980469 11.214844 127.988281 11.210938 C 128.152344 11.359375 128.339844 11.539062 128.390625 11.765625 C 128.390625 11.800781 128.417969 11.796875 128.433594 11.820312 C 128.449219 11.839844 128.480469 11.835938 128.503906 11.855469 C 128.300781 11.558594 128.109375 11.179688 128.179688 10.800781 C 128.226562 10.238281 128.636719 10.445312 128.730469 10.859375 C 128.734375 10.871094 128.738281 10.871094 128.746094 10.863281 C 128.8125 10.800781 128.902344 10.820312 128.964844 10.878906 C 129.152344 11.226562 128.820312 11.605469 128.710938 11.929688 C 128.707031 11.9375 128.710938 11.9375 128.714844 11.929688 C 128.730469 11.90625 128.738281 11.871094 128.753906 11.84375 C 128.886719 11.59375 128.984375 11.171875 129.34375 11.207031 C 129.542969 11.285156 129.710938 11.53125 129.679688 11.75 C 129.632812 12.175781 129.136719 12.105469 128.839844 12.003906 C 129.003906 12.085938 129.214844 12.117188 129.347656 12.25 C 129.160156 12.238281 128.996094 12.105469 128.824219 12.039062 C 129.097656 12.191406 129.488281 12.511719 129.207031 12.835938 C 129.066406 13.003906 128.769531 13.046875 128.582031 12.949219 C 128.3125 12.707031 128.554688 12.351562 128.648438 12.082031 C 128.65625 12.054688 128.675781 12.023438 128.6875 11.996094 C 128.6875 11.988281 128.683594 11.984375 128.679688 11.996094 C 128.523438 12.28125 128.445312 12.867188 128.050781 12.886719 C 127.972656 12.867188 127.925781 12.820312 127.925781 12.742188 C 127.925781 12.730469 127.921875 12.726562 127.910156 12.730469 C 127.546875 12.941406 127.113281 12.777344 127.496094 12.363281 " fill-opacity="1" fill-rule="nonzero"/><path fill="#4287cf" d="M 126.214844 6.003906 C 125.9375 6.226562 125.6875 5.890625 125.574219 5.65625 C 125.621094 5.800781 125.726562 5.945312 125.726562 6.097656 C 125.625 5.984375 125.605469 5.804688 125.542969 5.667969 C 125.921875 7.035156 123.964844 6.019531 125.417969 5.589844 C 125.425781 5.582031 125.511719 5.558594 125.488281 5.554688 C 125.214844 5.636719 124.890625 5.894531 124.613281 5.726562 C 124.566406 5.675781 124.554688 5.597656 124.609375 5.546875 C 124.613281 5.539062 124.613281 5.535156 124.605469 5.53125 C 124.269531 5.4375 124.113281 5.085938 124.578125 5.070312 C 124.894531 5.027344 125.199219 5.199219 125.433594 5.382812 C 125.421875 5.359375 125.425781 5.335938 125.40625 5.320312 C 125.390625 5.308594 125.394531 5.285156 125.367188 5.285156 C 125.179688 5.234375 125.039062 5.070312 124.925781 4.929688 C 124.925781 4.921875 124.9375 4.921875 124.945312 4.929688 C 125.039062 5.066406 125.140625 5.175781 125.300781 5.253906 C 125.335938 5.265625 125.375 5.300781 125.40625 5.265625 C 125.457031 5.269531 125.464844 5.21875 125.480469 5.183594 C 125.546875 5.019531 125.550781 4.871094 125.527344 4.707031 C 125.527344 4.695312 125.539062 4.6875 125.542969 4.691406 C 125.550781 4.871094 125.558594 5.089844 125.453125 5.253906 C 125.433594 5.269531 125.449219 5.285156 125.445312 5.308594 C 125.441406 5.328125 125.464844 5.34375 125.464844 5.371094 C 125.519531 5.074219 125.632812 4.742188 125.894531 4.5625 C 126.25 4.261719 126.371094 4.628906 126.183594 4.925781 C 126.179688 4.929688 126.179688 4.9375 126.1875 4.9375 C 126.265625 4.9375 126.308594 5.003906 126.304688 5.074219 C 126.210938 5.386719 125.796875 5.414062 125.542969 5.535156 C 125.523438 5.554688 125.609375 5.511719 125.617188 5.511719 C 125.84375 5.445312 126.148438 5.253906 126.335938 5.488281 C 126.410156 5.652344 126.363281 5.894531 126.214844 6.003906 " fill-opacity="1" fill-rule="nonzero"/><path fill="#4287cf" d="M 124.609375 0.6875 C 124.605469 0.6875 124.605469 0.691406 124.605469 0.695312 C 124.632812 0.722656 124.625 0.757812 124.597656 0.785156 C 124.453125 0.855469 124.300781 0.714844 124.171875 0.667969 C 124.160156 0.667969 124.199219 0.679688 124.203125 0.683594 C 124.90625 0.949219 123.898438 1.382812 124.136719 0.71875 C 124.101562 0.785156 124.085938 0.871094 124.03125 0.925781 C 124.039062 0.847656 124.09375 0.78125 124.125 0.710938 C 123.757812 1.320312 123.457031 0.25 124.121094 0.644531 C 124.125 0.648438 124.148438 0.660156 124.144531 0.652344 C 124.023438 0.582031 123.792969 0.550781 123.785156 0.382812 C 123.800781 0.324219 123.835938 0.34375 123.851562 0.328125 C 123.765625 0.175781 123.84375 -0.00390625 124.007812 0.160156 C 124.128906 0.257812 124.171875 0.425781 124.1875 0.574219 C 124.191406 0.5625 124.203125 0.554688 124.199219 0.542969 C 124.199219 0.535156 124.207031 0.527344 124.199219 0.515625 C 124.152344 0.429688 124.164062 0.324219 124.175781 0.234375 C 124.183594 0.308594 124.152344 0.398438 124.1875 0.484375 C 124.195312 0.496094 124.199219 0.527344 124.222656 0.523438 C 124.234375 0.542969 124.257812 0.527344 124.273438 0.523438 C 124.363281 0.496094 124.414062 0.417969 124.472656 0.375 C 124.410156 0.449219 124.328125 0.519531 124.226562 0.542969 C 124.210938 0.566406 124.21875 0.550781 124.203125 0.582031 C 124.328125 0.5 124.484375 0.425781 124.640625 0.460938 C 124.867188 0.484375 124.777344 0.65625 124.609375 0.6875 " fill-opacity="1" fill-rule="nonzero"/><path fill="#4287cf" d="M 123.550781 2.578125 C 123.617188 2.511719 123.734375 2.574219 123.804688 2.609375 C 124.03125 2.71875 124.15625 2.964844 124.234375 3.1875 C 124.230469 3.167969 124.246094 3.152344 124.242188 3.136719 C 124.234375 3.121094 124.246094 3.105469 124.230469 3.09375 C 124.128906 2.980469 124.105469 2.8125 124.09375 2.667969 C 124.128906 2.742188 124.097656 2.894531 124.199219 3.046875 C 124.214844 3.066406 124.230469 3.109375 124.265625 3.097656 C 124.292969 3.121094 124.324219 3.089844 124.347656 3.078125 C 124.492188 2.992188 124.523438 2.859375 124.601562 2.78125 C 124.527344 2.914062 124.425781 3.054688 124.28125 3.121094 C 124.261719 3.167969 124.273438 3.121094 124.257812 3.191406 C 124.421875 3.023438 124.636719 2.855469 124.886719 2.847656 C 125.25 2.808594 125.171875 3.097656 124.917969 3.210938 C 124.914062 3.214844 124.914062 3.21875 124.917969 3.222656 C 124.96875 3.253906 124.96875 3.316406 124.9375 3.363281 C 124.742188 3.527344 124.457031 3.363281 124.238281 3.335938 C 124.21875 3.339844 124.289062 3.347656 124.296875 3.351562 C 125.472656 3.507812 124.074219 4.535156 124.207031 3.425781 C 124.175781 3.542969 124.183594 3.683594 124.117188 3.785156 C 124.097656 3.664062 124.160156 3.539062 124.183594 3.421875 C 124.121094 3.617188 123.96875 3.910156 123.726562 3.769531 C 123.597656 3.703125 123.53125 3.519531 123.570312 3.382812 C 123.699219 3.15625 124.019531 3.316406 124.191406 3.324219 C 123.980469 3.257812 123.617188 3.289062 123.542969 3.035156 C 123.546875 2.984375 123.570312 2.945312 123.621094 2.9375 C 123.625 2.933594 123.628906 2.929688 123.625 2.925781 C 123.550781 2.832031 123.472656 2.691406 123.550781 2.578125 " fill-opacity="1" fill-rule="nonzero"/><g clip-path="url(#dde8a94efa)"><path fill="#4287cf" d="M 121.535156 7.15625 C 121.542969 7.078125 121.648438 7.054688 121.714844 7.042969 C 121.914062 6.996094 122.121094 7.089844 122.28125 7.191406 C 122.273438 7.175781 122.273438 7.160156 122.261719 7.152344 C 122.25 7.144531 122.25 7.132812 122.234375 7.132812 C 122.109375 7.109375 122.007812 7.015625 121.925781 6.929688 C 122.007812 6.980469 122.066406 7.082031 122.1875 7.117188 C 122.210938 7.121094 122.242188 7.140625 122.257812 7.117188 C 122.289062 7.117188 122.292969 7.082031 122.300781 7.0625 C 122.34375 6.941406 122.300781 6.835938 122.308594 6.738281 C 122.324219 6.855469 122.34375 6.992188 122.285156 7.105469 C 122.273438 7.117188 122.285156 7.128906 122.285156 7.140625 C 122.28125 7.15625 122.296875 7.164062 122.300781 7.179688 C 122.320312 6.988281 122.371094 6.769531 122.527344 6.636719 C 122.734375 6.421875 122.839844 6.648438 122.734375 6.851562 C 122.730469 6.855469 122.734375 6.855469 122.738281 6.855469 C 122.78125 6.855469 122.808594 6.878906 122.820312 6.917969 C 122.8125 7.140625 122.515625 7.183594 122.359375 7.28125 C 122.351562 7.292969 122.402344 7.261719 122.40625 7.261719 C 123.238281 6.753906 122.871094 8.132812 122.390625 7.355469 C 122.429688 7.445312 122.503906 7.53125 122.515625 7.632812 C 122.441406 7.5625 122.417969 7.453125 122.371094 7.367188 C 122.433594 7.523438 122.484375 7.789062 122.257812 7.824219 C 122.140625 7.847656 122.003906 7.761719 121.960938 7.65625 C 121.925781 7.445312 122.210938 7.382812 122.328125 7.296875 C 122.160156 7.363281 121.941406 7.574219 121.765625 7.449219 C 121.738281 7.414062 121.734375 7.378906 121.761719 7.347656 C 121.765625 7.34375 121.765625 7.339844 121.761719 7.335938 C 121.664062 7.316406 121.542969 7.265625 121.535156 7.15625 " fill-opacity="1" fill-rule="nonzero"/></g><path fill="#4287cf" d="M 122.867188 1.621094 C 123.023438 2.042969 122.375 1.761719 122.847656 1.589844 C 122.792969 1.613281 122.539062 1.773438 122.574219 1.605469 C 122.46875 1.59375 122.410156 1.480469 122.550781 1.464844 C 122.648438 1.441406 122.746094 1.488281 122.824219 1.535156 C 122.820312 1.523438 122.816406 1.519531 122.808594 1.511719 C 122.75 1.5 122.695312 1.457031 122.65625 1.410156 C 122.695312 1.4375 122.726562 1.484375 122.78125 1.5 C 122.789062 1.503906 122.804688 1.511719 122.8125 1.5 C 122.828125 1.5 122.832031 1.484375 122.835938 1.472656 C 122.855469 1.421875 122.835938 1.367188 122.839844 1.320312 C 122.847656 1.378906 122.851562 1.445312 122.824219 1.503906 C 122.828125 1.515625 122.828125 1.519531 122.835938 1.53125 C 122.84375 1.4375 122.867188 1.332031 122.945312 1.269531 C 123.039062 1.167969 123.09375 1.277344 123.042969 1.371094 C 123.195312 1.441406 122.914062 1.550781 122.863281 1.582031 C 123.289062 1.308594 123.121094 1.996094 122.878906 1.617188 C 122.894531 1.660156 122.933594 1.703125 122.9375 1.75 C 122.902344 1.714844 122.890625 1.664062 122.867188 1.621094 " fill-opacity="1" fill-rule="nonzero"/><g clip-path="url(#d6944b166a)"><path fill="#4287cf" d="M 122.429688 4.113281 C 122.597656 4.25 122.222656 4.300781 122.132812 4.316406 C 122.128906 4.320312 122.160156 4.308594 122.164062 4.3125 C 122.753906 4.140625 122.304688 4.914062 122.140625 4.367188 C 122.148438 4.425781 122.179688 4.492188 122.167969 4.550781 C 122.136719 4.5 122.140625 4.429688 122.125 4.367188 C 122.183594 4.945312 121.46875 4.390625 122.089844 4.324219 C 122.097656 4.324219 122.117188 4.324219 122.109375 4.320312 C 122.023438 4.339844 121.660156 4.441406 121.761719 4.25 C 121.632812 4.191406 121.597656 4.039062 121.78125 4.066406 C 121.910156 4.070312 122.019531 4.160156 122.101562 4.246094 C 122.097656 4.230469 122.097656 4.210938 122.082031 4.203125 C 122.007812 4.171875 121.964844 4.097656 121.929688 4.03125 C 121.96875 4.074219 121.992188 4.148438 122.054688 4.1875 C 122.070312 4.195312 122.085938 4.210938 122.097656 4.199219 C 122.117188 4.203125 122.125 4.183594 122.132812 4.171875 C 122.179688 4.113281 122.171875 4.035156 122.191406 3.976562 C 122.183594 4.050781 122.171875 4.136719 122.117188 4.195312 C 122.105469 4.207031 122.113281 4.230469 122.113281 4.242188 C 122.15625 4.128906 122.222656 4.003906 122.339844 3.953125 C 122.5 3.855469 122.527344 4.011719 122.429688 4.113281 " fill-opacity="1" fill-rule="nonzero"/></g></svg>