<svg xmlns="http://www.w3.org/2000/svg" xmlns:xlink="http://www.w3.org/1999/xlink" width="70" zoomAndPan="magnify" viewBox="0 0 52.5 52.499999" height="70" preserveAspectRatio="xMidYMid meet" version="1.0"><defs><clipPath id="1bec1f92d6"><path d="M 0.988281 0.796875 L 50.761719 0.796875 L 50.761719 50.570312 L 0.988281 50.570312 Z M 0.988281 0.796875 " clip-rule="nonzero"/></clipPath><clipPath id="21e9b5e986"><path d="M 11.195312 25 L 20 25 L 20 41 L 11.195312 41 Z M 11.195312 25 " clip-rule="nonzero"/></clipPath><clipPath id="b1f5bfb36c"><path d="M 19 7.851562 L 26 7.851562 L 26 11 L 19 11 Z M 19 7.851562 " clip-rule="nonzero"/></clipPath><clipPath id="0d8327e593"><path d="M 32 26 L 43.140625 26 L 43.140625 42 L 32 42 Z M 32 26 " clip-rule="nonzero"/></clipPath></defs><g clip-path="url(#1bec1f92d6)"><path fill="#f5f4f0" d="M 51.007812 25.804688 C 51.007812 26.625 50.964844 27.441406 50.886719 28.257812 C 50.804688 29.070312 50.683594 29.882812 50.523438 30.683594 C 50.367188 31.488281 50.167969 32.28125 49.929688 33.066406 C 49.691406 33.847656 49.414062 34.621094 49.101562 35.375 C 48.789062 36.132812 48.4375 36.871094 48.054688 37.59375 C 47.667969 38.316406 47.246094 39.019531 46.789062 39.699219 C 46.335938 40.382812 45.847656 41.039062 45.328125 41.671875 C 44.808594 42.304688 44.261719 42.910156 43.679688 43.488281 C 43.101562 44.070312 42.496094 44.617188 41.863281 45.136719 C 41.230469 45.65625 40.570312 46.144531 39.890625 46.601562 C 39.210938 47.054688 38.507812 47.476562 37.785156 47.863281 C 37.0625 48.25 36.324219 48.597656 35.566406 48.910156 C 34.808594 49.226562 34.039062 49.5 33.257812 49.738281 C 32.472656 49.976562 31.679688 50.175781 30.875 50.335938 C 30.070312 50.496094 29.261719 50.613281 28.449219 50.695312 C 27.632812 50.773438 26.816406 50.816406 25.996094 50.816406 C 25.175781 50.816406 24.359375 50.773438 23.546875 50.695312 C 22.730469 50.613281 21.921875 50.496094 21.117188 50.335938 C 20.3125 50.175781 19.519531 49.976562 18.738281 49.738281 C 17.953125 49.5 17.183594 49.226562 16.425781 48.910156 C 15.667969 48.597656 14.929688 48.25 14.207031 47.863281 C 13.484375 47.476562 12.78125 47.054688 12.101562 46.601562 C 11.421875 46.144531 10.765625 45.65625 10.128906 45.136719 C 9.496094 44.617188 8.890625 44.070312 8.3125 43.488281 C 7.734375 42.910156 7.183594 42.304688 6.664062 41.671875 C 6.144531 41.039062 5.65625 40.382812 5.203125 39.699219 C 4.746094 39.019531 4.324219 38.316406 3.941406 37.59375 C 3.554688 36.871094 3.203125 36.132812 2.890625 35.375 C 2.578125 34.621094 2.300781 33.847656 2.0625 33.066406 C 1.824219 32.28125 1.628906 31.488281 1.46875 30.683594 C 1.308594 29.882812 1.1875 29.070312 1.105469 28.257812 C 1.027344 27.441406 0.988281 26.625 0.988281 25.804688 C 0.988281 24.988281 1.027344 24.167969 1.105469 23.355469 C 1.1875 22.539062 1.308594 21.730469 1.46875 20.925781 C 1.628906 20.125 1.824219 19.328125 2.0625 18.546875 C 2.300781 17.761719 2.578125 16.992188 2.890625 16.234375 C 3.203125 15.476562 3.554688 14.738281 3.941406 14.015625 C 4.324219 13.292969 4.746094 12.59375 5.203125 11.910156 C 5.65625 11.230469 6.144531 10.574219 6.664062 9.941406 C 7.183594 9.304688 7.734375 8.699219 8.3125 8.121094 C 8.890625 7.542969 9.496094 6.992188 10.128906 6.472656 C 10.765625 5.953125 11.421875 5.464844 12.101562 5.011719 C 12.78125 4.554688 13.484375 4.136719 14.207031 3.75 C 14.929688 3.363281 15.667969 3.011719 16.425781 2.699219 C 17.183594 2.386719 17.953125 2.109375 18.738281 1.871094 C 19.519531 1.636719 20.3125 1.4375 21.117188 1.277344 C 21.921875 1.117188 22.730469 0.996094 23.546875 0.917969 C 24.359375 0.835938 25.175781 0.796875 25.996094 0.796875 C 26.816406 0.796875 27.632812 0.835938 28.449219 0.917969 C 29.261719 0.996094 30.070312 1.117188 30.875 1.277344 C 31.679688 1.4375 32.472656 1.636719 33.257812 1.871094 C 34.039062 2.109375 34.808594 2.386719 35.566406 2.699219 C 36.324219 3.011719 37.0625 3.363281 37.785156 3.75 C 38.507812 4.136719 39.210938 4.554688 39.890625 5.011719 C 40.570312 5.464844 41.230469 5.953125 41.863281 6.472656 C 42.496094 6.992188 43.101562 7.542969 43.679688 8.121094 C 44.261719 8.699219 44.808594 9.304688 45.328125 9.941406 C 45.847656 10.574219 46.335938 11.230469 46.789062 11.910156 C 47.246094 12.59375 47.667969 13.292969 48.054688 14.015625 C 48.4375 14.738281 48.789062 15.476562 49.101562 16.234375 C 49.414062 16.992188 49.691406 17.761719 49.929688 18.546875 C 50.167969 19.328125 50.367188 20.125 50.523438 20.925781 C 50.683594 21.730469 50.804688 22.539062 50.886719 23.355469 C 50.964844 24.167969 51.007812 24.988281 51.007812 25.804688 Z M 51.007812 25.804688 " fill-opacity="1" fill-rule="nonzero"/></g><path fill="#535152" d="M 17.210938 23.429688 C 17.289062 23.890625 17.371094 24.375 17.570312 24.800781 C 17.628906 24.925781 17.808594 24.871094 17.78125 24.734375 C 17.699219 24.328125 17.578125 23.929688 17.503906 23.519531 C 17.425781 23.078125 17.371094 22.628906 17.335938 22.183594 C 17.257812 21.191406 17.273438 20.195312 17.339844 19.203125 C 17.484375 17.078125 17.871094 14.964844 18.410156 12.90625 C 18.558594 12.347656 18.714844 11.796875 18.886719 11.246094 C 18.96875 10.984375 19.054688 10.71875 19.140625 10.457031 C 19.226562 10.195312 19.335938 9.9375 19.375 9.664062 C 19.386719 9.566406 19.261719 9.527344 19.207031 9.609375 C 19.074219 9.816406 19.003906 10.046875 18.921875 10.277344 C 18.839844 10.515625 18.757812 10.753906 18.679688 10.992188 C 18.523438 11.484375 18.378906 11.980469 18.242188 12.480469 C 17.957031 13.527344 17.714844 14.585938 17.519531 15.652344 C 17.148438 17.699219 16.917969 19.804688 17.039062 21.886719 C 17.070312 22.402344 17.121094 22.917969 17.210938 23.429688 Z M 17.210938 23.429688 " fill-opacity="1" fill-rule="nonzero"/><g clip-path="url(#21e9b5e986)"><path fill="#535152" d="M 19.882812 25.597656 C 19.804688 25.667969 19.714844 25.722656 19.640625 25.792969 C 19.5625 25.863281 19.496094 25.945312 19.433594 26.027344 C 19.304688 26.191406 19.179688 26.359375 19.066406 26.539062 C 18.84375 26.890625 18.664062 27.28125 18.535156 27.675781 C 18.390625 28.121094 18.296875 28.582031 18.1875 29.035156 C 18.070312 29.511719 17.949219 29.988281 17.832031 30.464844 C 17.355469 32.394531 16.878906 34.320312 16.40625 36.246094 C 16.339844 36.503906 16.28125 36.757812 16.214844 37.015625 C 16.148438 37.269531 16.0625 37.515625 16.015625 37.773438 C 15.9375 38.199219 15.996094 38.699219 16.433594 38.90625 C 16.5 38.933594 16.578125 38.84375 16.511719 38.792969 C 16.175781 38.546875 16.238281 38.035156 16.328125 37.679688 C 16.34375 37.617188 16.359375 37.558594 16.378906 37.492188 C 16.898438 37.660156 17.398438 37.859375 17.882812 38.109375 C 18.128906 38.238281 18.375 38.371094 18.609375 38.527344 C 18.859375 38.691406 19.117188 38.867188 19.304688 39.101562 C 19.484375 39.320312 19.621094 39.597656 19.578125 39.890625 C 19.53125 40.179688 19.308594 40.355469 19.039062 40.433594 C 18.746094 40.519531 18.433594 40.519531 18.132812 40.515625 C 17.777344 40.511719 17.421875 40.492188 17.070312 40.460938 C 16.683594 40.429688 16.296875 40.375 15.914062 40.3125 C 15.730469 40.28125 15.546875 40.246094 15.363281 40.207031 C 15.289062 40.191406 15.214844 40.171875 15.140625 40.15625 C 14.992188 40.113281 14.847656 40.074219 14.703125 40.03125 C 14.394531 39.9375 14.089844 39.835938 13.789062 39.722656 C 13.203125 39.5 12.617188 39.25 12.078125 38.933594 C 11.851562 38.800781 11.609375 38.636719 11.476562 38.402344 C 11.335938 38.152344 11.390625 37.859375 11.570312 37.644531 C 11.941406 37.195312 12.652344 37.140625 13.191406 37.113281 C 13.851562 37.085938 14.488281 37.164062 15.132812 37.277344 C 15.082031 37.46875 15.023438 37.652344 14.960938 37.839844 C 14.925781 37.949219 14.890625 38.070312 14.796875 38.144531 C 14.710938 38.21875 14.578125 38.238281 14.464844 38.242188 C 14.378906 38.246094 14.339844 38.371094 14.429688 38.410156 C 14.617188 38.492188 14.816406 38.453125 14.972656 38.316406 C 15.128906 38.179688 15.183594 37.960938 15.246094 37.765625 C 15.398438 37.285156 15.507812 36.792969 15.613281 36.300781 C 15.835938 35.289062 16.085938 34.285156 16.332031 33.277344 C 16.578125 32.261719 16.8125 31.242188 17.046875 30.222656 C 17.160156 29.71875 17.277344 29.214844 17.398438 28.710938 C 17.519531 28.226562 17.65625 27.75 17.773438 27.265625 C 17.855469 26.914062 17.847656 26.539062 17.847656 26.183594 C 17.847656 26.074219 17.839844 25.96875 17.835938 25.859375 C 17.828125 25.757812 17.800781 25.667969 17.792969 25.566406 C 17.78125 25.40625 17.765625 25.242188 17.75 25.078125 C 17.742188 25.027344 17.664062 25.03125 17.664062 25.082031 C 17.667969 25.21875 17.667969 25.351562 17.667969 25.488281 C 17.667969 25.660156 17.648438 25.828125 17.644531 25.996094 C 17.636719 26.332031 17.644531 26.667969 17.601562 27 C 17.546875 27.40625 17.402344 27.808594 17.304688 28.203125 C 17.183594 28.683594 17.066406 29.160156 16.957031 29.644531 C 16.730469 30.613281 16.511719 31.585938 16.277344 32.554688 C 16.039062 33.539062 15.789062 34.519531 15.554688 35.503906 C 15.433594 36.023438 15.324219 36.546875 15.191406 37.0625 C 14.589844 36.890625 13.921875 36.835938 13.300781 36.871094 C 12.707031 36.902344 11.988281 36.992188 11.527344 37.414062 C 11.332031 37.59375 11.191406 37.859375 11.207031 38.132812 C 11.222656 38.402344 11.390625 38.625 11.585938 38.796875 C 11.824219 39.003906 12.109375 39.148438 12.382812 39.296875 C 12.6875 39.457031 12.996094 39.609375 13.3125 39.742188 C 13.664062 39.894531 14.023438 40.03125 14.386719 40.148438 C 14.578125 40.214844 14.773438 40.269531 14.964844 40.324219 C 15.074219 40.355469 15.1875 40.390625 15.304688 40.40625 C 15.46875 40.445312 15.632812 40.476562 15.800781 40.503906 C 16.183594 40.570312 16.570312 40.617188 16.957031 40.648438 C 17.328125 40.679688 17.703125 40.691406 18.074219 40.6875 C 18.394531 40.6875 18.726562 40.6875 19.042969 40.609375 C 19.308594 40.539062 19.570312 40.394531 19.691406 40.136719 C 19.816406 39.875 19.789062 39.5625 19.664062 39.304688 C 19.394531 38.746094 18.816406 38.363281 18.296875 38.058594 C 17.976562 37.871094 17.636719 37.707031 17.292969 37.566406 C 17.015625 37.449219 16.734375 37.34375 16.441406 37.28125 C 16.464844 37.199219 16.488281 37.117188 16.507812 37.03125 C 16.5625 36.8125 16.617188 36.589844 16.667969 36.371094 C 16.894531 35.453125 17.117188 34.53125 17.335938 33.613281 C 17.785156 31.761719 18.230469 29.910156 18.675781 28.058594 C 18.785156 27.613281 18.960938 27.195312 19.183594 26.796875 C 19.292969 26.597656 19.410156 26.398438 19.539062 26.210938 C 19.601562 26.121094 19.667969 26.03125 19.730469 25.941406 C 19.800781 25.839844 19.847656 25.734375 19.925781 25.636719 C 19.949219 25.605469 19.90625 25.574219 19.878906 25.597656 Z M 19.882812 25.597656 " fill-opacity="1" fill-rule="nonzero"/></g><path fill="#535152" d="M 17.90625 21.703125 C 17.898438 21.628906 17.789062 21.636719 17.785156 21.710938 C 17.769531 22.015625 17.75 22.324219 17.78125 22.628906 C 17.816406 22.90625 17.90625 23.1875 18.042969 23.433594 C 18.289062 23.867188 18.746094 24.300781 19.25 24.398438 C 19.578125 24.460938 19.886719 24.261719 20.125 24.0625 C 20.433594 23.804688 20.691406 23.488281 20.929688 23.164062 C 21.160156 22.851562 21.402344 22.539062 21.539062 22.175781 C 21.574219 22.085938 21.445312 22.0625 21.398438 22.105469 C 21.164062 22.296875 21.003906 22.554688 20.824219 22.792969 C 20.597656 23.09375 20.363281 23.390625 20.097656 23.65625 C 19.917969 23.839844 19.660156 24.078125 19.417969 24.101562 C 19.265625 24.113281 19.066406 24.015625 18.921875 23.921875 C 18.71875 23.792969 18.546875 23.617188 18.410156 23.421875 C 18.054688 22.921875 17.96875 22.300781 17.90625 21.703125 Z M 17.90625 21.703125 " fill-opacity="1" fill-rule="nonzero"/><g clip-path="url(#b1f5bfb36c)"><path fill="#535152" d="M 19.617188 9.234375 C 20.007812 9.1875 20.398438 9.136719 20.789062 9.128906 C 20.933594 9.125 21.082031 9.128906 21.226562 9.136719 C 21.21875 9.179688 21.207031 9.226562 21.199219 9.273438 C 21.1875 9.347656 21.171875 9.421875 21.160156 9.496094 C 21.152344 9.5625 21.144531 9.621094 21.203125 9.667969 C 21.222656 9.683594 21.253906 9.691406 21.277344 9.679688 C 21.40625 9.632812 21.402344 9.433594 21.421875 9.316406 C 21.433594 9.261719 21.441406 9.207031 21.453125 9.148438 C 21.488281 9.152344 21.519531 9.15625 21.554688 9.160156 C 21.566406 9.179688 21.578125 9.203125 21.59375 9.222656 C 21.648438 9.316406 21.722656 9.464844 21.839844 9.488281 C 21.878906 9.5 21.914062 9.472656 21.925781 9.433594 C 21.945312 9.375 21.917969 9.316406 21.894531 9.261719 C 21.882812 9.242188 21.871094 9.21875 21.859375 9.195312 C 21.898438 9.203125 21.9375 9.207031 21.976562 9.210938 C 22.757812 9.324219 23.523438 9.5625 24.226562 9.921875 C 24.417969 10.019531 24.605469 10.128906 24.789062 10.242188 C 24.886719 10.304688 24.984375 10.371094 25.082031 10.441406 C 25.167969 10.503906 25.253906 10.585938 25.355469 10.625 C 25.433594 10.652344 25.535156 10.578125 25.476562 10.496094 C 25.375 10.339844 25.164062 10.234375 25.011719 10.132812 C 24.839844 10.019531 24.660156 9.914062 24.480469 9.816406 C 24.121094 9.621094 23.742188 9.460938 23.355469 9.328125 C 22.972656 9.199219 22.574219 9.097656 22.175781 9.035156 C 22.027344 9.011719 21.882812 8.996094 21.738281 8.984375 C 21.707031 8.933594 21.675781 8.882812 21.644531 8.832031 C 21.667969 8.835938 21.6875 8.835938 21.710938 8.839844 C 22.015625 8.871094 22.328125 8.921875 22.632812 8.855469 C 22.683594 8.84375 22.6875 8.765625 22.640625 8.746094 C 22.355469 8.625 22.035156 8.625 21.730469 8.601562 L 21.542969 8.589844 C 21.578125 8.394531 21.605469 8.199219 21.636719 8.003906 C 21.652344 7.894531 21.480469 7.859375 21.457031 7.96875 C 21.429688 8.109375 21.398438 8.25 21.371094 8.386719 C 21.324219 8.3125 21.277344 8.238281 21.230469 8.164062 C 21.15625 8.050781 20.984375 8.160156 21.046875 8.277344 C 21.101562 8.375 21.15625 8.46875 21.210938 8.566406 C 21.070312 8.554688 20.929688 8.542969 20.785156 8.535156 C 20.664062 8.527344 20.644531 8.730469 20.769531 8.742188 C 20.941406 8.761719 21.113281 8.777344 21.289062 8.796875 C 21.285156 8.8125 21.28125 8.828125 21.277344 8.84375 C 21.273438 8.882812 21.265625 8.921875 21.257812 8.960938 C 21.15625 8.960938 21.054688 8.960938 20.949219 8.960938 C 20.496094 8.96875 20.035156 9.007812 19.597656 9.132812 C 19.539062 9.152344 19.554688 9.242188 19.617188 9.234375 Z M 19.617188 9.234375 " fill-opacity="1" fill-rule="nonzero"/></g><path fill="#535152" d="M 22.058594 21.035156 C 22.128906 20.957031 22.203125 20.882812 22.265625 20.800781 C 22.320312 20.722656 22.367188 20.632812 22.417969 20.550781 C 22.519531 20.367188 22.621094 20.183594 22.714844 20 C 22.90625 19.621094 23.078125 19.230469 23.234375 18.835938 C 23.382812 18.449219 23.511719 18.0625 23.613281 17.664062 C 23.71875 17.25 23.820312 16.835938 23.863281 16.414062 C 23.871094 16.355469 23.785156 16.335938 23.769531 16.394531 C 23.664062 16.800781 23.582031 17.210938 23.457031 17.609375 C 23.339844 18 23.207031 18.390625 23.058594 18.773438 C 22.910156 19.148438 22.746094 19.519531 22.566406 19.878906 C 22.472656 20.066406 22.375 20.25 22.273438 20.433594 C 22.222656 20.515625 22.171875 20.597656 22.125 20.6875 C 22.074219 20.785156 22.042969 20.890625 22 20.992188 C 21.980469 21.03125 22.03125 21.066406 22.0625 21.035156 Z M 22.058594 21.035156 " fill-opacity="1" fill-rule="nonzero"/><path fill="#535152" d="M 21.246094 20.097656 C 21.339844 20.019531 21.382812 19.882812 21.332031 19.769531 C 21.304688 19.703125 21.253906 19.644531 21.183594 19.617188 C 21.132812 19.597656 21.078125 19.597656 21.027344 19.613281 C 21.019531 19.597656 21.003906 19.582031 20.980469 19.582031 C 20.917969 19.59375 20.863281 19.621094 20.816406 19.664062 C 20.777344 19.707031 20.746094 19.769531 20.738281 19.828125 C 20.71875 19.957031 20.785156 20.074219 20.898438 20.136719 C 21.011719 20.203125 21.148438 20.179688 21.246094 20.097656 Z M 20.953125 19.691406 C 20.953125 19.691406 20.953125 19.699219 20.953125 19.699219 C 20.957031 19.710938 20.960938 19.714844 20.96875 19.722656 C 20.972656 19.722656 20.980469 19.730469 20.984375 19.730469 C 20.996094 19.734375 21.007812 19.734375 21.019531 19.730469 C 21.042969 19.722656 21.0625 19.71875 21.082031 19.714844 C 21.121094 19.710938 21.164062 19.71875 21.195312 19.75 C 21.257812 19.808594 21.253906 19.914062 21.207031 19.980469 C 21.183594 20.011719 21.148438 20.039062 21.113281 20.054688 C 21.074219 20.070312 21.035156 20.074219 20.996094 20.058594 C 20.921875 20.035156 20.859375 19.960938 20.851562 19.886719 C 20.847656 19.8125 20.890625 19.734375 20.953125 19.691406 Z M 20.953125 19.691406 " fill-opacity="1" fill-rule="nonzero"/><path fill="#535152" d="M 22.738281 17.664062 C 22.742188 17.648438 22.726562 17.636719 22.710938 17.644531 C 22.707031 17.648438 22.699219 17.652344 22.695312 17.65625 C 22.691406 17.664062 22.6875 17.671875 22.683594 17.675781 C 22.679688 17.683594 22.683594 17.675781 22.679688 17.679688 C 22.675781 17.683594 22.675781 17.691406 22.671875 17.695312 C 22.671875 17.703125 22.671875 17.710938 22.667969 17.714844 C 22.664062 17.742188 22.671875 17.777344 22.683594 17.800781 C 22.710938 17.855469 22.765625 17.898438 22.828125 17.902344 C 22.894531 17.902344 22.960938 17.855469 22.984375 17.796875 C 23.015625 17.734375 23 17.664062 22.949219 17.617188 C 22.898438 17.570312 22.816406 17.558594 22.757812 17.59375 C 22.730469 17.609375 22.753906 17.648438 22.78125 17.640625 C 22.785156 17.640625 22.789062 17.640625 22.789062 17.636719 C 22.792969 17.636719 22.792969 17.636719 22.792969 17.636719 C 22.796875 17.636719 22.800781 17.636719 22.808594 17.636719 C 22.808594 17.636719 22.808594 17.636719 22.8125 17.636719 C 22.8125 17.636719 22.816406 17.636719 22.816406 17.636719 C 22.820312 17.636719 22.828125 17.640625 22.832031 17.640625 C 22.835938 17.640625 22.835938 17.640625 22.839844 17.640625 C 22.832031 17.640625 22.839844 17.640625 22.839844 17.640625 C 22.84375 17.644531 22.851562 17.644531 22.855469 17.648438 C 22.855469 17.648438 22.859375 17.652344 22.863281 17.652344 C 22.867188 17.65625 22.871094 17.660156 22.875 17.664062 C 22.878906 17.667969 22.882812 17.671875 22.886719 17.675781 C 22.886719 17.675781 22.890625 17.679688 22.890625 17.679688 C 22.894531 17.683594 22.898438 17.6875 22.902344 17.691406 C 22.902344 17.691406 22.902344 17.695312 22.902344 17.695312 C 22.902344 17.695312 22.90625 17.699219 22.90625 17.703125 C 22.90625 17.707031 22.910156 17.710938 22.910156 17.714844 C 22.910156 17.71875 22.910156 17.722656 22.910156 17.726562 C 22.910156 17.726562 22.910156 17.738281 22.910156 17.738281 C 22.910156 17.742188 22.910156 17.746094 22.90625 17.753906 C 22.90625 17.753906 22.90625 17.753906 22.90625 17.757812 C 22.902344 17.765625 22.898438 17.769531 22.898438 17.773438 C 22.894531 17.777344 22.890625 17.785156 22.898438 17.777344 C 22.894531 17.777344 22.894531 17.78125 22.894531 17.78125 C 22.890625 17.785156 22.886719 17.789062 22.878906 17.792969 C 22.878906 17.796875 22.871094 17.800781 22.878906 17.796875 C 22.878906 17.796875 22.875 17.796875 22.871094 17.800781 C 22.867188 17.804688 22.863281 17.804688 22.859375 17.808594 C 22.855469 17.808594 22.851562 17.8125 22.851562 17.8125 C 22.84375 17.8125 22.839844 17.816406 22.832031 17.816406 C 22.832031 17.816406 22.828125 17.816406 22.828125 17.820312 C 22.828125 17.820312 22.824219 17.820312 22.824219 17.820312 C 22.820312 17.820312 22.816406 17.820312 22.8125 17.820312 C 22.8125 17.820312 22.804688 17.816406 22.800781 17.816406 C 22.796875 17.816406 22.796875 17.816406 22.792969 17.816406 C 22.800781 17.816406 22.792969 17.816406 22.792969 17.816406 C 22.785156 17.8125 22.78125 17.8125 22.777344 17.808594 C 22.773438 17.804688 22.773438 17.804688 22.769531 17.804688 C 22.769531 17.800781 22.769531 17.800781 22.765625 17.796875 C 22.761719 17.792969 22.757812 17.789062 22.753906 17.785156 C 22.753906 17.78125 22.753906 17.78125 22.75 17.777344 C 22.75 17.773438 22.75 17.773438 22.75 17.777344 C 22.75 17.777344 22.75 17.773438 22.75 17.773438 C 22.746094 17.769531 22.746094 17.761719 22.742188 17.757812 C 22.742188 17.757812 22.742188 17.753906 22.742188 17.75 C 22.742188 17.75 22.742188 17.75 22.742188 17.746094 C 22.742188 17.742188 22.738281 17.734375 22.738281 17.730469 C 22.738281 17.722656 22.738281 17.71875 22.738281 17.710938 C 22.738281 17.710938 22.742188 17.691406 22.738281 17.691406 C 22.738281 17.6875 22.738281 17.6875 22.738281 17.683594 C 22.738281 17.675781 22.738281 17.671875 22.738281 17.664062 Z M 22.738281 17.664062 " fill-opacity="1" fill-rule="nonzero"/><path fill="#535152" d="M 21.730469 18.269531 C 21.871094 18.304688 22.027344 18.230469 22.066406 18.089844 C 22.105469 17.96875 22.070312 17.820312 21.964844 17.746094 C 21.90625 17.703125 21.835938 17.679688 21.761719 17.683594 C 21.722656 17.6875 21.683594 17.695312 21.648438 17.710938 C 21.632812 17.71875 21.621094 17.730469 21.609375 17.738281 C 21.597656 17.746094 21.589844 17.757812 21.585938 17.765625 C 21.527344 17.824219 21.523438 17.9375 21.53125 18.011719 C 21.539062 18.066406 21.554688 18.121094 21.585938 18.167969 C 21.617188 18.222656 21.671875 18.257812 21.730469 18.269531 Z M 21.679688 18.089844 Z M 21.871094 18.144531 C 21.863281 18.148438 21.867188 18.144531 21.871094 18.144531 Z M 21.910156 18.121094 C 21.90625 18.125 21.90625 18.121094 21.910156 18.121094 Z M 21.71875 17.792969 C 21.726562 17.792969 21.730469 17.789062 21.738281 17.785156 C 21.742188 17.785156 21.742188 17.785156 21.746094 17.785156 C 21.746094 17.785156 21.75 17.785156 21.75 17.785156 C 21.800781 17.777344 21.839844 17.78125 21.882812 17.796875 C 21.96875 17.835938 22 17.941406 21.972656 18.027344 C 21.972656 18.027344 21.96875 18.03125 21.96875 18.03125 C 21.96875 18.035156 21.96875 18.035156 21.96875 18.035156 C 21.964844 18.042969 21.964844 18.046875 21.960938 18.050781 C 21.957031 18.066406 21.949219 18.074219 21.941406 18.085938 C 21.941406 18.085938 21.941406 18.089844 21.9375 18.089844 C 21.9375 18.089844 21.9375 18.089844 21.9375 18.09375 C 21.933594 18.097656 21.925781 18.101562 21.921875 18.105469 C 21.917969 18.109375 21.914062 18.113281 21.910156 18.117188 C 21.90625 18.121094 21.90625 18.125 21.902344 18.125 C 21.890625 18.132812 21.882812 18.136719 21.871094 18.144531 C 21.867188 18.144531 21.867188 18.144531 21.863281 18.148438 C 21.855469 18.148438 21.851562 18.152344 21.84375 18.152344 C 21.839844 18.15625 21.832031 18.15625 21.828125 18.15625 C 21.828125 18.15625 21.820312 18.160156 21.816406 18.160156 C 21.808594 18.160156 21.804688 18.160156 21.796875 18.160156 C 21.796875 18.160156 21.789062 18.160156 21.785156 18.160156 C 21.773438 18.160156 21.761719 18.15625 21.75 18.15625 C 21.75 18.15625 21.746094 18.152344 21.746094 18.152344 C 21.738281 18.148438 21.730469 18.148438 21.726562 18.144531 C 21.722656 18.144531 21.714844 18.136719 21.714844 18.136719 C 21.710938 18.136719 21.707031 18.132812 21.707031 18.128906 C 21.703125 18.128906 21.699219 18.125 21.699219 18.121094 C 21.699219 18.121094 21.695312 18.121094 21.695312 18.121094 C 21.6875 18.113281 21.683594 18.105469 21.679688 18.097656 C 21.679688 18.097656 21.679688 18.09375 21.679688 18.09375 C 21.675781 18.089844 21.675781 18.085938 21.671875 18.082031 C 21.664062 18.0625 21.65625 18.042969 21.652344 18.019531 C 21.648438 18.007812 21.648438 17.996094 21.644531 17.984375 C 21.644531 17.984375 21.644531 17.980469 21.640625 17.976562 C 21.640625 17.972656 21.640625 17.964844 21.640625 17.957031 C 21.636719 17.933594 21.636719 17.910156 21.636719 17.886719 C 21.636719 17.882812 21.636719 17.882812 21.636719 17.882812 C 21.636719 17.882812 21.636719 17.882812 21.636719 17.878906 C 21.636719 17.875 21.636719 17.871094 21.640625 17.863281 C 21.640625 17.859375 21.640625 17.855469 21.644531 17.847656 C 21.644531 17.847656 21.644531 17.839844 21.644531 17.839844 C 21.648438 17.835938 21.648438 17.832031 21.648438 17.828125 C 21.648438 17.828125 21.652344 17.828125 21.652344 17.824219 C 21.65625 17.824219 21.65625 17.824219 21.65625 17.824219 C 21.664062 17.820312 21.667969 17.816406 21.675781 17.8125 C 21.675781 17.8125 21.679688 17.808594 21.679688 17.808594 C 21.683594 17.808594 21.683594 17.808594 21.683594 17.804688 C 21.679688 17.808594 21.679688 17.808594 21.683594 17.804688 C 21.695312 17.800781 21.707031 17.796875 21.71875 17.792969 Z M 21.71875 17.792969 " fill-opacity="1" fill-rule="nonzero"/><path fill="#535152" d="M 18.636719 20.832031 C 18.675781 20.871094 18.734375 20.886719 18.789062 20.882812 C 18.84375 20.878906 18.898438 20.851562 18.941406 20.8125 C 19.019531 20.738281 19.042969 20.613281 18.988281 20.519531 C 18.9375 20.433594 18.816406 20.382812 18.722656 20.421875 C 18.671875 20.445312 18.625 20.488281 18.605469 20.542969 C 18.597656 20.574219 18.597656 20.605469 18.605469 20.636719 C 18.574219 20.695312 18.585938 20.78125 18.636719 20.835938 Z M 18.753906 20.765625 C 18.761719 20.765625 18.757812 20.765625 18.753906 20.765625 Z M 18.890625 20.601562 C 18.890625 20.59375 18.890625 20.597656 18.890625 20.601562 Z M 18.722656 20.550781 C 18.722656 20.550781 18.726562 20.546875 18.726562 20.542969 C 18.726562 20.542969 18.730469 20.539062 18.730469 20.539062 C 18.734375 20.535156 18.738281 20.53125 18.742188 20.527344 C 18.730469 20.539062 18.746094 20.527344 18.746094 20.527344 C 18.75 20.523438 18.753906 20.523438 18.757812 20.519531 C 18.761719 20.519531 18.765625 20.515625 18.769531 20.515625 C 18.769531 20.515625 18.773438 20.515625 18.777344 20.515625 C 18.78125 20.515625 18.789062 20.515625 18.792969 20.511719 C 18.796875 20.511719 18.796875 20.511719 18.796875 20.511719 C 18.800781 20.511719 18.804688 20.515625 18.808594 20.515625 C 18.8125 20.515625 18.816406 20.519531 18.816406 20.519531 C 18.820312 20.519531 18.824219 20.519531 18.824219 20.523438 C 18.832031 20.527344 18.835938 20.527344 18.84375 20.53125 C 18.84375 20.53125 18.847656 20.535156 18.847656 20.535156 C 18.851562 20.539062 18.855469 20.542969 18.859375 20.542969 C 18.859375 20.546875 18.863281 20.546875 18.867188 20.550781 C 18.867188 20.550781 18.867188 20.554688 18.871094 20.554688 C 18.871094 20.558594 18.875 20.5625 18.878906 20.566406 C 18.878906 20.566406 18.878906 20.570312 18.878906 20.570312 C 18.878906 20.570312 18.882812 20.578125 18.882812 20.578125 C 18.886719 20.582031 18.886719 20.585938 18.886719 20.589844 C 18.890625 20.59375 18.890625 20.597656 18.890625 20.601562 C 18.890625 20.613281 18.890625 20.625 18.890625 20.636719 C 18.890625 20.636719 18.890625 20.636719 18.890625 20.640625 C 18.890625 20.640625 18.890625 20.648438 18.890625 20.648438 C 18.890625 20.65625 18.886719 20.667969 18.882812 20.675781 C 18.882812 20.675781 18.882812 20.679688 18.882812 20.683594 C 18.886719 20.667969 18.882812 20.683594 18.878906 20.6875 C 18.875 20.695312 18.871094 20.703125 18.867188 20.710938 C 18.863281 20.714844 18.855469 20.726562 18.863281 20.714844 C 18.859375 20.71875 18.859375 20.722656 18.855469 20.726562 C 18.851562 20.730469 18.84375 20.734375 18.84375 20.738281 C 18.84375 20.738281 18.835938 20.742188 18.835938 20.742188 C 18.832031 20.746094 18.828125 20.75 18.824219 20.75 C 18.820312 20.753906 18.816406 20.753906 18.816406 20.757812 C 18.8125 20.757812 18.8125 20.757812 18.8125 20.757812 C 18.808594 20.757812 18.808594 20.757812 18.804688 20.757812 C 18.796875 20.761719 18.789062 20.765625 18.78125 20.765625 C 18.773438 20.765625 18.769531 20.765625 18.765625 20.765625 C 18.761719 20.765625 18.757812 20.765625 18.753906 20.765625 C 18.753906 20.765625 18.753906 20.765625 18.75 20.765625 C 18.746094 20.765625 18.742188 20.765625 18.738281 20.765625 C 18.734375 20.765625 18.734375 20.761719 18.730469 20.761719 C 18.726562 20.761719 18.722656 20.761719 18.722656 20.757812 C 18.71875 20.757812 18.699219 20.746094 18.710938 20.753906 C 18.710938 20.753906 18.707031 20.75 18.703125 20.746094 C 18.699219 20.746094 18.699219 20.746094 18.699219 20.742188 C 18.695312 20.738281 18.691406 20.730469 18.6875 20.722656 C 18.6875 20.722656 18.683594 20.722656 18.683594 20.722656 C 18.683594 20.714844 18.679688 20.714844 18.679688 20.707031 C 18.679688 20.707031 18.679688 20.703125 18.679688 20.699219 C 18.679688 20.695312 18.679688 20.695312 18.675781 20.691406 C 18.675781 20.691406 18.675781 20.6875 18.675781 20.6875 C 18.683594 20.683594 18.691406 20.675781 18.691406 20.667969 C 18.691406 20.660156 18.695312 20.652344 18.695312 20.644531 C 18.695312 20.644531 18.695312 20.644531 18.699219 20.640625 C 18.710938 20.628906 18.710938 20.605469 18.699219 20.59375 C 18.699219 20.59375 18.699219 20.589844 18.699219 20.589844 C 18.707031 20.574219 18.710938 20.5625 18.71875 20.550781 Z M 18.722656 20.550781 " fill-opacity="1" fill-rule="nonzero"/><path fill="#535152" d="M 19.464844 22.089844 C 19.527344 22.089844 19.589844 22.085938 19.652344 22.082031 C 19.589844 22.148438 19.527344 22.21875 19.480469 22.296875 C 19.464844 22.324219 19.5 22.347656 19.519531 22.332031 C 19.597656 22.277344 19.667969 22.210938 19.738281 22.144531 C 19.742188 22.164062 19.742188 22.183594 19.746094 22.203125 C 19.765625 22.289062 19.777344 22.375 19.816406 22.453125 C 19.832031 22.476562 19.875 22.46875 19.878906 22.441406 C 19.886719 22.359375 19.871094 22.277344 19.855469 22.195312 C 19.851562 22.183594 19.851562 22.171875 19.847656 22.160156 C 19.863281 22.175781 19.878906 22.1875 19.890625 22.199219 C 19.902344 22.207031 19.917969 22.210938 19.929688 22.21875 C 19.941406 22.226562 19.953125 22.234375 19.964844 22.234375 C 19.980469 22.238281 20 22.230469 20 22.210938 C 19.996094 22.199219 19.992188 22.1875 19.988281 22.179688 C 19.984375 22.171875 19.980469 22.167969 19.976562 22.160156 C 19.972656 22.15625 19.972656 22.148438 19.96875 22.144531 C 19.953125 22.121094 19.929688 22.101562 19.914062 22.082031 C 19.90625 22.078125 19.902344 22.074219 19.898438 22.066406 C 19.945312 22.0625 19.996094 22.058594 20.039062 22.039062 C 20.070312 22.023438 20.070312 21.984375 20.035156 21.976562 C 19.996094 21.964844 19.953125 21.964844 19.914062 21.96875 C 19.9375 21.941406 19.960938 21.917969 19.984375 21.890625 C 20.035156 21.839844 20.085938 21.785156 20.117188 21.71875 C 20.128906 21.691406 20.101562 21.671875 20.078125 21.683594 C 20.015625 21.71875 19.960938 21.765625 19.910156 21.816406 C 19.875 21.851562 19.839844 21.890625 19.804688 21.925781 C 19.765625 21.753906 19.730469 21.578125 19.691406 21.40625 C 19.683594 21.363281 19.601562 21.375 19.609375 21.421875 C 19.632812 21.566406 19.660156 21.714844 19.6875 21.863281 C 19.644531 21.824219 19.605469 21.785156 19.566406 21.746094 C 19.523438 21.707031 19.457031 21.773438 19.5 21.816406 C 19.558594 21.875 19.613281 21.929688 19.671875 21.988281 C 19.601562 21.992188 19.53125 22 19.460938 22.007812 C 19.40625 22.015625 19.410156 22.09375 19.464844 22.089844 Z M 19.464844 22.089844 " fill-opacity="1" fill-rule="nonzero"/><path fill="#535152" d="M 23.820312 15.101562 C 23.75 15.179688 23.703125 15.265625 23.632812 15.335938 C 23.550781 15.417969 23.457031 15.488281 23.355469 15.542969 C 23.15625 15.65625 22.933594 15.71875 22.710938 15.78125 C 22.480469 15.847656 22.246094 15.914062 22.027344 16.027344 C 21.8125 16.132812 21.640625 16.292969 21.480469 16.46875 C 21.324219 16.640625 21.179688 16.828125 20.992188 16.96875 C 20.804688 17.117188 20.582031 17.210938 20.355469 17.285156 C 19.921875 17.429688 19.460938 17.492188 19.042969 17.679688 C 18.832031 17.773438 18.628906 17.890625 18.460938 18.046875 C 18.28125 18.214844 18.167969 18.398438 18.136719 18.644531 C 18.128906 18.710938 18.226562 18.75 18.253906 18.683594 C 18.441406 18.289062 18.777344 18.019531 19.175781 17.855469 C 19.597656 17.679688 20.050781 17.621094 20.480469 17.472656 C 20.699219 17.398438 20.917969 17.300781 21.105469 17.164062 C 21.296875 17.023438 21.445312 16.84375 21.601562 16.671875 C 21.765625 16.488281 21.933594 16.320312 22.15625 16.210938 C 22.371094 16.101562 22.609375 16.042969 22.839844 15.976562 C 23.078125 15.90625 23.316406 15.828125 23.527344 15.699219 C 23.714844 15.585938 23.945312 15.410156 23.988281 15.183594 C 24.003906 15.089844 23.882812 15.03125 23.820312 15.101562 Z M 23.820312 15.101562 " fill-opacity="1" fill-rule="nonzero"/><path fill="#535152" d="M 31.949219 26.054688 C 31.628906 25.742188 31.324219 25.410156 31.039062 25.066406 C 30.398438 24.300781 29.832031 23.476562 29.3125 22.628906 C 28.195312 20.804688 27.28125 18.855469 26.527344 16.859375 C 26.320312 16.316406 26.125 15.765625 25.945312 15.214844 C 25.863281 14.953125 25.78125 14.695312 25.699219 14.433594 C 25.621094 14.175781 25.558594 13.921875 25.4375 13.683594 C 25.484375 13.460938 25.527344 13.242188 25.566406 13.023438 C 25.804688 12.804688 26.046875 12.59375 26.304688 12.402344 C 26.617188 12.167969 26.960938 11.96875 27.308594 11.792969 C 28.011719 11.429688 28.777344 11.179688 29.558594 11.070312 C 29.78125 11.039062 30.003906 11.015625 30.226562 11.007812 C 30.332031 11 30.4375 11 30.542969 11 C 30.660156 11 30.773438 11.015625 30.886719 10.984375 C 30.957031 10.964844 30.976562 10.851562 30.898438 10.824219 C 30.722656 10.757812 30.496094 10.785156 30.308594 10.792969 C 30.105469 10.800781 29.898438 10.816406 29.695312 10.839844 C 29.289062 10.890625 28.890625 10.972656 28.496094 11.089844 C 28.105469 11.207031 27.726562 11.359375 27.359375 11.539062 C 26.988281 11.722656 26.648438 11.941406 26.316406 12.1875 C 26.070312 12.367188 25.828125 12.558594 25.613281 12.777344 C 25.65625 12.53125 25.699219 12.28125 25.734375 12.035156 C 25.773438 11.757812 25.832031 11.480469 25.804688 11.203125 C 25.800781 11.15625 25.769531 11.132812 25.734375 11.125 C 25.699219 11.101562 25.65625 11.089844 25.609375 11.105469 C 25.433594 11.164062 25.269531 11.214844 25.082031 11.21875 C 24.890625 11.226562 24.703125 11.203125 24.515625 11.171875 C 24.136719 11.113281 23.757812 11.023438 23.382812 10.929688 C 22.632812 10.742188 21.890625 10.503906 21.167969 10.222656 C 20.765625 10.066406 20.378906 9.871094 19.964844 9.746094 C 19.894531 9.726562 19.832031 9.832031 19.894531 9.875 C 20.226562 10.097656 20.601562 10.246094 20.972656 10.394531 C 21.34375 10.542969 21.714844 10.679688 22.089844 10.804688 C 22.867188 11.0625 23.65625 11.261719 24.457031 11.425781 C 24.8125 11.5 25.214844 11.539062 25.566406 11.414062 C 25.53125 11.578125 25.511719 11.746094 25.484375 11.914062 C 25.445312 12.15625 25.402344 12.398438 25.359375 12.636719 C 25.273438 13.140625 25.171875 13.636719 25.0625 14.132812 C 24.828125 15.179688 24.546875 16.21875 24.222656 17.242188 C 23.601562 19.210938 22.820312 21.152344 21.75 22.925781 C 21.488281 23.367188 21.203125 23.796875 20.890625 24.203125 C 20.605469 24.578125 20.277344 24.914062 19.984375 25.28125 C 19.910156 25.371094 20.027344 25.515625 20.128906 25.4375 C 20.460938 25.183594 20.730469 24.847656 20.988281 24.519531 C 21.269531 24.160156 21.535156 23.785156 21.777344 23.398438 C 22.320312 22.550781 22.78125 21.65625 23.191406 20.738281 C 24.082031 18.761719 24.75 16.679688 25.242188 14.570312 C 25.277344 14.425781 25.308594 14.285156 25.339844 14.140625 C 25.363281 14.234375 25.390625 14.324219 25.417969 14.414062 C 25.488281 14.65625 25.558594 14.894531 25.632812 15.132812 C 25.792969 15.628906 25.964844 16.125 26.144531 16.617188 C 26.523438 17.640625 26.941406 18.644531 27.402344 19.628906 C 28.289062 21.515625 29.320312 23.367188 30.632812 24.996094 C 30.953125 25.394531 31.296875 25.78125 31.660156 26.144531 C 31.996094 26.476562 32.347656 26.824219 32.761719 27.058594 C 32.867188 27.121094 32.976562 26.96875 32.886719 26.886719 C 32.582031 26.597656 32.253906 26.34375 31.953125 26.050781 Z M 31.949219 26.054688 " fill-opacity="1" fill-rule="nonzero"/><path fill="#535152" d="M 32.292969 25.636719 C 32.761719 25.871094 33.421875 25.972656 33.910156 25.738281 C 34.199219 25.597656 34.328125 25.261719 34.402344 24.96875 C 34.503906 24.578125 34.53125 24.167969 34.535156 23.761719 C 34.542969 23.382812 34.554688 22.992188 34.457031 22.621094 C 34.4375 22.539062 34.316406 22.558594 34.296875 22.628906 C 34.214844 22.921875 34.234375 23.222656 34.226562 23.523438 C 34.21875 23.894531 34.199219 24.269531 34.136719 24.632812 C 34.09375 24.898438 34.03125 25.230469 33.835938 25.414062 C 33.8125 25.433594 33.75 25.472656 33.722656 25.480469 C 33.597656 25.523438 33.472656 25.550781 33.34375 25.554688 C 33.101562 25.570312 32.851562 25.527344 32.621094 25.445312 C 32.046875 25.246094 31.617188 24.789062 31.222656 24.34375 C 31.175781 24.289062 31.078125 24.339844 31.121094 24.40625 C 31.4375 24.894531 31.757812 25.371094 32.292969 25.636719 Z M 32.292969 25.636719 " fill-opacity="1" fill-rule="nonzero"/><g clip-path="url(#0d8327e593)"><path fill="#535152" d="M 43.371094 38.347656 C 43.328125 38.054688 43.125 37.816406 42.875 37.671875 C 42.582031 37.496094 42.222656 37.445312 41.890625 37.417969 C 41.585938 37.394531 41.28125 37.414062 40.980469 37.441406 C 40.617188 37.476562 40.257812 37.539062 39.902344 37.621094 C 39.617188 37.6875 39.332031 37.765625 39.0625 37.878906 C 39.042969 37.828125 39.027344 37.78125 39.011719 37.734375 C 38.929688 37.523438 38.84375 37.3125 38.757812 37.101562 C 38.402344 36.210938 38.046875 35.320312 37.6875 34.429688 C 36.964844 32.632812 36.234375 30.835938 35.523438 29.035156 C 35.355469 28.613281 35.257812 28.167969 35.214844 27.71875 C 35.191406 27.492188 35.171875 27.269531 35.167969 27.046875 C 35.167969 26.929688 35.171875 26.8125 35.167969 26.699219 C 35.164062 26.585938 35.144531 26.480469 35.148438 26.367188 C 35.152344 26.332031 35.097656 26.332031 35.089844 26.363281 C 35.066406 26.460938 35.027344 26.550781 35.003906 26.648438 C 34.980469 26.75 34.976562 26.855469 34.972656 26.957031 C 34.957031 27.167969 34.957031 27.378906 34.96875 27.589844 C 34.988281 28.007812 35.070312 28.433594 35.195312 28.832031 C 35.332031 29.28125 35.53125 29.714844 35.703125 30.15625 C 35.890625 30.628906 36.078125 31.101562 36.261719 31.570312 C 37.003906 33.445312 37.742188 35.316406 38.484375 37.191406 C 38.578125 37.429688 38.679688 37.667969 38.765625 37.910156 C 38.839844 38.121094 38.910156 38.335938 39.007812 38.539062 C 39.199219 38.933594 39.535156 39.289062 40.007812 39.199219 C 40.089844 39.1875 40.058594 39.070312 39.984375 39.070312 C 39.574219 39.0625 39.332031 38.613281 39.203125 38.28125 C 39.179688 38.21875 39.15625 38.152344 39.132812 38.085938 C 39.644531 37.925781 40.164062 37.792969 40.699219 37.71875 C 41.261719 37.636719 41.894531 37.550781 42.453125 37.699219 C 42.742188 37.777344 43.035156 37.945312 43.148438 38.238281 C 43.265625 38.53125 43.125 38.8125 42.921875 39.027344 C 42.707031 39.265625 42.433594 39.449219 42.171875 39.628906 C 41.90625 39.808594 41.632812 39.980469 41.355469 40.140625 C 41.027344 40.332031 40.691406 40.507812 40.347656 40.671875 C 40.179688 40.753906 40.007812 40.832031 39.835938 40.90625 C 39.789062 40.925781 39.746094 40.945312 39.699219 40.964844 C 39.6875 40.96875 39.675781 40.972656 39.664062 40.976562 C 39.503906 41.035156 39.34375 41.089844 39.183594 41.144531 C 38.875 41.246094 38.5625 41.339844 38.25 41.421875 C 37.632812 41.578125 36.988281 41.726562 36.351562 41.761719 C 36.082031 41.777344 35.777344 41.769531 35.554688 41.605469 C 35.34375 41.449219 35.273438 41.171875 35.3125 40.921875 C 35.359375 40.636719 35.523438 40.390625 35.714844 40.183594 C 35.914062 39.964844 36.132812 39.765625 36.371094 39.585938 C 36.875 39.199219 37.421875 38.90625 37.992188 38.632812 C 38.054688 38.804688 38.117188 38.980469 38.167969 39.15625 C 38.207031 39.28125 38.261719 39.421875 38.214844 39.550781 C 38.179688 39.648438 38.09375 39.738281 38.015625 39.800781 C 37.929688 39.867188 37.992188 39.980469 38.09375 39.960938 C 38.285156 39.917969 38.414062 39.773438 38.464844 39.585938 C 38.527344 39.359375 38.414062 39.105469 38.34375 38.890625 C 38.1875 38.417969 37.992188 37.960938 37.796875 37.503906 C 37.386719 36.550781 37.011719 35.585938 36.628906 34.625 C 36.246094 33.667969 35.851562 32.71875 35.457031 31.765625 C 35.257812 31.289062 35.0625 30.816406 34.875 30.339844 C 34.691406 29.878906 34.527344 29.414062 34.339844 28.957031 C 34.203125 28.617188 33.980469 28.308594 33.769531 28.015625 C 33.710938 27.9375 33.648438 27.859375 33.585938 27.78125 C 33.519531 27.699219 33.4375 27.632812 33.371094 27.550781 C 33.265625 27.425781 33.160156 27.304688 33.054688 27.179688 C 33.019531 27.144531 32.953125 27.179688 32.984375 27.226562 C 33.066406 27.335938 33.144531 27.445312 33.222656 27.554688 C 33.320312 27.691406 33.398438 27.835938 33.492188 27.976562 C 33.683594 28.257812 33.886719 28.527344 34.046875 28.828125 C 34.121094 28.96875 34.171875 29.121094 34.230469 29.273438 C 34.316406 29.5 34.402344 29.730469 34.492188 29.957031 C 34.671875 30.421875 34.855469 30.882812 35.046875 31.34375 C 35.421875 32.257812 35.808594 33.167969 36.175781 34.085938 C 36.550781 35.023438 36.914062 35.960938 37.289062 36.894531 C 37.492188 37.394531 37.707031 37.882812 37.902344 38.382812 C 37.90625 38.394531 37.910156 38.410156 37.917969 38.425781 C 37.335938 38.628906 36.773438 38.960938 36.292969 39.335938 C 35.828125 39.703125 35.296875 40.183594 35.144531 40.78125 C 35.078125 41.039062 35.101562 41.328125 35.253906 41.554688 C 35.40625 41.777344 35.660156 41.882812 35.921875 41.917969 C 36.226562 41.960938 36.535156 41.917969 36.839844 41.878906 C 37.195312 41.835938 37.550781 41.777344 37.90625 41.703125 C 38.292969 41.621094 38.679688 41.519531 39.058594 41.402344 C 39.257812 41.34375 39.453125 41.273438 39.648438 41.203125 C 39.664062 41.195312 39.683594 41.191406 39.699219 41.183594 C 39.710938 41.179688 39.726562 41.175781 39.738281 41.171875 C 39.804688 41.144531 39.875 41.117188 39.945312 41.085938 C 40.09375 41.019531 40.242188 40.953125 40.390625 40.882812 C 40.726562 40.722656 41.054688 40.546875 41.378906 40.355469 C 41.691406 40.171875 41.996094 39.976562 42.292969 39.761719 C 42.5625 39.570312 42.847656 39.375 43.070312 39.125 C 43.261719 38.914062 43.414062 38.640625 43.371094 38.34375 Z M 43.371094 38.347656 " fill-opacity="1" fill-rule="nonzero"/></g><path fill="#535152" d="M 29.648438 12.300781 C 28.890625 12.605469 28.113281 12.863281 27.324219 13.066406 C 26.875 13.183594 26.410156 13.253906 25.96875 13.402344 C 25.886719 13.429688 25.910156 13.546875 25.996094 13.546875 C 26.414062 13.535156 26.824219 13.425781 27.230469 13.328125 C 27.648438 13.226562 28.0625 13.113281 28.472656 12.980469 C 29.246094 12.738281 30.027344 12.453125 30.753906 12.085938 C 31.035156 11.945312 31.34375 11.738281 31.53125 11.46875 C 31.59375 11.613281 31.667969 11.75 31.738281 11.894531 C 31.851562 12.117188 31.957031 12.34375 32.066406 12.570312 C 32.28125 13.03125 32.488281 13.496094 32.683594 13.964844 C 32.78125 14.191406 32.871094 14.421875 32.964844 14.648438 C 32.8125 14.777344 32.664062 14.90625 32.515625 15.039062 C 32.464844 15.082031 32.414062 15.128906 32.363281 15.171875 C 32.222656 14.847656 32.074219 14.523438 31.929688 14.199219 C 31.898438 14.132812 31.785156 14.164062 31.8125 14.234375 C 31.929688 14.550781 32.046875 14.867188 32.164062 15.179688 C 31.996094 15.085938 31.828125 14.988281 31.660156 14.894531 C 31.578125 14.84375 31.472656 14.976562 31.558594 15.035156 C 31.742188 15.15625 31.925781 15.277344 32.109375 15.398438 C 31.953125 15.535156 31.796875 15.675781 31.644531 15.816406 C 31.597656 15.859375 31.609375 15.933594 31.652344 15.972656 C 31.703125 16.019531 31.773438 16.003906 31.820312 15.964844 C 31.984375 15.828125 32.144531 15.691406 32.308594 15.554688 C 32.390625 15.761719 32.472656 15.972656 32.558594 16.179688 C 32.632812 16.363281 32.699219 16.613281 32.851562 16.746094 C 32.890625 16.78125 32.945312 16.746094 32.949219 16.699219 C 32.960938 16.589844 32.90625 16.472656 32.871094 16.371094 C 32.832031 16.269531 32.792969 16.171875 32.75 16.070312 C 32.699219 15.949219 32.648438 15.832031 32.597656 15.710938 C 32.675781 15.761719 32.753906 15.8125 32.832031 15.859375 C 32.96875 15.945312 33.128906 16.046875 33.292969 16.066406 C 33.339844 16.074219 33.386719 16.027344 33.355469 15.980469 C 33.273438 15.847656 33.117188 15.757812 32.992188 15.675781 C 32.84375 15.582031 32.695312 15.492188 32.546875 15.40625 C 32.535156 15.398438 32.519531 15.390625 32.507812 15.382812 C 32.574219 15.324219 32.644531 15.265625 32.710938 15.207031 C 32.828125 15.105469 32.945312 15.003906 33.0625 14.902344 C 33.328125 15.589844 33.574219 16.289062 33.796875 16.992188 C 34.429688 18.976562 34.917969 21.03125 35.070312 23.113281 C 35.105469 23.628906 35.121094 24.144531 35.101562 24.664062 C 35.085938 25.132812 35.015625 25.59375 34.988281 26.0625 C 34.980469 26.191406 35.175781 26.1875 35.207031 26.082031 C 35.332031 25.679688 35.351562 25.246094 35.371094 24.828125 C 35.394531 24.371094 35.390625 23.914062 35.367188 23.457031 C 35.316406 22.449219 35.171875 21.449219 34.976562 20.457031 C 34.59375 18.496094 34.007812 16.570312 33.28125 14.707031 C 33.378906 14.625 33.472656 14.527344 33.511719 14.414062 C 33.53125 14.359375 33.464844 14.328125 33.421875 14.335938 C 33.339844 14.355469 33.257812 14.402344 33.183594 14.460938 C 33.15625 14.390625 33.128906 14.320312 33.101562 14.253906 C 32.882812 13.710938 32.648438 13.175781 32.402344 12.644531 C 32.28125 12.386719 32.15625 12.128906 32.027344 11.875 C 31.902344 11.628906 31.785156 11.375 31.605469 11.164062 C 31.589844 11.140625 31.5625 11.132812 31.539062 11.132812 C 31.488281 11.113281 31.433594 11.117188 31.394531 11.171875 C 31.296875 11.304688 31.199219 11.433594 31.074219 11.546875 C 30.949219 11.65625 30.808594 11.746094 30.664062 11.832031 C 30.339844 12.019531 29.992188 12.164062 29.648438 12.304688 Z M 29.648438 12.300781 " fill-opacity="1" fill-rule="nonzero"/><path fill="#535152" d="M 27.816406 18.710938 C 27.917969 19.054688 28.023438 19.382812 28.167969 19.707031 C 28.3125 20.039062 28.460938 20.367188 28.617188 20.695312 C 28.929688 21.34375 29.265625 21.984375 29.648438 22.59375 C 29.75 22.757812 29.855469 22.921875 29.960938 23.085938 C 30.0625 23.238281 30.171875 23.433594 30.320312 23.546875 C 30.355469 23.570312 30.402344 23.542969 30.390625 23.503906 C 30.351562 23.355469 30.242188 23.210938 30.164062 23.082031 C 30.070312 22.933594 29.980469 22.785156 29.890625 22.636719 C 29.714844 22.332031 29.546875 22.019531 29.378906 21.710938 C 29.039062 21.070312 28.71875 20.417969 28.425781 19.753906 C 28.347656 19.578125 28.269531 19.394531 28.1875 19.21875 C 28.105469 19.035156 28.003906 18.859375 27.910156 18.679688 C 27.886719 18.628906 27.800781 18.648438 27.816406 18.710938 Z M 27.816406 18.710938 " fill-opacity="1" fill-rule="nonzero"/><path fill="#535152" d="M 32.691406 20.101562 C 32.667969 20.117188 32.644531 20.132812 32.628906 20.152344 C 32.625 20.15625 32.621094 20.164062 32.613281 20.167969 C 32.597656 20.15625 32.574219 20.160156 32.558594 20.175781 C 32.472656 20.257812 32.453125 20.386719 32.5 20.496094 C 32.550781 20.605469 32.660156 20.671875 32.78125 20.671875 C 32.898438 20.671875 33.007812 20.609375 33.058594 20.503906 C 33.105469 20.398438 33.097656 20.269531 33.023438 20.179688 C 32.945312 20.085938 32.800781 20.042969 32.691406 20.105469 Z M 32.917969 20.511719 C 32.882812 20.546875 32.835938 20.5625 32.785156 20.5625 C 32.769531 20.5625 32.730469 20.554688 32.71875 20.550781 C 32.703125 20.542969 32.691406 20.539062 32.679688 20.53125 C 32.675781 20.527344 32.675781 20.527344 32.671875 20.527344 C 32.671875 20.527344 32.671875 20.527344 32.667969 20.523438 C 32.664062 20.519531 32.65625 20.515625 32.652344 20.507812 C 32.613281 20.476562 32.59375 20.425781 32.589844 20.375 C 32.589844 20.339844 32.59375 20.308594 32.605469 20.273438 C 32.621094 20.289062 32.644531 20.292969 32.664062 20.28125 C 32.679688 20.273438 32.6875 20.253906 32.695312 20.246094 C 32.703125 20.234375 32.714844 20.226562 32.726562 20.214844 C 32.75 20.191406 32.800781 20.171875 32.839844 20.179688 C 32.886719 20.1875 32.925781 20.222656 32.949219 20.265625 C 32.996094 20.339844 32.976562 20.445312 32.914062 20.507812 Z M 32.917969 20.511719 " fill-opacity="1" fill-rule="nonzero"/><path fill="#535152" d="M 32.902344 19.363281 C 32.839844 19.355469 32.769531 19.386719 32.742188 19.449219 C 32.734375 19.460938 32.738281 19.476562 32.75 19.484375 C 32.761719 19.488281 32.777344 19.488281 32.785156 19.480469 C 32.789062 19.476562 32.792969 19.472656 32.796875 19.46875 C 32.796875 19.464844 32.800781 19.464844 32.800781 19.460938 C 32.808594 19.460938 32.8125 19.457031 32.816406 19.453125 C 32.816406 19.453125 32.820312 19.453125 32.820312 19.453125 C 32.824219 19.453125 32.824219 19.449219 32.824219 19.449219 C 32.828125 19.449219 32.835938 19.445312 32.839844 19.445312 C 32.84375 19.445312 32.847656 19.445312 32.847656 19.441406 C 32.847656 19.441406 32.847656 19.441406 32.851562 19.441406 C 32.855469 19.441406 32.859375 19.441406 32.863281 19.441406 C 32.867188 19.441406 32.875 19.445312 32.878906 19.441406 C 32.878906 19.441406 32.882812 19.441406 32.886719 19.441406 C 32.890625 19.441406 32.894531 19.445312 32.898438 19.445312 C 32.902344 19.445312 32.902344 19.445312 32.90625 19.445312 C 32.910156 19.445312 32.910156 19.449219 32.910156 19.449219 C 32.914062 19.449219 32.917969 19.453125 32.921875 19.453125 C 32.921875 19.453125 32.921875 19.453125 32.925781 19.453125 C 32.925781 19.453125 32.925781 19.453125 32.925781 19.457031 C 32.929688 19.457031 32.933594 19.460938 32.9375 19.464844 C 32.941406 19.464844 32.9375 19.464844 32.9375 19.464844 C 32.941406 19.464844 32.941406 19.46875 32.941406 19.46875 C 32.945312 19.472656 32.945312 19.480469 32.949219 19.484375 C 32.949219 19.488281 32.953125 19.488281 32.953125 19.492188 C 32.953125 19.496094 32.953125 19.5 32.957031 19.503906 C 32.957031 19.507812 32.957031 19.507812 32.957031 19.511719 C 32.957031 19.515625 32.957031 19.519531 32.957031 19.527344 C 32.957031 19.53125 32.957031 19.53125 32.957031 19.535156 C 32.957031 19.539062 32.953125 19.542969 32.953125 19.546875 C 32.953125 19.550781 32.953125 19.554688 32.949219 19.554688 C 32.949219 19.558594 32.945312 19.566406 32.945312 19.570312 C 32.945312 19.570312 32.9375 19.582031 32.9375 19.582031 C 32.9375 19.582031 32.9375 19.582031 32.941406 19.578125 C 32.9375 19.582031 32.9375 19.582031 32.933594 19.585938 C 32.929688 19.589844 32.925781 19.59375 32.921875 19.597656 C 32.921875 19.597656 32.921875 19.601562 32.917969 19.601562 C 32.917969 19.605469 32.910156 19.609375 32.90625 19.609375 C 32.902344 19.609375 32.898438 19.613281 32.898438 19.613281 C 32.894531 19.613281 32.890625 19.613281 32.890625 19.613281 C 32.882812 19.613281 32.878906 19.613281 32.875 19.613281 C 32.871094 19.613281 32.871094 19.613281 32.871094 19.613281 C 32.867188 19.613281 32.863281 19.613281 32.859375 19.613281 C 32.859375 19.613281 32.855469 19.613281 32.855469 19.609375 C 32.851562 19.609375 32.851562 19.609375 32.851562 19.609375 C 32.851562 19.609375 32.851562 19.609375 32.847656 19.609375 C 32.84375 19.605469 32.839844 19.605469 32.832031 19.601562 C 32.832031 19.601562 32.828125 19.601562 32.828125 19.601562 C 32.828125 19.601562 32.820312 19.597656 32.820312 19.59375 C 32.816406 19.589844 32.8125 19.585938 32.808594 19.582031 C 32.808594 19.582031 32.808594 19.582031 32.804688 19.582031 C 32.804688 19.578125 32.800781 19.578125 32.800781 19.574219 C 32.796875 19.570312 32.796875 19.566406 32.792969 19.5625 C 32.789062 19.5625 32.789062 19.5625 32.792969 19.5625 C 32.792969 19.5625 32.789062 19.5625 32.789062 19.558594 C 32.785156 19.550781 32.777344 19.542969 32.769531 19.539062 C 32.773438 19.542969 32.773438 19.546875 32.777344 19.550781 C 32.777344 19.542969 32.777344 19.542969 32.773438 19.535156 C 32.769531 19.53125 32.765625 19.523438 32.761719 19.519531 C 32.757812 19.507812 32.738281 19.507812 32.734375 19.519531 C 32.730469 19.53125 32.726562 19.535156 32.726562 19.546875 C 32.726562 19.550781 32.726562 19.558594 32.726562 19.5625 C 32.726562 19.578125 32.730469 19.589844 32.738281 19.605469 C 32.742188 19.617188 32.753906 19.628906 32.765625 19.640625 C 32.789062 19.660156 32.816406 19.671875 32.847656 19.679688 C 32.851562 19.683594 32.859375 19.683594 32.863281 19.683594 C 32.867188 19.683594 32.882812 19.6875 32.871094 19.683594 C 32.878906 19.683594 32.882812 19.683594 32.890625 19.683594 C 32.90625 19.683594 32.921875 19.683594 32.933594 19.679688 C 32.960938 19.671875 32.988281 19.652344 33.007812 19.628906 C 33.042969 19.582031 33.054688 19.515625 33.035156 19.460938 C 33.015625 19.402344 32.960938 19.363281 32.902344 19.359375 Z M 32.902344 19.363281 " fill-opacity="1" fill-rule="nonzero"/><path fill="#535152" d="M 29.171875 19.839844 C 29.25 19.929688 29.367188 19.984375 29.484375 19.929688 C 29.613281 19.875 29.699219 19.730469 29.648438 19.589844 C 29.605469 19.46875 29.488281 19.371094 29.359375 19.371094 C 29.285156 19.367188 29.214844 19.394531 29.160156 19.4375 C 29.132812 19.460938 29.105469 19.488281 29.089844 19.523438 C 29.082031 19.539062 29.074219 19.558594 29.066406 19.574219 C 29.066406 19.585938 29.066406 19.597656 29.066406 19.609375 C 29.058594 19.695312 29.117188 19.785156 29.171875 19.84375 Z M 29.21875 19.523438 C 29.25 19.492188 29.289062 19.464844 29.335938 19.457031 C 29.421875 19.441406 29.507812 19.507812 29.53125 19.589844 C 29.558594 19.675781 29.527344 19.765625 29.453125 19.8125 C 29.445312 19.820312 29.4375 19.824219 29.429688 19.824219 C 29.425781 19.828125 29.421875 19.828125 29.414062 19.832031 C 29.414062 19.832031 29.40625 19.832031 29.402344 19.832031 C 29.394531 19.835938 29.382812 19.835938 29.375 19.835938 C 29.371094 19.835938 29.367188 19.835938 29.367188 19.835938 C 29.363281 19.835938 29.359375 19.832031 29.351562 19.832031 C 29.347656 19.832031 29.34375 19.828125 29.34375 19.828125 C 29.332031 19.824219 29.324219 19.820312 29.316406 19.8125 C 29.316406 19.8125 29.3125 19.8125 29.3125 19.8125 C 29.308594 19.808594 29.304688 19.804688 29.300781 19.804688 C 29.289062 19.796875 29.28125 19.789062 29.273438 19.78125 C 29.234375 19.75 29.207031 19.722656 29.179688 19.683594 C 29.171875 19.664062 29.164062 19.652344 29.160156 19.632812 C 29.15625 19.628906 29.15625 19.621094 29.15625 19.617188 C 29.160156 19.613281 29.160156 19.609375 29.160156 19.609375 C 29.167969 19.597656 29.171875 19.589844 29.175781 19.578125 C 29.1875 19.558594 29.203125 19.542969 29.21875 19.527344 Z M 29.21875 19.523438 " fill-opacity="1" fill-rule="nonzero"/><path fill="#535152" d="M 31.171875 23.058594 C 31.175781 23.082031 31.183594 23.109375 31.199219 23.128906 C 31.230469 23.175781 31.28125 23.203125 31.335938 23.203125 C 31.390625 23.207031 31.445312 23.175781 31.484375 23.136719 C 31.519531 23.101562 31.546875 23.050781 31.550781 23 C 31.5625 22.894531 31.515625 22.78125 31.410156 22.742188 C 31.3125 22.707031 31.191406 22.734375 31.136719 22.824219 C 31.109375 22.867188 31.101562 22.929688 31.117188 22.980469 C 31.128906 23.007812 31.148438 23.039062 31.171875 23.058594 Z M 31.320312 22.835938 C 31.3125 22.835938 31.316406 22.835938 31.320312 22.835938 Z M 31.226562 22.890625 C 31.226562 22.890625 31.226562 22.890625 31.226562 22.886719 C 31.226562 22.882812 31.230469 22.882812 31.230469 22.878906 C 31.230469 22.878906 31.234375 22.875 31.234375 22.871094 C 31.234375 22.871094 31.238281 22.867188 31.238281 22.867188 C 31.242188 22.863281 31.242188 22.863281 31.246094 22.859375 C 31.246094 22.859375 31.25 22.855469 31.25 22.855469 C 31.257812 22.851562 31.261719 22.847656 31.269531 22.84375 C 31.269531 22.84375 31.273438 22.84375 31.273438 22.84375 C 31.277344 22.839844 31.28125 22.839844 31.285156 22.839844 C 31.285156 22.839844 31.289062 22.835938 31.292969 22.835938 C 31.292969 22.835938 31.296875 22.835938 31.296875 22.835938 C 31.304688 22.835938 31.3125 22.835938 31.320312 22.835938 C 31.328125 22.835938 31.332031 22.839844 31.335938 22.839844 C 31.339844 22.839844 31.34375 22.84375 31.347656 22.84375 C 31.355469 22.84375 31.363281 22.847656 31.371094 22.851562 C 31.371094 22.851562 31.371094 22.851562 31.371094 22.855469 C 31.375 22.855469 31.378906 22.859375 31.382812 22.863281 C 31.382812 22.867188 31.386719 22.867188 31.390625 22.871094 C 31.390625 22.871094 31.394531 22.875 31.394531 22.875 C 31.398438 22.882812 31.402344 22.890625 31.40625 22.894531 C 31.410156 22.898438 31.417969 22.914062 31.410156 22.898438 C 31.410156 22.902344 31.414062 22.90625 31.414062 22.90625 C 31.417969 22.914062 31.421875 22.925781 31.421875 22.933594 C 31.421875 22.9375 31.425781 22.941406 31.425781 22.945312 C 31.421875 22.929688 31.425781 22.949219 31.425781 22.953125 C 31.425781 22.960938 31.425781 22.96875 31.425781 22.976562 C 31.425781 22.980469 31.425781 22.996094 31.425781 22.980469 C 31.425781 22.980469 31.425781 22.984375 31.425781 22.988281 C 31.425781 22.996094 31.421875 23.003906 31.417969 23.011719 C 31.417969 23.015625 31.417969 23.019531 31.417969 23.019531 C 31.417969 23.019531 31.414062 23.03125 31.410156 23.035156 C 31.40625 23.039062 31.402344 23.046875 31.402344 23.050781 C 31.398438 23.054688 31.398438 23.054688 31.398438 23.054688 C 31.394531 23.058594 31.390625 23.0625 31.386719 23.066406 C 31.386719 23.066406 31.382812 23.070312 31.378906 23.074219 C 31.375 23.078125 31.371094 23.082031 31.367188 23.082031 C 31.363281 23.082031 31.355469 23.085938 31.355469 23.089844 C 31.351562 23.089844 31.351562 23.089844 31.351562 23.089844 C 31.34375 23.09375 31.339844 23.09375 31.332031 23.09375 C 31.328125 23.09375 31.324219 23.09375 31.316406 23.09375 C 31.3125 23.09375 31.304688 23.09375 31.304688 23.09375 C 31.296875 23.089844 31.289062 23.085938 31.285156 23.082031 C 31.28125 23.082031 31.277344 23.078125 31.277344 23.078125 C 31.273438 23.074219 31.269531 23.074219 31.269531 23.070312 C 31.269531 23.070312 31.261719 23.0625 31.261719 23.0625 C 31.261719 23.054688 31.261719 23.042969 31.257812 23.035156 C 31.257812 23.03125 31.253906 23.023438 31.253906 23.023438 C 31.253906 23.019531 31.25 23.019531 31.25 23.019531 C 31.25 23.015625 31.25 23.015625 31.25 23.011719 C 31.253906 22.992188 31.242188 22.976562 31.222656 22.972656 C 31.222656 22.96875 31.222656 22.96875 31.21875 22.964844 C 31.21875 22.964844 31.21875 22.960938 31.21875 22.960938 C 31.21875 22.957031 31.21875 22.953125 31.21875 22.949219 C 31.214844 22.941406 31.214844 22.933594 31.214844 22.925781 C 31.214844 22.921875 31.214844 22.917969 31.214844 22.917969 C 31.214844 22.914062 31.214844 22.917969 31.214844 22.914062 C 31.21875 22.90625 31.21875 22.898438 31.222656 22.890625 Z M 31.226562 22.890625 " fill-opacity="1" fill-rule="nonzero"/><path fill="#535152" d="M 30.800781 21.351562 C 30.910156 21.351562 31.015625 21.359375 31.125 21.371094 C 31.226562 21.382812 31.335938 21.410156 31.4375 21.398438 C 31.460938 21.394531 31.484375 21.359375 31.457031 21.34375 C 31.371094 21.28125 31.242188 21.265625 31.140625 21.257812 C 31.039062 21.246094 30.9375 21.242188 30.835938 21.242188 C 30.851562 21.21875 30.863281 21.191406 30.878906 21.164062 C 30.933594 21.078125 31 20.992188 31.023438 20.890625 C 31.03125 20.863281 31 20.847656 30.976562 20.859375 C 30.886719 20.914062 30.828125 21.015625 30.773438 21.105469 C 30.746094 21.152344 30.71875 21.199219 30.691406 21.25 C 30.6875 21.25 30.679688 21.25 30.675781 21.25 C 30.597656 21.035156 30.511719 20.820312 30.425781 20.605469 C 30.410156 20.566406 30.347656 20.582031 30.359375 20.625 C 30.417969 20.839844 30.484375 21.054688 30.550781 21.265625 C 30.410156 21.285156 30.269531 21.316406 30.128906 21.359375 C 30.082031 21.375 30.105469 21.441406 30.15625 21.429688 C 30.296875 21.398438 30.4375 21.375 30.582031 21.363281 C 30.589844 21.386719 30.597656 21.40625 30.601562 21.429688 C 30.511719 21.628906 30.4375 21.839844 30.398438 22.058594 C 30.390625 22.109375 30.464844 22.121094 30.480469 22.074219 C 30.535156 21.914062 30.589844 21.75 30.65625 21.59375 C 30.691406 21.691406 30.722656 21.785156 30.753906 21.882812 C 30.796875 22.003906 30.828125 22.160156 30.921875 22.253906 C 30.9375 22.269531 30.976562 22.261719 30.980469 22.234375 C 31 22.105469 30.929688 21.960938 30.886719 21.839844 C 30.839844 21.703125 30.789062 21.566406 30.742188 21.433594 C 30.742188 21.429688 30.742188 21.425781 30.738281 21.421875 C 30.75 21.402344 30.761719 21.378906 30.773438 21.355469 C 30.785156 21.355469 30.792969 21.355469 30.804688 21.355469 Z M 30.800781 21.351562 " fill-opacity="1" fill-rule="nonzero"/><path fill="#535152" d="M 32.824219 17.691406 C 32.691406 17.761719 32.582031 17.847656 32.425781 17.863281 C 32.265625 17.882812 32.105469 17.859375 31.949219 17.820312 C 31.59375 17.734375 31.214844 17.605469 30.851562 17.742188 C 30.699219 17.796875 30.554688 17.882812 30.410156 17.953125 C 30.257812 18.035156 30.125 18.140625 29.953125 18.175781 C 29.5625 18.253906 29.191406 18.03125 28.808594 17.988281 C 28.488281 17.953125 28.078125 17.996094 27.929688 18.328125 C 27.890625 18.414062 28 18.484375 28.066406 18.417969 C 28.292969 18.195312 28.621094 18.175781 28.917969 18.234375 C 29.296875 18.3125 29.671875 18.480469 30.066406 18.371094 C 30.21875 18.328125 30.375 18.246094 30.503906 18.152344 C 30.570312 18.101562 30.621094 18.039062 30.691406 17.992188 C 30.765625 17.941406 30.84375 17.898438 30.929688 17.863281 C 31.320312 17.714844 31.691406 17.976562 32.070312 18.058594 C 32.335938 18.113281 32.867188 18.117188 32.941406 17.769531 C 32.953125 17.699219 32.878906 17.667969 32.824219 17.695312 Z M 32.824219 17.691406 " fill-opacity="1" fill-rule="nonzero"/><path fill="#535152" d="M 33.71875 19.429688 C 33.863281 19.894531 33.953125 20.378906 34.082031 20.847656 C 34.09375 20.882812 34.148438 20.871094 34.148438 20.835938 C 34.125 20.34375 33.992188 19.855469 33.855469 19.386719 C 33.71875 18.917969 33.550781 18.433594 33.300781 18.015625 C 33.285156 17.992188 33.242188 18.011719 33.25 18.039062 C 33.320312 18.269531 33.410156 18.492188 33.492188 18.71875 C 33.574219 18.953125 33.648438 19.191406 33.71875 19.429688 Z M 33.71875 19.429688 " fill-opacity="1" fill-rule="nonzero"/></svg>