<svg xmlns="http://www.w3.org/2000/svg" xmlns:xlink="http://www.w3.org/1999/xlink" width="70" zoomAndPan="magnify" viewBox="0 0 52.5 52.499999" height="70" preserveAspectRatio="xMidYMid meet" version="1.0"><defs><clipPath id="bcdaada90c"><path d="M 3.195312 9.816406 L 48.496094 9.816406 L 48.496094 42.179688 L 3.195312 42.179688 Z M 3.195312 9.816406 " clip-rule="nonzero"/></clipPath></defs><g clip-path="url(#bcdaada90c)"><path fill="#5f2879" d="M 47.339844 39.769531 C 43.917969 36.640625 36.304688 29.8125 31.007812 26 C 36.300781 22.191406 43.914062 15.355469 47.339844 12.226562 Z M 5.796875 40.707031 C 10.867188 36.015625 17.742188 30.007812 22.132812 26.875 C 23.824219 27.996094 25.195312 28.695312 25.996094 28.703125 C 26.722656 28.703125 28.074219 28.003906 29.75 26.878906 C 33.996094 29.945312 40.796875 35.792969 46.183594 40.707031 Z M 4.664062 12.246094 C 8.046875 15.382812 15.539062 22.195312 20.863281 25.996094 C 15.539062 29.800781 8.046875 36.609375 4.664062 39.75 Z M 46.183594 11.289062 C 38.496094 18.300781 27.832031 27.234375 25.996094 27.234375 C 24.160156 27.234375 12.960938 17.921875 5.796875 11.289062 Z M 48.074219 9.816406 L 3.929688 9.816406 C 3.6875 9.816406 3.191406 10.015625 3.195312 10.550781 L 3.195312 41.441406 C 3.191406 41.746094 3.449219 42.175781 3.929688 42.179688 L 48.074219 42.179688 C 48.671875 42.195312 48.816406 41.777344 48.808594 41.441406 L 48.808594 10.550781 C 48.816406 10.339844 48.691406 9.808594 48.074219 9.816406 " fill-opacity="1" fill-rule="nonzero"/></g></svg>