<svg xmlns="http://www.w3.org/2000/svg" xmlns:xlink="http://www.w3.org/1999/xlink" width="70" zoomAndPan="magnify" viewBox="0 0 52.5 52.499999" height="70" preserveAspectRatio="xMidYMid meet" version="1.0"><defs><clipPath id="eb57c5c69f"><path d="M 6.367188 4.0625 L 45.742188 4.0625 L 45.742188 47.894531 L 6.367188 47.894531 Z M 6.367188 4.0625 " clip-rule="nonzero"/></clipPath></defs><g clip-path="url(#eb57c5c69f)"><path fill="#02311f" d="M 44.125 25.140625 L 29.488281 25.140625 L 29.488281 18.542969 L 44.125 18.542969 Z M 41.433594 46.421875 L 29.488281 46.421875 L 29.488281 26.652344 L 41.433594 26.652344 Z M 24.023438 46.421875 L 24.023438 26.652344 L 27.976562 26.652344 L 27.976562 46.421875 Z M 10.566406 26.652344 L 22.511719 26.652344 L 22.511719 46.421875 L 10.566406 46.421875 Z M 7.875 18.542969 L 22.511719 18.542969 L 22.511719 25.140625 L 7.875 25.140625 Z M 12.53125 9.796875 C 12.375 8.8125 13.511719 7.664062 14.339844 6.824219 C 15.117188 6.042969 15.800781 5.664062 16.488281 5.632812 C 17.347656 5.597656 18.332031 6.125 19.421875 7.203125 C 20.601562 8.375 22.390625 10.570312 23.726562 12.839844 C 24.371094 13.933594 24.820312 14.910156 25.027344 15.660156 C 25.117188 15.972656 25.15625 16.226562 25.160156 16.417969 L 14.5625 11.757812 C 13.703125 11.3125 12.664062 10.617188 12.53125 9.796875 Z M 26.890625 15.660156 C 27.101562 14.910156 27.550781 13.933594 28.195312 12.839844 C 29.527344 10.570312 31.320312 8.375 32.5 7.203125 C 33.585938 6.125 34.574219 5.597656 35.429688 5.632812 C 36.121094 5.664062 36.800781 6.042969 37.578125 6.824219 C 38.410156 7.664062 39.546875 8.8125 39.386719 9.796875 C 39.257812 10.617188 38.21875 11.3125 37.359375 11.757812 L 26.761719 16.417969 C 26.765625 16.226562 26.804688 15.972656 26.890625 15.660156 Z M 27.976562 25.140625 L 24.023438 25.140625 L 24.023438 18.542969 L 27.976562 18.542969 Z M 44.878906 17.03125 L 29.121094 17.03125 L 37.988281 13.128906 C 38.003906 13.125 38.015625 13.117188 38.027344 13.109375 C 39.757812 12.222656 40.691406 11.21875 40.878906 10.035156 C 41.15625 8.292969 39.710938 6.832031 38.652344 5.761719 C 37.605469 4.707031 36.574219 4.171875 35.496094 4.125 C 34.183594 4.070312 32.855469 4.726562 31.4375 6.128906 C 29.933594 7.621094 28.105469 10.007812 26.890625 12.074219 C 26.519531 12.707031 26.207031 13.300781 25.960938 13.847656 C 25.710938 13.300781 25.402344 12.707031 25.027344 12.074219 C 23.8125 10.007812 21.988281 7.621094 20.484375 6.128906 C 19.066406 4.726562 17.738281 4.070312 16.425781 4.125 C 15.347656 4.171875 14.316406 4.707031 13.269531 5.761719 C 12.210938 6.832031 10.761719 8.292969 11.039062 10.035156 C 11.230469 11.21875 12.164062 12.222656 13.890625 13.109375 C 13.90625 13.117188 13.917969 13.125 13.933594 13.128906 L 22.800781 17.03125 L 7.121094 17.03125 C 6.703125 17.03125 6.363281 17.371094 6.363281 17.789062 L 6.363281 25.894531 C 6.363281 26.3125 6.703125 26.652344 7.121094 26.652344 L 9.058594 26.652344 L 9.058594 47.179688 C 9.058594 47.59375 9.394531 47.933594 9.8125 47.933594 L 42.1875 47.933594 C 42.605469 47.933594 42.941406 47.59375 42.941406 47.179688 L 42.941406 26.652344 L 44.878906 26.652344 C 45.296875 26.652344 45.636719 26.3125 45.636719 25.894531 L 45.636719 17.789062 C 45.636719 17.371094 45.296875 17.03125 44.878906 17.03125 " fill-opacity="1" fill-rule="nonzero"/></g></svg>