<svg xmlns="http://www.w3.org/2000/svg" xmlns:xlink="http://www.w3.org/1999/xlink" width="70" zoomAndPan="magnify" viewBox="0 0 52.5 52.499999" height="70" preserveAspectRatio="xMidYMid meet" version="1.0"><defs><clipPath id="cc82646e7e"><path d="M 5.199219 4.300781 L 46.804688 4.300781 L 46.804688 47.390625 L 5.199219 47.390625 Z M 5.199219 4.300781 " clip-rule="nonzero"/></clipPath></defs><g clip-path="url(#cc82646e7e)"><path fill="#000000" d="M 38.417969 13.566406 L 38.324219 13.667969 C 38.195312 13.738281 38.09375 13.84375 38.027344 13.972656 L 37.011719 15.035156 C 36.914062 15.070312 36.820312 15.121094 36.742188 15.195312 C 36.65625 15.28125 36.609375 15.382812 36.574219 15.488281 L 23.941406 28.644531 C 23.8125 28.78125 23.742188 28.953125 23.742188 29.140625 L 23.742188 44.199219 C 23.742188 44.574219 24.039062 44.886719 24.414062 44.90625 L 34.746094 45.480469 C 34.953125 45.492188 35.113281 45.660156 35.113281 45.863281 C 35.113281 46.078125 34.941406 46.25 34.726562 46.25 L 11.339844 46.25 C 11.128906 46.25 10.957031 46.078125 10.957031 45.863281 C 10.957031 45.660156 11.113281 45.492188 11.320312 45.480469 L 21.652344 44.90625 C 22.027344 44.886719 22.324219 44.574219 22.324219 44.199219 L 22.324219 29.140625 C 22.324219 28.953125 22.253906 28.78125 22.125 28.644531 L 7.648438 13.566406 Z M 36.53125 5.753906 C 41.234375 5.753906 45.058594 9.578125 45.058594 14.277344 C 45.058594 18.980469 41.234375 22.804688 36.53125 22.804688 C 35.113281 22.804688 33.730469 22.453125 32.496094 21.789062 L 33.019531 21.242188 C 34.105469 21.792969 35.308594 22.09375 36.53125 22.09375 C 40.84375 22.09375 44.347656 18.589844 44.347656 14.277344 C 44.347656 9.96875 40.84375 6.464844 36.53125 6.464844 C 33.027344 6.464844 29.957031 8.824219 29.015625 12.148438 L 28.277344 12.148438 C 29.234375 8.449219 32.648438 5.753906 36.53125 5.753906 Z M 35.820312 20.625 C 35.210938 20.558594 34.613281 20.40625 34.046875 20.171875 L 35.820312 18.324219 Z M 40.113281 19.574219 C 39.273438 20.144531 38.296875 20.515625 37.242188 20.632812 L 37.242188 17.121094 C 37.242188 17.039062 37.222656 16.964844 37.195312 16.894531 L 37.3125 16.773438 Z M 39.023438 14.988281 L 42.886719 14.988281 C 42.726562 16.394531 42.109375 17.660156 41.191406 18.644531 L 38.292969 15.746094 Z M 41.207031 9.929688 C 42.117188 10.910156 42.730469 12.167969 42.886719 13.566406 L 40.386719 13.566406 L 40.597656 13.347656 C 40.796875 13.144531 40.851562 12.839844 40.738281 12.582031 C 40.625 12.316406 40.371094 12.148438 40.085938 12.148438 L 39.433594 12.148438 Z M 31.542969 10.292969 L 33.394531 12.148438 L 30.507812 12.148438 C 30.75 11.464844 31.101562 10.84375 31.542969 10.292969 Z M 35.40625 12.148438 L 32.546875 9.285156 C 33.472656 8.546875 34.601562 8.066406 35.820312 7.929688 L 35.820312 12.148438 Z M 37.242188 12.148438 L 37.242188 7.925781 C 38.304688 8.046875 39.292969 8.421875 40.132812 8.996094 L 37.613281 12.148438 Z M 20.902344 29.425781 L 20.902344 43.523438 L 11.242188 44.0625 C 10.285156 44.117188 9.535156 44.90625 9.535156 45.863281 C 9.535156 46.859375 10.34375 47.671875 11.339844 47.671875 L 34.726562 47.671875 C 35.722656 47.671875 36.53125 46.859375 36.53125 45.863281 C 36.53125 44.90625 35.78125 44.117188 34.824219 44.0625 L 25.164062 43.523438 L 25.164062 29.425781 L 31.484375 22.84375 C 33.011719 23.746094 34.746094 24.226562 36.53125 24.226562 C 42.015625 24.226562 46.480469 19.761719 46.480469 14.277344 C 46.480469 8.792969 42.015625 4.332031 36.53125 4.332031 C 31.875 4.332031 27.8125 7.652344 26.824219 12.148438 L 5.980469 12.148438 C 5.695312 12.148438 5.441406 12.316406 5.328125 12.582031 C 5.214844 12.839844 5.273438 13.144531 5.46875 13.347656 L 20.902344 29.425781 " fill-opacity="1" fill-rule="nonzero"/></g><path fill="#000000" d="M 23.035156 26.371094 C 24.082031 26.371094 25.132812 25.972656 25.933594 25.171875 L 26.378906 24.726562 C 26.65625 24.449219 26.65625 24 26.378906 23.722656 C 26.101562 23.445312 25.652344 23.445312 25.371094 23.722656 L 24.929688 24.167969 C 23.882812 25.214844 22.183594 25.214844 21.136719 24.167969 L 14.800781 17.832031 L 32.269531 17.832031 C 32.660156 17.832031 32.980469 17.511719 32.980469 17.121094 C 32.980469 16.730469 32.660156 16.410156 32.269531 16.410156 L 13.382812 16.410156 L 12.167969 15.195312 C 11.890625 14.917969 11.441406 14.917969 11.164062 15.195312 C 10.886719 15.476562 10.886719 15.925781 11.164062 16.203125 L 20.132812 25.171875 C 20.933594 25.972656 21.984375 26.371094 23.035156 26.371094 " fill-opacity="1" fill-rule="nonzero"/></svg>