<svg xmlns="http://www.w3.org/2000/svg" xmlns:xlink="http://www.w3.org/1999/xlink" width="70" zoomAndPan="magnify" viewBox="0 0 52.5 52.499999" height="70" preserveAspectRatio="xMidYMid meet" version="1.0"><defs><clipPath id="5cd43c672a"><path d="M 6.066406 4.1875 L 46.929688 4.1875 L 46.929688 48.761719 L 6.066406 48.761719 Z M 6.066406 4.1875 " clip-rule="nonzero"/></clipPath></defs><g clip-path="url(#5cd43c672a)"><path fill="#000000" d="M 28.726562 23.941406 C 29.257812 23.507812 29.855469 23.167969 30.304688 22.742188 C 30.273438 22.671875 30.246094 22.601562 30.21875 22.535156 C 30.113281 22.257812 30.03125 22.003906 29.972656 21.769531 C 29.9375 21.722656 29.898438 21.675781 29.855469 21.632812 C 29.742188 21.519531 29.632812 21.472656 29.542969 21.328125 C 29.492188 21.246094 29.457031 21.148438 29.429688 21.050781 C 29.257812 21.078125 29.082031 21.085938 28.910156 21.074219 C 28.75 21.0625 28.613281 20.988281 28.445312 20.996094 C 28.152344 21.015625 27.835938 21.109375 27.542969 21.074219 C 27.109375 21.027344 26.730469 20.78125 26.300781 20.730469 C 26.164062 20.714844 25.929688 20.75 25.816406 20.640625 C 25.722656 20.542969 25.730469 20.390625 25.75 20.269531 C 25.816406 19.890625 25.789062 19.523438 25.804688 19.140625 C 25.8125 19.003906 25.820312 18.855469 25.902344 18.738281 C 26.054688 18.519531 26.234375 18.285156 26.335938 18.039062 C 26.382812 17.921875 26.351562 17.773438 26.382812 17.648438 C 26.523438 17.132812 26.628906 16.625 26.710938 16.097656 C 26.753906 15.820312 26.960938 15.558594 27.042969 15.292969 C 27.089844 15.148438 27.097656 15.003906 27.085938 14.867188 C 26.960938 14.753906 26.851562 14.628906 26.78125 14.492188 C 26.671875 14.277344 26.570312 14.058594 26.464844 13.839844 C 26.410156 13.730469 26.371094 13.621094 26.34375 13.507812 C 26.292969 13.496094 26.25 13.480469 26.207031 13.460938 C 26.179688 13.671875 26.136719 13.886719 26.042969 14.082031 C 25.898438 14.371094 25.464844 14.480469 25.1875 14.570312 C 24.847656 14.679688 24.5625 14.71875 24.210938 14.636719 C 23.910156 14.570312 23.785156 14.292969 23.605469 14.085938 C 23.480469 13.941406 23.339844 13.816406 23.222656 13.664062 C 22.890625 13.230469 23.015625 12.597656 23.3125 12.203125 C 23.503906 11.945312 23.789062 11.835938 24.070312 11.707031 C 24.0625 11.6875 24.058594 11.671875 24.050781 11.660156 C 23.910156 11.347656 23.855469 10.929688 23.855469 10.585938 C 23.855469 10.582031 23.855469 10.582031 23.855469 10.578125 C 23.847656 10.488281 23.84375 10.394531 23.847656 10.300781 C 23.863281 9.820312 24.101562 9.484375 24.414062 9.148438 C 24.660156 8.886719 24.949219 8.679688 25.261719 8.515625 C 25.269531 8.511719 25.277344 8.507812 25.285156 8.503906 C 25.636719 8.316406 26.019531 8.214844 26.363281 8.007812 C 26.550781 7.898438 26.847656 7.898438 27.058594 7.925781 C 27.160156 7.941406 27.265625 7.945312 27.371094 7.964844 C 27.632812 8.007812 27.910156 8.316406 28.054688 8.589844 C 28.21875 8.816406 28.433594 9.011719 28.566406 9.253906 C 28.628906 9.367188 28.574219 9.492188 28.628906 9.59375 C 28.65625 9.589844 28.679688 9.585938 28.707031 9.578125 C 28.730469 9.570312 28.757812 9.558594 28.78125 9.546875 C 28.796875 9.542969 28.824219 9.511719 28.820312 9.527344 C 28.808594 9.582031 28.773438 9.636719 28.726562 9.6875 C 28.945312 9.832031 29.207031 9.855469 29.433594 9.988281 C 29.503906 10.027344 29.621094 10.074219 29.648438 10.160156 C 29.714844 10.355469 29.425781 10.394531 29.402344 10.542969 C 29.378906 10.691406 29.535156 10.75 29.582031 10.859375 C 29.601562 10.910156 29.542969 10.957031 29.550781 11.011719 C 29.5625 11.078125 29.625 11.085938 29.652344 11.136719 C 29.691406 11.21875 29.675781 11.324219 29.710938 11.410156 C 29.761719 11.519531 29.894531 11.628906 29.878906 11.761719 C 29.855469 12.003906 29.527344 12.117188 29.335938 12.148438 C 29.289062 12.15625 29.238281 12.164062 29.191406 12.171875 C 29.160156 12.191406 29.128906 12.214844 29.101562 12.242188 C 29.03125 12.308594 28.890625 12.414062 28.847656 12.503906 C 28.753906 12.695312 28.71875 12.917969 28.730469 13.128906 C 28.75 13.46875 28.8125 13.761719 28.910156 14.050781 C 29.15625 14.371094 29.492188 14.609375 29.863281 14.804688 C 29.933594 14.679688 30.019531 14.546875 30.050781 14.425781 C 30.089844 14.28125 30.03125 14.121094 30.046875 13.972656 C 30.058594 13.84375 30.113281 13.734375 30.136719 13.609375 C 30.199219 13.265625 30.222656 12.957031 30.449219 12.679688 C 30.730469 12.332031 31.238281 12.171875 31.605469 11.9375 C 32.136719 11.59375 32.523438 11.058594 32.625 10.449219 C 32.421875 10.582031 32.199219 10.699219 32.019531 10.851562 C 31.835938 11.015625 31.703125 11.285156 31.4375 11.335938 C 31.40625 11.339844 31.335938 11.324219 31.304688 11.3125 C 31.179688 11.269531 31.089844 11.199219 31.019531 11.085938 C 30.949219 10.964844 30.980469 10.800781 30.882812 10.6875 C 30.820312 10.613281 30.640625 10.640625 30.609375 10.554688 C 30.601562 10.535156 30.597656 10.507812 30.601562 10.476562 C 30.554688 10.472656 30.515625 10.460938 30.480469 10.441406 C 30.421875 10.40625 30.382812 10.292969 30.324219 10.246094 C 30.238281 10.171875 30.160156 10.105469 30.105469 10.023438 C 29.945312 10.09375 29.777344 10.144531 29.652344 10.058594 C 29.519531 9.964844 29.574219 9.71875 29.570312 9.582031 C 29.5625 9.375 29.519531 9.160156 29.46875 8.953125 C 29.34375 8.933594 29.222656 8.867188 29.15625 8.789062 C 28.910156 8.511719 28.960938 8.027344 28.898438 7.679688 C 28.894531 7.664062 28.890625 7.648438 28.886719 7.636719 C 28.476562 7.457031 27.964844 7.375 27.957031 6.867188 C 27.953125 6.640625 28.023438 6.460938 28.132812 6.289062 C 28.167969 6.148438 28.234375 6.011719 28.335938 5.902344 C 28.371094 5.863281 28.414062 5.824219 28.453125 5.785156 C 28.460938 5.78125 28.476562 5.765625 28.484375 5.765625 C 28.488281 5.765625 28.503906 5.828125 28.515625 5.871094 C 28.527344 5.847656 28.539062 5.828125 28.558594 5.808594 C 28.597656 5.765625 28.628906 5.730469 28.671875 5.691406 C 28.6875 5.675781 28.703125 5.621094 28.710938 5.640625 C 28.738281 5.679688 28.75 5.726562 28.769531 5.769531 C 28.765625 5.664062 28.789062 5.558594 28.832031 5.472656 C 28.855469 5.433594 28.878906 5.375 28.914062 5.347656 C 28.921875 5.34375 28.917969 5.359375 28.917969 5.367188 C 28.921875 5.394531 28.921875 5.390625 28.925781 5.417969 C 28.929688 5.4375 28.933594 5.457031 28.941406 5.476562 C 28.964844 5.421875 28.996094 5.371094 29.03125 5.335938 C 29.136719 5.226562 29.3125 5.210938 29.417969 5.105469 C 29.546875 4.976562 29.632812 4.785156 29.785156 4.675781 C 29.910156 4.582031 30.058594 4.5625 30.1875 4.480469 C 30.28125 4.425781 30.421875 4.289062 30.53125 4.269531 C 30.871094 4.199219 31.230469 4.304688 31.574219 4.320312 C 31.6875 4.324219 31.792969 4.292969 31.90625 4.3125 C 32.214844 4.359375 32.527344 4.542969 32.789062 4.710938 C 32.84375 4.746094 32.953125 4.78125 33.003906 4.832031 C 33.589844 5.480469 33.5 6.417969 33.8125 7.199219 C 34.058594 7.808594 34.523438 8.191406 34.914062 8.648438 C 34.960938 8.351562 35.257812 8.75 35.3125 8.730469 C 35.453125 8.683594 35.542969 8.59375 35.695312 8.675781 L 35.691406 8.648438 C 36.519531 9.160156 37.386719 9.496094 38.359375 9.597656 C 38.671875 9.628906 38.949219 9.535156 39.253906 9.480469 C 39.378906 9.457031 39.570312 9.394531 39.699219 9.449219 C 40.089844 9.625 40.308594 10.222656 40.507812 10.554688 C 40.867188 11.148438 41.359375 11.65625 41.710938 12.253906 C 42.464844 13.117188 43.289062 13.941406 43.613281 15.058594 C 43.648438 15.183594 43.617188 15.289062 43.558594 15.386719 C 43.566406 15.722656 43.445312 16.027344 43.128906 16.273438 C 43.015625 16.367188 42.90625 16.472656 42.757812 16.5 C 42.648438 16.515625 42.527344 16.523438 42.398438 16.523438 C 41.957031 16.59375 41.398438 16.53125 41.097656 16.421875 C 40.703125 16.277344 40.335938 16.082031 39.96875 15.886719 C 39.890625 16.375 39.953125 16.925781 39.988281 17.367188 C 40.125 18.984375 40.992188 21.074219 41.527344 22.625 C 41.742188 23.246094 41.996094 23.867188 42.308594 24.445312 C 42.386719 24.589844 42.648438 24.847656 42.511719 25 C 42.296875 25.234375 41.570312 25.457031 41.03125 25.609375 C 41.257812 26.679688 41.410156 27.765625 41.613281 28.839844 C 41.90625 30.398438 42.355469 31.972656 42.839844 33.484375 C 42.917969 33.738281 42.996094 34 43.058594 34.265625 C 43.6875 35.070312 43.789062 35.644531 44.171875 36.84375 C 44.511719 37.902344 44.859375 38.949219 45.136719 40.03125 C 45.460938 41.285156 46.078125 43.097656 46.140625 44.375 C 46.148438 44.476562 46.109375 44.578125 46.042969 44.675781 C 46.167969 45.15625 46.289062 45.640625 46.46875 46.113281 C 46.613281 46.492188 46.925781 46.949219 46.8125 47.371094 C 46.71875 47.71875 44.976562 47.679688 44.71875 47.625 C 44.535156 47.585938 44.261719 47.570312 44.109375 47.445312 C 43.898438 47.269531 44.050781 47.105469 44.046875 46.886719 C 44.035156 46.480469 44 45.953125 44.054688 45.496094 C 43.972656 45.492188 43.910156 45.476562 43.863281 45.453125 C 43.652344 45.332031 43.53125 44.9375 43.402344 44.726562 C 43.03125 44.117188 42.652344 43.515625 42.296875 42.890625 C 41.777344 41.988281 41.449219 41.074219 41.078125 40.109375 C 40.695312 39.117188 40.261719 38.140625 39.882812 37.144531 C 39.75 36.792969 39.65625 36.421875 39.546875 36.058594 C 39.40625 36.121094 39.246094 36.175781 39.078125 36.21875 C 39.472656 37.261719 39.910156 38.292969 39.441406 39.417969 C 39.148438 40.121094 38.472656 40.265625 38.050781 40.796875 C 37.898438 40.992188 37.964844 41.257812 37.832031 41.46875 C 37.578125 41.878906 37.085938 42.117188 37.089844 42.667969 C 37.097656 43.511719 37.285156 44.144531 37.664062 44.917969 C 37.765625 45.128906 38.175781 45.714844 37.953125 45.949219 C 37.132812 46.8125 35.992188 46.085938 35.03125 46.464844 C 34.449219 46.695312 35.046875 47.445312 34.347656 47.6875 C 33.6875 47.914062 32.511719 47.949219 31.230469 47.851562 C 30.90625 47.929688 30.601562 47.984375 30.332031 48.015625 C 28.472656 48.226562 26.492188 48.746094 24.609375 48.347656 C 23.84375 48.183594 23.140625 47.753906 22.367188 47.664062 C 21.347656 47.542969 20.671875 47.714844 19.707031 47.238281 C 19.503906 47.136719 19.324219 47.023438 19.167969 46.894531 C 18.253906 46.496094 16.925781 45.511719 16.921875 44.644531 C 16.921875 44.113281 17.230469 43.808594 17.058594 43.339844 C 16.3125 42.851562 16.136719 44.039062 15.558594 43.980469 C 15.253906 43.953125 14.945312 43.457031 14.71875 43.300781 C 14.363281 43.054688 13.941406 43.078125 13.589844 42.871094 C 12.964844 42.496094 13.953125 41.800781 13.367188 41.289062 C 12.964844 40.933594 12.410156 40.773438 11.949219 40.492188 C 11.609375 40.285156 9.125 38.421875 8.925781 38.164062 C 8.351562 37.433594 9.800781 37.355469 9.261719 36.585938 C 8.785156 35.902344 7.992188 37.078125 7.726562 36.078125 C 7.652344 35.796875 7.613281 35.496094 7.597656 35.203125 C 7.507812 33.765625 8.503906 32.464844 8.1875 30.992188 C 7.867188 29.5 7.066406 30.042969 6.457031 28.921875 C 6.296875 28.621094 6.347656 28.152344 6.304688 27.820312 C 6.066406 25.949219 6.070312 21.8125 7.996094 20.808594 C 8.96875 20.296875 10.175781 21.125 11.0625 21.425781 C 13.828125 22.351562 16.472656 23.570312 19.199219 24.59375 C 22.066406 25.667969 25.222656 24.519531 28.085938 24.097656 C 28.316406 24.0625 28.527344 24.003906 28.726562 23.941406 Z M 38.359375 32.261719 C 38.351562 32.214844 38.34375 32.171875 38.332031 32.125 C 38.246094 31.988281 38.167969 31.847656 38.136719 31.792969 C 37.976562 31.515625 37.800781 31.242188 37.617188 30.976562 C 37.6875 31.132812 37.757812 31.285156 37.832031 31.4375 C 37.933594 31.640625 38.125 31.929688 38.359375 32.261719 Z M 36.519531 15.167969 C 36.550781 15.132812 36.582031 15.097656 36.613281 15.066406 C 36.566406 15.070312 36.515625 15.074219 36.46875 15.0625 C 36.464844 15.070312 36.460938 15.078125 36.460938 15.085938 C 36.480469 15.113281 36.5 15.140625 36.519531 15.167969 Z M 34.792969 10.859375 Z M 34.792969 10.859375 " fill-opacity="1" fill-rule="evenodd"/></g></svg>