<svg xmlns="http://www.w3.org/2000/svg" xmlns:xlink="http://www.w3.org/1999/xlink" width="70" zoomAndPan="magnify" viewBox="0 0 52.5 52.499999" height="70" preserveAspectRatio="xMidYMid meet" version="1.0"><defs><clipPath id="0351e45fd1"><path d="M 2.980469 5.199219 L 49.019531 5.199219 L 49.019531 46.804688 L 2.980469 46.804688 Z M 2.980469 5.199219 " clip-rule="nonzero"/></clipPath><clipPath id="26d95ec0fa"><path d="M 24 44 L 27 44 L 27 46.804688 L 24 46.804688 Z M 24 44 " clip-rule="nonzero"/></clipPath></defs><g clip-path="url(#0351e45fd1)"><path fill="#000000" d="M 48.441406 31.074219 C 48.34375 31.273438 48.203125 31.414062 47.984375 31.445312 C 47.742188 31.480469 47.496094 31.507812 47.253906 31.507812 C 45.25 31.496094 43.25 31.46875 41.246094 31.457031 C 40.105469 31.449219 38.964844 31.453125 37.824219 31.453125 C 37.734375 31.453125 37.644531 31.453125 37.519531 31.453125 C 37.738281 30.53125 37.710938 29.613281 37.761719 28.6875 C 37.878906 28.6875 37.976562 28.6875 38.074219 28.6875 C 40.683594 28.695312 43.292969 28.703125 45.902344 28.710938 C 46.347656 28.714844 46.792969 28.695312 47.230469 28.738281 C 47.5 28.765625 47.765625 28.878906 48.023438 28.976562 C 48.242188 29.0625 48.363281 29.269531 48.449219 29.472656 C 48.675781 30.003906 48.707031 30.539062 48.441406 31.074219 Z M 47.074219 32.191406 C 47.027344 32.664062 46.988281 33.140625 46.929688 33.617188 C 46.84375 34.335938 46.75 35.054688 46.644531 35.773438 C 46.554688 36.367188 46.21875 36.777344 45.65625 36.992188 C 45.113281 37.203125 44.546875 37.285156 43.96875 37.300781 C 43.9375 37.300781 43.90625 37.292969 43.867188 37.285156 C 43.863281 37.035156 43.878906 36.789062 43.699219 36.546875 C 43.5 36.769531 43.53125 37.042969 43.480469 37.300781 C 43.25 37.300781 43.019531 37.320312 42.796875 37.296875 C 42.222656 37.246094 41.652344 37.183594 41.085938 37.109375 C 40.523438 37.039062 40.234375 36.675781 40.144531 36.144531 C 40.046875 35.535156 39.953125 34.925781 39.902344 34.308594 C 39.84375 33.605469 39.832031 32.894531 39.800781 32.183594 C 39.796875 32.105469 39.800781 32.023438 39.800781 31.929688 C 40.332031 31.929688 40.835938 31.929688 41.371094 31.929688 C 41.359375 32.027344 41.351562 32.09375 41.339844 32.15625 C 41.289062 32.460938 41.296875 32.765625 41.328125 33.066406 C 41.335938 33.117188 41.347656 33.164062 41.367188 33.210938 C 41.398438 33.296875 41.457031 33.347656 41.550781 33.34375 C 41.648438 33.339844 41.699219 33.277344 41.714844 33.1875 C 41.777344 32.863281 41.789062 32.535156 41.746094 32.203125 C 41.734375 32.121094 41.722656 32.042969 41.710938 31.945312 C 42.363281 31.945312 43 31.945312 43.625 31.945312 C 43.625 32.148438 43.621094 32.335938 43.625 32.523438 C 43.628906 32.804688 43.632812 33.082031 43.640625 33.363281 C 43.640625 33.394531 43.640625 33.433594 43.65625 33.457031 C 43.695312 33.507812 43.746094 33.578125 43.789062 33.578125 C 43.851562 33.578125 43.9375 33.53125 43.960938 33.476562 C 44.003906 33.382812 44.027344 33.273438 44.03125 33.167969 C 44.039062 32.773438 44.035156 32.378906 44.035156 31.949219 C 44.546875 31.917969 45.089844 31.9375 45.664062 31.929688 C 45.652344 32.078125 45.644531 32.207031 45.636719 32.335938 C 45.628906 32.558594 45.625 32.78125 45.621094 33 C 45.617188 33.035156 45.628906 33.066406 45.632812 33.097656 C 45.652344 33.195312 45.6875 33.277344 45.800781 33.28125 C 45.914062 33.285156 45.953125 33.203125 45.96875 33.109375 C 46.019531 32.816406 46.070312 32.523438 46.03125 32.222656 C 46.019531 32.144531 46.011719 32.0625 46 31.945312 C 46.371094 31.964844 46.71875 31.984375 47.078125 32.003906 C 47.078125 32.078125 47.082031 32.136719 47.074219 32.191406 Z M 36.976562 28.003906 C 36.894531 28.105469 36.8125 28.117188 36.703125 28.117188 C 35.355469 28.105469 34.007812 28.097656 32.664062 28.085938 C 29.640625 28.058594 26.621094 28.035156 23.597656 28.007812 C 20.808594 27.984375 18.015625 27.960938 15.226562 27.9375 C 15.195312 27.9375 15.160156 27.9375 15.121094 27.9375 C 14.820312 27.480469 14.566406 27.476562 14.230469 27.914062 C 13.917969 27.914062 13.597656 27.917969 13.28125 27.910156 C 13.222656 27.910156 13.15625 27.875 13.105469 27.835938 C 13.015625 27.765625 12.925781 27.691406 12.851562 27.605469 C 12.300781 26.96875 11.761719 26.328125 11.210938 25.691406 C 11.113281 25.578125 11.089844 25.464844 11.113281 25.3125 C 11.285156 24.195312 10.652344 23.101562 9.605469 22.699219 C 9.457031 22.644531 9.382812 22.558594 9.324219 22.421875 C 8.710938 21.015625 8.476562 19.546875 8.613281 18.023438 C 8.746094 16.488281 9.429688 15.226562 10.546875 14.1875 C 10.625 14.109375 10.738281 14.054688 10.84375 14.023438 C 11.667969 13.769531 12.484375 13.5 13.316406 13.285156 C 15.035156 12.839844 16.789062 12.574219 18.550781 12.375 C 21.402344 12.054688 24.261719 11.929688 27.128906 12.003906 C 28.492188 12.039062 29.851562 12.121094 31.210938 12.230469 C 32.417969 12.332031 33.628906 12.46875 34.828125 12.644531 C 36.996094 12.96875 39.128906 13.464844 41.207031 14.183594 C 41.652344 14.339844 41.972656 14.585938 42.253906 14.945312 C 43.136719 16.074219 43.519531 17.363281 43.515625 18.792969 C 43.515625 20.039062 43.269531 21.230469 42.789062 22.378906 C 42.722656 22.535156 42.636719 22.628906 42.472656 22.6875 C 41.421875 23.0625 40.769531 24.199219 40.964844 25.3125 C 40.988281 25.460938 40.972656 25.578125 40.875 25.699219 C 40.332031 26.386719 39.765625 27.046875 39.128906 27.644531 C 38.996094 27.769531 38.875 27.902344 38.753906 28.039062 C 38.6875 28.113281 38.613281 28.140625 38.515625 28.136719 C 38.304688 28.128906 38.089844 28.128906 37.875 28.132812 C 37.769531 28.136719 37.699219 28.097656 37.628906 28.011719 C 37.429688 27.78125 37.15625 27.773438 36.976562 28.003906 Z M 36.777344 31.441406 C 36.707031 31.445312 36.636719 31.453125 36.5625 31.453125 C 35.039062 31.449219 33.511719 31.441406 31.984375 31.4375 C 31.847656 31.4375 31.761719 31.398438 31.679688 31.28125 C 31.054688 30.382812 30.261719 29.664062 29.347656 29.074219 C 29.089844 28.90625 28.804688 28.777344 28.53125 28.628906 C 28.53125 28.621094 28.53125 28.609375 28.53125 28.601562 C 31.304688 28.628906 34.074219 28.65625 36.871094 28.6875 C 36.882812 29.605469 36.902344 30.515625 36.777344 31.441406 Z M 29.507812 31.414062 C 29.382812 30.339844 28.867188 29.5 28.015625 28.863281 C 28.027344 28.847656 28.035156 28.832031 28.046875 28.820312 C 28.160156 28.863281 28.273438 28.898438 28.382812 28.945312 C 28.789062 29.128906 29.15625 29.375 29.503906 29.65625 C 30.070312 30.109375 30.585938 30.613281 31.03125 31.1875 C 31.078125 31.253906 31.125 31.320312 31.195312 31.414062 C 30.605469 31.414062 30.066406 31.414062 29.507812 31.414062 Z M 27.730469 31.40625 C 27.769531 30.507812 27.789062 29.621094 27.34375 28.804688 C 28.171875 29.050781 29.117188 30.414062 29.144531 31.40625 C 28.667969 31.40625 28.210938 31.40625 27.730469 31.40625 Z M 27.316406 31.398438 C 26.738281 31.398438 26.167969 31.398438 25.554688 31.398438 C 25.601562 31.304688 25.636719 31.226562 25.679688 31.152344 C 25.949219 30.652344 26.171875 30.128906 26.261719 29.5625 C 26.308594 29.277344 26.335938 28.992188 26.378906 28.6875 C 26.421875 28.683594 26.484375 28.691406 26.542969 28.675781 C 26.847656 28.613281 26.996094 28.789062 27.105469 29.03125 C 27.242188 29.34375 27.320312 29.671875 27.347656 30.011719 C 27.386719 30.46875 27.402344 30.929688 27.316406 31.398438 Z M 25.046875 31.394531 C 24.585938 31.394531 24.136719 31.394531 23.679688 31.394531 C 24.144531 30.597656 25.585938 28.671875 26.011719 28.589844 C 26.121094 29.046875 25.578125 30.621094 25.046875 31.394531 Z M 23.1875 31.234375 C 23.09375 31.363281 22.996094 31.40625 22.839844 31.40625 C 21.007812 31.394531 19.179688 31.390625 17.347656 31.386719 C 16.691406 31.382812 16.035156 31.382812 15.378906 31.378906 C 15.296875 31.378906 15.21875 31.371094 15.140625 31.367188 C 15.140625 30.394531 15.140625 29.453125 15.140625 28.523438 C 15.367188 28.46875 24.789062 28.53125 25.386719 28.589844 C 25.371094 28.621094 25.363281 28.652344 25.34375 28.667969 C 24.828125 29.113281 24.398438 29.628906 23.984375 30.167969 C 23.714844 30.519531 23.445312 30.871094 23.1875 31.234375 Z M 13.894531 31.371094 C 10.847656 31.367188 7.800781 31.363281 4.753906 31.355469 C 4.609375 31.355469 4.453125 31.367188 4.316406 31.328125 C 3.84375 31.191406 3.644531 30.820312 3.589844 30.367188 C 3.527344 29.863281 3.632812 29.382812 3.847656 28.925781 C 3.90625 28.796875 3.996094 28.714844 4.117188 28.652344 C 4.546875 28.445312 5.003906 28.359375 5.476562 28.367188 C 7.046875 28.390625 8.613281 28.410156 10.183594 28.429688 C 11.398438 28.445312 12.613281 28.457031 13.828125 28.46875 C 13.914062 28.472656 14.003906 28.46875 14.109375 28.46875 C 14.011719 29.460938 14.109375 30.394531 14.160156 31.359375 C 14.066406 31.363281 13.980469 31.371094 13.894531 31.371094 Z M 12.097656 35.976562 C 12.058594 36.183594 11.984375 36.386719 11.902344 36.582031 C 11.816406 36.789062 11.652344 36.9375 11.4375 36.996094 C 11.160156 37.066406 10.878906 37.140625 10.59375 37.167969 C 10.042969 37.226562 9.484375 37.253906 8.929688 37.292969 C 8.863281 37.296875 8.800781 37.285156 8.714844 37.28125 C 8.699219 37.011719 8.707031 36.761719 8.527344 36.535156 C 8.3125 36.746094 8.367188 37.007812 8.34375 37.277344 C 8.148438 37.265625 7.960938 37.265625 7.777344 37.246094 C 7.339844 37.203125 6.917969 37.117188 6.511719 36.949219 C 6.011719 36.742188 5.683594 36.378906 5.59375 35.839844 C 5.480469 35.191406 5.394531 34.539062 5.3125 33.886719 C 5.234375 33.246094 5.179688 32.605469 5.113281 31.96875 C 5.109375 31.9375 5.113281 31.90625 5.113281 31.863281 C 5.480469 31.863281 5.835938 31.863281 6.179688 31.863281 C 6.179688 32.074219 6.171875 32.269531 6.183594 32.464844 C 6.191406 32.664062 6.214844 32.859375 6.238281 33.054688 C 6.25 33.160156 6.285156 33.253906 6.410156 33.257812 C 6.511719 33.261719 6.582031 33.183594 6.582031 33.027344 C 6.582031 32.714844 6.566406 32.402344 6.558594 32.089844 C 6.554688 32.023438 6.542969 31.960938 6.535156 31.855469 C 7.097656 31.847656 7.648438 31.851562 8.210938 31.855469 C 8.195312 32.167969 8.171875 32.453125 8.167969 32.738281 C 8.164062 32.9375 8.191406 33.132812 8.210938 33.328125 C 8.214844 33.375 8.226562 33.433594 8.257812 33.464844 C 8.300781 33.511719 8.371094 33.570312 8.414062 33.558594 C 8.46875 33.546875 8.546875 33.476562 8.550781 33.421875 C 8.582031 33.160156 8.601562 32.898438 8.601562 32.632812 C 8.601562 32.386719 8.574219 32.140625 8.558594 31.894531 C 8.722656 31.84375 10.128906 31.832031 10.503906 31.878906 C 10.492188 31.988281 10.488281 32.101562 10.46875 32.210938 C 10.410156 32.492188 10.449219 32.769531 10.476562 33.046875 C 10.5 33.234375 10.5625 33.324219 10.667969 33.328125 C 10.773438 33.332031 10.863281 33.242188 10.875 33.0625 C 10.890625 32.785156 10.886719 32.507812 10.882812 32.230469 C 10.878906 32.113281 10.855469 32 10.835938 31.871094 C 11.355469 31.871094 11.859375 31.871094 12.378906 31.871094 C 12.386719 31.921875 12.402344 31.964844 12.402344 32.011719 C 12.410156 33.34375 12.34375 34.667969 12.097656 35.976562 Z M 8.800781 22.839844 C 9.929688 22.867188 10.804688 23.777344 10.777344 24.902344 C 10.789062 25.957031 9.898438 27 8.644531 26.953125 C 7.539062 26.910156 6.65625 25.972656 6.683594 24.832031 C 6.707031 23.707031 7.664062 22.808594 8.800781 22.839844 Z M 4.28125 23.71875 C 4.410156 23.078125 4.566406 22.449219 4.804688 21.839844 C 5.15625 20.953125 5.671875 20.195312 6.480469 19.664062 C 6.871094 19.40625 7.285156 19.222656 7.765625 19.222656 C 7.820312 19.222656 7.878906 19.222656 7.964844 19.222656 C 8.019531 20.359375 8.234375 21.449219 8.671875 22.515625 C 7.207031 22.667969 6.519531 23.691406 6.398438 24.664062 C 6.285156 25.613281 6.765625 26.605469 7.730469 27.082031 C 8.527344 27.476562 9.816406 27.503906 10.792969 26.238281 C 11.261719 26.777344 11.730469 27.3125 12.195312 27.84375 C 12.1875 27.863281 12.183594 27.871094 12.179688 27.878906 C 12.175781 27.886719 12.167969 27.890625 12.164062 27.890625 C 9.527344 27.886719 6.894531 27.878906 4.257812 27.871094 C 4.21875 27.871094 4.179688 27.859375 4.113281 27.847656 C 4.082031 27.550781 4.042969 27.257812 4.019531 26.964844 C 3.933594 25.867188 4.066406 24.789062 4.28125 23.71875 Z M 13.320312 12.640625 C 14.507812 12.253906 15.722656 11.964844 16.957031 11.789062 C 18.304688 11.597656 19.65625 11.421875 21.007812 11.261719 C 21.652344 11.1875 22.300781 11.144531 22.949219 11.105469 C 23.882812 11.054688 24.816406 11 25.753906 10.980469 C 26.953125 10.960938 28.148438 11.011719 29.34375 11.128906 C 30.03125 11.191406 30.71875 11.21875 31.402344 11.296875 C 32.601562 11.4375 33.800781 11.59375 34.992188 11.761719 C 36.050781 11.910156 37.089844 12.148438 38.117188 12.4375 C 39.03125 12.695312 39.917969 13.015625 40.714844 13.539062 C 40.785156 13.582031 40.851562 13.628906 40.898438 13.710938 C 40.753906 13.664062 40.609375 13.617188 40.464844 13.566406 C 38.761719 13 37.015625 12.613281 35.246094 12.34375 C 33.988281 12.152344 32.726562 11.976562 31.464844 11.851562 C 28.960938 11.605469 26.449219 11.519531 23.933594 11.589844 C 22.746094 11.625 21.554688 11.664062 20.367188 11.753906 C 18.289062 11.90625 16.222656 12.183594 14.183594 12.636719 C 13.566406 12.773438 12.957031 12.9375 12.34375 13.09375 C 12.292969 13.105469 12.242188 13.113281 12.1875 13.125 C 12.183594 13.105469 12.179688 13.089844 12.171875 13.074219 C 12.554688 12.929688 12.929688 12.765625 13.320312 12.640625 Z M 37.769531 11.695312 C 37.453125 11.621094 37.152344 11.550781 36.851562 11.484375 C 35.769531 11.242188 34.675781 11.070312 33.578125 10.941406 C 32.835938 10.855469 32.09375 10.757812 31.351562 10.695312 C 30.394531 10.613281 29.433594 10.566406 28.476562 10.503906 C 27.910156 10.46875 27.347656 10.4375 26.78125 10.390625 C 26.007812 10.328125 25.238281 10.363281 24.46875 10.417969 C 23.355469 10.496094 22.242188 10.566406 21.128906 10.65625 C 20.335938 10.722656 19.546875 10.804688 18.757812 10.910156 C 17.804688 11.039062 16.851562 11.167969 15.910156 11.347656 C 15.117188 11.5 14.332031 11.726562 13.542969 11.917969 C 13.449219 11.941406 13.359375 11.96875 13.230469 12.003906 C 13.433594 10.597656 13.710938 9.238281 14.0625 7.890625 C 14.644531 7.804688 15.210938 7.710938 15.78125 7.632812 C 16.609375 7.519531 17.4375 7.402344 18.269531 7.3125 C 19.175781 7.21875 20.082031 7.144531 20.992188 7.089844 C 22.359375 7.011719 23.730469 6.949219 25.101562 6.898438 C 26.511719 6.847656 27.921875 6.851562 29.335938 6.925781 C 30.894531 7.007812 32.4375 7.222656 33.964844 7.550781 C 35.039062 7.78125 36.113281 8.007812 37.1875 8.238281 C 37.257812 8.253906 37.328125 8.273438 37.429688 8.300781 C 37.550781 9.429688 37.761719 10.539062 37.769531 11.695312 Z M 13.402344 7.207031 C 14.199219 6.988281 15 6.75 15.808594 6.550781 C 16.964844 6.261719 18.140625 6.078125 19.324219 5.9375 C 20.710938 5.769531 22.101562 5.671875 23.496094 5.625 C 24.933594 5.574219 26.371094 5.59375 27.804688 5.660156 C 29.765625 5.75 31.71875 5.945312 33.65625 6.246094 C 35.171875 6.484375 36.675781 6.796875 38.160156 7.1875 C 38.222656 7.207031 38.285156 7.226562 38.367188 7.25 C 38.480469 8.03125 38.621094 8.808594 38.664062 9.597656 C 38.707031 10.378906 38.722656 11.15625 38.75 11.972656 C 38.503906 11.902344 38.296875 11.839844 38.125 11.789062 C 38.082031 11.214844 38.050781 10.671875 37.996094 10.132812 C 37.953125 9.671875 37.894531 9.214844 37.824219 8.757812 C 37.792969 8.554688 37.71875 8.363281 37.667969 8.164062 C 37.632812 8.027344 37.546875 7.957031 37.414062 7.925781 C 37.03125 7.832031 36.652344 7.71875 36.269531 7.640625 C 35.039062 7.390625 33.808594 7.136719 32.574219 6.910156 C 31.53125 6.722656 30.476562 6.625 29.417969 6.566406 C 28.058594 6.496094 26.695312 6.460938 25.332031 6.527344 C 24.042969 6.585938 22.757812 6.621094 21.46875 6.695312 C 19.886719 6.789062 18.308594 6.914062 16.742188 7.171875 C 15.835938 7.320312 14.933594 7.476562 14.023438 7.621094 C 13.925781 7.636719 13.882812 7.699219 13.855469 7.773438 C 13.730469 8.132812 13.582031 8.480469 13.488281 8.847656 C 13.214844 9.917969 12.984375 11 12.890625 12.128906 C 12.667969 12.214844 12.453125 12.300781 12.21875 12.390625 C 12.519531 10.636719 12.984375 8.945312 13.402344 7.207031 Z M 41.222656 24.835938 C 41.246094 23.710938 42.199219 22.8125 43.339844 22.839844 C 44.46875 22.863281 45.34375 23.777344 45.320312 24.898438 C 45.332031 25.957031 44.4375 26.996094 43.191406 26.953125 C 42.085938 26.910156 41.199219 25.976562 41.222656 24.835938 Z M 44.121094 19.230469 C 44.472656 19.210938 44.800781 19.25 45.113281 19.390625 C 45.902344 19.75 46.492188 20.332031 46.921875 21.078125 C 47.300781 21.734375 47.523438 22.449219 47.691406 23.183594 C 47.921875 24.183594 48.101562 25.191406 48.09375 26.21875 C 48.089844 26.730469 48.023438 27.238281 47.984375 27.746094 C 47.964844 28.023438 47.792969 28.175781 47.546875 28.253906 C 47.449219 28.285156 47.335938 28.304688 47.234375 28.300781 C 44.902344 28.253906 42.570312 28.203125 40.242188 28.152344 C 40.070312 28.148438 39.898438 28.152344 39.726562 28.152344 C 39.714844 28.128906 39.699219 28.109375 39.6875 28.089844 C 40.21875 27.476562 40.75 26.867188 41.296875 26.234375 C 41.355469 26.304688 41.414062 26.371094 41.46875 26.4375 C 42.488281 27.6875 44.402344 27.59375 45.296875 26.25 C 46.136719 24.992188 45.550781 23.214844 44.125 22.691406 C 43.910156 22.613281 43.683594 22.570312 43.429688 22.5 C 43.84375 21.464844 44.074219 20.375 44.121094 19.230469 Z M 41.136719 41.015625 C 41.363281 40.976562 41.585938 40.929688 41.8125 40.890625 C 41.882812 40.878906 41.957031 40.871094 42.027344 40.863281 C 41.78125 41.109375 41.589844 41.363281 41.46875 41.667969 C 41.425781 41.785156 41.324219 41.789062 41.230469 41.800781 C 40.753906 41.871094 40.277344 41.933594 39.796875 42.003906 C 39.515625 42.042969 39.238281 42.09375 38.933594 42.144531 C 38.953125 41.851562 39.078125 41.617188 39.253906 41.414062 C 39.308594 41.351562 39.410156 41.324219 39.496094 41.308594 C 40.042969 41.207031 40.589844 41.113281 41.136719 41.015625 Z M 43.632812 41.304688 C 43.855469 41.625 43.925781 41.855469 43.941406 42.371094 C 43.984375 42.773438 43.796875 43.148438 43.445312 43.433594 C 43.070312 43.738281 42.695312 43.777344 42.3125 43.457031 C 41.765625 43 41.429688 42.09375 42.0625 41.265625 C 42.503906 40.683594 43.214844 40.707031 43.632812 41.304688 Z M 42.066406 43.824219 C 41.28125 43.867188 40.496094 43.90625 39.707031 43.945312 C 39.699219 43.945312 39.691406 43.945312 39.683594 43.945312 C 39.304688 43.945312 39.238281 43.894531 39.105469 43.5 C 39.9375 43.335938 40.78125 43.320312 41.59375 43.207031 C 41.785156 43.40625 41.964844 43.59375 42.152344 43.792969 C 42.121094 43.804688 42.09375 43.824219 42.066406 43.824219 Z M 38.984375 43.269531 C 38.835938 42.996094 38.816406 42.710938 38.871094 42.425781 C 39.707031 42.292969 40.53125 42.160156 41.335938 42.035156 C 41.386719 42.347656 41.4375 42.667969 41.492188 43.007812 C 40.664062 43.046875 39.820312 43.070312 38.984375 43.269531 Z M 33.179688 42.125 C 33.238281 42.1875 33.292969 42.253906 33.367188 42.285156 C 33.421875 42.308594 33.515625 42.300781 33.566406 42.269531 C 33.636719 42.226562 33.628906 42.136719 33.582031 42.070312 C 33.519531 41.980469 33.449219 41.898438 33.382812 41.816406 C 33.269531 41.675781 33.15625 41.535156 33.03125 41.375 C 33.152344 41.316406 33.25 41.265625 33.355469 41.210938 C 33.527344 41.464844 33.679688 41.710938 33.847656 41.941406 C 34.019531 42.171875 34.203125 42.390625 34.390625 42.628906 C 34.042969 42.75 33.773438 42.945312 33.582031 43.25 C 33.183594 42.796875 32.800781 42.367188 32.40625 41.917969 C 32.496094 41.824219 32.589844 41.722656 32.695312 41.613281 C 32.867188 41.792969 33.023438 41.960938 33.179688 42.125 Z M 33.949219 41.25 C 34.265625 41.617188 34.589844 41.980469 34.90625 42.34375 C 34.960938 42.40625 35.007812 42.46875 35.085938 42.570312 C 34.917969 42.570312 34.804688 42.570312 34.667969 42.570312 C 34.296875 42.121094 33.910156 41.652344 33.519531 41.183594 C 33.789062 41.058594 33.792969 41.0625 33.949219 41.25 Z M 35.671875 44.195312 C 35.519531 44.433594 35.316406 44.601562 35.066406 44.722656 C 34.394531 45.046875 33.621094 44.429688 33.675781 43.808594 C 33.652344 43.609375 33.738281 43.429688 33.851562 43.265625 C 34.105469 42.890625 34.492188 42.75 34.914062 42.757812 C 35.554688 42.765625 36.0625 43.582031 35.671875 44.195312 Z M 33.402344 44.089844 C 32.9375 43.511719 32.503906 42.976562 32.0625 42.429688 C 32.144531 42.300781 32.21875 42.175781 32.308594 42.03125 C 32.703125 42.519531 33.085938 42.984375 33.46875 43.449219 C 33.449219 43.640625 33.429688 43.835938 33.402344 44.089844 Z M 28.402344 43.300781 C 28.636719 43.277344 28.816406 43.332031 28.972656 43.511719 C 29.09375 43.644531 29.199219 43.785156 29.265625 43.957031 C 28.753906 44.019531 28.261719 44.078125 27.765625 44.136719 C 27.480469 44.167969 27.195312 44.207031 26.910156 44.230469 C 26.847656 44.238281 26.75 44.226562 26.714844 44.183594 C 26.5 43.917969 26.246094 43.703125 25.9375 43.535156 C 26.027344 43.523438 26.113281 43.507812 26.199219 43.5 C 26.933594 43.433594 27.671875 43.375 28.402344 43.300781 Z M 29.398438 44.21875 C 29.527344 44.46875 29.566406 44.746094 29.519531 45.0625 C 28.667969 45.097656 27.839844 45.273438 26.988281 45.480469 C 26.988281 45.304688 27 45.144531 26.984375 44.984375 C 26.96875 44.824219 26.925781 44.664062 26.890625 44.488281 C 27.714844 44.402344 28.539062 44.3125 29.398438 44.21875 Z M 29.339844 45.742188 C 29.304688 45.804688 29.210938 45.84375 29.136719 45.863281 C 28.8125 45.949219 28.484375 46.03125 28.15625 46.101562 C 27.683594 46.203125 27.210938 46.292969 26.738281 46.390625 C 26.683594 46.398438 26.628906 46.402344 26.570312 46.410156 C 26.703125 46.167969 26.828125 45.941406 26.96875 45.683594 C 27.769531 45.558594 28.597656 45.429688 29.453125 45.292969 C 29.460938 45.480469 29.410156 45.621094 29.339844 45.742188 Z M 26.320312 46.136719 C 26.058594 46.476562 25.742188 46.585938 25.34375 46.429688 C 24.921875 46.269531 24.621094 45.988281 24.496094 45.535156 C 24.386719 45.125 24.359375 44.722656 24.527344 44.324219 C 24.632812 44.070312 24.796875 43.875 25.050781 43.761719 C 25.355469 43.628906 25.644531 43.695312 25.898438 43.855469 C 26.363281 44.152344 26.632812 44.578125 26.644531 45.132812 C 26.632812 45.507812 26.542969 45.84375 26.320312 46.136719 Z M 19.207031 42.363281 C 19.199219 42.375 19.191406 42.386719 19.183594 42.398438 C 19.042969 42.34375 18.898438 42.292969 18.746094 42.234375 C 18.78125 42.160156 18.8125 42.09375 18.84375 42.027344 C 18.863281 41.984375 18.886719 41.941406 18.925781 41.867188 C 19.03125 42.046875 19.117188 42.203125 19.207031 42.363281 Z M 19.492188 43.664062 C 19.492188 44.363281 18.882812 45.035156 18.25 45.015625 C 17.460938 44.988281 16.90625 44.332031 16.917969 43.722656 C 16.929688 43.128906 17.417969 42.449219 18.222656 42.453125 C 18.921875 42.453125 19.492188 43.003906 19.492188 43.664062 Z M 16.078125 41.09375 C 16.191406 41.015625 16.316406 40.925781 16.445312 40.835938 C 16.644531 41.46875 16.835938 42.074219 17.039062 42.71875 C 16.941406 42.859375 16.828125 43.019531 16.699219 43.195312 C 16.492188 42.488281 16.289062 41.804688 16.078125 41.09375 Z M 17.375 40.480469 C 17.539062 41.050781 17.703125 41.621094 17.871094 42.207031 C 17.664062 42.304688 17.457031 42.40625 17.242188 42.511719 C 17.046875 41.917969 16.851562 41.328125 16.652344 40.730469 C 16.867188 40.585938 17.097656 40.519531 17.375 40.480469 Z M 18.296875 40.617188 C 18.324219 40.625 18.347656 40.65625 18.363281 40.679688 C 18.382812 40.707031 18.394531 40.738281 18.40625 40.769531 C 18.484375 40.957031 18.621094 41.144531 18.632812 41.335938 C 18.640625 41.527344 18.523438 41.722656 18.460938 41.917969 C 18.4375 42.003906 18.410156 42.089844 18.378906 42.1875 C 18.304688 42.1875 18.226562 42.1875 18.171875 42.1875 C 17.96875 41.617188 17.769531 41.054688 17.5625 40.484375 C 17.835938 40.453125 18.0625 40.554688 18.296875 40.617188 Z M 13.984375 41.667969 C 14.214844 41.644531 14.394531 41.6875 14.554688 41.867188 C 14.675781 42.003906 14.777344 42.144531 14.859375 42.320312 C 14.128906 42.40625 13.429688 42.492188 12.730469 42.574219 C 12.632812 42.585938 12.535156 42.601562 12.4375 42.601562 C 12.386719 42.601562 12.320312 42.578125 12.292969 42.539062 C 12.082031 42.269531 11.824219 42.066406 11.457031 41.90625 C 11.613281 41.886719 11.707031 41.871094 11.804688 41.863281 C 12.53125 41.796875 13.257812 41.742188 13.984375 41.667969 Z M 14.984375 42.585938 C 15.121094 42.832031 15.144531 43.113281 15.101562 43.425781 C 14.246094 43.460938 13.414062 43.644531 12.601562 43.835938 C 12.570312 43.5 12.539062 43.183594 12.503906 42.851562 C 13.308594 42.765625 14.140625 42.675781 14.984375 42.585938 Z M 15.046875 43.742188 C 15.019531 44.0625 14.855469 44.230469 14.53125 44.289062 C 13.769531 44.4375 13.011719 44.609375 12.25 44.773438 C 12.226562 44.777344 12.199219 44.773438 12.160156 44.773438 C 12.292969 44.53125 12.417969 44.300781 12.550781 44.050781 C 13.363281 43.945312 14.183594 43.75 15.042969 43.683594 C 15.046875 43.722656 15.046875 43.734375 15.046875 43.742188 Z M 11.769531 44.660156 C 11.632812 44.800781 11.472656 44.859375 11.277344 44.851562 C 10.816406 44.832031 10.445312 44.625 10.226562 44.226562 C 9.957031 43.742188 9.898438 43.214844 10.121094 42.679688 C 10.21875 42.441406 10.371094 42.257812 10.605469 42.144531 C 10.921875 41.988281 11.226562 42.054688 11.496094 42.226562 C 12.445312 42.839844 12.410156 44 11.769531 44.660156 Z M 48.984375 30.03125 C 48.890625 29.546875 48.75 29.070312 48.453125 28.660156 C 48.402344 28.59375 48.378906 28.53125 48.410156 28.433594 C 48.65625 27.65625 48.710938 26.851562 48.6875 26.039062 C 48.660156 25.09375 48.511719 24.167969 48.308594 23.25 C 48.136719 22.464844 47.910156 21.699219 47.523438 20.992188 C 47.074219 20.171875 46.464844 19.503906 45.644531 19.046875 C 45.195312 18.800781 44.730469 18.6875 44.222656 18.8125 C 44.199219 18.820312 44.175781 18.8125 44.121094 18.808594 C 44.121094 18.675781 44.125 18.542969 44.121094 18.414062 C 44.117188 18.28125 44.101562 18.152344 44.089844 18.019531 C 43.953125 16.320312 43.21875 14.910156 41.988281 13.753906 C 41.21875 13.035156 40.316406 12.539062 39.332031 12.183594 C 39.25 12.152344 39.167969 12.117188 39.097656 12.089844 C 39.113281 11.773438 39.140625 11.476562 39.144531 11.179688 C 39.152344 10.398438 39.089844 9.617188 38.992188 8.839844 C 38.917969 8.234375 38.824219 7.632812 38.644531 7.046875 C 38.621094 6.976562 38.558594 6.910156 38.496094 6.867188 C 38.4375 6.828125 38.359375 6.816406 38.285156 6.796875 C 36.910156 6.449219 35.519531 6.167969 34.121094 5.933594 C 32.546875 5.671875 30.96875 5.484375 29.378906 5.363281 C 27.535156 5.222656 25.691406 5.15625 23.839844 5.234375 C 22.929688 5.269531 22.019531 5.320312 21.113281 5.394531 C 20.363281 5.457031 19.613281 5.5625 18.863281 5.652344 C 17.707031 5.789062 16.554688 5.953125 15.421875 6.238281 C 14.792969 6.398438 14.167969 6.574219 13.5625 6.804688 C 13.296875 6.90625 13.152344 7.074219 13.078125 7.339844 C 12.847656 8.15625 12.589844 8.964844 12.390625 9.789062 C 12.179688 10.671875 12.019531 11.5625 11.847656 12.453125 C 11.828125 12.5625 11.769531 12.601562 11.691406 12.648438 C 11.402344 12.820312 11.101562 12.980469 10.828125 13.175781 C 9.183594 14.355469 8.203125 15.9375 8.003906 17.980469 C 7.976562 18.257812 7.964844 18.535156 7.945312 18.820312 C 7.835938 18.804688 7.738281 18.789062 7.644531 18.773438 C 7.179688 18.707031 6.765625 18.859375 6.375 19.085938 C 5.519531 19.585938 4.902344 20.3125 4.464844 21.195312 C 4.109375 21.910156 3.902344 22.671875 3.742188 23.449219 C 3.425781 24.960938 3.246094 26.480469 3.566406 28.015625 C 3.589844 28.132812 3.558594 28.214844 3.472656 28.300781 C 3.226562 28.554688 3.050781 28.851562 3.007812 29.210938 C 2.941406 29.800781 2.976562 30.390625 3.210938 30.9375 C 3.433594 31.46875 3.828125 31.828125 4.453125 31.828125 C 4.550781 31.828125 4.644531 31.839844 4.757812 31.851562 C 4.757812 31.976562 4.753906 32.089844 4.761719 32.203125 C 4.8125 32.992188 4.847656 33.78125 4.921875 34.570312 C 4.96875 35.042969 5.054688 35.515625 5.15625 35.984375 C 5.296875 36.617188 5.65625 37.097656 6.253906 37.355469 C 6.585938 37.5 6.933594 37.605469 7.28125 37.691406 C 7.808594 37.828125 8.355469 37.824219 8.894531 37.832031 C 9.726562 37.839844 10.550781 37.765625 11.359375 37.558594 C 11.964844 37.398438 12.332031 37.019531 12.503906 36.417969 C 12.753906 35.53125 12.839844 34.621094 12.878906 33.703125 C 12.898438 33.167969 12.878906 32.632812 12.878906 32.097656 C 12.878906 32.023438 12.890625 31.953125 12.894531 31.894531 C 16.148438 31.894531 19.382812 31.894531 22.660156 31.894531 C 22.597656 31.980469 22.570312 32.027344 22.535156 32.070312 C 21.972656 32.792969 21.414062 33.515625 20.84375 34.234375 C 20.335938 34.871094 19.773438 35.460938 19.1875 36.027344 C 18.277344 36.90625 17.273438 37.664062 16.265625 38.414062 C 15.253906 39.164062 14.3125 39.976562 13.546875 40.984375 C 13.4375 41.128906 13.339844 41.304688 13.195312 41.386719 C 13.046875 41.464844 12.839844 41.433594 12.664062 41.464844 C 12.035156 41.574219 11.398438 41.671875 10.777344 41.8125 C 10.285156 41.921875 9.972656 42.246094 9.824219 42.742188 C 9.679688 43.21875 9.746094 43.667969 9.878906 44.128906 C 10.035156 44.675781 10.765625 45.214844 11.378906 45.167969 C 11.601562 45.148438 11.824219 45.136719 12.039062 45.097656 C 12.695312 44.980469 13.347656 44.851562 13.996094 44.722656 C 14.292969 44.660156 14.59375 44.597656 14.882812 44.511719 C 15 44.476562 15.144531 44.402344 15.199219 44.300781 C 15.421875 43.890625 15.558594 43.445312 15.519531 42.972656 C 15.464844 42.363281 15.140625 41.890625 14.671875 41.519531 C 14.496094 41.382812 14.292969 41.328125 14.070312 41.351562 C 13.976562 41.359375 13.882812 41.382812 13.777344 41.320312 C 13.960938 41.128906 14.128906 40.949219 14.304688 40.777344 C 14.710938 40.371094 15.101562 39.9375 15.542969 39.574219 C 16.238281 39 16.976562 38.472656 17.695312 37.921875 C 18.976562 36.933594 20.15625 35.839844 21.179688 34.582031 C 21.851562 33.757812 22.492188 32.910156 23.140625 32.066406 C 23.242188 31.929688 23.347656 31.882812 23.507812 31.886719 C 23.863281 31.898438 24.214844 31.890625 24.566406 31.894531 C 24.621094 31.894531 24.671875 31.90625 24.742188 31.917969 C 24.6875 32.011719 24.648438 32.085938 24.605469 32.152344 C 24.292969 32.609375 23.996094 33.074219 23.667969 33.515625 C 22.734375 34.773438 21.78125 36.015625 20.855469 37.277344 C 20.042969 38.390625 19.367188 39.589844 18.839844 40.867188 C 18.824219 40.898438 18.800781 40.925781 18.761719 40.984375 C 18.699219 40.839844 18.65625 40.722656 18.597656 40.617188 C 18.550781 40.535156 18.492188 40.4375 18.414062 40.398438 C 17.699219 40.039062 16.695312 40.132812 16.070312 40.832031 C 15.914062 41.003906 15.859375 41.1875 15.925781 41.417969 C 16.070312 41.917969 16.1875 42.425781 16.320312 42.925781 C 16.433594 43.347656 16.546875 43.769531 16.671875 44.1875 C 16.929688 45.074219 17.839844 45.46875 18.480469 45.355469 C 19.316406 45.203125 19.949219 44.367188 19.820312 43.523438 C 19.75 43.039062 19.65625 42.546875 19.40625 42.109375 C 19.320312 41.960938 19.25 41.800781 19.160156 41.652344 C 19.097656 41.550781 19.097656 41.460938 19.148438 41.355469 C 19.324219 41 19.484375 40.636719 19.65625 40.28125 C 20.363281 38.773438 21.289062 37.402344 22.277344 36.070312 C 23.269531 34.734375 24.3125 33.4375 25.183594 32.015625 C 25.242188 31.914062 25.320312 31.890625 25.425781 31.890625 C 25.96875 31.894531 26.507812 31.894531 27.050781 31.894531 C 27.109375 31.894531 27.164062 31.90625 27.230469 31.910156 C 27.21875 31.980469 27.214844 32.035156 27.203125 32.089844 C 27.070312 32.621094 26.953125 33.152344 26.804688 33.671875 C 26.390625 35.117188 25.992188 36.558594 25.828125 38.058594 C 25.714844 39.085938 25.746094 40.097656 25.972656 41.105469 C 26.117188 41.738281 26.402344 42.316406 26.65625 42.90625 C 26.683594 42.980469 26.714844 43.050781 26.75 43.136719 C 26.605469 43.160156 26.492188 43.171875 26.382812 43.195312 C 25.980469 43.273438 25.574219 43.34375 25.175781 43.445312 C 24.6875 43.574219 24.375 43.894531 24.230469 44.390625 C 24.09375 44.863281 24.160156 45.316406 24.296875 45.777344 C 24.453125 46.304688 25.167969 46.84375 25.78125 46.800781 C 26.011719 46.785156 26.242188 46.769531 26.46875 46.730469 C 27.113281 46.613281 27.757812 46.488281 28.398438 46.355469 C 28.703125 46.296875 29.007812 46.222656 29.308594 46.144531 C 29.496094 46.097656 29.632812 45.988281 29.691406 45.792969 C 29.742188 45.628906 29.808594 45.46875 29.851562 45.300781 C 30.070312 44.476562 29.78125 43.660156 29.09375 43.160156 C 28.921875 43.035156 28.734375 42.96875 28.519531 42.984375 C 28.230469 43.003906 27.945312 43.015625 27.660156 43.039062 C 27.472656 43.050781 27.285156 43.070312 27.09375 43.089844 C 26.949219 42.660156 26.796875 42.242188 26.664062 41.816406 C 26.363281 40.84375 26.183594 39.851562 26.234375 38.820312 C 26.285156 37.761719 26.472656 36.726562 26.722656 35.699219 C 26.953125 34.746094 27.214844 33.800781 27.457031 32.851562 C 27.535156 32.542969 27.589844 32.226562 27.65625 31.917969 C 27.976562 31.871094 29.0625 31.886719 29.261719 31.949219 C 29.304688 32.671875 29.355469 33.402344 29.398438 34.132812 C 29.449219 34.941406 29.515625 35.746094 29.695312 36.539062 C 29.949219 37.667969 30.351562 38.738281 31.042969 39.671875 C 31.457031 40.234375 31.941406 40.746094 32.394531 41.277344 C 32.449219 41.34375 32.507812 41.40625 32.5625 41.46875 C 32.339844 41.726562 32.113281 41.941406 32 42.246094 C 31.945312 42.386719 31.949219 42.503906 32.039062 42.636719 C 32.527344 43.355469 33.054688 44.039062 33.660156 44.65625 C 34.296875 45.308594 35.058594 45.21875 35.632812 44.746094 C 36.234375 44.25 36.207031 43.527344 35.816406 43.046875 C 35.472656 42.625 35.101562 42.226562 34.738281 41.828125 C 34.488281 41.554688 34.21875 41.296875 33.96875 41.027344 C 33.871094 40.921875 33.757812 40.890625 33.636719 40.929688 C 33.386719 41.003906 33.144531 41.09375 32.882812 41.183594 C 32.671875 40.929688 32.441406 40.664062 32.21875 40.386719 C 31.871094 39.949219 31.5 39.527344 31.191406 39.0625 C 30.363281 37.820312 29.976562 36.421875 29.835938 34.945312 C 29.78125 34.347656 29.75 33.746094 29.703125 33.144531 C 29.671875 32.742188 29.636719 32.339844 29.597656 31.898438 C 29.699219 31.898438 29.777344 31.898438 29.859375 31.898438 C 30.328125 31.898438 30.796875 31.90625 31.261719 31.890625 C 31.457031 31.882812 31.5625 31.945312 31.644531 32.117188 C 31.992188 32.855469 32.355469 33.585938 32.703125 34.324219 C 33.019531 34.996094 33.363281 35.652344 33.792969 36.261719 C 34.523438 37.296875 35.4375 38.140625 36.460938 38.875 C 37.476562 39.609375 38.558594 40.226562 39.6875 40.769531 C 39.738281 40.796875 39.785156 40.832031 39.871094 40.886719 C 39.683594 40.933594 39.535156 40.949219 39.402344 41.003906 C 39.253906 41.0625 39.082031 41.121094 38.980469 41.234375 C 38.554688 41.703125 38.367188 42.265625 38.449219 42.898438 C 38.496094 43.277344 38.707031 43.585938 38.902344 43.902344 C 39.074219 44.183594 39.3125 44.292969 39.625 44.269531 C 39.664062 44.269531 39.707031 44.269531 39.746094 44.265625 C 40.246094 44.242188 40.746094 44.230469 41.246094 44.1875 C 41.816406 44.136719 42.390625 44.078125 42.957031 43.980469 C 43.59375 43.871094 44 43.441406 44.152344 42.835938 C 44.304688 42.214844 44.1875 41.601562 43.789062 41.078125 C 43.601562 40.828125 43.359375 40.640625 43.03125 40.617188 C 42.757812 40.597656 42.476562 40.578125 42.203125 40.59375 C 41.785156 40.621094 41.367188 40.664062 40.953125 40.726562 C 40.726562 40.761719 40.53125 40.726562 40.339844 40.613281 C 40.285156 40.582031 40.222656 40.554688 40.167969 40.523438 C 39.375 40.054688 38.574219 39.597656 37.792969 39.113281 C 37.304688 38.808594 36.835938 38.476562 36.378906 38.128906 C 35.078125 37.140625 34.070312 35.910156 33.359375 34.429688 C 32.980469 33.636719 32.574219 32.851562 32.179688 32.0625 C 32.15625 32.015625 32.140625 31.964844 32.121094 31.921875 C 34.53125 31.921875 36.925781 31.921875 39.328125 31.921875 C 39.335938 31.992188 39.34375 32.039062 39.339844 32.085938 C 39.335938 32.40625 39.304688 32.730469 39.320312 33.050781 C 39.355469 33.785156 39.394531 34.515625 39.46875 35.246094 C 39.515625 35.738281 39.617188 36.226562 39.796875 36.6875 C 39.960938 37.097656 40.246094 37.378906 40.660156 37.515625 C 40.882812 37.589844 41.117188 37.644531 41.347656 37.695312 C 42.191406 37.871094 43.046875 37.867188 43.902344 37.839844 C 44.550781 37.824219 45.1875 37.710938 45.796875 37.464844 C 46.519531 37.167969 46.941406 36.636719 47.089844 35.871094 C 47.28125 34.914062 47.367188 33.949219 47.421875 32.976562 C 47.441406 32.664062 47.453125 32.355469 47.46875 32.023438 C 47.582031 32.015625 47.675781 32 47.773438 32.003906 C 48.226562 32.027344 48.546875 31.804688 48.75 31.421875 C 48.980469 30.992188 49.078125 30.519531 48.984375 30.03125 " fill-opacity="1" fill-rule="nonzero"/></g><path fill="#000000" d="M 33.011719 25.453125 C 32.851562 25.476562 32.6875 25.527344 32.5 25.433594 C 32.5 25.199219 32.492188 24.953125 32.5 24.710938 C 32.511719 24.453125 32.53125 24.199219 32.554688 23.945312 C 32.601562 23.460938 32.613281 22.976562 32.523438 22.488281 C 33.207031 22.160156 33.867188 21.804688 34.585938 21.601562 C 34.824219 21.535156 35.058594 21.457031 35.292969 21.382812 C 35.492188 21.320312 35.542969 21.246094 35.496094 21.039062 C 35.457031 20.859375 35.402344 20.6875 35.355469 20.511719 C 35.34375 20.476562 35.339844 20.4375 35.332031 20.386719 C 36.050781 20.484375 36.734375 20.339844 37.414062 20.191406 C 38.109375 20.035156 38.800781 19.855469 39.492188 19.683594 C 39.632812 19.648438 39.773438 19.605469 39.933594 19.59375 C 39.863281 19.683594 39.792969 19.769531 39.71875 19.855469 C 39.296875 20.328125 38.859375 20.789062 38.453125 21.269531 C 38.242188 21.519531 38.074219 21.808594 37.894531 22.082031 C 37.851562 22.148438 37.820312 22.230469 37.796875 22.308594 C 37.726562 22.554688 37.796875 22.75 38.015625 22.882812 C 38.136719 22.953125 38.261719 23.011719 38.386719 23.074219 C 38.816406 23.277344 39.25 23.476562 39.679688 23.679688 C 39.746094 23.710938 39.808594 23.75 39.871094 23.78125 C 39.871094 23.800781 39.871094 23.820312 39.867188 23.835938 C 39.296875 24.015625 38.726562 24.195312 38.15625 24.371094 C 37.054688 24.699219 35.933594 24.9375 34.800781 25.140625 C 34.207031 25.246094 33.609375 25.355469 33.011719 25.453125 Z M 31.140625 21.613281 C 30.214844 21.789062 29.277344 21.796875 28.34375 21.667969 C 27.355469 21.527344 26.371094 21.34375 25.382812 21.171875 C 24.210938 20.96875 23.03125 20.800781 21.835938 20.820312 C 20.671875 20.839844 19.507812 20.921875 18.371094 21.199219 C 17.925781 21.308594 17.492188 21.46875 17.03125 21.609375 C 17.074219 20.925781 17.144531 20.261719 17.292969 19.609375 C 17.519531 18.613281 17.878906 17.65625 18.179688 16.679688 C 18.28125 16.359375 18.449219 16.210938 18.753906 16.097656 C 19.957031 15.65625 21.203125 15.429688 22.464844 15.257812 C 23.523438 15.113281 24.585938 15.007812 25.65625 15.054688 C 26.539062 15.09375 27.402344 15.25 28.246094 15.492188 C 29.644531 15.894531 31.066406 16.027344 32.507812 15.894531 C 33.023438 15.84375 33.53125 15.75 34.042969 15.675781 C 34.097656 15.667969 34.152344 15.667969 34.214844 15.660156 C 34.363281 17.449219 34.613281 19.207031 35.109375 20.941406 C 35.035156 20.949219 34.976562 20.960938 34.914062 20.957031 C 34.410156 20.945312 33.917969 21.023438 33.429688 21.132812 C 32.667969 21.304688 31.90625 21.46875 31.140625 21.613281 Z M 18.171875 24.832031 C 16.828125 25.214844 13.847656 25.296875 13.113281 24.953125 C 13.179688 24.882812 13.238281 24.824219 13.296875 24.761719 C 13.601562 24.445312 13.910156 24.140625 14.199219 23.8125 C 14.316406 23.675781 14.40625 23.496094 14.46875 23.320312 C 14.5625 23.074219 14.496094 22.859375 14.273438 22.714844 C 14.105469 22.605469 13.914062 22.515625 13.726562 22.441406 C 13.191406 22.230469 12.628906 22.113281 12.054688 22.019531 C 13.679688 21.566406 15.246094 20.972656 16.78125 20.203125 C 16.753906 20.429688 16.722656 20.628906 16.710938 20.828125 C 16.691406 21.164062 16.664062 21.5 16.679688 21.835938 C 16.6875 22.066406 16.722656 22.054688 16.953125 22.070312 C 17.410156 22.109375 17.871094 22.042969 18.351562 22.171875 C 18.09375 23.050781 18.125 23.945312 18.171875 24.832031 Z M 39.988281 24.1875 C 40.136719 24.136719 40.277344 24.066406 40.414062 23.992188 C 40.558594 23.90625 40.578125 23.75 40.460938 23.640625 C 40.390625 23.578125 40.300781 23.527344 40.210938 23.484375 C 39.621094 23.214844 39.03125 22.949219 38.4375 22.6875 C 38.074219 22.523438 38.058594 22.480469 38.242188 22.117188 C 38.429688 21.753906 38.699219 21.457031 38.96875 21.152344 C 39.324219 20.753906 39.667969 20.34375 40.011719 19.933594 C 40.101562 19.828125 40.171875 19.703125 40.238281 19.582031 C 40.347656 19.371094 40.285156 19.25 40.046875 19.226562 C 39.925781 19.214844 39.800781 19.21875 39.683594 19.246094 C 39.242188 19.351562 38.808594 19.476562 38.371094 19.578125 C 37.578125 19.761719 36.785156 19.9375 35.992188 20.09375 C 35.761719 20.140625 35.519531 20.101562 35.265625 20.101562 C 35.246094 20.023438 35.222656 19.957031 35.207031 19.886719 C 35.011719 18.882812 34.828125 17.878906 34.757812 16.855469 C 34.726562 16.4375 34.652344 16.023438 34.574219 15.609375 C 34.523438 15.347656 34.441406 15.296875 34.179688 15.304688 C 33.785156 15.320312 33.390625 15.328125 33 15.375 C 31.382812 15.554688 29.789062 15.449219 28.21875 15 C 27.308594 14.738281 26.378906 14.582031 25.429688 14.5625 C 24.753906 14.550781 24.085938 14.585938 23.414062 14.660156 C 22.417969 14.769531 21.429688 14.917969 20.460938 15.1875 C 19.757812 15.386719 19.0625 15.605469 18.363281 15.8125 C 18.175781 15.867188 18.058594 15.988281 17.992188 16.175781 C 17.582031 17.332031 17.144531 18.480469 16.890625 19.6875 C 16.867188 19.800781 16.8125 19.855469 16.710938 19.890625 C 16.507812 19.957031 16.308594 20.03125 16.109375 20.109375 C 14.976562 20.566406 13.839844 21.019531 12.675781 21.394531 C 12.316406 21.511719 11.96875 21.65625 11.617188 21.796875 C 11.527344 21.832031 11.4375 21.878906 11.363281 21.945312 C 11.246094 22.046875 11.28125 22.207031 11.425781 22.253906 C 11.492188 22.277344 11.570312 22.277344 11.640625 22.289062 C 11.789062 22.316406 11.9375 22.328125 12.078125 22.367188 C 12.484375 22.488281 12.894531 22.613281 13.296875 22.75 C 13.53125 22.824219 13.761719 22.914062 13.988281 23.011719 C 14.152344 23.085938 14.175781 23.144531 14.097656 23.304688 C 14.015625 23.460938 13.917969 23.621094 13.796875 23.753906 C 13.503906 24.074219 13.1875 24.375 12.882812 24.6875 C 12.816406 24.757812 12.746094 24.832031 12.695312 24.917969 C 12.617188 25.046875 12.640625 25.15625 12.773438 25.230469 C 12.871094 25.285156 12.980469 25.328125 13.089844 25.355469 C 13.550781 25.476562 14.019531 25.542969 14.496094 25.574219 C 15.828125 25.660156 17.136719 25.515625 18.441406 25.28125 C 18.675781 25.238281 18.671875 25.230469 18.664062 24.992188 C 18.65625 24.667969 18.625 24.347656 18.644531 24.027344 C 18.699219 23.167969 18.867188 22.332031 19.199219 21.503906 C 20.011719 21.359375 20.832031 21.304688 21.652344 21.3125 C 22.894531 21.320312 24.121094 21.492188 25.339844 21.722656 C 26.40625 21.921875 27.464844 22.160156 28.542969 22.265625 C 29.386719 22.347656 30.230469 22.34375 31.070312 22.210938 C 31.410156 22.15625 31.746094 22.089844 32.105469 22.023438 C 32.121094 22.140625 32.140625 22.25 32.152344 22.363281 C 32.234375 23.199219 32.125 24.027344 32.085938 24.859375 C 32.074219 25.078125 32.09375 25.304688 32.144531 25.519531 C 32.203125 25.761719 32.347656 25.855469 32.59375 25.855469 C 32.742188 25.859375 32.890625 25.84375 33.035156 25.820312 C 33.546875 25.738281 34.050781 25.640625 34.5625 25.566406 C 35.742188 25.390625 36.910156 25.183594 38.046875 24.820312 C 38.695312 24.613281 39.34375 24.402344 39.988281 24.1875 " fill-opacity="1" fill-rule="nonzero"/><path fill="#000000" d="M 8.640625 34.398438 C 8.617188 34.34375 8.539062 34.285156 8.480469 34.277344 C 8.441406 34.269531 8.363281 34.339844 8.347656 34.390625 C 8.199219 34.816406 8.242188 35.234375 8.4375 35.636719 C 8.460938 35.6875 8.550781 35.738281 8.609375 35.742188 C 8.703125 35.742188 8.746094 35.65625 8.746094 35.566406 C 8.75 35.4375 8.746094 35.304688 8.746094 35.171875 C 8.769531 34.90625 8.746094 34.644531 8.640625 34.398438 " fill-opacity="1" fill-rule="nonzero"/><path fill="#000000" d="M 10.628906 34.167969 C 10.566406 34.1875 10.492188 34.242188 10.472656 34.300781 C 10.417969 34.46875 10.390625 34.648438 10.355469 34.804688 C 10.378906 34.96875 10.398438 35.105469 10.425781 35.242188 C 10.445312 35.339844 10.515625 35.402344 10.617188 35.410156 C 10.71875 35.417969 10.792969 35.359375 10.820312 35.265625 C 10.921875 34.941406 10.925781 34.617188 10.808594 34.296875 C 10.78125 34.214844 10.722656 34.144531 10.628906 34.167969 " fill-opacity="1" fill-rule="nonzero"/><path fill="#000000" d="M 6.394531 34.09375 C 6.351562 34.089844 6.28125 34.160156 6.269531 34.210938 C 6.167969 34.589844 6.167969 34.972656 6.277344 35.351562 C 6.308594 35.445312 6.367188 35.515625 6.472656 35.503906 C 6.578125 35.488281 6.613281 35.402344 6.621094 35.304688 C 6.628906 35.199219 6.632812 35.089844 6.636719 34.984375 C 6.648438 34.984375 6.660156 34.980469 6.667969 34.980469 C 6.625 34.722656 6.582031 34.464844 6.527344 34.207031 C 6.515625 34.160156 6.441406 34.09375 6.394531 34.09375 " fill-opacity="1" fill-rule="nonzero"/><path fill="#000000" d="M 43.832031 34.347656 C 43.777344 34.265625 43.683594 34.261719 43.625 34.335938 C 43.582031 34.386719 43.550781 34.449219 43.539062 34.511719 C 43.496094 34.746094 43.460938 34.980469 43.421875 35.214844 C 43.429688 35.21875 43.4375 35.21875 43.445312 35.21875 C 43.457031 35.359375 43.460938 35.5 43.480469 35.636719 C 43.488281 35.683594 43.542969 35.75 43.582031 35.757812 C 43.636719 35.765625 43.707031 35.730469 43.753906 35.699219 C 43.789062 35.671875 43.808594 35.617188 43.828125 35.570312 C 43.957031 35.238281 43.972656 34.898438 43.914062 34.550781 C 43.898438 34.480469 43.871094 34.40625 43.832031 34.347656 " fill-opacity="1" fill-rule="nonzero"/><path fill="#000000" d="M 41.570312 34.1875 C 41.503906 34.210938 41.425781 34.273438 41.402344 34.339844 C 41.351562 34.492188 41.332031 34.65625 41.300781 34.808594 C 41.328125 34.96875 41.347656 35.117188 41.378906 35.261719 C 41.40625 35.367188 41.480469 35.433594 41.59375 35.429688 C 41.695312 35.429688 41.765625 35.367188 41.789062 35.269531 C 41.871094 34.953125 41.867188 34.636719 41.746094 34.324219 C 41.71875 34.246094 41.664062 34.160156 41.570312 34.1875 " fill-opacity="1" fill-rule="nonzero"/><path fill="#000000" d="M 45.820312 34.109375 C 45.769531 34.15625 45.714844 34.203125 45.671875 34.257812 C 45.652344 34.277344 45.65625 34.320312 45.648438 34.351562 C 45.570312 34.671875 45.550781 34.996094 45.597656 35.324219 C 45.613281 35.421875 45.625 35.507812 45.738281 35.523438 C 45.863281 35.535156 45.921875 35.457031 45.941406 35.351562 C 45.976562 35.167969 46 34.984375 46.027344 34.800781 C 46.003906 34.613281 45.988281 34.433594 45.949219 34.257812 C 45.9375 34.203125 45.863281 34.160156 45.820312 34.109375 " fill-opacity="1" fill-rule="nonzero"/><path fill="#000000" d="M 8.695312 23.398438 C 9.523438 23.398438 10.179688 24.074219 10.175781 24.921875 C 10.175781 25.753906 9.515625 26.410156 8.6875 26.410156 C 7.863281 26.40625 7.183594 25.714844 7.195312 24.886719 C 7.207031 24.066406 7.878906 23.394531 8.695312 23.398438 Z M 8.71875 26.667969 C 9.675781 26.671875 10.460938 25.890625 10.472656 24.929688 C 10.484375 23.984375 9.683594 23.183594 8.730469 23.183594 C 7.769531 23.183594 6.984375 23.964844 6.984375 24.925781 C 6.984375 25.898438 7.746094 26.667969 8.71875 26.667969 " fill-opacity="1" fill-rule="nonzero"/><path fill="#000000" d="M 43.242188 23.398438 C 44.074219 23.40625 44.722656 24.078125 44.71875 24.929688 C 44.714844 25.757812 44.050781 26.414062 43.222656 26.410156 C 42.40625 26.402344 41.742188 25.726562 41.738281 24.90625 C 41.734375 24.078125 42.421875 23.390625 43.242188 23.398438 Z M 43.261719 26.667969 C 44.21875 26.671875 45.003906 25.890625 45.015625 24.929688 C 45.023438 23.984375 44.226562 23.183594 43.269531 23.183594 C 42.308594 23.183594 41.527344 23.964844 41.523438 24.925781 C 41.523438 25.898438 42.289062 26.667969 43.261719 26.667969 " fill-opacity="1" fill-rule="nonzero"/><g clip-path="url(#26d95ec0fa)"><path fill="#000000" d="M 25.824219 45.605469 C 25.652344 45.777344 25.40625 45.769531 25.238281 45.589844 C 24.957031 45.277344 24.972656 44.738281 25.277344 44.449219 C 25.515625 44.21875 25.796875 44.277344 25.921875 44.582031 C 25.949219 44.652344 25.972656 44.722656 25.988281 44.792969 C 26.003906 44.875 26.007812 44.957031 26.015625 45.003906 C 26.019531 45.25 25.980469 45.445312 25.824219 45.605469 Z M 26.128906 44.335938 C 25.863281 43.980469 25.382812 43.976562 25.097656 44.308594 C 24.753906 44.714844 24.726562 45.160156 24.917969 45.625 C 25.113281 46.109375 25.671875 46.21875 26.046875 45.855469 C 26.269531 45.644531 26.359375 45.378906 26.355469 45.078125 C 26.355469 44.804688 26.289062 44.554688 26.128906 44.335938 " fill-opacity="1" fill-rule="nonzero"/></g><path fill="#000000" d="M 11.421875 43.957031 C 11.25 44.144531 10.988281 44.140625 10.820312 43.949219 C 10.539062 43.628906 10.558594 43.097656 10.867188 42.808594 C 11.109375 42.582031 11.386719 42.644531 11.511719 42.953125 C 11.542969 43.039062 11.570312 43.125 11.589844 43.214844 C 11.605469 43.285156 11.601562 43.359375 11.605469 43.394531 C 11.609375 43.628906 11.558594 43.808594 11.421875 43.957031 Z M 11.699219 42.683594 C 11.4375 42.347656 10.957031 42.347656 10.683594 42.675781 C 10.355469 43.066406 10.308594 43.5 10.492188 43.96875 C 10.695312 44.484375 11.285156 44.59375 11.667969 44.1875 C 11.867188 43.980469 11.941406 43.722656 11.953125 43.417969 C 11.9375 43.167969 11.875 42.902344 11.699219 42.683594 " fill-opacity="1" fill-rule="nonzero"/><path fill="#000000" d="M 42.324219 41.84375 C 42.371094 41.539062 42.613281 41.421875 42.890625 41.5625 C 43.175781 41.707031 43.304688 41.925781 43.3125 42.285156 C 43.296875 42.386719 43.296875 42.5 43.265625 42.597656 C 43.167969 42.886719 42.882812 42.984375 42.636719 42.800781 C 42.550781 42.730469 42.472656 42.636719 42.421875 42.539062 C 42.308594 42.324219 42.285156 42.085938 42.324219 41.84375 Z M 42.0625 42.574219 C 42.15625 42.832031 42.316406 43.03125 42.566406 43.152344 C 42.988281 43.355469 43.433594 43.148438 43.542969 42.691406 C 43.566406 42.605469 43.570312 42.515625 43.585938 42.425781 C 43.597656 41.933594 43.363281 41.589844 42.964844 41.34375 C 42.875 41.289062 42.75 41.246094 42.644531 41.253906 C 42.328125 41.273438 42.082031 41.503906 42.015625 41.820312 C 41.960938 42.074219 41.96875 42.328125 42.0625 42.574219 " fill-opacity="1" fill-rule="nonzero"/><path fill="#000000" d="M 18.335938 44.453125 C 17.890625 44.53125 17.523438 44.21875 17.527344 43.714844 C 17.574219 43.460938 17.585938 43.152344 17.871094 42.953125 C 18.273438 42.667969 18.8125 42.839844 18.964844 43.316406 C 19.128906 43.832031 18.835938 44.363281 18.335938 44.453125 Z M 18.1875 42.605469 C 18.070312 42.617188 17.949219 42.664062 17.851562 42.726562 C 17.550781 42.925781 17.417969 43.230469 17.355469 43.574219 C 17.285156 43.949219 17.421875 44.371094 17.722656 44.554688 C 18.046875 44.757812 18.394531 44.738281 18.722656 44.550781 C 19.09375 44.339844 19.199219 43.988281 19.210938 43.5 C 19.25 42.921875 18.71875 42.550781 18.1875 42.605469 " fill-opacity="1" fill-rule="nonzero"/><path fill="#000000" d="M 35.113281 43.136719 C 35.300781 43.234375 35.363281 43.40625 35.363281 43.609375 C 35.359375 43.90625 34.988281 44.3125 34.691406 44.332031 C 34.613281 44.335938 34.507812 44.308594 34.445312 44.257812 C 34.066406 43.929688 34.113281 43.421875 34.507812 43.144531 C 34.679688 43.019531 34.914062 43.03125 35.113281 43.136719 Z M 33.988281 43.757812 C 34.039062 43.921875 34.070312 44.09375 34.148438 44.242188 C 34.257812 44.460938 34.449219 44.589844 34.707031 44.566406 C 35.058594 44.535156 35.445312 44.191406 35.535156 43.847656 C 35.640625 43.441406 35.429688 43.023438 35.066406 42.949219 C 34.941406 42.925781 34.804688 42.949219 34.679688 42.972656 C 34.253906 43.042969 34.023438 43.320312 33.988281 43.757812 " fill-opacity="1" fill-rule="nonzero"/><path fill="#000000" d="M 22.277344 17.851562 C 22.152344 17.792969 22.03125 17.839844 21.9375 17.929688 C 21.78125 18.085938 21.628906 18.25 21.480469 18.414062 C 21.414062 18.488281 21.355469 18.570312 21.265625 18.683594 C 21.226562 18.535156 21.199219 18.429688 21.164062 18.332031 C 21.121094 18.191406 21.082031 18.046875 21.015625 17.914062 C 20.90625 17.703125 20.671875 17.707031 20.550781 17.914062 C 20.519531 17.96875 20.5 18.035156 20.476562 18.097656 C 20.261719 18.691406 20.046875 19.285156 19.832031 19.882812 C 19.816406 19.933594 19.789062 19.992188 19.789062 20.046875 C 19.789062 20.183594 19.914062 20.25 20.027344 20.175781 C 20.058594 20.152344 20.085938 20.117188 20.113281 20.089844 C 20.355469 19.832031 20.507812 19.527344 20.636719 19.203125 C 20.679688 19.089844 20.726562 18.980469 20.789062 18.839844 C 20.84375 19 20.875 19.121094 20.929688 19.230469 C 21.035156 19.4375 21.234375 19.460938 21.382812 19.28125 C 21.4375 19.214844 21.472656 19.140625 21.523438 19.074219 C 21.644531 18.914062 21.765625 18.753906 21.886719 18.589844 C 21.898438 18.601562 21.914062 18.613281 21.925781 18.621094 C 21.890625 18.933594 21.839844 19.242188 21.824219 19.554688 C 21.8125 19.703125 21.851562 19.863281 21.890625 20.011719 C 21.910156 20.101562 21.988281 20.164062 22.09375 20.160156 C 22.199219 20.15625 22.257812 20.089844 22.285156 20 C 22.316406 19.886719 22.339844 19.773438 22.347656 19.660156 C 22.371094 19.304688 22.390625 18.953125 22.410156 18.597656 C 22.417969 18.460938 22.433594 18.320312 22.441406 18.179688 C 22.449219 18.039062 22.417969 17.910156 22.277344 17.851562 " fill-opacity="1" fill-rule="nonzero"/><path fill="#000000" d="M 32.890625 19.359375 C 32.824219 19.867188 32.546875 20.117188 31.988281 20.140625 C 32 19.648438 32.015625 19.160156 32.03125 18.683594 C 32.554688 18.53125 32.953125 18.863281 32.890625 19.359375 Z M 32.167969 18.234375 C 32.0625 18.246094 31.957031 18.246094 31.808594 18.25 C 31.785156 18.304688 31.730469 18.394531 31.722656 18.484375 C 31.667969 19.089844 31.621094 19.695312 31.574219 20.300781 C 31.570312 20.351562 31.570312 20.402344 31.582031 20.449219 C 31.613281 20.589844 31.753906 20.660156 31.855469 20.558594 C 31.945312 20.46875 32.023438 20.492188 32.121094 20.503906 C 32.207031 20.511719 32.300781 20.515625 32.390625 20.5 C 32.828125 20.417969 33.132812 20.175781 33.261719 19.734375 C 33.398438 19.265625 33.300781 18.855469 32.949219 18.515625 C 32.734375 18.304688 32.476562 18.203125 32.167969 18.234375 " fill-opacity="1" fill-rule="nonzero"/><path fill="#000000" d="M 27.304688 18.742188 C 27.1875 18.820312 27.050781 18.882812 26.894531 18.867188 C 26.894531 18.65625 26.894531 18.453125 26.894531 18.210938 C 27.050781 18.257812 27.175781 18.277344 27.28125 18.332031 C 27.46875 18.425781 27.480469 18.625 27.304688 18.742188 Z M 27.597656 18.128906 C 27.382812 17.949219 27.140625 17.890625 26.863281 17.960938 C 26.613281 18.023438 26.609375 18.011719 26.578125 18.257812 C 26.507812 18.78125 26.433594 19.304688 26.375 19.828125 C 26.355469 19.976562 26.378906 20.136719 26.410156 20.289062 C 26.417969 20.339844 26.503906 20.402344 26.5625 20.414062 C 26.597656 20.421875 26.671875 20.34375 26.6875 20.292969 C 26.730469 20.132812 26.753906 19.96875 26.785156 19.808594 C 26.796875 19.746094 26.808594 19.679688 26.832031 19.566406 C 27.003906 19.820312 27.136719 20.023438 27.277344 20.226562 C 27.328125 20.300781 27.382812 20.375 27.449219 20.4375 C 27.515625 20.503906 27.605469 20.527344 27.695312 20.464844 C 27.785156 20.40625 27.808594 20.320312 27.773438 20.230469 C 27.742188 20.136719 27.691406 20.046875 27.632812 19.972656 C 27.441406 19.726562 27.242188 19.484375 27.039062 19.230469 C 27.199219 19.171875 27.351562 19.136719 27.488281 19.066406 C 27.882812 18.867188 27.929688 18.414062 27.597656 18.128906 " fill-opacity="1" fill-rule="nonzero"/><path fill="#000000" d="M 25.546875 18.625 C 25.425781 18.699219 25.285156 18.734375 25.109375 18.804688 C 25.128906 18.585938 25.144531 18.421875 25.167969 18.207031 C 25.308594 18.234375 25.425781 18.238281 25.527344 18.28125 C 25.691406 18.359375 25.703125 18.53125 25.546875 18.625 Z M 25.902344 18.722656 C 26.15625 18.386719 25.984375 17.9375 25.570312 17.875 C 25.4375 17.855469 25.292969 17.910156 25.15625 17.898438 C 24.960938 17.878906 24.894531 17.992188 24.855469 18.148438 C 24.746094 18.640625 24.628906 19.125 24.527344 19.617188 C 24.496094 19.761719 24.511719 19.914062 24.511719 20.0625 C 24.511719 20.160156 24.546875 20.242188 24.65625 20.257812 C 24.769531 20.273438 24.816406 20.195312 24.851562 20.105469 C 24.867188 20.058594 24.886719 20.011719 24.898438 19.964844 C 24.941406 19.773438 24.980469 19.585938 25.03125 19.359375 C 25.085938 19.4375 25.121094 19.488281 25.15625 19.539062 C 25.324219 19.78125 25.492188 20.027344 25.664062 20.265625 C 25.703125 20.316406 25.753906 20.371094 25.808594 20.394531 C 25.863281 20.414062 25.941406 20.410156 25.988281 20.378906 C 26.015625 20.363281 26.019531 20.273438 26.007812 20.226562 C 25.984375 20.152344 25.941406 20.078125 25.898438 20.007812 C 25.703125 19.714844 25.507812 19.425781 25.296875 19.113281 C 25.535156 19.011719 25.753906 18.921875 25.902344 18.722656 " fill-opacity="1" fill-rule="nonzero"/><path fill="#000000" d="M 23.675781 18.816406 C 23.59375 18.816406 23.519531 18.816406 23.433594 18.816406 C 23.460938 18.640625 23.539062 18.515625 23.675781 18.398438 C 23.675781 18.554688 23.675781 18.683594 23.675781 18.816406 Z M 24.058594 18.308594 C 24.050781 18.195312 24.003906 18.082031 23.949219 17.984375 C 23.84375 17.773438 23.652344 17.746094 23.488281 17.910156 C 23.417969 17.980469 23.351562 18.054688 23.304688 18.140625 C 22.992188 18.6875 22.753906 19.261719 22.621094 19.878906 C 22.605469 19.949219 22.605469 20.027344 22.625 20.097656 C 22.636719 20.140625 22.695312 20.203125 22.734375 20.207031 C 22.789062 20.210938 22.867188 20.175781 22.894531 20.132812 C 22.941406 20.050781 22.960938 19.949219 22.996094 19.855469 C 23.078125 19.609375 23.160156 19.363281 23.246094 19.109375 C 23.410156 19.132812 23.535156 19.148438 23.683594 19.171875 C 23.683594 19.402344 23.683594 19.605469 23.6875 19.8125 C 23.6875 19.882812 23.691406 19.957031 23.710938 20.03125 C 23.734375 20.125 23.808594 20.1875 23.90625 20.191406 C 24.015625 20.195312 24.09375 20.132812 24.121094 20.027344 C 24.144531 19.949219 24.160156 19.863281 24.15625 19.785156 C 24.128906 19.292969 24.101562 18.800781 24.058594 18.308594 " fill-opacity="1" fill-rule="nonzero"/><path fill="#000000" d="M 30.949219 18.234375 C 30.6875 18.214844 30.425781 18.191406 30.167969 18.183594 C 30.046875 18.183594 29.949219 18.25 29.921875 18.386719 C 29.894531 18.523438 29.855469 18.65625 29.839844 18.796875 C 29.804688 19.082031 29.777344 19.367188 29.75 19.652344 C 29.726562 19.898438 29.691406 20.144531 29.679688 20.390625 C 29.671875 20.609375 29.769531 20.699219 29.988281 20.710938 C 30.105469 20.71875 30.21875 20.738281 30.332031 20.734375 C 30.476562 20.722656 30.625 20.703125 30.765625 20.667969 C 30.867188 20.640625 30.929688 20.554688 30.914062 20.441406 C 30.894531 20.320312 30.804688 20.285156 30.699219 20.28125 C 30.65625 20.277344 30.617188 20.289062 30.574219 20.289062 C 30.433594 20.285156 30.289062 20.28125 30.136719 20.277344 C 30.15625 20.007812 30.175781 19.773438 30.191406 19.523438 C 30.386719 19.523438 30.5625 19.523438 30.742188 19.523438 C 30.855469 19.519531 30.957031 19.496094 30.984375 19.363281 C 31.003906 19.253906 30.925781 19.164062 30.777344 19.128906 C 30.730469 19.117188 30.679688 19.117188 30.632812 19.109375 C 30.492188 19.085938 30.347656 19.0625 30.203125 19.039062 C 30.214844 18.863281 30.226562 18.710938 30.234375 18.546875 C 30.292969 18.542969 30.339844 18.535156 30.386719 18.535156 C 30.566406 18.53125 30.75 18.53125 30.929688 18.527344 C 31.023438 18.523438 31.085938 18.480469 31.085938 18.378906 C 31.085938 18.292969 31.03125 18.242188 30.949219 18.234375 " fill-opacity="1" fill-rule="nonzero"/><path fill="#000000" d="M 24.855469 15.609375 C 24.859375 15.609375 24.859375 15.605469 24.863281 15.605469 C 24.863281 15.605469 24.863281 15.601562 24.863281 15.601562 C 24.859375 15.601562 24.855469 15.605469 24.855469 15.605469 C 24.855469 15.605469 24.855469 15.609375 24.855469 15.609375 " fill-opacity="1" fill-rule="nonzero"/><path fill="#000000" d="M 24.8125 16.660156 C 24.808594 16.761719 24.835938 16.871094 24.867188 16.972656 C 24.96875 17.257812 25.226562 17.339844 25.449219 17.140625 C 25.566406 17.035156 25.683594 16.898438 25.738281 16.753906 C 25.832031 16.5 25.882812 16.234375 25.945312 15.96875 C 25.96875 15.875 25.984375 15.773438 25.976562 15.675781 C 25.96875 15.613281 25.921875 15.535156 25.867188 15.507812 C 25.792969 15.464844 25.726562 15.527344 25.695312 15.601562 C 25.65625 15.707031 25.628906 15.820312 25.597656 15.929688 C 25.535156 16.140625 25.476562 16.355469 25.40625 16.566406 C 25.378906 16.644531 25.363281 16.765625 25.242188 16.746094 C 25.117188 16.726562 25.132812 16.597656 25.125 16.507812 C 25.117188 16.367188 25.128906 16.226562 25.132812 16.085938 C 25.140625 15.964844 25.160156 15.839844 25.160156 15.71875 C 25.164062 15.617188 25.210938 15.488281 25.066406 15.445312 C 24.9375 15.40625 24.925781 15.542969 24.863281 15.605469 C 24.859375 15.644531 24.859375 15.683594 24.859375 15.726562 C 24.84375 16.035156 24.820312 16.347656 24.8125 16.660156 " fill-opacity="1" fill-rule="nonzero"/><path fill="#000000" d="M 25.898438 16.855469 C 25.890625 16.921875 25.902344 17.007812 25.941406 17.0625 C 26.054688 17.222656 26.210938 17.324219 26.417969 17.308594 C 26.664062 17.289062 26.878906 17.195312 27.054688 17.019531 C 27.253906 16.8125 27.257812 16.511719 27.046875 16.316406 C 26.953125 16.226562 26.832031 16.167969 26.722656 16.101562 C 26.648438 16.054688 26.574219 16.019531 26.460938 15.960938 C 26.5625 15.878906 26.628906 15.828125 26.710938 15.769531 C 26.789062 15.859375 26.84375 15.941406 26.917969 16.003906 C 26.960938 16.035156 27.050781 16.058594 27.089844 16.035156 C 27.132812 16.011719 27.171875 15.921875 27.164062 15.875 C 27.144531 15.792969 27.101562 15.699219 27.039062 15.640625 C 26.808594 15.417969 26.542969 15.4375 26.332031 15.679688 C 26.113281 15.933594 26.152344 16.164062 26.445312 16.324219 C 26.53125 16.371094 26.628906 16.402344 26.707031 16.457031 C 26.863281 16.570312 26.863281 16.742188 26.703125 16.84375 C 26.601562 16.90625 26.480469 16.964844 26.367188 16.96875 C 26.292969 16.96875 26.214844 16.863281 26.140625 16.804688 C 26.128906 16.796875 26.117188 16.78125 26.105469 16.773438 C 26.015625 16.714844 25.914062 16.75 25.898438 16.855469 " fill-opacity="1" fill-rule="nonzero"/><path fill="#000000" d="M 29.023438 19.960938 C 28.929688 20.027344 28.839844 20.09375 28.707031 20.183594 C 28.683594 20.015625 28.648438 19.890625 28.652344 19.765625 C 28.671875 19.488281 28.710938 19.210938 28.738281 18.933594 C 28.75 18.808594 28.761719 18.6875 28.75 18.566406 C 28.746094 18.515625 28.6875 18.453125 28.636719 18.429688 C 28.5625 18.398438 28.488281 18.4375 28.457031 18.515625 C 28.421875 18.605469 28.378906 18.699219 28.367188 18.796875 C 28.3125 19.171875 28.265625 19.546875 28.226562 19.921875 C 28.214844 20.015625 28.21875 20.121094 28.234375 20.214844 C 28.300781 20.566406 28.5625 20.695312 28.871094 20.523438 C 29.007812 20.449219 29.128906 20.347656 29.246094 20.246094 C 29.367188 20.136719 29.390625 20.03125 29.324219 19.949219 C 29.257812 19.863281 29.160156 19.867188 29.023438 19.960938 " fill-opacity="1" fill-rule="nonzero"/><path fill="#000000" d="M 24.667969 15.398438 C 24.300781 15.425781 23.933594 15.46875 23.570312 15.511719 C 23.53125 15.515625 23.488281 15.535156 23.457031 15.558594 C 23.390625 15.609375 23.402344 15.707031 23.484375 15.734375 C 23.535156 15.753906 23.59375 15.753906 23.652344 15.753906 C 23.785156 15.757812 23.921875 15.753906 24.085938 15.753906 C 24.019531 16.03125 23.976562 16.277344 23.898438 16.507812 C 23.804688 16.789062 23.691406 16.824219 23.421875 16.703125 C 23.40625 16.699219 23.390625 16.683594 23.375 16.6875 C 23.328125 16.691406 23.265625 16.683594 23.242188 16.710938 C 23.210938 16.75 23.1875 16.824219 23.207031 16.863281 C 23.265625 16.992188 23.347656 17.101562 23.496094 17.144531 C 23.738281 17.21875 24.015625 17.125 24.144531 16.875 C 24.230469 16.710938 24.28125 16.523438 24.320312 16.34375 C 24.359375 16.144531 24.363281 15.941406 24.382812 15.753906 C 24.550781 15.699219 24.703125 15.652344 24.855469 15.605469 C 24.832031 15.421875 24.816406 15.386719 24.667969 15.398438 " fill-opacity="1" fill-rule="nonzero"/><path fill="#000000" d="M 28.261719 16.863281 C 28.28125 16.578125 28.296875 16.292969 28.3125 16 C 28.472656 15.984375 28.609375 15.964844 28.746094 15.953125 C 28.828125 15.949219 28.898438 15.910156 28.890625 15.824219 C 28.886719 15.777344 28.820312 15.730469 28.777344 15.6875 C 28.769531 15.675781 28.75 15.667969 28.734375 15.667969 C 28.371094 15.582031 28.003906 15.59375 27.636719 15.644531 C 27.542969 15.65625 27.476562 15.722656 27.496094 15.8125 C 27.507812 15.867188 27.582031 15.929688 27.640625 15.953125 C 27.730469 15.984375 27.832031 15.984375 27.957031 16.003906 C 27.953125 16.066406 27.945312 16.117188 27.941406 16.164062 C 27.917969 16.492188 27.890625 16.816406 27.875 17.144531 C 27.867188 17.285156 27.945312 17.375 28.046875 17.371094 C 28.164062 17.371094 28.21875 17.289062 28.234375 17.183594 C 28.25 17.078125 28.257812 16.972656 28.261719 16.863281 " fill-opacity="1" fill-rule="nonzero"/><path fill="#000000" d="M 28.378906 18.078125 C 28.378906 18.203125 28.488281 18.320312 28.613281 18.316406 C 28.734375 18.316406 28.847656 18.203125 28.851562 18.082031 C 28.855469 17.957031 28.75 17.84375 28.621094 17.84375 C 28.5 17.84375 28.382812 17.957031 28.378906 18.078125 " fill-opacity="1" fill-rule="nonzero"/><path fill="#000000" d="M 17.53125 20.574219 C 17.410156 20.578125 17.316406 20.6875 17.324219 20.808594 C 17.335938 20.929688 17.441406 21.015625 17.5625 21.003906 C 17.667969 20.992188 17.757812 20.894531 17.757812 20.785156 C 17.753906 20.671875 17.644531 20.566406 17.53125 20.574219 " fill-opacity="1" fill-rule="nonzero"/><path fill="#000000" d="M 34.375 20.589844 C 34.488281 20.59375 34.597656 20.492188 34.601562 20.378906 C 34.601562 20.261719 34.5 20.160156 34.382812 20.160156 C 34.269531 20.164062 34.179688 20.246094 34.171875 20.359375 C 34.164062 20.480469 34.253906 20.585938 34.375 20.589844 " fill-opacity="1" fill-rule="nonzero"/><path fill="#000000" d="M 33.722656 16.433594 C 33.839844 16.4375 33.9375 16.335938 33.9375 16.214844 C 33.9375 16.101562 33.847656 16.011719 33.738281 16.011719 C 33.625 16.007812 33.523438 16.109375 33.527344 16.230469 C 33.527344 16.339844 33.617188 16.433594 33.722656 16.433594 " fill-opacity="1" fill-rule="nonzero"/><path fill="#000000" d="M 18.605469 16.464844 C 18.523438 16.441406 18.445312 16.542969 18.453125 16.636719 C 18.457031 16.734375 18.511719 16.785156 18.605469 16.789062 C 18.699219 16.792969 18.769531 16.707031 18.761719 16.566406 C 18.726562 16.539062 18.671875 16.480469 18.605469 16.464844 " fill-opacity="1" fill-rule="nonzero"/></svg>