<svg xmlns="http://www.w3.org/2000/svg" xmlns:xlink="http://www.w3.org/1999/xlink" width="200" zoomAndPan="magnify" viewBox="0 0 150 30.000001" height="40" preserveAspectRatio="xMidYMid meet" version="1.0"><defs><clipPath id="ca0a9b6305"><path d="M 42 18 L 87 18 L 87 27.929688 L 42 27.929688 Z M 42 18 " clip-rule="nonzero"/></clipPath><clipPath id="286c0be68c"><path d="M 81 1.074219 L 93 1.074219 L 93 17 L 81 17 Z M 81 1.074219 " clip-rule="nonzero"/></clipPath><clipPath id="71647b2f21"><path d="M 45 1.074219 L 65 1.074219 L 65 17 L 45 17 Z M 45 1.074219 " clip-rule="nonzero"/></clipPath><clipPath id="6f49d6b8ab"><path d="M 93 1.074219 L 107 1.074219 L 107 17 L 93 17 Z M 93 1.074219 " clip-rule="nonzero"/></clipPath><clipPath id="afadab6c86"><path d="M 108 1.074219 L 119.621094 1.074219 L 119.621094 17 L 108 17 Z M 108 1.074219 " clip-rule="nonzero"/></clipPath><clipPath id="75d4473a05"><path d="M 66 1.074219 L 80 1.074219 L 80 17 L 66 17 Z M 66 1.074219 " clip-rule="nonzero"/></clipPath><clipPath id="2cab478e99"><path d="M 30.347656 1.074219 L 44 1.074219 L 44 17 L 30.347656 17 Z M 30.347656 1.074219 " clip-rule="nonzero"/></clipPath></defs><g clip-path="url(#ca0a9b6305)"><path fill="#dfad87" d="M 85.730469 22.09375 C 80.550781 25.914062 73.035156 27.953125 66.570312 27.953125 C 57.5 27.953125 49.335938 24.597656 43.15625 19.019531 C 42.671875 18.582031 43.109375 17.984375 43.691406 18.324219 C 50.355469 22.203125 58.597656 24.535156 67.113281 24.535156 C 72.855469 24.535156 79.171875 23.347656 84.980469 20.882812 C 85.855469 20.511719 86.589844 21.457031 85.730469 22.09375 " fill-opacity="1" fill-rule="evenodd"/></g><path fill="#dfad87" d="M 87.886719 19.628906 C 87.226562 18.78125 83.507812 19.230469 81.835938 19.425781 C 81.328125 19.488281 81.25 19.046875 81.710938 18.730469 C 84.671875 16.644531 89.53125 17.246094 90.097656 17.945312 C 90.667969 18.648438 89.953125 23.519531 87.167969 25.84375 C 86.742188 26.203125 86.332031 26.011719 86.523438 25.539062 C 87.148438 23.976562 88.550781 20.480469 87.886719 19.628906 " fill-opacity="1" fill-rule="evenodd"/><g clip-path="url(#286c0be68c)"><path fill="#8fa892" d="M 81.953125 4.011719 L 81.953125 1.984375 C 81.953125 1.675781 82.1875 1.472656 82.464844 1.472656 L 91.539062 1.472656 C 91.832031 1.472656 92.0625 1.679688 92.0625 1.984375 L 92.0625 3.71875 C 92.058594 4.011719 91.816406 4.390625 91.378906 4.992188 L 86.679688 11.707031 C 88.425781 11.664062 90.269531 11.921875 91.855469 12.816406 C 92.210938 13.019531 92.308594 13.3125 92.335938 13.605469 L 92.335938 15.765625 C 92.335938 16.0625 92.007812 16.40625 91.667969 16.226562 C 88.875 14.765625 85.167969 14.605469 82.082031 16.242188 C 81.769531 16.414062 81.4375 16.074219 81.4375 15.777344 L 81.4375 13.722656 C 81.4375 13.394531 81.441406 12.832031 81.773438 12.332031 L 87.21875 4.519531 L 82.476562 4.519531 C 82.1875 4.519531 81.953125 4.3125 81.953125 4.011719 " fill-opacity="1" fill-rule="evenodd"/></g><g clip-path="url(#71647b2f21)"><path fill="#8fa892" d="M 48.855469 16.65625 L 46.097656 16.65625 C 45.832031 16.636719 45.625 16.4375 45.605469 16.1875 L 45.605469 2.019531 C 45.605469 1.734375 45.839844 1.511719 46.136719 1.511719 L 48.710938 1.511719 C 48.976562 1.523438 49.191406 1.726562 49.210938 1.984375 L 49.210938 3.835938 L 49.261719 3.835938 C 49.933594 2.046875 51.195312 1.210938 52.894531 1.210938 C 54.621094 1.210938 55.703125 2.046875 56.476562 3.835938 C 57.144531 2.046875 58.664062 1.210938 60.289062 1.210938 C 61.449219 1.210938 62.714844 1.6875 63.484375 2.761719 C 64.359375 3.953125 64.179688 5.683594 64.179688 7.203125 L 64.175781 16.144531 C 64.175781 16.425781 63.941406 16.65625 63.644531 16.65625 L 60.890625 16.65625 C 60.613281 16.636719 60.390625 16.414062 60.390625 16.144531 L 60.390625 8.632812 C 60.390625 8.035156 60.445312 6.546875 60.3125 5.980469 C 60.109375 5.027344 59.492188 4.761719 58.691406 4.761719 C 58.023438 4.761719 57.324219 5.207031 57.042969 5.921875 C 56.757812 6.636719 56.785156 7.832031 56.785156 8.632812 L 56.785156 16.144531 C 56.785156 16.425781 56.546875 16.65625 56.253906 16.65625 L 53.496094 16.65625 C 53.21875 16.636719 53 16.414062 53 16.144531 L 52.996094 8.632812 C 52.996094 7.054688 53.257812 4.730469 51.296875 4.730469 C 49.3125 4.730469 49.390625 6.996094 49.390625 8.632812 L 49.390625 16.144531 C 49.390625 16.425781 49.152344 16.65625 48.855469 16.65625 " fill-opacity="1" fill-rule="evenodd"/></g><g clip-path="url(#6f49d6b8ab)"><path fill="#8fa892" d="M 99.875 1.210938 C 103.972656 1.210938 106.1875 4.730469 106.1875 9.203125 C 106.1875 13.523438 103.738281 16.949219 99.875 16.949219 C 95.851562 16.949219 93.664062 13.433594 93.664062 9.050781 C 93.664062 4.640625 95.878906 1.210938 99.875 1.210938 M 99.898438 4.105469 C 97.863281 4.105469 97.734375 6.875 97.734375 8.601562 C 97.734375 10.335938 97.707031 14.03125 99.875 14.03125 C 102.015625 14.03125 102.117188 11.050781 102.117188 9.230469 C 102.117188 8.035156 102.066406 6.609375 101.703125 5.472656 C 101.394531 4.488281 100.777344 4.105469 99.898438 4.105469 " fill-opacity="1" fill-rule="evenodd"/></g><g clip-path="url(#afadab6c86)"><path fill="#8fa892" d="M 111.5 16.65625 L 108.75 16.65625 C 108.476562 16.636719 108.253906 16.414062 108.253906 16.144531 L 108.25 1.972656 C 108.273438 1.710938 108.5 1.511719 108.78125 1.511719 L 111.339844 1.511719 C 111.582031 1.523438 111.777344 1.683594 111.832031 1.90625 L 111.832031 4.074219 L 111.882812 4.074219 C 112.65625 2.136719 113.738281 1.210938 115.644531 1.210938 C 116.882812 1.210938 118.089844 1.65625 118.867188 2.878906 C 119.589844 4.015625 119.589844 5.921875 119.589844 7.292969 L 119.589844 16.207031 C 119.558594 16.457031 119.328125 16.65625 119.058594 16.65625 L 116.289062 16.65625 C 116.039062 16.636719 115.828125 16.449219 115.800781 16.207031 L 115.800781 8.515625 C 115.800781 6.964844 115.980469 4.699219 114.074219 4.699219 C 113.402344 4.699219 112.785156 5.148438 112.476562 5.832031 C 112.089844 6.695312 112.039062 7.558594 112.039062 8.515625 L 112.039062 16.144531 C 112.035156 16.425781 111.792969 16.65625 111.5 16.65625 " fill-opacity="1" fill-rule="evenodd"/></g><g clip-path="url(#75d4473a05)"><path fill="#8fa892" d="M 74.722656 9.886719 C 74.722656 10.964844 74.75 11.859375 74.207031 12.816406 C 73.765625 13.59375 73.066406 14.070312 72.296875 14.070312 C 71.234375 14.070312 70.613281 13.261719 70.613281 12.070312 C 70.613281 9.71875 72.722656 9.289062 74.722656 9.289062 L 74.722656 9.886719 M 77.503906 16.617188 C 77.324219 16.78125 77.058594 16.792969 76.851562 16.683594 C 75.9375 15.921875 75.769531 15.566406 75.269531 14.84375 C 73.753906 16.386719 72.679688 16.847656 70.71875 16.847656 C 68.394531 16.847656 66.589844 15.417969 66.589844 12.546875 C 66.589844 10.308594 67.800781 8.78125 69.53125 8.035156 C 71.03125 7.375 73.121094 7.261719 74.722656 7.078125 L 74.722656 6.71875 C 74.722656 6.0625 74.773438 5.289062 74.382812 4.722656 C 74.050781 4.210938 73.40625 4.003906 72.835938 4.003906 C 71.78125 4.003906 70.847656 4.542969 70.617188 5.660156 C 70.570312 5.910156 70.390625 6.152344 70.136719 6.164062 L 67.460938 5.878906 C 67.234375 5.828125 66.984375 5.644531 67.050781 5.300781 C 67.664062 2.054688 70.597656 1.074219 73.222656 1.074219 C 74.566406 1.074219 76.320312 1.433594 77.382812 2.449219 C 78.722656 3.703125 78.597656 5.378906 78.597656 7.199219 L 78.597656 11.5 C 78.597656 12.792969 79.132812 13.359375 79.636719 14.058594 C 79.8125 14.304688 79.851562 14.605469 79.625 14.792969 C 79.0625 15.261719 78.058594 16.136719 77.507812 16.625 L 77.503906 16.617188 " fill-opacity="1" fill-rule="evenodd"/></g><g clip-path="url(#2cab478e99)"><path fill="#8fa892" d="M 38.535156 9.886719 C 38.535156 10.964844 38.5625 11.859375 38.019531 12.816406 C 37.578125 13.59375 36.882812 14.070312 36.109375 14.070312 C 35.046875 14.070312 34.429688 13.261719 34.429688 12.070312 C 34.429688 9.71875 36.539062 9.289062 38.535156 9.289062 L 38.535156 9.886719 M 41.316406 16.617188 C 41.136719 16.78125 40.871094 16.792969 40.664062 16.683594 C 39.75 15.921875 39.585938 15.566406 39.082031 14.84375 C 37.566406 16.386719 36.496094 16.847656 34.53125 16.847656 C 32.210938 16.847656 30.402344 15.417969 30.402344 12.546875 C 30.402344 10.308594 31.617188 8.78125 33.34375 8.035156 C 34.84375 7.375 36.933594 7.261719 38.535156 7.078125 L 38.535156 6.71875 C 38.535156 6.0625 38.585938 5.289062 38.199219 4.722656 C 37.863281 4.210938 37.21875 4.003906 36.652344 4.003906 C 35.597656 4.003906 34.660156 4.542969 34.429688 5.660156 C 34.382812 5.910156 34.203125 6.152344 33.953125 6.164062 L 31.273438 5.878906 C 31.050781 5.828125 30.800781 5.644531 30.863281 5.300781 C 31.480469 2.054688 34.410156 1.074219 37.035156 1.074219 C 38.378906 1.074219 40.132812 1.433594 41.195312 2.449219 C 42.535156 3.703125 42.410156 5.378906 42.410156 7.199219 L 42.410156 11.5 C 42.410156 12.792969 42.945312 13.359375 43.449219 14.058594 C 43.628906 14.304688 43.667969 14.605469 43.441406 14.792969 C 42.878906 15.261719 41.875 16.136719 41.324219 16.625 L 41.316406 16.617188 " fill-opacity="1" fill-rule="evenodd"/></g></svg>