<svg xmlns="http://www.w3.org/2000/svg" xmlns:xlink="http://www.w3.org/1999/xlink" width="70" zoomAndPan="magnify" viewBox="0 0 52.5 52.499999" height="70" preserveAspectRatio="xMidYMid meet" version="1.0"><defs><clipPath id="a2de61811e"><path d="M 15 47 L 16 47 L 16 47.609375 L 15 47.609375 Z M 15 47 " clip-rule="nonzero"/></clipPath><clipPath id="bad9d96753"><path d="M 25 3.773438 L 27 3.773438 L 27 14 L 25 14 Z M 25 3.773438 " clip-rule="nonzero"/></clipPath><clipPath id="b5d79ba3a0"><path d="M 37 44 L 41 44 L 41 47.609375 L 37 47.609375 Z M 37 44 " clip-rule="nonzero"/></clipPath><clipPath id="22bccb588a"><path d="M 46 35 L 48.316406 35 L 48.316406 37 L 46 37 Z M 46 35 " clip-rule="nonzero"/></clipPath></defs><path fill="#98996d" d="M 7.730469 9.464844 C 7.535156 9.464844 7.371094 9.304688 7.371094 9.109375 C 7.371094 8.910156 7.527344 8.753906 7.722656 8.753906 L 7.730469 8.753906 C 7.925781 8.753906 8.085938 8.910156 8.085938 9.109375 C 8.085938 9.304688 7.925781 9.464844 7.730469 9.464844 Z M 7.730469 9.464844 " fill-opacity="1" fill-rule="nonzero"/><path fill="#98996d" d="M 41.152344 40.039062 C 40.953125 40.039062 40.792969 39.882812 40.792969 39.683594 C 40.792969 39.488281 40.949219 39.328125 41.144531 39.328125 L 41.152344 39.328125 C 41.347656 39.328125 41.507812 39.488281 41.507812 39.683594 C 41.507812 39.882812 41.347656 40.039062 41.152344 40.039062 Z M 41.152344 40.039062 " fill-opacity="1" fill-rule="nonzero"/><g clip-path="url(#a2de61811e)"><path fill="#98996d" d="M 15.550781 47.863281 C 15.355469 47.863281 15.191406 47.703125 15.191406 47.507812 C 15.191406 47.3125 15.347656 47.152344 15.542969 47.152344 L 15.550781 47.152344 C 15.746094 47.152344 15.90625 47.3125 15.90625 47.507812 C 15.90625 47.703125 15.746094 47.863281 15.550781 47.863281 Z M 15.550781 47.863281 " fill-opacity="1" fill-rule="nonzero"/></g><path fill="#98996d" d="M 7.730469 37.195312 C 7.535156 37.195312 7.371094 37.039062 7.371094 36.839844 C 7.371094 36.644531 7.527344 36.484375 7.722656 36.484375 L 7.730469 36.484375 C 7.925781 36.484375 8.085938 36.644531 8.085938 36.839844 C 8.085938 37.039062 7.925781 37.195312 7.730469 37.195312 Z M 7.730469 37.195312 " fill-opacity="1" fill-rule="nonzero"/><path fill="#98996d" d="M 46.839844 14.476562 C 46.644531 14.476562 46.480469 14.316406 46.480469 14.121094 C 46.480469 13.921875 46.636719 13.765625 46.832031 13.765625 L 46.839844 13.765625 C 47.035156 13.765625 47.195312 13.921875 47.195312 14.121094 C 47.195312 14.316406 47.035156 14.476562 46.839844 14.476562 Z M 46.839844 14.476562 " fill-opacity="1" fill-rule="nonzero"/><path fill="#98996d" d="M 25.839844 45.019531 C 17.214844 45.019531 10.195312 38 10.195312 29.375 C 10.195312 20.75 17.214844 13.730469 25.839844 13.730469 C 30.132812 13.730469 34.136719 15.433594 37.117188 18.527344 C 37.25 18.671875 37.246094 18.894531 37.105469 19.03125 C 36.964844 19.167969 36.742188 19.164062 36.601562 19.023438 C 33.761719 16.066406 29.9375 14.441406 25.839844 14.441406 C 17.609375 14.441406 10.910156 21.140625 10.910156 29.375 C 10.910156 37.609375 17.609375 44.308594 25.839844 44.308594 C 34.074219 44.308594 40.773438 37.609375 40.773438 29.375 C 40.773438 27.324219 40.367188 25.335938 39.558594 23.46875 C 39.484375 23.289062 39.566406 23.078125 39.746094 23 C 39.925781 22.921875 40.136719 23.007812 40.214844 23.1875 C 41.058594 25.144531 41.484375 27.226562 41.484375 29.375 C 41.484375 38 34.46875 45.019531 25.839844 45.019531 Z M 25.839844 45.019531 " fill-opacity="1" fill-rule="nonzero"/><path fill="#98996d" d="M 29.464844 43.300781 C 29.441406 43.300781 29.417969 43.296875 29.394531 43.292969 C 29.199219 43.253906 29.074219 43.066406 29.113281 42.875 C 29.128906 42.804688 30.53125 35.738281 30.53125 29.375 C 30.53125 23.007812 29.128906 15.945312 29.113281 15.875 C 29.074219 15.683594 29.199219 15.496094 29.394531 15.457031 C 29.582031 15.417969 29.773438 15.542969 29.8125 15.734375 C 29.828125 15.804688 31.242188 22.9375 31.242188 29.375 C 31.242188 35.808594 29.828125 42.941406 29.8125 43.015625 C 29.777344 43.183594 29.628906 43.300781 29.464844 43.300781 Z M 29.464844 43.300781 " fill-opacity="1" fill-rule="nonzero"/><path fill="#98996d" d="M 33.019531 41.878906 C 32.980469 41.878906 32.941406 41.871094 32.898438 41.855469 C 32.714844 41.792969 32.617188 41.589844 32.683594 41.402344 C 32.703125 41.34375 34.796875 35.355469 34.796875 29.375 C 34.796875 23.394531 32.703125 17.40625 32.683594 17.34375 C 32.617188 17.160156 32.714844 16.957031 32.898438 16.890625 C 33.085938 16.824219 33.289062 16.921875 33.355469 17.109375 C 33.375 17.167969 35.507812 23.269531 35.507812 29.375 C 35.507812 35.480469 33.375 41.578125 33.355469 41.640625 C 33.300781 41.785156 33.164062 41.878906 33.019531 41.878906 Z M 33.019531 41.878906 " fill-opacity="1" fill-rule="nonzero"/><path fill="#98996d" d="M 36.574219 39.046875 C 36.523438 39.046875 36.472656 39.039062 36.425781 39.015625 C 36.246094 38.933594 36.167969 38.722656 36.25 38.542969 C 36.273438 38.496094 38.351562 33.929688 38.351562 29.375 C 38.351562 27.980469 38.160156 26.453125 37.78125 24.835938 C 37.734375 24.644531 37.855469 24.453125 38.046875 24.40625 C 38.246094 24.363281 38.429688 24.480469 38.472656 24.671875 C 38.863281 26.34375 39.0625 27.925781 39.0625 29.375 C 39.0625 34.089844 36.984375 38.648438 36.898438 38.839844 C 36.835938 38.972656 36.707031 39.046875 36.574219 39.046875 Z M 36.574219 39.046875 " fill-opacity="1" fill-rule="nonzero"/><path fill="#98996d" d="M 21.03125 26.53125 C 21.023438 26.53125 21.019531 26.53125 21.011719 26.53125 C 20.816406 26.515625 20.664062 26.347656 20.675781 26.152344 C 21 20.78125 21.992188 15.785156 22.003906 15.734375 C 22.042969 15.542969 22.234375 15.417969 22.421875 15.457031 C 22.613281 15.496094 22.738281 15.683594 22.699219 15.875 C 22.691406 15.925781 21.707031 20.875 21.386719 26.195312 C 21.375 26.386719 21.21875 26.53125 21.03125 26.53125 Z M 21.03125 26.53125 " fill-opacity="1" fill-rule="nonzero"/><path fill="#98996d" d="M 22.351562 43.300781 C 22.1875 43.300781 22.039062 43.183594 22.003906 43.015625 C 21.992188 42.964844 21 37.96875 20.675781 32.597656 C 20.664062 32.398438 20.816406 32.230469 21.011719 32.21875 C 21.226562 32.199219 21.375 32.355469 21.386719 32.554688 C 21.707031 37.875 22.691406 42.824219 22.699219 42.875 C 22.738281 43.066406 22.613281 43.253906 22.421875 43.292969 C 22.398438 43.296875 22.375 43.300781 22.351562 43.300781 Z M 22.351562 43.300781 " fill-opacity="1" fill-rule="nonzero"/><path fill="#98996d" d="M 18.796875 41.878906 C 18.652344 41.878906 18.511719 41.785156 18.460938 41.640625 C 18.441406 41.578125 16.308594 35.480469 16.308594 29.375 C 16.308594 23.269531 18.441406 17.167969 18.460938 17.109375 C 18.527344 16.921875 18.730469 16.828125 18.914062 16.890625 C 19.101562 16.957031 19.199219 17.160156 19.132812 17.34375 C 19.109375 17.40625 17.019531 23.394531 17.019531 29.375 C 17.019531 35.355469 19.109375 41.34375 19.132812 41.402344 C 19.199219 41.589844 19.101562 41.792969 18.914062 41.855469 C 18.875 41.871094 18.835938 41.878906 18.796875 41.878906 Z M 18.796875 41.878906 " fill-opacity="1" fill-rule="nonzero"/><path fill="#98996d" d="M 15.242188 39.046875 C 15.109375 39.046875 14.976562 38.972656 14.917969 38.839844 C 14.832031 38.648438 12.753906 34.089844 12.753906 29.375 C 12.753906 24.660156 14.832031 20.101562 14.917969 19.90625 C 15 19.730469 15.214844 19.652344 15.390625 19.734375 C 15.570312 19.816406 15.644531 20.027344 15.5625 20.207031 C 15.542969 20.25 13.464844 24.820312 13.464844 29.375 C 13.464844 33.929688 15.542969 38.496094 15.5625 38.542969 C 15.644531 38.722656 15.570312 38.933594 15.390625 39.015625 C 15.34375 39.039062 15.292969 39.046875 15.242188 39.046875 Z M 15.242188 39.046875 " fill-opacity="1" fill-rule="nonzero"/><path fill="#98996d" d="M 18.375 29.730469 L 11.628906 29.730469 C 11.429688 29.730469 11.273438 29.570312 11.273438 29.375 C 11.273438 29.179688 11.429688 29.019531 11.628906 29.019531 L 18.375 29.019531 C 18.570312 29.019531 18.730469 29.179688 18.730469 29.375 C 18.730469 29.570312 18.570312 29.730469 18.375 29.730469 Z M 18.375 29.730469 " fill-opacity="1" fill-rule="nonzero"/><path fill="#98996d" d="M 40.1875 29.730469 L 23.351562 29.730469 C 23.15625 29.730469 22.996094 29.570312 22.996094 29.375 C 22.996094 29.179688 23.15625 29.019531 23.351562 29.019531 L 40.1875 29.019531 C 40.386719 29.019531 40.542969 29.179688 40.542969 29.375 C 40.542969 29.570312 40.386719 29.730469 40.1875 29.730469 Z M 40.1875 29.730469 " fill-opacity="1" fill-rule="nonzero"/><path fill="#98996d" d="M 25.847656 34.648438 C 19.414062 34.648438 12.28125 33.234375 12.210938 33.21875 C 12.015625 33.179688 11.890625 32.992188 11.929688 32.800781 C 11.96875 32.609375 12.160156 32.484375 12.347656 32.523438 C 12.417969 32.535156 19.484375 33.9375 25.847656 33.9375 C 32.214844 33.9375 39.277344 32.535156 39.347656 32.523438 C 39.539062 32.480469 39.726562 32.609375 39.765625 32.800781 C 39.804688 32.992188 39.679688 33.179688 39.488281 33.21875 C 39.417969 33.234375 32.285156 34.648438 25.847656 34.648438 Z M 25.847656 34.648438 " fill-opacity="1" fill-rule="nonzero"/><path fill="#98996d" d="M 25.847656 38.914062 C 19.742188 38.914062 13.644531 36.785156 13.582031 36.761719 C 13.398438 36.695312 13.300781 36.492188 13.367188 36.308594 C 13.433594 36.121094 13.636719 36.027344 13.820312 36.089844 C 13.878906 36.113281 19.867188 38.203125 25.847656 38.203125 C 31.828125 38.203125 37.816406 36.113281 37.878906 36.089844 C 38.0625 36.027344 38.265625 36.121094 38.332031 36.308594 C 38.398438 36.492188 38.300781 36.695312 38.113281 36.761719 C 38.054688 36.785156 31.953125 38.914062 25.847656 38.914062 Z M 25.847656 38.914062 " fill-opacity="1" fill-rule="nonzero"/><path fill="#98996d" d="M 25.847656 42.46875 C 21.132812 42.46875 16.574219 40.394531 16.382812 40.304688 C 16.203125 40.222656 16.125 40.011719 16.207031 39.832031 C 16.289062 39.652344 16.503906 39.578125 16.679688 39.660156 C 16.726562 39.679688 21.292969 41.757812 25.847656 41.757812 C 30.402344 41.757812 34.972656 39.679688 35.019531 39.660156 C 35.195312 39.578125 35.40625 39.652344 35.488281 39.832031 C 35.570312 40.011719 35.492188 40.222656 35.316406 40.304688 C 35.125 40.394531 30.5625 42.46875 25.847656 42.46875 Z M 25.847656 42.46875 " fill-opacity="1" fill-rule="nonzero"/><path fill="#98996d" d="M 12.277344 26.117188 C 12.113281 26.117188 11.964844 26 11.929688 25.832031 C 11.890625 25.636719 12.015625 25.449219 12.210938 25.410156 C 12.28125 25.398438 19.414062 23.980469 25.847656 23.980469 C 32.285156 23.980469 39.417969 25.398438 39.488281 25.410156 C 39.679688 25.449219 39.804688 25.636719 39.765625 25.832031 C 39.726562 26.023438 39.539062 26.148438 39.347656 26.109375 C 39.277344 26.09375 32.210938 24.691406 25.847656 24.691406 C 19.484375 24.691406 12.417969 26.09375 12.347656 26.109375 C 12.324219 26.113281 12.300781 26.117188 12.277344 26.117188 Z M 12.277344 26.117188 " fill-opacity="1" fill-rule="nonzero"/><path fill="#98996d" d="M 13.703125 22.558594 C 13.554688 22.558594 13.417969 22.46875 13.367188 22.324219 C 13.300781 22.136719 13.398438 21.933594 13.582031 21.867188 C 13.644531 21.847656 19.742188 19.714844 25.847656 19.714844 C 29.539062 19.714844 33.191406 20.476562 35.601562 21.117188 C 35.792969 21.167969 35.90625 21.363281 35.855469 21.550781 C 35.804688 21.742188 35.613281 21.859375 35.421875 21.804688 C 33.046875 21.175781 29.460938 20.425781 25.847656 20.425781 C 19.867188 20.425781 13.878906 22.519531 13.820312 22.539062 C 13.78125 22.554688 13.742188 22.558594 13.703125 22.558594 Z M 13.703125 22.558594 " fill-opacity="1" fill-rule="nonzero"/><path fill="#98996d" d="M 16.53125 19.003906 C 16.398438 19.003906 16.269531 18.929688 16.207031 18.796875 C 16.125 18.621094 16.203125 18.40625 16.382812 18.324219 C 16.574219 18.238281 21.132812 16.160156 25.847656 16.160156 C 30.5625 16.160156 35.125 18.238281 35.316406 18.324219 C 35.492188 18.40625 35.570312 18.621094 35.488281 18.796875 C 35.40625 18.976562 35.195312 19.054688 35.019531 18.972656 C 34.972656 18.949219 30.40625 16.871094 25.847656 16.871094 C 21.292969 16.871094 16.726562 18.949219 16.679688 18.972656 C 16.632812 18.996094 16.582031 19.003906 16.53125 19.003906 Z M 16.53125 19.003906 " fill-opacity="1" fill-rule="nonzero"/><path fill="#98996d" d="M 25.847656 43.953125 C 25.652344 43.953125 25.492188 43.792969 25.492188 43.597656 L 25.492188 15.035156 C 25.492188 14.839844 25.652344 14.679688 25.847656 14.679688 C 26.046875 14.679688 26.203125 14.839844 26.203125 15.035156 L 26.203125 43.597656 C 26.203125 43.792969 26.046875 43.953125 25.847656 43.953125 Z M 25.847656 43.953125 " fill-opacity="1" fill-rule="nonzero"/><g clip-path="url(#bad9d96753)"><path fill="#98996d" d="M 25.839844 13.019531 C 25.644531 13.019531 25.484375 12.859375 25.484375 12.664062 L 25.484375 4.128906 C 25.484375 3.933594 25.644531 3.773438 25.839844 3.773438 C 26.039062 3.773438 26.195312 3.933594 26.195312 4.128906 L 26.195312 12.664062 C 26.195312 12.859375 26.039062 13.019531 25.839844 13.019531 Z M 25.839844 13.019531 " fill-opacity="1" fill-rule="nonzero"/></g><path fill="#98996d" d="M 4.863281 23.6875 C 4.667969 23.6875 4.507812 23.527344 4.507812 23.332031 C 4.507812 21.679688 6.066406 20.910156 6.132812 20.875 C 6.308594 20.792969 6.519531 20.867188 6.605469 21.042969 C 6.691406 21.21875 6.617188 21.429688 6.441406 21.515625 C 6.390625 21.542969 5.21875 22.128906 5.21875 23.332031 C 5.21875 23.527344 5.058594 23.6875 4.863281 23.6875 Z M 4.863281 23.6875 " fill-opacity="1" fill-rule="nonzero"/><path fill="#98996d" d="M 6.285156 21.550781 C 6.234375 21.550781 6.179688 21.542969 6.132812 21.515625 C 6.066406 21.484375 4.507812 20.714844 4.507812 19.0625 C 4.507812 18.867188 4.667969 18.707031 4.863281 18.707031 C 5.058594 18.707031 5.21875 18.867188 5.21875 19.0625 C 5.21875 20.273438 6.429688 20.871094 6.441406 20.875 C 6.617188 20.960938 6.691406 21.175781 6.605469 21.351562 C 6.546875 21.476562 6.417969 21.550781 6.285156 21.550781 Z M 6.285156 21.550781 " fill-opacity="1" fill-rule="nonzero"/><path fill="#98996d" d="M 3.441406 21.550781 C 3.3125 21.550781 3.183594 21.480469 3.121094 21.351562 C 3.035156 21.175781 3.109375 20.964844 3.285156 20.878906 C 3.335938 20.851562 4.507812 20.261719 4.507812 19.0625 C 4.507812 18.867188 4.667969 18.707031 4.863281 18.707031 C 5.058594 18.707031 5.21875 18.867188 5.21875 19.0625 C 5.21875 20.714844 3.664062 21.484375 3.597656 21.515625 C 3.546875 21.542969 3.492188 21.550781 3.441406 21.550781 Z M 3.441406 21.550781 " fill-opacity="1" fill-rule="nonzero"/><path fill="#98996d" d="M 4.863281 23.6875 C 4.667969 23.6875 4.507812 23.527344 4.507812 23.332031 C 4.507812 22.121094 3.300781 21.523438 3.289062 21.515625 C 3.109375 21.429688 3.035156 21.21875 3.121094 21.042969 C 3.207031 20.863281 3.421875 20.789062 3.597656 20.875 C 3.664062 20.910156 5.21875 21.679688 5.21875 23.332031 C 5.21875 23.527344 5.058594 23.6875 4.863281 23.6875 Z M 4.863281 23.6875 " fill-opacity="1" fill-rule="nonzero"/><path fill="#98996d" d="M 38.285156 23.6875 C 38.089844 23.6875 37.929688 23.527344 37.929688 23.332031 C 37.929688 21.679688 39.488281 20.910156 39.554688 20.875 C 39.730469 20.792969 39.941406 20.867188 40.027344 21.042969 C 40.113281 21.21875 40.039062 21.429688 39.863281 21.515625 C 39.8125 21.542969 38.640625 22.128906 38.640625 23.332031 C 38.640625 23.527344 38.480469 23.6875 38.285156 23.6875 Z M 38.285156 23.6875 " fill-opacity="1" fill-rule="nonzero"/><path fill="#98996d" d="M 39.707031 21.550781 C 39.65625 21.550781 39.601562 21.542969 39.554688 21.515625 C 39.488281 21.484375 37.929688 20.714844 37.929688 19.0625 C 37.929688 18.867188 38.089844 18.707031 38.285156 18.707031 C 38.480469 18.707031 38.640625 18.867188 38.640625 19.0625 C 38.640625 20.273438 39.851562 20.871094 39.863281 20.875 C 40.039062 20.960938 40.113281 21.175781 40.027344 21.351562 C 39.964844 21.476562 39.839844 21.550781 39.707031 21.550781 Z M 39.707031 21.550781 " fill-opacity="1" fill-rule="nonzero"/><path fill="#98996d" d="M 36.863281 21.550781 C 36.730469 21.550781 36.605469 21.480469 36.542969 21.351562 C 36.457031 21.175781 36.53125 20.964844 36.707031 20.878906 C 36.757812 20.851562 37.929688 20.261719 37.929688 19.0625 C 37.929688 18.867188 38.089844 18.707031 38.285156 18.707031 C 38.480469 18.707031 38.640625 18.867188 38.640625 19.0625 C 38.640625 20.714844 37.085938 21.484375 37.015625 21.515625 C 36.96875 21.542969 36.914062 21.550781 36.863281 21.550781 Z M 36.863281 21.550781 " fill-opacity="1" fill-rule="nonzero"/><path fill="#98996d" d="M 38.285156 23.6875 C 38.089844 23.6875 37.929688 23.527344 37.929688 23.332031 C 37.929688 22.121094 36.722656 21.523438 36.710938 21.515625 C 36.53125 21.429688 36.457031 21.21875 36.542969 21.042969 C 36.628906 20.863281 36.84375 20.789062 37.015625 20.875 C 37.085938 20.910156 38.640625 21.679688 38.640625 23.332031 C 38.640625 23.527344 38.480469 23.6875 38.285156 23.6875 Z M 38.285156 23.6875 " fill-opacity="1" fill-rule="nonzero"/><path fill="#98996d" d="M 20.863281 31.804688 C 20.667969 31.804688 20.507812 31.644531 20.507812 31.449219 C 20.507812 29.796875 22.066406 29.027344 22.132812 28.996094 C 22.308594 28.910156 22.519531 28.984375 22.605469 29.160156 C 22.691406 29.335938 22.617188 29.546875 22.441406 29.632812 C 22.390625 29.660156 21.21875 30.25 21.21875 31.449219 C 21.21875 31.644531 21.058594 31.804688 20.863281 31.804688 Z M 20.863281 31.804688 " fill-opacity="1" fill-rule="nonzero"/><path fill="#98996d" d="M 22.285156 29.671875 C 22.234375 29.671875 22.179688 29.660156 22.132812 29.636719 C 22.066406 29.601562 20.507812 28.832031 20.507812 27.179688 C 20.507812 26.984375 20.667969 26.824219 20.863281 26.824219 C 21.058594 26.824219 21.21875 26.984375 21.21875 27.179688 C 21.21875 28.390625 22.429688 28.988281 22.441406 28.996094 C 22.617188 29.078125 22.691406 29.292969 22.605469 29.46875 C 22.542969 29.597656 22.417969 29.671875 22.285156 29.671875 Z M 22.285156 29.671875 " fill-opacity="1" fill-rule="nonzero"/><path fill="#98996d" d="M 19.441406 29.671875 C 19.308594 29.671875 19.183594 29.597656 19.121094 29.46875 C 19.035156 29.292969 19.109375 29.082031 19.285156 28.996094 C 19.335938 28.96875 20.507812 28.382812 20.507812 27.179688 C 20.507812 26.984375 20.667969 26.824219 20.863281 26.824219 C 21.058594 26.824219 21.21875 26.984375 21.21875 27.179688 C 21.21875 28.832031 19.664062 29.601562 19.59375 29.636719 C 19.546875 29.660156 19.492188 29.671875 19.441406 29.671875 Z M 19.441406 29.671875 " fill-opacity="1" fill-rule="nonzero"/><path fill="#98996d" d="M 20.863281 31.804688 C 20.667969 31.804688 20.507812 31.644531 20.507812 31.449219 C 20.507812 30.238281 19.300781 29.640625 19.289062 29.636719 C 19.109375 29.550781 19.035156 29.335938 19.121094 29.160156 C 19.207031 28.984375 19.421875 28.910156 19.59375 28.996094 C 19.664062 29.027344 21.21875 29.796875 21.21875 31.449219 C 21.21875 31.644531 21.058594 31.804688 20.863281 31.804688 Z M 20.863281 31.804688 " fill-opacity="1" fill-rule="nonzero"/><path fill="#98996d" d="M 19.964844 10.816406 C 19.90625 10.816406 19.851562 10.804688 19.800781 10.777344 L 19.085938 10.402344 L 18.371094 10.777344 C 18.253906 10.839844 18.105469 10.828125 17.996094 10.75 C 17.886719 10.667969 17.832031 10.535156 17.855469 10.402344 L 17.992188 9.605469 L 17.414062 9.042969 C 17.320312 8.949219 17.285156 8.808594 17.324219 8.679688 C 17.367188 8.550781 17.476562 8.457031 17.613281 8.4375 L 18.410156 8.320312 L 18.765625 7.597656 C 18.886719 7.355469 19.285156 7.355469 19.40625 7.597656 L 19.761719 8.320312 L 20.558594 8.4375 C 20.695312 8.457031 20.804688 8.550781 20.847656 8.679688 C 20.886719 8.808594 20.851562 8.949219 20.757812 9.042969 L 20.179688 9.605469 L 20.316406 10.402344 C 20.339844 10.535156 20.285156 10.667969 20.175781 10.75 C 20.113281 10.792969 20.039062 10.816406 19.964844 10.816406 Z M 19.085938 9.644531 C 19.144531 9.644531 19.199219 9.65625 19.25 9.683594 L 19.492188 9.8125 L 19.445312 9.542969 C 19.425781 9.425781 19.464844 9.308594 19.550781 9.226562 L 19.742188 9.035156 L 19.472656 8.996094 C 19.359375 8.980469 19.257812 8.910156 19.207031 8.804688 L 19.085938 8.558594 L 18.964844 8.804688 C 18.914062 8.910156 18.8125 8.980469 18.699219 8.996094 L 18.425781 9.035156 L 18.621094 9.226562 C 18.707031 9.308594 18.746094 9.425781 18.726562 9.542969 L 18.679688 9.8125 L 18.921875 9.683594 C 18.972656 9.65625 19.027344 9.644531 19.085938 9.644531 Z M 19.085938 9.644531 " fill-opacity="1" fill-rule="nonzero"/><g clip-path="url(#b5d79ba3a0)"><path fill="#98996d" d="M 39.875 47.792969 C 39.820312 47.792969 39.761719 47.78125 39.710938 47.753906 L 38.996094 47.378906 L 38.285156 47.753906 C 38.164062 47.816406 38.019531 47.804688 37.910156 47.726562 C 37.800781 47.644531 37.746094 47.511719 37.765625 47.378906 L 37.902344 46.582031 L 37.328125 46.019531 C 37.230469 45.925781 37.195312 45.785156 37.234375 45.65625 C 37.277344 45.527344 37.390625 45.433594 37.523438 45.414062 L 38.320312 45.296875 L 38.675781 44.574219 C 38.738281 44.453125 38.859375 44.375 38.996094 44.375 C 39.132812 44.375 39.253906 44.453125 39.316406 44.574219 L 39.671875 45.296875 L 40.46875 45.414062 C 40.601562 45.433594 40.714844 45.527344 40.757812 45.65625 C 40.796875 45.785156 40.765625 45.925781 40.667969 46.019531 L 40.089844 46.582031 L 40.226562 47.378906 C 40.25 47.511719 40.195312 47.644531 40.085938 47.726562 C 40.023438 47.769531 39.949219 47.792969 39.875 47.792969 Z M 38.996094 46.621094 C 39.054688 46.621094 39.109375 46.632812 39.160156 46.660156 L 39.402344 46.789062 L 39.355469 46.519531 C 39.335938 46.402344 39.375 46.285156 39.460938 46.203125 L 39.652344 46.015625 L 39.386719 45.976562 C 39.269531 45.957031 39.171875 45.886719 39.117188 45.78125 L 38.996094 45.535156 L 38.875 45.78125 C 38.824219 45.886719 38.722656 45.957031 38.609375 45.976562 L 38.339844 46.015625 L 38.535156 46.203125 C 38.617188 46.285156 38.65625 46.402344 38.636719 46.519531 L 38.589844 46.789062 L 38.832031 46.660156 C 38.882812 46.632812 38.9375 46.621094 38.996094 46.621094 Z M 38.996094 46.621094 " fill-opacity="1" fill-rule="nonzero"/></g><path fill="#98996d" d="M 47.53125 37.90625 C 47.332031 37.90625 47.175781 37.75 47.175781 37.550781 L 47.175781 34.707031 C 47.175781 34.511719 47.332031 34.351562 47.53125 34.351562 C 47.726562 34.351562 47.886719 34.511719 47.886719 34.707031 L 47.886719 37.550781 C 47.886719 37.75 47.726562 37.90625 47.53125 37.90625 Z M 47.53125 37.90625 " fill-opacity="1" fill-rule="nonzero"/><g clip-path="url(#22bccb588a)"><path fill="#98996d" d="M 48.242188 36.484375 L 46.820312 36.484375 C 46.621094 36.484375 46.464844 36.328125 46.464844 36.128906 C 46.464844 35.933594 46.621094 35.773438 46.820312 35.773438 L 48.242188 35.773438 C 48.4375 35.773438 48.597656 35.933594 48.597656 36.128906 C 48.597656 36.328125 48.4375 36.484375 48.242188 36.484375 Z M 48.242188 36.484375 " fill-opacity="1" fill-rule="nonzero"/></g><path fill="#98996d" d="M 6.285156 46.441406 C 6.089844 46.441406 5.929688 46.28125 5.929688 46.085938 L 5.929688 43.242188 C 5.929688 43.042969 6.089844 42.886719 6.285156 42.886719 C 6.484375 42.886719 6.640625 43.042969 6.640625 43.242188 L 6.640625 46.085938 C 6.640625 46.28125 6.484375 46.441406 6.285156 46.441406 Z M 6.285156 46.441406 " fill-opacity="1" fill-rule="nonzero"/><path fill="#98996d" d="M 6.996094 45.019531 L 5.574219 45.019531 C 5.378906 45.019531 5.21875 44.859375 5.21875 44.664062 C 5.21875 44.464844 5.378906 44.308594 5.574219 44.308594 L 6.996094 44.308594 C 7.195312 44.308594 7.351562 44.464844 7.351562 44.664062 C 7.351562 44.859375 7.195312 45.019531 6.996094 45.019531 Z M 6.996094 45.019531 " fill-opacity="1" fill-rule="nonzero"/><path fill="#98996d" d="M 37.574219 13.730469 C 37.378906 13.730469 37.21875 13.570312 37.21875 13.375 L 37.21875 10.53125 C 37.21875 10.335938 37.378906 10.175781 37.574219 10.175781 C 37.769531 10.175781 37.929688 10.335938 37.929688 10.53125 L 37.929688 13.375 C 37.929688 13.570312 37.769531 13.730469 37.574219 13.730469 Z M 37.574219 13.730469 " fill-opacity="1" fill-rule="nonzero"/><path fill="#98996d" d="M 38.285156 12.308594 L 36.863281 12.308594 C 36.667969 12.308594 36.507812 12.148438 36.507812 11.953125 C 36.507812 11.757812 36.667969 11.597656 36.863281 11.597656 L 38.285156 11.597656 C 38.480469 11.597656 38.640625 11.757812 38.640625 11.953125 C 38.640625 12.148438 38.480469 12.308594 38.285156 12.308594 Z M 38.285156 12.308594 " fill-opacity="1" fill-rule="nonzero"/></svg>