<svg xmlns="http://www.w3.org/2000/svg" xmlns:xlink="http://www.w3.org/1999/xlink" width="70" zoomAndPan="magnify" viewBox="0 0 52.5 52.499999" height="70" preserveAspectRatio="xMidYMid meet" version="1.0"><defs><clipPath id="cb56cf9f6d"><path d="M 15 51 L 16 51 L 16 51.828125 L 15 51.828125 Z M 15 51 " clip-rule="nonzero"/></clipPath><clipPath id="40304b01d6"><path d="M 25 6.507812 L 27 6.507812 L 27 17 L 25 17 Z M 25 6.507812 " clip-rule="nonzero"/></clipPath><clipPath id="4ef8231fd9"><path d="M 2.460938 21 L 5 21 L 5 25 L 2.460938 25 Z M 2.460938 21 " clip-rule="nonzero"/></clipPath><clipPath id="d0c7c01e63"><path d="M 2.460938 24 L 5 24 L 5 28 L 2.460938 28 Z M 2.460938 24 " clip-rule="nonzero"/></clipPath><clipPath id="ad1ed37309"><path d="M 37 48 L 42 48 L 42 51.828125 L 37 51.828125 Z M 37 48 " clip-rule="nonzero"/></clipPath><clipPath id="b7460af301"><path d="M 47 39 L 49.265625 39 L 49.265625 41 L 47 41 Z M 47 39 " clip-rule="nonzero"/></clipPath></defs><path fill="#bb9c87" d="M 7.339844 12.378906 C 7.136719 12.378906 6.96875 12.214844 6.96875 12.011719 C 6.96875 11.808594 7.128906 11.644531 7.332031 11.644531 L 7.339844 11.644531 C 7.542969 11.644531 7.707031 11.808594 7.707031 12.011719 C 7.707031 12.214844 7.542969 12.378906 7.339844 12.378906 Z M 7.339844 12.378906 " fill-opacity="1" fill-rule="nonzero"/><path fill="#bb9c87" d="M 41.828125 43.929688 C 41.625 43.929688 41.457031 43.765625 41.457031 43.5625 C 41.457031 43.359375 41.617188 43.195312 41.820312 43.195312 L 41.828125 43.195312 C 42.027344 43.195312 42.195312 43.359375 42.195312 43.5625 C 42.195312 43.765625 42.027344 43.929688 41.828125 43.929688 Z M 41.828125 43.929688 " fill-opacity="1" fill-rule="nonzero"/><g clip-path="url(#cb56cf9f6d)"><path fill="#bb9c87" d="M 15.410156 52 C 15.207031 52 15.042969 51.835938 15.042969 51.632812 C 15.042969 51.433594 15.203125 51.269531 15.402344 51.269531 L 15.410156 51.269531 C 15.613281 51.269531 15.777344 51.433594 15.777344 51.632812 C 15.777344 51.835938 15.613281 52 15.410156 52 Z M 15.410156 52 " fill-opacity="1" fill-rule="nonzero"/></g><path fill="#bb9c87" d="M 7.339844 40.996094 C 7.136719 40.996094 6.96875 40.832031 6.96875 40.628906 C 6.96875 40.425781 7.128906 40.261719 7.332031 40.261719 L 7.339844 40.261719 C 7.542969 40.261719 7.707031 40.425781 7.707031 40.628906 C 7.707031 40.832031 7.542969 40.996094 7.339844 40.996094 Z M 7.339844 40.996094 " fill-opacity="1" fill-rule="nonzero"/><path fill="#bb9c87" d="M 47.695312 17.550781 C 47.492188 17.550781 47.324219 17.386719 47.324219 17.183594 C 47.324219 16.980469 47.488281 16.816406 47.6875 16.816406 L 47.695312 16.816406 C 47.898438 16.816406 48.0625 16.980469 48.0625 17.183594 C 48.0625 17.386719 47.898438 17.550781 47.695312 17.550781 Z M 47.695312 17.550781 " fill-opacity="1" fill-rule="nonzero"/><path fill="#bb9c87" d="M 26.027344 49.066406 C 17.128906 49.066406 9.886719 41.824219 9.886719 32.925781 C 9.886719 24.023438 17.128906 16.78125 26.027344 16.78125 C 30.457031 16.78125 34.589844 18.539062 37.660156 21.734375 C 37.800781 21.878906 37.796875 22.109375 37.652344 22.25 C 37.507812 22.394531 37.273438 22.386719 37.132812 22.242188 C 34.203125 19.195312 30.257812 17.515625 26.027344 17.515625 C 17.53125 17.515625 10.621094 24.429688 10.621094 32.925781 C 10.621094 41.421875 17.53125 48.332031 26.027344 48.332031 C 34.523438 48.332031 41.4375 41.421875 41.4375 32.925781 C 41.4375 30.808594 41.015625 28.757812 40.183594 26.828125 C 40.105469 26.644531 40.191406 26.425781 40.375 26.347656 C 40.5625 26.265625 40.777344 26.351562 40.859375 26.539062 C 41.730469 28.558594 42.171875 30.707031 42.171875 32.925781 C 42.171875 41.824219 34.929688 49.066406 26.027344 49.066406 Z M 26.027344 49.066406 " fill-opacity="1" fill-rule="nonzero"/><path fill="#bb9c87" d="M 29.765625 47.292969 C 29.742188 47.292969 29.71875 47.289062 29.695312 47.285156 C 29.496094 47.246094 29.367188 47.054688 29.40625 46.855469 C 29.421875 46.78125 30.867188 39.488281 30.867188 32.925781 C 30.867188 26.355469 29.421875 19.066406 29.40625 18.996094 C 29.367188 18.796875 29.496094 18.601562 29.695312 18.5625 C 29.890625 18.523438 30.085938 18.648438 30.125 18.847656 C 30.140625 18.921875 31.601562 26.285156 31.601562 32.925781 C 31.601562 39.5625 30.140625 46.925781 30.125 47 C 30.089844 47.171875 29.9375 47.292969 29.765625 47.292969 Z M 29.765625 47.292969 " fill-opacity="1" fill-rule="nonzero"/><path fill="#bb9c87" d="M 33.433594 45.824219 C 33.394531 45.824219 33.351562 45.820312 33.3125 45.804688 C 33.121094 45.738281 33.023438 45.527344 33.089844 45.335938 C 33.109375 45.273438 35.269531 39.09375 35.269531 32.925781 C 35.269531 26.75 33.109375 20.574219 33.089844 20.511719 C 33.023438 20.320312 33.121094 20.109375 33.3125 20.042969 C 33.503906 19.976562 33.710938 20.074219 33.78125 20.265625 C 33.804688 20.328125 36.003906 26.621094 36.003906 32.925781 C 36.003906 39.222656 33.804688 45.519531 33.78125 45.582031 C 33.726562 45.730469 33.585938 45.824219 33.433594 45.824219 Z M 33.433594 45.824219 " fill-opacity="1" fill-rule="nonzero"/><path fill="#bb9c87" d="M 37.105469 42.90625 C 37.050781 42.90625 37 42.894531 36.949219 42.871094 C 36.765625 42.789062 36.6875 42.570312 36.769531 42.386719 C 36.792969 42.339844 38.9375 37.625 38.9375 32.925781 C 38.9375 31.488281 38.738281 29.910156 38.347656 28.238281 C 38.300781 28.042969 38.425781 27.84375 38.621094 27.796875 C 38.828125 27.753906 39.015625 27.875 39.0625 28.070312 C 39.46875 29.796875 39.671875 31.429688 39.671875 32.925781 C 39.671875 37.789062 37.527344 42.496094 37.4375 42.691406 C 37.375 42.828125 37.242188 42.90625 37.105469 42.90625 Z M 37.105469 42.90625 " fill-opacity="1" fill-rule="nonzero"/><path fill="#bb9c87" d="M 21.066406 29.988281 C 21.058594 29.988281 21.050781 29.988281 21.042969 29.988281 C 20.84375 29.976562 20.6875 29.800781 20.699219 29.601562 C 21.035156 24.054688 22.058594 18.902344 22.070312 18.847656 C 22.109375 18.648438 22.304688 18.523438 22.5 18.5625 C 22.699219 18.601562 22.828125 18.796875 22.789062 18.996094 C 22.777344 19.046875 21.765625 24.152344 21.433594 29.644531 C 21.421875 29.839844 21.257812 29.988281 21.066406 29.988281 Z M 21.066406 29.988281 " fill-opacity="1" fill-rule="nonzero"/><path fill="#bb9c87" d="M 22.429688 47.292969 C 22.257812 47.292969 22.105469 47.171875 22.070312 47 C 22.058594 46.945312 21.035156 41.792969 20.699219 36.25 C 20.6875 36.046875 20.84375 35.871094 21.042969 35.859375 C 21.269531 35.839844 21.421875 36 21.433594 36.203125 C 21.765625 41.695312 22.777344 46.804688 22.789062 46.855469 C 22.828125 47.054688 22.699219 47.246094 22.5 47.285156 C 22.476562 47.289062 22.453125 47.292969 22.429688 47.292969 Z M 22.429688 47.292969 " fill-opacity="1" fill-rule="nonzero"/><path fill="#bb9c87" d="M 18.761719 45.824219 C 18.609375 45.824219 18.46875 45.730469 18.414062 45.582031 C 18.390625 45.519531 16.191406 39.222656 16.191406 32.925781 C 16.191406 26.625 18.390625 20.328125 18.414062 20.265625 C 18.480469 20.078125 18.691406 19.976562 18.882812 20.042969 C 19.074219 20.109375 19.171875 20.320312 19.105469 20.511719 C 19.085938 20.574219 16.925781 26.753906 16.925781 32.925781 C 16.925781 39.09375 19.085938 45.273438 19.105469 45.335938 C 19.171875 45.527344 19.074219 45.738281 18.882812 45.804688 C 18.84375 45.820312 18.800781 45.824219 18.761719 45.824219 Z M 18.761719 45.824219 " fill-opacity="1" fill-rule="nonzero"/><path fill="#bb9c87" d="M 15.089844 42.90625 C 14.953125 42.90625 14.820312 42.828125 14.757812 42.691406 C 14.667969 42.496094 12.523438 37.789062 12.523438 32.925781 C 12.523438 28.058594 14.667969 23.355469 14.757812 23.15625 C 14.84375 22.972656 15.0625 22.890625 15.246094 22.976562 C 15.429688 23.0625 15.507812 23.277344 15.425781 23.460938 C 15.402344 23.511719 13.257812 28.222656 13.257812 32.925781 C 13.257812 37.625 15.402344 42.339844 15.425781 42.386719 C 15.507812 42.570312 15.429688 42.789062 15.246094 42.871094 C 15.195312 42.894531 15.144531 42.90625 15.089844 42.90625 Z M 15.089844 42.90625 " fill-opacity="1" fill-rule="nonzero"/><path fill="#bb9c87" d="M 18.324219 33.289062 L 11.363281 33.289062 C 11.160156 33.289062 10.996094 33.125 10.996094 32.925781 C 10.996094 32.722656 11.160156 32.558594 11.363281 32.558594 L 18.324219 32.558594 C 18.527344 32.558594 18.691406 32.722656 18.691406 32.925781 C 18.691406 33.125 18.527344 33.289062 18.324219 33.289062 Z M 18.324219 33.289062 " fill-opacity="1" fill-rule="nonzero"/><path fill="#bb9c87" d="M 40.832031 33.289062 L 23.460938 33.289062 C 23.257812 33.289062 23.09375 33.125 23.09375 32.925781 C 23.09375 32.722656 23.257812 32.558594 23.460938 32.558594 L 40.832031 32.558594 C 41.035156 32.558594 41.199219 32.722656 41.199219 32.925781 C 41.199219 33.125 41.035156 33.289062 40.832031 33.289062 Z M 40.832031 33.289062 " fill-opacity="1" fill-rule="nonzero"/><path fill="#bb9c87" d="M 26.035156 38.367188 C 19.398438 38.367188 12.035156 36.90625 11.960938 36.890625 C 11.765625 36.851562 11.636719 36.660156 11.675781 36.460938 C 11.714844 36.261719 11.914062 36.132812 12.105469 36.171875 C 12.179688 36.1875 19.472656 37.632812 26.035156 37.632812 C 32.605469 37.632812 39.894531 36.1875 39.964844 36.171875 C 40.160156 36.128906 40.359375 36.261719 40.398438 36.460938 C 40.4375 36.660156 40.308594 36.851562 40.109375 36.890625 C 40.039062 36.90625 32.675781 38.367188 26.035156 38.367188 Z M 26.035156 38.367188 " fill-opacity="1" fill-rule="nonzero"/><path fill="#bb9c87" d="M 26.035156 42.769531 C 19.734375 42.769531 13.441406 40.570312 13.378906 40.546875 C 13.1875 40.476562 13.089844 40.269531 13.15625 40.078125 C 13.226562 39.886719 13.433594 39.789062 13.625 39.855469 C 13.6875 39.875 19.863281 42.035156 26.035156 42.035156 C 32.207031 42.035156 38.386719 39.875 38.449219 39.855469 C 38.640625 39.785156 38.847656 39.886719 38.917969 40.078125 C 38.984375 40.269531 38.882812 40.476562 38.695312 40.546875 C 38.628906 40.570312 32.335938 42.769531 26.035156 42.769531 Z M 26.035156 42.769531 " fill-opacity="1" fill-rule="nonzero"/><path fill="#bb9c87" d="M 26.035156 46.4375 C 21.171875 46.4375 16.464844 44.292969 16.269531 44.203125 C 16.085938 44.117188 16.003906 43.898438 16.089844 43.714844 C 16.171875 43.53125 16.394531 43.453125 16.574219 43.535156 C 16.621094 43.558594 21.335938 45.703125 26.035156 45.703125 C 30.738281 45.703125 35.449219 43.558594 35.5 43.535156 C 35.679688 43.453125 35.898438 43.53125 35.984375 43.714844 C 36.070312 43.898438 35.988281 44.117188 35.804688 44.203125 C 35.605469 44.292969 30.902344 46.4375 26.035156 46.4375 Z M 26.035156 46.4375 " fill-opacity="1" fill-rule="nonzero"/><path fill="#bb9c87" d="M 12.035156 29.5625 C 11.863281 29.5625 11.710938 29.441406 11.675781 29.265625 C 11.636719 29.066406 11.765625 28.875 11.960938 28.835938 C 12.035156 28.820312 19.398438 27.359375 26.035156 27.359375 C 32.675781 27.359375 40.039062 28.820312 40.109375 28.835938 C 40.308594 28.875 40.4375 29.066406 40.398438 29.265625 C 40.359375 29.464844 40.160156 29.59375 39.964844 29.554688 C 39.894531 29.539062 32.601562 28.09375 26.035156 28.09375 C 19.46875 28.09375 12.179688 29.539062 12.105469 29.554688 C 12.082031 29.558594 12.058594 29.5625 12.035156 29.5625 Z M 12.035156 29.5625 " fill-opacity="1" fill-rule="nonzero"/><path fill="#bb9c87" d="M 13.503906 25.890625 C 13.351562 25.890625 13.210938 25.796875 13.15625 25.648438 C 13.089844 25.457031 13.1875 25.246094 13.378906 25.179688 C 13.441406 25.15625 19.734375 22.957031 26.035156 22.957031 C 29.84375 22.957031 33.613281 23.746094 36.101562 24.402344 C 36.296875 24.457031 36.414062 24.65625 36.363281 24.851562 C 36.308594 25.046875 36.113281 25.167969 35.914062 25.113281 C 33.464844 24.464844 29.765625 23.691406 26.035156 23.691406 C 19.863281 23.691406 13.6875 25.847656 13.625 25.871094 C 13.582031 25.886719 13.542969 25.890625 13.503906 25.890625 Z M 13.503906 25.890625 " fill-opacity="1" fill-rule="nonzero"/><path fill="#bb9c87" d="M 16.421875 22.222656 C 16.285156 22.222656 16.152344 22.144531 16.089844 22.011719 C 16.003906 21.824219 16.085938 21.609375 16.269531 21.523438 C 16.464844 21.433594 21.171875 19.289062 26.035156 19.289062 C 30.902344 19.289062 35.605469 21.433594 35.804688 21.523438 C 35.988281 21.609375 36.070312 21.828125 35.984375 22.011719 C 35.898438 22.195312 35.679688 22.273438 35.5 22.191406 C 35.449219 22.167969 30.738281 20.023438 26.035156 20.023438 C 21.335938 20.023438 16.621094 22.167969 16.574219 22.191406 C 16.527344 22.214844 16.472656 22.222656 16.421875 22.222656 Z M 16.421875 22.222656 " fill-opacity="1" fill-rule="nonzero"/><path fill="#bb9c87" d="M 26.035156 47.964844 C 25.832031 47.964844 25.667969 47.800781 25.667969 47.597656 L 25.667969 18.128906 C 25.667969 17.925781 25.832031 17.761719 26.035156 17.761719 C 26.238281 17.761719 26.402344 17.925781 26.402344 18.128906 L 26.402344 47.597656 C 26.402344 47.800781 26.238281 47.964844 26.035156 47.964844 Z M 26.035156 47.964844 " fill-opacity="1" fill-rule="nonzero"/><g clip-path="url(#40304b01d6)"><path fill="#bb9c87" d="M 26.027344 16.046875 C 25.824219 16.046875 25.660156 15.882812 25.660156 15.679688 L 25.660156 6.875 C 25.660156 6.671875 25.824219 6.507812 26.027344 6.507812 C 26.230469 6.507812 26.394531 6.671875 26.394531 6.875 L 26.394531 15.679688 C 26.394531 15.882812 26.230469 16.046875 26.027344 16.046875 Z M 26.027344 16.046875 " fill-opacity="1" fill-rule="nonzero"/></g><path fill="#bb9c87" d="M 4.382812 27.054688 C 4.179688 27.054688 4.015625 26.890625 4.015625 26.6875 C 4.015625 24.984375 5.621094 24.1875 5.691406 24.15625 C 5.875 24.066406 6.09375 24.144531 6.179688 24.324219 C 6.269531 24.507812 6.191406 24.726562 6.011719 24.816406 C 5.960938 24.839844 4.75 25.449219 4.75 26.6875 C 4.75 26.890625 4.585938 27.054688 4.382812 27.054688 Z M 4.382812 27.054688 " fill-opacity="1" fill-rule="nonzero"/><path fill="#bb9c87" d="M 5.851562 24.851562 C 5.796875 24.851562 5.742188 24.839844 5.691406 24.816406 C 5.621094 24.785156 4.015625 23.988281 4.015625 22.285156 C 4.015625 22.082031 4.179688 21.917969 4.382812 21.917969 C 4.585938 21.917969 4.75 22.082031 4.75 22.285156 C 4.75 23.53125 5.996094 24.148438 6.011719 24.15625 C 6.191406 24.242188 6.269531 24.464844 6.179688 24.644531 C 6.117188 24.777344 5.988281 24.851562 5.851562 24.851562 Z M 5.851562 24.851562 " fill-opacity="1" fill-rule="nonzero"/><g clip-path="url(#4ef8231fd9)"><path fill="#bb9c87" d="M 2.917969 24.851562 C 2.78125 24.851562 2.648438 24.777344 2.585938 24.644531 C 2.496094 24.464844 2.574219 24.246094 2.753906 24.15625 C 2.808594 24.128906 4.015625 23.523438 4.015625 22.285156 C 4.015625 22.082031 4.179688 21.917969 4.382812 21.917969 C 4.585938 21.917969 4.75 22.082031 4.75 22.285156 C 4.75 23.988281 3.144531 24.78125 3.074219 24.816406 C 3.023438 24.839844 2.96875 24.851562 2.917969 24.851562 Z M 2.917969 24.851562 " fill-opacity="1" fill-rule="nonzero"/></g><g clip-path="url(#d0c7c01e63)"><path fill="#bb9c87" d="M 4.382812 27.054688 C 4.179688 27.054688 4.015625 26.890625 4.015625 26.6875 C 4.015625 25.4375 2.769531 24.824219 2.757812 24.816406 C 2.574219 24.726562 2.496094 24.507812 2.585938 24.328125 C 2.671875 24.144531 2.894531 24.066406 3.074219 24.15625 C 3.144531 24.1875 4.75 24.984375 4.75 26.6875 C 4.75 26.890625 4.585938 27.054688 4.382812 27.054688 Z M 4.382812 27.054688 " fill-opacity="1" fill-rule="nonzero"/></g><path fill="#bb9c87" d="M 38.871094 27.054688 C 38.667969 27.054688 38.503906 26.890625 38.503906 26.6875 C 38.503906 24.984375 40.109375 24.1875 40.179688 24.15625 C 40.359375 24.066406 40.578125 24.144531 40.667969 24.324219 C 40.753906 24.507812 40.679688 24.726562 40.496094 24.816406 C 40.445312 24.839844 39.234375 25.449219 39.234375 26.6875 C 39.234375 26.890625 39.070312 27.054688 38.871094 27.054688 Z M 38.871094 27.054688 " fill-opacity="1" fill-rule="nonzero"/><path fill="#bb9c87" d="M 40.335938 24.851562 C 40.28125 24.851562 40.230469 24.839844 40.179688 24.816406 C 40.109375 24.785156 38.503906 23.988281 38.503906 22.285156 C 38.503906 22.082031 38.667969 21.917969 38.871094 21.917969 C 39.070312 21.917969 39.234375 22.082031 39.234375 22.285156 C 39.234375 23.53125 40.484375 24.148438 40.496094 24.15625 C 40.679688 24.242188 40.753906 24.464844 40.667969 24.644531 C 40.605469 24.777344 40.472656 24.851562 40.335938 24.851562 Z M 40.335938 24.851562 " fill-opacity="1" fill-rule="nonzero"/><path fill="#bb9c87" d="M 37.402344 24.851562 C 37.265625 24.851562 37.136719 24.777344 37.074219 24.644531 C 36.984375 24.464844 37.058594 24.246094 37.242188 24.15625 C 37.292969 24.128906 38.503906 23.523438 38.503906 22.285156 C 38.503906 22.082031 38.667969 21.917969 38.871094 21.917969 C 39.070312 21.917969 39.234375 22.082031 39.234375 22.285156 C 39.234375 23.988281 37.628906 24.78125 37.5625 24.816406 C 37.511719 24.839844 37.457031 24.851562 37.402344 24.851562 Z M 37.402344 24.851562 " fill-opacity="1" fill-rule="nonzero"/><path fill="#bb9c87" d="M 38.871094 27.054688 C 38.667969 27.054688 38.503906 26.890625 38.503906 26.6875 C 38.503906 25.4375 37.253906 24.824219 37.242188 24.816406 C 37.058594 24.726562 36.984375 24.507812 37.070312 24.328125 C 37.160156 24.144531 37.382812 24.066406 37.5625 24.15625 C 37.628906 24.1875 39.238281 24.984375 39.238281 26.6875 C 39.234375 26.890625 39.070312 27.054688 38.871094 27.054688 Z M 38.871094 27.054688 " fill-opacity="1" fill-rule="nonzero"/><path fill="#bb9c87" d="M 20.894531 35.429688 C 20.691406 35.429688 20.527344 35.265625 20.527344 35.0625 C 20.527344 33.359375 22.132812 32.566406 22.199219 32.53125 C 22.382812 32.441406 22.601562 32.519531 22.691406 32.703125 C 22.777344 32.882812 22.703125 33.101562 22.519531 33.191406 C 22.46875 33.21875 21.257812 33.824219 21.257812 35.0625 C 21.257812 35.265625 21.09375 35.429688 20.894531 35.429688 Z M 20.894531 35.429688 " fill-opacity="1" fill-rule="nonzero"/><path fill="#bb9c87" d="M 22.359375 33.230469 C 22.304688 33.230469 22.25 33.21875 22.199219 33.191406 C 22.132812 33.160156 20.527344 32.363281 20.527344 30.660156 C 20.527344 30.457031 20.691406 30.292969 20.894531 30.292969 C 21.09375 30.292969 21.257812 30.457031 21.257812 30.660156 C 21.257812 31.910156 22.507812 32.527344 22.519531 32.53125 C 22.703125 32.621094 22.777344 32.839844 22.691406 33.019531 C 22.628906 33.152344 22.496094 33.230469 22.359375 33.230469 Z M 22.359375 33.230469 " fill-opacity="1" fill-rule="nonzero"/><path fill="#bb9c87" d="M 19.425781 33.230469 C 19.289062 33.230469 19.160156 33.152344 19.09375 33.023438 C 19.007812 32.839844 19.082031 32.621094 19.265625 32.53125 C 19.316406 32.507812 20.527344 31.898438 20.527344 30.660156 C 20.527344 30.457031 20.691406 30.292969 20.894531 30.292969 C 21.09375 30.292969 21.257812 30.457031 21.257812 30.660156 C 21.257812 32.363281 19.652344 33.160156 19.585938 33.191406 C 19.535156 33.21875 19.480469 33.230469 19.425781 33.230469 Z M 19.425781 33.230469 " fill-opacity="1" fill-rule="nonzero"/><path fill="#bb9c87" d="M 20.894531 35.429688 C 20.691406 35.429688 20.527344 35.265625 20.527344 35.0625 C 20.527344 33.816406 19.277344 33.199219 19.265625 33.191406 C 19.082031 33.105469 19.007812 32.886719 19.09375 32.703125 C 19.183594 32.519531 19.40625 32.441406 19.585938 32.53125 C 19.652344 32.566406 21.257812 33.359375 21.257812 35.0625 C 21.257812 35.265625 21.09375 35.429688 20.894531 35.429688 Z M 20.894531 35.429688 " fill-opacity="1" fill-rule="nonzero"/><path fill="#bb9c87" d="M 19.964844 13.773438 C 19.90625 13.773438 19.847656 13.761719 19.792969 13.734375 L 19.058594 13.34375 L 18.320312 13.734375 C 18.199219 13.796875 18.046875 13.789062 17.933594 13.703125 C 17.820312 13.621094 17.765625 13.484375 17.789062 13.34375 L 17.929688 12.527344 L 17.335938 11.945312 C 17.234375 11.847656 17.199219 11.703125 17.242188 11.570312 C 17.285156 11.4375 17.398438 11.339844 17.539062 11.320312 L 18.359375 11.199219 L 18.730469 10.453125 C 18.851562 10.203125 19.265625 10.203125 19.386719 10.453125 L 19.753906 11.199219 L 20.578125 11.320312 C 20.71875 11.339844 20.832031 11.4375 20.875 11.570312 C 20.917969 11.703125 20.882812 11.847656 20.78125 11.945312 L 20.1875 12.527344 L 20.328125 13.34375 C 20.351562 13.484375 20.292969 13.621094 20.179688 13.703125 C 20.117188 13.75 20.042969 13.773438 19.964844 13.773438 Z M 19.058594 12.5625 C 19.117188 12.5625 19.175781 12.578125 19.230469 12.605469 L 19.476562 12.738281 L 19.429688 12.460938 C 19.410156 12.339844 19.449219 12.21875 19.535156 12.136719 L 19.738281 11.9375 L 19.457031 11.898438 C 19.339844 11.878906 19.234375 11.804688 19.183594 11.699219 L 19.058594 11.445312 L 18.933594 11.699219 C 18.878906 11.804688 18.777344 11.878906 18.65625 11.898438 L 18.378906 11.9375 L 18.582031 12.136719 C 18.667969 12.21875 18.707031 12.339844 18.6875 12.460938 L 18.636719 12.738281 L 18.886719 12.605469 C 18.941406 12.578125 19 12.5625 19.058594 12.5625 Z M 19.058594 12.5625 " fill-opacity="1" fill-rule="nonzero"/><g clip-path="url(#ad1ed37309)"><path fill="#bb9c87" d="M 40.511719 51.929688 C 40.453125 51.929688 40.394531 51.917969 40.339844 51.886719 L 39.601562 51.5 L 38.867188 51.886719 C 38.746094 51.953125 38.59375 51.941406 38.480469 51.859375 C 38.367188 51.777344 38.3125 51.640625 38.335938 51.5 L 38.476562 50.679688 L 37.878906 50.101562 C 37.78125 50.003906 37.742188 49.855469 37.785156 49.722656 C 37.828125 49.589844 37.945312 49.496094 38.082031 49.472656 L 38.90625 49.355469 L 39.273438 48.609375 C 39.335938 48.484375 39.464844 48.402344 39.601562 48.402344 C 39.742188 48.402344 39.871094 48.484375 39.933594 48.609375 L 40.300781 49.355469 L 41.121094 49.472656 C 41.261719 49.496094 41.375 49.589844 41.417969 49.722656 C 41.460938 49.855469 41.425781 50.003906 41.328125 50.101562 L 40.730469 50.679688 L 40.871094 51.5 C 40.894531 51.636719 40.839844 51.777344 40.726562 51.859375 C 40.664062 51.90625 40.585938 51.929688 40.511719 51.929688 Z M 39.601562 50.71875 C 39.660156 50.71875 39.71875 50.734375 39.773438 50.761719 L 40.023438 50.890625 L 39.976562 50.613281 C 39.953125 50.496094 39.996094 50.375 40.082031 50.289062 L 40.28125 50.09375 L 40.003906 50.054688 C 39.886719 50.035156 39.78125 49.960938 39.730469 49.851562 L 39.605469 49.601562 L 39.480469 49.851562 C 39.425781 49.960938 39.324219 50.035156 39.203125 50.054688 L 38.925781 50.09375 L 39.125 50.289062 C 39.210938 50.375 39.25 50.496094 39.230469 50.613281 L 39.183594 50.890625 L 39.433594 50.761719 C 39.484375 50.734375 39.542969 50.71875 39.601562 50.71875 Z M 39.601562 50.71875 " fill-opacity="1" fill-rule="nonzero"/></g><path fill="#bb9c87" d="M 48.40625 41.730469 C 48.207031 41.730469 48.042969 41.566406 48.042969 41.363281 L 48.042969 38.425781 C 48.042969 38.222656 48.207031 38.058594 48.40625 38.058594 C 48.609375 38.058594 48.773438 38.222656 48.773438 38.425781 L 48.773438 41.363281 C 48.773438 41.566406 48.609375 41.730469 48.40625 41.730469 Z M 48.40625 41.730469 " fill-opacity="1" fill-rule="nonzero"/><g clip-path="url(#b7460af301)"><path fill="#bb9c87" d="M 49.140625 40.261719 L 47.675781 40.261719 C 47.472656 40.261719 47.308594 40.097656 47.308594 39.894531 C 47.308594 39.691406 47.472656 39.527344 47.675781 39.527344 L 49.140625 39.527344 C 49.34375 39.527344 49.507812 39.691406 49.507812 39.894531 C 49.507812 40.097656 49.34375 40.261719 49.140625 40.261719 Z M 49.140625 40.261719 " fill-opacity="1" fill-rule="nonzero"/></g><path fill="#bb9c87" d="M 5.851562 50.535156 C 5.648438 50.535156 5.484375 50.371094 5.484375 50.167969 L 5.484375 47.230469 C 5.484375 47.027344 5.648438 46.863281 5.851562 46.863281 C 6.054688 46.863281 6.21875 47.027344 6.21875 47.230469 L 6.21875 50.167969 C 6.21875 50.371094 6.054688 50.535156 5.851562 50.535156 Z M 5.851562 50.535156 " fill-opacity="1" fill-rule="nonzero"/><path fill="#bb9c87" d="M 6.585938 49.066406 L 5.117188 49.066406 C 4.914062 49.066406 4.75 48.902344 4.75 48.699219 C 4.75 48.496094 4.914062 48.332031 5.117188 48.332031 L 6.585938 48.332031 C 6.789062 48.332031 6.953125 48.496094 6.953125 48.699219 C 6.953125 48.902344 6.789062 49.066406 6.585938 49.066406 Z M 6.585938 49.066406 " fill-opacity="1" fill-rule="nonzero"/><path fill="#bb9c87" d="M 38.136719 16.78125 C 37.933594 16.78125 37.769531 16.617188 37.769531 16.414062 L 37.769531 13.480469 C 37.769531 13.277344 37.933594 13.113281 38.136719 13.113281 C 38.339844 13.113281 38.503906 13.277344 38.503906 13.480469 L 38.503906 16.414062 C 38.503906 16.617188 38.339844 16.78125 38.136719 16.78125 Z M 38.136719 16.78125 " fill-opacity="1" fill-rule="nonzero"/><path fill="#bb9c87" d="M 38.871094 15.3125 L 37.402344 15.3125 C 37.199219 15.3125 37.035156 15.148438 37.035156 14.945312 C 37.035156 14.746094 37.199219 14.582031 37.402344 14.582031 L 38.871094 14.582031 C 39.070312 14.582031 39.234375 14.746094 39.234375 14.945312 C 39.234375 15.148438 39.070312 15.3125 38.871094 15.3125 Z M 38.871094 15.3125 " fill-opacity="1" fill-rule="nonzero"/></svg>