<svg xmlns="http://www.w3.org/2000/svg" xmlns:xlink="http://www.w3.org/1999/xlink" width="70" zoomAndPan="magnify" viewBox="0 0 52.5 52.499999" height="70" preserveAspectRatio="xMidYMid meet" version="1.0"><defs><clipPath id="590cc158e8"><path d="M 3.710938 3.863281 L 48.332031 3.863281 L 48.332031 46.328125 L 3.710938 46.328125 Z M 3.710938 3.863281 " clip-rule="nonzero"/></clipPath><clipPath id="aba21aaa20"><path d="M 26.003906 3.863281 C 13.691406 3.863281 3.710938 13.371094 3.710938 25.097656 C 3.710938 36.824219 13.691406 46.328125 26.003906 46.328125 C 38.3125 46.328125 48.292969 36.824219 48.292969 25.097656 C 48.292969 13.371094 38.3125 3.863281 26.003906 3.863281 Z M 26.003906 3.863281 " clip-rule="nonzero"/></clipPath><clipPath id="0d681a81dc"><path d="M 25 6.671875 L 27 6.671875 L 27 12 L 25 12 Z M 25 6.671875 " clip-rule="nonzero"/></clipPath><clipPath id="cb2a82308a"><path d="M 17 20 L 35 20 L 35 38.617188 L 17 38.617188 Z M 17 20 " clip-rule="nonzero"/></clipPath><clipPath id="3d71c49792"><path d="M 34 27 L 41 27 L 41 38.617188 L 34 38.617188 Z M 34 27 " clip-rule="nonzero"/></clipPath><clipPath id="18d42155ff"><path d="M 11 27 L 18 27 L 18 38.617188 L 11 38.617188 Z M 11 27 " clip-rule="nonzero"/></clipPath><clipPath id="35f03eb016"><path d="M 23 30 L 29 30 L 29 38.617188 L 23 38.617188 Z M 23 30 " clip-rule="nonzero"/></clipPath><clipPath id="4d7fb88343"><path d="M 9.289062 37 L 42.722656 37 L 42.722656 38.617188 L 9.289062 38.617188 Z M 9.289062 37 " clip-rule="nonzero"/></clipPath></defs><g clip-path="url(#590cc158e8)"><g clip-path="url(#aba21aaa20)"><path fill="#cc142a" d="M 3.710938 3.863281 L 48.332031 3.863281 L 48.332031 46.328125 L 3.710938 46.328125 Z M 3.710938 3.863281 " fill-opacity="1" fill-rule="nonzero"/></g></g><path fill="#fccdd5" d="M 27.371094 8.585938 L 24.628906 8.585938 C 24.53125 8.585938 24.449219 8.550781 24.382812 8.484375 C 24.3125 8.414062 24.28125 8.332031 24.28125 8.238281 C 24.28125 8.140625 24.3125 8.058594 24.382812 7.992188 C 24.449219 7.921875 24.53125 7.890625 24.628906 7.890625 L 27.371094 7.890625 C 27.46875 7.890625 27.550781 7.921875 27.617188 7.992188 C 27.6875 8.058594 27.71875 8.140625 27.71875 8.238281 C 27.71875 8.332031 27.6875 8.414062 27.617188 8.484375 C 27.550781 8.550781 27.46875 8.585938 27.371094 8.585938 Z M 27.371094 8.585938 " fill-opacity="1" fill-rule="nonzero"/><g clip-path="url(#0d681a81dc)"><path fill="#fccdd5" d="M 26 11.445312 C 25.902344 11.445312 25.820312 11.414062 25.753906 11.34375 C 25.6875 11.277344 25.652344 11.195312 25.652344 11.097656 L 25.652344 7.054688 C 25.652344 6.960938 25.6875 6.878906 25.753906 6.808594 C 25.820312 6.742188 25.902344 6.707031 26 6.707031 C 26.097656 6.707031 26.179688 6.742188 26.246094 6.808594 C 26.3125 6.878906 26.347656 6.960938 26.347656 7.054688 L 26.347656 11.097656 C 26.347656 11.195312 26.3125 11.277344 26.246094 11.34375 C 26.179688 11.414062 26.097656 11.445312 26 11.445312 Z M 26 11.445312 " fill-opacity="1" fill-rule="nonzero"/></g><g clip-path="url(#cb2a82308a)"><path fill="#fccdd5" d="M 34.386719 38.304688 L 17.613281 38.304688 C 17.519531 38.304688 17.4375 38.269531 17.367188 38.203125 C 17.300781 38.132812 17.265625 38.050781 17.265625 37.957031 L 17.265625 26.257812 C 17.265625 26.132812 17.320312 26.035156 17.425781 25.964844 L 25.8125 20.550781 C 25.9375 20.46875 26.0625 20.46875 26.1875 20.550781 L 34.574219 25.96875 C 34.679688 26.035156 34.734375 26.132812 34.734375 26.261719 L 34.734375 37.957031 C 34.734375 38.054688 34.699219 38.136719 34.628906 38.203125 C 34.5625 38.269531 34.480469 38.304688 34.386719 38.304688 Z M 17.964844 37.609375 L 34.035156 37.609375 L 34.035156 26.449219 L 26 21.257812 L 17.964844 26.449219 Z M 17.964844 37.609375 " fill-opacity="1" fill-rule="nonzero"/></g><g clip-path="url(#3d71c49792)"><path fill="#fccdd5" d="M 39.859375 38.304688 L 34.386719 38.304688 C 34.289062 38.304688 34.207031 38.269531 34.140625 38.203125 C 34.070312 38.132812 34.035156 38.050781 34.035156 37.957031 L 34.035156 28.242188 C 34.035156 28.105469 34.097656 28.003906 34.21875 27.9375 C 34.339844 27.871094 34.457031 27.875 34.574219 27.949219 L 40.046875 31.484375 C 40.152344 31.554688 40.207031 31.652344 40.207031 31.777344 L 40.207031 37.957031 C 40.207031 38.050781 40.171875 38.132812 40.105469 38.203125 C 40.035156 38.269531 39.953125 38.304688 39.859375 38.304688 Z M 34.734375 37.609375 L 39.511719 37.609375 L 39.511719 31.96875 L 34.734375 28.882812 Z M 34.734375 37.609375 " fill-opacity="1" fill-rule="nonzero"/></g><g clip-path="url(#18d42155ff)"><path fill="#fccdd5" d="M 17.613281 38.304688 L 12.140625 38.304688 C 12.046875 38.304688 11.964844 38.269531 11.894531 38.203125 C 11.828125 38.132812 11.792969 38.050781 11.792969 37.957031 L 11.792969 31.777344 C 11.792969 31.652344 11.847656 31.554688 11.953125 31.484375 L 17.425781 27.953125 C 17.542969 27.875 17.660156 27.871094 17.78125 27.9375 C 17.902344 28.003906 17.964844 28.105469 17.964844 28.242188 L 17.964844 37.957031 C 17.964844 38.050781 17.929688 38.132812 17.859375 38.203125 C 17.792969 38.269531 17.710938 38.304688 17.613281 38.304688 Z M 12.488281 37.609375 L 17.265625 37.609375 L 17.265625 28.882812 L 12.488281 31.96875 Z M 12.488281 37.609375 " fill-opacity="1" fill-rule="nonzero"/></g><path fill="#fccdd5" d="M 29.925781 23.726562 C 29.859375 23.726562 29.796875 23.710938 29.738281 23.671875 L 26 21.257812 L 22.261719 23.671875 C 22.144531 23.746094 22.027344 23.75 21.90625 23.683594 C 21.785156 23.621094 21.726562 23.515625 21.726562 23.378906 L 21.726562 17.5 C 21.726562 17.402344 21.757812 17.320312 21.828125 17.253906 C 21.894531 17.1875 21.976562 17.152344 22.074219 17.152344 L 29.925781 17.152344 C 30.023438 17.152344 30.105469 17.1875 30.171875 17.253906 C 30.242188 17.320312 30.273438 17.402344 30.273438 17.5 L 30.273438 23.378906 C 30.273438 23.476562 30.242188 23.558594 30.171875 23.625 C 30.105469 23.695312 30.023438 23.726562 29.925781 23.726562 Z M 26 20.496094 C 26.070312 20.496094 26.132812 20.515625 26.1875 20.550781 L 29.578125 22.742188 L 29.578125 17.847656 L 22.421875 17.847656 L 22.421875 22.742188 L 25.8125 20.550781 C 25.867188 20.515625 25.933594 20.496094 26 20.496094 Z M 26 20.496094 " fill-opacity="1" fill-rule="nonzero"/><path fill="#fccdd5" d="M 30.367188 17.847656 L 21.632812 17.847656 C 21.488281 17.847656 21.34375 17.820312 21.210938 17.761719 C 21.074219 17.707031 20.953125 17.628906 20.851562 17.523438 C 20.746094 17.417969 20.667969 17.300781 20.609375 17.164062 C 20.554688 17.027344 20.527344 16.886719 20.527344 16.742188 C 20.527344 16.59375 20.554688 16.453125 20.613281 16.320312 C 20.667969 16.183594 20.75 16.0625 20.851562 15.960938 C 20.957031 15.855469 21.074219 15.777344 21.210938 15.71875 C 21.347656 15.664062 21.488281 15.636719 21.632812 15.636719 L 30.367188 15.636719 C 30.515625 15.632812 30.660156 15.660156 30.796875 15.714844 C 30.933594 15.769531 31.054688 15.847656 31.164062 15.953125 C 31.269531 16.054688 31.351562 16.175781 31.40625 16.3125 C 31.464844 16.449219 31.492188 16.59375 31.492188 16.742188 C 31.492188 16.890625 31.464844 17.03125 31.40625 17.167969 C 31.351562 17.304688 31.269531 17.425781 31.164062 17.53125 C 31.054688 17.636719 30.933594 17.714844 30.796875 17.769531 C 30.660156 17.824219 30.515625 17.851562 30.367188 17.847656 Z M 21.632812 16.332031 C 21.519531 16.332031 21.425781 16.371094 21.34375 16.453125 C 21.261719 16.53125 21.222656 16.628906 21.222656 16.742188 C 21.222656 16.855469 21.261719 16.949219 21.34375 17.03125 C 21.421875 17.109375 21.519531 17.152344 21.632812 17.152344 L 30.367188 17.152344 C 30.476562 17.148438 30.570312 17.105469 30.648438 17.027344 C 30.726562 16.949219 30.765625 16.851562 30.765625 16.742188 C 30.765625 16.628906 30.726562 16.535156 30.648438 16.457031 C 30.570312 16.375 30.476562 16.335938 30.367188 16.332031 Z M 21.632812 16.332031 " fill-opacity="1" fill-rule="nonzero"/><path fill="#fccdd5" d="M 28.78125 16.332031 L 23.21875 16.332031 C 23.121094 16.332031 23.039062 16.296875 22.972656 16.230469 C 22.902344 16.160156 22.871094 16.078125 22.871094 15.984375 L 22.871094 13.46875 C 22.871094 13.359375 22.910156 13.273438 22.992188 13.203125 L 25.773438 10.832031 C 25.925781 10.703125 26.078125 10.703125 26.226562 10.832031 L 29.011719 13.203125 C 29.089844 13.273438 29.132812 13.359375 29.132812 13.46875 L 29.132812 15.984375 C 29.132812 16.078125 29.097656 16.160156 29.03125 16.230469 C 28.960938 16.296875 28.878906 16.332031 28.78125 16.332031 Z M 23.566406 15.636719 L 28.433594 15.636719 L 28.433594 13.628906 L 26 11.554688 L 23.566406 13.628906 Z M 23.566406 15.636719 " fill-opacity="1" fill-rule="nonzero"/><g clip-path="url(#35f03eb016)"><path fill="#fccdd5" d="M 28.640625 38.304688 L 23.359375 38.304688 C 23.261719 38.304688 23.179688 38.269531 23.113281 38.203125 C 23.046875 38.132812 23.011719 38.050781 23.011719 37.957031 L 23.011719 33.269531 C 23.011719 32.871094 23.085938 32.492188 23.238281 32.125 C 23.390625 31.757812 23.605469 31.4375 23.886719 31.15625 C 24.167969 30.875 24.492188 30.660156 24.855469 30.507812 C 25.222656 30.355469 25.605469 30.28125 26 30.28125 C 26.394531 30.28125 26.777344 30.355469 27.144531 30.507812 C 27.507812 30.660156 27.832031 30.875 28.113281 31.15625 C 28.394531 31.4375 28.609375 31.757812 28.761719 32.125 C 28.914062 32.492188 28.988281 32.871094 28.988281 33.269531 L 28.988281 37.957031 C 28.988281 38.050781 28.953125 38.132812 28.886719 38.203125 C 28.820312 38.269531 28.738281 38.304688 28.640625 38.304688 Z M 23.707031 37.609375 L 28.292969 37.609375 L 28.292969 33.269531 C 28.292969 32.964844 28.234375 32.671875 28.117188 32.390625 C 28 32.109375 27.835938 31.863281 27.621094 31.648438 C 27.40625 31.433594 27.15625 31.269531 26.875 31.152344 C 26.597656 31.035156 26.304688 30.976562 26 30.976562 C 25.695312 30.976562 25.402344 31.035156 25.125 31.152344 C 24.84375 31.269531 24.59375 31.433594 24.378906 31.648438 C 24.164062 31.863281 24 32.109375 23.882812 32.390625 C 23.765625 32.671875 23.707031 32.964844 23.707031 33.269531 Z M 23.707031 37.609375 " fill-opacity="1" fill-rule="nonzero"/></g><path fill="#fccdd5" d="M 15.921875 36.085938 L 13.835938 36.085938 C 13.742188 36.085938 13.660156 36.050781 13.589844 35.984375 C 13.523438 35.914062 13.488281 35.832031 13.488281 35.738281 L 13.488281 33.886719 C 13.492188 33.703125 13.527344 33.53125 13.601562 33.363281 C 13.671875 33.195312 13.773438 33.046875 13.902344 32.917969 C 14.035156 32.789062 14.183594 32.691406 14.351562 32.625 C 14.519531 32.554688 14.695312 32.519531 14.878906 32.519531 C 15.0625 32.519531 15.238281 32.554688 15.40625 32.625 C 15.574219 32.691406 15.722656 32.789062 15.851562 32.917969 C 15.984375 33.046875 16.085938 33.195312 16.15625 33.363281 C 16.226562 33.53125 16.265625 33.703125 16.269531 33.886719 L 16.269531 35.738281 C 16.269531 35.832031 16.234375 35.914062 16.167969 35.984375 C 16.097656 36.050781 16.015625 36.085938 15.921875 36.085938 Z M 14.183594 35.390625 L 15.570312 35.390625 L 15.570312 33.886719 C 15.566406 33.699219 15.5 33.539062 15.363281 33.40625 C 15.230469 33.273438 15.066406 33.210938 14.878906 33.210938 C 14.691406 33.210938 14.527344 33.273438 14.394531 33.40625 C 14.257812 33.539062 14.1875 33.699219 14.183594 33.886719 Z M 14.183594 35.390625 " fill-opacity="1" fill-rule="nonzero"/><path fill="#fccdd5" d="M 38.164062 36.085938 L 36.078125 36.085938 C 35.984375 36.085938 35.902344 36.050781 35.832031 35.984375 C 35.765625 35.914062 35.730469 35.832031 35.730469 35.738281 L 35.730469 33.886719 C 35.734375 33.703125 35.773438 33.53125 35.84375 33.363281 C 35.914062 33.195312 36.015625 33.046875 36.148438 32.917969 C 36.277344 32.789062 36.425781 32.691406 36.59375 32.625 C 36.765625 32.554688 36.9375 32.519531 37.121094 32.519531 C 37.304688 32.519531 37.480469 32.554688 37.648438 32.625 C 37.816406 32.691406 37.96875 32.789062 38.097656 32.917969 C 38.226562 33.046875 38.328125 33.195312 38.398438 33.363281 C 38.472656 33.53125 38.507812 33.703125 38.511719 33.886719 L 38.511719 35.738281 C 38.511719 35.832031 38.476562 35.914062 38.410156 35.984375 C 38.339844 36.050781 38.257812 36.085938 38.164062 36.085938 Z M 36.429688 35.390625 L 37.816406 35.390625 L 37.816406 33.886719 C 37.8125 33.699219 37.742188 33.539062 37.605469 33.40625 C 37.472656 33.273438 37.308594 33.210938 37.121094 33.210938 C 36.933594 33.210938 36.773438 33.273438 36.636719 33.40625 C 36.5 33.539062 36.433594 33.699219 36.429688 33.886719 Z M 36.429688 35.390625 " fill-opacity="1" fill-rule="nonzero"/><path fill="#fccdd5" d="M 26 28.085938 C 25.757812 28.085938 25.523438 28.039062 25.296875 27.945312 C 25.074219 27.851562 24.875 27.71875 24.703125 27.546875 C 24.53125 27.375 24.398438 27.175781 24.304688 26.953125 C 24.210938 26.726562 24.164062 26.492188 24.164062 26.25 C 24.164062 26.007812 24.210938 25.773438 24.304688 25.546875 C 24.398438 25.324219 24.53125 25.125 24.703125 24.953125 C 24.875 24.78125 25.074219 24.648438 25.296875 24.554688 C 25.523438 24.460938 25.757812 24.414062 26 24.414062 C 26.242188 24.414062 26.476562 24.460938 26.703125 24.554688 C 26.925781 24.648438 27.125 24.78125 27.296875 24.953125 C 27.46875 25.125 27.601562 25.324219 27.695312 25.546875 C 27.789062 25.773438 27.835938 26.007812 27.835938 26.25 C 27.835938 26.492188 27.789062 26.726562 27.695312 26.953125 C 27.601562 27.175781 27.46875 27.375 27.296875 27.546875 C 27.125 27.71875 26.925781 27.851562 26.703125 27.945312 C 26.476562 28.039062 26.242188 28.085938 26 28.085938 Z M 26 25.113281 C 25.847656 25.113281 25.703125 25.140625 25.5625 25.199219 C 25.425781 25.257812 25.300781 25.339844 25.195312 25.445312 C 25.089844 25.550781 25.007812 25.675781 24.949219 25.816406 C 24.890625 25.953125 24.863281 26.097656 24.863281 26.25 C 24.863281 26.402344 24.890625 26.546875 24.949219 26.6875 C 25.007812 26.824219 25.089844 26.949219 25.195312 27.054688 C 25.300781 27.164062 25.425781 27.246094 25.566406 27.300781 C 25.703125 27.359375 25.851562 27.390625 26 27.390625 C 26.152344 27.390625 26.296875 27.359375 26.4375 27.300781 C 26.574219 27.246094 26.699219 27.160156 26.804688 27.054688 C 26.914062 26.949219 26.996094 26.824219 27.050781 26.6875 C 27.109375 26.546875 27.140625 26.402344 27.140625 26.25 C 27.140625 26.097656 27.109375 25.953125 27.050781 25.8125 C 26.996094 25.675781 26.914062 25.550781 26.804688 25.445312 C 26.699219 25.339844 26.574219 25.253906 26.4375 25.199219 C 26.296875 25.140625 26.152344 25.113281 26 25.113281 Z M 26 25.113281 " fill-opacity="1" fill-rule="nonzero"/><g clip-path="url(#4d7fb88343)"><path fill="#fccdd5" d="M 42.363281 38.304688 L 9.636719 38.304688 C 9.542969 38.304688 9.460938 38.269531 9.390625 38.203125 C 9.324219 38.132812 9.289062 38.050781 9.289062 37.957031 C 9.289062 37.859375 9.324219 37.777344 9.390625 37.710938 C 9.460938 37.640625 9.542969 37.609375 9.636719 37.609375 L 42.363281 37.609375 C 42.457031 37.609375 42.539062 37.640625 42.609375 37.710938 C 42.675781 37.777344 42.710938 37.859375 42.710938 37.957031 C 42.710938 38.050781 42.675781 38.132812 42.609375 38.203125 C 42.539062 38.269531 42.457031 38.304688 42.363281 38.304688 Z M 42.363281 38.304688 " fill-opacity="1" fill-rule="nonzero"/></g></svg>