<svg xmlns="http://www.w3.org/2000/svg" xmlns:xlink="http://www.w3.org/1999/xlink" width="70" zoomAndPan="magnify" viewBox="0 0 52.5 52.499999" height="70" preserveAspectRatio="xMidYMid meet" version="1.0"><defs><clipPath id="a5d4c26365"><path d="M 5.199219 3.457031 L 46.804688 3.457031 L 46.804688 46.542969 L 5.199219 46.542969 Z M 5.199219 3.457031 " clip-rule="nonzero"/></clipPath></defs><path fill="#cc142a" d="M 37.113281 41.1875 L 37.113281 43.308594 C 37.113281 43.492188 37.257812 43.636719 37.4375 43.636719 L 40.703125 43.636719 C 40.882812 43.636719 41.03125 43.492188 41.03125 43.308594 L 41.03125 41.1875 C 41.03125 40.183594 40.214844 39.367188 39.210938 39.367188 L 38.933594 39.367188 C 37.929688 39.367188 37.113281 40.183594 37.113281 41.1875 Z M 37.765625 41.1875 C 37.765625 40.542969 38.289062 40.019531 38.933594 40.019531 L 39.210938 40.019531 C 39.851562 40.019531 40.375 40.542969 40.375 41.1875 L 40.375 42.984375 L 37.765625 42.984375 Z M 37.765625 41.1875 " fill-opacity="1" fill-rule="nonzero"/><path fill="#cc142a" d="M 12.980469 39.367188 L 12.703125 39.367188 C 11.699219 39.367188 10.882812 40.183594 10.882812 41.1875 L 10.882812 43.308594 C 10.882812 43.492188 11.027344 43.636719 11.207031 43.636719 L 14.472656 43.636719 C 14.652344 43.636719 14.800781 43.492188 14.800781 43.308594 L 14.800781 41.1875 C 14.800781 40.183594 13.984375 39.367188 12.980469 39.367188 Z M 14.144531 42.984375 L 11.535156 42.984375 L 11.535156 41.1875 C 11.535156 40.542969 12.058594 40.019531 12.703125 40.019531 L 12.980469 40.019531 C 13.621094 40.019531 14.144531 40.542969 14.144531 41.1875 Z M 14.144531 42.984375 " fill-opacity="1" fill-rule="nonzero"/><g clip-path="url(#a5d4c26365)"><path fill="#cc142a" d="M 5.75 31.597656 L 8.308594 30.066406 L 8.308594 46.183594 C 8.308594 46.363281 8.457031 46.511719 8.636719 46.511719 L 43.226562 46.511719 C 43.40625 46.511719 43.554688 46.363281 43.554688 46.183594 L 43.554688 29.996094 L 46.25 31.597656 C 46.300781 31.628906 46.359375 31.644531 46.417969 31.644531 C 46.527344 31.644531 46.636719 31.585938 46.699219 31.484375 C 46.792969 31.328125 46.738281 31.128906 46.585938 31.035156 L 33.316406 23.15625 L 33.316406 15.480469 L 36.054688 17.195312 C 36.109375 17.230469 36.167969 17.246094 36.226562 17.246094 C 36.335938 17.246094 36.445312 17.191406 36.503906 17.089844 C 36.601562 16.9375 36.554688 16.734375 36.402344 16.640625 L 33.164062 14.613281 L 31.777344 13.746094 L 26.277344 10.304688 L 26.277344 6.308594 L 28.300781 6.308594 C 28.484375 6.308594 28.628906 6.160156 28.628906 5.980469 C 28.628906 5.800781 28.484375 5.652344 28.300781 5.652344 L 26.277344 5.652344 L 26.277344 3.78125 C 26.277344 3.601562 26.132812 3.457031 25.949219 3.457031 C 25.769531 3.457031 25.621094 3.601562 25.621094 3.78125 L 25.621094 5.652344 L 23.597656 5.652344 C 23.417969 5.652344 23.269531 5.800781 23.269531 5.980469 C 23.269531 6.160156 23.417969 6.308594 23.597656 6.308594 L 25.621094 6.308594 L 25.621094 10.347656 L 15.523438 16.570312 C 15.371094 16.664062 15.320312 16.867188 15.417969 17.019531 C 15.511719 17.175781 15.714844 17.222656 15.867188 17.128906 L 18.546875 15.476562 L 18.546875 23.183594 L 5.414062 31.035156 C 5.257812 31.128906 5.207031 31.328125 5.300781 31.484375 C 5.394531 31.640625 5.59375 31.691406 5.75 31.597656 Z M 25.660156 45.855469 L 22.726562 45.855469 L 22.726562 42.792969 C 22.726562 41.171875 24.039062 39.851562 25.660156 39.839844 Z M 29.246094 45.855469 L 26.3125 45.855469 L 26.3125 39.839844 C 27.933594 39.851562 29.246094 41.171875 29.246094 42.792969 Z M 33.316406 23.949219 L 42.898438 29.679688 L 42.898438 45.855469 L 35.234375 45.855469 L 35.234375 31.203125 L 37.515625 32.566406 C 37.566406 32.597656 37.625 32.613281 37.683594 32.613281 C 37.792969 32.613281 37.902344 32.558594 37.964844 32.453125 C 38.054688 32.300781 38.003906 32.097656 37.851562 32.003906 L 35.074219 30.34375 L 33.316406 29.292969 Z M 19.203125 15.074219 L 25.824219 10.992188 L 25.984375 10.894531 L 31.730469 14.488281 L 32.660156 15.070312 L 32.660156 28.902344 L 26.101562 24.976562 C 25.996094 24.914062 25.867188 24.914062 25.765625 24.976562 L 19.203125 28.902344 Z M 21.953125 28.019531 L 25.933594 25.640625 L 29.910156 28.019531 L 34.578125 30.8125 L 34.578125 45.855469 L 29.902344 45.855469 L 29.902344 42.792969 C 29.902344 40.804688 28.28125 39.183594 26.292969 39.183594 L 25.679688 39.183594 C 23.691406 39.183594 22.074219 40.804688 22.074219 42.792969 L 22.074219 45.855469 L 17.285156 45.855469 L 17.285156 30.8125 Z M 8.964844 29.679688 L 18.546875 23.949219 L 18.546875 29.292969 L 16.789062 30.34375 L 14.011719 32.003906 C 13.859375 32.097656 13.808594 32.300781 13.898438 32.453125 C 13.992188 32.609375 14.195312 32.660156 14.347656 32.566406 L 16.628906 31.203125 L 16.628906 45.855469 L 8.964844 45.855469 Z M 8.964844 29.679688 " fill-opacity="1" fill-rule="nonzero"/></g><path fill="#cc142a" d="M 24.25 31.59375 L 25.621094 31.59375 L 25.621094 34.539062 C 25.621094 34.71875 25.769531 34.867188 25.949219 34.867188 C 26.132812 34.867188 26.277344 34.71875 26.277344 34.539062 L 26.277344 31.59375 L 27.648438 31.59375 C 27.832031 31.59375 27.976562 31.449219 27.976562 31.269531 C 27.976562 31.085938 27.832031 30.941406 27.648438 30.941406 L 26.277344 30.941406 L 26.277344 29.679688 C 26.277344 29.5 26.132812 29.351562 25.949219 29.351562 C 25.769531 29.351562 25.621094 29.5 25.621094 29.679688 L 25.621094 30.941406 L 24.25 30.941406 C 24.070312 30.941406 23.921875 31.085938 23.921875 31.269531 C 23.921875 31.449219 24.070312 31.59375 24.25 31.59375 Z M 24.25 31.59375 " fill-opacity="1" fill-rule="nonzero"/><path fill="#cc142a" d="M 25.941406 22.65625 C 26.039062 22.652344 26.136719 22.632812 26.226562 22.59375 C 26.382812 22.53125 26.535156 22.453125 26.714844 22.355469 C 26.929688 22.234375 27.140625 22.101562 27.335938 21.957031 C 28.574219 21.046875 29.171875 20.011719 29.066406 18.960938 C 28.984375 18.121094 28.300781 17.457031 27.480469 17.417969 C 27.109375 17.402344 26.730469 17.53125 26.378906 17.792969 C 26.214844 17.917969 26.0625 18.0625 25.933594 18.214844 C 25.800781 18.0625 25.652344 17.917969 25.484375 17.792969 C 25.132812 17.53125 24.753906 17.402344 24.382812 17.417969 C 23.5625 17.457031 22.878906 18.121094 22.796875 18.960938 C 22.691406 20.011719 23.289062 21.046875 24.527344 21.957031 C 24.722656 22.101562 24.933594 22.234375 25.148438 22.351562 C 25.332031 22.453125 25.480469 22.53125 25.640625 22.597656 C 25.730469 22.636719 25.832031 22.65625 25.929688 22.65625 C 25.933594 22.65625 25.9375 22.65625 25.941406 22.65625 Z M 25.464844 21.78125 C 25.273438 21.675781 25.089844 21.558594 24.914062 21.429688 C 24.191406 20.894531 23.347656 20.046875 23.449219 19.027344 C 23.5 18.515625 23.921875 18.09375 24.414062 18.074219 C 24.425781 18.074219 24.4375 18.070312 24.449219 18.070312 C 24.707031 18.070312 24.9375 18.203125 25.089844 18.316406 C 25.265625 18.449219 25.417969 18.605469 25.535156 18.769531 C 25.625 18.898438 25.773438 18.972656 25.933594 18.972656 C 26.089844 18.972656 26.238281 18.894531 26.328125 18.765625 C 26.445312 18.605469 26.597656 18.449219 26.773438 18.316406 C 26.929688 18.199219 27.175781 18.058594 27.449219 18.074219 C 27.941406 18.09375 28.363281 18.515625 28.414062 19.027344 C 28.515625 20.046875 27.675781 20.894531 26.949219 21.429688 C 26.773438 21.558594 26.589844 21.675781 26.398438 21.78125 C 26.234375 21.871094 26.105469 21.9375 25.972656 21.992188 C 25.960938 21.996094 25.945312 22 25.933594 22 C 25.917969 22 25.90625 21.996094 25.890625 21.992188 C 25.757812 21.9375 25.628906 21.871094 25.464844 21.78125 Z M 25.464844 21.78125 " fill-opacity="1" fill-rule="nonzero"/></svg>