<svg xmlns="http://www.w3.org/2000/svg" xmlns:xlink="http://www.w3.org/1999/xlink" width="200" zoomAndPan="magnify" viewBox="0 0 150 30.000001" height="40" preserveAspectRatio="xMidYMid meet" version="1.0"><defs><clipPath id="c32e3958d7"><path d="M 57 0.355469 L 96.128906 0.355469 L 96.128906 28.660156 L 57 28.660156 Z M 57 0.355469 " clip-rule="nonzero"/></clipPath></defs><g clip-path="url(#c32e3958d7)"><path fill="#f8c8dc" d="M 95.933594 1.703125 C 95.136719 0.953125 93.960938 0.601562 92.882812 0.511719 C 91.800781 0.421875 90.628906 0.648438 89.558594 0.945312 C 86.191406 1.890625 83.519531 3.808594 81.277344 6.429688 C 79.886719 8.046875 78.71875 9.820312 77.777344 11.734375 C 77.761719 11.757812 77.75 11.757812 77.738281 11.734375 C 77.605469 11.464844 77.425781 11.230469 77.195312 11.039062 C 77.195312 11.039062 77.195312 11.039062 77.1875 11.03125 C 77.175781 11.019531 77.175781 10.992188 77.195312 10.980469 C 77.832031 10.457031 77.808594 10.070312 77.136719 9.628906 C 77.121094 9.617188 77.121094 9.605469 77.136719 9.585938 C 77.304688 9.46875 77.445312 9.347656 77.554688 9.222656 C 78.675781 7.902344 79.113281 6.421875 79.644531 4.707031 C 79.746094 4.375 79.917969 4.078125 80.160156 3.800781 C 80.542969 3.363281 81.128906 3.113281 81.46875 2.640625 C 81.539062 2.539062 81.5 2.40625 81.382812 2.378906 C 80.371094 2.164062 79.554688 3.835938 79.332031 4.582031 C 79.261719 4.824219 79.101562 5.378906 78.859375 6.257812 C 78.566406 7.316406 78.019531 8.296875 77.222656 9.195312 C 77 9.445312 76.738281 9.546875 76.429688 9.5 C 76.324219 9.484375 76.207031 9.425781 76.097656 9.335938 C 75.421875 8.742188 74.90625 7.84375 74.5625 7.015625 C 74.269531 6.3125 74.046875 5.382812 73.8125 4.566406 C 73.570312 3.75 72.894531 2.335938 71.867188 2.367188 C 71.789062 2.367188 71.726562 2.414062 71.675781 2.496094 C 71.664062 2.515625 71.664062 2.527344 71.667969 2.546875 C 71.699219 2.660156 71.75 2.75 71.820312 2.8125 C 72.191406 3.144531 72.753906 3.503906 73.066406 3.90625 C 73.300781 4.21875 73.480469 4.566406 73.585938 4.957031 C 74.007812 6.410156 74.453125 7.78125 75.421875 9.023438 C 75.589844 9.234375 75.773438 9.417969 75.976562 9.578125 C 75.984375 9.585938 75.984375 9.585938 75.992188 9.589844 C 76.003906 9.609375 75.996094 9.636719 75.972656 9.648438 C 75.277344 10.03125 75.351562 10.566406 75.953125 10.988281 C 75.953125 10.988281 75.960938 10.992188 75.960938 10.992188 C 75.972656 11.007812 75.964844 11.023438 75.953125 11.039062 C 75.710938 11.234375 75.519531 11.472656 75.386719 11.753906 C 75.371094 11.777344 75.359375 11.777344 75.347656 11.753906 C 74.097656 9.226562 72.472656 6.976562 70.464844 5.007812 C 68.042969 2.617188 65.140625 1.074219 61.738281 0.5625 C 60.332031 0.355469 58.816406 0.570312 57.617188 1.359375 C 57.441406 1.476562 57.121094 1.710938 57.070312 1.929688 C 56.941406 2.417969 59.117188 4.03125 59.519531 4.355469 C 60.089844 4.816406 60.644531 5.441406 60.875 6.128906 C 61.074219 6.714844 61.0625 7.359375 60.976562 7.972656 C 60.894531 8.597656 61.378906 8.992188 61.570312 9.539062 C 61.691406 9.882812 61.753906 10.242188 61.773438 10.605469 C 61.792969 10.9375 61.851562 11.230469 61.980469 11.484375 C 62.308594 12.152344 62.941406 12.96875 63.527344 13.414062 C 64.109375 13.855469 64.917969 13.886719 65.601562 13.695312 C 65.757812 13.652344 66.109375 13.5 66.664062 13.238281 C 68.074219 12.566406 69.519531 12.222656 71.125 12.253906 C 72.230469 12.28125 73.421875 12.472656 74.691406 12.835938 C 74.785156 12.859375 74.863281 12.886719 74.914062 12.90625 C 74.925781 12.914062 74.9375 12.925781 74.9375 12.945312 L 74.886719 13.550781 C 74.886719 13.574219 74.875 13.582031 74.851562 13.589844 C 73.632812 13.722656 72.3125 14.003906 70.882812 14.421875 C 69.515625 14.832031 68.277344 15.390625 67.175781 16.113281 C 67.074219 16.183594 66.976562 16.222656 66.894531 16.234375 C 66.867188 16.238281 66.847656 16.226562 66.835938 16.203125 C 66.664062 15.839844 67.492188 15.117188 67.78125 14.941406 C 68.390625 14.5625 69.03125 14.257812 69.707031 14.027344 C 71.3125 13.484375 73.082031 13.15625 74.78125 13.300781 C 74.796875 13.300781 74.8125 13.292969 74.8125 13.269531 C 74.8125 13.257812 74.804688 13.25 74.792969 13.242188 C 73.082031 12.828125 71.273438 12.738281 69.519531 12.964844 C 67.871094 13.171875 65.734375 13.902344 65.011719 15.546875 C 64.613281 16.457031 64.382812 17.890625 64.734375 18.871094 C 65.121094 19.976562 66.148438 20.683594 67.117188 21.257812 C 68.570312 22.117188 68.703125 23.792969 67.894531 25.160156 C 67.691406 25.507812 67.257812 25.980469 67.046875 26.371094 C 66.625 27.148438 66.675781 27.90625 67.210938 28.640625 C 67.230469 28.660156 67.257812 28.671875 67.28125 28.660156 C 67.316406 28.644531 67.328125 28.609375 67.316406 28.574219 C 67.238281 28.402344 67.136719 28.246094 67.117188 28.058594 C 66.964844 26.757812 68.339844 26.683594 68.742188 25.789062 C 69.042969 25.125 69.246094 24.617188 69.820312 24.273438 C 70.074219 24.121094 70.4375 24.023438 70.75 23.921875 C 73.121094 23.132812 73.976562 20.511719 74.460938 18.335938 C 74.660156 17.453125 74.902344 16.550781 75.1875 15.648438 C 75.214844 15.5625 75.238281 15.5625 75.265625 15.648438 C 75.421875 16.222656 75.703125 16.722656 76.097656 17.164062 C 76.113281 17.183594 76.117188 17.203125 76.097656 17.222656 C 75.277344 18.324219 75.539062 20.625 76.289062 21.714844 C 76.46875 21.976562 76.679688 21.953125 76.882812 21.734375 C 76.980469 21.640625 77.035156 21.558594 77.0625 21.5 C 77.617188 20.320312 77.742188 19.128906 77.445312 17.902344 C 77.386719 17.667969 77.257812 17.425781 77.054688 17.171875 C 77.042969 17.152344 77.042969 17.140625 77.0625 17.121094 C 77.46875 16.761719 77.757812 16.050781 77.902344 15.539062 C 77.910156 15.511719 77.917969 15.511719 77.921875 15.539062 C 78.351562 16.769531 78.597656 17.96875 78.886719 19.191406 C 79.324219 21.066406 80.382812 23.285156 82.367188 23.929688 C 82.5625 23.992188 82.761719 24.054688 82.957031 24.125 C 83.789062 24.414062 83.996094 24.992188 84.34375 25.707031 C 84.476562 25.988281 84.605469 26.171875 84.71875 26.25 C 85.050781 26.484375 85.453125 26.738281 85.6875 27.019531 C 86.078125 27.480469 86.113281 28.007812 85.800781 28.601562 C 85.78125 28.632812 85.796875 28.644531 85.828125 28.640625 C 85.886719 28.625 85.9375 28.589844 85.972656 28.523438 C 86.457031 27.796875 86.484375 27.058594 86.039062 26.304688 C 85.816406 25.929688 85.382812 25.476562 85.164062 25.070312 C 84.585938 23.972656 84.566406 22.660156 85.414062 21.730469 C 85.777344 21.328125 86.476562 20.964844 86.859375 20.707031 C 87.675781 20.167969 88.472656 19.21875 88.554688 18.195312 C 88.605469 17.554688 88.535156 16.882812 88.347656 16.1875 C 87.765625 14.074219 85.566406 13.238281 83.617188 12.976562 C 81.816406 12.738281 80.03125 12.835938 78.265625 13.257812 C 78.246094 13.257812 78.230469 13.242188 78.222656 13.226562 L 78.191406 12.949219 C 78.191406 12.925781 78.195312 12.914062 78.222656 12.898438 C 80.574219 12.167969 83.0625 11.980469 85.417969 12.824219 C 85.890625 12.988281 86.414062 13.21875 86.980469 13.5 C 87.878906 13.945312 89.035156 13.953125 89.800781 13.238281 C 90.296875 12.773438 90.710938 12.242188 91.035156 11.644531 C 91.1875 11.355469 91.277344 11.140625 91.289062 10.980469 C 91.328125 10.597656 91.355469 10.175781 91.445312 9.828125 C 91.550781 9.414062 91.730469 9.113281 91.984375 8.691406 C 92.09375 8.511719 92.207031 8.269531 92.183594 8.09375 C 92.050781 7.1875 92.070312 6.257812 92.578125 5.464844 C 92.816406 5.101562 93.171875 4.726562 93.648438 4.339844 C 94.230469 3.871094 94.796875 3.394531 95.363281 2.910156 C 95.492188 2.800781 95.640625 2.648438 95.792969 2.449219 C 96.019531 2.183594 96.226562 1.992188 95.933594 1.703125 Z M 70.347656 11.878906 C 70.347656 11.886719 70.347656 11.886719 70.347656 11.878906 C 68.992188 11.828125 67.644531 11.890625 66.300781 12.082031 C 65.683594 12.171875 64.5625 12.210938 64.171875 11.585938 C 63.921875 11.183594 64.859375 11.058594 65.0625 11.042969 C 65.726562 11.007812 66.410156 11.070312 67.109375 11.242188 C 67.964844 11.445312 69.042969 11.65625 70.335938 11.875 C 70.347656 11.867188 70.347656 11.867188 70.347656 11.878906 C 70.347656 11.875 70.347656 11.878906 70.347656 11.878906 Z M 74.875 12.339844 C 72.652344 11.210938 70.164062 10.566406 67.761719 9.851562 C 67.160156 9.671875 65.191406 9.121094 64.976562 8.507812 C 64.957031 8.445312 64.980469 8.375 65.046875 8.347656 C 65.324219 8.226562 65.746094 8.324219 66.03125 8.398438 C 66.300781 8.476562 66.84375 8.671875 67.660156 9.003906 C 68.660156 9.40625 69.652344 9.75 70.65625 10.121094 C 70.660156 10.121094 70.667969 10.121094 70.667969 10.121094 C 70.675781 10.113281 70.675781 10.113281 70.667969 10.105469 C 69.464844 9.546875 68.609375 9.144531 68.105469 8.890625 C 67.195312 8.429688 66.238281 7.894531 65.53125 7.148438 C 65.304688 6.917969 64.789062 6.109375 65.28125 5.945312 C 65.976562 5.707031 66.480469 5.878906 67.140625 6.25 C 68.769531 7.15625 70.183594 8.226562 71.644531 9.429688 C 71.644531 9.429688 71.648438 9.429688 71.648438 9.429688 C 71.648438 9.429688 71.648438 9.425781 71.648438 9.425781 C 70.234375 8.042969 68.691406 6.714844 67.046875 5.625 C 65.503906 4.597656 64.492188 3.917969 64.011719 3.585938 C 63.78125 3.421875 62.367188 2.386719 62.558594 2.082031 C 62.722656 1.820312 64.039062 2.496094 64.265625 2.625 C 65.183594 3.152344 66.007812 3.738281 66.742188 4.371094 C 69.597656 6.835938 72.320312 9.476562 74.914062 12.28125 C 75.023438 12.390625 75.003906 12.410156 74.875 12.339844 Z M 67.773438 18.929688 C 67.472656 18.808594 67.332031 18.578125 67.339844 18.25 C 67.359375 17.496094 67.765625 16.933594 68.335938 16.488281 C 68.960938 15.992188 69.636719 15.578125 70.363281 15.246094 C 71.800781 14.59375 73.289062 14.089844 74.824219 13.742188 C 74.824219 13.742188 74.832031 13.742188 74.832031 13.742188 C 74.855469 13.742188 74.875 13.761719 74.875 13.785156 L 74.882812 14.175781 C 74.882812 14.195312 74.875 14.210938 74.851562 14.21875 C 74.675781 14.289062 74.5 14.378906 74.320312 14.5 C 73.683594 14.921875 73.089844 15.386719 72.554688 15.902344 C 72 16.4375 71.414062 17.183594 70.851562 17.828125 C 70.09375 18.707031 68.972656 19.421875 67.773438 18.929688 Z M 75.015625 15.003906 C 74.433594 15.773438 74 16.535156 73.722656 17.265625 C 73.332031 18.285156 73.015625 19.027344 72.777344 19.480469 C 72.421875 20.167969 71.835938 20.914062 71.089844 21.105469 C 70.699219 21.199219 70.042969 21.109375 70.011719 20.59375 C 69.941406 19.460938 70.789062 18.492188 71.546875 17.699219 C 72.21875 17.011719 72.960938 16.222656 73.785156 15.320312 C 74.097656 14.984375 74.46875 14.644531 74.886719 14.316406 C 74.90625 14.300781 74.921875 14.300781 74.925781 14.328125 L 75.035156 14.945312 C 75.035156 14.964844 75.027344 14.984375 75.015625 15.003906 Z M 85.210938 18.988281 C 83.570312 19.480469 82.492188 18.050781 81.570312 16.980469 C 80.59375 15.839844 79.574219 14.90625 78.28125 14.136719 C 78.261719 14.125 78.253906 14.109375 78.253906 14.085938 L 78.273438 13.78125 C 78.273438 13.753906 78.292969 13.742188 78.316406 13.742188 C 78.605469 13.792969 78.886719 13.847656 79.160156 13.933594 C 80.929688 14.4375 85.636719 15.933594 85.796875 18.113281 C 85.832031 18.574219 85.644531 18.859375 85.210938 18.988281 Z M 78.285156 13.300781 C 78.949219 13.238281 79.683594 13.257812 80.480469 13.363281 C 82.136719 13.582031 83.921875 14.066406 85.355469 14.957031 C 85.675781 15.15625 86.386719 15.773438 86.300781 16.1875 C 86.292969 16.207031 86.28125 16.222656 86.261719 16.222656 C 86.183594 16.226562 86.121094 16.207031 86.070312 16.175781 C 83.730469 14.664062 81.039062 13.9375 78.3125 13.582031 C 78.285156 13.582031 78.273438 13.5625 78.265625 13.535156 L 78.253906 13.339844 C 78.246094 13.320312 78.261719 13.308594 78.285156 13.300781 Z M 78.242188 14.296875 C 78.242188 14.28125 78.253906 14.277344 78.261719 14.289062 C 78.71875 14.640625 79.078125 14.953125 79.320312 15.226562 C 80.097656 16.105469 80.835938 16.902344 81.539062 17.628906 C 82.277344 18.394531 83.011719 19.230469 83.136719 20.308594 C 83.148438 20.421875 83.144531 20.542969 83.125 20.664062 C 83.046875 21.054688 82.558594 21.179688 82.226562 21.136719 C 80.671875 20.917969 79.957031 18.617188 79.476562 17.40625 C 79.140625 16.546875 78.695312 15.75 78.140625 15.007812 C 78.125 14.992188 78.121094 14.976562 78.125 14.953125 Z M 88.964844 11.597656 C 88.691406 12.082031 87.6875 12.1875 87.230469 12.109375 C 85.820312 11.898438 84.40625 11.820312 82.984375 11.878906 C 82.933594 11.878906 82.882812 11.886719 82.832031 11.898438 C 82.820312 11.898438 82.8125 11.898438 82.804688 11.898438 C 82.800781 11.898438 82.800781 11.890625 82.800781 11.886719 C 82.800781 11.878906 82.804688 11.867188 82.8125 11.867188 C 83.910156 11.664062 84.992188 11.445312 86.0625 11.203125 C 86.644531 11.078125 87.238281 11.011719 87.835938 11.011719 C 88.085938 11.023438 89.246094 11.109375 88.964844 11.597656 Z M 90.558594 2.183594 C 90.316406 2.660156 89.730469 3.101562 89.300781 3.421875 C 88.410156 4.089844 86.960938 4.945312 85.757812 5.796875 C 84.707031 6.542969 83.640625 7.40625 82.550781 8.386719 C 82.136719 8.761719 81.824219 9.054688 81.625 9.257812 C 81.625 9.265625 81.625 9.265625 81.625 9.273438 C 81.625 9.277344 81.632812 9.277344 81.640625 9.273438 C 82.710938 8.359375 83.839844 7.53125 85.03125 6.78125 C 85.535156 6.460938 85.988281 6.210938 86.386719 6.019531 C 86.886719 5.785156 87.382812 5.765625 87.875 5.964844 C 88.015625 6.019531 88.058594 6.15625 88.039062 6.300781 C 87.894531 7.230469 86.675781 7.972656 85.867188 8.425781 C 84.808594 9.015625 83.617188 9.558594 82.46875 10.074219 C 82.460938 10.074219 82.460938 10.082031 82.460938 10.082031 C 82.460938 10.082031 82.460938 10.082031 82.46875 10.082031 C 83.902344 9.570312 85.332031 9.050781 86.753906 8.507812 C 87.183594 8.339844 87.746094 8.167969 88.089844 8.355469 C 88.089844 8.355469 88.097656 8.355469 88.097656 8.355469 C 88.160156 8.390625 88.1875 8.476562 88.148438 8.539062 C 87.976562 8.832031 87.5625 9.042969 87.253906 9.171875 C 86.605469 9.445312 85.9375 9.671875 85.253906 9.863281 C 82.652344 10.597656 80.390625 11.234375 78.144531 12.375 C 78.140625 12.382812 78.132812 12.375 78.125 12.375 C 78.121094 12.371094 78.121094 12.359375 78.125 12.351562 C 80.210938 10 82.492188 7.8125 84.902344 5.613281 C 86.210938 4.421875 87.445312 3.363281 88.925781 2.539062 C 89.320312 2.316406 90.015625 1.964844 90.457031 1.992188 C 90.476562 1.992188 90.488281 2 90.507812 2.003906 C 90.5625 2.042969 90.589844 2.121094 90.558594 2.183594 Z M 90.558594 2.183594 " fill-opacity="1" fill-rule="nonzero"/></g></svg>