<svg xmlns="http://www.w3.org/2000/svg" xmlns:xlink="http://www.w3.org/1999/xlink" width="70" zoomAndPan="magnify" viewBox="0 0 52.5 52.499999" height="70" preserveAspectRatio="xMidYMid meet" version="1.0"><defs><clipPath id="7674791a73"><path d="M 5.527344 3.089844 L 46.386719 3.089844 L 46.386719 45.4375 L 5.527344 45.4375 Z M 5.527344 3.089844 " clip-rule="nonzero"/></clipPath></defs><path fill="#b20011" d="M 36.933594 40.230469 L 36.933594 42.320312 C 36.933594 42.5 37.078125 42.644531 37.253906 42.644531 L 40.46875 42.644531 C 40.644531 42.644531 40.789062 42.5 40.789062 42.320312 L 40.789062 40.230469 C 40.789062 39.242188 39.984375 38.4375 39 38.4375 L 38.726562 38.4375 C 37.738281 38.4375 36.933594 39.242188 36.933594 40.230469 Z M 37.578125 40.230469 C 37.578125 39.597656 38.09375 39.082031 38.726562 39.082031 L 39 39.082031 C 39.628906 39.082031 40.144531 39.597656 40.144531 40.230469 L 40.144531 42 L 37.578125 42 Z M 37.578125 40.230469 " fill-opacity="1" fill-rule="nonzero"/><path fill="#b20011" d="M 13.175781 38.4375 L 12.902344 38.4375 C 11.917969 38.4375 11.113281 39.242188 11.113281 40.230469 L 11.113281 42.320312 C 11.113281 42.5 11.257812 42.644531 11.433594 42.644531 L 14.648438 42.644531 C 14.824219 42.644531 14.96875 42.5 14.96875 42.320312 L 14.96875 40.230469 C 14.96875 39.242188 14.164062 38.4375 13.175781 38.4375 Z M 14.324219 42 L 11.757812 42 L 11.757812 40.230469 C 11.757812 39.597656 12.273438 39.082031 12.902344 39.082031 L 13.175781 39.082031 C 13.808594 39.082031 14.324219 39.597656 14.324219 40.230469 Z M 14.324219 42 " fill-opacity="1" fill-rule="nonzero"/><g clip-path="url(#7674791a73)"><path fill="#b20011" d="M 6.0625 30.792969 L 8.582031 29.285156 L 8.582031 45.148438 C 8.582031 45.328125 8.726562 45.472656 8.902344 45.472656 L 42.953125 45.472656 C 43.128906 45.472656 43.273438 45.328125 43.273438 45.148438 L 43.273438 29.214844 L 45.929688 30.792969 C 45.980469 30.824219 46.035156 30.835938 46.09375 30.835938 C 46.203125 30.835938 46.308594 30.78125 46.371094 30.679688 C 46.460938 30.527344 46.410156 30.328125 46.257812 30.238281 L 33.195312 22.480469 L 33.195312 14.925781 L 35.890625 16.613281 C 35.945312 16.648438 36.003906 16.664062 36.0625 16.664062 C 36.171875 16.664062 36.273438 16.609375 36.335938 16.511719 C 36.429688 16.363281 36.386719 16.164062 36.234375 16.066406 L 33.046875 14.074219 L 31.683594 13.21875 L 26.269531 9.832031 L 26.269531 5.898438 L 28.261719 5.898438 C 28.4375 5.898438 28.582031 5.753906 28.582031 5.574219 C 28.582031 5.398438 28.4375 5.253906 28.261719 5.253906 L 26.269531 5.253906 L 26.269531 3.410156 C 26.269531 3.234375 26.125 3.089844 25.945312 3.089844 C 25.769531 3.089844 25.625 3.234375 25.625 3.410156 L 25.625 5.253906 L 23.632812 5.253906 C 23.453125 5.253906 23.308594 5.398438 23.308594 5.574219 C 23.308594 5.753906 23.453125 5.898438 23.632812 5.898438 L 25.625 5.898438 L 25.625 9.875 L 15.683594 16 C 15.53125 16.09375 15.484375 16.292969 15.578125 16.441406 C 15.671875 16.59375 15.867188 16.640625 16.019531 16.546875 L 18.660156 14.921875 L 18.660156 22.511719 L 5.730469 30.238281 C 5.578125 30.328125 5.527344 30.527344 5.621094 30.679688 C 5.710938 30.832031 5.910156 30.882812 6.0625 30.792969 Z M 25.660156 44.828125 L 22.773438 44.828125 L 22.773438 41.8125 C 22.773438 40.21875 24.066406 38.917969 25.660156 38.90625 Z M 29.191406 44.828125 L 26.304688 44.828125 L 26.304688 38.90625 C 27.898438 38.917969 29.191406 40.21875 29.191406 41.8125 Z M 33.195312 23.261719 L 42.628906 28.90625 L 42.628906 44.828125 L 35.085938 44.828125 L 35.085938 30.402344 L 37.328125 31.746094 C 37.382812 31.777344 37.4375 31.792969 37.496094 31.792969 C 37.605469 31.792969 37.710938 31.734375 37.769531 31.636719 C 37.863281 31.480469 37.8125 31.285156 37.660156 31.191406 L 34.929688 29.558594 L 33.195312 28.523438 Z M 19.304688 14.527344 L 25.824219 10.507812 L 25.980469 10.410156 L 31.632812 13.949219 L 32.550781 14.523438 L 32.550781 28.136719 L 26.09375 24.273438 C 25.992188 24.214844 25.863281 24.214844 25.761719 24.273438 L 19.304688 28.136719 Z M 22.011719 27.269531 L 25.929688 24.925781 L 29.84375 27.269531 L 34.441406 30.019531 L 34.441406 44.828125 L 29.835938 44.828125 L 29.835938 41.8125 C 29.835938 39.855469 28.242188 38.261719 26.28125 38.261719 L 25.679688 38.261719 C 23.722656 38.261719 22.128906 39.855469 22.128906 41.8125 L 22.128906 44.828125 L 17.414062 44.828125 L 17.414062 30.019531 Z M 9.226562 28.90625 L 18.660156 23.261719 L 18.660156 28.523438 L 16.925781 29.558594 L 14.195312 31.191406 C 14.042969 31.285156 13.992188 31.480469 14.085938 31.636719 C 14.175781 31.789062 14.375 31.835938 14.527344 31.746094 L 16.769531 30.402344 L 16.769531 44.828125 L 9.226562 44.828125 Z M 9.226562 28.90625 " fill-opacity="1" fill-rule="nonzero"/></g><path fill="#b20011" d="M 24.273438 30.789062 L 25.625 30.789062 L 25.625 33.6875 C 25.625 33.867188 25.769531 34.007812 25.945312 34.007812 C 26.125 34.007812 26.269531 33.867188 26.269531 33.6875 L 26.269531 30.789062 L 27.617188 30.789062 C 27.796875 30.789062 27.941406 30.644531 27.941406 30.46875 C 27.941406 30.289062 27.796875 30.144531 27.617188 30.144531 L 26.269531 30.144531 L 26.269531 28.902344 C 26.269531 28.726562 26.125 28.582031 25.945312 28.582031 C 25.769531 28.582031 25.625 28.726562 25.625 28.902344 L 25.625 30.144531 L 24.273438 30.144531 C 24.09375 30.144531 23.949219 30.289062 23.949219 30.46875 C 23.949219 30.644531 24.09375 30.789062 24.273438 30.789062 Z M 24.273438 30.789062 " fill-opacity="1" fill-rule="nonzero"/><path fill="#b20011" d="M 25.9375 21.988281 C 26.035156 21.988281 26.128906 21.96875 26.214844 21.929688 C 26.371094 21.867188 26.519531 21.792969 26.699219 21.691406 C 26.910156 21.574219 27.117188 21.445312 27.3125 21.300781 C 28.527344 20.40625 29.117188 19.386719 29.015625 18.351562 C 28.929688 17.523438 28.261719 16.871094 27.453125 16.835938 C 27.085938 16.816406 26.710938 16.945312 26.367188 17.203125 C 26.203125 17.328125 26.054688 17.46875 25.929688 17.617188 C 25.800781 17.46875 25.652344 17.328125 25.488281 17.203125 C 25.144531 16.945312 24.769531 16.816406 24.402344 16.835938 C 23.59375 16.871094 22.925781 17.523438 22.839844 18.351562 C 22.738281 19.386719 23.328125 20.40625 24.542969 21.300781 C 24.738281 21.445312 24.945312 21.574219 25.15625 21.691406 C 25.335938 21.792969 25.484375 21.867188 25.640625 21.929688 C 25.730469 21.96875 25.828125 21.988281 25.925781 21.988281 C 25.929688 21.988281 25.933594 21.988281 25.9375 21.988281 Z M 25.46875 21.128906 C 25.28125 21.023438 25.097656 20.910156 24.925781 20.78125 C 24.210938 20.257812 23.382812 19.421875 23.484375 18.417969 C 23.535156 17.914062 23.949219 17.5 24.433594 17.476562 C 24.445312 17.476562 24.457031 17.476562 24.46875 17.476562 C 24.722656 17.476562 24.949219 17.609375 25.101562 17.71875 C 25.273438 17.851562 25.425781 18.003906 25.539062 18.164062 C 25.628906 18.289062 25.773438 18.363281 25.929688 18.363281 C 26.085938 18.363281 26.230469 18.289062 26.320312 18.160156 C 26.429688 18.003906 26.582031 17.851562 26.753906 17.71875 C 26.910156 17.601562 27.152344 17.464844 27.421875 17.476562 C 27.90625 17.5 28.324219 17.914062 28.371094 18.417969 C 28.472656 19.421875 27.644531 20.257812 26.929688 20.78125 C 26.757812 20.910156 26.574219 21.023438 26.386719 21.128906 C 26.226562 21.21875 26.097656 21.28125 25.96875 21.335938 C 25.953125 21.339844 25.941406 21.34375 25.929688 21.34375 C 25.914062 21.34375 25.902344 21.339844 25.890625 21.335938 C 25.757812 21.28125 25.628906 21.21875 25.46875 21.128906 Z M 25.46875 21.128906 " fill-opacity="1" fill-rule="nonzero"/></svg>