<svg xmlns="http://www.w3.org/2000/svg" xmlns:xlink="http://www.w3.org/1999/xlink" width="70" zoomAndPan="magnify" viewBox="0 0 52.5 52.499999" height="70" preserveAspectRatio="xMidYMid meet" version="1.0"><defs><clipPath id="9bb98dab38"><path d="M 5.527344 3.089844 L 46.386719 3.089844 L 46.386719 45.4375 L 5.527344 45.4375 Z M 5.527344 3.089844 " clip-rule="nonzero"/></clipPath></defs><path fill="#000000" d="M 36.871094 40.199219 L 36.871094 42.289062 C 36.871094 42.464844 37.015625 42.609375 37.191406 42.609375 L 40.398438 42.609375 C 40.574219 42.609375 40.71875 42.464844 40.71875 42.289062 L 40.71875 40.199219 C 40.71875 39.214844 39.917969 38.410156 38.929688 38.410156 L 38.660156 38.410156 C 37.671875 38.410156 36.871094 39.214844 36.871094 40.199219 Z M 37.515625 40.199219 C 37.515625 39.570312 38.027344 39.054688 38.660156 39.054688 L 38.929688 39.054688 C 39.5625 39.054688 40.078125 39.570312 40.078125 40.199219 L 40.078125 41.964844 L 37.515625 41.964844 Z M 37.515625 40.199219 " fill-opacity="1" fill-rule="nonzero"/><path fill="#000000" d="M 13.164062 38.410156 L 12.890625 38.410156 C 11.902344 38.410156 11.101562 39.214844 11.101562 40.199219 L 11.101562 42.289062 C 11.101562 42.464844 11.246094 42.609375 11.421875 42.609375 L 14.628906 42.609375 C 14.804688 42.609375 14.949219 42.464844 14.949219 42.289062 L 14.949219 40.199219 C 14.949219 39.214844 14.148438 38.410156 13.164062 38.410156 Z M 14.308594 41.964844 L 11.746094 41.964844 L 11.746094 40.199219 C 11.746094 39.570312 12.257812 39.054688 12.890625 39.054688 L 13.164062 39.054688 C 13.792969 39.054688 14.308594 39.570312 14.308594 40.199219 Z M 14.308594 41.964844 " fill-opacity="1" fill-rule="nonzero"/><g clip-path="url(#9bb98dab38)"><path fill="#000000" d="M 6.0625 30.769531 L 8.574219 29.265625 L 8.574219 45.113281 C 8.574219 45.292969 8.71875 45.4375 8.898438 45.4375 L 42.878906 45.4375 C 43.054688 45.4375 43.199219 45.292969 43.199219 45.113281 L 43.199219 29.195312 L 45.847656 30.769531 C 45.898438 30.800781 45.957031 30.816406 46.011719 30.816406 C 46.121094 30.816406 46.230469 30.757812 46.289062 30.65625 C 46.378906 30.503906 46.328125 30.308594 46.175781 30.214844 L 33.140625 22.464844 L 33.140625 14.917969 L 35.832031 16.601562 C 35.886719 16.636719 35.945312 16.652344 36.003906 16.652344 C 36.109375 16.652344 36.214844 16.597656 36.273438 16.5 C 36.371094 16.351562 36.324219 16.152344 36.171875 16.058594 L 32.992188 14.0625 L 31.628906 13.210938 L 26.226562 9.824219 L 26.226562 5.894531 L 28.214844 5.894531 C 28.394531 5.894531 28.539062 5.75 28.539062 5.574219 C 28.539062 5.394531 28.394531 5.25 28.214844 5.25 L 26.226562 5.25 L 26.226562 3.410156 C 26.226562 3.234375 26.082031 3.089844 25.90625 3.089844 C 25.726562 3.089844 25.582031 3.234375 25.582031 3.410156 L 25.582031 5.25 L 23.59375 5.25 C 23.417969 5.25 23.273438 5.394531 23.273438 5.574219 C 23.273438 5.75 23.417969 5.894531 23.59375 5.894531 L 25.582031 5.894531 L 25.582031 9.867188 L 15.664062 15.988281 C 15.511719 16.082031 15.464844 16.28125 15.558594 16.433594 C 15.652344 16.582031 15.847656 16.628906 16 16.535156 L 18.632812 14.914062 L 18.632812 22.492188 L 5.730469 30.214844 C 5.578125 30.308594 5.527344 30.503906 5.621094 30.65625 C 5.710938 30.8125 5.910156 30.859375 6.0625 30.769531 Z M 25.621094 44.792969 L 22.738281 44.792969 L 22.738281 41.78125 C 22.738281 40.1875 24.03125 38.886719 25.621094 38.875 Z M 29.144531 44.792969 L 26.261719 44.792969 L 26.261719 38.875 C 27.851562 38.886719 29.144531 40.1875 29.144531 41.78125 Z M 33.140625 23.246094 L 42.554688 28.882812 L 42.554688 44.792969 L 35.027344 44.792969 L 35.027344 30.382812 L 37.265625 31.722656 C 37.316406 31.753906 37.375 31.769531 37.429688 31.769531 C 37.539062 31.769531 37.648438 31.710938 37.707031 31.613281 C 37.796875 31.457031 37.75 31.261719 37.597656 31.167969 L 34.871094 29.539062 L 33.140625 28.503906 Z M 19.277344 14.515625 L 25.78125 10.5 L 25.941406 10.40625 L 31.582031 13.941406 L 32.5 14.515625 L 32.5 28.117188 L 26.050781 24.257812 C 25.949219 24.195312 25.824219 24.195312 25.722656 24.257812 L 19.277344 28.117188 Z M 21.976562 27.25 L 25.886719 24.910156 L 29.796875 27.25 L 34.382812 29.996094 L 34.382812 44.792969 L 29.785156 44.792969 L 29.785156 41.78125 C 29.785156 39.824219 28.195312 38.230469 26.242188 38.230469 L 25.640625 38.230469 C 23.6875 38.230469 22.097656 39.824219 22.097656 41.78125 L 22.097656 44.792969 L 17.390625 44.792969 L 17.390625 29.996094 Z M 9.21875 28.882812 L 18.632812 23.246094 L 18.632812 28.503906 L 16.90625 29.539062 L 14.179688 31.167969 C 14.027344 31.261719 13.976562 31.457031 14.066406 31.613281 C 14.160156 31.765625 14.355469 31.8125 14.507812 31.722656 L 16.746094 30.382812 L 16.746094 44.792969 L 9.21875 44.792969 Z M 9.21875 28.882812 " fill-opacity="1" fill-rule="nonzero"/></g><path fill="#000000" d="M 24.234375 30.765625 L 25.582031 30.765625 L 25.582031 33.664062 C 25.582031 33.839844 25.726562 33.984375 25.90625 33.984375 C 26.082031 33.984375 26.226562 33.839844 26.226562 33.664062 L 26.226562 30.765625 L 27.574219 30.765625 C 27.753906 30.765625 27.898438 30.621094 27.898438 30.445312 C 27.898438 30.265625 27.753906 30.121094 27.574219 30.121094 L 26.226562 30.121094 L 26.226562 28.882812 C 26.226562 28.703125 26.082031 28.558594 25.90625 28.558594 C 25.726562 28.558594 25.582031 28.703125 25.582031 28.882812 L 25.582031 30.121094 L 24.234375 30.121094 C 24.058594 30.121094 23.914062 30.265625 23.914062 30.445312 C 23.914062 30.621094 24.058594 30.765625 24.234375 30.765625 Z M 24.234375 30.765625 " fill-opacity="1" fill-rule="nonzero"/><path fill="#000000" d="M 25.898438 21.972656 C 25.992188 21.972656 26.085938 21.953125 26.175781 21.914062 C 26.328125 21.851562 26.476562 21.777344 26.65625 21.675781 C 26.867188 21.5625 27.074219 21.429688 27.265625 21.285156 C 28.484375 20.390625 29.070312 19.375 28.96875 18.339844 C 28.886719 17.511719 28.214844 16.859375 27.410156 16.824219 C 27.042969 16.804688 26.671875 16.933594 26.328125 17.191406 C 26.164062 17.316406 26.015625 17.457031 25.886719 17.605469 C 25.761719 17.457031 25.609375 17.316406 25.449219 17.191406 C 25.105469 16.933594 24.730469 16.804688 24.367188 16.824219 C 23.558594 16.859375 22.890625 17.511719 22.808594 18.339844 C 22.703125 19.375 23.292969 20.390625 24.507812 21.285156 C 24.699219 21.429688 24.90625 21.5625 25.117188 21.675781 C 25.296875 21.777344 25.445312 21.851562 25.597656 21.914062 C 25.691406 21.953125 25.789062 21.972656 25.886719 21.972656 C 25.890625 21.972656 25.894531 21.972656 25.898438 21.972656 Z M 25.425781 21.113281 C 25.242188 21.007812 25.058594 20.894531 24.886719 20.769531 C 24.175781 20.242188 23.347656 19.40625 23.445312 18.40625 C 23.496094 17.902344 23.914062 17.488281 24.394531 17.464844 C 24.40625 17.464844 24.417969 17.464844 24.429688 17.464844 C 24.683594 17.464844 24.914062 17.597656 25.0625 17.707031 C 25.234375 17.835938 25.382812 17.992188 25.5 18.152344 C 25.585938 18.277344 25.734375 18.351562 25.886719 18.351562 C 25.886719 18.351562 25.886719 18.351562 25.890625 18.351562 C 26.042969 18.351562 26.1875 18.277344 26.277344 18.148438 C 26.390625 17.992188 26.539062 17.835938 26.714844 17.707031 C 26.867188 17.589844 27.109375 17.453125 27.378906 17.464844 C 27.859375 17.488281 28.277344 17.902344 28.328125 18.40625 C 28.425781 19.40625 27.597656 20.242188 26.886719 20.769531 C 26.714844 20.894531 26.535156 21.007812 26.34375 21.113281 C 26.1875 21.203125 26.058594 21.265625 25.925781 21.320312 C 25.914062 21.328125 25.902344 21.328125 25.886719 21.328125 C 25.875 21.328125 25.863281 21.328125 25.847656 21.320312 C 25.71875 21.265625 25.589844 21.203125 25.425781 21.113281 Z M 25.425781 21.113281 " fill-opacity="1" fill-rule="nonzero"/></svg>