<svg xmlns="http://www.w3.org/2000/svg" xmlns:xlink="http://www.w3.org/1999/xlink" width="70" zoomAndPan="magnify" viewBox="0 0 52.5 52.499999" height="70" preserveAspectRatio="xMidYMid meet" version="1.0"><defs><clipPath id="423ceab1f3"><path d="M 14 17 L 38 17 L 38 50.144531 L 14 50.144531 Z M 14 17 " clip-rule="nonzero"/></clipPath><clipPath id="521f9e54dc"><path d="M 13.488281 4 L 38.75 4 L 38.75 37 L 13.488281 37 Z M 13.488281 4 " clip-rule="nonzero"/></clipPath><clipPath id="c0ef419d99"><path d="M 25 1.855469 L 27 1.855469 L 27 6 L 25 6 Z M 25 1.855469 " clip-rule="nonzero"/></clipPath></defs><g clip-path="url(#423ceab1f3)"><path fill="#f7f3f0" d="M 29.816406 29.664062 L 29.816406 19.910156 L 30.117188 19.910156 L 30.117188 17.878906 L 21.878906 17.878906 L 21.878906 19.910156 L 22.179688 19.910156 L 22.179688 29.664062 L 14.675781 36.503906 L 14.675781 49.511719 L 22.171875 49.511719 L 22.171875 49.5 L 22.179688 49.5 L 22.179688 49.511719 L 22.171875 49.511719 L 22.171875 50.144531 L 29.824219 50.144531 L 29.824219 49.511719 L 29.816406 49.511719 L 29.816406 49.5 L 29.824219 49.5 L 29.824219 49.511719 L 37.320312 49.511719 L 37.320312 36.503906 Z M 25.730469 45.375 L 25.484375 45.375 L 25.484375 44.632812 L 25.730469 44.632812 Z M 26.660156 45.375 L 26.410156 45.375 L 26.410156 44.632812 L 26.660156 44.632812 Z M 26.660156 45.375 " fill-opacity="1" fill-rule="evenodd"/></g><path fill="#abdbf7" d="M 24.878906 20.921875 L 25.992188 20.488281 L 27.082031 20.871094 L 27.410156 21.757812 L 27.410156 26.425781 L 24.585938 26.425781 L 24.585938 21.742188 Z M 24.585938 32.628906 L 24.585938 37.3125 L 27.410156 37.3125 L 27.410156 32.644531 L 27.082031 31.757812 L 25.992188 31.375 L 24.878906 31.808594 Z M 16.511719 38.183594 L 16.511719 44.914062 L 20.574219 44.914062 L 20.574219 38.207031 L 20.097656 36.929688 L 18.53125 36.378906 L 16.933594 37.003906 Z M 31.421875 38.183594 L 31.421875 44.914062 L 35.484375 44.914062 L 35.484375 38.207031 L 35.007812 36.929688 L 33.445312 36.378906 L 31.84375 37.003906 Z M 31.421875 38.183594 " fill-opacity="1" fill-rule="evenodd"/><path fill="#f7ece1" d="M 24.394531 26.53125 L 27.597656 26.53125 L 27.597656 27.175781 L 24.394531 27.175781 Z M 24.394531 38.0625 L 27.597656 38.0625 L 27.597656 37.421875 L 24.394531 37.421875 Z M 16.238281 45.992188 L 20.84375 45.992188 L 20.84375 45.066406 L 16.238281 45.066406 Z M 31.152344 45.992188 L 35.757812 45.992188 L 35.757812 45.066406 L 31.152344 45.066406 Z M 31.152344 45.992188 " fill-opacity="1" fill-rule="evenodd"/><path fill="#02311f" d="M 23.808594 48.992188 L 23.808594 43.25 C 23.808594 39.894531 28.1875 39.894531 28.1875 43.25 L 28.1875 48.992188 Z M 27.296875 21.851562 L 27.296875 21.910156 L 27.300781 21.910156 L 27.300781 21.898438 C 27.300781 21.882812 27.300781 21.867188 27.296875 21.851562 Z M 26 20.347656 C 25.167969 20.347656 24.496094 21.019531 24.496094 21.847656 L 24.496094 26.539062 L 27.5 26.539062 L 27.5 21.847656 C 27.5 21.019531 26.828125 20.347656 26 20.347656 Z M 25.902344 26.3125 L 24.703125 26.3125 L 24.703125 24.964844 L 25.902344 24.964844 Z M 25.902344 24.863281 L 24.703125 24.863281 L 24.703125 23.554688 L 25.902344 23.554688 Z M 25.902344 23.359375 L 24.703125 23.359375 L 24.703125 22.015625 L 25.902344 22.015625 Z M 25.902344 21.910156 L 24.703125 21.910156 L 24.703125 21.851562 L 24.699219 21.851562 C 24.722656 21.191406 25.242188 20.652344 25.902344 20.601562 Z M 27.296875 26.3125 L 26.09375 26.3125 L 26.09375 24.964844 L 27.296875 24.964844 Z M 27.296875 24.863281 L 26.09375 24.863281 L 26.09375 23.554688 L 27.296875 23.554688 Z M 27.296875 23.359375 L 26.09375 23.359375 L 26.09375 22.015625 L 27.296875 22.015625 Z M 27.300781 21.910156 L 26.09375 21.910156 L 26.09375 20.601562 C 26.753906 20.65625 27.269531 21.191406 27.296875 21.851562 C 27.300781 21.867188 27.300781 21.882812 27.300781 21.898438 Z M 27.300781 32.785156 L 27.300781 32.796875 L 27.296875 32.796875 L 27.296875 32.734375 C 27.296875 32.753906 27.296875 32.769531 27.296875 32.785156 Z M 24.703125 32.738281 L 24.703125 32.796875 L 24.699219 32.796875 L 24.699219 32.785156 C 24.699219 32.769531 24.699219 32.753906 24.699219 32.738281 Z M 26 31.230469 C 25.167969 31.234375 24.5 31.90625 24.496094 32.734375 L 24.496094 37.425781 L 27.5 37.425781 L 27.5 32.734375 C 27.5 31.90625 26.828125 31.234375 26 31.230469 Z M 25.902344 37.199219 L 24.703125 37.199219 L 24.703125 35.855469 L 25.902344 35.855469 Z M 25.902344 35.746094 L 24.703125 35.746094 L 24.703125 34.4375 L 25.902344 34.4375 Z M 25.902344 34.246094 L 24.703125 34.246094 L 24.703125 32.902344 L 25.902344 32.902344 Z M 25.902344 32.796875 L 24.699219 32.796875 L 24.699219 32.785156 C 24.699219 32.769531 24.699219 32.753906 24.699219 32.738281 C 24.722656 32.078125 25.242188 31.539062 25.902344 31.488281 Z M 27.296875 37.195312 L 26.09375 37.199219 L 26.09375 35.855469 L 27.296875 35.855469 Z M 27.296875 35.746094 L 26.09375 35.746094 L 26.09375 34.4375 L 27.296875 34.4375 Z M 27.296875 34.246094 L 26.09375 34.246094 L 26.09375 32.902344 L 27.296875 32.902344 Z M 27.300781 32.796875 L 26.09375 32.796875 L 26.09375 31.488281 C 26.753906 31.539062 27.269531 32.074219 27.296875 32.734375 C 27.300781 32.75 27.300781 32.769531 27.300781 32.785156 Z M 26.09375 31.347656 L 26.09375 31.488281 C 26.0625 31.488281 26.03125 31.484375 26 31.484375 C 25.964844 31.484375 25.933594 31.488281 25.902344 31.488281 L 25.902344 31.347656 Z M 26.09375 31.347656 L 26.09375 31.488281 C 26.0625 31.488281 26.03125 31.484375 26 31.484375 C 25.964844 31.484375 25.933594 31.488281 25.902344 31.488281 L 25.902344 31.347656 Z M 16.683594 38.339844 L 16.683594 38.421875 L 16.671875 38.421875 L 16.671875 38.40625 C 16.671875 38.382812 16.671875 38.359375 16.675781 38.339844 Z M 18.542969 36.171875 C 17.351562 36.175781 16.386719 37.140625 16.382812 38.332031 L 16.382812 45.078125 L 20.703125 45.078125 L 20.703125 38.332031 C 20.699219 37.140625 19.734375 36.175781 18.542969 36.171875 Z M 18.402344 40.785156 L 18.402344 42.664062 L 16.683594 42.664062 L 16.683594 40.785156 Z M 16.683594 40.503906 L 16.683594 38.574219 L 18.402344 38.574219 L 18.402344 40.503906 Z M 16.671875 38.40625 C 16.671875 38.382812 16.671875 38.359375 16.675781 38.339844 C 16.710938 37.390625 17.453125 36.617188 18.402344 36.546875 L 18.402344 38.421875 L 16.671875 38.421875 Z M 16.683594 42.816406 L 18.402344 42.816406 L 18.402344 44.75 L 16.683594 44.75 Z M 20.410156 44.746094 L 18.679688 44.75 L 18.679688 42.816406 L 20.410156 42.816406 Z M 20.410156 42.664062 L 18.679688 42.664062 L 18.679688 40.785156 L 20.410156 40.785156 Z M 20.410156 40.503906 L 18.679688 40.503906 L 18.679688 38.574219 L 20.410156 38.574219 Z M 20.410156 38.421875 L 18.679688 38.421875 L 18.679688 36.546875 C 19.65625 36.621094 20.40625 37.429688 20.410156 38.40625 Z M 33.453125 36.171875 C 32.261719 36.175781 31.296875 37.140625 31.292969 38.332031 L 31.292969 45.078125 L 35.613281 45.078125 L 35.613281 38.332031 C 35.609375 37.140625 34.644531 36.175781 33.453125 36.171875 Z M 33.3125 44.75 L 31.59375 44.75 L 31.59375 42.816406 L 33.3125 42.816406 Z M 33.3125 42.664062 L 31.59375 42.664062 L 31.59375 40.785156 L 33.3125 40.785156 Z M 33.3125 40.503906 L 31.59375 40.503906 L 31.59375 38.574219 L 33.3125 38.574219 Z M 33.3125 38.421875 L 31.59375 38.421875 L 31.59375 38.339844 L 31.585938 38.339844 C 31.625 37.390625 32.367188 36.617188 33.3125 36.546875 Z M 35.324219 44.746094 L 33.59375 44.75 L 33.59375 42.816406 L 35.324219 42.816406 Z M 35.324219 42.664062 L 33.59375 42.664062 L 33.59375 40.785156 L 35.324219 40.785156 Z M 35.324219 40.503906 L 33.59375 40.503906 L 33.59375 38.574219 L 35.324219 38.574219 Z M 35.324219 38.421875 L 33.59375 38.421875 L 33.59375 36.546875 C 34.566406 36.621094 35.320312 37.429688 35.324219 38.40625 Z M 35.324219 38.421875 " fill-opacity="1" fill-rule="nonzero"/><g clip-path="url(#521f9e54dc)"><path fill="#000000" d="M 38.507812 36.503906 L 37.320312 36.503906 L 29.640625 29.503906 L 22.355469 29.503906 L 14.675781 36.503906 L 13.488281 36.503906 L 21.6875 29.089844 L 21.679688 29.089844 L 22.179688 27.960938 L 29.816406 27.960938 L 30.316406 29.089844 L 30.304688 29.089844 Z M 28.835938 18 L 25.996094 4.214844 L 23.160156 18 Z M 28.835938 18 " fill-opacity="1" fill-rule="evenodd"/></g><path fill="#f7ece1" d="M 25.730469 45.375 L 25.484375 45.375 L 25.484375 44.632812 L 25.730469 44.632812 Z M 26.660156 44.632812 L 26.414062 44.632812 L 26.414062 45.375 L 26.660156 45.375 Z M 26.660156 44.632812 " fill-opacity="1" fill-rule="evenodd"/><path fill="#f7ece1" d="M 22.179688 18.089844 L 23.453125 18.089844 L 23.453125 49.511719 L 22.179688 49.511719 Z M 28.542969 18.089844 L 29.816406 18.089844 L 29.816406 49.511719 L 28.542969 49.511719 Z M 28.542969 18.089844 " fill-opacity="1" fill-rule="evenodd"/><path fill="#f7ece1" d="M 21.878906 17.875 L 30.117188 17.875 L 30.117188 19.910156 L 21.878906 19.910156 Z M 21.878906 17.875 " fill-opacity="1" fill-rule="nonzero"/><g clip-path="url(#c0ef419d99)"><path fill="#f7ece1" d="M 25.828125 1.855469 L 26.167969 1.855469 L 26.167969 5.054688 L 25.828125 5.054688 Z M 25.828125 1.855469 " fill-opacity="1" fill-rule="nonzero"/></g><path fill="#f7ece1" d="M 24.679688 2.601562 L 27.320312 2.601562 L 27.320312 2.941406 L 24.679688 2.941406 Z M 24.679688 2.601562 " fill-opacity="1" fill-rule="nonzero"/></svg>