<svg xmlns="http://www.w3.org/2000/svg" xmlns:xlink="http://www.w3.org/1999/xlink" width="70" zoomAndPan="magnify" viewBox="0 0 52.5 52.499999" height="70" preserveAspectRatio="xMidYMid meet" version="1.0"><defs><clipPath id="6707772e15"><path d="M 6.46875 10 L 45.84375 10 L 45.84375 42 L 6.46875 42 Z M 6.46875 10 " clip-rule="nonzero"/></clipPath><clipPath id="c003f37f20"><path d="M 33 42 L 35 42 L 35 45.222656 L 33 45.222656 Z M 33 42 " clip-rule="nonzero"/></clipPath><clipPath id="6cfbd95e79"><path d="M 16 6.589844 L 18 6.589844 L 18 10 L 16 10 Z M 16 6.589844 " clip-rule="nonzero"/></clipPath></defs><path fill="#000000" d="M 33.871094 27.167969 C 33.21875 25.085938 31.058594 23.84375 28.902344 24.3125 C 28.183594 24.46875 27.523438 24.800781 26.980469 25.285156 L 26.066406 26.089844 C 25.867188 26.265625 25.585938 26.3125 25.339844 26.214844 L 24.203125 25.765625 C 23.523438 25.496094 22.785156 25.40625 22.058594 25.5 C 19.871094 25.789062 18.269531 27.6875 18.378906 29.863281 C 18.457031 31.410156 19.148438 32.863281 20.3125 33.894531 C 22.601562 35.925781 24.945312 37.601562 27.355469 38.84375 C 27.753906 39.050781 28.246094 38.964844 28.546875 38.636719 C 30.382812 36.652344 32.003906 34.289062 33.449219 31.609375 C 34.183594 30.246094 34.332031 28.644531 33.871094 27.167969 Z M 25.050781 35.234375 C 25 35.335938 24.898438 35.390625 24.796875 35.390625 C 24.753906 35.390625 24.710938 35.382812 24.671875 35.363281 C 24.53125 35.296875 24.472656 35.128906 24.542969 34.992188 L 28.917969 26.125 C 28.988281 25.984375 29.15625 25.925781 29.296875 25.996094 C 29.4375 26.0625 29.496094 26.230469 29.425781 26.367188 Z M 31.855469 27.878906 L 28.929688 33.804688 C 28.882812 33.902344 28.78125 33.960938 28.675781 33.960938 C 28.636719 33.960938 28.59375 33.953125 28.554688 33.933594 C 28.414062 33.867188 28.355469 33.699219 28.425781 33.5625 L 31.347656 27.636719 C 31.417969 27.496094 31.585938 27.441406 31.726562 27.507812 C 31.867188 27.574219 31.925781 27.742188 31.855469 27.878906 Z M 31.855469 27.878906 " fill-opacity="1" fill-rule="nonzero"/><path fill="#000000" d="M 26.347656 13.136719 L 20.589844 14.140625 C 20.480469 14.160156 20.421875 14.289062 20.464844 14.410156 L 21.238281 16.683594 C 21.269531 16.777344 21.355469 16.835938 21.4375 16.824219 L 26.480469 15.945312 C 26.5625 15.929688 26.621094 15.847656 26.617188 15.746094 L 26.558594 13.351562 C 26.554688 13.222656 26.453125 13.117188 26.347656 13.136719 Z M 26.347656 13.136719 " fill-opacity="1" fill-rule="nonzero"/><g clip-path="url(#6707772e15)"><path fill="#000000" d="M 45.757812 33.527344 L 42.894531 17.511719 C 42.714844 16.507812 41.742188 15.835938 40.726562 16.011719 L 19.949219 19.628906 L 17.65625 13.847656 C 17.542969 13.558594 17.5625 13.238281 17.71875 12.96875 C 17.871094 12.699219 18.136719 12.515625 18.445312 12.460938 L 27.777344 10.835938 C 28.117188 10.777344 28.429688 10.851562 28.65625 11.046875 C 28.886719 11.242188 29.007812 11.535156 29 11.875 L 28.882812 16.734375 C 28.878906 16.890625 29 17.015625 29.15625 17.019531 C 29.160156 17.019531 29.160156 17.019531 29.164062 17.019531 C 29.316406 17.019531 29.441406 16.902344 29.445312 16.75 L 29.566406 11.886719 C 29.578125 11.375 29.386719 10.925781 29.027344 10.621094 C 28.667969 10.316406 28.1875 10.199219 27.679688 10.285156 L 18.347656 11.914062 C 17.871094 11.996094 17.464844 12.28125 17.226562 12.695312 C 16.988281 13.113281 16.953125 13.605469 17.128906 14.050781 L 19.382812 19.726562 L 15.125 20.46875 L 14.957031 19.535156 C 14.824219 18.777344 14.089844 18.273438 13.324219 18.40625 L 10.136719 18.960938 C 9.371094 19.09375 8.859375 19.816406 8.992188 20.574219 L 9.160156 21.507812 L 8.070312 21.695312 C 7.578125 21.78125 7.148438 22.050781 6.863281 22.457031 C 6.574219 22.859375 6.464844 23.351562 6.550781 23.835938 L 9.414062 39.855469 C 9.574219 40.75 10.363281 41.382812 11.257812 41.382812 C 11.363281 41.382812 11.472656 41.371094 11.582031 41.355469 L 18.613281 40.128906 C 18.765625 40.101562 18.871094 39.957031 18.84375 39.808594 C 18.816406 39.65625 18.667969 39.554688 18.515625 39.582031 L 11.484375 40.804688 C 10.773438 40.929688 10.09375 40.460938 9.96875 39.757812 L 7.914062 28.242188 L 13.785156 27.222656 C 13.9375 27.195312 14.039062 27.050781 14.011719 26.898438 C 13.984375 26.75 13.839844 26.648438 13.6875 26.671875 L 7.816406 27.695312 L 7.109375 23.742188 C 7.046875 23.402344 7.125 23.058594 7.324219 22.777344 C 7.527344 22.492188 7.824219 22.304688 8.167969 22.246094 L 40.828125 16.5625 C 41.535156 16.4375 42.214844 16.90625 42.339844 17.609375 L 43.046875 21.5625 L 37.152344 22.589844 C 37 22.617188 36.898438 22.761719 36.921875 22.910156 C 36.949219 23.046875 37.066406 23.140625 37.199219 23.140625 C 37.214844 23.140625 37.234375 23.140625 37.25 23.136719 L 43.144531 22.109375 L 45.203125 33.625 C 45.261719 33.964844 45.1875 34.304688 44.984375 34.589844 C 44.785156 34.871094 44.484375 35.058594 44.140625 35.121094 L 35.195312 36.675781 C 36.464844 34.886719 37.128906 32.753906 37.089844 30.527344 C 36.992188 24.832031 32.265625 20.261719 26.519531 20.261719 C 26.457031 20.261719 26.398438 20.265625 26.335938 20.265625 C 23.511719 20.3125 20.875 21.445312 18.910156 23.449219 C 16.949219 25.457031 15.894531 28.097656 15.941406 30.886719 C 16.042969 36.582031 20.765625 41.148438 26.515625 41.148438 C 26.574219 41.148438 26.636719 41.148438 26.699219 41.148438 C 29.523438 41.097656 32.160156 39.96875 34.121094 37.960938 C 34.324219 37.757812 34.511719 37.546875 34.691406 37.328125 L 44.238281 35.667969 C 44.730469 35.582031 45.160156 35.3125 45.445312 34.90625 C 45.734375 34.503906 45.84375 34.015625 45.757812 33.527344 Z M 9.714844 21.410156 L 9.550781 20.476562 C 9.46875 20.023438 9.777344 19.589844 10.234375 19.507812 L 13.421875 18.953125 C 13.882812 18.875 14.324219 19.179688 14.402344 19.632812 L 14.570312 20.566406 Z M 33.714844 37.578125 C 31.859375 39.476562 29.363281 40.546875 26.6875 40.589844 C 26.628906 40.59375 26.570312 40.59375 26.515625 40.59375 C 21.074219 40.59375 16.601562 36.269531 16.507812 30.875 C 16.460938 28.238281 17.457031 25.738281 19.316406 23.839844 C 21.175781 21.9375 23.671875 20.867188 26.34375 20.824219 C 26.402344 20.820312 26.460938 20.820312 26.519531 20.820312 C 31.960938 20.820312 36.433594 25.144531 36.527344 30.539062 C 36.574219 33.179688 35.574219 35.675781 33.714844 37.578125 Z M 33.714844 37.578125 " fill-opacity="1" fill-rule="nonzero"/></g><path fill="#000000" d="M 41 40.511719 L 39.074219 39.683594 C 38.933594 39.621094 38.765625 39.683594 38.703125 39.824219 C 38.640625 39.964844 38.707031 40.128906 38.847656 40.191406 L 40.773438 41.023438 C 40.808594 41.039062 40.847656 41.046875 40.886719 41.046875 C 40.996094 41.046875 41.097656 40.984375 41.144531 40.878906 C 41.207031 40.738281 41.140625 40.574219 41 40.511719 Z M 41 40.511719 " fill-opacity="1" fill-rule="nonzero"/><g clip-path="url(#c003f37f20)"><path fill="#000000" d="M 33.964844 42.847656 C 33.929688 42.699219 33.777344 42.605469 33.625 42.644531 C 33.472656 42.679688 33.378906 42.832031 33.417969 42.980469 L 33.921875 44.992188 C 33.953125 45.121094 34.070312 45.203125 34.195312 45.203125 C 34.21875 45.203125 34.242188 45.203125 34.261719 45.195312 C 34.414062 45.160156 34.507812 45.007812 34.46875 44.859375 Z M 33.964844 42.847656 " fill-opacity="1" fill-rule="nonzero"/></g><path fill="#000000" d="M 9.929688 11.921875 L 11.921875 12.582031 C 11.949219 12.589844 11.980469 12.59375 12.011719 12.59375 C 12.128906 12.59375 12.238281 12.519531 12.277344 12.402344 C 12.328125 12.257812 12.246094 12.101562 12.101562 12.050781 L 10.109375 11.394531 C 9.960938 11.347656 9.800781 11.425781 9.75 11.570312 C 9.703125 11.71875 9.78125 11.875 9.929688 11.921875 Z M 9.929688 11.921875 " fill-opacity="1" fill-rule="nonzero"/><g clip-path="url(#6cfbd95e79)"><path fill="#000000" d="M 16.722656 8.972656 C 16.761719 9.089844 16.871094 9.160156 16.988281 9.160156 C 17.019531 9.160156 17.050781 9.15625 17.082031 9.144531 C 17.226562 9.097656 17.304688 8.9375 17.253906 8.792969 L 16.570312 6.832031 C 16.519531 6.6875 16.359375 6.609375 16.210938 6.660156 C 16.0625 6.710938 15.984375 6.871094 16.035156 7.015625 Z M 16.722656 8.972656 " fill-opacity="1" fill-rule="nonzero"/></g></svg>