<svg xmlns="http://www.w3.org/2000/svg" xmlns:xlink="http://www.w3.org/1999/xlink" width="70" zoomAndPan="magnify" viewBox="0 0 52.5 52.499999" height="70" preserveAspectRatio="xMidYMid meet" version="1.0"><defs><clipPath id="6d77eb8841"><path d="M 14 48 L 16 48 L 16 49.011719 L 14 49.011719 Z M 14 48 " clip-rule="nonzero"/></clipPath><clipPath id="900f751b3f"><path d="M 25 2.949219 L 27 2.949219 L 27 13 L 25 13 Z M 25 2.949219 " clip-rule="nonzero"/></clipPath><clipPath id="5a7a91c317"><path d="M 2.144531 18 L 5 18 L 5 22 L 2.144531 22 Z M 2.144531 18 " clip-rule="nonzero"/></clipPath><clipPath id="83cb2a0667"><path d="M 2.144531 20 L 5 20 L 5 24 L 2.144531 24 Z M 2.144531 20 " clip-rule="nonzero"/></clipPath><clipPath id="852d76e9cb"><path d="M 47 36 L 49.691406 36 L 49.691406 38 L 47 38 Z M 47 36 " clip-rule="nonzero"/></clipPath></defs><path fill="#000000" d="M 7.074219 8.890625 C 6.867188 8.890625 6.699219 8.726562 6.699219 8.519531 C 6.699219 8.316406 6.859375 8.148438 7.066406 8.148438 L 7.074219 8.148438 C 7.277344 8.148438 7.445312 8.316406 7.445312 8.519531 C 7.445312 8.726562 7.277344 8.890625 7.074219 8.890625 Z M 7.074219 8.890625 " fill-opacity="1" fill-rule="nonzero"/><path fill="#000000" d="M 41.898438 40.835938 C 41.691406 40.835938 41.523438 40.671875 41.523438 40.464844 C 41.523438 40.261719 41.6875 40.09375 41.890625 40.09375 L 41.898438 40.09375 C 42.101562 40.09375 42.269531 40.261719 42.269531 40.464844 C 42.269531 40.671875 42.101562 40.835938 41.898438 40.835938 Z M 41.898438 40.835938 " fill-opacity="1" fill-rule="nonzero"/><g clip-path="url(#6d77eb8841)"><path fill="#000000" d="M 15.222656 49.011719 C 15.019531 49.011719 14.847656 48.84375 14.847656 48.636719 C 14.847656 48.433594 15.011719 48.265625 15.214844 48.265625 L 15.222656 48.265625 C 15.425781 48.265625 15.59375 48.433594 15.59375 48.636719 C 15.59375 48.84375 15.425781 49.011719 15.222656 49.011719 Z M 15.222656 49.011719 " fill-opacity="1" fill-rule="nonzero"/></g><path fill="#000000" d="M 7.074219 37.867188 C 6.867188 37.867188 6.699219 37.699219 6.699219 37.496094 C 6.699219 37.289062 6.859375 37.125 7.066406 37.125 L 7.074219 37.125 C 7.277344 37.125 7.445312 37.289062 7.445312 37.496094 C 7.445312 37.699219 7.277344 37.867188 7.074219 37.867188 Z M 7.074219 37.867188 " fill-opacity="1" fill-rule="nonzero"/><path fill="#000000" d="M 47.824219 14.128906 C 47.621094 14.128906 47.453125 13.960938 47.453125 13.757812 C 47.453125 13.550781 47.613281 13.382812 47.816406 13.382812 L 47.824219 13.382812 C 48.03125 13.382812 48.195312 13.550781 48.195312 13.757812 C 48.195312 13.960938 48.03125 14.128906 47.824219 14.128906 Z M 47.824219 14.128906 " fill-opacity="1" fill-rule="nonzero"/><path fill="#000000" d="M 25.945312 46.039062 C 16.957031 46.039062 9.644531 38.707031 9.644531 29.695312 C 9.644531 20.683594 16.957031 13.351562 25.945312 13.351562 C 30.417969 13.351562 34.589844 15.128906 37.691406 18.363281 C 37.835938 18.511719 37.828125 18.746094 37.683594 18.886719 C 37.535156 19.03125 37.300781 19.027344 37.160156 18.878906 C 34.199219 15.792969 30.214844 14.09375 25.945312 14.09375 C 17.367188 14.09375 10.386719 21.089844 10.386719 29.695312 C 10.386719 38.296875 17.367188 45.296875 25.945312 45.296875 C 34.523438 45.296875 41.503906 38.296875 41.503906 29.695312 C 41.503906 27.550781 41.078125 25.472656 40.238281 23.523438 C 40.160156 23.335938 40.246094 23.117188 40.433594 23.035156 C 40.621094 22.953125 40.839844 23.042969 40.921875 23.230469 C 41.800781 25.273438 42.246094 27.449219 42.246094 29.695312 C 42.246094 38.707031 34.933594 46.039062 25.945312 46.039062 Z M 25.945312 46.039062 " fill-opacity="1" fill-rule="nonzero"/><path fill="#000000" d="M 29.71875 44.242188 C 29.695312 44.242188 29.671875 44.242188 29.644531 44.234375 C 29.445312 44.195312 29.316406 44 29.355469 43.796875 C 29.371094 43.722656 30.832031 36.339844 30.832031 29.695312 C 30.832031 23.042969 29.371094 15.664062 29.355469 15.589844 C 29.316406 15.386719 29.445312 15.191406 29.644531 15.152344 C 29.84375 15.113281 30.042969 15.242188 30.082031 15.445312 C 30.097656 15.519531 31.570312 22.96875 31.570312 29.695312 C 31.570312 36.417969 30.097656 43.871094 30.082031 43.945312 C 30.046875 44.121094 29.894531 44.242188 29.71875 44.242188 Z M 29.71875 44.242188 " fill-opacity="1" fill-rule="nonzero"/><path fill="#000000" d="M 33.425781 42.757812 C 33.382812 42.757812 33.339844 42.75 33.300781 42.734375 C 33.109375 42.667969 33.007812 42.453125 33.074219 42.261719 C 33.097656 42.199219 35.277344 35.941406 35.277344 29.695312 C 35.277344 23.445312 33.097656 17.1875 33.074219 17.125 C 33.007812 16.933594 33.109375 16.722656 33.300781 16.652344 C 33.492188 16.582031 33.703125 16.683594 33.773438 16.878906 C 33.796875 16.941406 36.015625 23.3125 36.015625 29.695312 C 36.015625 36.074219 33.796875 42.445312 33.773438 42.507812 C 33.71875 42.660156 33.578125 42.757812 33.425781 42.757812 Z M 33.425781 42.757812 " fill-opacity="1" fill-rule="nonzero"/><path fill="#000000" d="M 37.128906 39.800781 C 37.078125 39.800781 37.023438 39.789062 36.972656 39.765625 C 36.789062 39.679688 36.707031 39.460938 36.792969 39.273438 C 36.8125 39.226562 38.980469 34.453125 38.980469 29.695312 C 38.980469 28.238281 38.78125 26.644531 38.386719 24.953125 C 38.339844 24.75 38.460938 24.550781 38.660156 24.503906 C 38.867188 24.457031 39.058594 24.582031 39.109375 24.78125 C 39.515625 26.53125 39.722656 28.183594 39.722656 29.695312 C 39.722656 34.621094 37.558594 39.382812 37.464844 39.585938 C 37.402344 39.71875 37.269531 39.800781 37.128906 39.800781 Z M 37.128906 39.800781 " fill-opacity="1" fill-rule="nonzero"/><path fill="#000000" d="M 20.933594 26.722656 C 20.925781 26.722656 20.917969 26.722656 20.910156 26.722656 C 20.707031 26.710938 20.550781 26.53125 20.5625 26.328125 C 20.902344 20.714844 21.9375 15.496094 21.945312 15.445312 C 21.988281 15.242188 22.1875 15.113281 22.382812 15.152344 C 22.582031 15.191406 22.714844 15.386719 22.671875 15.589844 C 22.664062 15.640625 21.636719 20.8125 21.304688 26.375 C 21.292969 26.570312 21.128906 26.722656 20.933594 26.722656 Z M 20.933594 26.722656 " fill-opacity="1" fill-rule="nonzero"/><path fill="#000000" d="M 22.308594 44.242188 C 22.136719 44.242188 21.980469 44.121094 21.945312 43.945312 C 21.9375 43.890625 20.902344 38.671875 20.5625 33.058594 C 20.550781 32.855469 20.707031 32.679688 20.910156 32.667969 C 21.136719 32.648438 21.292969 32.808594 21.304688 33.015625 C 21.640625 38.578125 22.664062 43.746094 22.671875 43.796875 C 22.714844 44 22.582031 44.195312 22.382812 44.234375 C 22.359375 44.242188 22.332031 44.242188 22.308594 44.242188 Z M 22.308594 44.242188 " fill-opacity="1" fill-rule="nonzero"/><path fill="#000000" d="M 18.605469 42.757812 C 18.453125 42.757812 18.308594 42.660156 18.253906 42.507812 C 18.234375 42.445312 16.011719 36.074219 16.011719 29.695312 C 16.011719 23.316406 18.234375 16.941406 18.253906 16.878906 C 18.324219 16.6875 18.535156 16.585938 18.730469 16.652344 C 18.921875 16.722656 19.023438 16.933594 18.953125 17.125 C 18.933594 17.1875 16.753906 23.445312 16.753906 29.695312 C 16.753906 35.941406 18.933594 42.199219 18.953125 42.261719 C 19.023438 42.453125 18.921875 42.667969 18.730469 42.734375 C 18.6875 42.75 18.644531 42.757812 18.605469 42.757812 Z M 18.605469 42.757812 " fill-opacity="1" fill-rule="nonzero"/><path fill="#000000" d="M 14.898438 39.800781 C 14.761719 39.800781 14.625 39.71875 14.5625 39.585938 C 14.472656 39.382812 12.308594 34.621094 12.308594 29.695312 C 12.308594 24.769531 14.472656 20.003906 14.5625 19.804688 C 14.648438 19.617188 14.871094 19.535156 15.054688 19.621094 C 15.242188 19.707031 15.320312 19.929688 15.238281 20.113281 C 15.214844 20.164062 13.046875 24.933594 13.046875 29.695312 C 13.046875 34.453125 15.214844 39.226562 15.238281 39.273438 C 15.320312 39.460938 15.242188 39.679688 15.054688 39.765625 C 15.003906 39.789062 14.953125 39.800781 14.898438 39.800781 Z M 14.898438 39.800781 " fill-opacity="1" fill-rule="nonzero"/><path fill="#000000" d="M 18.164062 30.066406 L 11.132812 30.066406 C 10.929688 30.066406 10.761719 29.898438 10.761719 29.695312 C 10.761719 29.488281 10.929688 29.324219 11.132812 29.324219 L 18.164062 29.324219 C 18.371094 29.324219 18.535156 29.488281 18.535156 29.695312 C 18.535156 29.898438 18.371094 30.066406 18.164062 30.066406 Z M 18.164062 30.066406 " fill-opacity="1" fill-rule="nonzero"/><path fill="#000000" d="M 40.894531 30.066406 L 23.351562 30.066406 C 23.148438 30.066406 22.980469 29.898438 22.980469 29.695312 C 22.980469 29.488281 23.148438 29.324219 23.351562 29.324219 L 40.894531 29.324219 C 41.097656 29.324219 41.265625 29.488281 41.265625 29.695312 C 41.265625 29.898438 41.097656 30.066406 40.894531 30.066406 Z M 40.894531 30.066406 " fill-opacity="1" fill-rule="nonzero"/><path fill="#000000" d="M 25.953125 35.203125 C 19.246094 35.203125 11.816406 33.726562 11.738281 33.710938 C 11.539062 33.671875 11.410156 33.476562 11.449219 33.273438 C 11.492188 33.070312 11.691406 32.941406 11.886719 32.984375 C 11.960938 32.996094 19.324219 34.460938 25.953125 34.460938 C 32.585938 34.460938 39.945312 32.996094 40.019531 32.984375 C 40.21875 32.941406 40.414062 33.074219 40.457031 33.273438 C 40.496094 33.476562 40.367188 33.671875 40.164062 33.710938 C 40.089844 33.726562 32.660156 35.203125 25.953125 35.203125 Z M 25.953125 35.203125 " fill-opacity="1" fill-rule="nonzero"/><path fill="#000000" d="M 25.953125 39.660156 C 19.589844 39.660156 13.234375 37.433594 13.171875 37.410156 C 12.980469 37.34375 12.878906 37.132812 12.945312 36.9375 C 13.015625 36.742188 13.226562 36.644531 13.417969 36.710938 C 13.480469 36.734375 19.71875 38.917969 25.953125 38.917969 C 32.183594 38.917969 38.425781 36.734375 38.488281 36.710938 C 38.679688 36.644531 38.890625 36.742188 38.960938 36.9375 C 39.027344 37.132812 38.925781 37.34375 38.734375 37.410156 C 38.671875 37.433594 32.316406 39.660156 25.953125 39.660156 Z M 25.953125 39.660156 " fill-opacity="1" fill-rule="nonzero"/><path fill="#000000" d="M 25.953125 43.375 C 21.039062 43.375 16.289062 41.207031 16.089844 41.113281 C 15.902344 41.027344 15.820312 40.804688 15.90625 40.621094 C 15.992188 40.433594 16.214844 40.355469 16.398438 40.4375 C 16.445312 40.460938 21.207031 42.632812 25.953125 42.632812 C 30.699219 42.632812 35.460938 40.460938 35.507812 40.4375 C 35.691406 40.355469 35.914062 40.433594 36 40.621094 C 36.082031 40.808594 36.003906 41.027344 35.816406 41.113281 C 35.617188 41.207031 30.867188 43.375 25.953125 43.375 Z M 25.953125 43.375 " fill-opacity="1" fill-rule="nonzero"/><path fill="#000000" d="M 11.8125 26.289062 C 11.640625 26.289062 11.484375 26.167969 11.449219 25.992188 C 11.410156 25.789062 11.539062 25.59375 11.738281 25.554688 C 11.816406 25.539062 19.246094 24.058594 25.953125 24.058594 C 32.660156 24.058594 40.089844 25.539062 40.164062 25.554688 C 40.367188 25.59375 40.496094 25.789062 40.457031 25.992188 C 40.414062 26.191406 40.21875 26.320312 40.019531 26.28125 C 39.945312 26.265625 32.582031 24.804688 25.953125 24.804688 C 19.320312 24.804688 11.960938 26.265625 11.886719 26.28125 C 11.863281 26.285156 11.835938 26.289062 11.8125 26.289062 Z M 11.8125 26.289062 " fill-opacity="1" fill-rule="nonzero"/><path fill="#000000" d="M 13.296875 22.574219 C 13.140625 22.574219 13 22.480469 12.945312 22.328125 C 12.878906 22.132812 12.980469 21.921875 13.171875 21.851562 C 13.234375 21.832031 19.589844 19.601562 25.953125 19.601562 C 29.796875 19.601562 33.601562 20.398438 36.117188 21.066406 C 36.316406 21.121094 36.433594 21.324219 36.378906 21.523438 C 36.328125 21.71875 36.128906 21.839844 35.925781 21.785156 C 33.453125 21.128906 29.71875 20.347656 25.953125 20.347656 C 19.71875 20.347656 13.480469 22.53125 13.417969 22.554688 C 13.378906 22.566406 13.335938 22.574219 13.296875 22.574219 Z M 13.296875 22.574219 " fill-opacity="1" fill-rule="nonzero"/><path fill="#000000" d="M 16.242188 18.859375 C 16.105469 18.859375 15.96875 18.78125 15.90625 18.644531 C 15.820312 18.457031 15.902344 18.238281 16.089844 18.152344 C 16.289062 18.058594 21.039062 15.886719 25.953125 15.886719 C 30.867188 15.886719 35.617188 18.058594 35.816406 18.152344 C 36.003906 18.238281 36.082031 18.457031 36 18.644531 C 35.914062 18.832031 35.691406 18.910156 35.507812 18.824219 C 35.460938 18.804688 30.699219 16.632812 25.953125 16.632812 C 21.207031 16.632812 16.445312 18.804688 16.398438 18.824219 C 16.347656 18.847656 16.296875 18.859375 16.242188 18.859375 Z M 16.242188 18.859375 " fill-opacity="1" fill-rule="nonzero"/><path fill="#000000" d="M 25.953125 44.925781 C 25.746094 44.925781 25.582031 44.757812 25.582031 44.550781 L 25.582031 14.710938 C 25.582031 14.507812 25.746094 14.339844 25.953125 14.339844 C 26.15625 14.339844 26.324219 14.507812 26.324219 14.710938 L 26.324219 44.550781 C 26.324219 44.757812 26.15625 44.925781 25.953125 44.925781 Z M 25.953125 44.925781 " fill-opacity="1" fill-rule="nonzero"/><g clip-path="url(#900f751b3f)"><path fill="#000000" d="M 25.945312 12.605469 C 25.738281 12.605469 25.574219 12.441406 25.574219 12.234375 L 25.574219 3.320312 C 25.574219 3.113281 25.738281 2.949219 25.945312 2.949219 C 26.148438 2.949219 26.316406 3.113281 26.316406 3.320312 L 26.316406 12.234375 C 26.316406 12.441406 26.148438 12.605469 25.945312 12.605469 Z M 25.945312 12.605469 " fill-opacity="1" fill-rule="nonzero"/></g><path fill="#000000" d="M 4.085938 23.75 C 3.882812 23.75 3.714844 23.585938 3.714844 23.378906 C 3.714844 21.652344 5.339844 20.847656 5.40625 20.816406 C 5.59375 20.726562 5.8125 20.804688 5.902344 20.988281 C 5.992188 21.171875 5.914062 21.394531 5.730469 21.484375 C 5.679688 21.511719 4.457031 22.125 4.457031 23.378906 C 4.457031 23.585938 4.292969 23.75 4.085938 23.75 Z M 4.085938 23.75 " fill-opacity="1" fill-rule="nonzero"/><path fill="#000000" d="M 5.570312 21.523438 C 5.515625 21.523438 5.460938 21.511719 5.40625 21.484375 C 5.339844 21.453125 3.714844 20.648438 3.714844 18.921875 C 3.714844 18.714844 3.882812 18.550781 4.085938 18.550781 C 4.292969 18.550781 4.457031 18.714844 4.457031 18.921875 C 4.457031 20.183594 5.71875 20.808594 5.730469 20.816406 C 5.914062 20.90625 5.992188 21.128906 5.902344 21.3125 C 5.839844 21.445312 5.707031 21.523438 5.570312 21.523438 Z M 5.570312 21.523438 " fill-opacity="1" fill-rule="nonzero"/><g clip-path="url(#5a7a91c317)"><path fill="#000000" d="M 2.605469 21.523438 C 2.46875 21.523438 2.335938 21.445312 2.273438 21.3125 C 2.183594 21.128906 2.257812 20.90625 2.441406 20.816406 C 2.496094 20.789062 3.714844 20.175781 3.714844 18.921875 C 3.714844 18.714844 3.882812 18.550781 4.085938 18.550781 C 4.292969 18.550781 4.457031 18.714844 4.457031 18.921875 C 4.457031 20.648438 2.835938 21.453125 2.765625 21.484375 C 2.714844 21.511719 2.660156 21.523438 2.605469 21.523438 Z M 2.605469 21.523438 " fill-opacity="1" fill-rule="nonzero"/></g><g clip-path="url(#83cb2a0667)"><path fill="#000000" d="M 4.085938 23.75 C 3.882812 23.75 3.714844 23.585938 3.714844 23.378906 C 3.714844 22.117188 2.457031 21.492188 2.445312 21.484375 C 2.261719 21.394531 2.183594 21.171875 2.269531 20.988281 C 2.359375 20.804688 2.582031 20.726562 2.765625 20.816406 C 2.835938 20.847656 4.457031 21.652344 4.457031 23.378906 C 4.457031 23.585938 4.292969 23.75 4.085938 23.75 Z M 4.085938 23.75 " fill-opacity="1" fill-rule="nonzero"/></g><path fill="#000000" d="M 38.910156 23.75 C 38.707031 23.75 38.539062 23.585938 38.539062 23.378906 C 38.539062 21.652344 40.164062 20.847656 40.234375 20.816406 C 40.417969 20.726562 40.636719 20.804688 40.726562 20.988281 C 40.816406 21.171875 40.738281 21.394531 40.554688 21.484375 C 40.503906 21.511719 39.28125 22.125 39.28125 23.378906 C 39.28125 23.585938 39.117188 23.75 38.910156 23.75 Z M 38.910156 23.75 " fill-opacity="1" fill-rule="nonzero"/><path fill="#000000" d="M 40.394531 21.523438 C 40.339844 21.523438 40.285156 21.511719 40.234375 21.484375 C 40.164062 21.453125 38.539062 20.648438 38.539062 18.921875 C 38.539062 18.714844 38.707031 18.550781 38.910156 18.550781 C 39.117188 18.550781 39.28125 18.714844 39.28125 18.921875 C 39.28125 20.183594 40.542969 20.808594 40.554688 20.816406 C 40.738281 20.90625 40.816406 21.128906 40.726562 21.3125 C 40.664062 21.445312 40.53125 21.523438 40.394531 21.523438 Z M 40.394531 21.523438 " fill-opacity="1" fill-rule="nonzero"/><path fill="#000000" d="M 37.429688 21.523438 C 37.292969 21.523438 37.160156 21.445312 37.097656 21.3125 C 37.007812 21.128906 37.085938 20.90625 37.265625 20.816406 C 37.320312 20.789062 38.539062 20.175781 38.539062 18.921875 C 38.539062 18.714844 38.707031 18.550781 38.910156 18.550781 C 39.117188 18.550781 39.28125 18.714844 39.28125 18.921875 C 39.28125 20.648438 37.660156 21.453125 37.589844 21.484375 C 37.539062 21.511719 37.484375 21.523438 37.429688 21.523438 Z M 37.429688 21.523438 " fill-opacity="1" fill-rule="nonzero"/><path fill="#000000" d="M 38.910156 23.75 C 38.707031 23.75 38.539062 23.585938 38.539062 23.378906 C 38.539062 22.117188 37.28125 21.492188 37.269531 21.484375 C 37.085938 21.394531 37.007812 21.171875 37.097656 20.988281 C 37.183594 20.804688 37.410156 20.726562 37.589844 20.816406 C 37.660156 20.847656 39.28125 21.652344 39.28125 23.378906 C 39.28125 23.585938 39.117188 23.75 38.910156 23.75 Z M 38.910156 23.75 " fill-opacity="1" fill-rule="nonzero"/><path fill="#000000" d="M 20.757812 32.230469 C 20.554688 32.230469 20.386719 32.066406 20.386719 31.859375 C 20.386719 30.136719 22.011719 29.332031 22.078125 29.296875 C 22.265625 29.207031 22.484375 29.285156 22.574219 29.46875 C 22.660156 29.652344 22.585938 29.875 22.402344 29.964844 C 22.351562 29.992188 21.128906 30.605469 21.128906 31.859375 C 21.128906 32.066406 20.964844 32.230469 20.757812 32.230469 Z M 20.757812 32.230469 " fill-opacity="1" fill-rule="nonzero"/><path fill="#000000" d="M 22.238281 30.003906 C 22.1875 30.003906 22.128906 29.992188 22.078125 29.964844 C 22.011719 29.933594 20.386719 29.128906 20.386719 27.402344 C 20.386719 27.199219 20.554688 27.03125 20.757812 27.03125 C 20.964844 27.03125 21.128906 27.199219 21.128906 27.402344 C 21.128906 28.667969 22.386719 29.289062 22.402344 29.296875 C 22.585938 29.386719 22.664062 29.609375 22.574219 29.792969 C 22.511719 29.925781 22.378906 30.003906 22.238281 30.003906 Z M 22.238281 30.003906 " fill-opacity="1" fill-rule="nonzero"/><path fill="#000000" d="M 19.277344 30.003906 C 19.140625 30.003906 19.007812 29.925781 18.945312 29.792969 C 18.855469 29.609375 18.929688 29.386719 19.113281 29.296875 C 19.167969 29.273438 20.386719 28.65625 20.386719 27.402344 C 20.386719 27.199219 20.554688 27.03125 20.757812 27.03125 C 20.964844 27.03125 21.128906 27.199219 21.128906 27.402344 C 21.128906 29.128906 19.507812 29.933594 19.4375 29.964844 C 19.386719 29.992188 19.332031 30.003906 19.277344 30.003906 Z M 19.277344 30.003906 " fill-opacity="1" fill-rule="nonzero"/><path fill="#000000" d="M 20.757812 32.230469 C 20.554688 32.230469 20.386719 32.066406 20.386719 31.859375 C 20.386719 30.597656 19.128906 29.972656 19.117188 29.964844 C 18.929688 29.875 18.855469 29.65625 18.941406 29.46875 C 19.03125 29.285156 19.253906 29.207031 19.4375 29.296875 C 19.507812 29.332031 21.128906 30.136719 21.128906 31.859375 C 21.128906 32.066406 20.964844 32.230469 20.757812 32.230469 Z M 20.757812 32.230469 " fill-opacity="1" fill-rule="nonzero"/><path fill="#000000" d="M 19.820312 10.304688 C 19.761719 10.304688 19.703125 10.292969 19.648438 10.261719 L 18.90625 9.871094 L 18.160156 10.261719 C 18.039062 10.328125 17.886719 10.316406 17.773438 10.234375 C 17.65625 10.152344 17.601562 10.011719 17.625 9.871094 L 17.765625 9.039062 L 17.164062 8.453125 C 17.0625 8.355469 17.027344 8.207031 17.070312 8.074219 C 17.113281 7.9375 17.230469 7.839844 17.371094 7.820312 L 18.203125 7.699219 L 18.574219 6.941406 C 18.699219 6.691406 19.113281 6.691406 19.238281 6.941406 L 19.609375 7.699219 L 20.441406 7.820312 C 20.582031 7.839844 20.695312 7.9375 20.738281 8.074219 C 20.785156 8.207031 20.746094 8.355469 20.644531 8.453125 L 20.042969 9.039062 L 20.1875 9.871094 C 20.210938 10.011719 20.152344 10.152344 20.039062 10.234375 C 19.976562 10.28125 19.898438 10.304688 19.820312 10.304688 Z M 18.90625 9.078125 C 18.964844 9.078125 19.023438 9.09375 19.078125 9.121094 L 19.328125 9.253906 L 19.28125 8.972656 C 19.261719 8.851562 19.300781 8.730469 19.386719 8.644531 L 19.589844 8.445312 L 19.308594 8.40625 C 19.191406 8.386719 19.085938 8.3125 19.03125 8.203125 L 18.90625 7.945312 L 18.78125 8.203125 C 18.726562 8.3125 18.621094 8.386719 18.5 8.40625 L 18.21875 8.445312 L 18.421875 8.644531 C 18.511719 8.730469 18.550781 8.851562 18.53125 8.972656 L 18.480469 9.253906 L 18.734375 9.121094 C 18.789062 9.09375 18.847656 9.078125 18.90625 9.078125 Z M 18.90625 9.078125 " fill-opacity="1" fill-rule="nonzero"/><path fill="#000000" d="M 40.570312 48.9375 C 40.507812 48.9375 40.449219 48.921875 40.394531 48.894531 L 39.652344 48.503906 L 38.910156 48.894531 C 38.785156 48.960938 38.632812 48.949219 38.519531 48.867188 C 38.40625 48.785156 38.347656 48.644531 38.371094 48.503906 L 38.511719 47.671875 L 37.914062 47.085938 C 37.8125 46.988281 37.773438 46.839844 37.816406 46.703125 C 37.863281 46.570312 37.976562 46.472656 38.117188 46.449219 L 38.949219 46.332031 L 39.320312 45.574219 C 39.382812 45.449219 39.511719 45.367188 39.652344 45.367188 C 39.792969 45.367188 39.921875 45.449219 39.984375 45.574219 L 40.355469 46.332031 L 41.1875 46.449219 C 41.328125 46.472656 41.441406 46.570312 41.488281 46.703125 C 41.53125 46.839844 41.492188 46.988281 41.390625 47.085938 L 40.792969 47.671875 L 40.933594 48.503906 C 40.957031 48.640625 40.902344 48.785156 40.785156 48.867188 C 40.722656 48.914062 40.644531 48.9375 40.570312 48.9375 Z M 39.652344 47.710938 C 39.710938 47.710938 39.769531 47.726562 39.824219 47.753906 L 40.078125 47.886719 L 40.027344 47.605469 C 40.007812 47.484375 40.046875 47.363281 40.136719 47.277344 L 40.335938 47.078125 L 40.058594 47.039062 C 39.9375 47.019531 39.832031 46.945312 39.777344 46.835938 L 39.652344 46.578125 L 39.527344 46.835938 C 39.472656 46.945312 39.367188 47.019531 39.246094 47.039062 L 38.96875 47.078125 L 39.167969 47.277344 C 39.257812 47.363281 39.296875 47.484375 39.277344 47.605469 L 39.226562 47.886719 L 39.480469 47.753906 C 39.535156 47.726562 39.59375 47.710938 39.652344 47.710938 Z M 39.652344 47.710938 " fill-opacity="1" fill-rule="nonzero"/><path fill="#000000" d="M 48.542969 38.609375 C 48.339844 38.609375 48.171875 38.441406 48.171875 38.238281 L 48.171875 35.265625 C 48.171875 35.058594 48.339844 34.894531 48.542969 34.894531 C 48.75 34.894531 48.914062 35.058594 48.914062 35.265625 L 48.914062 38.238281 C 48.914062 38.441406 48.75 38.609375 48.542969 38.609375 Z M 48.542969 38.609375 " fill-opacity="1" fill-rule="nonzero"/><g clip-path="url(#852d76e9cb)"><path fill="#000000" d="M 49.285156 37.125 L 47.804688 37.125 C 47.597656 37.125 47.433594 36.957031 47.433594 36.75 C 47.433594 36.546875 47.597656 36.378906 47.804688 36.378906 L 49.285156 36.378906 C 49.488281 36.378906 49.65625 36.546875 49.65625 36.75 C 49.65625 36.957031 49.488281 37.125 49.285156 37.125 Z M 49.285156 37.125 " fill-opacity="1" fill-rule="nonzero"/></g><path fill="#000000" d="M 5.570312 47.523438 C 5.363281 47.523438 5.199219 47.359375 5.199219 47.152344 L 5.199219 44.179688 C 5.199219 43.976562 5.363281 43.808594 5.570312 43.808594 C 5.773438 43.808594 5.9375 43.976562 5.9375 44.179688 L 5.9375 47.152344 C 5.9375 47.359375 5.773438 47.523438 5.570312 47.523438 Z M 5.570312 47.523438 " fill-opacity="1" fill-rule="nonzero"/><path fill="#000000" d="M 6.308594 46.039062 L 4.828125 46.039062 C 4.621094 46.039062 4.457031 45.871094 4.457031 45.667969 C 4.457031 45.460938 4.621094 45.296875 4.828125 45.296875 L 6.308594 45.296875 C 6.515625 45.296875 6.679688 45.460938 6.679688 45.667969 C 6.679688 45.871094 6.515625 46.039062 6.308594 46.039062 Z M 6.308594 46.039062 " fill-opacity="1" fill-rule="nonzero"/><path fill="#000000" d="M 38.171875 13.351562 C 37.964844 13.351562 37.800781 13.183594 37.800781 12.976562 L 37.800781 10.007812 C 37.800781 9.800781 37.964844 9.636719 38.171875 9.636719 C 38.375 9.636719 38.539062 9.800781 38.539062 10.007812 L 38.539062 12.976562 C 38.539062 13.183594 38.375 13.351562 38.171875 13.351562 Z M 38.171875 13.351562 " fill-opacity="1" fill-rule="nonzero"/><path fill="#000000" d="M 38.910156 11.863281 L 37.429688 11.863281 C 37.226562 11.863281 37.058594 11.699219 37.058594 11.492188 C 37.058594 11.289062 37.226562 11.121094 37.429688 11.121094 L 38.910156 11.121094 C 39.117188 11.121094 39.28125 11.289062 39.28125 11.492188 C 39.28125 11.699219 39.117188 11.863281 38.910156 11.863281 Z M 38.910156 11.863281 " fill-opacity="1" fill-rule="nonzero"/></svg>