<svg xmlns="http://www.w3.org/2000/svg" xmlns:xlink="http://www.w3.org/1999/xlink" width="70" zoomAndPan="magnify" viewBox="0 0 52.5 52.499999" height="70" preserveAspectRatio="xMidYMid meet" version="1.0"><defs><clipPath id="6b6e551d4f"><path d="M 25 2.597656 L 27 2.597656 L 27 7 L 25 7 Z M 25 2.597656 " clip-rule="nonzero"/></clipPath><clipPath id="9f06717570"><path d="M 26 8 L 46.804688 8 L 46.804688 49.402344 L 26 49.402344 Z M 26 8 " clip-rule="nonzero"/></clipPath><clipPath id="c59e16f5de"><path d="M 5.199219 8 L 26 8 L 26 49.402344 L 5.199219 49.402344 Z M 5.199219 8 " clip-rule="nonzero"/></clipPath></defs><g clip-path="url(#6b6e551d4f)"><path fill="#ffffff" d="M 25.285156 3.171875 L 25.285156 6.105469 C 25.285156 6.449219 25.511719 6.679688 25.859375 6.679688 C 26.144531 6.679688 26.433594 6.449219 26.433594 6.105469 L 26.492188 3.171875 C 26.492188 2.828125 26.261719 2.597656 25.917969 2.597656 C 25.570312 2.597656 25.339844 2.882812 25.285156 3.171875 Z M 25.285156 3.171875 " fill-opacity="1" fill-rule="nonzero"/></g><path fill="#ffffff" d="M 29.480469 5.183594 L 27.355469 7.195312 C 27.125 7.425781 27.125 7.773438 27.355469 8 C 27.46875 8.117188 27.640625 8.175781 27.757812 8.175781 C 27.871094 8.175781 28.042969 8.117188 28.160156 8 L 30.285156 5.988281 C 30.515625 5.757812 30.515625 5.414062 30.285156 5.183594 C 30.113281 5.011719 29.710938 5.011719 29.480469 5.183594 Z M 29.480469 5.183594 " fill-opacity="1" fill-rule="nonzero"/><path fill="#ffffff" d="M 21.429688 5.242188 C 21.203125 5.472656 21.203125 5.816406 21.429688 6.046875 L 23.558594 8.058594 C 23.671875 8.175781 23.789062 8.230469 23.960938 8.230469 C 24.132812 8.230469 24.25 8.175781 24.363281 8.058594 C 24.59375 7.828125 24.59375 7.484375 24.363281 7.253906 L 22.234375 5.242188 C 22.007812 5.011719 21.605469 5.011719 21.429688 5.242188 Z M 21.429688 5.242188 " fill-opacity="1" fill-rule="nonzero"/><g clip-path="url(#9f06717570)"><path fill="#ffffff" d="M 45.753906 46.238281 L 42.128906 47.101562 L 38.96875 34.164062 C 42.1875 32.726562 43.28125 26.230469 41.441406 18.867188 C 40.867188 16.625 39.257812 11.164062 38.277344 9.09375 C 38.164062 8.863281 37.875 8.75 37.644531 8.804688 L 27.296875 11.335938 C 27.007812 11.394531 26.835938 11.625 26.835938 11.910156 C 26.894531 14.210938 27.984375 19.789062 28.5625 22.03125 C 30.34375 29.277344 34.195312 34.449219 37.644531 34.449219 C 37.703125 34.449219 37.761719 34.449219 37.875 34.449219 L 41.039062 47.386719 L 37.414062 48.25 C 37.128906 48.308594 36.898438 48.652344 37.011719 48.941406 C 37.070312 49.226562 37.300781 49.402344 37.589844 49.402344 C 37.644531 49.402344 37.703125 49.402344 37.703125 49.402344 L 46.039062 47.386719 C 46.328125 47.332031 46.558594 46.984375 46.441406 46.699219 C 46.386719 46.351562 46.039062 46.179688 45.753906 46.238281 Z M 37.414062 9.957031 C 37.820312 10.875 38.277344 12.199219 38.738281 13.578125 L 28.503906 15.992188 C 28.273438 14.554688 28.042969 13.234375 27.984375 12.257812 Z M 29.652344 21.6875 C 29.421875 20.652344 29.019531 18.925781 28.675781 17.144531 L 39.027344 14.671875 C 39.542969 16.394531 40.003906 18.0625 40.234375 19.042969 C 41.957031 26 40.921875 32.4375 38.046875 33.128906 C 35.230469 33.933594 31.378906 28.644531 29.652344 21.6875 Z M 29.652344 21.6875 " fill-opacity="1" fill-rule="nonzero"/></g><path fill="#ffffff" d="M 38.796875 29.5625 C 39.429688 28.070312 39.660156 23.582031 38.335938 18.179688 C 38.277344 17.890625 37.933594 17.660156 37.644531 17.777344 C 37.359375 17.832031 37.128906 18.179688 37.242188 18.464844 C 38.507812 23.527344 38.277344 27.839844 37.761719 29.105469 C 37.644531 29.390625 37.761719 29.734375 38.046875 29.851562 C 38.105469 29.910156 38.222656 29.910156 38.277344 29.910156 C 38.507812 29.964844 38.679688 29.792969 38.796875 29.5625 Z M 38.796875 29.5625 " fill-opacity="1" fill-rule="nonzero"/><g clip-path="url(#c59e16f5de)"><path fill="#ffffff" d="M 25.109375 11.855469 C 25.109375 11.566406 24.9375 11.335938 24.652344 11.277344 L 14.300781 8.75 C 14.015625 8.691406 13.785156 8.804688 13.667969 9.035156 C 12.691406 11.105469 11.082031 16.570312 10.507812 18.8125 C 9.585938 22.433594 9.414062 26.054688 9.929688 28.929688 C 10.390625 31.632812 11.484375 33.472656 13.035156 34.164062 L 9.875 47.160156 L 6.195312 46.238281 C 5.90625 46.179688 5.5625 46.351562 5.503906 46.640625 C 5.445312 46.929688 5.617188 47.273438 5.90625 47.332031 L 14.242188 49.34375 C 14.300781 49.34375 14.359375 49.34375 14.359375 49.34375 C 14.644531 49.34375 14.875 49.171875 14.933594 48.882812 C 14.992188 48.597656 14.820312 48.25 14.53125 48.191406 L 10.964844 47.386719 L 14.128906 34.394531 C 14.1875 34.394531 14.300781 34.394531 14.359375 34.394531 C 15.96875 34.394531 17.695312 33.300781 19.246094 31.171875 C 21.027344 28.875 22.464844 25.597656 23.386719 21.917969 C 23.960938 19.730469 25.054688 14.152344 25.109375 11.855469 Z M 14.53125 9.957031 L 23.960938 12.257812 C 23.902344 13.234375 23.671875 14.613281 23.445312 15.992188 L 13.207031 13.578125 C 13.667969 12.199219 14.128906 10.875 14.53125 9.957031 Z M 18.328125 30.542969 C 16.773438 32.554688 15.105469 33.53125 13.785156 33.242188 C 12.460938 32.898438 11.484375 31.289062 11.023438 28.757812 C 10.5625 26.054688 10.738281 22.605469 11.597656 19.097656 C 11.828125 18.0625 12.289062 16.394531 12.804688 14.730469 L 23.15625 17.203125 C 22.8125 18.984375 22.464844 20.707031 22.179688 21.742188 C 21.429688 25.195312 20.050781 28.355469 18.328125 30.542969 Z M 18.328125 30.542969 " fill-opacity="1" fill-rule="nonzero"/></g><path fill="#ffffff" d="M 14.300781 17.777344 C 14.015625 17.71875 13.667969 17.890625 13.609375 18.179688 C 12.289062 23.582031 12.578125 28.070312 13.152344 29.5625 C 13.265625 29.792969 13.4375 29.910156 13.667969 29.910156 C 13.726562 29.910156 13.839844 29.910156 13.898438 29.851562 C 14.1875 29.734375 14.359375 29.390625 14.1875 29.105469 C 13.667969 27.78125 13.4375 23.527344 14.703125 18.464844 C 14.820312 18.179688 14.644531 17.890625 14.300781 17.777344 Z M 14.300781 17.777344 " fill-opacity="1" fill-rule="nonzero"/><path fill="#ffffff" d="M 28.90625 33.300781 C 27.757812 32.839844 26.546875 33.1875 25.628906 34.164062 C 24.765625 33.1875 23.558594 32.839844 22.351562 33.300781 C 20.972656 33.820312 19.820312 35.484375 20.28125 37.671875 C 21.027344 41.234375 25.167969 43.074219 25.339844 43.132812 C 25.398438 43.191406 25.511719 43.191406 25.570312 43.191406 C 25.628906 43.191406 25.742188 43.191406 25.800781 43.132812 C 25.972656 43.074219 30.113281 41.234375 30.859375 37.671875 C 31.4375 35.484375 30.285156 33.820312 28.90625 33.300781 Z M 29.824219 37.382812 C 29.25 39.914062 26.492188 41.523438 25.628906 41.925781 C 24.824219 41.523438 22.007812 39.914062 21.429688 37.382812 C 21.085938 35.773438 21.890625 34.679688 22.8125 34.335938 C 23.042969 34.277344 23.214844 34.222656 23.445312 34.222656 C 24.074219 34.222656 24.707031 34.625 25.167969 35.371094 C 25.398438 35.714844 25.972656 35.714844 26.144531 35.371094 C 26.722656 34.394531 27.582031 33.992188 28.503906 34.335938 C 29.367188 34.679688 30.171875 35.773438 29.824219 37.382812 Z M 29.824219 37.382812 " fill-opacity="1" fill-rule="nonzero"/></svg>