<svg xmlns="http://www.w3.org/2000/svg" xmlns:xlink="http://www.w3.org/1999/xlink" width="70" zoomAndPan="magnify" viewBox="0 0 52.5 52.499999" height="70" preserveAspectRatio="xMidYMid meet" version="1.0"><defs><clipPath id="c754b87f2b"><path d="M 3.34375 3.390625 L 48.660156 3.390625 L 48.660156 48.660156 L 3.34375 48.660156 Z M 3.34375 3.390625 " clip-rule="nonzero"/></clipPath><clipPath id="1026819a81"><path d="M 7.625 9.90625 L 44.027344 9.90625 L 44.027344 37.394531 L 7.625 37.394531 Z M 7.625 9.90625 " clip-rule="nonzero"/></clipPath></defs><g clip-path="url(#c754b87f2b)"><path fill="#bbdeff" d="M 48.617188 26.027344 C 48.617188 38.527344 38.480469 48.660156 25.980469 48.660156 C 13.476562 48.660156 3.34375 38.527344 3.34375 26.027344 C 3.34375 13.523438 13.476562 3.390625 25.980469 3.390625 C 38.480469 3.390625 48.617188 13.523438 48.617188 26.027344 Z M 48.617188 26.027344 " fill-opacity="1" fill-rule="nonzero"/></g><path fill="#0833a2" d="M 12.835938 23.105469 L 12.113281 21.863281 L 11.390625 23.105469 L 12.113281 24.308594 Z M 12.835938 23.105469 " fill-opacity="1" fill-rule="nonzero"/><path fill="#0833a2" d="M 21.011719 20.136719 L 20.328125 18.894531 L 19.605469 20.136719 L 20.328125 21.339844 Z M 21.011719 20.136719 " fill-opacity="1" fill-rule="nonzero"/><path fill="#0833a2" d="M 40.609375 23.105469 L 39.886719 21.863281 L 39.164062 23.105469 L 39.886719 24.308594 Z M 40.609375 23.105469 " fill-opacity="1" fill-rule="nonzero"/><path fill="#0833a2" d="M 32.390625 20.136719 L 31.671875 18.894531 L 30.988281 20.136719 L 31.671875 21.339844 Z M 32.390625 20.136719 " fill-opacity="1" fill-rule="nonzero"/><g clip-path="url(#1026819a81)"><path fill="#0833a2" d="M 38.84375 28.234375 L 36.238281 19.617188 L 31.308594 26.070312 L 26.660156 16.851562 L 28.0625 14.046875 L 26.019531 9.957031 L 23.9375 14.046875 L 25.339844 16.851562 L 20.6875 26.03125 L 15.839844 19.617188 L 13.234375 28.273438 L 7.625 21.820312 L 11.472656 34.003906 L 11.511719 34.085938 L 11.511719 37.050781 L 40.488281 37.050781 L 40.488281 34.085938 L 40.566406 33.886719 L 44.375 21.820312 Z M 39.125 33.40625 L 35.960938 33.40625 L 38.324219 30.679688 Z M 35.757812 22.222656 L 37.921875 29.316406 L 34.796875 32.921875 L 31.953125 27.273438 Z M 33.675781 33.40625 L 27.261719 33.40625 L 31.109375 28.355469 Z M 25.257812 14.046875 L 25.980469 12.644531 L 26.699219 14.046875 L 25.980469 15.488281 Z M 26.019531 18.175781 L 30.507812 27.113281 L 26.019531 33.042969 L 21.53125 27.070312 Z M 13.714844 30.71875 L 16.039062 33.40625 L 12.914062 33.40625 Z M 24.777344 33.40625 L 18.324219 33.40625 L 20.890625 28.273438 Z M 16.320312 22.222656 L 20.089844 27.191406 L 17.242188 32.921875 L 14.15625 29.355469 Z M 10.507812 27.03125 L 12.792969 29.636719 L 12.074219 31.960938 Z M 39.285156 35.847656 L 12.714844 35.847656 L 12.714844 34.605469 L 39.285156 34.605469 Z M 39.925781 31.882812 L 39.246094 29.597656 L 41.488281 27.03125 Z M 39.925781 31.882812 " fill-opacity="1" fill-rule="nonzero"/></g></svg>