<svg xmlns="http://www.w3.org/2000/svg" xmlns:xlink="http://www.w3.org/1999/xlink" width="200" zoomAndPan="magnify" viewBox="0 0 150 149.999998" height="200" preserveAspectRatio="xMidYMid meet" version="1.0"><defs><clipPath id="dedf3698fd"><path d="M 7.453125 15 L 83.203125 15 L 83.203125 125.25 L 7.453125 125.25 Z M 7.453125 15 " clip-rule="nonzero"/></clipPath><clipPath id="7aa6a4d97c"><path d="M 109 15.003906 L 118 15.003906 L 118 17 L 109 17 Z M 109 15.003906 " clip-rule="nonzero"/></clipPath><clipPath id="39a1b2b16c"><path d="M 86.761719 16 L 139.261719 16 L 139.261719 121.496094 L 86.761719 121.496094 Z M 86.761719 16 " clip-rule="nonzero"/></clipPath></defs><g clip-path="url(#dedf3698fd)"><path fill="#000000" d="M 83.148438 121.210938 C 82.457031 120.1875 81.632812 119.285156 80.671875 118.503906 C 79.546875 117.589844 78.488281 116.605469 77.496094 115.546875 C 76.367188 114.3125 75.238281 113.074219 74.175781 111.777344 C 73.113281 110.476562 72.15625 109.144531 71.15625 107.820312 C 70.691406 107.214844 70.238281 106.597656 69.769531 106 C 69.195312 105.261719 68.589844 104.542969 68.03125 103.800781 C 67.382812 102.929688 66.753906 102.042969 66.148438 101.144531 C 65.542969 100.25 64.890625 99.371094 64.339844 98.433594 C 63.679688 97.296875 63.085938 96.125 62.515625 94.9375 C 61.730469 93.285156 60.992188 91.617188 60.265625 89.9375 C 59.980469 89.292969 59.777344 88.617188 59.539062 87.953125 C 59.0625 86.644531 58.5625 85.339844 58.117188 84.019531 C 57.824219 83.148438 57.613281 82.25 57.347656 81.367188 C 57.179688 80.804688 56.957031 80.257812 56.792969 79.691406 C 56.535156 78.820312 56.304688 77.941406 56.070312 77.0625 C 55.835938 76.183594 55.605469 75.28125 55.375 74.394531 C 55.179688 73.640625 54.988281 72.886719 54.796875 72.132812 C 54.679688 71.664062 54.550781 71.1875 54.457031 70.722656 C 54.34375 70.144531 54.269531 69.566406 54.160156 68.988281 C 54.023438 68.25 53.847656 67.515625 53.71875 66.792969 C 53.464844 65.339844 53.191406 63.890625 53.023438 62.429688 C 52.929688 61.601562 52.710938 60.78125 52.953125 59.894531 C 53.289062 58.644531 53.542969 57.378906 53.71875 56.09375 C 53.867188 55.109375 53.949219 54.117188 53.960938 53.117188 C 53.960938 52.335938 53.832031 51.546875 53.800781 50.765625 C 53.757812 49.65625 53.816406 48.542969 53.546875 47.453125 C 53.371094 46.738281 53.253906 46.007812 53.066406 45.292969 C 52.882812 44.582031 52.648438 43.894531 52.4375 43.199219 C 52.351562 42.902344 52.285156 42.605469 52.207031 42.308594 C 51.894531 41.113281 51.597656 39.914062 51.265625 38.722656 C 51.046875 37.941406 50.78125 37.179688 50.542969 36.410156 C 50.351562 35.78125 50.183594 35.152344 49.980469 34.542969 C 49.582031 33.332031 49.398438 32.113281 49.769531 30.859375 C 49.871094 30.515625 49.972656 30.175781 50.082031 29.839844 C 50.398438 28.984375 50.679688 28.125 51.027344 27.28125 C 51.339844 26.5 51.730469 25.738281 52.085938 24.972656 C 52.445312 24.207031 52.789062 23.464844 53.144531 22.71875 C 53.910156 21.1875 54.472656 19.585938 54.832031 17.910156 C 54.925781 17.332031 54.957031 16.75 54.925781 16.164062 C 54.925781 15.757812 54.613281 15.375 54.328125 15.398438 C 53.652344 15.425781 52.984375 15.5 52.316406 15.613281 C 51.320312 15.820312 50.339844 16.089844 49.363281 16.382812 C 48.1875 16.734375 47.019531 17.105469 45.875 17.542969 C 45.710938 17.625 45.539062 17.652344 45.359375 17.625 C 45.175781 17.601562 45.019531 17.527344 44.886719 17.402344 C 44.085938 16.773438 43.21875 16.257812 42.285156 15.859375 C 41.289062 15.429688 40.296875 15.023438 39.191406 15 C 38.371094 14.996094 37.554688 15.050781 36.742188 15.167969 C 36.546875 15.1875 36.371094 15.261719 36.214844 15.386719 C 36.0625 15.511719 35.957031 15.671875 35.898438 15.859375 C 35.855469 15.953125 35.839844 16.058594 35.796875 16.148438 C 35.140625 17.515625 35 18.933594 35.375 20.402344 C 35.585938 21.242188 35.945312 22.011719 36.457031 22.707031 C 37.316406 23.910156 38.300781 25.046875 38.65625 26.539062 C 38.871094 27.308594 39.042969 28.089844 39.167969 28.878906 C 39.3125 30.363281 39.222656 31.835938 38.902344 33.292969 C 38.660156 34.546875 38.339844 35.777344 37.941406 36.988281 C 37.511719 38.214844 36.898438 39.378906 36.390625 40.582031 C 35.984375 41.523438 35.597656 42.492188 35.234375 43.460938 C 34.808594 44.597656 34.382812 45.734375 34.023438 46.898438 C 33.707031 47.96875 33.417969 49.0625 33.179688 50.160156 C 33.003906 50.960938 32.90625 51.777344 32.792969 52.585938 C 32.695312 53.308594 32.582031 54.03125 32.542969 54.757812 C 32.480469 55.890625 32.480469 57.03125 32.449219 58.164062 C 32.414062 59.234375 32.4375 60.304688 32.519531 61.371094 C 32.632812 62.707031 32.730469 64.046875 32.734375 65.382812 C 32.734375 66.984375 32.679688 68.589844 32.59375 70.191406 C 32.535156 71.328125 32.398438 72.457031 32.28125 73.59375 C 32.222656 74.203125 32.1875 74.8125 32.097656 75.417969 C 32.027344 76.175781 31.886719 76.921875 31.679688 77.652344 C 31.289062 78.773438 30.78125 79.851562 30.308594 80.933594 C 30.089844 81.4375 29.84375 81.929688 29.605469 82.429688 C 29.167969 83.371094 28.742188 84.3125 28.285156 85.234375 C 27.4375 86.933594 26.5625 88.636719 25.710938 90.34375 C 25.234375 91.304688 24.804688 92.292969 24.335938 93.253906 C 23.910156 94.125 23.457031 94.984375 23.027344 95.851562 C 22.769531 96.378906 22.550781 96.925781 22.289062 97.457031 C 21.90625 98.230469 21.5 98.996094 21.097656 99.765625 C 20.585938 100.75 20.074219 101.738281 19.554688 102.722656 C 19.257812 103.285156 18.925781 103.832031 18.648438 104.398438 C 18.140625 105.414062 17.671875 106.453125 17.140625 107.460938 C 16.558594 108.570312 15.933594 109.660156 15.3125 110.746094 C 14.785156 111.6875 14.253906 112.609375 13.695312 113.523438 C 12.660156 115.226562 11.628906 116.9375 10.554688 118.609375 C 9.925781 119.554688 9.214844 120.46875 8.53125 121.386719 C 8.21875 121.835938 7.855469 122.273438 7.496094 122.746094 C 7.578125 122.789062 7.667969 122.824219 7.757812 122.851562 C 8.1875 122.914062 8.613281 122.984375 9.046875 123.019531 C 9.789062 123.070312 10.53125 123.140625 11.273438 123.121094 C 11.914062 123.082031 12.554688 123 13.191406 122.886719 C 14.570312 122.6875 15.945312 122.480469 17.320312 122.273438 C 17.574219 122.246094 17.820312 122.203125 18.066406 122.140625 C 18.988281 121.929688 19.921875 121.808594 20.867188 121.78125 C 20.90625 121.78125 20.945312 121.792969 20.976562 121.8125 C 21.578125 122.066406 22.1875 122.296875 22.777344 122.578125 C 24.246094 123.269531 25.832031 123.441406 27.417969 123.519531 C 28.609375 123.574219 29.808594 123.425781 31.007812 123.378906 C 31.261719 123.335938 31.507812 123.359375 31.75 123.449219 C 32.785156 124.058594 33.882812 124.523438 35.039062 124.84375 C 35.863281 125.078125 36.699219 125.1875 37.554688 125.171875 C 38.570312 125.121094 39.585938 125.042969 40.601562 124.929688 C 40.929688 124.925781 41.21875 124.820312 41.476562 124.617188 C 41.761719 124.300781 42.074219 124.339844 42.398438 124.367188 C 43.863281 124.476562 45.328125 124.632812 46.792969 124.71875 C 47.800781 124.773438 48.8125 124.75 49.824219 124.71875 C 50.191406 124.695312 50.554688 124.636719 50.914062 124.542969 C 51.066406 124.519531 51.195312 124.449219 51.296875 124.332031 C 51.355469 124.234375 51.296875 124.058594 51.273438 123.917969 C 52.410156 124.0625 53.550781 124.207031 54.6875 124.367188 C 56.742188 124.644531 58.773438 124.734375 60.769531 123.984375 C 61.082031 123.867188 61.179688 123.722656 61.082031 123.40625 C 61.054688 123.296875 61.007812 123.191406 60.957031 123.039062 C 61.082031 123.039062 61.179688 123.039062 61.273438 123.066406 C 61.710938 123.128906 62.152344 123.207031 62.59375 123.265625 C 63.554688 123.386719 64.515625 123.527344 65.480469 123.621094 C 66.617188 123.726562 67.75 123.773438 68.789062 123.148438 C 68.933594 123.070312 69.089844 123.035156 69.253906 123.046875 C 70.394531 123.148438 71.53125 123.28125 72.671875 123.375 C 73.5 123.441406 74.332031 123.453125 75.160156 123.503906 C 75.613281 123.535156 76.066406 123.625 76.523438 123.644531 C 77.308594 123.6875 77.394531 123.59375 77.464844 122.835938 C 78.339844 122.804688 79.21875 122.808594 80.085938 122.726562 C 81.03125 122.636719 82 122.566406 82.875 122.097656 C 83.382812 121.84375 83.445312 121.660156 83.148438 121.210938 Z M 83.148438 121.210938 " fill-opacity="1" fill-rule="nonzero"/><path fill="#000000" d="M 77.511719 122.832031 C 77.429688 123.59375 77.34375 123.683594 76.570312 123.644531 C 76.113281 123.621094 75.660156 123.53125 75.207031 123.5 C 74.378906 123.449219 73.546875 123.4375 72.71875 123.371094 C 71.578125 123.277344 70.441406 123.144531 69.300781 123.042969 C 69.136719 123.03125 68.980469 123.066406 68.835938 123.148438 C 67.796875 123.773438 66.664062 123.722656 65.527344 123.617188 C 64.5625 123.523438 63.601562 123.386719 62.640625 123.261719 C 62.199219 123.203125 61.757812 123.128906 61.320312 123.0625 C 61.222656 123.0625 61.125 123.0625 61.003906 123.035156 C 61.054688 123.1875 61.101562 123.292969 61.132812 123.402344 C 61.210938 123.71875 61.113281 123.867188 60.816406 123.980469 C 58.828125 124.734375 56.789062 124.640625 54.734375 124.363281 C 53.597656 124.203125 52.457031 124.046875 51.320312 123.914062 C 51.320312 124.054688 51.402344 124.226562 51.34375 124.332031 C 51.242188 124.445312 51.113281 124.515625 50.960938 124.539062 C 50.601562 124.632812 50.238281 124.691406 49.871094 124.714844 C 48.859375 124.734375 47.847656 124.753906 46.84375 124.714844 C 45.371094 124.628906 43.90625 124.472656 42.445312 124.363281 C 42.128906 124.335938 41.816406 124.285156 41.523438 124.613281 C 41.265625 124.816406 40.976562 124.921875 40.648438 124.925781 C 39.632812 125.039062 38.617188 125.121094 37.601562 125.167969 C 36.746094 125.183594 35.910156 125.074219 35.085938 124.839844 C 33.929688 124.519531 32.832031 124.054688 31.796875 123.445312 C 31.554688 123.359375 31.308594 123.335938 31.054688 123.375 C 29.855469 123.421875 28.65625 123.570312 27.464844 123.515625 C 25.894531 123.441406 24.292969 123.269531 22.824219 122.574219 C 22.234375 122.296875 21.625 122.0625 21.023438 121.808594 C 20.992188 121.789062 20.953125 121.777344 20.914062 121.777344 C 19.96875 121.804688 19.035156 121.925781 18.113281 122.136719 C 17.867188 122.199219 17.621094 122.242188 17.367188 122.269531 C 15.992188 122.476562 14.617188 122.683594 13.238281 122.882812 C 12.601562 123 11.964844 123.078125 11.320312 123.117188 C 10.578125 123.136719 9.835938 123.066406 9.09375 123.015625 C 8.660156 122.984375 8.234375 122.910156 7.804688 122.847656 C 7.695312 122.824219 7.59375 122.789062 7.492188 122.742188 C 7.855469 122.265625 8.199219 121.832031 8.53125 121.382812 C 9.210938 120.460938 9.929688 119.5625 10.550781 118.605469 C 11.636719 116.929688 12.667969 115.222656 13.695312 113.515625 C 14.253906 112.601562 14.78125 111.667969 15.3125 110.738281 C 15.9375 109.648438 16.566406 108.5625 17.140625 107.453125 C 17.667969 106.449219 18.136719 105.410156 18.648438 104.394531 C 18.933594 103.824219 19.257812 103.277344 19.550781 102.714844 C 20.070312 101.734375 20.582031 100.742188 21.09375 99.757812 C 21.496094 98.992188 21.902344 98.226562 22.289062 97.449219 C 22.546875 96.921875 22.765625 96.375 23.027344 95.847656 C 23.453125 94.976562 23.910156 94.121094 24.332031 93.25 C 24.800781 92.285156 25.230469 91.296875 25.707031 90.335938 C 26.554688 88.632812 27.429688 86.9375 28.277344 85.230469 C 28.734375 84.304688 29.160156 83.34375 29.601562 82.421875 C 29.835938 81.925781 30.082031 81.433594 30.304688 80.925781 C 30.773438 79.839844 31.285156 78.765625 31.671875 77.648438 C 31.886719 76.917969 32.027344 76.175781 32.105469 75.421875 C 32.195312 74.816406 32.230469 74.203125 32.285156 73.59375 C 32.390625 72.460938 32.527344 71.332031 32.601562 70.195312 C 32.683594 68.59375 32.75 66.988281 32.742188 65.386719 C 32.742188 64.050781 32.636719 62.710938 32.527344 61.375 C 32.445312 60.308594 32.417969 59.238281 32.457031 58.167969 C 32.488281 57.035156 32.488281 55.894531 32.550781 54.761719 C 32.585938 54.035156 32.699219 53.3125 32.800781 52.589844 C 32.914062 51.78125 33.007812 50.964844 33.183594 50.160156 C 33.425781 49.066406 33.699219 47.964844 34.027344 46.902344 C 34.390625 45.738281 34.8125 44.601562 35.242188 43.464844 C 35.601562 42.496094 35.992188 41.535156 36.398438 40.585938 C 36.90625 39.382812 37.519531 38.21875 37.945312 36.992188 C 38.34375 35.777344 38.664062 34.546875 38.902344 33.292969 C 39.21875 31.835938 39.304688 30.363281 39.160156 28.878906 C 39.035156 28.089844 38.863281 27.308594 38.648438 26.539062 C 38.304688 25.046875 37.320312 23.910156 36.449219 22.707031 C 35.9375 22.011719 35.578125 21.242188 35.367188 20.402344 C 34.992188 18.933594 35.136719 17.515625 35.796875 16.152344 C 35.839844 16.0625 35.855469 15.953125 35.898438 15.863281 C 35.957031 15.671875 36.0625 15.515625 36.214844 15.390625 C 36.371094 15.265625 36.546875 15.191406 36.742188 15.171875 C 37.554688 15.054688 38.371094 15 39.191406 15.003906 C 40.296875 15.023438 41.289062 15.429688 42.289062 15.847656 C 43.222656 16.246094 44.089844 16.757812 44.886719 17.390625 C 45.023438 17.515625 45.179688 17.589844 45.359375 17.613281 C 45.542969 17.640625 45.714844 17.609375 45.878906 17.527344 C 47.019531 17.09375 48.191406 16.722656 49.367188 16.371094 C 50.339844 16.078125 51.324219 15.808594 52.320312 15.601562 C 52.984375 15.484375 53.65625 15.414062 54.332031 15.386719 C 54.609375 15.359375 54.925781 15.746094 54.925781 16.148438 C 54.953125 16.734375 54.921875 17.320312 54.828125 17.898438 C 54.46875 19.574219 53.90625 21.175781 53.144531 22.707031 C 52.785156 23.453125 52.433594 24.207031 52.085938 24.960938 C 51.734375 25.714844 51.347656 26.488281 51.023438 27.269531 C 50.675781 28.109375 50.394531 28.972656 50.082031 29.828125 C 49.957031 30.164062 49.855469 30.503906 49.765625 30.847656 C 49.394531 32.105469 49.578125 33.320312 49.976562 34.53125 C 50.179688 35.160156 50.347656 35.789062 50.539062 36.398438 C 50.777344 37.167969 51.042969 37.929688 51.261719 38.710938 C 51.59375 39.898438 51.890625 41.101562 52.203125 42.296875 C 52.28125 42.59375 52.347656 42.890625 52.4375 43.183594 C 52.640625 43.882812 52.878906 44.574219 53.066406 45.28125 C 53.25 45.988281 53.378906 46.726562 53.542969 47.441406 C 53.8125 48.53125 53.753906 49.640625 53.796875 50.753906 C 53.828125 51.539062 53.976562 52.324219 53.960938 53.105469 C 53.945312 54.101562 53.863281 55.097656 53.714844 56.082031 C 53.539062 57.367188 53.285156 58.632812 52.953125 59.882812 C 52.699219 60.769531 52.925781 61.589844 53.019531 62.417969 C 53.191406 63.878906 53.464844 65.328125 53.714844 66.777344 C 53.84375 67.519531 54.027344 68.25 54.15625 68.976562 C 54.265625 69.550781 54.339844 70.132812 54.453125 70.707031 C 54.546875 71.183594 54.675781 71.652344 54.792969 72.117188 C 54.984375 72.871094 55.175781 73.625 55.375 74.378906 C 55.601562 75.269531 55.832031 76.160156 56.066406 77.050781 C 56.304688 77.9375 56.53125 78.808594 56.789062 79.679688 C 56.953125 80.246094 57.175781 80.792969 57.347656 81.355469 C 57.609375 82.234375 57.820312 83.132812 58.117188 84.007812 C 58.558594 85.328125 59.058594 86.628906 59.535156 87.941406 C 59.773438 88.601562 59.976562 89.28125 60.261719 89.925781 C 60.988281 91.601562 61.726562 93.273438 62.511719 94.925781 C 63.074219 96.113281 63.679688 97.285156 64.339844 98.417969 C 64.882812 99.363281 65.527344 100.242188 66.144531 101.132812 C 66.761719 102.027344 67.402344 102.917969 68.027344 103.789062 C 68.589844 104.535156 69.191406 105.25 69.765625 105.988281 C 70.234375 106.585938 70.691406 107.203125 71.152344 107.808594 C 72.152344 109.128906 73.121094 110.480469 74.171875 111.761719 C 75.226562 113.042969 76.371094 114.292969 77.492188 115.53125 C 78.488281 116.597656 79.550781 117.585938 80.679688 118.503906 C 81.640625 119.285156 82.46875 120.1875 83.160156 121.210938 C 83.453125 121.660156 83.390625 121.839844 82.929688 122.089844 C 82.058594 122.5625 81.097656 122.632812 80.144531 122.71875 C 79.265625 122.804688 78.386719 122.800781 77.511719 122.832031 Z M 51.613281 100.863281 C 51.695312 100.96875 51.761719 101.085938 51.816406 101.207031 C 52.132812 102.203125 52.445312 103.214844 52.804688 104.199219 C 53.417969 105.839844 54.074219 107.460938 54.71875 109.089844 C 54.988281 109.769531 55.261719 110.445312 55.550781 111.117188 C 55.9375 112.058594 56.351562 112.96875 56.738281 113.898438 C 57.363281 115.398438 57.992188 116.890625 58.578125 118.402344 C 59.136719 119.828125 59.960938 121.109375 60.667969 122.457031 C 60.785156 122.691406 60.976562 122.820312 61.242188 122.835938 C 61.789062 122.898438 62.332031 123.007812 62.878906 123.0625 C 63.996094 123.171875 65.113281 123.273438 66.234375 123.34375 C 66.921875 123.421875 67.589844 123.328125 68.230469 123.066406 C 68.683594 122.859375 68.816406 122.71875 68.414062 122.167969 C 68.347656 122.074219 68.300781 121.96875 68.238281 121.867188 C 67.84375 121.238281 67.460938 120.578125 67.046875 119.945312 C 66.488281 119.101562 65.878906 118.289062 65.335938 117.433594 C 64.21875 115.667969 63.117188 113.894531 62.035156 112.113281 C 61.433594 111.117188 60.886719 110.09375 60.304688 109.082031 C 60.042969 108.628906 59.765625 108.183594 59.496094 107.734375 C 59.40625 107.582031 59.332031 107.421875 59.25 107.261719 C 59.375 107.363281 59.488281 107.476562 59.589844 107.605469 C 59.84375 107.980469 60.074219 108.375 60.320312 108.757812 C 60.566406 109.140625 60.890625 109.601562 61.148438 110.039062 C 61.460938 110.589844 61.757812 111.167969 62.089844 111.710938 C 62.554688 112.488281 63.046875 113.25 63.527344 114.019531 C 64.175781 115.054688 64.808594 116.101562 65.472656 117.128906 C 66.101562 118.09375 66.761719 119.039062 67.398438 120 C 67.738281 120.507812 68.058594 121.03125 68.378906 121.554688 C 68.621094 121.945312 68.84375 122.34375 69.070312 122.726562 C 69.628906 122.769531 70.199219 122.808594 70.769531 122.867188 C 71.746094 122.964844 72.722656 123.097656 73.703125 123.179688 C 74.683594 123.265625 75.648438 123.257812 76.625 123.292969 C 76.726562 123.300781 76.832031 123.296875 76.9375 123.277344 C 77.144531 123.238281 77.234375 123.113281 77.121094 122.917969 C 76.949219 122.578125 76.753906 122.253906 76.542969 121.9375 C 75.25 120.171875 73.949219 118.410156 72.644531 116.652344 C 72.050781 115.859375 71.390625 115.101562 70.832031 114.289062 C 70.277344 113.476562 69.746094 112.515625 69.167969 111.660156 C 68.269531 110.320312 67.335938 109.003906 66.410156 107.683594 C 65.285156 106.066406 64.144531 104.46875 63.039062 102.84375 C 61.925781 101.257812 60.949219 99.59375 60.117188 97.847656 C 59.640625 96.8125 59.175781 95.773438 58.765625 94.707031 C 58.300781 93.492188 57.902344 92.253906 57.484375 91.023438 C 57.171875 90.125 56.890625 89.21875 56.597656 88.316406 C 56.597656 88.296875 56.597656 88.269531 56.597656 88.234375 L 56.808594 88.1875 C 57.066406 89.054688 57.296875 89.90625 57.574219 90.742188 C 57.953125 91.894531 58.355469 93.042969 58.773438 94.179688 C 59.054688 94.945312 59.371094 95.695312 59.691406 96.445312 C 59.914062 97.003906 60.160156 97.550781 60.441406 98.082031 C 60.90625 98.929688 61.425781 99.753906 61.929688 100.597656 C 62.429688 101.4375 62.960938 102.363281 63.535156 103.207031 C 64.820312 105.089844 66.160156 106.902344 67.449219 108.765625 C 68.472656 110.25 69.457031 111.753906 70.460938 113.25 C 70.796875 113.75 71.089844 114.273438 71.460938 114.753906 C 71.867188 115.304688 72.339844 115.8125 72.753906 116.363281 C 73.238281 116.988281 73.695312 117.667969 74.164062 118.3125 C 75.125 119.609375 76.109375 120.890625 77.054688 122.199219 C 77.246094 122.492188 77.515625 122.621094 77.859375 122.585938 C 79.128906 122.558594 80.382812 122.429688 81.628906 122.199219 C 82.136719 122.140625 82.589844 121.957031 82.996094 121.652344 C 82.949219 121.507812 82.882812 121.371094 82.796875 121.246094 C 82.300781 120.648438 81.828125 120.023438 81.273438 119.476562 C 80.222656 118.433594 79.117188 117.449219 78.050781 116.425781 C 77.519531 115.914062 76.992188 115.394531 76.507812 114.855469 C 75.367188 113.539062 74.238281 112.21875 73.132812 110.875 C 72.503906 110.09375 71.90625 109.269531 71.296875 108.464844 C 70.796875 107.804688 70.308594 107.140625 69.804688 106.484375 C 69.296875 105.832031 68.765625 105.230469 68.285156 104.570312 C 67.4375 103.425781 66.632812 102.257812 65.796875 101.113281 C 64.6875 99.578125 63.707031 97.964844 62.851562 96.269531 C 62.246094 95.089844 61.664062 93.894531 61.121094 92.683594 C 60.609375 91.539062 60.152344 90.375 59.6875 89.226562 C 59.398438 88.492188 59.144531 87.738281 58.863281 87 C 58.648438 86.4375 58.382812 85.902344 58.199219 85.332031 C 57.957031 84.585938 57.785156 83.8125 57.570312 83.054688 C 57.089844 81.429688 56.578125 79.808594 56.113281 78.179688 C 55.648438 76.546875 55.21875 74.964844 54.820312 73.34375 C 54.445312 71.839844 54.121094 70.320312 53.800781 68.804688 C 53.605469 67.863281 53.449219 66.921875 53.289062 65.992188 C 53.125 65.066406 52.972656 64.171875 52.828125 63.265625 C 52.761719 62.863281 52.679688 62.460938 52.589844 61.988281 L 51.691406 64.617188 C 51.472656 65.246094 51.269531 65.90625 51.027344 66.539062 C 50.546875 67.835938 50.015625 69.113281 49.550781 70.414062 C 49.234375 71.316406 48.984375 72.25 48.6875 73.164062 C 48.339844 74.234375 47.964844 75.292969 47.613281 76.355469 C 47.257812 77.421875 46.953125 78.453125 46.59375 79.496094 C 46.308594 80.328125 45.988281 81.148438 45.652344 81.96875 C 45.316406 82.789062 44.96875 83.679688 44.597656 84.515625 C 44.164062 85.484375 43.757812 86.433594 43.886719 87.542969 C 43.898438 88.066406 43.859375 88.582031 43.769531 89.097656 C 43.664062 90.335938 43.546875 91.570312 43.457031 92.8125 C 43.351562 94.242188 43.273438 95.671875 43.1875 97.101562 C 43.132812 98 43.089844 98.894531 43.027344 99.789062 C 42.976562 100.597656 42.875 101.410156 42.839844 102.222656 C 42.796875 103.382812 42.808594 104.542969 42.765625 105.707031 C 42.6875 107.882812 42.578125 110.058594 42.492188 112.242188 C 42.449219 113.386719 42.4375 114.535156 42.390625 115.695312 C 42.328125 117.140625 42.253906 118.578125 42.285156 120.03125 C 42.332031 121.300781 42.21875 122.558594 41.933594 123.800781 C 41.925781 123.890625 41.925781 123.980469 41.933594 124.074219 C 42.476562 124.140625 42.992188 124.226562 43.507812 124.269531 C 44.71875 124.359375 45.929688 124.429688 47.144531 124.507812 C 47.351562 124.507812 47.554688 124.546875 47.773438 124.542969 C 48.484375 124.515625 49.199219 124.492188 49.914062 124.441406 C 50.269531 124.390625 50.625 124.324219 50.972656 124.238281 C 50.660156 123.667969 50.425781 123.1875 50.164062 122.710938 C 50.007812 122.476562 49.863281 122.234375 49.734375 121.988281 C 49.328125 120.980469 48.894531 119.980469 48.558594 118.949219 C 48.164062 117.722656 47.824219 116.476562 47.53125 115.21875 C 47.347656 114.371094 47.214844 113.519531 47.128906 112.660156 C 46.933594 110.992188 46.730469 109.332031 46.59375 107.664062 C 46.488281 106.390625 46.460938 105.109375 46.429688 103.835938 C 46.398438 102.660156 46.429688 101.488281 46.402344 100.3125 C 46.402344 99.414062 46.359375 98.511719 46.359375 97.613281 C 46.359375 96.820312 46.394531 96.042969 46.394531 95.242188 C 46.394531 94.238281 46.332031 93.238281 46.355469 92.234375 C 46.375 91.449219 46.476562 90.664062 46.535156 89.882812 C 46.535156 89.707031 46.507812 89.527344 46.535156 89.347656 C 46.582031 88.328125 46.632812 87.304688 46.691406 86.28125 C 46.691406 86.230469 46.753906 86.179688 46.839844 86.046875 C 46.839844 86.234375 46.839844 86.324219 46.839844 86.410156 C 46.785156 87.246094 46.730469 88.085938 46.683594 88.921875 C 46.683594 89.128906 46.65625 89.328125 46.660156 89.53125 C 46.660156 90.160156 46.699219 90.773438 46.699219 91.394531 C 46.699219 92.4375 46.679688 93.484375 46.667969 94.535156 C 46.667969 95.835938 46.632812 97.144531 46.636719 98.449219 C 46.640625 99.757812 46.667969 101.03125 46.683594 102.320312 C 46.683594 103.304688 46.683594 104.285156 46.730469 105.265625 C 46.78125 106.550781 46.863281 107.835938 46.964844 109.121094 C 47.046875 110.136719 47.113281 111.160156 47.296875 112.160156 C 47.578125 113.691406 47.746094 115.246094 48.238281 116.738281 C 48.535156 117.636719 48.730469 118.566406 49.027344 119.460938 C 49.238281 120.089844 49.542969 120.71875 49.800781 121.347656 C 49.890625 121.621094 49.996094 121.886719 50.113281 122.148438 C 50.378906 122.625 50.691406 123.089844 50.964844 123.558594 C 51.042969 123.734375 51.179688 123.820312 51.375 123.820312 C 52.632812 123.949219 53.886719 124.109375 55.164062 124.238281 C 56.699219 124.449219 58.226562 124.386719 59.742188 124.054688 C 60.128906 123.957031 60.546875 123.917969 60.859375 123.617188 C 60.738281 123.273438 60.601562 122.933594 60.445312 122.601562 C 59.996094 121.78125 59.476562 120.996094 59.070312 120.152344 C 58.472656 118.898438 57.941406 117.613281 57.40625 116.335938 C 57.074219 115.539062 56.800781 114.71875 56.464844 113.917969 C 55.917969 112.597656 55.34375 111.289062 54.789062 109.96875 C 54.429688 109.109375 54.089844 108.238281 53.746094 107.371094 C 53.402344 106.503906 53.019531 105.570312 52.675781 104.667969 C 52.476562 104.15625 52.359375 103.609375 52.128906 103.097656 C 51.8125 102.40625 51.648438 101.679688 51.636719 100.917969 Z M 43.089844 29.601562 C 43.179688 29.589844 43.269531 29.589844 43.359375 29.601562 C 44.261719 29.847656 45.160156 30.148438 46.074219 30.339844 C 47.140625 30.554688 48.226562 30.671875 49.300781 30.832031 L 49.332031 30.726562 C 48.789062 30.097656 47.992188 29.828125 47.34375 29.34375 C 46.699219 28.855469 45.960938 28.429688 45.277344 27.960938 C 44.597656 27.488281 43.941406 27.019531 43.296875 26.507812 C 42.648438 26 42.039062 25.480469 41.410156 24.964844 L 41.484375 24.863281 C 43.941406 26.984375 46.601562 28.804688 49.46875 30.328125 C 50.128906 28.65625 50.789062 26.984375 51.445312 25.328125 C 51.082031 24.871094 50.695312 24.421875 50.355469 23.941406 C 50.011719 23.464844 49.804688 23 49.472656 22.59375 C 48.789062 21.714844 48.066406 20.863281 47.351562 20.011719 C 46.980469 19.523438 46.570312 19.0625 46.128906 18.632812 C 45.566406 18.152344 44.96875 17.71875 44.339844 17.328125 C 43.546875 16.808594 42.726562 16.339844 41.878906 15.921875 C 41.152344 15.519531 40.378906 15.269531 39.558594 15.171875 C 38.648438 15.082031 37.746094 15.128906 36.851562 15.3125 C 36.660156 15.367188 36.507812 15.46875 36.390625 15.628906 C 35.859375 16.496094 35.5625 17.4375 35.503906 18.457031 C 35.398438 19.984375 35.816406 21.355469 36.757812 22.5625 C 37.210938 23.167969 37.683594 23.765625 38.082031 24.421875 C 38.75 25.589844 39.179688 26.835938 39.375 28.167969 C 39.527344 29.148438 39.550781 30.128906 39.4375 31.113281 C 39.285156 33.390625 38.789062 35.589844 37.949219 37.710938 C 37.5625 38.628906 37.195312 39.558594 36.8125 40.476562 C 36.269531 41.777344 35.679688 43.058594 35.179688 44.371094 C 34.695312 45.585938 34.277344 46.824219 33.921875 48.082031 C 33.597656 49.386719 33.339844 50.703125 33.152344 52.035156 C 32.832031 53.804688 32.679688 55.59375 32.699219 57.394531 C 32.777344 59.402344 32.8125 61.414062 32.917969 63.421875 C 33.011719 64.84375 33.027344 66.269531 32.96875 67.695312 C 32.867188 69.421875 32.792969 71.152344 32.679688 72.867188 C 32.617188 73.757812 32.515625 74.648438 32.394531 75.53125 C 32.300781 76.21875 32.171875 76.898438 32.003906 77.570312 C 31.667969 78.890625 31.039062 80.101562 30.484375 81.335938 C 29.898438 82.632812 29.269531 83.90625 28.640625 85.183594 C 28.105469 86.273438 27.535156 87.347656 26.992188 88.433594 C 26.257812 89.898438 25.523438 91.378906 24.792969 92.875 C 24.34375 93.789062 23.910156 94.707031 23.460938 95.621094 C 22.871094 96.8125 22.285156 98.003906 21.683594 99.1875 C 21.085938 100.375 20.429688 101.609375 19.800781 102.820312 C 19.242188 103.898438 18.675781 104.96875 18.117188 106.046875 C 17.734375 106.785156 17.328125 107.511719 16.992188 108.269531 C 16.359375 109.574219 15.644531 110.828125 14.847656 112.039062 C 14.246094 113.019531 13.660156 114.003906 13.074219 114.992188 C 12.761719 115.496094 12.476562 116.003906 12.171875 116.507812 C 11.789062 117.136719 11.417969 117.789062 11.011719 118.394531 C 10.601562 119 10.136719 119.652344 9.691406 120.261719 C 9.378906 120.699219 9.03125 121.128906 8.703125 121.5625 L 7.914062 122.585938 L 8.679688 122.703125 C 10.019531 122.894531 11.359375 122.886719 12.695312 122.675781 C 13.386719 122.570312 14.082031 122.476562 14.777344 122.359375 C 15.632812 122.226562 16.492188 122.089844 17.347656 121.9375 C 18.007812 121.816406 18.660156 121.65625 19.324219 121.542969 C 19.667969 121.5 20.015625 121.476562 20.363281 121.472656 C 20.207031 120.84375 20.429688 120.285156 20.632812 119.730469 C 20.925781 118.949219 21.289062 118.191406 21.621094 117.421875 C 22.109375 116.28125 22.5625 115.125 23.089844 113.996094 C 23.585938 112.929688 24.152344 111.902344 24.664062 110.855469 C 25.476562 109.175781 26.269531 107.484375 27.082031 105.804688 C 27.855469 104.183594 28.636719 102.566406 29.425781 100.949219 C 30.054688 99.695312 30.683594 98.4375 31.292969 97.15625 C 31.769531 96.171875 32.234375 95.179688 32.710938 94.1875 C 33.398438 92.765625 34.101562 91.359375 34.78125 89.917969 C 35.324219 88.777344 35.824219 87.613281 36.371094 86.464844 C 36.949219 85.265625 37.5625 84.078125 38.164062 82.890625 C 38.761719 81.699219 39.351562 80.535156 39.945312 79.359375 C 40.628906 78.003906 41.320312 76.640625 42.015625 75.277344 C 42.578125 74.179688 43.152344 73.078125 43.710938 71.996094 C 44.125 71.179688 44.535156 70.355469 44.929688 69.527344 C 45.207031 68.941406 45.4375 68.332031 45.71875 67.746094 C 46.414062 66.292969 47.136719 64.851562 47.835938 63.40625 C 48.335938 62.367188 48.835938 61.332031 49.300781 60.28125 C 49.953125 58.816406 50.558594 57.335938 51.1875 55.863281 C 51.402344 55.359375 51.636719 54.859375 51.878906 54.363281 C 51.917969 54.28125 52.035156 54.246094 52.117188 54.1875 C 52.144531 54.292969 52.15625 54.394531 52.152344 54.503906 C 52.121094 54.613281 52.078125 54.71875 52.023438 54.816406 C 51.113281 56.835938 50.210938 58.855469 49.296875 60.871094 C 48.746094 62.078125 48.171875 63.269531 47.601562 64.464844 C 47.441406 64.796875 47.226562 65.09375 47.066406 65.4375 C 46.609375 66.40625 46.167969 67.382812 45.71875 68.351562 C 45.296875 69.246094 44.878906 70.132812 44.460938 71.019531 C 44.292969 71.367188 44.121094 71.710938 43.945312 72.050781 C 43.632812 72.679688 43.269531 73.308594 42.949219 73.957031 C 42.222656 75.414062 41.523438 76.886719 40.789062 78.355469 C 40.230469 79.460938 39.621094 80.550781 39.054688 81.640625 C 38.425781 82.882812 37.804688 84.132812 37.1875 85.386719 C 36.445312 86.917969 35.714844 88.460938 34.992188 90 C 34.742188 90.527344 34.511719 91.054688 34.261719 91.570312 C 34.011719 92.085938 33.757812 92.578125 33.515625 93.078125 C 33.050781 94.023438 32.59375 94.984375 32.136719 95.9375 C 31.757812 96.714844 31.375 97.488281 31.007812 98.269531 C 30.640625 99.046875 30.335938 99.75 29.976562 100.46875 C 29.128906 102.191406 28.253906 103.90625 27.410156 105.632812 C 26.847656 106.789062 26.316406 107.953125 25.761719 109.109375 C 25.425781 109.804688 25.0625 110.492188 24.726562 111.191406 C 24.335938 111.984375 23.953125 112.761719 23.574219 113.574219 C 23.113281 114.539062 22.628906 115.507812 22.214844 116.488281 C 21.800781 117.46875 21.433594 118.417969 21.023438 119.378906 C 20.777344 119.96875 20.527344 120.546875 20.628906 121.230469 C 22.25 122.203125 24 122.808594 25.875 123.050781 C 27.757812 123.289062 29.59375 123.136719 31.40625 122.960938 C 31.515625 122.183594 31.601562 121.484375 31.71875 120.792969 C 31.835938 119.933594 31.996094 119.082031 32.199219 118.238281 C 32.699219 116.453125 33.273438 114.691406 33.804688 112.914062 C 34.191406 111.746094 34.507812 110.585938 34.863281 109.421875 C 35.328125 107.890625 35.773438 106.355469 36.285156 104.839844 C 36.929688 102.925781 37.605469 101.019531 38.335938 99.136719 C 39.097656 97.167969 39.945312 95.230469 40.730469 93.269531 C 41.140625 92.25 41.484375 91.203125 41.886719 90.1875 C 42.320312 89.105469 42.753906 88.023438 43.253906 86.976562 C 43.617188 86.222656 43.828125 85.421875 44.195312 84.671875 C 44.707031 83.679688 45.0625 82.609375 45.476562 81.570312 C 45.75 80.882812 46.007812 80.1875 46.261719 79.492188 C 46.425781 79.046875 46.574219 78.601562 46.722656 78.152344 C 47.015625 77.230469 47.289062 76.300781 47.582031 75.378906 C 47.824219 74.636719 48.09375 73.90625 48.339844 73.179688 C 48.769531 71.890625 49.183594 70.59375 49.621094 69.300781 C 49.785156 68.816406 49.996094 68.359375 50.175781 67.871094 C 50.644531 66.617188 51.144531 65.339844 51.566406 64.050781 C 51.921875 62.976562 52.214844 61.871094 52.472656 60.765625 C 52.710938 59.757812 52.835938 58.71875 53.078125 57.710938 C 53.34375 56.675781 53.523438 55.628906 53.625 54.570312 C 53.710938 53.519531 53.683594 52.472656 53.542969 51.429688 C 53.492188 51.066406 53.492188 50.695312 53.476562 50.328125 C 53.480469 49.679688 53.453125 49.03125 53.394531 48.382812 C 53.273438 47.496094 53.0625 46.617188 52.882812 45.734375 C 52.835938 45.570312 52.777344 45.402344 52.710938 45.242188 C 52.378906 45.929688 52.085938 46.5625 51.769531 47.1875 C 51.394531 47.9375 50.96875 48.671875 50.625 49.4375 C 50.046875 50.734375 49.519531 52.054688 48.957031 53.355469 C 48.53125 54.328125 48.074219 55.28125 47.636719 56.246094 C 47.34375 56.875 47.078125 57.539062 46.777344 58.179688 C 46.300781 59.164062 45.804688 60.136719 45.324219 61.121094 C 44.726562 62.351562 44.144531 63.585938 43.546875 64.8125 C 43.289062 65.347656 43.023438 65.878906 42.753906 66.414062 C 42.566406 66.792969 42.386719 67.171875 42.179688 67.535156 C 41.726562 68.332031 41.238281 69.105469 40.804688 69.914062 C 40.371094 70.722656 39.953125 71.554688 39.546875 72.375 C 39.109375 73.253906 38.679688 74.136719 38.246094 75.019531 C 37.5 76.53125 36.757812 78.050781 36 79.558594 C 35.835938 79.839844 35.652344 80.105469 35.449219 80.363281 C 35.476562 80.242188 35.515625 80.121094 35.566406 80.007812 C 35.78125 79.589844 36.015625 79.183594 36.226562 78.769531 C 36.855469 77.554688 37.484375 76.351562 38.066406 75.128906 C 38.574219 74.085938 39.007812 73.011719 39.539062 71.988281 C 40.269531 70.539062 41.050781 69.113281 41.804688 67.675781 C 42.320312 66.699219 42.84375 65.734375 43.328125 64.746094 C 43.957031 63.488281 44.511719 62.234375 45.109375 60.976562 C 45.515625 60.125 45.960938 59.285156 46.367188 58.429688 C 47.058594 56.933594 47.730469 55.433594 48.402344 53.929688 C 48.847656 52.9375 49.285156 51.945312 49.710938 50.949219 C 50.050781 50.164062 50.339844 49.355469 50.699219 48.582031 C 51.230469 47.46875 51.8125 46.382812 52.382812 45.285156 C 52.453125 45.179688 52.535156 45.085938 52.628906 44.996094 C 52.367188 43.925781 52.117188 42.800781 51.8125 41.683594 C 51.539062 40.550781 51.199219 39.4375 50.792969 38.34375 C 50.566406 37.699219 50.371094 37.046875 50.210938 36.382812 C 50.023438 35.734375 49.871094 35.078125 49.625 34.457031 C 49.371094 33.785156 49.230469 33.09375 49.199219 32.378906 C 49.199219 31.894531 49.230469 31.414062 49.296875 30.933594 C 48.328125 31.460938 47.355469 31.996094 46.378906 32.503906 C 46.191406 32.582031 46.003906 32.640625 45.808594 32.679688 C 45.84375 32.632812 45.882812 32.59375 45.929688 32.5625 C 46.558594 32.199219 47.226562 31.847656 47.867188 31.476562 C 48.097656 31.347656 48.316406 31.164062 48.554688 31.019531 C 48.484375 30.964844 48.464844 30.945312 48.445312 30.9375 C 47.566406 30.757812 46.691406 30.597656 45.816406 30.398438 C 45.191406 30.253906 44.5625 30.082031 43.933594 29.890625 C 43.652344 29.804688 43.378906 29.679688 43.101562 29.574219 Z M 43.757812 86.617188 L 43.671875 86.597656 C 43.449219 87.160156 43.234375 87.726562 43 88.285156 C 42.535156 89.40625 42.058594 90.515625 41.59375 91.640625 C 40.929688 93.269531 40.289062 94.914062 39.628906 96.546875 C 39.136719 97.769531 38.601562 98.976562 38.132812 100.203125 C 37.667969 101.433594 37.191406 102.75 36.777344 104.042969 C 36.398438 105.195312 36.074219 106.367188 35.726562 107.527344 C 35.296875 108.957031 34.855469 110.386719 34.429688 111.816406 C 33.9375 113.460938 33.484375 115.125 32.96875 116.757812 C 32.367188 118.699219 32.007812 120.683594 31.890625 122.710938 C 31.855469 123.011719 31.976562 123.230469 32.246094 123.371094 C 33.257812 124.027344 34.40625 124.347656 35.550781 124.660156 C 35.941406 124.777344 36.339844 124.839844 36.746094 124.847656 C 37.527344 124.847656 38.316406 124.808594 39.085938 124.734375 C 39.738281 124.671875 40.378906 124.550781 41.019531 124.433594 C 41.332031 124.378906 41.527344 124.195312 41.597656 123.882812 C 41.914062 122.792969 41.914062 121.65625 41.976562 120.53125 C 42.023438 119.464844 42 118.390625 42.03125 117.324219 C 42.058594 116.503906 42.136719 115.6875 42.167969 114.871094 C 42.207031 113.761719 42.21875 112.648438 42.257812 111.535156 C 42.320312 109.980469 42.410156 108.425781 42.464844 106.871094 C 42.523438 105.378906 42.539062 103.882812 42.597656 102.386719 C 42.648438 101.128906 42.734375 99.875 42.804688 98.617188 C 42.859375 97.695312 42.917969 96.777344 42.972656 95.855469 C 43.039062 94.734375 43.089844 93.609375 43.167969 92.488281 C 43.238281 91.457031 43.316406 90.425781 43.417969 89.394531 C 43.484375 88.742188 43.597656 88.089844 43.683594 87.4375 C 43.714844 87.160156 43.730469 86.882812 43.757812 86.617188 Z M 51.664062 25.09375 C 51.859375 24.644531 51.996094 24.289062 52.164062 23.949219 C 52.902344 22.539062 53.527344 21.082031 54.027344 19.570312 C 54.285156 18.796875 54.480469 18.003906 54.609375 17.199219 C 54.640625 16.820312 54.625 16.441406 54.5625 16.066406 C 54.546875 15.941406 54.488281 15.84375 54.386719 15.773438 C 54.285156 15.703125 54.175781 15.679688 54.054688 15.710938 C 53.800781 15.71875 53.546875 15.738281 53.292969 15.777344 C 52.039062 16.019531 50.804688 16.253906 49.578125 16.550781 C 48.722656 16.757812 47.882812 17.050781 47.066406 17.332031 C 46.613281 17.484375 46.179688 17.6875 45.703125 17.878906 C 45.992188 18.140625 46.253906 18.347656 46.480469 18.585938 C 46.996094 19.136719 47.515625 19.6875 47.996094 20.269531 C 48.722656 21.160156 49.425781 22.074219 50.121094 22.984375 C 50.609375 23.660156 51.109375 24.351562 51.664062 25.09375 Z M 51.664062 25.09375 " fill-opacity="1" fill-rule="nonzero"/></g><path fill="#000000" d="M 36.886719 63.851562 C 37.125 63.484375 37.347656 63.101562 37.597656 62.746094 C 38.203125 61.878906 38.832031 61.03125 39.433594 60.15625 C 40.460938 58.664062 41.492188 57.167969 42.496094 55.660156 C 42.976562 54.9375 43.398438 54.175781 43.855469 53.4375 C 44.566406 52.285156 45.300781 51.148438 45.992188 49.984375 C 46.8125 48.589844 47.636719 47.195312 48.386719 45.765625 C 49.050781 44.507812 49.621094 43.191406 50.21875 41.894531 C 50.460938 41.367188 50.667969 40.828125 50.890625 40.289062 L 51.003906 40.328125 C 50.871094 40.707031 50.765625 41.101562 50.605469 41.46875 C 49.578125 43.933594 48.398438 46.328125 47.070312 48.648438 C 46.585938 49.46875 46.035156 50.25 45.535156 51.066406 C 45.035156 51.882812 44.59375 52.671875 44.117188 53.464844 C 43.730469 54.09375 43.328125 54.722656 42.921875 55.351562 C 42.472656 56.03125 42.011719 56.703125 41.546875 57.378906 C 41.167969 57.921875 40.78125 58.457031 40.398438 59 C 39.738281 59.945312 39.085938 60.917969 38.417969 61.871094 C 37.941406 62.554688 37.449219 63.226562 36.964844 63.902344 Z M 36.886719 63.851562 " fill-opacity="1" fill-rule="nonzero"/><path fill="#000000" d="M 51.925781 43.1875 C 51.8125 43.535156 51.71875 43.886719 51.589844 44.222656 C 51.054688 45.617188 50.425781 46.96875 49.707031 48.28125 C 49.308594 49.015625 49.019531 49.808594 48.65625 50.566406 C 48.171875 51.582031 47.671875 52.589844 47.164062 53.59375 C 46.847656 54.207031 46.535156 54.816406 46.179688 55.410156 C 45.703125 56.21875 45.207031 57.011719 44.707031 57.804688 C 44.097656 58.777344 43.476562 59.742188 42.847656 60.699219 C 42.128906 61.800781 41.390625 62.898438 40.667969 63.992188 C 40.457031 64.304688 40.265625 64.660156 40.066406 64.996094 L 39.957031 64.941406 C 39.988281 64.863281 40.023438 64.789062 40.066406 64.71875 C 40.378906 64.265625 40.695312 63.824219 41.007812 63.363281 C 41.476562 62.644531 41.917969 61.914062 42.382812 61.195312 C 43.058594 60.136719 43.761719 59.097656 44.40625 58.023438 C 45.1875 56.722656 45.941406 55.402344 46.667969 54.070312 C 47.179688 53.128906 47.613281 52.183594 48.078125 51.214844 C 48.410156 50.539062 48.734375 49.859375 49.058594 49.183594 C 49.464844 48.34375 49.875 47.507812 50.269531 46.671875 C 50.664062 45.835938 51.03125 45.027344 51.398438 44.195312 C 51.507812 43.957031 51.574219 43.691406 51.671875 43.441406 C 51.714844 43.34375 51.765625 43.246094 51.828125 43.152344 Z M 51.925781 43.1875 " fill-opacity="1" fill-rule="nonzero"/><path fill="#000000" d="M 38.972656 52.871094 C 39.730469 51.957031 40.488281 51.042969 41.238281 50.125 C 41.886719 49.332031 42.558594 48.554688 43.152344 47.734375 C 44.035156 46.503906 44.871094 45.238281 45.710938 43.964844 C 46.421875 42.886719 47.144531 41.816406 47.78125 40.699219 C 48.417969 39.578125 48.917969 38.480469 49.472656 37.363281 C 49.632812 37.046875 49.761719 36.714844 49.90625 36.390625 L 50 36.390625 C 49.996094 36.535156 49.972656 36.675781 49.933594 36.8125 C 49.484375 37.78125 49.070312 38.773438 48.558594 39.707031 C 47.929688 40.839844 47.273438 41.945312 46.570312 43.023438 C 45.550781 44.59375 44.488281 46.117188 43.429688 47.644531 C 43.027344 48.222656 42.578125 48.765625 42.136719 49.3125 C 41.582031 49.996094 41.023438 50.667969 40.460938 51.335938 C 40.082031 51.785156 39.691406 52.222656 39.296875 52.65625 C 39.203125 52.734375 39.097656 52.796875 38.984375 52.84375 Z M 38.972656 52.871094 " fill-opacity="1" fill-rule="nonzero"/><path fill="#000000" d="M 41.183594 43.796875 C 43.996094 40.757812 47.019531 37.929688 49.269531 34.398438 L 49.359375 34.449219 C 49.292969 34.640625 49.207031 34.824219 49.101562 34.996094 C 48.390625 35.96875 47.683594 36.949219 46.9375 37.894531 C 46.453125 38.503906 45.910156 39.070312 45.367188 39.640625 C 44.484375 40.582031 43.59375 41.542969 42.6875 42.464844 C 42.222656 42.949219 41.71875 43.410156 41.230469 43.855469 Z M 41.183594 43.796875 " fill-opacity="1" fill-rule="nonzero"/><path fill="#000000" d="M 41.367188 39.203125 C 41.476562 39.0625 41.597656 38.929688 41.730469 38.808594 C 42.570312 38.152344 43.414062 37.507812 44.246094 36.863281 C 45.207031 36.125 46.1875 35.414062 47.121094 34.640625 C 47.578125 34.214844 48 33.757812 48.398438 33.273438 C 48.550781 33.109375 48.710938 32.9375 48.847656 32.765625 L 48.949219 32.839844 C 48.773438 33.15625 48.5625 33.453125 48.328125 33.730469 C 47.558594 34.425781 46.757812 35.074219 45.960938 35.738281 C 45.566406 36.050781 45.175781 36.390625 44.773438 36.703125 C 43.996094 37.296875 43.203125 37.882812 42.425781 38.464844 C 42.082031 38.71875 41.726562 38.957031 41.375 39.203125 Z M 41.367188 39.203125 " fill-opacity="1" fill-rule="nonzero"/><path fill="#000000" d="M 35.609375 71.570312 C 35.902344 71.085938 36.175781 70.582031 36.488281 70.109375 C 37.011719 69.308594 37.5625 68.539062 38.085938 67.738281 C 38.613281 66.9375 39.144531 66.089844 39.65625 65.269531 C 39.699219 65.21875 39.753906 65.199219 39.816406 65.207031 C 39.574219 65.609375 39.339844 66.023438 39.082031 66.414062 C 38.566406 67.203125 38.035156 67.984375 37.511719 68.765625 C 36.992188 69.550781 36.449219 70.445312 35.90625 71.28125 C 35.8125 71.390625 35.707031 71.484375 35.589844 71.570312 Z M 35.609375 71.570312 " fill-opacity="1" fill-rule="nonzero"/><path fill="#000000" d="M 38.96875 52.863281 C 38.96875 52.9375 38.996094 53.03125 38.96875 53.078125 C 38.710938 53.429688 38.453125 53.777344 38.179688 54.117188 C 37.6875 54.71875 37.179688 55.308594 36.695312 55.917969 C 36.257812 56.460938 35.84375 57.023438 35.390625 57.554688 C 36.472656 55.90625 37.792969 54.441406 38.980469 52.871094 Z M 38.96875 52.863281 " fill-opacity="1" fill-rule="nonzero"/><path fill="#000000" d="M 35.601562 71.566406 C 35.488281 71.785156 35.382812 72.011719 35.25 72.222656 C 34.777344 72.992188 34.308594 73.753906 33.761719 74.492188 C 33.910156 74.214844 34.042969 73.925781 34.207031 73.65625 C 34.617188 73.007812 35.039062 72.371094 35.464844 71.730469 C 35.511719 71.671875 35.5625 71.617188 35.617188 71.570312 Z M 35.601562 71.566406 " fill-opacity="1" fill-rule="nonzero"/><path fill="#000000" d="M 39.21875 45.636719 L 40.402344 44.527344 L 40.460938 44.589844 L 39.265625 45.695312 Z M 39.21875 45.636719 " fill-opacity="1" fill-rule="nonzero"/><path fill="#000000" d="M 45.816406 32.691406 C 45.691406 32.800781 45.5625 32.898438 45.421875 32.984375 C 45.128906 33.128906 44.824219 33.253906 44.507812 33.390625 C 44.902344 33.074219 45.339844 32.84375 45.820312 32.699219 Z M 45.816406 32.691406 " fill-opacity="1" fill-rule="nonzero"/><path fill="#000000" d="M 35.449219 80.363281 C 35.238281 80.828125 35.023438 81.289062 34.796875 81.75 L 34.6875 81.691406 C 34.890625 81.222656 35.140625 80.78125 35.449219 80.371094 Z M 35.449219 80.363281 " fill-opacity="1" fill-rule="nonzero"/><path fill="#000000" d="M 41.238281 24.800781 L 40.417969 24.109375 L 40.484375 24.03125 L 41.292969 24.738281 Z M 41.238281 24.800781 " fill-opacity="1" fill-rule="nonzero"/><path fill="#000000" d="M 42.019531 29.136719 L 43.089844 29.605469 L 42.027344 29.136719 Z M 42.019531 29.136719 " fill-opacity="1" fill-rule="nonzero"/><path fill="#000000" d="M 40.871094 39.5625 C 40.898438 39.25 41.105469 39.191406 41.367188 39.203125 L 40.863281 39.554688 Z M 40.871094 39.5625 " fill-opacity="1" fill-rule="nonzero"/><path fill="#000000" d="M 36.015625 65.164062 L 36.257812 64.738281 L 36.328125 64.777344 L 36.078125 65.210938 Z M 36.015625 65.164062 " fill-opacity="1" fill-rule="nonzero"/><path fill="#000000" d="M 39.40625 40.363281 L 39.050781 40.757812 L 38.984375 40.691406 L 39.40625 40.351562 Z M 39.40625 40.363281 " fill-opacity="1" fill-rule="nonzero"/><path fill="#000000" d="M 40.859375 39.554688 C 40.738281 39.65625 40.613281 39.757812 40.488281 39.867188 L 40.421875 39.765625 L 40.871094 39.574219 Z M 40.859375 39.554688 " fill-opacity="1" fill-rule="nonzero"/><path fill="#000000" d="M 36.390625 64.554688 C 36.464844 64.449219 36.546875 64.351562 36.625 64.242188 L 36.691406 64.285156 L 36.476562 64.597656 Z M 36.390625 64.554688 " fill-opacity="1" fill-rule="nonzero"/><path fill="#000000" d="M 40.75 44.183594 L 41.011719 43.972656 L 41.050781 44.019531 L 40.804688 44.246094 Z M 40.75 44.183594 " fill-opacity="1" fill-rule="nonzero"/><path fill="#000000" d="M 39.847656 40.148438 C 39.796875 40.40625 39.613281 40.394531 39.421875 40.363281 L 39.855469 40.15625 Z M 39.847656 40.148438 " fill-opacity="1" fill-rule="nonzero"/><path fill="#000000" d="M 39.847656 40.15625 L 40.160156 39.945312 L 40.203125 40.011719 L 39.84375 40.148438 Z M 39.847656 40.15625 " fill-opacity="1" fill-rule="nonzero"/><path fill="#000000" d="M 40.015625 23.585938 L 40.132812 23.746094 L 40.085938 23.78125 L 39.957031 23.625 Z M 40.015625 23.585938 " fill-opacity="1" fill-rule="nonzero"/><path fill="#000000" d="M 35.324219 66.292969 L 35.273438 66.339844 C 35.273438 66.324219 35.238281 66.304688 35.242188 66.296875 C 35.253906 66.277344 35.269531 66.265625 35.292969 66.257812 C 35.292969 66.257812 35.3125 66.28125 35.324219 66.292969 Z M 35.324219 66.292969 " fill-opacity="1" fill-rule="nonzero"/><path fill="#000000" d="M 35.578125 65.8125 L 35.613281 65.8125 C 35.613281 65.832031 35.613281 65.847656 35.613281 65.863281 C 35.613281 65.863281 35.585938 65.863281 35.566406 65.863281 Z M 35.578125 65.8125 " fill-opacity="1" fill-rule="nonzero"/><path fill="#000000" d="M 35.894531 65.410156 L 35.808594 65.519531 L 35.769531 65.496094 L 35.84375 65.367188 Z M 35.894531 65.410156 " fill-opacity="1" fill-rule="nonzero"/><path fill="#000000" d="M 34.917969 58.285156 C 34.898438 58.332031 34.871094 58.378906 34.847656 58.421875 C 34.824219 58.417969 34.808594 58.410156 34.789062 58.402344 L 34.859375 58.246094 Z M 34.917969 58.285156 " fill-opacity="1" fill-rule="nonzero"/><path fill="#000000" d="M 35.160156 57.9375 L 35.046875 58.117188 L 34.992188 58.0625 L 35.167969 57.945312 Z M 35.160156 57.9375 " fill-opacity="1" fill-rule="nonzero"/><path fill="#000000" d="M 35.167969 57.945312 L 35.214844 57.703125 L 35.300781 57.734375 L 35.160156 57.9375 Z M 35.167969 57.945312 " fill-opacity="1" fill-rule="nonzero"/><path fill="#000000" d="M 42.027344 29.136719 L 41.816406 29.136719 L 41.816406 29.070312 L 42.011719 29.140625 Z M 42.027344 29.136719 " fill-opacity="1" fill-rule="nonzero"/><path fill="#000000" d="M 56.898438 101.207031 L 57.8125 103.457031 C 58.277344 104.597656 58.757812 105.734375 59.199219 106.875 C 59.234375 107.003906 59.25 107.136719 59.246094 107.269531 C 58.617188 105.699219 58 104.128906 57.386719 102.554688 C 57.253906 102.226562 57.117188 101.898438 56.992188 101.5625 C 56.953125 101.445312 56.925781 101.324219 56.902344 101.199219 Z M 56.898438 101.207031 " fill-opacity="1" fill-rule="nonzero"/><path fill="#000000" d="M 50.484375 96.277344 C 50.550781 96.476562 50.632812 96.667969 50.683594 96.867188 C 50.988281 98.035156 51.285156 99.207031 51.578125 100.382812 C 51.605469 100.542969 51.617188 100.703125 51.613281 100.863281 C 51.472656 100.394531 51.316406 99.921875 51.199219 99.460938 C 50.964844 98.539062 50.75 97.613281 50.53125 96.683594 C 50.507812 96.546875 50.492188 96.410156 50.488281 96.269531 Z M 50.484375 96.277344 " fill-opacity="1" fill-rule="nonzero"/><path fill="#000000" d="M 47.121094 83.011719 C 47.125 83.972656 47.027344 84.917969 46.824219 85.859375 L 46.730469 85.859375 C 46.730469 85.714844 46.75 85.570312 46.777344 85.425781 C 46.800781 85.285156 46.859375 85.113281 46.878906 84.945312 C 46.9375 84.382812 46.988281 83.816406 47.050781 83.25 C 47.066406 83.171875 47.09375 83.101562 47.132812 83.03125 Z M 47.121094 83.011719 " fill-opacity="1" fill-rule="nonzero"/><path fill="#000000" d="M 50 93.214844 C 49.960938 93.171875 49.890625 93.136719 49.886719 93.09375 C 49.746094 92.148438 49.617188 91.191406 49.488281 90.242188 C 49.566406 90.460938 49.628906 90.683594 49.675781 90.910156 C 49.792969 91.679688 49.894531 92.449219 49.988281 93.214844 Z M 50 93.214844 " fill-opacity="1" fill-rule="nonzero"/><path fill="#000000" d="M 56.296875 86.53125 C 56.257812 86.5 56.1875 86.476562 56.175781 86.4375 C 55.992188 85.871094 55.84375 85.300781 55.726562 84.71875 C 55.917969 85.324219 56.101562 85.929688 56.289062 86.535156 Z M 56.296875 86.53125 " fill-opacity="1" fill-rule="nonzero"/><path fill="#000000" d="M 49.992188 93.234375 C 50.085938 93.753906 50.183594 94.273438 50.28125 94.804688 L 50.21875 94.804688 C 50.113281 94.359375 50.003906 93.910156 49.90625 93.460938 C 49.90625 93.390625 49.960938 93.300781 49.992188 93.222656 Z M 49.992188 93.234375 " fill-opacity="1" fill-rule="nonzero"/><path fill="#000000" d="M 56.179688 99.371094 C 56.34375 99.773438 56.496094 100.175781 56.664062 100.578125 C 56.503906 100.175781 56.351562 99.769531 56.1875 99.367188 Z M 56.179688 99.371094 " fill-opacity="1" fill-rule="nonzero"/><path fill="#000000" d="M 56.289062 86.535156 C 56.410156 86.898438 56.625 87.242188 56.574219 87.640625 L 56.464844 87.660156 C 56.40625 87.285156 56.351562 86.90625 56.296875 86.53125 Z M 56.289062 86.535156 " fill-opacity="1" fill-rule="nonzero"/><path fill="#000000" d="M 56.207031 99.363281 C 56.039062 99 55.871094 98.640625 55.710938 98.277344 L 55.808594 98.238281 L 56.179688 99.371094 Z M 56.207031 99.363281 " fill-opacity="1" fill-rule="nonzero"/><path fill="#000000" d="M 50.335938 95.035156 C 50.371094 95.28125 50.402344 95.527344 50.441406 95.769531 L 50.355469 95.785156 C 50.308594 95.539062 50.265625 95.292969 50.21875 95.050781 Z M 50.335938 95.035156 " fill-opacity="1" fill-rule="nonzero"/><path fill="#000000" d="M 49.101562 87.03125 L 49.007812 86.242188 L 49.058594 86.242188 C 49.097656 86.5 49.136719 86.757812 49.175781 87.019531 Z M 49.101562 87.03125 " fill-opacity="1" fill-rule="nonzero"/><path fill="#000000" d="M 48.859375 83.710938 L 48.90625 83.710938 L 48.90625 84.339844 L 48.859375 84.339844 Z M 48.859375 83.710938 " fill-opacity="1" fill-rule="nonzero"/><path fill="#000000" d="M 55.058594 96.414062 L 54.746094 95.660156 L 54.839844 95.628906 L 55.039062 96.417969 Z M 55.058594 96.414062 " fill-opacity="1" fill-rule="nonzero"/><path fill="#000000" d="M 49.488281 90.253906 C 49.445312 90.023438 49.40625 89.792969 49.367188 89.5625 L 49.476562 89.5625 L 49.476562 90.269531 Z M 49.488281 90.253906 " fill-opacity="1" fill-rule="nonzero"/><path fill="#000000" d="M 49.269531 88.730469 C 49.246094 88.542969 49.222656 88.355469 49.199219 88.167969 L 49.28125 88.167969 C 49.304688 88.359375 49.324219 88.550781 49.34375 88.742188 Z M 49.269531 88.730469 " fill-opacity="1" fill-rule="nonzero"/><path fill="#000000" d="M 56.675781 100.578125 L 56.898438 101.207031 Z M 56.675781 100.578125 " fill-opacity="1" fill-rule="nonzero"/><path fill="#000000" d="M 48.925781 85 L 48.867188 84.578125 L 48.917969 84.578125 L 48.992188 84.996094 Z M 48.925781 85 " fill-opacity="1" fill-rule="nonzero"/><path fill="#000000" d="M 55.050781 96.417969 L 55.269531 96.796875 L 55.199219 96.828125 C 55.148438 96.691406 55.101562 96.550781 55.058594 96.414062 Z M 55.050781 96.417969 " fill-opacity="1" fill-rule="nonzero"/><path fill="#000000" d="M 47.207031 82.21875 L 47.207031 81.792969 L 47.257812 81.792969 C 47.257812 81.941406 47.257812 82.109375 47.234375 82.238281 Z M 47.207031 82.21875 " fill-opacity="1" fill-rule="nonzero"/><path fill="#000000" d="M 47.132812 83.023438 L 47.09375 82.5625 L 47.207031 82.5625 L 47.121094 83.003906 Z M 47.132812 83.023438 " fill-opacity="1" fill-rule="nonzero"/><path fill="#000000" d="M 48.957031 85.675781 L 48.957031 85.460938 L 48.996094 85.460938 C 48.996094 85.535156 48.996094 85.605469 49.023438 85.679688 Z M 48.957031 85.675781 " fill-opacity="1" fill-rule="nonzero"/><path fill="#000000" d="M 47.242188 81.519531 L 47.269531 81.207031 L 47.316406 81.207031 L 47.316406 81.519531 Z M 47.242188 81.519531 " fill-opacity="1" fill-rule="nonzero"/><path fill="#000000" d="M 48.765625 82.988281 C 48.78125 83.109375 48.789062 83.164062 48.796875 83.21875 L 48.765625 83.21875 Z M 48.765625 82.988281 " fill-opacity="1" fill-rule="nonzero"/><path fill="#000000" d="M 50.492188 96.269531 L 50.402344 96.003906 L 50.515625 96.003906 C 50.515625 96.097656 50.492188 96.191406 50.484375 96.285156 Z M 50.492188 96.269531 " fill-opacity="1" fill-rule="nonzero"/><path fill="#000000" d="M 55.5 97.449219 C 55.527344 97.535156 55.554688 97.628906 55.585938 97.71875 L 55.542969 97.734375 L 55.433594 97.492188 Z M 55.5 97.449219 " fill-opacity="1" fill-rule="nonzero"/><path fill="#000000" d="M 49.207031 87.929688 L 49.175781 87.769531 L 49.226562 87.769531 L 49.261719 87.929688 Z M 49.207031 87.929688 " fill-opacity="1" fill-rule="nonzero"/><path fill="#000000" d="M 49.136719 87.304688 L 49.160156 87.304688 L 49.160156 87.464844 L 49.136719 87.464844 Z M 49.136719 87.304688 " fill-opacity="1" fill-rule="nonzero"/><path fill="#000000" d="M 55.328125 97.054688 L 55.410156 97.175781 L 55.363281 97.210938 L 55.28125 97.085938 Z M 55.328125 97.054688 " fill-opacity="1" fill-rule="nonzero"/><g clip-path="url(#7aa6a4d97c)"><path stroke-linecap="butt" transform="matrix(0.0913043, 0, 0, 0.0913311, 86.763359, 15.003956)" fill="none" stroke-linejoin="miter" d="M 275.246195 -0.000545649 L 305.236896 -0.000545649 C 314.221272 2.993368 322.991734 6.928227 330.179234 13.129906 C 330.949323 14.156391 331.762195 15.140105 332.575067 16.12382 C 322.649472 12.916055 313.365617 7.911941 303.140542 5.730661 C 285.94188 2.137964 267.844781 6.372214 252.485777 14.370242 C 251.844035 14.02808 251.202294 13.728689 250.560553 13.429297 C 258.133098 7.869171 265.96234 2.180735 275.246195 -0.000545649 Z M 275.246195 -0.000545649 " stroke="#010101" stroke-width="0.1" stroke-opacity="1" stroke-miterlimit="10"/><path fill="#010101" d="M 111.894531 15.003906 L 114.632812 15.003906 C 115.453125 15.277344 116.253906 15.636719 116.910156 16.203125 C 116.980469 16.296875 117.054688 16.386719 117.128906 16.476562 C 116.222656 16.183594 115.375 15.726562 114.441406 15.527344 C 112.871094 15.199219 111.21875 15.585938 109.816406 16.316406 C 109.757812 16.285156 109.699219 16.257812 109.640625 16.230469 C 110.332031 15.722656 111.046875 15.203125 111.894531 15.003906 " fill-opacity="1" fill-rule="nonzero"/></g><g clip-path="url(#39a1b2b16c)"><path stroke-linecap="butt" transform="matrix(0.0913043, 0, 0, 0.0913311, 86.763359, 15.003956)" fill="none" stroke-linejoin="miter" d="M 268.572087 19.588206 C 277.085853 16.679832 286.155794 18.3051 294.969038 17.834628 C 307.889426 16.808143 319.65468 23.394754 330.607061 29.382582 C 333.08846 30.836768 335.612642 28.612718 337.837345 27.629004 C 336.553862 24.592319 335.184815 21.598405 334.029681 18.476181 C 337.837345 20.058678 338.821348 24.335698 340.618223 27.629004 C 333.601853 36.653516 322.735037 41.016076 313.10892 46.533432 C 306.306465 49.612886 299.632357 52.948962 292.487639 54.959161 C 299.717922 64.667997 306.948206 74.505143 311.996569 85.625395 C 316.23206 95.24869 320.809814 104.829214 323.291213 115.094062 C 315.932581 106.197861 311.140914 95.24869 302.712714 87.165122 C 300.231315 89.303632 296.594782 91.228291 296.466434 94.906528 C 296.680348 101.407598 298.605571 107.652048 300.102967 113.896497 C 302.584366 125.2306 305.835854 136.393622 307.589947 147.898806 C 310.071346 163.082227 313.536748 178.265648 313.493965 193.70569 C 315.29084 204.44101 313.322834 215.390181 315.119709 226.125501 C 315.376406 241.052301 315.119709 255.979101 315.248057 270.86313 C 320.339204 266.671651 324.831391 261.667538 328.211228 255.979101 C 338.607434 239.084872 344.468669 219.923822 349.730947 200.933854 C 357.774102 169.112825 362.565769 136.479162 364.319861 103.717189 C 363.763686 91.869844 365.731692 79.594796 362.180724 68.046842 C 361.111156 62.443946 352.896869 61.460232 353.495828 55.087472 C 352.383477 49.869507 356.020009 45.079245 355.207137 39.989591 C 351.741735 31.13616 341.687791 27.158531 337.794562 18.518951 C 350.329905 21.127933 359.956022 30.152445 369.967183 37.50892 C 378.865993 44.779854 389.176634 50.639371 396.193003 60.006045 C 408.386084 73.90636 426.611532 79.509256 443.895759 84.000127 C 469.479838 90.372887 495.534528 95.847472 521.931479 96.788417 C 533.65395 100.723275 541.483191 112.912782 541.953801 125.102289 C 543.96459 147.941576 547.643906 170.567012 550.253653 193.320758 C 551.194873 198.624263 550.852611 204.056078 550.767046 209.445123 C 554.788624 211.155931 559.024115 212.652888 562.06169 215.946194 C 559.195246 220.736456 554.57471 224.756855 553.462359 230.402521 C 552.820618 234.123529 555.815409 236.775281 558.254026 238.999332 C 560.35038 240.624599 560.735425 243.276352 561.505514 245.628713 C 559.024115 246.612427 556.542716 247.638912 554.1041 248.665397 C 556.28602 256.150182 560.649859 262.865103 561.847776 270.649279 C 565.912136 292.675932 565.056481 315.301368 569.120842 337.328021 C 571.302762 354.09394 572.457896 370.988169 573.527464 387.839627 C 574.639815 393.100362 573.484681 398.617718 574.982077 403.878452 L 574.982077 435.40009 C 573.014071 445.793248 572.158416 456.357488 570.447107 466.836187 C 561.206035 474.235431 553.120097 483.088863 542.852239 489.162231 C 536.007 493.524791 529.332893 498.186743 522.530437 502.634844 C 505.288992 514.353879 486.764066 524.105484 469.437056 535.610668 C 471.362279 540.999713 470.036014 546.81646 471.105582 552.376586 C 474.870464 607.550144 478.421431 662.723702 482.314661 717.85449 C 473.373068 723.115225 462.762948 723.671237 452.709004 724.441101 C 452.666221 742.703976 449.200819 760.753 448.815774 778.973106 C 448.045685 794.028216 445.050893 808.869475 444.152456 823.924586 C 442.997322 844.839214 438.29122 865.36891 435.809821 886.112456 C 430.889806 921.226791 420.4936 955.186329 413.77671 989.958502 C 412.621576 998.769163 414.118972 1007.750905 412.878272 1016.561566 C 412.022617 1028.10952 413.263317 1039.700244 412.236531 1051.248198 C 411.081397 1057.449877 412.0654 1063.737097 411.295311 1069.938776 C 409.41287 1083.62524 407.915474 1097.482785 409.669567 1111.212019 C 410.097394 1150.04736 417.456025 1188.455 418.054984 1227.247571 C 419.723511 1236.485934 418.097767 1245.852608 419.381249 1255.133741 C 420.151338 1265.44136 418.825073 1275.877288 420.4936 1286.184907 C 419.723511 1303.635148 424.172916 1320.657688 427.338839 1337.637457 C 429.691889 1351.15284 434.783035 1364.582683 443.810194 1375.061382 C 445.820983 1378.140836 449.84256 1376.85773 452.922918 1377.071581 C 459.254763 1378.654079 460.45268 1386.096094 465.843305 1388.961697 C 470.207145 1391.74176 474.699333 1394.350742 478.806476 1397.472967 C 482.229095 1401.365055 484.325449 1406.155317 484.154318 1411.416052 C 485.908411 1412.827469 487.61972 1414.281655 489.33103 1415.821383 C 489.288247 1418.259284 489.288247 1420.697185 489.33103 1423.177857 C 483.341446 1425.572988 477.394645 1428.01089 471.405062 1430.406021 C 459.126415 1435.281824 445.564286 1436.992632 432.472767 1435.110743 C 425.670312 1434.127028 418.696725 1434.51196 412.022617 1432.843922 C 406.075816 1429.379536 398.973881 1428.267511 393.626039 1423.81941 C 387.935934 1417.959893 384.513315 1409.662474 377.026335 1405.727615 C 374.159892 1403.888497 370.908403 1405.257143 367.913611 1405.855926 C 366.544564 1407.352883 365.132733 1408.84984 363.763686 1410.346797 C 356.319489 1410.432337 349.174771 1408.079976 342.243967 1405.599305 C 334.970901 1402.562621 326.970528 1399.996409 321.579903 1393.92304 C 320.852596 1387.208119 320.381986 1380.450427 320.424769 1373.692736 C 319.355201 1366.806733 319.783028 1359.877961 319.18407 1352.991959 C 316.959367 1352.607027 314.777447 1352.222095 312.552745 1351.922704 C 312.039352 1349.270951 311.654307 1346.619199 311.269263 1343.967447 C 310.071346 1334.515233 304.381241 1326.132273 305.022982 1316.380668 C 305.236896 1306.671832 306.777075 1297.005767 306.948206 1287.296932 C 303.910631 1263.687781 300.060184 1240.078631 299.076181 1216.25563 C 299.589574 1202.013153 297.664351 1187.856217 296.038607 1173.699281 C 294.626776 1162.151327 295.225735 1150.432292 293.043815 1139.012649 C 287.097014 1100.433928 280.123427 1062.069059 273.534885 1023.618649 C 266.43295 981.01953 258.560926 938.505951 253.084735 895.650211 C 252.357428 915.025112 252.913604 934.400012 252.742473 953.774913 C 252.785256 1002.49017 252.656908 1051.205428 252.785256 1099.963456 C 254.068738 1108.688577 252.870821 1117.542008 254.282652 1126.267129 C 254.796045 1131.698944 254.025955 1137.2163 254.967176 1142.648116 C 257.149095 1165.230781 252.870821 1187.642366 250.34664 1209.96841 C 248.549764 1222.414539 249.277071 1234.988977 249.148723 1247.520646 C 249.405419 1273.311076 247.651327 1299.486439 239.522606 1324.164844 C 237.126773 1330.794225 233.575805 1337.722998 235.415463 1344.993931 C 236.698945 1361.88816 233.319109 1378.782389 233.019629 1395.676618 C 227.629004 1401.792757 219.671414 1404.401739 212.056086 1406.454709 C 204.526324 1408.293827 196.739865 1410.346797 188.996189 1408.978151 C 184.974611 1406.71133 180.910251 1404.48728 176.289715 1403.931267 C 173.337706 1404.701131 170.214566 1405.128833 167.604819 1406.7541 C 159.518881 1411.672673 154.769996 1420.697185 146.256231 1425.016976 C 140.822823 1427.839809 134.576543 1428.224741 129.014786 1430.577102 C 121.057197 1434.340879 112.115604 1434.212569 103.644621 1435.966147 C 97.868951 1437.591414 92.007716 1435.880606 86.14648 1435.837836 C 69.632342 1434.51196 54.187773 1427.968119 38.22981 1424.076031 C 38.315376 1420.996577 38.657638 1417.959893 39.641641 1415.094289 C 41.524081 1414.196115 43.449305 1413.297941 45.331745 1412.442537 C 45.759573 1407.139032 47.727579 1401.707217 52.305332 1398.627762 C 58.851091 1394.479053 66.16694 1391.78453 72.88383 1387.935212 C 76.605929 1385.668392 79.001762 1381.904614 82.424382 1379.338402 C 86.488742 1377.114352 91.280409 1378.269147 95.687031 1378.098066 C 103.345142 1373.393344 107.880112 1365.395317 112.628997 1358.081613 C 117.634577 1348.415547 122.297896 1337.551917 120.030411 1326.431665 C 119.345887 1315.183102 117.891274 1304.02008 116.821705 1292.814288 C 118.91806 1291.14625 123.666944 1291.017939 123.239116 1287.553553 C 122.0412 1265.056428 117.591795 1242.516532 120.415455 1219.976637 C 121.099979 1195.683164 126.362256 1171.817392 127.132346 1147.566689 C 128.501393 1139.2265 127.003998 1130.758 128.244697 1122.417811 C 129.314266 1106.934999 127.474608 1091.281106 129.271483 1075.883834 C 127.389042 1046.586247 122.0412 1017.630821 116.308312 988.846477 C 114.126393 969.557117 108.821333 950.780999 106.896109 931.448868 C 104.756972 912.245049 104.243579 892.827378 101.034874 873.709098 C 97.013296 848.859612 95.130856 823.753505 92.136064 798.818478 C 91.066495 779.95682 94.360766 761.266243 96.28599 742.575666 C 97.441124 735.433042 96.842165 728.076568 98.425127 720.976715 C 98.681823 720.292391 99.237999 718.966515 99.494695 718.282192 C 92.606674 715.117197 84.991346 713.66301 78.017759 710.626326 C 75.194098 709.813692 72.284872 707.717953 69.29008 708.787208 C 70.316866 705.921604 70.659128 702.88492 71.086955 699.891006 C 77.889411 644.974069 84.948563 590.099903 91.793802 535.225736 C 90.895364 531.590269 91.751019 527.39879 89.611882 524.191025 C 84.73465 519.443532 79.044545 515.636985 73.440006 511.830437 C 64.156151 505.372137 56.02743 497.45965 47.342534 490.317026 C 41.139037 485.569534 36.860763 478.940153 31.726834 473.166176 C 24.154288 463.500111 16.410612 453.876816 9.950418 443.440887 C 6.057189 436.897047 1.778915 430.310436 0.666564 422.65457 C -0.830832 415.554717 0.880477 408.412093 0.92326 401.31224 C 1.778915 378.729575 7.083975 356.574611 8.281892 333.991946 C 9.907636 316.755555 12.645731 299.647475 15.768871 282.624935 C 18.464184 268.810161 21.801238 255.123697 23.55533 241.137842 C 23.983157 236.304809 28.689259 233.182584 28.774824 228.264011 C 25.865598 226.980905 21.073931 224.414693 23.213068 220.565375 C 25.694467 217.742542 29.673262 216.587747 32.753619 214.406467 C 33.181447 212.90951 33.609274 211.412553 34.079884 209.958366 C 32.325792 207.734315 30.443351 205.467495 29.587697 202.730202 C 28.518128 196.442983 31.726834 190.754546 32.881968 184.766718 C 36.689632 165.006886 40.967906 145.332594 46.572445 126.043234 C 48.925495 118.430138 49.567237 110.38934 52.348115 102.947326 C 54.14499 97.344429 59.535615 93.708962 64.969023 92.212005 C 81.825423 87.892215 99.195216 86.309718 116.179964 82.802561 C 130.597748 79.637567 145.486142 77.755678 159.005488 71.596769 C 166.877512 68.175153 175.391277 65.30955 181.723123 59.278951 C 185.359656 55.301323 188.268882 50.639371 192.76107 47.559917 C 203.285625 40.032361 215.050878 34.600546 225.832129 27.500693 C 224.078037 33.27467 221.724986 38.792026 219.799763 44.480462 C 217.746191 50.853222 218.772977 57.910305 222.110031 63.684282 C 220.997679 71.511229 217.232798 78.782163 214.665834 86.266948 C 210.38756 97.42997 209.232426 109.533936 208.67625 121.381282 C 207.050506 131.389509 208.847381 141.440506 209.660253 151.405962 C 214.066875 178.650579 222.666206 205.510265 236.570597 229.461577 C 245.597755 246.013644 254.753262 262.736793 266.775212 277.406971 C 267.203039 277.19312 268.058694 276.765418 268.486522 276.594337 L 266.90356 274.199206 C 267.160257 257.775449 266.732429 241.351693 267.117474 224.927936 C 268.786001 215.775113 266.989126 206.451209 268.572087 197.298387 C 269.256611 182.884829 269.598873 168.428502 270.754007 154.057714 C 273.791582 133.570789 282.861523 114.49528 284.70118 93.794503 C 282.34813 90.843359 279.652817 88.148836 277.000287 85.454314 C 273.91993 86.994041 270.839572 88.83316 268.999915 91.912614 C 263.78042 98.157063 260.272235 105.812929 254.111521 111.287515 C 256.678485 100.851586 262.796417 91.784303 266.689647 81.861617 C 271.695227 72.580484 274.732802 61.503002 283.888308 55.258553 C 277.941507 51.623086 271.395748 49.185184 265.192251 46.020189 C 254.325434 40.887765 242.602963 36.311354 233.918067 27.800084 C 232.591802 22.453809 238.410255 21.683946 242.303484 22.197188 C 241.105567 23.223673 239.950433 24.292928 238.838082 25.362183 C 240.164347 27.372382 241.704526 29.211501 243.159139 31.13616 C 251.330643 26.688059 259.544929 22.111648 268.572087 19.588206 Z M 268.572087 19.588206 " stroke="#010101" stroke-width="0.1" stroke-opacity="1" stroke-miterlimit="10"/><path fill="#010101" d="M 111.285156 16.792969 C 112.0625 16.527344 112.890625 16.675781 113.695312 16.632812 C 114.875 16.539062 115.949219 17.140625 116.949219 17.6875 C 117.175781 17.820312 117.40625 17.617188 117.609375 17.527344 C 117.492188 17.25 117.367188 16.976562 117.261719 16.691406 C 117.609375 16.835938 117.699219 17.226562 117.863281 17.527344 C 117.222656 18.351562 116.230469 18.75 115.351562 19.253906 C 114.730469 19.535156 114.121094 19.839844 113.46875 20.023438 C 114.128906 20.910156 114.789062 21.808594 115.25 22.824219 C 115.636719 23.703125 116.054688 24.578125 116.28125 25.515625 C 115.609375 24.703125 115.171875 23.703125 114.402344 22.964844 C 114.175781 23.160156 113.84375 23.335938 113.832031 23.671875 C 113.851562 24.265625 114.027344 24.835938 114.164062 25.40625 C 114.390625 26.441406 114.6875 27.460938 114.847656 28.511719 C 115.074219 29.898438 115.390625 31.285156 115.386719 32.695312 C 115.550781 33.675781 115.371094 34.675781 115.535156 35.65625 C 115.558594 37.019531 115.535156 38.382812 115.546875 39.742188 C 116.011719 39.359375 116.421875 38.902344 116.730469 38.382812 C 117.679688 36.839844 118.214844 35.089844 118.695312 33.355469 C 119.429688 30.449219 119.867188 27.46875 120.027344 24.476562 C 119.976562 23.394531 120.15625 22.273438 119.832031 21.21875 C 119.734375 20.707031 118.984375 20.617188 119.039062 20.035156 C 118.9375 19.558594 119.269531 19.121094 119.195312 18.65625 C 118.878906 17.847656 117.960938 17.484375 117.605469 16.695312 C 118.75 16.933594 119.628906 17.757812 120.542969 18.429688 C 121.355469 19.09375 122.296875 19.628906 122.9375 20.484375 C 124.050781 21.753906 125.714844 22.265625 127.292969 22.675781 C 129.628906 23.257812 132.007812 23.757812 134.417969 23.84375 C 135.488281 24.203125 136.203125 25.316406 136.246094 26.429688 C 136.429688 28.515625 136.765625 30.582031 137.003906 32.660156 C 137.089844 33.144531 137.058594 33.640625 137.050781 34.132812 C 137.417969 34.289062 137.804688 34.425781 138.082031 34.726562 C 137.820312 35.164062 137.398438 35.53125 137.296875 36.046875 C 137.238281 36.386719 137.511719 36.628906 137.734375 36.832031 C 137.925781 36.980469 137.960938 37.222656 138.03125 37.4375 C 137.804688 37.527344 137.578125 37.621094 137.355469 37.714844 C 137.554688 38.398438 137.953125 39.011719 138.0625 39.722656 C 138.433594 41.734375 138.355469 43.800781 138.726562 45.8125 C 138.925781 47.34375 139.03125 48.886719 139.128906 50.425781 C 139.230469 50.90625 139.125 51.410156 139.261719 51.890625 L 139.261719 54.769531 C 139.082031 55.71875 139.003906 56.683594 138.847656 57.640625 C 138.003906 58.316406 137.265625 59.125 136.328125 59.679688 C 135.703125 60.078125 135.09375 60.503906 134.472656 60.910156 C 132.898438 61.980469 131.207031 62.871094 129.625 63.921875 C 129.800781 64.414062 129.679688 64.945312 129.777344 65.453125 C 130.121094 70.492188 130.445312 75.53125 130.800781 80.566406 C 129.984375 81.046875 129.015625 81.097656 128.097656 81.167969 C 128.09375 82.835938 127.777344 84.484375 127.742188 86.148438 C 127.671875 87.523438 127.398438 88.878906 127.316406 90.253906 C 127.210938 92.164062 126.78125 94.039062 126.554688 95.933594 C 126.105469 99.140625 125.15625 102.242188 124.542969 105.417969 C 124.4375 106.222656 124.574219 107.042969 124.460938 107.847656 C 124.382812 108.902344 124.496094 109.960938 124.402344 111.015625 C 124.296875 111.582031 124.386719 112.15625 124.316406 112.722656 C 124.144531 113.972656 124.007812 115.238281 124.167969 116.492188 C 124.207031 120.039062 124.878906 123.546875 124.933594 127.089844 C 125.085938 127.933594 124.9375 128.789062 125.054688 129.636719 C 125.125 130.578125 125.003906 131.53125 125.15625 132.472656 C 125.085938 134.066406 125.492188 135.621094 125.78125 137.171875 C 125.996094 138.40625 126.460938 139.632812 127.285156 140.589844 C 127.46875 140.871094 127.835938 140.753906 128.117188 140.773438 C 128.695312 140.917969 128.804688 141.597656 129.296875 141.859375 C 129.695312 142.113281 130.105469 142.351562 130.480469 142.636719 C 130.792969 142.992188 130.984375 143.429688 130.96875 143.910156 C 131.128906 144.039062 131.285156 144.171875 131.441406 144.3125 C 131.4375 144.535156 131.4375 144.757812 131.441406 144.984375 C 130.894531 145.203125 130.351562 145.425781 129.804688 145.644531 C 128.683594 146.089844 127.445312 146.246094 126.25 146.074219 C 125.628906 145.984375 124.992188 146.019531 124.382812 145.867188 C 123.839844 145.550781 123.191406 145.449219 122.703125 145.042969 C 122.183594 144.507812 121.871094 143.75 121.1875 143.390625 C 120.925781 143.222656 120.628906 143.347656 120.355469 143.402344 C 120.230469 143.539062 120.101562 143.675781 119.976562 143.8125 C 119.296875 143.820312 118.644531 143.605469 118.011719 143.378906 C 117.347656 143.101562 116.617188 142.867188 116.125 142.3125 C 116.058594 141.699219 116.015625 141.082031 116.019531 140.464844 C 115.921875 139.835938 115.960938 139.203125 115.90625 138.574219 C 115.703125 138.539062 115.503906 138.503906 115.300781 138.476562 C 115.253906 138.234375 115.21875 137.992188 115.183594 137.75 C 115.074219 136.886719 114.554688 136.121094 114.613281 135.230469 C 114.632812 134.34375 114.773438 133.460938 114.789062 132.574219 C 114.511719 130.417969 114.160156 128.261719 114.070312 126.085938 C 114.117188 124.785156 113.941406 123.492188 113.792969 122.199219 C 113.664062 121.144531 113.71875 120.074219 113.519531 119.03125 C 112.976562 115.507812 112.339844 112.003906 111.738281 108.492188 C 111.089844 104.601562 110.371094 100.71875 109.871094 96.804688 C 109.804688 98.574219 109.855469 100.34375 109.839844 102.113281 C 109.84375 106.5625 109.832031 111.011719 109.84375 115.464844 C 109.960938 116.261719 109.851562 117.070312 109.980469 117.867188 C 110.027344 118.363281 109.957031 118.867188 110.042969 119.363281 C 110.242188 121.425781 109.851562 123.472656 109.621094 125.511719 C 109.457031 126.648438 109.523438 127.796875 109.511719 128.941406 C 109.535156 131.296875 109.375 133.6875 108.632812 135.941406 C 108.414062 136.546875 108.089844 137.179688 108.257812 137.84375 C 108.375 139.386719 108.066406 140.929688 108.039062 142.472656 C 107.546875 143.03125 106.820312 143.269531 106.125 143.457031 C 105.4375 143.625 104.726562 143.8125 104.019531 143.6875 C 103.652344 143.480469 103.28125 143.277344 102.859375 143.226562 C 102.589844 143.296875 102.304688 143.335938 102.066406 143.484375 C 101.328125 143.933594 100.894531 144.757812 100.117188 145.152344 C 99.621094 145.410156 99.050781 145.445312 98.542969 145.660156 C 97.816406 146.003906 97 145.992188 96.226562 146.152344 C 95.699219 146.300781 95.164062 146.144531 94.628906 146.140625 C 93.121094 146.019531 91.710938 145.421875 90.253906 145.066406 C 90.261719 144.785156 90.292969 144.507812 90.382812 144.246094 C 90.554688 144.164062 90.730469 144.082031 90.902344 144.003906 C 90.941406 143.519531 91.121094 143.023438 91.539062 142.742188 C 92.136719 142.363281 92.804688 142.117188 93.417969 141.765625 C 93.757812 141.558594 93.976562 141.214844 94.289062 140.980469 C 94.660156 140.777344 95.097656 140.882812 95.5 140.867188 C 96.199219 140.4375 96.613281 139.707031 97.046875 139.039062 C 97.503906 138.15625 97.929688 137.164062 97.722656 136.148438 C 97.660156 135.121094 97.527344 134.101562 97.429688 133.078125 C 97.621094 132.925781 98.054688 132.914062 98.015625 132.597656 C 97.90625 130.542969 97.5 128.484375 97.757812 126.425781 C 97.820312 124.207031 98.300781 122.027344 98.371094 119.8125 C 98.496094 119.050781 98.359375 118.277344 98.472656 117.515625 C 98.570312 116.101562 98.402344 114.671875 98.566406 113.265625 C 98.394531 110.589844 97.90625 107.945312 97.382812 105.316406 C 97.183594 103.554688 96.699219 101.839844 96.523438 100.074219 C 96.328125 98.320312 96.28125 96.546875 95.988281 94.800781 C 95.621094 92.53125 95.449219 90.238281 95.175781 87.960938 C 95.078125 86.238281 95.378906 84.53125 95.554688 82.824219 C 95.660156 82.171875 95.605469 81.5 95.75 80.851562 C 95.773438 80.789062 95.824219 80.667969 95.847656 80.605469 C 95.21875 80.316406 94.523438 80.183594 93.886719 79.90625 C 93.628906 79.832031 93.363281 79.640625 93.089844 79.738281 C 93.183594 79.476562 93.214844 79.199219 93.253906 78.925781 C 93.875 73.910156 94.519531 68.898438 95.144531 63.886719 C 95.0625 63.554688 95.140625 63.171875 94.945312 62.878906 C 94.5 62.445312 93.980469 62.097656 93.46875 61.75 C 92.621094 61.160156 91.878906 60.4375 91.085938 59.785156 C 90.519531 59.351562 90.128906 58.746094 89.660156 58.21875 C 88.96875 57.335938 88.261719 56.457031 87.671875 55.503906 C 87.316406 54.90625 86.925781 54.304688 86.824219 53.605469 C 86.6875 52.957031 86.84375 52.304688 86.847656 51.65625 C 86.925781 49.59375 87.410156 47.570312 87.519531 45.507812 C 87.667969 43.933594 87.917969 42.371094 88.203125 40.816406 C 88.449219 39.554688 88.753906 38.304688 88.914062 37.027344 C 88.953125 36.585938 89.382812 36.300781 89.390625 35.851562 C 89.125 35.734375 88.6875 35.5 88.882812 35.148438 C 89.109375 34.890625 89.472656 34.785156 89.753906 34.585938 C 89.792969 34.449219 89.832031 34.3125 89.875 34.179688 C 89.714844 33.976562 89.542969 33.769531 89.464844 33.519531 C 89.367188 32.945312 89.660156 32.425781 89.765625 31.878906 C 90.113281 30.074219 90.503906 28.277344 91.015625 26.515625 C 91.230469 25.820312 91.289062 25.085938 91.542969 24.40625 C 91.707031 23.894531 92.199219 23.5625 92.695312 23.425781 C 94.234375 23.03125 95.820312 22.886719 97.371094 22.566406 C 98.6875 22.277344 100.046875 22.105469 101.28125 21.542969 C 102 21.230469 102.777344 20.96875 103.355469 20.417969 C 103.6875 20.054688 103.953125 19.628906 104.363281 19.347656 C 105.324219 18.660156 106.398438 18.164062 107.382812 17.515625 C 107.222656 18.042969 107.007812 18.546875 106.832031 19.066406 C 106.644531 19.648438 106.738281 20.292969 107.042969 20.820312 C 106.941406 21.535156 106.597656 22.199219 106.363281 22.882812 C 105.972656 23.902344 105.867188 25.007812 105.816406 26.089844 C 105.667969 27.003906 105.832031 27.921875 105.90625 28.832031 C 106.308594 31.320312 107.09375 33.773438 108.363281 35.960938 C 109.1875 37.472656 110.023438 39 111.121094 40.339844 C 111.160156 40.320312 111.238281 40.28125 111.277344 40.265625 L 111.132812 40.046875 C 111.15625 38.546875 111.117188 37.046875 111.152344 35.546875 C 111.304688 34.710938 111.140625 33.859375 111.285156 33.023438 C 111.347656 31.707031 111.378906 30.386719 111.484375 29.074219 C 111.761719 27.203125 112.589844 25.460938 112.757812 23.570312 C 112.542969 23.300781 112.296875 23.054688 112.054688 22.808594 C 111.773438 22.949219 111.492188 23.117188 111.324219 23.398438 C 110.847656 23.96875 110.527344 24.667969 109.964844 25.167969 C 110.199219 24.214844 110.757812 23.386719 111.113281 22.480469 C 111.570312 21.632812 111.847656 20.621094 112.683594 20.050781 C 112.140625 19.71875 111.542969 19.496094 110.976562 19.207031 C 109.984375 18.738281 108.914062 18.320312 108.121094 17.542969 C 108 17.054688 108.53125 16.984375 108.886719 17.03125 C 108.777344 17.125 108.671875 17.222656 108.570312 17.320312 C 108.691406 17.503906 108.832031 17.671875 108.964844 17.847656 C 109.710938 17.441406 110.460938 17.023438 111.285156 16.792969 " fill-opacity="1" fill-rule="nonzero"/></g></svg>