<svg xmlns="http://www.w3.org/2000/svg" xmlns:xlink="http://www.w3.org/1999/xlink" width="70" zoomAndPan="magnify" viewBox="0 0 52.5 52.499999" height="70" preserveAspectRatio="xMidYMid meet" version="1.0"><defs><clipPath id="1108e0fce9"><path d="M 3.644531 8.421875 L 48.644531 8.421875 L 48.644531 44.117188 L 3.644531 44.117188 Z M 3.644531 8.421875 " clip-rule="nonzero"/></clipPath></defs><g clip-path="url(#1108e0fce9)"><path fill="#0e6655" d="M 18.96875 9.457031 L 33.324219 9.457031 C 33.761719 9.457031 34.148438 9.734375 34.292969 10.148438 L 35.617188 14.027344 C 36.042969 15.273438 37.207031 16.109375 38.519531 16.109375 L 40.6875 16.109375 L 40.6875 14.332031 L 44.75 14.332031 L 44.75 16.109375 L 46.601562 16.109375 C 47.164062 16.109375 47.625 16.570312 47.625 17.140625 L 47.625 42.058594 C 47.625 42.628906 47.164062 43.085938 46.601562 43.085938 L 5.691406 43.085938 C 5.128906 43.085938 4.667969 42.628906 4.667969 42.058594 L 4.667969 17.140625 C 4.667969 16.570312 5.128906 16.109375 5.691406 16.109375 L 9.402344 16.109375 L 9.402344 14.332031 L 11.859375 14.332031 L 11.859375 16.109375 L 13.773438 16.109375 C 15.085938 16.109375 16.25 15.273438 16.675781 14.027344 L 18 10.148438 C 18.144531 9.734375 18.53125 9.457031 18.96875 9.457031 Z M 18.96875 8.425781 C 18.097656 8.425781 17.316406 8.980469 17.035156 9.8125 L 15.707031 13.695312 C 15.421875 14.523438 14.648438 15.082031 13.773438 15.082031 L 12.882812 15.082031 L 12.882812 13.304688 L 8.378906 13.304688 L 8.378906 15.082031 L 5.691406 15.082031 C 4.5625 15.082031 3.644531 16 3.644531 17.140625 L 3.644531 42.058594 C 3.644531 43.195312 4.5625 44.117188 5.691406 44.117188 L 46.601562 44.117188 C 47.730469 44.117188 48.644531 43.195312 48.644531 42.058594 L 48.644531 17.140625 C 48.644531 16 47.730469 15.082031 46.601562 15.082031 L 45.773438 15.082031 L 45.773438 13.304688 L 39.664062 13.304688 L 39.664062 15.082031 L 38.519531 15.082031 C 37.644531 15.082031 36.863281 14.523438 36.585938 13.695312 L 35.253906 9.8125 C 34.976562 8.980469 34.195312 8.425781 33.324219 8.425781 L 18.96875 8.425781 " fill-opacity="1" fill-rule="nonzero"/></g><path fill="#0e6655" d="M 25.941406 21.519531 C 29.789062 21.410156 32.996094 24.457031 33.109375 28.328125 C 33.113281 28.398438 33.113281 28.464844 33.113281 28.535156 C 33.121094 32.40625 30.007812 35.554688 26.160156 35.5625 C 22.3125 35.566406 19.1875 32.433594 19.179688 28.5625 C 19.179688 28.550781 19.179688 28.542969 19.179688 28.535156 C 19.179688 24.738281 22.175781 21.632812 25.941406 21.519531 Z M 25.855469 17.441406 C 19.886719 17.597656 15.132812 22.523438 15.148438 28.535156 C 15.132812 34.644531 20.042969 39.613281 26.117188 39.628906 C 32.191406 39.644531 37.128906 34.703125 37.144531 28.589844 C 37.144531 28.574219 37.144531 28.554688 37.144531 28.535156 C 37.160156 22.417969 32.25 17.453125 26.175781 17.4375 C 26.066406 17.4375 25.960938 17.4375 25.855469 17.441406 " fill-opacity="1" fill-rule="nonzero"/><path fill="#0e6655" d="M 44.128906 21.214844 C 44.128906 20.320312 43.402344 19.589844 42.511719 19.589844 C 41.621094 19.589844 40.890625 20.320312 40.890625 21.214844 C 40.890625 22.117188 41.621094 22.84375 42.511719 22.84375 C 43.402344 22.84375 44.128906 22.117188 44.128906 21.214844 " fill-opacity="1" fill-rule="nonzero"/></svg>