<svg xmlns="http://www.w3.org/2000/svg" xmlns:xlink="http://www.w3.org/1999/xlink" width="200" zoomAndPan="magnify" viewBox="0 0 150 30.000001" height="40" preserveAspectRatio="xMidYMid meet" version="1.0"><defs><clipPath id="7805b16102"><path d="M 2.417969 13 L 63 13 L 63 17 L 2.417969 17 Z M 2.417969 13 " clip-rule="nonzero"/></clipPath><clipPath id="8cd6503c7f"><path d="M 70 6.894531 L 80 6.894531 L 80 16 L 70 16 Z M 70 6.894531 " clip-rule="nonzero"/></clipPath><clipPath id="2f92bad677"><path d="M 2.417969 11 L 75 11 L 75 22.136719 L 2.417969 22.136719 Z M 2.417969 11 " clip-rule="nonzero"/></clipPath><clipPath id="804c8bd69e"><path d="M 62 12 L 70 12 L 70 22.136719 L 62 22.136719 Z M 62 12 " clip-rule="nonzero"/></clipPath><clipPath id="4405a1b2f3"><path d="M 87 13 L 147.578125 13 L 147.578125 17 L 87 17 Z M 87 13 " clip-rule="nonzero"/></clipPath><clipPath id="708e65dfbf"><path d="M 75 11 L 147.578125 11 L 147.578125 22.136719 L 75 22.136719 Z M 75 11 " clip-rule="nonzero"/></clipPath></defs><g clip-path="url(#7805b16102)"><path fill="#e18e9e" d="M 62.347656 16.417969 L 2.417969 13.964844 L 31.128906 14.542969 L 62.421875 15.824219 C 62.390625 16.019531 62.367188 16.21875 62.347656 16.417969 Z M 62.347656 16.417969 " fill-opacity="1" fill-rule="nonzero"/></g><g clip-path="url(#8cd6503c7f)"><path fill="#e18e9e" d="M 75 6.910156 C 74.511719 8.125 74.222656 9.664062 74.222656 11.339844 C 74.222656 11.722656 74.238281 12.09375 74.265625 12.457031 C 74.035156 12.085938 73.75 11.742188 73.410156 11.4375 C 72.613281 10.777344 71.628906 10.421875 70.59375 10.59375 C 71.421875 11.15625 72.164062 11.75 72.851562 12.476562 C 72.972656 12.613281 73.089844 12.753906 73.210938 12.894531 C 73.648438 13.453125 74.019531 14.03125 74.363281 14.652344 L 74.972656 15.707031 L 75 15.773438 L 75.027344 15.707031 L 75.636719 14.652344 C 75.980469 14.03125 76.351562 13.453125 76.789062 12.894531 C 76.910156 12.753906 77.03125 12.613281 77.148438 12.476562 C 77.835938 11.75 78.578125 11.15625 79.40625 10.59375 C 78.371094 10.421875 77.386719 10.777344 76.589844 11.4375 C 76.25 11.742188 75.964844 12.085938 75.738281 12.457031 C 75.765625 12.09375 75.78125 11.71875 75.78125 11.339844 C 75.78125 9.664062 75.488281 8.125 75 6.910156 Z M 75 6.910156 " fill-opacity="1" fill-rule="evenodd"/></g><g clip-path="url(#2f92bad677)"><path fill="#e18e9e" d="M 75 19.304688 C 74.273438 13.65625 67.027344 9.457031 64.183594 14.382812 C 65.871094 14.703125 67.082031 15.394531 67.886719 16.222656 C 68.683594 17.046875 69.203125 18.152344 69.152344 19.308594 C 69.085938 20.980469 67.820312 22.128906 66.152344 22.089844 C 64.640625 22.054688 63.488281 21.035156 62.964844 19.664062 C 62.566406 18.617188 62.445312 17.1875 62.808594 15.332031 L 2.417969 14.082031 L 55.152344 14.082031 C 57.648438 14.082031 60.65625 14.035156 63.070312 14.234375 C 66.453125 8.089844 74.976562 11.757812 75 19.304688 Z M 63.914062 15.46875 C 63.574219 17.132812 63.664062 18.375 64.003906 19.265625 C 64.507812 20.457031 65.363281 21.371094 66.476562 21.488281 C 67.589844 21.609375 68.324219 20.898438 68.28125 19.679688 C 68.246094 18.707031 67.746094 17.738281 67.085938 17 C 66.417969 16.308594 65.382812 15.734375 63.914062 15.46875 Z M 63.914062 15.46875 " fill-opacity="1" fill-rule="nonzero"/></g><g clip-path="url(#804c8bd69e)"><path fill="#e18e9e" d="M 66.175781 12.523438 C 65.40625 12.855469 64.71875 13.460938 64.183594 14.382812 C 65.871094 14.703125 67.082031 15.394531 67.886719 16.222656 C 68.472656 16.828125 68.90625 17.585938 69.078125 18.402344 L 68.320312 21.277344 C 67.78125 21.808594 67.023438 22.109375 66.152344 22.089844 C 64.640625 22.054688 63.488281 21.035156 62.964844 19.664062 C 62.566406 18.617188 62.445312 17.1875 62.808594 15.332031 L 62.5625 15.328125 L 62.855469 14.21875 L 63.070312 14.234375 C 63.5625 13.34375 64.160156 12.664062 64.824219 12.164062 Z M 63.914062 15.46875 C 63.574219 17.132812 63.664062 18.375 64.003906 19.265625 C 64.507812 20.457031 65.363281 21.371094 66.476562 21.488281 C 67.589844 21.609375 68.324219 20.898438 68.28125 19.679688 C 68.246094 18.707031 67.746094 17.738281 67.085938 17 C 66.417969 16.308594 65.382812 15.734375 63.914062 15.46875 Z M 63.914062 15.46875 " fill-opacity="1" fill-rule="nonzero"/></g><g clip-path="url(#4405a1b2f3)"><path fill="#e18e9e" d="M 87.65625 16.417969 L 147.582031 13.964844 L 118.871094 14.542969 L 87.578125 15.824219 C 87.609375 16.019531 87.632812 16.21875 87.65625 16.417969 Z M 87.65625 16.417969 " fill-opacity="1" fill-rule="nonzero"/></g><g clip-path="url(#708e65dfbf)"><path fill="#e18e9e" d="M 75 19.304688 C 75.730469 13.65625 82.972656 9.457031 85.816406 14.382812 C 84.132812 14.703125 82.917969 15.394531 82.117188 16.222656 C 81.320312 17.046875 80.800781 18.152344 80.847656 19.308594 C 80.917969 20.980469 82.183594 22.128906 83.847656 22.089844 C 85.359375 22.054688 86.511719 21.035156 87.035156 19.664062 C 87.433594 18.617188 87.558594 17.1875 87.191406 15.332031 L 147.582031 14.082031 L 94.847656 14.082031 C 92.351562 14.082031 89.34375 14.035156 86.929688 14.234375 C 83.546875 8.089844 75.023438 11.757812 75 19.304688 Z M 86.085938 15.46875 C 86.429688 17.132812 86.335938 18.375 85.996094 19.265625 C 85.496094 20.457031 84.636719 21.371094 83.527344 21.488281 C 82.410156 21.609375 81.675781 20.898438 81.71875 19.679688 C 81.757812 18.707031 82.253906 17.738281 82.917969 17 C 83.585938 16.308594 84.617188 15.734375 86.085938 15.46875 Z M 86.085938 15.46875 " fill-opacity="1" fill-rule="nonzero"/></g></svg>