<svg xmlns="http://www.w3.org/2000/svg" xmlns:xlink="http://www.w3.org/1999/xlink" width="70" zoomAndPan="magnify" viewBox="0 0 52.5 52.499999" height="70" preserveAspectRatio="xMidYMid meet" version="1.0"><defs><clipPath id="a86fce8281"><path d="M 10.039062 2.773438 L 41.960938 2.773438 L 41.960938 46.597656 L 10.039062 46.597656 Z M 10.039062 2.773438 " clip-rule="nonzero"/></clipPath></defs><g clip-path="url(#a86fce8281)"><path fill="#000000" d="M 13.058594 45.863281 L 38.9375 45.863281 C 40.097656 45.863281 41.035156 44.925781 41.035156 43.769531 L 41.035156 5.792969 C 41.035156 4.636719 40.097656 3.699219 38.9375 3.699219 L 13.058594 3.699219 C 11.902344 3.699219 10.964844 4.636719 10.964844 5.792969 L 10.964844 43.769531 C 10.964844 44.925781 11.902344 45.863281 13.058594 45.863281 Z M 39.867188 46.792969 L 12.132812 46.792969 C 10.976562 46.792969 10.039062 45.855469 10.039062 44.695312 L 10.039062 4.867188 C 10.039062 3.710938 10.976562 2.773438 12.132812 2.773438 L 39.867188 2.773438 C 41.023438 2.773438 41.960938 3.710938 41.960938 4.867188 L 41.960938 44.695312 C 41.960938 45.855469 41.023438 46.792969 39.867188 46.792969 " fill-opacity="1" fill-rule="nonzero"/></g><path fill="#000000" d="M 14.386719 20.066406 L 13.328125 18.707031 C 13.226562 18.578125 13.238281 18.390625 13.351562 18.273438 C 13.488281 18.132812 13.671875 17.957031 13.800781 18.101562 L 14.378906 18.753906 C 14.515625 18.90625 14.761719 18.902344 14.886719 18.738281 L 16.050781 17.257812 C 16.140625 17.144531 16.304688 17.132812 16.40625 17.234375 L 16.742188 17.570312 C 16.867188 17.695312 16.871094 17.894531 16.753906 18.027344 L 14.894531 20.082031 C 14.753906 20.234375 14.511719 20.226562 14.386719 20.066406 " fill-opacity="1" fill-rule="nonzero"/><path fill="#000000" d="M 14.386719 26.644531 L 13.328125 25.289062 C 13.226562 25.160156 13.238281 24.972656 13.351562 24.855469 C 13.488281 24.714844 13.671875 24.535156 13.800781 24.683594 L 14.378906 25.335938 C 14.515625 25.488281 14.761719 25.480469 14.886719 25.320312 L 15.898438 24.035156 C 16.066406 23.816406 16.386719 23.796875 16.582031 23.992188 L 16.742188 24.152344 C 16.867188 24.277344 16.871094 24.476562 16.753906 24.609375 L 14.894531 26.664062 C 14.753906 26.816406 14.511719 26.808594 14.386719 26.644531 " fill-opacity="1" fill-rule="nonzero"/><path fill="#000000" d="M 14.386719 33.890625 L 13.328125 32.53125 C 13.226562 32.402344 13.238281 32.21875 13.351562 32.097656 C 13.488281 31.960938 13.671875 31.78125 13.800781 31.925781 L 14.378906 32.578125 C 14.515625 32.734375 14.761719 32.726562 14.886719 32.5625 L 15.898438 31.277344 C 16.066406 31.0625 16.386719 31.042969 16.582031 31.234375 L 16.742188 31.394531 C 16.867188 31.519531 16.871094 31.71875 16.753906 31.851562 L 14.894531 33.910156 C 14.753906 34.0625 14.511719 34.050781 14.386719 33.890625 " fill-opacity="1" fill-rule="nonzero"/><path fill="#000000" d="M 25.433594 11.636719 C 24.933594 12.128906 24.144531 12.71875 23.695312 12.683594 C 22.964844 12.625 22.015625 11.640625 22.015625 11.640625 C 22.015625 11.640625 19.765625 10.027344 21.121094 8.453125 C 22.089844 7.328125 23.695312 9.132812 23.695312 9.132812 C 23.695312 9.132812 25.191406 7.21875 26.367188 7.875 C 27.78125 8.664062 26.304688 10.773438 25.433594 11.636719 Z M 27.042969 7.007812 C 25.34375 6.054688 23.699219 7.847656 23.699219 7.847656 C 23.082031 7.363281 22.238281 6.96875 21.441406 6.96875 C 20.140625 6.96875 19.167969 8.328125 19.359375 9.578125 C 19.582031 11.019531 21.0625 12.210938 22.136719 13.039062 C 22.46875 13.296875 22.8125 13.550781 23.207031 13.691406 C 24.390625 14.109375 25.453125 13.011719 26.21875 12.257812 C 27.480469 11.007812 29.089844 8.148438 27.042969 7.007812 " fill-opacity="1" fill-rule="nonzero"/><path fill="#000000" d="M 30.105469 13.074219 C 29.609375 13.566406 28.820312 14.15625 28.367188 14.121094 C 27.636719 14.0625 26.691406 13.078125 26.691406 13.078125 C 26.691406 13.078125 24.148438 11.460938 25.503906 9.886719 C 26.472656 8.761719 28.367188 10.570312 28.367188 10.570312 C 28.367188 10.570312 29.5 8.792969 30.675781 9.449219 C 32.089844 10.238281 30.976562 12.210938 30.105469 13.074219 Z M 31.71875 8.445312 C 30.015625 7.492188 28.378906 9.527344 28.378906 9.527344 C 27.761719 9.042969 26.910156 8.40625 26.117188 8.40625 C 24.8125 8.410156 23.84375 9.769531 24.035156 11.015625 C 24.253906 12.457031 25.738281 13.648438 26.808594 14.476562 C 27.144531 14.734375 27.484375 14.988281 27.882812 15.128906 C 29.066406 15.550781 30.128906 14.453125 30.890625 13.695312 C 32.152344 12.445312 33.765625 9.589844 31.71875 8.445312 " fill-opacity="1" fill-rule="nonzero"/><path fill="#000000" d="M 37.421875 18.660156 L 18.96875 18.660156 C 18.640625 18.660156 18.371094 18.394531 18.371094 18.0625 C 18.371094 17.734375 18.640625 17.46875 18.96875 17.46875 L 37.421875 17.46875 C 37.753906 17.46875 38.019531 17.734375 38.019531 18.0625 C 38.019531 18.394531 37.753906 18.660156 37.421875 18.660156 " fill-opacity="1" fill-rule="nonzero"/><path fill="#000000" d="M 37.421875 22.425781 L 18.96875 22.425781 C 18.640625 22.425781 18.371094 22.160156 18.371094 21.828125 C 18.371094 21.5 18.640625 21.234375 18.96875 21.234375 L 37.421875 21.234375 C 37.753906 21.234375 38.019531 21.5 38.019531 21.828125 C 38.019531 22.160156 37.753906 22.425781 37.421875 22.425781 " fill-opacity="1" fill-rule="nonzero"/><path fill="#000000" d="M 37.421875 26.191406 L 18.96875 26.191406 C 18.640625 26.191406 18.371094 25.925781 18.371094 25.597656 C 18.371094 25.265625 18.640625 25 18.96875 25 L 37.421875 25 C 37.753906 25 38.019531 25.265625 38.019531 25.597656 C 38.019531 25.925781 37.753906 26.191406 37.421875 26.191406 " fill-opacity="1" fill-rule="nonzero"/><path fill="#000000" d="M 37.421875 29.957031 L 18.96875 29.957031 C 18.640625 29.957031 18.371094 29.691406 18.371094 29.363281 C 18.371094 29.035156 18.640625 28.765625 18.96875 28.765625 L 37.421875 28.765625 C 37.753906 28.765625 38.019531 29.035156 38.019531 29.363281 C 38.019531 29.691406 37.753906 29.957031 37.421875 29.957031 " fill-opacity="1" fill-rule="nonzero"/><path fill="#000000" d="M 37.421875 33.726562 L 18.96875 33.726562 C 18.640625 33.726562 18.371094 33.457031 18.371094 33.128906 C 18.371094 32.800781 18.640625 32.53125 18.96875 32.53125 L 37.421875 32.53125 C 37.753906 32.53125 38.019531 32.800781 38.019531 33.128906 C 38.019531 33.457031 37.753906 33.726562 37.421875 33.726562 " fill-opacity="1" fill-rule="nonzero"/><path fill="#000000" d="M 24.492188 41.546875 L 19.195312 41.546875 C 18.882812 41.546875 18.628906 41.292969 18.628906 40.976562 C 18.628906 40.664062 18.882812 40.410156 19.195312 40.410156 L 24.492188 40.410156 C 24.804688 40.410156 25.0625 40.664062 25.0625 40.976562 C 25.0625 41.292969 24.804688 41.546875 24.492188 41.546875 " fill-opacity="1" fill-rule="nonzero"/><path fill="#000000" d="M 34.445312 36.292969 C 32.234375 36.058594 30.382812 37.914062 30.613281 40.125 C 30.785156 41.734375 32.082031 43.03125 33.691406 43.199219 C 35.902344 43.4375 37.757812 41.582031 37.523438 39.367188 C 37.355469 37.757812 36.058594 36.460938 34.445312 36.292969 Z M 34.46875 44.121094 C 31.734375 44.367188 29.449219 42.082031 29.695312 39.34375 C 29.882812 37.246094 31.570312 35.558594 33.667969 35.371094 C 36.40625 35.125 38.691406 37.410156 38.445312 40.148438 C 38.257812 42.246094 36.570312 43.933594 34.46875 44.121094 " fill-opacity="1" fill-rule="nonzero"/><path fill="#000000" d="M 36.304688 40.179688 C 36.117188 40.117188 36 39.929688 36 39.730469 C 35.992188 38.679688 35.136719 37.824219 34.085938 37.816406 C 33.886719 37.816406 33.699219 37.699219 33.636719 37.511719 C 33.53125 37.191406 33.765625 36.898438 34.070312 36.898438 C 35.640625 36.898438 36.917969 38.175781 36.917969 39.746094 C 36.917969 40.050781 36.625 40.285156 36.304688 40.179688 " fill-opacity="1" fill-rule="nonzero"/><path fill="#000000" d="M 34.070312 42.597656 C 32.503906 42.597656 31.226562 41.324219 31.21875 39.761719 C 31.21875 39.539062 31.375 39.335938 31.589844 39.296875 C 31.882812 39.242188 32.140625 39.464844 32.140625 39.746094 C 32.140625 40.808594 33 41.671875 34.0625 41.675781 C 34.296875 41.675781 34.5 41.855469 34.527344 42.085938 C 34.558594 42.363281 34.339844 42.597656 34.070312 42.597656 " fill-opacity="1" fill-rule="nonzero"/></svg>