<svg xmlns="http://www.w3.org/2000/svg" xmlns:xlink="http://www.w3.org/1999/xlink" width="70" zoomAndPan="magnify" viewBox="0 0 52.5 52.499999" height="70" preserveAspectRatio="xMidYMid meet" version="1.0"><defs><clipPath id="e94da81706"><path d="M 9.136719 2.753906 L 42.570312 2.753906 L 42.570312 49.253906 L 9.136719 49.253906 Z M 9.136719 2.753906 " clip-rule="nonzero"/></clipPath></defs><g clip-path="url(#e94da81706)"><path fill="#000000" d="M 12.328125 48.277344 L 39.667969 48.277344 C 40.890625 48.277344 41.878906 47.285156 41.878906 46.0625 L 41.878906 5.945312 C 41.878906 4.722656 40.890625 3.734375 39.667969 3.734375 L 12.328125 3.734375 C 11.105469 3.734375 10.113281 4.722656 10.113281 5.945312 L 10.113281 46.0625 C 10.113281 47.285156 11.105469 48.277344 12.328125 48.277344 Z M 40.644531 49.253906 L 11.347656 49.253906 C 10.128906 49.253906 9.136719 48.265625 9.136719 47.042969 L 9.136719 4.96875 C 9.136719 3.746094 10.128906 2.753906 11.347656 2.753906 L 40.644531 2.753906 C 41.867188 2.753906 42.859375 3.746094 42.859375 4.96875 L 42.859375 47.042969 C 42.859375 48.265625 41.867188 49.253906 40.644531 49.253906 " fill-opacity="1" fill-rule="nonzero"/></g><path fill="#000000" d="M 13.730469 21.023438 L 12.613281 19.589844 C 12.503906 19.449219 12.515625 19.253906 12.636719 19.128906 C 12.78125 18.984375 12.976562 18.792969 13.113281 18.945312 L 13.722656 19.636719 C 13.867188 19.800781 14.125 19.792969 14.261719 19.621094 L 15.488281 18.054688 C 15.582031 17.9375 15.757812 17.925781 15.863281 18.035156 L 16.21875 18.386719 C 16.351562 18.519531 16.355469 18.730469 16.230469 18.867188 L 14.265625 21.042969 C 14.121094 21.203125 13.863281 21.195312 13.730469 21.023438 " fill-opacity="1" fill-rule="nonzero"/><path fill="#000000" d="M 13.730469 27.972656 L 12.613281 26.539062 C 12.503906 26.402344 12.515625 26.207031 12.636719 26.082031 C 12.78125 25.9375 12.976562 25.746094 13.113281 25.898438 L 13.722656 26.589844 C 13.867188 26.753906 14.125 26.746094 14.261719 26.574219 L 15.328125 25.214844 C 15.507812 24.984375 15.84375 24.964844 16.050781 25.171875 L 16.21875 25.339844 C 16.351562 25.472656 16.355469 25.683594 16.230469 25.820312 L 14.265625 27.996094 C 14.121094 28.15625 13.863281 28.144531 13.730469 27.972656 " fill-opacity="1" fill-rule="nonzero"/><path fill="#000000" d="M 13.730469 35.625 L 12.613281 34.191406 C 12.503906 34.054688 12.515625 33.859375 12.636719 33.734375 C 12.78125 33.585938 12.976562 33.398438 13.113281 33.550781 L 13.722656 34.242188 C 13.867188 34.40625 14.125 34.398438 14.261719 34.226562 L 15.328125 32.867188 C 15.507812 32.636719 15.84375 32.617188 16.050781 32.824219 L 16.21875 32.992188 C 16.351562 33.121094 16.355469 33.335938 16.230469 33.472656 L 14.265625 35.644531 C 14.121094 35.808594 13.863281 35.796875 13.730469 35.625 " fill-opacity="1" fill-rule="nonzero"/><path fill="#000000" d="M 25.398438 12.117188 C 24.871094 12.640625 24.039062 13.265625 23.5625 13.226562 C 22.792969 13.164062 21.792969 12.125 21.792969 12.125 C 21.792969 12.125 19.414062 10.417969 20.84375 8.753906 C 21.867188 7.566406 23.5625 9.472656 23.5625 9.472656 C 23.5625 9.472656 25.144531 7.453125 26.386719 8.144531 C 27.878906 8.980469 26.320312 11.207031 25.398438 12.117188 Z M 27.101562 7.226562 C 25.304688 6.222656 23.570312 8.117188 23.570312 8.117188 C 22.914062 7.601562 22.023438 7.1875 21.183594 7.1875 C 19.808594 7.191406 18.78125 8.625 18.984375 9.945312 C 19.21875 11.46875 20.785156 12.726562 21.917969 13.601562 C 22.269531 13.871094 22.632812 14.140625 23.050781 14.289062 C 24.300781 14.734375 25.421875 13.574219 26.230469 12.773438 C 27.5625 11.457031 29.265625 8.4375 27.101562 7.226562 " fill-opacity="1" fill-rule="nonzero"/><path fill="#000000" d="M 30.335938 13.636719 C 29.808594 14.15625 28.976562 14.78125 28.5 14.746094 C 27.730469 14.683594 26.730469 13.640625 26.730469 13.640625 C 26.730469 13.640625 24.042969 11.933594 25.476562 10.273438 C 26.5 9.082031 28.5 10.992188 28.5 10.992188 C 28.5 10.992188 29.699219 9.117188 30.9375 9.808594 C 32.429688 10.644531 31.253906 12.726562 30.335938 13.636719 Z M 32.039062 8.746094 C 30.242188 7.742188 28.511719 9.894531 28.511719 9.894531 C 27.859375 9.378906 26.960938 8.707031 26.121094 8.707031 C 24.746094 8.707031 23.71875 10.144531 23.921875 11.464844 C 24.15625 12.988281 25.722656 14.246094 26.855469 15.121094 C 27.207031 15.390625 27.570312 15.660156 27.988281 15.808594 C 29.238281 16.253906 30.359375 15.09375 31.167969 14.292969 C 32.5 12.972656 34.203125 9.957031 32.039062 8.746094 " fill-opacity="1" fill-rule="nonzero"/><path fill="#000000" d="M 38.066406 19.539062 L 18.570312 19.539062 C 18.222656 19.539062 17.941406 19.257812 17.941406 18.910156 C 17.941406 18.558594 18.222656 18.277344 18.570312 18.277344 L 38.066406 18.277344 C 38.414062 18.277344 38.695312 18.558594 38.695312 18.910156 C 38.695312 19.257812 38.414062 19.539062 38.066406 19.539062 " fill-opacity="1" fill-rule="nonzero"/><path fill="#000000" d="M 38.066406 23.515625 L 18.570312 23.515625 C 18.222656 23.515625 17.941406 23.234375 17.941406 22.886719 C 17.941406 22.539062 18.222656 22.257812 18.570312 22.257812 L 38.066406 22.257812 C 38.414062 22.257812 38.695312 22.539062 38.695312 22.886719 C 38.695312 23.234375 38.414062 23.515625 38.066406 23.515625 " fill-opacity="1" fill-rule="nonzero"/><path fill="#000000" d="M 38.066406 27.496094 L 18.570312 27.496094 C 18.222656 27.496094 17.941406 27.214844 17.941406 26.867188 C 17.941406 26.519531 18.222656 26.234375 18.570312 26.234375 L 38.066406 26.234375 C 38.414062 26.234375 38.695312 26.519531 38.695312 26.867188 C 38.695312 27.214844 38.414062 27.496094 38.066406 27.496094 " fill-opacity="1" fill-rule="nonzero"/><path fill="#000000" d="M 38.066406 31.472656 L 18.570312 31.472656 C 18.222656 31.472656 17.941406 31.191406 17.941406 30.84375 C 17.941406 30.496094 18.222656 30.214844 18.570312 30.214844 L 38.066406 30.214844 C 38.414062 30.214844 38.695312 30.496094 38.695312 30.84375 C 38.695312 31.191406 38.414062 31.472656 38.066406 31.472656 " fill-opacity="1" fill-rule="nonzero"/><path fill="#000000" d="M 38.066406 35.453125 L 18.570312 35.453125 C 18.222656 35.453125 17.941406 35.171875 17.941406 34.824219 C 17.941406 34.476562 18.222656 34.191406 18.570312 34.191406 L 38.066406 34.191406 C 38.414062 34.191406 38.695312 34.476562 38.695312 34.824219 C 38.695312 35.171875 38.414062 35.453125 38.066406 35.453125 " fill-opacity="1" fill-rule="nonzero"/><path fill="#000000" d="M 24.40625 43.714844 L 18.8125 43.714844 C 18.480469 43.714844 18.210938 43.445312 18.210938 43.113281 C 18.210938 42.78125 18.480469 42.511719 18.8125 42.511719 L 24.40625 42.511719 C 24.738281 42.511719 25.007812 42.78125 25.007812 43.113281 C 25.007812 43.445312 24.738281 43.714844 24.40625 43.714844 " fill-opacity="1" fill-rule="nonzero"/><path fill="#000000" d="M 34.921875 38.164062 C 32.585938 37.917969 30.625 39.875 30.875 42.210938 C 31.054688 43.914062 32.421875 45.28125 34.125 45.460938 C 36.460938 45.710938 38.421875 43.75 38.171875 41.414062 C 37.992188 39.710938 36.625 38.34375 34.921875 38.164062 Z M 34.945312 46.4375 C 32.054688 46.695312 29.644531 44.28125 29.902344 41.390625 C 30.097656 39.171875 31.882812 37.386719 34.101562 37.191406 C 36.992188 36.933594 39.402344 39.34375 39.144531 42.238281 C 38.949219 44.453125 37.164062 46.238281 34.945312 46.4375 " fill-opacity="1" fill-rule="nonzero"/><path fill="#000000" d="M 36.882812 42.273438 C 36.683594 42.207031 36.5625 42.007812 36.5625 41.796875 C 36.554688 40.6875 35.652344 39.78125 34.539062 39.773438 C 34.328125 39.773438 34.128906 39.652344 34.066406 39.453125 C 33.953125 39.117188 34.203125 38.804688 34.523438 38.804688 C 36.183594 38.804688 37.535156 40.152344 37.535156 41.8125 C 37.535156 42.136719 37.222656 42.382812 36.882812 42.273438 " fill-opacity="1" fill-rule="nonzero"/><path fill="#000000" d="M 34.523438 44.824219 C 32.867188 44.824219 31.519531 43.480469 31.511719 41.828125 C 31.511719 41.59375 31.675781 41.378906 31.90625 41.335938 C 32.214844 41.277344 32.484375 41.515625 32.484375 41.8125 C 32.484375 42.933594 33.394531 43.847656 34.515625 43.851562 C 34.761719 43.851562 34.980469 44.039062 35.003906 44.285156 C 35.039062 44.578125 34.808594 44.824219 34.523438 44.824219 " fill-opacity="1" fill-rule="nonzero"/></svg>