<svg xmlns="http://www.w3.org/2000/svg" xmlns:xlink="http://www.w3.org/1999/xlink" width="150" zoomAndPan="magnify" viewBox="0 0 112.5 112.499997" height="150" preserveAspectRatio="xMidYMid meet" version="1.0"><defs><clipPath id="61467e6344"><path d="M 13 88.445312 L 112.003906 88.445312 L 112.003906 89.097656 L 13 89.097656 Z M 13 88.445312 " clip-rule="nonzero"/></clipPath><clipPath id="7f75b3636b"><path d="M 24.042969 8 L 24.617188 8 L 24.617188 101 L 24.042969 101 Z M 24.042969 8 " clip-rule="nonzero"/></clipPath></defs><g clip-path="url(#61467e6344)"><path fill="#1e1e1e" d="M 118.574219 89.191406 L 14.324219 89.191406 C 14.140625 89.191406 13.992188 89.023438 13.992188 88.816406 C 13.992188 88.609375 14.140625 88.441406 14.324219 88.441406 L 118.574219 88.441406 C 118.753906 88.441406 118.902344 88.609375 118.902344 88.816406 C 118.902344 89.023438 118.753906 89.191406 118.574219 89.191406 " fill-opacity="1" fill-rule="nonzero"/></g><g clip-path="url(#7f75b3636b)"><path fill="#1e1e1e" d="M 24.792969 8.917969 L 24.792969 100.101562 C 24.792969 100.261719 24.625 100.390625 24.417969 100.390625 C 24.210938 100.390625 24.042969 100.261719 24.042969 100.101562 L 24.042969 8.917969 C 24.042969 8.757812 24.210938 8.628906 24.417969 8.628906 C 24.625 8.628906 24.792969 8.757812 24.792969 8.917969 " fill-opacity="1" fill-rule="nonzero"/></g></svg>