<svg xmlns="http://www.w3.org/2000/svg" xmlns:xlink="http://www.w3.org/1999/xlink" width="70" zoomAndPan="magnify" viewBox="0 0 52.5 52.499999" height="70" preserveAspectRatio="xMidYMid meet" version="1.0"><defs><clipPath id="37ba24e133"><path d="M 15 18 L 37 18 L 37 49.40625 L 15 49.40625 Z M 15 18 " clip-rule="nonzero"/></clipPath><clipPath id="7b6f64185a"><path d="M 13.875 4 L 38.390625 4 L 38.390625 37 L 13.875 37 Z M 13.875 4 " clip-rule="nonzero"/></clipPath><clipPath id="fc7ffb57cd"><path d="M 25 2.601562 L 27 2.601562 L 27 6 L 25 6 Z M 25 2.601562 " clip-rule="nonzero"/></clipPath></defs><g clip-path="url(#37ba24e133)"><path fill="#f7f3f0" d="M 29.703125 29.550781 L 29.703125 20.097656 L 29.992188 20.097656 L 29.992188 18.128906 L 22.007812 18.128906 L 22.007812 20.097656 L 22.300781 20.097656 L 22.300781 29.550781 L 15.023438 36.183594 L 15.023438 48.792969 L 22.292969 48.792969 L 22.292969 48.78125 L 22.300781 48.78125 L 22.300781 48.792969 L 22.292969 48.792969 L 22.292969 49.40625 L 29.710938 49.40625 L 29.710938 48.792969 L 29.703125 48.792969 L 29.703125 48.78125 L 29.710938 48.78125 L 29.710938 48.792969 L 36.976562 48.792969 L 36.976562 36.183594 Z M 25.742188 44.78125 L 25.503906 44.78125 L 25.503906 44.0625 L 25.742188 44.0625 Z M 26.644531 44.78125 L 26.402344 44.78125 L 26.402344 44.0625 L 26.644531 44.0625 Z M 26.644531 44.78125 " fill-opacity="1" fill-rule="evenodd"/></g><path fill="#abdbf7" d="M 24.917969 21.078125 L 25.996094 20.660156 L 27.050781 21.03125 L 27.371094 21.890625 L 27.371094 26.414062 L 24.628906 26.414062 L 24.628906 21.875 Z M 24.628906 32.429688 L 24.628906 36.96875 L 27.371094 36.96875 L 27.371094 32.445312 L 27.050781 31.582031 L 25.996094 31.210938 L 24.917969 31.632812 Z M 16.804688 37.8125 L 16.804688 44.335938 L 20.742188 44.335938 L 20.742188 37.832031 L 20.28125 36.59375 L 18.765625 36.0625 L 17.214844 36.667969 Z M 31.257812 37.8125 L 31.257812 44.335938 L 35.195312 44.335938 L 35.195312 37.832031 L 34.734375 36.59375 L 33.21875 36.0625 L 31.667969 36.667969 Z M 31.257812 37.8125 " fill-opacity="1" fill-rule="evenodd"/><path fill="#f7ece1" d="M 24.449219 26.519531 L 27.554688 26.519531 L 27.554688 27.140625 L 24.449219 27.140625 Z M 24.449219 37.695312 L 27.554688 37.695312 L 27.554688 37.070312 L 24.449219 37.070312 Z M 16.542969 45.378906 L 21.003906 45.378906 L 21.003906 44.484375 L 16.542969 44.484375 Z M 30.996094 45.378906 L 35.460938 45.378906 L 35.460938 44.484375 L 30.996094 44.484375 Z M 30.996094 45.378906 " fill-opacity="1" fill-rule="evenodd"/><path fill="#e88d5f" d="M 23.878906 48.289062 L 23.878906 42.722656 C 23.878906 39.472656 28.125 39.472656 28.125 42.722656 L 28.125 48.289062 Z M 27.261719 21.980469 L 27.261719 22.039062 L 27.261719 22.027344 C 27.261719 22.011719 27.261719 21.996094 27.261719 21.980469 Z M 26 20.519531 C 25.199219 20.523438 24.546875 21.175781 24.546875 21.976562 L 24.546875 26.527344 L 27.457031 26.527344 L 27.457031 21.976562 C 27.457031 21.175781 26.804688 20.523438 26 20.519531 Z M 25.90625 26.304688 L 24.746094 26.304688 L 24.746094 25 L 25.90625 25 Z M 25.90625 24.898438 L 24.746094 24.898438 L 24.746094 23.628906 L 25.90625 23.628906 Z M 25.90625 23.441406 L 24.746094 23.441406 L 24.746094 22.140625 L 25.90625 22.140625 Z M 25.90625 22.039062 L 24.746094 22.039062 L 24.746094 21.980469 L 24.742188 21.980469 C 24.765625 21.339844 25.269531 20.820312 25.90625 20.769531 Z M 27.261719 26.304688 L 26.09375 26.304688 L 26.09375 25 L 27.261719 25 Z M 27.261719 24.898438 L 26.09375 24.898438 L 26.09375 23.628906 L 27.261719 23.628906 Z M 27.261719 23.441406 L 26.09375 23.441406 L 26.09375 22.140625 L 27.261719 22.140625 Z M 27.261719 22.039062 L 26.09375 22.039062 L 26.09375 20.769531 C 26.734375 20.820312 27.234375 21.339844 27.261719 21.980469 C 27.261719 21.996094 27.261719 22.011719 27.261719 22.027344 Z M 27.261719 32.582031 L 27.261719 32.589844 L 27.261719 32.53125 C 27.261719 32.546875 27.261719 32.5625 27.261719 32.582031 Z M 24.746094 32.53125 L 24.746094 32.589844 L 24.742188 32.589844 L 24.742188 32.582031 C 24.742188 32.5625 24.742188 32.546875 24.742188 32.53125 Z M 26 31.074219 C 25.199219 31.074219 24.546875 31.726562 24.546875 32.53125 L 24.546875 37.078125 L 27.457031 37.078125 L 27.457031 32.53125 C 27.453125 31.726562 26.804688 31.078125 26 31.074219 Z M 25.90625 36.855469 L 24.746094 36.859375 L 24.746094 35.554688 L 25.90625 35.554688 Z M 25.90625 35.449219 L 24.746094 35.449219 L 24.746094 34.183594 L 25.90625 34.183594 Z M 25.90625 33.996094 L 24.746094 33.996094 L 24.746094 32.691406 L 25.90625 32.691406 Z M 25.90625 32.589844 L 24.742188 32.589844 L 24.742188 32.582031 C 24.742188 32.5625 24.742188 32.546875 24.742188 32.53125 C 24.765625 31.890625 25.269531 31.371094 25.90625 31.324219 Z M 27.261719 36.855469 L 26.09375 36.855469 L 26.09375 35.554688 L 27.261719 35.554688 Z M 27.261719 35.449219 L 26.09375 35.449219 L 26.09375 34.183594 L 27.261719 34.183594 Z M 27.261719 33.996094 L 26.09375 33.996094 L 26.09375 32.691406 L 27.261719 32.691406 Z M 27.261719 32.589844 L 26.09375 32.589844 L 26.09375 31.320312 C 26.734375 31.371094 27.234375 31.890625 27.261719 32.53125 C 27.261719 32.546875 27.261719 32.5625 27.261719 32.578125 Z M 26.09375 31.183594 L 26.09375 31.324219 C 26.0625 31.320312 26.03125 31.320312 26 31.320312 C 25.96875 31.320312 25.9375 31.320312 25.90625 31.324219 L 25.90625 31.183594 Z M 26.09375 31.183594 L 26.09375 31.324219 C 26.0625 31.320312 26.03125 31.320312 26 31.320312 C 25.96875 31.320312 25.9375 31.320312 25.90625 31.324219 L 25.90625 31.183594 Z M 16.972656 37.960938 L 16.972656 38.042969 L 16.960938 38.042969 L 16.960938 38.027344 C 16.960938 38.007812 16.960938 37.984375 16.964844 37.960938 Z M 18.773438 35.863281 C 17.617188 35.867188 16.683594 36.800781 16.679688 37.957031 L 16.679688 44.492188 L 20.867188 44.492188 L 20.867188 37.957031 C 20.863281 36.800781 19.929688 35.867188 18.773438 35.863281 Z M 18.636719 40.332031 L 18.636719 42.15625 L 16.972656 42.15625 L 16.972656 40.332031 Z M 16.972656 40.0625 L 16.972656 38.191406 L 18.636719 38.191406 L 18.636719 40.0625 Z M 16.960938 38.027344 C 16.960938 38.007812 16.960938 37.984375 16.964844 37.960938 C 17 37.042969 17.71875 36.292969 18.636719 36.222656 L 18.636719 38.042969 L 16.960938 38.042969 Z M 16.972656 42.300781 L 18.636719 42.300781 L 18.636719 44.175781 L 16.972656 44.179688 Z M 20.585938 44.175781 L 18.910156 44.175781 L 18.910156 42.300781 L 20.585938 42.300781 Z M 20.585938 42.15625 L 18.910156 42.15625 L 18.910156 40.332031 L 20.585938 40.332031 Z M 20.585938 40.0625 L 18.910156 40.0625 L 18.910156 38.191406 L 20.585938 38.191406 Z M 20.585938 38.042969 L 18.910156 38.042969 L 18.910156 36.222656 C 19.851562 36.296875 20.582031 37.082031 20.585938 38.027344 Z M 33.230469 35.863281 C 32.074219 35.867188 31.140625 36.800781 31.136719 37.957031 L 31.136719 44.492188 L 35.324219 44.492188 L 35.324219 37.957031 C 35.320312 36.800781 34.382812 35.867188 33.226562 35.863281 Z M 33.09375 44.175781 L 31.425781 44.179688 L 31.425781 42.300781 L 33.09375 42.300781 Z M 33.09375 42.15625 L 31.425781 42.15625 L 31.425781 40.332031 L 33.09375 40.332031 Z M 33.09375 40.0625 L 31.425781 40.0625 L 31.425781 38.191406 L 33.09375 38.191406 Z M 33.09375 38.042969 L 31.425781 38.042969 L 31.425781 37.960938 L 31.417969 37.960938 C 31.453125 37.042969 32.171875 36.292969 33.09375 36.222656 Z M 35.039062 44.175781 L 33.363281 44.175781 L 33.363281 42.300781 L 35.039062 42.300781 Z M 35.039062 42.15625 L 33.363281 42.15625 L 33.363281 40.332031 L 35.039062 40.332031 Z M 35.039062 40.0625 L 33.363281 40.0625 L 33.363281 38.191406 L 35.039062 38.191406 Z M 35.039062 38.042969 L 33.363281 38.042969 L 33.363281 36.222656 C 34.308594 36.296875 35.035156 37.082031 35.039062 38.027344 Z M 35.039062 38.042969 " fill-opacity="1" fill-rule="nonzero"/><g clip-path="url(#7b6f64185a)"><path fill="#d37d31" d="M 38.125 36.183594 L 36.976562 36.183594 L 29.53125 29.398438 L 22.46875 29.398438 L 15.023438 36.183594 L 13.875 36.183594 L 21.824219 28.996094 L 21.816406 28.996094 L 22.300781 27.902344 L 29.703125 27.902344 L 30.1875 28.996094 L 30.175781 28.996094 Z M 28.75 18.246094 L 26 4.886719 L 23.25 18.246094 Z M 28.75 18.246094 " fill-opacity="1" fill-rule="evenodd"/></g><path fill="#f7ece1" d="M 25.742188 44.78125 L 25.503906 44.78125 L 25.503906 44.0625 L 25.742188 44.0625 Z M 26.644531 44.0625 L 26.402344 44.0625 L 26.402344 44.78125 L 26.644531 44.78125 Z M 26.644531 44.0625 " fill-opacity="1" fill-rule="evenodd"/><path fill="#f7ece1" d="M 22.300781 18.332031 L 23.535156 18.332031 L 23.535156 48.792969 L 22.300781 48.792969 Z M 28.46875 18.332031 L 29.699219 18.332031 L 29.699219 48.792969 L 28.46875 48.792969 Z M 28.46875 18.332031 " fill-opacity="1" fill-rule="evenodd"/><path fill="#f7ece1" d="M 22.007812 18.128906 L 29.992188 18.128906 L 29.992188 20.097656 L 22.007812 20.097656 Z M 22.007812 18.128906 " fill-opacity="1" fill-rule="nonzero"/><g clip-path="url(#fc7ffb57cd)"><path fill="#f7ece1" d="M 25.835938 2.601562 L 26.164062 2.601562 L 26.164062 5.699219 L 25.835938 5.699219 Z M 25.835938 2.601562 " fill-opacity="1" fill-rule="nonzero"/></g><path fill="#f7ece1" d="M 24.722656 3.320312 L 27.28125 3.320312 L 27.28125 3.648438 L 24.722656 3.648438 Z M 24.722656 3.320312 " fill-opacity="1" fill-rule="nonzero"/></svg>