<svg xmlns="http://www.w3.org/2000/svg" xmlns:xlink="http://www.w3.org/1999/xlink" width="70" zoomAndPan="magnify" viewBox="0 0 52.5 52.499999" height="70" preserveAspectRatio="xMidYMid meet" version="1.0"><defs><clipPath id="1e3f53acff"><path d="M 7.382812 5.199219 L 46 5.199219 L 46 48.289062 L 7.382812 48.289062 Z M 7.382812 5.199219 " clip-rule="nonzero"/></clipPath></defs><g clip-path="url(#1e3f53acff)"><path fill="#ffffff" d="M 44.304688 25.808594 L 29.992188 25.808594 L 29.992188 19.359375 L 44.304688 19.359375 Z M 41.671875 46.621094 L 29.992188 46.621094 L 29.992188 27.285156 L 41.671875 27.285156 Z M 24.652344 46.621094 L 24.652344 27.285156 L 28.515625 27.285156 L 28.515625 46.621094 Z M 11.492188 27.285156 L 23.175781 27.285156 L 23.175781 46.621094 L 11.492188 46.621094 Z M 8.859375 19.359375 L 23.175781 19.359375 L 23.175781 25.808594 L 8.859375 25.808594 Z M 13.414062 10.804688 C 13.261719 9.84375 14.371094 8.71875 15.183594 7.902344 C 15.941406 7.136719 16.609375 6.765625 17.285156 6.734375 C 18.121094 6.699219 19.085938 7.21875 20.152344 8.269531 C 21.304688 9.414062 23.054688 11.5625 24.359375 13.78125 C 24.988281 14.851562 25.429688 15.804688 25.632812 16.539062 C 25.71875 16.847656 25.757812 17.09375 25.761719 17.28125 L 15.398438 12.722656 C 14.558594 12.289062 13.542969 11.609375 13.414062 10.804688 Z M 27.457031 16.539062 C 27.660156 15.804688 28.101562 14.851562 28.730469 13.78125 C 30.035156 11.5625 31.785156 9.414062 32.9375 8.269531 C 34.003906 7.21875 34.96875 6.703125 35.804688 6.734375 C 36.480469 6.765625 37.144531 7.136719 37.90625 7.902344 C 38.71875 8.71875 39.828125 9.84375 39.675781 10.804688 C 39.546875 11.609375 38.53125 12.289062 37.691406 12.722656 L 27.328125 17.28125 C 27.332031 17.09375 27.371094 16.84375 27.457031 16.539062 Z M 28.515625 25.808594 L 24.652344 25.808594 L 24.652344 19.359375 L 28.515625 19.359375 Z M 45.042969 17.882812 L 29.632812 17.882812 L 38.304688 14.066406 C 38.320312 14.058594 38.332031 14.054688 38.34375 14.046875 C 40.035156 13.179688 40.949219 12.195312 41.132812 11.039062 C 41.40625 9.335938 39.988281 7.90625 38.957031 6.863281 C 37.929688 5.828125 36.921875 5.304688 35.867188 5.261719 C 34.585938 5.207031 33.285156 5.847656 31.898438 7.222656 C 30.429688 8.675781 28.644531 11.011719 27.457031 13.035156 C 27.089844 13.652344 26.785156 14.234375 26.542969 14.769531 C 26.300781 14.234375 26 13.652344 25.632812 13.035156 C 24.445312 11.011719 22.660156 8.675781 21.191406 7.222656 C 19.804688 5.847656 18.503906 5.207031 17.222656 5.261719 C 16.167969 5.304688 15.15625 5.828125 14.132812 6.863281 C 13.101562 7.90625 11.683594 9.335938 11.957031 11.039062 C 12.140625 12.195312 13.050781 13.179688 14.742188 14.046875 C 14.757812 14.054688 14.769531 14.058594 14.78125 14.066406 L 23.457031 17.882812 L 8.121094 17.882812 C 7.714844 17.882812 7.382812 18.210938 7.382812 18.621094 L 7.382812 26.546875 C 7.382812 26.957031 7.714844 27.285156 8.121094 27.285156 L 10.015625 27.285156 L 10.015625 47.359375 C 10.015625 47.765625 10.347656 48.097656 10.753906 48.097656 L 42.410156 48.097656 C 42.820312 48.097656 43.152344 47.765625 43.152344 47.359375 L 43.152344 27.285156 L 45.042969 27.285156 C 45.453125 27.285156 45.785156 26.957031 45.785156 26.546875 L 45.785156 18.621094 C 45.785156 18.210938 45.453125 17.882812 45.042969 17.882812 " fill-opacity="1" fill-rule="nonzero"/></g></svg>