<svg xmlns="http://www.w3.org/2000/svg" xmlns:xlink="http://www.w3.org/1999/xlink" width="70" zoomAndPan="magnify" viewBox="0 0 52.5 52.499999" height="70" preserveAspectRatio="xMidYMid meet" version="1.0"><defs><clipPath id="18a99c82ca"><path d="M 8.28125 3.136719 L 41 3.136719 L 41 49.195312 L 8.28125 49.195312 Z M 8.28125 3.136719 " clip-rule="nonzero"/></clipPath><clipPath id="2a507735ba"><path d="M 8.28125 14 L 41 14 L 41 44 L 8.28125 44 Z M 8.28125 14 " clip-rule="nonzero"/></clipPath></defs><g clip-path="url(#18a99c82ca)"><path fill="#f4eadc" d="M 37.328125 22.148438 L 40.625 20.191406 L 40.679688 20.21875 C 40.691406 20.226562 40.707031 20.226562 40.71875 20.226562 C 40.753906 20.226562 40.785156 20.207031 40.800781 20.175781 C 40.824219 20.128906 40.804688 20.074219 40.757812 20.050781 L 40.675781 20.015625 L 39.699219 17.277344 L 39.734375 17.25 C 39.777344 17.222656 39.785156 17.164062 39.757812 17.125 C 39.726562 17.082031 39.671875 17.070312 39.628906 17.101562 L 39.585938 17.132812 L 37.460938 16.132812 L 37.453125 16.078125 C 37.453125 16.039062 37.425781 16.011719 37.390625 16 C 37.359375 15.980469 37.320312 15.980469 37.289062 16 L 37.246094 16.03125 L 35.121094 15.03125 L 35.117188 14.980469 C 35.113281 14.929688 35.070312 14.890625 35.015625 14.894531 C 34.964844 14.902344 34.929688 14.945312 34.933594 14.996094 L 34.933594 15.019531 L 32.191406 16.027344 L 32.109375 15.988281 C 32.0625 15.96875 32.007812 15.988281 31.988281 16.035156 C 31.964844 16.078125 31.984375 16.132812 32.03125 16.15625 L 32.085938 16.183594 L 32.691406 19.972656 C 32.394531 20.609375 32.382812 21.308594 32.601562 21.921875 C 31.480469 21.613281 30.339844 21.496094 29.21875 21.554688 C 27.859375 17.191406 23.792969 14.023438 18.992188 14.023438 C 13.078125 14.023438 8.28125 18.832031 8.28125 24.757812 C 8.28125 30.6875 13.078125 35.496094 18.992188 35.496094 C 19.175781 35.496094 19.363281 35.488281 19.542969 35.480469 C 20.410156 38.25 22.390625 40.664062 25.21875 41.992188 C 30.578125 44.507812 36.953125 42.195312 39.464844 36.828125 C 41.714844 32.023438 40.097656 26.398438 35.894531 23.46875 C 36.503906 23.242188 37.03125 22.785156 37.328125 22.148438 M 19.121094 33.464844 C 19.078125 33.46875 19.035156 33.46875 18.992188 33.46875 C 14.199219 33.46875 10.300781 29.5625 10.300781 24.757812 C 10.300781 19.957031 14.199219 16.050781 18.992188 16.050781 C 22.769531 16.050781 25.988281 18.476562 27.1875 21.855469 C 24.164062 22.609375 21.492188 24.667969 20.066406 27.714844 C 19.195312 29.578125 18.90625 31.5625 19.121094 33.464844 Z M 21.898438 28.574219 C 23.046875 26.121094 25.195312 24.453125 27.632812 23.835938 C 27.667969 24.136719 27.683594 24.445312 27.683594 24.757812 C 27.683594 28.824219 24.890625 32.246094 21.128906 33.203125 C 20.960938 31.667969 21.199219 30.070312 21.898438 28.574219 Z M 37.636719 35.96875 C 35.601562 40.316406 30.417969 42.195312 26.078125 40.15625 C 23.890625 39.128906 22.328125 37.296875 21.578125 35.179688 C 26.246094 34.019531 29.703125 29.792969 29.703125 24.757812 C 29.703125 24.355469 29.683594 23.957031 29.636719 23.566406 C 30.917969 23.542969 32.21875 23.808594 33.453125 24.386719 C 37.792969 26.425781 39.667969 31.621094 37.636719 35.96875 Z M 29.277344 12.332031 L 31.496094 12.75 L 29.277344 13.164062 L 28.863281 15.390625 L 28.449219 13.164062 L 26.226562 12.75 L 28.449219 12.332031 L 28.863281 10.109375 Z M 32.832031 7.980469 L 29.363281 7.332031 L 32.832031 6.679688 L 33.480469 3.203125 L 34.128906 6.679688 L 37.597656 7.332031 L 34.128906 7.980469 L 33.480469 11.457031 Z M 13.550781 40.371094 L 11.328125 40.785156 L 10.914062 43.011719 L 10.5 40.785156 L 8.28125 40.371094 L 10.5 39.953125 L 10.914062 37.730469 L 11.328125 39.953125 Z M 16.972656 44.347656 L 20.4375 45 L 16.972656 45.648438 L 16.320312 49.125 L 15.671875 45.648438 L 12.207031 45 L 15.671875 44.347656 L 16.320312 40.875 Z M 16.972656 44.347656 " fill-opacity="1" fill-rule="nonzero"/></g><g clip-path="url(#2a507735ba)"><path fill="#d59f35" d="M 35.894531 23.46875 C 36.503906 23.242188 37.03125 22.785156 37.328125 22.148438 L 35.882812 21.46875 L 35.875 21.480469 C 35.859375 21.507812 35.828125 21.523438 35.796875 21.523438 C 35.78125 21.523438 35.765625 21.515625 35.75 21.507812 C 35.710938 21.484375 35.699219 21.433594 35.714844 21.390625 L 34.304688 20.730469 C 34.292969 20.761719 34.257812 20.78125 34.222656 20.78125 C 34.214844 20.78125 34.207031 20.78125 34.195312 20.777344 C 34.148438 20.761719 34.121094 20.710938 34.136719 20.664062 L 34.140625 20.652344 L 33.785156 20.484375 L 32.691406 19.972656 C 32.394531 20.609375 32.382812 21.308594 32.601562 21.921875 C 31.480469 21.613281 30.339844 21.496094 29.21875 21.554688 C 27.859375 17.191406 23.792969 14.023438 18.992188 14.023438 C 13.078125 14.023438 8.28125 18.832031 8.28125 24.757812 C 8.28125 30.6875 13.078125 35.496094 18.992188 35.496094 C 19.175781 35.496094 19.363281 35.488281 19.542969 35.480469 C 20.410156 38.25 22.390625 40.664062 25.21875 41.992188 C 30.578125 44.507812 36.953125 42.195312 39.464844 36.828125 C 41.714844 32.023438 40.097656 26.398438 35.894531 23.46875 Z M 19.121094 33.464844 C 19.078125 33.46875 19.035156 33.46875 18.992188 33.46875 C 14.199219 33.46875 10.300781 29.5625 10.300781 24.757812 C 10.300781 19.957031 14.199219 16.050781 18.992188 16.050781 C 22.769531 16.050781 25.988281 18.476562 27.1875 21.855469 C 24.164062 22.609375 21.492188 24.667969 20.066406 27.714844 C 19.195312 29.578125 18.90625 31.5625 19.121094 33.464844 Z M 21.898438 28.574219 C 23.046875 26.121094 25.195312 24.453125 27.632812 23.835938 C 27.667969 24.136719 27.683594 24.445312 27.683594 24.757812 C 27.683594 28.824219 24.890625 32.246094 21.128906 33.203125 C 20.960938 31.667969 21.199219 30.070312 21.898438 28.574219 Z M 37.636719 35.96875 C 35.601562 40.316406 30.417969 42.195312 26.078125 40.15625 C 23.890625 39.128906 22.328125 37.296875 21.578125 35.179688 C 26.246094 34.019531 29.703125 29.792969 29.703125 24.757812 C 29.703125 24.355469 29.683594 23.957031 29.636719 23.566406 C 30.917969 23.542969 32.21875 23.808594 33.453125 24.386719 C 37.792969 26.425781 39.667969 31.621094 37.636719 35.96875 Z M 37.636719 35.96875 " fill-opacity="1" fill-rule="nonzero"/></g><path fill="#dd855f" d="M 40.757812 20.050781 L 40.675781 20.015625 L 37.757812 18.644531 L 39.699219 17.277344 L 39.734375 17.25 C 39.777344 17.222656 39.785156 17.164062 39.757812 17.125 C 39.726562 17.082031 39.671875 17.070312 39.628906 17.101562 L 39.585938 17.132812 L 37.652344 18.492188 L 37.460938 16.132812 L 37.453125 16.078125 C 37.453125 16.039062 37.425781 16.011719 37.390625 16 C 37.359375 15.980469 37.320312 15.980469 37.289062 16 L 37.246094 16.03125 L 35.3125 17.390625 L 35.121094 15.03125 L 35.117188 14.980469 C 35.113281 14.929688 35.070312 14.890625 35.015625 14.894531 C 34.964844 14.902344 34.929688 14.945312 34.933594 14.996094 L 34.933594 15.019531 L 35.128906 17.410156 L 32.191406 16.027344 L 32.109375 15.988281 C 32.0625 15.96875 32.007812 15.988281 31.988281 16.035156 C 31.964844 16.078125 31.984375 16.132812 32.03125 16.15625 L 32.085938 16.183594 L 35.101562 17.597656 L 34.140625 20.652344 L 34.136719 20.664062 C 34.121094 20.710938 34.148438 20.761719 34.195312 20.777344 C 34.207031 20.78125 34.214844 20.78125 34.222656 20.78125 C 34.257812 20.78125 34.292969 20.761719 34.304688 20.730469 C 34.308594 20.726562 34.3125 20.722656 34.3125 20.71875 L 35.269531 17.675781 L 37.441406 18.695312 L 35.71875 21.378906 C 35.71875 21.382812 35.71875 21.386719 35.714844 21.390625 C 35.695312 21.433594 35.710938 21.480469 35.75 21.507812 C 35.765625 21.515625 35.78125 21.523438 35.796875 21.523438 C 35.828125 21.523438 35.859375 21.507812 35.875 21.480469 L 35.882812 21.46875 L 37.609375 18.777344 L 40.625 20.191406 L 40.679688 20.21875 C 40.691406 20.226562 40.707031 20.226562 40.71875 20.226562 C 40.753906 20.226562 40.785156 20.207031 40.800781 20.175781 C 40.824219 20.128906 40.804688 20.074219 40.757812 20.050781 Z M 35.417969 17.542969 L 37.28125 16.230469 L 37.46875 18.507812 Z M 35.417969 17.542969 " fill-opacity="1" fill-rule="nonzero"/></svg>