<svg xmlns="http://www.w3.org/2000/svg" xmlns:xlink="http://www.w3.org/1999/xlink" width="70" zoomAndPan="magnify" viewBox="0 0 52.5 52.499999" height="70" preserveAspectRatio="xMidYMid meet" version="1.0"><defs><clipPath id="cfdee32896"><path d="M 19 3.855469 L 41 3.855469 L 41 37 L 19 37 Z M 19 3.855469 " clip-rule="nonzero"/></clipPath><clipPath id="9f90439b88"><path d="M 5.199219 8 L 49 8 L 49 48.429688 L 5.199219 48.429688 Z M 5.199219 8 " clip-rule="nonzero"/></clipPath></defs><g clip-path="url(#cfdee32896)"><path fill="#f3ab5f" d="M 28.148438 12.339844 C 28.148438 12.359375 28.121094 12.359375 28.105469 12.339844 C 27.671875 11.050781 27.910156 9.40625 28.035156 8.070312 C 28.085938 7.382812 28.175781 6.699219 28.28125 6.003906 C 28.378906 5.347656 28.429688 4.605469 28.765625 4.023438 C 28.863281 3.855469 29.085938 3.941406 29.101562 4.121094 C 29.15625 4.746094 28.953125 5.410156 28.855469 6.027344 C 28.714844 6.789062 28.617188 7.566406 28.539062 8.328125 C 28.464844 9.035156 28.414062 9.742188 28.359375 10.457031 C 28.316406 11.09375 28.332031 11.746094 28.148438 12.339844 Z M 31.472656 15.558594 C 32.542969 13.65625 33.539062 11.722656 34.652344 9.847656 C 35.21875 8.917969 35.804688 7.992188 36.429688 7.089844 C 37.039062 6.207031 37.730469 5.3125 38.171875 4.332031 C 38.214844 4.234375 38.101562 4.136719 38.023438 4.207031 C 37.191406 4.921875 36.5625 5.894531 35.953125 6.816406 C 35.359375 7.726562 34.777344 8.652344 34.222656 9.601562 C 33.117188 11.5 32.097656 13.4375 31.355469 15.511719 C 31.347656 15.574219 31.445312 15.609375 31.472656 15.558594 Z M 36.199219 14.523438 C 37.527344 13.277344 39.003906 12.269531 40.425781 11.148438 C 40.503906 11.074219 40.398438 10.96875 40.3125 11.003906 C 38.667969 11.757812 37.277344 13.082031 36.140625 14.46875 C 36.113281 14.503906 36.15625 14.558594 36.199219 14.523438 Z M 26.042969 26.890625 C 25.585938 28.453125 25.0625 30.019531 24.523438 31.558594 C 24.277344 32.289062 23.992188 33.015625 23.738281 33.75 C 23.472656 34.464844 23.046875 35.214844 22.976562 35.992188 C 22.960938 36.160156 23.199219 36.242188 23.296875 36.136719 C 23.765625 35.597656 23.976562 34.835938 24.222656 34.164062 C 24.515625 33.402344 24.78125 32.625 25.027344 31.847656 C 25.539062 30.230469 25.902344 28.621094 26.203125 26.941406 C 26.210938 26.835938 26.070312 26.792969 26.042969 26.890625 Z M 27.46875 29.496094 C 27.421875 30.285156 27.636719 31.105469 27.804688 31.867188 C 27.972656 32.644531 28.121094 33.457031 28.492188 34.164062 C 28.589844 34.339844 28.910156 34.261719 28.882812 34.050781 C 28.800781 33.296875 28.539062 32.582031 28.34375 31.847656 C 28.148438 31.0625 28.042969 30.214844 27.75 29.453125 C 27.707031 29.300781 27.484375 29.328125 27.46875 29.496094 Z M 21.941406 29.1875 C 21.058594 29.65625 20.035156 30.265625 19.589844 31.210938 C 19.519531 31.363281 19.671875 31.558594 19.839844 31.460938 C 20.695312 30.945312 21.351562 30.140625 22.15625 29.550781 C 22.359375 29.398438 22.191406 29.0625 21.941406 29.1875 Z M 21.449219 7.59375 C 21.722656 8.203125 22.058594 8.882812 22.515625 9.371094 C 22.589844 9.441406 22.710938 9.34375 22.660156 9.253906 C 22.296875 8.671875 21.871094 8.148438 21.535156 7.539062 C 21.5 7.476562 21.421875 7.539062 21.449219 7.59375 Z M 21.449219 7.59375 " fill-opacity="1" fill-rule="nonzero"/></g><g clip-path="url(#9f90439b88)"><path fill="#fde9c8" d="M 28.980469 14.769531 C 28.121094 17.554688 27.203125 20.214844 26.195312 22.789062 C 25.222656 25.238281 23.199219 27.289062 20.695312 28.109375 C 19.050781 28.648438 17.371094 28.578125 15.765625 28.089844 C 13.582031 34.023438 13.882812 33.730469 11.847656 39.574219 C 11.902344 39.617188 11.945312 39.652344 12 39.699219 C 12.847656 40.429688 13.367188 41.582031 13.421875 42.703125 C 10.59375 41.890625 7.851562 40.800781 5.210938 39.519531 C 6.085938 38.621094 7.339844 38.097656 8.605469 38.203125 C 8.773438 38.222656 8.921875 38.230469 9.089844 38.257812 C 11.292969 32.394531 10.972656 32.804688 13.164062 26.941406 C 12.265625 26.414062 11.449219 25.765625 10.847656 24.917969 C 9.453125 22.945312 9.480469 20.320312 9.878906 17.933594 C 10.390625 14.804688 11.433594 11.773438 12.9375 8.988281 C 17.035156 10.164062 26.460938 13.59375 28.980469 14.769531 Z M 27.582031 19.78125 C 28.21875 22.636719 28.910156 25.351562 29.710938 27.996094 C 30.472656 30.511719 32.328125 32.714844 34.75 33.738281 C 36.34375 34.402344 38.023438 34.492188 39.664062 34.128906 C 41.355469 40.226562 40.832031 39.160156 42.378906 45.144531 C 42.328125 45.1875 42.265625 45.214844 42.230469 45.257812 C 41.328125 45.921875 40.71875 47.015625 40.566406 48.140625 C 43.449219 47.546875 46.277344 46.714844 49 45.628906 C 48.195312 44.65625 46.992188 44.039062 45.730469 44.039062 C 45.5625 44.039062 45.410156 44.054688 45.242188 44.0625 C 43.527344 38.054688 44.066406 39.203125 42.34375 33.191406 C 43.273438 32.730469 44.148438 32.148438 44.808594 31.363281 C 46.367188 29.523438 46.542969 26.890625 46.347656 24.476562 C 46.082031 21.320312 45.421875 17.855469 44.148438 14.949219 C 39.964844 15.824219 30.191406 18.808594 27.582031 19.78125 Z M 27.582031 19.78125 " fill-opacity="1" fill-rule="nonzero"/></g><path fill="#d59f35" d="M 45.164062 27.109375 C 45.109375 28.894531 44.058594 30.585938 42.589844 31.601562 C 41.125 32.625 39.269531 33.015625 37.484375 32.898438 C 36.667969 32.847656 35.847656 32.707031 35.113281 32.371094 C 32.984375 31.414062 31.789062 29.144531 30.808594 27.011719 C 32.097656 26.351562 33.523438 26.625 34.910156 26.996094 C 36.296875 27.367188 37.738281 27.878906 39.160156 27.660156 C 40.214844 27.492188 41.167969 26.941406 42.183594 26.582031 C 43.191406 26.226562 44.261719 26.542969 45.164062 27.109375 Z M 21.386719 21.957031 C 18.203125 23.078125 14.402344 21.269531 11.175781 22.230469 C 11.546875 23.53125 12.46875 24.644531 13.617188 25.378906 C 14.757812 26.113281 16.109375 26.484375 17.453125 26.582031 C 19.28125 26.703125 21.21875 26.316406 22.648438 25.15625 C 23.878906 24.15625 24.65625 22.636719 24.753906 21.054688 C 23.3125 21.152344 22.730469 21.488281 21.386719 21.957031 Z M 21.386719 21.957031 " fill-opacity="1" fill-rule="nonzero"/></svg>