<svg xmlns="http://www.w3.org/2000/svg" xmlns:xlink="http://www.w3.org/1999/xlink" width="70" zoomAndPan="magnify" viewBox="0 0 52.5 52.499999" height="70" preserveAspectRatio="xMidYMid meet" version="1.0"><defs><clipPath id="b6b2c37222"><path d="M 4.9375 9 L 46.542969 9 L 46.542969 43 L 4.9375 43 Z M 4.9375 9 " clip-rule="nonzero"/></clipPath><clipPath id="435153f90b"><path d="M 33 44 L 35 44 L 35 46.804688 L 33 46.804688 Z M 33 44 " clip-rule="nonzero"/></clipPath><clipPath id="8fe7963ad4"><path d="M 15 5.199219 L 17 5.199219 L 17 8 L 15 8 Z M 15 5.199219 " clip-rule="nonzero"/></clipPath></defs><path fill="#5e2129" d="M 34.070312 27.363281 C 33.378906 25.121094 31.082031 23.78125 28.789062 24.285156 C 28.027344 24.453125 27.324219 24.8125 26.746094 25.332031 L 25.773438 26.203125 C 25.5625 26.390625 25.265625 26.441406 25 26.335938 L 23.792969 25.851562 C 23.070312 25.5625 22.285156 25.464844 21.515625 25.566406 C 19.1875 25.878906 17.488281 27.921875 17.601562 30.265625 C 17.683594 31.929688 18.421875 33.492188 19.660156 34.605469 C 22.089844 36.792969 24.582031 38.59375 27.144531 39.933594 C 27.566406 40.15625 28.089844 40.0625 28.414062 39.710938 C 30.363281 37.574219 32.085938 35.027344 33.625 32.140625 C 34.40625 30.675781 34.5625 28.953125 34.070312 27.363281 Z M 24.691406 36.050781 C 24.640625 36.15625 24.535156 36.21875 24.421875 36.21875 C 24.378906 36.21875 24.335938 36.207031 24.292969 36.1875 C 24.144531 36.113281 24.082031 35.9375 24.152344 35.785156 L 28.808594 26.238281 C 28.882812 26.089844 29.058594 26.027344 29.210938 26.097656 C 29.359375 26.171875 29.421875 26.351562 29.347656 26.5 Z M 31.929688 28.128906 L 28.820312 34.507812 C 28.769531 34.613281 28.660156 34.675781 28.550781 34.675781 C 28.507812 34.675781 28.460938 34.667969 28.417969 34.648438 C 28.269531 34.574219 28.207031 34.394531 28.28125 34.246094 L 31.390625 27.867188 C 31.464844 27.714844 31.640625 27.65625 31.792969 27.726562 C 31.941406 27.800781 32.003906 27.980469 31.929688 28.128906 Z M 31.929688 28.128906 " fill-opacity="1" fill-rule="nonzero"/><path fill="#5e2129" d="M 26.074219 12.253906 L 19.953125 13.335938 C 19.839844 13.355469 19.773438 13.492188 19.816406 13.625 L 20.640625 16.074219 C 20.675781 16.175781 20.765625 16.238281 20.851562 16.222656 L 26.214844 15.277344 C 26.300781 15.261719 26.363281 15.171875 26.359375 15.066406 L 26.296875 12.484375 C 26.292969 12.34375 26.1875 12.234375 26.074219 12.253906 Z M 26.074219 12.253906 " fill-opacity="1" fill-rule="nonzero"/><g clip-path="url(#b6b2c37222)"><path fill="#5e2129" d="M 46.707031 34.210938 L 43.664062 16.964844 C 43.476562 15.882812 42.441406 15.160156 41.359375 15.347656 L 19.269531 19.242188 L 16.832031 13.019531 C 16.710938 12.710938 16.734375 12.363281 16.898438 12.074219 C 17.0625 11.785156 17.34375 11.582031 17.671875 11.527344 L 27.59375 9.777344 C 27.953125 9.714844 28.285156 9.792969 28.53125 10.003906 C 28.773438 10.210938 28.902344 10.527344 28.894531 10.894531 L 28.765625 16.128906 C 28.761719 16.292969 28.894531 16.433594 29.058594 16.4375 C 29.0625 16.4375 29.066406 16.4375 29.066406 16.4375 C 29.230469 16.4375 29.363281 16.304688 29.367188 16.144531 L 29.492188 10.90625 C 29.507812 10.359375 29.304688 9.875 28.921875 9.546875 C 28.539062 9.21875 28.03125 9.089844 27.492188 9.183594 L 17.570312 10.933594 C 17.0625 11.023438 16.628906 11.332031 16.375 11.78125 C 16.125 12.226562 16.089844 12.761719 16.273438 13.238281 L 18.667969 19.351562 L 14.144531 20.148438 L 13.964844 19.144531 C 13.820312 18.328125 13.042969 17.78125 12.226562 17.925781 L 8.839844 18.523438 C 8.027344 18.667969 7.480469 19.445312 7.625 20.261719 L 7.800781 21.265625 L 6.644531 21.46875 C 6.117188 21.5625 5.664062 21.851562 5.359375 22.289062 C 5.054688 22.722656 4.9375 23.25 5.027344 23.773438 L 8.070312 41.023438 C 8.242188 41.988281 9.082031 42.667969 10.03125 42.667969 C 10.144531 42.667969 10.261719 42.65625 10.375 42.636719 L 17.851562 41.320312 C 18.015625 41.289062 18.125 41.132812 18.09375 40.972656 C 18.066406 40.808594 17.910156 40.699219 17.75 40.726562 L 10.273438 42.046875 C 9.515625 42.179688 8.792969 41.675781 8.660156 40.917969 L 6.476562 28.519531 L 12.714844 27.421875 C 12.878906 27.390625 12.988281 27.234375 12.960938 27.074219 C 12.929688 26.910156 12.777344 26.800781 12.613281 26.828125 L 6.371094 27.929688 L 5.621094 23.671875 C 5.558594 23.304688 5.636719 22.9375 5.851562 22.632812 C 6.066406 22.328125 6.382812 22.125 6.75 22.0625 L 41.464844 15.941406 C 42.222656 15.808594 42.945312 16.3125 43.078125 17.066406 L 43.828125 21.328125 L 37.558594 22.433594 C 37.398438 22.460938 37.289062 22.617188 37.316406 22.777344 C 37.34375 22.925781 37.46875 23.027344 37.609375 23.027344 C 37.628906 23.027344 37.644531 23.023438 37.664062 23.023438 L 43.929688 21.917969 L 46.117188 34.3125 C 46.183594 34.679688 46.101562 35.046875 45.886719 35.351562 C 45.671875 35.65625 45.355469 35.859375 44.988281 35.925781 L 35.480469 37.601562 C 36.828125 35.671875 37.535156 33.378906 37.496094 30.980469 C 37.390625 24.84375 32.367188 19.925781 26.253906 19.925781 C 26.191406 19.925781 26.125 19.929688 26.058594 19.929688 C 23.058594 19.980469 20.253906 21.199219 18.167969 23.359375 C 16.082031 25.519531 14.960938 28.363281 15.011719 31.363281 C 15.117188 37.5 20.140625 42.417969 26.25 42.417969 C 26.316406 42.417969 26.382812 42.414062 26.445312 42.414062 C 29.449219 42.363281 32.25 41.144531 34.339844 38.984375 C 34.550781 38.765625 34.753906 38.539062 34.945312 38.304688 L 45.09375 36.515625 C 45.617188 36.421875 46.074219 36.132812 46.378906 35.695312 C 46.683594 35.261719 46.800781 34.734375 46.707031 34.210938 Z M 8.394531 21.160156 L 8.214844 20.15625 C 8.128906 19.667969 8.457031 19.199219 8.945312 19.113281 L 12.332031 18.519531 C 12.820312 18.429688 13.289062 18.757812 13.375 19.246094 L 13.554688 20.253906 Z M 33.90625 38.570312 C 31.929688 40.613281 29.277344 41.765625 26.4375 41.816406 C 26.375 41.816406 26.3125 41.816406 26.25 41.816406 C 20.464844 41.816406 15.710938 37.164062 15.609375 31.355469 C 15.5625 28.511719 16.625 25.820312 18.597656 23.777344 C 20.574219 21.730469 23.226562 20.578125 26.070312 20.53125 C 26.132812 20.527344 26.191406 20.527344 26.253906 20.527344 C 32.039062 20.527344 36.796875 25.183594 36.894531 30.992188 C 36.945312 33.832031 35.882812 36.523438 33.90625 38.570312 Z M 33.90625 38.570312 " fill-opacity="1" fill-rule="nonzero"/></g><path fill="#5e2129" d="M 41.648438 41.730469 L 39.605469 40.835938 C 39.453125 40.769531 39.277344 40.839844 39.210938 40.992188 C 39.144531 41.140625 39.210938 41.320312 39.363281 41.386719 L 41.410156 42.28125 C 41.449219 42.296875 41.488281 42.304688 41.527344 42.304688 C 41.644531 42.304688 41.753906 42.238281 41.804688 42.125 C 41.871094 41.976562 41.800781 41.796875 41.648438 41.730469 Z M 41.648438 41.730469 " fill-opacity="1" fill-rule="nonzero"/><g clip-path="url(#435153f90b)"><path fill="#5e2129" d="M 34.171875 44.246094 C 34.132812 44.082031 33.96875 43.984375 33.808594 44.027344 C 33.648438 44.066406 33.550781 44.226562 33.589844 44.390625 L 34.125 46.554688 C 34.160156 46.691406 34.28125 46.785156 34.417969 46.785156 C 34.441406 46.785156 34.464844 46.78125 34.488281 46.773438 C 34.648438 46.734375 34.746094 46.574219 34.707031 46.410156 Z M 34.171875 44.246094 " fill-opacity="1" fill-rule="nonzero"/></g><path fill="#5e2129" d="M 8.621094 10.945312 L 10.738281 11.652344 C 10.769531 11.664062 10.800781 11.667969 10.832031 11.667969 C 10.957031 11.667969 11.074219 11.589844 11.117188 11.464844 C 11.167969 11.308594 11.082031 11.136719 10.925781 11.085938 L 8.808594 10.378906 C 8.652344 10.324219 8.484375 10.410156 8.429688 10.566406 C 8.378906 10.726562 8.464844 10.894531 8.621094 10.945312 Z M 8.621094 10.945312 " fill-opacity="1" fill-rule="nonzero"/><g clip-path="url(#8fe7963ad4)"><path fill="#5e2129" d="M 15.839844 7.769531 C 15.882812 7.894531 16 7.972656 16.125 7.972656 C 16.15625 7.972656 16.191406 7.96875 16.222656 7.957031 C 16.378906 7.902344 16.460938 7.730469 16.40625 7.574219 L 15.679688 5.464844 C 15.625 5.308594 15.453125 5.226562 15.296875 5.28125 C 15.140625 5.335938 15.054688 5.503906 15.113281 5.664062 Z M 15.839844 7.769531 " fill-opacity="1" fill-rule="nonzero"/></g></svg>