<svg xmlns="http://www.w3.org/2000/svg" xmlns:xlink="http://www.w3.org/1999/xlink" width="70" zoomAndPan="magnify" viewBox="0 0 52.5 52.499999" height="70" preserveAspectRatio="xMidYMid meet" version="1.0"><path fill="#d5b36f" d="M 22.394531 49.554688 C 22 49.25 21.53125 49.222656 21.113281 49.070312 C 20.542969 48.863281 19.984375 48.65625 19.476562 48.328125 C 19.425781 48.292969 19.371094 48.25 19.316406 48.246094 C 18.257812 48.109375 17.191406 47.984375 16.152344 48.277344 C 15.730469 48.398438 15.328125 48.453125 14.914062 48.390625 C 14.421875 48.320312 14.15625 47.949219 14.140625 47.382812 C 14.117188 46.355469 14.277344 45.347656 14.449219 44.339844 C 14.472656 44.191406 14.53125 44.050781 14.460938 43.878906 C 14.253906 43.839844 14.144531 44 14.023438 44.117188 C 13.488281 44.640625 12.957031 45.175781 12.417969 45.699219 C 12.289062 45.824219 12.21875 45.949219 12.214844 46.128906 C 12.207031 46.757812 12.289062 47.363281 12.644531 47.898438 C 12.820312 48.164062 12.878906 48.449219 12.84375 48.753906 C 12.789062 49.210938 12.316406 49.453125 11.949219 49.1875 C 10.996094 48.503906 10.152344 47.726562 9.914062 46.492188 C 9.839844 46.105469 9.671875 45.765625 9.425781 45.445312 C 8.902344 44.765625 9.027344 44.285156 9.5625 43.617188 C 10.847656 42.007812 12.257812 40.503906 13.5625 38.910156 C 14.085938 38.269531 14.597656 37.609375 15.207031 37.054688 C 15.933594 36.398438 15.863281 35.671875 15.605469 34.886719 C 15.28125 33.898438 14.929688 32.925781 14.589844 31.945312 C 14.21875 30.863281 13.945312 29.757812 13.777344 28.625 C 13.726562 28.28125 13.652344 27.925781 13.417969 27.664062 C 12.777344 26.953125 12.800781 26.160156 13.015625 25.296875 C 13.347656 23.96875 13.828125 22.6875 14.351562 21.425781 C 14.648438 20.714844 14.738281 19.980469 14.769531 19.226562 C 14.832031 17.785156 14.667969 16.34375 14.679688 14.898438 C 14.683594 14.144531 14.726562 13.398438 14.847656 12.65625 C 14.902344 12.304688 14.917969 11.953125 14.6875 11.617188 C 14.449219 11.28125 14.488281 10.925781 14.722656 10.566406 C 14.941406 10.230469 15.203125 9.910156 15.308594 9.503906 C 15.363281 9.28125 15.550781 9.199219 15.753906 9.1875 C 16.246094 9.164062 16.75 9.128906 17.214844 9.351562 C 17.722656 9.585938 18.253906 9.605469 18.757812 9.433594 C 19.398438 9.214844 19.667969 8.636719 19.726562 8.027344 C 19.824219 7.027344 20.1875 6.175781 20.859375 5.4375 C 21.367188 4.878906 22 4.5625 22.726562 4.417969 C 23.320312 4.300781 23.855469 4.46875 24.339844 4.816406 C 25.054688 5.324219 25.722656 5.886719 26.335938 6.507812 C 26.832031 7.015625 26.738281 7.480469 26.089844 7.78125 C 25.460938 8.078125 25.195312 8.613281 25.21875 9.265625 C 25.234375 9.683594 25.128906 9.972656 24.78125 10.214844 C 24.417969 10.460938 24.152344 10.796875 23.96875 11.214844 C 23.753906 11.707031 23.414062 11.785156 22.9375 11.523438 C 22.882812 11.492188 22.835938 11.453125 22.785156 11.429688 C 22.59375 11.34375 22.382812 11.078125 22.210938 11.390625 C 22.0625 11.664062 21.972656 12.019531 22.304688 12.238281 C 22.679688 12.488281 23.09375 12.675781 23.484375 12.902344 C 24.066406 13.246094 24.542969 13.671875 24.480469 14.429688 C 24.464844 14.636719 24.363281 14.832031 24.320312 15.035156 C 24.222656 15.507812 24.351562 15.617188 24.804688 15.492188 C 25.195312 15.386719 25.496094 15.230469 25.621094 14.773438 C 25.792969 14.140625 26.128906 13.597656 26.699219 13.210938 C 27.054688 12.972656 27.015625 12.539062 27.039062 12.175781 C 27.074219 11.628906 27.15625 11.175781 27.605469 10.738281 C 27.898438 10.453125 28.136719 9.925781 27.988281 9.371094 C 27.800781 8.675781 27.96875 8.019531 28.390625 7.828125 C 28.972656 7.5625 29.464844 7.824219 29.910156 8.203125 C 30.089844 8.351562 30.234375 8.558594 30.503906 8.636719 C 30.703125 8.417969 30.925781 8.230469 31.230469 8.144531 C 31.792969 7.992188 32.34375 7.839844 32.832031 8.332031 C 33.355469 8.863281 33.6875 9.449219 33.429688 10.234375 C 33.277344 10.691406 33.1875 11.164062 33.152344 11.644531 C 33.113281 12.246094 32.804688 12.667969 32.324219 13.019531 C 31.890625 13.339844 31.351562 13.492188 30.964844 13.886719 C 30.375 14.488281 30.34375 14.746094 30.820312 15.449219 C 30.855469 15.5 30.894531 15.542969 30.925781 15.59375 C 31.210938 16.015625 31.515625 16.347656 32.097656 16.058594 C 32.261719 15.976562 32.476562 15.992188 32.671875 15.980469 C 33.179688 15.953125 33.574219 16.269531 33.597656 16.761719 C 33.628906 17.378906 33.621094 18 33.316406 18.5625 C 33.164062 18.847656 33.179688 19.09375 33.351562 19.363281 C 33.710938 19.917969 34.058594 20.492188 34.519531 20.964844 C 35.316406 21.789062 35.855469 22.777344 36.394531 23.769531 C 36.832031 24.574219 37.253906 25.390625 37.722656 26.175781 C 38.1875 26.953125 38.378906 27.816406 38.617188 28.667969 C 38.648438 28.785156 38.707031 28.949219 38.601562 29.003906 C 38.117188 29.265625 38.394531 29.59375 38.519531 29.882812 C 38.835938 30.628906 39.152344 31.375 39.414062 32.144531 C 39.6875 32.949219 40.300781 33.511719 40.972656 33.96875 C 42.8125 35.214844 44.828125 35.972656 47.070312 36.085938 C 47.992188 36.132812 48.535156 36.792969 48.617188 37.699219 C 48.707031 38.710938 48.269531 39.519531 47.757812 40.296875 C 46.433594 42.3125 44.683594 43.859375 42.570312 45.011719 C 41.324219 45.6875 40.054688 46.300781 38.714844 46.757812 C 37.96875 47.011719 37.339844 47.488281 36.621094 47.800781 C 35.964844 48.082031 35.277344 48.210938 34.613281 48.433594 C 33.675781 48.746094 32.695312 48.925781 31.78125 49.316406 C 29.382812 50.339844 26.878906 50.824219 24.273438 50.753906 C 24.019531 50.746094 23.761719 50.71875 23.511719 50.660156 C 23.121094 50.566406 22.773438 50.394531 22.667969 49.949219 C 22.628906 49.796875 22.527344 49.683594 22.394531 49.554688 M 31.796875 24.855469 C 32.074219 25.132812 32.335938 25.417969 32.550781 25.746094 C 32.707031 25.988281 32.90625 26.195312 33.171875 26.320312 C 33.628906 26.535156 33.996094 26.894531 34.15625 27.335938 C 34.484375 28.234375 35.296875 28.433594 36.019531 28.753906 C 36.378906 28.914062 36.578125 28.734375 36.628906 28.34375 C 36.667969 28.058594 36.660156 27.765625 36.746094 27.496094 C 36.867188 27.113281 36.75 26.824219 36.503906 26.550781 C 36.152344 26.160156 35.828125 25.738281 35.4375 25.386719 C 34.105469 24.179688 32.917969 22.867188 32.078125 21.253906 C 31.703125 20.539062 31.496094 20.542969 30.796875 21.007812 C 30.789062 21.164062 30.90625 21.296875 30.867188 21.476562 C 30.734375 22.09375 30.628906 22.71875 30.347656 23.285156 C 30.179688 23.621094 30.273438 23.769531 30.558594 23.925781 C 31 24.160156 31.390625 24.464844 31.796875 24.855469 M 18.183594 42.597656 C 17.984375 43.625 17.792969 44.65625 17.578125 45.683594 C 17.511719 46.003906 17.632812 46.210938 17.878906 46.371094 C 18.125 46.53125 18.410156 46.5625 18.699219 46.558594 C 18.957031 46.550781 19.070312 46.433594 19.109375 46.179688 C 19.523438 43.453125 19.945312 40.730469 20.359375 38.003906 C 20.378906 37.859375 20.453125 37.679688 20.242188 37.519531 C 19.78125 38.113281 19.246094 38.640625 19.015625 39.382812 C 18.691406 40.417969 18.453125 41.472656 18.183594 42.597656 M 21.242188 27.117188 C 21.285156 27.414062 21.300781 27.71875 21.375 28.007812 C 21.4375 28.257812 21.382812 28.429688 21.214844 28.617188 C 20.789062 29.097656 20.847656 29.800781 21.335938 30.285156 C 21.578125 29.976562 21.523438 29.601562 21.582031 29.253906 C 21.738281 28.320312 22.070312 27.417969 22.113281 26.472656 C 22.160156 25.476562 22.445312 24.589844 23.070312 23.8125 C 23.21875 23.625 23.144531 23.476562 22.976562 23.355469 C 22.648438 23.121094 22.304688 22.902344 21.992188 22.644531 C 21.625 22.34375 21.535156 22.371094 21.40625 22.828125 C 21.023438 24.21875 21.117188 25.628906 21.242188 27.117188 M 25.035156 18.078125 C 24.980469 17.746094 24.785156 17.671875 24.480469 17.765625 C 24.171875 17.863281 24.003906 18.007812 24.039062 18.378906 C 24.144531 19.410156 24.859375 20.070312 25.476562 20.789062 C 25.53125 20.855469 25.628906 20.886719 25.742188 20.808594 C 25.882812 20.398438 25.746094 20.003906 25.589844 19.613281 C 25.398438 19.132812 25.113281 18.679688 25.035156 18.078125 Z M 25.035156 18.078125 " fill-opacity="1" fill-rule="nonzero"/></svg>