<svg xmlns="http://www.w3.org/2000/svg" xmlns:xlink="http://www.w3.org/1999/xlink" width="70" zoomAndPan="magnify" viewBox="0 0 52.5 52.499999" height="70" preserveAspectRatio="xMidYMid meet" version="1.0"><defs><clipPath id="c3c1b79b0d"><path d="M 1.226562 3.722656 L 50.777344 3.722656 L 50.777344 48.273438 L 1.226562 48.273438 Z M 1.226562 3.722656 " clip-rule="nonzero"/></clipPath></defs><g clip-path="url(#c3c1b79b0d)"><path fill="#d5b36f" d="M 50.15625 31.429688 C 50.050781 31.640625 49.898438 31.792969 49.664062 31.828125 C 49.402344 31.863281 49.140625 31.894531 48.878906 31.894531 C 46.722656 31.878906 44.566406 31.855469 42.410156 31.839844 C 41.183594 31.832031 39.957031 31.835938 38.726562 31.835938 C 38.632812 31.835938 38.535156 31.835938 38.398438 31.835938 C 38.636719 30.847656 38.605469 29.867188 38.664062 28.871094 C 38.789062 28.871094 38.894531 28.871094 38.996094 28.871094 C 41.804688 28.882812 44.617188 28.890625 47.425781 28.898438 C 47.902344 28.902344 48.378906 28.878906 48.851562 28.925781 C 49.144531 28.957031 49.429688 29.078125 49.707031 29.183594 C 49.941406 29.277344 50.070312 29.496094 50.164062 29.714844 C 50.410156 30.28125 50.441406 30.859375 50.15625 31.429688 Z M 48.6875 32.625 C 48.636719 33.132812 48.59375 33.644531 48.53125 34.152344 C 48.433594 34.921875 48.335938 35.691406 48.222656 36.460938 C 48.125 37.101562 47.765625 37.535156 47.160156 37.769531 C 46.574219 37.992188 45.964844 38.082031 45.34375 38.097656 C 45.308594 38.097656 45.277344 38.089844 45.234375 38.082031 C 45.230469 37.816406 45.246094 37.546875 45.054688 37.292969 C 44.839844 37.527344 44.871094 37.820312 44.816406 38.097656 C 44.570312 38.097656 44.324219 38.117188 44.078125 38.09375 C 43.464844 38.039062 42.851562 37.96875 42.238281 37.894531 C 41.632812 37.820312 41.320312 37.429688 41.226562 36.859375 C 41.121094 36.207031 41.019531 35.550781 40.964844 34.894531 C 40.902344 34.136719 40.890625 33.378906 40.855469 32.621094 C 40.851562 32.535156 40.855469 32.449219 40.855469 32.34375 C 41.425781 32.34375 41.96875 32.34375 42.546875 32.34375 C 42.53125 32.453125 42.527344 32.519531 42.511719 32.589844 C 42.457031 32.914062 42.46875 33.238281 42.5 33.566406 C 42.507812 33.617188 42.523438 33.667969 42.539062 33.71875 C 42.574219 33.808594 42.636719 33.867188 42.738281 33.859375 C 42.84375 33.855469 42.898438 33.789062 42.914062 33.691406 C 42.984375 33.34375 42.996094 32.992188 42.949219 32.640625 C 42.9375 32.554688 42.925781 32.464844 42.914062 32.359375 C 43.617188 32.359375 44.296875 32.359375 44.96875 32.359375 C 44.96875 32.582031 44.96875 32.78125 44.96875 32.984375 C 44.976562 33.28125 44.980469 33.582031 44.988281 33.878906 C 44.988281 33.914062 44.988281 33.957031 45.007812 33.984375 C 45.046875 34.035156 45.101562 34.113281 45.148438 34.113281 C 45.214844 34.109375 45.308594 34.058594 45.335938 34.003906 C 45.382812 33.902344 45.40625 33.785156 45.410156 33.671875 C 45.417969 33.25 45.410156 32.824219 45.410156 32.367188 C 45.964844 32.332031 46.546875 32.355469 47.164062 32.34375 C 47.15625 32.507812 47.144531 32.644531 47.140625 32.78125 C 47.128906 33.019531 47.125 33.257812 47.117188 33.492188 C 47.117188 33.527344 47.128906 33.5625 47.132812 33.597656 C 47.15625 33.699219 47.191406 33.789062 47.3125 33.792969 C 47.4375 33.800781 47.476562 33.710938 47.496094 33.609375 C 47.550781 33.292969 47.605469 32.980469 47.558594 32.660156 C 47.546875 32.574219 47.542969 32.488281 47.53125 32.363281 C 47.925781 32.386719 48.300781 32.40625 48.6875 32.425781 C 48.6875 32.503906 48.691406 32.566406 48.6875 32.625 Z M 37.816406 28.140625 C 37.726562 28.25 37.640625 28.265625 37.519531 28.261719 C 36.070312 28.25 34.621094 28.242188 33.171875 28.230469 C 29.921875 28.203125 26.671875 28.175781 23.417969 28.148438 C 20.414062 28.121094 17.410156 28.097656 14.40625 28.070312 C 14.371094 28.070312 14.335938 28.070312 14.292969 28.070312 C 13.972656 27.582031 13.695312 27.578125 13.335938 28.046875 C 13 28.046875 12.65625 28.050781 12.3125 28.042969 C 12.25 28.042969 12.179688 28.003906 12.125 27.960938 C 12.027344 27.886719 11.929688 27.808594 11.851562 27.714844 C 11.261719 27.035156 10.675781 26.347656 10.085938 25.667969 C 9.980469 25.542969 9.953125 25.421875 9.980469 25.257812 C 10.164062 24.066406 9.484375 22.890625 8.359375 22.460938 C 8.199219 22.402344 8.117188 22.3125 8.054688 22.164062 C 7.394531 20.660156 7.144531 19.085938 7.289062 17.453125 C 7.433594 15.8125 8.171875 14.457031 9.371094 13.34375 C 9.457031 13.265625 9.574219 13.203125 9.691406 13.167969 C 10.574219 12.898438 11.457031 12.609375 12.351562 12.378906 C 14.203125 11.902344 16.089844 11.617188 17.984375 11.40625 C 21.054688 11.0625 24.132812 10.929688 27.21875 11.007812 C 28.683594 11.042969 30.148438 11.132812 31.609375 11.25 C 32.910156 11.359375 34.210938 11.503906 35.503906 11.695312 C 37.839844 12.039062 40.132812 12.570312 42.367188 13.34375 C 42.847656 13.507812 43.195312 13.773438 43.496094 14.15625 C 44.445312 15.367188 44.859375 16.75 44.855469 18.277344 C 44.851562 19.613281 44.589844 20.890625 44.070312 22.117188 C 44 22.285156 43.90625 22.382812 43.730469 22.449219 C 42.597656 22.851562 41.902344 24.066406 42.109375 25.261719 C 42.136719 25.417969 42.117188 25.542969 42.011719 25.675781 C 41.429688 26.410156 40.816406 27.117188 40.132812 27.757812 C 39.992188 27.890625 39.859375 28.035156 39.730469 28.179688 C 39.65625 28.257812 39.578125 28.289062 39.472656 28.285156 C 39.246094 28.277344 39.015625 28.277344 38.785156 28.28125 C 38.667969 28.28125 38.59375 28.242188 38.519531 28.152344 C 38.304688 27.902344 38.011719 27.894531 37.816406 28.140625 Z M 37.601562 31.824219 C 37.527344 31.828125 37.449219 31.835938 37.371094 31.835938 C 35.730469 31.832031 34.085938 31.820312 32.445312 31.820312 C 32.296875 31.820312 32.203125 31.777344 32.117188 31.652344 C 31.445312 30.691406 30.589844 29.917969 29.605469 29.289062 C 29.328125 29.109375 29.023438 28.96875 28.726562 28.8125 C 28.726562 28.800781 28.730469 28.789062 28.730469 28.78125 C 31.710938 28.8125 34.691406 28.84375 37.703125 28.875 C 37.714844 29.859375 37.738281 30.832031 37.601562 31.824219 Z M 29.777344 31.796875 C 29.644531 30.644531 29.085938 29.746094 28.171875 29.058594 C 28.183594 29.046875 28.195312 29.03125 28.207031 29.015625 C 28.328125 29.058594 28.449219 29.097656 28.566406 29.152344 C 29.003906 29.347656 29.402344 29.609375 29.773438 29.910156 C 30.382812 30.398438 30.9375 30.9375 31.417969 31.550781 C 31.46875 31.621094 31.519531 31.691406 31.59375 31.796875 C 30.957031 31.796875 30.382812 31.796875 29.777344 31.796875 Z M 27.863281 31.785156 C 27.90625 30.824219 27.925781 29.875 27.449219 29 C 28.339844 29.261719 29.359375 30.722656 29.390625 31.785156 C 28.875 31.785156 28.382812 31.785156 27.863281 31.785156 Z M 27.421875 31.777344 C 26.796875 31.777344 26.183594 31.777344 25.523438 31.777344 C 25.574219 31.675781 25.613281 31.59375 25.65625 31.515625 C 25.949219 30.976562 26.1875 30.417969 26.285156 29.808594 C 26.335938 29.507812 26.367188 29.203125 26.410156 28.875 C 26.457031 28.871094 26.523438 28.875 26.589844 28.863281 C 26.914062 28.796875 27.074219 28.980469 27.191406 29.242188 C 27.339844 29.578125 27.421875 29.925781 27.453125 30.289062 C 27.496094 30.78125 27.511719 31.273438 27.421875 31.777344 Z M 24.976562 31.769531 C 24.480469 31.769531 23.996094 31.769531 23.507812 31.769531 C 24.003906 30.917969 25.558594 28.855469 26.015625 28.769531 C 26.132812 29.257812 25.550781 30.945312 24.976562 31.769531 Z M 22.976562 31.601562 C 22.875 31.738281 22.769531 31.785156 22.601562 31.785156 C 20.628906 31.773438 18.660156 31.769531 16.691406 31.761719 C 15.984375 31.761719 15.277344 31.757812 14.570312 31.753906 C 14.484375 31.753906 14.398438 31.746094 14.316406 31.742188 C 14.316406 30.699219 14.316406 29.695312 14.316406 28.695312 C 14.558594 28.636719 24.699219 28.707031 25.34375 28.769531 C 25.324219 28.800781 25.316406 28.835938 25.296875 28.855469 C 24.742188 29.328125 24.277344 29.882812 23.835938 30.457031 C 23.542969 30.835938 23.253906 31.214844 22.976562 31.601562 Z M 12.972656 31.746094 C 9.695312 31.742188 6.417969 31.738281 3.136719 31.730469 C 2.980469 31.730469 2.816406 31.742188 2.667969 31.699219 C 2.160156 31.554688 1.945312 31.15625 1.882812 30.671875 C 1.816406 30.132812 1.929688 29.621094 2.160156 29.128906 C 2.222656 28.992188 2.320312 28.902344 2.453125 28.839844 C 2.914062 28.613281 3.402344 28.523438 3.914062 28.53125 C 5.601562 28.554688 7.289062 28.578125 8.976562 28.597656 C 10.285156 28.613281 11.59375 28.625 12.902344 28.640625 C 12.996094 28.640625 13.089844 28.640625 13.203125 28.640625 C 13.097656 29.699219 13.203125 30.703125 13.261719 31.734375 C 13.160156 31.738281 13.066406 31.75 12.972656 31.746094 Z M 11.039062 36.679688 C 10.996094 36.902344 10.917969 37.121094 10.828125 37.328125 C 10.738281 37.550781 10.5625 37.710938 10.328125 37.769531 C 10.03125 37.847656 9.726562 37.925781 9.421875 37.957031 C 8.828125 38.015625 8.226562 38.046875 7.628906 38.089844 C 7.558594 38.09375 7.492188 38.082031 7.402344 38.078125 C 7.382812 37.785156 7.390625 37.519531 7.199219 37.277344 C 6.964844 37.5 7.023438 37.785156 7 38.070312 C 6.789062 38.0625 6.585938 38.058594 6.386719 38.039062 C 5.921875 37.992188 5.464844 37.898438 5.027344 37.722656 C 4.488281 37.5 4.136719 37.109375 4.039062 36.535156 C 3.921875 35.839844 3.824219 35.140625 3.738281 34.441406 C 3.652344 33.757812 3.59375 33.070312 3.523438 32.386719 C 3.519531 32.355469 3.523438 32.320312 3.523438 32.277344 C 3.917969 32.277344 4.300781 32.277344 4.671875 32.277344 C 4.671875 32.5 4.664062 32.710938 4.671875 32.921875 C 4.683594 33.132812 4.710938 33.339844 4.734375 33.550781 C 4.746094 33.664062 4.785156 33.761719 4.921875 33.765625 C 5.03125 33.769531 5.105469 33.6875 5.105469 33.519531 C 5.105469 33.1875 5.089844 32.851562 5.078125 32.515625 C 5.074219 32.445312 5.0625 32.378906 5.050781 32.269531 C 5.660156 32.257812 6.253906 32.261719 6.859375 32.265625 C 6.839844 32.601562 6.8125 32.90625 6.808594 33.214844 C 6.808594 33.421875 6.835938 33.632812 6.855469 33.84375 C 6.859375 33.894531 6.875 33.957031 6.90625 33.992188 C 6.953125 34.039062 7.027344 34.101562 7.074219 34.089844 C 7.132812 34.078125 7.21875 34 7.222656 33.941406 C 7.253906 33.664062 7.277344 33.382812 7.277344 33.101562 C 7.277344 32.835938 7.246094 32.574219 7.230469 32.308594 C 7.410156 32.253906 8.921875 32.238281 9.324219 32.292969 C 9.3125 32.410156 9.308594 32.53125 9.285156 32.648438 C 9.222656 32.949219 9.265625 33.246094 9.296875 33.542969 C 9.320312 33.742188 9.386719 33.835938 9.5 33.839844 C 9.617188 33.84375 9.710938 33.75 9.722656 33.5625 C 9.742188 33.265625 9.738281 32.964844 9.730469 32.667969 C 9.730469 32.542969 9.703125 32.421875 9.683594 32.285156 C 10.238281 32.285156 10.78125 32.285156 11.34375 32.285156 C 11.351562 32.335938 11.371094 32.386719 11.371094 32.433594 C 11.378906 33.859375 11.304688 35.277344 11.039062 36.679688 Z M 7.492188 22.609375 C 8.707031 22.640625 9.648438 23.617188 9.621094 24.820312 C 9.632812 25.953125 8.671875 27.066406 7.324219 27.015625 C 6.136719 26.96875 5.183594 25.964844 5.210938 24.742188 C 5.238281 23.542969 6.265625 22.578125 7.492188 22.609375 Z M 2.628906 23.554688 C 2.765625 22.867188 2.933594 22.191406 3.191406 21.539062 C 3.566406 20.589844 4.125 19.78125 4.992188 19.210938 C 5.414062 18.933594 5.863281 18.738281 6.378906 18.738281 C 6.4375 18.738281 6.5 18.738281 6.59375 18.738281 C 6.652344 19.953125 6.882812 21.125 7.351562 22.265625 C 5.777344 22.429688 5.035156 23.523438 4.910156 24.566406 C 4.785156 25.582031 5.304688 26.644531 6.339844 27.15625 C 7.199219 27.578125 8.585938 27.605469 9.632812 26.25 C 10.140625 26.828125 10.644531 27.402344 11.144531 27.96875 C 11.136719 27.992188 11.132812 28 11.128906 28.007812 C 11.125 28.015625 11.117188 28.023438 11.109375 28.023438 C 8.273438 28.015625 5.4375 28.007812 2.601562 28 C 2.558594 28 2.515625 27.984375 2.449219 27.972656 C 2.414062 27.65625 2.371094 27.34375 2.347656 27.027344 C 2.253906 25.855469 2.398438 24.699219 2.628906 23.554688 Z M 12.355469 11.6875 C 13.632812 11.273438 14.941406 10.964844 16.269531 10.777344 C 17.722656 10.570312 19.175781 10.386719 20.632812 10.214844 C 21.324219 10.132812 22.023438 10.085938 22.71875 10.046875 C 23.722656 9.992188 24.730469 9.929688 25.738281 9.914062 C 27.027344 9.890625 28.316406 9.945312 29.601562 10.070312 C 30.339844 10.140625 31.082031 10.167969 31.820312 10.253906 C 33.109375 10.402344 34.398438 10.570312 35.683594 10.746094 C 36.820312 10.90625 37.941406 11.164062 39.046875 11.472656 C 40.027344 11.746094 40.980469 12.089844 41.84375 12.652344 C 41.914062 12.699219 41.984375 12.75 42.039062 12.835938 C 41.882812 12.785156 41.726562 12.734375 41.570312 12.683594 C 39.738281 12.074219 37.859375 11.660156 35.953125 11.371094 C 34.601562 11.164062 33.246094 10.980469 31.882812 10.847656 C 29.1875 10.582031 26.484375 10.488281 23.78125 10.566406 C 22.5 10.601562 21.21875 10.644531 19.941406 10.738281 C 17.703125 10.90625 15.476562 11.199219 13.285156 11.683594 C 12.621094 11.832031 11.964844 12.007812 11.304688 12.171875 C 11.25 12.1875 11.195312 12.195312 11.136719 12.207031 C 11.132812 12.191406 11.128906 12.171875 11.121094 12.15625 C 11.53125 12 11.9375 11.824219 12.355469 11.6875 Z M 38.671875 10.675781 C 38.332031 10.597656 38.007812 10.523438 37.683594 10.449219 C 36.519531 10.191406 35.34375 10.007812 34.15625 9.871094 C 33.359375 9.78125 32.5625 9.671875 31.761719 9.605469 C 30.730469 9.519531 29.699219 9.46875 28.667969 9.402344 C 28.058594 9.363281 27.453125 9.328125 26.84375 9.28125 C 26.011719 9.210938 25.183594 9.25 24.355469 9.308594 C 23.15625 9.394531 21.957031 9.464844 20.761719 9.566406 C 19.910156 9.636719 19.054688 9.726562 18.207031 9.839844 C 17.183594 9.972656 16.160156 10.113281 15.144531 10.308594 C 14.289062 10.46875 13.445312 10.710938 12.597656 10.914062 C 12.496094 10.941406 12.398438 10.96875 12.257812 11.007812 C 12.480469 9.5 12.777344 8.046875 13.15625 6.601562 C 13.78125 6.507812 14.390625 6.410156 15.003906 6.328125 C 15.894531 6.207031 16.789062 6.078125 17.683594 5.984375 C 18.65625 5.886719 19.636719 5.804688 20.613281 5.746094 C 22.085938 5.664062 23.558594 5.59375 25.035156 5.542969 C 26.554688 5.488281 28.070312 5.492188 29.589844 5.570312 C 31.269531 5.65625 32.929688 5.886719 34.574219 6.238281 C 35.730469 6.484375 36.886719 6.730469 38.042969 6.976562 C 38.121094 6.992188 38.195312 7.015625 38.304688 7.042969 C 38.4375 8.253906 38.660156 9.441406 38.671875 10.675781 Z M 12.441406 5.871094 C 13.300781 5.636719 14.164062 5.382812 15.035156 5.167969 C 16.28125 4.859375 17.546875 4.664062 18.816406 4.511719 C 20.308594 4.332031 21.804688 4.226562 23.308594 4.175781 C 24.855469 4.125 26.402344 4.140625 27.945312 4.210938 C 30.054688 4.308594 32.15625 4.519531 34.242188 4.84375 C 35.875 5.097656 37.492188 5.433594 39.089844 5.851562 C 39.15625 5.871094 39.222656 5.890625 39.3125 5.917969 C 39.4375 6.753906 39.585938 7.585938 39.632812 8.433594 C 39.679688 9.265625 39.695312 10.101562 39.726562 10.976562 C 39.460938 10.898438 39.238281 10.832031 39.050781 10.777344 C 39.007812 10.160156 38.972656 9.582031 38.914062 9.003906 C 38.867188 8.511719 38.804688 8.019531 38.726562 7.53125 C 38.695312 7.316406 38.613281 7.109375 38.558594 6.894531 C 38.523438 6.75 38.429688 6.675781 38.289062 6.640625 C 37.875 6.539062 37.46875 6.417969 37.054688 6.335938 C 35.730469 6.066406 34.40625 5.796875 33.078125 5.554688 C 31.957031 5.351562 30.820312 5.246094 29.683594 5.1875 C 28.21875 5.109375 26.75 5.074219 25.285156 5.140625 C 23.898438 5.207031 22.511719 5.242188 21.125 5.324219 C 19.425781 5.421875 17.726562 5.558594 16.039062 5.832031 C 15.066406 5.992188 14.089844 6.15625 13.113281 6.3125 C 13.003906 6.332031 12.960938 6.398438 12.933594 6.480469 C 12.796875 6.859375 12.636719 7.238281 12.535156 7.628906 C 12.242188 8.773438 11.996094 9.929688 11.890625 11.140625 C 11.652344 11.234375 11.421875 11.324219 11.171875 11.421875 C 11.492188 9.546875 11.996094 7.730469 12.441406 5.871094 Z M 42.386719 24.746094 C 42.414062 23.546875 43.4375 22.582031 44.664062 22.609375 C 45.878906 22.636719 46.824219 23.613281 46.796875 24.816406 C 46.808594 25.949219 45.847656 27.0625 44.503906 27.015625 C 43.3125 26.972656 42.363281 25.96875 42.386719 24.746094 Z M 45.507812 18.746094 C 45.886719 18.722656 46.238281 18.765625 46.574219 18.917969 C 47.421875 19.304688 48.058594 19.925781 48.523438 20.726562 C 48.929688 21.429688 49.167969 22.195312 49.347656 22.980469 C 49.597656 24.050781 49.789062 25.128906 49.78125 26.230469 C 49.777344 26.777344 49.703125 27.320312 49.664062 27.867188 C 49.640625 28.164062 49.457031 28.324219 49.195312 28.410156 C 49.085938 28.445312 48.96875 28.460938 48.855469 28.460938 C 46.347656 28.410156 43.839844 28.351562 41.332031 28.300781 C 41.144531 28.296875 40.960938 28.296875 40.777344 28.296875 C 40.761719 28.277344 40.75 28.253906 40.734375 28.234375 C 41.308594 27.578125 41.878906 26.921875 42.46875 26.25 C 42.53125 26.324219 42.589844 26.394531 42.648438 26.464844 C 43.75 27.800781 45.808594 27.703125 46.769531 26.265625 C 47.675781 24.917969 47.046875 23.011719 45.511719 22.453125 C 45.28125 22.367188 45.035156 22.320312 44.761719 22.246094 C 45.210938 21.140625 45.457031 19.972656 45.507812 18.746094 Z M 42.292969 42.074219 C 42.535156 42.03125 42.777344 41.984375 43.019531 41.941406 C 43.097656 41.925781 43.175781 41.921875 43.253906 41.910156 C 42.988281 42.179688 42.78125 42.445312 42.652344 42.773438 C 42.601562 42.902344 42.496094 42.902344 42.398438 42.917969 C 41.882812 42.992188 41.367188 43.058594 40.855469 43.132812 C 40.550781 43.175781 40.25 43.230469 39.925781 43.28125 C 39.945312 42.96875 40.078125 42.71875 40.269531 42.5 C 40.324219 42.4375 40.4375 42.40625 40.527344 42.390625 C 41.117188 42.28125 41.707031 42.179688 42.292969 42.074219 Z M 44.980469 42.386719 C 45.21875 42.726562 45.296875 42.976562 45.3125 43.527344 C 45.355469 43.957031 45.160156 44.359375 44.78125 44.664062 C 44.375 44.992188 43.972656 45.035156 43.558594 44.6875 C 42.972656 44.199219 42.609375 43.230469 43.289062 42.34375 C 43.765625 41.722656 44.53125 41.742188 44.980469 42.386719 Z M 43.296875 45.082031 C 42.449219 45.128906 41.601562 45.171875 40.757812 45.210938 C 40.746094 45.214844 40.738281 45.214844 40.730469 45.214844 C 40.320312 45.214844 40.25 45.160156 40.105469 44.734375 C 41.003906 44.5625 41.910156 44.542969 42.785156 44.421875 C 42.992188 44.636719 43.183594 44.835938 43.386719 45.050781 C 43.355469 45.0625 43.324219 45.082031 43.296875 45.082031 Z M 39.976562 44.488281 C 39.816406 44.195312 39.796875 43.890625 39.855469 43.585938 C 40.757812 43.441406 41.640625 43.304688 42.507812 43.167969 C 42.5625 43.503906 42.617188 43.847656 42.675781 44.210938 C 41.785156 44.25 40.878906 44.273438 39.976562 44.488281 Z M 33.730469 43.265625 C 33.792969 43.328125 33.855469 43.402344 33.929688 43.433594 C 33.992188 43.460938 34.09375 43.453125 34.148438 43.417969 C 34.222656 43.371094 34.210938 43.273438 34.160156 43.203125 C 34.09375 43.109375 34.019531 43.023438 33.949219 42.933594 C 33.828125 42.78125 33.707031 42.632812 33.570312 42.460938 C 33.699219 42.394531 33.804688 42.339844 33.917969 42.285156 C 34.105469 42.558594 34.269531 42.820312 34.449219 43.066406 C 34.632812 43.316406 34.832031 43.546875 35.035156 43.800781 C 34.660156 43.933594 34.371094 44.140625 34.164062 44.46875 C 33.734375 43.984375 33.324219 43.523438 32.898438 43.042969 C 32.996094 42.941406 33.09375 42.835938 33.210938 42.714844 C 33.394531 42.910156 33.558594 43.089844 33.730469 43.265625 Z M 34.558594 42.324219 C 34.898438 42.71875 35.246094 43.109375 35.589844 43.5 C 35.644531 43.5625 35.695312 43.632812 35.785156 43.742188 C 35.601562 43.742188 35.480469 43.742188 35.332031 43.742188 C 34.929688 43.257812 34.515625 42.757812 34.097656 42.253906 C 34.386719 42.121094 34.386719 42.128906 34.558594 42.324219 Z M 36.410156 45.480469 C 36.25 45.738281 36.03125 45.917969 35.761719 46.046875 C 35.039062 46.390625 34.207031 45.730469 34.261719 45.070312 C 34.242188 44.851562 34.328125 44.660156 34.453125 44.484375 C 34.726562 44.082031 35.140625 43.933594 35.597656 43.941406 C 36.289062 43.949219 36.835938 44.824219 36.410156 45.480469 Z M 33.972656 45.367188 C 33.46875 44.75 33.003906 44.175781 32.53125 43.59375 C 32.617188 43.449219 32.699219 43.316406 32.789062 43.164062 C 33.21875 43.683594 33.628906 44.183594 34.039062 44.679688 C 34.019531 44.886719 33.996094 45.097656 33.972656 45.367188 Z M 28.589844 44.523438 C 28.839844 44.5 29.035156 44.558594 29.203125 44.746094 C 29.332031 44.890625 29.445312 45.039062 29.519531 45.226562 C 28.96875 45.289062 28.433594 45.355469 27.902344 45.417969 C 27.597656 45.453125 27.292969 45.492188 26.984375 45.519531 C 26.914062 45.527344 26.808594 45.511719 26.773438 45.464844 C 26.542969 45.183594 26.269531 44.953125 25.9375 44.773438 C 26.03125 44.757812 26.125 44.742188 26.21875 44.734375 C 27.007812 44.664062 27.800781 44.605469 28.589844 44.523438 Z M 29.660156 45.507812 C 29.800781 45.773438 29.84375 46.070312 29.792969 46.40625 C 28.875 46.449219 27.984375 46.632812 27.066406 46.855469 C 27.066406 46.667969 27.078125 46.496094 27.0625 46.328125 C 27.042969 46.152344 26.996094 45.984375 26.960938 45.796875 C 27.847656 45.699219 28.738281 45.605469 29.660156 45.507812 Z M 29.597656 47.136719 C 29.558594 47.203125 29.457031 47.246094 29.378906 47.265625 C 29.027344 47.359375 28.679688 47.445312 28.324219 47.523438 C 27.816406 47.628906 27.304688 47.730469 26.796875 47.832031 C 26.738281 47.84375 26.679688 47.84375 26.617188 47.851562 C 26.761719 47.59375 26.894531 47.347656 27.046875 47.074219 C 27.90625 46.941406 28.800781 46.800781 29.71875 46.65625 C 29.730469 46.859375 29.671875 47.007812 29.597656 47.136719 Z M 26.34375 47.558594 C 26.066406 47.921875 25.726562 48.039062 25.296875 47.875 C 24.84375 47.703125 24.515625 47.402344 24.386719 46.914062 C 24.265625 46.476562 24.238281 46.046875 24.417969 45.617188 C 24.53125 45.347656 24.707031 45.140625 24.984375 45.019531 C 25.308594 44.875 25.617188 44.945312 25.890625 45.117188 C 26.390625 45.433594 26.683594 45.890625 26.695312 46.484375 C 26.683594 46.886719 26.589844 47.246094 26.34375 47.558594 Z M 18.691406 43.515625 C 18.683594 43.53125 18.675781 43.542969 18.667969 43.558594 C 18.511719 43.5 18.359375 43.441406 18.195312 43.378906 C 18.234375 43.300781 18.265625 43.230469 18.300781 43.160156 C 18.320312 43.113281 18.347656 43.070312 18.390625 42.988281 C 18.5 43.179688 18.597656 43.347656 18.691406 43.515625 Z M 19 44.914062 C 19 45.660156 18.34375 46.378906 17.660156 46.359375 C 16.8125 46.332031 16.214844 45.625 16.226562 44.972656 C 16.238281 44.339844 16.769531 43.609375 17.632812 43.613281 C 18.382812 43.617188 19 44.203125 19 44.914062 Z M 15.324219 42.160156 C 15.445312 42.074219 15.578125 41.980469 15.71875 41.882812 C 15.933594 42.5625 16.140625 43.210938 16.359375 43.902344 C 16.25 44.050781 16.128906 44.21875 15.992188 44.410156 C 15.769531 43.652344 15.550781 42.921875 15.324219 42.160156 Z M 16.71875 41.5 C 16.894531 42.113281 17.074219 42.726562 17.253906 43.351562 C 17.03125 43.457031 16.808594 43.566406 16.578125 43.675781 C 16.367188 43.042969 16.15625 42.410156 15.941406 41.773438 C 16.171875 41.617188 16.421875 41.542969 16.71875 41.5 Z M 17.710938 41.648438 C 17.742188 41.65625 17.765625 41.691406 17.785156 41.714844 C 17.804688 41.746094 17.816406 41.78125 17.828125 41.8125 C 17.914062 42.015625 18.0625 42.210938 18.074219 42.417969 C 18.082031 42.621094 17.957031 42.832031 17.890625 43.042969 C 17.863281 43.132812 17.835938 43.226562 17.800781 43.332031 C 17.71875 43.332031 17.636719 43.332031 17.578125 43.332031 C 17.359375 42.71875 17.144531 42.117188 16.921875 41.503906 C 17.214844 41.472656 17.460938 41.582031 17.710938 41.648438 Z M 13.070312 42.773438 C 13.316406 42.75 13.515625 42.796875 13.683594 42.988281 C 13.8125 43.136719 13.925781 43.285156 14.011719 43.472656 C 13.226562 43.566406 12.472656 43.65625 11.722656 43.746094 C 11.617188 43.757812 11.511719 43.777344 11.40625 43.773438 C 11.351562 43.773438 11.28125 43.746094 11.25 43.707031 C 11.023438 43.417969 10.742188 43.203125 10.351562 43.03125 C 10.519531 43.007812 10.621094 42.992188 10.722656 42.984375 C 11.507812 42.914062 12.289062 42.851562 13.070312 42.773438 Z M 14.148438 43.753906 C 14.296875 44.019531 14.316406 44.320312 14.273438 44.65625 C 13.355469 44.695312 12.457031 44.890625 11.582031 45.097656 C 11.546875 44.734375 11.515625 44.398438 11.476562 44.042969 C 12.339844 43.949219 13.238281 43.851562 14.148438 43.753906 Z M 14.214844 44.992188 C 14.1875 45.339844 14.011719 45.515625 13.660156 45.582031 C 12.839844 45.738281 12.023438 45.925781 11.203125 46.097656 C 11.179688 46.101562 11.152344 46.097656 11.109375 46.097656 C 11.25 45.839844 11.382812 45.59375 11.53125 45.324219 C 12.402344 45.214844 13.285156 45.003906 14.207031 44.933594 C 14.210938 44.976562 14.214844 44.984375 14.214844 44.992188 Z M 10.6875 45.980469 C 10.542969 46.128906 10.367188 46.191406 10.160156 46.183594 C 9.664062 46.164062 9.261719 45.941406 9.027344 45.515625 C 8.738281 44.992188 8.671875 44.429688 8.910156 43.855469 C 9.019531 43.605469 9.183594 43.40625 9.433594 43.285156 C 9.773438 43.117188 10.101562 43.1875 10.390625 43.371094 C 11.414062 44.027344 11.378906 45.269531 10.6875 45.980469 Z M 50.738281 30.316406 C 50.640625 29.792969 50.484375 29.285156 50.167969 28.847656 C 50.117188 28.773438 50.089844 28.707031 50.121094 28.601562 C 50.390625 27.769531 50.445312 26.90625 50.421875 26.039062 C 50.394531 25.027344 50.230469 24.035156 50.011719 23.050781 C 49.828125 22.210938 49.582031 21.390625 49.167969 20.632812 C 48.683594 19.753906 48.03125 19.039062 47.144531 18.550781 C 46.664062 18.285156 46.160156 18.164062 45.613281 18.300781 C 45.589844 18.304688 45.566406 18.296875 45.507812 18.292969 C 45.507812 18.152344 45.511719 18.011719 45.503906 17.871094 C 45.5 17.730469 45.484375 17.589844 45.472656 17.449219 C 45.324219 15.628906 44.535156 14.117188 43.210938 12.882812 C 42.382812 12.113281 41.410156 11.582031 40.351562 11.199219 C 40.265625 11.167969 40.175781 11.128906 40.101562 11.101562 C 40.117188 10.757812 40.144531 10.441406 40.148438 10.125 C 40.160156 9.285156 40.089844 8.449219 39.988281 7.617188 C 39.90625 6.96875 39.804688 6.324219 39.613281 5.699219 C 39.589844 5.625 39.519531 5.554688 39.453125 5.507812 C 39.390625 5.464844 39.304688 5.453125 39.226562 5.433594 C 37.746094 5.058594 36.25 4.757812 34.742188 4.507812 C 33.050781 4.226562 31.347656 4.027344 29.640625 3.898438 C 27.65625 3.746094 25.667969 3.675781 23.679688 3.757812 C 22.699219 3.796875 21.71875 3.851562 20.742188 3.933594 C 19.933594 3.996094 19.128906 4.109375 18.320312 4.207031 C 17.078125 4.351562 15.835938 4.527344 14.617188 4.835938 C 13.9375 5.003906 13.269531 5.195312 12.617188 5.441406 C 12.328125 5.550781 12.171875 5.730469 12.09375 6.011719 C 11.847656 6.886719 11.570312 7.753906 11.355469 8.636719 C 11.128906 9.578125 10.957031 10.535156 10.773438 11.488281 C 10.75 11.605469 10.6875 11.648438 10.601562 11.699219 C 10.289062 11.882812 9.96875 12.054688 9.675781 12.265625 C 7.902344 13.527344 6.847656 15.21875 6.632812 17.40625 C 6.605469 17.703125 6.59375 18 6.570312 18.308594 C 6.453125 18.289062 6.351562 18.273438 6.246094 18.257812 C 5.746094 18.1875 5.300781 18.351562 4.882812 18.59375 C 3.957031 19.128906 3.296875 19.902344 2.824219 20.851562 C 2.441406 21.617188 2.21875 22.433594 2.046875 23.265625 C 1.707031 24.882812 1.511719 26.507812 1.855469 28.15625 C 1.882812 28.28125 1.847656 28.367188 1.757812 28.460938 C 1.492188 28.730469 1.300781 29.050781 1.257812 29.433594 C 1.1875 30.0625 1.226562 30.699219 1.472656 31.28125 C 1.714844 31.851562 2.140625 32.234375 2.8125 32.234375 C 2.917969 32.234375 3.019531 32.25 3.140625 32.261719 C 3.140625 32.394531 3.136719 32.515625 3.144531 32.640625 C 3.199219 33.484375 3.238281 34.332031 3.320312 35.171875 C 3.367188 35.679688 3.460938 36.1875 3.570312 36.6875 C 3.71875 37.363281 4.105469 37.878906 4.753906 38.15625 C 5.105469 38.308594 5.480469 38.421875 5.855469 38.519531 C 6.425781 38.660156 7.011719 38.660156 7.59375 38.667969 C 8.488281 38.675781 9.375 38.597656 10.246094 38.371094 C 10.898438 38.203125 11.292969 37.792969 11.476562 37.152344 C 11.746094 36.203125 11.839844 35.226562 11.878906 34.246094 C 11.902344 33.671875 11.882812 33.097656 11.882812 32.523438 C 11.882812 32.449219 11.890625 32.371094 11.898438 32.308594 C 15.398438 32.308594 18.882812 32.308594 22.40625 32.308594 C 22.34375 32.402344 22.308594 32.453125 22.273438 32.5 C 21.667969 33.269531 21.066406 34.046875 20.457031 34.8125 C 19.910156 35.496094 19.300781 36.128906 18.671875 36.734375 C 17.691406 37.675781 16.613281 38.488281 15.523438 39.289062 C 14.4375 40.089844 13.421875 40.960938 12.601562 42.042969 C 12.484375 42.195312 12.378906 42.386719 12.21875 42.472656 C 12.0625 42.558594 11.839844 42.523438 11.648438 42.558594 C 10.972656 42.675781 10.289062 42.777344 9.617188 42.925781 C 9.089844 43.046875 8.753906 43.394531 8.59375 43.925781 C 8.4375 44.433594 8.511719 44.914062 8.652344 45.410156 C 8.820312 45.996094 9.605469 46.570312 10.269531 46.519531 C 10.507812 46.503906 10.746094 46.488281 10.980469 46.445312 C 11.683594 46.320312 12.382812 46.183594 13.085938 46.042969 C 13.40625 45.980469 13.726562 45.910156 14.039062 45.820312 C 14.164062 45.78125 14.320312 45.699219 14.378906 45.59375 C 14.617188 45.152344 14.765625 44.675781 14.722656 44.171875 C 14.664062 43.519531 14.316406 43.015625 13.8125 42.617188 C 13.625 42.46875 13.402344 42.410156 13.164062 42.433594 C 13.0625 42.445312 12.960938 42.46875 12.847656 42.402344 C 13.046875 42.199219 13.226562 42.003906 13.414062 41.820312 C 13.855469 41.386719 14.269531 40.921875 14.746094 40.53125 C 15.5 39.917969 16.292969 39.351562 17.0625 38.761719 C 18.445312 37.707031 19.714844 36.53125 20.816406 35.183594 C 21.539062 34.300781 22.230469 33.394531 22.921875 32.492188 C 23.035156 32.347656 23.148438 32.296875 23.320312 32.300781 C 23.703125 32.3125 24.082031 32.304688 24.460938 32.304688 C 24.515625 32.308594 24.570312 32.320312 24.648438 32.332031 C 24.589844 32.433594 24.550781 32.511719 24.5 32.585938 C 24.167969 33.074219 23.84375 33.570312 23.492188 34.046875 C 22.488281 35.394531 21.460938 36.71875 20.46875 38.074219 C 19.59375 39.265625 18.867188 40.550781 18.292969 41.917969 C 18.28125 41.953125 18.253906 41.980469 18.210938 42.042969 C 18.144531 41.886719 18.101562 41.761719 18.035156 41.648438 C 17.984375 41.558594 17.925781 41.457031 17.839844 41.414062 C 17.066406 41.027344 15.988281 41.128906 15.316406 41.878906 C 15.148438 42.0625 15.089844 42.257812 15.160156 42.507812 C 15.3125 43.042969 15.441406 43.585938 15.585938 44.121094 C 15.707031 44.574219 15.832031 45.023438 15.960938 45.472656 C 16.242188 46.421875 17.222656 46.84375 17.910156 46.722656 C 18.808594 46.558594 19.488281 45.664062 19.351562 44.761719 C 19.273438 44.242188 19.175781 43.71875 18.90625 43.246094 C 18.8125 43.085938 18.734375 42.917969 18.640625 42.757812 C 18.574219 42.648438 18.574219 42.554688 18.628906 42.4375 C 18.816406 42.058594 18.992188 41.671875 19.171875 41.289062 C 19.9375 39.675781 20.929688 38.207031 21.996094 36.78125 C 23.0625 35.347656 24.1875 33.960938 25.121094 32.4375 C 25.1875 32.328125 25.269531 32.304688 25.386719 32.304688 C 25.96875 32.308594 26.550781 32.308594 27.132812 32.308594 C 27.195312 32.308594 27.253906 32.320312 27.324219 32.328125 C 27.316406 32.398438 27.308594 32.460938 27.296875 32.519531 C 27.15625 33.085938 27.03125 33.652344 26.867188 34.214844 C 26.421875 35.757812 25.992188 37.300781 25.816406 38.910156 C 25.699219 40.007812 25.726562 41.09375 25.976562 42.171875 C 26.128906 42.851562 26.4375 43.46875 26.707031 44.101562 C 26.738281 44.179688 26.769531 44.253906 26.808594 44.347656 C 26.65625 44.371094 26.535156 44.382812 26.414062 44.410156 C 25.980469 44.496094 25.542969 44.566406 25.117188 44.679688 C 24.589844 44.816406 24.253906 45.15625 24.097656 45.6875 C 23.953125 46.195312 24.019531 46.679688 24.167969 47.171875 C 24.335938 47.742188 25.109375 48.316406 25.769531 48.273438 C 26.015625 48.253906 26.261719 48.238281 26.507812 48.195312 C 27.199219 48.070312 27.894531 47.933594 28.585938 47.796875 C 28.914062 47.730469 29.242188 47.652344 29.566406 47.570312 C 29.765625 47.519531 29.910156 47.398438 29.972656 47.191406 C 30.027344 47.015625 30.101562 46.84375 30.148438 46.664062 C 30.382812 45.78125 30.070312 44.90625 29.332031 44.371094 C 29.148438 44.238281 28.945312 44.167969 28.714844 44.183594 C 28.40625 44.203125 28.097656 44.21875 27.789062 44.242188 C 27.585938 44.257812 27.386719 44.277344 27.179688 44.296875 C 27.023438 43.835938 26.859375 43.390625 26.71875 42.933594 C 26.394531 41.890625 26.203125 40.828125 26.253906 39.726562 C 26.308594 38.59375 26.511719 37.480469 26.78125 36.382812 C 27.03125 35.363281 27.308594 34.351562 27.570312 33.332031 C 27.652344 33 27.714844 32.664062 27.785156 32.335938 C 28.128906 32.285156 29.300781 32.300781 29.511719 32.367188 C 29.5625 33.140625 29.613281 33.921875 29.660156 34.707031 C 29.714844 35.570312 29.785156 36.433594 29.980469 37.28125 C 30.253906 38.492188 30.6875 39.640625 31.429688 40.636719 C 31.878906 41.238281 32.398438 41.785156 32.882812 42.355469 C 32.945312 42.425781 33.007812 42.496094 33.066406 42.5625 C 32.828125 42.835938 32.582031 43.070312 32.460938 43.394531 C 32.402344 43.542969 32.40625 43.667969 32.503906 43.8125 C 33.027344 44.582031 33.59375 45.3125 34.246094 45.972656 C 34.933594 46.671875 35.75 46.574219 36.371094 46.070312 C 37.015625 45.539062 36.988281 44.765625 36.566406 44.25 C 36.199219 43.800781 35.800781 43.375 35.40625 42.945312 C 35.136719 42.652344 34.851562 42.378906 34.578125 42.085938 C 34.472656 41.972656 34.355469 41.945312 34.21875 41.984375 C 33.953125 42.066406 33.691406 42.160156 33.410156 42.253906 C 33.183594 41.984375 32.933594 41.699219 32.695312 41.402344 C 32.320312 40.933594 31.921875 40.480469 31.589844 39.984375 C 30.699219 38.652344 30.28125 37.15625 30.132812 35.578125 C 30.074219 34.933594 30.039062 34.292969 29.988281 33.648438 C 29.957031 33.21875 29.917969 32.785156 29.875 32.3125 C 29.984375 32.3125 30.070312 32.3125 30.15625 32.3125 C 30.660156 32.3125 31.164062 32.320312 31.667969 32.304688 C 31.875 32.296875 31.992188 32.363281 32.078125 32.546875 C 32.453125 33.339844 32.84375 34.121094 33.21875 34.910156 C 33.558594 35.628906 33.925781 36.332031 34.390625 36.984375 C 35.175781 38.09375 36.164062 38.996094 37.261719 39.785156 C 38.351562 40.570312 39.519531 41.230469 40.734375 41.8125 C 40.789062 41.839844 40.839844 41.882812 40.933594 41.9375 C 40.730469 41.988281 40.570312 42.007812 40.425781 42.0625 C 40.265625 42.125 40.082031 42.191406 39.972656 42.3125 C 39.515625 42.8125 39.316406 43.414062 39.398438 44.09375 C 39.449219 44.496094 39.679688 44.828125 39.886719 45.167969 C 40.074219 45.46875 40.328125 45.582031 40.664062 45.5625 C 40.710938 45.558594 40.753906 45.558594 40.796875 45.558594 C 41.335938 45.53125 41.875 45.519531 42.414062 45.46875 C 43.027344 45.414062 43.644531 45.355469 44.253906 45.253906 C 44.941406 45.136719 45.375 44.675781 45.539062 44.027344 C 45.707031 43.359375 45.578125 42.703125 45.148438 42.140625 C 44.945312 41.875 44.6875 41.671875 44.335938 41.648438 C 44.039062 41.628906 43.738281 41.605469 43.441406 41.625 C 42.992188 41.652344 42.542969 41.699219 42.097656 41.765625 C 41.855469 41.800781 41.644531 41.765625 41.4375 41.644531 C 41.378906 41.609375 41.3125 41.582031 41.25 41.546875 C 40.398438 41.046875 39.539062 40.558594 38.695312 40.039062 C 38.171875 39.714844 37.664062 39.355469 37.171875 38.984375 C 35.773438 37.925781 34.6875 36.609375 33.925781 35.023438 C 33.515625 34.175781 33.078125 33.335938 32.65625 32.488281 C 32.628906 32.4375 32.609375 32.386719 32.589844 32.335938 C 35.183594 32.335938 37.761719 32.335938 40.347656 32.335938 C 40.355469 32.410156 40.363281 32.460938 40.363281 32.511719 C 40.355469 32.859375 40.324219 33.203125 40.339844 33.546875 C 40.378906 34.332031 40.417969 35.117188 40.496094 35.898438 C 40.550781 36.421875 40.65625 36.945312 40.855469 37.441406 C 41.027344 37.878906 41.335938 38.183594 41.78125 38.328125 C 42.023438 38.410156 42.273438 38.46875 42.523438 38.519531 C 43.429688 38.707031 44.351562 38.703125 45.269531 38.675781 C 45.96875 38.65625 46.65625 38.535156 47.308594 38.269531 C 48.089844 37.957031 48.539062 37.386719 48.703125 36.566406 C 48.90625 35.542969 49 34.507812 49.058594 33.46875 C 49.078125 33.132812 49.089844 32.800781 49.109375 32.445312 C 49.230469 32.4375 49.332031 32.417969 49.4375 32.425781 C 49.925781 32.449219 50.269531 32.214844 50.488281 31.804688 C 50.734375 31.339844 50.839844 30.835938 50.738281 30.316406 " fill-opacity="1" fill-rule="nonzero"/></g><path fill="#d5b36f" d="M 33.546875 25.410156 C 33.378906 25.4375 33.199219 25.488281 32.996094 25.390625 C 32.996094 25.140625 32.988281 24.875 33 24.613281 C 33.011719 24.339844 33.035156 24.070312 33.058594 23.796875 C 33.109375 23.277344 33.121094 22.757812 33.023438 22.234375 C 33.761719 21.882812 34.46875 21.503906 35.246094 21.285156 C 35.5 21.214844 35.75 21.132812 36.003906 21.054688 C 36.21875 20.984375 36.273438 20.90625 36.222656 20.679688 C 36.183594 20.492188 36.121094 20.308594 36.070312 20.121094 C 36.0625 20.078125 36.058594 20.039062 36.046875 19.984375 C 36.824219 20.085938 37.558594 19.933594 38.289062 19.773438 C 39.039062 19.609375 39.78125 19.417969 40.527344 19.234375 C 40.675781 19.195312 40.824219 19.144531 41 19.136719 C 40.921875 19.230469 40.847656 19.324219 40.769531 19.414062 C 40.3125 19.921875 39.84375 20.414062 39.402344 20.929688 C 39.175781 21.199219 39 21.507812 38.804688 21.800781 C 38.757812 21.871094 38.726562 21.957031 38.703125 22.042969 C 38.625 22.308594 38.703125 22.515625 38.9375 22.65625 C 39.0625 22.734375 39.199219 22.796875 39.335938 22.863281 C 39.800781 23.078125 40.261719 23.292969 40.726562 23.511719 C 40.796875 23.546875 40.863281 23.585938 40.933594 23.621094 C 40.929688 23.640625 40.929688 23.660156 40.929688 23.679688 C 40.316406 23.871094 39.703125 24.066406 39.085938 24.25 C 37.902344 24.605469 36.691406 24.859375 35.476562 25.074219 C 34.832031 25.1875 34.191406 25.304688 33.546875 25.410156 Z M 31.535156 21.296875 C 30.539062 21.488281 29.527344 21.496094 28.527344 21.355469 C 27.460938 21.203125 26.402344 21.007812 25.339844 20.828125 C 24.078125 20.609375 22.808594 20.429688 21.523438 20.449219 C 20.265625 20.46875 19.015625 20.558594 17.789062 20.855469 C 17.3125 20.972656 16.847656 21.140625 16.351562 21.292969 C 16.398438 20.5625 16.46875 19.851562 16.628906 19.152344 C 16.875 18.085938 17.261719 17.058594 17.585938 16.015625 C 17.695312 15.671875 17.875 15.511719 18.203125 15.390625 C 19.5 14.921875 20.839844 14.675781 22.199219 14.492188 C 23.339844 14.335938 24.480469 14.226562 25.632812 14.277344 C 26.582031 14.316406 27.511719 14.484375 28.421875 14.742188 C 29.925781 15.171875 31.453125 15.316406 33.007812 15.171875 C 33.5625 15.121094 34.109375 15.019531 34.660156 14.941406 C 34.71875 14.933594 34.777344 14.929688 34.847656 14.921875 C 35.003906 16.839844 35.273438 18.71875 35.808594 20.578125 C 35.730469 20.585938 35.664062 20.597656 35.597656 20.597656 C 35.054688 20.582031 34.527344 20.664062 33.996094 20.785156 C 33.179688 20.96875 32.359375 21.144531 31.535156 21.296875 Z M 17.578125 24.746094 C 16.128906 25.15625 12.925781 25.242188 12.132812 24.875 C 12.203125 24.800781 12.269531 24.734375 12.332031 24.667969 C 12.65625 24.332031 12.992188 24.003906 13.300781 23.65625 C 13.429688 23.507812 13.523438 23.316406 13.59375 23.128906 C 13.695312 22.863281 13.621094 22.632812 13.382812 22.480469 C 13.199219 22.359375 12.996094 22.265625 12.792969 22.1875 C 12.214844 21.957031 11.613281 21.835938 10.996094 21.734375 C 12.742188 21.246094 14.425781 20.613281 16.082031 19.789062 C 16.050781 20.03125 16.015625 20.242188 16.003906 20.457031 C 15.980469 20.816406 15.957031 21.175781 15.96875 21.535156 C 15.980469 21.785156 16.019531 21.769531 16.265625 21.789062 C 16.757812 21.828125 17.253906 21.757812 17.769531 21.898438 C 17.496094 22.835938 17.527344 23.792969 17.578125 24.746094 Z M 41.058594 24.054688 C 41.214844 24 41.371094 23.925781 41.515625 23.84375 C 41.675781 23.753906 41.695312 23.585938 41.566406 23.46875 C 41.488281 23.402344 41.394531 23.347656 41.296875 23.304688 C 40.664062 23.015625 40.027344 22.730469 39.390625 22.445312 C 38.996094 22.273438 38.984375 22.226562 39.179688 21.839844 C 39.378906 21.449219 39.671875 21.128906 39.960938 20.804688 C 40.34375 20.378906 40.714844 19.941406 41.082031 19.5 C 41.179688 19.386719 41.253906 19.253906 41.324219 19.121094 C 41.445312 18.898438 41.378906 18.769531 41.121094 18.742188 C 40.992188 18.730469 40.855469 18.734375 40.726562 18.765625 C 40.257812 18.875 39.789062 19.011719 39.316406 19.121094 C 38.464844 19.3125 37.613281 19.503906 36.753906 19.671875 C 36.511719 19.71875 36.25 19.679688 35.976562 19.679688 C 35.953125 19.597656 35.925781 19.523438 35.914062 19.449219 C 35.703125 18.375 35.503906 17.296875 35.425781 16.203125 C 35.394531 15.757812 35.3125 15.3125 35.230469 14.871094 C 35.175781 14.589844 35.085938 14.53125 34.804688 14.542969 C 34.382812 14.558594 33.957031 14.570312 33.535156 14.617188 C 31.792969 14.8125 30.082031 14.699219 28.390625 14.214844 C 27.414062 13.9375 26.410156 13.769531 25.390625 13.75 C 24.664062 13.734375 23.941406 13.773438 23.21875 13.851562 C 22.148438 13.96875 21.082031 14.128906 20.042969 14.417969 C 19.285156 14.628906 18.535156 14.863281 17.785156 15.085938 C 17.582031 15.144531 17.457031 15.277344 17.382812 15.476562 C 16.941406 16.714844 16.46875 17.941406 16.199219 19.234375 C 16.171875 19.359375 16.113281 19.414062 16.003906 19.453125 C 15.785156 19.523438 15.570312 19.605469 15.359375 19.691406 C 14.136719 20.175781 12.914062 20.664062 11.664062 21.066406 C 11.277344 21.1875 10.902344 21.34375 10.523438 21.492188 C 10.425781 21.53125 10.328125 21.585938 10.25 21.652344 C 10.125 21.761719 10.160156 21.933594 10.316406 21.984375 C 10.390625 22.011719 10.472656 22.011719 10.550781 22.023438 C 10.707031 22.050781 10.867188 22.0625 11.019531 22.109375 C 11.457031 22.234375 11.898438 22.371094 12.332031 22.511719 C 12.582031 22.597656 12.832031 22.691406 13.074219 22.796875 C 13.25 22.875 13.277344 22.9375 13.191406 23.109375 C 13.101562 23.277344 13 23.449219 12.871094 23.589844 C 12.550781 23.933594 12.214844 24.257812 11.886719 24.59375 C 11.8125 24.667969 11.738281 24.746094 11.683594 24.835938 C 11.597656 24.976562 11.625 25.089844 11.765625 25.171875 C 11.871094 25.230469 11.992188 25.277344 12.109375 25.308594 C 12.605469 25.4375 13.109375 25.507812 13.625 25.539062 C 15.054688 25.628906 16.464844 25.480469 17.867188 25.222656 C 18.117188 25.179688 18.117188 25.171875 18.109375 24.914062 C 18.097656 24.570312 18.066406 24.226562 18.085938 23.882812 C 18.144531 22.960938 18.328125 22.066406 18.683594 21.183594 C 19.558594 21.027344 20.4375 20.96875 21.324219 20.976562 C 22.660156 20.984375 23.980469 21.167969 25.292969 21.414062 C 26.4375 21.628906 27.578125 21.882812 28.738281 21.996094 C 29.648438 22.085938 30.558594 22.082031 31.460938 21.9375 C 31.824219 21.882812 32.1875 21.808594 32.574219 21.734375 C 32.589844 21.863281 32.613281 21.980469 32.625 22.101562 C 32.710938 22.996094 32.597656 23.882812 32.550781 24.773438 C 32.539062 25.007812 32.5625 25.25 32.617188 25.480469 C 32.675781 25.742188 32.832031 25.839844 33.101562 25.84375 C 33.257812 25.84375 33.417969 25.832031 33.574219 25.804688 C 34.125 25.71875 34.667969 25.609375 35.21875 25.53125 C 36.488281 25.34375 37.746094 25.121094 38.96875 24.734375 C 39.667969 24.511719 40.363281 24.285156 41.058594 24.054688 " fill-opacity="1" fill-rule="nonzero"/><path fill="#d5b36f" d="M 7.320312 34.988281 C 7.292969 34.929688 7.210938 34.867188 7.148438 34.859375 C 7.105469 34.851562 7.023438 34.925781 7.003906 34.980469 C 6.847656 35.4375 6.890625 35.886719 7.097656 36.3125 C 7.125 36.371094 7.222656 36.425781 7.285156 36.425781 C 7.386719 36.429688 7.429688 36.339844 7.433594 36.242188 C 7.4375 36.101562 7.433594 35.960938 7.433594 35.816406 C 7.460938 35.53125 7.433594 35.25 7.320312 34.988281 " fill-opacity="1" fill-rule="nonzero"/><path fill="#d5b36f" d="M 9.460938 34.746094 C 9.394531 34.761719 9.3125 34.824219 9.292969 34.882812 C 9.234375 35.066406 9.199219 35.257812 9.164062 35.421875 C 9.191406 35.601562 9.210938 35.75 9.242188 35.894531 C 9.261719 36 9.339844 36.066406 9.445312 36.074219 C 9.554688 36.082031 9.636719 36.019531 9.667969 35.917969 C 9.777344 35.574219 9.777344 35.226562 9.65625 34.882812 C 9.621094 34.792969 9.558594 34.714844 9.460938 34.746094 " fill-opacity="1" fill-rule="nonzero"/><path fill="#d5b36f" d="M 4.902344 34.660156 C 4.859375 34.660156 4.78125 34.734375 4.765625 34.785156 C 4.660156 35.195312 4.65625 35.605469 4.777344 36.011719 C 4.808594 36.113281 4.871094 36.1875 4.984375 36.171875 C 5.101562 36.15625 5.136719 36.0625 5.144531 35.960938 C 5.15625 35.847656 5.160156 35.730469 5.164062 35.617188 C 5.175781 35.617188 5.1875 35.613281 5.199219 35.613281 C 5.148438 35.335938 5.105469 35.058594 5.042969 34.785156 C 5.03125 34.734375 4.953125 34.664062 4.902344 34.660156 " fill-opacity="1" fill-rule="nonzero"/><path fill="#d5b36f" d="M 45.195312 34.933594 C 45.136719 34.847656 45.035156 34.84375 44.972656 34.925781 C 44.929688 34.976562 44.894531 35.046875 44.878906 35.113281 C 44.832031 35.363281 44.792969 35.613281 44.753906 35.863281 C 44.761719 35.867188 44.769531 35.867188 44.777344 35.871094 C 44.789062 36.019531 44.792969 36.167969 44.820312 36.316406 C 44.828125 36.367188 44.882812 36.4375 44.925781 36.445312 C 44.984375 36.453125 45.058594 36.417969 45.109375 36.378906 C 45.148438 36.351562 45.171875 36.292969 45.191406 36.246094 C 45.328125 35.890625 45.347656 35.523438 45.28125 35.152344 C 45.269531 35.078125 45.238281 35 45.195312 34.933594 " fill-opacity="1" fill-rule="nonzero"/><path fill="#d5b36f" d="M 42.761719 34.765625 C 42.691406 34.785156 42.605469 34.859375 42.582031 34.925781 C 42.527344 35.089844 42.503906 35.265625 42.472656 35.429688 C 42.5 35.601562 42.519531 35.757812 42.554688 35.914062 C 42.582031 36.027344 42.664062 36.097656 42.785156 36.09375 C 42.894531 36.09375 42.972656 36.023438 42.996094 35.921875 C 43.085938 35.582031 43.078125 35.242188 42.953125 34.910156 C 42.917969 34.828125 42.863281 34.734375 42.761719 34.765625 " fill-opacity="1" fill-rule="nonzero"/><path fill="#d5b36f" d="M 47.332031 34.679688 C 47.28125 34.730469 47.222656 34.78125 47.175781 34.835938 C 47.15625 34.863281 47.160156 34.902344 47.152344 34.9375 C 47.066406 35.28125 47.042969 35.628906 47.09375 35.980469 C 47.109375 36.082031 47.125 36.179688 47.25 36.191406 C 47.378906 36.207031 47.445312 36.125 47.46875 36.011719 C 47.503906 35.816406 47.527344 35.613281 47.558594 35.421875 C 47.53125 35.21875 47.515625 35.027344 47.476562 34.839844 C 47.460938 34.78125 47.382812 34.734375 47.332031 34.679688 " fill-opacity="1" fill-rule="nonzero"/><path fill="#d5b36f" d="M 7.378906 23.207031 C 8.269531 23.210938 8.976562 23.933594 8.972656 24.84375 C 8.972656 25.734375 8.261719 26.4375 7.371094 26.433594 C 6.484375 26.433594 5.753906 25.691406 5.765625 24.804688 C 5.773438 23.925781 6.5 23.207031 7.378906 23.207031 Z M 7.40625 26.714844 C 8.429688 26.714844 9.28125 25.878906 9.292969 24.851562 C 9.300781 23.835938 8.445312 22.980469 7.414062 22.980469 C 6.378906 22.976562 5.535156 23.816406 5.535156 24.84375 C 5.535156 25.886719 6.359375 26.710938 7.40625 26.714844 " fill-opacity="1" fill-rule="nonzero"/><path fill="#d5b36f" d="M 44.5625 23.207031 C 45.453125 23.21875 46.152344 23.941406 46.148438 24.851562 C 46.144531 25.738281 45.429688 26.441406 44.539062 26.433594 C 43.664062 26.429688 42.945312 25.707031 42.941406 24.824219 C 42.9375 23.941406 43.679688 23.199219 44.5625 23.207031 Z M 44.582031 26.710938 C 45.609375 26.714844 46.457031 25.878906 46.46875 24.851562 C 46.476562 23.835938 45.621094 22.980469 44.589844 22.980469 C 43.554688 22.980469 42.714844 23.816406 42.710938 24.847656 C 42.710938 25.886719 43.535156 26.710938 44.582031 26.710938 " fill-opacity="1" fill-rule="nonzero"/><path fill="#d5b36f" d="M 25.8125 46.988281 C 25.628906 47.175781 25.363281 47.167969 25.183594 46.972656 C 24.878906 46.640625 24.898438 46.0625 25.222656 45.753906 C 25.480469 45.507812 25.785156 45.570312 25.917969 45.894531 C 25.949219 45.96875 25.972656 46.042969 25.992188 46.121094 C 26.007812 46.207031 26.011719 46.296875 26.019531 46.347656 C 26.023438 46.609375 25.980469 46.820312 25.8125 46.988281 Z M 26.140625 45.632812 C 25.855469 45.25 25.335938 45.246094 25.03125 45.605469 C 24.660156 46.035156 24.632812 46.511719 24.835938 47.011719 C 25.050781 47.53125 25.652344 47.644531 26.054688 47.257812 C 26.292969 47.03125 26.390625 46.746094 26.386719 46.425781 C 26.386719 46.136719 26.3125 45.863281 26.140625 45.632812 " fill-opacity="1" fill-rule="nonzero"/><path fill="#d5b36f" d="M 10.316406 45.222656 C 10.125 45.425781 9.847656 45.421875 9.667969 45.21875 C 9.363281 44.875 9.386719 44.304688 9.71875 43.996094 C 9.976562 43.753906 10.277344 43.820312 10.410156 44.152344 C 10.445312 44.242188 10.472656 44.335938 10.492188 44.429688 C 10.507812 44.507812 10.507812 44.585938 10.511719 44.625 C 10.515625 44.875 10.460938 45.066406 10.316406 45.222656 Z M 10.613281 43.859375 C 10.328125 43.5 9.8125 43.503906 9.519531 43.851562 C 9.164062 44.273438 9.113281 44.738281 9.3125 45.238281 C 9.53125 45.792969 10.167969 45.910156 10.578125 45.472656 C 10.789062 45.25 10.871094 44.976562 10.882812 44.648438 C 10.867188 44.378906 10.800781 44.097656 10.613281 43.859375 " fill-opacity="1" fill-rule="nonzero"/><path fill="#d5b36f" d="M 43.570312 42.960938 C 43.625 42.636719 43.882812 42.511719 44.179688 42.660156 C 44.488281 42.816406 44.625 43.050781 44.636719 43.433594 C 44.621094 43.546875 44.617188 43.664062 44.585938 43.769531 C 44.480469 44.082031 44.171875 44.183594 43.910156 43.984375 C 43.816406 43.914062 43.730469 43.8125 43.675781 43.707031 C 43.554688 43.476562 43.527344 43.21875 43.570312 42.960938 Z M 43.289062 43.746094 C 43.390625 44.019531 43.566406 44.234375 43.832031 44.363281 C 44.289062 44.582031 44.765625 44.359375 44.886719 43.871094 C 44.90625 43.777344 44.914062 43.679688 44.929688 43.585938 C 44.945312 43.058594 44.691406 42.6875 44.261719 42.425781 C 44.164062 42.367188 44.03125 42.324219 43.917969 42.332031 C 43.574219 42.351562 43.3125 42.597656 43.238281 42.9375 C 43.179688 43.210938 43.191406 43.480469 43.289062 43.746094 " fill-opacity="1" fill-rule="nonzero"/><path fill="#d5b36f" d="M 17.753906 45.757812 C 17.273438 45.839844 16.878906 45.503906 16.886719 44.964844 C 16.933594 44.695312 16.945312 44.367188 17.253906 44.148438 C 17.6875 43.84375 18.269531 44.03125 18.429688 44.539062 C 18.605469 45.09375 18.289062 45.664062 17.753906 45.757812 Z M 17.59375 43.777344 C 17.46875 43.789062 17.335938 43.839844 17.230469 43.910156 C 16.910156 44.121094 16.765625 44.445312 16.699219 44.816406 C 16.625 45.21875 16.769531 45.667969 17.09375 45.867188 C 17.445312 46.085938 17.816406 46.058594 18.171875 45.863281 C 18.570312 45.636719 18.683594 45.257812 18.695312 44.734375 C 18.738281 44.117188 18.167969 43.722656 17.59375 43.777344 " fill-opacity="1" fill-rule="nonzero"/><path fill="#d5b36f" d="M 35.8125 44.347656 C 36.011719 44.449219 36.082031 44.636719 36.078125 44.855469 C 36.078125 45.171875 35.679688 45.609375 35.359375 45.628906 C 35.269531 45.632812 35.160156 45.601562 35.09375 45.546875 C 34.683594 45.199219 34.734375 44.652344 35.15625 44.355469 C 35.34375 44.222656 35.597656 44.234375 35.8125 44.347656 Z M 34.601562 45.015625 C 34.65625 45.1875 34.691406 45.371094 34.773438 45.53125 C 34.890625 45.765625 35.097656 45.90625 35.375 45.878906 C 35.753906 45.84375 36.167969 45.476562 36.265625 45.109375 C 36.378906 44.675781 36.152344 44.226562 35.757812 44.148438 C 35.628906 44.121094 35.480469 44.148438 35.34375 44.167969 C 34.886719 44.246094 34.636719 44.542969 34.601562 45.015625 " fill-opacity="1" fill-rule="nonzero"/><path fill="#d5b36f" d="M 21.996094 17.269531 C 21.859375 17.210938 21.730469 17.257812 21.632812 17.355469 C 21.464844 17.523438 21.300781 17.695312 21.140625 17.871094 C 21.066406 17.949219 21.003906 18.039062 20.910156 18.160156 C 20.863281 18 20.835938 17.890625 20.800781 17.785156 C 20.75 17.632812 20.710938 17.476562 20.640625 17.335938 C 20.519531 17.109375 20.269531 17.113281 20.140625 17.335938 C 20.105469 17.398438 20.082031 17.464844 20.058594 17.53125 C 19.828125 18.167969 19.597656 18.804688 19.367188 19.445312 C 19.34375 19.5 19.316406 19.5625 19.316406 19.621094 C 19.316406 19.769531 19.453125 19.839844 19.574219 19.757812 C 19.609375 19.734375 19.636719 19.699219 19.667969 19.664062 C 19.925781 19.390625 20.09375 19.0625 20.230469 18.714844 C 20.277344 18.597656 20.328125 18.480469 20.394531 18.332031 C 20.453125 18.5 20.488281 18.628906 20.546875 18.746094 C 20.660156 18.96875 20.875 18.992188 21.035156 18.800781 C 21.089844 18.730469 21.132812 18.652344 21.183594 18.582031 C 21.3125 18.40625 21.445312 18.234375 21.574219 18.0625 C 21.589844 18.074219 21.605469 18.085938 21.617188 18.097656 C 21.578125 18.429688 21.527344 18.757812 21.507812 19.09375 C 21.496094 19.253906 21.539062 19.421875 21.578125 19.582031 C 21.601562 19.679688 21.683594 19.746094 21.796875 19.742188 C 21.910156 19.738281 21.976562 19.667969 22.003906 19.570312 C 22.039062 19.449219 22.0625 19.328125 22.070312 19.207031 C 22.097656 18.828125 22.117188 18.449219 22.140625 18.070312 C 22.148438 17.921875 22.164062 17.773438 22.171875 17.621094 C 22.179688 17.472656 22.148438 17.332031 21.996094 17.269531 " fill-opacity="1" fill-rule="nonzero"/><path fill="#d5b36f" d="M 33.417969 18.886719 C 33.347656 19.429688 33.046875 19.699219 32.449219 19.71875 C 32.460938 19.195312 32.476562 18.671875 32.492188 18.164062 C 33.058594 18 33.484375 18.355469 33.417969 18.886719 Z M 32.644531 17.679688 C 32.527344 17.691406 32.414062 17.691406 32.253906 17.699219 C 32.230469 17.757812 32.171875 17.851562 32.164062 17.949219 C 32.105469 18.59375 32.054688 19.246094 32.003906 19.894531 C 32 19.945312 31.996094 20 32.007812 20.050781 C 32.042969 20.203125 32.195312 20.277344 32.304688 20.167969 C 32.402344 20.070312 32.488281 20.097656 32.589844 20.109375 C 32.683594 20.117188 32.785156 20.125 32.878906 20.105469 C 33.351562 20.019531 33.679688 19.757812 33.816406 19.285156 C 33.964844 18.785156 33.859375 18.347656 33.484375 17.980469 C 33.253906 17.757812 32.972656 17.644531 32.644531 17.679688 " fill-opacity="1" fill-rule="nonzero"/><path fill="#d5b36f" d="M 27.40625 18.222656 C 27.28125 18.308594 27.136719 18.375 26.964844 18.355469 C 26.964844 18.132812 26.964844 17.914062 26.964844 17.652344 C 27.136719 17.703125 27.265625 17.726562 27.378906 17.785156 C 27.582031 17.886719 27.59375 18.097656 27.40625 18.222656 Z M 27.722656 17.566406 C 27.492188 17.375 27.230469 17.3125 26.929688 17.386719 C 26.660156 17.453125 26.660156 17.441406 26.625 17.707031 C 26.550781 18.265625 26.46875 18.824219 26.40625 19.386719 C 26.386719 19.546875 26.410156 19.71875 26.441406 19.878906 C 26.453125 19.9375 26.542969 20 26.609375 20.011719 C 26.644531 20.019531 26.726562 19.9375 26.742188 19.882812 C 26.789062 19.714844 26.8125 19.539062 26.847656 19.367188 C 26.859375 19.296875 26.875 19.226562 26.898438 19.109375 C 27.082031 19.378906 27.226562 19.597656 27.378906 19.8125 C 27.433594 19.890625 27.492188 19.972656 27.5625 20.039062 C 27.636719 20.109375 27.730469 20.132812 27.828125 20.070312 C 27.921875 20.007812 27.949219 19.914062 27.914062 19.816406 C 27.875 19.71875 27.824219 19.621094 27.757812 19.539062 C 27.554688 19.277344 27.339844 19.019531 27.121094 18.746094 C 27.292969 18.683594 27.460938 18.644531 27.605469 18.570312 C 28.027344 18.355469 28.082031 17.871094 27.722656 17.566406 " fill-opacity="1" fill-rule="nonzero"/><path fill="#d5b36f" d="M 25.515625 18.097656 C 25.386719 18.175781 25.234375 18.214844 25.042969 18.289062 C 25.066406 18.058594 25.085938 17.878906 25.105469 17.652344 C 25.261719 17.679688 25.386719 17.683594 25.492188 17.730469 C 25.671875 17.816406 25.683594 17.996094 25.515625 18.097656 Z M 25.898438 18.203125 C 26.171875 17.839844 25.988281 17.363281 25.539062 17.296875 C 25.394531 17.273438 25.242188 17.332031 25.097656 17.320312 C 24.882812 17.300781 24.8125 17.421875 24.773438 17.589844 C 24.652344 18.113281 24.527344 18.636719 24.417969 19.160156 C 24.386719 19.316406 24.398438 19.476562 24.398438 19.636719 C 24.398438 19.742188 24.4375 19.832031 24.558594 19.847656 C 24.675781 19.863281 24.730469 19.78125 24.765625 19.683594 C 24.785156 19.632812 24.804688 19.585938 24.816406 19.53125 C 24.863281 19.328125 24.90625 19.125 24.960938 18.886719 C 25.019531 18.96875 25.058594 19.023438 25.09375 19.078125 C 25.277344 19.335938 25.457031 19.597656 25.640625 19.855469 C 25.683594 19.910156 25.738281 19.96875 25.796875 19.992188 C 25.855469 20.015625 25.941406 20.007812 25.988281 19.976562 C 26.019531 19.957031 26.027344 19.867188 26.011719 19.816406 C 25.984375 19.734375 25.941406 19.652344 25.894531 19.582031 C 25.683594 19.265625 25.472656 18.953125 25.246094 18.621094 C 25.5 18.515625 25.738281 18.414062 25.898438 18.203125 " fill-opacity="1" fill-rule="nonzero"/><path fill="#d5b36f" d="M 23.503906 18.300781 C 23.410156 18.300781 23.335938 18.300781 23.242188 18.300781 C 23.269531 18.117188 23.351562 17.984375 23.503906 17.855469 C 23.503906 18.023438 23.503906 18.160156 23.503906 18.300781 Z M 23.914062 17.757812 C 23.90625 17.640625 23.851562 17.519531 23.796875 17.410156 C 23.679688 17.1875 23.476562 17.160156 23.300781 17.332031 C 23.226562 17.40625 23.152344 17.488281 23.101562 17.578125 C 22.765625 18.164062 22.507812 18.78125 22.367188 19.441406 C 22.351562 19.515625 22.351562 19.601562 22.371094 19.671875 C 22.382812 19.722656 22.445312 19.789062 22.488281 19.792969 C 22.546875 19.796875 22.632812 19.757812 22.660156 19.710938 C 22.710938 19.625 22.734375 19.515625 22.769531 19.417969 C 22.859375 19.152344 22.949219 18.890625 23.039062 18.617188 C 23.214844 18.640625 23.351562 18.660156 23.511719 18.683594 C 23.511719 18.929688 23.507812 19.148438 23.511719 19.367188 C 23.511719 19.445312 23.519531 19.527344 23.539062 19.601562 C 23.566406 19.703125 23.640625 19.773438 23.75 19.777344 C 23.867188 19.78125 23.949219 19.714844 23.980469 19.601562 C 24.003906 19.515625 24.023438 19.425781 24.019531 19.339844 C 23.992188 18.8125 23.960938 18.285156 23.914062 17.757812 " fill-opacity="1" fill-rule="nonzero"/><path fill="#d5b36f" d="M 31.328125 17.679688 C 31.046875 17.660156 30.769531 17.632812 30.488281 17.628906 C 30.355469 17.625 30.253906 17.699219 30.226562 17.84375 C 30.195312 17.988281 30.152344 18.132812 30.132812 18.28125 C 30.097656 18.585938 30.070312 18.894531 30.039062 19.199219 C 30.011719 19.460938 29.976562 19.722656 29.964844 19.988281 C 29.953125 20.222656 30.0625 20.320312 30.296875 20.332031 C 30.421875 20.339844 30.542969 20.363281 30.664062 20.355469 C 30.820312 20.34375 30.980469 20.324219 31.132812 20.285156 C 31.242188 20.253906 31.308594 20.164062 31.289062 20.042969 C 31.273438 19.914062 31.175781 19.875 31.058594 19.871094 C 31.015625 19.867188 30.972656 19.878906 30.925781 19.878906 C 30.773438 19.875 30.617188 19.871094 30.453125 19.867188 C 30.476562 19.578125 30.496094 19.324219 30.515625 19.058594 C 30.722656 19.058594 30.914062 19.058594 31.105469 19.058594 C 31.230469 19.058594 31.339844 19.03125 31.367188 18.890625 C 31.386719 18.773438 31.304688 18.675781 31.144531 18.636719 C 31.09375 18.625 31.042969 18.625 30.988281 18.617188 C 30.835938 18.59375 30.683594 18.566406 30.523438 18.542969 C 30.539062 18.355469 30.550781 18.191406 30.5625 18.015625 C 30.621094 18.007812 30.675781 18.003906 30.726562 18 C 30.917969 17.996094 31.113281 17.996094 31.308594 17.992188 C 31.40625 17.988281 31.480469 17.941406 31.476562 17.835938 C 31.476562 17.742188 31.417969 17.6875 31.328125 17.679688 " fill-opacity="1" fill-rule="nonzero"/><path fill="#d5b36f" d="M 24.769531 14.871094 C 24.773438 14.867188 24.777344 14.867188 24.777344 14.863281 C 24.777344 14.863281 24.777344 14.863281 24.777344 14.859375 C 24.777344 14.863281 24.773438 14.863281 24.769531 14.863281 C 24.769531 14.867188 24.769531 14.867188 24.769531 14.871094 " fill-opacity="1" fill-rule="nonzero"/><path fill="#d5b36f" d="M 24.722656 15.992188 C 24.71875 16.105469 24.75 16.222656 24.785156 16.328125 C 24.890625 16.632812 25.171875 16.71875 25.410156 16.507812 C 25.539062 16.398438 25.660156 16.25 25.71875 16.09375 C 25.824219 15.824219 25.878906 15.535156 25.945312 15.253906 C 25.96875 15.152344 25.988281 15.042969 25.976562 14.941406 C 25.96875 14.875 25.917969 14.789062 25.859375 14.757812 C 25.78125 14.714844 25.707031 14.78125 25.675781 14.859375 C 25.632812 14.976562 25.601562 15.09375 25.566406 15.210938 C 25.5 15.4375 25.441406 15.667969 25.363281 15.894531 C 25.335938 15.976562 25.316406 16.109375 25.1875 16.089844 C 25.050781 16.066406 25.066406 15.929688 25.0625 15.832031 C 25.054688 15.679688 25.0625 15.53125 25.070312 15.382812 C 25.078125 15.25 25.097656 15.117188 25.101562 14.984375 C 25.101562 14.878906 25.152344 14.738281 25 14.691406 C 24.859375 14.652344 24.847656 14.796875 24.777344 14.863281 C 24.777344 14.90625 24.777344 14.949219 24.773438 14.992188 C 24.757812 15.328125 24.730469 15.660156 24.722656 15.992188 " fill-opacity="1" fill-rule="nonzero"/><path fill="#d5b36f" d="M 25.894531 16.203125 C 25.882812 16.273438 25.898438 16.367188 25.9375 16.425781 C 26.0625 16.597656 26.230469 16.703125 26.453125 16.6875 C 26.71875 16.664062 26.949219 16.566406 27.136719 16.378906 C 27.355469 16.15625 27.355469 15.835938 27.128906 15.625 C 27.027344 15.53125 26.898438 15.46875 26.78125 15.394531 C 26.703125 15.347656 26.621094 15.308594 26.5 15.246094 C 26.609375 15.160156 26.683594 15.105469 26.765625 15.039062 C 26.851562 15.136719 26.910156 15.226562 26.992188 15.289062 C 27.039062 15.328125 27.132812 15.347656 27.175781 15.324219 C 27.222656 15.300781 27.265625 15.203125 27.253906 15.152344 C 27.234375 15.0625 27.1875 14.964844 27.121094 14.902344 C 26.871094 14.664062 26.589844 14.6875 26.363281 14.945312 C 26.125 15.214844 26.167969 15.464844 26.484375 15.632812 C 26.578125 15.683594 26.679688 15.71875 26.765625 15.777344 C 26.933594 15.898438 26.933594 16.082031 26.761719 16.191406 C 26.652344 16.257812 26.519531 16.320312 26.394531 16.324219 C 26.316406 16.324219 26.234375 16.210938 26.15625 16.148438 C 26.140625 16.140625 26.128906 16.125 26.117188 16.117188 C 26.019531 16.054688 25.910156 16.089844 25.894531 16.203125 " fill-opacity="1" fill-rule="nonzero"/><path fill="#d5b36f" d="M 29.253906 19.53125 C 29.15625 19.601562 29.058594 19.667969 28.917969 19.769531 C 28.890625 19.589844 28.851562 19.453125 28.859375 19.320312 C 28.875 19.023438 28.917969 18.726562 28.949219 18.425781 C 28.960938 18.296875 28.976562 18.164062 28.964844 18.035156 C 28.960938 17.980469 28.894531 17.914062 28.839844 17.890625 C 28.761719 17.855469 28.679688 17.898438 28.648438 17.980469 C 28.609375 18.078125 28.566406 18.179688 28.550781 18.28125 C 28.492188 18.683594 28.441406 19.082031 28.398438 19.484375 C 28.386719 19.589844 28.390625 19.699219 28.410156 19.800781 C 28.480469 20.175781 28.761719 20.316406 29.09375 20.132812 C 29.238281 20.054688 29.367188 19.941406 29.496094 19.835938 C 29.628906 19.71875 29.652344 19.601562 29.582031 19.515625 C 29.507812 19.421875 29.402344 19.425781 29.253906 19.53125 " fill-opacity="1" fill-rule="nonzero"/><path fill="#d5b36f" d="M 24.566406 14.644531 C 24.171875 14.671875 23.78125 14.71875 23.386719 14.761719 C 23.34375 14.765625 23.300781 14.789062 23.265625 14.8125 C 23.195312 14.871094 23.207031 14.972656 23.292969 15.003906 C 23.347656 15.023438 23.414062 15.023438 23.476562 15.023438 C 23.621094 15.027344 23.765625 15.023438 23.941406 15.023438 C 23.871094 15.320312 23.824219 15.582031 23.742188 15.832031 C 23.640625 16.132812 23.519531 16.171875 23.226562 16.042969 C 23.210938 16.035156 23.195312 16.019531 23.179688 16.023438 C 23.128906 16.027344 23.058594 16.019531 23.035156 16.050781 C 23.003906 16.089844 22.976562 16.167969 22.996094 16.210938 C 23.058594 16.347656 23.148438 16.464844 23.308594 16.515625 C 23.570312 16.59375 23.867188 16.492188 24.007812 16.226562 C 24.101562 16.050781 24.15625 15.847656 24.195312 15.652344 C 24.238281 15.441406 24.242188 15.222656 24.261719 15.023438 C 24.445312 14.96875 24.609375 14.914062 24.769531 14.863281 C 24.746094 14.667969 24.726562 14.632812 24.566406 14.644531 " fill-opacity="1" fill-rule="nonzero"/><path fill="#d5b36f" d="M 28.4375 16.214844 C 28.457031 15.90625 28.472656 15.601562 28.492188 15.289062 C 28.664062 15.269531 28.808594 15.25 28.957031 15.238281 C 29.046875 15.230469 29.125 15.191406 29.113281 15.101562 C 29.109375 15.046875 29.039062 15 28.992188 14.949219 C 28.980469 14.9375 28.960938 14.933594 28.945312 14.929688 C 28.554688 14.839844 28.160156 14.851562 27.765625 14.90625 C 27.664062 14.917969 27.589844 14.992188 27.613281 15.085938 C 27.625 15.144531 27.703125 15.210938 27.765625 15.234375 C 27.863281 15.269531 27.972656 15.269531 28.109375 15.289062 C 28.101562 15.359375 28.09375 15.410156 28.089844 15.460938 C 28.066406 15.8125 28.039062 16.164062 28.019531 16.515625 C 28.011719 16.664062 28.09375 16.761719 28.203125 16.757812 C 28.332031 16.753906 28.390625 16.667969 28.410156 16.554688 C 28.425781 16.441406 28.433594 16.328125 28.4375 16.214844 " fill-opacity="1" fill-rule="nonzero"/><path fill="#d5b36f" d="M 28.566406 17.511719 C 28.5625 17.648438 28.679688 17.769531 28.816406 17.769531 C 28.945312 17.765625 29.070312 17.648438 29.074219 17.515625 C 29.078125 17.382812 28.960938 17.261719 28.824219 17.261719 C 28.691406 17.261719 28.566406 17.382812 28.566406 17.511719 " fill-opacity="1" fill-rule="nonzero"/><path fill="#d5b36f" d="M 16.886719 20.183594 C 16.757812 20.191406 16.65625 20.308594 16.667969 20.433594 C 16.675781 20.566406 16.789062 20.660156 16.917969 20.644531 C 17.035156 20.632812 17.132812 20.527344 17.128906 20.414062 C 17.128906 20.289062 17.007812 20.175781 16.886719 20.183594 " fill-opacity="1" fill-rule="nonzero"/><path fill="#d5b36f" d="M 35.015625 20.203125 C 35.136719 20.207031 35.257812 20.097656 35.257812 19.976562 C 35.261719 19.847656 35.152344 19.742188 35.023438 19.742188 C 34.902344 19.746094 34.808594 19.835938 34.796875 19.953125 C 34.789062 20.085938 34.886719 20.195312 35.015625 20.203125 " fill-opacity="1" fill-rule="nonzero"/><path fill="#d5b36f" d="M 34.316406 15.753906 C 34.441406 15.753906 34.546875 15.648438 34.546875 15.519531 C 34.546875 15.398438 34.449219 15.300781 34.332031 15.300781 C 34.207031 15.296875 34.101562 15.40625 34.101562 15.53125 C 34.105469 15.652344 34.199219 15.75 34.316406 15.753906 " fill-opacity="1" fill-rule="nonzero"/><path fill="#d5b36f" d="M 18.046875 15.78125 C 17.957031 15.761719 17.871094 15.867188 17.878906 15.96875 C 17.886719 16.070312 17.945312 16.128906 18.046875 16.132812 C 18.144531 16.136719 18.222656 16.042969 18.214844 15.894531 C 18.175781 15.867188 18.117188 15.800781 18.046875 15.78125 " fill-opacity="1" fill-rule="nonzero"/></svg>