<svg xmlns="http://www.w3.org/2000/svg" xmlns:xlink="http://www.w3.org/1999/xlink" width="40" zoomAndPan="magnify" viewBox="0 0 30 89.999999" height="120" preserveAspectRatio="xMidYMid meet" version="1.0"><path fill="#000000" d="M 30.804688 31.023438 C 30.769531 30.933594 30.734375 30.824219 30.714844 30.734375 C 30.625 30.414062 30.625 30.070312 30.644531 29.730469 C 30.644531 29.589844 30.644531 29.445312 30.644531 29.320312 C 30.644531 29.121094 30.625 28.925781 30.605469 28.746094 L 30.605469 28.65625 C 30.5 26.578125 30.136719 24.5 30.027344 22.421875 C 29.972656 20.988281 29.738281 19.660156 29.683594 18.207031 C 29.628906 17.6875 29.683594 17.167969 29.449219 16.648438 C 29.300781 16.292969 29.046875 16.183594 28.722656 16.058594 C 28.488281 15.96875 28.269531 15.859375 28.035156 15.773438 C 27.21875 15.378906 26.386719 14.984375 25.480469 14.730469 C 24.84375 14.5 24.300781 14.265625 23.667969 14.035156 C 23.613281 13.996094 23.539062 13.960938 23.488281 13.925781 C 23.578125 13.996094 23.648438 14.070312 23.742188 14.140625 C 23.722656 14.140625 23.703125 14.121094 23.6875 14.121094 C 23.632812 14.085938 23.578125 14.035156 23.523438 13.996094 C 23.015625 13.566406 22.507812 13.121094 22.128906 12.777344 C 22.089844 12.257812 21.890625 11.992188 21.546875 11.9375 L 21.4375 11.917969 L 21.4375 11.8125 C 21.4375 11.703125 21.4375 11.558594 21.457031 11.417969 C 21.476562 11.328125 21.492188 11.253906 21.511719 11.167969 C 21.546875 11.039062 21.585938 10.914062 21.566406 10.808594 L 21.566406 10.753906 L 21.601562 10.71875 C 21.984375 10.359375 22.253906 9.984375 22.398438 9.605469 C 22.542969 9.230469 22.597656 8.820312 22.617188 8.476562 L 22.871094 8.476562 C 22.871094 8.441406 22.835938 8.425781 22.816406 8.425781 C 23.035156 8.386719 23.214844 8.210938 23.324219 7.957031 C 23.46875 7.601562 23.523438 7.167969 23.558594 6.757812 C 23.578125 6.632812 23.59375 6.488281 23.613281 6.363281 C 23.632812 6.183594 23.558594 5.96875 23.433594 5.824219 C 23.359375 5.734375 23.269531 5.699219 23.195312 5.699219 C 23.125 5.699219 23.070312 5.734375 22.996094 5.789062 L 22.796875 6.003906 L 22.78125 5.71875 C 22.761719 5.414062 22.761719 5.164062 22.761719 4.894531 C 22.78125 3.691406 22.796875 2.546875 21.984375 1.613281 C 21.402344 0.878906 20.425781 0.414062 19.5 0.414062 C 19.300781 0.414062 19.121094 0.433594 18.921875 0.46875 L 18.882812 0.46875 C 17.652344 0.519531 16.636719 1.148438 15.929688 2.3125 C 15.625 2.816406 15.605469 3.460938 15.625 4.070312 C 15.625 4.214844 15.640625 4.375 15.660156 4.519531 C 15.679688 4.734375 15.695312 4.964844 15.695312 5.179688 C 15.695312 5.359375 15.695312 5.539062 15.695312 5.683594 L 15.695312 5.914062 L 15.496094 5.789062 C 15.441406 5.753906 15.40625 5.753906 15.332031 5.753906 C 15.277344 5.753906 15.226562 5.753906 15.171875 5.773438 C 14.898438 5.824219 14.917969 6.273438 14.917969 6.417969 C 14.917969 6.9375 15.042969 7.511719 15.152344 7.886719 C 15.242188 8.171875 15.441406 8.386719 15.695312 8.441406 L 15.785156 8.460938 L 15.785156 8.550781 C 15.804688 8.710938 15.824219 8.835938 15.839844 8.960938 C 15.929688 9.5 16.238281 10.109375 16.621094 10.574219 C 16.65625 10.628906 16.710938 10.664062 16.746094 10.71875 L 16.765625 10.753906 L 16.78125 10.863281 L 16.730469 10.914062 C 16.730469 10.898438 16.710938 10.878906 16.710938 10.84375 C 16.492188 11.128906 15.660156 11.363281 15.316406 11.648438 C 14.808594 12.082031 14.355469 12.5625 13.847656 12.921875 C 13.828125 12.941406 13.8125 12.941406 13.792969 12.957031 L 13.792969 12.941406 C 13.539062 13.121094 13.25 13.28125 12.921875 13.351562 C 11.4375 13.730469 9.644531 13.90625 8.140625 14.515625 C 8.03125 14.554688 7.921875 14.589844 7.851562 14.644531 C 7.816406 14.660156 7.761719 14.679688 7.722656 14.695312 C 7.378906 15.144531 6.855469 14.910156 6.617188 15.324219 C 6.3125 15.71875 6.21875 16.507812 6.128906 17.042969 C 5.820312 18.316406 5.421875 19.679688 4.898438 21.253906 C 4.84375 21.417969 4.789062 21.578125 4.734375 21.757812 C 4.515625 22.402344 4.28125 23.082031 4.191406 23.765625 C 4.082031 24.390625 4.0625 25.035156 4.027344 25.644531 C 4.011719 25.859375 4.011719 26.074219 3.992188 26.292969 C 3.992188 26.363281 3.972656 26.453125 3.972656 26.523438 C 3.9375 26.898438 3.882812 27.257812 3.808594 27.617188 C 3.609375 28.441406 3.339844 29.246094 3.375 30.160156 C 3.375 30.679688 3.503906 31.203125 3.320312 31.773438 C 3.140625 32.347656 2.90625 32.941406 2.796875 33.566406 C 2.597656 35.035156 2.199219 36.46875 1.890625 37.902344 C 1.617188 39.105469 1.402344 40.339844 1.457031 41.578125 C 1.472656 42.152344 1.492188 42.671875 1.402344 43.226562 C 1.382812 43.296875 1.363281 43.371094 1.347656 43.441406 C 1.253906 43.691406 1.148438 43.941406 1.109375 44.195312 C 1.09375 44.28125 1.074219 44.371094 1.09375 44.460938 C 1.09375 44.460938 1.09375 44.480469 1.09375 44.480469 C 1.238281 44.550781 1.382812 44.570312 1.527344 44.570312 C 1.5625 44.570312 1.617188 44.570312 1.65625 44.570312 L 1.816406 44.550781 L 1.800781 44.714844 C 1.691406 45.449219 1.582031 46.109375 1.402344 46.792969 C 1.273438 47.238281 1.457031 47.472656 1.78125 47.832031 L 1.816406 47.867188 C 2.089844 48.171875 2.324219 48.441406 2.488281 48.851562 C 2.507812 48.90625 2.523438 48.960938 2.542969 49.015625 C 2.597656 49.15625 2.652344 49.355469 2.742188 49.425781 C 2.832031 49.515625 2.996094 49.535156 3.140625 49.550781 L 3.210938 49.550781 C 3.519531 49.585938 3.828125 49.75 4.117188 49.890625 C 4.191406 49.929688 4.28125 49.980469 4.355469 50.019531 C 4.570312 50.125 4.769531 50.179688 4.898438 50.179688 C 5.0625 50.179688 5.097656 50.105469 5.097656 50.035156 L 5.113281 49.910156 L 5.242188 49.929688 C 5.261719 49.929688 5.277344 49.929688 5.296875 49.929688 C 5.476562 49.929688 5.695312 49.839844 5.765625 49.714844 C 5.785156 49.675781 5.820312 49.605469 5.75 49.496094 C 5.660156 49.320312 5.496094 49.15625 5.296875 49.050781 L 4.988281 48.871094 L 5.351562 48.835938 C 5.441406 48.816406 5.496094 48.78125 5.511719 48.691406 C 5.621094 48.242188 5.511719 47.742188 5.40625 47.238281 C 5.332031 46.933594 5.261719 46.613281 5.261719 46.324219 C 5.261719 46.199219 5.261719 46.058594 5.277344 45.894531 C 5.3125 45.464844 5.332031 45 5.113281 44.730469 L 5.007812 44.605469 L 5.152344 44.535156 C 5.152344 44.535156 5.167969 44.535156 5.167969 44.515625 C 5.277344 44.371094 5.277344 44.210938 5.277344 44.015625 C 5.277344 43.960938 5.277344 43.90625 5.277344 43.871094 C 5.242188 43.316406 5.386719 42.777344 5.53125 42.257812 C 5.566406 42.152344 5.585938 42.042969 5.621094 41.9375 L 5.695312 41.683594 C 5.765625 41.378906 5.859375 41.09375 5.929688 40.789062 C 6.09375 40.199219 6.257812 39.625 6.328125 39.03125 C 6.363281 38.835938 6.402344 38.65625 6.4375 38.460938 C 6.511719 37.992188 6.671875 37.5625 6.816406 37.132812 C 7 36.632812 7.164062 36.113281 7.214844 35.574219 C 7.234375 35.339844 7.234375 35.109375 7.234375 34.875 C 7.234375 34.570312 7.214844 34.246094 7.289062 33.925781 C 7.363281 33.546875 7.578125 33.207031 7.761719 32.851562 C 7.851562 32.6875 7.941406 32.527344 8.015625 32.382812 C 8.175781 32.027344 8.414062 31.378906 8.015625 31.003906 L 7.90625 30.898438 L 8.050781 30.808594 C 8.285156 30.664062 8.414062 30.539062 8.484375 30.339844 L 8.484375 30.324219 L 8.703125 30.375 C 8.683594 31.039062 8.667969 31.722656 8.628906 32.382812 C 8.558594 33.316406 8.449219 34.15625 8.285156 34.945312 C 7.996094 36.398438 7.632812 37.867188 7.253906 39.300781 C 6.945312 40.394531 6.65625 41.453125 6.457031 42.5625 C 6.257812 43.546875 6.21875 44.550781 6.257812 45.554688 C 6.257812 46.074219 6.257812 46.613281 6.382812 47.097656 C 6.402344 47.203125 6.457031 47.292969 6.511719 47.382812 L 6.457031 47.4375 C 6.457031 49.730469 5.914062 52.042969 5.566406 54.335938 C 5.496094 54.765625 5.421875 55.214844 5.351562 55.679688 C 5.332031 55.789062 5.3125 55.894531 5.296875 56.003906 C 5.1875 56.648438 5.097656 57.3125 5.261719 57.902344 C 5.3125 58.082031 5.40625 58.261719 5.496094 58.441406 C 5.566406 58.566406 5.621094 58.710938 5.675781 58.835938 C 5.894531 59.335938 5.710938 59.855469 5.550781 60.304688 L 5.550781 60.320312 C 5.511719 60.449219 5.460938 60.554688 5.421875 60.679688 C 5.386719 60.789062 5.351562 60.894531 5.3125 61.003906 C 5.222656 61.273438 5.152344 61.539062 5.078125 61.808594 C 4.988281 62.113281 4.898438 62.4375 4.808594 62.742188 C 4.660156 63.207031 4.425781 63.621094 4.210938 63.996094 C 4.0625 64.246094 3.917969 64.515625 3.792969 64.785156 C 3.683594 65.054688 3.574219 65.320312 3.539062 65.625 C 3.519531 65.804688 3.539062 65.984375 3.558594 66.183594 C 3.574219 66.414062 3.609375 66.664062 3.539062 66.933594 C 3.429688 67.363281 3.25 67.777344 3.066406 68.171875 C 2.90625 68.53125 2.757812 68.90625 2.632812 69.300781 C 2.359375 70.140625 2.269531 71.019531 2.199219 71.84375 C 2.105469 72.957031 2.089844 74.101562 2.089844 75.214844 C 2.089844 75.914062 2.070312 76.648438 2.035156 77.363281 C 2 78.367188 1.925781 79.28125 1.800781 80.179688 C 1.746094 80.519531 1.707031 80.875 1.65625 81.21875 C 1.582031 81.738281 1.507812 82.292969 1.4375 82.8125 L 1.4375 82.832031 C 1.363281 83.1875 1.253906 83.78125 1.546875 84.046875 C 1.582031 84.085938 1.636719 84.121094 1.671875 84.15625 L 1.617188 84.316406 L 1.671875 84.28125 C 1.671875 84.28125 1.671875 84.300781 1.671875 84.300781 L 1.691406 84.28125 L 1.65625 84.351562 C 1.492188 85.015625 1.203125 85.875 0.640625 86.46875 C 0.511719 86.609375 0.386719 86.753906 0.242188 86.898438 C -0.265625 87.4375 -0.753906 87.957031 -0.628906 88.742188 C -0.5 89.566406 0.457031 89.605469 1.238281 89.640625 L 1.363281 89.640625 C 1.527344 89.640625 1.671875 89.65625 1.835938 89.675781 C 2.054688 89.695312 2.289062 89.710938 2.507812 89.710938 L 2.558594 89.710938 C 3.105469 89.710938 3.503906 89.621094 3.863281 89.425781 C 4.082031 89.28125 4.210938 89.191406 4.28125 88.957031 C 4.316406 88.886719 4.316406 88.816406 4.335938 88.726562 C 4.371094 88.546875 4.410156 88.332031 4.660156 88.1875 C 4.734375 88.152344 4.789062 88.117188 4.84375 88.097656 C 4.878906 88.082031 4.898438 88.082031 4.933594 88.0625 C 5.007812 88.046875 5.0625 88.027344 5.113281 87.992188 C 5.1875 87.957031 5.242188 87.902344 5.296875 87.828125 C 5.351562 87.722656 5.367188 87.5625 5.367188 87.398438 C 5.367188 87.308594 5.367188 87.21875 5.386719 87.132812 C 5.40625 87.058594 5.40625 87.003906 5.421875 86.933594 C 5.496094 86.558594 5.566406 86.164062 5.460938 85.804688 C 5.40625 85.554688 5.277344 85.230469 5.152344 84.945312 L 5.078125 84.785156 L 5.261719 84.785156 C 5.277344 84.785156 5.296875 84.785156 5.332031 84.785156 C 5.441406 84.785156 5.550781 84.746094 5.640625 84.730469 C 5.75 84.710938 5.859375 84.710938 5.964844 84.710938 C 6.164062 84.710938 6.347656 84.730469 6.527344 84.800781 C 6.582031 84.820312 6.636719 84.835938 6.691406 84.835938 C 7.179688 84.835938 7.324219 83.90625 7.363281 83.566406 C 7.46875 82.847656 7.578125 82.113281 7.707031 81.394531 C 7.777344 80.964844 7.851562 80.519531 7.921875 80.089844 C 8.03125 79.40625 8.105469 78.691406 8.175781 78.007812 C 8.265625 77.238281 8.339844 76.449219 8.484375 75.679688 C 8.59375 74.980469 8.667969 74.265625 8.71875 73.582031 C 8.773438 72.882812 8.847656 72.167969 8.972656 71.449219 C 9.101562 70.734375 9.246094 70 9.390625 69.300781 C 9.535156 68.601562 9.679688 67.882812 9.808594 67.167969 C 9.917969 66.59375 10.042969 66.003906 10.1875 65.445312 C 10.332031 64.890625 10.460938 64.316406 10.570312 63.746094 C 10.660156 63.296875 10.695312 62.667969 10.496094 62.132812 C 10.496094 62.113281 10.476562 62.078125 10.476562 62.058594 C 10.460938 62.023438 10.441406 61.96875 10.421875 61.933594 C 10.421875 61.917969 10.441406 61.917969 10.441406 61.898438 C 10.476562 61.84375 10.515625 61.808594 10.53125 61.753906 C 10.894531 61.558594 11.183594 60.804688 11.328125 60.449219 L 11.347656 60.410156 C 11.472656 60.125 11.546875 59.785156 11.621094 59.480469 C 11.636719 59.371094 11.671875 59.28125 11.691406 59.175781 C 11.800781 58.691406 12 58.207031 12.179688 57.742188 L 12.273438 57.527344 C 12.417969 57.132812 12.5625 56.703125 12.707031 56.308594 C 12.921875 55.664062 13.140625 54.980469 13.449219 54.355469 C 13.792969 53.636719 14.101562 52.886719 14.390625 52.167969 C 14.679688 51.453125 14.988281 50.699219 15.332031 49.964844 L 15.476562 50 C 15.550781 51.398438 15.785156 52.867188 15.984375 54.191406 C 16.277344 55.929688 16.746094 57.667969 16.746094 59.335938 C 16.746094 60.195312 16.691406 61.019531 16.636719 61.863281 C 16.636719 61.882812 16.636719 61.917969 16.636719 61.933594 C 16.621094 62.113281 16.601562 62.292969 16.601562 62.453125 C 16.582031 62.652344 16.566406 62.867188 16.546875 63.0625 C 16.492188 63.671875 16.421875 64.300781 16.511719 64.875 C 16.566406 65.214844 16.691406 65.535156 16.820312 65.859375 C 16.929688 66.164062 17.054688 66.46875 17.109375 66.792969 C 17.179688 67.203125 17.234375 67.757812 17 68.296875 C 16.929688 68.441406 16.875 68.566406 16.800781 68.707031 C 16.710938 68.886719 16.621094 69.050781 16.546875 69.226562 C 16.402344 69.605469 16.53125 70.054688 16.636719 70.484375 C 16.691406 70.699219 16.765625 70.914062 16.78125 71.109375 C 16.800781 71.308594 16.820312 71.523438 16.820312 71.71875 C 16.800781 72.257812 16.730469 72.792969 16.65625 73.296875 C 16.636719 73.457031 16.601562 73.601562 16.566406 73.761719 L 16.546875 73.871094 C 16.238281 75.625 16.078125 77.347656 16.039062 79.15625 C 16.023438 79.585938 16.023438 80.015625 16.023438 80.445312 C 16.023438 80.875 16.023438 81.308594 16.003906 81.753906 C 16.003906 81.84375 16.003906 81.933594 15.984375 82.023438 C 15.96875 82.613281 15.929688 83.351562 16.257812 83.78125 C 16.421875 83.996094 16.710938 84.066406 16.980469 84.101562 L 17.089844 84.121094 L 17.074219 84.226562 C 17.035156 84.515625 16.980469 84.785156 16.910156 85.050781 C 16.820312 85.410156 16.746094 85.785156 16.746094 86.179688 C 16.746094 86.253906 16.746094 86.324219 16.746094 86.414062 C 16.730469 86.71875 16.730469 86.898438 16.964844 86.988281 C 16.980469 87.003906 17 87.003906 17.019531 87.003906 C 17.378906 87.113281 17.886719 87.203125 18.195312 87.238281 C 18.269531 87.238281 18.339844 87.257812 18.414062 87.257812 C 18.59375 87.257812 18.757812 87.273438 18.902344 87.347656 C 19.011719 87.398438 19.101562 87.488281 19.191406 87.613281 L 19.230469 87.652344 C 19.445312 87.9375 19.628906 88.171875 19.953125 88.347656 L 19.988281 88.367188 C 20.1875 88.492188 20.441406 88.527344 20.695312 88.566406 C 20.839844 88.582031 20.984375 88.617188 21.132812 88.652344 C 21.601562 88.761719 22 88.851562 22.398438 88.921875 C 22.707031 88.957031 23.015625 88.976562 23.304688 88.976562 C 23.6875 88.976562 24.046875 88.941406 24.390625 88.886719 C 24.609375 88.851562 24.773438 88.726562 24.84375 88.527344 C 24.992188 88.132812 24.792969 87.523438 24.519531 87.183594 C 24.246094 86.828125 23.832031 86.503906 23.394531 86.179688 C 22.582031 85.554688 21.746094 84.890625 21.621094 83.886719 L 21.601562 83.761719 L 21.730469 83.742188 C 21.890625 83.726562 22.273438 83.65625 22.417969 83.386719 C 22.453125 83.332031 22.472656 83.277344 22.488281 83.207031 C 22.597656 82.972656 22.582031 82.6875 22.582031 82.382812 C 22.582031 82.382812 22.582031 82.363281 22.582031 82.363281 C 22.597656 81.628906 22.617188 80.875 22.597656 80.125 C 22.597656 79.621094 22.582031 79.121094 22.582031 78.617188 C 22.5625 77.617188 22.542969 76.59375 22.542969 75.589844 C 22.5625 74.460938 22.636719 73.3125 22.707031 72.203125 C 22.726562 71.828125 22.761719 71.46875 22.78125 71.09375 C 22.816406 70.285156 22.835938 69.570312 22.816406 68.921875 C 22.796875 68.367188 22.871094 67.8125 22.925781 67.273438 C 22.941406 67.113281 22.960938 66.96875 22.980469 66.808594 C 23.035156 66.359375 23.050781 65.769531 22.816406 65.269531 C 22.78125 65.195312 22.742188 65.105469 22.707031 65.035156 C 22.582031 64.765625 22.453125 64.535156 22.382812 64.246094 C 22.382812 64.230469 22.363281 64.191406 22.363281 64.175781 L 22.363281 64.140625 C 22.363281 64.085938 22.34375 64.03125 22.34375 63.976562 L 22.507812 63.996094 C 22.617188 64.011719 22.726562 64.011719 22.816406 64.03125 L 22.890625 64.03125 C 23.503906 62.1875 23.6875 60.144531 23.792969 58.207031 C 23.8125 57.707031 23.886719 57.1875 23.941406 56.683594 C 23.992188 56.128906 24.066406 55.554688 24.085938 55 C 24.101562 54.460938 24.121094 53.925781 24.121094 53.40625 C 24.121094 52.886719 24.140625 52.328125 24.175781 51.792969 C 24.230469 50.574219 24.375 49.496094 24.609375 48.53125 C 24.71875 48.082031 24.9375 47.652344 25.136719 47.257812 C 25.296875 46.933594 25.460938 46.613281 25.570312 46.273438 L 25.589844 46.21875 L 25.625 46.199219 C 25.894531 46.039062 26.113281 45.769531 26.332031 45.519531 C 26.386719 45.464844 26.421875 45.394531 26.476562 45.339844 C 26.566406 45.234375 26.65625 45.144531 26.746094 45.035156 C 26.964844 44.804688 27.199219 44.550781 27.363281 44.265625 L 27.453125 44.121094 L 27.5625 44.265625 C 27.582031 44.28125 27.597656 44.320312 27.636719 44.335938 C 27.652344 44.355469 27.671875 44.371094 27.691406 44.371094 C 27.796875 44.371094 27.960938 44.175781 28.015625 44.050781 C 28.105469 43.851562 28.144531 43.621094 28.179688 43.386719 C 28.195312 43.296875 28.214844 43.191406 28.234375 43.101562 C 28.359375 42.582031 28.648438 42.113281 28.941406 41.683594 C 29.683594 40.5 29.792969 39.105469 29.917969 37.761719 L 29.917969 37.652344 C 29.972656 37.078125 30.046875 36.523438 30.152344 35.949219 C 30.261719 35.054688 29.953125 34.175781 30.226562 33.351562 C 30.316406 33.101562 30.480469 32.867188 30.644531 32.652344 C 30.734375 32.527344 30.804688 32.417969 30.878906 32.3125 C 31.097656 31.863281 30.96875 31.46875 30.804688 31.023438 Z M 5.042969 48.835938 L 4.554688 48.816406 C 4.5 48.816406 4.460938 48.816406 4.425781 48.835938 L 4.371094 48.851562 L 4.335938 48.835938 C 4.28125 48.800781 4.226562 48.761719 4.15625 48.746094 C 4.046875 48.691406 3.9375 48.65625 3.792969 48.621094 C 3.410156 48.476562 3.375 48.011719 3.359375 47.757812 C 3.359375 47.6875 3.359375 47.617188 3.339844 47.527344 C 3.320312 47.203125 3.285156 46.863281 3.394531 46.558594 L 3.410156 46.488281 L 3.484375 46.46875 C 3.59375 46.414062 3.683594 46.378906 3.773438 46.378906 C 4.210938 46.378906 4.261719 47.023438 4.316406 47.652344 C 4.355469 47.976562 4.390625 48.386719 4.480469 48.476562 C 4.515625 48.511719 4.570312 48.546875 4.644531 48.601562 Z M 5.042969 48.835938 " fill-opacity="1" fill-rule="nonzero"/><path fill="#ffffff" d="M 27.546875 44.105469 L 27.398438 44.265625 C 27.128906 44.675781 26.820312 45 26.476562 45.359375 C 26.203125 45.664062 25.933594 46.039062 25.550781 46.273438 L 25.535156 46.253906 C 25.824219 45.5 25.824219 44.265625 25.625 43.566406 C 25.390625 42.722656 25.136719 42.007812 24.753906 41.21875 C 24.753906 41.164062 24.738281 41.109375 24.71875 41.058594 L 24.753906 41.039062 C 25.28125 41.667969 26.09375 42.023438 26.566406 42.597656 C 26.945312 43.082031 27.199219 43.65625 27.546875 44.105469 Z M 5.441406 49.140625 C 5.296875 48.996094 5.113281 48.90625 4.914062 48.890625 C 4.824219 48.851562 4.734375 48.835938 4.625 48.835938 C 4.515625 48.816406 4.300781 48.78125 4.210938 48.851562 L 4.210938 48.871094 C 4.0625 48.816406 3.9375 48.761719 3.792969 48.691406 C 3.683594 48.65625 3.648438 48.601562 3.59375 48.496094 C 3.429688 48.152344 3.429688 47.757812 3.410156 47.382812 C 3.394531 47.113281 3.320312 46.773438 3.464844 46.542969 L 3.519531 46.558594 C 3.628906 46.433594 3.917969 46.34375 4.0625 46.503906 C 4.191406 46.648438 4.246094 46.988281 4.261719 47.1875 C 4.300781 47.457031 4.261719 47.757812 4.316406 48.027344 C 4.355469 48.242188 4.410156 48.457031 4.609375 48.601562 C 4.699219 48.65625 4.808594 48.710938 4.933594 48.746094 C 5.0625 48.78125 5.167969 48.816406 5.261719 48.800781 C 5.585938 48.761719 5.511719 48.332031 5.511719 48.101562 C 5.511719 47.757812 5.441406 47.402344 5.351562 47.078125 C 5.277344 46.738281 5.261719 46.453125 5.261719 46.109375 C 5.261719 45.589844 5.261719 44.980469 4.898438 44.550781 L 4.898438 44.515625 C 4.699219 44.480469 4.410156 44.335938 4.136719 44.300781 C 3.609375 44.230469 2.957031 44.300781 2.378906 44.410156 C 2.199219 44.445312 1.945312 44.515625 1.707031 44.550781 L 1.707031 44.605469 C 1.707031 45.339844 1.582031 46.109375 1.382812 46.808594 C 1.273438 47.152344 1.273438 47.292969 1.472656 47.597656 C 1.761719 47.992188 2.125 48.242188 2.324219 48.710938 C 2.398438 48.90625 2.488281 49.066406 2.558594 49.265625 C 2.667969 49.515625 2.722656 49.550781 2.996094 49.585938 C 3.449219 49.625 3.828125 49.855469 4.246094 50.035156 C 4.515625 50.179688 5.277344 50.464844 5.097656 49.929688 C 5.261719 49.980469 5.53125 49.890625 5.621094 49.839844 C 5.964844 49.675781 5.640625 49.320312 5.441406 49.140625 Z M 22.835938 5.824219 L 22.796875 5.824219 C 22.78125 5.808594 22.761719 5.789062 22.726562 5.773438 L 22.726562 5.199219 L 22.707031 5.199219 C 22.363281 5.039062 22.34375 4.769531 22.34375 4.410156 C 22.34375 4.050781 22.328125 3.730469 22.109375 3.441406 C 21.875 3.15625 21.476562 3.011719 21.113281 2.941406 C 20.914062 2.90625 20.734375 2.886719 20.535156 2.851562 C 20.261719 2.832031 20.007812 2.726562 19.734375 2.691406 C 19.410156 2.636719 19.082031 2.671875 18.777344 2.671875 C 18.484375 2.671875 18.214844 2.761719 17.925781 2.742188 C 17.671875 2.726562 17.453125 2.796875 17.21875 2.832031 C 17 2.867188 16.691406 2.957031 16.511719 3.066406 C 16.113281 3.335938 16.003906 3.730469 15.929688 4.175781 C 15.878906 4.519531 16.003906 5 15.660156 5.199219 C 15.660156 5.394531 15.640625 5.59375 15.640625 5.789062 C 15.640625 5.789062 15.640625 5.773438 15.640625 5.773438 C 15.515625 5.574219 15.097656 5.609375 14.988281 5.789062 C 14.773438 6.09375 14.863281 6.488281 14.933594 6.8125 C 15.027344 7.152344 15.007812 7.457031 15.078125 7.761719 C 15.132812 8.03125 15.371094 8.425781 15.695312 8.460938 L 15.730469 8.460938 C 15.769531 8.765625 15.824219 9.050781 15.929688 9.339844 C 16.09375 9.820312 16.347656 10.269531 16.691406 10.644531 C 16.691406 10.644531 16.691406 10.644531 16.691406 10.664062 C 16.710938 10.71875 16.710938 10.773438 16.730469 10.808594 C 16.78125 10.988281 16.820312 11.058594 16.835938 11.308594 L 16.835938 11.667969 C 16.835938 11.847656 16.820312 12.042969 16.835938 12.242188 C 17.273438 12.582031 17.707031 13.371094 18.140625 13.710938 C 18.578125 14.035156 18.921875 14.410156 19.210938 14.859375 C 19.230469 14.894531 19.246094 14.910156 19.265625 14.949219 C 19.445312 14.695312 19.644531 14.464844 19.863281 14.25 C 20.082031 14.035156 20.316406 13.835938 20.550781 13.640625 C 20.859375 13.316406 21.4375 12.707031 21.476562 12.242188 C 21.476562 12.117188 21.457031 12.007812 21.457031 11.882812 C 21.457031 11.792969 21.457031 11.703125 21.476562 11.597656 C 21.492188 11.308594 21.675781 10.96875 21.621094 10.699219 L 21.601562 10.683594 C 21.601562 10.683594 21.585938 10.699219 21.585938 10.699219 C 21.585938 10.699219 21.585938 10.699219 21.585938 10.683594 C 21.984375 10.34375 22.328125 9.929688 22.4375 9.445312 C 22.507812 9.125 22.542969 8.800781 22.582031 8.460938 C 22.582031 8.460938 22.582031 8.460938 22.582031 8.441406 C 22.582031 8.441406 22.597656 8.441406 22.597656 8.441406 C 22.597656 8.441406 22.597656 8.460938 22.597656 8.460938 L 22.796875 8.476562 C 23.125 8.441406 23.359375 8.046875 23.414062 7.777344 C 23.503906 7.457031 23.488281 7.152344 23.558594 6.828125 C 23.648438 6.507812 23.722656 6.113281 23.503906 5.808594 C 23.394531 5.628906 22.960938 5.59375 22.835938 5.824219 Z M 22.835938 5.824219 " fill-opacity="1" fill-rule="nonzero"/><path fill="#ffffff" d="M 23.578125 39.085938 C 23.539062 39.195312 23.449219 39.300781 23.304688 39.390625 C 22.996094 39.660156 22.5625 39.820312 22.21875 39.964844 C 21.546875 40.269531 20.859375 40.539062 20.1875 40.894531 C 19.917969 41.003906 19.644531 41.164062 19.375 41.289062 C 19.136719 41.398438 19.066406 41.523438 18.867188 41.363281 C 18.667969 41.128906 18.558594 40.554688 18.394531 40.285156 C 18.105469 39.570312 17.851562 38.835938 17.582031 38.117188 L 17.5625 38.117188 C 17.054688 38.226562 16.78125 39.085938 16.546875 39.460938 C 16.382812 39.730469 16.148438 39.964844 16.003906 40.234375 C 15.894531 40.464844 15.839844 40.574219 15.660156 40.734375 C 15.460938 40.933594 14.953125 41.46875 14.71875 41.398438 C 14.519531 41.328125 14.011719 40.789062 13.828125 40.464844 C 13.992188 39.875 14.15625 39.285156 14.265625 38.691406 C 14.554688 37.3125 14.445312 35.859375 14.679688 34.410156 C 14.734375 34.03125 14.828125 33.65625 14.917969 33.28125 C 15.117188 32.507812 15.316406 31.757812 15.316406 30.933594 C 15.316406 29.945312 15.316406 29.03125 15.261719 28.046875 C 15.207031 26.882812 14.84375 25.789062 14.84375 24.640625 C 14.789062 23.261719 14.84375 21.863281 14.84375 20.429688 C 14.84375 19.335938 15.078125 18.296875 15.261719 17.257812 C 15.441406 16.273438 15.441406 15.054688 15.839844 14.195312 L 15.929688 14.195312 C 15.929688 14.195312 15.929688 14.175781 15.929688 14.175781 C 15.914062 13.890625 15.914062 13.621094 15.914062 13.40625 C 15.914062 12.941406 16.023438 12.527344 16.257812 12.132812 C 16.292969 12.027344 16.601562 11.523438 16.691406 11.667969 L 16.78125 11.667969 C 16.78125 11.847656 16.765625 12.042969 16.78125 12.242188 C 17.21875 12.582031 17.652344 13.371094 18.085938 13.710938 C 18.539062 14.035156 18.882812 14.375 19.175781 14.820312 C 19.230469 14.820312 19.285156 14.839844 19.320312 14.839844 C 19.484375 14.625 19.664062 14.410156 19.863281 14.210938 C 20.082031 13.996094 20.316406 13.800781 20.550781 13.601562 C 20.859375 13.316406 21.4375 12.6875 21.476562 12.222656 C 21.476562 12.097656 21.457031 11.992188 21.457031 11.863281 C 21.855469 11.953125 22.019531 12.3125 22.054688 12.707031 C 22.128906 13.316406 21.945312 14.070312 21.945312 14.339844 C 21.945312 14.355469 21.945312 14.355469 21.945312 14.375 C 21.945312 14.390625 21.945312 14.410156 21.945312 14.425781 L 21.964844 14.425781 C 22.851562 16.578125 22.636719 19.175781 22.273438 21.398438 C 22.109375 22.367188 21.929688 23.371094 21.835938 24.320312 C 21.765625 25.089844 21.835938 26.023438 21.875 26.792969 C 21.910156 27.636719 21.945312 28.496094 21.910156 29.335938 C 21.875 29.679688 21.875 30.070312 21.875 30.414062 L 21.875 30.484375 C 21.890625 30.84375 22 31.128906 22.074219 31.488281 C 22.183594 32.1875 22.238281 32.921875 22.453125 33.601562 C 22.617188 34.070312 22.6875 34.335938 22.652344 34.839844 C 22.617188 35.339844 22.652344 35.71875 22.890625 36.148438 C 23.269531 36.847656 23.359375 37.722656 23.503906 38.460938 C 23.632812 38.710938 23.648438 38.90625 23.578125 39.085938 Z M 23.578125 39.085938 " fill-opacity="1" fill-rule="nonzero"/><path fill="#231f20" d="M 19.15625 15.144531 C 19.046875 15.125 18.9375 15.125 18.8125 15.144531 C 18.539062 15.164062 18.269531 15.289062 17.996094 15.414062 C 18.230469 15.824219 18.140625 16.308594 18.195312 16.773438 C 18.230469 16.953125 18.285156 17.097656 18.394531 17.1875 C 18.339844 17.242188 18.285156 17.3125 18.25 17.367188 C 18.015625 17.886719 17.925781 18.53125 17.761719 19.050781 C 17.617188 19.625 17.433594 20.144531 17.273438 20.734375 L 17.253906 20.734375 C 17.617188 22.042969 17.742188 23.621094 18.378906 24.730469 C 18.9375 23.980469 19.5 22.832031 19.953125 21.773438 L 19.933594 21.773438 C 19.933594 20.59375 19.734375 19.410156 19.664062 18.226562 C 19.628906 17.886719 19.574219 17.472656 19.664062 17.132812 C 19.828125 16.667969 20.207031 16.308594 20.335938 15.878906 L 20.351562 15.859375 C 20.28125 15.789062 20.226562 15.71875 20.152344 15.644531 C 19.84375 15.339844 19.535156 15.179688 19.15625 15.144531 Z M 18.414062 17.207031 C 18.414062 17.207031 18.414062 17.1875 18.414062 17.207031 C 18.414062 17.1875 18.414062 17.1875 18.414062 17.207031 C 18.414062 17.1875 18.414062 17.1875 18.414062 17.207031 Z M 22.742188 5.199219 L 22.726562 5.199219 C 22.382812 5.039062 22.363281 4.75 22.363281 4.410156 C 22.363281 4.070312 22.34375 3.730469 22.128906 3.441406 C 21.890625 3.15625 21.511719 3.011719 21.132812 2.941406 C 20.933594 2.90625 20.75 2.886719 20.550781 2.851562 C 20.28125 2.832031 20.027344 2.742188 19.753906 2.691406 C 19.445312 2.636719 19.121094 2.671875 18.792969 2.671875 C 18.503906 2.671875 18.230469 2.761719 17.941406 2.742188 C 17.6875 2.726562 17.472656 2.796875 17.234375 2.832031 C 17.019531 2.867188 16.710938 2.941406 16.53125 3.066406 C 16.113281 3.335938 16.023438 3.746094 15.949219 4.175781 C 15.894531 4.519531 16.023438 5 15.679688 5.199219 C 15.679688 5.128906 15.679688 5.039062 15.660156 4.964844 C 15.585938 4.015625 15.441406 2.941406 16.003906 2.117188 C 16.402344 1.488281 16.910156 1.042969 17.582031 0.699219 C 17.980469 0.503906 18.433594 0.394531 18.882812 0.359375 C 20.226562 0.304688 21.691406 0.953125 22.363281 2.132812 C 22.835938 2.957031 22.761719 4.195312 22.742188 5.199219 Z M 22.742188 5.199219 " fill-opacity="1" fill-rule="nonzero"/><path fill="#000000" d="M 16.328125 5.628906 C 16.257812 5.628906 16.238281 5.558594 16.277344 5.519531 C 16.636719 5.164062 17.035156 5.234375 17.507812 5.253906 C 17.90625 5.269531 18.324219 5.394531 18.539062 5.753906 C 18.722656 6.058594 18.667969 6.738281 18.613281 7.082031 C 18.558594 7.367188 18.503906 7.652344 18.449219 7.941406 C 18.324219 8.515625 19.046875 8.550781 19.335938 8.351562 C 19.429688 8.300781 19.535156 8.425781 19.484375 8.496094 C 19.15625 8.980469 18.085938 8.675781 18.230469 8.066406 C 18.359375 7.5625 18.777344 6.238281 18.230469 5.863281 C 17.632812 5.449219 16.980469 5.628906 16.328125 5.628906 Z M 16.910156 6.039062 C 16.835938 6.238281 17.035156 6.433594 17.21875 6.472656 C 17.417969 6.507812 17.726562 6.453125 17.796875 6.238281 C 17.796875 6.21875 17.816406 6.183594 17.816406 6.167969 C 17.871094 6.238281 17.90625 6.292969 17.941406 6.363281 C 18.015625 6.453125 18.140625 6.328125 18.070312 6.238281 C 17.996094 6.148438 17.925781 5.988281 17.816406 5.914062 C 17.652344 5.824219 17.472656 5.808594 17.289062 5.789062 C 16.910156 5.753906 16.636719 5.914062 16.4375 6.203125 C 16.421875 6.238281 16.457031 6.273438 16.492188 6.257812 C 16.636719 6.167969 16.765625 6.078125 16.910156 6.039062 Z M 20.894531 5.808594 C 20.734375 5.789062 20.480469 5.808594 20.335938 5.898438 C 20.171875 5.988281 20.117188 6.113281 19.988281 6.257812 C 19.917969 6.34375 20.042969 6.453125 20.117188 6.382812 C 20.171875 6.328125 20.1875 6.292969 20.226562 6.238281 C 20.226562 6.21875 20.242188 6.21875 20.261719 6.203125 C 20.261719 6.21875 20.261719 6.21875 20.261719 6.238281 C 20.335938 6.453125 20.640625 6.507812 20.839844 6.472656 C 21.023438 6.433594 21.222656 6.238281 21.148438 6.039062 C 21.292969 6.09375 21.421875 6.183594 21.566406 6.273438 C 21.601562 6.273438 21.65625 6.238281 21.636719 6.21875 C 21.4375 5.933594 21.257812 5.84375 20.894531 5.808594 Z M 19.664062 5.773438 C 19.988281 5.734375 20.28125 5.628906 20.625 5.609375 C 21.003906 5.609375 21.4375 5.628906 21.785156 5.773438 C 21.835938 5.808594 21.890625 5.71875 21.855469 5.683594 C 21.492188 5.378906 21.078125 5.304688 20.625 5.253906 C 20.261719 5.214844 19.71875 5.253906 19.5 5.558594 C 19.410156 5.683594 19.554688 5.789062 19.664062 5.773438 Z M 20.335938 9.515625 C 19.972656 9.515625 19.609375 9.554688 19.246094 9.554688 C 18.777344 9.554688 18.304688 9.464844 17.832031 9.464844 C 17.761719 9.5 17.742188 9.570312 17.796875 9.570312 C 18.539062 9.804688 19.609375 9.964844 20.351562 9.605469 C 20.386719 9.589844 20.371094 9.515625 20.335938 9.515625 Z M 18.703125 25.859375 C 18.433594 25.859375 18.214844 26.074219 18.214844 26.34375 C 18.214844 26.613281 18.433594 26.828125 18.703125 26.828125 C 18.976562 26.828125 19.191406 26.613281 19.191406 26.34375 C 19.191406 26.074219 18.976562 25.859375 18.703125 25.859375 Z M 18.394531 30.25 C 18.667969 30.25 18.882812 30.035156 18.882812 29.769531 C 18.882812 29.5 18.667969 29.285156 18.394531 29.285156 C 18.125 29.285156 17.90625 29.5 17.90625 29.769531 C 17.90625 30.035156 18.125 30.25 18.394531 30.25 Z M 18.394531 33.171875 C 18.394531 32.902344 18.179688 32.6875 17.90625 32.6875 C 17.632812 32.6875 17.417969 32.902344 17.417969 33.171875 C 17.417969 33.441406 17.632812 33.65625 17.90625 33.65625 C 18.179688 33.65625 18.394531 33.441406 18.394531 33.171875 Z M 19.03125 36.523438 C 18.832031 36.46875 18.632812 36.523438 18.433594 36.542969 C 18.140625 36.578125 17.886719 36.578125 17.617188 36.503906 C 17.597656 36.503906 17.582031 36.542969 17.597656 36.558594 C 17.796875 36.667969 18.015625 36.683594 18.25 36.667969 C 18.503906 36.648438 18.777344 36.648438 19.03125 36.613281 C 19.082031 36.613281 19.066406 36.523438 19.03125 36.523438 Z M 30.953125 32.347656 C 30.734375 32.707031 30.371094 33.082031 30.261719 33.496094 C 30.152344 33.980469 30.171875 34.425781 30.207031 34.910156 C 30.28125 35.769531 30.101562 36.578125 30.027344 37.4375 C 29.898438 38.925781 29.828125 40.449219 29.011719 41.738281 C 28.722656 42.167969 28.449219 42.617188 28.324219 43.117188 C 28.25 43.441406 28.214844 43.78125 28.089844 44.085938 C 28.015625 44.265625 27.726562 44.640625 27.507812 44.425781 C 27.492188 44.410156 27.453125 44.371094 27.4375 44.335938 C 27.183594 44.730469 26.839844 45.070312 26.53125 45.429688 C 26.277344 45.734375 26.003906 46.109375 25.660156 46.308594 C 25.40625 47.078125 24.898438 47.757812 24.699219 48.566406 C 24.445312 49.625 24.320312 50.714844 24.265625 51.808594 C 24.210938 52.867188 24.230469 53.941406 24.175781 55.015625 C 24.140625 56.09375 23.941406 57.148438 23.886719 58.226562 C 23.777344 60.179688 23.59375 62.222656 22.980469 64.085938 C 22.960938 64.140625 22.90625 64.175781 22.851562 64.175781 C 22.742188 64.175781 22.617188 64.15625 22.472656 64.140625 C 22.472656 64.175781 22.488281 64.210938 22.488281 64.246094 C 22.582031 64.605469 22.761719 64.910156 22.925781 65.25 C 23.160156 65.75 23.160156 66.324219 23.105469 66.863281 C 23.035156 67.5625 22.925781 68.242188 22.941406 68.960938 C 22.960938 69.695312 22.941406 70.429688 22.90625 71.144531 C 22.816406 72.632812 22.6875 74.121094 22.671875 75.625 C 22.652344 77.132812 22.707031 78.65625 22.726562 80.160156 C 22.742188 80.914062 22.726562 81.664062 22.707031 82.417969 C 22.707031 82.777344 22.707031 83.152344 22.527344 83.476562 C 22.382812 83.742188 22.019531 83.871094 21.730469 83.90625 C 21.910156 85.375 23.777344 86.109375 24.589844 87.132812 C 25.0625 87.703125 25.261719 88.871094 24.390625 89.03125 C 23.722656 89.136719 23.035156 89.136719 22.363281 89.066406 C 21.929688 88.996094 21.511719 88.90625 21.078125 88.796875 C 20.679688 88.691406 20.242188 88.691406 19.898438 88.492188 C 19.882812 88.492188 19.882812 88.492188 19.863281 88.476562 C 19.519531 88.277344 19.320312 88.007812 19.082031 87.703125 C 18.992188 87.578125 18.921875 87.507812 18.832031 87.472656 C 18.648438 87.382812 18.449219 87.417969 18.179688 87.382812 C 17.816406 87.347656 17.308594 87.257812 16.964844 87.148438 C 16.929688 87.132812 16.910156 87.132812 16.890625 87.113281 C 16.511719 86.953125 16.621094 86.574219 16.621094 86.199219 C 16.621094 85.519531 16.875 84.890625 16.945312 84.246094 C 16.636719 84.191406 16.328125 84.101562 16.148438 83.871094 C 15.730469 83.332031 15.839844 82.398438 15.859375 81.773438 C 15.878906 80.894531 15.878906 80.035156 15.894531 79.175781 C 15.929688 77.382812 16.09375 75.644531 16.402344 73.871094 C 16.566406 72.972656 16.746094 72.042969 16.636719 71.144531 C 16.566406 70.554688 16.167969 69.820312 16.402344 69.210938 C 16.53125 68.886719 16.710938 68.601562 16.855469 68.277344 C 17.074219 67.8125 17.054688 67.328125 16.964844 66.84375 C 16.835938 66.183594 16.476562 65.609375 16.367188 64.925781 C 16.257812 64.140625 16.402344 63.261719 16.457031 62.472656 C 16.53125 61.59375 16.621094 60.714844 16.636719 59.839844 C 16.691406 57.9375 16.183594 56.128906 15.914062 54.265625 C 15.714844 52.847656 15.496094 51.453125 15.441406 50.035156 C 14.753906 51.46875 14.246094 52.992188 13.558594 54.425781 C 13.085938 55.449219 12.796875 56.558594 12.398438 57.597656 C 12.179688 58.136719 11.945312 58.671875 11.820312 59.230469 C 11.710938 59.640625 11.621094 60.089844 11.457031 60.484375 C 11.292969 60.894531 10.96875 61.753906 10.515625 61.933594 C 10.785156 62.492188 10.785156 63.171875 10.675781 63.796875 C 10.476562 64.945312 10.117188 66.074219 9.917969 67.222656 C 9.664062 68.65625 9.335938 70.070312 9.082031 71.503906 C 8.847656 72.902344 8.828125 74.335938 8.59375 75.734375 C 8.339844 77.183594 8.265625 78.671875 8.03125 80.140625 C 7.851562 81.289062 7.632812 82.453125 7.46875 83.617188 C 7.398438 84.101562 7.214844 85.214844 6.457031 84.960938 C 6.09375 84.855469 5.765625 84.871094 5.40625 84.945312 C 5.351562 84.960938 5.277344 84.960938 5.222656 84.960938 C 5.332031 85.230469 5.460938 85.570312 5.53125 85.839844 C 5.660156 86.289062 5.53125 86.789062 5.460938 87.21875 C 5.421875 87.453125 5.460938 87.757812 5.351562 87.957031 C 5.296875 88.0625 5.207031 88.132812 5.113281 88.171875 C 5.023438 88.222656 4.933594 88.242188 4.824219 88.277344 C 4.769531 88.296875 4.714844 88.3125 4.679688 88.351562 C 4.371094 88.511719 4.445312 88.78125 4.335938 89.046875 C 4.261719 89.316406 4.101562 89.425781 3.863281 89.585938 C 3.410156 89.835938 2.921875 89.890625 2.453125 89.871094 C 2.070312 89.871094 1.691406 89.835938 1.308594 89.820312 C 0.53125 89.785156 -0.648438 89.785156 -0.792969 88.816406 C -0.953125 87.742188 -0.121094 87.167969 0.496094 86.433594 C 1.039062 85.859375 1.347656 85 1.507812 84.28125 L 1.5625 84.28125 C 1.507812 84.246094 1.457031 84.210938 1.417969 84.175781 C 1.074219 83.851562 1.203125 83.207031 1.273438 82.8125 C 1.417969 81.953125 1.507812 81.054688 1.636719 80.179688 C 1.761719 79.246094 1.835938 78.3125 1.871094 77.382812 C 1.945312 75.535156 1.890625 73.691406 2.035156 71.863281 C 2.105469 70.984375 2.199219 70.125 2.46875 69.28125 C 2.707031 68.476562 3.140625 67.722656 3.359375 66.917969 C 3.464844 66.46875 3.304688 66.074219 3.359375 65.625 C 3.394531 65.320312 3.503906 65.035156 3.628906 64.75 C 3.9375 64.050781 4.390625 63.457031 4.625 62.707031 C 4.878906 61.898438 5.078125 61.074219 5.367188 60.269531 C 5.53125 59.820312 5.710938 59.335938 5.511719 58.871094 C 5.386719 58.546875 5.1875 58.242188 5.097656 57.921875 C 4.898438 57.1875 5.078125 56.378906 5.1875 55.644531 C 5.3125 54.785156 5.460938 53.90625 5.621094 53.046875 C 5.949219 51.199219 6.292969 49.335938 6.382812 47.457031 C 6.3125 47.347656 6.257812 47.238281 6.21875 47.113281 C 6.058594 46.523438 6.09375 45.859375 6.09375 45.25 C 6.09375 43.511719 6.417969 41.882812 6.855469 40.214844 C 7.308594 38.460938 7.761719 36.703125 8.121094 34.929688 C 8.429688 33.441406 8.539062 31.898438 8.558594 30.375 C 8.558594 30.375 8.558594 30.394531 8.558594 30.394531 C 8.449219 30.628906 8.285156 30.789062 8.066406 30.914062 C 8.46875 31.308594 8.320312 31.953125 8.085938 32.4375 C 7.851562 32.921875 7.46875 33.421875 7.363281 33.941406 C 7.253906 34.480469 7.363281 35.019531 7.308594 35.574219 C 7.214844 36.578125 6.691406 37.492188 6.527344 38.476562 C 6.328125 39.660156 6.019531 40.789062 5.710938 41.953125 C 5.550781 42.582031 5.332031 43.207031 5.367188 43.851562 C 5.367188 44.121094 5.421875 44.371094 5.242188 44.585938 C 5.222656 44.605469 5.207031 44.625 5.1875 44.640625 C 5.550781 45.035156 5.351562 45.84375 5.367188 46.308594 C 5.40625 47.078125 5.820312 47.9375 5.621094 48.710938 C 5.585938 48.851562 5.476562 48.925781 5.351562 48.941406 C 5.550781 49.066406 5.730469 49.230469 5.839844 49.445312 C 6.058594 49.839844 5.53125 50.089844 5.207031 50.054688 C 5.152344 50.410156 4.734375 50.359375 4.28125 50.125 C 3.9375 49.964844 3.558594 49.730469 3.175781 49.675781 C 2.996094 49.660156 2.777344 49.660156 2.632812 49.515625 C 2.488281 49.390625 2.414062 49.085938 2.34375 48.90625 C 2.179688 48.496094 1.945312 48.242188 1.65625 47.921875 C 1.328125 47.542969 1.109375 47.257812 1.253906 46.757812 C 1.457031 46.074219 1.546875 45.394531 1.65625 44.675781 C 1.4375 44.695312 1.238281 44.675781 1.019531 44.585938 C 0.964844 44.570312 0.949219 44.515625 0.949219 44.460938 C 0.929688 43.996094 1.183594 43.65625 1.253906 43.207031 C 1.347656 42.671875 1.328125 42.132812 1.308594 41.578125 C 1.238281 39.855469 1.671875 38.171875 2.070312 36.503906 C 2.269531 35.609375 2.488281 34.695312 2.632812 33.78125 C 2.757812 32.921875 3.285156 32.0625 3.285156 31.183594 C 3.285156 30.375 3.210938 29.605469 3.394531 28.800781 C 3.574219 27.976562 3.792969 27.203125 3.847656 26.363281 C 3.902344 25.484375 3.902344 24.605469 4.046875 23.746094 C 4.171875 22.867188 4.5 22.042969 4.769531 21.21875 C 5.3125 19.605469 5.804688 17.976562 6.164062 16.308594 C 6.273438 15.84375 6.402344 15.234375 6.871094 15 C 7.179688 14.859375 7.433594 14.894531 7.6875 14.605469 C 7.816406 14.464844 8.25 14.355469 8.429688 14.285156 C 9.933594 13.730469 11.601562 13.691406 13.105469 13.136719 C 13.957031 12.816406 14.574219 12.132812 15.242188 11.558594 C 15.660156 11.21875 16.238281 11.167969 16.636719 10.789062 C 16.601562 10.734375 16.546875 10.683594 16.511719 10.644531 C 16.128906 10.199219 15.804688 9.570312 15.695312 8.980469 C 15.679688 8.835938 15.660156 8.710938 15.640625 8.566406 C 15.316406 8.496094 15.097656 8.226562 15.007812 7.921875 C 14.878906 7.457031 14.773438 6.902344 14.773438 6.417969 C 14.753906 6.148438 14.789062 5.71875 15.117188 5.648438 C 15.277344 5.609375 15.425781 5.609375 15.550781 5.683594 C 15.550781 5.519531 15.550781 5.359375 15.550781 5.199219 C 15.550781 4.824219 15.496094 4.464844 15.476562 4.085938 C 15.460938 3.476562 15.476562 2.796875 15.804688 2.257812 C 16.492188 1.128906 17.527344 0.414062 18.867188 0.359375 C 20.027344 0.109375 21.332031 0.628906 22.054688 1.542969 C 22.890625 2.511719 22.871094 3.691406 22.851562 4.910156 C 22.851562 5.179688 22.871094 5.449219 22.871094 5.71875 C 23.269531 5.304688 23.757812 5.933594 23.703125 6.398438 C 23.632812 6.9375 23.613281 7.527344 23.414062 8.03125 C 23.304688 8.300781 23.089844 8.515625 22.816406 8.566406 C 22.761719 8.585938 22.726562 8.53125 22.726562 8.496094 C 22.707031 8.90625 22.652344 9.300781 22.507812 9.660156 C 22.34375 10.074219 22.039062 10.46875 21.675781 10.808594 C 21.691406 11.023438 21.601562 11.238281 21.566406 11.453125 C 21.546875 11.578125 21.546875 11.703125 21.546875 11.8125 C 22.074219 11.882812 22.21875 12.382812 22.238281 12.886719 C 22.636719 13.226562 23.035156 13.550781 23.449219 13.871094 C 23.886719 14.105469 24.375 14.25 24.808594 14.410156 C 25.335938 14.605469 25.914062 14.730469 26.441406 14.949219 C 27.238281 15.253906 27.996094 15.644531 28.796875 15.96875 C 29.265625 16.164062 29.519531 16.46875 29.609375 17.007812 C 29.753906 17.851562 29.699219 18.710938 29.792969 19.554688 C 29.882812 20.429688 30.007812 21.328125 30.046875 22.207031 C 30.136719 24.121094 30.335938 26.074219 30.625 27.976562 C 30.699219 28.421875 30.734375 28.871094 30.75 29.320312 C 30.769531 29.75 30.699219 30.269531 30.824219 30.699219 C 31.003906 31.273438 31.296875 31.773438 30.953125 32.347656 Z M 22.726562 8.460938 C 22.726562 8.441406 22.742188 8.40625 22.78125 8.40625 C 23.394531 8.246094 23.394531 7.5625 23.449219 7.042969 C 23.46875 6.828125 23.558594 6.613281 23.558594 6.398438 C 23.578125 6.058594 23.179688 5.574219 22.871094 5.84375 C 22.871094 5.933594 22.871094 6.003906 22.890625 6.09375 C 22.90625 6.542969 22.796875 6.972656 22.78125 7.402344 C 22.761719 7.726562 22.742188 8.101562 22.726562 8.460938 Z M 15.640625 8.386719 C 15.605469 7.777344 15.679688 7.1875 15.585938 6.578125 C 15.550781 6.328125 15.550781 6.058594 15.550781 5.808594 C 15.316406 5.664062 15.097656 5.808594 14.917969 6.257812 C 14.898438 6.398438 14.917969 6.542969 14.953125 6.6875 C 14.972656 6.8125 15.007812 6.917969 15.027344 7.042969 C 15.078125 7.527344 15.078125 8.171875 15.640625 8.386719 Z M 22.144531 14.320312 C 22.144531 14.339844 22.144531 14.339844 22.144531 14.320312 C 22.871094 15.824219 22.90625 17.636719 22.78125 19.25 C 22.617188 21.058594 22.109375 22.851562 22.039062 24.660156 C 21.984375 26.074219 22.109375 27.492188 22.109375 28.90625 C 22.109375 28.800781 22.128906 28.691406 22.144531 28.585938 C 22.238281 28.066406 22.382812 27.5625 22.582031 27.078125 C 22.996094 26.058594 23.539062 25.074219 23.867188 24.015625 C 24.265625 22.707031 24.121094 21.328125 24.191406 19.964844 C 24.246094 18.730469 24.5 17.546875 24.828125 16.363281 C 24.519531 16.203125 24.191406 15.988281 23.867188 15.859375 C 23.632812 15.949219 23.394531 15.914062 23.214844 15.699219 C 23.179688 15.644531 23.195312 15.539062 23.289062 15.539062 C 23.488281 15.558594 23.6875 15.59375 23.902344 15.644531 C 24.140625 15.519531 24.375 15.253906 24.464844 15.109375 C 24.609375 14.859375 23.976562 14.480469 23.792969 14.320312 C 23.722656 14.265625 23.648438 14.195312 23.59375 14.140625 C 23.359375 14.015625 23.140625 13.871094 22.960938 13.640625 C 22.941406 13.621094 22.941406 13.585938 22.960938 13.566406 C 22.726562 13.351562 22.472656 13.121094 22.238281 12.90625 C 22.253906 13.226562 22.199219 13.566406 22.183594 13.78125 C 22.164062 13.960938 22.144531 14.140625 22.144531 14.320312 Z M 24.101562 24.070312 C 24.046875 24.210938 23.992188 24.375 23.921875 24.515625 C 23.941406 24.5 23.976562 24.480469 24.011719 24.480469 C 24.375 24.5 24.71875 24.445312 25.0625 24.335938 C 25.316406 24.265625 25.695312 24.230469 25.914062 24.070312 C 26.222656 23.855469 26.3125 23.476562 26.441406 23.136719 C 25.75 23.15625 25.042969 23.28125 24.355469 23.191406 C 24.285156 23.496094 24.210938 23.78125 24.101562 24.070312 Z M 22.054688 15.394531 C 21.964844 15.859375 21.964844 16.46875 21.691406 16.882812 C 21.65625 16.9375 21.585938 16.953125 21.53125 16.917969 C 21.457031 16.863281 21.386719 16.8125 21.292969 16.757812 C 21.039062 17.6875 21.09375 18.691406 20.878906 19.625 C 20.714844 20.289062 20.480469 20.949219 20.226562 21.578125 C 19.683594 22.902344 19.066406 24.589844 17.90625 25.519531 C 17.886719 25.539062 17.851562 25.554688 17.832031 25.554688 C 17.816406 27.707031 17.363281 29.839844 17.234375 31.988281 C 17.179688 32.921875 17.164062 33.835938 17.179688 34.765625 C 17.199219 35.125 17.234375 35.503906 17.164062 35.859375 C 17.109375 36.148438 16.945312 36.613281 17.109375 36.863281 C 17.199219 37.007812 17.308594 37.152344 17.398438 37.292969 C 17.851562 37.992188 18.050781 38.851562 18.339844 39.625 C 18.46875 39.945312 18.613281 40.269531 18.738281 40.609375 C 18.792969 40.789062 18.847656 41.003906 18.957031 41.148438 C 19.066406 41.308594 19.375 41.09375 19.464844 41.039062 C 20.1875 40.699219 20.914062 40.359375 21.65625 40.070312 C 22.238281 39.855469 23.179688 39.589844 23.449219 38.996094 C 23.433594 38.980469 23.449219 38.941406 23.46875 38.941406 C 23.523438 38.800781 23.523438 38.65625 23.503906 38.476562 C 23.324219 37.617188 23.214844 36.808594 22.816406 36.023438 C 22.507812 35.414062 22.761719 34.765625 22.597656 34.140625 C 22.472656 33.675781 22.328125 33.226562 22.253906 32.761719 C 22.199219 32.347656 22.164062 31.898438 22.074219 31.488281 C 21.910156 30.808594 21.800781 30.179688 21.875 29.480469 C 22.019531 27.8125 21.636719 26.148438 21.765625 24.480469 C 21.890625 22.796875 22.289062 21.128906 22.4375 19.445312 C 22.5625 17.921875 22.488281 16.46875 22.109375 15 C 22.089844 15.144531 22.074219 15.269531 22.054688 15.394531 Z M 15.296875 32.4375 C 15.0625 33.441406 14.789062 34.425781 14.71875 35.484375 C 14.664062 36.417969 14.664062 37.367188 14.5 38.296875 C 14.375 39.050781 14.210938 39.804688 14.011719 40.574219 C 14.191406 40.859375 14.410156 41.164062 14.699219 41.289062 C 15.097656 41.488281 15.730469 40.375 15.878906 40.160156 C 16.183594 39.660156 16.476562 39.175781 16.765625 38.675781 C 16.929688 38.386719 17.109375 38.136719 17.398438 38.011719 C 17.179688 37.492188 16.710938 36.972656 16.820312 36.378906 C 17.019531 35.394531 16.890625 34.460938 16.929688 33.476562 C 16.964844 32.636719 17 31.792969 17.109375 30.949219 C 17.328125 29.160156 17.6875 27.382812 17.742188 25.554688 C 17.632812 25.519531 17.5625 25.394531 17.671875 25.289062 C 17.886719 25.109375 18.085938 24.894531 18.25 24.660156 C 17.542969 23.496094 17.542969 21.972656 17.164062 20.71875 C 16.964844 20.019531 16.746094 19.335938 16.65625 18.601562 C 16.582031 17.902344 16.292969 17.1875 16.347656 16.488281 C 16.277344 16.523438 16.222656 16.558594 16.148438 16.613281 C 16.078125 16.667969 16.003906 16.613281 16.003906 16.542969 C 15.96875 15.773438 15.914062 14.984375 15.894531 14.210938 C 15.550781 15.109375 15.53125 16.09375 15.40625 17.0625 C 15.277344 18.03125 15.042969 18.996094 15.027344 19.984375 C 14.953125 22.152344 14.898438 24.375 15.261719 26.507812 C 15.585938 28.40625 15.730469 30.554688 15.296875 32.4375 Z M 16.730469 11.6875 C 16.621094 11.757812 16.476562 12.082031 16.4375 12.152344 C 16.222656 12.546875 16.09375 12.941406 16.09375 13.386719 C 16.09375 13.820312 16.113281 14.25 16.128906 14.679688 C 16.167969 15.234375 16.203125 15.808594 16.222656 16.363281 C 16.875 15.949219 17.582031 15.46875 18.304688 15.179688 C 18.59375 15.054688 18.882812 15 19.175781 15.019531 C 19.15625 15 19.136719 14.984375 19.136719 14.964844 C 18.9375 14.285156 18.195312 13.945312 17.761719 13.425781 C 17.453125 13.046875 17.199219 12.652344 16.890625 12.3125 C 16.835938 12.347656 16.730469 12.332031 16.730469 12.242188 C 16.710938 12.0625 16.730469 11.863281 16.730469 11.6875 Z M 21.492188 10.949219 C 20.984375 11.398438 20.386719 11.757812 19.84375 11.9375 C 18.683594 12.332031 17.652344 11.792969 16.835938 10.988281 C 16.875 11.09375 16.890625 11.203125 16.910156 11.308594 C 16.929688 11.632812 16.910156 11.9375 16.929688 12.242188 C 16.929688 12.277344 16.910156 12.296875 16.890625 12.3125 C 17.34375 12.6875 17.632812 13.210938 18.070312 13.566406 C 18.285156 13.765625 18.539062 13.945312 18.738281 14.160156 C 18.921875 14.339844 19.066406 14.570312 19.246094 14.75 C 19.589844 14.285156 20.027344 13.945312 20.441406 13.53125 C 20.839844 13.136719 21.09375 12.6875 21.402344 12.242188 C 21.292969 11.8125 21.421875 11.382812 21.492188 10.949219 Z M 20.097656 21.128906 C 20.316406 20.609375 20.550781 20.074219 20.714844 19.515625 C 21.023438 18.585938 20.878906 17.597656 21.203125 16.6875 C 20.914062 16.453125 20.625 16.164062 20.351562 15.914062 C 20.226562 16.398438 19.789062 16.738281 19.789062 17.296875 C 19.789062 17.742188 19.863281 18.207031 19.898438 18.65625 C 19.972656 19.464844 20.117188 20.304688 20.097656 21.128906 Z M 20.28125 15.859375 C 19.683594 15.339844 19.046875 14.984375 18.179688 15.449219 C 18.140625 15.46875 18.125 15.484375 18.085938 15.503906 C 18.230469 15.808594 18.25 16.09375 18.269531 16.433594 C 18.269531 16.597656 18.285156 16.757812 18.324219 16.917969 C 18.378906 16.9375 18.433594 16.953125 18.484375 16.992188 C 18.777344 16.847656 19.121094 16.863281 19.246094 17.242188 C 19.265625 17.277344 19.246094 17.3125 19.230469 17.332031 C 19.066406 17.511719 18.8125 17.472656 18.59375 17.367188 C 18.558594 17.367188 18.539062 17.367188 18.503906 17.382812 C 18.394531 17.5625 18.339844 17.796875 18.285156 17.992188 C 18.050781 18.945312 17.761719 19.859375 17.363281 20.753906 C 17.363281 20.789062 17.378906 20.808594 17.378906 20.84375 C 17.707031 22.097656 17.886719 23.316406 18.378906 24.515625 C 18.578125 24.230469 18.757812 23.90625 18.921875 23.601562 C 19.265625 22.957031 19.574219 22.292969 19.882812 21.632812 C 19.683594 20.519531 19.628906 19.355469 19.535156 18.226562 C 19.519531 17.832031 19.464844 17.4375 19.628906 17.078125 C 19.808594 16.648438 20.082031 16.292969 20.28125 15.859375 Z M 17.652344 18.835938 C 17.761719 18.351562 17.832031 17.707031 18.125 17.296875 C 18.160156 17.242188 18.214844 17.167969 18.269531 17.132812 C 17.980469 16.722656 18.140625 16.023438 18.015625 15.539062 C 17.453125 15.84375 16.910156 16.148438 16.367188 16.46875 C 16.367188 16.46875 16.382812 16.488281 16.382812 16.488281 C 16.367188 16.953125 16.511719 17.347656 16.636719 17.796875 C 16.730469 18.121094 16.765625 18.460938 16.820312 18.78125 C 16.929688 19.355469 17.089844 19.894531 17.253906 20.449219 C 17.378906 19.910156 17.527344 19.375 17.652344 18.835938 Z M 20.949219 13.425781 C 20.441406 13.960938 19.828125 14.390625 19.375 15 C 19.355469 15.019531 19.335938 15.035156 19.300781 15.035156 C 19.429688 15.054688 19.554688 15.089844 19.699219 15.144531 C 20.171875 15.304688 20.460938 15.753906 20.804688 16.078125 C 20.96875 16.21875 21.546875 16.882812 21.636719 16.46875 C 21.691406 16.238281 21.730469 16.003906 21.765625 15.753906 C 21.855469 15.214844 21.820312 14.695312 21.890625 14.160156 C 21.984375 13.460938 22.238281 12.492188 21.546875 12.007812 C 21.546875 12.082031 21.546875 12.152344 21.546875 12.222656 C 21.65625 12.671875 21.238281 13.121094 20.949219 13.425781 Z M 15.730469 5.089844 C 15.949219 4.769531 15.824219 4.230469 15.914062 3.855469 C 16.003906 3.496094 16.167969 3.246094 16.457031 3.011719 C 17.054688 2.546875 18.269531 2.582031 18.976562 2.5625 C 19.535156 2.546875 20.027344 2.652344 20.570312 2.742188 C 20.96875 2.796875 21.4375 2.832031 21.800781 3.046875 C 22.054688 3.210938 22.308594 3.40625 22.382812 3.710938 C 22.472656 4.070312 22.382812 4.605469 22.597656 4.929688 C 22.597656 4.910156 22.597656 4.894531 22.597656 4.875 C 22.636719 3.730469 22.671875 2.4375 21.765625 1.578125 C 20.984375 0.824219 19.917969 0.558594 18.867188 0.394531 C 17.542969 0.574219 15.984375 1.578125 15.730469 2.976562 C 15.625 3.585938 15.660156 4.175781 15.714844 4.785156 C 15.730469 4.894531 15.730469 4.984375 15.730469 5.089844 Z M 16.820312 10.59375 C 17.199219 10.988281 17.6875 11.382812 18.179688 11.632812 C 18.882812 12.007812 19.628906 11.863281 20.296875 11.472656 C 20.824219 11.167969 21.347656 10.773438 21.765625 10.324219 C 22.273438 9.769531 22.398438 9.160156 22.453125 8.425781 C 22.488281 7.851562 22.488281 7.277344 22.582031 6.703125 C 22.652344 6.21875 22.617188 5.753906 22.597656 5.269531 C 21.929688 4.824219 22.5625 3.890625 21.929688 3.40625 C 21.53125 3.101562 21.003906 3.03125 20.515625 2.957031 C 19.988281 2.886719 19.5 2.78125 18.976562 2.78125 C 17.996094 2.78125 16.402344 2.742188 16.09375 3.890625 C 15.984375 4.300781 16.078125 4.875 15.730469 5.179688 C 15.75 5.648438 15.730469 6.09375 15.785156 6.5625 C 15.929688 7.996094 15.730469 9.445312 16.820312 10.59375 Z M 14.300781 12.777344 C 14.011719 12.90625 13.773438 13.082031 13.558594 13.296875 C 13.269531 13.585938 13.015625 13.890625 12.761719 14.195312 C 12.722656 14.230469 12.488281 14.445312 12.488281 14.5 C 12.472656 14.464844 12.886719 14.605469 12.90625 14.605469 C 12.976562 14.625 13.050781 14.679688 13.140625 14.75 C 13.558594 14.535156 13.976562 14.425781 14.300781 14.75 C 14.574219 15.019531 14.15625 15.269531 13.9375 15.324219 C 13.613281 15.394531 13.339844 15.269531 13.070312 15.089844 C 12.761719 15.253906 12.488281 15.449219 12.199219 15.644531 C 11.945312 15.824219 12.179688 16.328125 12.234375 16.613281 C 12.308594 17.007812 12.324219 17.421875 12.398438 17.832031 C 12.523438 18.65625 12.761719 19.464844 12.851562 20.304688 C 12.886719 20.59375 12.886719 20.898438 12.941406 21.183594 C 13.050781 21.8125 13.175781 22.421875 13.304688 23.046875 C 13.683594 25.035156 14.066406 27.027344 14.410156 29.015625 C 14.554688 29.910156 14.71875 30.808594 14.863281 31.703125 C 14.898438 31.917969 14.933594 32.113281 14.972656 32.332031 C 14.988281 32.277344 14.988281 32.222656 15.007812 32.167969 C 15.171875 31.253906 15.117188 30.339844 15.097656 29.410156 C 15.042969 27.582031 14.625 25.808594 14.625 23.996094 C 14.609375 22.242188 14.535156 20.414062 14.84375 18.675781 C 15.007812 17.832031 15.1875 16.992188 15.296875 16.128906 C 15.386719 15.449219 15.496094 14.785156 15.785156 14.160156 C 15.804688 14.105469 15.859375 14.140625 15.894531 14.175781 C 15.894531 13.996094 15.878906 13.800781 15.878906 13.621094 C 15.859375 13.03125 15.984375 12.457031 16.3125 11.953125 C 16.382812 11.828125 16.566406 11.507812 16.730469 11.613281 C 16.730469 11.507812 16.730469 11.417969 16.730469 11.308594 C 16.710938 11.183594 16.691406 11.058594 16.675781 10.933594 C 16.457031 11.09375 16.203125 11.21875 15.949219 11.34375 C 15.570312 11.542969 15.261719 11.757812 14.953125 12.0625 C 14.734375 12.277344 14.519531 12.492188 14.28125 12.6875 C 14.300781 12.707031 14.320312 12.761719 14.300781 12.777344 Z M 13.523438 14.984375 C 13.667969 15 13.847656 15.019531 13.976562 14.964844 C 14.011719 14.785156 13.9375 14.730469 13.773438 14.804688 C 13.757812 14.804688 13.722656 14.820312 13.683594 14.820312 C 13.59375 14.859375 13.503906 14.894531 13.394531 14.929688 C 13.449219 14.964844 13.484375 14.984375 13.523438 14.984375 Z M 4.660156 48.890625 C 4.898438 49.085938 5.078125 49.355469 5.167969 49.675781 C 5.1875 49.730469 5.1875 49.765625 5.207031 49.800781 C 5.3125 49.800781 5.40625 49.800781 5.511719 49.765625 C 5.820312 49.640625 5.496094 49.335938 5.367188 49.210938 C 5.152344 49.015625 4.933594 48.925781 4.660156 48.890625 Z M 5.078125 45.339844 C 5.007812 45.089844 4.878906 44.875 4.84375 44.625 C 4.789062 44.605469 4.753906 44.585938 4.699219 44.585938 C 4.261719 44.425781 3.847656 44.371094 3.375 44.410156 C 2.851562 44.445312 2.359375 44.570312 1.855469 44.660156 C 1.816406 44.660156 1.800781 44.675781 1.761719 44.675781 C 1.816406 45.195312 1.78125 45.753906 1.65625 46.273438 C 1.601562 46.558594 1.4375 46.917969 1.457031 47.222656 C 1.492188 47.5625 1.78125 47.832031 2 48.082031 C 2.34375 48.476562 2.433594 48.941406 2.707031 49.355469 C 2.867188 49.570312 3.195312 49.535156 3.410156 49.605469 C 3.648438 49.675781 3.882812 49.785156 4.117188 49.875 C 4.28125 49.929688 4.445312 50.019531 4.625 50.070312 C 4.699219 50.089844 4.753906 50.105469 4.824219 50.125 C 5.007812 49.890625 4.96875 49.695312 4.734375 49.550781 C 4.570312 49.355469 4.410156 49.15625 4.15625 49.050781 C 3.992188 48.976562 3.792969 48.925781 3.664062 48.800781 C 3.429688 48.585938 3.394531 48.027344 3.375 47.742188 C 3.339844 47.328125 3.230469 46.882812 3.394531 46.488281 C 3.410156 46.414062 3.503906 46.414062 3.539062 46.46875 C 3.757812 46.273438 4.027344 46.273438 4.210938 46.558594 C 4.515625 47.078125 4.136719 48.242188 4.808594 48.53125 C 5.859375 48.976562 5.222656 46.953125 5.207031 46.503906 C 5.1875 46.128906 5.167969 45.71875 5.078125 45.339844 Z M 4.410156 48.566406 C 4.0625 48.242188 4.390625 46.058594 3.558594 46.59375 C 3.558594 46.59375 3.539062 46.59375 3.539062 46.59375 C 3.429688 46.933594 3.484375 47.367188 3.503906 47.742188 C 3.519531 48.011719 3.558594 48.386719 3.847656 48.496094 C 3.972656 48.53125 4.082031 48.566406 4.210938 48.621094 C 4.28125 48.65625 4.335938 48.671875 4.390625 48.710938 C 4.445312 48.691406 4.515625 48.691406 4.570312 48.691406 C 4.515625 48.65625 4.445312 48.601562 4.410156 48.566406 Z M 6.492188 46.628906 C 6.671875 47.492188 7.46875 47.742188 8.25 47.9375 C 8.703125 48.046875 9.191406 48.191406 9.664062 48.136719 C 10.242188 48.082031 10.515625 47.847656 10.859375 47.417969 C 11.074219 47.167969 11.347656 46.953125 11.566406 46.703125 C 11.890625 46.324219 12.054688 45.769531 12.234375 45.304688 C 12.851562 43.710938 13.25 42.023438 13.703125 40.375 C 13.703125 40.339844 13.703125 40.324219 13.703125 40.285156 C 13.703125 40.269531 13.722656 40.269531 13.738281 40.25 C 13.738281 40.214844 13.757812 40.199219 13.757812 40.160156 C 14.027344 39.195312 14.246094 38.226562 14.300781 37.222656 C 14.355469 36.363281 14.375 35.503906 14.480469 34.640625 C 14.535156 34.105469 14.679688 33.566406 14.808594 33.046875 C 14.554688 30.394531 13.792969 27.761719 13.285156 25.144531 C 13.03125 23.925781 12.777344 22.6875 12.5625 21.453125 C 12.433594 20.824219 12.417969 20.179688 12.289062 19.554688 C 12.035156 18.261719 11.820312 16.972656 11.800781 15.664062 C 11.800781 15.628906 11.820312 15.59375 11.855469 15.574219 C 12.109375 15.449219 12.453125 15.164062 12.832031 14.929688 C 12.6875 14.820312 12.523438 14.730469 12.34375 14.679688 C 12.308594 14.660156 12.273438 14.625 12.273438 14.570312 C 12.324219 14.210938 12.832031 13.835938 13.085938 13.566406 C 13.175781 13.476562 13.269531 13.386719 13.359375 13.296875 C 13.304688 13.316406 13.230469 13.351562 13.160156 13.371094 C 12.253906 13.640625 11.3125 13.820312 10.386719 14.070312 C 9.519531 14.265625 8.46875 14.445312 7.722656 14.964844 C 7.398438 15.179688 6.890625 15.179688 6.691406 15.558594 C 6.511719 15.933594 6.4375 16.34375 6.363281 16.757812 C 6.21875 17.671875 6.003906 18.585938 5.75 19.5 C 5.476562 20.484375 5.167969 21.453125 4.859375 22.421875 C 4.535156 23.476562 4.355469 24.480469 4.261719 25.574219 C 4.210938 26.398438 4.117188 27.1875 3.917969 27.992188 C 3.71875 28.800781 3.503906 29.589844 3.558594 30.429688 C 3.574219 30.84375 3.648438 31.289062 3.539062 31.683594 C 3.449219 32.078125 3.304688 32.472656 3.175781 32.867188 C 2.941406 33.691406 2.851562 34.535156 2.667969 35.375 C 2.289062 37.152344 1.78125 38.941406 1.671875 40.769531 C 1.636719 41.59375 1.90625 42.527344 1.636719 43.332031 C 1.582031 43.496094 1.074219 44.480469 1.5625 44.460938 C 1.90625 44.445312 2.253906 44.335938 2.597656 44.28125 C 3.230469 44.175781 3.957031 44.066406 4.589844 44.28125 C 4.878906 44.390625 5.207031 44.550781 5.167969 44.085938 C 5.152344 43.746094 5.152344 43.40625 5.222656 43.066406 C 5.40625 42.1875 5.675781 41.328125 5.914062 40.464844 C 6.113281 39.675781 6.164062 38.851562 6.382812 38.066406 C 6.582031 37.242188 6.980469 36.433594 7.054688 35.589844 C 7.109375 34.894531 6.945312 34.210938 7.214844 33.53125 C 7.433594 32.957031 8.359375 31.917969 7.941406 31.289062 C 7.886719 31.203125 7.816406 31.148438 7.722656 31.09375 C 7.253906 31.328125 6.328125 31.703125 6.019531 31.09375 C 5.984375 31.003906 6.019531 30.898438 6.113281 30.878906 C 6.582031 30.769531 7.324219 30.503906 7.832031 30.734375 C 7.941406 30.664062 8.015625 30.59375 8.050781 30.554688 C 8.339844 30.234375 8.449219 29.679688 8.574219 29.246094 C 8.574219 29.230469 8.574219 29.195312 8.574219 29.175781 C 8.558594 29.121094 8.539062 29.070312 8.574219 28.996094 C 8.558594 27.242188 8.375 25.484375 7.960938 23.765625 C 7.921875 23.621094 8.140625 23.566406 8.175781 23.710938 C 8.628906 25.339844 8.792969 27.042969 8.828125 28.726562 C 8.828125 28.78125 8.828125 28.855469 8.828125 28.90625 C 8.847656 28.925781 8.867188 28.925781 8.882812 28.941406 C 9.066406 28.941406 9.117188 29.210938 8.9375 29.335938 C 8.902344 29.425781 8.882812 29.535156 8.847656 29.625 C 8.867188 30.984375 8.828125 32.382812 8.628906 33.746094 C 8.394531 35.304688 8.03125 36.847656 7.597656 38.386719 C 7.597656 38.386719 7.597656 38.386719 7.617188 38.386719 C 8.03125 38.960938 9.101562 38.871094 9.734375 38.851562 C 9.824219 38.851562 9.898438 38.925781 9.898438 39.015625 C 9.933594 39.675781 9.933594 40.304688 9.71875 40.933594 C 9.679688 41.023438 9.609375 41.09375 9.5 41.09375 C 8.882812 41.109375 7.453125 41.199219 7.125 40.503906 C 7.054688 40.339844 7.214844 40.144531 7.378906 40.25 C 7.976562 40.628906 8.648438 40.628906 9.335938 40.644531 C 9.5 40.179688 9.535156 39.675781 9.554688 39.175781 C 8.957031 39.175781 7.886719 39.175781 7.523438 38.675781 C 7.507812 38.710938 7.507812 38.765625 7.488281 38.800781 C 7.015625 40.503906 6.472656 42.222656 6.382812 43.980469 C 6.347656 44.855469 6.3125 45.789062 6.492188 46.628906 Z M 6.402344 31.128906 C 6.601562 31.289062 7.015625 31.183594 7.378906 31.003906 C 7.054688 30.96875 6.691406 31.058594 6.402344 31.128906 Z M 24.574219 41.34375 C 24.539062 41.253906 24.574219 41.164062 24.644531 41.128906 C 24.628906 41.09375 24.609375 41.058594 24.628906 41.023438 C 24.5 40.664062 24.265625 40.339844 24.066406 40.019531 C 23.902344 39.765625 23.777344 39.5 23.613281 39.246094 C 23.46875 39.480469 23.234375 39.640625 22.941406 39.765625 C 22.238281 40.109375 21.53125 40.414062 20.839844 40.753906 C 20.441406 40.949219 20.042969 41.164062 19.644531 41.34375 C 19.429688 41.433594 19.246094 41.558594 19.011719 41.578125 C 18.59375 41.59375 18.449219 40.804688 18.359375 40.554688 C 18.050781 39.804688 17.78125 39.050781 17.507812 38.316406 C 17.179688 38.496094 17 38.90625 16.835938 39.210938 C 16.65625 39.550781 16.421875 39.820312 16.203125 40.144531 C 15.894531 40.609375 15.605469 40.984375 15.117188 41.308594 C 14.753906 41.542969 14.554688 41.453125 14.265625 41.148438 C 14.191406 41.074219 14.066406 40.949219 13.9375 40.824219 C 13.703125 41.738281 13.429688 42.652344 13.160156 43.53125 C 12.90625 44.355469 12.617188 45.179688 12.253906 45.96875 C 12.125 46.253906 12.019531 46.613281 11.765625 46.847656 C 11.472656 47.113281 11.203125 47.367188 10.96875 47.6875 C 10.167969 48.78125 8.539062 48.511719 7.398438 48.101562 C 7.035156 47.976562 6.671875 47.8125 6.4375 47.527344 C 6.472656 49.800781 5.964844 52.023438 5.640625 54.265625 C 5.550781 54.890625 5.511719 55.539062 5.441406 56.164062 C 5.367188 56.703125 5.242188 57.328125 5.421875 57.867188 C 5.550781 58.226562 5.820312 58.621094 5.859375 59.015625 C 5.914062 59.425781 5.820312 59.800781 5.675781 60.195312 C 5.296875 61.183594 5.078125 62.203125 4.734375 63.207031 C 4.425781 64.140625 3.484375 65.105469 3.683594 66.128906 C 3.882812 67.078125 3.285156 67.957031 2.976562 68.835938 C 2.597656 69.925781 2.414062 71.003906 2.34375 72.148438 C 2.214844 73.996094 2.269531 75.824219 2.179688 77.667969 C 2.144531 78.566406 2.070312 79.460938 1.945312 80.339844 C 1.816406 81.164062 1.746094 82.003906 1.601562 82.832031 C 1.527344 83.3125 1.347656 84.066406 1.980469 84.226562 C 2.253906 84.300781 2.507812 84.28125 2.757812 84.335938 C 3.175781 84.425781 3.628906 84.550781 4.082031 84.65625 C 4.011719 84.300781 4.191406 83.921875 4.261719 83.566406 C 4.425781 82.902344 4.300781 82.203125 4.515625 81.558594 C 4.660156 81.164062 4.953125 80.75 4.96875 80.339844 C 4.988281 80 4.953125 79.640625 4.988281 79.300781 C 5.042969 78.527344 5.097656 77.742188 5.1875 76.96875 C 5.367188 75.394531 5.730469 73.871094 6.09375 72.3125 C 6.4375 70.789062 6.601562 69.210938 7.035156 67.6875 C 7.253906 66.953125 7.398438 66.183594 7.617188 65.445312 C 7.832031 64.75 8.140625 63.960938 8.105469 63.207031 C 8.085938 62.527344 8.015625 61.917969 8.105469 61.234375 C 8.214844 60.5 8.359375 59.785156 8.484375 59.050781 C 8.757812 57.328125 9.101562 55.609375 9.28125 53.871094 C 9.425781 52.597656 9.535156 51.273438 10.117188 50.105469 C 10.132812 50.070312 10.207031 50.105469 10.132812 50.125 C 9.589844 51.503906 9.5 52.957031 9.355469 54.425781 C 9.210938 55.984375 8.917969 57.542969 8.683594 59.101562 C 8.558594 59.890625 8.375 60.679688 8.304688 61.46875 C 8.230469 62.167969 8.375 62.867188 8.320312 63.566406 C 8.265625 64.230469 7.996094 64.855469 7.832031 65.5 C 7.742188 65.859375 7.652344 66.21875 7.667969 66.59375 C 7.6875 66.882812 7.667969 67.132812 7.597656 67.402344 C 7.199219 68.921875 6.964844 70.484375 6.527344 71.988281 C 6.074219 73.546875 5.640625 75.140625 5.460938 76.753906 C 5.367188 77.542969 5.296875 78.3125 5.242188 79.101562 C 5.207031 79.710938 5.386719 80.445312 5.132812 81.019531 C 4.808594 81.773438 4.769531 82.527344 4.679688 83.332031 C 4.644531 83.691406 4.28125 84.300781 4.445312 84.640625 C 4.460938 84.65625 4.460938 84.695312 4.460938 84.710938 C 4.808594 84.765625 5.132812 84.765625 5.460938 84.695312 C 5.765625 84.621094 6.039062 84.585938 6.363281 84.65625 C 6.871094 84.765625 6.945312 84.351562 7.015625 83.976562 C 7.125 83.386719 7.214844 82.792969 7.308594 82.203125 C 7.578125 80.339844 7.816406 78.476562 8.066406 76.613281 C 8.195312 75.644531 8.339844 74.695312 8.429688 73.726562 C 8.503906 72.882812 8.574219 72.042969 8.757812 71.21875 C 9.15625 69.425781 9.390625 67.617188 9.808594 65.839844 C 10.0625 64.765625 10.820312 63.046875 10.207031 61.96875 C 9.953125 61.933594 9.769531 61.71875 9.769531 61.433594 C 9.789062 61.289062 9.933594 61.253906 10.023438 61.324219 C 10.097656 61.378906 10.152344 61.433594 10.207031 61.503906 C 10.441406 61.59375 10.605469 61.539062 10.714844 61.34375 C 10.730469 61.308594 10.769531 61.253906 10.785156 61.21875 C 10.859375 61.109375 10.929688 61.003906 10.984375 60.894531 C 11.183594 60.5 11.328125 60.105469 11.4375 59.695312 C 11.636719 58.871094 11.925781 58.101562 12.21875 57.3125 C 12.507812 56.503906 12.722656 55.679688 13.015625 54.875 C 13.285156 54.140625 13.628906 53.421875 13.921875 52.707031 C 14.390625 51.558594 14.84375 50.394531 15.425781 49.300781 C 15.425781 49.28125 15.425781 49.265625 15.425781 49.265625 C 15.425781 49.230469 15.441406 49.210938 15.476562 49.210938 C 15.605469 48.976562 15.730469 48.761719 15.859375 48.546875 C 16.691406 47.1875 17.832031 45.679688 17.507812 43.980469 C 17.488281 43.890625 17.652344 43.835938 17.671875 43.941406 C 18.125 45.769531 16.890625 47.382812 16.039062 48.890625 C 15.859375 49.210938 15.695312 49.535156 15.53125 49.855469 C 15.585938 50.984375 15.75 52.113281 15.914062 53.226562 C 16.167969 54.929688 16.621094 56.613281 16.78125 58.332031 C 16.945312 60.160156 16.710938 61.988281 16.65625 63.796875 C 16.636719 64.695312 16.765625 65.359375 17.128906 66.183594 C 17.34375 66.648438 17.472656 67.4375 17.34375 67.9375 C 17.253906 68.296875 17.089844 68.582031 16.929688 68.886719 C 16.675781 69.355469 16.691406 69.675781 16.800781 70.179688 C 16.964844 70.878906 16.945312 71.613281 16.875 72.328125 C 16.78125 73.207031 16.601562 74.085938 16.53125 74.980469 C 16.457031 75.859375 16.402344 76.738281 16.367188 77.617188 C 16.328125 78.582031 16.3125 79.53125 16.3125 80.5 C 16.3125 81.359375 16.167969 82.273438 16.328125 83.132812 C 16.4375 83.691406 16.710938 83.726562 17.199219 83.871094 C 17.542969 83.976562 17.851562 84.136719 18.195312 84.246094 C 18.269531 84.265625 18.359375 84.28125 18.449219 84.300781 C 18.722656 83.636719 18.503906 82.703125 18.578125 82.003906 C 18.648438 81.34375 18.738281 80.660156 18.847656 80 C 19.101562 78.492188 19.355469 76.988281 19.554688 75.464844 C 19.753906 73.90625 19.917969 72.453125 19.734375 70.894531 C 19.664062 70.195312 19.898438 69.660156 19.933594 68.976562 C 19.988281 68.296875 19.933594 67.617188 20.007812 66.933594 C 20.097656 66.144531 20.316406 65.375 20.351562 64.585938 C 20.40625 63.835938 20.441406 63.101562 20.40625 62.347656 C 20.335938 60.878906 20.242188 59.390625 20.371094 57.902344 C 20.515625 56.449219 20.640625 55 20.859375 53.546875 C 20.96875 52.796875 21.058594 52.042969 21.078125 51.289062 C 21.09375 50.589844 21.238281 49.910156 21.222656 49.210938 C 21.203125 49.140625 21.3125 49.140625 21.292969 49.230469 C 21.347656 50 21.222656 50.753906 21.203125 51.523438 C 21.1875 52.203125 21.09375 52.902344 21.003906 53.582031 C 20.785156 55.089844 20.640625 56.613281 20.535156 58.136719 C 20.425781 59.695312 20.640625 61.253906 20.714844 62.8125 C 20.75 63.621094 20.859375 64.445312 20.75 65.25 C 20.660156 65.949219 20.441406 66.648438 20.425781 67.363281 C 20.40625 68.046875 20.570312 68.78125 20.371094 69.445312 C 20.152344 70.140625 20.007812 70.804688 19.988281 71.539062 C 19.953125 73.082031 19.828125 74.605469 19.664062 76.128906 C 19.5 77.597656 19.265625 79.050781 19.046875 80.519531 C 18.9375 81.34375 18.792969 82.222656 18.832031 83.0625 C 18.867188 83.476562 18.882812 83.90625 18.757812 84.300781 C 18.9375 84.300781 19.121094 84.28125 19.285156 84.265625 C 19.828125 84.15625 20.386719 83.921875 20.859375 83.78125 C 21.3125 83.636719 22.074219 83.886719 22.34375 83.367188 C 22.507812 83.082031 22.472656 82.742188 22.453125 82.417969 C 22.417969 81.523438 22.382812 80.609375 22.363281 79.710938 C 22.308594 77.832031 22.253906 75.929688 22.289062 74.050781 C 22.308594 73.082031 22.382812 72.113281 22.4375 71.144531 C 22.488281 70.285156 22.4375 69.40625 22.453125 68.546875 C 22.472656 67.632812 22.90625 66.628906 22.707031 65.734375 C 22.617188 65.375 22.417969 65.070312 22.308594 64.710938 C 22.253906 64.515625 22.238281 64.316406 22.199219 64.121094 C 21.820312 64.050781 21.457031 63.886719 21.492188 63.492188 C 21.53125 62.972656 22.199219 62.8125 22.34375 63.386719 C 22.382812 63.53125 22.398438 63.691406 22.417969 63.851562 C 22.417969 63.851562 22.4375 63.851562 22.4375 63.851562 C 22.5625 63.886719 22.6875 63.925781 22.816406 63.925781 C 22.761719 63.925781 22.90625 63.511719 22.90625 63.492188 C 23.089844 62.742188 23.179688 61.96875 23.304688 61.199219 C 23.46875 60.214844 23.46875 59.246094 23.503906 58.242188 C 23.523438 57.382812 23.632812 56.539062 23.6875 55.679688 C 23.777344 53.90625 23.703125 52.113281 23.921875 50.339844 C 24.011719 49.535156 24.191406 48.710938 24.464844 47.9375 C 24.699219 47.277344 25.207031 46.738281 25.40625 46.058594 C 25.878906 44.445312 25.316406 42.761719 24.574219 41.34375 Z M 22.128906 63.601562 C 21.929688 63.1875 21.820312 63.207031 21.820312 63.65625 C 21.890625 63.691406 21.964844 63.726562 22.054688 63.746094 C 22.089844 63.761719 22.128906 63.761719 22.164062 63.78125 C 22.144531 63.707031 22.144531 63.65625 22.128906 63.601562 Z M 27.363281 44.230469 C 27.199219 43.996094 27.054688 43.675781 26.929688 43.457031 C 26.730469 43.101562 26.546875 42.722656 26.242188 42.457031 C 25.84375 42.097656 25.390625 41.808594 24.972656 41.453125 C 25.589844 42.886719 26.132812 44.5 25.734375 46.058594 C 26.332031 45.484375 26.839844 44.855469 27.363281 44.230469 Z M 30.589844 31.203125 C 30.460938 30.933594 30.371094 30.644531 30.371094 30.339844 C 30.351562 29.410156 30.460938 28.476562 30.390625 27.546875 C 30.316406 26.648438 30.207031 25.769531 30.117188 24.875 C 29.9375 23.101562 29.828125 21.328125 29.664062 19.554688 C 29.628906 19.035156 29.574219 18.53125 29.539062 18.011719 C 29.5 17.5625 29.539062 16.847656 29.175781 16.507812 C 28.921875 16.273438 28.613281 16.238281 28.304688 16.09375 C 27.945312 15.914062 27.5625 15.734375 27.183594 15.558594 C 26.347656 15.164062 25.480469 14.894531 24.628906 14.554688 C 24.429688 14.480469 24.230469 14.410156 24.011719 14.320312 C 24.246094 14.5 24.464844 14.679688 24.699219 14.875 C 24.71875 14.894531 24.71875 14.929688 24.71875 14.964844 C 24.644531 15.214844 24.410156 15.519531 24.140625 15.71875 C 24.464844 15.824219 24.792969 15.949219 25.097656 16.078125 C 25.207031 16.113281 25.28125 16.203125 25.242188 16.308594 C 24.898438 17.652344 24.644531 18.980469 24.59375 20.378906 C 24.574219 21.273438 24.554688 22.167969 24.375 23.046875 C 24.699219 23.011719 25.007812 23.03125 25.335938 22.992188 C 25.769531 22.957031 26.203125 22.886719 26.640625 22.867188 C 26.730469 22.867188 26.785156 22.976562 26.746094 23.066406 C 26.53125 23.441406 26.457031 24.050781 26.042969 24.285156 C 25.480469 24.589844 24.644531 24.785156 24.011719 24.730469 C 23.921875 24.714844 23.886719 24.660156 23.886719 24.589844 C 23.523438 25.429688 23.070312 26.238281 22.761719 27.117188 C 22.542969 27.707031 22.363281 28.332031 22.328125 28.960938 C 22.289062 29.5 22.308594 29.984375 22.144531 30.503906 C 22.144531 30.519531 22.128906 30.539062 22.128906 30.539062 C 22.183594 31.058594 22.273438 31.558594 22.34375 32.097656 C 22.398438 32.597656 22.488281 33.082031 22.652344 33.566406 C 22.742188 33.851562 22.851562 34.140625 22.851562 34.445312 C 22.851562 34.894531 22.761719 35.375 22.925781 35.808594 C 23.070312 36.148438 23.25 36.453125 23.359375 36.808594 C 23.539062 37.402344 23.722656 38.117188 23.742188 38.746094 C 23.742188 38.890625 23.722656 38.996094 23.6875 39.105469 C 23.921875 39.390625 24.085938 39.714844 24.285156 40.035156 C 24.429688 40.25 24.574219 40.464844 24.683594 40.699219 C 24.808594 40.125 25.261719 39.640625 25.605469 39.175781 C 25.914062 38.726562 26.09375 38.316406 26.042969 37.742188 C 26.003906 37.242188 25.878906 36.722656 25.878906 36.199219 C 25.894531 35.035156 25.96875 33.851562 26.023438 32.6875 C 26.078125 31.683594 26.003906 30.644531 26.167969 29.660156 C 26.257812 29.105469 26.402344 28.550781 26.601562 28.03125 C 26.621094 27.992188 26.621094 27.957031 26.640625 27.921875 C 26.601562 27.832031 26.585938 27.742188 26.566406 27.652344 C 26.546875 27.5625 26.695312 27.546875 26.695312 27.652344 C 26.695312 27.671875 26.710938 27.707031 26.710938 27.726562 C 26.875 27.332031 27.054688 26.953125 27.128906 26.523438 C 27.328125 25.394531 26.984375 24.265625 27.074219 23.136719 C 27.21875 21.238281 28.234375 19.75 29.15625 18.136719 C 29.195312 18.046875 29.320312 18.121094 29.285156 18.171875 C 28.378906 20.019531 27.292969 21.8125 27.417969 23.925781 C 27.4375 24.390625 27.453125 24.820312 27.4375 25.25 C 27.636719 25.628906 27.835938 25.96875 28.125 26.308594 C 28.359375 26.578125 28.648438 26.847656 28.847656 27.152344 C 28.886719 27.1875 28.832031 27.257812 28.777344 27.222656 C 28.25 26.917969 27.671875 26.273438 27.398438 25.644531 C 27.363281 26.003906 27.292969 26.363281 27.164062 26.722656 C 27.019531 27.132812 26.894531 27.507812 26.785156 27.886719 C 27.039062 28.386719 27.5625 28.636719 28.015625 28.941406 C 28.035156 28.941406 28.050781 28.941406 28.050781 28.960938 C 28.070312 28.980469 28.089844 28.996094 28.105469 29.015625 C 28.378906 29.210938 28.632812 29.410156 28.777344 29.730469 C 28.867188 29.929688 28.757812 30.089844 28.542969 30.019531 C 28.25 29.910156 28.089844 29.5 27.996094 29.195312 C 27.890625 29.121094 27.78125 29.050781 27.691406 28.980469 C 27.328125 28.726562 26.929688 28.476562 26.710938 28.101562 C 26.566406 28.65625 26.457031 29.230469 26.421875 29.875 C 26.386719 30.375 26.367188 30.898438 26.347656 31.398438 C 26.441406 31.398438 26.53125 31.417969 26.621094 31.417969 C 27.238281 31.023438 28.070312 30.84375 28.6875 31.203125 C 28.742188 31.238281 28.742188 31.289062 28.722656 31.328125 C 28.359375 31.9375 27.527344 31.738281 26.839844 31.59375 C 26.65625 31.703125 26.496094 31.828125 26.347656 32.007812 C 26.347656 32.027344 26.332031 32.027344 26.3125 32.027344 C 26.292969 32.457031 26.292969 32.886719 26.277344 33.316406 C 26.222656 34.390625 26.09375 35.503906 26.203125 36.558594 C 26.292969 37.347656 26.441406 38.191406 26.003906 38.90625 C 25.605469 39.550781 24.863281 40.234375 24.828125 41.023438 C 25.316406 41.542969 26.003906 41.863281 26.476562 42.402344 C 26.675781 42.632812 26.855469 42.886719 27.019531 43.152344 C 27.109375 43.296875 27.507812 44.085938 27.652344 44.085938 C 27.796875 44.085938 27.980469 42.921875 28.035156 42.796875 C 28.160156 42.472656 28.304688 42.152344 28.488281 41.863281 C 28.902344 41.199219 29.25 40.539062 29.410156 39.765625 C 29.59375 38.90625 29.648438 38.027344 29.773438 37.167969 C 29.847656 36.703125 29.972656 36.199219 29.992188 35.734375 C 30.007812 35.304688 29.953125 34.894531 29.9375 34.460938 C 29.898438 33.746094 30.027344 33.171875 30.390625 32.5625 C 30.699219 32.097656 30.804688 31.703125 30.589844 31.203125 Z M 26.476562 31.542969 C 26.441406 31.542969 26.402344 31.542969 26.367188 31.523438 C 26.367188 31.558594 26.367188 31.59375 26.367188 31.632812 C 26.402344 31.59375 26.441406 31.578125 26.476562 31.542969 Z M 28.378906 31.453125 C 28.757812 31.21875 28.179688 31.183594 27.996094 31.203125 C 27.796875 31.21875 27.597656 31.273438 27.398438 31.34375 C 27.292969 31.378906 27.164062 31.433594 27.054688 31.488281 C 27.527344 31.578125 28.015625 31.667969 28.378906 31.453125 Z M 28.449219 29.660156 C 28.578125 29.804688 28.613281 29.804688 28.542969 29.695312 C 28.488281 29.605469 28.414062 29.515625 28.34375 29.445312 C 28.359375 29.515625 28.398438 29.605469 28.449219 29.660156 Z M 5.875 28.980469 C 5.804688 29.03125 5.785156 29.105469 5.859375 29.175781 C 6.21875 29.589844 6.816406 29.570312 7.308594 29.390625 C 7.378906 29.375 7.378906 29.265625 7.308594 29.246094 C 6.890625 29.140625 6.511719 29.355469 6.148438 29.105469 C 7.015625 28.476562 7.90625 27.8125 8.304688 26.792969 C 8.320312 26.722656 8.214844 26.667969 8.160156 26.738281 C 7.617188 27.707031 6.765625 28.332031 5.875 28.980469 Z M 5.875 28.980469 " fill-opacity="1" fill-rule="nonzero"/></svg>