<svg xmlns="http://www.w3.org/2000/svg" xmlns:xlink="http://www.w3.org/1999/xlink" width="40" zoomAndPan="magnify" viewBox="0 0 30 74.999997" height="100" preserveAspectRatio="xMidYMid meet" version="1.0"><defs><clipPath id="6da7be1c14"><path d="M 1.703125 0 L 27.953125 0 L 27.953125 75 L 1.703125 75 Z M 1.703125 0 " clip-rule="nonzero"/></clipPath><clipPath id="c02d83a2e3"><path d="M 1.703125 0 L 27.953125 0 L 27.953125 75 L 1.703125 75 Z M 1.703125 0 " clip-rule="nonzero"/></clipPath></defs><g clip-path="url(#6da7be1c14)"><path fill="#000000" d="M 27.554688 25.847656 C 27.527344 25.773438 27.496094 25.683594 27.484375 25.609375 C 27.410156 25.339844 27.410156 25.054688 27.421875 24.773438 C 27.421875 24.652344 27.421875 24.535156 27.421875 24.429688 C 27.421875 24.265625 27.410156 24.101562 27.394531 23.949219 L 27.394531 23.875 C 27.304688 22.144531 27.011719 20.410156 26.921875 18.679688 C 26.878906 17.484375 26.6875 16.378906 26.640625 15.167969 C 26.597656 14.734375 26.640625 14.300781 26.449219 13.867188 C 26.332031 13.570312 26.125 13.480469 25.859375 13.375 C 25.667969 13.300781 25.492188 13.210938 25.300781 13.136719 C 24.636719 12.808594 23.957031 12.480469 23.21875 12.269531 C 22.703125 12.074219 22.261719 11.882812 21.746094 11.6875 C 21.703125 11.65625 21.644531 11.628906 21.597656 11.597656 C 21.671875 11.65625 21.730469 11.71875 21.804688 11.777344 C 21.789062 11.777344 21.777344 11.761719 21.761719 11.761719 C 21.714844 11.730469 21.671875 11.6875 21.628906 11.65625 C 21.214844 11.296875 20.800781 10.925781 20.492188 10.640625 C 20.464844 10.207031 20.300781 9.984375 20.019531 9.9375 L 19.933594 9.925781 L 19.933594 9.835938 C 19.933594 9.746094 19.933594 9.625 19.945312 9.507812 C 19.960938 9.429688 19.976562 9.371094 19.992188 9.296875 C 20.019531 9.191406 20.050781 9.085938 20.035156 9 L 20.035156 8.953125 L 20.066406 8.921875 C 20.375 8.625 20.59375 8.3125 20.714844 7.996094 C 20.832031 7.683594 20.875 7.339844 20.890625 7.054688 L 21.097656 7.054688 C 21.097656 7.027344 21.066406 7.011719 21.054688 7.011719 C 21.230469 6.980469 21.378906 6.832031 21.464844 6.621094 C 21.582031 6.324219 21.628906 5.964844 21.65625 5.621094 C 21.671875 5.515625 21.6875 5.398438 21.703125 5.292969 C 21.714844 5.144531 21.65625 4.964844 21.554688 4.84375 C 21.496094 4.769531 21.421875 4.742188 21.363281 4.742188 C 21.304688 4.742188 21.257812 4.769531 21.199219 4.816406 L 21.039062 4.996094 L 21.023438 4.753906 C 21.007812 4.5 21.007812 4.292969 21.007812 4.070312 C 21.023438 3.066406 21.039062 2.113281 20.375 1.335938 C 19.902344 0.722656 19.105469 0.332031 18.355469 0.332031 C 18.191406 0.332031 18.042969 0.347656 17.882812 0.378906 L 17.851562 0.378906 C 16.851562 0.421875 16.023438 0.945312 15.449219 1.917969 C 15.199219 2.335938 15.183594 2.875 15.199219 3.382812 C 15.199219 3.5 15.214844 3.636719 15.226562 3.753906 C 15.242188 3.933594 15.257812 4.128906 15.257812 4.308594 C 15.257812 4.457031 15.257812 4.605469 15.257812 4.726562 L 15.257812 4.921875 L 15.09375 4.816406 C 15.050781 4.785156 15.019531 4.785156 14.960938 4.785156 C 14.917969 4.785156 14.875 4.785156 14.828125 4.800781 C 14.609375 4.84375 14.625 5.21875 14.625 5.339844 C 14.625 5.769531 14.726562 6.25 14.816406 6.5625 C 14.886719 6.800781 15.050781 6.980469 15.257812 7.027344 L 15.332031 7.042969 L 15.332031 7.117188 C 15.34375 7.25 15.359375 7.355469 15.375 7.460938 C 15.449219 7.90625 15.699219 8.414062 16.007812 8.804688 C 16.039062 8.847656 16.082031 8.878906 16.113281 8.921875 L 16.128906 8.953125 L 16.140625 9.042969 L 16.097656 9.085938 C 16.097656 9.074219 16.082031 9.058594 16.082031 9.027344 C 15.90625 9.265625 15.226562 9.460938 14.949219 9.699219 C 14.535156 10.058594 14.164062 10.460938 13.753906 10.761719 C 13.738281 10.777344 13.722656 10.777344 13.707031 10.789062 L 13.707031 10.777344 C 13.503906 10.925781 13.265625 11.058594 13 11.121094 C 11.792969 11.433594 10.332031 11.582031 9.109375 12.089844 C 9.019531 12.121094 8.929688 12.148438 8.871094 12.195312 C 8.84375 12.210938 8.796875 12.226562 8.769531 12.238281 C 8.488281 12.613281 8.0625 12.417969 7.867188 12.761719 C 7.617188 13.089844 7.542969 13.75 7.46875 14.195312 C 7.21875 15.257812 6.894531 16.390625 6.46875 17.707031 C 6.421875 17.839844 6.378906 17.976562 6.335938 18.125 C 6.15625 18.664062 5.964844 19.230469 5.894531 19.796875 C 5.804688 20.320312 5.789062 20.859375 5.761719 21.367188 C 5.746094 21.546875 5.746094 21.726562 5.730469 21.90625 C 5.730469 21.964844 5.714844 22.039062 5.714844 22.097656 C 5.6875 22.414062 5.640625 22.710938 5.582031 23.011719 C 5.421875 23.695312 5.199219 24.371094 5.230469 25.132812 C 5.230469 25.5625 5.332031 25.996094 5.183594 26.476562 C 5.039062 26.953125 4.84375 27.445312 4.757812 27.96875 C 4.59375 29.195312 4.269531 30.390625 4.019531 31.585938 C 3.796875 32.585938 3.621094 33.617188 3.664062 34.648438 C 3.679688 35.125 3.695312 35.558594 3.621094 36.019531 C 3.605469 36.082031 3.59375 36.140625 3.578125 36.199219 C 3.503906 36.410156 3.414062 36.617188 3.386719 36.828125 C 3.371094 36.902344 3.355469 36.976562 3.371094 37.050781 C 3.371094 37.050781 3.371094 37.066406 3.371094 37.066406 C 3.488281 37.125 3.605469 37.140625 3.726562 37.140625 C 3.753906 37.140625 3.796875 37.140625 3.828125 37.140625 L 3.960938 37.125 L 3.945312 37.261719 C 3.859375 37.875 3.769531 38.425781 3.621094 38.992188 C 3.519531 39.367188 3.664062 39.5625 3.929688 39.859375 L 3.960938 39.890625 C 4.183594 40.144531 4.375 40.367188 4.507812 40.710938 C 4.519531 40.757812 4.535156 40.800781 4.550781 40.847656 C 4.59375 40.964844 4.640625 41.128906 4.714844 41.191406 C 4.785156 41.265625 4.917969 41.28125 5.039062 41.292969 L 5.097656 41.292969 C 5.347656 41.324219 5.597656 41.457031 5.832031 41.578125 C 5.894531 41.609375 5.964844 41.652344 6.027344 41.683594 C 6.203125 41.773438 6.363281 41.816406 6.46875 41.816406 C 6.601562 41.816406 6.628906 41.757812 6.628906 41.699219 L 6.644531 41.59375 L 6.75 41.609375 C 6.761719 41.609375 6.777344 41.609375 6.792969 41.609375 C 6.941406 41.609375 7.117188 41.535156 7.175781 41.429688 C 7.191406 41.398438 7.21875 41.339844 7.160156 41.25 C 7.085938 41.101562 6.953125 40.964844 6.792969 40.875 L 6.542969 40.726562 L 6.835938 40.695312 C 6.910156 40.683594 6.953125 40.652344 6.96875 40.578125 C 7.058594 40.203125 6.96875 39.785156 6.878906 39.367188 C 6.820312 39.113281 6.761719 38.84375 6.761719 38.605469 C 6.761719 38.5 6.761719 38.382812 6.777344 38.246094 C 6.808594 37.886719 6.820312 37.5 6.644531 37.277344 L 6.554688 37.171875 L 6.675781 37.113281 C 6.675781 37.113281 6.6875 37.113281 6.6875 37.097656 C 6.777344 36.976562 6.777344 36.84375 6.777344 36.679688 C 6.777344 36.632812 6.777344 36.589844 6.777344 36.558594 C 6.75 36.097656 6.867188 35.648438 6.984375 35.214844 C 7.011719 35.125 7.027344 35.035156 7.058594 34.945312 L 7.117188 34.738281 C 7.175781 34.484375 7.25 34.242188 7.308594 33.988281 C 7.441406 33.496094 7.574219 33.019531 7.632812 32.527344 C 7.664062 32.359375 7.691406 32.210938 7.722656 32.046875 C 7.78125 31.660156 7.914062 31.300781 8.03125 30.941406 C 8.179688 30.523438 8.3125 30.089844 8.355469 29.640625 C 8.371094 29.449219 8.371094 29.253906 8.371094 29.058594 C 8.371094 28.804688 8.355469 28.539062 8.414062 28.269531 C 8.472656 27.953125 8.652344 27.671875 8.796875 27.371094 C 8.871094 27.238281 8.945312 27.101562 9.003906 26.984375 C 9.136719 26.683594 9.328125 26.148438 9.003906 25.832031 L 8.914062 25.742188 L 9.035156 25.667969 C 9.226562 25.550781 9.328125 25.445312 9.386719 25.28125 L 9.386719 25.265625 L 9.566406 25.308594 C 9.550781 25.863281 9.535156 26.429688 9.503906 26.984375 C 9.445312 27.761719 9.359375 28.460938 9.226562 29.121094 C 8.988281 30.328125 8.695312 31.554688 8.386719 32.75 C 8.132812 33.660156 7.898438 34.542969 7.734375 35.46875 C 7.574219 36.289062 7.542969 37.125 7.574219 37.964844 C 7.574219 38.394531 7.574219 38.84375 7.675781 39.246094 C 7.691406 39.335938 7.734375 39.410156 7.78125 39.488281 L 7.734375 39.53125 C 7.734375 41.445312 7.292969 43.371094 7.011719 45.28125 C 6.953125 45.640625 6.894531 46.015625 6.835938 46.402344 C 6.820312 46.492188 6.808594 46.582031 6.792969 46.671875 C 6.703125 47.210938 6.628906 47.761719 6.761719 48.253906 C 6.808594 48.40625 6.878906 48.554688 6.953125 48.703125 C 7.011719 48.808594 7.058594 48.925781 7.101562 49.03125 C 7.277344 49.449219 7.132812 49.882812 7 50.257812 L 7 50.273438 C 6.96875 50.375 6.925781 50.464844 6.894531 50.570312 C 6.867188 50.660156 6.835938 50.75 6.808594 50.839844 C 6.734375 51.0625 6.675781 51.289062 6.617188 51.511719 C 6.542969 51.765625 6.46875 52.035156 6.394531 52.289062 C 6.277344 52.675781 6.085938 53.019531 5.90625 53.335938 C 5.789062 53.542969 5.671875 53.769531 5.566406 53.992188 C 5.480469 54.214844 5.390625 54.441406 5.363281 54.695312 C 5.347656 54.84375 5.363281 54.992188 5.375 55.15625 C 5.390625 55.351562 5.421875 55.558594 5.363281 55.785156 C 5.273438 56.144531 5.125 56.488281 4.976562 56.816406 C 4.84375 57.113281 4.726562 57.425781 4.625 57.757812 C 4.402344 58.457031 4.328125 59.191406 4.269531 59.878906 C 4.195312 60.804688 4.183594 61.757812 4.183594 62.6875 C 4.183594 63.269531 4.167969 63.878906 4.136719 64.476562 C 4.109375 65.316406 4.050781 66.078125 3.945312 66.824219 C 3.902344 67.105469 3.871094 67.40625 3.828125 67.691406 C 3.769531 68.125 3.710938 68.585938 3.652344 69.019531 L 3.652344 69.035156 C 3.59375 69.332031 3.503906 69.824219 3.738281 70.050781 C 3.769531 70.078125 3.8125 70.109375 3.84375 70.140625 L 3.796875 70.273438 L 3.84375 70.246094 C 3.84375 70.246094 3.84375 70.257812 3.84375 70.257812 L 3.859375 70.246094 L 3.828125 70.304688 C 3.695312 70.855469 3.460938 71.574219 3.003906 72.066406 C 2.898438 72.1875 2.796875 72.304688 2.679688 72.425781 C 2.265625 72.875 1.867188 73.308594 1.96875 73.964844 C 2.074219 74.652344 2.855469 74.679688 3.488281 74.710938 L 3.59375 74.710938 C 3.726562 74.710938 3.84375 74.726562 3.976562 74.742188 C 4.152344 74.753906 4.34375 74.769531 4.519531 74.769531 L 4.566406 74.769531 C 5.007812 74.769531 5.332031 74.695312 5.628906 74.53125 C 5.804688 74.410156 5.90625 74.335938 5.964844 74.144531 C 5.996094 74.082031 5.996094 74.023438 6.011719 73.949219 C 6.039062 73.800781 6.070312 73.621094 6.277344 73.5 C 6.335938 73.472656 6.378906 73.441406 6.421875 73.425781 C 6.453125 73.410156 6.46875 73.410156 6.496094 73.394531 C 6.554688 73.382812 6.601562 73.367188 6.644531 73.335938 C 6.703125 73.308594 6.75 73.261719 6.792969 73.203125 C 6.835938 73.113281 6.851562 72.976562 6.851562 72.84375 C 6.851562 72.769531 6.851562 72.695312 6.867188 72.621094 C 6.878906 72.558594 6.878906 72.515625 6.894531 72.457031 C 6.953125 72.140625 7.011719 71.8125 6.925781 71.515625 C 6.878906 71.304688 6.777344 71.035156 6.675781 70.796875 L 6.617188 70.664062 L 6.761719 70.664062 C 6.777344 70.664062 6.792969 70.664062 6.820312 70.664062 C 6.910156 70.664062 7 70.632812 7.074219 70.617188 C 7.160156 70.601562 7.25 70.601562 7.339844 70.601562 C 7.5 70.601562 7.648438 70.617188 7.796875 70.675781 C 7.839844 70.691406 7.882812 70.707031 7.929688 70.707031 C 8.324219 70.707031 8.445312 69.929688 8.472656 69.648438 C 8.5625 69.050781 8.652344 68.4375 8.753906 67.839844 C 8.8125 67.480469 8.871094 67.105469 8.929688 66.75 C 9.019531 66.179688 9.078125 65.582031 9.136719 65.015625 C 9.210938 64.375 9.269531 63.714844 9.386719 63.074219 C 9.476562 62.492188 9.535156 61.894531 9.578125 61.328125 C 9.625 60.742188 9.683594 60.144531 9.785156 59.546875 C 9.890625 58.949219 10.007812 58.339844 10.125 57.757812 C 10.242188 57.171875 10.359375 56.574219 10.464844 55.976562 C 10.554688 55.5 10.65625 55.007812 10.773438 54.542969 C 10.890625 54.082031 10.996094 53.601562 11.082031 53.125 C 11.15625 52.75 11.1875 52.230469 11.023438 51.78125 C 11.023438 51.765625 11.011719 51.734375 11.011719 51.722656 C 10.996094 51.691406 10.980469 51.644531 10.964844 51.617188 C 10.964844 51.601562 10.980469 51.601562 10.980469 51.585938 C 11.011719 51.542969 11.039062 51.511719 11.054688 51.46875 C 11.347656 51.304688 11.585938 50.675781 11.703125 50.375 L 11.71875 50.347656 C 11.820312 50.109375 11.878906 49.824219 11.9375 49.570312 C 11.953125 49.480469 11.984375 49.40625 12 49.316406 C 12.085938 48.914062 12.25 48.507812 12.394531 48.121094 L 12.46875 47.941406 C 12.589844 47.613281 12.707031 47.253906 12.824219 46.925781 C 13 46.386719 13.179688 45.820312 13.429688 45.296875 C 13.707031 44.699219 13.960938 44.074219 14.195312 43.476562 C 14.429688 42.878906 14.683594 42.25 14.960938 41.636719 L 15.082031 41.667969 C 15.140625 42.832031 15.332031 44.058594 15.492188 45.164062 C 15.730469 46.613281 16.113281 48.0625 16.113281 49.449219 C 16.113281 50.167969 16.066406 50.855469 16.023438 51.558594 C 16.023438 51.570312 16.023438 51.601562 16.023438 51.617188 C 16.007812 51.765625 15.996094 51.914062 15.996094 52.050781 C 15.980469 52.214844 15.964844 52.394531 15.949219 52.558594 C 15.90625 53.066406 15.847656 53.589844 15.921875 54.066406 C 15.964844 54.351562 16.066406 54.617188 16.171875 54.886719 C 16.261719 55.140625 16.363281 55.394531 16.40625 55.664062 C 16.464844 56.007812 16.511719 56.472656 16.320312 56.917969 C 16.261719 57.039062 16.214844 57.144531 16.15625 57.261719 C 16.082031 57.414062 16.007812 57.546875 15.949219 57.695312 C 15.832031 58.011719 15.9375 58.382812 16.023438 58.742188 C 16.066406 58.921875 16.128906 59.101562 16.140625 59.265625 C 16.15625 59.429688 16.171875 59.609375 16.171875 59.773438 C 16.15625 60.222656 16.097656 60.667969 16.039062 61.085938 C 16.023438 61.222656 15.996094 61.339844 15.964844 61.476562 L 15.949219 61.566406 C 15.699219 63.027344 15.566406 64.464844 15.539062 65.972656 C 15.523438 66.332031 15.523438 66.6875 15.523438 67.046875 C 15.523438 67.40625 15.523438 67.765625 15.507812 68.136719 C 15.507812 68.210938 15.507812 68.289062 15.492188 68.363281 C 15.476562 68.855469 15.449219 69.46875 15.714844 69.824219 C 15.847656 70.003906 16.082031 70.066406 16.304688 70.09375 L 16.394531 70.109375 L 16.378906 70.199219 C 16.347656 70.4375 16.304688 70.664062 16.246094 70.886719 C 16.171875 71.183594 16.113281 71.5 16.113281 71.828125 C 16.113281 71.886719 16.113281 71.949219 16.113281 72.023438 C 16.097656 72.277344 16.097656 72.425781 16.289062 72.5 C 16.304688 72.515625 16.320312 72.515625 16.332031 72.515625 C 16.628906 72.605469 17.042969 72.679688 17.292969 72.710938 C 17.351562 72.710938 17.410156 72.722656 17.46875 72.722656 C 17.617188 72.722656 17.75 72.738281 17.867188 72.796875 C 17.957031 72.84375 18.03125 72.917969 18.101562 73.023438 L 18.132812 73.050781 C 18.308594 73.292969 18.457031 73.484375 18.722656 73.636719 L 18.753906 73.648438 C 18.914062 73.753906 19.121094 73.785156 19.328125 73.816406 C 19.445312 73.828125 19.5625 73.859375 19.679688 73.890625 C 20.066406 73.980469 20.390625 74.054688 20.714844 74.113281 C 20.964844 74.144531 21.214844 74.15625 21.449219 74.15625 C 21.761719 74.15625 22.054688 74.128906 22.335938 74.082031 C 22.511719 74.054688 22.644531 73.949219 22.703125 73.785156 C 22.824219 73.457031 22.660156 72.949219 22.4375 72.664062 C 22.21875 72.367188 21.878906 72.097656 21.523438 71.828125 C 20.859375 71.304688 20.183594 70.753906 20.078125 69.914062 L 20.066406 69.8125 L 20.167969 69.796875 C 20.300781 69.78125 20.609375 69.722656 20.726562 69.496094 C 20.757812 69.453125 20.773438 69.40625 20.789062 69.347656 C 20.875 69.152344 20.859375 68.914062 20.859375 68.660156 C 20.859375 68.660156 20.859375 68.644531 20.859375 68.644531 C 20.875 68.035156 20.890625 67.40625 20.875 66.777344 C 20.875 66.359375 20.859375 65.941406 20.859375 65.523438 C 20.847656 64.6875 20.832031 63.835938 20.832031 63 C 20.847656 62.058594 20.90625 61.101562 20.964844 60.175781 C 20.980469 59.863281 21.007812 59.5625 21.023438 59.25 C 21.054688 58.578125 21.066406 57.980469 21.054688 57.441406 C 21.039062 56.980469 21.097656 56.515625 21.140625 56.066406 C 21.15625 55.933594 21.171875 55.8125 21.1875 55.679688 C 21.230469 55.304688 21.246094 54.8125 21.054688 54.394531 C 21.023438 54.335938 20.992188 54.261719 20.964844 54.199219 C 20.859375 53.976562 20.757812 53.78125 20.699219 53.542969 C 20.699219 53.527344 20.683594 53.5 20.683594 53.484375 L 20.683594 53.453125 C 20.683594 53.410156 20.667969 53.363281 20.667969 53.320312 L 20.800781 53.335938 C 20.890625 53.347656 20.980469 53.347656 21.054688 53.363281 L 21.113281 53.363281 C 21.613281 51.824219 21.761719 50.121094 21.847656 48.507812 C 21.863281 48.089844 21.921875 47.65625 21.96875 47.238281 C 22.011719 46.777344 22.070312 46.296875 22.085938 45.835938 C 22.101562 45.386719 22.113281 44.9375 22.113281 44.507812 C 22.113281 44.074219 22.128906 43.609375 22.160156 43.160156 C 22.203125 42.144531 22.320312 41.25 22.511719 40.441406 C 22.601562 40.070312 22.777344 39.710938 22.941406 39.382812 C 23.074219 39.113281 23.207031 38.84375 23.292969 38.5625 L 23.308594 38.515625 L 23.339844 38.5 C 23.558594 38.367188 23.738281 38.140625 23.914062 37.933594 C 23.957031 37.886719 23.988281 37.828125 24.03125 37.785156 C 24.105469 37.695312 24.179688 37.621094 24.253906 37.53125 C 24.429688 37.335938 24.621094 37.125 24.753906 36.886719 L 24.828125 36.769531 L 24.917969 36.886719 C 24.929688 36.902344 24.945312 36.933594 24.976562 36.949219 C 24.992188 36.960938 25.003906 36.976562 25.019531 36.976562 C 25.109375 36.976562 25.242188 36.8125 25.285156 36.707031 C 25.359375 36.542969 25.386719 36.351562 25.417969 36.15625 C 25.433594 36.082031 25.449219 35.992188 25.460938 35.917969 C 25.566406 35.484375 25.800781 35.09375 26.039062 34.738281 C 26.640625 33.75 26.730469 32.585938 26.832031 31.464844 L 26.832031 31.375 C 26.878906 30.898438 26.9375 30.433594 27.027344 29.957031 C 27.113281 29.210938 26.863281 28.476562 27.085938 27.789062 C 27.15625 27.582031 27.289062 27.386719 27.421875 27.207031 C 27.496094 27.101562 27.554688 27.011719 27.617188 26.921875 C 27.792969 26.550781 27.6875 26.222656 27.554688 25.847656 Z M 6.585938 40.695312 L 6.1875 40.683594 C 6.144531 40.683594 6.113281 40.683594 6.085938 40.695312 L 6.039062 40.710938 L 6.011719 40.695312 C 5.964844 40.667969 5.921875 40.636719 5.863281 40.621094 C 5.773438 40.578125 5.6875 40.546875 5.566406 40.515625 C 5.257812 40.398438 5.230469 40.007812 5.214844 39.800781 C 5.214844 39.742188 5.214844 39.679688 5.199219 39.605469 C 5.183594 39.335938 5.15625 39.054688 5.242188 38.800781 L 5.257812 38.738281 L 5.316406 38.726562 C 5.40625 38.679688 5.480469 38.648438 5.554688 38.648438 C 5.90625 38.648438 5.953125 39.1875 5.996094 39.710938 C 6.027344 39.980469 6.054688 40.324219 6.128906 40.398438 C 6.15625 40.429688 6.203125 40.457031 6.261719 40.503906 Z M 6.585938 40.695312 " fill-opacity="1" fill-rule="nonzero"/></g><path fill="#ffffff" d="M 24.902344 36.753906 L 24.785156 36.886719 C 24.5625 37.230469 24.3125 37.5 24.03125 37.796875 C 23.8125 38.050781 23.589844 38.367188 23.28125 38.5625 L 23.265625 38.546875 C 23.5 37.917969 23.5 36.886719 23.339844 36.304688 C 23.148438 35.601562 22.941406 35.003906 22.628906 34.347656 C 22.628906 34.304688 22.617188 34.257812 22.601562 34.214844 L 22.628906 34.199219 C 23.058594 34.722656 23.722656 35.019531 24.105469 35.5 C 24.414062 35.902344 24.621094 36.378906 24.902344 36.753906 Z M 6.910156 40.949219 C 6.792969 40.832031 6.644531 40.757812 6.484375 40.742188 C 6.410156 40.710938 6.335938 40.695312 6.246094 40.695312 C 6.15625 40.683594 5.980469 40.652344 5.90625 40.710938 L 5.90625 40.726562 C 5.789062 40.683594 5.6875 40.636719 5.566406 40.578125 C 5.480469 40.546875 5.449219 40.503906 5.40625 40.414062 C 5.273438 40.128906 5.273438 39.800781 5.257812 39.488281 C 5.242188 39.261719 5.183594 38.980469 5.304688 38.785156 L 5.347656 38.800781 C 5.4375 38.695312 5.671875 38.621094 5.789062 38.753906 C 5.894531 38.875 5.9375 39.15625 5.953125 39.324219 C 5.980469 39.546875 5.953125 39.800781 5.996094 40.023438 C 6.027344 40.203125 6.070312 40.382812 6.230469 40.503906 C 6.304688 40.546875 6.394531 40.59375 6.496094 40.621094 C 6.601562 40.652344 6.6875 40.683594 6.761719 40.667969 C 7.027344 40.636719 6.96875 40.277344 6.96875 40.085938 C 6.96875 39.800781 6.910156 39.5 6.835938 39.234375 C 6.777344 38.949219 6.761719 38.710938 6.761719 38.425781 C 6.761719 37.992188 6.761719 37.484375 6.46875 37.125 L 6.46875 37.097656 C 6.304688 37.066406 6.070312 36.949219 5.847656 36.917969 C 5.421875 36.859375 4.890625 36.917969 4.417969 37.007812 C 4.269531 37.035156 4.0625 37.097656 3.871094 37.125 L 3.871094 37.171875 C 3.871094 37.785156 3.769531 38.425781 3.605469 39.007812 C 3.519531 39.292969 3.519531 39.410156 3.679688 39.667969 C 3.917969 39.996094 4.210938 40.203125 4.375 40.59375 C 4.433594 40.757812 4.507812 40.890625 4.566406 41.054688 C 4.652344 41.265625 4.699219 41.292969 4.917969 41.324219 C 5.289062 41.355469 5.597656 41.546875 5.9375 41.699219 C 6.15625 41.816406 6.777344 42.054688 6.628906 41.609375 C 6.761719 41.652344 6.984375 41.578125 7.058594 41.535156 C 7.339844 41.398438 7.074219 41.101562 6.910156 40.949219 Z M 21.066406 4.84375 L 21.039062 4.84375 C 21.023438 4.832031 21.007812 4.816406 20.980469 4.800781 L 20.980469 4.324219 L 20.964844 4.324219 C 20.683594 4.1875 20.667969 3.964844 20.667969 3.664062 C 20.667969 3.367188 20.65625 3.097656 20.476562 2.859375 C 20.285156 2.621094 19.960938 2.5 19.667969 2.441406 C 19.503906 2.410156 19.355469 2.394531 19.195312 2.367188 C 18.972656 2.351562 18.765625 2.261719 18.546875 2.230469 C 18.28125 2.1875 18.015625 2.214844 17.765625 2.214844 C 17.527344 2.214844 17.308594 2.289062 17.070312 2.277344 C 16.863281 2.261719 16.6875 2.320312 16.496094 2.351562 C 16.320312 2.378906 16.066406 2.457031 15.921875 2.542969 C 15.597656 2.769531 15.507812 3.097656 15.449219 3.472656 C 15.40625 3.753906 15.507812 4.15625 15.226562 4.324219 C 15.226562 4.488281 15.214844 4.652344 15.214844 4.816406 C 15.214844 4.816406 15.214844 4.800781 15.214844 4.800781 C 15.109375 4.636719 14.769531 4.667969 14.683594 4.816406 C 14.503906 5.070312 14.578125 5.398438 14.636719 5.667969 C 14.710938 5.949219 14.695312 6.203125 14.753906 6.457031 C 14.800781 6.683594 14.992188 7.011719 15.257812 7.042969 L 15.285156 7.042969 C 15.316406 7.296875 15.359375 7.535156 15.449219 7.773438 C 15.582031 8.175781 15.789062 8.550781 16.066406 8.863281 C 16.066406 8.863281 16.066406 8.863281 16.066406 8.878906 C 16.082031 8.921875 16.082031 8.96875 16.097656 9 C 16.140625 9.148438 16.171875 9.207031 16.1875 9.417969 L 16.1875 9.714844 C 16.1875 9.863281 16.171875 10.027344 16.1875 10.191406 C 16.539062 10.476562 16.894531 11.132812 17.25 11.417969 C 17.601562 11.6875 17.882812 12 18.117188 12.375 C 18.132812 12.402344 18.148438 12.417969 18.164062 12.449219 C 18.308594 12.238281 18.472656 12.046875 18.648438 11.867188 C 18.824219 11.6875 19.019531 11.523438 19.210938 11.359375 C 19.460938 11.089844 19.933594 10.582031 19.960938 10.191406 C 19.960938 10.089844 19.945312 10 19.945312 9.894531 C 19.945312 9.820312 19.945312 9.746094 19.960938 9.65625 C 19.976562 9.417969 20.125 9.132812 20.078125 8.910156 L 20.066406 8.894531 C 20.066406 8.894531 20.050781 8.910156 20.050781 8.910156 C 20.050781 8.910156 20.050781 8.910156 20.050781 8.894531 C 20.375 8.609375 20.65625 8.265625 20.742188 7.863281 C 20.800781 7.59375 20.832031 7.324219 20.859375 7.042969 C 20.859375 7.042969 20.859375 7.042969 20.859375 7.027344 C 20.859375 7.027344 20.875 7.027344 20.875 7.027344 C 20.875 7.027344 20.875 7.042969 20.875 7.042969 L 21.039062 7.054688 C 21.304688 7.027344 21.496094 6.699219 21.539062 6.472656 C 21.613281 6.203125 21.597656 5.949219 21.65625 5.683594 C 21.730469 5.414062 21.789062 5.085938 21.613281 4.832031 C 21.523438 4.679688 21.171875 4.652344 21.066406 4.84375 Z M 21.066406 4.84375 " fill-opacity="1" fill-rule="nonzero"/><path fill="#ffffff" d="M 21.671875 32.570312 C 21.644531 32.660156 21.570312 32.75 21.449219 32.824219 C 21.199219 33.046875 20.847656 33.183594 20.566406 33.300781 C 20.019531 33.554688 19.460938 33.78125 18.914062 34.078125 C 18.691406 34.167969 18.472656 34.304688 18.25 34.40625 C 18.058594 34.496094 18 34.601562 17.839844 34.46875 C 17.675781 34.273438 17.585938 33.796875 17.453125 33.570312 C 17.21875 32.972656 17.011719 32.359375 16.789062 31.765625 L 16.777344 31.765625 C 16.363281 31.851562 16.140625 32.570312 15.949219 32.882812 C 15.816406 33.109375 15.625 33.300781 15.507812 33.527344 C 15.417969 33.71875 15.375 33.808594 15.226562 33.945312 C 15.066406 34.109375 14.652344 34.558594 14.460938 34.496094 C 14.296875 34.4375 13.886719 33.988281 13.738281 33.71875 C 13.871094 33.226562 14.003906 32.734375 14.09375 32.242188 C 14.328125 31.089844 14.238281 29.882812 14.429688 28.671875 C 14.476562 28.359375 14.550781 28.042969 14.625 27.730469 C 14.785156 27.089844 14.949219 26.460938 14.949219 25.773438 C 14.949219 24.953125 14.949219 24.191406 14.902344 23.367188 C 14.859375 22.398438 14.5625 21.488281 14.5625 20.53125 C 14.519531 19.378906 14.5625 18.214844 14.5625 17.019531 C 14.5625 16.109375 14.753906 15.242188 14.902344 14.375 C 15.050781 13.554688 15.050781 12.539062 15.375 11.820312 L 15.449219 11.820312 C 15.449219 11.820312 15.449219 11.804688 15.449219 11.804688 C 15.433594 11.566406 15.433594 11.34375 15.433594 11.164062 C 15.433594 10.777344 15.523438 10.433594 15.714844 10.101562 C 15.742188 10.015625 15.996094 9.59375 16.066406 9.714844 L 16.140625 9.714844 C 16.140625 9.863281 16.128906 10.027344 16.140625 10.191406 C 16.496094 10.476562 16.851562 11.132812 17.203125 11.417969 C 17.574219 11.6875 17.851562 11.972656 18.089844 12.34375 C 18.132812 12.34375 18.175781 12.359375 18.207031 12.359375 C 18.339844 12.179688 18.488281 12 18.648438 11.835938 C 18.824219 11.65625 19.019531 11.492188 19.210938 11.328125 C 19.460938 11.089844 19.933594 10.566406 19.960938 10.179688 C 19.960938 10.074219 19.945312 9.984375 19.945312 9.878906 C 20.269531 9.953125 20.402344 10.253906 20.433594 10.582031 C 20.492188 11.089844 20.34375 11.71875 20.34375 11.941406 C 20.34375 11.957031 20.34375 11.957031 20.34375 11.972656 C 20.34375 11.984375 20.34375 12 20.34375 12.015625 L 20.359375 12.015625 C 21.082031 13.808594 20.90625 15.972656 20.609375 17.828125 C 20.476562 18.632812 20.332031 19.46875 20.257812 20.261719 C 20.199219 20.902344 20.257812 21.679688 20.285156 22.324219 C 20.316406 23.023438 20.34375 23.742188 20.316406 24.445312 C 20.285156 24.726562 20.285156 25.054688 20.285156 25.339844 L 20.285156 25.398438 C 20.300781 25.699219 20.390625 25.9375 20.449219 26.238281 C 20.535156 26.820312 20.582031 27.433594 20.757812 28 C 20.890625 28.386719 20.949219 28.613281 20.921875 29.03125 C 20.890625 29.449219 20.921875 29.761719 21.113281 30.121094 C 21.421875 30.703125 21.496094 31.433594 21.613281 32.046875 C 21.714844 32.257812 21.730469 32.421875 21.671875 32.570312 Z M 21.671875 32.570312 " fill-opacity="1" fill-rule="nonzero"/><path fill="#231f20" d="M 18.074219 12.613281 C 17.984375 12.597656 17.898438 12.597656 17.792969 12.613281 C 17.574219 12.628906 17.351562 12.734375 17.128906 12.835938 C 17.320312 13.179688 17.25 13.585938 17.292969 13.972656 C 17.320312 14.121094 17.367188 14.242188 17.453125 14.316406 C 17.410156 14.359375 17.367188 14.421875 17.335938 14.464844 C 17.144531 14.898438 17.070312 15.4375 16.9375 15.871094 C 16.820312 16.347656 16.671875 16.78125 16.539062 17.273438 L 16.527344 17.273438 C 16.820312 18.363281 16.921875 19.679688 17.441406 20.605469 C 17.898438 19.976562 18.355469 19.023438 18.722656 18.140625 L 18.707031 18.140625 C 18.707031 17.152344 18.546875 16.167969 18.488281 15.183594 C 18.457031 14.898438 18.414062 14.554688 18.488281 14.269531 C 18.621094 13.882812 18.929688 13.585938 19.03125 13.226562 L 19.046875 13.210938 C 18.988281 13.152344 18.945312 13.089844 18.886719 13.03125 C 18.632812 12.777344 18.382812 12.644531 18.074219 12.613281 Z M 17.46875 14.332031 C 17.46875 14.332031 17.46875 14.316406 17.46875 14.332031 C 17.46875 14.316406 17.46875 14.316406 17.46875 14.332031 C 17.46875 14.316406 17.46875 14.316406 17.46875 14.332031 Z M 20.992188 4.324219 L 20.980469 4.324219 C 20.699219 4.1875 20.683594 3.949219 20.683594 3.664062 C 20.683594 3.382812 20.667969 3.097656 20.492188 2.859375 C 20.300781 2.621094 19.992188 2.5 19.679688 2.441406 C 19.519531 2.410156 19.371094 2.394531 19.210938 2.367188 C 18.988281 2.351562 18.78125 2.277344 18.5625 2.230469 C 18.308594 2.1875 18.042969 2.214844 17.777344 2.214844 C 17.542969 2.214844 17.320312 2.289062 17.085938 2.277344 C 16.878906 2.261719 16.703125 2.320312 16.511719 2.351562 C 16.332031 2.378906 16.082031 2.441406 15.9375 2.542969 C 15.597656 2.769531 15.523438 3.113281 15.464844 3.472656 C 15.417969 3.753906 15.523438 4.15625 15.242188 4.324219 C 15.242188 4.261719 15.242188 4.1875 15.226562 4.128906 C 15.167969 3.335938 15.050781 2.441406 15.507812 1.753906 C 15.832031 1.230469 16.246094 0.855469 16.789062 0.574219 C 17.117188 0.410156 17.484375 0.320312 17.851562 0.289062 C 18.945312 0.246094 20.136719 0.78125 20.683594 1.769531 C 21.066406 2.457031 21.007812 3.484375 20.992188 4.324219 Z M 20.992188 4.324219 " fill-opacity="1" fill-rule="nonzero"/><g clip-path="url(#c02d83a2e3)"><path fill="#000000" d="M 15.773438 4.679688 C 15.714844 4.679688 15.699219 4.621094 15.730469 4.589844 C 16.023438 4.292969 16.347656 4.351562 16.730469 4.367188 C 17.054688 4.382812 17.394531 4.488281 17.574219 4.785156 C 17.71875 5.039062 17.675781 5.605469 17.632812 5.890625 C 17.585938 6.128906 17.542969 6.367188 17.5 6.609375 C 17.394531 7.085938 17.984375 7.117188 18.222656 6.953125 C 18.296875 6.90625 18.382812 7.011719 18.339844 7.070312 C 18.074219 7.472656 17.203125 7.21875 17.320312 6.710938 C 17.425781 6.292969 17.765625 5.1875 17.320312 4.875 C 16.835938 4.53125 16.304688 4.679688 15.773438 4.679688 Z M 16.246094 5.023438 C 16.1875 5.1875 16.347656 5.351562 16.496094 5.382812 C 16.65625 5.414062 16.910156 5.367188 16.96875 5.1875 C 16.96875 5.175781 16.984375 5.144531 16.984375 5.128906 C 17.027344 5.1875 17.054688 5.234375 17.085938 5.292969 C 17.144531 5.367188 17.25 5.261719 17.1875 5.1875 C 17.128906 5.113281 17.070312 4.980469 16.984375 4.921875 C 16.851562 4.84375 16.703125 4.832031 16.554688 4.816406 C 16.246094 4.785156 16.023438 4.921875 15.863281 5.160156 C 15.847656 5.1875 15.875 5.21875 15.90625 5.203125 C 16.023438 5.128906 16.128906 5.054688 16.246094 5.023438 Z M 19.488281 4.832031 C 19.355469 4.816406 19.152344 4.832031 19.03125 4.90625 C 18.898438 4.980469 18.855469 5.085938 18.753906 5.203125 C 18.691406 5.277344 18.796875 5.367188 18.855469 5.308594 C 18.898438 5.261719 18.914062 5.234375 18.945312 5.1875 C 18.945312 5.175781 18.957031 5.175781 18.972656 5.160156 C 18.972656 5.175781 18.972656 5.175781 18.972656 5.1875 C 19.03125 5.367188 19.28125 5.414062 19.445312 5.382812 C 19.59375 5.351562 19.753906 5.1875 19.695312 5.023438 C 19.8125 5.070312 19.917969 5.144531 20.035156 5.21875 C 20.066406 5.21875 20.109375 5.1875 20.09375 5.175781 C 19.933594 4.933594 19.785156 4.859375 19.488281 4.832031 Z M 18.488281 4.800781 C 18.753906 4.769531 18.988281 4.679688 19.269531 4.667969 C 19.578125 4.667969 19.933594 4.679688 20.210938 4.800781 C 20.257812 4.832031 20.300781 4.753906 20.269531 4.726562 C 19.976562 4.472656 19.636719 4.410156 19.269531 4.367188 C 18.972656 4.335938 18.53125 4.367188 18.355469 4.621094 C 18.28125 4.726562 18.398438 4.816406 18.488281 4.800781 Z M 19.03125 7.921875 C 18.738281 7.921875 18.441406 7.953125 18.148438 7.953125 C 17.765625 7.953125 17.378906 7.878906 16.996094 7.878906 C 16.9375 7.90625 16.921875 7.96875 16.96875 7.96875 C 17.574219 8.160156 18.441406 8.296875 19.046875 7.996094 C 19.078125 7.980469 19.0625 7.921875 19.03125 7.921875 Z M 17.707031 21.546875 C 17.484375 21.546875 17.308594 21.726562 17.308594 21.949219 C 17.308594 22.171875 17.484375 22.351562 17.707031 22.351562 C 17.925781 22.351562 18.101562 22.171875 18.101562 21.949219 C 18.101562 21.726562 17.925781 21.546875 17.707031 21.546875 Z M 17.453125 25.207031 C 17.675781 25.207031 17.851562 25.027344 17.851562 24.800781 C 17.851562 24.578125 17.675781 24.398438 17.453125 24.398438 C 17.234375 24.398438 17.054688 24.578125 17.054688 24.800781 C 17.054688 25.027344 17.234375 25.207031 17.453125 25.207031 Z M 17.453125 27.640625 C 17.453125 27.417969 17.277344 27.238281 17.054688 27.238281 C 16.835938 27.238281 16.65625 27.417969 16.65625 27.640625 C 16.65625 27.863281 16.835938 28.042969 17.054688 28.042969 C 17.277344 28.042969 17.453125 27.863281 17.453125 27.640625 Z M 17.96875 30.433594 C 17.808594 30.390625 17.644531 30.433594 17.484375 30.449219 C 17.25 30.480469 17.042969 30.480469 16.820312 30.417969 C 16.804688 30.417969 16.789062 30.449219 16.804688 30.464844 C 16.96875 30.554688 17.144531 30.570312 17.335938 30.554688 C 17.542969 30.539062 17.765625 30.539062 17.96875 30.507812 C 18.015625 30.507812 18 30.433594 17.96875 30.433594 Z M 27.675781 26.953125 C 27.496094 27.253906 27.203125 27.566406 27.113281 27.910156 C 27.027344 28.3125 27.039062 28.6875 27.070312 29.089844 C 27.128906 29.808594 26.980469 30.480469 26.921875 31.195312 C 26.820312 32.4375 26.761719 33.707031 26.097656 34.78125 C 25.859375 35.140625 25.640625 35.511719 25.535156 35.929688 C 25.476562 36.199219 25.449219 36.484375 25.34375 36.738281 C 25.285156 36.886719 25.050781 37.203125 24.871094 37.023438 C 24.859375 37.007812 24.828125 36.976562 24.8125 36.949219 C 24.605469 37.277344 24.328125 37.558594 24.074219 37.859375 C 23.871094 38.113281 23.648438 38.425781 23.367188 38.589844 C 23.160156 39.234375 22.75 39.800781 22.585938 40.472656 C 22.378906 41.355469 22.277344 42.265625 22.234375 43.175781 C 22.1875 44.058594 22.203125 44.953125 22.160156 45.851562 C 22.128906 46.746094 21.96875 47.628906 21.921875 48.523438 C 21.835938 50.152344 21.6875 51.855469 21.1875 53.410156 C 21.171875 53.453125 21.125 53.484375 21.082031 53.484375 C 20.992188 53.484375 20.890625 53.46875 20.773438 53.453125 C 20.773438 53.484375 20.789062 53.511719 20.789062 53.542969 C 20.859375 53.84375 21.007812 54.097656 21.140625 54.378906 C 21.332031 54.796875 21.332031 55.277344 21.289062 55.722656 C 21.230469 56.308594 21.140625 56.875 21.15625 57.472656 C 21.171875 58.085938 21.15625 58.695312 21.125 59.292969 C 21.054688 60.535156 20.949219 61.773438 20.933594 63.027344 C 20.921875 64.285156 20.964844 65.554688 20.980469 66.808594 C 20.992188 67.4375 20.980469 68.0625 20.964844 68.691406 C 20.964844 68.988281 20.964844 69.304688 20.816406 69.570312 C 20.699219 69.796875 20.402344 69.902344 20.167969 69.929688 C 20.316406 71.15625 21.835938 71.769531 22.5 72.621094 C 22.882812 73.097656 23.042969 74.070312 22.335938 74.203125 C 21.789062 74.292969 21.230469 74.292969 20.683594 74.234375 C 20.332031 74.171875 19.992188 74.097656 19.636719 74.007812 C 19.3125 73.917969 18.957031 73.917969 18.679688 73.753906 C 18.664062 73.753906 18.664062 73.753906 18.648438 73.738281 C 18.367188 73.574219 18.207031 73.351562 18.015625 73.097656 C 17.941406 72.992188 17.882812 72.933594 17.808594 72.902344 C 17.660156 72.828125 17.5 72.859375 17.277344 72.828125 C 16.984375 72.796875 16.570312 72.722656 16.289062 72.632812 C 16.261719 72.621094 16.246094 72.621094 16.230469 72.605469 C 15.921875 72.46875 16.007812 72.15625 16.007812 71.84375 C 16.007812 71.273438 16.214844 70.753906 16.273438 70.214844 C 16.023438 70.167969 15.773438 70.09375 15.625 69.902344 C 15.285156 69.453125 15.375 68.675781 15.390625 68.152344 C 15.40625 67.421875 15.40625 66.703125 15.417969 65.988281 C 15.449219 64.492188 15.582031 63.042969 15.832031 61.566406 C 15.964844 60.820312 16.113281 60.042969 16.023438 59.292969 C 15.964844 58.800781 15.640625 58.1875 15.832031 57.679688 C 15.9375 57.414062 16.082031 57.171875 16.199219 56.90625 C 16.378906 56.515625 16.363281 56.113281 16.289062 55.710938 C 16.1875 55.15625 15.890625 54.679688 15.804688 54.109375 C 15.714844 53.453125 15.832031 52.722656 15.875 52.066406 C 15.9375 51.332031 16.007812 50.601562 16.023438 49.867188 C 16.066406 48.285156 15.65625 46.777344 15.433594 45.222656 C 15.273438 44.042969 15.09375 42.878906 15.050781 41.699219 C 14.492188 42.894531 14.078125 44.164062 13.515625 45.359375 C 13.132812 46.207031 12.898438 47.136719 12.574219 48 C 12.394531 48.449219 12.203125 48.898438 12.101562 49.359375 C 12.011719 49.703125 11.9375 50.078125 11.804688 50.40625 C 11.671875 50.75 11.40625 51.46875 11.039062 51.617188 C 11.261719 52.078125 11.261719 52.648438 11.171875 53.171875 C 11.011719 54.125 10.714844 55.066406 10.554688 56.023438 C 10.347656 57.21875 10.082031 58.398438 9.875 59.59375 C 9.683594 60.757812 9.667969 61.953125 9.476562 63.117188 C 9.269531 64.328125 9.210938 65.570312 9.019531 66.792969 C 8.871094 67.75 8.695312 68.71875 8.5625 69.691406 C 8.503906 70.09375 8.355469 71.019531 7.734375 70.8125 C 7.441406 70.722656 7.175781 70.738281 6.878906 70.796875 C 6.835938 70.8125 6.777344 70.8125 6.734375 70.8125 C 6.820312 71.035156 6.925781 71.320312 6.984375 71.542969 C 7.085938 71.917969 6.984375 72.335938 6.925781 72.695312 C 6.894531 72.886719 6.925781 73.140625 6.835938 73.308594 C 6.792969 73.394531 6.71875 73.457031 6.644531 73.484375 C 6.570312 73.53125 6.496094 73.546875 6.410156 73.574219 C 6.363281 73.589844 6.320312 73.605469 6.289062 73.636719 C 6.039062 73.769531 6.097656 73.992188 6.011719 74.21875 C 5.953125 74.441406 5.820312 74.53125 5.628906 74.667969 C 5.257812 74.875 4.859375 74.921875 4.476562 74.90625 C 4.167969 74.90625 3.859375 74.875 3.546875 74.859375 C 2.914062 74.832031 1.957031 74.832031 1.835938 74.023438 C 1.703125 73.128906 2.382812 72.648438 2.882812 72.035156 C 3.328125 71.558594 3.578125 70.84375 3.710938 70.246094 L 3.753906 70.246094 C 3.710938 70.214844 3.664062 70.183594 3.636719 70.15625 C 3.355469 69.886719 3.460938 69.347656 3.519531 69.019531 C 3.636719 68.300781 3.710938 67.554688 3.8125 66.824219 C 3.917969 66.046875 3.976562 65.269531 4.003906 64.492188 C 4.0625 62.953125 4.019531 61.414062 4.136719 59.890625 C 4.195312 59.160156 4.269531 58.441406 4.492188 57.742188 C 4.683594 57.070312 5.039062 56.441406 5.214844 55.769531 C 5.304688 55.394531 5.171875 55.066406 5.214844 54.695312 C 5.242188 54.441406 5.332031 54.199219 5.4375 53.960938 C 5.6875 53.378906 6.054688 52.886719 6.246094 52.257812 C 6.453125 51.585938 6.617188 50.898438 6.851562 50.226562 C 6.984375 49.855469 7.132812 49.449219 6.96875 49.0625 C 6.867188 48.792969 6.703125 48.539062 6.628906 48.269531 C 6.46875 47.65625 6.617188 46.984375 6.703125 46.375 C 6.808594 45.65625 6.925781 44.925781 7.058594 44.207031 C 7.324219 42.667969 7.601562 41.113281 7.675781 39.546875 C 7.617188 39.457031 7.574219 39.367188 7.542969 39.261719 C 7.410156 38.769531 7.441406 38.21875 7.441406 37.710938 C 7.441406 36.261719 7.707031 34.902344 8.0625 33.511719 C 8.429688 32.046875 8.796875 30.582031 9.09375 29.105469 C 9.34375 27.863281 9.433594 26.582031 9.445312 25.308594 C 9.445312 25.308594 9.445312 25.324219 9.445312 25.324219 C 9.359375 25.519531 9.226562 25.652344 9.046875 25.757812 C 9.375 26.085938 9.253906 26.625 9.0625 27.027344 C 8.871094 27.433594 8.5625 27.851562 8.472656 28.28125 C 8.386719 28.730469 8.472656 29.179688 8.429688 29.640625 C 8.355469 30.480469 7.929688 31.242188 7.796875 32.0625 C 7.632812 33.046875 7.382812 33.988281 7.132812 34.960938 C 7 35.484375 6.820312 36.007812 6.851562 36.542969 C 6.851562 36.769531 6.894531 36.976562 6.75 37.15625 C 6.734375 37.171875 6.71875 37.1875 6.703125 37.203125 C 7 37.53125 6.835938 38.203125 6.851562 38.589844 C 6.878906 39.234375 7.21875 39.949219 7.058594 40.59375 C 7.027344 40.710938 6.941406 40.769531 6.835938 40.785156 C 7 40.890625 7.144531 41.023438 7.234375 41.203125 C 7.410156 41.535156 6.984375 41.742188 6.71875 41.710938 C 6.675781 42.011719 6.335938 41.964844 5.964844 41.773438 C 5.6875 41.636719 5.375 41.445312 5.066406 41.398438 C 4.917969 41.382812 4.742188 41.382812 4.625 41.265625 C 4.507812 41.160156 4.449219 40.90625 4.386719 40.757812 C 4.253906 40.414062 4.0625 40.203125 3.828125 39.933594 C 3.5625 39.621094 3.386719 39.382812 3.503906 38.964844 C 3.664062 38.394531 3.738281 37.828125 3.828125 37.230469 C 3.652344 37.246094 3.488281 37.230469 3.3125 37.15625 C 3.269531 37.140625 3.253906 37.097656 3.253906 37.050781 C 3.238281 36.664062 3.445312 36.378906 3.503906 36.007812 C 3.578125 35.558594 3.5625 35.109375 3.546875 34.648438 C 3.488281 33.210938 3.84375 31.808594 4.167969 30.417969 C 4.328125 29.671875 4.507812 28.910156 4.625 28.148438 C 4.726562 27.433594 5.15625 26.714844 5.15625 25.984375 C 5.15625 25.308594 5.097656 24.667969 5.242188 23.996094 C 5.390625 23.308594 5.566406 22.667969 5.613281 21.964844 C 5.65625 21.230469 5.65625 20.5 5.773438 19.785156 C 5.878906 19.050781 6.144531 18.363281 6.363281 17.675781 C 6.808594 16.332031 7.207031 14.972656 7.5 13.585938 C 7.589844 13.195312 7.691406 12.6875 8.074219 12.492188 C 8.324219 12.375 8.53125 12.402344 8.738281 12.164062 C 8.84375 12.046875 9.195312 11.957031 9.34375 11.894531 C 10.566406 11.433594 11.925781 11.402344 13.148438 10.941406 C 13.839844 10.671875 14.34375 10.101562 14.886719 9.625 C 15.226562 9.339844 15.699219 9.296875 16.023438 8.984375 C 15.996094 8.9375 15.949219 8.894531 15.921875 8.863281 C 15.609375 8.488281 15.34375 7.96875 15.257812 7.472656 C 15.242188 7.355469 15.226562 7.25 15.214844 7.128906 C 14.949219 7.070312 14.769531 6.847656 14.695312 6.59375 C 14.59375 6.203125 14.503906 5.742188 14.503906 5.339844 C 14.492188 5.113281 14.519531 4.753906 14.785156 4.695312 C 14.917969 4.664062 15.035156 4.664062 15.140625 4.726562 C 15.140625 4.589844 15.140625 4.457031 15.140625 4.324219 C 15.140625 4.007812 15.09375 3.710938 15.082031 3.394531 C 15.066406 2.886719 15.082031 2.320312 15.34375 1.871094 C 15.90625 0.929688 16.746094 0.332031 17.839844 0.289062 C 18.78125 0.078125 19.84375 0.511719 20.433594 1.273438 C 21.113281 2.082031 21.097656 3.066406 21.082031 4.082031 C 21.082031 4.308594 21.097656 4.53125 21.097656 4.753906 C 21.421875 4.410156 21.820312 4.933594 21.777344 5.324219 C 21.714844 5.769531 21.703125 6.265625 21.539062 6.683594 C 21.449219 6.90625 21.273438 7.085938 21.054688 7.128906 C 21.007812 7.144531 20.980469 7.101562 20.980469 7.070312 C 20.964844 7.414062 20.921875 7.742188 20.800781 8.042969 C 20.667969 8.386719 20.417969 8.714844 20.125 9 C 20.136719 9.175781 20.066406 9.355469 20.035156 9.535156 C 20.019531 9.640625 20.019531 9.746094 20.019531 9.835938 C 20.449219 9.894531 20.566406 10.3125 20.582031 10.730469 C 20.90625 11.015625 21.230469 11.285156 21.570312 11.550781 C 21.921875 11.746094 22.320312 11.867188 22.675781 12 C 23.101562 12.164062 23.574219 12.269531 24.003906 12.449219 C 24.652344 12.703125 25.269531 13.03125 25.917969 13.300781 C 26.304688 13.464844 26.507812 13.71875 26.582031 14.167969 C 26.699219 14.867188 26.65625 15.585938 26.730469 16.289062 C 26.804688 17.019531 26.90625 17.765625 26.9375 18.5 C 27.011719 20.097656 27.171875 21.726562 27.410156 23.308594 C 27.46875 23.683594 27.496094 24.054688 27.511719 24.429688 C 27.527344 24.789062 27.46875 25.222656 27.570312 25.578125 C 27.71875 26.058594 27.953125 26.476562 27.675781 26.953125 Z M 20.980469 7.042969 C 20.980469 7.027344 20.992188 6.996094 21.023438 6.996094 C 21.523438 6.863281 21.523438 6.292969 21.570312 5.859375 C 21.582031 5.683594 21.65625 5.503906 21.65625 5.324219 C 21.671875 5.039062 21.347656 4.636719 21.097656 4.859375 C 21.097656 4.933594 21.097656 4.996094 21.113281 5.070312 C 21.125 5.441406 21.039062 5.800781 21.023438 6.160156 C 21.007812 6.429688 20.992188 6.742188 20.980469 7.042969 Z M 15.214844 6.980469 C 15.183594 6.472656 15.242188 5.980469 15.167969 5.472656 C 15.140625 5.261719 15.140625 5.039062 15.140625 4.832031 C 14.949219 4.710938 14.769531 4.832031 14.625 5.203125 C 14.609375 5.324219 14.625 5.441406 14.652344 5.5625 C 14.667969 5.667969 14.695312 5.757812 14.710938 5.859375 C 14.753906 6.265625 14.753906 6.800781 15.214844 6.980469 Z M 20.507812 11.925781 C 20.507812 11.941406 20.507812 11.941406 20.507812 11.925781 C 21.097656 13.179688 21.125 14.691406 21.023438 16.035156 C 20.890625 17.542969 20.476562 19.035156 20.417969 20.546875 C 20.375 21.726562 20.476562 22.90625 20.476562 24.085938 C 20.476562 23.996094 20.492188 23.90625 20.507812 23.816406 C 20.582031 23.382812 20.699219 22.964844 20.859375 22.5625 C 21.199219 21.710938 21.644531 20.890625 21.90625 20.007812 C 22.234375 18.917969 22.113281 17.765625 22.171875 16.632812 C 22.21875 15.601562 22.425781 14.613281 22.691406 13.628906 C 22.4375 13.496094 22.171875 13.316406 21.90625 13.210938 C 21.714844 13.285156 21.523438 13.253906 21.378906 13.078125 C 21.347656 13.03125 21.363281 12.941406 21.4375 12.941406 C 21.597656 12.957031 21.761719 12.988281 21.9375 13.03125 C 22.128906 12.925781 22.320312 12.703125 22.394531 12.582031 C 22.511719 12.375 21.996094 12.058594 21.847656 11.925781 C 21.789062 11.882812 21.730469 11.820312 21.6875 11.777344 C 21.496094 11.671875 21.316406 11.550781 21.171875 11.359375 C 21.15625 11.34375 21.15625 11.3125 21.171875 11.296875 C 20.980469 11.121094 20.773438 10.925781 20.582031 10.746094 C 20.59375 11.015625 20.550781 11.296875 20.535156 11.476562 C 20.523438 11.628906 20.507812 11.777344 20.507812 11.925781 Z M 22.101562 20.050781 C 22.054688 20.171875 22.011719 20.304688 21.953125 20.425781 C 21.96875 20.410156 21.996094 20.394531 22.027344 20.394531 C 22.320312 20.410156 22.601562 20.367188 22.882812 20.277344 C 23.089844 20.214844 23.398438 20.1875 23.574219 20.050781 C 23.824219 19.871094 23.898438 19.558594 24.003906 19.277344 C 23.441406 19.289062 22.867188 19.394531 22.304688 19.320312 C 22.246094 19.574219 22.1875 19.8125 22.101562 20.050781 Z M 20.433594 12.820312 C 20.359375 13.210938 20.359375 13.71875 20.136719 14.0625 C 20.109375 14.105469 20.050781 14.121094 20.003906 14.09375 C 19.945312 14.046875 19.886719 14.003906 19.8125 13.957031 C 19.609375 14.734375 19.652344 15.570312 19.476562 16.347656 C 19.34375 16.898438 19.152344 17.453125 18.945312 17.976562 C 18.5 19.082031 18 20.484375 17.054688 21.261719 C 17.042969 21.277344 17.011719 21.292969 16.996094 21.292969 C 16.984375 23.085938 16.613281 24.863281 16.511719 26.65625 C 16.464844 27.433594 16.453125 28.195312 16.464844 28.96875 C 16.480469 29.269531 16.511719 29.582031 16.453125 29.882812 C 16.40625 30.121094 16.273438 30.507812 16.40625 30.71875 C 16.480469 30.835938 16.570312 30.957031 16.644531 31.078125 C 17.011719 31.660156 17.175781 32.375 17.410156 33.019531 C 17.511719 33.289062 17.632812 33.554688 17.734375 33.839844 C 17.777344 33.988281 17.824219 34.167969 17.910156 34.289062 C 18 34.421875 18.25 34.242188 18.324219 34.199219 C 18.914062 33.914062 19.503906 33.632812 20.109375 33.390625 C 20.582031 33.210938 21.347656 32.988281 21.570312 32.496094 C 21.554688 32.480469 21.570312 32.449219 21.582031 32.449219 C 21.628906 32.332031 21.628906 32.210938 21.613281 32.0625 C 21.464844 31.34375 21.378906 30.671875 21.054688 30.015625 C 20.800781 29.507812 21.007812 28.96875 20.875 28.449219 C 20.773438 28.058594 20.65625 27.6875 20.59375 27.296875 C 20.550781 26.953125 20.523438 26.582031 20.449219 26.238281 C 20.316406 25.667969 20.226562 25.144531 20.285156 24.5625 C 20.402344 23.175781 20.09375 21.785156 20.199219 20.394531 C 20.300781 18.992188 20.625 17.601562 20.742188 16.199219 C 20.847656 14.929688 20.789062 13.71875 20.476562 12.492188 C 20.464844 12.613281 20.449219 12.71875 20.433594 12.820312 Z M 14.933594 27.027344 C 14.742188 27.863281 14.519531 28.6875 14.460938 29.566406 C 14.417969 30.34375 14.417969 31.136719 14.285156 31.914062 C 14.179688 32.539062 14.046875 33.167969 13.886719 33.808594 C 14.03125 34.050781 14.210938 34.304688 14.445312 34.40625 C 14.769531 34.570312 15.285156 33.644531 15.40625 33.464844 C 15.65625 33.046875 15.890625 32.644531 16.128906 32.226562 C 16.261719 31.988281 16.40625 31.777344 16.644531 31.675781 C 16.464844 31.242188 16.082031 30.808594 16.171875 30.316406 C 16.332031 29.492188 16.230469 28.714844 16.261719 27.894531 C 16.289062 27.191406 16.320312 26.492188 16.40625 25.789062 C 16.585938 24.292969 16.878906 22.816406 16.921875 21.292969 C 16.835938 21.261719 16.777344 21.15625 16.863281 21.066406 C 17.042969 20.917969 17.203125 20.738281 17.335938 20.546875 C 16.761719 19.574219 16.761719 18.304688 16.453125 17.257812 C 16.289062 16.675781 16.113281 16.109375 16.039062 15.496094 C 15.980469 14.914062 15.742188 14.316406 15.789062 13.734375 C 15.730469 13.761719 15.683594 13.792969 15.625 13.839844 C 15.566406 13.882812 15.507812 13.839844 15.507812 13.777344 C 15.476562 13.136719 15.433594 12.480469 15.417969 11.835938 C 15.140625 12.582031 15.125 13.40625 15.019531 14.210938 C 14.917969 15.019531 14.726562 15.824219 14.710938 16.644531 C 14.652344 18.453125 14.609375 20.304688 14.902344 22.082031 C 15.167969 23.667969 15.285156 25.460938 14.933594 27.027344 Z M 16.097656 9.730469 C 16.007812 9.789062 15.890625 10.058594 15.863281 10.117188 C 15.683594 10.445312 15.582031 10.777344 15.582031 11.148438 C 15.582031 11.507812 15.597656 11.867188 15.609375 12.226562 C 15.640625 12.6875 15.671875 13.164062 15.683594 13.628906 C 16.214844 13.285156 16.789062 12.882812 17.378906 12.644531 C 17.617188 12.539062 17.851562 12.492188 18.089844 12.507812 C 18.074219 12.492188 18.058594 12.480469 18.058594 12.464844 C 17.898438 11.894531 17.292969 11.613281 16.9375 11.179688 C 16.6875 10.867188 16.480469 10.535156 16.230469 10.253906 C 16.1875 10.28125 16.097656 10.269531 16.097656 10.191406 C 16.082031 10.042969 16.097656 9.878906 16.097656 9.730469 Z M 19.976562 9.117188 C 19.5625 9.492188 19.078125 9.789062 18.632812 9.9375 C 17.691406 10.269531 16.851562 9.820312 16.1875 9.148438 C 16.214844 9.238281 16.230469 9.328125 16.246094 9.417969 C 16.261719 9.683594 16.246094 9.9375 16.261719 10.191406 C 16.261719 10.222656 16.246094 10.238281 16.230469 10.253906 C 16.597656 10.566406 16.835938 11 17.1875 11.296875 C 17.367188 11.460938 17.574219 11.613281 17.734375 11.792969 C 17.882812 11.941406 18 12.136719 18.148438 12.285156 C 18.429688 11.894531 18.78125 11.613281 19.121094 11.269531 C 19.445312 10.941406 19.652344 10.566406 19.902344 10.191406 C 19.8125 9.835938 19.917969 9.476562 19.976562 9.117188 Z M 18.839844 17.601562 C 19.019531 17.167969 19.210938 16.722656 19.34375 16.257812 C 19.59375 15.480469 19.476562 14.660156 19.742188 13.898438 C 19.503906 13.703125 19.269531 13.464844 19.046875 13.253906 C 18.945312 13.660156 18.589844 13.941406 18.589844 14.40625 C 18.589844 14.777344 18.648438 15.167969 18.679688 15.539062 C 18.738281 16.214844 18.855469 16.914062 18.839844 17.601562 Z M 18.988281 13.210938 C 18.5 12.777344 17.984375 12.480469 17.277344 12.867188 C 17.25 12.882812 17.234375 12.898438 17.203125 12.910156 C 17.320312 13.164062 17.335938 13.40625 17.351562 13.6875 C 17.351562 13.824219 17.367188 13.957031 17.394531 14.09375 C 17.441406 14.105469 17.484375 14.121094 17.527344 14.152344 C 17.765625 14.03125 18.042969 14.046875 18.148438 14.359375 C 18.164062 14.390625 18.148438 14.421875 18.132812 14.4375 C 18 14.585938 17.792969 14.554688 17.617188 14.464844 C 17.585938 14.464844 17.574219 14.464844 17.542969 14.480469 C 17.453125 14.628906 17.410156 14.824219 17.367188 14.988281 C 17.175781 15.78125 16.9375 16.542969 16.613281 17.289062 C 16.613281 17.320312 16.628906 17.332031 16.628906 17.363281 C 16.894531 18.410156 17.042969 19.425781 17.441406 20.425781 C 17.601562 20.1875 17.75 19.917969 17.882812 19.664062 C 18.164062 19.125 18.414062 18.574219 18.664062 18.019531 C 18.5 17.09375 18.457031 16.125 18.382812 15.183594 C 18.367188 14.855469 18.324219 14.523438 18.457031 14.226562 C 18.605469 13.867188 18.824219 13.570312 18.988281 13.210938 Z M 16.851562 15.691406 C 16.9375 15.285156 16.996094 14.75 17.234375 14.40625 C 17.261719 14.359375 17.308594 14.300781 17.351562 14.269531 C 17.117188 13.925781 17.25 13.34375 17.144531 12.941406 C 16.6875 13.195312 16.246094 13.449219 15.804688 13.71875 C 15.804688 13.71875 15.816406 13.734375 15.816406 13.734375 C 15.804688 14.121094 15.921875 14.449219 16.023438 14.824219 C 16.097656 15.09375 16.128906 15.375 16.171875 15.644531 C 16.261719 16.125 16.394531 16.570312 16.527344 17.035156 C 16.628906 16.585938 16.746094 16.136719 16.851562 15.691406 Z M 19.535156 11.179688 C 19.121094 11.628906 18.621094 11.984375 18.25 12.492188 C 18.234375 12.507812 18.222656 12.523438 18.191406 12.523438 C 18.296875 12.539062 18.398438 12.566406 18.515625 12.613281 C 18.898438 12.746094 19.136719 13.121094 19.414062 13.390625 C 19.546875 13.507812 20.019531 14.0625 20.09375 13.71875 C 20.136719 13.523438 20.167969 13.332031 20.199219 13.121094 C 20.269531 12.671875 20.242188 12.238281 20.300781 11.792969 C 20.375 11.207031 20.582031 10.402344 20.019531 10 C 20.019531 10.058594 20.019531 10.117188 20.019531 10.179688 C 20.109375 10.550781 19.769531 10.925781 19.535156 11.179688 Z M 15.285156 4.234375 C 15.464844 3.964844 15.359375 3.515625 15.433594 3.203125 C 15.507812 2.902344 15.640625 2.695312 15.875 2.5 C 16.363281 2.113281 17.351562 2.140625 17.925781 2.125 C 18.382812 2.113281 18.78125 2.203125 19.222656 2.277344 C 19.546875 2.320312 19.933594 2.351562 20.226562 2.53125 C 20.433594 2.664062 20.640625 2.828125 20.699219 3.082031 C 20.773438 3.382812 20.699219 3.828125 20.875 4.097656 C 20.875 4.082031 20.875 4.070312 20.875 4.054688 C 20.90625 3.097656 20.933594 2.023438 20.199219 1.304688 C 19.5625 0.675781 18.691406 0.453125 17.839844 0.320312 C 16.761719 0.46875 15.492188 1.304688 15.285156 2.46875 C 15.199219 2.976562 15.226562 3.472656 15.273438 3.980469 C 15.285156 4.070312 15.285156 4.144531 15.285156 4.234375 Z M 16.171875 8.820312 C 16.480469 9.148438 16.878906 9.476562 17.277344 9.683594 C 17.851562 10 18.457031 9.878906 19.003906 9.550781 C 19.429688 9.296875 19.859375 8.96875 20.199219 8.59375 C 20.609375 8.132812 20.714844 7.625 20.757812 7.011719 C 20.789062 6.535156 20.789062 6.054688 20.859375 5.578125 C 20.921875 5.175781 20.890625 4.785156 20.875 4.382812 C 20.332031 4.007812 20.847656 3.230469 20.332031 2.828125 C 20.003906 2.574219 19.578125 2.515625 19.179688 2.457031 C 18.753906 2.394531 18.355469 2.304688 17.925781 2.304688 C 17.128906 2.304688 15.832031 2.277344 15.582031 3.230469 C 15.492188 3.574219 15.566406 4.054688 15.285156 4.308594 C 15.300781 4.695312 15.285156 5.070312 15.332031 5.457031 C 15.449219 6.652344 15.285156 7.863281 16.171875 8.820312 Z M 14.121094 10.640625 C 13.886719 10.746094 13.695312 10.894531 13.515625 11.074219 C 13.28125 11.3125 13.074219 11.566406 12.867188 11.820312 C 12.839844 11.851562 12.648438 12.03125 12.648438 12.074219 C 12.632812 12.046875 12.972656 12.164062 12.984375 12.164062 C 13.046875 12.179688 13.105469 12.226562 13.179688 12.285156 C 13.515625 12.105469 13.855469 12.015625 14.121094 12.285156 C 14.34375 12.507812 14.003906 12.71875 13.828125 12.761719 C 13.5625 12.820312 13.339844 12.71875 13.117188 12.566406 C 12.867188 12.703125 12.648438 12.867188 12.410156 13.03125 C 12.203125 13.179688 12.394531 13.597656 12.441406 13.839844 C 12.5 14.167969 12.515625 14.511719 12.574219 14.855469 C 12.675781 15.539062 12.867188 16.214844 12.941406 16.914062 C 12.972656 17.152344 12.972656 17.410156 13.015625 17.648438 C 13.105469 18.171875 13.207031 18.679688 13.3125 19.199219 C 13.621094 20.859375 13.929688 22.515625 14.210938 24.175781 C 14.328125 24.921875 14.460938 25.667969 14.578125 26.414062 C 14.609375 26.59375 14.636719 26.757812 14.667969 26.9375 C 14.683594 26.894531 14.683594 26.847656 14.695312 26.804688 C 14.828125 26.042969 14.785156 25.28125 14.769531 24.503906 C 14.726562 22.980469 14.386719 21.5 14.386719 19.992188 C 14.371094 18.527344 14.3125 17.003906 14.5625 15.554688 C 14.695312 14.855469 14.84375 14.152344 14.933594 13.433594 C 15.007812 12.867188 15.09375 12.3125 15.332031 11.792969 C 15.34375 11.746094 15.390625 11.777344 15.417969 11.804688 C 15.417969 11.65625 15.40625 11.492188 15.40625 11.34375 C 15.390625 10.851562 15.492188 10.371094 15.757812 9.953125 C 15.816406 9.847656 15.964844 9.582031 16.097656 9.671875 C 16.097656 9.582031 16.097656 9.507812 16.097656 9.417969 C 16.082031 9.3125 16.066406 9.207031 16.054688 9.101562 C 15.875 9.238281 15.671875 9.339844 15.464844 9.445312 C 15.152344 9.609375 14.902344 9.789062 14.652344 10.042969 C 14.476562 10.222656 14.296875 10.402344 14.105469 10.566406 C 14.121094 10.582031 14.136719 10.625 14.121094 10.640625 Z M 13.488281 12.480469 C 13.605469 12.492188 13.753906 12.507812 13.855469 12.464844 C 13.886719 12.3125 13.828125 12.269531 13.695312 12.328125 C 13.679688 12.328125 13.648438 12.34375 13.621094 12.34375 C 13.546875 12.375 13.472656 12.402344 13.382812 12.433594 C 13.429688 12.464844 13.457031 12.480469 13.488281 12.480469 Z M 6.277344 40.742188 C 6.46875 40.90625 6.617188 41.128906 6.6875 41.398438 C 6.703125 41.445312 6.703125 41.472656 6.71875 41.503906 C 6.808594 41.503906 6.878906 41.503906 6.96875 41.472656 C 7.21875 41.367188 6.953125 41.113281 6.851562 41.011719 C 6.675781 40.847656 6.496094 40.769531 6.277344 40.742188 Z M 6.617188 37.785156 C 6.554688 37.574219 6.453125 37.394531 6.421875 37.1875 C 6.378906 37.171875 6.351562 37.15625 6.304688 37.15625 C 5.953125 37.023438 5.613281 36.976562 5.230469 37.007812 C 4.800781 37.035156 4.402344 37.140625 3.992188 37.214844 C 3.960938 37.214844 3.945312 37.230469 3.917969 37.230469 C 3.960938 37.664062 3.929688 38.128906 3.828125 38.5625 C 3.785156 38.800781 3.652344 39.097656 3.664062 39.351562 C 3.695312 39.636719 3.929688 39.859375 4.109375 40.070312 C 4.386719 40.398438 4.460938 40.785156 4.683594 41.128906 C 4.816406 41.308594 5.082031 41.28125 5.257812 41.339844 C 5.449219 41.398438 5.640625 41.488281 5.832031 41.5625 C 5.964844 41.609375 6.097656 41.683594 6.246094 41.726562 C 6.304688 41.742188 6.351562 41.757812 6.410156 41.773438 C 6.554688 41.578125 6.527344 41.414062 6.335938 41.292969 C 6.203125 41.128906 6.070312 40.964844 5.863281 40.875 C 5.730469 40.816406 5.566406 40.769531 5.464844 40.667969 C 5.273438 40.488281 5.242188 40.023438 5.230469 39.785156 C 5.199219 39.441406 5.109375 39.070312 5.242188 38.738281 C 5.257812 38.679688 5.332031 38.679688 5.363281 38.726562 C 5.539062 38.5625 5.761719 38.5625 5.90625 38.800781 C 6.15625 39.234375 5.847656 40.203125 6.394531 40.441406 C 7.25 40.816406 6.734375 39.128906 6.71875 38.753906 C 6.703125 38.441406 6.6875 38.097656 6.617188 37.785156 Z M 6.070312 40.472656 C 5.789062 40.203125 6.054688 38.382812 5.375 38.828125 C 5.375 38.828125 5.363281 38.828125 5.363281 38.828125 C 5.273438 39.113281 5.316406 39.472656 5.332031 39.785156 C 5.347656 40.007812 5.375 40.324219 5.613281 40.414062 C 5.714844 40.441406 5.804688 40.472656 5.90625 40.515625 C 5.964844 40.546875 6.011719 40.5625 6.054688 40.59375 C 6.097656 40.578125 6.15625 40.578125 6.203125 40.578125 C 6.15625 40.546875 6.097656 40.503906 6.070312 40.472656 Z M 7.765625 38.859375 C 7.914062 39.578125 8.5625 39.785156 9.195312 39.949219 C 9.566406 40.039062 9.964844 40.160156 10.347656 40.113281 C 10.816406 40.070312 11.039062 39.875 11.320312 39.515625 C 11.496094 39.308594 11.71875 39.128906 11.894531 38.917969 C 12.160156 38.605469 12.292969 38.140625 12.441406 37.753906 C 12.941406 36.425781 13.265625 35.019531 13.636719 33.644531 C 13.636719 33.617188 13.636719 33.601562 13.636719 33.570312 C 13.636719 33.554688 13.648438 33.554688 13.664062 33.542969 C 13.664062 33.511719 13.679688 33.496094 13.679688 33.464844 C 13.902344 32.660156 14.078125 31.851562 14.121094 31.015625 C 14.164062 30.300781 14.179688 29.582031 14.269531 28.867188 C 14.3125 28.417969 14.429688 27.96875 14.535156 27.535156 C 14.328125 25.324219 13.707031 23.128906 13.296875 20.949219 C 13.089844 19.933594 12.882812 18.902344 12.707031 17.871094 C 12.601562 17.347656 12.589844 16.8125 12.484375 16.289062 C 12.277344 15.210938 12.101562 14.136719 12.085938 13.046875 C 12.085938 13.015625 12.101562 12.988281 12.128906 12.972656 C 12.335938 12.867188 12.617188 12.628906 12.925781 12.433594 C 12.808594 12.34375 12.675781 12.269531 12.527344 12.226562 C 12.5 12.210938 12.46875 12.179688 12.46875 12.136719 C 12.515625 11.835938 12.925781 11.523438 13.132812 11.296875 C 13.207031 11.222656 13.28125 11.148438 13.355469 11.074219 C 13.3125 11.089844 13.25 11.121094 13.191406 11.132812 C 12.457031 11.359375 11.6875 11.507812 10.9375 11.71875 C 10.226562 11.882812 9.375 12.03125 8.769531 12.464844 C 8.503906 12.644531 8.089844 12.644531 7.929688 12.957031 C 7.78125 13.269531 7.722656 13.613281 7.664062 13.957031 C 7.542969 14.71875 7.367188 15.480469 7.160156 16.242188 C 6.941406 17.066406 6.6875 17.871094 6.4375 18.679688 C 6.171875 19.558594 6.027344 20.394531 5.953125 21.308594 C 5.90625 21.996094 5.832031 22.652344 5.671875 23.324219 C 5.507812 23.996094 5.332031 24.652344 5.375 25.355469 C 5.390625 25.699219 5.449219 26.074219 5.363281 26.402344 C 5.289062 26.730469 5.171875 27.058594 5.066406 27.386719 C 4.875 28.074219 4.800781 28.777344 4.652344 29.476562 C 4.34375 30.957031 3.929688 32.449219 3.84375 33.972656 C 3.8125 34.660156 4.035156 35.4375 3.8125 36.109375 C 3.769531 36.246094 3.355469 37.066406 3.753906 37.050781 C 4.035156 37.035156 4.316406 36.949219 4.59375 36.902344 C 5.109375 36.8125 5.699219 36.722656 6.21875 36.902344 C 6.453125 36.992188 6.71875 37.125 6.6875 36.738281 C 6.675781 36.453125 6.675781 36.171875 6.734375 35.886719 C 6.878906 35.15625 7.101562 34.4375 7.292969 33.71875 C 7.457031 33.0625 7.5 32.375 7.675781 31.71875 C 7.839844 31.03125 8.164062 30.359375 8.222656 29.65625 C 8.265625 29.074219 8.132812 28.507812 8.355469 27.941406 C 8.53125 27.460938 9.285156 26.59375 8.945312 26.074219 C 8.902344 25.996094 8.84375 25.953125 8.769531 25.90625 C 8.386719 26.101562 7.632812 26.414062 7.382812 25.90625 C 7.351562 25.832031 7.382812 25.742188 7.457031 25.730469 C 7.839844 25.640625 8.445312 25.414062 8.855469 25.609375 C 8.945312 25.550781 9.003906 25.488281 9.035156 25.460938 C 9.269531 25.191406 9.359375 24.726562 9.460938 24.371094 C 9.460938 24.355469 9.460938 24.324219 9.460938 24.308594 C 9.445312 24.265625 9.433594 24.21875 9.460938 24.160156 C 9.445312 22.695312 9.300781 21.230469 8.960938 19.796875 C 8.929688 19.679688 9.109375 19.632812 9.136719 19.753906 C 9.503906 21.113281 9.636719 22.53125 9.667969 23.9375 C 9.667969 23.980469 9.667969 24.039062 9.667969 24.085938 C 9.683594 24.101562 9.699219 24.101562 9.710938 24.117188 C 9.859375 24.117188 9.902344 24.339844 9.757812 24.445312 C 9.726562 24.519531 9.710938 24.609375 9.683594 24.683594 C 9.699219 25.820312 9.667969 26.984375 9.503906 28.117188 C 9.3125 29.417969 9.019531 30.703125 8.664062 31.988281 C 8.664062 31.988281 8.664062 31.988281 8.679688 31.988281 C 9.019531 32.464844 9.890625 32.390625 10.40625 32.375 C 10.480469 32.375 10.539062 32.4375 10.539062 32.511719 C 10.566406 33.0625 10.566406 33.585938 10.390625 34.109375 C 10.359375 34.183594 10.300781 34.242188 10.214844 34.242188 C 9.710938 34.257812 8.546875 34.332031 8.28125 33.75 C 8.222656 33.617188 8.355469 33.453125 8.488281 33.542969 C 8.976562 33.855469 9.519531 33.855469 10.082031 33.871094 C 10.214844 33.480469 10.242188 33.0625 10.257812 32.644531 C 9.769531 32.644531 8.902344 32.644531 8.605469 32.226562 C 8.589844 32.257812 8.589844 32.300781 8.578125 32.332031 C 8.191406 33.75 7.75 35.183594 7.675781 36.648438 C 7.648438 37.378906 7.617188 38.15625 7.765625 38.859375 Z M 7.691406 25.9375 C 7.855469 26.074219 8.191406 25.984375 8.488281 25.832031 C 8.222656 25.804688 7.929688 25.878906 7.691406 25.9375 Z M 22.484375 34.453125 C 22.453125 34.378906 22.484375 34.304688 22.542969 34.273438 C 22.527344 34.242188 22.511719 34.214844 22.527344 34.183594 C 22.425781 33.886719 22.234375 33.617188 22.070312 33.347656 C 21.9375 33.136719 21.835938 32.914062 21.703125 32.703125 C 21.582031 32.898438 21.390625 33.035156 21.15625 33.136719 C 20.582031 33.421875 20.003906 33.675781 19.445312 33.960938 C 19.121094 34.125 18.796875 34.304688 18.472656 34.453125 C 18.296875 34.527344 18.148438 34.632812 17.957031 34.648438 C 17.617188 34.660156 17.5 34.003906 17.425781 33.796875 C 17.175781 33.167969 16.953125 32.539062 16.730469 31.929688 C 16.464844 32.078125 16.320312 32.421875 16.1875 32.675781 C 16.039062 32.957031 15.847656 33.183594 15.671875 33.453125 C 15.417969 33.839844 15.183594 34.152344 14.785156 34.421875 C 14.492188 34.617188 14.328125 34.542969 14.09375 34.289062 C 14.03125 34.230469 13.929688 34.125 13.828125 34.019531 C 13.636719 34.78125 13.414062 35.542969 13.191406 36.273438 C 12.984375 36.960938 12.75 37.648438 12.457031 38.308594 C 12.351562 38.546875 12.261719 38.84375 12.058594 39.039062 C 11.820312 39.261719 11.601562 39.472656 11.40625 39.742188 C 10.757812 40.652344 9.433594 40.429688 8.503906 40.085938 C 8.207031 39.980469 7.914062 39.84375 7.722656 39.605469 C 7.75 41.503906 7.339844 43.355469 7.074219 45.222656 C 7 45.746094 6.96875 46.285156 6.910156 46.804688 C 6.851562 47.253906 6.75 47.777344 6.894531 48.226562 C 7 48.523438 7.21875 48.851562 7.25 49.179688 C 7.292969 49.523438 7.21875 49.839844 7.101562 50.167969 C 6.792969 50.988281 6.617188 51.839844 6.335938 52.675781 C 6.085938 53.453125 5.316406 54.261719 5.480469 55.113281 C 5.640625 55.902344 5.15625 56.636719 4.90625 57.367188 C 4.59375 58.277344 4.449219 59.175781 4.386719 60.132812 C 4.285156 61.667969 4.328125 63.195312 4.253906 64.730469 C 4.226562 65.480469 4.167969 66.226562 4.0625 66.957031 C 3.960938 67.644531 3.902344 68.347656 3.785156 69.035156 C 3.726562 69.4375 3.578125 70.066406 4.09375 70.199219 C 4.316406 70.257812 4.519531 70.246094 4.726562 70.289062 C 5.066406 70.363281 5.4375 70.46875 5.804688 70.558594 C 5.746094 70.257812 5.894531 69.945312 5.953125 69.648438 C 6.085938 69.09375 5.980469 68.511719 6.15625 67.972656 C 6.277344 67.644531 6.511719 67.300781 6.527344 66.957031 C 6.542969 66.675781 6.511719 66.375 6.542969 66.089844 C 6.585938 65.449219 6.628906 64.792969 6.703125 64.148438 C 6.851562 62.835938 7.144531 61.566406 7.441406 60.265625 C 7.722656 58.996094 7.855469 57.679688 8.207031 56.410156 C 8.386719 55.800781 8.503906 55.15625 8.679688 54.542969 C 8.855469 53.960938 9.109375 53.304688 9.078125 52.675781 C 9.0625 52.109375 9.003906 51.601562 9.078125 51.035156 C 9.167969 50.421875 9.285156 49.824219 9.386719 49.210938 C 9.609375 47.777344 9.890625 46.34375 10.035156 44.894531 C 10.15625 43.832031 10.242188 42.726562 10.714844 41.757812 C 10.730469 41.726562 10.789062 41.757812 10.730469 41.773438 C 10.289062 42.921875 10.214844 44.132812 10.09375 45.359375 C 9.976562 46.65625 9.742188 47.957031 9.550781 49.257812 C 9.445312 49.914062 9.300781 50.570312 9.242188 51.226562 C 9.179688 51.8125 9.300781 52.394531 9.253906 52.976562 C 9.210938 53.527344 8.988281 54.050781 8.855469 54.589844 C 8.78125 54.886719 8.710938 55.1875 8.722656 55.5 C 8.738281 55.738281 8.722656 55.949219 8.664062 56.171875 C 8.339844 57.441406 8.148438 58.742188 7.796875 59.996094 C 7.425781 61.296875 7.074219 62.625 6.925781 63.96875 C 6.851562 64.628906 6.792969 65.269531 6.75 65.925781 C 6.71875 66.433594 6.867188 67.046875 6.660156 67.527344 C 6.394531 68.152344 6.363281 68.78125 6.289062 69.453125 C 6.261719 69.75 5.964844 70.257812 6.097656 70.542969 C 6.113281 70.558594 6.113281 70.589844 6.113281 70.601562 C 6.394531 70.648438 6.660156 70.648438 6.925781 70.589844 C 7.175781 70.527344 7.398438 70.5 7.664062 70.558594 C 8.074219 70.648438 8.132812 70.304688 8.191406 69.992188 C 8.28125 69.496094 8.355469 69.003906 8.429688 68.511719 C 8.652344 66.957031 8.84375 65.40625 9.046875 63.851562 C 9.152344 63.042969 9.269531 62.253906 9.34375 61.445312 C 9.402344 60.742188 9.460938 60.042969 9.609375 59.355469 C 9.933594 57.859375 10.125 56.351562 10.464844 54.871094 C 10.671875 53.976562 11.289062 52.542969 10.789062 51.644531 C 10.582031 51.617188 10.433594 51.4375 10.433594 51.199219 C 10.449219 51.078125 10.566406 51.050781 10.640625 51.109375 C 10.699219 51.152344 10.746094 51.199219 10.789062 51.257812 C 10.980469 51.332031 11.113281 51.289062 11.203125 51.125 C 11.214844 51.09375 11.246094 51.050781 11.261719 51.019531 C 11.320312 50.929688 11.378906 50.839844 11.421875 50.75 C 11.585938 50.421875 11.703125 50.09375 11.792969 49.75 C 11.953125 49.0625 12.191406 48.417969 12.425781 47.761719 C 12.660156 47.089844 12.839844 46.402344 13.074219 45.730469 C 13.296875 45.117188 13.574219 44.519531 13.8125 43.921875 C 14.195312 42.96875 14.5625 41.996094 15.035156 41.085938 C 15.035156 41.070312 15.035156 41.054688 15.035156 41.054688 C 15.035156 41.023438 15.050781 41.011719 15.082031 41.011719 C 15.183594 40.816406 15.285156 40.636719 15.390625 40.457031 C 16.066406 39.324219 16.996094 38.066406 16.730469 36.648438 C 16.71875 36.574219 16.851562 36.527344 16.863281 36.617188 C 17.234375 38.140625 16.230469 39.488281 15.539062 40.742188 C 15.390625 41.011719 15.257812 41.28125 15.125 41.546875 C 15.167969 42.488281 15.300781 43.429688 15.433594 44.355469 C 15.640625 45.777344 16.007812 47.179688 16.140625 48.613281 C 16.273438 50.136719 16.082031 51.660156 16.039062 53.171875 C 16.023438 53.917969 16.128906 54.46875 16.421875 55.15625 C 16.597656 55.546875 16.703125 56.203125 16.597656 56.621094 C 16.527344 56.917969 16.394531 57.160156 16.261719 57.414062 C 16.054688 57.800781 16.066406 58.070312 16.15625 58.488281 C 16.289062 59.070312 16.273438 59.683594 16.214844 60.28125 C 16.140625 61.011719 15.996094 61.746094 15.9375 62.492188 C 15.875 63.222656 15.832031 63.957031 15.804688 64.6875 C 15.773438 65.492188 15.757812 66.285156 15.757812 67.09375 C 15.757812 67.808594 15.640625 68.570312 15.773438 69.289062 C 15.863281 69.75 16.082031 69.78125 16.480469 69.902344 C 16.761719 69.992188 17.011719 70.125 17.292969 70.214844 C 17.351562 70.230469 17.425781 70.246094 17.5 70.257812 C 17.71875 69.707031 17.542969 68.929688 17.601562 68.347656 C 17.660156 67.792969 17.734375 67.226562 17.824219 66.675781 C 18.03125 65.417969 18.234375 64.164062 18.398438 62.894531 C 18.5625 61.59375 18.691406 60.386719 18.546875 59.085938 C 18.488281 58.503906 18.679688 58.054688 18.707031 57.488281 C 18.753906 56.917969 18.707031 56.351562 18.765625 55.785156 C 18.839844 55.128906 19.019531 54.484375 19.046875 53.828125 C 19.089844 53.199219 19.121094 52.585938 19.089844 51.960938 C 19.03125 50.734375 18.957031 49.496094 19.0625 48.253906 C 19.179688 47.046875 19.28125 45.835938 19.460938 44.625 C 19.546875 44 19.621094 43.371094 19.636719 42.742188 C 19.652344 42.160156 19.769531 41.59375 19.753906 41.011719 C 19.742188 40.949219 19.828125 40.949219 19.8125 41.023438 C 19.859375 41.667969 19.753906 42.296875 19.742188 42.9375 C 19.726562 43.503906 19.652344 44.085938 19.578125 44.65625 C 19.402344 45.910156 19.28125 47.179688 19.195312 48.449219 C 19.105469 49.75 19.28125 51.050781 19.34375 52.347656 C 19.371094 53.019531 19.460938 53.707031 19.371094 54.378906 C 19.296875 54.960938 19.121094 55.546875 19.105469 56.144531 C 19.089844 56.710938 19.222656 57.324219 19.0625 57.875 C 18.886719 58.457031 18.765625 59.011719 18.753906 59.625 C 18.722656 60.90625 18.621094 62.179688 18.488281 63.449219 C 18.355469 64.671875 18.164062 65.882812 17.984375 67.105469 C 17.898438 67.792969 17.777344 68.527344 17.808594 69.230469 C 17.839844 69.570312 17.851562 69.929688 17.75 70.257812 C 17.898438 70.257812 18.042969 70.246094 18.175781 70.230469 C 18.621094 70.140625 19.078125 69.945312 19.460938 69.824219 C 19.828125 69.707031 20.449219 69.914062 20.667969 69.484375 C 20.800781 69.242188 20.773438 68.960938 20.757812 68.691406 C 20.726562 67.945312 20.699219 67.183594 20.683594 66.433594 C 20.640625 64.867188 20.59375 63.28125 20.625 61.714844 C 20.640625 60.90625 20.699219 60.101562 20.742188 59.292969 C 20.789062 58.578125 20.742188 57.84375 20.757812 57.128906 C 20.773438 56.367188 21.125 55.53125 20.964844 54.785156 C 20.890625 54.484375 20.726562 54.230469 20.640625 53.933594 C 20.59375 53.769531 20.582031 53.601562 20.550781 53.4375 C 20.242188 53.378906 19.945312 53.246094 19.976562 52.917969 C 20.003906 52.484375 20.550781 52.347656 20.667969 52.828125 C 20.699219 52.945312 20.714844 53.082031 20.726562 53.214844 C 20.726562 53.214844 20.742188 53.214844 20.742188 53.214844 C 20.847656 53.246094 20.949219 53.273438 21.054688 53.273438 C 21.007812 53.273438 21.125 52.929688 21.125 52.917969 C 21.273438 52.289062 21.347656 51.644531 21.449219 51.003906 C 21.582031 50.183594 21.582031 49.375 21.613281 48.539062 C 21.628906 47.820312 21.714844 47.121094 21.761719 46.402344 C 21.835938 44.925781 21.777344 43.429688 21.953125 41.953125 C 22.027344 41.28125 22.171875 40.59375 22.394531 39.949219 C 22.585938 39.398438 23 38.949219 23.160156 38.382812 C 23.546875 37.035156 23.089844 35.632812 22.484375 34.453125 Z M 20.492188 53.003906 C 20.332031 52.664062 20.242188 52.675781 20.242188 53.050781 C 20.300781 53.082031 20.359375 53.109375 20.433594 53.125 C 20.464844 53.140625 20.492188 53.140625 20.523438 53.15625 C 20.507812 53.09375 20.507812 53.050781 20.492188 53.003906 Z M 24.753906 36.859375 C 24.621094 36.664062 24.503906 36.394531 24.402344 36.214844 C 24.238281 35.917969 24.089844 35.601562 23.839844 35.378906 C 23.515625 35.078125 23.148438 34.839844 22.808594 34.542969 C 23.308594 35.738281 23.75 37.082031 23.425781 38.382812 C 23.914062 37.902344 24.328125 37.378906 24.753906 36.859375 Z M 27.378906 25.996094 C 27.277344 25.773438 27.203125 25.535156 27.203125 25.28125 C 27.1875 24.503906 27.277344 23.726562 27.21875 22.949219 C 27.15625 22.203125 27.070312 21.472656 26.996094 20.722656 C 26.847656 19.246094 26.761719 17.765625 26.628906 16.289062 C 26.597656 15.855469 26.554688 15.4375 26.523438 15.003906 C 26.496094 14.628906 26.523438 14.03125 26.230469 13.75 C 26.023438 13.554688 25.773438 13.523438 25.519531 13.40625 C 25.226562 13.253906 24.917969 13.105469 24.605469 12.957031 C 23.929688 12.628906 23.21875 12.402344 22.527344 12.121094 C 22.367188 12.058594 22.203125 12 22.027344 11.925781 C 22.21875 12.074219 22.394531 12.226562 22.585938 12.390625 C 22.601562 12.402344 22.601562 12.433594 22.601562 12.464844 C 22.542969 12.671875 22.351562 12.925781 22.128906 13.089844 C 22.394531 13.179688 22.660156 13.285156 22.910156 13.390625 C 23 13.417969 23.058594 13.496094 23.027344 13.585938 C 22.75 14.703125 22.542969 15.808594 22.5 16.976562 C 22.484375 17.722656 22.46875 18.46875 22.320312 19.199219 C 22.585938 19.171875 22.835938 19.1875 23.101562 19.15625 C 23.457031 19.125 23.8125 19.066406 24.164062 19.050781 C 24.238281 19.050781 24.28125 19.140625 24.253906 19.214844 C 24.074219 19.53125 24.015625 20.039062 23.679688 20.230469 C 23.21875 20.484375 22.542969 20.648438 22.027344 20.605469 C 21.953125 20.589844 21.921875 20.546875 21.921875 20.484375 C 21.628906 21.1875 21.257812 21.859375 21.007812 22.589844 C 20.832031 23.085938 20.683594 23.609375 20.65625 24.128906 C 20.625 24.578125 20.640625 24.980469 20.507812 25.414062 C 20.507812 25.429688 20.492188 25.445312 20.492188 25.445312 C 20.535156 25.878906 20.609375 26.296875 20.667969 26.746094 C 20.714844 27.164062 20.789062 27.566406 20.921875 27.96875 C 20.992188 28.207031 21.082031 28.449219 21.082031 28.703125 C 21.082031 29.074219 21.007812 29.476562 21.140625 29.835938 C 21.257812 30.121094 21.40625 30.375 21.496094 30.671875 C 21.644531 31.167969 21.789062 31.765625 21.804688 32.285156 C 21.804688 32.40625 21.789062 32.496094 21.761719 32.585938 C 21.953125 32.824219 22.085938 33.09375 22.246094 33.363281 C 22.367188 33.542969 22.484375 33.71875 22.570312 33.914062 C 22.675781 33.4375 23.042969 33.035156 23.324219 32.644531 C 23.574219 32.273438 23.722656 31.929688 23.679688 31.449219 C 23.648438 31.03125 23.546875 30.597656 23.546875 30.164062 C 23.558594 29.195312 23.617188 28.207031 23.664062 27.238281 C 23.707031 26.402344 23.648438 25.535156 23.78125 24.714844 C 23.855469 24.25 23.972656 23.785156 24.136719 23.355469 C 24.148438 23.324219 24.148438 23.292969 24.164062 23.265625 C 24.136719 23.1875 24.121094 23.113281 24.105469 23.039062 C 24.089844 22.964844 24.207031 22.949219 24.207031 23.039062 C 24.207031 23.054688 24.222656 23.085938 24.222656 23.101562 C 24.355469 22.769531 24.503906 22.457031 24.5625 22.097656 C 24.726562 21.15625 24.445312 20.214844 24.519531 19.277344 C 24.636719 17.691406 25.460938 16.453125 26.214844 15.109375 C 26.242188 15.03125 26.347656 15.09375 26.316406 15.136719 C 25.582031 16.675781 24.695312 18.171875 24.796875 19.933594 C 24.8125 20.320312 24.828125 20.679688 24.8125 21.039062 C 24.976562 21.351562 25.136719 21.636719 25.375 21.917969 C 25.566406 22.144531 25.800781 22.367188 25.964844 22.621094 C 25.992188 22.652344 25.949219 22.710938 25.90625 22.679688 C 25.476562 22.425781 25.003906 21.890625 24.785156 21.367188 C 24.753906 21.664062 24.695312 21.964844 24.59375 22.261719 C 24.472656 22.605469 24.371094 22.921875 24.28125 23.234375 C 24.488281 23.652344 24.917969 23.863281 25.285156 24.117188 C 25.300781 24.117188 25.316406 24.117188 25.316406 24.128906 C 25.328125 24.144531 25.34375 24.160156 25.359375 24.175781 C 25.582031 24.339844 25.785156 24.503906 25.90625 24.773438 C 25.976562 24.9375 25.890625 25.070312 25.714844 25.011719 C 25.476562 24.921875 25.34375 24.578125 25.269531 24.324219 C 25.183594 24.265625 25.09375 24.203125 25.019531 24.144531 C 24.726562 23.9375 24.402344 23.726562 24.222656 23.414062 C 24.105469 23.875 24.015625 24.355469 23.988281 24.890625 C 23.957031 25.308594 23.941406 25.742188 23.929688 26.160156 C 24.003906 26.160156 24.074219 26.175781 24.148438 26.175781 C 24.652344 25.847656 25.328125 25.699219 25.832031 25.996094 C 25.875 26.027344 25.875 26.074219 25.859375 26.101562 C 25.566406 26.609375 24.886719 26.445312 24.328125 26.328125 C 24.179688 26.414062 24.046875 26.519531 23.929688 26.667969 C 23.929688 26.683594 23.914062 26.683594 23.898438 26.683594 C 23.882812 27.042969 23.882812 27.402344 23.871094 27.761719 C 23.824219 28.65625 23.722656 29.582031 23.8125 30.464844 C 23.882812 31.121094 24.003906 31.824219 23.648438 32.421875 C 23.324219 32.957031 22.71875 33.527344 22.691406 34.183594 C 23.089844 34.617188 23.648438 34.886719 24.03125 35.332031 C 24.195312 35.527344 24.339844 35.738281 24.472656 35.960938 C 24.546875 36.082031 24.871094 36.738281 24.992188 36.738281 C 25.109375 36.738281 25.253906 35.765625 25.300781 35.664062 C 25.402344 35.394531 25.519531 35.125 25.667969 34.886719 C 26.007812 34.332031 26.289062 33.78125 26.421875 33.136719 C 26.566406 32.421875 26.613281 31.6875 26.714844 30.972656 C 26.773438 30.582031 26.878906 30.164062 26.894531 29.777344 C 26.90625 29.417969 26.863281 29.074219 26.847656 28.714844 C 26.820312 28.117188 26.921875 27.640625 27.21875 27.132812 C 27.46875 26.746094 27.554688 26.414062 27.378906 25.996094 Z M 24.03125 26.28125 C 24.003906 26.28125 23.972656 26.28125 23.941406 26.265625 C 23.941406 26.296875 23.941406 26.328125 23.941406 26.355469 C 23.972656 26.328125 24.003906 26.3125 24.03125 26.28125 Z M 25.582031 26.207031 C 25.890625 26.011719 25.417969 25.984375 25.269531 25.996094 C 25.109375 26.011719 24.945312 26.058594 24.785156 26.117188 C 24.695312 26.148438 24.59375 26.191406 24.503906 26.238281 C 24.886719 26.3125 25.285156 26.386719 25.582031 26.207031 Z M 25.640625 24.714844 C 25.742188 24.832031 25.773438 24.832031 25.714844 24.742188 C 25.667969 24.667969 25.609375 24.59375 25.550781 24.535156 C 25.566406 24.59375 25.59375 24.667969 25.640625 24.714844 Z M 7.265625 24.144531 C 7.207031 24.191406 7.191406 24.25 7.25 24.308594 C 7.542969 24.652344 8.03125 24.636719 8.429688 24.488281 C 8.488281 24.472656 8.488281 24.382812 8.429688 24.371094 C 8.089844 24.28125 7.78125 24.460938 7.484375 24.25 C 8.191406 23.726562 8.914062 23.175781 9.242188 22.324219 C 9.253906 22.261719 9.167969 22.21875 9.121094 22.277344 C 8.679688 23.085938 7.988281 23.609375 7.265625 24.144531 Z M 7.265625 24.144531 " fill-opacity="1" fill-rule="nonzero"/></g></svg>