<svg xmlns="http://www.w3.org/2000/svg" xmlns:xlink="http://www.w3.org/1999/xlink" width="70" zoomAndPan="magnify" viewBox="0 0 52.5 52.499999" height="70" preserveAspectRatio="xMidYMid meet" version="1.0"><defs><clipPath id="fa7bd52745"><path d="M 5.25 4.457031 L 46.5 4.457031 L 46.5 47.207031 L 5.25 47.207031 Z M 5.25 4.457031 " clip-rule="nonzero"/></clipPath></defs><g clip-path="url(#fa7bd52745)"><path fill="#0e6655" d="M 46.339844 39.367188 C 46.226562 39.160156 46.054688 38.972656 45.917969 38.78125 C 45.1875 37.769531 44.457031 36.753906 43.726562 35.742188 C 43.171875 34.96875 42.613281 34.195312 42.054688 33.421875 C 41.757812 33.007812 41.242188 33.015625 40.941406 33.421875 C 39.921875 34.820312 38.898438 36.21875 37.875 37.621094 L 37.875 30.226562 C 38.203125 30.679688 38.535156 31.136719 38.863281 31.589844 C 38.945312 31.699219 39.023438 31.808594 39.101562 31.917969 C 39.308594 32.203125 39.660156 32.332031 39.984375 32.148438 C 40.261719 31.992188 40.417969 31.550781 40.214844 31.269531 C 38.675781 29.148438 37.136719 27.027344 35.597656 24.90625 C 33.136719 21.515625 30.675781 18.121094 28.214844 14.730469 L 26.542969 12.425781 L 26.542969 9.167969 L 28.367188 9.167969 C 29.199219 9.167969 29.199219 7.878906 28.367188 7.878906 L 26.542969 7.878906 L 26.542969 5.285156 C 26.542969 4.457031 25.253906 4.453125 25.253906 5.285156 L 25.253906 7.878906 L 23.429688 7.878906 C 22.597656 7.878906 22.597656 9.167969 23.429688 9.167969 L 25.253906 9.167969 L 25.253906 12.5625 C 24.050781 14.203125 22.851562 15.847656 21.648438 17.488281 C 20.8125 18.628906 19.976562 19.773438 19.144531 20.914062 C 17.191406 23.5625 15.238281 26.210938 13.285156 28.859375 L 11.582031 31.171875 C 11.375 31.457031 11.535156 31.890625 11.8125 32.054688 C 12.136719 32.25 12.488281 32.101562 12.695312 31.824219 C 12.773438 31.714844 12.851562 31.609375 12.933594 31.5 L 13.921875 30.15625 L 13.921875 37.761719 C 13.4375 37.089844 12.953125 36.414062 12.46875 35.742188 C 11.910156 34.96875 11.351562 34.195312 10.796875 33.421875 C 10.496094 33.007812 9.980469 33.015625 9.683594 33.421875 C 8.4375 35.125 7.191406 36.832031 5.945312 38.535156 C 5.765625 38.777344 5.554688 39.019531 5.398438 39.277344 C 5.261719 39.507812 5.292969 39.777344 5.292969 40.035156 L 5.292969 46.546875 C 5.292969 46.898438 5.589844 47.191406 5.9375 47.191406 L 13.457031 47.207031 L 14.523438 47.207031 C 14.609375 47.207031 14.6875 47.191406 14.757812 47.167969 C 17.261719 47.171875 19.761719 47.175781 22.265625 47.179688 C 26.320312 47.1875 30.375 47.195312 34.429688 47.203125 L 37.230469 47.207031 C 37.28125 47.207031 37.332031 47.203125 37.378906 47.191406 C 39.824219 47.195312 42.273438 47.199219 44.71875 47.207031 L 45.78125 47.207031 C 45.984375 47.207031 46.136719 47.128906 46.242188 47.015625 C 46.351562 46.910156 46.425781 46.761719 46.425781 46.5625 L 46.425781 40.289062 C 46.425781 40 46.480469 39.628906 46.339844 39.367188 Z M 6.582031 39.832031 C 7.800781 38.167969 9.015625 36.503906 10.234375 34.839844 L 13.429688 39.273438 C 13.578125 39.480469 13.730469 39.6875 13.878906 39.894531 L 13.878906 45.917969 C 11.585938 45.914062 9.292969 45.910156 7 45.90625 C 6.859375 45.90625 6.722656 45.90625 6.582031 45.90625 Z M 23.996094 31.539062 C 24.484375 31.097656 25.121094 30.835938 25.796875 30.816406 C 26.578125 30.804688 27.277344 31.082031 27.792969 31.554688 C 28.339844 32.054688 28.679688 32.777344 28.683594 33.609375 C 28.6875 34.367188 28.683594 35.125 28.683594 35.882812 L 28.683594 45.558594 C 27.796875 45.566406 26.914062 45.574219 26.027344 45.582031 C 25.253906 45.585938 24.480469 45.589844 23.707031 45.585938 C 23.507812 45.585938 23.3125 45.585938 23.113281 45.582031 L 23.113281 33.765625 C 23.113281 33.300781 23.15625 32.84375 23.355469 32.414062 C 23.511719 32.074219 23.730469 31.78125 23.996094 31.539062 Z M 29.972656 45.90625 L 29.972656 40.167969 C 29.972656 37.972656 29.996094 35.773438 29.972656 33.578125 C 29.964844 32.835938 29.765625 32.148438 29.421875 31.558594 C 28.703125 30.320312 27.351562 29.507812 25.796875 29.53125 C 24.371094 29.574219 23.082031 30.324219 22.371094 31.535156 C 22.28125 31.6875 22.199219 31.851562 22.128906 32.019531 C 21.859375 32.667969 21.824219 33.335938 21.824219 34.023438 L 21.824219 45.109375 C 21.824219 45.367188 21.8125 45.632812 21.816406 45.890625 C 20.332031 45.890625 18.851562 45.886719 17.367188 45.882812 L 15.210938 45.878906 L 15.210938 28.460938 C 16.460938 26.75 17.710938 25.042969 18.960938 23.332031 C 19.394531 22.742188 19.824219 22.15625 20.253906 21.566406 C 21.863281 19.367188 23.46875 17.167969 25.078125 14.972656 C 25.359375 14.589844 25.640625 14.203125 25.921875 13.820312 L 25.941406 13.851562 C 27.027344 15.355469 28.109375 16.859375 29.195312 18.363281 C 31.222656 21.183594 33.253906 24 35.285156 26.816406 C 35.71875 27.417969 36.152344 28.019531 36.585938 28.621094 L 36.585938 39.457031 C 36.535156 39.644531 36.554688 39.84375 36.554688 40.035156 L 36.554688 45.917969 Z M 37.839844 45.90625 L 37.839844 39.832031 C 37.851562 39.820312 37.863281 39.804688 37.875 39.789062 C 39.082031 38.140625 40.289062 36.488281 41.496094 34.839844 L 44.691406 39.273438 L 45.136719 39.894531 L 45.136719 45.917969 C 42.84375 45.914062 40.554688 45.910156 38.261719 45.90625 Z M 37.839844 45.90625 " fill-opacity="1" fill-rule="nonzero"/></g></svg>