<svg xmlns="http://www.w3.org/2000/svg" xmlns:xlink="http://www.w3.org/1999/xlink" width="70" zoomAndPan="magnify" viewBox="0 0 52.5 52.499999" height="70" preserveAspectRatio="xMidYMid meet" version="1.0"><defs><clipPath id="c4d5efcb47"><path d="M 8.714844 3.035156 L 43.214844 3.035156 L 43.214844 45.785156 L 8.714844 45.785156 Z M 8.714844 3.035156 " clip-rule="nonzero"/></clipPath></defs><g clip-path="url(#c4d5efcb47)"><path fill="#0e6655" d="M 36.730469 10.933594 C 36.585938 10.792969 36.585938 10.5625 36.730469 10.421875 C 36.871094 10.28125 37.105469 10.28125 37.246094 10.421875 L 37.980469 11.144531 C 38.121094 11.285156 38.121094 11.515625 37.980469 11.65625 C 37.90625 11.726562 37.8125 11.761719 37.71875 11.761719 C 37.625 11.761719 37.53125 11.726562 37.460938 11.65625 Z M 40.910156 14.035156 C 40.765625 13.894531 40.535156 13.894531 40.390625 14.035156 C 40.25 14.175781 40.25 14.40625 40.390625 14.546875 L 41.125 15.269531 C 41.195312 15.339844 41.289062 15.375 41.382812 15.375 C 41.476562 15.375 41.570312 15.339844 41.640625 15.269531 C 41.785156 15.128906 41.785156 14.898438 41.640625 14.757812 Z M 36.988281 15.375 C 37.082031 15.375 37.175781 15.339844 37.246094 15.269531 L 38.710938 13.824219 C 38.855469 13.683594 38.855469 13.453125 38.710938 13.3125 C 38.570312 13.171875 38.335938 13.171875 38.195312 13.3125 L 36.730469 14.757812 C 36.585938 14.898438 36.585938 15.128906 36.730469 15.269531 C 36.800781 15.339844 36.894531 15.375 36.988281 15.375 Z M 39.917969 12.484375 C 40.011719 12.484375 40.105469 12.449219 40.175781 12.378906 L 41.640625 10.933594 C 41.785156 10.792969 41.785156 10.5625 41.640625 10.421875 C 41.5 10.28125 41.265625 10.28125 41.125 10.421875 L 39.660156 11.867188 C 39.515625 12.007812 39.515625 12.238281 39.660156 12.378906 C 39.730469 12.449219 39.824219 12.484375 39.917969 12.484375 Z M 11.09375 4.429688 C 11.164062 4.5 11.257812 4.535156 11.351562 4.535156 C 11.445312 4.535156 11.539062 4.5 11.609375 4.429688 C 11.753906 4.289062 11.753906 4.058594 11.609375 3.917969 L 10.878906 3.195312 C 10.734375 3.054688 10.503906 3.054688 10.359375 3.195312 C 10.21875 3.335938 10.21875 3.566406 10.359375 3.707031 Z M 14.539062 6.808594 C 14.398438 6.667969 14.164062 6.667969 14.023438 6.808594 C 13.878906 6.949219 13.878906 7.179688 14.023438 7.320312 L 14.753906 8.042969 C 14.824219 8.113281 14.917969 8.148438 15.011719 8.148438 C 15.105469 8.148438 15.199219 8.113281 15.273438 8.042969 C 15.414062 7.902344 15.414062 7.671875 15.273438 7.53125 Z M 10.617188 8.148438 C 10.710938 8.148438 10.804688 8.113281 10.878906 8.042969 L 12.34375 6.597656 C 12.484375 6.457031 12.484375 6.226562 12.34375 6.085938 C 12.199219 5.945312 11.96875 5.945312 11.824219 6.085938 L 10.359375 7.53125 C 10.21875 7.671875 10.21875 7.902344 10.359375 8.042969 C 10.429688 8.113281 10.523438 8.148438 10.617188 8.148438 Z M 13.546875 5.257812 C 13.640625 5.257812 13.734375 5.222656 13.808594 5.152344 L 15.273438 3.707031 C 15.414062 3.566406 15.414062 3.335938 15.273438 3.195312 C 15.128906 3.054688 14.898438 3.054688 14.753906 3.195312 L 13.289062 4.640625 C 13.148438 4.78125 13.148438 5.011719 13.289062 5.152344 C 13.359375 5.222656 13.453125 5.257812 13.546875 5.257812 Z M 42.964844 42.820312 L 34.175781 45.710938 C 34.136719 45.722656 34.097656 45.726562 34.058594 45.726562 C 33.90625 45.726562 33.761719 45.632812 33.710938 45.480469 C 33.648438 45.292969 33.75 45.085938 33.941406 45.023438 L 35.925781 44.371094 L 36.613281 39.621094 L 34.703125 33.976562 C 34.289062 34.078125 33.875 34.148438 33.464844 34.148438 C 32.625 34.148438 31.8125 33.929688 31.082031 33.503906 C 29.941406 32.839844 29.054688 31.703125 28.582031 30.304688 L 24.921875 19.464844 C 24.855469 19.273438 24.960938 19.070312 25.152344 19.007812 L 33.941406 16.117188 C 34.132812 16.050781 34.339844 16.15625 34.40625 16.34375 L 38.066406 27.183594 C 39.03125 30.035156 37.910156 32.738281 35.402344 33.757812 L 37.308594 39.390625 L 40.75 42.785156 L 42.730469 42.132812 C 42.925781 42.070312 43.128906 42.171875 43.195312 42.359375 C 43.257812 42.550781 43.15625 42.753906 42.964844 42.820312 Z M 25.730469 19.578125 L 27.222656 23.992188 C 27.296875 23.816406 27.378906 23.640625 27.488281 23.472656 C 27.957031 22.746094 28.707031 22.171875 29.546875 21.898438 C 29.640625 21.867188 29.738281 21.875 29.828125 21.917969 C 29.914062 21.960938 29.980469 22.035156 30.011719 22.125 C 30.433594 23.378906 32.507812 23.8125 33.941406 23.34375 L 35.792969 22.734375 L 33.824219 16.914062 Z M 34.824219 33.203125 C 34.824219 33.203125 34.828125 33.199219 34.828125 33.199219 C 34.832031 33.199219 34.832031 33.199219 34.835938 33.199219 C 37.214844 32.414062 38.257812 30.035156 37.371094 27.414062 L 36.023438 23.421875 L 34.175781 24.027344 C 33.328125 24.304688 32.285156 24.320312 31.378906 24.066406 C 30.480469 23.816406 29.816406 23.339844 29.46875 22.703125 C 28.914062 22.957031 28.425781 23.367188 28.105469 23.863281 C 27.714844 24.46875 27.609375 25.136719 27.816406 25.742188 L 29.28125 30.078125 C 29.695312 31.308594 30.46875 32.304688 31.453125 32.882812 C 32.476562 33.480469 33.644531 33.589844 34.824219 33.203125 Z M 39.972656 43.039062 L 37.246094 40.351562 L 36.703125 44.117188 Z M 27.082031 12.238281 L 23.417969 23.078125 C 22.945312 24.476562 22.058594 25.609375 20.921875 26.277344 C 20.1875 26.703125 19.375 26.921875 18.539062 26.921875 C 18.128906 26.921875 17.710938 26.851562 17.296875 26.746094 L 15.390625 32.390625 L 16.078125 37.144531 L 18.058594 37.796875 C 18.25 37.859375 18.355469 38.066406 18.292969 38.253906 C 18.238281 38.40625 18.097656 38.5 17.945312 38.5 C 17.90625 38.5 17.867188 38.496094 17.828125 38.484375 L 9.039062 35.59375 C 8.847656 35.527344 8.742188 35.324219 8.804688 35.136719 C 8.871094 34.945312 9.078125 34.84375 9.269531 34.90625 L 11.253906 35.558594 L 14.695312 32.164062 L 16.597656 26.53125 C 14.089844 25.511719 12.96875 22.808594 13.933594 19.957031 L 17.597656 9.117188 C 17.660156 8.929688 17.867188 8.828125 18.058594 8.890625 L 26.851562 11.78125 C 27.039062 11.84375 27.144531 12.046875 27.082031 12.238281 Z M 15.300781 36.890625 L 14.753906 33.125 L 12.03125 35.8125 Z M 24.1875 18.511719 C 24.390625 17.910156 24.289062 17.242188 23.894531 16.636719 C 23.574219 16.136719 23.085938 15.726562 22.535156 15.476562 C 22.1875 16.113281 21.523438 16.589844 20.625 16.839844 C 19.71875 17.09375 18.671875 17.078125 17.828125 16.800781 L 15.980469 16.191406 L 14.628906 20.1875 C 13.746094 22.808594 14.789062 25.1875 17.167969 25.972656 C 17.167969 25.972656 17.171875 25.972656 17.171875 25.972656 C 17.175781 25.972656 17.175781 25.972656 17.179688 25.976562 C 18.359375 26.363281 19.527344 26.25 20.546875 25.65625 C 21.535156 25.078125 22.308594 24.082031 22.722656 22.847656 Z M 26.269531 12.351562 L 18.175781 9.6875 L 16.210938 15.507812 L 18.058594 16.117188 C 19.496094 16.589844 21.566406 16.152344 21.988281 14.898438 C 22.019531 14.808594 22.085938 14.734375 22.171875 14.691406 C 22.261719 14.648438 22.363281 14.640625 22.453125 14.671875 C 23.292969 14.945312 24.042969 15.519531 24.511719 16.246094 C 24.621094 16.414062 24.703125 16.589844 24.777344 16.765625 Z M 26.269531 12.351562 " fill-opacity="1" fill-rule="nonzero"/></g></svg>