<svg xmlns="http://www.w3.org/2000/svg" xmlns:xlink="http://www.w3.org/1999/xlink" width="150" zoomAndPan="magnify" viewBox="0 0 112.5 112.499997" height="150" preserveAspectRatio="xMidYMid meet" version="1.0"><defs><filter x="0%" y="0%" width="100%" height="100%" id="f30db9c3bf"><feColorMatrix values="0 0 0 0 1 0 0 0 0 1 0 0 0 0 1 0 0 0 1 0" color-interpolation-filters="sRGB"/></filter><g/><clipPath id="0af1997152"><path d="M 37.675781 27.039062 L 81.832031 27.039062 L 81.832031 75.78125 L 37.675781 75.78125 Z M 37.675781 27.039062 " clip-rule="nonzero"/></clipPath><clipPath id="ff7df11ea3"><path d="M 25.835938 50 L 35 50 L 35 60 L 25.835938 60 Z M 25.835938 50 " clip-rule="nonzero"/></clipPath><clipPath id="bf61a4cae8"><path d="M 39.515625 13.222656 L 59.882812 13.222656 L 59.882812 50.273438 L 39.515625 50.273438 Z M 39.515625 13.222656 " clip-rule="nonzero"/></clipPath><clipPath id="a9d3752254"><path d="M 59.882812 53.058594 L 80.25 53.058594 L 80.25 90.109375 L 59.882812 90.109375 Z M 59.882812 53.058594 " clip-rule="nonzero"/></clipPath><clipPath id="8d8c331c5e"><path d="M 6 13 L 112.003906 13 L 112.003906 15 L 6 15 Z M 6 13 " clip-rule="nonzero"/></clipPath><mask id="1923616211"><g filter="url(#f30db9c3bf)"><rect x="-11.25" width="135" fill="#000000" y="-11.25" height="134.999996" fill-opacity="0.35"/></g></mask><clipPath id="8bcb9a59a2"><path d="M 11 0.222656 L 96 0.222656 L 96 0.96875 L 11 0.96875 Z M 11 0.222656 " clip-rule="nonzero"/></clipPath><clipPath id="30715f9f5c"><rect x="0" width="107" y="0" height="2"/></clipPath><mask id="ae0dd14df7"><g filter="url(#f30db9c3bf)"><rect x="-11.25" width="135" fill="#000000" y="-11.25" height="134.999996" fill-opacity="0.35"/></g></mask><clipPath id="12676b13f9"><path d="M 1.023438 10 L 1.773438 10 L 1.773438 95 L 1.023438 95 Z M 1.023438 10 " clip-rule="nonzero"/></clipPath><clipPath id="b733790a94"><rect x="0" width="2" y="0" height="106"/></clipPath></defs><g clip-path="url(#0af1997152)"><path fill="#807f7f" d="M 57.402344 75.851562 C 57.359375 75.851562 57.3125 75.851562 57.265625 75.851562 C 55.445312 75.839844 53.625 75.621094 51.851562 75.203125 C 48.382812 74.386719 45.070312 72.785156 42.265625 70.5625 C 42.214844 70.523438 42.203125 70.445312 42.246094 70.390625 C 42.289062 70.339844 42.367188 70.332031 42.417969 70.371094 C 48.199219 74.949219 55.628906 76.632812 62.808594 74.992188 C 69.097656 73.554688 74.453125 69.753906 77.882812 64.289062 C 81.3125 58.828125 82.410156 52.355469 80.972656 46.0625 C 79.535156 39.773438 75.734375 34.421875 70.273438 30.992188 C 64.808594 27.558594 58.335938 26.460938 52.046875 27.898438 C 46.367188 29.195312 41.347656 32.5 37.917969 37.203125 C 37.878906 37.257812 37.800781 37.269531 37.746094 37.230469 C 37.691406 37.191406 37.679688 37.113281 37.722656 37.058594 C 39.417969 34.730469 41.488281 32.742188 43.871094 31.148438 C 46.339844 29.5 49.070312 28.328125 51.992188 27.660156 C 55.203125 26.925781 58.460938 26.84375 61.675781 27.414062 C 64.785156 27.964844 67.71875 29.097656 70.402344 30.78125 C 73.085938 32.46875 75.382812 34.621094 77.226562 37.179688 C 79.136719 39.828125 80.480469 42.796875 81.214844 46.011719 C 81.949219 49.21875 82.03125 52.480469 81.460938 55.695312 C 80.910156 58.800781 79.777344 61.738281 78.089844 64.421875 C 76.40625 67.105469 74.253906 69.402344 71.695312 71.246094 C 69.046875 73.15625 66.074219 74.5 62.863281 75.230469 C 61.066406 75.640625 59.230469 75.851562 57.402344 75.851562 " fill-opacity="1" fill-rule="nonzero"/></g><path fill="#807f7f" d="M 41.59375 69.703125 C 39.382812 67.425781 37.445312 64.871094 35.941406 62.070312 C 34.445312 59.277344 33.382812 56.214844 33.09375 53.046875 C 32.925781 51.164062 33.035156 49.28125 33.449219 47.4375 C 33.5 47.214844 33.160156 47.121094 33.113281 47.34375 C 32.378906 50.585938 32.601562 53.957031 33.527344 57.136719 C 34.433594 60.25 35.972656 63.164062 37.859375 65.792969 C 38.914062 67.261719 40.085938 68.652344 41.347656 69.949219 C 41.503906 70.113281 41.753906 69.863281 41.59375 69.703125 " fill-opacity="1" fill-rule="nonzero"/><path fill="#807f7f" d="M 33.316406 47.625 C 34.300781 46.613281 35.359375 45.554688 35.972656 44.261719 C 36.605469 42.925781 36.671875 41.421875 36.878906 39.980469 C 36.996094 39.144531 37.164062 38.308594 37.511719 37.539062 C 37.582031 37.386719 37.367188 37.253906 37.285156 37.40625 C 36.539062 38.808594 35.328125 39.859375 34.3125 41.0625 C 33.835938 41.628906 33.449219 42.246094 33.210938 42.949219 C 32.972656 43.648438 32.875 44.394531 32.871094 45.132812 C 32.863281 45.996094 32.976562 46.859375 33.121094 47.710938 C 33.148438 47.878906 33.402344 47.808594 33.375 47.640625 C 33.125 46.195312 32.96875 44.664062 33.394531 43.234375 C 33.617188 42.488281 34 41.839844 34.5 41.25 C 34.980469 40.675781 35.503906 40.144531 36.003906 39.589844 C 36.574219 38.957031 37.113281 38.292969 37.511719 37.539062 C 37.4375 37.496094 37.363281 37.449219 37.285156 37.40625 C 36.675781 38.75 36.601562 40.230469 36.394531 41.675781 C 36.292969 42.390625 36.152344 43.109375 35.890625 43.789062 C 35.628906 44.464844 35.21875 45.070312 34.769531 45.632812 C 34.261719 46.269531 33.699219 46.855469 33.128906 47.4375 C 33.011719 47.558594 33.199219 47.746094 33.316406 47.625 " fill-opacity="1" fill-rule="nonzero"/><path fill="#807f7f" d="M 33.078125 52.917969 C 32.953125 51.488281 32.488281 50.152344 31.761719 48.917969 C 31.390625 48.285156 30.992188 47.667969 30.6875 46.996094 C 30.382812 46.332031 30.152344 45.632812 29.992188 44.917969 C 29.816406 44.117188 29.734375 43.304688 29.75 42.484375 C 29.75 42.339844 29.523438 42.304688 29.488281 42.453125 C 29.28125 43.40625 29.070312 44.359375 28.898438 45.320312 C 28.734375 46.222656 28.628906 47.152344 28.804688 48.058594 C 29.085938 49.527344 30.132812 50.589844 31.167969 51.585938 C 31.773438 52.167969 32.375 52.757812 32.855469 53.453125 C 32.949219 53.589844 33.179688 53.457031 33.082031 53.320312 C 32.277344 52.148438 31.128906 51.300781 30.210938 50.230469 C 29.753906 49.699219 29.371094 49.09375 29.164062 48.417969 C 28.890625 47.519531 28.957031 46.566406 29.105469 45.652344 C 29.277344 44.601562 29.515625 43.5625 29.742188 42.519531 C 29.65625 42.507812 29.570312 42.496094 29.484375 42.484375 C 29.464844 43.902344 29.722656 45.320312 30.25 46.636719 C 30.515625 47.304688 30.859375 47.929688 31.230469 48.542969 C 31.621094 49.1875 32 49.835938 32.269531 50.539062 C 32.558594 51.304688 32.742188 52.105469 32.8125 52.917969 C 32.828125 53.085938 33.089844 53.089844 33.078125 52.917969 " fill-opacity="1" fill-rule="nonzero"/><path fill="#807f7f" d="M 33.519531 55.664062 C 33.398438 54.695312 33.859375 53.785156 34.410156 53.019531 C 34.945312 52.277344 35.621094 51.671875 36.238281 51.003906 C 36.820312 50.375 37.269531 49.675781 37.480469 48.839844 C 37.695312 47.984375 37.71875 47.097656 37.769531 46.222656 C 37.824219 45.25 37.898438 44.234375 38.355469 43.351562 C 38.417969 43.226562 38.246094 43.070312 38.148438 43.191406 C 37.550781 43.898438 36.945312 44.621094 36.546875 45.464844 C 36.148438 46.3125 36.035156 47.253906 35.554688 48.0625 C 34.78125 49.359375 33.457031 50.390625 33.1875 51.949219 C 33 53.027344 33.40625 54.136719 33.101562 55.199219 C 33.054688 55.363281 33.308594 55.433594 33.355469 55.269531 C 33.621094 54.34375 33.359375 53.394531 33.398438 52.453125 C 33.425781 51.644531 33.773438 50.933594 34.234375 50.28125 C 34.679688 49.65625 35.199219 49.089844 35.621094 48.449219 C 35.835938 48.121094 36.019531 47.777344 36.15625 47.410156 C 36.328125 46.957031 36.4375 46.476562 36.601562 46.019531 C 36.960938 45.015625 37.652344 44.183594 38.332031 43.378906 C 38.265625 43.324219 38.195312 43.269531 38.125 43.21875 C 37.300781 44.8125 37.632812 46.691406 37.308594 48.402344 C 37.222656 48.847656 37.09375 49.289062 36.882812 49.691406 C 36.671875 50.089844 36.394531 50.445312 36.089844 50.777344 C 35.488281 51.4375 34.828125 52.027344 34.289062 52.742188 C 33.664062 53.574219 33.125 54.59375 33.257812 55.664062 C 33.277344 55.832031 33.542969 55.832031 33.519531 55.664062 " fill-opacity="1" fill-rule="nonzero"/><g clip-path="url(#ff7df11ea3)"><path fill="#807f7f" d="M 34.578125 59.46875 C 34.042969 58.828125 33.421875 58.261719 32.734375 57.785156 C 32.074219 57.332031 31.363281 56.992188 30.625 56.691406 C 29.925781 56.40625 29.207031 56.136719 28.566406 55.726562 C 27.863281 55.277344 27.367188 54.660156 27.054688 53.890625 C 26.871094 53.4375 26.738281 52.96875 26.597656 52.503906 C 26.441406 51.980469 26.285156 51.457031 26.128906 50.933594 C 26.054688 50.976562 25.984375 51.019531 25.910156 51.0625 C 26.910156 52.347656 27.960938 53.6875 29.417969 54.484375 C 30.171875 54.898438 31.023438 55.105469 31.757812 55.554688 C 32.414062 55.953125 32.914062 56.558594 33.308594 57.207031 C 33.761719 57.953125 34.089844 58.765625 34.359375 59.59375 C 34.410156 59.753906 34.664062 59.6875 34.613281 59.527344 C 34.15625 58.105469 33.5 56.566406 32.300781 55.613281 C 31.625 55.078125 30.800781 54.839844 30.027344 54.492188 C 29.242188 54.144531 28.554688 53.632812 27.941406 53.035156 C 27.261719 52.371094 26.675781 51.621094 26.09375 50.875 C 26.011719 50.769531 25.839844 50.886719 25.875 51.003906 C 26.148438 51.914062 26.386719 52.84375 26.714844 53.738281 C 26.992188 54.492188 27.390625 55.164062 28.027344 55.664062 C 28.621094 56.132812 29.316406 56.4375 30.007812 56.722656 C 30.761719 57.03125 31.511719 57.328125 32.207031 57.757812 C 33.03125 58.265625 33.769531 58.910156 34.390625 59.652344 C 34.5 59.785156 34.6875 59.597656 34.578125 59.46875 " fill-opacity="1" fill-rule="nonzero"/></g><path fill="#807f7f" d="M 35.675781 61.515625 C 35.496094 60.777344 35.53125 59.992188 35.796875 59.277344 C 36.054688 58.574219 36.554688 58 36.910156 57.347656 C 37.578125 56.121094 37.644531 54.679688 38.257812 53.429688 C 38.628906 52.671875 39.238281 52.101562 39.859375 51.546875 C 39.945312 51.472656 39.878906 51.316406 39.769531 51.324219 C 39.027344 51.363281 38.28125 51.496094 37.617188 51.84375 C 36.9375 52.199219 36.433594 52.777344 36.121094 53.472656 C 35.789062 54.222656 35.664062 55.035156 35.589844 55.84375 C 35.546875 56.3125 35.523438 56.78125 35.476562 57.246094 C 35.433594 57.710938 35.359375 58.167969 35.277344 58.628906 C 35.109375 59.589844 34.949219 60.589844 35.261719 61.542969 C 35.3125 61.703125 35.566406 61.636719 35.515625 61.472656 C 35.246094 60.652344 35.347656 59.792969 35.488281 58.957031 C 35.628906 58.113281 35.742188 57.28125 35.804688 56.425781 C 35.917969 54.941406 36.085938 53.15625 37.445312 52.25 C 38.128906 51.792969 38.960938 51.628906 39.769531 51.585938 C 39.738281 51.511719 39.707031 51.4375 39.675781 51.363281 C 39.109375 51.867188 38.539062 52.382812 38.160156 53.050781 C 37.808594 53.671875 37.613281 54.367188 37.429688 55.054688 C 37.242188 55.75 37.070312 56.460938 36.738281 57.109375 C 36.390625 57.78125 35.886719 58.363281 35.597656 59.066406 C 35.269531 59.863281 35.21875 60.753906 35.421875 61.585938 C 35.460938 61.75 35.714844 61.679688 35.675781 61.515625 " fill-opacity="1" fill-rule="nonzero"/><path fill="#807f7f" d="M 38.914062 66.710938 C 37.847656 65.675781 36.59375 64.855469 35.214844 64.300781 C 35.058594 64.234375 34.988281 64.492188 35.144531 64.554688 C 36.480469 65.09375 37.699219 65.894531 38.726562 66.898438 C 38.847656 67.015625 39.035156 66.832031 38.914062 66.710938 " fill-opacity="1" fill-rule="nonzero"/><path fill="#807f7f" d="M 35.328125 64.367188 C 34.660156 64.132812 33.96875 63.953125 33.320312 63.660156 C 32.699219 63.382812 32.109375 63.019531 31.609375 62.558594 C 31.101562 62.089844 30.734375 61.535156 30.402344 60.933594 C 30.0625 60.304688 29.652344 59.710938 29.089844 59.257812 C 28.503906 58.785156 27.765625 58.476562 27.003906 58.640625 C 27.035156 58.71875 27.070312 58.800781 27.105469 58.878906 C 28.390625 58.148438 30.019531 58.601562 31.046875 59.566406 C 31.554688 60.042969 31.949219 60.628906 32.269531 61.242188 C 32.445312 61.582031 32.589844 61.933594 32.773438 62.265625 C 32.949219 62.582031 33.164062 62.867188 33.410156 63.128906 C 33.980469 63.722656 34.679688 64.171875 35.371094 64.613281 C 35.511719 64.703125 35.644531 64.476562 35.503906 64.382812 C 34.855469 63.972656 34.199219 63.554688 33.65625 63.003906 C 33.382812 62.726562 33.15625 62.421875 32.972656 62.078125 C 32.777344 61.722656 32.625 61.347656 32.433594 60.988281 C 31.757812 59.738281 30.714844 58.632812 29.277344 58.339844 C 28.496094 58.179688 27.667969 58.253906 26.96875 58.652344 C 26.835938 58.726562 26.929688 58.921875 27.070312 58.894531 C 27.785156 58.742188 28.484375 59.074219 29.011719 59.535156 C 29.578125 60.027344 29.941406 60.644531 30.300781 61.289062 C 30.9375 62.441406 31.914062 63.296875 33.105469 63.851562 C 33.800781 64.171875 34.539062 64.367188 35.257812 64.621094 C 35.417969 64.679688 35.484375 64.425781 35.328125 64.367188 " fill-opacity="1" fill-rule="nonzero"/><path fill="#807f7f" d="M 34.941406 64.242188 C 33.871094 63.683594 32.902344 62.945312 32.082031 62.058594 C 31.667969 61.613281 31.308594 61.125 30.964844 60.621094 C 30.628906 60.128906 30.285156 59.632812 29.828125 59.238281 C 29.742188 59.167969 29.617188 59.289062 29.703125 59.363281 C 30.179688 59.773438 30.527344 60.292969 30.878906 60.808594 C 31.222656 61.308594 31.585938 61.785156 31.996094 62.226562 C 32.816406 63.105469 33.789062 63.839844 34.851562 64.390625 C 34.953125 64.445312 35.042969 64.292969 34.941406 64.242188 " fill-opacity="1" fill-rule="nonzero"/><path fill="#807f7f" d="M 34.210938 59.027344 C 33.578125 58.007812 32.726562 57.128906 31.71875 56.472656 C 30.683594 55.800781 29.480469 55.378906 28.589844 54.496094 C 28.507812 54.417969 28.382812 54.542969 28.464844 54.621094 C 29.324219 55.472656 30.46875 55.902344 31.484375 56.53125 C 32.527344 57.179688 33.410156 58.070312 34.058594 59.117188 C 34.117188 59.214844 34.269531 59.125 34.210938 59.027344 " fill-opacity="1" fill-rule="nonzero"/><path fill="#807f7f" d="M 32.78125 52.96875 C 32.554688 52.441406 32.328125 51.910156 32.003906 51.433594 C 31.6875 50.960938 31.277344 50.558594 30.941406 50.097656 C 30.289062 49.210938 29.863281 48.179688 29.6875 47.09375 C 29.667969 46.984375 29.5 47.03125 29.515625 47.140625 C 29.691406 48.21875 30.117188 49.253906 30.753906 50.140625 C 31.085938 50.601562 31.492188 51.003906 31.816406 51.46875 C 32.15625 51.960938 32.394531 52.511719 32.632812 53.054688 C 32.675781 53.160156 32.828125 53.070312 32.78125 52.96875 " fill-opacity="1" fill-rule="nonzero"/><path fill="#807f7f" d="M 33.324219 47.316406 C 33.539062 46.769531 33.757812 46.21875 33.976562 45.671875 C 34.1875 45.136719 34.421875 44.605469 34.589844 44.054688 C 34.667969 43.804688 34.722656 43.550781 34.753906 43.289062 C 34.785156 43.003906 34.789062 42.714844 34.851562 42.433594 C 34.964844 41.929688 35.21875 41.472656 35.578125 41.101562 C 35.65625 41.023438 35.535156 40.898438 35.453125 40.980469 C 35.113281 41.328125 34.859375 41.753906 34.726562 42.222656 C 34.570312 42.765625 34.613281 43.335938 34.457031 43.882812 C 34.300781 44.445312 34.058594 44.984375 33.84375 45.527344 C 33.613281 46.109375 33.382812 46.6875 33.152344 47.269531 C 33.113281 47.375 33.28125 47.421875 33.324219 47.316406 " fill-opacity="1" fill-rule="nonzero"/><path fill="#807f7f" d="M 33.496094 55.292969 C 33.539062 54.648438 33.582031 54 33.746094 53.375 C 33.894531 52.820312 34.152344 52.316406 34.46875 51.84375 C 35.085938 50.910156 35.832031 50.085938 36.273438 49.046875 C 36.53125 48.433594 36.695312 47.792969 36.78125 47.136719 C 36.796875 47.023438 36.621094 47.027344 36.605469 47.136719 C 36.453125 48.339844 35.984375 49.4375 35.285156 50.421875 C 34.652344 51.304688 33.925781 52.140625 33.613281 53.203125 C 33.414062 53.878906 33.367188 54.589844 33.324219 55.292969 C 33.316406 55.40625 33.492188 55.40625 33.496094 55.292969 " fill-opacity="1" fill-rule="nonzero"/><path fill="#807f7f" d="M 35.417969 60.617188 C 35.40625 59.539062 35.703125 58.503906 36.027344 57.484375 C 36.1875 56.976562 36.355469 56.472656 36.492188 55.957031 C 36.628906 55.445312 36.703125 54.921875 36.828125 54.410156 C 36.898438 54.121094 36.996094 53.84375 37.15625 53.589844 C 37.324219 53.324219 37.539062 53.09375 37.75 52.863281 C 37.828125 52.78125 37.703125 52.65625 37.625 52.742188 C 37.28125 53.117188 36.949219 53.496094 36.769531 53.984375 C 36.582031 54.503906 36.53125 55.070312 36.398438 55.605469 C 36.140625 56.679688 35.726562 57.710938 35.472656 58.785156 C 35.328125 59.386719 35.238281 59.996094 35.242188 60.617188 C 35.246094 60.730469 35.421875 60.730469 35.417969 60.617188 " fill-opacity="1" fill-rule="nonzero"/><path fill="#807f7f" d="M 37.839844 65.171875 C 37.6875 64.789062 37.539062 64.390625 37.550781 63.976562 C 37.558594 63.789062 37.605469 63.605469 37.597656 63.414062 C 37.585938 63.242188 37.535156 63.082031 37.457031 62.929688 C 37.417969 62.847656 37.296875 62.890625 37.292969 62.972656 C 37.28125 63.351562 37.085938 63.707031 37.128906 64.085938 C 37.167969 64.445312 37.367188 64.761719 37.566406 65.054688 C 37.625 65.148438 37.777344 65.0625 37.714844 64.964844 C 37.523438 64.671875 37.304688 64.347656 37.296875 63.984375 C 37.292969 63.800781 37.359375 63.636719 37.402344 63.460938 C 37.445312 63.300781 37.464844 63.136719 37.46875 62.972656 C 37.414062 62.988281 37.359375 63.003906 37.304688 63.019531 C 37.503906 63.402344 37.347656 63.765625 37.382812 64.167969 C 37.410156 64.535156 37.535156 64.878906 37.667969 65.21875 C 37.710938 65.320312 37.878906 65.277344 37.839844 65.171875 " fill-opacity="1" fill-rule="nonzero"/><g clip-path="url(#bf61a4cae8)"><path fill="#ffffff" d="M 39.515625 13.222656 L 59.882812 13.222656 L 59.882812 50.292969 L 39.515625 50.292969 Z M 39.515625 13.222656 " fill-opacity="1" fill-rule="nonzero"/></g><g fill="#807f7f" fill-opacity="1"><g transform="translate(39.914083, 40.885468)"><g><path d="M -0.484375 0 L -0.484375 -0.375 C -0.0859375 -0.507812 0.300781 -0.769531 0.6875 -1.15625 C 1.070312 -1.550781 1.484375 -2.296875 1.921875 -3.390625 L 7.578125 -17.390625 C 7.753906 -17.847656 7.734375 -18.300781 7.515625 -18.75 L 7.265625 -19.34375 L 9.421875 -20.328125 L 16.46875 -3.359375 C 16.914062 -2.285156 17.316406 -1.550781 17.671875 -1.15625 C 18.023438 -0.769531 18.351562 -0.507812 18.65625 -0.375 L 18.65625 0 L 14.203125 0 L 14.203125 -0.375 C 14.648438 -0.507812 14.832031 -0.769531 14.75 -1.15625 C 14.675781 -1.550781 14.410156 -2.285156 13.953125 -3.359375 L 12.203125 -7.578125 L 4.109375 -7.578125 L 2.40625 -3.390625 C 1.6875 -1.566406 1.800781 -0.5625 2.75 -0.375 L 2.75 0 Z M 4.28125 -8.015625 L 12.03125 -8.015625 L 8.09375 -17.453125 Z M 4.28125 -8.015625 "/></g></g></g><g clip-path="url(#a9d3752254)"><path fill="#ffffff" d="M 59.882812 53.058594 L 80.25 53.058594 L 80.25 90.132812 L 59.882812 90.132812 Z M 59.882812 53.058594 " fill-opacity="1" fill-rule="nonzero"/></g><g fill="#807f7f" fill-opacity="1"><g transform="translate(59.521641, 79.332854)"><g><path d="M 1.46875 0 L 1.46875 -0.375 C 1.90625 -0.507812 2.203125 -0.796875 2.359375 -1.234375 C 2.523438 -1.671875 2.609375 -2.472656 2.609375 -3.640625 L 2.609375 -16.453125 C 2.609375 -17.628906 2.523438 -18.429688 2.359375 -18.859375 C 2.203125 -19.296875 1.90625 -19.582031 1.46875 -19.71875 L 1.46875 -20.09375 L 8.328125 -20.09375 C 10.296875 -20.09375 11.976562 -19.8125 13.375 -19.25 C 14.769531 -18.6875 15.90625 -17.929688 16.78125 -16.984375 C 17.664062 -16.046875 18.3125 -15.007812 18.71875 -13.875 C 19.132812 -12.738281 19.34375 -11.585938 19.34375 -10.421875 C 19.363281 -8.410156 18.945312 -6.617188 18.09375 -5.046875 C 17.238281 -3.484375 16.03125 -2.25 14.46875 -1.34375 C 12.914062 -0.445312 11.085938 0 8.984375 0 Z M 4.96875 -2.53125 C 4.96875 -1.851562 5.082031 -1.332031 5.3125 -0.96875 C 5.539062 -0.613281 6.046875 -0.4375 6.828125 -0.4375 L 8.921875 -0.4375 C 11.429688 -0.4375 13.359375 -1.15625 14.703125 -2.59375 C 16.054688 -4.039062 16.734375 -6.265625 16.734375 -9.265625 C 16.734375 -11.179688 16.359375 -12.921875 15.609375 -14.484375 C 14.867188 -16.054688 13.769531 -17.3125 12.3125 -18.25 C 10.851562 -19.1875 9.054688 -19.65625 6.921875 -19.65625 L 4.96875 -19.65625 Z M 4.96875 -2.53125 "/></g></g></g><g fill="#807f7f" fill-opacity="1"><g transform="translate(43.363983, 55.393806)"><g><path d="M 18.59375 0.796875 C 18.59375 1.972656 18.351562 3.125 17.875 4.25 C 17.394531 5.382812 16.71875 6.398438 15.84375 7.296875 C 14.976562 8.203125 13.957031 8.921875 12.78125 9.453125 C 11.613281 9.992188 10.335938 10.265625 8.953125 10.265625 C 8.140625 10.265625 7.328125 10.097656 6.515625 9.765625 C 5.703125 9.441406 5.03125 8.957031 4.5 8.3125 C 3.976562 7.664062 3.71875 6.890625 3.71875 5.984375 C 3.695312 5.179688 3.859375 4.507812 4.203125 3.96875 C 4.554688 3.425781 4.972656 3 5.453125 2.6875 C 5.941406 2.382812 6.398438 2.164062 6.828125 2.03125 C 7.253906 1.90625 7.535156 1.84375 7.671875 1.84375 C 7.804688 1.84375 7.875 1.898438 7.875 2.015625 C 7.875 2.117188 7.738281 2.175781 7.46875 2.1875 C 7.207031 2.195312 6.789062 2.347656 6.21875 2.640625 C 6.019531 2.742188 5.75 2.914062 5.40625 3.15625 C 5.070312 3.394531 4.769531 3.710938 4.5 4.109375 C 4.238281 4.503906 4.109375 5 4.109375 5.59375 C 4.109375 6.40625 4.34375 7.070312 4.8125 7.59375 C 5.289062 8.125 5.851562 8.515625 6.5 8.765625 C 7.144531 9.023438 7.734375 9.15625 8.265625 9.15625 C 9.453125 9.15625 10.617188 8.898438 11.765625 8.390625 C 12.921875 7.890625 13.957031 7.203125 14.875 6.328125 C 15.800781 5.460938 16.539062 4.476562 17.09375 3.375 C 17.65625 2.269531 17.9375 1.113281 17.9375 -0.09375 C 17.9375 -0.507812 17.882812 -1.023438 17.78125 -1.640625 C 17.6875 -2.253906 17.566406 -2.769531 17.421875 -3.1875 C 16.671875 -2.289062 15.753906 -1.5 14.671875 -0.8125 C 13.597656 -0.132812 12.382812 0.203125 11.03125 0.203125 C 9.800781 0.203125 8.742188 -0.148438 7.859375 -0.859375 C 6.984375 -1.578125 6.546875 -2.519531 6.546875 -3.6875 C 6.546875 -4.78125 6.785156 -5.71875 7.265625 -6.5 C 7.753906 -7.28125 8.390625 -7.9375 9.171875 -8.46875 C 9.953125 -9.007812 10.800781 -9.46875 11.71875 -9.84375 C 12.644531 -10.21875 13.546875 -10.546875 14.421875 -10.828125 C 14.265625 -11.378906 14.1875 -11.972656 14.1875 -12.609375 C 14.1875 -13.441406 14.34375 -14.289062 14.65625 -15.15625 C 14.976562 -16.019531 15.457031 -16.75 16.09375 -17.34375 C 16.726562 -17.9375 17.53125 -18.234375 18.5 -18.234375 C 19.269531 -18.234375 19.875 -18.007812 20.3125 -17.5625 C 20.75 -17.113281 20.96875 -16.503906 20.96875 -15.734375 C 20.96875 -14.992188 20.765625 -14.34375 20.359375 -13.78125 C 19.953125 -13.21875 19.429688 -12.726562 18.796875 -12.3125 C 18.160156 -11.894531 17.492188 -11.539062 16.796875 -11.25 C 16.109375 -10.96875 15.476562 -10.71875 14.90625 -10.5 C 15 -10.019531 15.207031 -9.375 15.53125 -8.5625 C 15.863281 -7.75 16.226562 -6.925781 16.625 -6.09375 C 17.019531 -5.257812 17.347656 -4.546875 17.609375 -3.953125 C 18.335938 -4.828125 19.082031 -5.773438 19.84375 -6.796875 C 20.613281 -7.816406 21.242188 -8.664062 21.734375 -9.34375 C 22.128906 -9.914062 22.632812 -10.554688 23.25 -11.265625 C 23.863281 -11.984375 24.539062 -12.597656 25.28125 -13.109375 C 26.03125 -13.628906 26.773438 -13.890625 27.515625 -13.890625 C 27.867188 -13.890625 28.160156 -13.796875 28.390625 -13.609375 C 28.617188 -13.421875 28.734375 -13.144531 28.734375 -12.78125 C 28.734375 -12.40625 28.625 -12.113281 28.40625 -11.90625 C 28.1875 -11.695312 27.890625 -11.59375 27.515625 -11.59375 C 27.234375 -11.59375 27.019531 -11.691406 26.875 -11.890625 C 26.738281 -12.085938 26.613281 -12.285156 26.5 -12.484375 C 26.394531 -12.679688 26.234375 -12.78125 26.015625 -12.78125 C 25.816406 -12.78125 25.515625 -12.640625 25.109375 -12.359375 C 24.703125 -12.085938 24.265625 -11.722656 23.796875 -11.265625 C 23.335938 -10.816406 22.898438 -10.3125 22.484375 -9.75 C 21.710938 -8.664062 20.914062 -7.597656 20.09375 -6.546875 C 19.269531 -5.492188 18.5 -4.519531 17.78125 -3.625 C 18.320312 -2.238281 18.59375 -0.765625 18.59375 0.796875 Z M 8.328125 -3.15625 C 8.328125 -2.34375 8.5625 -1.644531 9.03125 -1.0625 C 9.507812 -0.488281 10.175781 -0.203125 11.03125 -0.203125 C 12.300781 -0.203125 13.472656 -0.53125 14.546875 -1.1875 C 15.628906 -1.84375 16.539062 -2.632812 17.28125 -3.5625 C 16.84375 -4.71875 16.359375 -5.832031 15.828125 -6.90625 C 15.304688 -7.988281 14.867188 -9.144531 14.515625 -10.375 C 13.460938 -9.976562 12.460938 -9.453125 11.515625 -8.796875 C 10.578125 -8.148438 9.8125 -7.359375 9.21875 -6.421875 C 8.625 -5.492188 8.328125 -4.40625 8.328125 -3.15625 Z M 14.578125 -12.9375 C 14.578125 -12.601562 14.585938 -12.265625 14.609375 -11.921875 C 14.640625 -11.585938 14.695312 -11.257812 14.78125 -10.9375 C 15.351562 -11.15625 15.972656 -11.390625 16.640625 -11.640625 C 17.304688 -11.890625 17.9375 -12.1875 18.53125 -12.53125 C 19.125 -12.882812 19.613281 -13.328125 20 -13.859375 C 20.382812 -14.390625 20.578125 -15.035156 20.578125 -15.796875 C 20.578125 -16.367188 20.394531 -16.851562 20.03125 -17.25 C 19.664062 -17.644531 19.175781 -17.84375 18.5625 -17.84375 C 17.726562 -17.84375 17.015625 -17.578125 16.421875 -17.046875 C 15.835938 -16.523438 15.382812 -15.882812 15.0625 -15.125 C 14.738281 -14.363281 14.578125 -13.632812 14.578125 -12.9375 Z M 14.578125 -12.9375 "/></g></g></g><g clip-path="url(#8d8c331c5e)"><g mask="url(#1923616211)"><g transform="matrix(1, 0, 0, 1, 6, 13)"><g clip-path="url(#30715f9f5c)"><g clip-path="url(#8bcb9a59a2)"><path fill="#1e1e1e" d="M 95.371094 0.96875 L 11.644531 0.96875 C 11.5 0.96875 11.382812 0.800781 11.382812 0.59375 C 11.382812 0.386719 11.5 0.21875 11.644531 0.21875 L 95.371094 0.21875 C 95.519531 0.21875 95.636719 0.386719 95.636719 0.59375 C 95.636719 0.800781 95.519531 0.96875 95.371094 0.96875 " fill-opacity="1" fill-rule="nonzero"/></g></g></g></g></g><g mask="url(#ae0dd14df7)"><g transform="matrix(1, 0, 0, 1, 92, -0.000000000000000624)"><g clip-path="url(#b733790a94)"><g clip-path="url(#12676b13f9)"><path fill="#1e1e1e" d="M 1.773438 10.625 L 1.773438 94.351562 C 1.773438 94.496094 1.605469 94.617188 1.398438 94.617188 C 1.191406 94.617188 1.023438 94.496094 1.023438 94.351562 L 1.023438 10.625 C 1.023438 10.480469 1.191406 10.359375 1.398438 10.359375 C 1.605469 10.359375 1.773438 10.480469 1.773438 10.625 " fill-opacity="1" fill-rule="nonzero"/></g></g></g></g></svg>