<svg xmlns="http://www.w3.org/2000/svg" xmlns:xlink="http://www.w3.org/1999/xlink" width="70" zoomAndPan="magnify" viewBox="0 0 52.5 52.499999" height="70" preserveAspectRatio="xMidYMid meet" version="1.0"><defs><clipPath id="5c02526435"><path d="M 27 9.007812 L 50 9.007812 L 50 43.179688 L 27 43.179688 Z M 27 9.007812 " clip-rule="nonzero"/></clipPath><clipPath id="cd1f5427d8"><path d="M 1.777344 9.007812 L 24 9.007812 L 24 43.179688 L 1.777344 43.179688 Z M 1.777344 9.007812 " clip-rule="nonzero"/></clipPath></defs><g clip-path="url(#5c02526435)"><path fill="#555555" d="M 27.871094 32.179688 C 27.871094 19.414062 37.308594 10.578125 49.585938 8.824219 C 42.824219 12.359375 38.5625 17.09375 37.960938 21.347656 C 43.753906 20.878906 49 25.402344 49.539062 31.152344 C 50.070312 36.863281 45.90625 42.152344 40.214844 42.933594 C 38.410156 43.179688 36.535156 42.972656 34.835938 42.308594 C 33.972656 41.976562 33.164062 41.542969 32.414062 41.003906 C 31.757812 40.53125 30.871094 39.902344 30.449219 39.195312 C 28.78125 37.265625 27.871094 34.722656 27.871094 32.179688 Z M 27.871094 32.179688 " fill-opacity="1" fill-rule="nonzero"/></g><g clip-path="url(#cd1f5427d8)"><path fill="#555555" d="M 1.929688 32.179688 C 1.929688 19.414062 11.367188 10.578125 23.644531 8.824219 C 16.886719 12.359375 12.625 17.09375 12.019531 21.347656 C 17.816406 20.878906 23.0625 25.402344 23.597656 31.152344 C 24.128906 36.863281 19.964844 42.152344 14.273438 42.933594 C 12.46875 43.179688 10.59375 42.972656 8.894531 42.308594 C 8.03125 41.976562 7.226562 41.542969 6.472656 41.003906 C 5.816406 40.53125 4.933594 39.902344 4.507812 39.195312 C 2.839844 37.265625 1.929688 34.722656 1.929688 32.179688 Z M 1.929688 32.179688 " fill-opacity="1" fill-rule="nonzero"/></g></svg>