<svg xmlns="http://www.w3.org/2000/svg" xmlns:xlink="http://www.w3.org/1999/xlink" width="70" zoomAndPan="magnify" viewBox="0 0 52.5 52.499999" height="70" preserveAspectRatio="xMidYMid meet" version="1.0"><defs><clipPath id="d92031e241"><path d="M 2 8.820312 L 25 8.820312 L 25 42.996094 L 2 42.996094 Z M 2 8.820312 " clip-rule="nonzero"/></clipPath><clipPath id="002aff062b"><path d="M 28 8.820312 L 50.21875 8.820312 L 50.21875 42.996094 L 28 42.996094 Z M 28 8.820312 " clip-rule="nonzero"/></clipPath></defs><g clip-path="url(#d92031e241)"><path fill="#555555" d="M 24.128906 19.824219 C 24.128906 32.585938 14.691406 41.425781 2.414062 43.179688 C 9.171875 39.640625 13.433594 34.910156 14.039062 30.65625 C 8.246094 31.125 2.996094 26.597656 2.460938 20.847656 C 1.929688 15.136719 6.09375 9.847656 11.785156 9.070312 C 13.589844 8.824219 15.464844 9.03125 17.164062 9.691406 C 18.027344 10.023438 18.835938 10.460938 19.585938 11 C 20.242188 11.472656 21.125 12.097656 21.550781 12.804688 C 23.21875 14.734375 24.128906 17.277344 24.128906 19.824219 Z M 24.128906 19.824219 " fill-opacity="1" fill-rule="nonzero"/></g><g clip-path="url(#002aff062b)"><path fill="#555555" d="M 50.070312 19.824219 C 50.070312 32.585938 40.632812 41.425781 28.355469 43.179688 C 35.113281 39.640625 39.375 34.910156 39.980469 30.65625 C 34.183594 31.125 28.9375 26.597656 28.402344 20.847656 C 27.871094 15.136719 32.035156 9.847656 37.722656 9.070312 C 39.527344 8.824219 41.40625 9.03125 43.105469 9.691406 C 43.964844 10.023438 44.773438 10.460938 45.527344 11 C 46.183594 11.472656 47.066406 12.097656 47.488281 12.804688 C 49.160156 14.734375 50.070312 17.277344 50.070312 19.824219 Z M 50.070312 19.824219 " fill-opacity="1" fill-rule="nonzero"/></g></svg>