<svg xmlns="http://www.w3.org/2000/svg" xmlns:xlink="http://www.w3.org/1999/xlink" width="70" zoomAndPan="magnify" viewBox="0 0 52.5 52.499999" height="70" preserveAspectRatio="xMidYMid meet" version="1.0"><defs><clipPath id="d568bfbb6d"><path d="M 5.199219 4.132812 L 46 4.132812 L 46 46.480469 L 5.199219 46.480469 Z M 5.199219 4.132812 " clip-rule="nonzero"/></clipPath></defs><g clip-path="url(#d568bfbb6d)"><path fill="#555555" d="M 37.855469 13.242188 L 37.765625 13.339844 C 37.636719 13.410156 37.539062 13.511719 37.472656 13.640625 L 36.472656 14.679688 C 36.378906 14.71875 36.285156 14.765625 36.207031 14.84375 C 36.125 14.925781 36.078125 15.023438 36.042969 15.128906 L 23.625 28.066406 C 23.5 28.195312 23.429688 28.367188 23.429688 28.550781 L 23.429688 43.355469 C 23.429688 43.722656 23.71875 44.03125 24.089844 44.050781 L 34.25 44.617188 C 34.453125 44.625 34.605469 44.792969 34.605469 44.992188 C 34.605469 45.203125 34.4375 45.371094 34.226562 45.371094 L 11.238281 45.371094 C 11.027344 45.371094 10.859375 45.203125 10.859375 44.992188 C 10.859375 44.792969 11.015625 44.625 11.214844 44.617188 L 21.375 44.050781 C 21.746094 44.03125 22.035156 43.722656 22.035156 43.355469 L 22.035156 28.550781 C 22.035156 28.367188 21.964844 28.195312 21.839844 28.066406 L 7.609375 13.242188 Z M 36.003906 5.558594 C 40.625 5.558594 44.386719 9.316406 44.386719 13.9375 C 44.386719 18.5625 40.625 22.320312 36.003906 22.320312 C 34.609375 22.320312 33.25 21.976562 32.035156 21.324219 L 32.550781 20.785156 C 33.621094 21.324219 34.800781 21.621094 36.003906 21.621094 C 40.242188 21.621094 43.6875 18.175781 43.6875 13.9375 C 43.6875 9.703125 40.242188 6.257812 36.003906 6.257812 C 32.558594 6.257812 29.539062 8.574219 28.613281 11.84375 L 27.890625 11.84375 C 28.832031 8.210938 32.183594 5.558594 36.003906 5.558594 Z M 35.304688 20.179688 C 34.707031 20.113281 34.117188 19.964844 33.5625 19.730469 L 35.304688 17.917969 Z M 39.523438 19.144531 C 38.699219 19.703125 37.738281 20.070312 36.703125 20.183594 L 36.703125 16.734375 C 36.703125 16.652344 36.679688 16.582031 36.65625 16.507812 L 36.769531 16.390625 Z M 38.453125 14.636719 L 42.25 14.636719 C 42.09375 16.019531 41.488281 17.265625 40.585938 18.230469 L 37.738281 15.382812 Z M 40.597656 9.664062 C 41.492188 10.628906 42.097656 11.867188 42.25 13.242188 L 39.792969 13.242188 L 40 13.023438 C 40.195312 12.824219 40.25 12.527344 40.136719 12.269531 C 40.027344 12.011719 39.777344 11.84375 39.496094 11.84375 L 38.855469 11.84375 Z M 31.097656 10.019531 L 32.921875 11.84375 L 30.082031 11.84375 C 30.316406 11.171875 30.664062 10.5625 31.097656 10.019531 Z M 34.894531 11.84375 L 32.085938 9.03125 C 32.996094 8.304688 34.105469 7.832031 35.304688 7.695312 L 35.304688 11.84375 Z M 36.703125 11.84375 L 36.703125 7.695312 C 37.746094 7.8125 38.714844 8.183594 39.542969 8.746094 L 37.066406 11.84375 Z M 20.636719 28.832031 L 20.636719 42.691406 L 11.140625 43.222656 C 10.199219 43.273438 9.460938 44.050781 9.460938 44.992188 C 9.460938 45.972656 10.257812 46.769531 11.238281 46.769531 L 34.226562 46.769531 C 35.207031 46.769531 36.003906 45.972656 36.003906 44.992188 C 36.003906 44.050781 35.265625 43.273438 34.324219 43.222656 L 24.828125 42.691406 L 24.828125 28.832031 L 31.039062 22.359375 C 32.542969 23.246094 34.246094 23.71875 36.003906 23.71875 C 41.394531 23.71875 45.78125 19.332031 45.78125 13.9375 C 45.78125 8.546875 41.394531 4.160156 36.003906 4.160156 C 31.425781 4.160156 27.429688 7.425781 26.460938 11.84375 L 5.96875 11.84375 C 5.6875 11.84375 5.4375 12.011719 5.328125 12.269531 C 5.214844 12.527344 5.269531 12.824219 5.464844 13.023438 L 20.636719 28.832031 " fill-opacity="1" fill-rule="nonzero"/></g><path fill="#555555" d="M 22.734375 25.828125 C 23.765625 25.828125 24.796875 25.433594 25.582031 24.648438 L 26.019531 24.210938 C 26.292969 23.9375 26.292969 23.496094 26.019531 23.222656 C 25.746094 22.953125 25.304688 22.953125 25.03125 23.222656 L 24.597656 23.660156 C 23.566406 24.691406 21.898438 24.691406 20.867188 23.660156 L 14.640625 17.433594 L 31.8125 17.433594 C 32.199219 17.433594 32.511719 17.117188 32.511719 16.734375 C 32.511719 16.347656 32.199219 16.035156 31.8125 16.035156 L 13.242188 16.035156 L 12.050781 14.84375 C 11.777344 14.570312 11.335938 14.570312 11.0625 14.84375 C 10.789062 15.117188 10.789062 15.558594 11.0625 15.832031 L 19.882812 24.648438 C 20.667969 25.433594 21.703125 25.828125 22.734375 25.828125 " fill-opacity="1" fill-rule="nonzero"/></svg>