<svg xmlns="http://www.w3.org/2000/svg" xmlns:xlink="http://www.w3.org/1999/xlink" width="70" zoomAndPan="magnify" viewBox="0 0 52.5 52.499999" height="70" preserveAspectRatio="xMidYMid meet" version="1.0"><defs><clipPath id="fe3709b40c"><path d="M 2.175781 5.199219 L 49.722656 5.199219 L 49.722656 44.574219 L 2.175781 44.574219 Z M 2.175781 5.199219 " clip-rule="nonzero"/></clipPath></defs><g clip-path="url(#fe3709b40c)"><path fill="#ffffff" d="M 6.019531 11.660156 L 6.941406 11.660156 L 6.941406 8.433594 C 6.941406 8.097656 7.21875 7.820312 7.558594 7.820312 L 14.320312 7.820312 C 14.660156 7.820312 14.933594 8.097656 14.933594 8.433594 L 14.933594 11.660156 L 17.273438 11.660156 C 18.070312 9.113281 18.980469 6.398438 21.722656 5.363281 C 24.355469 5.363281 26.988281 5.363281 29.617188 5.363281 C 32.65625 5.199219 33.980469 9.335938 34.734375 11.660156 L 45.980469 11.660156 C 48.09375 11.660156 49.824219 13.390625 49.824219 15.503906 L 49.824219 40.710938 C 49.824219 42.824219 48.09375 44.550781 45.980469 44.550781 L 6.019531 44.550781 C 3.90625 44.550781 2.179688 42.824219 2.179688 40.710938 L 2.179688 15.503906 C 2.179688 13.390625 3.90625 11.660156 6.019531 11.660156 Z M 13.089844 8.894531 L 13.089844 11.660156 L 13.707031 11.660156 L 13.707031 8.894531 Z M 12.476562 11.660156 L 12.476562 8.894531 L 11.859375 8.894531 L 11.859375 11.660156 Z M 11.246094 11.660156 L 11.246094 8.894531 L 10.632812 8.894531 L 10.632812 11.660156 Z M 10.015625 11.660156 L 10.015625 8.894531 L 9.402344 8.894531 L 9.402344 11.660156 Z M 8.785156 11.660156 L 8.785156 8.894531 L 8.171875 8.894531 L 8.171875 11.660156 Z M 22.003906 6.902344 C 27.128906 6.902344 29.6875 6.902344 29.6875 6.902344 C 30.917969 6.902344 32.03125 8.304688 33.070312 11.511719 C 33.070312 11.511719 28.355469 11.511719 18.929688 11.511719 C 19.746094 8.90625 20.769531 7.367188 22.003906 6.902344 Z M 6.019531 13.199219 L 45.980469 13.199219 C 47.25 13.199219 48.285156 14.234375 48.285156 15.503906 L 48.285156 40.710938 C 48.285156 41.976562 47.25 43.015625 45.980469 43.015625 L 6.019531 43.015625 C 4.753906 43.015625 3.714844 41.976562 3.714844 40.710938 L 3.714844 15.503906 C 3.714844 14.234375 4.753906 13.199219 6.019531 13.199219 Z M 6.019531 13.199219 " fill-opacity="1" fill-rule="evenodd"/></g><path fill="#ffffff" d="M 37.066406 14.890625 L 43.214844 14.890625 L 43.214844 17.964844 L 37.066406 17.964844 Z M 37.679688 15.503906 L 42.601562 15.503906 L 42.601562 17.347656 L 37.679688 17.347656 Z M 37.679688 15.503906 " fill-opacity="1" fill-rule="evenodd"/><path fill="#ffffff" d="M 32.101562 19.808594 L 38.296875 19.808594 L 38.296875 20.421875 L 32.925781 20.421875 C 32.660156 20.203125 32.386719 20 32.101562 19.808594 Z M 32.101562 19.808594 " fill-opacity="1" fill-rule="evenodd"/><path fill="#ffffff" d="M 3.5625 19.808594 L 20.050781 19.808594 C 19.769531 20 19.496094 20.203125 19.230469 20.421875 L 3.5625 20.421875 Z M 3.5625 19.808594 " fill-opacity="1" fill-rule="evenodd"/><path fill="#ffffff" d="M 41.371094 19.808594 L 46.289062 19.808594 L 46.289062 20.421875 L 41.371094 20.421875 Z M 41.371094 19.808594 " fill-opacity="1" fill-rule="evenodd"/><path fill="#ffffff" d="M 32.285156 37.507812 L 46.132812 37.507812 L 46.132812 38.40625 L 30.773438 38.40625 C 31.300781 38.148438 31.808594 37.847656 32.285156 37.507812 Z M 32.285156 37.507812 " fill-opacity="1" fill-rule="evenodd"/><path fill="#ffffff" d="M 3.714844 37.507812 L 19.867188 37.507812 C 20.347656 37.847656 20.851562 38.148438 21.382812 38.40625 L 3.714844 38.40625 Z M 3.714844 37.507812 " fill-opacity="1" fill-rule="evenodd"/><path fill="#ffffff" d="M 26.078125 21.730469 C 29.941406 21.730469 33.070312 24.859375 33.070312 28.722656 C 33.070312 32.582031 29.941406 35.714844 26.078125 35.714844 C 22.214844 35.714844 19.085938 32.582031 19.085938 28.722656 C 19.085938 24.859375 22.214844 21.730469 26.078125 21.730469 Z M 26.078125 22.652344 C 29.429688 22.652344 32.148438 25.367188 32.148438 28.722656 C 32.148438 32.074219 29.429688 34.792969 26.078125 34.792969 C 22.726562 34.792969 20.007812 32.074219 20.007812 28.722656 C 20.007812 25.367188 22.726562 22.652344 26.078125 22.652344 Z M 26.078125 22.652344 " fill-opacity="1" fill-rule="evenodd"/><path fill="#ffffff" d="M 26.078125 17.964844 C 32.019531 17.964844 36.835938 22.78125 36.835938 28.722656 C 36.835938 34.664062 32.019531 39.480469 26.078125 39.480469 C 20.136719 39.480469 15.320312 34.664062 15.320312 28.722656 C 15.320312 22.78125 20.136719 17.964844 26.078125 17.964844 Z M 26.078125 19.382812 C 31.234375 19.382812 35.417969 23.5625 35.417969 28.722656 C 35.417969 33.878906 31.234375 38.0625 26.078125 38.0625 C 20.917969 38.0625 16.738281 33.878906 16.738281 28.722656 C 16.738281 23.5625 20.917969 19.382812 26.078125 19.382812 Z M 26.078125 19.382812 " fill-opacity="1" fill-rule="evenodd"/><path fill="#ffffff" d="M 28.613281 25.207031 C 29.578125 25.207031 30.359375 25.988281 30.359375 26.953125 C 30.359375 27.917969 29.578125 28.699219 28.613281 28.699219 C 27.648438 28.699219 26.867188 27.917969 26.867188 26.953125 C 26.867188 25.988281 27.648438 25.207031 28.613281 25.207031 Z M 28.613281 25.4375 C 29.449219 25.4375 30.128906 26.117188 30.128906 26.953125 C 30.128906 27.792969 29.449219 28.46875 28.613281 28.46875 C 27.777344 28.46875 27.097656 27.792969 27.097656 26.953125 C 27.097656 26.117188 27.777344 25.4375 28.613281 25.4375 Z M 28.613281 25.4375 " fill-opacity="1" fill-rule="evenodd"/></svg>