<svg xmlns="http://www.w3.org/2000/svg" xmlns:xlink="http://www.w3.org/1999/xlink" width="70" zoomAndPan="magnify" viewBox="0 0 52.5 52.499999" height="70" preserveAspectRatio="xMidYMid meet" version="1.0"><defs><clipPath id="b013ce3398"><path d="M 5.199219 2.601562 L 46.804688 2.601562 L 46.804688 49.40625 L 5.199219 49.40625 Z M 5.199219 2.601562 " clip-rule="nonzero"/></clipPath></defs><g clip-path="url(#b013ce3398)"><path fill="#ab504f" d="M 45.46875 25.082031 L 29.859375 25.082031 L 29.859375 18.046875 L 45.46875 18.046875 Z M 42.597656 47.78125 L 29.859375 47.78125 L 29.859375 26.695312 L 42.597656 26.695312 Z M 24.03125 47.78125 L 24.03125 26.695312 L 28.246094 26.695312 L 28.246094 47.78125 Z M 9.679688 26.695312 L 22.421875 26.695312 L 22.421875 47.78125 L 9.679688 47.78125 Z M 6.808594 18.046875 L 22.421875 18.046875 L 22.421875 25.082031 L 6.808594 25.082031 Z M 11.777344 8.71875 C 11.609375 7.667969 12.820312 6.445312 13.707031 5.550781 C 14.535156 4.714844 15.261719 4.3125 15.996094 4.28125 C 16.914062 4.242188 17.964844 4.804688 19.125 5.953125 C 20.382812 7.203125 22.292969 9.542969 23.714844 11.964844 C 24.402344 13.132812 24.882812 14.171875 25.105469 14.972656 C 25.199219 15.304688 25.238281 15.574219 25.246094 15.78125 L 13.941406 10.808594 C 13.027344 10.335938 11.917969 9.59375 11.777344 8.71875 Z M 27.089844 14.972656 C 27.3125 14.171875 27.792969 13.132812 28.480469 11.964844 C 29.902344 9.542969 31.8125 7.203125 33.070312 5.953125 C 34.230469 4.804688 35.285156 4.242188 36.199219 4.28125 C 36.933594 4.3125 37.660156 4.714844 38.488281 5.550781 C 39.375 6.445312 40.585938 7.667969 40.417969 8.71875 C 40.277344 9.59375 39.167969 10.335938 38.253906 10.808594 L 26.949219 15.78125 C 26.957031 15.574219 27 15.304688 27.089844 14.972656 Z M 28.246094 25.082031 L 24.03125 25.082031 L 24.03125 18.046875 L 28.246094 18.046875 Z M 46.277344 16.4375 L 29.46875 16.4375 L 38.925781 12.273438 C 38.941406 12.269531 38.953125 12.261719 38.96875 12.253906 C 40.8125 11.308594 41.808594 10.234375 42.011719 8.972656 C 42.304688 7.113281 40.761719 5.554688 39.632812 4.417969 C 38.519531 3.289062 37.414062 2.71875 36.265625 2.667969 C 34.867188 2.613281 33.449219 3.3125 31.9375 4.808594 C 30.335938 6.398438 28.386719 8.945312 27.089844 11.148438 C 26.695312 11.824219 26.363281 12.457031 26.097656 13.042969 C 25.832031 12.457031 25.503906 11.824219 25.105469 11.148438 C 23.808594 8.945312 21.859375 6.398438 20.257812 4.808594 C 18.746094 3.3125 17.328125 2.613281 15.929688 2.667969 C 14.78125 2.71875 13.679688 3.289062 12.5625 4.417969 C 11.433594 5.554688 9.890625 7.113281 10.1875 8.972656 C 10.386719 10.234375 11.382812 11.308594 13.226562 12.253906 C 13.242188 12.261719 13.253906 12.269531 13.269531 12.273438 L 22.730469 16.4375 L 6.003906 16.4375 C 5.558594 16.4375 5.199219 16.796875 5.199219 17.242188 L 5.199219 25.886719 C 5.199219 26.332031 5.558594 26.695312 6.003906 26.695312 L 8.070312 26.695312 L 8.070312 48.585938 C 8.070312 49.03125 8.429688 49.394531 8.875 49.394531 L 43.402344 49.394531 C 43.847656 49.394531 44.210938 49.03125 44.210938 48.585938 L 44.210938 26.695312 L 46.277344 26.695312 C 46.722656 26.695312 47.082031 26.332031 47.082031 25.886719 L 47.082031 17.242188 C 47.082031 16.796875 46.722656 16.4375 46.277344 16.4375 " fill-opacity="1" fill-rule="nonzero"/></g></svg>