<svg xmlns="http://www.w3.org/2000/svg" xmlns:xlink="http://www.w3.org/1999/xlink" width="70" zoomAndPan="magnify" viewBox="0 0 52.5 52.499999" height="70" preserveAspectRatio="xMidYMid meet" version="1.0"><defs><clipPath id="5a152be971"><path d="M 6.578125 5.199219 L 45.210938 5.199219 L 45.210938 46.804688 L 6.578125 46.804688 Z M 6.578125 5.199219 " clip-rule="nonzero"/></clipPath></defs><g clip-path="url(#5a152be971)"><path fill="#a33a0d" d="M 43.699219 24.542969 C 42.496094 14.6875 36.851562 7.792969 29.03125 6.402344 C 28.242188 5.664062 27.179688 5.199219 26.023438 5.199219 C 24.867188 5.199219 23.800781 5.664062 23.015625 6.402344 C 15.148438 7.792969 9.546875 14.734375 8.34375 24.542969 L 6.722656 37.871094 C 6.679688 38.195312 6.910156 38.519531 7.234375 38.613281 C 8.851562 39.074219 10.472656 39.492188 12 39.816406 C 11.90625 40.324219 11.816406 40.878906 11.816406 41.4375 L 11.816406 45.136719 C 11.816406 46.0625 12.554688 46.804688 13.480469 46.804688 L 38.515625 46.804688 C 39.441406 46.804688 40.183594 46.0625 40.183594 45.136719 L 40.183594 41.4375 C 40.183594 40.878906 40.136719 40.324219 40 39.816406 C 41.570312 39.492188 43.191406 39.074219 44.765625 38.613281 C 45.089844 38.519531 45.320312 38.195312 45.273438 37.871094 Z M 29.03125 9.367188 C 28.105469 9.042969 27.085938 8.855469 26.023438 8.855469 C 24.957031 8.855469 23.984375 9.042969 23.015625 9.367188 C 23.152344 7.839844 24.449219 6.589844 26.023438 6.589844 C 27.59375 6.589844 28.890625 7.792969 29.03125 9.367188 Z M 26.023438 30.5625 C 22.367188 30.5625 19.359375 27.597656 19.359375 23.898438 L 19.359375 21.210938 C 21.070312 21.027344 22.503906 20.195312 23.382812 18.804688 C 26.023438 20.332031 29.121094 21.121094 32.640625 21.210938 L 32.640625 23.898438 C 32.6875 27.597656 29.679688 30.5625 26.023438 30.5625 Z M 17 21.257812 L 17.96875 21.257812 L 17.96875 23.109375 L 17 23.109375 C 16.488281 23.109375 16.074219 22.695312 16.074219 22.183594 C 16.074219 21.675781 16.488281 21.257812 17 21.257812 Z M 35.046875 23.15625 L 34.074219 23.15625 L 34.074219 21.304688 L 35.046875 21.304688 C 35.554688 21.304688 35.972656 21.722656 35.972656 22.230469 C 35.972656 22.738281 35.554688 23.15625 35.046875 23.15625 Z M 34.351562 19.871094 L 33.378906 19.871094 C 29.539062 19.871094 26.207031 18.992188 23.523438 17.277344 C 23.429688 17.1875 23.292969 17.1875 23.152344 17.1875 C 23.105469 17.1875 23.015625 17.1875 22.96875 17.234375 C 22.78125 17.277344 22.597656 17.417969 22.550781 17.601562 C 21.855469 19.082031 20.46875 19.917969 18.710938 19.917969 L 17.691406 19.917969 L 17.691406 18.761719 C 17.691406 14.085938 21.441406 10.292969 26.023438 10.292969 C 30.605469 10.292969 34.351562 14.085938 34.351562 18.761719 Z M 8.160156 37.457031 L 9.734375 24.683594 C 10.796875 16.074219 15.378906 9.828125 21.902344 8.023438 C 21.71875 8.484375 21.625 8.996094 21.625 9.550781 C 21.625 9.644531 21.625 9.78125 21.625 9.875 C 18.480469 11.585938 16.304688 14.917969 16.304688 18.761719 L 16.304688 20.007812 C 15.378906 20.285156 14.683594 21.167969 14.683594 22.230469 C 14.683594 23.339844 15.472656 24.265625 16.535156 24.5 C 15.5625 25.609375 15.703125 26.8125 15.839844 27.875 C 15.980469 28.941406 16.074219 29.820312 15.191406 30.652344 C 14.914062 30.929688 14.914062 31.347656 15.191406 31.625 C 15.332031 31.765625 15.515625 31.855469 15.703125 31.855469 C 15.886719 31.855469 16.027344 31.808594 16.164062 31.671875 C 17.554688 30.375 17.367188 28.894531 17.230469 27.738281 C 17.089844 26.582031 17 25.792969 18.0625 25.007812 C 18.386719 27.550781 19.914062 29.726562 22.089844 30.976562 L 22.089844 33.847656 L 19.542969 33.847656 C 16.351562 33.847656 13.574219 35.789062 12.417969 38.613281 C 11.027344 38.195312 9.59375 37.871094 8.160156 37.457031 Z M 34.121094 45.460938 L 17.921875 45.460938 L 17.921875 42.730469 C 17.921875 40.695312 19.542969 40.140625 20.238281 40 C 22.089844 39.632812 24.542969 40.464844 25.375 42.546875 C 25.46875 42.824219 25.746094 42.964844 26.023438 42.964844 C 26.300781 42.964844 26.578125 42.777344 26.671875 42.546875 C 27.503906 40.511719 29.957031 39.632812 31.808594 40 C 32.5 40.140625 34.121094 40.695312 34.121094 42.730469 Z M 38.839844 45.183594 C 38.839844 45.324219 38.703125 45.460938 38.5625 45.460938 L 35.554688 45.460938 L 35.554688 42.730469 C 35.554688 40.648438 34.214844 39.074219 32.085938 38.660156 C 30.046875 38.242188 27.457031 38.984375 26.023438 40.878906 C 24.585938 38.984375 21.996094 38.242188 19.960938 38.660156 C 17.832031 39.074219 16.488281 40.648438 16.488281 42.730469 L 16.488281 45.460938 L 13.480469 45.460938 C 13.34375 45.460938 13.203125 45.324219 13.203125 45.183594 L 13.203125 41.480469 C 13.203125 38.011719 16.027344 35.140625 19.542969 35.140625 L 22.78125 35.140625 C 23.152344 35.140625 23.476562 34.816406 23.476562 34.449219 L 23.476562 31.53125 C 24.265625 31.808594 25.144531 31.949219 26.023438 31.949219 C 26.902344 31.949219 27.78125 31.808594 28.566406 31.53125 L 28.566406 34.449219 C 28.566406 34.816406 28.890625 35.140625 29.261719 35.140625 L 32.5 35.140625 C 35.972656 35.140625 38.839844 37.964844 38.839844 41.480469 Z M 39.628906 38.519531 C 38.472656 35.742188 35.695312 33.800781 32.5 33.800781 L 29.957031 33.800781 L 29.957031 30.929688 C 32.132812 29.726562 33.65625 27.550781 33.980469 24.960938 C 35.046875 25.703125 34.953125 26.535156 34.816406 27.691406 C 34.675781 28.847656 34.492188 30.328125 35.878906 31.625 C 36.019531 31.765625 36.203125 31.808594 36.34375 31.808594 C 36.527344 31.808594 36.710938 31.71875 36.851562 31.578125 C 37.128906 31.300781 37.128906 30.882812 36.851562 30.605469 C 35.972656 29.773438 36.066406 28.941406 36.203125 27.832031 C 36.34375 26.765625 36.480469 25.5625 35.507812 24.453125 C 36.574219 24.21875 37.359375 23.296875 37.359375 22.183594 C 37.359375 21.167969 36.667969 20.285156 35.742188 19.964844 L 35.742188 18.714844 C 35.742188 14.871094 33.566406 11.539062 30.417969 9.921875 C 30.417969 9.78125 30.417969 9.6875 30.417969 9.550781 C 30.417969 8.996094 30.324219 8.484375 30.140625 8.023438 C 36.667969 9.828125 41.246094 16.03125 42.3125 24.683594 L 43.886719 37.457031 C 42.449219 37.871094 41.015625 38.195312 39.628906 38.519531 Z M 39.628906 38.519531 " fill-opacity="1" fill-rule="nonzero"/></g></svg>