<svg xmlns="http://www.w3.org/2000/svg" xmlns:xlink="http://www.w3.org/1999/xlink" width="70" zoomAndPan="magnify" viewBox="0 0 52.5 52.499999" height="70" preserveAspectRatio="xMidYMid meet" version="1.0"><defs><clipPath id="60e89f4e8e"><path d="M 9.195312 2.824219 L 42.625 2.824219 L 42.625 48.878906 L 9.195312 48.878906 Z M 9.195312 2.824219 " clip-rule="nonzero"/></clipPath></defs><g clip-path="url(#60e89f4e8e)"><path fill="#c8491c" d="M 12.375 48.203125 L 39.628906 48.203125 C 40.847656 48.203125 41.835938 47.21875 41.835938 46 L 41.835938 6.003906 C 41.835938 4.785156 40.847656 3.800781 39.628906 3.800781 L 12.375 3.800781 C 11.15625 3.800781 10.167969 4.785156 10.167969 6.003906 L 10.167969 46 C 10.167969 47.21875 11.15625 48.203125 12.375 48.203125 Z M 40.605469 49.179688 L 11.398438 49.179688 C 10.179688 49.179688 9.195312 48.191406 9.195312 46.972656 L 9.195312 5.03125 C 9.195312 3.8125 10.179688 2.824219 11.398438 2.824219 L 40.605469 2.824219 C 41.824219 2.824219 42.8125 3.8125 42.8125 5.03125 L 42.8125 46.972656 C 42.8125 48.191406 41.824219 49.179688 40.605469 49.179688 " fill-opacity="1" fill-rule="nonzero"/></g><path fill="#c8491c" d="M 13.773438 21.035156 L 12.660156 19.605469 C 12.550781 19.46875 12.5625 19.273438 12.683594 19.148438 C 12.824219 19 13.023438 18.8125 13.15625 18.964844 L 13.765625 19.652344 C 13.910156 19.816406 14.167969 19.808594 14.300781 19.636719 L 15.523438 18.078125 C 15.617188 17.960938 15.792969 17.949219 15.902344 18.054688 L 16.253906 18.40625 C 16.382812 18.539062 16.390625 18.75 16.265625 18.886719 L 14.308594 21.054688 C 14.160156 21.214844 13.90625 21.207031 13.773438 21.035156 " fill-opacity="1" fill-rule="nonzero"/><path fill="#c8491c" d="M 13.773438 27.964844 L 12.660156 26.535156 C 12.550781 26.398438 12.5625 26.203125 12.683594 26.078125 C 12.824219 25.933594 13.023438 25.746094 13.15625 25.898438 L 13.765625 26.585938 C 13.910156 26.746094 14.167969 26.738281 14.300781 26.566406 L 15.363281 25.214844 C 15.542969 24.984375 15.882812 24.964844 16.085938 25.171875 L 16.253906 25.339844 C 16.382812 25.46875 16.390625 25.679688 16.265625 25.820312 L 14.308594 27.984375 C 14.160156 28.144531 13.90625 28.136719 13.773438 27.964844 " fill-opacity="1" fill-rule="nonzero"/><path fill="#c8491c" d="M 13.773438 35.59375 L 12.660156 34.164062 C 12.550781 34.027344 12.5625 33.832031 12.683594 33.707031 C 12.824219 33.5625 13.023438 33.371094 13.15625 33.523438 L 13.765625 34.210938 C 13.910156 34.375 14.167969 34.367188 14.300781 34.195312 L 15.363281 32.84375 C 15.542969 32.613281 15.882812 32.59375 16.085938 32.800781 L 16.253906 32.964844 C 16.382812 33.097656 16.390625 33.308594 16.265625 33.445312 L 14.308594 35.613281 C 14.160156 35.773438 13.90625 35.765625 13.773438 35.59375 " fill-opacity="1" fill-rule="nonzero"/><path fill="#c8491c" d="M 25.40625 12.15625 C 24.878906 12.675781 24.050781 13.300781 23.574219 13.261719 C 22.804688 13.199219 21.808594 12.164062 21.808594 12.164062 C 21.808594 12.164062 19.4375 10.464844 20.863281 8.804688 C 21.882812 7.621094 23.574219 9.519531 23.574219 9.519531 C 23.574219 9.519531 25.152344 7.507812 26.390625 8.199219 C 27.878906 9.03125 26.320312 11.25 25.40625 12.15625 Z M 27.101562 7.28125 C 25.3125 6.28125 23.582031 8.171875 23.582031 8.171875 C 22.929688 7.65625 22.042969 7.242188 21.203125 7.242188 C 19.832031 7.246094 18.808594 8.675781 19.011719 9.992188 C 19.246094 11.511719 20.804688 12.765625 21.933594 13.636719 C 22.285156 13.90625 22.644531 14.175781 23.0625 14.324219 C 24.308594 14.765625 25.429688 13.609375 26.234375 12.8125 C 27.5625 11.496094 29.257812 8.488281 27.101562 7.28125 " fill-opacity="1" fill-rule="nonzero"/><path fill="#c8491c" d="M 30.328125 13.671875 C 29.800781 14.191406 28.972656 14.8125 28.496094 14.777344 C 27.726562 14.714844 26.730469 13.675781 26.730469 13.675781 C 26.730469 13.675781 24.054688 11.976562 25.480469 10.316406 C 26.5 9.132812 28.496094 11.035156 28.496094 11.035156 C 28.496094 11.035156 29.691406 9.164062 30.925781 9.855469 C 32.414062 10.6875 31.242188 12.765625 30.328125 13.671875 Z M 32.023438 8.796875 C 30.234375 7.796875 28.511719 9.941406 28.511719 9.941406 C 27.859375 9.425781 26.964844 8.757812 26.125 8.757812 C 24.753906 8.757812 23.730469 10.191406 23.933594 11.507812 C 24.167969 13.023438 25.726562 14.277344 26.855469 15.152344 C 27.207031 15.421875 27.566406 15.6875 27.984375 15.835938 C 29.230469 16.28125 30.351562 15.125 31.15625 14.328125 C 32.484375 13.011719 34.179688 10 32.023438 8.796875 " fill-opacity="1" fill-rule="nonzero"/><path fill="#c8491c" d="M 38.03125 19.554688 L 18.597656 19.554688 C 18.253906 19.554688 17.972656 19.273438 17.972656 18.925781 C 17.972656 18.582031 18.253906 18.300781 18.597656 18.300781 L 38.03125 18.300781 C 38.378906 18.300781 38.660156 18.582031 38.660156 18.925781 C 38.660156 19.273438 38.378906 19.554688 38.03125 19.554688 " fill-opacity="1" fill-rule="nonzero"/><path fill="#c8491c" d="M 38.03125 23.519531 L 18.597656 23.519531 C 18.253906 23.519531 17.972656 23.242188 17.972656 22.894531 C 17.972656 22.546875 18.253906 22.265625 18.597656 22.265625 L 38.03125 22.265625 C 38.378906 22.265625 38.660156 22.546875 38.660156 22.894531 C 38.660156 23.242188 38.378906 23.519531 38.03125 23.519531 " fill-opacity="1" fill-rule="nonzero"/><path fill="#c8491c" d="M 38.03125 27.488281 L 18.597656 27.488281 C 18.253906 27.488281 17.972656 27.207031 17.972656 26.859375 C 17.972656 26.511719 18.253906 26.230469 18.597656 26.230469 L 38.03125 26.230469 C 38.378906 26.230469 38.660156 26.511719 38.660156 26.859375 C 38.660156 27.207031 38.378906 27.488281 38.03125 27.488281 " fill-opacity="1" fill-rule="nonzero"/><path fill="#c8491c" d="M 38.03125 31.453125 L 18.597656 31.453125 C 18.253906 31.453125 17.972656 31.171875 17.972656 30.828125 C 17.972656 30.480469 18.253906 30.199219 18.597656 30.199219 L 38.03125 30.199219 C 38.378906 30.199219 38.660156 30.480469 38.660156 30.828125 C 38.660156 31.171875 38.378906 31.453125 38.03125 31.453125 " fill-opacity="1" fill-rule="nonzero"/><path fill="#c8491c" d="M 38.03125 35.421875 L 18.597656 35.421875 C 18.253906 35.421875 17.972656 35.140625 17.972656 34.792969 C 17.972656 34.445312 18.253906 34.164062 18.597656 34.164062 L 38.03125 34.164062 C 38.378906 34.164062 38.660156 34.445312 38.660156 34.792969 C 38.660156 35.140625 38.378906 35.421875 38.03125 35.421875 " fill-opacity="1" fill-rule="nonzero"/><path fill="#c8491c" d="M 24.414062 43.660156 L 18.839844 43.660156 C 18.507812 43.660156 18.238281 43.390625 18.238281 43.058594 C 18.238281 42.726562 18.507812 42.457031 18.839844 42.457031 L 24.414062 42.457031 C 24.746094 42.457031 25.015625 42.726562 25.015625 43.058594 C 25.015625 43.390625 24.746094 43.660156 24.414062 43.660156 " fill-opacity="1" fill-rule="nonzero"/><path fill="#c8491c" d="M 34.898438 38.125 C 32.570312 37.875 30.617188 39.828125 30.863281 42.160156 C 31.042969 43.855469 32.40625 45.21875 34.105469 45.398438 C 36.433594 45.644531 38.386719 43.691406 38.140625 41.363281 C 37.960938 39.667969 36.59375 38.304688 34.898438 38.125 Z M 34.921875 46.371094 C 32.039062 46.625 29.636719 44.222656 29.894531 41.339844 C 30.089844 39.128906 31.871094 37.351562 34.078125 37.152344 C 36.960938 36.894531 39.367188 39.300781 39.109375 42.183594 C 38.914062 44.394531 37.132812 46.171875 34.921875 46.371094 " fill-opacity="1" fill-rule="nonzero"/><path fill="#c8491c" d="M 36.855469 42.21875 C 36.65625 42.152344 36.535156 41.957031 36.535156 41.746094 C 36.527344 40.636719 35.625 39.738281 34.515625 39.730469 C 34.308594 39.726562 34.109375 39.605469 34.042969 39.40625 C 33.933594 39.070312 34.179688 38.761719 34.5 38.761719 C 36.15625 38.761719 37.503906 40.105469 37.503906 41.761719 C 37.503906 42.082031 37.191406 42.328125 36.855469 42.21875 " fill-opacity="1" fill-rule="nonzero"/><path fill="#c8491c" d="M 34.5 44.761719 C 32.851562 44.761719 31.507812 43.421875 31.5 41.773438 C 31.5 41.542969 31.660156 41.328125 31.890625 41.285156 C 32.199219 41.230469 32.46875 41.464844 32.46875 41.761719 C 32.46875 42.878906 33.375 43.789062 34.496094 43.792969 C 34.738281 43.792969 34.957031 43.980469 34.980469 44.222656 C 35.015625 44.515625 34.785156 44.761719 34.5 44.761719 " fill-opacity="1" fill-rule="nonzero"/></svg>