<svg xmlns="http://www.w3.org/2000/svg" xmlns:xlink="http://www.w3.org/1999/xlink" width="70" zoomAndPan="magnify" viewBox="0 0 52.5 52.499999" height="70" preserveAspectRatio="xMidYMid meet" version="1.0"><defs><clipPath id="62a3b87561"><path d="M 5.199219 13 L 27 13 L 27 39 L 5.199219 39 Z M 5.199219 13 " clip-rule="nonzero"/></clipPath><clipPath id="d4d380a1a4"><path d="M 25 14 L 46.0625 14 L 46.0625 39.996094 L 25 39.996094 Z M 25 14 " clip-rule="nonzero"/></clipPath><clipPath id="f1d915adea"><path d="M 24 11.765625 L 31 11.765625 L 31 18 L 24 18 Z M 24 11.765625 " clip-rule="nonzero"/></clipPath></defs><g clip-path="url(#62a3b87561)"><path fill="#c8491c" d="M 14.710938 38.480469 L 6.996094 36.808594 C 6.8125 36.769531 6.671875 36.671875 6.566406 36.511719 C 6.464844 36.355469 6.429688 36.1875 6.464844 36 C 6.503906 35.8125 6.601562 35.667969 6.761719 35.5625 C 6.925781 35.453125 7.105469 35.421875 7.296875 35.460938 C 9.046875 35.84375 10.78125 34.726562 11.160156 32.976562 L 12.890625 24.996094 C 12.9375 24.777344 12.894531 24.582031 12.769531 24.402344 L 12.765625 24.398438 L 5.253906 13.449219 C 5.195312 13.363281 5.195312 13.277344 5.253906 13.191406 C 5.3125 13.105469 5.390625 13.070312 5.492188 13.09375 L 25.902344 17.519531 C 26.003906 17.539062 26.0625 17.601562 26.082031 17.707031 C 26.097656 17.808594 26.0625 17.886719 25.972656 17.941406 L 14.597656 24.796875 C 14.40625 24.910156 14.289062 25.070312 14.242188 25.285156 L 12.507812 33.269531 C 12.128906 35.019531 13.246094 36.75 14.996094 37.132812 C 15.363281 37.210938 15.605469 37.574219 15.535156 37.941406 C 15.496094 38.128906 15.398438 38.277344 15.238281 38.382812 C 15.074219 38.492188 14.902344 38.523438 14.710938 38.484375 Z M 5.960938 13.664062 L 13.148438 24.140625 C 13.347656 24.429688 13.414062 24.746094 13.339844 25.089844 L 11.609375 33.074219 C 11.507812 33.554688 11.3125 33.996094 11.035156 34.402344 C 10.753906 34.804688 10.40625 35.140625 9.992188 35.40625 C 9.578125 35.671875 9.132812 35.847656 8.648438 35.9375 C 8.164062 36.023438 7.679688 36.015625 7.199219 35.910156 C 7.132812 35.898438 7.074219 35.910156 7.015625 35.945312 C 6.960938 35.980469 6.929688 36.027344 6.917969 36.089844 C 6.890625 36.238281 6.949219 36.328125 7.09375 36.359375 L 14.808594 38.03125 C 14.960938 38.066406 15.054688 38.003906 15.082031 37.851562 C 15.105469 37.734375 15.019531 37.605469 14.898438 37.582031 C 14.417969 37.476562 13.976562 37.285156 13.570312 37.003906 C 13.167969 36.722656 12.832031 36.378906 12.566406 35.964844 C 12.300781 35.550781 12.121094 35.101562 12.035156 34.617188 C 11.949219 34.132812 11.957031 33.652344 12.058594 33.171875 L 13.789062 25.1875 C 13.867188 24.84375 14.058594 24.582031 14.359375 24.402344 L 14.363281 24.402344 L 25.238281 17.84375 Z M 5.960938 13.664062 " fill-opacity="1" fill-rule="nonzero"/></g><g clip-path="url(#d4d380a1a4)"><path fill="#c8491c" d="M 36.875 40.1875 L 44.589844 38.515625 C 44.773438 38.476562 44.917969 38.375 45.019531 38.21875 C 45.121094 38.0625 45.15625 37.890625 45.121094 37.707031 C 45.085938 37.519531 44.984375 37.375 44.824219 37.269531 C 44.660156 37.160156 44.480469 37.128906 44.289062 37.167969 C 42.539062 37.546875 40.804688 36.433594 40.425781 34.683594 L 38.695312 26.699219 C 38.652344 26.484375 38.691406 26.289062 38.816406 26.109375 L 38.820312 26.105469 L 46.332031 15.15625 C 46.390625 15.070312 46.390625 14.984375 46.332031 14.898438 C 46.277344 14.8125 46.195312 14.777344 46.09375 14.800781 L 25.683594 19.226562 C 25.582031 19.25 25.523438 19.3125 25.507812 19.414062 C 25.488281 19.515625 25.527344 19.59375 25.613281 19.648438 L 36.988281 26.503906 C 37.179688 26.617188 37.296875 26.777344 37.347656 26.992188 L 39.078125 34.976562 C 39.457031 36.726562 38.34375 38.460938 36.589844 38.839844 C 36.222656 38.917969 35.980469 39.28125 36.050781 39.648438 C 36.089844 39.835938 36.1875 39.984375 36.351562 40.089844 C 36.511719 40.199219 36.6875 40.230469 36.875 40.1875 Z M 45.625 15.371094 L 38.4375 25.847656 C 38.238281 26.136719 38.175781 26.453125 38.246094 26.796875 L 39.976562 34.78125 C 40.082031 35.261719 40.273438 35.703125 40.554688 36.109375 C 40.832031 36.511719 41.179688 36.847656 41.59375 37.113281 C 42.007812 37.378906 42.457031 37.554688 42.941406 37.644531 C 43.425781 37.730469 43.90625 37.722656 44.386719 37.617188 C 44.453125 37.605469 44.515625 37.617188 44.570312 37.652344 C 44.625 37.6875 44.65625 37.734375 44.671875 37.796875 C 44.699219 37.945312 44.640625 38.035156 44.492188 38.066406 L 36.777344 39.738281 C 36.625 39.773438 36.535156 39.710938 36.503906 39.558594 C 36.480469 39.441406 36.566406 39.3125 36.691406 39.289062 C 37.171875 39.183594 37.613281 38.992188 38.015625 38.710938 C 38.421875 38.429688 38.757812 38.085938 39.023438 37.671875 C 39.289062 37.257812 39.464844 36.808594 39.554688 36.324219 C 39.640625 35.839844 39.632812 35.359375 39.527344 34.878906 L 37.796875 26.894531 C 37.71875 26.550781 37.53125 26.289062 37.226562 26.109375 L 37.222656 26.109375 L 26.347656 19.550781 Z M 45.625 15.371094 " fill-opacity="1" fill-rule="nonzero"/></g><path fill="#c8491c" d="M 37.667969 20.832031 C 37.011719 20.703125 36.355469 20.632812 35.6875 20.625 C 34.03125 20.601562 32.554688 20.960938 31.585938 21.515625 L 37.660156 25.175781 L 38.949219 23.296875 L 39.527344 22.449219 L 40.835938 20.542969 C 40.136719 20.828125 39.035156 21.101562 37.667969 20.832031 Z M 37.433594 24.140625 L 36.695312 23.695312 L 37.261719 22.867188 L 38.152344 23.09375 Z M 37.84375 22.019531 L 38.082031 21.671875 C 38.316406 21.695312 38.550781 21.710938 38.789062 21.710938 C 38.894531 21.710938 39.003906 21.707031 39.109375 21.703125 L 38.734375 22.246094 Z M 37.84375 22.019531 " fill-opacity="1" fill-rule="nonzero"/><path fill="#c8491c" d="M 15.898438 18.917969 C 15.234375 18.925781 14.574219 18.996094 13.921875 19.125 C 12.550781 19.390625 11.449219 19.121094 10.75 18.835938 L 13.929688 23.464844 L 17.367188 21.390625 L 18.582031 20.660156 L 20 19.804688 C 19.03125 19.253906 17.554688 18.894531 15.898438 18.917969 Z M 14.152344 22.433594 L 13.742188 21.835938 L 15.21875 20.941406 L 16.265625 21.160156 Z M 16.429688 20.210938 L 17.195312 19.753906 C 17.496094 19.789062 17.796875 19.839844 18.09375 19.910156 C 18.15625 19.921875 18.214844 19.9375 18.269531 19.953125 L 17.476562 20.429688 Z M 16.429688 20.210938 " fill-opacity="1" fill-rule="nonzero"/><path fill="#c8491c" d="M 24.652344 23.15625 L 24.175781 23.15625 L 24.175781 20.800781 L 24.652344 20.800781 Z M 24.652344 24.480469 L 24.175781 24.480469 L 24.175781 26.832031 L 24.652344 26.832031 Z M 21.398438 23.578125 L 21.398438 24.054688 L 23.753906 24.054688 L 23.753906 23.578125 Z M 25.078125 23.578125 L 25.078125 24.054688 L 27.433594 24.054688 L 27.433594 23.578125 Z M 25.078125 23.578125 " fill-opacity="1" fill-rule="nonzero"/><g clip-path="url(#f1d915adea)"><path fill="#c8491c" d="M 27.511719 14.128906 L 27.035156 14.128906 L 27.035156 11.773438 L 27.511719 11.773438 Z M 27.511719 15.453125 L 27.035156 15.453125 L 27.035156 17.808594 L 27.511719 17.808594 Z M 24.257812 14.554688 L 24.257812 15.03125 L 26.613281 15.03125 L 26.613281 14.554688 Z M 27.933594 14.554688 L 27.933594 15.03125 L 30.289062 15.03125 L 30.289062 14.554688 Z M 27.933594 14.554688 " fill-opacity="1" fill-rule="nonzero"/></g></svg>